<?xml version="1.0" encoding="UTF-8"?><svg id="Calque_2" xmlns="http://www.w3.org/2000/svg" viewBox="0 0 218.07 276.4"><defs><style>.cls-1,.cls-2{fill:none;}.cls-2{stroke:#000;stroke-miterlimit:10;stroke-width:.21px;}.cls-3{fill:#fff;}.cls-4{fill:#87953c;}</style></defs><g id="Section_Nav"><g><g><g><path class="cls-1" d="M161.5,83.71c-.04-.13-.07-.26-.11-.38-.25,.03-.5,.08-.75,.12,.05,.15,.08,.29,.11,.43,.25-.06,.5-.11,.75-.16Z"/><path class="cls-1" d="M160.31,82.73c.11,.17,.2,.34,.27,.51,.25-.04,.5-.09,.76-.12-.06-.2-.12-.4-.19-.6-.31,.02-.62,.06-.94,.08,.04,.04,.08,.08,.11,.12Z"/><path class="cls-1" d="M149.14,270.4c-.05,.17-.1,.34-.15,.51,.21-.16,.41-.32,.61-.49-.15-.02-.3-.03-.45-.03Z"/><path class="cls-1" d="M144.93,273.3c.11-.05,.22-.1,.33-.15,.01-.13,.02-.25,.04-.38-.13,.17-.25,.35-.37,.53Z"/><path class="cls-1" d="M192.95,21.15c-.06,.21-.13,.41-.21,.61,.08,.01,.16,.03,.23,.05,0-.22-.01-.44-.03-.66Z"/><path class="cls-1" d="M113.3,66.45c.54-1.16,.99-2.32,1.34-3.48-.81,1.27-1.27,2.46-1.34,3.48Z"/><path class="cls-1" d="M116.83,52.09s-.07-.04-.1-.06c.02,.03,.04,.06,.06,.09l.04-.02Z"/><path class="cls-1" d="M39.38,206.5c-.86-.54-1.77-1.05-2.74-1.52,.65,.56,1.3,1.03,1.78,1.36,.29,.2,.63,.25,.96,.17Z"/><path d="M133.06,84.01l.48,.14c-1.21,4.1-3.45,8.16-6.52,12.01,1.26,.62,2.5,1.39,3.69,2.31,2.86,2.2,5.02,4.95,5.88,7.42,.82-.59,1.65-1.17,2.49-1.73,.4-.26,.8-.51,1.2-.77-2.45-3.5-3.8-8.12-3.8-13.04,0-1.57,.14-3.09,.4-4.55-1.01-2.82,2.13-8.1,3.52-10.22,.41-.62,.67-1.33,.72-2.06-2.01,3.7-4.71,7.22-8.06,10.5Z"/><path d="M63.64,109.05c3.96-1.36,7.91-1.68,11.39-.84-.21-.15-.42-.3-.64-.43-1.07-.24-2.19-.38-3.37-.38-1.58,0-3.25,.22-4.97,.67-.74,.19-1.48,.43-2.21,.7-.04,.06-.08,.12-.13,.18-.03,.03-.05,.07-.08,.1Z"/><path d="M203.36,251.49c.88-1.57,2.06-3.02,3.3-4.29-3.22-3.01-7.59-4.58-12.72-4.58-1.93,0-3.96,.22-6.07,.67-7.95,1.68-16.08,6.35-22.89,13.17-1.16,1.16-2.26,2.37-3.29,3.6-.52,4.19-2.99,8.03-7.06,10.99-.49,1.05-.92,2.1-1.31,3.15,.09,0,.18,.02,.28,.02,.57,0,1.12-.12,1.63-.33,.07-.03,.12-.08,.14-.15,.26-.79,1.96-5.69,3.96-5.69,0,0,2.17,1.34,3.6,1.48,1.69-2.44,3.67-4.83,5.93-7.1,11.38-11.38,25.95-15.75,34.49-10.93Z"/><path d="M34.08,205.79c-3.48,4.21-7.41,7.75-11.06,9.96l-.32-.53h0l-.26,.02c-.36-4.26,.47-8.95,2.32-13.57-1.02-.11-2.06-.17-3.11-.2-.47,.66-.8,1.39-.8,2.17,0,1.11,.78,2.89,1.21,3.79,.11,.23-.08,.49-.34,.45-2.21-.32-4.86-.19-7.61,.47-6.56,1.56-11.23,5.52-10.44,8.84,.14,.57,.76,1.43,1.11,1.88,.12,.15,.06,.36-.12,.44-.8,.37-1.68,.99-2.5,1.8-1.87,1.87-2.7,4.08-1.86,4.93,.85,.85,3.06,.02,4.93-1.86,.68-.68,1.38-1.85,1.74-2.5,.13-.23,.42-.31,.64-.17,.95,.63,2.15,1.01,3.46,1.01,.89,0,1.73-.17,2.47-.48,.16-.07,.34-.09,.52-.06,.96,.19,4.33,.81,6.39,.81,3.51,0,6.7-.66,9.08-1.73l-.09-.24c-.38-.66-.59-1.39-.59-2.16,0-3.06,3.38-5.45,7.54-5.55,2.9-.06,5.2,.75,5.2,.75,1.61,0,3-.95,3.64-2.32-1.51-1.96-3.48-3.74-5.87-5.25-.33,.08-.67,.03-.96-.17-.48-.33-1.12-.8-1.78-1.36-.46-.22-.93-.44-1.4-.64-.38,.49-.76,.98-1.16,1.46Z"/><path d="M120.93,67.8c-1.04,4.78-3.51,9.59-7.13,13.8-4.28,4.98-9.65,8.51-15.12,9.94-1.74,.45-3.42,.68-5.02,.68-3.44,0-6.48-1.04-8.84-3.07-1.79-1.54-3.04-3.53-3.77-5.82-.33-.03-.57-.06-.57-.06-.51-.07-1.09-.06-1.7,0,.52,3.76,2.12,7.06,4.85,9.41,7.77,6.68,21.77,3.19,31.2-7.79,4.57-5.32,7.4-11.59,7.97-17.64,0-.03,0-.06,0-.1h-.02c-.59,.22-1.22,.43-1.87,.63Z"/><path d="M44.75,135.05c-.33-.65-.68-1.29-1.06-1.94-.91,5.79,.44,11.1,4.21,14.34,.09,.08,.19,.15,.29,.23-.05-1.79-.3-3.61-.74-5.45-1.6-1.86-2.52-4.32-2.7-7.19Z"/><path d="M161.44,260.34c-2.7,3.27-4.94,6.75-6.63,10.31,3.75-2.82,6.05-6.4,6.63-10.31Z"/><path d="M144.13,101.15c-.39-1.6-.49-3.25-.22-4.89,.73-4.5,3.94-8.33,9.05-10.77,2.31-1.1,4.89-1.84,7.62-2.25-.07-.17-.15-.34-.27-.51-.03-.04-.07-.08-.11-.12-3.03,.27-5.91,.93-8.54,1.99-.21,.17-.42,.34-.64,.51-1.62,1.23-3.33,2.13-5,2.7-3.17,2.51-5.18,5.7-5.76,9.29-.3,1.86-.19,3.73,.27,5.54,.09,.14,.17,.28,.27,.42,1.11-.68,2.21-1.32,3.32-1.91Z"/><path d="M159.74,251.51c-.73-1.32-1.67-2.58-2.82-3.77-.83,1-1.62,2.02-2.38,3.06,1.08,1.25,1.92,2.57,2.51,3.95,.84-1.1,1.74-2.18,2.69-3.24Z"/><path d="M151.63,254.85c.82-1.37,1.71-2.72,2.66-4.04-.83-.95-1.81-1.85-2.91-2.7-4.42-3.38-10.42-5.42-16.89-5.73-.58-.03-1.15-.04-1.73-.04-1.71,0-3.38,.14-5.01,.38,.94,1.05,1.83,2.3,2.65,3.74,.67,0,1.35,0,2.03,.03,8.36,.4,15.52,3.74,19.2,8.36Z"/><path d="M45.5,211.06c.13-.49,.17-1.01,.1-1.55-.27-2.01-2.11-3.45-4.14-3.47-.5,0-.96,0-1.4,.16,2.17,1.42,4,3.06,5.44,4.85Z"/><path d="M54.64,145.77c-2.33-.21-4.43-1.01-6.13-2.47-.29-.25-.54-.52-.8-.8,.42,1.8,.65,3.59,.69,5.35,1.77,1.36,3.88,2.2,6.23,2.49,.14-1.49,.14-3.02,0-4.58Z"/><path d="M140.07,97.07c.56-3.49,2.45-6.61,5.44-9.1-3.4,1.02-6.51,.62-8.14-1.33-.18,1.2-.27,2.44-.27,3.71,0,4.39,1.11,8.52,3.12,11.79-.36-1.67-.42-3.37-.15-5.07Z"/><path d="M48.9,139.4c-2.29-1.97-3.26-5.09-3.03-8.69-.24,.15-.49,.3-.73,.45-.01,.08-.03,.17-.04,.25-.17,1.25-.21,2.46-.14,3.59,1.2,2.36,2.1,4.76,2.68,7.13,.31,.36,.65,.7,1.02,1.01,1.65,1.42,3.71,2.21,5.98,2.42-.13-1.37-.36-2.76-.7-4.17-1.92-.16-3.64-.81-5.02-1.99Z"/><path d="M158.09,260.26c-.21,4.4-2.85,8.29-6.98,11.11,.26,.37,.47,.81,.65,1.23,.54-.29,1.08-.59,1.59-.92,.4-.25,.78-.52,1.15-.79,1.73-3.72,4.08-7.42,7.01-10.92,.04-.31,.06-.62,.08-.94,.12-2.53-.48-5.01-1.73-7.33-.95,1.07-1.86,2.16-2.7,3.27,.7,1.71,1.03,3.49,.94,5.29Z"/><path d="M45.67,158.68c-3.71,6.24-10.71,10.02-19.71,10.64-.87,.06-1.75,.09-2.63,.09-2.38,0-4.81-.22-7.26-.64-.12,.43-.23,.88-.3,1.34,15.2,3.75,29.64,.06,35.9-10.48,.95-1.6,1.67-3.3,2.18-5.07-2.11-.3-4.08-1-5.83-2.11-.42,2.19-1.19,4.29-2.35,6.24Z"/><path d="M136.46,239.15c7,.34,13.48,2.59,18.27,6.34,.79,.62,1.52,1.28,2.18,1.95,1.12-1.33,2.29-2.63,3.55-3.88,16.44-16.44,39.31-20.32,50.98-8.65,1.68,1.68,3.03,3.6,4.07,5.7,.72-.68,1.37-1.57,1.84-2.63,.43-.96,.65-2.69,.71-3.16,0-.08,0-.16-.05-.23-1.75-3.04-3.74-6.66-4.77-10.87-1.66-6.81-3.06-16.23-3.06-16.23-.25,.06-.51,.1-.77,.1-3.21,0-5.95-4.87-7.05-11.75-1.08,5.81-3.98,11.91-8.61,17.3-6.98,8.12-16.19,12.61-24.18,12.61-4.21,0-8.08-1.24-11.12-3.85-4.27-3.67-6.27-9.46-5.63-16.31,.13-1.4,.37-2.8,.71-4.21-4.3,10.5-11.01,17.18-18.41,17.18-9.08,0-17.14-9.66-21.05-25.22l.35-.09v-.02l-.17,.04c-1.07-4.31-4.16-7.22-7.71-7.34,.16,.16,.26,.32,.26,.48,0,.1-.03,.2-.09,.29l-.08,.09c-.4-.25-.85-.39-1.31-.39-1.86,0-3.37,2.2-3.37,4.9,0,1.99,.81,3.7,1.99,4.47,0,0,9.23,4.39,9.23,9.6,0,1.89-.56,3.65-1.52,5.13-.51,.78-1.55,1.66-2.48,2.35-1.98,1.48-3.24,3.79-3.26,6.26v.06c0,4.31,2.89,7.94,6.84,9.06,.82,.23,1.69,.36,2.58,.36,.62,0,1.24-.06,1.83-.18,.12-.02,.23-.04,.35-.04h.25c1.68-.05,2.84,1.68,2.15,3.22h0c-.33,.75-.75,1.41-1.22,1.98-1.03,1.24-1.33,2.99-.49,4.37,.23,.39,.51,.7,.82,.84,.53,.24,1.73,.26,1.73,.26,1.53,0,3,.48,4.39,1.37,3.53-1.01,7.38-1.46,11.34-1.27Z"/><path d="M169.04,215.74c-3.17,0-6.04-.91-8.27-2.83-3.38-2.9-4.82-7.65-4.06-13.36,.23-1.69,.64-3.41,1.22-5.12-.19,0-.37,0-.57,0-1.16,2.77-1.92,5.6-2.21,8.37-.66,6.24,1.08,11.49,4.91,14.78,3.82,3.29,9.28,4.22,15.35,2.63,6.09-1.59,12.07-5.53,16.84-11.08,5.37-6.25,8.27-13.5,8.53-19.91-.76,.07-1.85,.15-3.04,.12-1.03,4.98-3.65,10.31-7.74,15.07-6.22,7.24-14.27,11.32-20.97,11.32Z"/><path d="M114.75,192.76c2.88-2.59,4.41-5.48,4.41-8.39,0-10.25-18.17-18.58-40.51-18.58s-40.5,8.34-40.5,18.58c0,3.36,1.97,6.52,5.39,9.24,.38-.24,.72-.55,1-.91l2.81-3.59c2.34,1.85,6.83,3.09,11.99,3.09,2.26,0,4.4-.24,6.28-.67,0,0-.3-6.68,5.36-6.81,.1,0,.21,0,.32,.02,1.75,.26,3.53,.3,5.25-.08,3.09-.67,7.92-1.11,13.36-1.11,7.96,0,14.62,.93,16.39,2.18v-.45c3.84,0,7.19,2.99,8.43,7.47Z"/><path d="M142.68,274.4c.07,.13,.14,.26,.2,.39,.5-.13,.99-.27,1.47-.42,.12-.27,.26-.52,.4-.77-.67,.29-1.36,.56-2.07,.8Z"/><path d="M149.37,259.08c.65-1.37,1.36-2.72,2.15-4.05-3.62-4.6-10.76-7.94-19.1-8.34-.57-.03-1.13-.04-1.69-.04-.07,0-.14,0-.21,0,.73,1.3,1.4,2.76,2,4.33,7.63,.65,14.01,3.87,16.86,8.1Z"/><path d="M164.02,164.12c.2-1.24,.21-2.26,0-2.96-.61,.49-1.22,.97-1.84,1.43,.6,.53,1.21,1.04,1.83,1.53Z"/><path d="M160.6,243.7c-1.25,1.25-2.43,2.55-3.55,3.88,1.15,1.19,2.09,2.45,2.83,3.76,.66-.74,1.34-1.46,2.05-2.18,15.3-15.3,36.36-19.13,46.95-8.54,.84,.84,1.59,1.76,2.26,2.74h.02c.99-.73,2.07-1.3,3.14-1.89,.35-.19,.7-.45,1.03-.74-1.04-2.09-2.38-4.01-4.06-5.69-11.59-11.59-34.33-7.71-50.69,8.65Z"/><path d="M154.43,82.12c-.2,.03-.37,.13-.5,.28-.53,.61-1.12,1.21-1.77,1.78,2.42-.91,5.06-1.51,7.8-1.77-1.24-.82-4.51-.44-5.53-.29Z"/><path d="M78.43,118.75c-.72,4.47-3.07,9.22-6.63,13.35-5.11,5.94-11.63,9.34-16.89,9.34-.26,0-.51-.01-.76-.03,.34,1.41,.57,2.8,.69,4.18,6.11,.47,13.77-3.18,19.61-9.99,7.53-8.76,9.44-19.69,4.76-25.42-1.04-.65-2.16-1.16-3.35-1.53,2.34,2.23,3.26,5.78,2.57,10.09Z"/><path d="M41.29,194.27h.03c.58,0,1.15-.13,1.67-.36-.41-.33-.8-.67-1.16-1.01-.16,.45-.34,.91-.53,1.37Z"/><path d="M64.63,107.42h0Z"/><path d="M167.92,210.81c-2.59,0-4.92-.73-6.72-2.28-2.87-2.46-4-6.59-3.19-11.63,.13-.82,.33-1.65,.56-2.49-.14,.01-.28,.01-.42,.02-.59,1.72-1.01,3.45-1.24,5.14-.75,5.64,.66,10.32,3.99,13.17,6.87,5.91,19.86,2.11,28.95-8.46,4.06-4.72,6.66-10.01,7.69-14.95-1.38-.04-2.86-.22-4.05-.69-1.2,3.89-3.43,7.97-6.63,11.69-5.73,6.66-13.03,10.47-18.94,10.47Z"/><path d="M78.57,109.56c-1.1-.73-2.31-1.28-3.62-1.64,.2,.14,.4,.27,.59,.43,1.06,.29,2.08,.69,3.03,1.21Z"/><path d="M161.34,208.37c5.82,5,17.2,1.34,25.37-8.16,3.19-3.71,5.41-7.76,6.6-11.63-.03-.01-.06-.02-.08-.03-2.01-.9-3.9-2.54-3.9-2.54-.26-.36-.59-.66-.97-.89-1.97-1.19-5.43-.65-8.46,1.51-1.16,.82-2.11,1.78-2.82,2.77-.46,.64-.96,1.39-.96,1.39-.72,1.25-1.79,2.05-2.98,2.05-1.82,0-3.35-1.85-3.81-4.36,0,0-3.05-1.81-4.75-1.37-1.05,.27-2.51,1.67-2.51,1.67,.67,1.2,.85,2.42,.38,3.47-.56,1.24-1.92,1.97-3.63,2.15-.24,.85-.44,1.7-.58,2.54-.8,4.96,.31,9.02,3.12,11.44Z"/><path d="M189.34,250.48c-6.99,1.67-14.21,5.96-20.33,12.09-2.2,2.2-4.16,4.54-5.85,6.96h0c1.63,0,3.66-1.86,4.73-2.97,.34-.35,.66-.72,.91-1.13,.67-1.1,1.55-1.23,2.49-1.23,1.13,0,2.14,.71,2.86,1.85,.92,1.46,2.35,2.55,4.05,2.81,.03,0,.06,0,.09,.01,1.53,.21,3.77-.5,4.49-.76,.15-.05,.25-.17,.29-.32,.91-3.32,4.53-7.12,9.63-9.71,3.17-1.6,6.38-2.47,9.12-2.6,0,0,.2-.59,.27-.89,.24-1.01,.64-1.98,1.15-2.92-2.24-1.28-4.93-1.94-7.96-1.94-1.87,0-3.86,.25-5.95,.75Z"/><path d="M200.99,189.2c-.25,6.46-3.17,13.77-8.58,20.06-4.8,5.59-10.82,9.54-16.95,11.15-1.95,.51-3.84,.76-5.63,.76-3.85,0-7.26-1.16-9.91-3.44-3.88-3.33-5.65-8.64-4.98-14.96,.29-2.78,1.04-5.61,2.2-8.38-.25-.02-.51-.04-.77-.09-.02,0-.04-.02-.06-.03-.49,1.01-.94,2.02-1.33,3.05-.24,.73-.49,1.45-.74,2.15-.63,2.03-1.05,4.08-1.23,6.1-.63,6.78,1.34,12.51,5.56,16.14,8.72,7.5,24.43,3.58,35.01-8.73,4.76-5.54,7.68-11.85,8.67-17.8-.27-1.91-.42-3.95-.42-6.08,0,0-.32,.05-.85,.1Z"/><path d="M32.45,159.17c-2.74,4.61-8.24,7.21-15.47,7.32-.15,.28-.28,.57-.41,.87,1.5,.12,2.98,.16,4.43,.1,8.1-.33,14.33-3.48,17.52-8.85,3.19-5.38,2.98-12.34-.6-19.62-.36-.73-.76-1.46-1.18-2.18-2.07,1.51-3.98,3-5.71,4.45,.16,.28,.31,.55,.46,.83,3.37,6.41,3.71,12.48,.97,17.09Z"/><path d="M69.48,106.33c3.34-.28,6.39,.49,8.69,2.47,.25,.21,.46,.45,.68,.69,.35,.24,.69,.5,1.02,.77,.18,.15,.35,.32,.52,.48,.18,.14,.37,.28,.55,.44,1.98,1.7,3.41,3.92,4.25,6.51,3.45-5.61,8.46-11.41,14.32-16.58-6.2,1.36-12.65,2.05-19.2,2.05-5.35,0-10.59-.45-15.66-1.34,.36,.83,.62,1.7,.62,2.46,0,1.04-.2,2.02-.55,2.9,1.65-.54,3.26-.84,4.77-.85Z"/><path d="M127.58,242.53c2.23-.34,4.56-.47,6.92-.35,6.51,.31,12.55,2.36,17.01,5.77,1.1,.84,2.07,1.74,2.91,2.69,.75-1.03,1.54-2.05,2.37-3.04-.66-.68-1.39-1.33-2.18-1.95-4.75-3.72-11.19-5.96-18.15-6.29-.61-.03-1.21-.04-1.81-.04-3.25,0-6.4,.43-9.32,1.25,.78,.53,1.53,1.19,2.26,1.97Z"/><path d="M157.26,192.11c.15-.26,.29-.51,.44-.76,.22-.44,.36-.88,.36-1.28,0-.68-.35-1.41-.79-2.05-.33,1.94-.74,3.81-1.2,5.61,.01-.02,.02-.05,.03-.07,.34-.37,.77-.89,1.14-1.45Z"/><path d="M32.27,159.06c2.7-4.55,2.36-10.55-.98-16.89-.14-.26-.29-.53-.44-.79-3.4,2.86-6.07,5.54-7.74,7.75-1.57,2.08-1.05,5.01,1,6.61,.8,.62,1.47,1.37,1.47,2.13,0,.67-.6,1.49-1.25,2.18-.8,.85-1.81,1.47-2.88,1.96-1.8,.83-3.32,2.34-4.37,4.26,7.11-.13,12.5-2.69,15.18-7.21Z"/><path d="M111.66,77.28c-3.96,4.6-8.84,7.92-13.76,9.36-1.73,.5-3.39,.75-4.94,.75-2.89,0-5.42-.86-7.38-2.54-.53-.46-.99-.98-1.41-1.54-.46,.07-.92,.13-1.41,.13-.42,0-1-.04-1.47-.08,.73,2.22,1.95,4.15,3.69,5.65,3.41,2.93,8.26,3.76,13.68,2.35,5.43-1.42,10.76-4.93,15.01-9.88,3.56-4.15,6.01-8.89,7.06-13.6-1.27,.39-2.57,.72-3.72,.89-1.23,2.91-3.01,5.82-5.33,8.52Z"/><path d="M156.01,193.88c-.12,.47-.25,.94-.38,1.41,.17-.37,.34-.73,.52-1.09-.09-.08-.13-.2-.14-.32Z"/><path d="M108.93,57.25c1.93,1.37,4.03,2.52,6.26,3.4,.02-.13,.06-.27,.08-.4,.43-2.66,.23-5.02-.53-6.95-1.2,.72-2.37,1.47-3.51,2.29-.73,.53-1.52,1.09-2.3,1.66Z"/><path d="M115.48,60.29c-.02,.15-.06,.3-.09,.44,.24,.09,.48,.19,.72,.28,.75-.87,1.63-1.74,2.63-2.59-.18-2.37-.89-4.49-2.13-6.22-.57,.32-1.13,.65-1.69,.99,.79,1.97,.99,4.38,.56,7.09Z"/><path d="M115.01,62.41c.21-.3,.43-.6,.68-.9-.14-.05-.28-.11-.42-.17-.08,.35-.16,.71-.25,1.06Z"/><path d="M100.48,100.27c.23-.19,.45-.39,.68-.58,10.33-8.66,22-14.42,30.77-15.24l-.09-.1c3.98-3.73,7.07-7.8,9.24-12.1-.52-4.5-4.54-8-9.42-8-1.47,0-2.87,.32-4.11,.89-1.49,.68-2.97,1.38-4.51,1.95,0,.07,0,.13-.01,.2-.57,6.1-3.42,12.4-8.02,17.75-6.23,7.25-14.44,11.25-21.57,11.25-3.76,0-7.21-1.11-9.92-3.44-2.77-2.38-4.39-5.73-4.92-9.54-.64,.09-1.3,.25-1.98,.49-.7,.25-1.52,.73-2.16,1.15-.65,.42-1.41,.68-2.19,.66-1.1-.03-2.33,.24-3.51,.86-2.05,1.06-3.4,4.74-3.4,4.74-.24-.05-.5-.08-.76-.08-2.07,0-3.75,1.73-3.75,3.85,0,1.03,.4,1.97,1.04,2.67,.53,.57,1.06,1.14,1.48,1.8,.31,.48,.65,1.07,.97,1.7,5.17,.93,10.52,1.41,15.98,1.41,6.9,0,13.68-.77,20.17-2.28Z"/><path d="M85.7,84.69c2.96,2.54,7.27,3.16,12.14,1.75,4.88-1.42,9.73-4.72,13.66-9.29,2.28-2.65,4.03-5.51,5.25-8.35-1.43,.18-2.57,.07-3.03-.58-.26-.36-.39-.8-.42-1.28-1.13,2.32-2.63,4.59-4.45,6.71-3.56,4.14-7.89,7.18-12.21,8.56-1.65,.53-3.23,.79-4.68,.79-1.7,0-3.25-.36-4.57-1.08-.75,.64-1.8,1.12-3.01,1.35,.4,.51,.83,1,1.32,1.42Z"/><path d="M96.58,82.01c4.28-1.37,8.58-4.39,12.11-8.5,1.91-2.22,3.46-4.62,4.6-7.06,.06-1.02,.53-2.21,1.34-3.48,.17-.57,.32-1.14,.44-1.71-2.38-.94-4.62-2.16-6.67-3.64-.9,.64-1.78,1.26-2.56,1.81-7.84,5.45-13.36,11.32-13.07,13.77,.06,.52-.1,1.03-.37,1.47-.69,1.12-1.88,2.95-2.74,3.87-.55,.58-.92,1.3-1.23,2.04-.18,.43-.47,.82-.85,1.18,2.39,1.25,5.51,1.36,9,.24Z"/><path d="M49.03,139.24c1.33,1.14,2.99,1.77,4.83,1.94-.48-1.94-1.15-3.9-2.03-5.88-.93-2.1-2.06-4.14-3.37-6.13-.79,.45-1.59,.93-2.39,1.41-.26,3.59,.69,6.71,2.96,8.66Z"/><path d="M123.39,118.12s0,.04,0,.06c1.35-1.6,2.79-3.17,4.29-4.67,.76-.76,1.55-1.51,2.34-2.24-2.14-.6-4.44-1.8-6.55-3.42-1.57-1.21-2.94-2.61-4.01-4.04-.92,.77-1.88,1.53-2.87,2.26,4.04,1.71,6.81,6.54,6.81,12.04Z"/><path d="M47.3,141.7c-.53-2.03-1.3-4.06-2.28-6.09,.24,2.38,1.01,4.44,2.28,6.09Z"/><path d="M147.6,160.8c-5.6-6.68-9.03-14.5-9.64-22.04-.61-7.55,1.66-13.9,6.41-17.88,2.61-2.19,5.79-3.51,9.34-3.95-6.47-3.03-11.22-7.79-13.02-13.07-.42,.26-.84,.53-1.26,.81-.9,.59-1.8,1.22-2.68,1.85l-.17-.24-.44,.13c-.73-2.44-2.9-5.23-5.8-7.47-1.2-.93-2.45-1.7-3.71-2.31-1.93,2.36-4.18,4.63-6.7,6.78,1.04,1.4,2.38,2.76,3.92,3.95,2.2,1.7,4.62,2.93,6.81,3.45l-.06,.27,.25,.27c-.92,.84-1.84,1.71-2.73,2.6-1.63,1.63-3.19,3.34-4.65,5.08l-.1-.08v.05l-.62-.03c.01-.28,.02-.56,.02-.85,0-5.42-2.78-10.14-6.79-11.61-3.34,2.42-7.04,4.62-11.01,6.53-.58,1.6-.88,3.31-.88,5.09,0,6.66,4.19,12.08,9.34,12.08,.6,0,1.2-.07,1.79-.22l.11,.43,.34,.18c-7.86,14.9-7.81,29.11,.15,37.06,5.52,5.52,14.13,7.29,24.25,5,4.68-1.06,9.41-2.94,14.02-5.5-2.32-1.84-4.51-3.97-6.5-6.35Z"/><path d="M100.81,100.8v.03h-.05c-6.35,5.47-11.76,11.69-15.34,17.67,.01,.05,.03,.11,.04,.16,5.31-.89,10.66-2.45,15.9-4.66,15.54-6.55,27.4-17.58,31.26-28.99-8.72,.58-20.58,6.36-31.06,15.16-.25,.21-.5,.43-.75,.64Z"/><path d="M142.98,274.97c.11,.22,.22,.42,.31,.6,.22-.04,.44-.09,.66-.13,.09-.28,.19-.55,.31-.83-.42,.13-.85,.25-1.28,.36Z"/><path d="M153.46,271.85c-.52,.33-1.06,.64-1.62,.94,.19,.49,.32,.91,.37,1.1,.02,.06,.07,.11,.13,.13,.25,.08,.52,.13,.79,.16,.36-.97,.75-1.94,1.2-2.91-.28,.2-.57,.39-.87,.58Z"/><path d="M54.08,141.19c5.33,.39,12.21-3.01,17.56-9.23,3.53-4.11,5.87-8.82,6.58-13.25,.71-4.41-.28-8.02-2.77-10.18-1.41-.39-2.9-.59-4.44-.59-2.45,0-5.02,.49-7.6,1.41-.62,.81-1.2,1.65-1.64,2.58-.62,1.29-1.25,2.93-1.25,4.26,0,3.49,3.89,5.89,3.29,6.05-3.89,1.05-9.25,3.45-15.16,6.83,1.31,1.99,2.45,4.04,3.38,6.15,.89,2.01,1.57,4.01,2.05,5.97Z"/><path d="M162.55,169.08c-1.65-.98-3.26-2.11-4.81-3.38-.97,.62-1.94,1.2-2.92,1.76,2.11,1.62,4.32,3,6.59,4.11,.24-.46,.47-.94,.7-1.44,.16-.35,.31-.7,.45-1.05Z"/><path d="M116.79,52.11c1.23,1.71,1.94,3.82,2.14,6.16,.45-.37,.92-.73,1.4-1.09-.66-1.8-1.64-3.38-2.95-4.67-.18-.14-.36-.3-.55-.43l-.04,.02Z"/><path d="M117.99,52.73c1.28,1.1,2.32,2.41,3.13,3.9,1.05-.72,2.11-1.34,3.14-1.86,0,0,3.26-1.53,7.95-4.74,2.34-1.61,4.35-3.24,5.69-4.57,1.53-1.52,3.59-2.38,5.75-2.33,.08,0,.16,0,.24,0,2.33,0,4.03-1.92,4.63-2.72,.15-.2,.24-.45,.25-.71,.03-.68,.15-1.33,.34-1.92-3.86-1.83-7.36-4.12-10.35-6.76-.85,1-1.87,1.97-3.03,2.88-2.62,2.04-5.42,3.29-7.73,3.63-1.06,.15-1.88,.99-2.08,2.04-.5,2.56-1.82,7.02-5.14,9.85-1.08,.92-2.21,1.7-3.32,2.33-.12,.07-.24,.14-.36,.21,.12,.11,.24,.22,.36,.33,.19,.15,.38,.29,.56,.45Z"/><path d="M29.37,194.34c-4.52,6.66-6.81,14.17-6.32,20.65,3.49-2.18,7.22-5.56,10.55-9.59,.36-.44,.71-.88,1.05-1.32-.03-.01-.06-.03-.1-.04l.23-.57c.09,.04,.17,.08,.26,.11,.03-.04,.05-.07,.08-.11-.75-.88-1.3-1.85-1.3-2.79,0-3.34,2.98-6.09,6.78-6.39,.26-.61,.5-1.21,.71-1.8l.15,.05c-2.2-2.17-3.55-4.55-3.86-7.07-3.06,2.37-5.9,5.42-8.23,8.85Z"/><path d="M152.03,160.04c-5.21-6.21-8.44-13.46-9.09-20.41-.65-6.96,1.37-12.78,5.68-16.4,4.86-4.08,11.84-4.61,18.93-2.17,.04-.27,.09-.53,.15-.79-1.47-.06-2.98-.2-4.49-.45-3.28-.53-6.34-1.47-9.11-2.72-3.65,.39-6.92,1.7-9.58,3.93-4.7,3.94-6.95,10.23-6.34,17.71,.61,7.49,4.02,15.28,9.59,21.92,2,2.39,4.21,4.52,6.54,6.37,.99-.56,1.97-1.13,2.95-1.75-1.85-1.56-3.6-3.32-5.22-5.25Z"/><path d="M120.74,56.88c.07-.05,.14-.09,.2-.14-.64-1.18-1.43-2.25-2.37-3.18,.81,1.04,1.45,2.21,1.92,3.5,.08-.06,.16-.12,.24-.18Z"/><path d="M28.86,194c2.45-3.61,5.45-6.8,8.68-9.25h0c0-.12-.02-.25-.02-.38,0-10.59,18.45-19.2,41.12-19.2s41.12,8.61,41.12,19.2c0,3.22-1.73,6.41-5,9.2,3.82,14.81,11.77,24.35,20.34,24.35,10.01,0,18.73-12.73,21.65-30.6-.56-.68-1.08-1.15-1.08-1.15-.79-.95-1.29-2.39-1.29-3.99,0-2.87,2.73-4.94,2.73-4.94,1.27-.86,2.82-2.88,4.19-5.5-2.31-1.13-4.55-2.54-6.69-4.18-4.73,2.66-9.6,4.6-14.41,5.69-2.93,.66-5.74,.99-8.39,.99-6.69,0-12.37-2.09-16.43-6.16-8.09-8.09-8.25-22.41-.44-37.43-.5,.1-1,.16-1.51,.16-5.49,0-9.95-5.7-9.95-12.7,0-1.64,.25-3.22,.73-4.72-.86,.4-1.73,.79-2.62,1.16-5.27,2.22-10.64,3.79-15.99,4.69,.44,1.99,.57,4.17,.35,6.49-.57,6.1-3.42,12.4-8.02,17.75-6.23,7.25-14.44,11.25-21.57,11.25-.79,0-1.56-.06-2.31-.16-.52,1.81-1.25,3.53-2.21,5.16-4.71,7.92-13.99,12-24.74,12-3.66,0-7.49-.48-11.36-1.43-.11,.69-.17,1.39-.17,2.11,0,6.15,4.09,11.13,9.13,11.13,.19,0,.38,0,.56-.02,0,0,3.55,4.06,3.55,7.43,0,3.58-1.66,6.62-3.96,7.71,0,0-1.54,.88-2.7,2.19,.97,.04,1.93,.1,2.88,.21,1.01-2.41,2.3-4.79,3.84-7.07Z"/><path d="M161.79,259.04c-.01,.22-.03,.44-.05,.65,.98-1.15,2.01-2.29,3.11-3.39,6.84-6.84,15.01-11.54,23-13.22,7.79-1.64,14.5-.23,18.98,3.97,1.45-1.46,2.96-2.67,4.17-3.56-.66-.97-1.4-1.88-2.24-2.72-10.51-10.51-31.44-6.68-46.66,8.54-.73,.73-1.42,1.47-2.09,2.22,1.29,2.37,1.91,4.91,1.79,7.5Z"/><path d="M151.49,92.94c.64-3.96,4.23-7,9.29-8.53,0-.11,0-.22,0-.33-1.57,.35-3.08,.82-4.46,1.44-4.63,2.06-7.53,5.31-8.15,9.16-.24,1.46-.12,2.93,.29,4.36,1.23-.54,2.45-1.01,3.66-1.44-.64-1.52-.87-3.09-.62-4.66Z"/><path d="M167.74,120.06c.04-.17,.09-.34,.13-.5-1.59-.69-3.2-1.27-4.82-1.69-2.3-.6-4.54-.9-6.67-.9-.65,0-1.28,.03-1.91,.09,2.67,1.18,5.62,2.06,8.75,2.56,1.52,.25,3.03,.39,4.51,.44Z"/><path d="M43.67,132.08c-.09,.05-.17,.11-.26,.17,.06,.1,.12,.19,.17,.29,.03-.15,.05-.31,.09-.46Z"/><path d="M84.72,118.78s.09-.02,.14-.02l-.23-.14c.13-.23,.28-.46,.42-.69-.72-2.3-1.9-4.31-3.52-5.92,2.29,2.94,3.27,6.97,2.78,11.6-.59,5.62-3.28,11.46-7.56,16.44s-9.65,8.51-15.12,9.94c-1.74,.46-3.42,.68-5.02,.68-.61,0-1.2-.04-1.79-.11-.13,1.31-.36,2.59-.71,3.82,7.54,.97,16.81-3.05,23.67-11.03,4.57-5.32,7.4-11.59,7.97-17.64,.21-2.3,.09-4.46-.35-6.43-.2,.03-.39,.07-.59,.1l-.09-.61Z"/><path d="M192.75,25.68c.04-.1,.09-.19,.14-.29,.46-1.09,.75-2.22,.89-3.38-.18-.05-.37-.1-.58-.15,0,1.31-.14,2.58-.44,3.82Z"/><path d="M187.07,34.41c.26,.08,.53,.15,.81,.22,1.16-1.27,2.11-2.68,2.85-4.21-.97,1.5-2.19,2.84-3.66,3.99Z"/><path d="M135.15,21.85c.6-.17,1.17-.28,1.72-.35-.02-.04-.05-.08-.08-.11-3.86-6.08-4.74-12.36-2.48-17.7,.34-.79,.74-1.54,1.2-2.26-1.55-.24-3-.54-4.31-.9-.54,.78-1.01,1.62-1.42,2.48,.3,.58,.47,1.26,.47,1.99,0,.79-.21,1.58-.48,2.26-.34,.86-.91,1.58-1.6,2.18-.24,4.31,1.05,8.9,3.82,13.38,.04,.07,.09,.14,.14,.21,.42-.16,.78-.32,1.06-.44,.64-.28,1.28-.55,1.95-.74Z"/><path d="M157.92,165.58c1.52,1.24,3.09,2.35,4.71,3.31,.65-1.64,1.11-3.2,1.35-4.53-.66-.52-1.31-1.06-1.95-1.64-1.35,1.01-2.72,1.97-4.1,2.86Z"/><path d="M127.97,9.6c-.17,.14-.34,.28-.53,.4-1.01,.67-1.97,1.54-2.82,2.6-3.16,3.93-3.51,8.9-.79,11.09,1.84,1.48,5.76,.33,8.1-.58-.04-.06-.08-.12-.12-.18-2.75-4.45-4.05-9.03-3.85-13.33Z"/><path d="M143.71,276.4c.04-.24,.11-.49,.18-.74-.17,.04-.33,.08-.5,.12,.2,.38,.31,.63,.31,.63Z"/><path d="M151.96,34.59c-4.1-2.06-7.73-4.67-10.71-7.66-.46,1.26-1.27,2.61-2.38,3.93,2.98,2.62,6.45,4.89,10.29,6.72,.54-1.55,1.57-2.69,2.8-2.99Z"/><path d="M169.72,108.43c1.09,.18,2.17,.29,3.23,.36,.09-.16,.22-.29,.38-.39,1.46-.88,3.5-2.3,3.5-3.35,0-2.68-5.15-4.84-11.51-4.84-1.38,0-2.71,.1-3.94,.29-.81,.12-1.63,.15-2.44,0-.85-.15-1.79-.45-2.05-1.05-.25-.59,.14-1.43,.72-2.26,.14-.2,.25-.42,.34-.64-1.77,.38-3.58,.9-5.41,1.53,2.38,4.84,8.95,9.02,17.16,10.34Z"/><path d="M192.47,26.7c-.15,.47-.31,.94-.5,1.4-.12,.27-.24,.54-.37,.8-.1,.28-.21,.57-.33,.85-.77,1.82-1.83,3.47-3.16,4.93,.57,.12,1.16,.19,1.76,.19,.05,0,.09,0,.14,0,4.22-.04,6.82-4.48,5.1-8.34-.23-.51-.37-1.04-.37-1.58,0-.9,.11-1.74,.3-2.46,0,0-.39-.21-1.06-.43-.14,1.17-.43,2.31-.9,3.4-.18,.42-.39,.83-.61,1.23Z"/><path d="M145.55,272.45c.06-.07,.12-.14,.18-.2-.06,.04-.11,.07-.17,.11,0,.03,0,.06-.01,.1Z"/><path d="M48.41,148.11c.01,1.41-.1,2.79-.34,4.14,1.74,1.12,3.72,1.81,5.84,2.11,.34-1.24,.57-2.51,.71-3.82-2.33-.29-4.44-1.11-6.21-2.44Z"/><path d="M142.6,18.42c3.62,5.37,9.5,9.97,16.57,12.97,4.24,1.79,8.52,2.84,12.57,3.18,2.08-.98,3.99-2.36,5.64-4.03,.3-.3,.63-.54,.98-.66-.44,.02-.87,.05-1.32,.05-4.66,0-9.72-1.08-14.63-3.16-6.39-2.7-11.75-6.78-15.09-11.47-3.32-4.65-4.26-9.36-2.66-13.28-.28,0-.57,.02-.84,.02-1.12,0-2.21-.04-3.28-.1-.19,.35-.36,.7-.52,1.06-1.94,4.58-1.02,10.06,2.59,15.41Z"/><path d="M172.56,114.93c.26,0,.52,.03,.77,.09,0,0,.55-.89,.77-1.67-.2,0-.4,.02-.61,.02-1.77,0-3.59-.14-5.45-.44-9.77-1.57-17.44-7.02-19.6-13.21-1.32,.59-2.65,1.24-3.98,1.95,2.09,7.15,10.39,13.43,21.06,15.15,1.15,.19,2.29,.29,3.43,.36,.93-1.39,2.2-2.25,3.6-2.25Z"/><path d="M129.63,.05c-.51-.17-1.06,.12-1.22,.63-.12,.39,.02,.8,.35,1.06,.36,.28,.67,.64,.92,1.05,.39-.81,.83-1.58,1.33-2.31-.48-.13-.94-.28-1.38-.42Z"/><path d="M192.43,22.51c-1.76,3.75-5.74,6.27-11.29,7.11-.6,.09-1.21,.15-1.83,.2,.74,.12,1.41,.54,1.92,1.17,0,0,1.17,1.1,2.94,2.13,3.32-1.25,6-3.22,7.7-5.85,.4-1.54,.58-3.13,.55-4.76Z"/><path d="M192.62,22.09c.06,1.57-.07,3.11-.4,4.61,.02-.03,.04-.07,.06-.1,.48-1.54,.71-3.14,.7-4.79-.08-.02-.15-.03-.23-.05-.04,.11-.08,.22-.12,.32Z"/><path d="M147.48,15.18c3.32,4.66,8.65,8.7,15.01,11.39,6.35,2.69,12.97,3.7,18.63,2.84,5.64-.85,9.65-3.46,11.29-7.34v-.03c0-.11,0-.23,0-.34-.42-.06-.88-.1-1.38-.1h-.16c-1.53,0-3.05-.17-4.54-.52-3.07-.73-7.85-2.06-11.15-3.97-1.67-.96-3.18-2.03-4.48-3.13-2.58-2.18-5.98-2.85-9.32-2.33-.12,.02-.23,.03-.34,.03-3.2,0-5.79-3.07-5.79-6.86v-.05c0-2.03-1.77-3.6-3.78-3.34-2.04,.27-4.42,.5-6.58,.57-1.61,3.87-.69,8.54,2.61,13.17Z"/><path d="M184.39,33.25c.73,.41,1.55,.79,2.44,1.09,1.97-1.53,3.51-3.38,4.57-5.52,.11-.31,.21-.62,.31-.93-1.7,2.38-4.23,4.18-7.31,5.36Z"/><path d="M151.7,92.97c-.25,1.53-.02,3.07,.61,4.56,1.98-.69,3.94-1.24,5.85-1.64,.19-1.03-.11-2.13-.86-2.93-.63-.67-1-1.49-1-2.38,0-.56,.15-1.09,.41-1.57,.43-.77,1.15-1.43,2.07-1.86,.66-.31,1.23-.81,1.59-1.45,.18-.31,.32-.68,.38-1.08-4.94,1.51-8.44,4.48-9.06,8.34Z"/><path d="M147.96,94.64c.63-3.92,3.57-7.23,8.27-9.32,1.41-.62,2.93-1.1,4.52-1.46-.02-.14-.06-.28-.11-.43-2.72,.4-5.3,1.14-7.6,2.24-5.05,2.41-8.22,6.18-8.94,10.62-.26,1.6-.17,3.2,.21,4.76,1.32-.7,2.64-1.35,3.95-1.93-.43-1.47-.54-2.98-.3-4.48Z"/><path d="M38.69,158.7c-3.23,5.44-9.51,8.62-17.69,8.95-.48,.02-.96,.03-1.45,.03-1.01,0-2.04-.04-3.07-.13-.13,.33-.25,.67-.35,1.02,3.33,.57,6.63,.77,9.81,.55,8.93-.62,15.87-4.36,19.55-10.54,1.16-1.95,1.93-4.05,2.34-6.25-.48-.32-.95-.65-1.39-1.03-4.73-4.07-6.12-10.94-4.41-18.17-1.79,1.17-3.51,2.36-5.14,3.54,.43,.73,.83,1.47,1.2,2.21,3.61,7.34,3.82,14.38,.59,19.82Z"/><path d="M153.86,34.77c2.8,.99,5.76,1.48,8.72,1.49h.07c1.28,0,2.52-.06,3.7-.18,1.76-.17,3.44-.65,5.02-1.35-3.96-.38-8.14-1.41-12.28-3.16-7.1-3.01-13.02-7.64-16.66-13.04-3.65-5.41-4.57-10.96-2.61-15.61,.14-.34,.31-.67,.48-.99-1.59-.1-3.12-.25-4.56-.47-.47,.73-.89,1.5-1.23,2.31-2.23,5.27-1.36,11.49,2.46,17.51,.04,.07,.09,.13,.13,.2,1.74-.16,3.15,.23,3.94,1.24,.77,.98,.81,2.4,.28,3.99,3.03,3.06,6.76,5.73,10.97,7.81,.11-.01,.21-.02,.32-.02,.34,0,.79,.12,1.24,.27Z"/><path d="M152.37,98.16c-1.23,.44-2.48,.92-3.73,1.47,2.12,6.14,9.74,11.53,19.45,13.1,2.07,.33,4.11,.47,6.07,.43,.02-.12,.04-.23,.04-.34,0-1.02-.42-1.96-1.12-2.7-.3-.32-.36-.75-.23-1.13-1.04-.07-2.1-.18-3.17-.35-8.28-1.33-14.92-5.57-17.32-10.48Z"/><path d="M78.06,108.99s-.02-.02-.03-.03c-1.81-1.55-4.09-2.35-6.62-2.46,1.1,.19,2.13,.53,3.05,1.07,1.29,.3,2.5,.77,3.6,1.42Z"/><path d="M153.94,259.29c.9-1.47,1.89-2.93,2.97-4.35-.58-1.38-1.41-2.71-2.49-3.96-.95,1.32-1.84,2.67-2.66,4.05,1.03,1.33,1.78,2.77,2.17,4.27Z"/><path d="M150.97,264.37c-.01,.22-.03,.44-.06,.66,.82-1.85,1.78-3.68,2.88-5.5-.37-1.52-1.1-2.98-2.13-4.33-.79,1.34-1.5,2.7-2.15,4.08,1.02,1.59,1.55,3.31,1.47,5.09Z"/><path d="M66,107.88c2.76-.72,5.39-.86,7.75-.45-1.24-.6-2.66-.9-4.18-.9h-.02c-1.63,.13-3.34,.53-5.06,1.16-.13,.27-.28,.54-.44,.79,.65-.23,1.3-.43,1.95-.6Z"/><path d="M149.8,267.78c.22-.61,.47-1.22,.72-1.83,.14-.52,.22-1.04,.25-1.58,.08-1.7-.41-3.35-1.36-4.87-1.74,3.72-2.97,7.54-3.62,11.36-.07,.42-.12,.83-.18,1.24,1.91-1.24,3.33-2.7,4.19-4.31Z"/><path d="M144.29,101.76c-1.14,.62-2.29,1.28-3.43,1.99,1.79,5.33,6.64,10.13,13.23,13.13,2.81-.29,5.84-.04,9,.79,1.63,.43,3.24,1,4.83,1.69,.23-.73,.54-1.4,.9-1.98-1.1-.07-2.21-.19-3.33-.37-10.73-1.73-19.07-8.04-21.21-15.25Z"/><path d="M145.37,272.23c.06-.47,.13-.94,.21-1.42,.66-3.87,1.92-7.75,3.69-11.52-2.77-4.21-9.08-7.42-16.67-8.09,.75,1.99,1.41,4.17,1.92,6.51,.98,4.41,2.91,8.55,5.54,12.23l.04,.06c.69,.97,1.54,2.46,2.24,3.76,.74-.3,1.47-.63,2.15-1,.31-.17,.6-.35,.89-.52Z"/><path d="M74.6,135.73c-5.55,6.46-12.73,10.09-18.71,10.1-.35,0-.7-.01-1.04-.04,.13,1.56,.13,3.09-.01,4.58,2.09,.23,4.36,.05,6.74-.58,5.43-1.42,10.76-4.93,15.01-9.88s6.92-10.75,7.51-16.33c.55-5.22-.78-9.67-3.77-12.61-.22-.17-.43-.34-.66-.5,4.33,5.91,2.34,16.63-5.07,25.26Z"/><path d="M153.84,125.16c-3.7,3.1-5.32,8.24-4.57,14.47,.76,6.24,3.81,12.82,8.6,18.53,1.21,1.45,2.5,2.79,3.85,4.03,.69-.52,1.37-1.05,2.05-1.6-.19-.33-.18-.74,.03-1.06,.27-.41,.65-.95,1.1-1.51-.75-.77-1.49-1.57-2.19-2.41-8.95-10.67-10.89-23.83-4.32-29.34,2.38-2,5.57-2.72,9.08-2.31-.04-.37-.06-.75-.06-1.14v-.03c-1.65-.4-3.25-.6-4.77-.6-3.43,0-6.44,1-8.8,2.98Z"/><path d="M149.97,267.89c-.31,.84-.58,1.67-.82,2.5,.15,0,.3,0,.45,.03,2.67-2.24,4.31-5.04,4.46-8.13,.04-.84-.04-1.66-.21-2.47-1.22,2.04-2.26,4.1-3.13,6.17-.17,.65-.42,1.29-.75,1.9Z"/><path d="M157.72,158.28c-4.82-5.74-7.89-12.36-8.65-18.64-.76-6.3,.88-11.5,4.64-14.65,3.44-2.88,8.26-3.72,13.71-2.43,0-.44,.04-.88,.09-1.3-2.79-.97-5.56-1.47-8.19-1.47-4,0-7.67,1.16-10.58,3.59-4.26,3.57-6.25,9.34-5.6,16.23,.65,6.9,3.86,14.11,9.04,20.29,1.63,1.94,3.38,3.7,5.24,5.27,1.4-.89,2.78-1.85,4.14-2.87-1.34-1.23-2.63-2.58-3.84-4.02Z"/><path d="M147.66,270.77c.42-.19,.85-.31,1.26-.35,.17-.57,.35-1.14,.54-1.71-.49,.72-1.09,1.41-1.81,2.06Z"/><path d="M145.3,272.77c.01-.09,.02-.18,.03-.27-.24,.15-.49,.29-.75,.43-.68,.37-1.4,.7-2.15,1.01,.05,.1,.1,.19,.15,.28,.82-.27,1.6-.58,2.35-.92,.12-.19,.24-.36,.37-.53Z"/><path d="M43.53,132.84c-.1-.16-.19-.33-.29-.49-.32,.2-.63,.41-.95,.61-1.77,7.24-.42,14.13,4.29,18.18,.41,.36,.85,.68,1.3,.97,.24-1.36,.35-2.75,.33-4.17-.15-.11-.3-.22-.44-.34-3.88-3.33-5.23-8.81-4.23-14.76Z"/><path d="M157.88,260.25c.08-1.74-.22-3.45-.88-5.1-1.09,1.45-2.09,2.92-3,4.42,.21,.89,.3,1.8,.26,2.73-.15,3.11-1.77,5.92-4.41,8.17,.17,.04,.33,.09,.49,.16,.24,.11,.45,.32,.65,.57,4.08-2.78,6.68-6.62,6.89-10.96Z"/><path d="M158.52,126.41c-6.48,5.44-4.53,18.47,4.35,29.05,.7,.83,1.43,1.63,2.17,2.39,.72-.85,1.6-1.71,2.55-2.16,.42-.2,.98-.37,1.48-.51,.75-.2,1.26-.84,1.35-1.61,.13-1.16,.45-2.45,.97-3.77,1.49-3.78,4.62-5.77,4.62-5.77,1.7,0,3.08-3.17,3.08-7.07s-1.38-7.07-3.08-7.07h-.2c-.59,0-1.16,.18-1.69,.43-.49,.23-1.01,.36-1.55,.36-2.55,0-4.66-2.82-5.08-6.53-3.47-.41-6.62,.29-8.97,2.27Z"/><path d="M44.89,131.38s.01-.05,.01-.08c-.33,.21-.66,.41-1,.62-.06,.29-.12,.59-.17,.88,.35,.6,.69,1.19,1,1.79-.04-1.03,0-2.1,.15-3.21Z"/><path class="cls-3" d="M100.81,100.8l-.05,.04h.06v-.04Z"/></g><path d="M37.6,185.49l.57-.45,5.36,8.57s-.18,.15-.55,.29-1.67,.36-1.67,.36c0,0-.19,.05-.72,.03-.38-.02-2.15-4.49-2.9-7.04-.29-1-.1-1.77-.1-1.77Z"/></g><g><path class="cls-4" d="M26.15,208.07l-5.14,8.9-5.14-8.9h0c-1.45-1.37-2.36-3.31-2.36-5.46,0-4.14,3.36-7.5,7.5-7.5s7.5,3.36,7.5,7.5c0,2.15-.91,4.09-2.36,5.46h0Z"/><g><path class="cls-3" d="M20.35,205.61v-5.31h-1.5v-.38c1.15,0,1.44-.12,1.68-.92h.38v6.61h-.56Z"/><path class="cls-3" d="M22.38,205.61v-.85h.79v.85h-.79Z"/></g></g><g><path class="cls-4" d="M96.1,155.46l-5.14,8.9-5.14-8.9h0c-1.45-1.37-2.36-3.31-2.36-5.46,0-4.14,3.36-7.5,7.5-7.5s7.5,3.36,7.5,7.5c0,2.15-.91,4.09-2.36,5.46h0Z"/><g><path class="cls-3" d="M92.16,147.64c0,1.33-1.14,2.62-3.56,4.44h3.75v.54h-4.53v-.56c2.42-1.84,3.74-3.14,3.74-4.36,0-.84-.64-1.26-1.38-1.26-.82,0-1.57,.39-1.6,1.65h-.6c.06-1.4,.9-2.14,2.2-2.14,1.2,0,1.98,.63,1.98,1.69Z"/><path class="cls-3" d="M93.29,152.62v-.85h.79v.85h-.79Z"/></g></g><g><path class="cls-4" d="M85.67,118.24l-5.14,8.9-5.14-8.9h0c-1.45-1.37-2.36-3.31-2.36-5.46,0-4.14,3.36-7.5,7.5-7.5s7.5,3.36,7.5,7.5c0,2.15-.91,4.09-2.36,5.46h0Z"/><g><path class="cls-3" d="M81.4,113.31c0-1-.76-1.41-1.99-1.41h-.05v-.5h.05c1.23,0,1.82-.45,1.82-1.25,0-.68-.53-1.21-1.5-1.21-.69,0-1.47,.37-1.62,1.38h-.6c.14-1.12,.95-1.88,2.26-1.88s2.05,.63,2.05,1.66c0,.65-.34,1.28-1.08,1.53,.7,.19,1.25,.66,1.25,1.67,0,1.3-1.09,1.94-2.31,1.94-1.31,0-2.19-.85-2.31-1.96h.6c.19,1.01,.92,1.47,1.7,1.47,.99,0,1.72-.52,1.72-1.43Z"/><path class="cls-3" d="M82.89,115.12v-.85h.79v.85h-.79Z"/></g></g><g><path class="cls-4" d="M126.11,193.94l-5.14,8.9-5.14-8.9h0c-1.45-1.37-2.36-3.31-2.36-5.46,0-4.14,3.36-7.5,7.5-7.5s7.5,3.36,7.5,7.5c0,2.15-.91,4.09-2.36,5.46h0Z"/><g><path class="cls-3" d="M122.97,189.01h-1.28v1.72h-.56v-1.72h-3.53v-.51l3.54-4.33h.55v4.29h1.28v.55Zm-4.7-.55h2.86v-3.51l-2.86,3.51Z"/><path class="cls-3" d="M123.55,190.73v-.85h.79v.85h-.79Z"/></g></g><g><g><path class="cls-4" d="M132.45,209.02l-5.14,8.9-5.14-8.9h0c-1.45-1.37-2.36-3.31-2.36-5.46,0-4.14,3.36-7.5,7.5-7.5s7.5,3.36,7.5,7.5c0,2.15-.91,4.09-2.36,5.46h0Z"/><g><path class="cls-3" d="M128.22,204.45c0-1.23-.88-1.74-1.71-1.74-.74,0-1.36,.4-1.55,.84l-.55-.05,.43-3.47h3.71v.54h-3.22l-.29,2.24c.32-.36,.97-.62,1.61-.62,1.21,0,2.17,.79,2.17,2.23s-1.09,2.27-2.29,2.27c-1.3,0-2.18-.85-2.3-1.96h.6c.19,1.01,.92,1.47,1.7,1.47,.91,0,1.69-.62,1.69-1.76Z"/><path class="cls-3" d="M129.61,206.6v-.85h.79v.85h-.79Z"/></g></g><path class="cls-2" d="M119.71,203.46c0-4.14,3.36-7.5,7.5-7.5"/></g></g></g></svg>