<?xml version="1.0" encoding="UTF-8"?><svg id="Calque_2" xmlns="http://www.w3.org/2000/svg" xmlns:xlink="http://www.w3.org/1999/xlink" viewBox="0 0 358.19 635.88"><defs><style>.cls-1{fill:none;}.cls-2{clip-path:url(#clippath);}.cls-3{fill:#7ea07c;}.cls-4,.cls-5{fill:#648063;}.cls-6{fill:#8ab187;}.cls-7{fill:#415238;}.cls-8{fill:#437340;}.cls-9{fill:#3d693b;}.cls-10{fill:#543226;}.cls-11{fill:#264526;}.cls-12,.cls-13{fill:#3c4e3c;}.cls-14{clip-path:url(#clippath-1);}.cls-5{opacity:.34;}.cls-15{opacity:.55;}.cls-16{fill:#beca9a;opacity:.6;}.cls-13{opacity:.28;}</style><clipPath id="clippath"><rect class="cls-1" x="50.25" y="63.76" width="241" height="510"/></clipPath><clipPath id="clippath-1"><rect class="cls-1" x="50.97" y="63.8" width="240.97" height="529.46"/></clipPath></defs><g id="Calque_9"><g class="cls-2"><g><rect class="cls-10" x="50.97" y="63.8" width="240.97" height="510.39"/><g class="cls-14"><g class="cls-15"><polygon class="cls-12" points="111.33 550.38 53.91 515.31 85.85 475.93 143.26 511 111.33 550.38"/><path class="cls-8" d="M139.51,566.18c.5,1.72,1.31,4.52,4.06,6.55,1.93,1.42,3.9,1.79,3.83,2.62-.08,1.02-3.02,.79-6.01,2.71-2.67,1.71-3.82,4.14-4.81,6.25-.82,1.74-1.52,3.21-1.53,5.24-.03,3.72,2.25,6.46,3.79,8.3,1.12,1.35,2.26,2.71,4.34,3.87,1.5,.84,2.33,.92,8.95,2.21,4.31,.84,6.47,1.26,7.8,1.56,4.53,1.01,4.55,1.23,5.8,1.21,4.23-.06,7.5-2.58,8.36-3.24,2.86-2.2,2.45-3.52,5.28-4.83,.98-.46,1.31-.42,4.37-1.65,1.47-.59,2.33-.93,3.38-1.45,.62-.3,2.7-1.32,4.27-2.54,2.74-2.13,1.87-3.26,4.03-5.24,2.95-2.7,5.38-1.32,9.23-4.47,.99-.81,2.5-2.08,2.94-4.04,.27-1.2-.07-1.79-.81-4.39-1.44-5.05-1.05-5.96-2.52-9.05-.76-1.59-1.13-2.39-1.94-3.17-2.14-2.05-4.35-1.72-5.15-3.31-.81-1.6,1.1-2.62,.57-4.38-.22-.74-1.12-2.43-7.66-3.93-6.79-1.56-12.08-1.24-12.08-1.24-20.36,1.24-25.59-3.84-32.29,.73-5.32,3.63-7.63,10.66-6.17,15.69Z"/><path class="cls-8" d="M77.32,510.77h0c1.26-.38,4.34-1.15,7.27,.08,.53,.22,1.46,.68,3.21,2.43,2.22,2.23,4.54,4.55,5.52,8.29,1.01,3.84,0,6.86-.22,7.49-.31,.87-.76,2.12-1.92,3.36-1.69,1.81-3.81,2.47-4.97,2.89-5.3,1.91-13.09,6.81-16.7,11.64-.49,.65-1.42,1.99-2.88,2.12-1.34,.11-2.05-.89-4.6-2.18-1.28-.64-1.13-.4-4.25-1.62-3.39-1.32-5.09-1.99-6.14-2.83-.82-.66-3.24-2.63-2.86-4.72,.45-2.48,4.54-3.25,4.21-4.74-.22-1-2.06-.68-3.26-2.28-.7-.92-.74-2.14-.83-4.58-.05-1.4,.05-1.48,.02-2.7-.07-3.37-.86-3.75-.66-5.38,.21-1.8,1.27-2.23,3.7-5.47,2.28-3.05,2.75-4.55,3.48-5.5,1.86-2.43,7.65-4.19,25.31-.85"/><path class="cls-3" d="M133.97,474.68c.4-.47,1.5-1.75,1.46-3.44-.03-1.51-.97-2.65-1.17-2.89-1.63-1.91-3.63-1.47-4.75-3.23-.61-.96-.02-1.11-.59-2.57-.8-2.04-2.15-2.27-3.58-4.43-1.32-2-.44-2.21-1.49-3.43-1.87-2.16-4.37-1.2-7.41-3.64-1.27-1.02-1.99-2.11-2.37-2.69-1.16-1.78-1.11-2.78-1.69-4.27-1.73-4.46-6.49-6.63-7.25-6.96-1.19-.52-2.94-1.27-5.09-.92-.58,.09-1.78,.29-2.78,1.11-1.68,1.4-.59,2.79-2.26,4.44-1.1,1.08-2.02,.91-2.71,2.13-.55,.96-.26,1.57-.86,1.94-.74,.46-1.74-.1-3.32-.45,0,0-2.78-.61-5.8,.06-2.3,.51-1.89,1.32-4.88,2.6-3.32,1.41-4.45,.67-7.27,2.31-1.03,.6-1.87,1.27-2.76,1.98-1.61,1.28-2.41,1.93-2.76,2.66-.73,1.57,.48,2.01-.07,4.34-.38,1.58-1.41,3.36-1.41,3.36h0s.98,1.79,1.07,3.31c.1,1.68-.87,2.99-1.21,3.45-1.11,1.51-1.87,1.18-4.11,3.04-.87,.73-1.78,1.84-3.59,4.05-.66,.8-1.1,1.38-1.36,2.25-.3,1.03-.1,1.68-.07,2.43,.08,1.96-1.05,2.68-2.19,5.25-.94,2.11-1.17,3.85-1.35,5.15-.08,.6-.39,3.12,.27,6.69,.87,4.73,1.58,8.55,4.86,10.41,2.11,1.19,3.2,.38,6.13,2.12,1.99,1.18,2.26,2,4.23,2.69,1.9,.67,3.65,.6,4.86,.56,1.09-.04,1.7-.17,5.25-.97,5.64-1.28,5.94-1.38,6.46-1.73,2.02-1.34,1.22-2.32,3.57-4.14,1.96-1.52,2.98-1.22,4.54-2.74,.59-.58,1-1.17,2.1-3.68,2.15-4.95,2.32-6.71,3.27-6.8,.92-.09,1.38,1.5,3.29,3.55,1.89,2.02,4.47,3.73,6.03,4.22,7.98,2.48,20.33-17.2,28.78-27.12Z"/><path class="cls-3" d="M47.26,579.97c-.59,.4-2.22,1.51-2.64,3.46-.37,1.75,.4,3.38,.57,3.72,1.38,2.75,3.83,2.92,4.65,5.33,.45,1.32-.28,1.28-.01,3.16,.37,2.62,1.88,3.34,2.96,6.31,1,2.75-.1,2.69,.8,4.46,1.58,3.12,4.76,2.87,7.64,6.7,1.2,1.6,1.75,3.11,2.03,3.9,.86,2.44,.53,3.58,.8,5.49,.8,5.73,5.75,9.84,6.55,10.48,1.25,1.01,3.08,2.46,5.68,2.78,.7,.09,2.15,.27,3.54-.34,2.34-1.04,1.44-3.02,3.84-4.35,1.57-.87,2.6-.37,3.74-1.53,.9-.92,.73-1.72,1.53-1.95,.98-.28,2,.7,3.75,1.64,0,0,3.07,1.65,6.77,1.89,2.82,.19,2.57-.89,6.39-1.34,4.25-.5,5.36,.73,9.1-.2,1.36-.34,2.53-.83,3.76-1.35,2.22-.94,3.34-1.4,3.94-2.13,1.28-1.56,0-2.48,1.27-4.97,.87-1.7,2.56-3.4,2.56-3.4h0s-.65-2.39-.34-4.18c.34-1.97,1.83-3.15,2.35-3.57,1.71-1.36,2.5-.72,5.61-2.12,1.22-.55,2.57-1.51,5.29-3.45,.98-.7,1.66-1.22,2.2-2.13,.63-1.08,.58-1.9,.75-2.78,.44-2.28,1.95-2.73,3.98-5.31,1.67-2.11,2.41-4.04,2.97-5.48,.26-.67,1.3-3.46,1.51-7.8,.27-5.74,.5-10.39-2.82-13.64-2.13-2.09-3.62-1.52-6.56-4.52-1.99-2.03-2.08-3.07-4.19-4.54-2.04-1.42-4.08-1.93-5.51-2.29-1.28-.32-2.03-.38-6.38-.65-6.92-.43-7.3-.42-7.99-.2-2.71,.86-2.05,2.26-5.29,3.57-2.69,1.09-3.81,.39-6.03,1.62-.85,.47-1.49,1.01-3.45,3.54-3.86,4.97-4.53,6.95-5.67,6.73-1.1-.21-1.2-2.2-2.86-5.21-1.64-2.97-4.19-5.81-5.88-6.9-8.61-5.56-28.37,12.94-40.92,21.5Z"/><path class="cls-4" d="M97.23,540.27h0l-.08-.08s-.78-.77-1.65-1.49c-3.94-3.24-8.82-4.73-8.82-4.73-1.95-.59-1.95-.33-7.06-1.13-8.57-1.34-9.5-2.22-11.08-1.4-3.24,1.69-3.42,7.54-2.56,10.69,.24,.86,.87,2.67,1.54,5.35,.47,1.88,.39,1.86,.68,2.67,.49,1.34,.88,1.8,.63,2.44-.32,.8-1.26,.8-1.99,1.49-1.43,1.34-.6,3.89-.45,4.34,1.29,3.96,5.99,4.59,5.84,7.31-.04,.66-.32,.58-1.16,2.23-1.26,2.45-2.44,4.74-1.8,6.88,1,3.33,6.02,4.92,7.47,5.38,1.31,.42,1.1,.17,2.97,.7,2.57,.73,5.45,1.56,7.73,3.61,1.6,1.44,1.13,1.88,3.03,3.45,.96,.79,2.34,1.9,4.43,2.32,1.48,.3,2.65,.13,4.08-.1,.72-.11,1.8-.33,7.23-2.36,2.34-.87,3.2-1.23,4.71-1.37,1.75-.17,1.98,.18,2.87-.11,2.75-.92,3.24-5.13,3.36-6.18,.09-.81,.27-2.51-.44-4.51-.52-1.44-1.29-2.45-1.1-2.57,.29-.17,1.63,2.28,4.67,3.39,.95,.35,1.98,.45,4.05,.66,2.58,.26,3.16,.02,3.48-.26,.48-.42,.26-.82,.61-1.97,.07-.21,.6-1.88,1.67-2.79,1.28-1.08,2.95-.75,4.35-.98,3.33-.55,5.26-4.31,6.55-7.15,6.97-15.33,10.45-22.99,7.29-26.96-5.01-6.29-22.93-6.45-42.11,2.86"/><g><path class="cls-7" d="M92.73,544.94c10.32,16.94,23.62,29.18,23.98,28.91"/><polygon class="cls-11" points="112.29 572.54 107.9 570.37 96.89 572.66 82.31 570.29 112.29 572.54"/><polygon class="cls-11" points="115.61 570.63 118.66 567.28 119.36 558.69 125.15 547.45 115.61 570.63"/><path class="cls-11" d="M114.56,567.25c.06,0,2.99-6.79,.95-13.2-3.32-10.41-17.63-13.09-17.59-13.15,.04-.06,13.55,2.28,17.2,12.19,2.49,6.74-.62,14.15-.56,14.15Z"/><path class="cls-11" d="M110.66,569.36c-.02,.06-7.57,.38-13.03-3.7-8.86-6.64-6.48-20.66-6.55-20.65-.07,.01-2.5,13.18,5.77,19.96,5.62,4.61,13.83,4.33,13.81,4.39Z"/><polyline class="cls-11" points="118.13 572.13 122.29 574.22 127.52 572.42 116.03 572.27"/><polyline class="cls-11" points="111.41 576.07 107.94 578.66 107.28 582.72 112.16 574.55"/></g><g><polygon class="cls-9" points="92.89 492.72 89.63 487.5 75.08 483.3 60.28 471.51 92.89 492.72"/><polygon class="cls-9" points="98.26 492.58 104.54 490.63 112.42 481.19 128.35 471.87 98.26 492.58"/><path class="cls-9" d="M99.85,488.05c.07,.04,9.04-5.95,11.97-14.58,4.77-14.02-9.47-25.99-9.38-26.03,.09-.04,13.69,11.03,9.72,24.69-2.7,9.29-12.38,15.88-12.31,15.92Z"/><path class="cls-9" d="M93.63,488.06c-.07,.05-9.02-4.26-11.92-12.34-4.71-13.14,9.58-27.77,9.49-27.8-.09-.03-13.74,13.6-9.82,26.52,2.66,8.79,12.33,13.57,12.25,13.62Z"/><polyline class="cls-9" points="99.92 495.88 102.99 500.86 110.49 502.04 97.4 494.73"/><polyline class="cls-9" points="88.95 496.23 82.83 497.05 78.73 501.31 91.08 494.95"/></g><g><path class="cls-9" d="M88.1,586.11c-.07-.02-3.58,3.94-4.25,9.63-1.18,10,6.5,18.37,13.77,23.29,.71,.48,1.12,.73,1.11,.74-.45,.32-15.17-10.7-14.92-22.66,.13-6.11,4.36-10.97,4.29-11Z"/><path class="cls-9" d="M111.37,586.45s1.22,1.66,1.56,2.15c5.4,8.02,.24,22.51-2.58,27.62-.44,.79-.71,1.23-.69,1.23,.38,.04,9.39-18.87,3.87-27.65-.4-.64-2.2-3.33-2.16-3.35Z"/><polyline class="cls-9" points="90.65 571.79 86.56 567.4 78.94 567.46 93.38 572.5"/></g><path class="cls-6" d="M132.75,545.37c2.21-3.89,5.74-5.61,5.55-5.82-.24-.25-5.63,2.23-10.46,6.36-.78,.66-1.86,1.39-3.43,2.32-1.69,1-4.48,1.77-6.73,1.05-2.23-.7-2.35-2.35-4.41-2.53-1.3-.11-1.72,.5-3.21,.8-2.27,.46-4.23-.38-7.16-1.67-4.07-1.79-6.1-2.68-7.47-4.78-.23-.35-2.27-3.59-.93-7.25,.4-1.1,1.29-1.35,1.16-2.1-.26-1.5-3.34-1.19-5.06-3.23-.8-.94-.49-1.42-1.2-5.81-.49-2.97-.58-2.49-.78-4.11-.33-2.72-.68-5.55,.73-8.57,.73-1.56,1.75-2.8,2.25-3.4,1-1.2,1.64-1.66,2.91-2.89,1.57-1.53,2.57-2.76,3.75-4.21,2.41-2.96,2.11-3.28,4.28-6.08,1.91-2.45,3.67-4.17,5.09-5.54,1.43-1.39,3.15-3.05,5.73-4.95,1.32-.97,4.28-2.49,10.21-5.54,1.35-.7,2.85-1.44,4.22-.98,1.48,.49,1.93,2.09,2.6,1.96,.64-.13,.14-1.58,1.2-2.78,1.29-1.45,3.94-1.44,4.97-1.44,1.26,0,1.91,0,2.52,.4,1.55,1.01,.49,3.06,1.94,3.95,.96,.59,2.61,.41,3.37-.28,.87-.8,0-1.8,.77-2.95,.26-.4,.88-1.05,4-1.71,2.86-.61,4.09-.44,5.99-.72,3.14-.47,3.03-1.42,6.52-2.46,6.21-1.84,8.39,.65,12.56-1.55,1.02-.54,2.37-1.46,4.24-1.34,1.17,.08,2.05,.53,2.81,.99,5,2.96,8.26,7.54,8.63,8.07,.69,.98,1.2,1.83,2.33,3,1.75,1.8,2.22,1.52,3.03,2.64,1.24,1.73,.28,2.63,1.46,5.9,.32,.88,.64,1.78,1.39,2.83,1.42,1.98,2.49,1.9,3.98,3.68,1.58,1.89,1.94,3.86,2.08,4.62,.13,.75,0,.58-.23,4.67-.2,3.47-.14,4-.64,5.03-.69,1.4-1.4,1.65-1.28,2.47,.18,1.2,1.82,1.53,3.49,2.86,1.62,1.29,1.1,2.04,2.97,4.3,.63,.76,.78,.82,2.46,2.47,3.25,3.2,4.89,4.82,5.34,6.33,.44,1.46,.2,2.63-.1,4.15-.71,3.51-2.82,6.01-3.34,6.6-1.72,1.96-2.62,1.97-3.22,3.55-.5,1.31,0,1.63-.61,3.8-.58,2.04-1.38,3.05-1.6,3.31-.65,.78-1.23,1.15-2.02,1.73-2.72,1.99-2.49,2.5-4.85,4.31-2.83,2.17-3.29,1.54-5.05,3.27-1.81,1.78-2.58,3.67-2.83,4.35-.88,2.42-.03,2.8-.83,4.34-.75,1.44-2.81,2.48-6.9,4.48-2.84,1.39-4.29,2.1-5.88,2.38-2.02,.36-2.61,.03-5.28,.52-2.51,.46-2.47,.84-4.5,1.11-2.85,.37-5.17-.09-5.63-.18-2.7-.56-2.8-1.34-4.48-1.27-1.6,.07-1.68,.79-4.68,1.8-1.92,.64-3.53,.9-4.43,1.02,0,0-2.2,.27-4.16,.13-4.84-.37-8.89-4.25-10.22-5.52-1.25-1.2-3.11-4.42-6.77-10.82-2.81-4.91-3.83-6.83-2.8-8.31,.92-1.32,2.59-1.03,4.59-3.13,1.19-1.25,1.11-1.96,2.06-3.63Z"/><path class="cls-6" d="M73.74,556.12c-3.6,.84-6.46-.03-6.5,.17-.05,.24,4.22,1.64,9.27,1.96,.81,.05,1.82,.22,3.19,.52,1.48,.33,3.35,1.31,4,2.76,.64,1.43-.36,2.3,.54,3.39,.57,.69,1.17,.59,2.1,1.17,1.41,.88,1.84,2.24,2.46,4.31,.85,2.86,1.27,4.29,.59,5.99-.11,.28-1.2,2.88-4.23,4.03-.91,.34-1.51,.04-1.93,.47-.84,.87,.88,2.21,.41,4.05-.22,.85-.68,.94-3.16,3.45-1.68,1.7-1.32,1.51-2.27,2.41-1.59,1.5-3.25,3.07-5.9,3.87-1.37,.41-2.67,.53-3.31,.58-1.27,.1-1.88,.02-3.3,.01-1.77,0-3.06,.11-4.57,.25-3.1,.29-3.16,.59-6.04,.91-2.53,.28-4.5,.27-6.09,.26-1.6-.01-3.52-.03-6.02-.35-1.27-.16-3.72-.86-8.62-2.24-1.12-.32-2.34-.68-2.71-1.57-.41-.96,.4-1.97-.02-2.23-.4-.25-1.09,.72-2.39,.78-1.57,.08-2.88-1.21-3.38-1.71-.62-.62-.94-.93-.98-1.42-.11-1.25,1.74-1.75,1.6-2.89-.09-.76-1.02-1.47-1.84-1.5-.95-.03-1.16,.89-2.28,1.08-.39,.07-1.11,.09-3.08-1.1-1.81-1.09-2.3-1.77-3.42-2.56-1.85-1.3-2.41-.77-4.81-1.96-4.25-2.11-3.72-4.4-7.2-5.35-.85-.23-2.11-.43-2.96-1.4-.53-.61-.66-1.26-.75-1.86-.55-3.9,.8-7.74,.96-8.18,.3-.82,.59-1.49,.79-2.62,.3-1.74-.11-1.83,.21-2.78,.51-1.46,1.56-1.43,3.09-3.62,.41-.59,.83-1.19,1.14-2.07,.58-1.67,0-2.15,.42-3.75,.44-1.7,1.53-2.85,1.96-3.29,.42-.43,.37-.29,3.13-2.19,2.34-1.62,2.65-1.91,3.57-2.17,1.24-.36,1.76-.13,2.23-.6,.69-.68,.09-1.64,.12-3.11,.03-1.42,.78-1.54,1.32-3.57,.18-.68,.14-.78,.38-2.42,.46-3.16,.71-4.76,1.46-5.72,.73-.94,1.6-1.4,2.73-2,2.62-1.39,5.28-1.59,5.91-1.63,2.11-.13,2.57,.3,3.88-.19,1.09-.41,1.05-.8,2.76-1.57,1.61-.73,2.65-.83,2.93-.85,.82-.07,1.35,.03,2.11,.13,2.63,.34,2.84-.02,5.18,.24,2.8,.31,2.62,.84,4.61,.85,2.05,0,3.64-.55,4.21-.77,2-.76,1.82-1.37,3.22-1.74,1.3-.35,2.99,.15,6.3,1.15,2.3,.7,3.47,1.06,4.44,1.69,1.23,.81,1.3,1.25,2.94,2.31,1.53,.99,1.76,.79,2.93,1.64,1.65,1.2,2.5,2.56,2.66,2.83,.97,1.59,.52,2.02,1.39,2.81,.83,.75,1.34,.43,3.47,1.39,1.36,.62,2.33,1.27,2.84,1.66,0,0,1.26,.93,2.13,1.96,2.15,2.54,1.64,6.43,1.47,7.69-.16,1.2-1.33,3.69-3.65,8.63-1.79,3.79-2.53,5.23-4,5.46-1.31,.2-1.94-.75-4.28-.69-1.4,.04-1.81,.43-3.36,.79Z"/><path class="cls-8" d="M138.3,539.55c.34,.33,6.31-3.29,11.63-7.46,15.79-12.36,23.04-27.29,22.41-27.63-.49-.27-5.59,8.53-18.45,20.97-8.6,8.32-15.98,13.73-15.59,14.12Z"/><path class="cls-8" d="M96.36,493.65c.37,.05,1.68-4.48,2.31-9.03,1.89-13.51-2.4-24.85-2.94-24.77-.42,.06,1.65,7.09,1.43,19.41-.15,8.23-1.23,14.34-.8,14.39Z"/><path class="cls-8" d="M34.19,549.91c19.35,7.67,38.01,7.51,38.12,6.87"/><polygon class="cls-8" points="135.18 538.61 137.64 529.98 128.64 513.37 127.35 487.85 135.18 538.61"/><polygon class="cls-8" points="140.28 542.81 148.11 545.66 165.26 541.22 189.71 543.45 140.28 542.81"/><path class="cls-8" d="M146.49,538.9c.03,.1,14.57,.5,26.31-7.01,19.08-12.22,18.5-37.49,18.63-37.47,.13,.02,1.05,23.76-16.92,36.21-12.22,8.46-28.05,8.17-28.02,8.28Z"/><path class="cls-8" d="M140.75,533.86c-.12,0-3.84-12.2,1.95-23.82,9.42-18.89,37.93-24.08,37.87-24.19-.06-.1-26.91,4.46-36.84,22.46-6.75,12.24-2.85,25.55-2.98,25.55Z"/><polyline class="cls-8" points="138.35 547.94 135.96 556.14 141.63 563.57 137.23 544.57"/><polyline class="cls-8" points="127.88 539.44 121.37 535.42 113.14 536.98 131.18 539.7"/><polygon class="cls-8" points="70.02 559.1 63.57 560.98 56.08 571.29 40.09 581.04 70.02 559.1"/><polygon class="cls-8" points="70.91 555.12 69.94 550.3 60.95 543.55 53.65 530.89 70.91 555.12"/><path class="cls-8" d="M66.17,553.5c.06-.05-4.88-7.25-13.93-10.27-14.7-4.9-30.79,4.42-30.82,4.34-.03-.07,14.94-9,29.39-4.72,9.83,2.91,15.29,10.7,15.35,10.65Z"/><path class="cls-8" d="M64.97,558.08c.04,.06-6.5,6.23-16.06,7.57-15.55,2.17-29.09-9.81-29.13-9.75-.05,.06,12.49,11.47,27.65,9.87,10.3-1.09,17.5-7.75,17.55-7.69Z"/><polyline class="cls-8" points="74.9 554.22 81.05 552.45 83.81 547.04 73.13 555.97"/><polyline class="cls-8" points="73.17 562.34 72.9 566.94 76.85 570.38 72.15 560.65"/><path class="cls-5" d="M121.16,545.28c1.31-.13,3.38-.36,5.68-1.43,3.59-1.68,4.96-4.14,7.9-8.1,4.02-5.41,4.31-4.67,7.27-8.76,7.22-9.95,4.28-12.67,9.41-18.09,4.39-4.65,6.25-2.34,18.56-9.89,12.01-7.37,13.31-11.46,13.63-13.56,.09-.62,.59-4.36-1.99-7.75-4.74-6.23-16.99-7.53-23.03-3.62-5.35,3.46-2.77,9.02-8.99,12.47-4.53,2.52-9.83,1.76-11.4,1.53-5.32-.77-10.94-3.73-10.55-5.43,.23-.99,2.47-1.61,2.8-1.26,.51,.54-2.57,4.34-6.93,6.55-4.58,2.31-6.38,.76-8.63,2.89-2.31,2.2-1.06,4.46-4.44,8.72-.81,1.03-1.59,1.79-2,2.17-3.41,3.19-5.43,2.9-7.53,5.4-1.08,1.29-1.49,2.5-2.18,4.55-.52,1.54-1.05,3.15-.92,5.31,.04,.74,.15,2.38,1.07,4.25,1.29,2.61,2.68,2.65,3.29,4.3,1.33,3.61-3.48,8.53-4.08,8.28-.37-.15,.2-2.55,1.02-2.64,1.16-.13,1.28,4.62,4.79,8.48,4.15,4.55,11.54,6.21,17.25,5.64Z"/><path class="cls-5" d="M74.96,565.23c-.53-.53-1.37-1.37-2.78-2.01-2.21-1.01-4.12-.77-7.45-.71-4.55,.08-4.21-.3-7.62-.21-8.31,.22-8.89,2.45-13.82,2.05-4.23-.35-3.51-1.96-12.15-4.8-8.43-2.77-11.27-1.95-12.61-1.37-.39,.17-2.75,1.23-3.86,3.53-2.03,4.22,1.41,10.07,5.77,11.4,3.86,1.17,6.23-1.87,10.39-.31,3.03,1.14,4.39,3.73,4.8,4.51,1.37,2.61,1.56,6.1,.43,6.51-.65,.24-1.79-.54-1.7-.8,.14-.41,3.42-.35,6.21,.81,2.92,1.23,2.63,2.56,4.65,2.82,2.08,.27,2.97-1.06,6.63-1.03,.88,0,1.59,.09,1.96,.14,3.03,.41,3.56,1.4,5.74,1.47,1.13,.03,1.97-.2,3.41-.6,1.08-.3,2.21-.62,3.43-1.41,.42-.27,1.34-.88,2.12-1.93,1.09-1.46,.63-2.09,1.39-2.92,1.66-1.82,6.19-1.39,6.25-1.04,.04,.22-1.57,.79-1.9,.46-.47-.47,2.27-2.15,3.32-5.02,1.25-3.39-.31-7.22-2.61-9.54Z"/><path class="cls-13" d="M122.29,574.22c-.67-.12,.08-2.31-.8-5.23-1.63-5.38-8.07-10.73-12.1-9.61-3.74,1.04-5.5,7.7-3.99,12.64,1.33,4.36,4.79,6.04,3.94,7.24-1.15,1.63-8.95,.66-13.66-3.5-3.51-3.09-4.28-7.02-4.54-8.32-.93-4.74,1.28-5.82,.24-11.75-.45-2.57-1.07-3.53-.51-5.34,.71-2.28,2.96-4.89,5.96-5.23,2.59-.3,4.65,1.21,7.25,3.12,2.98,2.19,3.44,3.59,7.82,7.06,1.4,1.11,2.57,1.93,4.27,2.16,1.8,.25,2.4-.42,3.81,.02,1.52,.47,2.28,1.69,3.45,3.55,.8,1.27,1.58,2.52,1.93,4.12,1,4.55-2.06,9.25-3.07,9.07Z"/><path class="cls-16" d="M192.7,509.95c.71-.41,4,4.02,10.74,9.5,3.25,2.65,3.89,2.76,4.58,4.1,2.64,5.16-2.57,11.64-1.8,11.96,.42,.18,2.2-1.63,1.77-2.18-.65-.83-5.57,2.08-13.85,3.62-3.7,.69-9.08,1.69-10.41-.15-1.16-1.6,1.2-4.69,1.78-5.44,1.61-2.1,2.54-1.84,4.9-4.19,1.29-1.29,3.57-3.61,4.13-6.95,.23-1.34,.09-2.38-.07-3.63-.54-4.28-2.27-6.35-1.77-6.63Z"/><path class="cls-16" d="M27.54,543.05c-.62-.24,1.39-4.01,2.74-10.21,.65-3,.47-3.41,1.21-4.38,2.84-3.71,10.01-3.43,9.93-4.02-.04-.32-2.18-.58-2.42-.1-.36,.72,3.95,2.34,8.63,6.47,2.09,1.85,5.13,4.53,4.28,6.08-.74,1.35-4.1,1.29-4.93,1.27-2.29-.04-2.48-.69-5.28-1.06-1.53-.2-4.28-.54-7.07,.55-1.12,.44-1.86,.95-2.76,1.57-3.05,2.12-3.91,3.99-4.34,3.83Z"/></g><g class="cls-15"><polygon class="cls-12" points="246.87 114.26 304.28 79.19 272.34 39.81 214.93 74.87 246.87 114.26"/><path class="cls-8" d="M218.68,130.06c-.5,1.72-1.31,4.52-4.06,6.55-1.93,1.42-3.9,1.79-3.83,2.62,.08,1.02,3.02,.79,6.01,2.71,2.67,1.71,3.82,4.14,4.81,6.25,.82,1.74,1.52,3.21,1.53,5.24,.03,3.72-2.25,6.46-3.79,8.3-1.12,1.35-2.26,2.71-4.34,3.87-1.5,.84-2.33,.92-8.95,2.21-4.31,.84-6.47,1.26-7.8,1.56-4.53,1.01-4.55,1.23-5.8,1.21-4.23-.06-7.5-2.58-8.36-3.24-2.86-2.2-2.45-3.52-5.28-4.83-.98-.46-1.31-.42-4.37-1.65-1.47-.59-2.33-.93-3.38-1.45-.62-.3-2.7-1.32-4.27-2.54-2.74-2.13-1.87-3.26-4.03-5.24-2.95-2.7-5.38-1.32-9.23-4.47-.99-.81-2.5-2.08-2.94-4.04-.27-1.2,.07-1.79,.81-4.39,1.44-5.05,1.05-5.96,2.52-9.05,.76-1.59,1.13-2.39,1.94-3.17,2.14-2.05,4.35-1.72,5.15-3.31,.81-1.6-1.1-2.62-.57-4.38,.22-.74,1.12-2.43,7.66-3.93,6.79-1.56,12.08-1.24,12.08-1.24,20.36,1.24,25.59-3.84,32.29,.73,5.32,3.63,7.63,10.66,6.17,15.69Z"/><path class="cls-8" d="M280.88,74.65h0c-1.26-.38-4.34-1.15-7.27,.08-.53,.22-1.46,.68-3.21,2.43-2.22,2.23-4.54,4.55-5.52,8.29-1.01,3.84,0,6.86,.22,7.49,.31,.87,.76,2.12,1.92,3.36,1.69,1.81,3.81,2.47,4.97,2.89,5.3,1.91,13.09,6.81,16.7,11.64,.49,.65,1.42,1.99,2.88,2.12,1.34,.11,2.05-.89,4.6-2.18,1.28-.64,1.13-.4,4.25-1.62,3.39-1.32,5.09-1.99,6.14-2.83,.82-.66,3.24-2.63,2.86-4.72-.45-2.48-4.54-3.25-4.21-4.74,.22-1,2.06-.68,3.26-2.28,.7-.92,.74-2.14,.83-4.58,.05-1.4-.05-1.48-.02-2.7,.07-3.37,.86-3.75,.66-5.38-.21-1.8-1.27-2.23-3.7-5.47-2.28-3.05-2.75-4.55-3.48-5.5-1.86-2.43-7.65-4.19-25.31-.85"/><path class="cls-3" d="M224.22,38.55c-.4-.47-1.5-1.75-1.46-3.44,.03-1.51,.97-2.65,1.17-2.89,1.63-1.91,3.63-1.47,4.75-3.23,.61-.96,.02-1.11,.59-2.57,.8-2.04,2.15-2.27,3.58-4.43,1.32-2,.44-2.21,1.49-3.43,1.87-2.16,4.37-1.2,7.41-3.64,1.27-1.02,1.99-2.11,2.37-2.69,1.16-1.78,1.11-2.78,1.69-4.27,1.73-4.46,6.49-6.63,7.25-6.96,1.19-.52,2.94-1.27,5.09-.92,.58,.09,1.78,.29,2.78,1.11,1.68,1.4,.59,2.79,2.26,4.44,1.1,1.08,2.02,.91,2.71,2.13,.55,.96,.26,1.57,.86,1.94,.74,.46,1.74-.1,3.32-.45,0,0,2.78-.61,5.8,.06,2.3,.51,1.89,1.32,4.88,2.6,3.32,1.41,4.45,.67,7.27,2.31,1.03,.6,1.87,1.27,2.76,1.98,1.61,1.28,2.41,1.93,2.76,2.66,.73,1.57-.48,2.01,.07,4.34,.38,1.58,1.41,3.36,1.41,3.36h0s-.98,1.79-1.07,3.31c-.1,1.68,.87,2.99,1.21,3.45,1.11,1.51,1.87,1.18,4.11,3.04,.87,.73,1.78,1.84,3.59,4.05,.66,.8,1.1,1.38,1.36,2.25,.3,1.03,.1,1.68,.07,2.43-.08,1.96,1.05,2.68,2.19,5.25,.94,2.11,1.17,3.85,1.35,5.15,.08,.6,.39,3.12-.27,6.69-.87,4.73-1.58,8.55-4.86,10.41-2.11,1.19-3.2,.38-6.13,2.12-1.99,1.18-2.26,2-4.23,2.69-1.9,.67-3.65,.6-4.86,.56-1.09-.04-1.7-.17-5.25-.97-5.64-1.28-5.94-1.38-6.46-1.73-2.02-1.34-1.22-2.32-3.57-4.14-1.96-1.52-2.98-1.22-4.54-2.74-.59-.58-1-1.17-2.1-3.68-2.15-4.95-2.32-6.71-3.27-6.8-.92-.09-1.38,1.5-3.29,3.55-1.89,2.02-4.47,3.73-6.03,4.22-7.98,2.48-20.33-17.2-28.78-27.12Z"/><path class="cls-3" d="M310.93,143.84c.59,.4,2.22,1.51,2.64,3.46,.37,1.75-.4,3.38-.57,3.72-1.38,2.75-3.83,2.92-4.65,5.33-.45,1.32,.28,1.28,.01,3.16-.37,2.62-1.88,3.34-2.96,6.31-1,2.75,.1,2.69-.8,4.46-1.58,3.12-4.76,2.87-7.64,6.7-1.2,1.6-1.75,3.11-2.03,3.9-.86,2.44-.53,3.58-.8,5.49-.8,5.73-5.75,9.84-6.55,10.48-1.25,1.01-3.08,2.46-5.68,2.78-.7,.09-2.15,.27-3.54-.34-2.34-1.04-1.44-3.02-3.84-4.35-1.57-.87-2.6-.37-3.74-1.53-.9-.92-.73-1.72-1.53-1.95-.98-.28-2,.7-3.75,1.64,0,0-3.07,1.65-6.77,1.89-2.82,.19-2.57-.89-6.39-1.34-4.25-.5-5.36,.73-9.1-.2-1.36-.34-2.53-.83-3.76-1.35-2.22-.94-3.34-1.4-3.94-2.13-1.28-1.56,0-2.48-1.27-4.97-.87-1.7-2.56-3.4-2.56-3.4h0s.65-2.39,.34-4.18c-.34-1.97-1.83-3.15-2.35-3.57-1.71-1.36-2.5-.72-5.61-2.12-1.22-.55-2.57-1.51-5.29-3.45-.98-.7-1.66-1.22-2.2-2.13-.63-1.08-.58-1.9-.75-2.78-.44-2.28-1.95-2.73-3.98-5.31-1.67-2.11-2.41-4.04-2.97-5.48-.26-.67-1.3-3.46-1.51-7.8-.27-5.74-.5-10.39,2.82-13.64,2.13-2.09,3.62-1.52,6.56-4.52,1.99-2.03,2.08-3.07,4.19-4.54,2.04-1.42,4.08-1.93,5.51-2.29,1.28-.32,2.03-.38,6.38-.65,6.92-.43,7.3-.42,7.99-.2,2.71,.86,2.05,2.26,5.29,3.57,2.69,1.09,3.81,.39,6.03,1.62,.85,.47,1.49,1.01,3.45,3.54,3.86,4.97,4.53,6.95,5.67,6.73,1.1-.21,1.2-2.2,2.86-5.21,1.64-2.97,4.19-5.81,5.88-6.9,8.61-5.56,28.37,12.94,40.92,21.5Z"/><path class="cls-4" d="M260.97,104.15h0l.08-.08s.78-.77,1.65-1.49c3.94-3.24,8.82-4.73,8.82-4.73,1.95-.59,1.95-.33,7.06-1.13,8.57-1.34,9.5-2.22,11.08-1.4,3.24,1.69,3.42,7.54,2.56,10.69-.24,.86-.87,2.67-1.54,5.35-.47,1.88-.39,1.86-.68,2.67-.49,1.34-.88,1.8-.63,2.44,.32,.8,1.26,.8,1.99,1.49,1.43,1.34,.6,3.89,.45,4.34-1.29,3.96-5.99,4.59-5.84,7.31,.04,.66,.32,.58,1.16,2.23,1.26,2.45,2.44,4.74,1.8,6.88-1,3.33-6.02,4.92-7.47,5.38-1.31,.42-1.1,.17-2.97,.7-2.57,.73-5.45,1.56-7.73,3.61-1.6,1.44-1.13,1.88-3.03,3.45-.96,.79-2.34,1.9-4.43,2.32-1.48,.3-2.65,.13-4.08-.1-.72-.11-1.8-.33-7.23-2.36-2.34-.87-3.2-1.23-4.71-1.37-1.75-.17-1.98,.18-2.87-.11-2.75-.92-3.24-5.13-3.36-6.18-.09-.81-.27-2.51,.44-4.51,.52-1.44,1.29-2.45,1.1-2.57-.29-.17-1.63,2.28-4.67,3.39-.95,.35-1.98,.45-4.05,.66-2.58,.26-3.16,.02-3.48-.26-.48-.42-.26-.82-.61-1.97-.07-.21-.6-1.88-1.67-2.79-1.28-1.08-2.95-.75-4.35-.98-3.33-.55-5.26-4.31-6.55-7.15-6.97-15.33-10.45-22.99-7.29-26.96,5.01-6.29,22.93-6.45,42.11,2.86"/><g><path class="cls-7" d="M265.47,108.82c-10.32,16.94-23.62,29.18-23.98,28.91"/><polygon class="cls-11" points="245.9 136.42 250.29 134.25 261.3 136.54 275.88 134.16 245.9 136.42"/><polygon class="cls-11" points="242.59 134.51 239.53 131.16 238.84 122.57 233.04 111.33 242.59 134.51"/><path class="cls-11" d="M243.63,131.13c-.06,0-2.99-6.79-.95-13.2,3.32-10.41,17.63-13.09,17.59-13.15-.04-.06-13.55,2.28-17.2,12.19-2.49,6.74,.62,14.15,.56,14.15Z"/><path class="cls-11" d="M247.53,133.24c.02,.06,7.57,.38,13.03-3.7,8.86-6.64,6.48-20.66,6.55-20.65,.07,.01,2.5,13.18-5.77,19.96-5.62,4.61-13.83,4.33-13.81,4.39Z"/><polyline class="cls-11" points="240.06 136.01 235.9 138.1 230.67 136.3 242.17 136.15"/><polyline class="cls-11" points="246.79 139.95 250.26 142.54 250.91 146.59 246.03 138.43"/></g><g><polygon class="cls-9" points="265.31 56.6 268.57 51.38 283.11 47.18 297.91 35.39 265.31 56.6"/><polygon class="cls-9" points="259.93 56.46 253.66 54.51 245.77 45.07 229.84 35.75 259.93 56.46"/><path class="cls-9" d="M258.34,51.93c-.07,.04-9.04-5.95-11.97-14.58-4.77-14.02,9.47-25.99,9.38-26.03-.09-.04-13.69,11.03-9.72,24.69,2.7,9.29,12.38,15.88,12.31,15.92Z"/><path class="cls-9" d="M264.56,51.93c.07,.05,9.02-4.26,11.92-12.34,4.71-13.14-9.58-27.77-9.49-27.8,.09-.03,13.74,13.6,9.82,26.52-2.66,8.79-12.33,13.57-12.25,13.62Z"/><polyline class="cls-9" points="258.27 59.76 255.21 64.74 247.71 65.92 260.8 58.61"/><polyline class="cls-9" points="269.24 60.11 275.37 60.93 279.46 65.18 267.12 58.83"/></g><g><path class="cls-9" d="M270.1,149.98c.07-.02,3.58,3.94,4.25,9.63,1.18,10-6.5,18.37-13.77,23.29-.71,.48-1.12,.73-1.11,.74,.45,.32,15.17-10.7,14.92-22.66-.13-6.11-4.36-10.97-4.29-11Z"/><path class="cls-9" d="M246.83,150.33s-1.22,1.66-1.56,2.15c-5.4,8.02-.24,22.51,2.58,27.62,.44,.79,.71,1.23,.69,1.23-.38,.04-9.39-18.87-3.87-27.65,.4-.64,2.2-3.33,2.16-3.35Z"/><polyline class="cls-9" points="267.54 135.66 271.63 131.27 279.25 131.34 264.81 136.38"/></g><path class="cls-6" d="M225.44,109.24c-2.21-3.89-5.74-5.61-5.55-5.82,.24-.25,5.63,2.23,10.46,6.36,.78,.66,1.86,1.39,3.43,2.32,1.69,1,4.48,1.77,6.73,1.05,2.23-.7,2.35-2.35,4.41-2.53,1.3-.11,1.72,.5,3.21,.8,2.27,.46,4.23-.38,7.16-1.67,4.07-1.79,6.1-2.68,7.47-4.78,.23-.35,2.27-3.59,.93-7.25-.4-1.1-1.29-1.35-1.16-2.1,.26-1.5,3.34-1.19,5.06-3.23,.8-.94,.49-1.42,1.2-5.81,.49-2.97,.58-2.49,.78-4.11,.33-2.72,.68-5.55-.73-8.57-.73-1.56-1.75-2.8-2.25-3.4-1-1.2-1.64-1.66-2.91-2.89-1.57-1.53-2.57-2.76-3.75-4.21-2.41-2.96-2.11-3.28-4.28-6.08-1.91-2.45-3.67-4.17-5.09-5.54-1.43-1.39-3.15-3.05-5.73-4.95-1.32-.97-4.28-2.49-10.21-5.54-1.35-.7-2.85-1.44-4.22-.98-1.48,.49-1.93,2.09-2.6,1.96-.64-.13-.14-1.58-1.2-2.78-1.29-1.45-3.94-1.44-4.97-1.44-1.26,0-1.91,0-2.52,.4-1.55,1.01-.49,3.06-1.94,3.95-.96,.59-2.61,.41-3.37-.28-.87-.8,0-1.8-.77-2.95-.26-.4-.88-1.05-4-1.71-2.86-.61-4.09-.44-5.99-.72-3.14-.47-3.03-1.42-6.52-2.46-6.21-1.84-8.39,.65-12.56-1.55-1.02-.54-2.37-1.46-4.24-1.34-1.17,.08-2.05,.53-2.81,.99-5,2.96-8.26,7.54-8.63,8.07-.69,.98-1.2,1.83-2.33,3-1.75,1.8-2.22,1.52-3.03,2.64-1.24,1.73-.28,2.63-1.46,5.9-.32,.88-.64,1.78-1.39,2.83-1.42,1.98-2.49,1.9-3.98,3.68-1.58,1.89-1.94,3.86-2.08,4.62-.13,.75,0,.58,.23,4.67,.2,3.47,.14,4,.64,5.03,.69,1.4,1.4,1.65,1.28,2.47-.18,1.2-1.82,1.53-3.49,2.86-1.62,1.29-1.1,2.04-2.97,4.3-.63,.76-.78,.82-2.46,2.47-3.25,3.2-4.89,4.82-5.34,6.33-.44,1.46-.2,2.63,.1,4.15,.71,3.51,2.82,6.01,3.34,6.6,1.72,1.96,2.62,1.97,3.22,3.55,.5,1.31,0,1.63,.61,3.8,.58,2.04,1.38,3.05,1.6,3.31,.65,.78,1.23,1.15,2.02,1.73,2.72,1.99,2.49,2.5,4.85,4.31,2.83,2.17,3.29,1.54,5.05,3.27,1.81,1.78,2.58,3.67,2.83,4.35,.88,2.42,.03,2.8,.83,4.34,.75,1.44,2.81,2.48,6.9,4.48,2.84,1.39,4.29,2.1,5.88,2.38,2.02,.36,2.61,.03,5.28,.52,2.51,.46,2.47,.84,4.5,1.11,2.85,.37,5.17-.09,5.63-.18,2.7-.56,2.8-1.34,4.48-1.27,1.6,.07,1.68,.79,4.68,1.8,1.92,.64,3.53,.9,4.43,1.02,0,0,2.2,.27,4.16,.13,4.84-.37,8.89-4.25,10.22-5.52,1.25-1.2,3.11-4.42,6.77-10.82,2.81-4.91,3.83-6.83,2.8-8.31-.92-1.32-2.59-1.03-4.59-3.13-1.19-1.25-1.11-1.96-2.06-3.63Z"/><path class="cls-6" d="M284.46,119.99c3.6,.84,6.46-.03,6.5,.17,.05,.24-4.22,1.64-9.27,1.96-.81,.05-1.82,.22-3.19,.52-1.48,.33-3.35,1.31-4,2.76-.64,1.43,.36,2.3-.54,3.39-.57,.69-1.17,.59-2.1,1.17-1.41,.88-1.84,2.24-2.46,4.31-.85,2.86-1.27,4.29-.59,5.99,.11,.28,1.2,2.88,4.23,4.03,.91,.34,1.51,.04,1.93,.47,.84,.87-.88,2.21-.41,4.05,.22,.85,.68,.94,3.16,3.45,1.68,1.7,1.32,1.51,2.27,2.41,1.59,1.5,3.25,3.07,5.9,3.87,1.37,.41,2.67,.53,3.31,.58,1.27,.1,1.88,.02,3.3,.01,1.77,0,3.06,.11,4.57,.25,3.1,.29,3.16,.59,6.04,.91,2.53,.28,4.5,.27,6.09,.26,1.6-.01,3.52-.03,6.02-.35,1.27-.16,3.72-.86,8.62-2.24,1.12-.32,2.34-.68,2.71-1.57,.41-.96-.4-1.97,.02-2.23,.4-.25,1.09,.72,2.39,.78,1.57,.08,2.88-1.21,3.38-1.71,.62-.62,.94-.93,.98-1.42,.11-1.25-1.74-1.75-1.6-2.89,.09-.76,1.02-1.47,1.84-1.5,.95-.03,1.16,.89,2.28,1.08,.39,.07,1.11,.09,3.08-1.1,1.81-1.09,2.3-1.77,3.42-2.56,1.85-1.3,2.41-.77,4.81-1.96,4.25-2.11,3.72-4.4,7.2-5.35,.85-.23,2.11-.43,2.96-1.4,.53-.61,.66-1.26,.75-1.86,.55-3.9-.8-7.74-.96-8.18-.3-.82-.59-1.49-.79-2.62-.3-1.74,.11-1.83-.21-2.78-.51-1.46-1.56-1.43-3.09-3.62-.41-.59-.83-1.19-1.14-2.07-.58-1.67,0-2.15-.42-3.75-.44-1.7-1.53-2.85-1.96-3.29-.42-.43-.37-.29-3.13-2.19-2.34-1.62-2.65-1.91-3.57-2.17-1.24-.36-1.76-.13-2.23-.6-.69-.68-.09-1.64-.12-3.11-.03-1.42-.78-1.54-1.32-3.57-.18-.68-.14-.78-.38-2.42-.46-3.16-.71-4.76-1.46-5.72-.73-.94-1.6-1.4-2.73-2-2.62-1.39-5.28-1.59-5.91-1.63-2.11-.13-2.57,.3-3.88-.19-1.09-.41-1.05-.8-2.76-1.57-1.61-.73-2.65-.83-2.93-.85-.82-.07-1.35,.03-2.11,.13-2.63,.34-2.84-.02-5.18,.24-2.8,.31-2.62,.84-4.61,.85-2.05,0-3.64-.55-4.21-.77-2-.76-1.82-1.37-3.22-1.74-1.3-.35-2.99,.15-6.3,1.15-2.3,.7-3.47,1.06-4.44,1.69-1.23,.81-1.3,1.25-2.94,2.31-1.53,.99-1.76,.79-2.93,1.64-1.65,1.2-2.5,2.56-2.66,2.83-.97,1.59-.52,2.02-1.39,2.81-.83,.75-1.34,.43-3.47,1.39-1.36,.62-2.33,1.27-2.84,1.66,0,0-1.26,.93-2.13,1.96-2.15,2.54-1.64,6.43-1.47,7.69,.16,1.2,1.33,3.69,3.65,8.63,1.79,3.79,2.53,5.23,4,5.46,1.31,.2,1.94-.75,4.28-.69,1.4,.04,1.81,.43,3.36,.79Z"/><path class="cls-8" d="M219.89,103.43c-.34,.33-6.31-3.29-11.63-7.46-15.79-12.36-23.04-27.29-22.41-27.63,.49-.27,5.59,8.53,18.45,20.97,8.6,8.32,15.98,13.73,15.59,14.12Z"/><path class="cls-8" d="M261.84,57.52c-.37,.05-1.68-4.48-2.31-9.03-1.89-13.51,2.4-24.85,2.94-24.77,.42,.06-1.65,7.09-1.43,19.41,.15,8.23,1.23,14.34,.8,14.39Z"/><path class="cls-8" d="M324.01,113.79c-19.35,7.67-38.01,7.51-38.12,6.87"/><polygon class="cls-8" points="223.02 102.49 220.55 93.85 229.55 77.24 230.84 51.73 223.02 102.49"/><polygon class="cls-8" points="217.92 106.69 210.09 109.53 192.93 105.1 168.48 107.33 217.92 106.69"/><path class="cls-8" d="M211.7,102.78c-.03,.1-14.57,.5-26.31-7.01-19.08-12.22-18.5-37.49-18.63-37.47-.13,.02-1.05,23.76,16.92,36.21,12.22,8.46,28.05,8.17,28.02,8.28Z"/><path class="cls-8" d="M217.44,97.74c.12,0,3.84-12.2-1.95-23.82-9.42-18.89-37.93-24.08-37.87-24.19,.06-.1,26.91,4.46,36.84,22.46,6.75,12.24,2.85,25.55,2.98,25.55Z"/><polyline class="cls-8" points="219.84 111.82 222.24 120.01 216.56 127.45 220.96 108.45"/><polyline class="cls-8" points="230.32 103.32 236.82 99.3 245.05 100.86 227.02 103.58"/><polygon class="cls-8" points="288.17 122.97 294.62 124.86 302.11 135.17 318.11 144.92 288.17 122.97"/><polygon class="cls-8" points="287.28 118.99 288.25 114.18 297.24 107.43 304.54 94.76 287.28 118.99"/><path class="cls-8" d="M292.03,117.38c-.06-.05,4.88-7.25,13.93-10.27,14.7-4.9,30.79,4.42,30.82,4.34,.03-.07-14.94-9-29.39-4.72-9.83,2.91-15.29,10.7-15.35,10.65Z"/><path class="cls-8" d="M293.22,121.96c-.04,.06,6.5,6.23,16.06,7.57,15.55,2.17,29.09-9.81,29.13-9.75,.05,.06-12.49,11.47-27.65,9.87-10.3-1.09-17.5-7.75-17.55-7.69Z"/><polyline class="cls-8" points="283.29 118.1 277.15 116.33 274.38 110.92 285.06 119.85"/><polyline class="cls-8" points="285.02 126.22 285.29 130.82 281.35 134.26 286.04 124.53"/><path class="cls-5" d="M237.04,109.16c-1.31-.13-3.38-.36-5.68-1.43-3.59-1.68-4.96-4.14-7.9-8.1-4.02-5.41-4.31-4.67-7.27-8.76-7.22-9.95-4.28-12.67-9.41-18.09-4.39-4.65-6.25-2.34-18.56-9.89-12.01-7.37-13.31-11.46-13.63-13.56-.09-.62-.59-4.36,1.99-7.75,4.74-6.23,16.99-7.53,23.03-3.62,5.35,3.46,2.77,9.02,8.99,12.47,4.53,2.52,9.83,1.76,11.4,1.53,5.32-.77,10.94-3.73,10.55-5.43-.23-.99-2.47-1.61-2.8-1.26-.51,.54,2.57,4.34,6.93,6.55,4.58,2.31,6.38,.76,8.63,2.89,2.31,2.2,1.06,4.46,4.44,8.72,.81,1.03,1.59,1.79,2,2.17,3.41,3.19,5.43,2.9,7.53,5.4,1.08,1.29,1.49,2.5,2.18,4.55,.52,1.54,1.05,3.15,.92,5.31-.04,.74-.15,2.38-1.07,4.25-1.29,2.61-2.68,2.65-3.29,4.3-1.33,3.61,3.48,8.53,4.08,8.28,.37-.15-.2-2.55-1.02-2.64-1.16-.13-1.28,4.62-4.79,8.48-4.15,4.55-11.54,6.21-17.25,5.64Z"/><path class="cls-5" d="M283.24,129.11c.53-.53,1.37-1.37,2.78-2.01,2.21-1.01,4.12-.77,7.45-.71,4.55,.08,4.21-.3,7.62-.21,8.31,.22,8.89,2.45,13.82,2.05,4.23-.35,3.51-1.96,12.15-4.8,8.43-2.77,11.27-1.95,12.61-1.37,.39,.17,2.75,1.23,3.86,3.53,2.03,4.22-1.41,10.07-5.77,11.4-3.86,1.17-6.23-1.87-10.39-.31-3.03,1.14-4.39,3.73-4.8,4.51-1.37,2.61-1.56,6.1-.43,6.51,.65,.24,1.79-.54,1.7-.8-.14-.41-3.42-.35-6.21,.81-2.92,1.23-2.63,2.56-4.65,2.82-2.08,.27-2.97-1.06-6.63-1.03-.88,0-1.59,.09-1.96,.14-3.03,.41-3.56,1.4-5.74,1.47-1.13,.03-1.97-.2-3.41-.6-1.08-.3-2.21-.62-3.43-1.41-.42-.27-1.34-.88-2.12-1.93-1.09-1.46-.63-2.09-1.39-2.92-1.66-1.82-6.19-1.39-6.25-1.04-.04,.22,1.57,.79,1.9,.46,.47-.47-2.27-2.15-3.32-5.02-1.25-3.39,.31-7.22,2.61-9.54Z"/><path class="cls-13" d="M235.9,138.1c.67-.12-.08-2.31,.8-5.23,1.63-5.38,8.07-10.73,12.1-9.61,3.74,1.04,5.5,7.7,3.99,12.64-1.33,4.36-4.79,6.04-3.94,7.24,1.15,1.63,8.95,.66,13.66-3.5,3.51-3.09,4.28-7.02,4.54-8.32,.93-4.74-1.28-5.82-.24-11.75,.45-2.57,1.07-3.53,.51-5.34-.71-2.28-2.96-4.89-5.96-5.23-2.59-.3-4.65,1.21-7.25,3.12-2.98,2.19-3.44,3.59-7.82,7.06-1.4,1.11-2.57,1.93-4.27,2.16-1.8,.25-2.4-.42-3.81,.02-1.52,.47-2.28,1.69-3.45,3.55-.8,1.27-1.58,2.52-1.93,4.12-1,4.55,2.06,9.25,3.07,9.07Z"/><path class="cls-16" d="M165.49,73.83c-.71-.41-4,4.02-10.74,9.5-3.25,2.65-3.89,2.76-4.58,4.1-2.64,5.16,2.57,11.64,1.8,11.96-.42,.18-2.2-1.63-1.77-2.18,.65-.83,5.57,2.08,13.85,3.62,3.7,.69,9.08,1.69,10.41-.15,1.16-1.6-1.2-4.69-1.78-5.44-1.61-2.1-2.54-1.84-4.9-4.19-1.29-1.29-3.57-3.61-4.13-6.95-.23-1.34-.09-2.38,.07-3.63,.54-4.28,2.27-6.35,1.77-6.63Z"/><path class="cls-16" d="M330.65,106.93c.62-.24-1.39-4.01-2.74-10.21-.65-3-.47-3.41-1.21-4.38-2.84-3.71-10.01-3.43-9.93-4.02,.04-.32,2.18-.58,2.42-.1,.36,.72-3.95,2.34-8.63,6.47-2.09,1.85-5.13,4.53-4.28,6.08,.74,1.35,4.1,1.29,4.93,1.27,2.29-.04,2.48-.69,5.28-1.06,1.53-.2,4.28-.54,7.07,.55,1.12,.44,1.86,.95,2.76,1.57,3.05,2.12,3.91,3.99,4.34,3.83Z"/></g></g></g></g></g></svg>