<?xml version="1.0" encoding="UTF-8"?><svg id="Calque_2" xmlns="http://www.w3.org/2000/svg" viewBox="0 0 35.01 152.58"><defs><style>.cls-1{fill:#272230;}</style></defs><g id="Calque_9"><g><g id="ihayjt"><g><path class="cls-1" d="M14.65,150.99c-3.29-.99-5.09-3.93-6.83-6.96-.04-1.32,.8-2.08,1.4-3,.23-.43,.44-1.17,.74-1.19,4.5-.38,2.66-4.56,3.13-7.2,.34-1.92,.07-3.98,.99-5.79,.1-.2,.67-.38,.27-.59-3.9-2.01-.61-3.01,.37-4.5,1.07-1.64,.4-8.63-.71-10.43-.92-1.49-2.82-2.75-1.26-5.09,.67-.26,1.17,.1,1.65,.58,1.1,1.78,2.35,3.3,4.47,3.14,.41-.18-.08,0,.33-.02,1.7-.11,2.8-3.31,4.88-1.28,1.03,1.01,1.2,6.53,.32,8.77-1.47,3.77-1.2,4.17,2.48,4.81,2.66,.46,5.8,.27,6.28,4.72-.78,9.89-4.63,17.68-11.85,23.15-2.26-.08-4.38,1.21-6.66,.89Z"/><path class="cls-1" d="M12.91,106.3c-.47,1.74,.36,2.8,1.31,4.01,1.73,2.19,3.7,4.5,1.35,7.69-.66,.89,.21,1.26,.37,1.88,.38,1.44,.09,2.83-1.09,3.51-.65,.37-2.03-.27-1.6,1.35,.27,1.03,1.37,.95,2.27,.62,.24-.09,.56,.13,1.14,.29-2.76,2.13-3.25,4.64-2.35,8.09,.28,1.07-1.18,2.82,.42,4.07-1.35,.07,.04,4.39-2.65,2.31-1.96-1.51-1.53,1.32-2.43,1.72-.89,.69-1.42,.19-1.75-.75-.3-.85-.35-1.87,.06-2.57,2.51-4.26,1.86-8.89,1.69-13.65-.21-6.03-.43-6.8-5.52-8.14-.96-.25-1.95-.14-2.87-.54-.41-8.84-.86-17.68-1.23-26.52-.19-4.6,.79-5.51,4.75-4.7,.95,.19,1.92,.29,2.88,.44,2.38,.34,1.98,2.86,2.65,4.54,1.36,4.18,1.81,8.64,2.97,12.88,.32,1.17,.53,2.43-.35,3.48Z"/><path class="cls-1" d="M33.16,126.96c-.96-2.5-2.92-3.58-4.98-3.67-2.16-.1-4.04-.83-6.07-1.82,.66-1.77,1.08-3.75,2.05-5.25,.69-1.07,.84-1.56,.03-2.39-.08-.08-.14-.2-.22-.27-1.48-1.33,1.62-3.61-.72-4.75-1.96-.95-1.98,3.03-3.95,2.11-.19-.09-.43-.04-.64-.05-.19-2.18,1.84-2.99,2.22-4.82,1.34-5.29,2.56-10.61,4.01-15.86,.56-2.02-.74-1.53-1.49-1.88-.29-.14-.55-.33-.78-.58-.32-.85,.02-1.36,.67-1.7l4.57-.62c1.01,2.23,.09,4.41-.27,6.52-.43,2.49-.21,4.37,1.84,5.7,.94,.61,1.62,1.62,2.15,3.23,.64-2.52,1.37-4.6,1.59-6.9,.11-1.19,.25-2.57,1.74-2.65-.49,11.89-.59,23.8-1.74,35.64Z"/><path class="cls-1" d="M1.25,116.18c2.65-2.17,4.99,.12,7.24,1.02,2.44,.98,2.19,4.14,2.01,6.47-.19,2.43-.21,4.6,.69,6.88,.91,2.3-1.02,3.83-1.57,5.75-.5,1.75-2.91,3.74,.03,5.54-.61,.73-1.21,1.47-1.82,2.2-4-5.28-6.05-11.43-6.11-18.46-.54-2.34,.23-4.78-.44-7.11l-.02-2.28Z"/><path class="cls-1" d="M34.9,91.31c-1.69,2.61-1.2,5.95-2.16,8.82-.25,.76,0,1.93-.96,1.91-.63-.01-1.88-.18-1.3-1.73,.27-.71-.2-.85-.53-1.03-4.54-2.34-3.58-6.45-2.59-10.61,.25-1.06,.34-2.18,.5-3.27,.43-.07,.85-.13,1.28-.21,5.75-1.14,6.15-.72,5.76,6.11Z"/><path class="cls-1" d="M10.97,86.17c3.05-1.32,4.14-3.95,3.76-7.56,.22-.35,.52-.56,.89-.63,1.81,.08,1.77,1.6,1.79,3.08,.02,.96-.1,1.9-.39,2.81-.37,1.42-.99,2.69-1.7,3.92-1.76,3.08-1.75,3.09-3.87,.06-.22-.23-.41-.49-.58-.77-.15-.33-.12-.63,.09-.91Z"/><path class="cls-1" d="M18.77,84.47c.14-1.64-.28-3.37,.33-5.05,1.37,.6,.58,2.27,1.51,2.85,.44,1.68,1.71,2.58,2.68,3.76l-.67,1.48c-2.61,2-3.15,1.57-3.84-3.04Z"/><path class="cls-1" d="M14.65,150.99c2.18-.7,4.23-2.64,6.66-.89-2.03,2.15-4.11,3.84-6.66,.89Z"/><path class="cls-1" d="M10.97,86.17c.02,.18,.02,.36-.01,.54,0,1.34-.36,2.47-1.44,3.16-1.12-1.21-.03-3.66-1.87-4.48,1.2-.28,2.23,.42,3.32,.78Z"/><path class="cls-1" d="M1.28,118.46c1.29,2.27,.55,4.72,.44,7.11-.69-2.32-.54-4.72-.44-7.11Z"/><path class="cls-1" d="M9.52,89.87c.2-1.23,.63-2.31,1.44-3.16,.18,.05,.35,.11,.52,.18,1.6,2.69,1.89,5.87,2.58,8.91,.63,2.54,.85,5.29,3.19,6.84,1.08,.72,.69,1.94,.05,2.86-.67,.96-1.53,1.69-2.6,2.01-.31-.03-.6-.15-.86-.34-.3-.29-.61-.58-.91-.87-1.13-5.48-2.26-10.95-3.39-16.43Z"/><path class="cls-1" d="M13.82,107.17h.99c2.04,1.21,3.83,1.39,5.1-1.39,.27-.59,.77-1.35,1.51-.72,.36,.31,.24,.9-.04,1.34-.1,2.15-1.8,2.98-2.73,4.45-2.4,.17-4.13-.85-4.82-3.68Z"/><path class="cls-1" d="M21.38,106.4c-1.14-2.01-1.09,.41-1.22,.6-2.09,3.19-3.14,3.25-5.35,.15,.43-.51,.84-1.07,1.31-1.53,.96-.96,.55-.65-.16-2.02-1.22-2.34-2.68-4.76-2.42-7.79,1.84-.03,1.62,2.45,2.87,3.13,.62,.63,.88,1.74,1.9,1.82q1.04,.98,1.74-1.79c.13-.31,.29-.6,.45-.88,1.02-1.78,1.22-3.81,1.37-5.86,.26-1.65,.33-3.39,1.48-4.65,2.42-.52,2.98,.46,2.2,3.17-1.51,5.18-2.35,10.6-4.18,15.67Z"/><path class="cls-1" d="M23.36,87.57l-.73,5.22c-1.32,1.72-.98,4.15-1.95,6.02h0c-1.55,1.09-2.25,.25-2.56-1.49-.02-.38,.01-.75,.09-1.12,1.54-2.22,.24-4.6,.28-6.91-.04-.34,.03-.66,.2-.94,.03-1.3,.07-2.59,.1-3.89,.83,1.78,.89,4.86,3.84,3.04,.25,.02,.49,.04,.74,.06Z"/><path class="cls-1" d="M18.77,95.82l-.04,.76c-1.02,1.37,.69,3.21-.59,4.54-1.6,1.15-1.23-1.26-2.05-1.52-1.22-4.72-1.47-9.43,.16-14.11,.21-.59,.27-1.19-.05-1.77l.64-2.23c.41-.43,.82-.43,1.23,.01,.27,2.28-.59,4.69,.59,6.86,0,.23,0,.46-.03,.69-.39,2.27,.83,4.5,.13,6.78Z"/><path class="cls-1" d="M16.22,83.71c1.41,2.05-.07,4.07-.21,6.04-.23,3.31,.81,6.56,.1,9.84-1.92-.29-1.18-3-2.56-3.78-1.09-2.85-1.45-5.93-2.06-8.93,1.28,.22,1.37,1.63,1.81,3,.96-2.4,2.76-3.75,2.93-6.18Z"/><path class="cls-1" d="M18.15,101.11c.11-1.53-.47-3.17,.59-4.54-.09,1.6,.46,2.45,1.93,2.24-.1,.72-.25,1.44-.28,2.16-.04,1.15-.05,2.54-1.22,2.64-1.65,.13-.32-1.83-1.02-2.5Z"/><path class="cls-1" d="M20.67,98.82c.04-2.28-.22-4.68,1.95-6.02-.37,2.13-.09,4.54-1.95,6.02Z"/><path class="cls-1" d="M18.77,95.82c-.82-2.24-.93-4.5-.13-6.78,.25,2.25,2.86,4.45,.13,6.78Z"/></g></g><path class="cls-1" d="M8.66,5.97C10.03,2.68,13.03,.38,16.46,.04c4.03-.39,7.98,2,9.65,5.93V81.22H8.66V5.97Z"/></g></g></svg>