<?xml version="1.0" encoding="UTF-8"?><svg id="Calque_2" xmlns="http://www.w3.org/2000/svg" xmlns:xlink="http://www.w3.org/1999/xlink" viewBox="0 0 243.44 561"><defs><style>.cls-1{fill:none;}.cls-2{clip-path:url(#clippath);}.cls-3{fill:#658460;}.cls-4{fill:#8fb171;}.cls-5{fill:#37161a;}.cls-6{fill:#555a4b;}.cls-7{fill:#47593a;}.cls-8{opacity:.5;}</style><clipPath id="clippath"><rect class="cls-1" width="243.44" height="561"/></clipPath></defs><g id="Calque_9"><g><rect class="cls-5" width="243.44" height="561"/><g class="cls-8"><g class="cls-2"><g><g><path class="cls-6" d="M108.39,473.31c-1.39-2.22-3.6-5.66-6.48-9.79-5.69-8.17-7.27-9.38-11.14-15.27-4.3-6.55-6.96-10.6-8.55-16.44-2.31-8.44-.96-15.37-1.36-15.38-.4-.02,.33,8.84-3.35,18-1.66,4.14-4.33,8.61-11.9,16.23-19.16,19.29-30.45,19.23-33.01,29.82-2.41,9.96,5.9,16.96,2.4,19.75-3.64,2.91-12.07-5.2-32.82-12.06-13.92-4.6-17.03-3.35-31.71-9.08-7.16-2.8-13.05-5.09-20.07-9.62-12.36-7.97-15.53-14.65-18.69-13.55-3.71,1.3,.25,10.67-.98,31.84-.52,9.09-1.71,15.25,.39,25.02,1.44,6.73,2.47,10.04,5.61,13.18,9.75,9.72,31.91,7.46,45.67,.34,4.28-2.21,8.34-5.21,8.53-4.98,.43,.51-24.27,10.69-28,28.53-1.42,6.8,.44,13.58-4.21,16.23-4.1,2.34-9.18-.86-9.95,.41-1.35,2.24,12.26,15.32,29.95,16.45,4.39,.28,7.6-.27,9.85-.62,36.23-5.67,52.9,2.88,63.26-7.17,7.92-7.68,5.03-19.9,9.26-20.19,3.54-.24,4.02,8.4,12.82,15.29,9.5,7.43,21.76,7.37,25.24,7.36,3.34-.02,14.5-.22,25.08-7.53,1.63-1.13,2.87-2.18,3.89-3.25,5.67-5.87,8.6-11.24,9.42-12.89,7.02-14.01,29.27-29.4,28.16-30.52-.43-.44-3.46,2.33-9.95,5.36-3.72,1.73-12.92,5.9-24.68,5.63-3.73-.09-7.89-.18-11.15-1.6-10.36-4.51-13.62-23.25-8.86-45.71"/><path class="cls-4" d="M72.17,532.57c8.66,1.99,9.29,7.08,17.92,10.49,1.81,.71,8.63,3.31,16.91,1.59,6.85-1.42,10.99-5.16,14.7-8.5,2.68-2.41,6-6.6,8.41-13.08,4.22-11.37,2-21.13,.19-32.66-4.64-29.49-3.2-49.66-5.88-49.71-.75-.01-.46,1.56-2.7,4.74-3.51,4.99-9.19,8.1-16.71,12.4-.23,.13-.39,.21-4.53,2.57-1.82,1.04-4.46,2.54-8.42,4.78-16.97,9.6-16.62,9.24-17.91,10.23-3.91,3.02-9.91,7.66-13.34,15.76-1.16,2.73-5.39,12.73-.91,22.09,3.17,6.63,9.42,10.22,7.77,13.08-1.04,1.79-4.14,1.95-4.42,1.96-5.13,.17-8.93-5.61-11.33-9.26-2.1-3.2-3.95-6.05-4.29-10-.43-4.86,1.92-6.92,5.49-14.59,3.81-8.17,6.33-13.58,5.66-19.81-.84-7.79-6.29-13.17-7.89-14.75-5.48-5.42-11.81-7.84-25.94-11.37-17.82-4.45-32.69-6.93-51.63-9.19-21.07-2.51-26.44-2.27-27.16-.51-1.04,2.53,9.25,4.94,16.77,14.94,7.76,10.3,7.84,22.37,7.88,28.28,.09,12.19-3.73,13.06-2.08,21.54,.32,1.64,3.49,15.7,17.78,23.31,1.26,.67,12.39,6.41,24.14,3.3,3.42-.9,6.36-2.68,12.24-6.24,12.1-7.31,13.4-10.81,17.73-10.36,3.59,.38,6.61,3.97,12.66,11.14,2.71,3.21,4.96,5.92,4.16,6.87-.83,.99-4.77-1.87-12.49-3.85-2.06-.53-6.24-1.59-10.68-1.57-3.18,.02-8.15,.59-16.13,4.84-4.91,2.61-12.26,7.3-20.94,16.98-2.34,2.61-3.78,4.56-6.21,7.81-13.79,18.5-14.16,25.33-23.64,30.39-5.79,3.09-10.32,3.06-10.22,3.98,.14,1.4,18.7-.77,42.92,.7,14.28,.87,21.55,2.78,36.36,1.47,6.51-.58,12.55-1.15,20.11-3.71,7.79-2.63,14.45-4.89,18.75-11.09,4.05-5.83,4.86-13.5,2.6-19.59-.74-2-3.94-6.31-10.32-14.91-4.32-5.82-6.28-8.24-5.25-9.83,1.63-2.52,9.46-.79,9.87-.69Z"/><path class="cls-3" d="M122.38,445.39c.21,.23-1.71,1.97-4.03,4.13-14.44,13.42-12.15,12.85-17.05,16.47-7.21,5.33-10.81,6.16-16.49,12.26-.95,1.02-1.82,2.21-2.69,3.73-5.39,9.47-2.78,19.46-2.41,20.81,.55,1.99,1.63,5.72,4.76,9.54,7.06,8.63,16.53,7.88,17.22,12.72,.56,3.88-5.01,7.96-9.15,9.57-.98,.38-5.23,1.96-10.21,.8-1.15-.27-6.88-1.59-9.54-5.71-.69-1.06-1.56-2.91-2.81-2.88-.58,.01-.74,.41-1.64,.86-1.99,.99-4.23,.6-4.25,.43-.02-.15,1.81-.05,2.95-1.24,.16-.16,.66-.7,.75-1.51,.03-.27,.02-.68-.23-1.29-.51-1.25-1.53-2.01-1.68-2.12-1.88-1.42-6.61-7.8-7.9-12.01-2.03-6.65-.47-12.35,.41-15.44,.47-1.64,2.24-7.31,7.43-13.25,2.46-2.81,5.2-5.13,15.02-11.02,8.85-5.31,18.19-10,24.41-13.82,9.99-6.15,16.74-11.45,17.13-11.03Z"/><path class="cls-3" d="M64.77,531.7c.78-1.21,.1-3.45-1.1-3.79-1.69-.48-3.15,3.21-6.56,3.29-1.15,.03-1.98-.37-2.77-.73,0,0-1.09-.49-10.75-3.53-5.07-1.59-9.67-1.13-12.62-.83-11.18,1.14-18.64,7.86-20.54,9.68C-.02,545.82,.59,558.36,.72,561.09c.25,5.21,.67,13.81,7.61,18.08,7.52,4.62,17.63,1.02,18.39,.74,8.19-3.04,7.57-8.25,18.23-13.44,4.65-2.26,8.5-4.14,13.03-3.27,5.79,1.11,7.55,5.7,12.68,5.54,2.68-.09,6.36-1.48,7.75-4.02,4.79-8.75-18.62-29.25-15.7-31.85,.46-.41,1.48-.28,2.04-1.15Z"/><path class="cls-3" d="M50.84,500.12c1.5-2.22,8.79-12.98,8.44-23.03-.4-11.48-10.7-19.26-11.44-19.8-3.23-2.37-6.45-3.68-10.76-5.3-1.64-.62-4.73-1.73-15.4-4.24-11.7-2.75-19.84-4.21-21.76-4.55-3.64-.64-6.09-1.02-10.87-1.76-15.48-2.38-22.47-3.03-27.7-3.37-8.92-.58-14.54-.91-15.17,.78-.71,1.91,5.36,5.31,9.56,7.72,21.02,12.11,36.38,20.96,45.93,33.35,3.36,4.36,12.37,16.06,8,24.54-2.62,5.09-8.31,5.6-11.76,13.12-.21,.46-4.3,9.61-.14,13.05,2.69,2.22,7.5,.97,11.78-.15,6.92-1.8,12.33-5.54,18.97-10.12,4.64-3.2,4.79-3.72,6.54-4.08,6.06-1.24,13.95,3.01,18.24,8.47,3.05,3.88,3.49,7.35,5.84,7.43,1.98,.07,4.27-2.3,3.85-3.61-.28-.86-1.66-1.05-2.86-1.44-3.34-1.08-5.05-3.58-7.76-7.55-2.33-3.42-5.33-7.82-4.57-12.98,.43-2.9,1.85-4.74,3.05-6.51Z"/></g><g><path class="cls-7" d="M75.4,527.89c.44,.43,8.18-4.24,15.62-11.34,22.25-21.23,26.3-49.41,25.79-49.56-.37-.11-2.54,14.18-14.66,31.85-12.3,17.92-27.37,28.44-26.75,29.06Z"/><path class="cls-7" d="M-5.3,584.61c.21,.55,9.36-.94,19.28-4.78,29.67-11.46,45.67-35.87,45.26-36.2-.29-.23-8.5,12.1-27.33,23.95-19.1,12.02-37.52,16.23-37.21,17.03Z"/><path class="cls-7" d="M36.28,501.92c.46-.35-8.66-13-22.83-25.63-22.42-19.98-46.01-29.66-46.36-29.15-.3,.44,16.63,8.29,37.96,25.48,19.59,15.79,30.74,29.67,31.23,29.3Z"/></g></g><g><g><path class="cls-6" d="M136.3,3.55c1.39-2.22,3.6-5.66,6.48-9.79,5.69-8.17,7.27-9.38,11.14-15.27,4.3-6.55,6.96-10.6,8.55-16.44,2.31-8.44,.96-15.37,1.36-15.38,.4-.02-.33,8.84,3.35,18,1.66,4.14,4.33,8.61,11.9,16.23C198.25,.19,209.54,.13,212.1,10.71c2.41,9.96-5.9,16.96-2.4,19.75,3.64,2.91,12.07-5.2,32.82-12.06,13.92-4.6,17.03-3.35,31.71-9.08,7.16-2.8,13.05-5.09,20.07-9.62,12.36-7.97,15.53-14.65,18.69-13.55,3.71,1.3-.25,10.67,.98,31.84,.52,9.09,1.71,15.25-.39,25.02-1.44,6.73-2.47,10.04-5.61,13.18-9.75,9.72-31.91,7.46-45.67,.34-4.28-2.21-8.34-5.21-8.53-4.98-.43,.51,24.27,10.69,28,28.53,1.42,6.8-.44,13.58,4.21,16.23,4.1,2.34,9.18-.86,9.95,.41,1.35,2.24-12.26,15.32-29.95,16.45-4.39,.28-7.6-.27-9.85-.62-36.23-5.67-52.9,2.88-63.26-7.17-7.92-7.68-5.03-19.9-9.26-20.19-3.54-.24-4.02,8.4-12.82,15.29-9.5,7.43-21.76,7.37-25.24,7.36-3.34-.02-14.5-.22-25.08-7.53-1.63-1.13-2.87-2.18-3.89-3.25-5.67-5.87-8.6-11.24-9.42-12.89-7.02-14.01-29.27-29.4-28.16-30.52,.43-.44,3.46,2.33,9.95,5.36,3.72,1.73,12.92,5.9,24.68,5.63,3.73-.09,7.89-.18,11.15-1.6,10.36-4.51,13.62-23.25,8.86-45.71"/><path class="cls-4" d="M172.52,62.81c-8.66,1.99-9.29,7.08-17.92,10.49-1.81,.71-8.63,3.31-16.91,1.59-6.85-1.42-10.99-5.16-14.7-8.5-2.68-2.41-6-6.6-8.41-13.08-4.22-11.37-2-21.13-.19-32.66,4.64-29.49,3.2-49.66,5.88-49.71,.75-.01,.46,1.56,2.7,4.74,3.51,4.99,9.19,8.1,16.71,12.4,.23,.13,.39,.21,4.53,2.57,1.82,1.04,4.46,2.54,8.42,4.78,16.97,9.6,16.62,9.24,17.91,10.23,3.91,3.02,9.91,7.66,13.34,15.76,1.16,2.73,5.39,12.73,.91,22.09-3.17,6.63-9.42,10.22-7.77,13.08,1.04,1.79,4.14,1.95,4.42,1.96,5.13,.17,8.93-5.61,11.33-9.26,2.1-3.2,3.95-6.05,4.29-10,.43-4.86-1.92-6.92-5.49-14.59-3.81-8.17-6.33-13.58-5.66-19.81,.84-7.79,6.29-13.17,7.89-14.75,5.48-5.42,11.81-7.84,25.94-11.37,17.82-4.45,32.69-6.93,51.63-9.19,21.07-2.51,26.44-2.27,27.16-.51,1.04,2.53-9.25,4.94-16.77,14.94-7.76,10.3-7.84,22.37-7.88,28.28-.09,12.19,3.73,13.06,2.08,21.54-.32,1.64-3.49,15.7-17.78,23.31-1.26,.67-12.39,6.41-24.14,3.3-3.42-.9-6.36-2.68-12.24-6.24-12.1-7.31-13.4-10.81-17.73-10.36-3.59,.38-6.61,3.97-12.66,11.14-2.71,3.21-4.96,5.92-4.16,6.87,.83,.99,4.77-1.87,12.49-3.85,2.06-.53,6.24-1.59,10.68-1.57,3.18,.02,8.15,.59,16.13,4.84,4.91,2.61,12.26,7.3,20.94,16.98,2.34,2.61,3.78,4.56,6.21,7.81,13.79,18.5,14.16,25.33,23.64,30.39,5.79,3.09,10.32,3.06,10.22,3.98-.14,1.4-18.7-.77-42.92,.7-14.28,.87-21.55,2.78-36.36,1.47-6.51-.58-12.55-1.15-20.11-3.71-7.79-2.63-14.45-4.89-18.75-11.09-4.05-5.83-4.86-13.5-2.6-19.59,.74-2,3.94-6.31,10.32-14.91,4.32-5.82,6.28-8.24,5.25-9.83-1.63-2.52-9.46-.79-9.87-.69Z"/><path class="cls-3" d="M122.31-24.37c-.21,.23,1.71,1.97,4.03,4.13,14.44,13.42,12.15,12.85,17.05,16.47,7.21,5.33,10.81,6.16,16.49,12.26,.95,1.02,1.82,2.21,2.69,3.73,5.39,9.47,2.78,19.46,2.41,20.81-.55,1.99-1.63,5.72-4.76,9.54-7.06,8.63-16.53,7.88-17.22,12.72-.56,3.88,5.01,7.96,9.15,9.57,.98,.38,5.23,1.96,10.21,.8,1.15-.27,6.88-1.59,9.54-5.71,.69-1.06,1.56-2.91,2.81-2.88,.58,.01,.74,.41,1.64,.86,1.99,.99,4.23,.6,4.25,.43,.02-.15-1.81-.05-2.95-1.24-.16-.16-.66-.7-.75-1.51-.03-.27-.02-.68,.23-1.29,.51-1.25,1.53-2.01,1.68-2.12,1.88-1.42,6.61-7.8,7.9-12.01,2.03-6.65,.47-12.35-.41-15.44-.47-1.64-2.24-7.31-7.43-13.25-2.46-2.81-5.2-5.13-15.02-11.02-8.85-5.31-18.19-10-24.41-13.82-9.99-6.15-16.74-11.45-17.13-11.03Z"/><path class="cls-3" d="M179.92,61.94c-.78-1.21-.1-3.45,1.1-3.79,1.69-.48,3.15,3.21,6.56,3.29,1.15,.03,1.98-.37,2.77-.73,0,0,1.09-.49,10.75-3.53,5.07-1.59,9.67-1.13,12.62-.83,11.18,1.14,18.64,7.86,20.54,9.68,10.45,10.02,9.84,22.56,9.71,25.29-.25,5.21-.67,13.81-7.61,18.08-7.52,4.62-17.63,1.02-18.39,.74-8.19-3.04-7.57-8.25-18.23-13.44-4.65-2.26-8.5-4.14-13.03-3.27-5.79,1.11-7.55,5.7-12.68,5.54-2.68-.09-6.36-1.48-7.75-4.02-4.79-8.75,18.62-29.25,15.7-31.85-.46-.41-1.48-.28-2.04-1.15Z"/><path class="cls-3" d="M193.85,30.36c-1.5-2.22-8.79-12.98-8.44-23.03,.4-11.48,10.7-19.26,11.44-19.8,3.23-2.37,6.45-3.68,10.76-5.3,1.64-.62,4.73-1.73,15.4-4.24,11.7-2.75,19.84-4.21,21.76-4.55,3.64-.64,6.09-1.02,10.87-1.76,15.48-2.38,22.47-3.03,27.7-3.37,8.92-.58,14.54-.91,15.17,.78,.71,1.91-5.36,5.31-9.56,7.72-21.02,12.11-36.38,20.96-45.93,33.35-3.36,4.36-12.37,16.06-8,24.54,2.62,5.09,8.31,5.6,11.76,13.12,.21,.46,4.3,9.61,.14,13.05-2.69,2.22-7.5,.97-11.78-.15-6.92-1.8-12.33-5.54-18.97-10.12-4.64-3.2-4.79-3.72-6.54-4.08-6.06-1.24-13.95,3.01-18.24,8.47-3.05,3.88-3.49,7.35-5.84,7.43-1.98,.07-4.27-2.3-3.85-3.61,.28-.86,1.66-1.05,2.86-1.44,3.34-1.08,5.05-3.58,7.76-7.55,2.33-3.42,5.33-7.82,4.57-12.98-.43-2.9-1.85-4.74-3.05-6.51Z"/></g><g><path class="cls-7" d="M169.29,58.13c-.44,.43-8.18-4.24-15.62-11.34C131.42,25.56,127.37-2.62,127.89-2.77c.37-.11,2.54,14.18,14.66,31.85,12.3,17.92,27.37,28.44,26.75,29.06Z"/><path class="cls-7" d="M249.99,114.85c-.21,.55-9.36-.94-19.28-4.78-29.67-11.46-45.67-35.87-45.26-36.2,.29-.23,8.5,12.1,27.33,23.95,19.1,12.02,37.52,16.23,37.21,17.03Z"/><path class="cls-7" d="M208.41,32.16c-.46-.35,8.66-13,22.83-25.63,22.42-19.98,46.01-29.66,46.36-29.15,.3,.44-16.63,8.29-37.96,25.48-19.59,15.79-30.74,29.67-31.23,29.3Z"/></g></g></g></g></g></g></svg>