<?xml version="1.0" encoding="UTF-8"?><svg id="Calque_2" xmlns="http://www.w3.org/2000/svg" viewBox="0 0 126.5 128.09"><defs><style>.cls-1{fill:#fff;}.cls-2{fill:#87953c;}</style></defs><g id="Section_Nav"><g><path class="cls-1" d="M123.56,44.29c.95,1.13,1.94,2.22,2.94,3.27v-.52c-.91-.97-1.81-1.95-2.67-2.98-12.63-15.06-17.12-32.98-12.03-44.06h-.39c-5.03,11.22-.51,29.2,12.15,44.29Z"/><path class="cls-1" d="M0,62.37v1.06c24.59,3.65,43.25,13.38,47.5,25.32,.33-.11,.67-.2,1.01-.28-4.41-12.33-23.46-22.38-48.5-26.1Z"/><path d="M39.66,109.38l.6-.15-.02-.03-.27,.07c-1.85-7.43-7.17-12.45-13.31-12.65,.27,.27,.45,.55,.45,.83,0,.17-.05,.34-.15,.5l-.13,.16c-.7-.43-1.46-.66-2.27-.66-3.21,0-5.82,3.79-5.82,8.46,0,3.43,1.41,6.38,3.42,7.71,0,0,13.51,6.44,15.63,14.47h8.48c-2.62-5.48-4.85-11.75-6.6-18.71Z"/><path d="M105.57,128.09h1.23c.23-1.61,.54-3.23,.93-4.84-.68,1.67-1.4,3.28-2.16,4.84Z"/><path d="M113.21,120.12c.39-2.92,1.11-5.88,2.11-8.83-.32,0-.64,0-.98-.01-2.01,4.78-3.31,9.65-3.82,14.44-.08,.8-.14,1.58-.18,2.36h2.66c-.23-2.5-.18-5.16,.2-7.96Z"/><path d="M26.27,95.53c5.18,0,9.83,3.16,12.64,8.23-.19-.88-.29-1.79-.29-2.73,0-5.72,3.72-10.57,8.88-12.28-4.25-11.94-22.91-21.67-47.5-25.32v29.12c12.83,.15,23.36,1.7,26.27,3.75v-.77Z"/><path d="M40.82,108.42s.05-.05,.08-.07c-.07-.1-.13-.21-.2-.31,.04,.13,.08,.26,.12,.39Z"/><path d="M125.83,53.9c-1.05,.84-2.1,1.67-3.17,2.47,1.03,.92,2.08,1.8,3.15,2.64,.35-2.13,.36-3.9,.02-5.11Z"/><path d="M115.45,115.56c.23-1.42,.57-2.85,.97-4.29-.24,.02-.48,.03-.73,.03-1.02,2.97-1.74,5.94-2.13,8.87-.37,2.79-.43,5.44-.19,7.92h2.72c-1.16-3.58-1.39-7.82-.64-12.53Z"/><path d="M123.07,107.52c-.96,2.14-3.31,3.39-6.27,3.7-.41,1.47-.76,2.94-1,4.39-.76,4.7-.51,8.92,.66,12.47h10.05v-29.35c-1.78,.6-4.09,2.8-4.09,2.8,1.16,2.06,1.46,4.18,.65,5.98Z"/><path d="M113.97,111.24c-.44-.04-.87-.07-1.32-.15-.04,0-.06-.03-.1-.05-.85,1.74-1.61,3.49-2.29,5.26-.41,1.26-.84,2.49-1.28,3.7-.83,2.69-1.44,5.39-1.83,8.08h2.85c.04-.79,.09-1.59,.18-2.4,.51-4.79,1.8-9.67,3.8-14.45Z"/><path d="M112.12,109.89s.03-.08,.06-.12c.59-.64,1.33-1.53,1.98-2.49,.25-.44,.5-.88,.77-1.32,.37-.76,.63-1.52,.63-2.21,0-1.17-.61-2.43-1.36-3.54-.57,3.34-1.27,6.57-2.07,9.68Z"/><path d="M111.34,112.76c.29-.63,.59-1.26,.89-1.88-.15-.14-.22-.34-.24-.54-.21,.82-.43,1.63-.66,2.43Z"/><path d="M41.65,.11l.19,.75,.58,.31c-13.57,25.71-13.47,50.21,.26,63.93,9.52,9.52,24.37,12.58,41.83,8.62,8.07-1.83,16.24-5.07,24.19-9.49-4-3.18-7.78-6.85-11.22-10.95-9.66-11.52-15.57-25.02-16.63-38.01-.45-5.51,0-10.65,1.29-15.27H35.11c1.11,.32,2.27,.5,3.46,.5,1.04,0,2.08-.13,3.09-.38Z"/><path d="M122.51,69.37c.27-.61,.53-1.21,.77-1.81-2.85-1.69-5.63-3.65-8.3-5.84-1.67,1.06-3.35,2.07-5.04,3.03,3.64,2.79,7.45,5.17,11.37,7.09,.41-.8,.81-1.62,1.2-2.48Z"/><path d="M81.21,15.24c1.05,12.92,6.93,26.35,16.54,37.81,3.46,4.12,7.26,7.8,11.28,10.99,1.71-.96,3.41-1.96,5.09-3.02-3.18-2.7-6.2-5.73-9-9.06-8.99-10.72-14.56-23.22-15.68-35.2-.58-6.2,.08-11.86,1.86-16.76h-8.79c-1.29,4.6-1.75,9.73-1.31,15.24Z"/><path d="M49.56,127.04c0-1.3,.2-2.55,.55-3.74l-.03-.05c-.34,1.15-.53,2.36-.53,3.61h-.36c0-1.41,.23-2.76,.64-4.03l-7.15-12.39h0c-.41-.38-.78-.8-1.14-1.24-.23,.2-.45,.41-.68,.61,1.75,6.78,4,12.91,6.64,18.27h2.1c-.03-.35-.05-.69-.05-1.05Z"/><path d="M0,21.73c7.04,.12,12.71,5.86,12.71,12.92,0,3.71-1.56,7.06-4.07,9.42L0,59.05v3.31c25.05,3.72,44.1,13.77,48.5,26.1,.98-.24,2-.38,3.05-.38,7.14,0,12.94,5.79,12.94,12.94,0,3.71-1.56,7.06-4.07,9.42h0l-2.31,4.01c1.32-.45,2.73-.7,4.2-.7v.36c-1.58,0-3.08,.3-4.48,.83l-.04,.06c1.46-.57,3.04-.89,4.69-.89,7.14,0,12.94,5.79,12.94,12.94,0,.35-.03,.7-.06,1.05h29.04c4-8.16,7.09-18.04,8.89-29.06-.96-1.17-1.87-1.98-1.87-1.98-1.36-1.65-2.23-4.12-2.23-6.88,0-4.96,4.72-8.52,4.72-8.52,2.18-1.48,4.86-4.97,7.23-9.49-3.98-1.96-7.85-4.37-11.54-7.22-8.17,4.59-16.57,7.94-24.86,9.82-5.06,1.15-9.9,1.71-14.48,1.71-11.55,0-21.33-3.61-28.34-10.62-13.96-13.96-14.23-38.66-.76-64.57-.86,.17-1.73,.28-2.61,.28-2.24,0-4.38-.56-6.35-1.56H0V21.73Z"/><path d="M125.75,59.41c-1.14-.9-2.27-1.84-3.37-2.82-2.33,1.75-4.69,3.39-7.08,4.93,2.61,2.14,5.33,4.05,8.12,5.71,1.13-2.83,1.92-5.51,2.33-7.82Z"/><path d="M100.38,16.75c1.31,10.76,6.58,22.11,14.84,31.96,2.09,2.49,4.32,4.82,6.64,6.94,1.19-.89,2.37-1.81,3.54-2.76-.33-.57-.32-1.27,.05-1.83,.28-.43,.65-.96,1.06-1.52v-1.97c-1-1.05-1.99-2.14-2.94-3.27-12.66-15.09-17.18-33.07-12.15-44.29h-9.13c-2,4.7-2.67,10.39-1.9,16.75Z"/><path d="M89.8,16.73c1.11,11.91,6.65,24.34,15.6,35.01,2.8,3.34,5.84,6.38,9.03,9.08,2.41-1.54,4.79-3.19,7.14-4.95-2.31-2.13-4.53-4.44-6.62-6.93-8.31-9.9-13.6-21.32-14.92-32.15-.77-6.36-.11-12.06,1.87-16.79h-10.21c-1.8,4.88-2.47,10.53-1.89,16.73Z"/><path d="M123.83,44.06c.87,1.03,1.76,2.02,2.67,2.98V0h-14.71c-5.09,11.08-.6,29.01,12.03,44.06Z"/><path class="cls-2" d="M0,28.97v4c.54-.8,.83-1.56,.83-2.29,0-.79-.33-1.35-.83-1.71Z"/><path class="cls-2" d="M12.71,34.66c0-7.07-5.67-12.81-12.71-12.92v6.18c1.16,.42,1.86,1.35,1.86,2.66s-.62,2.52-1.86,3.91v3.75H2.21v.94H0v19.88l8.65-14.98c2.5-2.36,4.07-5.71,4.07-9.42Zm-7.54,4.51h-1.36v-1.47h1.36v1.47Z"/><rect class="cls-1" y="38.23" width="2.21" height=".94"/><path class="cls-1" d="M.83,30.68c0,.73-.29,1.49-.83,2.29v1.51c1.24-1.39,1.86-2.65,1.86-3.91s-.7-2.24-1.86-2.66v1.06c.5,.36,.83,.92,.83,1.71Z"/><rect class="cls-1" x="3.81" y="37.7" width="1.36" height="1.47"/><path class="cls-2" d="M46.9,100.99h.97c.35-.75,.63-1.5,.87-2.26l-1.84,2.26Z"/><path class="cls-2" d="M47.59,98.8l1.62-1.99c.18-.96,.27-1.92,.27-2.88,0-1.86-.35-3.69-.98-5.47-.34,.08-.68,.17-1.01,.28,.6,1.69,.93,3.42,.93,5.18,0,1.63-.28,3.26-.83,4.87Z"/><path class="cls-2" d="M47.4,101.94h-1.23c-1.26,2.21-3.02,4.36-5.27,6.4,.21,.3,.43,.58,.66,.86,2.55-2.3,4.51-4.74,5.85-7.26Z"/><path class="cls-2" d="M40.7,108.03c-.46-1.54-1.06-2.97-1.79-4.27,.33,1.55,.95,2.98,1.79,4.27Z"/><path class="cls-2" d="M46.17,101.94h-.42v-.87l1.85-2.27c.55-1.61,.83-3.24,.83-4.87,0-1.77-.33-3.5-.93-5.18-5.15,1.7-8.88,6.55-8.88,12.28,0,.94,.1,1.85,.29,2.73,.72,1.3,1.33,2.73,1.79,4.27,.07,.1,.13,.21,.2,.31,2.25-2.04,4.02-4.19,5.27-6.4Z"/><path class="cls-2" d="M51.83,94.94l-3.09,3.8c-.24,.76-.52,1.51-.87,2.26h3.96v-6.05Z"/><path class="cls-2" d="M50.08,123.25l.03,.05c1.15-3.81,4.01-6.87,7.69-8.31l.04-.06c-3.72,1.4-6.62,4.48-7.75,8.32Z"/><path class="cls-2" d="M42.69,110.44l7.15,12.39c1.27-3.94,4.36-7.05,8.27-8.38l2.31-4.01h0c2.5-2.36,4.07-5.71,4.07-9.42,0-7.14-5.79-12.94-12.94-12.94-1.05,0-2.07,.14-3.05,.38,.64,1.78,.98,3.6,.98,5.47,0,.96-.1,1.92-.27,2.88l2.63-3.22h.95v7.4h2.2v.95h-2.2v2.96h-.97v-2.96h-4.43c-1.33,2.52-3.29,4.96-5.85,7.26,.36,.43,.73,.85,1.14,1.24h0Zm13.32-7h1.36v1.47h-1.36v-1.47Z"/><path class="cls-1" d="M46.17,101.94h1.23c.17-.32,.33-.63,.47-.95h-.97l1.84-2.26c.2-.64,.36-1.27,.48-1.91l-1.62,1.99c-.36,1.06-.84,2.1-1.43,3.14Z"/><path class="cls-1" d="M45.74,101.07v.87h.42c.59-1.03,1.07-2.08,1.43-3.14l-1.85,2.27Z"/><path class="cls-1" d="M51.83,94.94v6.05h-3.96c-.15,.32-.31,.64-.47,.95h4.43v2.96h.97v-2.96h2.2v-.95h-2.2v-7.4h-.95l-2.63,3.22c-.12,.64-.28,1.28-.48,1.91l3.09-3.8Z"/><rect class="cls-1" x="56.01" y="103.44" width="1.36" height="1.47"/><path class="cls-2" d="M50.11,123.3c-.36,1.18-.55,2.44-.55,3.74,0,.35,.03,.7,.05,1.05h14.4c-.22-1.75-1.59-2.5-2.9-2.5s-2.34,.69-2.67,1.45l-.95-.09,.73-5.98h6.4v.94h-5.56l-.5,3.87c.55-.62,1.67-1.06,2.78-1.06,1.95,0,3.5,1.19,3.7,3.37h10.33c.03-.35,.06-.69,.06-1.05,0-7.14-5.79-12.94-12.94-12.94-1.66,0-3.24,.32-4.69,.89l-6.24,10.81-1.45-2.51Z"/><path class="cls-2" d="M50.11,123.3l1.45,2.51,6.24-10.81c-3.68,1.43-6.54,4.49-7.69,8.31Z"/><path class="cls-1" d="M61.34,124.71c-1.11,0-2.23,.44-2.78,1.06l.5-3.87h5.56v-.94h-6.4l-.73,5.98,.95,.09c.33-.76,1.39-1.45,2.67-1.45s2.68,.75,2.9,2.5h1.03c-.21-2.18-1.76-3.37-3.7-3.37Z"/><path d="M49.2,126.86h.36c0-1.25,.19-2.46,.53-3.61l-.24-.42c-.41,1.27-.64,2.62-.64,4.03Z"/><path d="M62.31,114.1v-.36c-1.47,0-2.88,.25-4.2,.7l-.28,.48c1.4-.53,2.9-.83,4.48-.83Z"/><path d="M49.84,122.83l.24,.42c1.14-3.84,4.03-6.92,7.75-8.32l.28-.48c-3.91,1.33-7,4.45-8.27,8.38Z"/></g></g></svg>