<?xml version="1.0" encoding="UTF-8"?><svg id="Calque_2" xmlns="http://www.w3.org/2000/svg" viewBox="0 0 146.44 128.09"><defs><style>.cls-1{fill:#fff;}.cls-2{fill:#a3a3a3;}.cls-3{fill:#87953c;}</style></defs><g id="Section_Nav"><g><path class="cls-2" d="M131.21,25.66c-37.83,0-68.6,14.37-68.6,32.03,0,.22,.03,.43,.04,.65h-.01c-5.4,4.06-10.41,9.4-14.49,15.41-1.36,2-2.59,4.05-3.7,6.13,.24,.28,.47,.57,.69,.86,1.15-2.18,2.44-4.32,3.86-6.42,3.89-5.73,8.63-10.82,13.74-14.77l.95-.75h0c-.03-.37-.05-.74-.05-1.12,0-17.1,30.31-31,67.58-31,5.24,0,10.33,.28,15.22,.8v-1.03c-4.9-.52-9.99-.8-15.22-.8Z"/><path class="cls-2" d="M65.7,94.61c-1.44-.91-2.96-1.76-4.56-2.54,1.09,.93,2.16,1.72,2.96,2.27,.48,.33,1.06,.41,1.6,.28Z"/><path d="M26.47,97.23h0s-.06-.07-.09-.1c-.92,.15-1.85,.33-2.8,.55-10.94,2.61-18.74,9.21-17.42,14.74,.23,.96,1.27,2.39,1.85,3.14,.2,.25,.1,.61-.19,.74-1.34,.61-2.8,1.64-4.16,3-3.13,3.13-4.51,6.81-3.09,8.22s5.1,.03,8.22-3.09c1.14-1.13,2.3-3.09,2.9-4.17,.21-.38,.7-.52,1.06-.28,1.59,1.05,3.59,1.68,5.78,1.68,1.48,0,2.88-.29,4.13-.81,.27-.11,.57-.15,.86-.1,1.61,.31,7.22,1.35,10.66,1.35,5.85,0,11.17-1.09,15.15-2.88l-.15-.4c-.64-1.11-.99-2.32-.99-3.6,0-5.11,5.63-9.1,12.58-9.25,4.83-.11,8.68,1.26,8.68,1.26,2.69,0,5-1.59,6.07-3.87-2.51-3.27-5.81-6.24-9.79-8.76-.54,.13-1.12,.05-1.6-.28-.8-.55-1.87-1.33-2.96-2.27-.76-.37-1.54-.73-2.34-1.07-.63,.82-1.27,1.63-1.94,2.44-5.81,7.03-12.36,12.93-18.46,16.61l-.53-.88h.02l-.43,.03c-.03-.39-.04-.79-.06-1.18l-2.35,4.07-8.58-14.86Z"/><path d="M69.15,93.85c-.84,0-1.6-.02-2.33,.27,3.62,2.37,6.68,5.1,9.08,8.1,.21-.81,.28-1.68,.16-2.59-.45-3.36-3.52-5.75-6.91-5.78Z"/><path d="M91.21,0h-4.28c1.34,.43,2.75,.74,4.21,.93,.03-.31,.04-.62,.06-.93Z"/><path d="M86.19,16.42c1.58-2.66,2.79-5.5,3.64-8.47-3.53-.5-6.81-1.67-9.72-3.52-.71,3.66-1.99,7.16-3.92,10.41-6.19,10.42-17.87,16.72-32.88,17.76-1.45,.1-2.91,.15-4.39,.15-3.97,0-8.02-.37-12.11-1.07-.21,.72-.38,1.47-.51,2.23,25.36,6.25,49.44,.1,59.89-17.48Z"/><path d="M131.21,26.69c-37.26,0-67.58,13.91-67.58,31,0,.38,.02,.75,.05,1.12l8.95,14.3c.63-.41,1.19-.91,1.67-1.52l4.7-6c3.9,3.08,11.4,5.16,20,5.16,3.78,0,7.34-.4,10.48-1.11,0,0-.5-11.14,8.94-11.37,.17,0,.35,0,.54,.04,2.92,.43,5.89,.49,8.77-.14,4.46-.97,11.12-1.65,18.72-1.81V27.49c-4.9-.52-9.99-.8-15.22-.8Z"/><path d="M71.71,73.6c-.62,.24-2.78,.6-2.78,.6,.97,0,1.92-.21,2.78-.6Z"/><path d="M54.14,15.65c-4.57,7.7-13.74,12.03-25.81,12.21-.24,.47-.48,.95-.68,1.45,2.5,.2,4.97,.26,7.39,.16,13.52-.56,23.9-5.8,29.23-14.77,2.59-4.35,3.82-9.34,3.74-14.7h-11.11c.83,5.8-.07,11.14-2.75,15.65Z"/><path d="M40.24,9.93c1.34,1.04,2.45,2.29,2.45,3.55,0,1.12-.99,2.48-2.09,3.64-1.34,1.42-3.02,2.45-4.8,3.27-3,1.39-5.54,3.9-7.29,7.11,11.85-.22,20.85-4.49,25.33-12.03,2.64-4.45,3.53-9.73,2.69-15.47h-18.65c-1.73,3.34-.73,7.53,2.35,9.93Z"/><path d="M62.9,62.51c-.49-1.66-.16-2.95-.16-2.95-5.11,3.96-9.85,9.04-13.74,14.77-1.42,2.1-2.71,4.24-3.86,6.42,1.51,2.07,2.42,4.61,2.42,7.37,0,3.59-1.51,6.83-3.93,9.11h0l-5.26,9.11c.01,.82,.04,1.64,.1,2.45,5.83-3.64,12.05-9.28,17.6-16,.6-.73,1.18-1.47,1.76-2.2-.06-.02-.11-.05-.16-.07l.38-.95c.15,.06,.28,.13,.43,.19,.04-.06,.09-.12,.13-.18-1.25-1.47-2.18-3.09-2.18-4.65,0-5.58,4.97-10.15,11.32-10.66-.63-.03-3.59-7.49-4.84-11.75Z"/><path d="M90.18,8c-.86,3.01-2.08,5.89-3.69,8.6-7.85,13.21-23.33,20.03-41.28,20.03-6.1,0-12.49-.79-18.96-2.39-.18,1.14-.29,2.32-.29,3.53,0,10.26,6.82,18.57,15.23,18.57,.31,0,.63-.01,.94-.03,0,0,5.92,6.78,5.92,12.4,0,4.45-1.53,8.39-3.9,10.86,.1,.11,.2,.21,.29,.32,1.11-2.08,2.34-4.13,3.7-6.13,4.08-6.02,9.09-11.35,14.49-15.43h.01c0-.2-.04-.42-.04-.63,0-17.66,30.78-32.03,68.6-32.03,5.23,0,10.32,.28,15.22,.8V15.14l-3.27-5.67h0c-2.42-2.28-3.93-5.52-3.93-9.11,0-.12,.01-.24,.02-.36h-20.95c-7.91,5.38-16.47,8.26-24.27,8.26-1.31,0-2.6-.1-3.86-.26Z"/><path d="M102.82,.35c-2.9,.76-5.71,1.14-8.38,1.14-1.02,0-2.01-.07-2.98-.18-.22,2.18-.61,4.31-1.18,6.38,8.53,1.1,18.39-1.65,27.43-7.68h-13.67c-.4,.12-.81,.24-1.21,.35Z"/><path d="M89.93,7.63c.57-2.06,.96-4.19,1.18-6.37-1.81-.23-3.54-.65-5.17-1.26h-5.27c-.09,1.39-.24,2.76-.49,4.1,2.91,1.87,6.21,3.03,9.75,3.53Z"/><path d="M35.05,29.81c-.8,.03-1.61,.05-2.42,.05-1.69,0-3.4-.08-5.13-.22-.22,.55-.41,1.12-.59,1.7,5.56,.95,11.06,1.28,16.37,.91,14.9-1.03,26.48-7.27,32.61-17.59,1.93-3.25,3.21-6.75,3.91-10.42-.8-.53-1.58-1.08-2.32-1.72-.91-.78-1.73-1.63-2.49-2.52h-6.66c.09,5.42-1.17,10.46-3.79,14.87-5.39,9.07-15.87,14.37-29.51,14.94Z"/><path d="M102.73,.02s.04-.01,.05-.02h-11.23c-.02,.32-.04,.65-.07,.97,3.48,.39,7.27,.08,11.24-.96Z"/><path d="M77.71,2.26c.69,.59,1.42,1.13,2.16,1.63,.23-1.28,.38-2.58,.46-3.89h-4.88c.7,.8,1.44,1.56,2.25,2.26Z"/><path d="M62.74,59.56c.52,4.2,2.78,8.18,6.44,11.79l-.25-.09c-.35,.98-.75,1.98-1.19,3,.87,.04,1.2-.05,1.2-.05h-.05c.32-.77,.61-1.53,.89-2.29,.61,.57,1.26,1.13,1.94,1.69,.62-.24,.92-.49,.92-.49-5.33-4.24-8.54-9.11-8.95-14.3h0l-.95,.75Z"/><path d="M72.63,73.11l-8.95-14.3c.41,5.19,3.62,10.06,8.95,14.3Z"/><path d="M68.89,74.21h.05s2.16-.36,2.78-.6c-.68-.55-1.33-1.11-1.94-1.69-.27,.75-.56,1.51-.89,2.29Z"/><path d="M69.17,71.35c-3.66-3.61-5.92-7.59-6.44-11.79,0,0-.32,1.29,.16,2.95,1.25,4.26,4.21,11.72,4.84,11.75,.44-1.01,.84-2.02,1.19-3l.25,.09Z"/><path class="cls-3" d="M44.45,79.88c-1,1.87-1.91,3.76-2.71,5.67-1.58-.17-3.19-.28-4.8-.34,1.94-2.19,4.51-3.65,4.51-3.65,.99-.46,1.9-1.14,2.71-2-2.28-2.43-5.51-3.95-9.11-3.95-6.91,0-12.51,5.6-12.51,12.51,0,3.54,1.48,6.74,3.84,9.01,3.58-.59,6.98-.65,9.9-.23,.43,.06,.75-.37,.56-.76-.62-1.29-1.67-3.67-1.95-5.49v2.48h-.94v-8.86h-2.51v-.63c1.92,0,2.4-.2,2.81-1.54h.63v7.01c.16-1.03,.62-2.01,1.26-2.9,1.74,.05,3.47,.15,5.18,.33-2.92,7.29-4.29,14.68-3.93,21.47l.97-1.67c-.1-8.14,2.28-17.09,6.78-25.59-.22-.3-.45-.59-.69-.86Z"/><path class="cls-3" d="M41.32,86.54c-1.71-.18-3.44-.29-5.18-.33-.63,.89-1.1,1.87-1.26,2.9v1.54c.28,1.82,1.33,4.2,1.95,5.49,.19,.39-.13,.82-.56,.76-2.93-.42-6.32-.36-9.9,.23,.03,.03,.06,.07,.09,.1h0l8.58,14.86,2.35-4.07c-.37-6.78,1-14.18,3.93-21.47Zm-3.99,5.17h1.31v1.42h-1.31v-1.42Z"/><path class="cls-3" d="M43.62,97.23c2.42-2.28,3.93-5.52,3.93-9.11,0-2.76-.9-5.3-2.42-7.37-4.5,8.5-6.88,17.45-6.78,25.59l5.26-9.11h0Z"/><path class="cls-3" d="M41.44,81.55s-2.57,1.46-4.51,3.65c1.61,.06,3.22,.17,4.8,.34,.8-1.9,1.71-3.79,2.71-5.67-.1-.11-.19-.22-.29-.32-.82,.85-1.73,1.53-2.71,2Z"/><path class="cls-1" d="M34.89,89.11v-7.01h-.63c-.41,1.34-.89,1.54-2.81,1.54v.63h2.51v8.86h.94v-2.48c-.04-.29-.07-.57-.07-.83,0-.24,.04-.48,.07-.71Z"/><path class="cls-1" d="M34.81,89.83c0,.26,.03,.54,.07,.83v-1.54c-.04,.24-.07,.47-.07,.71Z"/><rect class="cls-1" x="37.33" y="91.72" width="1.31" height="1.42"/><path class="cls-3" d="M139.25,0c0,.12-.02,.24-.02,.36,0,3.59,1.51,6.83,3.93,9.11h0l3.27,5.67V0h-7.19Z"/></g></g></svg>