<?xml version="1.0" encoding="UTF-8"?><svg id="Calque_2" xmlns="http://www.w3.org/2000/svg" viewBox="0 0 129.3 128.25"><defs><style>.cls-1{fill:none;}.cls-2{fill:#fff;}.cls-3{fill:#87953c;}</style></defs><g id="Section_Nav"><g><path class="cls-1" d="M128.72,11.79l-.19-.74c-.09,.02-.19,.03-.28,.05v3.03c.34-.68,.69-1.36,1.05-2.04l-.58-.3Z"/><path class="cls-1" d="M128.25,118.46v.41c.06-.06,.13-.11,.19-.17-.06-.08-.13-.16-.19-.24Z"/><path class="cls-2" d="M0,32.89v1.17c2.36,7.73,2.37,15.05,0,21.4v.99c2.85-6.91,2.84-15.02,0-23.57Z"/><path d="M13.93,40.79c.16,.14,.33,.26,.5,.4-.08-3.04-.5-6.14-1.26-9.27-2.72-3.17-4.29-7.35-4.6-12.23-.56-1.1-1.16-2.2-1.8-3.3-1.55,9.86,.74,18.89,7.16,24.41Z"/><path d="M13.62,32.37c.71,3.07,1.11,6.12,1.17,9.1,3,2.31,6.6,3.74,10.61,4.24,.24-2.54,.24-5.14,.01-7.79-3.96-.36-7.55-1.72-10.43-4.2-.49-.42-.92-.89-1.36-1.35Z"/><path d="M13.47,31.73c.53,.62,1.11,1.19,1.73,1.73,2.81,2.42,6.31,3.76,10.18,4.12-.22-2.33-.62-4.7-1.19-7.1-3.27-.28-6.2-1.38-8.55-3.39-3.89-3.35-5.55-8.66-5.15-14.79-.42,.25-.83,.5-1.25,.76-.02,.14-.06,.29-.08,.43-.29,2.14-.36,4.18-.25,6.11,2.03,4.02,3.57,8.1,4.56,12.14Z"/><path d="M20.34,61.52c1.62-2.72,2.84-5.61,3.71-8.64-3.6-.51-6.95-1.7-9.92-3.59-.72,3.74-2.03,7.31-4,10.62-2.52,4.25-5.96,7.81-10.13,10.65v7.5c8.67-3.33,15.78-8.86,20.34-16.54Z"/><path d="M128.25,124.85c-.6-1.93-1.16-3.93-1.68-5.98l.59-.15-.02-.03-.27,.07c-1.83-7.33-7.08-12.29-13.13-12.49,.27,.27,.44,.54,.44,.82,0,.17-.05,.33-.15,.5l-.13,.16c-.69-.42-1.44-.66-2.24-.66-3.17,0-5.74,3.74-5.74,8.35,0,3.38,1.39,6.3,3.38,7.61,0,0,4.24,2.02,8.31,5.2h10.64v-3.4Z"/><path d="M127.72,117.92s.05-.05,.08-.07c-.07-.1-.13-.21-.2-.31,.04,.13,.08,.25,.12,.38Z"/><path d="M128.25,102.79v-13.01c-11.21-10.52-34.78-17.79-61.98-17.79-31.44,0-58.02,9.71-66.28,22.94v14.03l6.5,10.4c.64-.41,1.22-.93,1.7-1.55l4.79-6.12c3.98,3.14,11.63,5.27,20.41,5.27,3.85,0,7.49-.41,10.69-1.14,0,0-.51-11.37,9.12-11.6,.17,0,.35,.01,.55,.04,2.98,.44,6.01,.5,8.94-.14,5.25-1.15,13.49-1.89,22.74-1.89,13.56,0,24.89,1.59,27.9,3.72v-.76c5.11,0,9.7,3.12,12.47,8.12-.19-.87-.29-1.77-.29-2.7,0-2.96,1.02-5.67,2.7-7.84Z"/><path d="M63.62,0c-2,5.05-5.07,10.07-9.01,14.66-8.7,10.12-19.79,15.89-28.76,15.89-.44,0-.87-.02-1.3-.05,.57,2.4,.96,4.77,1.18,7.11,10.4,.8,23.43-5.42,33.39-17,4.29-4.99,7.5-10.39,9.59-15.74l-2.81-4.88h-2.27Z"/><path d="M5.57,119.86c-.64,.25-2.84,.61-2.84,.61,.99,0,1.95-.22,2.84-.61Z"/><path d="M0,34.06v21.4c2.37-6.35,2.36-13.67,0-21.4Z"/><path d="M15.86,26.82c2.26,1.94,5.08,3.01,8.23,3.3-.82-3.3-1.95-6.64-3.45-10.01-1.58-3.57-3.51-7.05-5.74-10.43-1.34,.77-2.7,1.58-4.07,2.41-.44,6.12,1.17,11.41,5.03,14.73Z"/><path d="M9.03,20.63c.41,4.05,1.72,7.56,3.88,10.36-.91-3.45-2.21-6.92-3.88-10.36Z"/><path d="M128.25,73.79V14.13c-11.9,23.78-11.89,46.27,0,59.66Z"/><path d="M125.49,11.43c.93,0,1.85-.12,2.76-.32V0h-16.98c2.61,6.76,7.99,11.43,14.22,11.43Z"/><path d="M20.96,19.97c1.52,3.42,2.67,6.82,3.49,10.17,9.08,.66,20.79-5.12,29.88-15.7,3.88-4.52,6.91-9.46,8.9-14.43h-28.56c-5.64,2.18-12.32,5.42-19.47,9.51,2.23,3.39,4.16,6.88,5.75,10.46Z"/><path d="M0,117.86v2.88c.49-.09,1-.17,1.51-.21-.24,0-.82-1.09-1.51-2.67Z"/><path d="M66.28,70.95c26.88,0,50.25,7.11,61.98,17.52v-13.14c-13.21-13.87-13.3-37.91-.19-63.13-.85,.16-1.71,.27-2.57,.27-6.78,0-12.65-5.11-15.35-12.48h-31.27c0,1.25-.03,2.52-.15,3.83-.97,10.38-5.82,21.11-13.65,30.22-10.6,12.33-24.58,19.15-36.72,19.15-1.34,0-2.65-.1-3.94-.27-.88,3.07-2.13,6.01-3.77,8.77-4.62,7.78-11.85,13.37-20.64,16.72v14.72c9.38-12.89,35.54-22.19,66.28-22.19Zm20.94-38.58c7.05,0,12.76,5.71,12.76,12.76,0,3.66-1.54,6.96-4.01,9.29l-8.75,15.16-8.75-15.16h0c-2.47-2.33-4.01-5.63-4.01-9.29,0-7.05,5.71-12.76,12.76-12.76Z"/><path d="M127.77,119.3c.16,.6,.32,1.2,.48,1.79v-2.22c-.16,.14-.32,.29-.48,.43Z"/><path d="M6.73,14.62c-.15,.09-.29,.19-.44,.28,.1,.17,.2,.33,.3,.5,.05-.26,.09-.52,.14-.78Z"/><path d="M75.9,.21c-1.01,9.56-5.58,19.5-12.87,27.98s-16.43,14.49-25.73,16.92c-2.96,.78-5.83,1.16-8.55,1.16-1.04,0-2.05-.08-3.04-.19-.23,2.22-.62,4.4-1.2,6.51,12.83,1.65,28.61-5.2,40.29-18.78,7.79-9.06,12.6-19.72,13.57-30.02,.12-1.3,.16-2.55,.15-3.8h-2.59c0,.07-.01,.14-.02,.21Z"/><path d="M25.36,46.05c-3.97-.5-7.55-1.89-10.56-4.15,.02,2.4-.17,4.76-.59,7.05,2.97,1.91,6.34,3.09,9.95,3.6,.58-2.11,.98-4.28,1.2-6.5Z"/><path d="M9.83,59.73c1.97-3.31,3.28-6.89,3.99-10.64-.82-.54-1.61-1.11-2.36-1.75C3.41,40.42,1.04,28.73,3.95,16.41c-1.35,.88-2.66,1.77-3.95,2.66v13.82c2.84,8.55,2.85,16.66,0,23.57v13.68c4.05-2.78,7.37-6.27,9.83-10.41Z"/><path d="M69.48,6.22l-.56-.96c-2.1,5.3-5.29,10.65-9.54,15.59-9.45,10.99-21.66,17.18-31.84,17.18-.6,0-1.19-.02-1.78-.06,.23,2.66,.22,5.26-.02,7.8,3.56,.4,7.42,.08,11.47-.98,9.24-2.42,18.31-8.39,25.56-16.81,7.24-8.43,11.78-18.3,12.79-27.79,0-.06,0-.12,.01-.18h-2.51l-3.59,6.22Z"/><path d="M13.7,41.05c-6.6-5.67-8.9-14.99-7.21-25.13-.16-.28-.33-.56-.5-.83-.54,.35-1.08,.69-1.62,1.04-3.02,12.32-.72,24.04,7.31,30.95,.7,.61,1.44,1.15,2.21,1.66,.41-2.31,.59-4.69,.55-7.1-.25-.19-.5-.37-.74-.58Z"/><path d="M8.81,13.44s.02-.09,.02-.13c-.56,.35-1.13,.7-1.7,1.06-.1,.5-.2,1-.28,1.49,.6,1.01,1.17,2.03,1.7,3.05-.06-1.75,0-3.57,.25-5.47Z"/><path d="M0,112.33v1.78c.86,1.18,1.84,2.34,2.98,3.46l-.25-.09c-.35,1-.77,2.02-1.21,3.06,.89,.04,1.22-.05,1.22-.05h-.05c.33-.79,.63-1.56,.9-2.33,.62,.58,1.29,1.16,1.98,1.72,.64-.25,.94-.5,.94-.5-2.76-2.19-4.95-4.55-6.5-7.04Z"/><path d="M0,112.33c1.56,2.48,3.75,4.84,6.5,7.04L0,108.97v3.36Z"/><path d="M2.68,120.48h.05s2.2-.36,2.84-.61c-.69-.56-1.36-1.14-1.98-1.72-.28,.77-.57,1.54-.9,2.33Z"/><path d="M2.98,117.56c-1.13-1.12-2.12-2.27-2.98-3.46v3.76c.69,1.58,1.27,2.66,1.51,2.67,.45-1.03,.86-2.06,1.21-3.06l.25,.09Z"/><path class="cls-3" d="M78.47,54.43l8.75,15.16,8.75-15.16c2.47-2.33,4.01-5.63,4.01-9.29,0-7.05-5.71-12.76-12.76-12.76s-12.76,5.71-12.76,12.76c0,3.66,1.54,6.96,4.01,9.29h0Zm12.73-6.29h1.34v1.45h-1.34v-1.45Zm-9.3,.49c4.11-3.13,6.36-5.34,6.36-7.42,0-1.43-1.09-2.14-2.36-2.14-1.4,0-2.68,.66-2.73,2.8h-1.02c.11-2.39,1.52-3.65,3.74-3.65,2.05,0,3.37,1.08,3.37,2.88,0,2.26-1.94,4.47-6.05,7.56h6.39v.92h-7.71v-.95Z"/><path class="cls-2" d="M89.62,48.66h-6.39c4.11-3.09,6.05-5.3,6.05-7.56,0-1.8-1.32-2.88-3.37-2.88-2.22,0-3.63,1.26-3.74,3.65h1.02c.05-2.14,1.32-2.8,2.73-2.8,1.26,0,2.36,.71,2.36,2.14,0,2.08-2.25,4.3-6.36,7.42v.95h7.71v-.92Z"/><rect class="cls-2" x="91.2" y="48.14" width="1.34" height="1.45"/><path class="cls-3" d="M70.3,0c-.42,1.61-.96,3.24-1.6,4.88l.22,.38c.7-1.76,1.27-3.52,1.72-5.26h-.34Z"/><path class="cls-3" d="M65.89,0l2.81,4.88c.64-1.63,1.17-3.26,1.6-4.88h-4.41Z"/><path class="cls-3" d="M73.07,0h-2.42c-.45,1.74-1.02,3.49-1.72,5.26l.56,.96,3.59-6.22Z"/><path class="cls-3" d="M127.6,117.54c-.45-1.52-1.05-2.93-1.76-4.21,.33,1.53,.94,2.94,1.76,4.21Z"/><path class="cls-3" d="M127.79,117.85c.14,.21,.3,.41,.46,.61v-1.04c-.15,.14-.3,.29-.46,.43Z"/><path class="cls-3" d="M128.25,102.79c-1.69,2.16-2.7,4.88-2.7,7.84,0,.93,.1,1.83,.29,2.7,.72,1.29,1.31,2.7,1.76,4.21,.07,.1,.13,.21,.2,.31,.16-.14,.31-.28,.46-.43v-14.63Z"/></g></g></svg>