<?xml version="1.0" encoding="UTF-8"?><svg id="Calque_2" xmlns="http://www.w3.org/2000/svg" viewBox="0 0 146.91 128.09"><defs><style>.cls-1{fill:#fff;}.cls-2{fill:#87953c;}</style></defs><g id="Section_Nav"><g><path d="M107.32,111.83c-1.98,1.98-3.84,4.03-5.6,6.12-.44,3.57-1.71,6.98-3.73,10.13h10.4c1.72-2.07,3.57-4.11,5.54-6.08,10.25-10.25,22.02-17.16,32.99-20.17v-12.53c-.21,.04-.42,.07-.63,.12-13.53,2.86-27.37,10.82-38.97,22.41Z"/><path d="M94.35,128.09h3.2c1.96-3,3.23-6.24,3.73-9.62-2.57,3.11-4.88,6.33-6.93,9.62Z"/><path d="M89.55,102.22c1.83,2.12,3.26,4.38,4.27,6.72,1.43-1.87,2.96-3.71,4.57-5.52-1.25-2.24-2.85-4.39-4.8-6.41-1.42,1.7-2.77,3.44-4.05,5.21Z"/><path d="M84.58,109.1c1.39-2.33,2.91-4.62,4.53-6.87-1.42-1.62-3.07-3.15-4.95-4.59-7.52-5.76-17.73-9.22-28.75-9.75-.98-.05-1.96-.07-2.94-.07-2.91,0-5.76,.23-8.53,.65,1.61,1.79,3.12,3.92,4.5,6.36,1.14-.01,2.29,0,3.45,.06,14.23,.69,26.42,6.37,32.68,14.22Z"/><path d="M101.52,116.22c.21-4.3-.81-8.52-2.94-12.48-1.62,1.82-3.16,3.68-4.6,5.56,1.19,2.9,1.75,5.93,1.6,9.01-.17,3.48-1.23,6.76-3.02,9.77h1.42c2.16-3.49,4.63-6.94,7.41-10.27,.06-.53,.11-1.06,.13-1.59Z"/><path d="M115.11,59.54c-7.16,0-13.75-2.12-18.92-6.56-7.27-6.25-10.67-16.11-9.58-27.76,.22-2.38,.63-4.77,1.21-7.16-7.32,17.87-18.73,29.24-31.34,29.24-4.13,0-8.14-1.19-11.92-3.42l-1.37,2.37-3.33-5.78c-8.26-7.18-15.09-19.72-19.2-36.1l.59-.15-.02-.03-.27,.07c-.38-1.54-.93-2.96-1.59-4.27H.04c-.02,.31-.04,.63-.04,.95,0,3.38,1.39,6.3,3.38,7.61,0,0,15.7,7.48,15.7,16.33,0,3.22-.95,6.22-2.58,8.73-.86,1.32-2.65,2.82-4.22,4-3.38,2.51-5.52,6.45-5.55,10.66v.1c0,7.33,4.92,13.51,11.64,15.43,1.4,.4,2.87,.61,4.4,.61,1.06,0,2.1-.1,3.11-.3,.2-.04,.39-.06,.59-.07h.43c2.87-.08,4.83,2.86,3.66,5.48h0c-.57,1.27-1.28,2.4-2.08,3.36-1.76,2.11-2.26,5.08-.84,7.44,.4,.67,.87,1.2,1.4,1.44,.91,.41,2.94,.45,2.94,.45,2.6,0,5.11,.82,7.48,2.34,6.01-1.71,12.56-2.49,19.3-2.17,11.91,.57,22.95,4.41,31.09,10.79,1.35,1.06,2.58,2.17,3.72,3.32,1.9-2.27,3.91-4.48,6.04-6.61,14.25-14.25,31.34-22.94,47.3-25.43v-17.33c-10.1,8.07-21.54,12.42-31.8,12.42Z"/><path d="M114.21,42.53c-5.39,0-10.28-1.55-14.08-4.82-5.75-4.94-8.2-13.02-6.9-22.73,.38-2.88,1.09-5.8,2.08-8.71-.32,0-.64,0-.96-.01-1.98,4.72-3.27,9.52-3.76,14.25-1.12,10.63,1.85,19.56,8.36,25.16,6.51,5.59,15.79,7.19,26.13,4.48,7.63-2,15.16-6.16,21.85-11.99v-11.66c-10.1,10.29-22.34,16.03-32.7,16.03Z"/><path d="M21.8,3.43s.05-.05,.08-.07c-.07-.1-.13-.21-.2-.31,.04,.13,.08,.25,.12,.38Z"/><path d="M51.88,95.23c-.96-.05-1.92-.07-2.87-.07-.12,0-.24,0-.36,.01,1.24,2.22,2.37,4.69,3.4,7.36,12.99,1.11,23.84,6.58,28.69,13.78,1.11-2.32,2.32-4.62,3.66-6.89-6.17-7.82-18.32-13.51-32.52-14.19Z"/><path d="M93.82,96.74c1.95,2.02,3.56,4.17,4.82,6.41,1.13-1.25,2.28-2.49,3.5-3.71,13.57-13.57,29.79-21.82,44.78-24.08v-10.56c-15.88,2.49-32.87,11.15-47.06,25.33-2.13,2.13-4.14,4.34-6.04,6.61Z"/><path d="M112.32,34.15c-4.42,0-8.37-1.25-11.44-3.89-4.88-4.2-6.81-11.22-5.43-19.79,.22-1.4,.56-2.81,.95-4.23-.23,.02-.47,.03-.72,.03-1,2.93-1.72,5.86-2.1,8.76-1.28,9.6,1.13,17.56,6.78,22.42,11.03,9.48,31.3,4.28,46.55-11.43V13.39c-.75,.99-1.53,1.98-2.36,2.94-9.75,11.34-22.18,17.82-32.23,17.82Z"/><path d="M102.96,2.55c-.94,2.11-3.26,3.35-6.19,3.65-.4,1.45-.75,2.9-.98,4.33-1.36,8.44,.53,15.36,5.32,19.47,9.9,8.51,29.27,2.28,43.18-13.89,.93-1.08,1.8-2.19,2.63-3.3V0h-20.62l-.06,.08c-1.23,2.13-3.05,3.48-5.08,3.48s-3.89-1.39-5.12-3.56h-12.66c.06,.89-.07,1.75-.42,2.55Z"/><path d="M108.83,128.09h4.3c.25-.31,.49-.63,.69-.97,1.13-1.87,2.63-2.09,4.23-2.09,1.89,0,3.59,1.17,4.82,3.06h16.49c1.55-2.92,4.15-5.91,7.55-8.62v-17.3c-11.31,3.13-22.86,10.2-32.74,20.09-1.89,1.89-3.67,3.84-5.34,5.84Z"/><path d="M115.57,51.79c-6.56,0-12.36-1.98-16.86-5.85-6.6-5.67-9.61-14.71-8.47-25.46,.5-4.73,1.78-9.54,3.75-14.26-.43-.04-.86-.07-1.3-.15-.04,0-.06-.03-.1-.05-.84,1.71-1.59,3.45-2.26,5.19-.4,1.25-.83,2.46-1.26,3.66-1.06,3.46-1.78,6.94-2.1,10.39-1.08,11.54,2.28,21.29,9.46,27.47,12.5,10.75,33.44,7.71,50.49-6.04v-8.06c-6.67,5.76-14.16,9.88-21.76,11.87-3.32,.87-6.53,1.3-9.58,1.3Z"/><path d="M55.42,87.54c11.08,.53,21.36,4.02,28.95,9.82,1.87,1.43,3.53,2.97,4.95,4.58,1.28-1.76,2.62-3.49,4.03-5.18-1.13-1.15-2.36-2.26-3.71-3.32-8.08-6.34-19.05-10.14-30.89-10.71-1.03-.05-2.06-.08-3.08-.08-5.53,0-10.89,.74-15.87,2.13,1.33,.9,2.61,2.03,3.84,3.35,3.8-.58,7.76-.8,11.78-.6Z"/><path d="M92.21,4.77c.58-.63,1.31-1.51,1.95-2.46,.25-.43,.5-.87,.76-1.3,.17-.34,.3-.68,.41-1.01h-2.03c-.35,1.66-.73,3.29-1.14,4.88,.02-.04,.03-.08,.06-.12Z"/><path d="M92.04,5.32c-.21,.81-.42,1.61-.65,2.4,.28-.62,.58-1.24,.88-1.86-.15-.14-.22-.33-.23-.54Z"/><path d="M34.43,31.1c-2.47-2.33-4.01-5.63-4.01-9.29,0-1.28,.19-2.52,.55-3.69l-.03-.05c-.33,1.13-.52,2.33-.52,3.56h-.35c0-1.39,.23-2.72,.63-3.98l-7.06-12.22h0c-.4-.38-.77-.79-1.12-1.22-.22,.2-.44,.4-.67,.6,3.53,13.68,9.13,24.72,15.85,31.95l-3.27-5.66h0Z"/><path d="M41.15,5.43l-2.28,3.95c1.3-.44,2.69-.69,4.14-.69v.35c-1.56,0-3.04,.3-4.42,.82l-.04,.06c1.44-.56,3-.88,4.63-.88,7.05,0,12.76,5.71,12.76,12.76,0,3.66-1.54,6.96-4.01,9.29h0l-6.82,11.81c3.63,2.18,7.46,3.35,11.35,3.35,15.93,0,29.93-18.94,35.75-46.25H44.56c-.66,2.1-1.85,3.96-3.41,5.43Z"/><path d="M98.82,103.47c2.2,4.04,3.26,8.36,3.05,12.77-.02,.37-.06,.74-.09,1.11,1.66-1.96,3.42-3.89,5.3-5.77,11.64-11.64,25.54-19.64,39.15-22.51,.24-.05,.47-.09,.7-.13v-13.23c-14.89,2.26-31.03,10.48-44.53,23.98-1.24,1.24-2.42,2.5-3.56,3.78Z"/><path d="M84.81,109.4c1.76,2.27,3.02,4.71,3.7,7.27,1.54-2.51,3.22-4.98,5.06-7.41-.99-2.35-2.41-4.62-4.23-6.75-1.62,2.26-3.14,4.55-4.53,6.89Z"/><path d="M80.96,116.66c1.74,2.7,2.64,5.64,2.5,8.67-.02,.38-.05,.75-.1,1.12,1.39-3.14,3.03-6.27,4.9-9.36-.63-2.59-1.87-5.07-3.62-7.37-1.34,2.28-2.56,4.6-3.67,6.94Z"/><path d="M83.11,125.31c.14-2.89-.69-5.7-2.32-8.29-1.7,3.65-3.11,7.35-4.22,11.07h6.08s.02-.06,.04-.09c.23-.88,.38-1.78,.42-2.69Z"/><path d="M52.18,102.9c1.28,3.39,2.39,7.1,3.28,11.08,1.09,4.93,2.9,9.66,5.27,14.11h15.48c1.14-3.84,2.59-7.65,4.36-11.41-4.71-7.16-15.46-12.64-28.38-13.78Z"/><path d="M88.36,117.57c-2.08,3.46-3.85,6.98-5.33,10.51h4.09c.94-1.99,1.49-4.1,1.6-6.3,.07-1.42-.06-2.83-.35-4.21Z"/><path d="M93.73,109.63c-1.86,2.46-3.56,4.98-5.1,7.52,.36,1.52,.52,3.07,.44,4.65-.11,2.2-.65,4.3-1.57,6.29h4.65c1.82-3.01,2.91-6.3,3.07-9.79,.14-2.96-.38-5.87-1.5-8.67Z"/><path class="cls-2" d="M26.41,0h-1.35c-.92,1.15-1.98,2.27-3.19,3.36,.2,.29,.42,.58,.65,.85,1.51-1.36,2.81-2.76,3.89-4.21Z"/><path class="cls-2" d="M20.51,0h-.29c.35,1.09,.84,2.11,1.45,3.05-.32-1.07-.71-2.09-1.16-3.05Z"/><path class="cls-2" d="M25.06,0h-4.55c.45,.96,.84,1.98,1.16,3.05,.07,.1,.13,.21,.2,.31,1.2-1.09,2.27-2.21,3.19-3.36Z"/><path class="cls-2" d="M30.94,18.07l.03,.05c1.13-3.76,3.96-6.78,7.59-8.2l.04-.06c-3.67,1.38-6.53,4.42-7.65,8.21Z"/><path class="cls-2" d="M23.64,5.43l7.06,12.22c1.26-3.88,4.3-6.96,8.16-8.27l2.28-3.95c1.56-1.47,2.75-3.33,3.41-5.43H26.41c-1.08,1.44-2.38,2.85-3.89,4.21,.35,.43,.72,.84,1.12,1.22h0Z"/><path class="cls-2" d="M37.7,36.76l2.15,3.72c1.52,1.32,3.09,2.46,4.7,3.41l.57-.98c-2.58-1.55-5.07-3.61-7.42-6.14Z"/><path class="cls-2" d="M43.19,46.25l1.37-2.37c-1.61-.95-3.18-2.09-4.7-3.41l3.33,5.78Z"/><path class="cls-2" d="M45.12,42.9l6.82-11.81h0c2.47-2.33,4.01-5.63,4.01-9.29,0-7.05-5.71-12.76-12.76-12.76-1.64,0-3.19,.32-4.63,.88l-6.16,10.67-1.43-2.47c-.35,1.17-.55,2.41-.55,3.69,0,3.66,1.54,6.96,4.01,9.29h0l3.27,5.66c2.35,2.53,4.83,4.59,7.42,6.14Zm1.98-17.37h1.34v1.45h-1.34v-1.45Zm-5.28-5.16c-1.26,0-2.31,.68-2.63,1.43l-.94-.09,.72-5.9h6.31v.92h-5.48l-.49,3.82c.54-.61,1.65-1.05,2.74-1.05,2.06,0,3.7,1.34,3.7,3.8s-1.86,3.86-3.9,3.86c-2.22,0-3.71-1.45-3.91-3.34h1.02c.32,1.73,1.57,2.49,2.9,2.49,1.55,0,2.88-1.06,2.88-3,0-2.09-1.49-2.96-2.91-2.96Z"/><path class="cls-2" d="M30.97,18.12l1.43,2.47,6.16-10.67c-3.63,1.42-6.45,4.44-7.59,8.2Z"/><path class="cls-1" d="M41.85,26.33c-1.32,0-2.57-.77-2.9-2.49h-1.02c.2,1.89,1.69,3.34,3.91,3.34,2.03,0,3.9-1.32,3.9-3.86s-1.63-3.8-3.7-3.8c-1.09,0-2.2,.43-2.74,1.05l.49-3.82h5.48v-.92h-6.31l-.72,5.9,.94,.09c.32-.75,1.37-1.43,2.63-1.43,1.42,0,2.91,.86,2.91,2.96,0,1.94-1.32,3-2.88,3Z"/><rect class="cls-1" x="47.1" y="25.53" width="1.34" height="1.45"/><path d="M30.07,21.63h.35c0-1.24,.19-2.43,.52-3.56l-.24-.41c-.41,1.25-.63,2.59-.63,3.98Z"/><path d="M43.01,9.04v-.35c-1.45,0-2.84,.25-4.14,.69l-.27,.47c1.38-.52,2.86-.82,4.42-.82Z"/><path d="M30.7,17.65l.24,.41c1.12-3.79,3.98-6.83,7.65-8.21l.27-.47c-3.86,1.31-6.91,4.39-8.16,8.27Z"/></g></g></svg>