<?xml version="1.0" encoding="UTF-8"?><svg id="Calque_2" xmlns="http://www.w3.org/2000/svg" viewBox="0 0 154.12 128.32"><defs><style>.cls-1{fill:#fff;}.cls-2{fill:#87953c;}</style></defs><g id="Section_Nav"><g><path class="cls-1" d="M65.72,115.43c4.24-4.94,7.44-10.28,9.53-15.58l-.22-.38c-2.08,5.34-5.29,10.74-9.58,15.73-4.96,5.77-10.69,10.21-16.47,13.11h.74c5.63-2.92,11.17-7.27,16-12.88Z"/><path class="cls-1" d="M69.37,122.78c7.28-8.47,11.85-18.4,12.86-27.96,.2-1.87,.25-3.68,.17-5.42l-.32,.56c.05,1.56-.02,3.16-.19,4.82-1,9.49-5.54,19.35-12.78,27.77-1.79,2.08-3.68,4-5.67,5.76h.52c1.89-1.7,3.7-3.55,5.41-5.54Z"/><path d="M65.36,67.88c-1.82-.42-3.73-.64-5.73-.64-2.69,0-5.52,.38-8.45,1.15-1.26,.33-2.51,.73-3.76,1.19-.07,.1-.14,.2-.21,.3-.04,.06-.09,.11-.13,.17,6.5-2.23,12.97-2.8,18.73-1.56,.05-.07,.1-.14,.15-.2-.2-.13-.39-.28-.59-.4Z"/><path d="M106.68,40.26c-2.96,.77-5.82,1.16-8.54,1.16-5.85,0-11.02-1.77-15.04-5.22-3.05-2.62-5.17-6.01-6.42-9.9-.56-.05-.96-.1-.96-.1-.87-.11-1.85-.1-2.88,.02,.89,6.4,3.61,12.01,8.25,16,13.22,11.36,37.03,5.42,53.07-13.25,7.46-8.68,12.19-18.84,13.41-28.74h-3.13c-1.81,8.01-5.98,16.07-12.04,23.12-7.28,8.47-16.42,14.48-25.71,16.91Z"/><path d="M14.94,114.27c-.56-1.1-1.16-2.2-1.8-3.3-1,6.37-.39,12.39,1.9,17.35h4.88c-.12-.61-.25-1.21-.39-1.82-2.72-3.17-4.28-7.35-4.59-12.23Z"/><path d="M19.98,126.95c.11,.46,.19,.91,.28,1.36h1.07c-.49-.43-.92-.9-1.36-1.36Z"/><path d="M22,121.67c-3.89-3.34-5.54-8.65-5.15-14.78-.42,.25-.83,.5-1.25,.76-.02,.14-.06,.29-.08,.43-.28,2.13-.36,4.18-.25,6.11,2.03,4.02,3.57,8.09,4.56,12.13,.53,.61,1.11,1.19,1.73,1.73,.11,.1,.23,.18,.35,.28h9.3c-.19-1.08-.41-2.17-.67-3.26-3.27-.28-6.2-1.38-8.54-3.39Z"/><path d="M65.45,115.2c4.29-4.99,7.5-10.39,9.58-15.73l-4.2-7.28c-1.92,5.84-5.32,11.74-9.88,17.05-8.69,10.11-19.77,15.88-28.74,15.88-.44,0-.87-.02-1.3-.05,.26,1.08,.47,2.16,.66,3.23h17.41c5.78-2.9,11.51-7.34,16.47-13.11Z"/><path d="M48.74,67.28h0Z"/><path d="M1.31,117.24c-.45,.32-.87,.65-1.31,.97v10.11H6.28c-.76-2.42-1.74-4.88-2.96-7.37-.61-1.25-1.29-2.49-2.01-3.71Z"/><path d="M88.56,76.38c0,.44-.02,.88-.07,1.31,5.36-7.26,12.06-14.51,19.58-21.15-10.54,2.31-21.51,3.49-32.65,3.49-9.1,0-18.02-.77-26.64-2.28,.61,1.42,1.05,2.89,1.05,4.18,0,1.76-.34,3.43-.93,4.93,2.8-.93,5.54-1.42,8.11-1.44,3.73-.31,7.23,.16,10.31,1.46,2.26-2.02,5.23-3.26,8.49-3.26,7.04,0,12.76,5.71,12.76,12.76Z"/><path d="M144.14,0c-.26,.08-.52,.15-.78,.23h.72c.02-.08,.04-.15,.06-.23Z"/><path d="M128.74,16.01c-6.73,7.83-15.04,13.48-23.41,15.92-2.94,.86-5.76,1.28-8.41,1.28-4.92,0-9.23-1.46-12.56-4.32-.91-.78-1.69-1.67-2.41-2.62-.77,.13-1.57,.21-2.4,.21-.71,0-1.7-.07-2.5-.14,1.23,3.77,3.31,7.06,6.27,9.61,5.79,4.98,14.06,6.4,23.26,3.99,9.23-2.41,18.3-8.38,25.54-16.8,6-6.99,10.13-14.96,11.94-22.89h-.72c-1.9,.56-3.83,1.03-5.54,1.28-2.1,4.94-5.11,9.9-9.07,14.5Z"/><path d="M97.73,48.33c-6.39,0-12.26-1.89-16.87-5.85-4.71-4.05-7.47-9.74-8.37-16.23-1.08,.15-2.21,.42-3.36,.84-1.2,.43-2.58,1.25-3.67,1.96-1.11,.72-2.4,1.16-3.73,1.12-1.87-.06-3.96,.42-5.97,1.46-3.48,1.81-5.79,8.06-5.79,8.06-.42-.09-.85-.13-1.29-.13-3.53,0-6.38,2.93-6.38,6.55,0,1.76,.68,3.36,1.77,4.54,.9,.97,1.81,1.94,2.52,3.06,.52,.82,1.11,1.82,1.64,2.89,8.79,1.58,17.89,2.4,27.18,2.4,11.73,0,23.27-1.31,34.31-3.88,.39-.33,.77-.67,1.16-.99,14.18-11.9,29.86-20.57,43.22-24.2V.23h-6.19c-1.22,9.98-5.98,20.22-13.5,28.97-10.59,12.32-24.56,19.13-36.69,19.13Z"/><path d="M103.21,24.38c-2.81,.9-5.49,1.35-7.97,1.35-2.9,0-5.52-.62-7.77-1.83-1.28,1.09-3.06,1.9-5.13,2.29,.68,.87,1.41,1.7,2.25,2.42,5.04,4.33,12.37,5.38,20.64,2.97,8.3-2.42,16.56-8.03,23.24-15.81,3.88-4.51,6.85-9.37,8.93-14.21-2.43,.3-4.38,.12-5.15-.98-.08-.11-.15-.24-.21-.36h-1.44c-1.79,3.31-4.01,6.55-6.63,9.6-6.05,7.04-13.42,12.21-20.76,14.56Z"/><path d="M96.62,9.08c.1,.88-.17,1.76-.63,2.51-1.18,1.9-3.19,5.02-4.66,6.58-.94,.99-1.56,2.21-2.09,3.47-.31,.73-.8,1.4-1.44,2,4.07,2.13,9.38,2.31,15.31,.41,7.28-2.33,14.6-7.46,20.6-14.45,2.56-2.98,4.73-6.14,6.48-9.37h-28.51c-3.41,3.77-5.29,6.93-5.06,8.85Z"/><path d="M21.27,104.27c-1.34,.77-2.7,1.58-4.07,2.4-.44,6.11,1.17,11.4,5.03,14.72,2.26,1.94,5.08,3.01,8.22,3.3-.82-3.3-1.95-6.64-3.45-10-1.58-3.57-3.51-7.05-5.73-10.42Z"/><path d="M148.83,68.01c-2.67-2.06-5.01-4.43-6.83-6.87-1.57,1.31-3.19,2.59-4.88,3.84,6.87,2.91,11.58,11.12,11.58,20.49,0,.04,0,.07,0,.11,1.73-2.03,3.55-4.03,5.41-5.98v-8.17c-1.79-.96-3.58-2.1-5.29-3.42Z"/><path d="M15.4,115.22c.41,4.05,1.72,7.56,3.88,10.35-.91-3.45-2.21-6.91-3.88-10.35Z"/><path d="M154.12,81.09c-1.83,1.94-3.6,3.93-5.28,5.94l-.16-.14s0,.05,0,.08l-1.05-.06c.03-.48,.04-.96,.04-1.44,0-9.23-4.73-17.25-11.54-19.75-5.68,4.11-11.97,7.86-18.73,11.1-.98,2.72-1.49,5.62-1.49,8.65,0,11.33,7.12,20.55,15.88,20.55,1.02,0,2.05-.13,3.04-.38l.19,.74,.58,.3c-3.9,7.39-6.65,14.68-8.26,21.63h26.79v-47.23Z"/><path d="M142.81,60.47c1.76,2.38,4.05,4.69,6.66,6.71,1.51,1.16,3.07,2.19,4.65,3.06v-21.2c-3.27,3.98-7.06,7.81-11.31,11.43Z"/><path d="M110.3,56.01v.05s-.05,.01-.08,.02c-8.73,7.5-16.4,15.85-22.24,24.13-.66,2.1-1.85,3.98-3.42,5.45h0l-.38,.65v.06c9.05-1.52,18.14-4.17,27.05-7.92,17.95-7.57,33.01-18.65,42.89-31.07V31.01c-13.15,3.63-28.56,12.18-42.55,23.92-.43,.36-.85,.72-1.27,1.09Z"/><path d="M67.06,85.67c-2.47-2.33-4.01-5.63-4.01-9.29,0-2.85,.94-5.47,2.52-7.59-1.92-.41-3.91-.62-5.96-.62-4.16,0-8.55,.83-12.93,2.4-1.05,1.38-2.04,2.81-2.79,4.38-1.05,2.19-2.12,4.99-2.12,7.25,0,5.93,6.62,10.01,5.6,10.29-6.61,1.79-15.74,5.87-25.79,11.62,2.23,3.38,4.16,6.88,5.75,10.45,1.52,3.42,2.67,6.81,3.49,10.16,9.07,.66,20.77-5.12,29.86-15.69,4.62-5.37,8.03-11.34,9.91-17.24l-3.53-6.12h0Z"/><path d="M93.53,126.95c2.06,0,4,.5,5.72,1.36h27c1.58-6.93,4.27-14.17,8.09-21.52-.85,.16-1.71,.27-2.57,.27-9.34,0-16.93-9.69-16.93-21.59,0-2.79,.43-5.48,1.24-8.04-1.46,.68-2.95,1.35-4.45,1.98-8.96,3.77-18.1,6.45-27.19,7.98,.75,3.39,.96,7.09,.59,11.03-.96,10.25-5.71,20.85-13.38,29.89h16.17c1.72-.87,3.66-1.36,5.72-1.36Z"/><path d="M12.96,109.99c.05-.26,.09-.52,.14-.78-.15,.09-.29,.19-.44,.28,.1,.17,.2,.33,.3,.5Z"/><path d="M84.09,87.46c-.21,.04-.43,.07-.64,.11l-1.06,1.83c.08,1.74,.03,3.55-.17,5.42-1.01,9.56-5.58,19.49-12.86,27.96-1.71,1.99-3.52,3.83-5.41,5.54h7.24c7.74-9.03,12.53-19.65,13.49-29.92,.36-3.91,.16-7.58-.59-10.94Z"/><path d="M10.33,111c-3.05,2-5.97,4.02-8.73,6.03,.73,1.24,1.41,2.5,2.04,3.77,1.25,2.54,2.24,5.05,3.01,7.52h3.29c-1.19-5.28-1.05-11.22,.39-17.31Z"/><path d="M67.02,67.15c-2.07-.85-4.34-1.33-6.73-1.44,1.88,.32,3.63,.9,5.19,1.83,.31,.07,.62,.16,.93,.25,.2-.22,.41-.43,.62-.64Z"/><path d="M64.27,67.29c-2.12-1.02-4.52-1.53-7.12-1.53h-.03c-2.77,.23-5.67,.9-8.6,1.97-.23,.47-.47,.92-.74,1.34,1.1-.39,2.2-.73,3.31-1.02,4.7-1.23,9.16-1.47,13.18-.76Z"/><path d="M69.1,122.55c7.24-8.42,11.78-18.28,12.78-27.77,.17-1.66,.24-3.26,.19-4.82l-6.27,10.86-.56-.96c-2.09,5.3-5.29,10.64-9.53,15.58-4.82,5.61-10.37,9.96-16,12.88h13.72c1.98-1.76,3.88-3.69,5.67-5.76Z"/><path d="M12.87,110.52c-.16-.28-.33-.56-.5-.83-.54,.34-1.08,.69-1.62,1.04-1.52,6.2-1.69,12.24-.46,17.59h4.37c-2.3-5.09-2.88-11.27-1.79-17.8Z"/><path d="M13.23,110.45c.6,1.01,1.17,2.03,1.7,3.05-.06-1.75,0-3.56,.25-5.47,0-.04,.02-.09,.02-.13-.56,.35-1.13,.7-1.69,1.06-.1,.5-.2,1-.28,1.49Z"/><path class="cls-1" d="M110.3,56.01l-.08,.07s.06-.01,.1-.02v-.05Z"/><path class="cls-2" d="M87.82,128.32h11.43c-1.72-.87-3.66-1.36-5.72-1.36s-4,.5-5.72,1.36Z"/><path class="cls-2" d="M76.93,78.57c.08-.13,.15-.27,.21-.42-.31-1-.68-1.96-1.12-2.88-.13-.06-.28-.11-.43-.16,.55,1.09,1,2.24,1.35,3.46Z"/><path class="cls-2" d="M87.97,80.22c.25-.81,.43-1.65,.52-2.52-1.74,2.36-3.34,4.72-4.78,7.06-.65-2-1.51-3.86-2.56-5.57v.67c.95,1.64,1.73,3.41,2.32,5.3-.24,.39-.48,.78-.71,1.17l.39,.23c-.08,.01-.15,.03-.23,.04l.16,1.04c.12-.02,.24-.04,.36-.06l.72-1.25c-.02-.07-.03-.14-.05-.21,1.17-1.95,2.46-3.92,3.85-5.89Z"/><path class="cls-2" d="M77.48,79.42c-.08,.09-.17,.17-.27,.25,1.35,5.78,.57,12.74-2.19,19.8l.22,.38c2.88-7.28,3.67-14.48,2.23-20.43Z"/><path class="cls-2" d="M79.87,78.93c-.58-1.19-1.26-2.31-2.02-3.36,.21,.33,.36,.73,.42,1.22,.58,.9,1.09,1.84,1.54,2.83v-.69h.06Z"/><path class="cls-2" d="M75.56,72.93c-.29-.28-.58-.55-.89-.82-.55-.47-1.13-.91-1.73-1.32-.1-.11-.2-.22-.31-.32-.12,.1-.23,.21-.34,.33,.06,.04,.12,.07,.17,.11-.06-.03-.12-.06-.18-.09-.08,.1-.16,.19-.22,.3,.5,.27,1,.55,1.48,.85,.51,.63,.98,1.3,1.4,2,.11-.02,.23-.03,.33-.06-.29-.49-.6-.98-.94-1.44,.39,.27,.75,.56,1.12,.85,.13,.13,.25,.26,.37,.39,.15-.07,.29-.14,.41-.23-.23-.19-.46-.37-.7-.56Z"/><path class="cls-2" d="M76.63,74.59c.39,.16,.74,.39,1.01,.7-.05-.07-.1-.14-.15-.21,1.17,1.16,2.19,2.45,3.09,3.84h.42c-1.14-1.81-2.51-3.44-4.09-4.87-.15,.1-.31,.19-.49,.27,.07,.08,.14,.17,.21,.26Z"/><path class="cls-2" d="M80.14,80.38c1.17,2.86,1.83,6.08,1.94,9.58l.32-.56c-.15-3.27-.78-6.31-1.88-9.02h-.38Z"/><path class="cls-2" d="M72.54,80.17c-.12-.06-.25-.11-.36-.18,.16,2.01,.07,4.19-.3,6.49-.28,1.75-.72,3.52-1.29,5.3l.24,.41c.62-1.9,1.09-3.79,1.39-5.66,.36-2.25,.46-4.38,.32-6.37Z"/><path class="cls-2" d="M72.01,78.55c.12,.18,.26,.33,.41,.47-.5-3.95-2.05-7.25-4.56-9.64,1.16,.35,2.27,.8,3.35,1.32,.07-.11,.13-.22,.2-.32-1.31-.62-2.68-1.13-4.09-1.52-.32-.27-.66-.49-1-.72,1.84,.5,3.56,1.24,5.16,2.18,.15-.18,.32-.34,.5-.48-.07-.06-.13-.13-.2-.19-1.35-1.16-2.85-2.06-4.47-2.74-.1,.09-.19,.17-.29,.26,1.64,.67,3.17,1.57,4.53,2.74,.02,.02,.03,.04,.05,.05-1.61-.94-3.35-1.65-5.2-2.16-.15,.16-.31,.32-.45,.49,.16,.11,.33,.21,.49,.33-.21-.05-.43-.08-.64-.13-.08,.1-.15,.21-.23,.31,.54,.11,1.07,.24,1.6,.38,2.62,2.26,4.26,5.48,4.85,9.37Z"/><path class="cls-2" d="M65.95,68.28c-.05,.07-.1,.14-.15,.2,.21,.05,.43,.08,.64,.13-.16-.12-.33-.22-.49-.33Z"/><path class="cls-2" d="M76.93,78.57c-.35-1.21-.8-2.37-1.35-3.46-.48-.14-1.03-.21-1.67-.21h-.09v-.85h.09c.39,0,.73-.04,1.04-.09-.42-.7-.89-1.37-1.4-2-.48-.3-.98-.59-1.48-.85-.18,.3-.31,.67-.38,1.1h-1.02c.07-.58,.26-1.09,.53-1.53-1.08-.52-2.19-.96-3.35-1.32,2.51,2.39,4.06,5.69,4.56,9.64,.54,.48,1.23,.72,1.94,.72,1.15,0,2.08-.41,2.56-1.16Z"/><path class="cls-2" d="M77.21,79.67c-.73,.6-1.75,.9-2.83,.9-.69,0-1.31-.15-1.84-.4,.15,1.98,.05,4.11-.32,6.37-.3,1.87-.77,3.76-1.39,5.66l4.2,7.28c2.75-7.06,3.53-14.02,2.19-19.8Z"/><path class="cls-2" d="M66.32,68.12c.34,.24,.68,.46,1,.72,1.42,.39,2.79,.9,4.09,1.52,.02-.03,.05-.05,.07-.07-1.6-.94-3.32-1.67-5.16-2.18Z"/><path class="cls-2" d="M72.3,70.8h0c.06,.05,.12,.07,.18,.11-.06-.04-.12-.07-.17-.11Z"/><path class="cls-2" d="M71.98,69.82c.64-.5,1.49-.8,2.54-.8,2.14,0,3.49,1.08,3.49,2.82,0,.86-.36,1.69-1.11,2.22,1.59,1.43,2.95,3.06,4.09,4.87h.15v.25c1.05,1.71,1.92,3.57,2.56,5.57,1.44-2.34,3.04-4.7,4.78-7.06,.04-.43,.07-.87,.07-1.31,0-7.04-5.71-12.76-12.76-12.76-3.27,0-6.24,1.24-8.49,3.26,1.62,.68,3.12,1.58,4.47,2.74,.07,.06,.13,.13,.2,.19Z"/><path class="cls-2" d="M74.67,72.11c.31,.26,.6,.54,.89,.82,.23,.18,.47,.37,.7,.56,.5-.36,.75-.89,.75-1.56,0-1.15-.91-2.06-2.55-2.06-.62,0-1.28,.18-1.81,.6,.1,.11,.2,.22,.31,.32,.59,.41,1.18,.84,1.73,1.32Z"/><path class="cls-2" d="M84.55,85.67c1.57-1.48,2.76-3.35,3.42-5.45-1.39,1.97-2.68,3.94-3.85,5.89,.02,.07,.04,.14,.05,.21l.38-.65h0Z"/><path class="cls-2" d="M72.18,80c-.98-.59-1.6-1.59-1.72-2.76h1.02c.1,.53,.29,.96,.54,1.31-.59-3.89-2.22-7.11-4.85-9.37-.52-.14-1.06-.27-1.6-.38-1.58,2.12-2.52,4.74-2.52,7.59,0,3.66,1.54,6.96,4.01,9.29h0l3.53,6.12c.57-1.78,1.01-3.55,1.29-5.3,.37-2.3,.47-4.47,.3-6.49Z"/><path class="cls-2" d="M77.65,75.3c.07,.08,.14,.18,.2,.27,.77,1.05,1.44,2.17,2.02,3.36h.71c-.9-1.39-1.92-2.68-3.09-3.84,.05,.07,.1,.14,.15,.21Z"/><path class="cls-2" d="M82.93,86.59c.08-.01,.15-.03,.23-.04l-.39-.23c.23-.39,.47-.78,.71-1.17-.59-1.89-1.37-3.66-2.32-5.3v.53h-.63c1.09,2.71,1.73,5.75,1.88,9.02l1.06-1.83c-.12,.02-.24,.04-.36,.06l-.16-1.04Z"/><path class="cls-2" d="M71.55,69.89c-1.36-1.17-2.89-2.07-4.53-2.74-.21,.2-.42,.42-.62,.64,1.85,.51,3.59,1.22,5.2,2.16-.02-.02-.03-.04-.05-.05Z"/><path class="cls-2" d="M77.29,77.3c0-1.02-.47-1.67-1.28-2.03,.44,.92,.82,1.88,1.12,2.88,.09-.26,.16-.53,.16-.85Z"/><path class="cls-2" d="M74.34,72.47c.34,.46,.64,.94,.94,1.44,.21-.05,.39-.12,.56-.19-.13-.13-.24-.27-.37-.39-.37-.29-.74-.59-1.12-.85Z"/><path class="cls-2" d="M79.81,80.38v-.75c-.45-.99-.96-1.94-1.54-2.83,.02,.16,.03,.32,.03,.49,0,.9-.32,1.61-.82,2.14,1.44,5.95,.65,13.15-2.23,20.43l.56,.96,6.27-10.86c-.1-3.5-.76-6.72-1.94-9.58h-.32Z"/><path class="cls-2" d="M76.18,74.44c.16,.04,.31,.09,.45,.16-.07-.09-.14-.17-.21-.26-.08,.03-.15,.07-.24,.1Z"/><path class="cls-1" d="M72.64,70.47c-.21-.22-.43-.44-.66-.66-.18,.14-.35,.3-.5,.48,.28,.16,.55,.33,.82,.5,.1-.12,.22-.23,.34-.33Z"/><path class="cls-1" d="M77.65,75.3c-.28-.31-.62-.54-1.01-.7,.59,.69,1.14,1.43,1.64,2.2-.06-.49-.21-.89-.42-1.22-.07-.09-.13-.18-.2-.27Z"/><path class="cls-1" d="M76.93,78.57c.1,.36,.2,.73,.29,1.11,.09-.08,.18-.16,.27-.25-.1-.43-.22-.86-.35-1.28-.05,.15-.12,.29-.21,.42Z"/><path class="cls-1" d="M72.01,78.55c.07,.47,.13,.96,.17,1.45,.11,.07,.24,.12,.36,.18-.03-.39-.07-.78-.12-1.16-.15-.13-.29-.29-.41-.47Z"/><path class="cls-1" d="M75.58,75.11c.15,.04,.3,.1,.43,.16-.23-.47-.47-.92-.73-1.36-.1,.02-.22,.04-.33,.06,.22,.37,.43,.76,.63,1.15Z"/><path class="cls-1" d="M76.25,73.49c-.12,.09-.26,.16-.41,.23,.2,.2,.39,.4,.58,.62,.18-.08,.34-.17,.49-.27-.14-.13-.27-.26-.42-.39-.08-.07-.16-.12-.24-.19Z"/><path class="cls-1" d="M72.29,70.81c-.29-.15-.58-.3-.88-.44-.08,.1-.14,.21-.2,.32,.29,.14,.58,.28,.86,.43,.07-.11,.15-.21,.22-.3Z"/><path class="cls-1" d="M74.37,79.73c-.72,0-1.41-.24-1.94-.72,.05,.38,.09,.77,.12,1.16,.53,.25,1.15,.4,1.84,.4,1.09,0,2.11-.3,2.83-.9-.09-.37-.18-.74-.29-1.11-.48,.75-1.41,1.16-2.56,1.16Z"/><path class="cls-1" d="M73.9,74.05h-.09v.85h.09c.64,0,1.2,.07,1.67,.21-.2-.39-.41-.77-.63-1.15-.31,.05-.65,.09-1.04,.09Z"/><path class="cls-1" d="M71.69,72.22c.06-.44,.2-.8,.38-1.1-.28-.15-.57-.29-.86-.43-.27,.44-.46,.96-.53,1.53h1.02Z"/><path class="cls-1" d="M72.3,70.8c-.27-.18-.55-.34-.82-.5-.02,.02-.05,.04-.07,.07,.3,.14,.59,.29,.88,.44h0Z"/><path class="cls-1" d="M72.64,70.47c.53-.42,1.19-.6,1.81-.6,1.65,0,2.55,.91,2.55,2.06,0,.67-.25,1.19-.75,1.56,.08,.06,.16,.12,.24,.19,.14,.12,.28,.26,.42,.39,.75-.53,1.11-1.36,1.11-2.22,0-1.74-1.35-2.82-3.49-2.82-1.05,0-1.9,.29-2.54,.8,.23,.21,.45,.43,.66,.66Z"/><path class="cls-1" d="M71.47,77.24h-1.02c.12,1.17,.74,2.17,1.72,2.76-.04-.49-.1-.98-.17-1.45-.25-.35-.44-.78-.54-1.31Z"/><path class="cls-1" d="M77.65,75.3c.07,.09,.13,.18,.2,.27-.06-.1-.13-.19-.2-.27Z"/><path class="cls-1" d="M76.18,74.44c.09-.03,.16-.07,.24-.1-.19-.21-.38-.41-.58-.62-.17,.08-.35,.14-.56,.19,.26,.44,.51,.89,.73,1.36,.81,.37,1.28,1.02,1.28,2.03,0,.31-.06,.59-.16,.85,.13,.42,.24,.84,.35,1.28,.51-.53,.82-1.23,.82-2.14,0-.18-.02-.34-.03-.49-.5-.77-1.04-1.51-1.64-2.2-.15-.06-.3-.11-.45-.16Z"/><path class="cls-1" d="M79.81,78.93v.69c.11,.25,.22,.5,.32,.75h.38c-.2-.49-.42-.97-.65-1.45h-.06Z"/><path class="cls-1" d="M80.58,78.93c.19,.3,.39,.61,.57,.92v-.67c-.05-.08-.1-.17-.15-.25h-.42Z"/><path class="cls-1" d="M81,78.93c.05,.08,.1,.17,.15,.25v-.25h-.15Z"/><path class="cls-1" d="M79.87,78.93c.23,.47,.45,.95,.65,1.45h.63v-.53c-.18-.31-.37-.62-.57-.92h-.71Z"/><path class="cls-1" d="M79.81,80.38h.32c-.1-.25-.21-.5-.32-.75v.75Z"/></g></g></svg>