<?xml version="1.0" encoding="UTF-8"?><svg id="Calque_2" xmlns="http://www.w3.org/2000/svg" viewBox="0 0 195.37 113.43"><g id="Header"><g><path d="M8.03,14.47c-3.71-.76-7.23-2.84-7.23-7.23C.79,2.3,5.9,0,10.33,0c4.82,0,8.89,2.2,9.94,7.45h-3.96c-.86-3.06-3.67-4.03-6.16-4.03-1.91,0-5.18,.9-5.18,3.64,0,2.16,1.69,3.28,3.96,3.74l3.1,.65c4.18,.86,8.75,2.41,8.75,7.7s-5,7.88-10.04,7.88c-6.01,0-10.15-3.35-10.73-8.82H4.03c.76,3.6,3.13,5.4,6.84,5.4,3.42,0,5.76-1.58,5.76-4.14,0-2.7-2.63-3.78-5.4-4.36l-3.2-.65Z"/><path d="M24.91,.47h18.07V3.96h-13.97v7.45h13.17v3.46h-13.17v8.21h13.97v3.49H24.91V.47Z"/><path d="M57.99,26.56l-6.95-21.96V26.56h-4.03V.47h6.59l6.52,21.31L66.63,.47h6.59V26.56h-4.03V4.61l-6.95,21.96h-4.25Z"/><path d="M78.95,.47h18.07V3.96h-13.97v7.45h13.17v3.46h-13.17v8.21h13.97v3.49h-18.07V.47Z"/><path d="M116.6,26.56l-11.52-21.6V26.56h-4.03V.47h5.72l11.52,21.56V.47h4.03V26.56h-5.72Z"/><path d="M150.15,18.07c-1.15,5.76-5.44,8.96-11.27,8.96-7.56,0-11.95-5.54-11.95-13.57s4.72-13.46,12.2-13.46c5.58,0,9.86,3.24,10.91,8.96h-3.96c-.83-3.42-3.28-5.54-7.13-5.54-4.43,0-7.81,3.53-7.81,10.04s3.35,10.15,7.85,10.15c3.89,0,6.37-2.09,7.2-5.54h3.96Z"/><path d="M154.22,.47h18.07V3.96h-13.97v7.45h13.17v3.46h-13.17v8.21h13.97v3.49h-18.07V.47Z"/><path d="M182.63,14.47c-3.71-.76-7.23-2.84-7.23-7.23,0-4.93,5.11-7.23,9.54-7.23,4.82,0,8.89,2.2,9.93,7.45h-3.96c-.86-3.06-3.67-4.03-6.16-4.03-1.91,0-5.18,.9-5.18,3.64,0,2.16,1.69,3.28,3.96,3.74l3.1,.65c4.17,.86,8.75,2.41,8.75,7.7s-5,7.88-10.04,7.88c-6.01,0-10.15-3.35-10.73-8.82h4.03c.76,3.6,3.13,5.4,6.84,5.4,3.42,0,5.76-1.58,5.76-4.14,0-2.7-2.63-3.78-5.4-4.36l-3.2-.65Z"/><path d="M8.85,43.67c8.28,0,14.4,2.99,14.4,13.03s-6.12,13.07-14.4,13.07H1.73v-26.1h7.13Zm-.18,3.38h-2.84v19.33h2.84c5.22,0,10.33-1.08,10.33-9.68s-5.11-9.65-10.33-9.65Z"/><path d="M27.83,43.67h18.07v3.49h-13.97v7.45h13.17v3.46h-13.17v8.21h13.97v3.49H27.83v-26.1Z"/><path d="M10.11,86.87c6.05,0,10.94,1.19,10.94,8.03s-4.64,7.96-10.94,7.96H5.83v10.11H1.73v-26.1H10.11Zm-4.28,3.38v9.14h4.54c3.6,0,6.44-.43,6.44-4.46,0-4.25-2.99-4.68-6.55-4.68H5.83Z"/><path d="M28.65,86.87h4.54l9.83,26.1h-4.46l-2.05-5.72h-11.34l-2.02,5.72h-4.18l9.68-26.1Zm-2.27,16.92h8.85l-4.46-12.45-4.39,12.45Z"/><path d="M44.64,86.87l6.84,12.24,6.98-12.24h4.54l-9.57,15.98v10.11h-4.1v-10.19l-9.25-15.91h4.57Z"/><path d="M71.03,100.87c-3.71-.76-7.23-2.84-7.23-7.24,0-4.93,5.11-7.23,9.54-7.23,4.82,0,8.89,2.2,9.94,7.45h-3.96c-.86-3.06-3.67-4.03-6.16-4.03-1.91,0-5.18,.9-5.18,3.64,0,2.16,1.69,3.28,3.96,3.74l3.1,.65c4.18,.86,8.75,2.41,8.75,7.7s-5,7.88-10.04,7.88c-6.01,0-10.15-3.35-10.73-8.82h4.03c.76,3.6,3.13,5.4,6.84,5.4,3.42,0,5.76-1.58,5.76-4.14,0-2.7-2.63-3.78-5.4-4.36l-3.2-.65Z"/></g></g></svg>