<svg xmlns="http://www.w3.org/2000/svg" width="44.284" height="45.435" viewBox="0 0 44.284 45.435">
  <path id="Icon_awesome-arrow-down" data-name="Icon awesome-arrow-down" d="M41.715,21.568l2.251,2.251a2.424,2.424,0,0,1,0,3.438L24.263,46.97a2.424,2.424,0,0,1-3.438,0L1.112,27.257a2.424,2.424,0,0,1,0-3.438l2.251-2.251a2.436,2.436,0,0,1,3.478.041L18.483,33.828V4.684A2.428,2.428,0,0,1,20.917,2.25h3.245A2.428,2.428,0,0,1,26.6,4.684V33.828L38.237,21.608a2.419,2.419,0,0,1,3.478-.041Z" transform="translate(-0.397 -2.25)" fill="#11160e"/>
</svg>
