<svg xmlns="http://www.w3.org/2000/svg" width="31.809" height="31.003" viewBox="0 0 31.809 31.003">
  <path id="Icon_awesome-arrow-down" data-name="Icon awesome-arrow-down" d="M29.324,15.774,30.9,17.351a1.7,1.7,0,0,1,0,2.407l-13.794,13.8a1.7,1.7,0,0,1-2.407,0L.9,19.757a1.7,1.7,0,0,1,0-2.407l1.576-1.576a1.706,1.706,0,0,1,2.435.028l8.15,8.555V3.954a1.7,1.7,0,0,1,1.7-1.7h2.272a1.7,1.7,0,0,1,1.7,1.7v20.4l8.15-8.555A1.694,1.694,0,0,1,29.324,15.774Z" transform="translate(-2.25 31.401) rotate(-90)" fill="#acdc8f"/>
</svg>
