<?xml version="1.0" encoding="UTF-8"?><svg id="Calque_2" xmlns="http://www.w3.org/2000/svg" viewBox="0 0 376 2129"><defs><style>.cls-1{fill:none;}.cls-2{fill:#ec805b;}.cls-3{fill:#73bbe4;}.cls-4{fill:#de473f;}</style></defs><g id="Background"><g id="Calque_8"><g><path class="cls-4" d="M375.5,35.75V772.78c-.17,.09-.33,.18-.5,.27-1.81,.94-3.65,1.75-5.5,2.45-60.43,22.79-182.31-64.3-178-125,3.04-42.83,67.33-50.18,76-105,9.78-61.81-65.52-92.98-53-146,13.09-55.45,104.7-60.51,106-106,.84-29.55-37.49-38.35-53-72-16.17-35.08-1.99-98.66,108-221.5,1.88,10.91-2.29,22.17-.5,32.78,.17,.99,.33,1.98,.5,2.97Z"/><path class="cls-3" d="M310,923c-6.56,90.58-177.49,118.27-176,216,1.12,73.31,97.9,96.56,92,167-6.13,73.22-118.23,138.19-160,114-39.63-22.95,3.13-115.09-62-188-.17-.19-.33-.37-.5-.55-1.18-1.32-2.35-2.56-3.5-3.75v-506.93c1.16-.4,2.33-.78,3.5-1.15,122.54-38.11,313.66,104.46,306.5,203.38Z"/><path class="cls-2" d="M375.5,1755.04v254.68c-.16-.08-.33-.15-.5-.23-12.31-5.58-23.97-12.25-34-19.49-52.19-37.68-41.36-77.29-82-102-70.73-43.01-148.32,49.73-216,14-15.55-8.21-28.9-22.31-39.5-39.89-1.2-1.99-2.37-4.03-3.5-6.11v-182.36c1.12-1.55,2.29-3.06,3.5-4.54,2.33-2.85,4.83-5.56,7.5-8.1,29.73-28.32,84.97-41.1,113-19,37.27,29.39-4.72,95.85,29,133,38.74,42.67,157.55,24.85,222-19.62,.17-.11,.34-.22,.5-.34Z"/><path class="cls-2" d="M375.5,1312.17v301.13c-.17-.17-.33-.34-.5-.5-2.49-2.48-4.56-4.44-6-5.8-58.03-54.91-114.9-36.94-136-71-36.74-59.3,61.93-232.84,136-225,2.01,.21,4.01,.56,6,1.04,.17,.04,.34,.08,.5,.13Z"/></g></g><rect class="cls-1" x="13.5" y="2010" width="362" height="119"/></g></svg>