<svg xmlns="http://www.w3.org/2000/svg" viewBox="0 0 454.7 1262.39"><defs><style>.cls-1{fill:#233131;}.cls-2{fill:#1d1d1b;}</style></defs><g id="Calque_2" data-name="Calque 2"><g id="nos_semences"><rect class="cls-1" x="51.41" width="375" height="1262.39"/><g id="Calque_4" data-name="Calque 4"><path class="cls-2" d="M37.07,1089.45a153.5,153.5,0,0,1,46.41,2.17c1.74.35,3.48.74,5.22,1.15,1.43.35,2.45.91,3.49-.33,1.38-1.62,1.13-3.67.31-5.5-1.11-2.48-3.06-4.56-4-7.13s0-4.68,1.31-6.78c2.58-4.22,6.68-8.17,5.69-13.55a1.25,1.25,0,0,0-.88-.87,35.4,35.4,0,0,0-21.83.42l1.59,1.2,1.75-22c.29-3.58.53-7.17.86-10.75a26.06,26.06,0,0,1,1.57-7.52c1-2.41,2.77-4.61,5.47-5.08,3-.52,5.85,1.37,7.8,3.48,4.29,4.63,4.69,11.46,7.28,17,1,2,1.93,4.08,4.47,2.93,1.67-.75,2.42-2.55,3-4.17.77-2.14,1.15-4.89,3.22-6.2,2.24-1.42,5.32-1,7.51.27,2.54,1.5,4.21,4.15,5.57,6.68a37.54,37.54,0,0,1,3.84,8.85c1.46,6.17-3.55,11.33-2.79,17.47a7.71,7.71,0,0,0,3.36,5.84c2.65,1.58,5.67.72,8.25-.55,3.26-1.6,6.21-3.35,9.82-4.11a25.45,25.45,0,0,1,11.32.24c1.1.27,2.26-1.28,1.21-2.09-3.83-3-6.66-9.56-2.81-13.7,2.79-3,8.69-2.92,10.52,1,.6,1.28,2.74.37,2.29-1-.89-2.62,1.2-4.58,3.51-5.47a8.22,8.22,0,0,1,7.8,1.14c5.18,3.41,8.44,8.8,14.33,11.29a22.94,22.94,0,0,0,17.69.08,43.61,43.61,0,0,1,4.39-1.75,12.71,12.71,0,0,1,6.48.15c2.94.66,5.81,1.45,8.83.86,6.18-1.21,6.91-7.5,5.26-12.68-1.72-5.42-5.89-9.84-10.75-12.65-5.8-3.34-12.66-4.32-19.25-4.51-1.69,0-3.38,0-5.07,0s-3.55.56-4.28-1.42c-.94-2.53.53-5.57,2.57-7.09,5.58-4.16,13.62-2.36,19-7.15,2.52-2.23,3.26-5.27,3.25-8.52,0-2-.3-4.08.35-6,.59-1.68,2-3.68,4-3.22a1.27,1.27,0,0,0,1.41-1.84c-2.37-3.68-.36-9.07,4.08-9.88s8.26,2.77,11.32,5.26c3.47,2.84,6.85,5.65,11.2,7,4.87,1.52,9.63,1,14.45-.35s9-2,13.87-.81A78.26,78.26,0,0,1,294.94,994c7.18,3.12,15.14,6.28,22.95,3.5,5.15-1.83,9.22-5.8,14.36-7.61,4.14-1.45,10-1.3,12.15,3.21a1.26,1.26,0,0,0,2.28-.3c.64-4.7,1.64-11.36,6.49-13.62,6.12-2.85,12.16,3.43,17.43,5.6,3.91,1.61,9.33,2.47,12.68-.78a10.1,10.1,0,0,0,2.61-6.1c.36-2.53.27-5.49,2.41-7.26h-1.77c4.06,4.78,8,9.66,12.19,14.35,1.35,1.52,2.9,2.92,5,3.14,2.57.27,4.86-1.19,7-2.42,5-2.85,10.63-5.13,16.46-4.56A14.4,14.4,0,0,1,439,988.92c.69,1.45,2.85.19,2.15-1.26-4.46-9.32-16.11-10.53-24.85-7.3a47.85,47.85,0,0,0-7.42,3.59c-1.43.83-3,1.89-4.78,1.71a5.35,5.35,0,0,1-3.38-2.18c-4.25-4.74-8.26-9.72-12.38-14.57a1.28,1.28,0,0,0-1.77,0c-4.25,3.51-1.16,10.6-5.49,13.76-4.76,3.46-11.36-1.11-15.45-3.45-4.81-2.74-10.8-4.9-15.6-.9-4,3.31-5.06,9-5.72,13.86l2.29-.3c-1.73-3.67-5.65-5.24-9.53-5.26-4.93,0-9,2.44-13.08,5-4.58,2.84-9.08,5-14.6,4.46-4.59-.46-9-2.33-13.15-4.15s-8.56-3.87-13.12-5a27.2,27.2,0,0,0-14.48.6c-5.76,1.64-11.39,2.16-16.89-.68-4.44-2.3-7.8-6.19-12-8.85-3.8-2.4-8.81-3.57-12.56-.37a9.2,9.2,0,0,0-1.8,11.74l1.41-1.83a5.64,5.64,0,0,0-6,2.73c-1.89,2.81-1.49,6-1.53,9.22-.09,8.44-8.4,9-14.8,10.57-5.27,1.28-10.76,4.67-10.26,10.85.15,1.82,1.22,4.52,3.23,5,1.57.34,3.61-.08,5.23-.09,2,0,4.1,0,6.15.15,7.21.46,14.56,2.28,19.94,7.38a18.8,18.8,0,0,1,5.21,8.1c1,3.23,1.31,7.76-2.55,9.06-3.57,1.2-7.23-.49-10.75-1s-6.24.41-9.37,1.76a20.8,20.8,0,0,1-20.38-1.74c-5.12-3.6-9-10.75-15.92-11.14-4.86-.28-11.29,3.61-9.41,9.19l2.28-1c-2.47-5.31-10.17-5.54-14.14-1.84-5.26,4.91-2.49,13.64,2.5,17.54l1.22-2.09a28.38,28.38,0,0,0-20.43,2.72c-2.8,1.52-7.47,4.43-9.72.52-1.74-3-.53-6.6.56-9.59,1.23-3.34,2.22-6.54,1.53-10.12-.65-3.36-2.38-6.56-4-9.56-2.7-5.15-7-10.37-13.45-9.53a7.65,7.65,0,0,0-6.27,4.69c-.78,1.82-1.35,7-4,6.77l1.08.62c-3.21-5-3.68-11.13-6.44-16.35-2.18-4.13-6.49-8.19-11.46-8.06-11.19.31-10.46,16.82-11.06,24.36l-1.88,23.62a1.25,1.25,0,0,0,1.58,1.21A33,33,0,0,1,94,1061l-.87-.87c.53,2.85-1.21,5.44-2.75,7.68s-3.4,4.56-4.28,7.26a9.36,9.36,0,0,0,1,7.59c1.11,2,5.07,6.22,2.88,8.46l1.21-.32A156.42,156.42,0,0,0,37.07,1087c-1.59.16-1.6,2.66,0,2.5Z"/><path class="cls-2" d="M404.18,566.47A156.67,156.67,0,0,0,350,570.34l1.21.33c-2.16-2.21,1.64-6.24,2.75-8.22,1.38-2.48,2.05-5.07,1.16-7.84s-2.59-4.82-4.14-7.06-3.43-4.94-2.89-7.88l-.87.88a33,33,0,0,1,20.5.42,1.26,1.26,0,0,0,1.58-1.21l-1.66-20.87c-.46-5.8-.43-11.91-1.82-17.59-1-4.08-3.31-8.27-7.73-9.29-4.87-1.12-9.4,2.19-12.07,6-3.83,5.45-4,12.58-7.56,18.18l1.08-.62c-2.45.18-2.95-4.08-3.59-5.81-.89-2.37-2.24-4.28-4.7-5.19-5.84-2.15-11.08,1.92-14,6.64-3.55,5.72-6.91,12.47-4.8,19.26,1,3.27,2.84,6.5,2.34,10a5.19,5.19,0,0,1-2.14,3.86c-1.92,1.16-4.21.2-6-.7-3.56-1.78-6.8-3.62-10.78-4.35a28.64,28.64,0,0,0-12,.37l1.22,2.09c5-3.91,7.74-12.62,2.5-17.54-4-3.72-11.67-3.46-14.14,1.84l2.28,1c1.64-4.85-3.13-8.48-7.47-9.08-5.89-.82-10.19,3.93-14,7.67-5.15,5-11.69,8-19,6.75-3.39-.6-6.28-2.53-9.6-3.29-3.74-.87-7.19.52-10.84,1.13-3.47.58-7.71-.16-8-4.39a15.24,15.24,0,0,1,2.65-9.24c3.81-5.88,10.31-9.1,17-10.39a61.3,61.3,0,0,1,11.87-.9c1.67,0,3.79.44,5.42.11a4,4,0,0,0,2.38-1.86c3-4.5-.43-10.26-4.66-12.38-5.56-2.77-16.79-1.63-19-9-1.13-3.77.47-7.82-1.37-11.48-1.27-2.53-3.67-4.32-6.57-3.67l1.41,1.84a9.2,9.2,0,0,0-.77-10.7c-2.71-3.27-7.17-3.67-10.9-2.1-4.41,1.86-7.78,5.51-11.59,8.3A20,20,0,0,1,177,468.15c-2.94-.56-5.73-1.7-8.68-2.21a23.07,23.07,0,0,0-6.89-.12c-4.61.61-8.94,2.37-13.18,4.2s-8.45,3.84-13,4.93a19.57,19.57,0,0,1-14.55-1.81c-4.86-2.64-9.25-6.36-15-6.92-4.33-.42-9.11,1-11.09,5.19l2.29.29c-.66-4.85-1.75-10.55-5.72-13.86-4.8-4-10.79-1.83-15.6.91-4.09,2.33-10.69,6.9-15.45,3.44C55.88,459,59,452,54.72,448.44a1.26,1.26,0,0,0-1.77,0c-4.06,4.78-8,9.65-12.18,14.35a6.52,6.52,0,0,1-3.07,2.35c-1.76.44-3.53-.65-5-1.48A51.56,51.56,0,0,0,25,459.88c-8.74-3.22-20.39-2-24.86,7.31-.69,1.44,1.47,2.71,2.16,1.26a14.43,14.43,0,0,1,11.78-7.74c5.82-.57,11.51,1.71,16.46,4.57,2.09,1.2,4.31,2.62,6.82,2.44,2.17-.16,3.81-1.61,5.18-3.16,4.15-4.71,8.13-9.57,12.19-14.36H53c2.11,1.74,2,4.61,2.39,7.1.32,2.31.9,4.59,2.63,6.26,3.35,3.26,8.77,2.39,12.68.79,5.28-2.17,11.3-8.44,17.43-5.61,4.85,2.25,5.85,8.94,6.49,13.63a1.26,1.26,0,0,0,2.28.3c1.88-4,6.77-4.57,10.66-3.65,4.63,1.1,8.39,4.44,12.54,6.59,8,4.13,16,2.3,23.84-1s16.3-8,25.21-6c4.94,1.15,9.37,2.84,14.53,2.13a24.58,24.58,0,0,0,11.94-5.52c3.57-2.81,7.6-7.27,12.43-7.62,5.26-.38,8.55,5.63,5.76,10a1.26,1.26,0,0,0,1.41,1.83c3.86-.86,4.46,4.9,4.42,7.36,0,3.15-.09,6.28,1.9,8.91,3.67,4.88,10.28,5,15.66,6.51,3,.83,6.08,2.3,7.14,5.49a5.72,5.72,0,0,1,.17,3.47c-.64,2-2.18,1.66-4,1.63-7-.13-14.27.12-20.88,2.72a25.54,25.54,0,0,0-12.79,10.52c-2.43,4.13-4.51,11.69.07,15.14,5.69,4.28,12.35-1.16,18.42.36,3.2.8,6,2.64,9.27,3.22a23.62,23.62,0,0,0,8.79-.1,22.38,22.38,0,0,0,9.09-4.1c2.72-2.08,4.92-4.71,7.5-6.94s5.36-3.88,8.72-3.09c2.68.63,5.71,2.72,4.67,5.82-.44,1.32,1.68,2.25,2.29,1,1.83-3.94,7.73-4,10.52-1,3.85,4.15,1,10.71-2.81,13.7-1.05.82.11,2.36,1.21,2.09a26.11,26.11,0,0,1,19.08,2.78c2.38,1.31,5,2.8,7.81,2.48a6.4,6.4,0,0,0,5-3.61c2.51-5.08-.54-10-1.83-14.89-.94-3.6.06-6.9,1.6-10.18a42.61,42.61,0,0,1,4.36-7.84c1.77-2.32,4.15-4.17,7.17-4.3a5.6,5.6,0,0,1,5.86,3.9c.72,1.91,1.1,4.07,2.28,5.78.82,1.2,2.67,2.47,4.21,1.76,1-.45,1.47-1.93,1.9-2.83a33.74,33.74,0,0,0,1.61-4c1-3.07,1.75-6.28,3.12-9.23,2.25-4.86,8.88-10.77,13.93-5.7,2,2,2.74,4.95,3.21,7.63.63,3.65.74,7.43,1,11.12l2,24.81,1.59-1.21a35.48,35.48,0,0,0-21.83-.42,1.24,1.24,0,0,0-.88.88c-.86,4.68,2.17,8.34,4.66,12,1.3,1.9,2.78,4.06,2.72,6.46-.06,2.69-2.11,5-3.41,7.25-1,1.77-2.12,3.89-1.4,6a3.38,3.38,0,0,0,1.75,2.1c1.18.39,3.56-.7,4.75-1a150.82,150.82,0,0,1,23.46-3.35,155.94,155.94,0,0,1,25.93.54c1.6.17,1.59-2.34,0-2.5Z"/><path class="cls-2" d="M50.52,1254.43a153.81,153.81,0,0,1,46.41,2.17c1.74.35,3.48.74,5.22,1.15,1.43.35,2.45.91,3.5-.32,1.37-1.63,1.12-3.68.3-5.5-1.11-2.49-3-4.57-4-7.14s0-4.68,1.31-6.77c2.58-4.23,6.69-8.17,5.69-13.56a1.25,1.25,0,0,0-.87-.87,35.4,35.4,0,0,0-21.83.42l1.58,1.21,1.75-22c.29-3.59.54-7.18.86-10.76A26.06,26.06,0,0,1,92,1184.9c1-2.42,2.77-4.62,5.47-5.09,3-.51,5.85,1.37,7.8,3.48,4.29,4.64,4.69,11.46,7.28,17,1,2,1.93,4.08,4.48,2.93,1.66-.75,2.41-2.55,3-4.17.77-2.13,1.15-4.89,3.22-6.2,2.24-1.41,5.33-1,7.52.27,2.53,1.51,4.2,4.15,5.56,6.68a37.17,37.17,0,0,1,3.85,8.85c1.45,6.17-3.55,11.33-2.8,17.47a7.69,7.69,0,0,0,3.37,5.84c2.64,1.58,5.67.72,8.24-.55,3.26-1.6,6.21-3.35,9.82-4.11a25.45,25.45,0,0,1,11.32.24c1.1.27,2.26-1.27,1.21-2.09-3.82-3-6.66-9.55-2.81-13.7,2.79-3,8.69-2.92,10.53,1,.59,1.28,2.73.37,2.28-1-.88-2.63,1.2-4.59,3.51-5.48a8.2,8.2,0,0,1,7.8,1.15c5.19,3.4,8.44,8.79,14.33,11.29a23,23,0,0,0,17.69.07,43.61,43.61,0,0,1,4.39-1.75,12.71,12.71,0,0,1,6.48.15c2.94.66,5.81,1.45,8.83.86,6.18-1.21,6.91-7.5,5.26-12.67-1.72-5.42-5.89-9.85-10.75-12.65-5.8-3.35-12.65-4.32-19.25-4.52-1.69,0-3.38,0-5.07,0s-3.55.56-4.28-1.41c-.94-2.54.53-5.58,2.57-7.1,5.58-4.16,13.62-2.35,19-7.15,2.51-2.23,3.25-5.26,3.24-8.52,0-1.95-.3-4.07.36-5.95.58-1.69,2-3.68,4-3.23a1.27,1.27,0,0,0,1.42-1.84c-2.37-3.68-.37-9.07,4.07-9.88,4.29-.78,8.27,2.77,11.32,5.27,3.47,2.83,6.85,5.65,11.2,7,4.87,1.52,9.63,1,14.46-.35s9-2,13.87-.81a79.11,79.11,0,0,1,12.52,4.73c7.18,3.12,15.14,6.28,23,3.5,5.15-1.83,9.22-5.8,14.35-7.61,4.14-1.45,10-1.3,12.15,3.21a1.26,1.26,0,0,0,2.28-.29c.64-4.71,1.64-11.37,6.49-13.63,6.12-2.85,12.16,3.44,17.43,5.6,3.91,1.61,9.33,2.47,12.68-.78a10.1,10.1,0,0,0,2.61-6.1c.36-2.53.27-5.49,2.41-7.26H400c4.06,4.78,8,9.66,12.19,14.35,1.35,1.53,2.9,2.92,5,3.14,2.58.27,4.86-1.19,7-2.42,5-2.85,10.63-5.13,16.46-4.56a14.41,14.41,0,0,1,11.78,7.74c.69,1.45,2.85.18,2.16-1.27-4.47-9.32-16.12-10.52-24.86-7.3a47,47,0,0,0-7.42,3.6c-1.43.83-3.05,1.88-4.77,1.7a5.34,5.34,0,0,1-3.39-2.18c-4.25-4.74-8.26-9.71-12.38-14.57a1.28,1.28,0,0,0-1.77,0c-4.25,3.51-1.16,10.6-5.49,13.76-4.75,3.46-11.36-1.11-15.45-3.44-4.81-2.75-10.8-4.91-15.6-.91-4,3.31-5.06,9-5.72,13.86l2.29-.3c-1.73-3.67-5.65-5.23-9.53-5.26-4.93,0-9,2.45-13.08,5-4.58,2.83-9.08,5-14.6,4.45-4.58-.46-9-2.33-13.15-4.15s-8.56-3.87-13.12-5a27.3,27.3,0,0,0-14.48.6c-5.76,1.64-11.39,2.17-16.89-.68-4.44-2.3-7.8-6.19-12-8.85-3.8-2.4-8.81-3.57-12.56-.37a9.22,9.22,0,0,0-1.8,11.74l1.41-1.83a5.65,5.65,0,0,0-6,2.73c-1.89,2.81-1.49,6-1.53,9.22-.09,8.44-8.4,9-14.8,10.58-5.26,1.27-10.76,4.66-10.26,10.84.15,1.82,1.22,4.52,3.23,5,1.57.34,3.62-.08,5.23-.09,2.05,0,4.1,0,6.15.15,7.21.46,14.56,2.29,19.94,7.38a18.86,18.86,0,0,1,5.21,8.1c1,3.23,1.31,7.77-2.55,9.06-3.57,1.2-7.23-.49-10.75-1s-6.24.41-9.37,1.76a20.78,20.78,0,0,1-20.38-1.74c-5.12-3.59-9-10.75-15.91-11.14-4.87-.28-11.3,3.61-9.42,9.19l2.28-1c-2.47-5.32-10.17-5.55-14.14-1.85-5.25,4.91-2.49,13.64,2.51,17.55l1.21-2.09a28.35,28.35,0,0,0-20.42,2.71c-2.8,1.52-7.48,4.44-9.73.52-1.74-3-.53-6.6.57-9.59,1.22-3.34,2.21-6.54,1.52-10.12-.65-3.36-2.37-6.56-3.95-9.56-2.7-5.15-7-10.36-13.45-9.53a7.62,7.62,0,0,0-6.26,4.69c-.79,1.82-1.36,7-4,6.77l1.08.62c-3.2-5-3.68-11.13-6.44-16.35-2.18-4.13-6.48-8.19-11.45-8-11.2.3-10.47,16.81-11.07,24.35l-1.88,23.63a1.25,1.25,0,0,0,1.58,1.2,33,33,0,0,1,20.5-.42l-.87-.87c.53,2.86-1.2,5.44-2.75,7.68s-3.4,4.56-4.27,7.26a9.31,9.31,0,0,0,1,7.59c1.11,2,5.07,6.22,2.88,8.46l1.22-.32a156.72,156.72,0,0,0-54.15-3.87c-1.58.16-1.6,2.66,0,2.5Z"/><path class="cls-2" d="M430.33,144.76a156.48,156.48,0,0,0-54.15,3.87l1.22.32c-2.16-2.2,1.63-6.23,2.74-8.22,1.39-2.47,2.06-5.06,1.16-7.83s-2.59-4.83-4.14-7.06-3.43-4.94-2.88-7.88l-.88.87a33,33,0,0,1,20.5.42,1.26,1.26,0,0,0,1.59-1.2l-1.66-20.87c-.46-5.8-.43-11.92-1.82-17.59-1-4.09-3.32-8.28-7.73-9.29-4.88-1.13-9.4,2.19-12.08,6-3.83,5.45-4,12.57-7.55,18.18l1.08-.62c-2.46.17-3-4.09-3.6-5.81a8,8,0,0,0-4.7-5.19c-5.84-2.15-11.08,1.91-14,6.64-3.56,5.71-6.92,12.47-4.81,19.26,1,3.27,2.84,6.49,2.35,10a5.17,5.17,0,0,1-2.14,3.85c-1.93,1.17-4.21.21-6-.69-3.57-1.78-6.8-3.62-10.78-4.35a28.36,28.36,0,0,0-12,.37l1.22,2.08c5-3.91,7.74-12.61,2.5-17.54-4-3.72-11.67-3.46-14.14,1.85l2.29,1c1.63-4.86-3.14-8.49-7.48-9.09-5.88-.81-10.18,3.93-14,7.68-5.15,5-11.69,8-19,6.75-3.39-.6-6.28-2.53-9.6-3.3-3.73-.86-7.19.53-10.83,1.14-3.48.58-7.71-.17-8-4.4a15.18,15.18,0,0,1,2.64-9.23c3.81-5.89,10.32-9.1,17-10.4a61.19,61.19,0,0,1,11.86-.89c1.68,0,3.8.44,5.43.11a4,4,0,0,0,2.37-1.87c3-4.5-.43-10.26-4.66-12.37-5.56-2.78-16.79-1.63-19-9-1.13-3.78.47-7.83-1.36-11.49-1.27-2.53-3.67-4.31-6.57-3.66l1.41,1.83a9.22,9.22,0,0,0-.78-10.7c-2.7-3.27-7.17-3.67-10.9-2.09-4.41,1.86-7.78,5.51-11.59,8.29a20,20,0,0,1-15.66,3.79c-2.94-.56-5.73-1.7-8.68-2.21a22.68,22.68,0,0,0-6.88-.12c-4.62.6-8.95,2.36-13.19,4.19s-8.45,3.84-12.95,4.94a19.66,19.66,0,0,1-14.56-1.82c-4.86-2.64-9.24-6.36-14.94-6.91-4.34-.42-9.12,1-11.09,5.18l2.28.3c-.65-4.85-1.74-10.55-5.72-13.86-4.8-4-10.78-1.84-15.6.9-4.09,2.34-10.69,6.91-15.44,3.45-4.34-3.16-1.24-10.25-5.5-13.76a1.28,1.28,0,0,0-1.77,0c-4,4.78-8,9.66-12.18,14.35a6.63,6.63,0,0,1-3.06,2.36c-1.77.44-3.53-.66-5-1.49a52.6,52.6,0,0,0-7.73-3.77c-8.73-3.22-20.39-2-24.85,7.3-.69,1.45,1.46,2.72,2.16,1.26,2.17-4.54,6.84-7.24,11.77-7.73,5.83-.58,11.51,1.71,16.46,4.56C58.76,44.76,61,46.18,63.5,46c2.17-.15,3.81-1.6,5.18-3.16,4.14-4.71,8.12-9.57,12.18-14.35H79.09c2.11,1.74,2,4.6,2.39,7.1.32,2.3.91,4.58,2.63,6.26,3.36,3.25,8.77,2.39,12.68.78,5.29-2.17,11.3-8.44,17.43-5.6,4.86,2.24,5.86,8.94,6.49,13.62A1.26,1.26,0,0,0,123,51c1.88-4,6.77-4.57,10.66-3.64,4.62,1.1,8.39,4.43,12.53,6.58,8,4.14,15.95,2.3,23.85-1s16.3-8,25.21-5.94c4.93,1.14,9.37,2.84,14.52,2.12a24.57,24.57,0,0,0,11.94-5.51c3.57-2.82,7.6-7.28,12.44-7.63,5.25-.37,8.54,5.63,5.75,10a1.27,1.27,0,0,0,1.41,1.84c3.86-.87,4.46,4.89,4.43,7.36-.05,3.14-.09,6.27,1.89,8.91,3.68,4.88,10.28,5,15.66,6.5,3,.84,6.08,2.31,7.14,5.49a5.72,5.72,0,0,1,.17,3.47c-.64,2-2.18,1.67-4,1.63-7-.13-14.28.13-20.89,2.72a25.59,25.59,0,0,0-12.79,10.52c-2.43,4.14-4.51,11.69.08,15.14,5.69,4.29,12.35-1.15,18.41.37,3.21.8,6,2.63,9.28,3.22a23.57,23.57,0,0,0,8.78-.1,22.15,22.15,0,0,0,9.09-4.11c2.72-2.07,4.92-4.7,7.5-6.93s5.36-3.89,8.72-3.1c2.68.63,5.72,2.72,4.68,5.82-.45,1.33,1.68,2.26,2.28,1,1.84-4,7.74-4,10.52-1,3.85,4.15,1,10.71-2.81,13.7-1,.81.11,2.36,1.22,2.09a26.08,26.08,0,0,1,19.07,2.77c2.38,1.31,5,2.8,7.82,2.48a6.37,6.37,0,0,0,5-3.6c2.52-5.09-.54-10-1.82-14.9-.95-3.6.05-6.89,1.59-10.17a42.28,42.28,0,0,1,4.36-7.84c1.77-2.33,4.15-4.18,7.17-4.3a5.57,5.57,0,0,1,5.86,3.89c.72,1.92,1.1,4.07,2.28,5.78.83,1.21,2.67,2.48,4.21,1.76,1-.45,1.47-1.92,1.91-2.82a35.63,35.63,0,0,0,1.6-4c1-3.06,1.75-6.28,3.12-9.22,2.25-4.86,8.89-10.77,13.94-5.71,2,2,2.74,5,3.2,7.63.64,3.66.74,7.43,1,11.13l2,24.81,1.58-1.21a35.4,35.4,0,0,0-21.83-.42,1.23,1.23,0,0,0-.87.87c-.87,4.68,2.17,8.35,4.65,12,1.3,1.9,2.78,4.07,2.73,6.47-.06,2.69-2.11,5-3.42,7.25-1,1.76-2.12,3.88-1.39,6a3.39,3.39,0,0,0,1.74,2.1c1.18.38,3.56-.71,4.75-1a151,151,0,0,1,23.46-3.35,153.93,153.93,0,0,1,25.94.54c1.59.16,1.58-2.34,0-2.5Z"/></g></g></g></svg>