<svg xmlns="http://www.w3.org/2000/svg" viewBox="0 0 194.2 473.35"><defs><style>.cls-1{opacity:0.37;}.cls-2{fill:#702a2c;}</style></defs><g id="Calque_2" data-name="Calque 2"><g id="Calque_1-2" data-name="Calque 1"><g class="cls-1"><path class="cls-2" d="M3.56,292.91a6.71,6.71,0,0,1-.49-1.8c.07-3.19.39-6.39.31-9.57-.12-4.54-.53-9.06-.74-13.59a5.26,5.26,0,0,1,.61-1.77l.8.22c-.73-6.54-1.45-13.09-2.2-19.63-.36-3.08-.26-5.91,1.85-8.59.82-1,.43-3,.63-4.51.11-.74.31-1.48.58-2.72-1.35-2.06.25-5.44,3.42-6s6.54-1.06,9.74-1.88a19.71,19.71,0,0,0,5.62-2.4,22.56,22.56,0,0,1,9.46-3,11.62,11.62,0,0,0,3.13-1.41c1.48,1.65,1.48,1.65,2.83.38l-1.55-.3-.16-.54L51.18,209l2.18,1.85c-3.77,3.17-7.62,6.26-11.28,9.56-2.12,1.91-3.9,4.18-5.9,6.24a11.21,11.21,0,0,1-2.11,1.61c-4.5,2.88-9,5.73-13.53,8.6l.32,1.06c1.23-.08,2.59.13,3.63-.34s2.3-.13,3.3-.24c5.35-.61,8.9-4.34,13.29-6.57,2.8-1.41,5.78-2.48,8.55-3.95,3-1.56,5.76-3.42,8.63-5.15,1.89-1.13,3.78-2.27,5.68-3.38s3.89-2.25,6.36-3.67A29.2,29.2,0,0,0,76,213.2a117.59,117.59,0,0,0,12.87-6.39c5.8-3.44,11.29-7.4,17.06-10.91,4.68-2.85,9.57-5.37,14.36-8a3.19,3.19,0,0,0,.46-.2c7-5.3,15.68-6.2,23.78-8.13,3.84-.92,8.55-2.51,12.73.15l1.83,1.19c-3.8,3.89-7.46,7.65-11.14,11.39-4.95,5-9.89,10.07-14.88,15.06-2.49,2.5-4.81,5.3-7.7,7.24a74,74,0,0,1-12.28,6.53c-8.07,3.43-16.23,6.71-24.49,9.65-7.75,2.75-15.67,5.06-23.56,7.4-6,1.77-12,3.35-18,4.88-1.71.43-3.6.17-5.3.62a66.26,66.26,0,0,0-6.36,2.4c.49.55.59.76.67.75a25.12,25.12,0,0,1,9.27,0c3,.67,6.42-.53,9.65-1,3.88-.57,7.74-1.29,11.63-1.84,3.28-.46,6.62-.58,9.87-1.19a57.82,57.82,0,0,0,9.37-2.52,86.45,86.45,0,0,0,12.19-5.32c3.16-1.77,6.11-.33,9.14-.45,3.22-.13,6.45-.23,9.67-.2,3.7,0,7.51-.34,11,.46,4.61,1,9.27,1.14,13.89,1.75a35.9,35.9,0,0,1,13.46,4.67c3.92,2.26,8.22,3.85,12.29,5.85,1.85.91,3.43,2.45,5.34,3.08,1.76.57,3.68.6,5.06,2.08.43.46,1,.83,1.37,1.31,3.6,4.26,7.13,8.57,10.8,12.76,1,1.08,2.44,1.69,3.42,2.76.51.56.45,1.63.65,2.48l-2.33.44c-.72.61-1.43,1.69-2.33,1.88-6.3,1.34-12.48,3.5-19,3.25-3.31-.13-7.11.52-9.8-.87-3.53-1.83-7-.74-10.37-1.53q-9.8-2.29-19.55-4.8c-10.28-2.63-20.53-5.4-30.82-8-5.92-1.48-11.9-2.67-17.85-4-1.15-.27-2.26-.74-3.39-1.11l.07-.7c4.85,0,9.71.17,14.54-.06,3.86-.19,7.7-.87,11.55-1.34,1.72-.2,3.57-.9,5.13-.49,2.39.63,4.68.06,7,.26,2.78.25,5.54.74,8.32,1,5.68.54,11.38.84,17,1.54s11.26,1.84,16.92,2.6a86.15,86.15,0,0,0,12,.73,5.31,5.31,0,0,0-1.39-.73c-3.42-.61-6.88-1.06-10.28-1.75-6.33-1.29-12.59-2.89-18.93-4-6.51-1.17-13.06-2.23-19.64-2.8-7.51-.65-15.08-.81-22.62-1-6.44-.16-12.9-.4-19.31,0-8.73.58-17.43,1.73-26.14,2.71-2,.23-4,.79-6.06,1.17a20,20,0,0,1-10.66-1.14,19.89,19.89,0,0,0-2.48-.54c.53,1.6.61,1.36,1.8,1.75,2.12.69,4.12,1.71,6.18,2.59l-.28.57-3.86.6-.3.74c2.78,1.37,5.54,2.81,8.36,4.1,2.32,1.06,4.71,2,7.09,2.91.38.15.92-.16,1.31,0,1.41.45,2.8,1,4.19,1.51l-.24.58c.67-.2,1.68-.79,2-.55,2.66,2.3,6.11,1.74,9.09,2.13,5.42.72,10.39,2.56,15.47,4.24,3.69,1.22,7.51,2.06,11.21,3.24a24.11,24.11,0,0,1,3.68,2,1.41,1.41,0,0,0,.84.11c1.67-.26,3.07-.17,2.83,1.56a9.08,9.08,0,0,1,2.82-.08c2.74.89,5.78,1.48,8,3.08,3.17,2.22,7,2.21,10.18,3.89a15.55,15.55,0,0,0,8.53,1.7c3.35-.2,5.88,2.11,8.62,3.76a78.75,78.75,0,0,0,8,3.77l.31-.61-1.61-2.08c-5.84-1.17-10.52-4.37-15.61-6.27s-10.19-4.12-15.27-6.24c-5.27-2.2-10.85-3.78-15.88-6.4S90.5,271.18,85.24,269s-10.62-4.07-15.93-6.37a7.91,7.91,0,0,1,1.54,0c6.58,1.37,13.14,2.8,19.73,4.13,4.58.93,9.2,1.66,13.77,2.6,3.38.69,6.72,1.6,10.09,2.37,1.13.26,2.3.35,3.44.55,2.27.41,4.58.7,6.8,1.31,6.06,1.67,12.1,3.44,18.12,5.26a19.62,19.62,0,0,1,7.18,3.64c8.83,7.37,16.09,16,22.71,25.33,1.45,2,3.89,3.36,5.75,5.13a13.19,13.19,0,0,1,1.9,2.77,10.19,10.19,0,0,1,.69,1.48,22.38,22.38,0,0,1-4.47.91,41.77,41.77,0,0,1-7.05-.6c-4.83-.8-9.63-1.86-14.47-2.62a61.56,61.56,0,0,0-9.76-.94c-11,0-20.49-5.61-31-7.49a9.85,9.85,0,0,1-2.72-1.22c-4.31-2.29-9.08-3.1-13.78-4.06-3.85-.8-6.68-3.11-9.4-5.63a35.56,35.56,0,0,1-3.06-3.62l.49-.36c-.29-1.41-.57-2.78-.86-4.15l.75-.64c3.36,1.11,7,1.81,10,3.47a26.35,26.35,0,0,0,8,2.43c1.75.33,3.39,1.21,5.13,1.66,6.22,1.61,12.45,3.22,18.71,4.65a28.67,28.67,0,0,0,7.26.5,36,36,0,0,0-5.46-2.85c-6.93-2.27-14-4.28-20.9-6.51-4.14-1.33-8.18-3-12.32-4.34-2.79-.9-5.68-1.51-8.53-2.26-1.13-.29-2.12-.53-2.19-2.12-.1-2.45-1.59-4.14-3.64-5.46a34.53,34.53,0,0,1-3.24-2.65c.16-.06-.22.17-.61.17-2.83,0-5.4.39-7.87,2.25-2.15,1.61-4.68.84-6.84-1A17.94,17.94,0,0,0,59,272.33c-2.69-1.19-5.46-2.18-8.16-3.34-6.59-2.84-13.17-5.72-19.75-8.59a18.45,18.45,0,0,1-2.88-1.35c-1.73-1.14-1.69-1.19-4.15,0,2.3.93,2.49,2.69,2.07,4.61-1,4.38,1.73,7.87,2.92,11.72.11.38.82.71,1.3.79a4.06,4.06,0,0,0,1.72-.18c3.92-1,7-.23,9.05,3.54.37.69.79,1,1.94,1.09a74.64,74.64,0,0,1,12.06,2,26.29,26.29,0,0,1,7,3c3,1.83,4.91,2,7.75-.31,1.82-1.45,3.4-3.22,5.32-4.52s4.65-1,5.51-.1c-1.75,3.63-3.35,7-5.06,10.4-.31.6-1.1,1.37-1.66,1.36-4.89-.05-9.87.3-14.62-.56-7.78-1.41-15.51-3.29-22.7-6.81a14,14,0,0,0-4.78-1.33c-.69-.07-1.61.85-2.2,1.52a31.7,31.7,0,0,0-2.61,3.57c-.69,1-1.78,2.14-1.8,3.22-.05,4.57-2.59,7.82-5.5,10.89-.29.31-1.51,0-2.1-.27a36.14,36.14,0,0,1-3.4-2.36l-.56.59c.76.66,1.57,1.28,2.26,2a9.05,9.05,0,0,1,2.27,2.76c.75,2.09-.64,3.43-2.85,3.32s-4.3-.42-5.65-2.57c-.29-.46-1.34-.66-2-.63a10.83,10.83,0,0,1-6.32-2.12,1.86,1.86,0,0,1-.65-1.47c.17-2.39-.89-5.08,1.81-6.93.6-.42.65-1.62.95-2.45L10,296.75a25.48,25.48,0,0,0-4-4.89C4.63,290.58,3.58,290.76,3.56,292.91Zm142-110.14-.56-1c-3.17,1.46-6.38,2.84-9.51,4.39q-14.79,7.33-29.52,14.77c-4.28,2.15-8.53,4.34-12.78,6.52C88.09,210,83,212.62,78,215.25c-3.52,1.83-7,3.69-10.47,5.62a28.4,28.4,0,0,0-3.05,2.24,183.3,183.3,0,0,0,41.88-17.26C119.54,198.42,133.8,192.62,145.53,182.77ZM7.18,259l.49.77a17.22,17.22,0,0,0,9-.48c1.52-.47,2.38-1.14,2.25-2.34-.34-3.29,1-5.86,2.5-8.65.65-1.24,0-3.8-1-5.06-.76-1-3-1.29-4.48-1-.93.17-1.74,1.82-2.3,3a46.72,46.72,0,0,0-1.85,5c-.41,1.18-1.35,2.54-1.06,3.53.72,2.41,0,3.75-2.18,4.68C8.06,258.49,7.62,258.73,7.18,259Zm1.09,20.69c.22,1.07.36,2,.62,3,.84,3,1.45,3.37,3.23.95,2.71-3.68,6.34-6.85,7.15-11.81.29-1.76,0-3.13-1.14-3.88a7.68,7.68,0,0,0-4.24-.88c-1.56.06-2.49,1.06-2.26,2.85.08.57-.36,1.21-.57,1.82Zm22.94-40.08-.16.71a5.62,5.62,0,0,0,2.2.33c2.23-.59,4.37-1.52,6.61-2.06,3.44-.83,7-1.16,10.39-2.22a128.65,128.65,0,0,0,14.64-5.46c5.08-2.32,9.9-5.2,14.85-7.82,1.09-.58,2.2-1.11,3.74-1.88-.75-.11-.93-.19-1-.14-9.66,3.72-19.28,7.54-29,11.17-5,1.87-10.12,3.43-15.19,5.14a2.69,2.69,0,0,0-.8.43A8,8,0,0,1,31.21,239.56Zm43.66-9.81a5.87,5.87,0,0,0,1.89-.13c3.22-1.34,6.38-2.82,9.6-4.15,1.65-.68,3.51-.93,5.06-1.76,4.48-2.39,9-4.84,13.24-7.56,2-1.25,4.33-1.36,6.22-3.14a35.91,35.91,0,0,1,6.28-4.74c.18-.11.24-.41.65-1.14C102.32,213.18,89.61,223.34,74.87,229.75ZM19.94,286.68a4.26,4.26,0,0,0-1,.19,10.27,10.27,0,0,0-4.2,4.19c-.58,1,.56,2.68,1.61,2.21a51.66,51.66,0,0,0,6.38-3.64c.22-.14.14-1.33-.17-1.56A15.4,15.4,0,0,0,19.94,286.68Zm115.19-44.25-.18-.79-15.68-.86-.1.72,4,1.49A35.23,35.23,0,0,1,135.13,242.43ZM20.65,227.88l-.25,1,3.07,1c.31-2,4.6-1.47,3.1-4.58l-.91,1.2-2-1.33-.41.57.89,1.45Zm122.2,73.6-5.4-1.46-.3.61,3.89,2.66Zm6.46,5-4.58,1.19C148.05,309.08,149.41,308.61,149.31,306.48Z"/><path class="cls-2" d="M25.28,410.49l-.3,4.22-1.05-.12.48-2.9c-.86-.16-1.72-1-1.65,1.14s-.38,4.07,1.46,6.07c.88,1,0,3.51-.14,5.44l-2.47,1.16,1,2.25.59-.14L23,426.24c2.89-.52,3.06,1.82,3.67,3.47C29.36,437,32,444.32,34.6,451.63c1.75,4.9,3.13,9.95,5.3,14.66,1.08,2.35.36,2.8-1.68,3.36l.57,3.05c-3.64-3.76-7.61-7.52-11.16-11.64-3.34-3.88-6.33-8.08-9.3-12.26a13.14,13.14,0,0,1-1.62-4.32c-1.17-4.59-2.45-9.18-3.29-13.84-1-5.65-1.62-11.37-2.4-17.06a1.49,1.49,0,0,1,0-.73c1.83-3.88-.64-7.44-.76-11.14-.14-4.25-2.45-7.09-4.63-10.32-1.41-2.08-1.74-4.88-2.56-7.35-.7-2.1-1.56-4.16-2-6.31a36.59,36.59,0,0,1-1-7c-.13-4,0-8,.11-12,.1-3,.55-6,.64-9,.16-4.94.11-9.89.27-14.83,0-1.9.56-3.78.63-5.67s-.16-3.7-.21-5.56a10.21,10.21,0,0,1,.15-2c.24-1.38.83-2.59-.14-4.14-.6-1,0-2.68.07-4.05,0-.72.14-1.43.25-2.54,2.12.81,4.5,1.77,6.93,2.64,3,1.07,5.14,3.16,7.25,5.37a.85.85,0,0,0,.68.24c3.59-.92,4.65,1.85,6.11,4a1.31,1.31,0,0,0,.55.47c2.81,1.12,5.65,2.17,8.44,3.35a27.23,27.23,0,0,1,4.33,2.23c2.06,1.34,4,2.87,6,4.3.63.46,1.29.87,1.94,1.3l-.27.86-5.54-1.29c.63,1.12.81,2,1.32,2.28C46.38,340.7,49.9,348,56.08,352.42c2.76,2,5.71,3.76,8.53,5.67.79.54,1.44,1.29,2.18,1.9,4.5,3.66,9,7.35,13.52,11,2.19,1.73,4.44,3.39,6.76,4.95a20.31,20.31,0,0,0,3.49,1.44c2,2.06,2.8,5.37,6.18,7.05s6,4.17,8.94,6.33a45.73,45.73,0,0,0,3.7,2.73,4.27,4.27,0,0,0,2.94.27c-2-1.87-4.28-3.51-5.89-5.65-5.42-7.21-13.05-12-19.61-17.92-3.64-3.3-7.16-6.76-11-9.78-8.55-6.68-17.28-13.14-25.95-19.67a23.66,23.66,0,0,0-2.13-1.24c-1.61-1-4.19-1.34-2.44-4.39a31.29,31.29,0,0,0,3.63,2.4c3.25,1.61,6.61,3,9.86,4.62A24.15,24.15,0,0,1,64,345.18c2.19,1.89,5.06.82,7.41,2.22a72.33,72.33,0,0,1,11.2,8c2,1.79,3.45,4.6,6.84,4.95,1.26.13,2.5,1.72,3.48,2.87,2.41,2.83,6,3.9,8.85,5.94,1.08.76,1.15,2.91,1.73,4.59,4,0,6.61,2.46,8.92,5.6.82,1.13,2.42,1.67,3.51,2.64,3.87,3.47,7.68,7,11.49,10.54,3.29,3.06,6.62,6.1,9.79,9.29,5.1,5.14,10.1,10.37,15.1,15.61a18,18,0,0,1,1.73,2.56c-2.9,2.95-2.9,3.55,0,6.19,1,.89,2.11,1.67,3.17,2.5l-1,1.12c-1.09-.87-2.13-1.82-3.28-2.6a13.82,13.82,0,0,0-3.49-2c-5.39-1.69-11-1-16.52-1.43-7.23-.53-13.61-2.67-18.25-9-2.49-3.42-6.32-5.89-9.64-8.68-3.83-3.21-7.8-6.26-11.64-9.45-2.5-2.08-4.79-4.42-7.4-6.35-1.51-1.12-3.6-1.5-4.16-3.67,0-.11-.31-.27-.4-.23-3.09,1.32-3.93-2.09-6-2.87-.54-.2-.74-1.27-1.19-2.1-5.15.65-8-3.29-11.55-6.06C57,370.91,51.32,366.33,45.49,362A113.54,113.54,0,0,0,35,355a82.38,82.38,0,0,0-7.7-3.5c-1.45-.66-2.87-1.38-4.52-2.17a82.58,82.58,0,0,1,6.31,5.91c2.34,2.66,4.75,5.09,8.22,6.27.34.11.8.48.83.77.24,2.68,2.43,4.91,1.75,7.86-.16.67.74,1.58,1.16,2.38l1-.41c-.37-1.8-.75-3.61-1.12-5.41l.68-.22c1.28,1.33,2.55,2.66,3.83,4A11.48,11.48,0,0,0,47,372c3.41,2.38,6.91,4.63,10.24,7.11.9.68,1.28,2,1.9,3.08l-6-.81v-3.44a8.53,8.53,0,0,0-2.5,3.13c-.06.12.29.48.48.7s.55.54.84.8c.45.39.85,1,1.37,1.11,1.1.31,2.29.3,3.4.58,2.1.52,2.82-.09,2.37-2.14,2.27.33,4.56.59,5.46,3.44l-2.75,2.87,1.93-.26.7,3.46L61.26,389c0,1.83,4.76,5.43,7.33,4.95l-2.29-.64.38-.59,2.4-.13.16-.79L66.13,391l-.61-1.28L68,390l-2.69-2.94.47-.59C72.27,389,76,395.56,82.42,398.41l-1.08,1.48c.14.19.25.43.32.42,2.09-.26,2.57,1.58,2.92,2.74.73,2.46,3.59,3.8,3.3,6.92-.08.82,2.4,1.87,3,3,.64,2,1,4.06,2,5.82,3.33,5.92,6.81,11.76,9.09,18.19.57,1.59,1,3.41,3.83,3.45l-1.53,3.82-.83.38,9.74,6.79-.24.42-13.46-6.91.18,2.91L96.43,446c-2.17-1.21-4.42-2.3-6.47-3.69a7.1,7.1,0,0,1-2.21-2.9c-1-2.22-5.48-5.09-8.23-5,0-1.33.42-3-2-1.74-.27.14-1.42-.73-1.41-.75.79-1.55-.6-2-1.41-2.53-3-2.11-4.3-5.69-7-8.07a10.6,10.6,0,0,1-2.24-2.3c-1-1.68-2.94-2.65-3.07-5.17-.08-1.48-2.08-3-3.47-4.23-3.08-2.73-4.68-6.24-6.41-9.85-1.57-3.27-4-6.18-6.23-9.1-2-2.56-4.48-4.75-6.32-7.4-2.82-4-5.38-8.26-7.83-12.53s-4.78-9-7.22-13.42A16.38,16.38,0,0,0,23,355c-1.88,2.16-1.12,4.13-.57,6.1s1.14,4.17,1.71,6.25l-1.25.47c-2.27-4.65-4.36-9.39-6.84-13.92-4.66-8.47-5-17.72-5.57-27a42.86,42.86,0,0,0-1.58-7.42c-.11-.46-.61-.83-1.28-1.19.27,2.53-1.86,4.69-.49,7.38.65,1.28.41,3,.54,4.55a102.52,102.52,0,0,0,1,10.69c.74,3.88,2.09,7.65,3.21,11.46.42,1.44.9,2.87,1.45,4.26.26.67.61,1.65,1.14,1.81,3.12.94,2.57,3.81,3.39,6l1,2.62v2.76l.7-.59c1.19.6,2.65.94,3.52,1.84a16.64,16.64,0,0,1,4.52,7.38c1.45,5.39,3.43,10.64,5.29,15.92.51,1.45,1.48,2.74,2,4.18.27.69-.08,1.59.09,2.34.9,3.89,1.87,7.77,2.82,11.65a11.49,11.49,0,0,1,.7,2.95c-.09,2.19,1.14,2.56,2.51,2.54-.28-2.83-.5-5.58-.82-8.33a16.88,16.88,0,0,0-.81-4.14c-1-2.42-1.85-4.73.68-7.68,1,2.49,2.1,4.45,2.53,6.54.94,4.55,1.63,9.16,2.21,13.76.41,3.25.5,6.54.7,9.81s.4,6.71.53,10.07a2.73,2.73,0,0,1-.86,1.89v-6.4c-1.48.8-2.86-1.68-4,.6-.13.26-.58.5-.55.68.63,2.91.46,6.07,3,8.4.61.56.72,1.82.77,2.77.12,2.11,0,4.24,0,6.36l-.89,0-.15-3.46c-1.15,1.28-2,2.26-3.21,3.61l4.37,1.07v13.6c-1.9,1.69.43,4.44-1.75,6.19-.19-1.47-.4-2.7-.51-3.94a42.57,42.57,0,0,0-.3-4.82c-.77-3.91-1.86-7.76-2.58-11.67-.37-2-.15-4-1.8-5.74-.54-.56-.22-2-.15-3,.24-3.45-2.72-5.58-3.57-8.59-.63-2.28-1.44-4.51-2.19-6.76-1-2.87-1.94-5.73-2.9-8.59-.89-2.62-1.74-5.26-2.66-7.87a12.46,12.46,0,0,0-1-1.76c.41-1.39-1.5-8.58-2.56-9.31a1.53,1.53,0,0,0-1.36-.14c-.4.3-.88,1.11-.72,1.39.73,1.36,1.66,2.62,2.58,4-1,1.26-1.09,1.6.06,3.42C23.46,410.37,24.55,410.32,25.28,410.49Zm78.54-9.18c.4-1,.71-1.75,1-2.52l2.05,1.52,3.27,2.4c-.39-1.49-.38-2.49-.85-3.12-4.24-5.66-9.83-10-15.18-14.49-3.49-2.94-7.28-5.53-11-8.19-2.48-1.76-5.11-3.32-7.61-5.05-3.38-2.34-6.72-4.75-10.07-7.15-4.34-3.12-8.73-6.19-13-9.42-5.59-4.23-12.84-5.8-17.86-11-.66-.69-2.13-.63-3.23-.92l-.36.8c1,.67,2,1.92,2.9,1.89,2.56-.09,2.7,2,3.66,3.31a15.07,15.07,0,0,1,7.24,4.39,5.92,5.92,0,0,0,1.38,1.4c2.54,1.92,5.12,3.8,7.66,5.71,3.94,3,7.85,5.93,11.78,8.9,3.54,2.67,7.1,5.32,10.62,8,2.47,1.88,4.88,3.83,7.35,5.71,1.48,1.14,3,2.18,4.53,3.3,2.21,1.64,4.4,3.28,6.56,5,.21.17.1.73.16,1.36l-4.61-3.09-.64.95,5.91,4.24L97,393.09c.65,1.89.72,3.8,1.72,4.69,2.75,2.42,2.9,2.25,4.21,1.46-.62-.38-1.2-.67-1.71-1.06a22.33,22.33,0,0,1-1.67-1.51C102.4,396,102.4,396,103.82,401.31Zm-33.93,9,.69-.76c-1.07-1.22-2.19-2.4-3.2-3.65-2.42-3-4.75-6.06-7.2-9-1.5-1.82-3.18-3.5-4.75-5.27-2.32-2.59-4.51-5.29-6.94-7.77a37.19,37.19,0,0,0-5.23-4.27c-.33-.23-1.29.41-2,.65a29.81,29.81,0,0,0,2,4.22,27.13,27.13,0,0,0,2.82,2.74c.76.82,1.2,2,2.07,2.61,3.35,2.28,4.31,6.93,8.87,8.2,1.5.42,2.71,2.8,3.5,4.52C62.52,406.73,67.22,407.22,69.89,410.34ZM43.16,426.8c-.74-.82-1.43-1.23-1.5-1.73-.13-1,.31-2.14.08-3.11-.37-1.51.06-3.87-2.87-3.53L38.55,424l.74-.07L40.55,430Zm-31.6-56.39c-.57,4.92,2,8.88,4.06,13C14.46,379,14.38,374.31,11.56,370.41Zm61.63,29.4v.78c1.33.24,2.72,2.1,4,0,.64-1.11,2.46-2.44.94-3.73s-3.06.12-4.58,1.22l2.95,1.77Zm17,24.65.28-.82L85.21,422c.33-.62.53-.75.61-.69,1.22.8,1.58-.21,1.83-1,.07-.23-.65-1-1-1-.8,0-2-.24-1.5,1.42.22.74-.23,1.68-.38,2.58Z"/><path class="cls-2" d="M22.26,147.82c-1.35-2.21-.53-4.13,1-5.83,1.66-1.91,3.57-3.6,5.18-5.54.62-.76.61-2,1.08-2.92,1.21-2.39,2.46-4.75,3.82-7a14.7,14.7,0,0,1,2.33-2.78c1.24-1.26,2.63-2.18,2.31-4.47-.11-.83,1.87-1.94,3.24-3.26-.88-2.3,1.55-4.12,3-6.11,1-1.43,1.59-3.37,3.87-4.09,1-.33,1.71-2.56,2-4,1.1-4.77,5-7.65,7.47-11.51a14.44,14.44,0,0,0,.77-1.52c.68-1.41.92-3.18,3.14-3.21.43,0,1-.64,1.25-1.11,1-2.11,2-4.27,3-6.41a.65.65,0,0,1,.37-.3c3.18-.68,3-3.75,4.16-5.81a17,17,0,0,0,.88-2.37c-.75.42-1.3.55-1.56.89C65.05,76.32,60.39,82.19,56,88.26c-3.34,4.67-6.26,9.64-9.45,14.41-.6.9-1.79,1.4-2.42,2.29a29.28,29.28,0,0,0-3.28,5.36c-1.92,4.56-5.32,8-8.63,11.46a8.74,8.74,0,0,0-.63.94l-.71-1.13c-1,1.07-2.21,2.42-3.08.13,1.12-.9,2.5-1.52,3-2.57a4.62,4.62,0,0,0,0-3.54c-.87-2,.47-3.39.89-5a4.07,4.07,0,0,1,1.17-2c1.06-.86,2.45-1.34,3.44-2.26a11.43,11.43,0,0,0,2.12-3.07c.55-1,.83-2.23,1.31-3.31.65-1.5.61-3.37,2.87-4,.54-.15.56-2.21.89-3.67L47,92c-.48-1.34-1.41-3.06,1.22-3.61.24-.05.44-.64.52-1s-.18-1.09,0-1.19c2.63-1.56,2.07-4.82,3.81-6.84.05-.05.2-.11.19-.12-1.27-3.65,2.8-3.66,3.91-5.67.41-.75.4-1.7.76-2.49s-.06-1.94,1.43-2.78c2.75-1.54,4.87-4.13,7.51-5.89,3.33-2.22,4.65-6.2,8-8.33,1.17-.75,2.35-1.47,3.83-2.39.16,3.26,2.31,2.36,3.92,2.22,2.13-.19,2.57.7,2.42,2.6a22.87,22.87,0,0,0,.37,4.09c1.63-.21,3.28-.34,4.89-.66,1.44-.29,1.87-1.37,2.13-2.77.53-2.86,1.52-5.46,4.68-6.71.72-.28.95-1.76,1.32-2.51a13,13,0,0,0,3.49-.5c5.26-2.3,10-.23,9.85,5.92a31.66,31.66,0,0,1-6.06,18.4c-1.84,2.47-4.28,4.51-6.47,6.72-1.44,1.46-3.06,2.76-4.36,4.32-2.47,3-5.87,4.65-9,6.77-1.85,1.26-3.5,2.76-5.67,3.53-.93.33-1.85.69-2.74,1,.94,1.58.65,2.18-1.45,2.5-.52.08-1.28.22-1.46.57a8.54,8.54,0,0,1-4.27,4.47c-2.35,1.08-3.94,3.74-5.92,5.65a27,27,0,0,1-3.65,3c-.33.21-1.21-.41-1.89-.66,0,0-.18.17-.16.21,1.61,2.5-.28,3.4-1.73,5.13-1.71,2.06-4.69,3.11-5.31,6.1-.08.4-.84.67-1.3,1s-1.11.48-1.12.72c0,2.49-2.08,2.55-3.74,3.08l.57.46-3.56,4.39c-.12.14-.38.24-.4.39-.58,3.1-2.41,4.33-5.75,4l2.09,1.43c-2,2.59-4,5.33-6.17,7.89-1,1.2-2.73,1.86-3.71,3.08-1.32,1.65-5,1.88-3.49,5.35.1.22-.13.62-.26.91a48.17,48.17,0,0,1-3,6.36c-1,1.49-2.59,2.56-3.81,3.71a15.9,15.9,0,0,1-.89,3.23c-1.17,2.26-2.49,4.44-3.8,6.61-1,1.6-2.08,2.85-4.23,1.52-.53-.33-1.41-.12-2.12-.15l-.17.79,3.23.76a17.27,17.27,0,0,0-1.94,2.2,29.72,29.72,0,0,0-1.43,3c-.46.95-.95,1.89-1.43,2.84l-.84-.23c-.49-1.34-1-2.67-1.48-4-.61-1.76.22-3.28.94-4.76.65-1.32,1.51-2.53,2.27-3.79l-.64-.42-1.39.94c-.6-1.41-1.29-2.75-1.74-4.16-.73-2.28.58-5.37,2.53-6.83a3.43,3.43,0,0,0,.82-2c.19-1.17.15-2.38.3-3.56a6.59,6.59,0,0,1,.6-1.47l2,1,1.38-2.25c-3.08-1.42-3.46-2.68-2.51-7.57l2.77,2.07,2-5.66,1.26.2,1.2-3.56,1.6,2.33,1.56-3.72-1.28-.39,2.22-4,.49.23-.5,1.28c2.72.16,4-1.19,3.47-3.69s.61-3.28,4.05-2.23l-1.52,2.13c2.71,2.42-.46,4.09-1.39,5.83-1.16,2.18-3.37,3.79-4.72,5.91-1.46,2.28-2.41,4.88-3.67,7.31-.48.92-1.23,1.71-1.79,2.6A33.17,33.17,0,0,1,10.85,155a4.49,4.49,0,0,1-1.57.91L6.41,169.17c1.76-1.83,4-3.65,5.55-5.94,1.39-2.08,1.95-4.69,2.93-7,.38-.91.91-1.76,1.29-2.49,1,0,1.87,0,2.75,0a1.79,1.79,0,0,0,.13-.86,20.63,20.63,0,0,0-2-.62c1.53-1.67,2.42-4.14,5.3-4.43.08.64.17,1.28.26,1.92a5.55,5.55,0,0,0,1.29-1.1,20.05,20.05,0,0,0,1.2-2.52ZM83.94,79.63l.34.18c.34-1.08.51-3,1-3.09,2.63-.51,3.47-2.88,5.16-4.31A17.14,17.14,0,0,0,93,69l.83.66c1.15-1.65,1.93-3.47,3.3-4.53a3.66,3.66,0,0,0,1.82-3,5.14,5.14,0,0,0-.27-1.18c-.39.16-.9.22-1.15.5-1.39,1.56-2.63,3.27-4.09,4.77q-6,6.16-12.11,12.18c-4.27,4.19-8.73,8.19-12.86,12.5-2.83,3-5.14,6.37-7.86,9.42-2.15,2.43-4.86,4.4-6.8,7a34.15,34.15,0,0,1-10.45,9.69l.51,2-4.18,2,.76.54c-1.22,2.34-2.45,4.68-3.88,7.4.79-.39,1.47-.52,1.82-.93,2.76-3.22,5.79-6.29,8-9.84,1.28-2,2.59-2.26,4.5-2.08-.33-2,1.75-4.59,3.26-5.11,1.68-2.25,2.81-3.79,4-5.29.09-.12.43-.08.65-.05,1.43.19,2.28-.47,2.32-1.83,0-.27,0-.79,0-.79,2.17-.23,2.15-2,2.94-3.47,1-1.9,3-3.32,4.48-4.9l3.41,1.65c-.12-1-.18-1.47-.23-1.93-.45-3.65-.06-3.89,3.27-5.75a12,12,0,0,0,4.54-4.52c.54-1,.7-1.86,1.92-2.15.3-.08.54-.45.8-.69Z"/><path class="cls-2" d="M8,128.73c-2.64.39-2.54.18-1.95-2.39a82.73,82.73,0,0,0,1.08-9.08c.53-4.49,1.09-9,1.64-13.47l.7.09-1,9.18c2.48-2.09,3.7-3.83,3.88-6.56.14-2.2,1.4-4.32,2.07-6.5,1.17-3.87,2.05-7.84,3.47-11.62A24,24,0,0,0,19.42,78.3c-.14-2.51,1.31-5.11,2-7.68.29-1.1.48-2.22.69-3.34.31-1.58-.46-3.41,1.86-4.46.76-.34.7-2.52,1-3.87.75-3.89,1.46-7.8,2.21-11.69.44-2.31.93-4.61,1.4-6.92l-.61-.15c-.18.16-.53.34-.52.47.54,5-3.76,8.35-4.4,13.05-.62,4.5-2.29,8.87-3.47,13.3-1.65,6.16-3.37,12.3-4.87,18.5a45.64,45.64,0,0,0-.53,6.11,3.59,3.59,0,0,1-.86,2.06l-.47-3-2.25,5a25.14,25.14,0,0,0,0-3.43c-.38-2.29-1-4.55-1.3-6.85-.16-1.39-.27-3.2.46-4.22,2-2.74,2.16-5.85,2.43-8.89.51-5.71.63-11.45,1-17.18.06-1.14.43-2.28.4-3.41,0-.61-.57-1.21-1.16-2.36.33-1.81.77-4.38,1.27-6.94s1.05-5.11,1.64-7.65c.07-.32.48-.79.76-.81,2-.16,2.51-1.87,3.36-3.22.52-.81.57-2.52,2.37-1.31a5.63,5.63,0,0,0,1.65-1.76c1.4-2.6,4.34-2.88,6.53-4.25,3.41-2.14,7.12-3.81,10.7-5.7a1.81,1.81,0,0,0,.86-.77c1.09-2.9,1.71-3.27,4.6-2.66a2.88,2.88,0,0,0,1,0c.14,0,.25-.21.53-.46l-1.14-.94c.19-.16.34-.37.43-.35,3.89,1.07,6.68-.21,9.18-3.71,2-2.8,4.33-5.36,6.57-8A5,5,0,0,1,64.07,0l.61.45c-1.67,2.7-3.28,5.45-5,8.1-4.26,6.44-7,12.9-3.83,20.9C58.18,35.34,57.71,41.86,57,48c-.5,4.11-2.82,8-4.15,12a46.64,46.64,0,0,1-8.19,14.75C42.22,77.78,40.9,81.61,39,85c-2.06,3.67-4.4,7.19-6.33,10.93-3.81,7.37-7.33,14.88-11.16,22.23-1.09,2.09-3.06,3.73-4.24,5.79a41.13,41.13,0,0,0-4.34,9.15c-.72,2.63-2.36,3.94-4.29,5.33-.64.46-1.2,1-1.81,1.56-1.07-1.11-.87-1,.7-5.28C8.19,132.92,7.85,130.75,8,128.73ZM38.74,51.07c-.79.51-2,.84-2.31,1.56A73.12,73.12,0,0,0,33.11,61c-2.09,6.52-4,13.11-6.05,19.64-.84,2.64-1.94,5.2-2.94,7.8-1.13,3-2.25,5.94-3.43,8.89-2.26,5.63-4.56,11.25-6.85,16.87-.94,2.31-1.84,4.65-2.94,6.89-.31.64-1.25,1-1.9,1.44l.35.17-1,1.69,1,4.89c1.65-1,2.45-2.06,2.11-4A5.61,5.61,0,0,1,12,122c2.23-4.45,4.61-8.84,6.92-13.26,1.44-2.76,3-5.47,4.24-8.33,1.07-2.53,1.56-5.31,2.6-7.87,1.94-4.79,4.26-9.43,6.09-14.26.61-1.62-.24-3.75.32-5.4,1.3-3.84,3.29-7.46,4.54-11.31.78-2.41,2.45-4.9,1.09-7.29.66-.69,1.43-1.14,1.66-1.77a72.23,72.23,0,0,0,4.15-17.74c.06-.63-.5-1.3-.78-2L42,33.1a17.38,17.38,0,0,1,0,3.61c-.67,3-.4,6.39-3.54,8.52C36.67,46.43,37,49.8,38.74,51.07Z"/><path class="cls-2" d="M6.16,216.84c4.42,0,8.68.17,12.85-1.36,1.26-.46,2.88.08,4.42.17C20.25,221.79,9.16,224.76.84,222V205.27c4.75-1,8.23-4.6,11.74-8.46,2.21-2.43,5.26-4.1,7.93-6.11l.28,1c1.61,0,3.74.7,4.72-.06,2.89-2.25,6.4-2,9.53-3.17,3.52-1.27,6.91-2.89,10.41-4.2s7-2.46,10.49-3.55c3.37-1.05,7-1.57,10.15-3,2.49-1.12,4.39-3.45,6.74-5,4.16-2.68,8.27-5.6,12.78-7.56,3.09-1.34,6.27-2.1,8.68-4.74.87-1,2.87-.85,4.06-1.66s1.94-2.14,3.21-3.62a9.83,9.83,0,0,0-2.22.48c-9.09,4.61-18.18,9.2-27.21,13.92-4.4,2.3-8.49,5.25-13,7.17-5.4,2.27-11.13,3.8-16.74,5.55-3.16,1-6.38,1.78-10.28,2.85.43-1.55.44-3,1.14-3.76A13.71,13.71,0,0,1,37,178.87c1.06-.6,2.49-.75,3.31-1.55,3.23-3.14,6.29-6.46,9.4-9.74a5.16,5.16,0,0,0,.6-1.07c-2.74-.44-4.49.94-4.26,3L17.09,189.72l-.48-.59c1.58-4.26,5.18-6.92,8.33-9.92,2.78-2.63,5.57-5.27,8.56-7.65,1.46-1.16,3.41-1.72,5.11-2.62,3.41-1.82,6.72-3.83,10.21-5.49,6-2.84,11.54-6.55,18.6-7,3.46-.25,6.78-2.42,10.17-3.69.6-.23,1.27-.31,1.89-.5,1.74-.54,3.49-1.07,5.22-1.65,1.12-.38,2.4-1.41,3.29-1.14,2.43.74,3.06-1.81,4.84-2.09,1.47-.24,2.79-2.12,4.45-.35a.94.94,0,0,0,.91-.1c3-3.63,7.81-3.2,11.64-5,2.37-1.09,4.85-1.94,7.3-2.86a21.54,21.54,0,0,1,2.3-.54c2.08-3.22,5-5.29,9.52-4.7,1.16.15,2.41-.39,4.07-.7L131,134.68c2,.69,2,.69,4.77-2.33l-1.34-.09-.33-.48c2.1-1.26,4.13-2.65,6.32-3.72,1.37-.67,3.17-.56,4.44-1.34.86-.53,1.17-2,1.67-3,.42-.89.75-1.81,1.12-2.72l.77.19a29.07,29.07,0,0,1,1,4.72c0,.82-.68,1.7-1.11,2.53a9.5,9.5,0,0,0-1.21,2.12c-.84,4.49-3.47,7.84-6.56,11s-5.4,7.07-8.75,9.82c-4.94,4.06-10.48,7.42-15.81,11a58.82,58.82,0,0,1-7.57,4.7c-4.32,2-8.83,3.69-13.24,5.53A15.28,15.28,0,0,1,92.33,174c-2.29.43-4.67.45-7,.93a35.78,35.78,0,0,0-12,4.78c-5.15,3.22-10.53,5.91-16.86,7.06-5.22.95-10.05,4.1-15,6.35-3.58,1.62-7.21,3.2-10.64,5.1s-6.59,4.29-10,6.29c-4.4,2.61-8.79,5.27-13.4,7.47C4.9,213.2,5.18,214.64,6.16,216.84Zm101.1-65.1a36.53,36.53,0,0,0,4.85-.05c1-.14,2.53-.58,2.76-1.24.67-1.92,2.4-1.66,3.68-2.28s2.48-.82,3.59-1.45c2.14-1.22,4.07-2.86,6.31-3.86,4.85-2.17,8-6.4,12.2-9.36.23-.16.3-.54.44-.82l-.4-.65c-2.91,1.81-5.83,3.59-8.71,5.43-.94.61-1.7,1.51-2.68,2.06C122.06,143.58,114.78,147.58,107.26,151.74ZM68.79,162.1l-.19-.76L64,160.7v2Zm73.76-32.54-.53-1.25-4.8,2.16.36.81Z"/><path class="cls-2" d="M76.37,117.22c.42-1,.95-2.3,1.56-3.75,3.28.12,4.1-3.43,6.51-4.81,2.57-1.48,5.25-2.77,7.88-4.14,1.25-.65,2.47-1.39,3.78-1.93,2-.83,4.31-2.44,6.11-2,2.6.57,2.22-.55,2.75-2.06A4.64,4.64,0,0,1,107.74,96c3.86-1.15,6.82-3.75,10.19-5.69,1.94-1.12,2.65-2.79,3.26-4.7.36-1.12.93-2.18,1.6-3.72l.8,1.88,2.06-4c2.72,0,5.36.31,7.87-.11,1.48-.25,2.72-1.71,4.15-2.5a9.79,9.79,0,0,1,2.26-.59,52.06,52.06,0,0,1,4.35,3.84,4,4,0,0,1,1.07,2.8A23.19,23.19,0,0,1,144,88.42c-2.88,8.18-5.79,16.35-8.81,24.48a17.18,17.18,0,0,1-2.36,3.45c-1.46,2.08-2.79,4.27-4.44,6.19a7.26,7.26,0,0,1-3.51,2.34c-6.78,1.64-13.66,2.88-20.41,4.6-5.76,1.46-11.4,3.4-17.1,5.09a13.25,13.25,0,0,1-2.11.18c-.5.06-1,.18-1.89.35l-1.06-1.67-2.39,3.9c-1.44-.18-3.73,1.88-6-.69l.24,1.75c-1.46-.23-2.75-.45-2.31,1.73.07.36-.75,1.06-1.3,1.35-1.35.7-2.76,1.3-4.18,1.88a64.32,64.32,0,0,1-6.24,2.35,14.34,14.34,0,0,1-3.67.05,6.07,6.07,0,0,0,.11.71l-1.8-.51L55,148l-1.51-1.75L53,148.32l-.64.1c-.63.08-1.79.07-1.82.25-.41,2.31-2.62,3-4,4.27a50.91,50.91,0,0,1-5.6,4.05l-.81-.91c2.13-2.33,4.29-4.63,6.38-7,1-1.09,1.68-2.4,2.71-3.42a4,4,0,0,1,2.85-.91l1.31-2.6-2.44.85c2.07-3.59,2.84-3.87,7-3.7a3.22,3.22,0,0,0,3.49-2.17c.59-1.4,2.48-2.32,3.92-3.25.32-.21,1.18.42,1.8.67L65,136.67l4.08-.44c-1.16-4.77,3.14-2.51,4.76-4.55l-5.91.53,2.92-2.82,2,1.57c.25-.13.51-.2.51-.29.08-2.41,1.31-2.84,3.69-3.34,2.76-.58,5.12-2.9,7.74-4.3a31.67,31.67,0,0,1,3.58-1.1c2.62-1,5.24-2,7.77-3.18a64.22,64.22,0,0,0,5.58-3.19,10.49,10.49,0,0,0,1.36-1c2.64-2.15,5.28-4.31,8.26-6.76l-.69-1.1c-5.62,3.41-10.9,6.75-16.33,9.85-3.27,1.87-6.74,3.42-10.17,5s-6.76,2.71-10,4.4c-4.74,2.5-9.31,5.32-14,8a3.66,3.66,0,0,1-1.09.17c-.74-2.74,1.35-4.31,2.66-5.9a107.75,107.75,0,0,1,7.89-8.11,20.07,20.07,0,0,1,3.82-3.15C74.09,116.57,75.21,117.08,76.37,117.22Zm45.4-16.8a13.94,13.94,0,0,0,7.16-6.28C125.79,95.4,123.07,97.12,121.77,100.42Zm-14,21.09c-3.17-2.17-3.76-2.11-4.32,0Z"/><path class="cls-2" d="M69.93,116.06c-.13,2-16.1,18.94-19.23,19.58L52.65,137l-6.85,4.29.94,1.15-1.21-.82a3.42,3.42,0,0,1-.22.64c-.7,1.09.07,3.13-2.16,3.28-.22,0-.63.52-.58.7.77,2.89-2.06,4.31-2.77,6.61a2.1,2.1,0,0,1-3.11,1.45c-.37-.16-1,.27-2.23.64l2.79,1.19c-2.87,3.56-5.73,7-8.45,10.55a17.22,17.22,0,0,0-2,3.83c-2.6,6.17-7.74,10.34-12.17,15a85.52,85.52,0,0,1-7.84,6.84c-1.39,1.15-2.67,2.22-2,4.31.09.28-.46.76-.87,1.38-1.18-1.9-4.44-2.5-3.07-5.27A16.19,16.19,0,0,1,5.24,188c.29-1,.33-2.21.93-3,2.38-3,5-5.89,7.42-8.9,3-3.68,6-7.35,8.71-11.21,2.13-3,3.84-6.3,5.8-9.44a11.13,11.13,0,0,1,1.5-1.58c2-2.14,3.93-4.38,6-6.41s3.54-4.82,6.79-5.49a1.84,1.84,0,0,0,1.2-1,12.27,12.27,0,0,1,6-7.14c1.31-.75,2.19-2.23,3.24-3.39s2.17-2.43,3.23-3.66c2.49-2.88,4.87-5.87,7.47-8.64,1.94-2.07,4.25-3.79,6.24-5.82s3.92-4.5,6-6.64a20.15,20.15,0,0,1,3.34-2.49,53.62,53.62,0,0,0,5.79-4c1.16-1,1.88-2.22,3.32-.73.48-1.17.64-2.36,1.32-2.87.4-.3,1.63.48,2,.59,3.63-2.5,7-5.26,10.86-7.33,3-1.66,6.54-2.55,9.87-3.65,1.65-.54,1.68-1.59,1.87-2.67l-.62-.41,4.11-2.53c-.52,1.48-3.2,1.41-2.1,4l5.63-2.37c-.37.69-.44,1-.64,1.16-6.89,4.41-13.82,8.79-20.7,13.22a20.28,20.28,0,0,0-3.78,2.9c-2.38,2.47-5.32,2.82-8.62,2.43l.84,2.38c-2.66,1.73-5.48,3.3-8,5.26-2.72,2.12-5.1,4.65-7.74,6.87C72,115.93,71,115.84,69.93,116.06Z"/><path class="cls-2" d="M106.41,135.56,103,136.68l2.11,2.32c-4.38,1.3-8.33,2.43-12.26,3.63-6.39,2-12.72,4.11-19.17,5.83-2.14.58-4.56.09-6.86.09l-.22-1.08c3.84-1.44,7.74-2.77,11.52-4.37a14.6,14.6,0,0,1,7.12-1.22,4.91,4.91,0,0,0,4-1.75c1.13-1.19,3.21-1.58,4.94-2.13,3.08-1,6.19-1.85,9.31-2.69a20.56,20.56,0,0,1,2.85-.37Z"/><path class="cls-2" d="M85.57,197.24c-4.34-.86-7.81,1.26-11.18,3.27A29.15,29.15,0,0,1,61.81,205c-1.65.15-3.23,1.24-4.94,1.77,2.48-1.9,4.13-4.79,7.44-5.72a32.86,32.86,0,0,0,6.51-2.3c1.07-.57,1.8-2,2.36-3.23.68-1.49,1-2.92,2.88-3.71,1.15-.48,1.8-2.09,2.84-3.4l7.18,8.29Z"/><path class="cls-2" d="M25.28,410.49c-.73-.17-1.82-.12-2.11-.57-1.15-1.82-1.05-2.16-.06-3.42-.92-1.37-1.85-2.63-2.58-4-.16-.28.32-1.09.72-1.39a1.53,1.53,0,0,1,1.36.14c1.06.73,3,7.92,2.56,9.31Z"/><path class="cls-2" d="M145.53,182.77c-11.73,9.85-26,15.65-39.19,23.08a183.3,183.3,0,0,1-41.88,17.26,28.4,28.4,0,0,1,3.05-2.24c3.46-1.93,6.95-3.79,10.47-5.62,5-2.63,10.11-5.22,15.18-7.81,4.25-2.18,8.5-4.37,12.78-6.52q14.75-7.41,29.52-14.77c3.13-1.55,6.34-2.93,9.51-4.39Z"/><path class="cls-2" d="M7.18,259c.44-.22.88-.46,1.33-.66,2.13-.93,2.9-2.27,2.18-4.68-.29-1,.65-2.35,1.06-3.53a46.72,46.72,0,0,1,1.85-5c.56-1.14,1.37-2.79,2.3-3,1.44-.26,3.72.06,4.48,1,1,1.26,1.68,3.82,1,5.06-1.46,2.79-2.84,5.36-2.5,8.65.13,1.2-.73,1.87-2.25,2.34a17.22,17.22,0,0,1-9,.48Z"/><path class="cls-2" d="M8.27,279.64l2.79-8c.21-.61.65-1.25.57-1.82-.23-1.79.7-2.79,2.26-2.85a7.68,7.68,0,0,1,4.24.88c1.17.75,1.43,2.12,1.14,3.88-.81,5-4.44,8.13-7.15,11.81-1.78,2.42-2.39,2.06-3.23-.95C8.63,281.68,8.49,280.71,8.27,279.64Z"/><path class="cls-2" d="M31.21,239.56a8,8,0,0,0,6.26-1.8,2.69,2.69,0,0,1,.8-.43c5.07-1.71,10.19-3.27,15.19-5.14,9.69-3.63,19.31-7.45,29-11.17.12-.05.3,0,1,.14-1.54.77-2.65,1.3-3.74,1.88-4.95,2.62-9.77,5.5-14.85,7.82a128.65,128.65,0,0,1-14.64,5.46c-3.36,1.06-7,1.39-10.39,2.22-2.24.54-4.38,1.47-6.61,2.06a5.62,5.62,0,0,1-2.2-.33Z"/><path class="cls-2" d="M74.87,229.75c14.74-6.41,27.45-16.57,42.94-22.62-.41.73-.47,1-.65,1.14a35.91,35.91,0,0,0-6.28,4.74c-1.89,1.78-4.25,1.89-6.22,3.14-4.28,2.72-8.76,5.17-13.24,7.56-1.55.83-3.41,1.08-5.06,1.76-3.22,1.33-6.38,2.81-9.6,4.15A5.87,5.87,0,0,1,74.87,229.75Z"/><path class="cls-2" d="M19.94,286.68a15.4,15.4,0,0,1,2.65,1.39c.31.23.39,1.42.17,1.56a51.66,51.66,0,0,1-6.38,3.64c-1,.47-2.19-1.18-1.61-2.21a10.27,10.27,0,0,1,4.2-4.19A4.26,4.26,0,0,1,19.94,286.68Z"/><path class="cls-2" d="M135.13,242.43a35.23,35.23,0,0,0-11.94.56l-4-1.49.1-.72,15.68.86Z"/><path class="cls-2" d="M20.65,227.88l3.48-.71-.89-1.45.41-.57,2,1.33.91-1.2c1.5,3.11-2.79,2.6-3.1,4.58l-3.07-1Z"/><path class="cls-2" d="M3.56,292.91c0-2.15,1.07-2.33,2.44-1.05a25.48,25.48,0,0,1,4,4.89l-6.49-3.91Z"/><path class="cls-2" d="M142.85,301.48,141,303.29l-3.89-2.66.3-.61Z"/><path class="cls-2" d="M149.31,306.48c.1,2.13-1.26,2.6-4.58,1.19Z"/><path class="cls-2" d="M103.82,401.31c-1.42-5.32-1.42-5.32-4.28-4.64a22.33,22.33,0,0,0,1.67,1.51c.51.39,1.09.68,1.71,1.06-1.31.79-1.46,1-4.21-1.46-1-.89-1.07-2.8-1.72-4.69l-1.47,2.15L89.61,391l.64-.95,4.61,3.09c-.06-.63,0-1.19-.16-1.36-2.16-1.7-4.35-3.34-6.56-5-1.49-1.12-3-2.16-4.53-3.3-2.47-1.88-4.88-3.83-7.35-5.71-3.52-2.69-7.08-5.34-10.62-8-3.93-3-7.84-5.94-11.78-8.9-2.54-1.91-5.12-3.79-7.66-5.71a5.92,5.92,0,0,1-1.38-1.4,15.07,15.07,0,0,0-7.24-4.39c-1-1.35-1.1-3.4-3.66-3.31-.94,0-1.93-1.22-2.9-1.89l.36-.8c1.1.29,2.57.23,3.23.92,5,5.19,12.27,6.76,17.86,11,4.26,3.23,8.65,6.3,13,9.42,3.35,2.4,6.69,4.81,10.07,7.15,2.5,1.73,5.13,3.29,7.61,5.05,3.72,2.66,7.51,5.25,11,8.19,5.35,4.51,10.94,8.83,15.18,14.49.47.63.46,1.63.85,3.12l-3.27-2.4-2.05-1.52C104.53,399.56,104.22,400.34,103.82,401.31Z"/><path class="cls-2" d="M69.89,410.34c-2.67-3.12-7.37-3.61-9.3-7.81-.79-1.72-2-4.1-3.5-4.52-4.56-1.27-5.52-5.92-8.87-8.2-.87-.6-1.31-1.79-2.07-2.61a27.13,27.13,0,0,1-2.82-2.74,29.81,29.81,0,0,1-2-4.22c.67-.24,1.63-.88,2-.65a37.19,37.19,0,0,1,5.23,4.27c2.43,2.48,4.62,5.18,6.94,7.77,1.57,1.77,3.25,3.45,4.75,5.27,2.45,3,4.78,6,7.2,9,1,1.25,2.13,2.43,3.2,3.65Z"/><path class="cls-2" d="M43.16,426.8,40.55,430l-1.26-6.07-.74.07.32-5.53c2.93-.34,2.5,2,2.87,3.53.23,1-.21,2.09-.08,3.11C41.73,425.57,42.42,426,43.16,426.8Z"/><path class="cls-2" d="M59.09,382.07c.45,2.05-.27,2.66-2.37,2.14-1.11-.28-2.3-.27-3.4-.58-.52-.15-.92-.72-1.37-1.11-.29-.26-.58-.52-.84-.8s-.54-.58-.48-.7a8.53,8.53,0,0,1,2.5-3.13v3.44l6,.81Z"/><path class="cls-2" d="M11.56,370.41c2.82,3.9,2.9,8.63,4.06,13C13.61,379.29,11,375.33,11.56,370.41Z"/><path class="cls-2" d="M73.19,399.81h3.27L73.51,398c1.52-1.1,2.95-2.61,4.58-1.22s-.3,2.62-.94,3.73c-1.23,2.14-2.62.28-4,0Z"/><path class="cls-2" d="M90.15,424.46l-5.4-1.17c.15-.9.6-1.84.38-2.58-.48-1.66.7-1.44,1.5-1.42.37,0,1.09.79,1,1-.25.77-.61,1.78-1.83,1-.08-.06-.28.07-.61.69l5.22,1.66Z"/><path class="cls-2" d="M83.94,79.63l-1.7,1.59c-.26.24-.5.61-.8.69-1.22.29-1.38,1.13-1.92,2.15A12,12,0,0,1,75,88.58c-3.33,1.86-3.72,2.1-3.27,5.75.05.46.11.92.23,1.93l-3.41-1.65c-1.5,1.58-3.43,3-4.48,4.9-.79,1.44-.77,3.24-2.94,3.47,0,0,0,.52,0,.79,0,1.36-.89,2-2.32,1.83-.22,0-.56-.07-.65.05-1.16,1.5-2.29,3-4,5.29-1.51.52-3.59,3.13-3.26,5.11-1.91-.18-3.22.06-4.5,2.08-2.24,3.55-5.27,6.62-8,9.84-.35.41-1,.54-1.82.93,1.43-2.72,2.66-5.06,3.88-7.4l-.76-.54,4.18-2-.51-2a34.15,34.15,0,0,0,10.45-9.69c1.94-2.56,4.65-4.53,6.8-7,2.72-3,5-6.47,7.86-9.42,4.13-4.31,8.59-8.31,12.86-12.5q6.12-6,12.11-12.18c1.46-1.5,2.7-3.21,4.09-4.77.25-.28.76-.34,1.15-.5a5.14,5.14,0,0,1,.27,1.18,3.66,3.66,0,0,1-1.82,3C95.74,66.14,95,68,93.81,69.61L93,69a17.14,17.14,0,0,1-2.49,3.46c-1.69,1.43-2.53,3.8-5.16,4.31-.54.1-.71,2-1,3.09Z"/><path class="cls-2" d="M22.26,147.82l2.83-1.77a20.05,20.05,0,0,1-1.2,2.52,5.55,5.55,0,0,1-1.29,1.1c-.09-.64-.18-1.28-.26-1.92Z"/><path class="cls-2" d="M38.74,51.07c-1.75-1.27-2.07-4.64-.29-5.84,3.14-2.13,2.87-5.5,3.54-8.52a17.38,17.38,0,0,0,0-3.61l.82-.24c.28.65.84,1.32.78,2a72.23,72.23,0,0,1-4.15,17.74c-.23.63-1,1.08-1.66,1.77,1.36,2.39-.31,4.88-1.09,7.29-1.25,3.85-3.24,7.47-4.54,11.31-.56,1.65.29,3.78-.32,5.4-1.83,4.83-4.15,9.47-6.09,14.26-1,2.56-1.53,5.34-2.6,7.87-1.22,2.86-2.8,5.57-4.24,8.33C16.63,113.2,14.25,117.59,12,122a5.61,5.61,0,0,0-.61,3.26c.34,1.89-.46,2.93-2.11,4l-1-4.89,1-1.69L9,122.5c.65-.47,1.59-.8,1.9-1.44,1.1-2.24,2-4.58,2.94-6.89,2.29-5.62,4.59-11.24,6.85-16.87,1.18-3,2.3-5.93,3.43-8.89,1-2.6,2.1-5.16,2.94-7.8,2.08-6.53,4-13.12,6.05-19.64a73.12,73.12,0,0,1,3.32-8.34C36.77,51.91,38,51.58,38.74,51.07Z"/><path class="cls-2" d="M107.26,151.74c7.52-4.16,14.8-8.16,22-12.22,1-.55,1.74-1.45,2.68-2.06,2.88-1.84,5.8-3.62,8.71-5.43l.4.65c-.14.28-.21.66-.44.82-4.19,3-7.35,7.19-12.2,9.36-2.24,1-4.17,2.64-6.31,3.86-1.11.63-2.43.9-3.59,1.45s-3,.36-3.68,2.28c-.23.66-1.77,1.1-2.76,1.24A36.53,36.53,0,0,1,107.26,151.74Z"/><path class="cls-2" d="M68.79,162.1l-4.81.59v-2l4.62.64Z"/><path class="cls-2" d="M142.55,129.56l-5,1.72-.36-.81,4.8-2.16Z"/><path class="cls-2" d="M121.77,100.42c1.3-3.3,4-5,7.16-6.28A13.94,13.94,0,0,1,121.77,100.42Z"/><path class="cls-2" d="M107.72,121.51H103.4C104,119.4,104.55,119.34,107.72,121.51Z"/></g></g></g></svg>