<?xml version="1.0" encoding="UTF-8"?><svg id="Calque_2" xmlns="http://www.w3.org/2000/svg" viewBox="0 0 26.77 39.02"><defs><style>.cls-1{fill:#fff;}</style></defs><g id="Calque_2-2"><g><path class="cls-1" d="M13.37,26.77C6.04,26.78-.13,20.8,0,13.12,.13,5.9,6.05-.14,13.67,0c7.21,.13,13.25,6.06,13.1,13.69-.15,7.25-6.07,13.09-13.4,13.08Zm6.05-10.72c.5-1.93,.6-3.87,.19-5.82-.44-2.15-1.42-4.06-2.8-5.76-.84-1.04-1.78-1.98-2.91-2.72-.21-.14-.38-.14-.59,.01-1.97,1.39-3.6,3.09-4.76,5.21-1.2,2.2-1.63,4.54-1.27,7.02,.25,1.72,.86,3.32,1.7,4.84,.19,.35,.39,.68,.59,1.03l-.05,.05c-.36-.28-.74-.54-1.09-.85-2.02-1.77-3.19-4.03-3.75-6.62-.06-.29-.08-.58-.16-.86-.04-.14-.17-.25-.25-.37-.11,.09-.23,.17-.32,.28-.06,.07-.07,.17-.1,.25-.71,2.15-.85,4.34-.29,6.54,.73,2.9,2.38,5.1,5.11,6.4,2.12,1,4.38,1.22,6.68,.87,3.34-.5,5.69-2.33,7-5.45,.83-1.97,1-4.03,.69-6.14-.3-2.07-1.04-3.96-2.23-5.68-.06-.09-.12-.18-.2-.26-.05-.04-.15-.09-.19-.06-.05,.03-.07,.13-.07,.19,0,.1,.04,.2,.06,.29,.08,.48,.17,.95,.23,1.44,.09,.82,.02,1.64-.1,2.45-.19,1.29-.55,2.53-1.1,3.72Z"/><g><path class="cls-1" d="M7.46,30.56c.42,0,.8,.03,1.14,.1,.34,.07,.64,.18,.88,.34,.24,.16,.43,.37,.57,.63,.13,.26,.2,.59,.2,.97,0,.42-.1,.76-.3,1.04-.2,.28-.5,.51-.89,.68,.54,.15,.94,.4,1.21,.77,.27,.37,.4,.81,.4,1.33,0,.42-.09,.78-.26,1.08-.17,.31-.4,.55-.69,.75-.29,.19-.62,.34-.99,.43-.37,.09-.75,.14-1.15,.14H3.34v-8.27H7.46Zm-.25,3.35c.34,0,.62-.08,.85-.23,.22-.15,.33-.41,.33-.75,0-.19-.04-.35-.11-.48-.07-.12-.17-.22-.29-.29-.12-.07-.26-.12-.42-.14s-.32-.04-.5-.04h-1.8v1.94h1.95Zm.11,3.51c.19,0,.37-.02,.54-.05,.17-.03,.32-.09,.45-.17s.23-.19,.31-.33,.12-.32,.12-.53c0-.42-.13-.73-.38-.91-.25-.18-.59-.27-1-.27h-2.1v2.27h2.06Z"/><path class="cls-1" d="M13.89,30.56v8.27h-1.92v-8.27h1.92Z"/><path class="cls-1" d="M15.5,33.01c.2-.53,.48-.99,.85-1.38s.82-.7,1.35-.93c.54-.22,1.14-.34,1.81-.34s1.28,.11,1.81,.34c.53,.22,.98,.53,1.35,.93,.37,.39,.65,.86,.85,1.38,.2,.53,.29,1.1,.29,1.72s-.1,1.16-.29,1.69c-.2,.52-.48,.98-.85,1.36-.37,.39-.82,.69-1.35,.91-.53,.22-1.14,.33-1.81,.33s-1.27-.11-1.81-.33c-.54-.22-.99-.52-1.35-.91s-.65-.84-.85-1.36c-.2-.52-.29-1.08-.29-1.69s.1-1.19,.29-1.72Zm1.76,2.74c.09,.33,.22,.62,.41,.89,.19,.26,.43,.47,.74,.63,.3,.16,.67,.24,1.1,.24s.8-.08,1.1-.24c.3-.16,.55-.37,.74-.63,.19-.26,.32-.56,.41-.89s.13-.67,.13-1.01-.04-.71-.13-1.05c-.09-.34-.22-.64-.41-.91-.19-.27-.43-.48-.74-.64-.3-.16-.67-.24-1.1-.24s-.8,.08-1.1,.24c-.3,.16-.55,.37-.74,.64-.19,.27-.32,.57-.41,.91-.09,.34-.13,.69-.13,1.05s.04,.69,.13,1.01Z"/></g></g></g></svg>