<svg xmlns="http://www.w3.org/2000/svg" viewBox="0 0 324.34 568.42"><defs><style>.cls-1{opacity:0.05;}.cls-2{fill:#31307b;}</style></defs><g id="Calque_2" data-name="Calque 2"><g id="Calque_1-2" data-name="Calque 1"><g class="cls-1"><path class="cls-2" d="M167.73,12.45c.66,1.36,1.38,2.71,2,4.1,1,2.47,2.15,4.93,1.89,7.73,0,.24.08.64.23.7,1.85.77,1.8,2.73,2.61,4.14s1.42,1.58,2.53.28c1.61-1.88,3.79-3,5.78-4.38a43.56,43.56,0,0,0,8.5-7.52A48.12,48.12,0,0,1,194.94,14c.91-.86,2.44.05,2.66,1.58a7.78,7.78,0,0,1,0,2.68,10.78,10.78,0,0,0,.66,5.6,73.73,73.73,0,0,1,2.54,9.63c.35,2.07,1.56,3.81,2.43,5.66a28,28,0,0,0,3.51,5.45c1.14,1.41,2.71,1.67,4,.44,2.27-2.2,5.26-3.57,7.17-6.18a4.3,4.3,0,0,1,1-.83c2.18-1.61,2.76-1.44,4.12.89s2.73,4.62,4.28,6.79c1,1.42,2.24,1.39,3.52.3a53.17,53.17,0,0,1,6.16-4.37c2.29-1.45,3.95-3.64,6.1-5.27A12.29,12.29,0,0,1,247.24,34c1.41-.38,2.5.37,2.17,1.76-.57,2.38-.1,4.65.31,6.92.66,3.67.12,7.27-.39,10.87-.45,3.16-.12,6.33-.36,9.49-.11,1.35,2.34,2.14,3.65,1.08,2.17-1.76,4.53-3.27,6.59-5.19,1.52-1.42,3-3.07,5.14-3.54.41-.09.82-.22,1.23-.27,1.45-.2,2.11.49,2.33,1.9.42,2.76-.25,5.49-.06,8.23.22,3.2-1,6.26-.84,9.46.1,1.84,0,3.69,0,5.54,0,2.12.41,2.91,2.4,3.48,3.23.93,6.47,1.9,9.76,2.53a20.81,20.81,0,0,1,7.73,2.59A10.37,10.37,0,0,0,290.47,90a47.45,47.45,0,0,1,9.83,2.91c2.22,1,2.57,2.4,1.4,4.55-1.92,3.56-4.48,6.73-6.2,10.42-.52,1.12-.31,1.77.7,2.11,3.12,1,5.56,3.21,8.28,4.9,2,1.25,2.16,2.39,1,4.53-1,1.9-1.92,3.86-2.76,5.84s1.83,4.75,4.32,4.78c1.89,0,3.78-.37,5.68-.23.9.06,1.8,0,2.69.13,2.05.23,2.79,1.42,2,3.33-1,2.27-2.05,4.51-3.16,6.72S313,144.9,312,147.24c-.62,1.5-1,3.08-1.76,4.55a2,2,0,0,0,.88,2.94,13.67,13.67,0,0,0,4.84,1.37,7.7,7.7,0,0,1,3.7,1.3c1.75,1.23,1.91,3,.28,4.35-1.9,1.61-3.93,3-5.87,4.58a16,16,0,0,0-1.83,1.75c-.66.73-.6,1.4.47,1.59,2.68.46,4.85,2.25,7.53,2.81,1.61.33,2.18,2.67,1.1,4.21-1.5,2.15-2.61,4.56-4.2,6.61-2.44,3.16-4.1,6.75-6.09,10.16a13.08,13.08,0,0,0-1.58,3.95,4.34,4.34,0,0,1-2.84,3.36,9.37,9.37,0,0,0-3.87,2.88,6.26,6.26,0,0,1-4,2.32c-.93.1-1.56.56-1.36,1.34.29,1.14,1.15.31,1.92.11a1.64,1.64,0,0,0,1.1,2.23c.38-.56-.05-1-.09-1.51s-.17-1,.34-1.28a1.26,1.26,0,0,1,1.36,0,2.6,2.6,0,0,1,1.5,2.58,1.68,1.68,0,0,0,1.4,1.94c2.4.74,4,2.68,5.95,4.11a4.12,4.12,0,0,0,2.62.91,28.73,28.73,0,0,1,7.93,1.42c3,.81,4,4.94,1.71,6.71a6.85,6.85,0,0,0-2.13,2.71,8,8,0,0,1-4.12,4.27c-2.79,1.45-3.25,4.27-1.4,6.83.34.46.63,1,.95,1.45l.45.66c2.09,3.05,1.82,4-1.46,5.72q-3.45,1.77-6.81,3.69c-2.65,1.52-5.69,2.15-8.28,3.89-1.14.77-1.82,1.21-1,2.63-.32,0-.56,0-.58-.05-.66-1.78-2-1.41-3.15-.83a21.72,21.72,0,0,1-7,2.27c-1.4.16-2.12,1.49-3.08,2.37-.39.34-.18.78.06,1.15.4.62.77,1.26,1.22,1.85,1.77,2.33,2.41,5.1,3.11,7.86a19.86,19.86,0,0,0,2.29,5.11c.3.51.75.94.47,1.54a1.51,1.51,0,0,1-1.62.73,10.16,10.16,0,0,1-6.15-2.61,19.3,19.3,0,0,0-5.19-2.84,72.6,72.6,0,0,1-9.39-4.86c-1-.63-2.08-1.24-3.11-1.87a1.08,1.08,0,0,0-1.32,0c-.43.32-.34.69-.31,1.13.18,3.65-.63,7.22-1,10.82-.07.64-.37,1.22.25,1.72a1.19,1.19,0,0,1,.28,1.8,1.38,1.38,0,0,1-1.87.26,40.17,40.17,0,0,1-5.6-2.93A81,81,0,0,0,247.8,273c-2.36-1.24-4.75-2.46-7.14-3.66-2.78-1.39-4.44-.54-6,2.15-1.37,2.32-2.75,4.58-2.86,7.4a3.21,3.21,0,0,1-2,2.7,1.78,1.78,0,0,1-2.59-.73c-1.6-2.83-4-4.79-6.59-6.64-.78-.57-1-.4-1.12.56-.37,2.49-1.2,4.89-1.62,7.38a2.3,2.3,0,0,1-3.7,1.5c-2.35-1.67-5-3.12-6.19-6.07-.7-1.77-3.87-2.91-5.49-2.08a.91.91,0,0,0-.48,1.07,11,11,0,0,1-.52,4.37,7.11,7.11,0,0,0,.25,3.76,13.22,13.22,0,0,1,.28,7.75c-.13.43.19.55.27.82.26.86.59,1.78-.16,2.53s-1.78.53-2.65.1a22.62,22.62,0,0,1-2.74-1.58c-3.25-2.2-7.2-2.91-10.5-5.05-1-.65-2-1.32-3-2-3.76-2.68-8.19-4.07-12.13-6.4a3.93,3.93,0,0,1-1.82-1.69,2.39,2.39,0,0,0-1.29-1.09,7,7,0,0,1-2.33-1.57,2.52,2.52,0,0,0-2.5-.57c-1,.26-.67,1.15-.79,1.83-.63,3.53-.55,7.18-1.81,10.6a2.58,2.58,0,0,0-.12,1.4,10.81,10.81,0,0,1-.89,6.48c-.52,1.26.2,2.64.12,4a10.61,10.61,0,0,1-.16,3.14c-1.12,3.12-.57,6.57-2.05,9.63a7.59,7.59,0,0,0-.41,3.91c.23,2.48-.4,5,.29,7.47.26,1-.38,2.14-.46,3.23-.26,3.59-.13,7.2-.39,10.8-.09,1.29-.55,2.77.25,4.08.25.4-.2.68-.25,1-.08.53-.42,1.18.28,1.54a1.18,1.18,0,0,1,.27,2.07,2.54,2.54,0,0,0-.7,2.29,20.61,20.61,0,0,1-.12,2.36c-.05.78-.3,1.75,1.15,1.92,1.09.12,1.25,2.07.17,3a1.22,1.22,0,0,0-.45,1.17c.08,3.22.16,6.45.25,9.67a6.43,6.43,0,0,0,1.78,3.79,3.28,3.28,0,0,1,.8,1.95c.37,4,.73,8,1.43,11.9a4.93,4.93,0,0,1-.18,2.36c-.62,2,0,3.85.43,5.82a44.64,44.64,0,0,1,1,5.54,2.29,2.29,0,0,1-.12.77c-.24.94-2.18,1.54-.55,2.84-.85,1.14.63,2.42-.41,3.58,1.37-.12,2.43-.34,2.76-1.76a2.35,2.35,0,0,1,.8-1.15c.62-.5,1.64-.79.7-1.86,1.15-.63.49-2.11,1.2-2.78.9-.85,1.27-2.17,2.48-2.71.33-.15.38-.45.47-.77a19.59,19.59,0,0,1,2.93-5.85c1.21-1.81,2.4-3.68,3.47-5.61.28-.51.45-1.15,1.21-1a2.16,2.16,0,0,1,1.61,1.16,36.68,36.68,0,0,1,3.68,12.11,59.58,59.58,0,0,0,1.15,6.95c.35,1.33-.11,2.73-.34,4.12s-1.54,3.38.18,5c.46.44.25,1.38-.17,2.08-.8,1.36-.77,2.86-.94,4.39-.19,1.83-.26,3.9-1.83,5.35a2.81,2.81,0,0,0-.83,1.67c-.28,1.77-1,3.47-1.39,5.18a12.52,12.52,0,0,1-1.81,4.12,2.53,2.53,0,0,1-1.41,1.15c-.53.12-1.05.93-.84,1.35.61,1.21-.24,1.91-.74,2.7a15.31,15.31,0,0,1-3.36,4,1.52,1.52,0,0,0-.63,2.12c.4.81-.39,1.7-1.26,1.87a1.64,1.64,0,0,0-1.28,1.52c-.07.36.57,1.11,1.36,1a.56.56,0,0,1,.7.48c.25,1.59,1.12,3.06.72,4.78a10,10,0,0,0,.08,3.73,56.3,56.3,0,0,1,.13,6.76,67,67,0,0,0,.47,8.12c.21,1.55.07,3.22.18,4.82A108.14,108.14,0,0,0,172,490a111.13,111.13,0,0,1,1,12.46c.14,2.73.14,5.64,1.1,8.12,1.33,3.43,1.69,7,2.75,10.5a20.41,20.41,0,0,1,.74,5c.19,4.45,1.94,8.65,1.93,13.18,0,2.42.32,5.24,1.61,7.14s.15,3.47.44,5.12c.23,1.37.08,2.87,1,4.06.51.63.35,1.41.55,2.11.4,1.49-.12,3.17,1.09,4.53.39.44.09,1.29-.13,2s-.68,1.48-.14,2.28c.17.24.47.55.09.81s-.66-.06-1-.29a5,5,0,0,1-1.87-3.65c-.42-3.2-2.14-6.09-2.41-9.29-.24-2.83-1.31-5.43-1.8-8.19-.53-3-2.06-5.79-2.73-8.77a123.27,123.27,0,0,1-2.77-15.79,56.79,56.79,0,0,0-.85-6.84,2.68,2.68,0,0,1-.08-1.25c.18-.65,1-1.19-.19-1.84-.63-.34.65-.67.36-1.35-2.49-5.73-2-12.15-4.14-18a13.71,13.71,0,0,1-.54-6.74,7.37,7.37,0,0,0,0-1.41c0-1.14-.51-2.2.1-3.46.52-1.09-.17-2.46-.62-3.59a3.38,3.38,0,0,1-.32-1.81c.14-.93-.29-1.94-.21-2.63.17-1.55-1.22-3-.2-4.49.5-.76-.38-1.34-.49-2.06-.4-2.81-.61-5.61-.79-8.44-.2-3-.34-6.09-.66-9.12-.2-1.87-.07-3.5,1.81-4.48a1.17,1.17,0,0,0,.53-.57c1.16-3,3.44-5.31,4.75-8.16,1.83-4,4.1-7.81,5.16-12.11.46-1.91.86-3.71,2.28-5.26a2.11,2.11,0,0,0-.11-3.21,1.58,1.58,0,0,1-.31-1,36,36,0,0,1,.07-8.67c.38-2.28-.1-4.7-.24-7.05,0-.73-.69-.88-1.25-1-.93-.22-1.21.7-1.81,1s-1.51.06-.85,1.18a.51.51,0,0,1-.32.66c-2.28.72-1.93,2.89-2.52,4.54-.3.08-.34.27-.2.52l.43-.32a1.61,1.61,0,0,1,0,2.42c-1.06.6-1.4,2.34-3.2,1.8,1.08,1.79.25,3.47.23,5.09,0,3.51-.33,7.14-2.49,10.1-1.33,1.82-.76,4.31-2.47,5.89-.29.27-.25.93-.8.85s-.68-.64-.75-1.09c-.39-2.56-.79-5.12-1.11-7.69-.83-6.54-1.9-13.05-2.77-19.58-.52-3.86-.45-7.81-.8-11.68-.3-3.44-.54-6.88-.82-10.32s-.42-6.73-.61-10.1a4.26,4.26,0,0,0,0-.95c-.91-2.93-.68-5.89-.48-8.9.14-2.1-.76-4.12-1.2-6.18a6.34,6.34,0,0,1-.24-3.12,6.8,6.8,0,0,0-.3-4.1c-.46-1.7,0-3.37.18-5a10.33,10.33,0,0,0,.18-2.82c-.6-4.3.52-8.62-.18-12.93a5.22,5.22,0,0,1,.16-2,10.92,10.92,0,0,0-.13-5.3c-.22-1-.45-2,.69-2.68.51-.29.16-.63,0-.93a10.31,10.31,0,0,1-.56-4.37c0-.1,0-.25,0-.3,1.5-1.44.5-3.09.27-4.57-.38-2.48.81-4.48,1.55-6.63.15-.43.74-.83-.16-1.2a1.18,1.18,0,0,1-.54-1.52c1-1.84.37-3.84.74-5.72.17-.83.31-1.66.45-2.49.06-.33.13-.68.54-.65s.55-.41.42-.57c-.92-1-.62-2.39-1-3.56s-1-.75-1.61-.32a6.91,6.91,0,0,0-2.41,3.64,4.69,4.69,0,0,1-.84,1.86c-.45.49-.88,1.29-1.64,1s-2.06-.27-2.45-1.64a7.43,7.43,0,0,0-4.31-4.77,1.83,1.83,0,0,1-.89-1.73,11.72,11.72,0,0,0-1.2-3.41c-.21-.47-.31-1.08-1.05-.92a1.24,1.24,0,0,0-1,1.24,23.81,23.81,0,0,0-.22,2.52c.07,3-.69,5.92-.49,9a32.27,32.27,0,0,1-.37,7.7,22.35,22.35,0,0,0,.18,6.42,8,8,0,0,1-.14,4.19,3,3,0,0,0,.09,2.86c.62,1.07,0,2.23-.51,3.31-.22.5-.8,1.13.24,1.5.41.15.41.62.35,1-.74,4-.54,8-.64,12a8,8,0,0,1-.73,3.22c-.45,1,.26,2,.06,3.06a4.19,4.19,0,0,1-1.26,2.28c-.33.35-.88.26-.94,1.24s.16,1.3.67,1.63c.92.57.91,1.06.1,1.65-.28.2-.57.5-.3.74a.59.59,0,0,0,1-.24c.18-.43.47-1,1-.72s.52.76.51,1.24c0,.7-.38.89-1.05.75-.33-.07-.73.43-.62.5,1.65,1.08-.27,1.18-.49,1.34-1.12.84-.66,1.38.21,1.93.26.16.62.19.68.63-.55.49-1.35.31-2,.63.24.58.76.44,1.22.49.71.08.72.11.22.77a.47.47,0,0,0,0,.56c.69,1.42.51,3,.89,4.47.32,1.22.75,2.27-.17,3.4a.57.57,0,0,0,.27.9c1.72.48,1.15,1.75.71,2.64-1.18,2.37-.66,4.65,0,7a17.92,17.92,0,0,1,.46,4.6c0,1.27-.71,2.63.06,4a.16.16,0,0,1,0,.15c-1.14,2.12.45,4.22,0,6.36-.34,1.63.5,3.18.65,4.81a110.1,110.1,0,0,1,.39,13.22,7.84,7.84,0,0,0,.61,3.85c.71,1.44,0,2.92-.09,4.37a14.47,14.47,0,0,0,.33,4c.83,3.19.38,6.41.7,9.59.47,4.56,1.05,9.12,1.35,13.69.24,3.74.62,7.49,1.11,11.16.38,2.88,0,6,1.61,8.72a2.39,2.39,0,0,1,.09,1.54,15.51,15.51,0,0,0,.41,6.43c.46,1.34-.27,2.59-.28,3.9,0,.36-.27.75-.06,1.08,1.51,2.34.7,4.84.53,7.29a4.07,4.07,0,0,0,.41,2.61,2.39,2.39,0,0,1,.14,2.81,3.22,3.22,0,0,0,.27,3.17c.94,1.87.65,3.72.62,5.62a17.56,17.56,0,0,0,.9,6.5,4.5,4.5,0,0,1,.28,1.7,37.9,37.9,0,0,0,1,9.54c.29,1.46.33,3,.56,4.59.2,1.29-.38,2.52.65,3.91.57.76.47,2.49.43,3.74-.08,2.54.81,4.89,1.3,7.28.58,2.77.65,5.69,1.71,8.3,1.13,2.79.88,5.78,1.76,8.6.5,1.62,1.32,3.28,1,5.14-.25,1.4.72,2.61.9,4q.58,4.4,1.38,8.75c.27,1.46-.53,2.57-1.07,3.72-.39.83-1.43.69-2.3.49-2.63-.6-3.67-2.7-4-5a128,128,0,0,0-3.84-16.74c-.92-3.11-1.22-6.41-1.83-9.61-1-5-.95-10.18-1.91-15.19-.66-3.44-.19-7-1.57-10.36a.53.53,0,0,1-.05-.3c.78-2.65-.68-5.1-.68-7.72s-.23-5.37-.46-8.05c-.13-1.66-.87-3.32.27-4.9-.94-1.3.17-2.24.52-3.35s-.32-2.43-.37-3.7c-.19-5.2-1.65-10.25-2.14-15.45s-1.42-10.41-2.12-15.62a12.63,12.63,0,0,1-.05-3,5.19,5.19,0,0,0-.62-3.35c-1-1.66-.43-3.53-.61-5.28-.63-6.3-1.91-12.5-2.67-18.78-.29-2.41-.08-4.85-.35-7.25-.4-3.45.49-6.91-.35-10.39a8.56,8.56,0,0,1,.23-4.66,8.5,8.5,0,0,0,1.23.1c.25,0,.2.76.59.21.21-.3.07-.61,0-.89s-.39-.38-.61-.15-.78.22-1.16.33A1.4,1.4,0,0,1,131,398c.52-2.56-.8-5.18.25-7.73.28-.68-.52-1.16-.52-1.91a33.31,33.31,0,0,0-1-6.58c-.74-3.79-.45-7.63-.67-11.45-.3-5,.39-10-.4-15a24.08,24.08,0,0,1,0-7.34c.32-2.2-.39-4.59-.75-6.86a12.42,12.42,0,0,1,0-4.71,14.74,14.74,0,0,0,.33-4.72c-.25-2.64.18-5.26.2-7.89,0-5,1-10,.35-15-.39-2.83.5-5.68.17-8.54-.17-1.49.23-3-.49-4.49a2.19,2.19,0,0,1-.13-1.25,59.54,59.54,0,0,0,.09-10.68,47.62,47.62,0,0,0-1.35-10.47c-.42-1.55.54-2.51,1.47-3.43a13.82,13.82,0,0,0,1.62-1.71c.48-.66.66-1.22-.15-1.7a1.07,1.07,0,0,0-1.74.69c-.51,1.84-2.07,2.11-3.51,2.56a1.9,1.9,0,0,1-2.61-1.15c-1-3.14-3.36-5.46-4.85-8.29a6.66,6.66,0,0,0-3.07-2.65c-.9-.48-1.48.07-1.87.67-1,1.68-2.81,2.17-4.48,2.74a3.06,3.06,0,0,1-3.51-1.23,27,27,0,0,1-4-6.63,10.12,10.12,0,0,0-1.89-2.91,3.3,3.3,0,0,1-.93-3c.28-1.5-1-2.47-1.58-3.67-.13-.28-.47-.45-.62-.72-.75-1.31-1.42-1.8-2.58-.24-.6.81-1.82,1-2.85,1.25s-1.9.91-2.92,1.21c-.6.18-.61.63-.49,1.15a1.41,1.41,0,0,1-.5,1.57c-1.85,1.11-3.71,2.27-6,2.32a2.17,2.17,0,0,1-2.39-2,59.22,59.22,0,0,1-1.21-11.65c0-2.7-.44-5.37-.59-8.06a1.41,1.41,0,0,0-1-1.43c-2-.71-2-.74-1.38-2.74a3.06,3.06,0,0,0,0-.81c-1.12.41-1.94.84-1.46,2.2.33.93-.35,1.53-1,1.94a3.2,3.2,0,0,1-3,.34c-1.6-.66-1.88-2.11-2-3.53-.19-2.42-.95-4.77-.78-7.23,0-.51-.09-1.36-.67-1.25-1.5.28-1.92-.84-2.66-1.66a2.33,2.33,0,0,0-3-.59c-2.38,1.14-5.08,1.42-7.45,2.65a3.39,3.39,0,0,1-1.72.13,8.84,8.84,0,0,0-3.56.56c-3.16,1.08-6.43,1.74-9.67,2.5a6.82,6.82,0,0,0-3.54,2.24c-1.85,2-3.29,1.54-5.47.06s-1.39-2.79-1.25-4.52c.38-4.51,1.12-9,1-13.56-.05-2.87.42-5.76,0-8.66a3.84,3.84,0,0,0-2.09-3.3c-.09,0-.22-.08-.26-.16-1.29-2.33-3.19-1.29-5-1s-3.83,1.05-5.85,1a4.84,4.84,0,0,0-2.43.58c-.78.42-1.8.78-2.52,0a3.08,3.08,0,0,1-.94-3,74.8,74.8,0,0,1,4.46-10.95,5.63,5.63,0,0,0,.84-2.36c0-1.11.6-1.41,1.57-1a2.72,2.72,0,0,0,1.21.28c.55,0,1-.24,1-.78.09-.83-.62-.62-1-.56-1.12.18-1.3-.56-1.45-1.85-1.31,2.74-3.67,2.18-5.6,2.49-1.49.23-3,.45-4.52.62A6.34,6.34,0,0,1,2,174.94a2.44,2.44,0,0,1-1.79-3.52c.85-2.43,2.51-4.37,3.91-6.48a60.48,60.48,0,0,0,3.3-5.52,9.43,9.43,0,0,1,1.35-2.48c1.73-1.74,1.94-4,2.31-6.24a1.25,1.25,0,0,0-.44-1.25c-2.6-2.41-5.16-4.84-7.75-7.24a5.16,5.16,0,0,0-1.17-.8c-.68-.35-1.39-.69-1.24-1.61s1.09-1,1.86-1.1c2.32-.19,4.64-.31,7-.48a4.41,4.41,0,0,0,2.42-.61c.27-.2.89-.59.22-.94-2.28-1.2-3.38-3.44-4.8-5.38-1.63-2.23-3.05-4.64-4.53-7-1.28-2-.56-3.34,1.92-3.42a36.37,36.37,0,0,1,5.22.09c3.76.39,7.57,0,11.32.69,1.09.18,2.17.4,3.25.67a1.9,1.9,0,0,0,2.15-.92,1.48,1.48,0,0,0-.14-2c-1.61-2.09-3.12-4.27-4.84-6.26s-2.65-4.06-4.13-6c-2.2-2.88-4.81-5.48-6.52-8.71-.83-1.55-2-2.83-2.81-4.39-.63-1.27-.32-1.9,1.07-2.07a4.56,4.56,0,0,1,1.88.11c2.07.64,4.21.22,6.31.51,1,.14,2.34-1.48,2.22-2.38-.55-4.08-1-8.17-1.68-12.23-.25-1.5-.43-3-.74-4.49a1.73,1.73,0,0,1-.09-.62c.55-2.38-.17-4.48-.9-6.74-.5-1.55.19-3.51.48-5.27a2.68,2.68,0,0,0-.05-1.51,1.92,1.92,0,0,1,.28-2c.73-.93.58-1.56-.65-1.66a.88.88,0,0,1-.92-.69.76.76,0,0,1,.29-.84,1,1,0,0,1,1.32,0c2.77,2,5.57,4,8.28,6.09a7.62,7.62,0,0,1,1.93,2.88c.42.87.87,1,1.37.05a1.53,1.53,0,0,1,.3-.55c1.31-1,2-1.82-.39-2.16-.38,0-.41-.59-.33-1,.24-1.11-.48-2-.57-3-.24-2.54-.91-5.11-.74-7.61.14-2.08,1.61-2.67,3.95-1.89,3.79,1.27,7.77,1.9,11.48,3.5.89.39,2.26-.13,3.34-.46s1.37-1.27.83-2.38c-.38-.76-.17-1.39.77-1.08,1.16.4,1.41-.48,1.64-1.1a2.57,2.57,0,0,1,2-1.76c-1.33-.12-1.76-1.21-3-.94-.83.18-.85-.92-.26-1.48A2.11,2.11,0,0,0,48,39.47a9.31,9.31,0,0,1,1.28-5.14,2.1,2.1,0,0,1,2.42-.76c1.18.28,2.36.55,3.52.91a3.23,3.23,0,0,0,2.17-.06c.71-.27,1.3-.58.46-1.43a1.82,1.82,0,0,1-.24-1.81c.12-.51.29-1,.36-1.54.54-4.31,2.47-4.22,5.39-4.12A44.44,44.44,0,0,1,68.2,26c1.15.17,2.19-.59,3.4-.18.54.19,1-.62,1.35-1.17.68-1.2,1.27-2.44,2-3.61,1.07-1.76,2.25-1.73,3.66-.32a11.47,11.47,0,0,0,6.35,3.23c.81.13,1.52-.33,1-1.36a3,3,0,0,1,.34-2.95c1-1.91,2.33-3.65,2.8-5.83a5.53,5.53,0,0,1,1.17-2c.56-.7,1.22-1.25,2-.07a1.34,1.34,0,0,0,1.57.47c1.35-.38,2.32.2,3.49.86,2.09,1.18,3.88,2.86,6.11,3.78,1.87.77,2.3.52,3.16-1.3a6.64,6.64,0,0,1,2.2-2.24,13.92,13.92,0,0,0,2.52-2.15c.35-.44.8-.9,1.44-.27a.47.47,0,0,0,.7-.1.37.37,0,0,0-.06-.38c-1.63-1-.69-2.21,0-2.93,1.56-1.52,1.94-3.89,3.87-5.14.32-.21.29-1,.44-1.47s.67-1,1.2-.75.09,1.14,0,1.18c-1.28.57-.46,1.75-.61,2.55-.21,1-1.75,1.6-1,2.9,0,0-.08.2-.16.24-.38.23-1.17-.17-1.1.7,0,.15.44.4.62.36.68-.16,1.81.13,1.93-.66.26-1.63,2-.78,2.57-1.76.1-.17.62.06.74.4s-.15.46-.4.54c-1.4.44,0,1.23-.16,1.87s.58.24,1,0c1.14-.57,3.4,1,3.51,2.35a.42.42,0,0,1-.19.35c-.3.09-.69.11-.8-.25-.4-1.34-1.6-.86-2.46-1.12-.45-.14-.72.1-.7.58s.35.42.68.39c.9-.06,1.81-.17,2.43.72a.35.35,0,0,0,.27.11c.74-.06,1.62-.69,2.16.18,1.24,2,3.28,3.39,4,5.8.32,1.06,0,1.16-.8,1.43-1.48.52-2.26,2.18-4,2.4-.76.09-1.1,0-1.3-.64-.58-1.9-2.29-3.06-3.14-4.81-.36-.75-1-1.35-.8-2.29.06-.29.09-.8-.33-.7-1,.23-2.39.19-3,1.16a40.67,40.67,0,0,1-6.57,8c-1.3,1.28-2,3.06-3.62,4.12a1.91,1.91,0,0,1-2.41.11,28.2,28.2,0,0,0-4-1.93c-1.35-.55-2.64-1.11-3.29-2.54-.27-.6-.67-.51-.88,0-.61,1.5-1.93,2.36-3,3.43a10.43,10.43,0,0,0-3,5.1c-.44,1.87-1.74,2.46-3.46,1.64a27.21,27.21,0,0,1-5.27-3.19,2.12,2.12,0,0,1-1-1.55c0-.34,0-.83-.48-.83a.85.85,0,0,0-.77.71c-.38,2.23-2.42,3.8-2.25,6.33.06.92-1,2-1.75,2.87-.45.57-1.23.45-1.3-.3s-.34-.93-1-.82A1.7,1.7,0,0,1,72,34.4c-.64-1.09-1.79-1.45-2.74-2.08a1.18,1.18,0,0,0-1.84.57,7.81,7.81,0,0,1-2.61,3.27c-.43.27-.37.47,0,.82a1.7,1.7,0,0,1,0,2.44.84.84,0,0,0-.23.82,1.47,1.47,0,0,1-1.79,1.91c-1.08-.15-1.45-.89-.84-1.8.27-.39.68-.68.92-1.09s.41-1-.06-1.28-.48.35-.71.56c-.59.56-2.76.43-3.09-.16.21-.09.36-.2.11-.4,0,0-.19.15-.28.24-.8.68-.8.68-1.22-.14-.18-.34-.52-.36-.65.07a1.93,1.93,0,0,1-1.85,1.45c-.57.06-.71.52-.94.95a7.7,7.7,0,0,1-1.24,1.82c-1.43,1.36-1.39,1.84.44,2.78a.77.77,0,0,1,.44.92c-.67,3.57.14,7.33-1.38,10.81-.42.95-.33.9-1.42.83a9.66,9.66,0,0,1-2.5-.26c-1.61-.52-3-1.61-4.87-1.53a10.91,10.91,0,0,0-2.43,0,11.41,11.41,0,0,1-4.24.18c-1.53-.17-1.93.28-1.84,1.82,0,.85-.13,1.59-1.09,1.85-.37.1-.78.25-.66.7a.88.88,0,0,0,.8.67c.87,0,1.08.5,1,1.25a3.58,3.58,0,0,0,.55,2.11c1.58,2.73.92,5.74,1.1,8.63.08,1.33-1,1.52-1.87,1C33.14,72.9,31,71.93,30.26,69.6A6.07,6.07,0,0,0,28,66.8a1.51,1.51,0,0,0-2.42.54,33.46,33.46,0,0,1-3.56,5,2.09,2.09,0,0,0-.32,2.54,17.68,17.68,0,0,1,1.21,4,12.41,12.41,0,0,0,2.29,5.1,11.61,11.61,0,0,1,1.92,3.77c1.11,3.72,3.36,7.06,3.68,11.06.16,2-.45,2.72-2.49,2.9-1.72.14-3.36-.35-5-.38a1.62,1.62,0,0,0-1.65.69c-.43.73,0,1.2.41,1.7,2,2.67,4.12,5.24,5.88,8,1.57,2.49,3,5,4.83,7.4A33.61,33.61,0,0,0,36.56,123c1.48,1.4,2.42,3.15,3.8,4.57a1.35,1.35,0,0,1,.25,1.86c-.44.65-1,.44-1.67.43a77.08,77.08,0,0,1-9-.41,84,84,0,0,1-9.46-1.67c-1.77-.44-3.54-.52-5.31-.78a1.2,1.2,0,0,0-1.36.84c-.28.64-.6,1.31,0,1.93a21.38,21.38,0,0,0,4.13,3.76c1.42.9,2.22,2.37,3.28,3.58A5.56,5.56,0,0,0,24,139a22,22,0,0,1,2.35.93A1,1,0,0,1,27,141c-.1.64-.58.81-1.17.81a54.41,54.41,0,0,0-8.9,1.2c-.52.09-1.32-.17-1.45.62a1.77,1.77,0,0,0,.88,1.91,8.61,8.61,0,0,0,3,1.39A2.91,2.91,0,0,1,21.28,148c1.84,2,2,2.89.46,5.25a24.36,24.36,0,0,1-4.32,5.42c-2,1.69-2.88,4.27-4.38,6.38-.53.73.13,1.6.8,1.78a6.62,6.62,0,0,0,2.48.56,4.55,4.55,0,0,1,3.73.68,1.47,1.47,0,0,0,1.9-.24c.39-.36.88-.75,1.4-.33a1.49,1.49,0,0,1,.57,1.69c-.94,1.87-1.1,4.23-3.31,5.34a2.69,2.69,0,0,0-1.49,2.13c0,.29-.61,1.15.53.66.38-.16.45.33.4.64-.12.68-.26,1.35-.43,2a2.2,2.2,0,0,0,2.69,2.79c3.34-.81,6.78-.69,10.16-1.21,1.7-.25,2,1.3,2,2.29a42.66,42.66,0,0,1-.28,7.9,28.9,28.9,0,0,0-.5,6.59,24.12,24.12,0,0,1-.21,5.36c-.4,2.38-.77,4.77.49,7.1a3.67,3.67,0,0,0,4.61,1.91,101.33,101.33,0,0,1,11-3c3.35-.86,6.77-1.51,10.13-2.27,2.88-.65,5.62-1.71,8.5-2.28a3.56,3.56,0,0,1,4,3.13c.37,2.41,1.56,4.59,1.71,7.06.09,1.38.75,1.53,1.9.79,1.69-1.08,3.14-2.49,4.91-3.47a1.32,1.32,0,0,1,2,.46,6.36,6.36,0,0,1,1.07,2.28,67.82,67.82,0,0,1,2,16.48,6.68,6.68,0,0,0,.85,2.69c.51,1.22.82,2.44-.36,3.49a.73.73,0,0,0,.73,1.27c3-1.1,6.07-1.75,8.81-3.39s4.87-1.31,6.92,1.41c1.84,2.45,3.39,5.11,5.4,7.44a32.41,32.41,0,0,0,3.52,3.61,2.45,2.45,0,0,0,3.3.1,37.8,37.8,0,0,1,5.16-3.08c1.66-.75,2.26-.62,3.33.88a12.86,12.86,0,0,1,1.42,2.82c1.09,2.69,2.2,5.37,3.4,8,.73,1.62,1.47,1.69,2.73.45,1.79-1.78,3.56-3.57,5.37-5.32,1.15-1.13,2.46-.82,3.26.86.92,1.95,1.72,4,2.54,6,.4,1,.63,2,1.1,3a7,7,0,0,1,.38,4.13,1,1,0,0,0-.13.22s.06.07.09.1l.12-.23c.59,0,1.06.21,1.1.85s-.57.46-.93.55-.7.63-.5.82c.88.83.69,2.39,1.94,2.91a2.79,2.79,0,0,1,1.89,3.39c-.09.5-.16,1.27.39,1.42s.7-.64,1-1.07a47.45,47.45,0,0,1,3.83-5.57c1.21-1.47,2.25-3.12,3.53-4.59s1.72-1.39,3.36-.44c4.11,2.37,7.69,5.58,12,7.58,1.79.82,2.63,2.72,4.24,3.76.46.3.19.85-.15,1.25a.43.43,0,0,0,.24.74c.31.09.59,0,.53-.5-.13-1.06.52-.92,1-.5,2.07,1.74,4.6,2.72,6.92,4,1.28.69,3,.88,4.55,1.39a3.27,3.27,0,0,1,2.25,2c.11.27.1.71.53.67s.52-.46.58-.82a1.91,1.91,0,0,0,0-.63c-.4-3.35.17-6.73-.08-10-.22-2.86.81-5.79-.51-8.59a3.49,3.49,0,0,1,.27-2.63c.66-1.8,1.72-1.93,3.46-1.19,2.29,1,3.55,3.2,5.83,4.18a25.9,25.9,0,0,1,6.3,3.28c1.11.9,2.36,1.58,2.82,3.07a1,1,0,0,0,1.05.8c.58-.08.44-.65.53-1a37.83,37.83,0,0,0,1-3.66,3,3,0,0,1,2.52-2.51,5.64,5.64,0,0,1-.64-3.21c0-1.7,1.15-2.36,2.53-1.29,2.48,1.94,5.36,3.17,8,4.87,1.55,1,1.64.91,2.53-.75,1.43-2.65,1.73-5.67,3-8.39s1.91-3.21,4.53-1.56q6,3.8,12,7.58a46.51,46.51,0,0,0,7.14,3.36,1.75,1.75,0,0,0,2.39-1.48,12.35,12.35,0,0,0,0-2.85c-.4-2.64.65-4.84,1.83-7.06.36-.67.69-.84,1.35-.56a15.06,15.06,0,0,1,4.06,2.29,37.41,37.41,0,0,0,5.17,3.25,74.38,74.38,0,0,0,8.58,4.7c.6.26,1.17.64,1.74.1s.4-1.25,0-1.88c-1.36-2.31-2.7-4.64-4.1-6.92-1-1.61-.94-1.89.86-2a4,4,0,0,0,3.27-1.59c.87-1.16,2.1-.87,3.13-.23s1.71.54,2.36-.39c.07-.1,0-.39.26-.25,1.9,1.16,2.24-.5,2.91-1.6a.76.76,0,0,1,1.4,0c.48,1.31,1.15.85,1.85.36a14.94,14.94,0,0,1,2.12-1.25c3.86-1.86,8-3.2,11.38-6,1.65-1.36,3-2.89,2.79-5.27-.06-.71,1.3-1.19.51-2.23-.55.74-.8.68-1.26-.22a3,3,0,0,1,.25-3.61c1.23-1.69,2.25-3.54,3.4-5.29,1.29-2,.8-4.49-2.33-4.87a8.09,8.09,0,0,1-5.43-3.18c-1.39-1.73-3.12-3.15-4.55-4.86a10.49,10.49,0,0,1-1.92-4.27c-.33-1.25.69-2.57-.75-3.9-.87-.82-.15-2.62.58-3.85,3-5.15,5.84-10.4,9.33-15.25a3.57,3.57,0,0,0,.7-2.49,2.73,2.73,0,0,1,1.95-3.09c1.31-.4,1-1.41.89-2.19a1.22,1.22,0,0,0-1.71-1.12c-2.43,1-4.9.56-7.39.49-.86,0-1.76.23-2.3-.54-.92-1.31-.42-2.78.15-4a31.05,31.05,0,0,1,5.07-7.62,5.33,5.33,0,0,0,.64-.71,12.08,12.08,0,0,0,1.66-3c.39-1.64-1.49-1.23-2.23-1.88-2.23-1.93-2.31-2-1.38-4.95a123.63,123.63,0,0,0,4-13.33,19.87,19.87,0,0,1,.64-3.89.66.66,0,0,0-.84-.92c-1.8,1-3.38-.28-5.07-.3-3.62,0-6.9-1.86-10.52-1.94-1.08,0-1.43-1.14-.62-2.33a36.41,36.41,0,0,1,3.7-4.68c1.34-1.39,2.1-3.16,3.37-4.58.64-.71,0-1.73-1.37-1.81-2.7-.16-4.41-1.76-6-3.67a3.4,3.4,0,0,1-.74-2.19,116,116,0,0,1,1-13.43c0-.32.09-.63.09-1,0-2.67-.29-3.2-2.86-4a155.91,155.91,0,0,1-17.08-6.17c-2.55-1.13-5.31-1.93-7.54-3.77a2.93,2.93,0,0,1-1.22-1.89C260,82,259.29,79.5,259,76.86a3,3,0,0,0-3.81-2.06c-2.63,1.18-5.46,1.92-7.74,3.86-1.26,1.08-2.79.68-4.22.11s-1.33-1.79-1.43-2.92c-.25-2.7.22-5.38.27-8.06a2.2,2.2,0,0,0-.07-1.1c-2.31-3.5-.28-7.09-.23-10.63,0-1.15.14-2.16-1-2.92-1.66-1.12-2.15-1.19-3.54.25-1.64,1.69-3.87,2.58-5.53,4.28a35,35,0,0,1-4.27,3.21c-1.28,1-2.32.75-3.43-.34-2-2-3.23-4.65-5.27-6.63a1.41,1.41,0,0,1-.32-1.32,1.07,1.07,0,0,0-.65-1.16c-.51-.24-.72.25-1,.55-1.08,1.16-2.19,2.3-3.25,3.48a1.44,1.44,0,0,1-1.49.65c-2.63-.69-5.4-1-7.33-3.31-1.55-1.86-3.2-3.66-4.85-5.4a59.46,59.46,0,0,1-4.56-5.95c-2.25-3-4.47-6.35-3.56-10.55a.76.76,0,0,0-.37-.92c-.46-.31-.63.1-.92.3a17.9,17.9,0,0,0-2.2,2.49c-1.39,1.42-2.39,3.24-4.49,3.82.36.9,1.38.52,1.49,1.34,0,.34,1,0,.71.73-.16.42-.61.33-1,.35a4.6,4.6,0,0,0-2,.46c-.29.15-.7.3-.77-.12-.35-2-1.18-.57-1.6-.17-1.58,1.53-3.48,2.72-4.71,4.64-1,1.5-2.44,1.5-3.54.11a31.15,31.15,0,0,1-3.69-6.44c-1.65-3.59-4.13-6.72-5.89-10.25A26.62,26.62,0,0,1,160,18.78c-.08-.62-.51-1-.93-.63-.74.64-1.71.75-2.46,1.3-.29.21-.76.36-.69.79.31,2.11-1.29,3.52-2,5.23-.53,1.3-1.88,2.34-2.9,3.34a20.54,20.54,0,0,0-4.17,5c-1.07,2.11-3.33,3.25-4,5.58a.93.93,0,0,1-1.55.46,12.22,12.22,0,0,1-3.69-4.29,2.58,2.58,0,0,0-1.92-1.72,1.83,1.83,0,0,1-1.62-1.68c0-.27,0-.52-.28-.68-3-1.85-4.24-5.21-6.59-7.62-.31-.32-1-.74-.68-1.1s.86-1.26,1.71-1.26c1.7,0,3.22-.32,4.11-2,.26-.49.7-.23.9.05C135,22,137.43,24,138.8,26.77a6.43,6.43,0,0,0,1.08,1.55.78.78,0,0,0,1.33,0c2.94-3.23,6-6.34,8.79-9.74,1.49-1.85,3.48-3.28,4.69-5.31,1.72-2.87,4.2-5.09,6.12-7.78.38-.53.71-1,1.36-.38,0,.28,0,.55-.08.82l-.34.33-.05.06V6.23c.2,0,.34-.1.37-.31.82-.19,1.87.16,2.31-1,0-.05.39,0,.6.07l.42.67a.78.78,0,0,0,.22.88l.77,2a.43.43,0,0,0,.16.6c.13.34.27.69.41,1-.11.43-.18.86.27,1.17l.33.76C167.47,12.27,167.48,12.41,167.73,12.45ZM147.49,25.3l.56.15c.22-1.47,1.29-.7,2-.8.51-.07.93.49,1.47.15-2.61-1.68-3.31-1.59-4,.52a1.78,1.78,0,0,0-1.26.7A1,1,0,0,0,147.49,25.3Zm38.79,261.82c3.21,2.8,6.88,3.89,10.29,5.47-1.81-1.16-3.77-2-5.32-3.59-.21-.21-.85.09-.69-.58,0,0,.1-.06.15-.09-.12.69-.54.68-1,.45-.07,0-.14-.21-.1-.27.39-.65-.16-.59-.52-.76A8.6,8.6,0,0,0,186.28,287.12Zm-25-280.19a1.4,1.4,0,0,0-1.12,1c-.18.62-1.26,1.37-.41,1.82s.9-1,1.61-1.41C161.57,8.28,161.36,7.44,161.32,6.93ZM61.3,37.49a6.14,6.14,0,0,1-1.44-1.09c-.14-.18-.38-.43-.64-.16a.58.58,0,0,0-.08.83C59.69,37.87,60.46,37.73,61.3,37.49Zm94.76-23.94a3.18,3.18,0,0,0,2.52-1.21A2.19,2.19,0,0,0,156.06,13.55Zm-104,31.67c-.14.19-.74.08-.59.59a1,1,0,0,0,.9.73c.39,0,.47-.37.31-.68S52.83,45,52.07,45.22ZM15.13,172l-.18-.16a.73.73,0,0,0-.1.28c0,.05.11.1.16.15ZM75.38,34.65s-.07-.1-.11-.1-.07.06-.11.09l.16.11Z"/><path class="cls-2" d="M196.79,178.34c.93,2.25,1.9,4.45,3.83,6.09.77.66,1.42,1.57.83,2.66a1.9,1.9,0,0,1-2.43.62c-2.59-.85-5.43-.73-7.9-2.09a10.7,10.7,0,0,0-4.09-1.1c-2.37-.22-4.44-1.86-6.92-1.32-.1,0-.27,0-.3,0-1.26-1.93-2,.24-3,.39a.53.53,0,0,0-.4.74c.68,1.18-.32,1.68-.88,2.37a11.1,11.1,0,0,0-2.7,4.59c-.38,1.84-1.68,2.68-3.32,3.19a1.41,1.41,0,0,1-1.55-.52,18.69,18.69,0,0,1-3.59-5.19,36,36,0,0,0-2.9-4.91c-.76-1.24-1.65-1.16-2.32.17a4.37,4.37,0,0,0-.6,1.79c-.06,2.52-1.81,4.49-2.2,6.9a2.41,2.41,0,0,1-.5,1c-.5.64-.69,1.71-1.73,1.68s-1.31-1.1-1.77-1.84c-2.19-3.52-2.81-7.61-4.15-11.44a34.21,34.21,0,0,0-1.49-3.66,1.38,1.38,0,0,0-2.08-.75,6.74,6.74,0,0,0-1.7.84c-2,1.89-4.8,2.35-7.05,3.86s-4.15.48-5-2.18a93.19,93.19,0,0,0-3.53-9.67c-.47-1-1-1.38-1.79-.25a7.91,7.91,0,0,1-3.53,2.6c-2.68,1.27-5.25,2.73-7.8,4.21a5.89,5.89,0,0,1-5.77.22c-2.51-1.32-3.17-3.52-2.69-6.17a11.75,11.75,0,0,1,1.33-3.88c1.61-2.76.1-5.61-2.85-6.28a19.15,19.15,0,0,1-5.18-2.28c-2.19-1.25-2.19-2.67,0-4,2.59-1.62,5.23-3.18,7.86-4.74,1.11-.66,1.21-1.2.14-2.13A14,14,0,0,1,102.6,140c-.46-2.05-1-4.07-1.56-6.09a3.52,3.52,0,0,1-.11-1.25,64,64,0,0,1,2-11.48c.28-1,.79-1.77,1.85-1.9a3.55,3.55,0,0,0,2.51-1.47c1-1.24,2.43-1.65,3.8-2.16,1.15-.42,1.93.43,2.48,1.28a9.44,9.44,0,0,1,1.64,6.62,17.71,17.71,0,0,0,0,3.49c0,.51.06,1.23.68,1.26s.64-.69.71-1.19c0-.31,0-.63.09-1,.45-2.83,1.95-4.09,4.77-3.9a3,3,0,0,1,2,1.39,8.8,8.8,0,0,1,1.74,4.53c.26,2.25.75,4.48,1,6.74.18,1.77.11,3.57.16,5.36,0,.4-.06.94.47,1.05s.73-.38.91-.74a5.74,5.74,0,0,0,.43-1.35,73.37,73.37,0,0,0,1.32-10.67,65.56,65.56,0,0,0-.11-11.21,13.27,13.27,0,0,0-.41-2.66c-1.07-3.14-1.88-6.37-2.91-9.53-.71-2.16-.38-4.51,0-6.75.18-1.13,1.21-1.48,2.38-.9a5,5,0,0,1,2.34,2.31,39.35,39.35,0,0,1,3.25,8.72c.86,4.17.42,8.28.29,12.43-.1,3.15-.11,6.3,0,9.45,0,1.13-.6,2-.72,3a52.79,52.79,0,0,0,0,6.77c.06,3.67-.77,7.26-.69,10.91,0,.39-.27.94.3,1.07s.7-.42.85-.78a27,27,0,0,0,1.74-6.56,87.93,87.93,0,0,0,.84-8.94,168.37,168.37,0,0,0-.41-18,189.33,189.33,0,0,1,0-19.79,4.36,4.36,0,0,1,.18-.93c.29-1.19.51-2.65,1.86-2.88s2.42,1.1,3.56,1.81c.15.1.26.62.18.69-1,.74-.63,2-1.16,2.85-1.26,2.07-.42,3.9.66,5.61a4,4,0,0,1,.67,3.29,9.27,9.27,0,0,0-.17,2,1.47,1.47,0,0,0,1.49,1.66c5.52.69,6.28,4.49,6,8.52,0,.63-.23,1.23-1.19,1.05-.72-.15-1.07.53-1.54,1,.5.38.84-.06,1.22-.09.58,0,1-1.35,1.5-.52s1.69,1.66.75,2.92c-.09.12-.41.25,0,.43,1.71.88.84,2.35.63,3.49-.59,3.26-1,6.56-1.67,9.82-.23,1.21-.69,2.66-.15,4,.16.38.25.9.78.87s.46-.51.57-.84a58.36,58.36,0,0,0,2.33-11.47c.23-1.62,0-3.43.7-4.83,1-2.14.71-4.57,1.85-6.62a3.66,3.66,0,0,1,4.27-1.83,2.33,2.33,0,0,0,2.93-.83c.81-1.08,1.36-.78,1.71.36.18.55.27,1.21,1,1.21s.71-.68.86-1.16c.83-2.7,3.15-3.87,5.37-5.07,1-.56,3.47.61,4.33,2a30,30,0,0,1,2.28,4.35,4.56,4.56,0,0,1-.29,3.69,6.11,6.11,0,0,0,1.09,6.27c.86.84,1.14,2,1.86,2.93.38.48.56,1.22,1.39,1.06s.8-.95.78-1.54c-.06-2.62,1.07-4.93,2-7.28.79-2.05,1.29-2.28,3.61-2.19.56,0,.8-.46,1.15-.75.82-.68,1.62-1.16,2.72-.58a2.6,2.6,0,0,1,1.7,2.61,65.82,65.82,0,0,1-1.21,9.59,86.4,86.4,0,0,1-2.72,10.37,3.55,3.55,0,0,0-.09,1.42,8.8,8.8,0,0,1-.68,4.8c-.2.38-.32.88.11,1.15s.74-.08.91-.42c1.51-3.1,4.39-5.11,6.21-8a12.86,12.86,0,0,1,4.59-4.53,4.06,4.06,0,0,0,1.05-.94,3.62,3.62,0,0,1,1.78-1.26c2.14-.55,4.33-.87,6.49-1.41,2.45-.62,5.26,1.45,6.33,3.78,1.21,2.65.74,5-1.24,7.29-2.12,2.45-4.87,4.23-6.83,6.84-2.25,3-4.63,5.87-7,8.77a1.43,1.43,0,0,0-.28,1.3c-1.4-.57-1.69.72-2.37,1.39-.34.34-.85.64-.47,1.15s.93.81,1.38.55c1.12-.63,2.53-1,2.79-2.6,2.09-4.51,5.58-8,8.67-11.78a3.56,3.56,0,0,1,3.24-1.27c3.75.26,6.2,2.07,6.83,5.16a4.44,4.44,0,0,1-.28,3.09,10.11,10.11,0,0,0-1.18,4.07,5.84,5.84,0,0,1-2.11,3.94,26.39,26.39,0,0,1-7.56,4.78c-4.28,1.9-8.46,4-12.67,6-.58-.21-.95-1.16-1.77-.53-.54.41-1.19.79-1,1.63C195.12,178.85,196.11,178.16,196.79,178.34Zm14-13.78a6,6,0,0,0-2.13,1.35c-.29.09-.69.29-.5.55s.48-.08.67-.29A6.9,6.9,0,0,0,211,164.8c.18-.07.44,0,.47-.33,2.29-.83,2.89-3,3.94-4.87.23-.41.5-.95-.18-1.18s-.86.35-.92.8a6.33,6.33,0,0,1-2.13,3.6,4.08,4.08,0,0,0-1,1.37C211,164.19,210.88,164.35,210.82,164.56Zm-52.63-15.89a7.1,7.1,0,0,1,.25-1.68,72.37,72.37,0,0,0,3.16-10.19c.8-3,.7-6.17,1.38-9.2a26.41,26.41,0,0,0,.41-2.81,1.2,1.2,0,0,0-1.09-1.48,1.46,1.46,0,0,0-1.69,1.1,4.48,4.48,0,0,0-.14,1.1c-.3,4.87-.18,9.76-1.63,14.53a75.23,75.23,0,0,0-1.6,8.62.48.48,0,0,0-.14.69,1.2,1.2,0,0,0,.23,1l.16.18.13-.21.46-.94A.57.57,0,0,0,158.19,148.67Zm31.55-22.75c0-.5,0-.82-.06-1.13-.09-.66,0-1.63-.86-1.64s-.59,1-.68,1.5c-.67,3.95-1.76,7.8-2.43,11.76-1,5.59-2.87,11-4.35,16.52-1,3.81-2.46,7.53-2.58,11.54a1.86,1.86,0,0,1-.21.92c-1.68,2.49-3.16,5.12-5,7.46a1.64,1.64,0,0,1-2.5.43c-3.6-2.95-7.18-5.92-9.29-10.22-.33-.67-.77-1.31-1.5-1.2-2.15.31-4.44-.37-6.14,2.12-2,2.89-3.94,2.58-5.87-.34a7.32,7.32,0,0,0-.5-.81c-1.85-2.05-2.55-4.86-4.5-6.85-1.69-1.72-2.68-1.86-4.44-.21a4.31,4.31,0,0,1-3.27,1.28,2.91,2.91,0,0,0-2.81,1.09c-.82,1.18-1.89,1.22-3,.37s-2.46-1.65-3.68-2.48a10.75,10.75,0,0,1-3.59-3.72c-.87-1.59-2.26-2-3.7-.9a32.29,32.29,0,0,0-4,3.57c-1.25,1.31-.88,2.66.86,3.23,1.2.39,1.38,1.06,1.16,2.16a22.22,22.22,0,0,1-1.35,4.88,1.77,1.77,0,0,0,.35,2.39c.87.78,1.61.49,2.45.08,1.95-.94,3.86-2,5.88-2.75,1.85-.7,3.84-1.81,5.62.33a1.24,1.24,0,0,0,1.86,0c1.27-1.1,2.12-.44,2.5.78.74,2.38,1.88,4.6,2.62,7,.57,1.83.93,2.07,2.68,1.44,2.52-.9,5-1.84,7.61-2.61,2-.58,2.88.15,3.77,1.52,1.27,2,2.52,3.91,3.77,5.87.29.45.56,1,1.18.9s.56-.7.67-1.13a29.29,29.29,0,0,1,2.47-6,1.2,1.2,0,0,1,1.8-.69,11.38,11.38,0,0,1,4.95,3.83c.88,1.38,1.83,2.71,2.75,4.07,1.2,1.76,2.61,1.84,3.95.15,1.21-1.54,2.37-3.11,3.51-4.69a2.35,2.35,0,0,1,3.27-.91c1.71.8,3.5,1.44,5.22,2.22,1.07.48,1.51.14,1.43-.94,0-.33-.1-.57.19-.84.47-.45.29-.71-.32-.76-2.1-.16-2.3-2.09-2.92-3.44s1.12-1,1.65-1.56a2.87,2.87,0,0,1,.89-.66c1.1-.47,2-1.62,3.46-.75.33.2.73-.05,1-.32.59-.62,1.2-1.25.9-2.22a1.51,1.51,0,0,0-1.4-1.11,1.86,1.86,0,0,0-2,1.22,1.67,1.67,0,0,1-1.79,1.23,6.37,6.37,0,0,1-3.47-.85,1.6,1.6,0,0,1-.82-1.87c1.18-5.47,2.16-11,3.7-16.38,1.06-3.72,3-7.16,3.57-11.07C188.87,133.07,189.3,129.41,189.74,125.92Zm19.61,11.14a2,2,0,0,0-1.79.94,11.41,11.41,0,0,1-2.27,2.42c-3.09,2-5.42,4.71-7.77,7.38a24,24,0,0,0-4.53,8.11c-.18.52-.25,1.05.28,1.43s1.11.13,1.55-.3.81-.83,1.18-1.27a43.66,43.66,0,0,1,6-5.87c3.58-2.91,6.79-6.16,8.68-10.5C211.32,137.86,211,137,209.35,137.06Zm-35.53-14.45c-1-.62-.69-1.65-.88-2.55-.14-.69-.39-1.46-1.26-1.33s-2.11-.29-2.51,1.09a34.84,34.84,0,0,0-1.07,3.63c-1.16,7.17-3.35,14.15-3.91,21.43,0,.35-.28.82.21.93s.73-.33.84-.75c.47-1.73,1.4-3.34,1.48-5.16.15-3.27,2-5.92,3.12-8.84a1.44,1.44,0,0,1,.61-.72c1.38-.65,1.19-2,1.27-3.11.16-2,.74-2.79,2.83-2.88.24,0,.56.1.49-.34a.87.87,0,0,0-1-.24c-.58.29-1.3.67-1.55-.19S173.32,123.08,173.82,122.61Zm-31.33,18.27c.07.67.13,1.35.21,2,.05.46,0,1.05.64,1.1s.61-.59.84-1c.92-1.63-.44-3.92,1.52-5.23.05,0,.05-.24,0-.29-1.27-1.12-.33-2.51-.43-3.76-.23-3.12.32-6.24,0-9.39-.18-1.84.29-3.73-.45-5.56-.24-.58-.43-1.07-1.15-1.08s-.95.54-1.06,1.14a7.5,7.5,0,0,0-.1.94,77.69,77.69,0,0,0,.12,10.57C142.87,133.86,142.33,137.37,142.49,140.88Zm28.32,19.17c.68-.57.57-1.25.74-1.81.72-2.41.64-4.94,1-7.4.17-1.15.77-2.14.91-3.3.66-5.29,1.4-10.56,2.08-15.84.05-.38.61-1-.18-1.18a1,1,0,0,0-1.33.79,17.58,17.58,0,0,0-.38,2.17,33.53,33.53,0,0,1-.44,4.73c-1.06,4.26-1,8.64-1.65,12.93-.31,2.07.15,4.21-.79,6.23A3.25,3.25,0,0,0,170.81,160.05Zm-61.1-29.58a7.78,7.78,0,0,0-.22-2.67c-.31-1.07-.6-2.62-1.7-2.52s-.9,1.75-.87,2.69a101,101,0,0,0,1.64,11.72c.3,1.86,1.65,3.26,2.48,4.89.12.24.43.61.76.43s.14-.49,0-.78a12.69,12.69,0,0,1-.85-2.57C109.63,138,109.77,134.23,109.71,130.47Zm10.49,3.14v2.21c0,.39.07.8.52.86s.65-.32.68-.7c.16-2.31.32-4.62.42-6.93,0-.56,0-1.35-.81-1.32s-.75.83-.83,1.46A34.3,34.3,0,0,0,120.2,133.61Zm81.11,37.21c.27-.68,1.4-.33,1.53-1.22,0-.33-.08-1-.79-.95a1.82,1.82,0,0,0-1.59,1.36C200.34,170.41,200.79,170.61,201.31,170.82Zm-43.94-48.39c0-.71-.54-1-1.12-1.15-.3-.08-.48.13-.38.47a1.53,1.53,0,0,0,1.13,1.19C157.37,123,157.37,122.69,157.37,122.43Zm16,7.19c-.13-.88.84-1.12,1.09-1.87C173.12,127.81,172.61,128.31,173.35,129.62Z"/><path class="cls-2" d="M225.8,116.3a9.59,9.59,0,0,1,.58-5.3,1.47,1.47,0,0,0-.56-1.81,1.25,1.25,0,0,0-1.73.16,20.05,20.05,0,0,1-9.11,4.47,54.73,54.73,0,0,1-5.58.81,1.06,1.06,0,0,1-1.2-.83c-.32-1.11-.73-2.2.08-3.33.66-.92,1.72-1.19,2.6-1.74a75.72,75.72,0,0,1,8-4.86,10.33,10.33,0,0,1,1.47-.55,7.92,7.92,0,0,0,4.13-2.86c2.21-2.76,4.38-5.53,6.44-8.4A10,10,0,0,1,235,89.24a2.56,2.56,0,0,1,3,.9c.72.81.38,1.7-.3,2.41a2,2,0,0,0-.36,2c.55,2.17-.19,4.16-.64,6.21a15.16,15.16,0,0,0-.34,1.86c-.1,1.32.61,2,1.91,1.72a7.44,7.44,0,0,0,3.1-1.15,4.55,4.55,0,0,1,1.09-.63c.87-.34,1.79-1,2.68-.24s.28,1.65.13,2.5c-.26,1.46-.47,2.93-.77,4.37-.47,2.32.59,3.46,3,3a43.09,43.09,0,0,0,10-2.85c2.89-1.28,6-1.45,9-2.38a2.1,2.1,0,0,1,2.58.7c.6,1-.1,1.69-.58,2.44-2.68,4.15-6.26,7.51-9.65,11-2.63,2.74-5.35,5.4-7.88,8.24-3.12,3.5-6,7.23-9.57,10.31-.85.74-1.57,1.24-2.6.37-1.25-1.05-1.65-2.22-.9-3.27a78.18,78.18,0,0,1,6.42-8c2.18-2.33,4.22-4.81,6.32-7.23a.94.94,0,0,0,.14-1.28,1.19,1.19,0,0,0-1.49-.58c-1.23.45-2.47.91-3.69,1.4-2.73,1.11-5.46,2.22-8.18,3.36-.84.35-1.22.11-1.75-.68-1.82-2.74-1.51-5.86-1.78-8.88,0-.48.37-1.14-.37-1.36-.58-.17-.93.34-1.32.7a17.61,17.61,0,0,1-3.43,3c-.19.11-.34.26-.53.36a2.38,2.38,0,0,1-2.1.4C225.37,117.67,225.91,116.87,225.8,116.3Z"/><path class="cls-2" d="M150.1,69.9l0-1.84a4.28,4.28,0,0,0,.14-2,24.35,24.35,0,0,1,1.53-6.56c2-4.4,3-9.19,4.79-13.69.57-1.45.52-3.13,1.76-4.34.22-.21-.07-.9-.07-1.37,0-.64,0-1.37.83-1.5s.85.67,1,1.17a109.17,109.17,0,0,1,4.47,16.3,31.63,31.63,0,0,0,3.18,10.39c.24.44.38.94.95.88s.57-.64.69-1.09a2.41,2.41,0,0,1,.43-1.16c2-1.77,3.58-4.06,6.05-5.3a20.51,20.51,0,0,0,3.81-3.07c.4-.33.77-.72,1.18-1.05s1.07-.76,1.72-.37.5,1,.46,1.59A135.13,135.13,0,0,1,182,70.54c-.95,5.71-1.39,11.5-2,17.25a15.7,15.7,0,0,1-1,3.83c-.57,1.5-1.39,1.77-2.88,1a8.33,8.33,0,0,0-1.25-.66c-1-.25-1.07-.81-1.09-1.74a86.7,86.7,0,0,1,.87-12.16,3.2,3.2,0,0,0-.44-2.38,5.93,5.93,0,0,1-.72-3.37,1.33,1.33,0,0,0-1.26-1.53c-.92-.12-.73.68-.91,1.18-.32.82-.49,1.83-1.81,1.37a.69.69,0,0,0-.92.4c-.13.36.15.53.44.71a1.88,1.88,0,0,1,.65,2.57,51.4,51.4,0,0,0-2.7,6.88c-.1.37-.27.72-.74.67a.81.81,0,0,1-.67-.6,6.67,6.67,0,0,1-.3-2.51c0-.43.26-.77.71-.53.68.36.88.09,1.13-.52.31-.78,0-1.17-.68-1.3,0-.65.54-.52.85-.62.63-.2.76-.89.92-1.3s-.62-.48-1-.62c-.71-.25-1.31-.46-.3-1.19.51-.37.44-1.17,1.08-1.6.46-.31-.22-.7-.44-.71a6.26,6.26,0,0,0-2,.17c-.6.16-.13.56,0,.85.21.5.39,1-.07,1.47a.4.4,0,0,1-.57,0,1.19,1.19,0,0,1-.43-1.41c.32-.51-.16-1.38.87-1.6.58-.12.39-.66-.14-.83-1.38-.43-2.21-1.1-1.47-2.71.28-.61-.77-.48-.71-1s.79-.15,1-.57c-.23-.79-1.32-1.35-.72-2.35.24-.4.46-.81.09-1.09s-.76.14-1.12.31c-.34-1.62-2.23-2.1-2.69-3.67-.16-.53-.81-.43-1.26-.28a1.76,1.76,0,0,1-1.65-.2V60h-.11c-.39-.35-.77-.77-1.16,0l-.11,0,0,.13a.8.8,0,0,1-1.14,0,1,1,0,0,1,.78-.87c.4-.1.36-.49.2-.77s-.58-.39-.65-.19c-.27.69-1.17,1.2-.63,2.12.08.36.17.73.25,1.1l-.06.1.12,0a1.19,1.19,0,0,0,.11.26c-.05.13-.06.23.13.14,1.53.45,1,1.82.8,2.58a25.16,25.16,0,0,0-.19,12,12.81,12.81,0,0,1,0,4.5,6.35,6.35,0,0,0,.5,3.31c.23.76-.35,1.71.82,2.24.33.15-1,.43-.47,1.1v0l-2.43.17c-1.78.15-2.23-.2-2.5-2-.09-.58-.2-1.15-.29-1.72.11-.87.56-1.76-.12-2.59,0-.42-.07-.83-.1-1.24a.92.92,0,0,0,0-1.28c-.05-.29-.1-.59-.15-.87a9.94,9.94,0,0,0-.15-2.93c0-.42,0-.83,0-1.25.16-.09.3-.19.19-.41s0-.55,0-.82c-.55-2.18,1.66-1.24,2.42-2.06a1.41,1.41,0,0,0-1.39-.16C150.47,71,150.41,70.23,150.1,69.9Z"/><path class="cls-2" d="M107.38,201.2V189c0-1.16,0-1.23-1.11-1.44a.46.46,0,0,1-.37-.44c-.06-.42-.14-.84.29-1.14,1.08-.76,2.11-1.53,3.58-1.11.76.21,1.58.15,2.36.3,1.61.29,2.4,1.13,2.25,2.72-.18,1.89.12,3.81-.36,5.68-.22.86.29,1.41.85,1.92s1.14,0,1.67-.32a30.39,30.39,0,0,0,3.9-3c1.42-1.15,2.47-1,3.39.48,1.2,2,2.37,4,3.49,6,1,1.87,2.58,2,3.77.19.29-.44.5-.93.77-1.39.84-1.43,2-1.59,3.22-.41a33.1,33.1,0,0,1,4.45,5.56c.4.61.78,1.39,1.64,1.3s1-1,1.21-1.67a4.24,4.24,0,0,1,.23-.59c.46-1.06.21-2.55,1.76-2.92a7,7,0,0,1,4.44.79c1.05.44,1.12,1.56,1.12,2.6,0,3.15-.45,6.32.21,9.46a10.4,10.4,0,0,1,.05,3c-.15,1.61-.95,2.1-2.33,1.21a32.56,32.56,0,0,1-4.77-3.65c-1.77-1.66-3.82-3-5.34-4.95-.57-.74-1.15-.57-1.93.18-2.82,2.69-3,6.48-4.33,9.78-.23.57-.08,1.38-.88,1.55s-1.18-.6-1.54-1.14a88.23,88.23,0,0,1-7.64-14.16c-1-2.29-2.21-2.41-4-.62-2.38,2.38-5.19,4.33-7.35,6.95a1.82,1.82,0,0,1-.34.34c-.65.51-1,1.82-2.05,1.35s-.85-1.69-.85-2.67V201.2Z"/><path class="cls-2" d="M71.59,97.44c-.71.35-.62.93-.52,1.41.76,4-.16,8,0,12,0,.87-.07,2.1-1,2.32-1,.27-1.51-.83-1.91-1.7s-.85-1.54-1.21-2.34a.56.56,0,0,0-.78-.3c-.46.2-.11.49,0,.75a45.94,45.94,0,0,1,2.3,6.36,2.54,2.54,0,0,1-.75,3,3.48,3.48,0,0,1-5.65-.88c-3.26-6.54-6.73-13-9.61-19.72a7.17,7.17,0,0,1-.58-2.78c0-1.68,1.35-2.58,2.79-1.7,1.85,1.12,4,1.23,5.9,2.26.31.17.81.35,1,0,1-1.37,2.58-2.28,2.72-4.28.25-3.37.67-6.73,1.11-10.08a34.15,34.15,0,0,1,.91-4.34c.2-.79.32-1.21,1.44-.46,2.35,1.56,2.93,4.07,4,6.29A166.16,166.16,0,0,0,79.76,98,45.43,45.43,0,0,1,83,104.54a4.44,4.44,0,0,1-2,5.17,2,2,0,0,1-2.66-.74,52.12,52.12,0,0,1-6.45-11A4.55,4.55,0,0,0,71.59,97.44Z"/><path class="cls-2" d="M252.17,207.45c.3.86-1,1.31-.23,1.82a2.46,2.46,0,0,0,2.28-.07c.81-.39.53-1.23.55-1.83s-.71-.72-1.23-.72a1.84,1.84,0,0,1-1.73-1.13,16,16,0,0,0-3.65-3.93c-1.74-1.51-1.58-2.56.63-3.31,1.06-.35,1.94-.74,2.17-2,.2-1.05-.16-1.59-1.21-1.46-2.44.29-4.75-.77-7.2-.62a2,2,0,0,1-2.1-2,4.11,4.11,0,0,1,1.81-4.09,8.06,8.06,0,0,1,6.6-.52c3.63,1.25,7.42,1.28,11.18,1.55,3.16.22,6.31.52,9.44,1,1.71.28,2.26,1.79,1,3.37-2,2.54-4,5.09-6.83,6.75a5.74,5.74,0,0,0-2.63,2.43.79.79,0,0,1-1.13.47c-.56-.18-1.32-.16-1.35.61s-.34,1.77.88,1.87c.74.06.89.42,1.12,1a10,10,0,0,0,3.41,4.07c1.59,1.27,2.77,2.9,4.22,4.29a1.48,1.48,0,0,1,.49,1.59c-.28.72-1,.55-1.51.51a75.13,75.13,0,0,1-10.77-1.35,4.54,4.54,0,0,0-2-.11,8,8,0,0,1-5.42-.44,3.17,3.17,0,0,0-2.49,0c-2.09.82-4.08,0-6.07-.33-1.24-.23-1.64-1.47-1.75-2.58a21.92,21.92,0,0,1,0-3.8c.15-2,.89-2.51,2.92-2.34a70.9,70.9,0,0,1,7.39,1.44C250,207.94,251.1,208.22,252.17,207.45Z"/><path class="cls-2" d="M265.71,155.57a8.38,8.38,0,0,0-3.32.3c-2,.31-2.88-.44-2.85-2.42,0-1.35-.68-1.94-2-1.6s-2.73.78-4.09,1.2a4.67,4.67,0,0,1-5.63-1.61c-.76-1-.76-1.58.36-2.06,2.36-1,4.69-2.12,7.12-3A33,33,0,0,0,259,144.8c4.07-2,8.55-2.92,12.64-4.86.86-.4,1.39.28,1,1.42-.47,1.39-1.11,2.73-1.68,4.1-.39,1-.94,2,0,2.95s2,.86,3.2.6a13.92,13.92,0,0,1,4.68-.46c3.42.44,6.85-.27,10.27.13.66.07,1.53-.2,1.8.62s-.59,1.18-1.09,1.59a167.22,167.22,0,0,1-17.38,11.89,100.36,100.36,0,0,0-11.73,8.07,40,40,0,0,1-5.27,3.2,1.8,1.8,0,0,1-2.41-.5c-2.05-2.22-1.87-3.58.31-5.58,3.58-3.26,7.81-5.5,11.86-8a6.32,6.32,0,0,0,2.62-2.45c.66-1.38.2-2-1.37-1.91C266.2,155.58,265.94,155.57,265.71,155.57Z"/><path class="cls-2" d="M201.39,220.28c0-1.71,0-3.05,0-4.4a2,2,0,0,1,3.71-1.44,17.35,17.35,0,0,1,1.57,2.72c1.6,3.23,1.89,6.85,3.25,10.15a3.51,3.51,0,0,1-2.25,4.86,3.71,3.71,0,0,1-4.66-2.64c-.73-2.25-.45-4.61-.86-6.9-.07-.37.15-1-.45-1s-.72.56-.82,1c-.35,1.65.22,3.26.33,4.88.17,2.51,0,3.06-1.62,3.58a4.62,4.62,0,0,1-5.23-1.48c-1.84-2.18-1.38-4.74-1.6-7.19a5.23,5.23,0,0,0-.23-1.85c-.81-1.72-.38-3.45,0-5.13a2.48,2.48,0,0,1,2.63-1.86c2.44,0,3.76.59,4.41,2.32.45,1.18.78,2.41,1.18,3.6C200.85,219.69,201,219.83,201.39,220.28Z"/><path class="cls-2" d="M138.13,72.62c.07-2.81,1-5.49,1-8.32,0-1.21.9-2.3,1.52-3.23.79-1.2,2.31-.21,3.49,0a1.38,1.38,0,0,1,1.18,1.61c-.24,2.77-.56,5.54-.61,8.31,0,1.56-.65,3.09-.23,4.69.18.65-.29,1.06-.92.9-1.65-.43-3.59-.3-4.4-2.39C139,73.63,137.7,73.66,138.13,72.62Z"/><path class="cls-2" d="M95.77,245.42c0,.92-.52,1.19-1.14,1.17a1.89,1.89,0,0,1-2.06-1.53c-.1-.66.45-.95,1-.9C94.53,244.25,95.46,244.47,95.77,245.42Z"/><path class="cls-2" d="M146.11,292.23c0-.93.24-1.71,1.22-1.81.79-.09.87.52.88,1.16a1.74,1.74,0,0,1-1.39,2C145.8,293.7,146.42,292.61,146.11,292.23Z"/><path class="cls-2" d="M26.61,104.38c0,.72-.23,1.13-.79,1.11-.76,0-1-.67-1.15-1.29s.12-.84.67-.81A1.42,1.42,0,0,1,26.61,104.38Z"/><path class="cls-2" d="M155.79,87.79c0,.44.33.26.53.32.43.13,1,.1,1,.73s-.63.59-1,.87a.81.81,0,0,1-1.23-.15c-.35-.45.08-.73.33-1s.55-.36.3-.75Z"/><path class="cls-2" d="M187.92,41.54c.05.55-.32.58-.7.63-.66.08-.92-.24-1-.85s.08-.73.51-.74A1.22,1.22,0,0,1,187.92,41.54Z"/><path class="cls-2" d="M120.32,203.79c0,.38,0,.76-.53.72a.83.83,0,0,1-.77-.82c-.06-.47.17-.84.68-.82S120.23,203.4,120.32,203.79Z"/><path class="cls-2" d="M135.25,338.44c.64-.05.73.4.72.8s.06,1-.58,1.1-.65-.39-.63-.82S134.61,338.55,135.25,338.44Z"/><path class="cls-2" d="M116.18,187.37c-.05.32-.07.7-.48.68s-.57-.39-.58-.77.15-.62.52-.65C116.19,186.6,116.12,187,116.18,187.37Z"/><path class="cls-2" d="M162.19,66.47c1.51-.22.8.81.8,1.43C162,67.83,162,67.21,162.19,66.47Z"/></g></g></g></svg>