<svg xmlns="http://www.w3.org/2000/svg" viewBox="0 0 49.66 77.55"><defs><style>.cls-1{fill:#1d1d1b;}</style></defs><g id="Calque_2" data-name="Calque 2"><g id="header"><path class="cls-1" d="M48.52,76.62a172.83,172.83,0,0,0-6.09-24.23q-1.95-5.94-4.34-11.73a13.55,13.55,0,0,0-.93-2c-.44-.68-1.09-1.06-1.46-1.78s-.24-1-.17-1.76a6,6,0,0,0,0-1.12,6.44,6.44,0,0,0-.48-2,11.56,11.56,0,0,0-3.18-4.22c-1.37-1.23-4.7-3.63-2.42-5.6l-.45.05c.83.62,2.54,2.38,2.84.38.16-1.05-.1-1.92.56-2.9a6.8,6.8,0,0,1,3.4-2.41c1-.38,4-.87,4.18-2.23.19-1.89-2.64-.56-3.17-1.36l-.14.52a5.29,5.29,0,0,1,1.46-.79.38.38,0,0,0,.26-.26,1.19,1.19,0,0,0-.57-1.31,2.5,2.5,0,0,0-1-.33c-.39,0-1.17.14-1.49-.06-1-.66-.16-2.82-.07-3.8A7.53,7.53,0,0,0,34.8,4.1c-.08-.2-.34-.39-.55-.23a2.23,2.23,0,0,0-.82,1.07l.72.2a4.1,4.1,0,0,0-.66-3.44.38.38,0,0,0-.68.09,39.26,39.26,0,0,0-1,5.14h.75A20.58,20.58,0,0,0,31.1.27a.38.38,0,0,0-.69-.09A11.23,11.23,0,0,0,29,4.88l.74-.1A4.84,4.84,0,0,0,27.31,1.7a.38.38,0,0,0-.55.43l2,5.91.69-.29L27.81,4.87a.38.38,0,0,0-.68.09,5.91,5.91,0,0,0-.21,2.92l.63-.37a2.66,2.66,0,0,1-1-1.53.37.37,0,0,0-.72,0l-.32,1.31h.73a9.39,9.39,0,0,0-1.66-3.7c-.15-.2-.52-.28-.65,0a15.85,15.85,0,0,0-1.46,6.16l.56-.32a17.79,17.79,0,0,0-4-2.07c-.34-.12-.55.29-.42.56l2.62,5.77.42-.55a2.5,2.5,0,0,0-2.57,0,1.29,1.29,0,0,0-.33,1.73c.53.71,1.89.76,2.69.8.41,0,.92-.08,1.29.16a3.13,3.13,0,0,1,.73,1.08,7.52,7.52,0,0,1,.74,2.37l.36-.48a13.26,13.26,0,0,1-1.66-.13c-.33-.05-.67.35-.36.63a6.81,6.81,0,0,1,2.18,4.17L25.3,23c-4.63-3.11-6.25-8.79-7.61-13.9a.38.38,0,0,0-.73,0,27.33,27.33,0,0,0-.77,8.11.38.38,0,0,0,.75,0,7.6,7.6,0,0,0-6-7.38c-.25-.05-.57.18-.46.47l2.46,6.31.55-.42a6.89,6.89,0,0,0-4.58-1,.39.39,0,0,0-.36.48,13.54,13.54,0,0,0,3.71,6.9l.16-.63a12.38,12.38,0,0,0-4.67,2.57c-.26.23,0,.62.27.64a34.75,34.75,0,0,1,7.82,1.56l.1-.74-4.33.43a.39.39,0,0,0-.36.48,4.73,4.73,0,0,1-1.57,5.29.38.38,0,0,0,.19.7c4.38.53,6.45-4.48,10.37-5.29l-.47-.36a13.37,13.37,0,0,0,.34,4.63.39.39,0,0,0,.69.09A6.58,6.58,0,0,0,22,28.53l-.27.36.77,0a.38.38,0,0,0,.48-.36,5.34,5.34,0,0,1,.11-1.95l-.46.27c1.68.63,2.19,2.55,2.79,4.06a13.59,13.59,0,0,0,1.95,3.44c2,2.57,4.68,4.47,6.84,6.9,2.66,3,4.12,6.83,5.54,10.53s2.77,7.58,4,11.43q2.07,6.69,3.62,13.52c.1.47.83.27.72-.2a182,182,0,0,0-7.49-24.73c-1.38-3.6-2.77-7.34-5.22-10.37-2.12-2.63-4.95-4.58-7.1-7.18a19.37,19.37,0,0,1-2.72-5.12,4.9,4.9,0,0,0-2.69-3,.37.37,0,0,0-.46.26,6,6,0,0,0-.14,2.15l.47-.36a2.72,2.72,0,0,0-1.17,0,.38.38,0,0,0-.28.36,5.77,5.77,0,0,1-1.12,3l.69.09a12.71,12.71,0,0,1-.32-4.43c0-.26-.26-.4-.47-.36-3.85.79-6,5.76-10.18,5.26l.19.7A5.5,5.5,0,0,0,12,26.66l-.36.47,4.33-.43A.38.38,0,0,0,16,26a35.39,35.39,0,0,0-8-1.58l.26.64a11.68,11.68,0,0,1,4.34-2.38.37.37,0,0,0,.17-.62,12.88,12.88,0,0,1-3.51-6.57l-.37.47a6.26,6.26,0,0,1,4.2.93c.26.16.67-.11.55-.43L11.2,10.11l-.46.46a6.83,6.83,0,0,1,5.45,6.65h.75a26,26,0,0,1,.75-7.91H17c1.42,5.32,3.15,11.12,8,14.35.3.21.59-.13.55-.42a7.48,7.48,0,0,0-2.38-4.5l-.37.62a14.44,14.44,0,0,0,1.86.16.38.38,0,0,0,.36-.47,7.72,7.72,0,0,0-.64-2.2A4.85,4.85,0,0,0,23,15c-.46-.24-1.05-.05-1.56-.08a4,4,0,0,1-1.61-.26c-1.54-1.29,1-1,1.62-.77.34.14.54-.29.42-.55L19.28,7.54l-.42.55a16.66,16.66,0,0,1,3.81,2,.38.38,0,0,0,.57-.33A14.66,14.66,0,0,1,24.6,4H24a8.83,8.83,0,0,1,1.58,3.52.38.38,0,0,0,.73,0l.31-1.32h-.72A3.26,3.26,0,0,0,27,8a.38.38,0,0,0,.63-.36,5.13,5.13,0,0,1,.2-2.52l-.68.09,1.65,2.88c.2.36.82.12.68-.29l-2-5.91-.55.42A4.07,4.07,0,0,1,29,5a.38.38,0,0,0,.74-.1A10.3,10.3,0,0,1,31.06.56L30.37.47a19.65,19.65,0,0,1,1.42,6.46.38.38,0,0,0,.75,0,37.89,37.89,0,0,1,1-4.94l-.68.09a3.44,3.44,0,0,1,.58,2.86.37.37,0,0,0,.72.2l.48-.62-.55-.22a8.14,8.14,0,0,1,.31,4.35c-.13.84-.65,2-.24,2.85a1.71,1.71,0,0,0,1.54.77c.21,0,.42,0,.63,0s1.36.13,1.31.56c0,.07-1.16.63-1.31.74a.38.38,0,0,0-.13.51,1.27,1.27,0,0,0,.86.61,2.36,2.36,0,0,0,.75,0c.5,0,.59-.25.84.3.32.7-.84.79-1.38,1L36,16.42a13,13,0,0,0-2.06.91,5.81,5.81,0,0,0-2.62,2.81,4.18,4.18,0,0,0-.25,1.61c0,.47.09.88-.45.78-.36-.07-.95-.72-1.25-.94a.38.38,0,0,0-.46.06,2.89,2.89,0,0,0-.69,3.28c.59,1.54,2.09,2.45,3.25,3.5a9.63,9.63,0,0,1,3.21,4.92c.31,1.5-.66,3.28.53,4.49a12.23,12.23,0,0,1,1.08.95A5.08,5.08,0,0,1,37,40c.48,1.09.91,2.2,1.35,3.3q1.21,3.07,2.31,6.19c1.46,4.15,2.76,8.37,3.89,12.62q2,7.29,3.26,14.74c.08.48.8.28.72-.2Z"/><path class="cls-1" d="M49.25,76.85A55.84,55.84,0,0,1,31,60.11c-.9-1.3-1.58-2.72-3.18-3.22a5.06,5.06,0,0,1-2.84-1.67,8.06,8.06,0,0,1-1.36-3c-.68-2.59-1.17-7.34-4.82-7.34-1.81,0-3.2,1.36-4.07,2.82a73.3,73.3,0,0,0-3.32,7.13l.7.19a14.41,14.41,0,0,1,0-3.08.37.37,0,0,0-.47-.36L8.13,53l.48.36.21-2.11c.07-.69,0-1.93.67-2.34a.38.38,0,0,0-.38-.65c-2.64,1.32-5.45-1.16-8.18-1l.27.64A3.68,3.68,0,0,1,4.1,47v-.75A3.82,3.82,0,0,1,.73,43.14l-.55.43,2.2,1c.28.12.67-.08.55-.43l-.74-2.25-.62.36c1.12,1.39,3.22,3.12,4.82,1.31a.37.37,0,0,0-.16-.62,6.07,6.07,0,0,1-4.39-3.41L1.33,40l3,1.7c.3.17.75-.19.51-.51A11.14,11.14,0,0,1,3.23,38l-.46.46,5.85,2.07c.38.14.6-.37.37-.63-1.14-1.28-2.43-2.83-2-4.67l-.69.09a5.09,5.09,0,0,0,2.26,1.92c.61.26,2.07.7,2.71.3.33-.21.26-.61.42-.9.51-.94.63-.47,1.2,0a5.6,5.6,0,0,0,3.36,1.07.38.38,0,0,0,.26-.64,16.79,16.79,0,0,0-5.91-3.63v.73a49.77,49.77,0,0,1,7-.64.38.38,0,0,0,.32-.56,3.71,3.71,0,0,1,0-3.82h-.65a32.07,32.07,0,0,0,4.08,5.15A.37.37,0,0,0,22,33.9a4.69,4.69,0,0,1,1.35-4.82h-.53a16.44,16.44,0,0,1,1.94,2.8c.49.94.69,2,1.1,2.95a4.13,4.13,0,0,0,2.69,2.32c2.13.91-2.37,4-3,4.9-.82,1.16-.15,2.47.8,3.31a9.32,9.32,0,0,1,2.26,2.17,8.15,8.15,0,0,1,.88,2.89,34.48,34.48,0,0,0,1,6c1.34,4,4.21,7,7.12,10A125.64,125.64,0,0,0,49,77c.38.3.91-.23.53-.53a112.35,112.35,0,0,1-10-9.25c-3.23-3.28-6.74-6.51-8.22-11a32.37,32.37,0,0,1-1-5.79,7.34,7.34,0,0,0-1.8-4.34c-.69-.69-1.68-1.12-2.21-2-.93-1.49.87-2.41,1.76-3.29s2.52-2.33,1.92-3.53a2.35,2.35,0,0,0-1.39-.94A3.34,3.34,0,0,1,26.36,34a20.34,20.34,0,0,0-.94-2.5,17.72,17.72,0,0,0-2.06-2.95.37.37,0,0,0-.53,0,5.44,5.44,0,0,0-1.54,5.55l.63-.36a31.2,31.2,0,0,1-4-5,.38.38,0,0,0-.65,0,4.5,4.5,0,0,0,0,4.58l.33-.57a51.26,51.26,0,0,0-7.21.66c-.4.07-.31.62,0,.73A15.79,15.79,0,0,1,16,37.57l.27-.64a5.39,5.39,0,0,1-3.57-1.5c-.42-.33-.81-.46-1.26-.09a1.4,1.4,0,0,0-.32.47c-.25.5-.09,1-.71,1.1-1.29.24-2.79-1-3.44-1.95a.39.39,0,0,0-.69.09c-.5,2.14.84,3.89,2.19,5.4l.36-.62L3,37.75a.39.39,0,0,0-.47.47,11.75,11.75,0,0,0,1.74,3.35l.51-.51-3-1.7a.37.37,0,0,0-.51.51A6.73,6.73,0,0,0,6,43.62L5.86,43c-1.29,1.45-2.92-.26-3.76-1.31-.24-.29-.74,0-.63.37l.74,2.25.55-.42-2.2-1a.38.38,0,0,0-.55.42A4.57,4.57,0,0,0,4.1,47c.48,0,.47-.7,0-.75a4.39,4.39,0,0,0-3.43,1.1A.38.38,0,0,0,.93,48c2.95-.14,5.64,2.39,8.56.93l-.38-.65a1.93,1.93,0,0,0-.88,1.47C8,50.93,8,52.17,7.86,53.37a.38.38,0,0,0,.47.36l3.47-1.45-.48-.37a14.41,14.41,0,0,0,0,3.08c0,.32.53.57.7.19.88-2,1.75-3.91,2.66-5.84s2.46-4.4,4.85-3.62c1.93.62,2.51,3.05,2.9,4.78a13.39,13.39,0,0,0,1.67,4.85,6,6,0,0,0,3.48,2.26c1.81.64,2.84,3.08,3.93,4.56A56.27,56.27,0,0,0,48.88,77.49a.37.37,0,0,0,.37-.64Z"/><path class="cls-1" d="M9.55,19c-.51.72-1.21-.13-1.44-.52a7.83,7.83,0,0,1-.45-1l-.9-2.21a.38.38,0,0,0-.74.1,10.73,10.73,0,0,0,2.34,8.1l.46-.59c-2.38-1.3-5.2-2.22-7.79-1a.39.39,0,0,0-.08.59c.91,1.16,2.6.93,3.57,2,.79.87,1,2.27,2.31,2.53v-.72a17,17,0,0,1-5.27.33.38.38,0,0,0-.27.64,8.78,8.78,0,0,0,6,2.27l-.19-.69c-1.18.69-2.68.31-3.83,1.08a1.79,1.79,0,0,0-.66,2.4.37.37,0,0,0,.33.19,12.44,12.44,0,0,1,4.46.42,4.69,4.69,0,0,0,3.17-.53c.44-.2.06-.85-.38-.65a4.57,4.57,0,0,1-1.94.56,10.15,10.15,0,0,1-1.86-.41A10.26,10.26,0,0,0,3,31.71l.32.19C2.48,30.53,4.6,30.12,5.45,30a5.22,5.22,0,0,0,2-.59.38.38,0,0,0-.19-.7,8,8,0,0,1-5.48-2.05l-.26.64A17.66,17.66,0,0,0,7,27a.38.38,0,0,0,0-.72C5.87,26,5.61,24.31,4.74,23.62s-2.46-.68-3.26-1.69l-.07.59c2.32-1.1,4.92-.16,7,1a.38.38,0,0,0,.45-.59,10,10,0,0,1-2.12-7.57l-.74.1c.32.78.65,1.57,1,2.36a5.15,5.15,0,0,0,.86,1.62,1.49,1.49,0,0,0,2.34,0c.28-.4-.37-.77-.65-.38Z"/><path class="cls-1" d="M30.16,35.64A3.91,3.91,0,0,0,29,33.1l-.36.63a6.72,6.72,0,0,1,3.56,1.76.38.38,0,0,0,.64-.27,4.55,4.55,0,0,0-1.08-3.08c-.74-.87-1.78-1.43-2.51-2.33l-.17.63c.79-.27,1.71.54,2.3,1a12.54,12.54,0,0,1,1.86,1.71c.28.31.84-.11.59-.46a24.14,24.14,0,0,0-5.7-5.53l-.19.7a4.74,4.74,0,0,1,4.26,1.81c.29.38.94,0,.65-.38A5.47,5.47,0,0,0,28,27.09a.38.38,0,0,0-.19.7,22.8,22.8,0,0,1,5.43,5.26l.59-.45a13.75,13.75,0,0,0-2.24-2c-.75-.53-1.69-1.21-2.64-.88a.37.37,0,0,0-.17.62,28.81,28.81,0,0,0,2.24,2,3.79,3.79,0,0,1,1.13,2.84l.64-.26a7.42,7.42,0,0,0-3.89-2,.38.38,0,0,0-.37.63,3.12,3.12,0,0,1,.91,2c0,.48.78.48.75,0Z"/><path class="cls-1" d="M24.63,55a2.35,2.35,0,0,1,1.59.08c.39.16.56-.37.36-.63A8.81,8.81,0,0,1,25.67,53a5.81,5.81,0,0,1-.58-1.62,1,1,0,0,1,0-.25c-.14,0-.18,0-.11.09l.13.12.75.72,1.41,1.37A.38.38,0,0,0,27.9,53,33.92,33.92,0,0,1,27,48l-.47.36a3.64,3.64,0,0,1,2.6,2.13c.2.44.84.06.65-.38a4.31,4.31,0,0,0-3.05-2.47.38.38,0,0,0-.48.36,33.81,33.81,0,0,0,1,5.2l.62-.36-2-1.91c-.24-.23-.49-.55-.85-.56a.66.66,0,0,0-.62.51,1.57,1.57,0,0,0,.08.91A9.29,9.29,0,0,0,24.83,53a9.52,9.52,0,0,0,1.22,2l.37-.62a3,3,0,0,0-2-.08.37.37,0,0,0,.2.72Z"/><path class="cls-1" d="M6.34,45.8a43.53,43.53,0,0,0,8.88-1.06c.41-.09.33-.77-.1-.73a1.86,1.86,0,0,0-1.27.73,5.75,5.75,0,0,1-1.19,1.06,9.72,9.72,0,0,0-2.58,1.82l.59.45a8.4,8.4,0,0,1,2-2.2c.37-.3-.16-.83-.53-.53A9.16,9.16,0,0,0,10,47.69c-.22.36.32.79.59.46a8.63,8.63,0,0,1,2.32-1.64A5.07,5.07,0,0,0,14,45.69c.31-.32.63-.89,1.12-.93L15,44a43,43,0,0,1-8.68,1,.38.38,0,0,0,0,.75Z"/><path class="cls-1" d="M16.11,42.88c-2.62-.42-4.2-2.72-5.57-4.78l-.59.46q1.77,2.1,3.42,4.3l.43-.55A22,22,0,0,0,8,41.14c-.48,0-.48.71,0,.75A21,21,0,0,1,13.6,43c.29.1.62-.29.42-.55Q12.31,40.2,10.48,38c-.27-.33-.82.1-.59.45,1.47,2.21,3.21,4.67,6,5.12.47.08.67-.64.19-.72Z"/><path class="cls-1" d="M21.93,40.77l-.15-5.42-.74.1a12.54,12.54,0,0,1,0,3.77h.73a18.12,18.12,0,0,0-2.89-6c-.28-.39-.93,0-.64.38a17.71,17.71,0,0,1,2.8,5.82c.09.33.67.38.73,0a14.57,14.57,0,0,0,0-4.17c-.07-.42-.75-.31-.74.1l.15,5.42c0,.48.77.49.75,0Z"/><path class="cls-1" d="M23.42,39.53a9.92,9.92,0,0,1,.08-4.69.37.37,0,0,0-.72-.2,10.69,10.69,0,0,0-.08,5.09c.1.47.83.27.72-.2Z"/><path class="cls-1" d="M20.59,40.57a9.53,9.53,0,0,0-4.68-2.33.38.38,0,0,0-.46.26.38.38,0,0,0,.26.46,8.84,8.84,0,0,1,4.35,2.14c.35.33.89-.2.53-.53Z"/><path class="cls-1" d="M13.12,19.47a32.19,32.19,0,0,0,4.52,2.86A14,14,0,0,1,21.7,25.2c.32.36.85-.17.53-.53a14,14,0,0,0-4.09-2.92,34.8,34.8,0,0,1-4.64-2.92c-.39-.3-.76.35-.38.64Z"/><path class="cls-1" d="M16.49,25.26a9.38,9.38,0,0,1,5.13.61.4.4,0,0,0,.52-.13.39.39,0,0,0-.14-.52,10.25,10.25,0,0,0-5.71-.68c-.48.08-.28.8.2.72Z"/><path class="cls-1" d="M17.62,16.1a13.8,13.8,0,0,0,4.22,8.37c.35.33.88-.2.53-.53a13,13,0,0,1-4-7.84c-.06-.47-.81-.47-.75,0Z"/><path class="cls-1" d="M28.67,19a12.11,12.11,0,0,1,3.07-9.74c.32-.36-.21-.89-.53-.53A12.79,12.79,0,0,0,27.92,19c.06.48.81.48.75,0Z"/><path class="cls-1" d="M29.63,19,31.38,13a.37.37,0,0,0-.72-.2l-1.75,5.92a.37.37,0,0,0,.72.2Z"/><path class="cls-1" d="M30.51,18.79l3.27-5.27c.26-.41-.39-.78-.64-.37l-3.28,5.27c-.26.41.39.78.65.37Z"/><path class="cls-1" d="M27,16.48a8.46,8.46,0,0,0-3-5.93c-.37-.3-.9.23-.53.53a7.68,7.68,0,0,1,2.81,5.4c0,.48.78.48.75,0Z"/><path class="cls-1" d="M7.81,27.93a5.14,5.14,0,0,1,2.9-1c.48,0,.48-.77,0-.75a5.78,5.78,0,0,0-3.28,1.14.39.39,0,0,0-.13.52.37.37,0,0,0,.51.13Z"/></g></g></svg>