<?xml version="1.0" encoding="utf-8"?>
<!-- Generator: Adobe Illustrator 26.3.1, SVG Export Plug-In . SVG Version: 6.00 Build 0)  -->
<svg version="1.1" id="Calque_1" xmlns="http://www.w3.org/2000/svg" xmlns:xlink="http://www.w3.org/1999/xlink" x="0px" y="0px"
	 viewBox="0 0 220.4 121.2" style="enable-background:new 0 0 220.4 121.2;" xml:space="preserve">
<style type="text/css">
	.st0{fill:#F8D372;}
</style>
<path class="st0" d="M147.9,81.2c-4.9,0.4-11.1,0.9-11.1,0.9c-23.2,4.8-61.2,4.5-61.2,4.5S4.3,89.3,1,66.3
	c3.1-17.1,34-20.2,43.2-20.8c0.4-0.6,0.9-1.2,1.5-1.7c4.1-3.4,47.3-15.6,92.9-6.8l6.6-0.4l58.6-34.2l-58,36L218.2,11l-72,29
	l-0.3,0.1l0.3-0.1l52-14l-51.3,16.8h-0.1h0.1l69.9-13.6L149,47.7l53.9-6.3l-54.2,8.3l41.6-3.4L149,51.6l55-3.4l-54.8,7.1l44.8-2.1
	L149.3,57h-0.5h0.5l65.7-2.2L149.5,59h-0.2h0.2l32.6-0.1L149.6,60l0,0h-0.2h0.2l51.9,2.3L149.8,62l63.2,3.6L150.1,65l65.5,10.6
	l-65.8-8.4h-0.3l0.2,0.1l53.8,15.9L149.7,69l46.7,17.8l-46.9-15.5l0,0l62,28.6l-62.1-27.4l0,0l70.7,39.4l-70.9-37.6l51.5,31.3
	L149,75.7l-0.2-0.1l-0.4-0.2l0.4,0.3l0.2,0.1l31.3,20.9l-31.5-19.5l-0.4-0.2l0.4,0.3l58.3,42.6l-58.4-41.7l32.6,27.3L147.9,81.2z"/>
<g>
	<path d="M33.5,66.8v-8.6h3.2c0.6,0,1,0.1,1.4,0.2s0.7,0.3,0.9,0.5c0.2,0.2,0.4,0.5,0.4,0.8s0.1,0.6,0.1,0.9c0,0.5-0.1,0.9-0.3,1.2
		c-0.2,0.3-0.4,0.6-0.8,0.7c-0.3,0.2-0.7,0.3-1.1,0.4C37,63,36.6,63,36.2,63h-1.8v3.8H33.5z M36.2,62.3c0.4,0,0.7,0,1-0.1
		c0.3,0,0.6-0.1,0.8-0.3c0.2-0.1,0.4-0.3,0.5-0.5c0.1-0.2,0.2-0.5,0.2-0.9c0-0.5-0.2-1-0.5-1.2c-0.4-0.3-0.9-0.4-1.7-0.4h-2.1v3.4
		H36.2z"/>
	<path d="M40.5,62.5c0-0.6,0.1-1.2,0.3-1.8c0.2-0.6,0.4-1,0.8-1.4c0.3-0.4,0.8-0.7,1.2-1s1.1-0.4,1.7-0.4c0.7,0,1.3,0.1,1.8,0.4
		c0.5,0.2,0.9,0.6,1.3,1c0.3,0.4,0.6,0.9,0.8,1.5c0.2,0.6,0.3,1.2,0.3,1.8c0,0.6-0.1,1.2-0.3,1.8c-0.2,0.5-0.4,1-0.8,1.4
		s-0.8,0.7-1.3,1c-0.5,0.2-1.1,0.4-1.8,0.4s-1.2-0.1-1.8-0.4c-0.5-0.2-0.9-0.6-1.3-1s-0.6-0.9-0.8-1.4
		C40.6,63.7,40.5,63.2,40.5,62.5z M44.6,66.4c0.6,0,1-0.1,1.4-0.3c0.4-0.2,0.7-0.5,1-0.8c0.3-0.4,0.5-0.8,0.6-1.2s0.2-0.9,0.2-1.5
		c0-0.6-0.1-1.1-0.2-1.6c-0.1-0.5-0.4-0.9-0.6-1.2c-0.3-0.3-0.6-0.6-1-0.8c-0.4-0.2-0.8-0.3-1.3-0.3c-0.6,0-1,0.1-1.4,0.3
		c-0.4,0.2-0.7,0.5-1,0.9c-0.3,0.4-0.5,0.8-0.6,1.2c-0.1,0.5-0.2,0.9-0.2,1.5c0,0.5,0.1,1,0.2,1.5c0.1,0.5,0.3,0.9,0.6,1.2
		c0.3,0.4,0.6,0.6,1,0.8C43.5,66.3,44,66.4,44.6,66.4z"/>
	<path d="M50.5,66.8v-8.6h0.8v8.6H50.5z"/>
	<path d="M54.4,59.3L54.4,59.3l0,7.5h-0.8v-8.6h0.9l5,7.5h0v-7.5h0.8v8.6h-0.9L54.4,59.3z"/>
	<path d="M61.4,58.2h6.3v0.7H65v7.9h-0.8v-7.9h-2.7V58.2z"/>
	<path d="M69.2,64.3c0,0.4,0.1,0.7,0.3,1c0.1,0.3,0.3,0.5,0.5,0.7c0.2,0.2,0.5,0.3,0.8,0.4c0.3,0.1,0.6,0.1,0.9,0.1
		c0.4,0,0.7,0,1-0.1c0.3-0.1,0.5-0.2,0.7-0.4s0.3-0.4,0.4-0.6s0.1-0.4,0.1-0.7c0-0.3-0.1-0.6-0.2-0.8c-0.2-0.2-0.3-0.4-0.6-0.5
		c-0.2-0.1-0.5-0.2-0.8-0.3c-0.3-0.1-0.6-0.2-1-0.2c-0.3-0.1-0.7-0.2-1-0.3s-0.6-0.2-0.8-0.4c-0.2-0.2-0.4-0.4-0.6-0.7
		c-0.2-0.3-0.2-0.6-0.2-1c0-0.3,0.1-0.6,0.2-0.9c0.1-0.3,0.3-0.5,0.6-0.7c0.2-0.2,0.5-0.4,0.9-0.5c0.4-0.1,0.8-0.2,1.3-0.2
		c0.5,0,0.9,0.1,1.3,0.2c0.4,0.1,0.7,0.3,0.9,0.6c0.2,0.2,0.4,0.5,0.5,0.8c0.1,0.3,0.2,0.6,0.2,1h-0.8c0-0.3-0.1-0.6-0.2-0.9
		c-0.1-0.2-0.3-0.4-0.5-0.6c-0.2-0.2-0.4-0.3-0.7-0.3c-0.3-0.1-0.5-0.1-0.8-0.1c-0.4,0-0.8,0.1-1,0.2c-0.3,0.1-0.5,0.3-0.7,0.5
		c-0.2,0.2-0.3,0.4-0.3,0.6c-0.1,0.2-0.1,0.4,0,0.7c0,0.3,0.2,0.5,0.3,0.7s0.4,0.3,0.6,0.4c0.3,0.1,0.5,0.2,0.8,0.3
		c0.3,0.1,0.6,0.1,0.9,0.2s0.6,0.2,0.9,0.3c0.3,0.1,0.6,0.2,0.8,0.4s0.4,0.4,0.6,0.7c0.1,0.3,0.2,0.6,0.2,1c0,0.8-0.3,1.4-0.8,1.9
		c-0.6,0.4-1.3,0.7-2.3,0.7c-0.4,0-0.9-0.1-1.2-0.2c-0.4-0.1-0.7-0.3-1-0.5c-0.3-0.2-0.5-0.5-0.7-0.9s-0.2-0.8-0.2-1.2H69.2z"/>
	<path d="M79.5,66.8v-8.6h3c0.2,0,0.5,0,0.7,0s0.5,0,0.7,0.1c0.2,0,0.4,0.1,0.7,0.2s0.4,0.2,0.6,0.3c0.3,0.2,0.5,0.5,0.7,0.8
		s0.3,0.6,0.4,0.9c0.1,0.3,0.2,0.7,0.2,1s0.1,0.7,0.1,0.9c0,0.3,0,0.6-0.1,0.9c0,0.3-0.1,0.6-0.2,0.9c-0.1,0.3-0.2,0.6-0.3,0.8
		c-0.1,0.3-0.3,0.5-0.5,0.7c-0.2,0.2-0.4,0.4-0.7,0.5c-0.2,0.1-0.5,0.2-0.7,0.3s-0.5,0.1-0.8,0.2c-0.3,0-0.6,0-0.9,0H79.5z
		 M80.4,66.1h2c0.4,0,0.7,0,1-0.1c0.3,0,0.7-0.2,1-0.3c0.3-0.1,0.5-0.3,0.7-0.6c0.2-0.2,0.3-0.5,0.4-0.8c0.1-0.3,0.2-0.6,0.2-0.9
		c0-0.3,0.1-0.6,0.1-0.9c0-0.3,0-0.6-0.1-1c0-0.3-0.1-0.6-0.2-0.9c-0.1-0.3-0.3-0.6-0.5-0.8c-0.2-0.2-0.4-0.4-0.7-0.6
		C84,59.1,83.7,59,83.4,59c-0.4,0-0.7-0.1-1.1-0.1h-2V66.1z"/>
	<path d="M88.2,66.8v-8.6H94v0.7H89V62h4.5v0.7H89v3.4h5.1v0.7H88.2z"/>
	<path d="M98.1,58.2H99l2.6,7.7l2.6-7.7h0.9l-3,8.6h-0.9L98.1,58.2z"/>
	<path d="M106.2,66.8v-8.6h5.7v0.7H107V62h4.5v0.7H107v3.4h5.1v0.7H106.2z"/>
	<path d="M114.4,59.3L114.4,59.3l0,7.5h-0.8v-8.6h0.9l5,7.5h0v-7.5h0.8v8.6h-0.9L114.4,59.3z"/>
	<path d="M121.4,58.2h6.3v0.7H125v7.9h-0.8v-7.9h-2.7V58.2z"/>
	<path d="M128.9,66.8v-8.6h5.7v0.7h-4.9V62h4.5v0.7h-4.5v3.4h5.1v0.7H128.9z"/>
	<path d="M136.5,64.3c0,0.4,0.1,0.7,0.3,1c0.1,0.3,0.3,0.5,0.5,0.7c0.2,0.2,0.5,0.3,0.8,0.4c0.3,0.1,0.6,0.1,0.9,0.1
		c0.4,0,0.7,0,1-0.1c0.3-0.1,0.5-0.2,0.7-0.4s0.3-0.4,0.4-0.6s0.1-0.4,0.1-0.7c0-0.3-0.1-0.6-0.2-0.8c-0.2-0.2-0.3-0.4-0.6-0.5
		c-0.2-0.1-0.5-0.2-0.8-0.3c-0.3-0.1-0.6-0.2-1-0.2c-0.3-0.1-0.7-0.2-1-0.3s-0.6-0.2-0.8-0.4c-0.2-0.2-0.4-0.4-0.6-0.7
		c-0.2-0.3-0.2-0.6-0.2-1c0-0.3,0.1-0.6,0.2-0.9c0.1-0.3,0.3-0.5,0.6-0.7c0.2-0.2,0.5-0.4,0.9-0.5c0.4-0.1,0.8-0.2,1.3-0.2
		c0.5,0,0.9,0.1,1.3,0.2c0.4,0.1,0.7,0.3,0.9,0.6c0.2,0.2,0.4,0.5,0.5,0.8c0.1,0.3,0.2,0.6,0.2,1H141c0-0.3-0.1-0.6-0.2-0.9
		c-0.1-0.2-0.3-0.4-0.5-0.6c-0.2-0.2-0.4-0.3-0.7-0.3c-0.3-0.1-0.5-0.1-0.8-0.1c-0.4,0-0.8,0.1-1,0.2c-0.3,0.1-0.5,0.3-0.7,0.5
		c-0.2,0.2-0.3,0.4-0.3,0.6c-0.1,0.2-0.1,0.4,0,0.7c0,0.3,0.2,0.5,0.3,0.7s0.4,0.3,0.6,0.4c0.3,0.1,0.5,0.2,0.8,0.3
		c0.3,0.1,0.6,0.1,0.9,0.2s0.6,0.2,0.9,0.3c0.3,0.1,0.6,0.2,0.8,0.4s0.4,0.4,0.6,0.7c0.1,0.3,0.2,0.6,0.2,1c0,0.8-0.3,1.4-0.8,1.9
		c-0.6,0.4-1.3,0.7-2.3,0.7c-0.4,0-0.9-0.1-1.2-0.2c-0.4-0.1-0.7-0.3-1-0.5c-0.3-0.2-0.5-0.5-0.7-0.9s-0.2-0.8-0.2-1.2H136.5z"/>
</g>
<rect x="33.5" y="68.2" width="108.1" height="1"/>
</svg>
