<?xml version="1.0" encoding="utf-8"?>
<!-- Generator: Adobe Illustrator 26.3.1, SVG Export Plug-In . SVG Version: 6.00 Build 0)  -->
<svg version="1.1" id="Calque_1" xmlns="http://www.w3.org/2000/svg" xmlns:xlink="http://www.w3.org/1999/xlink" x="0px" y="0px"
	 viewBox="0 0 155 113.2" style="enable-background:new 0 0 155 113.2;" xml:space="preserve">
<style type="text/css">
	.st0{fill:#CCD5CB;}
</style>
<g>
	<g>
		<g id="Zksaa8.tif_00000125600710363014409340000001861649364535048584_">
			<g>
				<path class="st0" d="M127.6,2c15.4,4.1,22,15.3,25.2,29.8c1.9,8.7,2.5,17.3,0.9,26.1c-2.4,13.3-9.9,23.7-20.2,31.8
					c-10.2,8.1-21.3,14.9-34,18.5c-21.7,6.1-43.5,6.7-64.8-2.1c-3.5-1.4-7.1-2.6-10.6-4.2c-13.9-6.5-21.9-17-23.1-32.6
					c-0.9-12.2-0.9-24.2,3-35.9c0,0,1-5.8,5.7-10.3s3.8-3.7,3.8-3.7C22.7,10.8,34,7.5,45.9,5.6c8.3-1.4,16.5-1,24.8,0.1
					c4.7,0.6,9.9,0.5,14.5-0.7C99.2,1.3,113.2-0.8,127.6,2L127.6,2z"/>
			</g>
		</g>
	</g>
</g>
<g>
	<path d="M37.3,61.3c-0.1-0.2-0.2-0.4-0.2-0.7c0-0.1,0-0.2,0-0.2c0-0.1,0-0.1,0-0.2c0-0.3,0.1-0.7,0.2-1c0.1-0.3,0.3-0.6,0.5-0.8
		c0.2-0.2,0.5-0.4,0.8-0.5c0.3-0.1,0.6-0.2,1-0.2h0.1c0.8,0,1.4,0.1,1.8,0.4c0.4,0.3,0.8,0.7,1.1,1.1c0.3,0.4,0.5,0.9,0.8,1.4
		s0.5,1,0.8,1.4c0.3,0.4,0.7,0.8,1.1,1.1s1.1,0.4,1.9,0.4c0.7,0,1.3-0.2,1.8-0.5c0.5-0.3,0.8-0.8,0.8-1.5c0-0.8-0.3-1.4-0.9-2
		s-1.3-1.1-2.2-1.5c-0.9-0.5-1.9-0.9-2.9-1.4c-1-0.5-2-1-2.9-1.6c-0.9-0.6-1.6-1.3-2.2-2.1c-0.6-0.8-0.9-1.8-0.9-2.9
		c0-0.9,0.2-1.7,0.6-2.3c0.4-0.7,0.9-1.2,1.6-1.7s1.5-0.8,2.4-1c0.9-0.2,1.9-0.3,2.9-0.3c1.2,0,2.2,0.1,3.1,0.3
		c0.9,0.2,1.7,0.4,2.3,0.7c0.6,0.3,1.2,0.6,1.6,0.9c0.4,0.3,0.8,0.7,1,1c0.1,0.2,0.3,0.3,0.3,0.5c0.1,0.2,0.2,0.4,0.2,0.6
		c0,0.1,0,0.1,0,0.2c0,0,0,0.1,0,0.1c0,0.3-0.1,0.6-0.2,0.9s-0.3,0.5-0.5,0.8s-0.5,0.4-0.8,0.5c-0.3,0.1-0.6,0.2-1,0.2
		c-0.6,0-1.1-0.1-1.5-0.4s-0.7-0.6-0.9-0.9c-0.3-0.4-0.5-0.8-0.7-1.2s-0.4-0.8-0.7-1.2c-0.3-0.4-0.6-0.7-1-0.9s-0.9-0.4-1.6-0.4
		c-0.5,0-0.9,0.2-1.3,0.5c-0.4,0.3-0.6,0.8-0.6,1.5c0,0.8,0.3,1.4,0.9,1.9c0.6,0.5,1.3,0.9,2.2,1.3c0.9,0.4,1.8,0.8,2.9,1.2
		c1,0.4,2,0.9,2.8,1.4c0.9,0.6,1.6,1.3,2.2,2.1c0.6,0.8,0.9,1.9,0.9,3.2c0,0.9-0.2,1.6-0.6,2.4c-0.4,0.7-1,1.3-1.7,1.9
		c-0.7,0.5-1.6,0.9-2.7,1.2c-1,0.3-2.2,0.4-3.5,0.4c-1.4,0-2.7-0.1-3.7-0.4c-1-0.2-1.9-0.6-2.7-0.9s-1.3-0.8-1.7-1.3
		C37.8,62.2,37.5,61.8,37.3,61.3z"/>
	<path d="M55.9,64.1c0-0.3,0.1-0.5,0.3-0.8s0.4-0.5,0.6-0.7c0.2-0.2,0.4-0.5,0.6-0.7c0.2-0.2,0.3-0.5,0.3-0.9V49
		c0-0.3-0.1-0.6-0.3-0.8c-0.2-0.2-0.4-0.5-0.6-0.7c-0.2-0.2-0.4-0.5-0.6-0.7c-0.2-0.2-0.3-0.5-0.3-0.8c0-0.3,0.1-0.6,0.3-0.8
		s0.5-0.3,0.8-0.3h6.8c0.3,0,0.6,0.1,0.8,0.3s0.3,0.5,0.3,0.8c0,0.3-0.1,0.6-0.3,0.8c-0.2,0.2-0.4,0.5-0.6,0.7
		c-0.2,0.2-0.4,0.5-0.6,0.7c-0.2,0.2-0.3,0.5-0.3,0.8v4.8h5.5V49c0-0.3-0.1-0.6-0.3-0.8c-0.2-0.2-0.4-0.5-0.6-0.7
		c-0.2-0.2-0.4-0.5-0.6-0.7c-0.2-0.2-0.3-0.5-0.3-0.8c0-0.3,0.1-0.6,0.3-0.8s0.5-0.3,0.8-0.3h6.8c0.3,0,0.6,0.1,0.8,0.3
		s0.3,0.5,0.3,0.8c0,0.3-0.1,0.6-0.3,0.8c-0.2,0.2-0.4,0.5-0.6,0.7c-0.2,0.2-0.4,0.5-0.6,0.7c-0.2,0.2-0.3,0.5-0.3,0.8v12.1
		c0,0.3,0.1,0.6,0.3,0.9s0.4,0.5,0.6,0.7c0.2,0.2,0.4,0.5,0.6,0.7c0.2,0.2,0.3,0.5,0.3,0.8c0,0.3-0.1,0.6-0.3,0.8s-0.5,0.3-0.8,0.3
		h-6.8c-0.3,0-0.6-0.1-0.8-0.3s-0.3-0.5-0.3-0.8c0-0.3,0.1-0.5,0.3-0.8c0.2-0.2,0.4-0.5,0.6-0.7c0.2-0.2,0.4-0.5,0.6-0.7
		s0.3-0.5,0.3-0.9v-5.3h-5.5v5.3c0,0.3,0.1,0.6,0.3,0.9c0.2,0.2,0.4,0.5,0.6,0.7c0.2,0.2,0.4,0.5,0.6,0.7c0.2,0.2,0.3,0.5,0.3,0.8
		c0,0.3-0.1,0.6-0.3,0.8s-0.5,0.3-0.8,0.3h-6.8c-0.3,0-0.6-0.1-0.8-0.3S55.9,64.5,55.9,64.1z"/>
	<path d="M87,65.5c-1.4,0-2.8-0.3-4-0.8s-2.3-1.3-3.2-2.2c-0.9-0.9-1.6-2-2.2-3.3c-0.5-1.3-0.8-2.6-0.8-4.1c0-1.5,0.3-2.9,0.8-4.2
		s1.3-2.4,2.2-3.3c0.9-0.9,2-1.6,3.2-2.2c1.2-0.5,2.6-0.8,4-0.8c1.4,0,2.7,0.3,4,0.8c1.2,0.5,2.3,1.2,3.3,2.2c0.9,0.9,1.7,2,2.2,3.3
		c0.5,1.3,0.8,2.7,0.8,4.2c0,1.4-0.3,2.8-0.8,4c-0.5,1.3-1.3,2.4-2.2,3.3c-0.9,1-2,1.7-3.3,2.2S88.4,65.5,87,65.5z M85.8,46.3
		c-0.6,0-1.1,0.2-1.6,0.5c-0.5,0.3-0.9,0.9-1.2,1.6s-0.5,1.6-0.6,2.7s0,2.4,0.2,3.9c0.2,1.6,0.5,3,0.9,4.1c0.4,1.1,0.8,2,1.3,2.7
		c0.5,0.7,1,1.2,1.6,1.5c0.6,0.3,1.2,0.5,1.8,0.5s1.1-0.2,1.6-0.5c0.5-0.3,0.9-0.8,1.2-1.5c0.3-0.7,0.5-1.6,0.6-2.7
		c0.1-1.1,0-2.5-0.2-4.1c-0.2-1.5-0.5-2.8-0.9-3.9s-0.8-2-1.3-2.7s-1-1.2-1.6-1.6S86.4,46.3,85.8,46.3z"/>
	<path d="M98.4,64.1c0-0.3,0.1-0.5,0.3-0.8s0.4-0.5,0.6-0.7c0.2-0.2,0.4-0.5,0.6-0.7c0.2-0.2,0.3-0.5,0.3-0.9V49
		c0-0.3-0.1-0.6-0.3-0.8c-0.2-0.2-0.4-0.5-0.6-0.7c-0.2-0.2-0.4-0.5-0.6-0.7c-0.2-0.2-0.3-0.5-0.3-0.8c0-0.3,0.1-0.6,0.3-0.8
		s0.5-0.3,0.8-0.3l8,0c2.8,0,5,0.5,6.6,1.4c1.5,0.9,2.3,2.3,2.3,4.2c0,1.1-0.2,2.1-0.6,2.9c-0.4,0.8-0.9,1.5-1.6,2
		c-0.6,0.5-1.4,1-2.2,1.3c-0.8,0.3-1.6,0.5-2.4,0.7c-0.8,0.1-1.5,0.2-2.2,0.3c-0.7,0-1.3,0-1.8,0v3.5c0,0.5,0.1,0.9,0.3,1.1
		c0.2,0.3,0.4,0.5,0.6,0.7c0.2,0.2,0.4,0.4,0.6,0.6c0.2,0.2,0.3,0.4,0.3,0.7c0,0.3-0.1,0.6-0.3,0.8c-0.2,0.2-0.5,0.3-0.8,0.3h-6.9
		c-0.3,0-0.6-0.1-0.8-0.3S98.4,64.5,98.4,64.1z M105.7,55.8c0.4,0,0.9-0.1,1.5-0.2c0.6-0.1,1.1-0.3,1.6-0.6c0.5-0.3,1-0.8,1.3-1.3
		c0.4-0.6,0.5-1.3,0.5-2.3c0-1.3-0.2-2.3-0.7-3s-1.1-1.2-2.1-1.2h-1.2c-0.2,0.2-0.4,0.4-0.6,0.7c-0.2,0.2-0.3,0.6-0.4,1.1v0.4v0
		V55.8z"/>
</g>
<rect x="37.2" y="66.6" width="77.9" height="1"/>
</svg>
