<?xml version="1.0" encoding="utf-8"?>
<!-- Generator: Adobe Illustrator 26.3.1, SVG Export Plug-In . SVG Version: 6.00 Build 0)  -->
<svg version="1.1" id="Calque_1" xmlns="http://www.w3.org/2000/svg" xmlns:xlink="http://www.w3.org/1999/xlink" x="0px" y="0px"
	 viewBox="0 0 156.9 114.1" style="enable-background:new 0 0 156.9 114.1;" xml:space="preserve">
<style type="text/css">
	.st0{fill:#CCD5CB;}
</style>
<g>
	<g>
		<g>
			<g id="Zksaa8.tif_00000087394659890336487180000009161538120094596514_">
				<g>
					<path class="st0" d="M129,2.1c15.4,4.1,22.1,15.4,25.3,30c1.9,8.8,2.6,17.4,0.9,26.3c-2.5,13.4-9.9,23.8-20.3,32
						c-10.2,8.1-21.4,15-34.1,18.6c-21.8,6.1-43.7,6.7-65.1-2.1c-3.5-1.4-7.2-2.6-10.6-4.2c-14-6.5-22-17.1-23.2-32.8
						C1,57.5,1,45.4,5,33.7c0,0,1-5.8,5.7-10.4s3.8-3.8,3.8-3.8C23.6,10.9,35,7.7,46.9,5.7c8.3-1.4,16.6-1,25,0.1
						c4.7,0.6,9.9,0.5,14.5-0.7C100.5,1.4,114.5-0.7,129,2.1L129,2.1z"/>
				</g>
			</g>
		</g>
	</g>
</g>
<g>
	<path d="M28.6,55.2L28.6,55.2l0,7.5h-0.8v-8.6h0.9l5,7.5h0v-7.5h0.8v8.6h-0.9L28.6,55.2z"/>
	<path d="M36.2,58.4c0-0.6,0.1-1.2,0.3-1.8c0.2-0.6,0.4-1,0.8-1.4s0.8-0.7,1.2-1s1.1-0.4,1.7-0.4c0.7,0,1.3,0.1,1.8,0.4
		c0.5,0.2,0.9,0.6,1.3,1s0.6,0.9,0.8,1.5s0.3,1.2,0.3,1.8c0,0.6-0.1,1.2-0.3,1.8s-0.4,1-0.8,1.4s-0.8,0.7-1.3,1
		c-0.5,0.2-1.1,0.4-1.8,0.4s-1.2-0.1-1.8-0.4c-0.5-0.2-0.9-0.6-1.3-1s-0.6-0.9-0.8-1.4S36.2,59.1,36.2,58.4z M40.2,62.3
		c0.6,0,1-0.1,1.4-0.3c0.4-0.2,0.7-0.5,1-0.8c0.3-0.4,0.5-0.8,0.6-1.2c0.1-0.5,0.2-0.9,0.2-1.5c0-0.6-0.1-1.1-0.2-1.6
		c-0.1-0.5-0.4-0.9-0.6-1.2c-0.3-0.3-0.6-0.6-1-0.8c-0.4-0.2-0.8-0.3-1.3-0.3c-0.6,0-1,0.1-1.4,0.3c-0.4,0.2-0.7,0.5-1,0.9
		c-0.3,0.4-0.5,0.8-0.6,1.2C37,57.4,37,57.9,37,58.4c0,0.5,0.1,1,0.2,1.5c0.1,0.5,0.3,0.9,0.6,1.2s0.6,0.6,1,0.8
		C39.1,62.2,39.6,62.3,40.2,62.3z"/>
	<path d="M46.2,60.2c0,0.4,0.1,0.7,0.3,1c0.1,0.3,0.3,0.5,0.5,0.7c0.2,0.2,0.5,0.3,0.8,0.4s0.6,0.1,0.9,0.1c0.4,0,0.7,0,1-0.1
		c0.3-0.1,0.5-0.2,0.7-0.4c0.2-0.2,0.3-0.4,0.4-0.6c0.1-0.2,0.1-0.4,0.1-0.7c0-0.3-0.1-0.6-0.2-0.8c-0.2-0.2-0.3-0.4-0.6-0.5
		s-0.5-0.2-0.8-0.3s-0.6-0.2-1-0.2c-0.3-0.1-0.7-0.2-1-0.3c-0.3-0.1-0.6-0.2-0.8-0.4s-0.4-0.4-0.6-0.7c-0.2-0.3-0.2-0.6-0.2-1
		c0-0.3,0.1-0.6,0.2-0.9c0.1-0.3,0.3-0.5,0.6-0.7c0.2-0.2,0.5-0.4,0.9-0.5s0.8-0.2,1.3-0.2c0.5,0,0.9,0.1,1.3,0.2
		c0.4,0.1,0.7,0.3,0.9,0.6c0.2,0.2,0.4,0.5,0.5,0.8s0.2,0.6,0.2,1h-0.8c0-0.3-0.1-0.6-0.2-0.9c-0.1-0.2-0.3-0.4-0.5-0.6
		c-0.2-0.2-0.4-0.3-0.7-0.3s-0.5-0.1-0.8-0.1c-0.4,0-0.8,0.1-1.1,0.2c-0.3,0.1-0.5,0.3-0.7,0.5s-0.3,0.4-0.3,0.6
		c-0.1,0.2-0.1,0.4,0,0.7c0,0.3,0.2,0.5,0.3,0.7c0.2,0.2,0.4,0.3,0.6,0.4c0.3,0.1,0.5,0.2,0.8,0.3s0.6,0.1,0.9,0.2
		c0.3,0.1,0.6,0.2,0.9,0.3c0.3,0.1,0.6,0.2,0.8,0.4c0.2,0.2,0.4,0.4,0.6,0.7c0.1,0.3,0.2,0.6,0.2,1c0,0.8-0.3,1.4-0.8,1.9
		c-0.6,0.4-1.3,0.7-2.3,0.7c-0.4,0-0.9-0.1-1.2-0.2c-0.4-0.1-0.7-0.3-1-0.5c-0.3-0.2-0.5-0.5-0.7-0.9c-0.2-0.3-0.2-0.8-0.2-1.2H46.2
		z"/>
	<path d="M56.8,60.2c0,0.4,0.1,0.7,0.3,1c0.1,0.3,0.3,0.5,0.5,0.7c0.2,0.2,0.5,0.3,0.8,0.4s0.6,0.1,0.9,0.1c0.4,0,0.7,0,1-0.1
		c0.3-0.1,0.5-0.2,0.7-0.4c0.2-0.2,0.3-0.4,0.4-0.6c0.1-0.2,0.1-0.4,0.1-0.7c0-0.3-0.1-0.6-0.2-0.8c-0.2-0.2-0.3-0.4-0.6-0.5
		s-0.5-0.2-0.8-0.3s-0.6-0.2-1-0.2c-0.3-0.1-0.7-0.2-1-0.3c-0.3-0.1-0.6-0.2-0.8-0.4s-0.4-0.4-0.6-0.7c-0.2-0.3-0.2-0.6-0.2-1
		c0-0.3,0.1-0.6,0.2-0.9c0.1-0.3,0.3-0.5,0.6-0.7c0.2-0.2,0.5-0.4,0.9-0.5s0.8-0.2,1.3-0.2c0.5,0,0.9,0.1,1.3,0.2
		c0.4,0.1,0.7,0.3,0.9,0.6c0.2,0.2,0.4,0.5,0.5,0.8s0.2,0.6,0.2,1h-0.8c0-0.3-0.1-0.6-0.2-0.9c-0.1-0.2-0.3-0.4-0.5-0.6
		c-0.2-0.2-0.4-0.3-0.7-0.3s-0.5-0.1-0.8-0.1c-0.4,0-0.8,0.1-1.1,0.2c-0.3,0.1-0.5,0.3-0.7,0.5s-0.3,0.4-0.3,0.6
		c-0.1,0.2-0.1,0.4,0,0.7c0,0.3,0.2,0.5,0.3,0.7c0.2,0.2,0.4,0.3,0.6,0.4c0.3,0.1,0.5,0.2,0.8,0.3s0.6,0.1,0.9,0.2
		c0.3,0.1,0.6,0.2,0.9,0.3c0.3,0.1,0.6,0.2,0.8,0.4c0.2,0.2,0.4,0.4,0.6,0.7c0.1,0.3,0.2,0.6,0.2,1c0,0.8-0.3,1.4-0.8,1.9
		c-0.6,0.4-1.3,0.7-2.3,0.7c-0.4,0-0.9-0.1-1.2-0.2c-0.4-0.1-0.7-0.3-1-0.5c-0.3-0.2-0.5-0.5-0.7-0.9C56.1,61,56,60.6,56,60.2H56.8z
		"/>
	<path d="M63.8,62.7v-8.6h5.7v0.7h-4.9v3.1h4.5v0.7h-4.5V62h5.1v0.7H63.8z"/>
	<path d="M71.1,62.7v-8.6h1.2l2.8,7.6h0l2.8-7.6h1.2v8.6h-0.8V55h0l-2.8,7.7h-0.8L72,55h0v7.7H71.1z"/>
	<path d="M81.2,62.7v-8.6h5.7v0.7H82v3.1h4.5v0.7H82V62H87v0.7H81.2z"/>
	<path d="M89.3,55.2L89.3,55.2l0,7.5h-0.8v-8.6h0.9l5,7.5h0v-7.5h0.8v8.6h-0.9L89.3,55.2z"/>
	<path d="M103.3,56.6c-0.2-0.7-0.5-1.3-0.9-1.6s-1.1-0.5-1.8-0.5c-0.5,0-1,0.1-1.3,0.3c-0.4,0.2-0.7,0.5-0.9,0.8
		c-0.2,0.4-0.4,0.8-0.5,1.2c-0.1,0.5-0.2,0.9-0.2,1.5c0,0.5,0,1,0.1,1.4c0.1,0.5,0.3,0.9,0.5,1.2c0.2,0.4,0.5,0.7,0.9,0.9
		c0.4,0.2,0.9,0.3,1.5,0.3c0.4,0,0.7-0.1,1-0.2c0.3-0.1,0.6-0.3,0.8-0.5c0.2-0.2,0.4-0.5,0.6-0.8c0.2-0.3,0.3-0.6,0.4-0.9h0.9
		c-0.1,0.4-0.2,0.8-0.4,1.2c-0.2,0.4-0.4,0.7-0.7,1c-0.3,0.3-0.7,0.5-1.1,0.7c-0.4,0.2-0.9,0.2-1.5,0.2c-0.7,0-1.2-0.1-1.7-0.4
		c-0.5-0.2-0.9-0.6-1.2-1c-0.3-0.4-0.5-0.9-0.7-1.4c-0.1-0.5-0.2-1.1-0.2-1.7c0-0.8,0.1-1.5,0.3-2.1s0.5-1,0.8-1.4
		c0.4-0.4,0.8-0.6,1.3-0.8c0.5-0.2,1-0.2,1.6-0.2c0.4,0,0.8,0.1,1.2,0.2c0.4,0.1,0.7,0.3,1,0.5s0.5,0.5,0.7,0.9
		c0.2,0.3,0.3,0.7,0.4,1.2H103.3z"/>
	<path d="M105.8,62.7v-8.6h5.7v0.7h-4.9v3.1h4.5v0.7h-4.5V62h5.1v0.7H105.8z"/>
	<path d="M113.5,60.2c0,0.4,0.1,0.7,0.3,1c0.1,0.3,0.3,0.5,0.5,0.7c0.2,0.2,0.5,0.3,0.8,0.4s0.6,0.1,0.9,0.1c0.4,0,0.7,0,1-0.1
		c0.3-0.1,0.5-0.2,0.7-0.4c0.2-0.2,0.3-0.4,0.4-0.6c0.1-0.2,0.1-0.4,0.1-0.7c0-0.3-0.1-0.6-0.2-0.8c-0.2-0.2-0.3-0.4-0.6-0.5
		s-0.5-0.2-0.8-0.3s-0.6-0.2-1-0.2c-0.3-0.1-0.7-0.2-1-0.3c-0.3-0.1-0.6-0.2-0.8-0.4s-0.4-0.4-0.6-0.7c-0.2-0.3-0.2-0.6-0.2-1
		c0-0.3,0.1-0.6,0.2-0.9c0.1-0.3,0.3-0.5,0.6-0.7c0.2-0.2,0.5-0.4,0.9-0.5s0.8-0.2,1.3-0.2c0.5,0,0.9,0.1,1.3,0.2
		c0.4,0.1,0.7,0.3,0.9,0.6c0.2,0.2,0.4,0.5,0.5,0.8s0.2,0.6,0.2,1h-0.8c0-0.3-0.1-0.6-0.2-0.9c-0.1-0.2-0.3-0.4-0.5-0.6
		c-0.2-0.2-0.4-0.3-0.7-0.3s-0.5-0.1-0.8-0.1c-0.4,0-0.8,0.1-1.1,0.2c-0.3,0.1-0.5,0.3-0.7,0.5s-0.3,0.4-0.3,0.6
		c-0.1,0.2-0.1,0.4,0,0.7c0,0.3,0.2,0.5,0.3,0.7c0.2,0.2,0.4,0.3,0.6,0.4c0.3,0.1,0.5,0.2,0.8,0.3s0.6,0.1,0.9,0.2
		c0.3,0.1,0.6,0.2,0.9,0.3c0.3,0.1,0.6,0.2,0.8,0.4c0.2,0.2,0.4,0.4,0.6,0.7c0.1,0.3,0.2,0.6,0.2,1c0,0.8-0.3,1.4-0.8,1.9
		c-0.6,0.4-1.3,0.7-2.3,0.7c-0.4,0-0.9-0.1-1.2-0.2c-0.4-0.1-0.7-0.3-1-0.5c-0.3-0.2-0.5-0.5-0.7-0.9c-0.2-0.3-0.2-0.8-0.2-1.2
		H113.5z"/>
</g>
<rect x="27.8" y="64.1" width="91.2" height="1"/>
</svg>
