<?xml version="1.0" encoding="utf-8"?>
<!-- Generator: Adobe Illustrator 26.3.1, SVG Export Plug-In . SVG Version: 6.00 Build 0)  -->
<svg version="1.1" id="Calque_1" xmlns="http://www.w3.org/2000/svg" xmlns:xlink="http://www.w3.org/1999/xlink" x="0px" y="0px"
	 viewBox="0 0 45.8 14.5" style="enable-background:new 0 0 45.8 14.5;" xml:space="preserve">
<style type="text/css">
	.st0{fill:#142241;}
</style>
<g>
	<path class="st0" d="M44.3,14.1H1.6c-0.6,0-1.1-0.5-1.1-1.1v0c0-0.6,0.5-1.1,1.1-1.1h42.7c0.6,0,1.1,0.5,1.1,1.1v0
		C45.5,13.6,45,14.1,44.3,14.1z"/>
	<path class="st0" d="M44.3,8.4H1.6C1,8.4,0.5,7.9,0.5,7.3v0c0-0.6,0.5-1.1,1.1-1.1h42.7c0.6,0,1.1,0.5,1.1,1.1v0
		C45.5,7.9,45,8.4,44.3,8.4z"/>
	<path class="st0" d="M44.3,2.7H1.6C1,2.7,0.5,2.2,0.5,1.6v0C0.5,1,1,0.5,1.6,0.5h42.7c0.6,0,1.1,0.5,1.1,1.1v0
		C45.5,2.2,45,2.7,44.3,2.7z"/>
</g>
</svg>
