<?xml version="1.0" encoding="utf-8"?>
<!-- Generator: Adobe Illustrator 26.3.1, SVG Export Plug-In . SVG Version: 6.00 Build 0)  -->
<svg version="1.1" id="Calque_1" xmlns="http://www.w3.org/2000/svg" xmlns:xlink="http://www.w3.org/1999/xlink" x="0px" y="0px"
	 viewBox="0 0 162.8 87.5" style="enable-background:new 0 0 162.8 87.5;" xml:space="preserve">
<style type="text/css">
	.st0{fill:#B9D6E8;}
</style>
<path class="st0" d="M127.4,15.7c8.5,3.9,16.7,8.5,25.1,12.8c0-0.1-0.1-0.1-0.1-0.1c8.7,3.1,9,11.3,9.9,18.3
	c0.4,2.6-3.2,7.1-6.1,8.6c-17.2,8.8-34.3,18.2-52.3,25.1c-26.6,10.2-53.5,8.2-79.5-3.7c-10.4-4.7-18-12.1-21.8-22.9
	c-4.3-12-0.4-22.2,7.9-31C25,7.2,44.2,1.9,64.6,0.7C87-0.7,107.5,6.5,127.4,15.7z"/>
<g>
	<path d="M50.5,42.6c-0.2-0.7-0.5-1.3-0.9-1.6c-0.5-0.3-1.1-0.5-1.8-0.5c-0.5,0-1,0.1-1.3,0.3c-0.4,0.2-0.7,0.5-0.9,0.8
		c-0.2,0.4-0.4,0.8-0.5,1.2c-0.1,0.5-0.2,0.9-0.2,1.5c0,0.5,0.1,1,0.2,1.4s0.3,0.9,0.5,1.2c0.2,0.4,0.5,0.7,0.9,0.9
		c0.4,0.2,0.9,0.3,1.5,0.3c0.4,0,0.7-0.1,1-0.2c0.3-0.1,0.6-0.3,0.8-0.5c0.2-0.2,0.4-0.5,0.6-0.8c0.2-0.3,0.3-0.6,0.4-0.9h0.9
		c-0.1,0.4-0.2,0.8-0.4,1.2s-0.4,0.7-0.7,1c-0.3,0.3-0.7,0.5-1.1,0.7c-0.4,0.2-0.9,0.2-1.5,0.2c-0.7,0-1.2-0.1-1.7-0.4
		c-0.5-0.2-0.9-0.6-1.2-1c-0.3-0.4-0.5-0.9-0.7-1.4C44.1,45.6,44,45,44,44.4c0-0.8,0.1-1.5,0.3-2.1c0.2-0.6,0.5-1,0.8-1.4
		c0.4-0.4,0.8-0.6,1.3-0.8c0.5-0.2,1-0.2,1.6-0.2c0.4,0,0.8,0.1,1.2,0.2c0.4,0.1,0.7,0.3,1,0.5s0.5,0.5,0.7,0.9
		c0.2,0.3,0.3,0.7,0.4,1.2H50.5z"/>
	<path d="M52.7,44.4c0-0.6,0.1-1.2,0.3-1.8s0.4-1,0.8-1.4c0.3-0.4,0.8-0.7,1.2-1s1.1-0.4,1.7-0.4c0.7,0,1.3,0.1,1.8,0.4
		c0.5,0.2,0.9,0.6,1.3,1c0.3,0.4,0.6,0.9,0.8,1.5c0.2,0.6,0.3,1.2,0.3,1.8c0,0.6-0.1,1.2-0.3,1.8c-0.2,0.5-0.4,1-0.8,1.4
		c-0.3,0.4-0.8,0.7-1.3,1C58,48.9,57.4,49,56.7,49s-1.2-0.1-1.8-0.4c-0.5-0.2-0.9-0.6-1.3-1c-0.3-0.4-0.6-0.9-0.8-1.4
		S52.7,45.1,52.7,44.4z M56.8,48.3c0.6,0,1-0.1,1.4-0.3s0.7-0.5,1-0.8c0.3-0.4,0.5-0.8,0.6-1.2c0.1-0.5,0.2-0.9,0.2-1.5
		c0-0.6-0.1-1.1-0.2-1.6c-0.1-0.5-0.4-0.9-0.6-1.2s-0.6-0.6-1-0.8c-0.4-0.2-0.8-0.3-1.3-0.3c-0.6,0-1,0.1-1.4,0.3
		c-0.4,0.2-0.7,0.5-1,0.9c-0.3,0.4-0.5,0.8-0.6,1.2s-0.2,0.9-0.2,1.5c0,0.5,0.1,1,0.2,1.5s0.3,0.9,0.6,1.2c0.3,0.4,0.6,0.6,1,0.8
		S56.2,48.3,56.8,48.3z"/>
	<path d="M63.2,41.2L63.2,41.2l0,7.5h-0.8v-8.6h0.9l5,7.5h0v-7.5h0.8v8.6h-0.9L63.2,41.2z"/>
	<path d="M70.3,40.1h6.3v0.7h-2.7v7.9H73v-7.9h-2.7V40.1z"/>
	<path d="M76.9,48.7l3.4-8.6h0.9l3.3,8.6h-0.8l-1-2.7h-3.9l-1,2.7H76.9z M79.1,45.3h3.4l-1.7-4.5L79.1,45.3z"/>
	<path d="M91.9,42.6c-0.2-0.7-0.5-1.3-0.9-1.6c-0.5-0.3-1.1-0.5-1.8-0.5c-0.5,0-1,0.1-1.3,0.3c-0.4,0.2-0.7,0.5-0.9,0.8
		c-0.2,0.4-0.4,0.8-0.5,1.2c-0.1,0.5-0.2,0.9-0.2,1.5c0,0.5,0.1,1,0.2,1.4s0.3,0.9,0.5,1.2c0.2,0.4,0.5,0.7,0.9,0.9
		c0.4,0.2,0.9,0.3,1.5,0.3c0.4,0,0.7-0.1,1-0.2c0.3-0.1,0.6-0.3,0.8-0.5c0.2-0.2,0.4-0.5,0.6-0.8c0.2-0.3,0.3-0.6,0.4-0.9h0.9
		c-0.1,0.4-0.2,0.8-0.4,1.2s-0.4,0.7-0.7,1c-0.3,0.3-0.7,0.5-1.1,0.7c-0.4,0.2-0.9,0.2-1.5,0.2c-0.7,0-1.2-0.1-1.7-0.4
		c-0.5-0.2-0.9-0.6-1.2-1c-0.3-0.4-0.5-0.9-0.7-1.4c-0.1-0.5-0.2-1.1-0.2-1.7c0-0.8,0.1-1.5,0.3-2.1c0.2-0.6,0.5-1,0.8-1.4
		c0.4-0.4,0.8-0.6,1.3-0.8c0.5-0.2,1-0.2,1.6-0.2c0.4,0,0.8,0.1,1.2,0.2c0.4,0.1,0.7,0.3,1,0.5s0.5,0.5,0.7,0.9
		c0.2,0.3,0.3,0.7,0.4,1.2H91.9z"/>
	<path d="M93.6,40.1h6.3v0.7h-2.7v7.9h-0.8v-7.9h-2.7V40.1z"/>
	<path d="M101.4,46.2c0,0.4,0.1,0.7,0.3,1c0.1,0.3,0.3,0.5,0.5,0.7c0.2,0.2,0.5,0.3,0.8,0.4c0.3,0.1,0.6,0.1,0.9,0.1
		c0.4,0,0.7,0,1-0.1c0.3-0.1,0.5-0.2,0.7-0.4s0.3-0.4,0.4-0.6s0.1-0.4,0.1-0.7c0-0.3-0.1-0.6-0.2-0.8c-0.2-0.2-0.3-0.4-0.6-0.5
		s-0.5-0.2-0.8-0.3c-0.3-0.1-0.6-0.2-1-0.2s-0.7-0.2-1-0.3c-0.3-0.1-0.6-0.2-0.8-0.4c-0.2-0.2-0.4-0.4-0.6-0.7s-0.2-0.6-0.2-1
		c0-0.3,0.1-0.6,0.2-0.9c0.1-0.3,0.3-0.5,0.6-0.7s0.5-0.4,0.9-0.5c0.4-0.1,0.8-0.2,1.3-0.2c0.5,0,0.9,0.1,1.3,0.2s0.7,0.3,0.9,0.6
		c0.2,0.2,0.4,0.5,0.5,0.8c0.1,0.3,0.2,0.6,0.2,1h-0.8c0-0.3-0.1-0.6-0.2-0.9c-0.1-0.2-0.3-0.4-0.5-0.6c-0.2-0.2-0.4-0.3-0.7-0.3
		c-0.3-0.1-0.5-0.1-0.8-0.1c-0.4,0-0.8,0.1-1,0.2c-0.3,0.1-0.5,0.3-0.7,0.5c-0.2,0.2-0.3,0.4-0.3,0.6c-0.1,0.2-0.1,0.4,0,0.7
		c0,0.3,0.2,0.5,0.3,0.7s0.4,0.3,0.6,0.4c0.3,0.1,0.5,0.2,0.8,0.3c0.3,0.1,0.6,0.1,0.9,0.2s0.6,0.2,0.9,0.3c0.3,0.1,0.6,0.2,0.8,0.4
		s0.4,0.4,0.6,0.7c0.1,0.3,0.2,0.6,0.2,1c0,0.8-0.3,1.4-0.8,1.9c-0.6,0.4-1.3,0.7-2.3,0.7c-0.4,0-0.9-0.1-1.2-0.2
		c-0.4-0.1-0.7-0.3-1-0.5c-0.3-0.2-0.5-0.5-0.7-0.9c-0.2-0.3-0.2-0.8-0.2-1.2H101.4z"/>
</g>
</svg>
