<svg xmlns="http://www.w3.org/2000/svg" viewBox="0 0 267.33 369.95"><defs><style>.cls-1,.cls-2{fill:none;stroke:#222823;stroke-miterlimit:10;}.cls-2{stroke-width:0.5px;}.cls-3{fill:#a2c68d;}.cls-4{fill:#060606;}.cls-5{fill:#c8b2d4;}.cls-6{fill:#d7ab73;}</style></defs><g id="Calque_2" data-name="Calque 2"><g id="Calque_1-2" data-name="Calque 1"><path class="cls-1" d="M5.17,296.23c-.81-1.35-4.33-7-4.33-7l1.11-3,3.28,1.08,2.65-2.16,3.25-3.25h3l3-1.9h8.12l1.9-2.44-1.9-3-1.35-6.1,3.25-2.84,3.52-6.5s2.44-3.52,1.9-4.61a49.51,49.51,0,0,0-3.53-4.6L21.42,245,17.36,241l.54-2.44-.27-3-2-3.52,4.16-3.79,3.52-6.77,3.79-4.6,3.79-1.36-2.71-4.6-4.6-4.07-.81-2.43,16-12L51.32,181.7l8.52-5.53L70,166.75l6.13-2.83v-3.44l-4.19-3.59V154.8l4.19-6.13,1.64-1.49,1-9.42-3-3.88-1.2-2.54-.14-5.83L82,117.59H84.8l4.78-3h4.33l5.08-.9,6.13-.75,1.5-1.19s7.77-8.07,8.66-8.82-.74-3.44-.74-3.44l-1.65-2.09,1.5-2.84,4.18-1.79,7.18-6.43h3.58l4.19-5.53,8.67-9.56,9.41-7.78,3.59-2.24V56.91l2.09-2.69-3.59-1.35.75-1.49h6.28l10.61-9.86,1.79-7-1.79-3.88-4-.75h-6l-5.09,2.84-6.87.3.3-10.61,2.09-4.64,7.62-6.12-.74-3.74-2.69-2.54,7-4h5.38l3.29,1.35h3.43l3.29-.75L180.59.57l2.84,1.34L186.72,3l2.24-1,2.54.75,2.1,1.79V7.59l-2.1,2.84.75,3.44L194.94,16l3.89.6,1.79,1.19,3.14-2.24,3,1L210,18.2l2.09,1.94,1.19,2.1.9,2.39h2.84l3.59,3.73,2.69.75,3.29.3,3.73,1.79,3.14,1.35,2.84,1,2.24,2.25v3l1.94,2.09,1.65,1.79.75,1.79-.75,2.69h-3.44l-3.29.9L232,47.34l-8.37-.15-2.1-3.13L218,43.91l-3.14,2.54L210.63,49l-6.12.3-5.38-.3-4,.6-4.63-1.5h-5.38l-1.94,1.65.14,2.24-1.49.74-.6,2,1.05,1.79-.3,2.24-3.29.3-2.24.9-3.29-.9-3.29,1.35-2.54,2.24-1.79,2.54-5.83,5.68-1.79.15-1.2,2.09-3-1.2-1.94.6-.9,1.8-8.66,6.27L142,83.66,139.5,87V95l2.24.45,4.18-1.65,3.59-3,5.38-.59,4.33-.6H163l2.39,1.79,4,1.5,3.88,2.84-1.49,1.64v5.08l-3.44,1.05-2.69,1.94-.3,3.59-.6,3.58-.59,1.65.89,2.24,3.59.45,4.33.6,5.83.29,2.09-1.19,4.19-.3,3.29-3.44,2.69-2.54,4.78,2.39,1.79,4-3.14,3.44L192,122.82l.3,2.24,1.8,1.79,1.79,1.65L194.19,133l-2.54,1.64,1.65,1.65,2.84.15h5.08l2.84-.15,3.44.74,3.88,1.2,4.48,1.64v7.48l-2.24.3h-2.39l-2.09-.15-.9,2.24,2.69,1.79.75,1.5.15,1.34-.75,1.35-1.79.74-1.35,1.8-.89,4.63V170l-.75,2.39,2.09,2.4,5.38,2.24,3.44,1.79,2.54,3.89-.9,5.08v5.23h-5.38l-1.49.3v2.39l-.75,4.93-1.79,3v3.14L207.65,211l-4.49.9-1.64.9-2.84,2.09-.75,1.79.15,3.29-1.79,1.94-.15,3.89-.45,2.54-.45,2.69v9.26l-4.18.3-.15,2.39.59,2.1v2.54l-1.34,1.49-1,1.5.75,2.09,1.94,1.49v4.34l-.59,3,.44,1.64h2.25l2.39-.15,1.64-2.39.15-3.89,1.49-.44,2.25-1.5,2.09-1.34,1.64-.6,2.24,1.94.45,2.69,1.8.6h2.54l3.73-1.5,3.44-1.64,4.78-4.33,2.69.15h3l1.8-.3h1.79l3.88,1.64,5.24.45h2.69l1.94.6v2.69l-1.2,4.18.45,5.38,1.5,5.53,2.09,3.59,1.79,1.19,2.24,2.54,3.44,3.44,1.49,1.8,1.2,4.78L262,298.57l3,8.67,1.8,4.78v10L264,325.77l-4.78,5.38-5.53,4.48-2.84,3.29-3.29,2.69-3.14,2.84-3,2.24h-3.14L235,348.64l-3.58,5.23-3,.89-3.59,2.54-3.58,3.14h-3L214.82,357,210,356l-2.54.6-4.64,2.54-2.39,1.34-4.93,1.65H193.3l-2.54,4.18-1.35,3.14-4.63-.6-1.64-3.74L180,366.72l-3.29,1.79-2.39-.3-5.38-6.72-2.69-6v-5.83l-3.89-5.08-2.39-6-2.09-4-3.14-5.83-2.09-4.48-2.24-1.8-4.19-.15-2.69,1.35-.75-3.74V317.1l.9-2.09.45-2.09v-3.14l-2.54-.75-5.68-.15-3.16-1.94-2.37-2.69-1.2-2.84.3-2.54-.15-4.34.3-1.79.9-2.84,2.84-3,2.09-2.39,2.39-4.18v-3.29l-.75-2.84-2.54-4.33-4.78-5.83-1.19-1.8-1.35-1.64-.15-2.24-1.34-1.05v-1.94l1.64-1,1.49-1,1.35-1.35.45-1.94v-1.79l-3.44-1.05-3.29.3-3.28.45-2.69-.75-3.89-.15-5.23-.45-5.53,1.35H98.85l-1.35.3-2.84-.75-2.54-.15-4.18,3.29-7,4-2.84,2.09-4,.15L69,259.11l-2.69.9-4-1.19-2.84-2.1-2.69-1.64-3.29-.45L53,256.42l-.89,2.1-2.39,3.14-4.49,5.08-2.69,3-1.19,1.64-1.2,2.24L42.05,275l2,1.64L45.79,278l.6,1.94h7.92v4l-1.5,2.1-2.54,1.19-3.88,1.2L43,290.65l-4.54,1.18-2.36,1.82-2,2.72-1.64,3.45-3.81,1.82-6.17,2L20.61,302,17,301.64l-3.63.18-4,.18-4-.36L3,303.09l-1.82.18S6,297.59,5.17,296.23Z"/><polyline class="cls-2" points="40.11 273.61 37.77 276.06 36.72 278.94 36.72 282.6 35.15 285.74 32.8 288.88 29.14 288.88 29.14 285.74 29.14 282.6 31.75 277.37 33.32 274.23 32.54 270.3 36.46 267.16 39.08 263.5 40.65 259.57 42.22 254.08 44.05 251.46 47.97 249.89 51.38 243.35 54.25 239.43 59.49 234.19 63.94 234.19 66.81 234.19 70.48 231.58 75.45 228.7 81.73 226.6 85.91 223.73 89.58 220.85 95.07 220.85 102.4 223.47 107.89 223.47 115.48 225.56 121.24 227.65 126.47 229.75 131.5 232.1 137.2 235.76 142.69 237.07 146.62 239.43 148.71 242.04 148.71 246.49 148.71 250.15 145.57 250.15 139.03 250.15 135.1 249.11 130.68 250"/><polygon class="cls-2" points="174.4 198.37 174.4 194.16 173 189.25 173.7 184.2 173.7 180.83 174.4 177.67 176.34 177.67 177.23 179.6 177.23 182.28 178.3 184.99 175.65 187.26 176.52 189.75 175.65 192.6 175.65 195.99 174.4 198.37"/><polygon class="cls-2" points="164.16 114.3 157.11 114.3 151.94 117.64 146.78 118.7 141.62 121.55 140.72 126.54 137.16 130.99 133.83 134.91 129.51 138.47 126.66 141.14 123.45 143.63 121.14 144.52 117.75 148.26 112.77 151.82 107.43 153.61 104.04 155.03 104.04 156.99 104.04 158.77 106.36 161.26 109.56 161.26 113.48 159.48 115.44 157.7 119.36 157.7 124.52 157.34 128.79 152.89 133.83 146.84 138.94 142.74 142.15 140.25 145.71 136.69 148.71 134.38 150.52 130.81 153.01 129.92 155.86 127.96 159.42 123.87 164.94 119.42 165.05 116.54 164.16 114.3"/><polygon class="cls-2" points="165.05 132.77 167.97 129.21 171 128.14 174.74 125.65 176.69 124.4 178.3 126.36 176.87 128.59 173 130.99 171.68 132.77 168.33 134.73 165.05 134.73 165.05 132.77"/><polygon class="cls-2" points="45.99 198.37 49.55 196.52 53.29 193.85 57.39 191.18 60.06 188.02 60.06 184.2 57.21 186.19 54.01 187.08 51.69 188.02 48.13 191.28 45.99 193.85 44.92 196.88 45.99 198.37"/><path class="cls-3" d="M94.78,198.86a5.86,5.86,0,0,0-5.86,5.86c0,3.23,5.86,9.95,5.86,9.95s5.86-6.72,5.86-9.95A5.86,5.86,0,0,0,94.78,198.86Zm0,7.67a2.13,2.13,0,1,1,2.14-2.13A2.13,2.13,0,0,1,94.78,206.53Z"/><path class="cls-4" d="M179.77,310.15a5.87,5.87,0,0,0-5.86,5.86c0,3.24,5.86,9.95,5.86,9.95s5.86-6.71,5.86-9.95A5.86,5.86,0,0,0,179.77,310.15Zm0,7.68a2.14,2.14,0,1,1,2.13-2.14A2.13,2.13,0,0,1,179.77,317.83Z"/><path class="cls-5" d="M158.87,269.08a5.86,5.86,0,0,0-5.86,5.86c0,3.24,5.86,9.95,5.86,9.95s5.86-6.71,5.86-9.95A5.86,5.86,0,0,0,158.87,269.08Zm0,7.68a2.14,2.14,0,1,1,2.13-2.14A2.13,2.13,0,0,1,158.87,276.76Z"/><path class="cls-6" d="M83.06,167.61a5.87,5.87,0,0,0-5.86,5.86c0,3.24,5.86,9.95,5.86,9.95s5.86-6.71,5.86-9.95A5.86,5.86,0,0,0,83.06,167.61Zm0,7.68a2.14,2.14,0,1,1,2.13-2.14A2.13,2.13,0,0,1,83.06,175.29Z"/></g></g></svg>