<?xml version="1.0" encoding="utf-8"?>
<!-- Generator: Adobe Illustrator 26.3.1, SVG Export Plug-In . SVG Version: 6.00 Build 0)  -->
<svg version="1.1" id="Calque_1" xmlns="http://www.w3.org/2000/svg" xmlns:xlink="http://www.w3.org/1999/xlink" x="0px" y="0px"
	 viewBox="0 0 374.7 354.7" style="enable-background:new 0 0 374.7 354.7;" xml:space="preserve">
<style type="text/css">
	.st0{fill:#F9ECF0;}
	.st1{fill:#7F89B7;stroke:#FEEBC0;stroke-miterlimit:10;}
	.st2{fill:#D8EA92;}
	.st3{fill:#C4C5C6;}
	.st4{fill:#B3DEC8;}
	.st5{fill:#A8B1CD;}
	.st6{fill:#F2CED8;}
	.st7{fill:#B6BBB5;}
	.st8{fill:#B9D6E8;}
	.st9{fill:#AED8C2;}
	.st10{fill:#AEBDAE;}
	.st11{fill:#849A84;}
	.st12{fill:#6B7B9E;}
	.st13{fill:#F8D372;}
	.st14{fill:#EFA037;}
	.st15{fill:#91CCEB;}
	.st16{fill:#4C5A7D;}
	.st17{fill:#EAAEBE;}
</style>
<rect y="0" class="st0" width="374.7" height="354.7"/>
<g>
	<g>
		<path class="st1" d="M298.3,91.9L298.3,91.9L298.3,91.9L298.3,91.9z M216.9,128.3L216.9,128.3L216.9,128.3L216.9,128.3z"/>
		<path class="st2" d="M300.7,157.5c-2.2-0.4-4.5-0.7-6.2-1c-1.8,7.4-3.3,13.9-4.9,20.4c-1.6,0.4-3.1,0.7-4.7,1.1
			c-8.4,3.4-16.8,6.7-25.2,10.1c-0.6,0.3-1.4,1.1-1.4,1.7c-0.1,6.5-4.7,6.5-9.3,6.7c-4.8,0.2-9.1,1.5-10.4,7.1l0,0
			c-2.5,2-5.1,3.9-8.2,6.4c-0.7-2.4-1.4-4.1-1.5-5.8c-0.4-5.9-3.7-8.3-9-10.4c-6.8-2.7-13.4-0.3-20.1-1.1c-0.8-1.8-1.5-3.5-3-6.9
			c4.4-2.1,5.9-1.1,8.4-1.6c0.4-0.1,5.4-2.3,8.9-4.1c4.3-2.2-2.8-4-5.7-4c-0.8,0-1.7-1-2.5-1.5l-1.6-1.9c-2.5-0.2-4.3,0.1-5.3,0.4
			c-0.6,0.1-1.3-0.1-1.8-0.5l-0.7-0.6c0-4.1-0.4-6.8-0.4-10.8l0,0c-0.5-1.7-0.4-2.2,0.1-3.1c0.7-1.2,1-1.5,2.1-2.5l1.3-0.6
			c0.8,0.2,1.7-0.6,2.5-0.5c2.3,0.1,4.7,0.2,7,0.2c0-2.2,0.2-4.3,0.1-6.4c-0.1-2.2-0.5-4.3-0.8-6.5l0,0c1.6-1.2,3.2-2.4,4.9-3.7l0,0
			c1.6-1.2,3.2-2.4,4.9-3.6c3.8-2.8,3.4-4.8-1.1-6.1c0.4-1.6,0.8-3.2,1.1-4.8c4.9-3.3,9.2-7,9.7-13.3c2.4-1.5,5.8-4.5,5.3-5.3
			c-2.5-4.1-0.3-11.1-7.9-12.4c-2.6-0.4-4.7-4.1-7-6.2c1.7-1.8,3.1-4.2,5.2-5.1c1.8-0.8,4.4,0,6.6,0c2.1,5.7,4,11.6,6.4,17.2
			c0.8,1.8,3.1,2.9,4.6,4.3c1.6-2.2,3.3-4.4,4.8-6.7c0.8-1.3,1.2-2.8,1.8-4.2c0.7-1.5,1.6-2.9,2-4.4c0.6-2.5,0.9-5.1,1.3-7.6
			c0.8-0.8,1.7-1.6,2.5-2.4c1.4-5.6,1.3-5.6-9.8-4.1v-7c7.5,0.8,14.7,0.8,20.6-4.9l0,0c0.4-0.4,0.9-0.8,1.3-1.1
			c5.3-5.6,8.4-0.3,12,2.4c0,0.8,0.1,1.6,0.1,2.4l0,0c-1.9,1-4.3,1.5-5.8,2.9c-4.2,4-3.2,7.1,2.8,9.3c0.3,1.5,0.3,1.9,0.6,3.4
			l-6.4,5.1c0.4,1.1,0.4,1.1,0.8,2.3h20.2l0,0c2.8,1.2,5.7,2.5,8.5,3.7l0,0c3.1,8-1.6,9.5-7.9,8.8c1.6,4,3,7.4,4.3,10.7l-0.2,0.2
			c-0.3,0.4-0.7,0.7-1,1.1c-4.1,1.8-6.4,7.3-6.4,12.7c0,3.3,0.9,6.6,2.8,9.1l0,0c2.2,1.2,4.3,2.3,6.5,3.5l0.5,0.1
			C304.1,144.9,305.4,151.5,300.7,157.5z"/>
		<path class="st3" d="M296.1,91.6c-2.8-1.2-5.7-2.5-8.5-3.7C290.5,89.1,293.3,90.3,296.1,91.6z"/>
		<path class="st4" d="M139.3,97.7L139.3,97.7C139.3,97.7,139.4,97.7,139.3,97.7L139.3,97.7z"/>
		<path class="st5" d="M213.3,32.8c3.7-1.6,7.2-3.8,11-4.5c3-0.5,6.4,0.8,9.4,1.8s5.8,2.6,8.7,3.9c0.6,4.4,0.7,8.1-4.2,10.9
			c-2,1.1-2.2,5.4-3.1,8.2c-1.2,0.9-2.7,2.8-3.6,2.6c-6.4-1.5-11.2,2.1-16.2,4.8c-4.5,2.4-11.6,2.4-11,10.4c0,0.5-1,1.2-1.6,1.7
			c-5.6,5-11.1,10-16.5,14.9c-1-0.8-2.1-1.7-3.3-2.6l0,0c-2.1-3.6-3.6-9.4-6.5-10.3c-3.7-1.1-8.6,1.8-13,3l0,0
			c-2,1.6-4.1,3.3-6.1,4.9l0,0c-0.8,0.8-1.6,1.6-2.5,2.4l0,0c-5.3,3.3-10.5,6.5-15.8,9.8l0,0c-3.2,0.7-6.4,1.5-9.7,2.2
			c0-6.2,2.4-12.6-3.2-18.2c-1.2-1.2,0.7-5.5,1.4-8.3c0.3-1.3,1.2-2.5,1.8-3.7l0,0c1-0.8,2-1.6,2.9-2.4c0.2-0.2,0.5-0.5,0.7-0.7
			c0.5-0.6,1-1.2,1.6-1.7c7.1-1.6,14.3-3.2,21.4-4.8c2.5-0.3,6,0.3,7.5-1.2c4.5-4.4,8.2-9.7,12.1-14.6c-0.7-0.2-1.3-0.4-2-0.6
			c0.3-2.4-0.2-6.1,1.1-7.1c7.4-5.3,15.2-10.2,23.2-14.7c1.9-1.1,5,0,7.5,0.1c-0.2,1.8-0.4,3.6-0.6,5.4c-0.4,3.5-0.8,6.9-1.4,12.3
			C207.7,35,210.5,33.9,213.3,32.8L213.3,32.8z"/>
		<path class="st3" d="M132.6,67.3c-1,0.8-2,1.6-2.9,2.4C130.6,68.9,131.6,68.1,132.6,67.3z"/>
		<path class="st3" d="M134.8,64.8c-0.5,0.6-1,1.2-1.6,1.7C133.8,66,134.3,65.4,134.8,64.8z"/>
		<path class="st3" d="M124.7,103.7c-0.4,0.4-0.8,0.9-1.2,1.3C124,104.6,124.4,104.1,124.7,103.7z"/>
		<path class="st3" d="M115,128c-1.2,1.2-2.4,2.4-3.6,3.6C112.5,130.4,113.8,129.2,115,128z"/>
		<path class="st3" d="M110.1,132.9c-0.5,0.4-1,0.7-1.5,1.1C109.1,133.6,109.6,133.2,110.1,132.9z"/>
		<path class="st3" d="M111.3,131.7c-0.4,0.4-0.8,0.8-1.2,1.2C110.5,132.4,110.9,132.1,111.3,131.7z"/>
		<path class="st3" d="M57.9,199.7c-0.4,0.4-0.8,0.8-1.2,1.2C57.1,200.5,57.5,200.1,57.9,199.7z"/>
		<path class="st6" d="M44.5,266c2.5-1.4,5.1-2.8,7.6-4.2c1.4,0,2.9-0.1,4.3-0.1c2.6-0.3,5.3-0.5,7.9-0.8c-1.1-2.2-2.2-4.4-3.3-6.6
			v0.1c0.4-3.5,0.9-7,1.3-10.5l0,0c3.5,1,7.1,1.9,10.6,2.9c1.1,5,0,9-3,13.6c-2.4,3.6-1.3,9.5-1.7,14.4c1.2,0.4,4.2,1.6,5.4,2
			c2.3-4.7,4.3-7.7,6.8-12.3c1.8-3.2,4-6.2,6-9.3c2.5,1.5,3.4,0.5,5.9,2.1l0,0c0.5,1,1,2,1.4,3c3.9,0.6,7.8,1.1,11.7,1.7
			c0.3,6.6-2.7,10.4-9,12.6c-8.1,2.8-16,5.6-20.6,14.3c-2.9,5.5-14.1,6.3-20.6,5.5c-8.4-1-17,0.4-25.5,0.7c-0.7,0-1.4-0.1-3.3-0.2
			c5.8-6.5,5.9-13,1.3-19.5C33.7,272.1,39.1,269,44.5,266z"/>
		<path class="st7" d="M336.4,336l-0.3-0.4"/>
		<path class="st7" d="M339.5,331.9"/>
		<path class="st8" d="M83.5,255.5c-1.6,2.5-3.4,4.9-4.9,7.5c-2,3.7-3.8,7.6-5.7,11.4c-1-0.3-2-0.7-3-1c0.4-4-0.6-8.8,1.4-11.7
			c2.4-3.8,3.3-7,2.4-11.1c4.1-5,8.3-9.9,12.3-15c2.3-2.9,4.4-5.9,6.6-8.9c1.4-1.9,3.5-3.5,4-5.6c1.9-7.5,10-16.4,17.1-15.7
			c6.8,0.7,11.5-3,17-4.8c3.3-1.1,5.1-2.8,8-5.2l0.6-0.4c2.9-1.2,4.7-2.1,7.6-3.3c4.4,0.8,9.9-0.2,14.3,0.6c3.7,1.4,7.4,2.7,11,4.3
			c7.1,3.2,14.2,6.7,21.3,10c5.8,2.7,11.9,4.6,17.3,7.9c2.4,1.5,3.2,5.5,4.7,8.4c-2.3,0.7-4.6,2.1-6.9,2.1c-4.6,0-9.2-0.8-13.8-1
			c-3.9-0.2-7.8,0-11.7,0c-1.3,0-2.5,0-3.8,0c-11.7,0.3-23.5,0.7-35.2,1c-7.3,4.1-14.6,8.2-21.8,12.3c-2.1,0.5-4.1,0.9-6.2,1.4
			c-0.7,0-1.4,0-2.1,0c-2.1-0.9-4.1-1.8-6.2-2.8h0.1c-2.1-1.6-4-3.8-6.3-4.4c-1-0.2-3,2.9-4.2,4.8c-0.9,1.3-1.2,3-1.7,4.5l0,0
			c-0.4,0.4-0.8,0.8-1.2,1.2l0,0c-0.5,0.4-1,0.9-1.4,1.3c-0.3,0.4-0.6,0.7-0.9,1.1c-0.5,0.8-1,1.7-1.5,2.5
			C88.2,249.9,85.9,252.7,83.5,255.5z"/>
		<path class="st7" d="M94.4,241.1c0.4-0.4,0.8-0.8,1.2-1.2C95.2,240.2,94.8,240.6,94.4,241.1z"/>
		<path class="st7" d="M93,242.3c0.5-0.4,1-0.9,1.4-1.3C93.9,241.5,93.4,241.9,93,242.3z"/>
		<path class="st7" d="M194,173c0-4.1,0-8.1-0.1-12.2C194,164.9,194,169,194,173z"/>
		<path class="st7" d="M206.2,141.4c1.6-1.2,3.2-2.4,4.9-3.7C209.4,139,207.8,140.2,206.2,141.4z"/>
		<path class="st7" d="M211,137.8c1.6-1.2,3.3-2.4,4.9-3.7C214.3,135.3,212.6,136.5,211,137.8z"/>
		<path class="st3" d="M292.5,111.1c-0.4,0.4-0.8,0.8-1.2,1.2C291.7,111.9,292.1,111.5,292.5,111.1z"/>
		<path class="st8" d="M182.8,97.9c6.2-5.7,14.7-10.4,18.1-17.5c3.5-7.2,9.2-8.5,14.3-12.2c4.7-3.5,8.3-3.4,13.1,0
			c-0.8,1.4-1.6,2.9-2.4,4.3l0,0c-0.4,0.7-0.8,1.5-1.1,2.2l0,0c-5,4.1-11,6.9-14.8,12.7c-2.4,3.6-6.6,6.2-9.9,9.2
			c-1.7,1.6-3.4,3.2-5.1,4.8c-0.4,0.3-0.7,0.7-1.1,1c-0.8,0.8-1.5,1.5-2.3,2.3c-0.3,0.4-0.7,0.7-1,1.1c-0.8,1-1.6,2-2.5,3.1H188
			c-1.5,1.5-2.9,3-4.4,4.5c-5.3,0.1-10.5-0.4-15,3.6c-1.1,1-5.6,0.1-6.3-1.1c-1.3-2.4-1.2-5.2,2.7-7c5.1-2.5,9.6-6.3,14.5-9.5
			C180.5,98.6,181.7,98.3,182.8,97.9z"/>
		<path class="st7" d="M157.6,85.5c2-1.6,4.1-3.3,6.1-4.9C161.6,82.3,159.6,83.9,157.6,85.5z"/>
		<path class="st3" d="M119.9,123.2c1.6-1.2,3.2-2.5,4.8-3.7C123.1,120.7,121.5,122,119.9,123.2z"/>
		<path class="st3" d="M260.8,259.3c-0.8,0.8-1.5,1.6-2.3,2.5C259.3,260.9,260,260.1,260.8,259.3z"/>
		<path class="st7" d="M155.1,87.9c0.8-0.8,1.6-1.6,2.5-2.4C156.7,86.3,155.9,87.1,155.1,87.9z"/>
		<path class="st3" d="M262.2,249.6c0,1.2,0,2.4,0,3.5C262.2,252,262.2,250.8,262.2,249.6z"/>
		<path class="st3" d="M64,188.8c0.4-0.4,0.8-0.8,1.2-1.3C64.8,188,64.4,188.4,64,188.8z"/>
		<path class="st3" d="M57.9,216.8c-0.4-0.4-0.8-0.8-1.1-1.2C57.1,216,57.5,216.4,57.9,216.8z"/>
		<path class="st3" d="M59.1,218c-0.4-0.4-0.8-0.8-1.2-1.2C58.3,217.2,58.7,217.6,59.1,218z"/>
		<path class="st3" d="M60.3,219.2c-0.4-0.4-0.8-0.8-1.2-1.2C59.5,218.4,59.9,218.8,60.3,219.2z"/>
		<path class="st3" d="M61.5,220.4c-0.4-0.4-0.8-0.8-1.2-1.2C60.8,219.6,61.1,220,61.5,220.4z"/>
		<path class="st3" d="M65.2,187.5c0.4-0.4,0.8-0.8,1.2-1.2C66,186.8,65.6,187.2,65.2,187.5z"/>
		<path class="st3" d="M263.3,244.7c-0.4,0.4-0.7,0.8-1.1,1.2C262.5,245.5,262.9,245.1,263.3,244.7z"/>
		<path class="st9" d="M147.8,157.3c-0.2-0.1-0.3-0.2-0.5-0.3C147.5,157,147.7,157.1,147.8,157.3
			C147.9,157.2,147.8,157.3,147.8,157.3z"/>
		<path class="st7" d="M339.7,332.1c0.4-0.4,0.8-0.8,1.2-1.2C340.5,331.3,340.1,331.7,339.7,332.1z"/>
		<path class="st5" d="M213.3,118.5c-5.9-0.3-8.9,3.5-8.2,9.2c0.7,5.8-2,6.8-7,6.5c-4.9-0.4-9.9-0.1-15.6-0.1
			c0.5-3.8,2.5-5.5,6.6-4.7c7.9,1.4,10.7-0.2,14.3-8.4c-4.9-2.4-9.9-4.9-14.8-7.3c0.5-2,3.1-1.5,3.5-3.2h0.1
			c0.9-1.1,1.8-2.2,2.7-3.4c0.4-0.4,0.7-0.8,1.1-1.2c0.8-0.8,1.7-1.7,2.5-2.5c0.4-0.4,0.8-0.7,1.2-1.1c4.5-2.3,6.5-6.5,11.7-9.1
			C211.9,101.6,212.8,109.5,213.3,118.5z"/>
		<path class="st10" d="M233.8,68.1c2.8-0.8,5.7-1.6,8.5-2.4c0.1,3.6,0.1,7.1,0.2,10.7c-2.4,1.7-4.7,3.5-7.1,5.2
			c4.5,5.8,8.2,2,11.7,2.1c0,0.6,0.3,1.3,0.1,1.8c-1.9,4.6-3.9,9.1-6.3,14.5c-3.7-6.8-7.2-13.3-10.6-19.8c-1.9-2-2.4-3.7,0.2-5.8
			c1.1-0.9,1.5-2.6,2.2-3.9l0,0C233,69.7,233.4,68.9,233.8,68.1L233.8,68.1z"/>
		<path class="st11" d="M259.1,195.4c-1.4,2.2-5.8,3.7-7.7,3.3c-6.1-1.1-7.6,4.8-12.3,6.8l0,0c-0.2,0.4-0.3,0.8-0.5,1.1
			c-2.2,3.2-5.9,6.5-10.8,4.8c-2-0.7-2.1-6.1-3.4-9.2c-0.7-1.7-1.9-4-3.4-4.5c-5.3-1.8-10.4-5.6-16.6-2.4c-2.9,1.5-5.5,0.9-6.5-2.8
			c-1.6-1.9-3.2-3.8-4.8-5.6c2.2-1.3,4.3-3.1,6.7-3.9c3.6-1.2,7.4-1.6,11-3.4c-3-1.5-7.7,0.7-7-5.2c-2.1,0.2-4.3,0.7-6.4,0.6
			c-1.2-0.1-2.2-1.2-3.4-1.8l0,0c0-4.1,0-8.1-0.1-12.2l0,0c0.8-2.6-3-7.6,3.7-7.3l0,0c2-0.5,4-1,6.5-1.7c0.5-2.7,1.3-6.6,2-10.5
			c1.6-1.2,3.2-2.4,4.9-3.7c1.6-1.2,3.2-2.4,4.9-3.6c-0.4-2-0.8-4.1-1.1-6.1c-3.9-2.6-2.3-3.9,1.1-4.8c0-1.2,0-2.4,0-3.6
			c2-2.1,5.8-4.2,5.7-6.3c-0.2-5.5,2.4-7.4,7-7.7c-1.5-6.4-2.9-12.2-10.8-13.2c-3.8-0.5-4.5,0.7-4.3,3.6c0.7,7.8,1.1,15.7,1.9,23.5
			c-0.5-0.1-0.9-0.1-1.4-0.2c-5.2,2.7-5.1,2.2-7.5,16c-3.7,0-7.6-0.1-11.4,0c-2.6,0.1-5.2,0.3-7.8,0.6c-1.9,0.2-4,1-5.7,0.5
			c-0.9-0.3-2-3.2-1.6-4c1.2-2.1,3.1-4,5.2-5.4c1.1-0.7,3.2-0.5,4.7,0c5.3,1.6,8.4-0.7,10.1-4.7c-5-3.1-9.6-4.7-14.4-7.7
			c-5.8,0.1-12.9,2.4-17.2,4.5c-1.4,0.7-7.3-1-8.1-2.4c-1.5-2.6-0.5-8.3,3.7-10.4c5.6-2.7,10.4-6.8,15.7-10.2c1.1-0.7,2.3-1.5,3.6-2
			c-0.4-2.8,0.2-3.4-0.2-6.2c-1.6-1.5-3.9-2.8-4.5-4.6c-1.2-3.9-3.6-4.2-6.8-3.6c-2.7,0.5-5.4,0.6-8.2,0.9l0,0
			c-2,1.6-4.1,3.3-6.1,4.9c-0.8,0.8-1.6,1.6-2.4,2.4l0,0c-3.4,6.2-9.9,7.4-15.8,9.7c-1.8,5-6.2,3.3-9.8,3.7
			c-1.6,0.8-3.2,1.6-4.9,2.4l0,0c-0.6,0.7-1.2,1.3-1.8,2c-0.6,1.4-1.4,3.4-2,4.8c0,0.2,0,0.3,0,0.5l3.7,8.5
			c-1.6,1.2-3.2,2.5-4.8,3.7c-1.7,1.6-3.3,3.2-5,4.7l0,0c-1.2,1.2-2.4,2.4-3.6,3.6v0.1c-0.4,0.4-0.8,0.8-1.2,1.2l0,0
			c-0.5,0.4-1,0.7-1.5,1.1c-0.2-0.1-0.5,0-0.7,0c-2.1,2.3-3.9,4.9-6.3,6.8c-7.3,5.9-14.8,11.6-22.2,17.3c-0.9,0.7-2.1,0.9-3.2,1.4
			l0,0c-2.9,2.7-5.8,5.2-8.5,8c-1.5,1.6-2.4,3.6-3.6,5.4l0,0c3.1,2.9,6.1,5.7,9.7,9c-3.2,1.9-5.2,3.1-7.2,4.2v0.1
			c-0.4,0.4-0.8,0.8-1.2,1.2l-0.1,0.1c-0.5,0.7-1.4,1.8-2,2.4c-1.4,2.1-2.7,4.1-4.1,6.2c-0.4,1.2-0.8,2.3-1.3,3.4
			c-0.4,0.4-0.8,0.8-1.2,1.2h-0.1c0,4.9,0,9.8,0,14.7l0.1,0.1c0.4,0.4,0.8,0.8,1.1,1.1l0.1,0.1c0.4,0.4,0.8,0.8,1.2,1.1l0.1,0.1
			c0.4,0.4,0.8,0.8,1.2,1.2l0,0c0.4,0.4,0.8,0.8,1.2,1.2l0,0c3.3,2.6,6.9,4.9,9.9,7.8c3.2,2.9,3,6.3-0.3,9.3c-0.3,1-0.7,2.1-1,3
			c0.4,1.8,0.5,4.1,1.5,4.5c1.5,0.6,4.7,0,5.6-1.2c2.9-3.9,5.1-8.4,7.6-12.7c0.9-1.6,1.5-3.9,2.8-4.5c6.4-2.6,7.6-8.1,9.5-13.8
			c2.2-6.8,8.7-9.6,15.1-10.4c9-1.1,17.2-3.3,24.2-9.4c0.6-0.6,1.2-1.6,2.1-1.7l0.2-0.2c0.4-0.5,0.7-1.1,0.9-1.6
			c1.5-3.8,4.8-1.2,8.3-0.5c4.4,0.8,8.8,1.5,13.2,2.3c4,0.6,8.3,0.4,11.9,2c12.9,5.6,25.6,11.6,38.2,17.8c2.1,1,4.1,3.2,5.3,5.3
			c3.2,5.9,0.3,8.4-5,9l-1.5,1.9c0.1,5.3-0.4,8.5,6.2,10.4c1.6,0.4,0.9,3.6,1.8,5.3c4.6,9.3,2.8,4.4,7,13.9c1.4,3.1,3.1,4.5,6.3,4.1
			c3.4-0.5,6.8-0.6,10.1-1.5c1.4-0.4,3.4-2.2,3.5-3.5c0.6-4.8,3.9-6.8,7.6-8.8c0.5-0.7,1-1.3,1.6-2.1c0.4-2,0.9-4.1,1.3-6.1
			c0-0.1,0-0.2,0-0.3c0-2.3,0-4.6,0-6.9c0,0,0-0.1,0.1-0.1c4.1-4,13.3,5.7,12.3-0.2c-4-3.5-5.1-16.1-0.9-18.5s4.6-5.3,4.7-9.3
			c0.1-2.9,1.4-5.7,2.2-8.6c0.3-2.9,0.5-5.9,0.8-8.8C268.9,185.1,262.1,190.6,259.1,195.4z"/>
		<path class="st8" d="M247.5,82.9c-2.9-0.1-5.9,3-9.7-1.8c1.9-1.4,3.9-2.9,5.9-4.3c1.8-0.6,3.7-1,5.3-1.9c2.3-1.3,3.3-0.8,3.4,1.8
			c-0.7,0.6-1.4,1.3-2.1,1.9C249.4,80.1,248.5,81.5,247.5,82.9z"/>
	</g>
</g>
<path class="st12" d="M308.2,312.9c-2.4,2.6-4.6,4.9-9.1,4.4c-2.1-0.2-4.5,3.7-6.8,5.7c-3.2,2.1-6.2,4.7-9.6,6.3
	c-1.6,0.8-4.5,0.4-6.1-0.5c-4.9-2.9-9.4-4-13.9,0.7c-0.8,0.8-2.4,1.4-3.5,1.2c-3.9-0.5-5.7,1.9-7.9,4.5c-0.8,0.9-3.9,1.4-4.4,0.8
	c-2-2.3-3.6-1.9-5.8-0.6c-3.3,1.9-5.9,1.7-7.4-2.6c-3-8.6-6.3-17.1-9.8-25.5c-1.1-2.7-3.3-5.1-4.9-7.6c-0.7-2-1.3-4-2-5.9
	c-1.3-3.2-3.5-4.4-6.8-2.8c-3.5-0.8-2.8-3.1-2.2-5.6c1.8-6.5,1.6-6.8-4.7-8.5c-7.6-2.1-9-4.6-7.1-12.3c0.3-1.1,0.3-2.2,0.5-3.3
	c0.9-1.1,1.9-2.2,2.8-3.3c6.9-8.5,1.9-18.9,1.3-19.4c-0.7-1.1-2.9-3.8-3.8-4.5c-3.5-2.6-6.4-7.4-1.7-7.3c2.3,0.1,3.8-0.2,7.8,0.4
	c3.8,0.6,5.3-0.9,5.7,1c0.5,2.4-0.9,6.1,0.6,8.1c0.8,1.1,5.4,1.8,5.9,3.1c2.9,8.2,4.4,12.7,8.3,20.2c2.5,4.8,7.2,5.3,12.5,3.9
	c1.4-0.4,2.8-0.5,4.2-0.9c1.3-0.3,4.2-0.8,4.9-1.6c3.2-4,2-4.7,4.7-9.1c1.7-2.7,6.6-3.1,7.8-8.9c0.6-3.2,0-8.7,1.5-9.8
	c1.4-1,2.4,0.1,3.4,0.5c0.1,0,5.7,2.1,6.7,0.3c1.5-2.6,2.7-4.1,3-4.1c3,0.2,3.5,4.7,6.4,1.2c0.2,0,0.3,0,0.5-0.1
	c0.4-0.3,0.8-0.5,1.2-0.8l0,0c2.3-1.2,4.6-2.4,7-3.6l0,0c4.6,0.2,9.1,0.2,13.7,0.6c3,0.2,6,0.9,9.5,1.5c-0.2,1.5-0.2,3-0.5,4.5
	c-1.7,7.5-0.2,14.7,5.1,19.7c4.3,4.1,6.6,8.4,7.5,13.8c0.6,3.9,1.1,7.8,1.7,11.7c0.4,1.8,0.4,3.8,1.1,5.5c2.3,5.4,1.5,10.2-2.1,14.6
	c-1.7,1.3-3.3,2.6-5,3.8c-1.7,1.5-3.4,3.1-5.1,4.6c-0.4,0.6-0.8,1.2-1.1,1.8l0.2,0.2c-0.3,0.3-0.7,0.6-1,1l-0.2-0.2"/>
<path class="st13" d="M243.7,273.1c0,0.7,0,1.6,0,1.6c0.4,3.3-0.1,8.6-0.1,8.6s-0.5,10-3.7,10.1c-2.3-0.6-2.4-5-2.4-6.3
	c-0.1-0.1-0.2-0.1-0.2-0.2c-0.4-0.6-1.6-6.8,0.2-13V273l-4.1-8.6l4.3,8.5l-3-10.4l3.2,10.4l0,0l0,0l-1.3-7.4l1.7,7.4l0,0l0,0
	l-1.1-9.9l1.8,9.7l-0.2-7.6l0.5,7.7V267l0.2,5.8l0.2-7.7l0.3,7.7l0.2-6.3v6.3v0.1v-0.1l0.5-9.2l-0.2,9.2l0,0l0,0l0.4-4.6l-0.2,4.6
	l0,0l0,0l0,0l1-7.2l-0.7,7.2l1.3-8.8l-0.8,8.8l2.3-9l-2,9.1l0,0l0,0l2.9-7.3l-2.6,7.3l3.1-6.3l-2.7,6.3l0,0l4.7-8.3l-4.6,8.3l0,0
	l6.4-9.4l-6.1,9.4l5-6.8l-4.8,6.9l0,0v0.1V273l0,0l3.3-4.1l-3.1,4.2v0.1v-0.1l6.6-7.6l-6.5,7.6l4.2-4.2L243.7,273.1z"/>
<path class="st14" d="M214.8,248.3c0,0.7,0,1.6,0,1.6c0.4,3.3-0.1,8.6-0.1,8.6s-0.5,10-3.7,10.1c-2.3-0.6-2.4-5-2.4-6.3
	c-0.1-0.1-0.2-0.1-0.2-0.2c-0.4-0.6-1.6-6.8,0.2-13v-0.9l-4.1-8.6l4.3,8.5l-3-10.4l3.2,10.4l0,0l0,0l-1.3-7.4l1.7,7.4l0,0l0,0
	l-1.1-9.9l1.8,9.7l-0.2-7.6l0.5,7.7v-5.8l0.2,5.8l0.2-7.7l0.3,7.7l0.2-6.3v6.3v0.1V248l0.5-9.2l-0.2,9.2l0,0l0,0l0.4-4.6l-0.2,4.6
	l0,0l0,0l0,0l1-7.2l-0.7,7.2l1.3-8.8l-0.8,8.8l2.3-9l-2,9.1l0,0l0,0l2.9-7.3l-2.6,7.3l3.1-6.3l-2.7,6.3l0,0l4.7-8.3l-4.6,8.3l0,0
	l6.4-9.4l-6.1,9.4l5-6.8l-4.8,6.9l0,0v0.1v-0.1l0,0l3.3-4.1l-3.1,4.2v0.1v-0.1l6.6-7.6l-6.5,7.6l4.2-4.2L214.8,248.3z"/>
<path class="st15" d="M160.8,161c0,0.7,0,1.6,0,1.6c0.4,3.3-0.1,8.6-0.1,8.6s-0.5,10-3.7,10.1c-2.3-0.6-2.4-5-2.4-6.3
	c-0.1-0.1-0.2-0.1-0.2-0.2c-0.4-0.6-1.6-6.8,0.2-13v-0.9l-4.1-8.6l4.3,8.5l-3-10.4l3.2,10.4l0,0l0,0l-1.3-7.4l1.7,7.4l0,0l0,0
	l-1.1-9.9l1.8,9.7l-0.2-7.6l0.5,7.7v-5.8l0.2,5.8l0.2-7.7l0.3,7.7l0.2-6.3v6.3v0.1v-0.1l0.5-9.2l-0.2,9.2l0,0l0,0l0.4-4.6l-0.2,4.6
	l0,0l0,0l0,0l1-7.2l-0.7,7.2l1.3-8.8l-0.8,8.8l2.3-9l-2,9.1l0,0l0,0l2.9-7.3l-2.6,7.3l3.1-6.3l-2.7,6.3l0,0l4.7-8.3l-4.6,8.3l0,0
	l6.4-9.4l-6.1,9.4l5-6.8l-4.8,6.9l0,0v0.1v-0.1l0,0l3.3-4.1l-3.1,4.2v0.1V161l6.6-7.6l-6.5,7.6l4.2-4.2L160.8,161z"/>
<path class="st16" d="M141.7,115.2c0,0.7,0,1.6,0,1.6c0.4,3.3-0.1,8.6-0.1,8.6s-0.5,10-3.7,10.1c-2.3-0.6-2.4-5-2.4-6.3
	c-0.1-0.1-0.2-0.1-0.2-0.2c-0.4-0.6-1.6-6.8,0.2-13v-0.9l-4.1-8.6l4.3,8.5l-3-10.4L136,115l0,0l0,0l-1.3-7.4l1.7,7.4l0,0l0,0
	l-1.1-9.9l1.8,9.7l-0.2-7.6l0.5,7.7v-5.8l0.2,5.8l0.2-7.7l0.3,7.7l0.2-6.3v6.3v0.1v-0.1l0.5-9.2l-0.2,9.2l0,0l0,0l0.4-4.6l-0.2,4.6
	l0,0l0,0l0,0l1-7.2l-0.7,7.2l1.3-8.8l-0.8,8.8l2.3-9l-2,9.1l0,0l0,0l2.9-7.3l-2.6,7.3l3.1-6.3l-2.7,6.3l0,0l4.7-8.3l-4.6,8.3l0,0
	l6.4-9.4L141,115l5-6.8l-5,6.8l0,0v0.1V115l0,0l3.3-4.1l-3.1,4.2v0.1v-0.1l6.6-7.6l-6.5,7.6l4.2-4.2L141.7,115.2z"/>
<path class="st17" d="M70.9,263.1c0,0.7,0,1.6,0,1.6c0.4,3.3-0.1,8.6-0.1,8.6s-0.5,10-3.7,10.1c-2.3-0.6-2.4-5-2.4-6.3
	c-0.1-0.1-0.2-0.1-0.2-0.2c-0.4-0.6-1.6-6.8,0.2-13V263l-4.1-8.6l4.3,8.5l-3-10.4l3.2,10.4l0,0l0,0l-1.3-7.4l1.7,7.4l0,0l0,0
	l-1.1-9.9l1.8,9.7l-0.2-7.6l0.5,7.7V257l0.2,5.8l0.2-7.7l0.3,7.7l0.2-6.3v6.3v0.1v-0.1l0.5-9.2l-0.2,9.2l0,0l0,0l0.4-4.6l-0.2,4.6
	l0,0l0,0l0,0l1-7.2l-0.7,7.2l1.3-8.8l-0.8,8.8l2.3-9l-2,9.1l0,0l0,0l2.9-7.3l-2.6,7.3l3.1-6.3l-2.7,6.3l0,0l4.7-8.3l-4.6,8.3l0,0
	l6.4-9.4l-6.1,9.4l5-6.8l-4.8,6.9l0,0v0.1V263l0,0l3.3-4.1l-3.1,4.2v0.1v-0.1l6.6-7.6l-6.5,7.6l4.2-4.2L70.9,263.1z"/>
</svg>
