<svg xmlns="http://www.w3.org/2000/svg" viewBox="0 0 310.85 401.64"><defs><style>.cls-1{fill:#702a2c;}</style></defs><g id="Calque_2" data-name="Calque 2"><g id="Calque_1-2" data-name="Calque 1"><path class="cls-1" d="M144.11,178.46c-.07-.92.25-1.45,1.38-1.45l-1-1c-1.08,1.06-1.43,2.47-.86,3.34h-2.8l7.48-9.66-.62-.81c1.29-1.18,1.29-1.18.73-1.64l-1.74,2.36-.42-.18,1.27-4-1,.41a5.52,5.52,0,0,0-7-2.72,7.75,7.75,0,0,1-2,.38c-.32,0-.67-.24-1-.36.21-.34.33-.84.63-1,1.39-.67,2.83-1.23,4.24-1.85a4,4,0,0,0,1.36-.71c1.45-1.55,3.43-2.42,4.75-4.23,1.62-2.23,3.81-4,5.7-6.07a5.56,5.56,0,0,0,1-1.77,5.16,5.16,0,0,1,2.84-3.2,7.36,7.36,0,0,0,4.45-3.82,6.71,6.71,0,0,1,1.17-1.42,5,5,0,0,0,.67.73c.42.26,1,.74,1.28.61a1.89,1.89,0,0,0,.76-1.29,17.32,17.32,0,0,0,0-2.51c1.75.21,3.29,0,4.48-1.39a3,3,0,0,1,1.41-.86c.68-.19,1.58-.45,2.08-.17a8.61,8.61,0,0,1,2.47,2.23c1.51,2,1.5,2.49.33,4.28a3.56,3.56,0,0,0,4,.87,1.83,1.83,0,0,0-.34-.38c-1.08-.66-1.11-1-.14-1.84.22-.18.57-.41.57-.62,0-1.51,1.43-2.08,2.12-3.13.34-.53.93-.59,1.2.29a3.49,3.49,0,0,0,.78,1.31,4.54,4.54,0,0,0,1.16.66,5.82,5.82,0,0,0,.22-1.28c0-.73-.21-1.44-.31-2.17-.12-1-.23-1.93-.38-3.18-.62.59-1.09,1-1.52,1.44-1,1-2.42,1.4-3,3-.3.85-1.38,1.43-2.35,2.35a14,14,0,0,0-.84-2.27,9.57,9.57,0,0,0-1.28-1.43l.87-.79-.12-.33c-1.06,1-1.66.29-1.91-.53s0-1.5,1.13-1.33c.13,0,.33-.12.44-.23,1.15-1.17,2.28-2.35,3.41-3.54a1.61,1.61,0,0,0,.16-.35c.87-1.7,1.72-3.41,2.64-5.08.06-.12.85,0,.89.08a1.87,1.87,0,0,1,.06,1.25c-1.07,2.29.7,4.48,0,6.74a53.9,53.9,0,0,0,2-5.24,4.21,4.21,0,0,0-2.21-5.44c-1.06,1.32-2.22,2.66-3.26,4.08-.67.92-1.15,2-1.79,2.93a3.6,3.6,0,0,1-1.07.84,6.86,6.86,0,0,0-1.3.83,19.64,19.64,0,0,0-1.4,2c0-.88,0-1.78,0-2.68,0-.51.14-1,.17-1.52a67.31,67.31,0,0,0,.38-7.08c-.07-1.79.53-2.77,2.34-2.49a44.17,44.17,0,0,1,6.17,1.29,7.93,7.93,0,0,0,5.52-.14c2.93-1.21,5.82-2.55,8.75-3.79a17.11,17.11,0,0,1,3.89-1.35c2.95-.44,5.93-.68,8.9-.93,1.62-.14,3.28-.41,4.7.68a9.66,9.66,0,0,1-.32,2.29,35.23,35.23,0,0,1-2.38,5.31,16.63,16.63,0,0,0-2.31,7.21,32.92,32.92,0,0,1-.27,3.86,2.37,2.37,0,0,0,1.27,2.91,35.45,35.45,0,0,0,5.23,2.05c2.34.84,4.63.3,6.93.52.25,0,.51-.28.78-.36a8.13,8.13,0,0,1,2-.46,10,10,0,0,1,2.43.27,5,5,0,0,1,2,.67,25.76,25.76,0,0,1,2.92,2.71c1.44,1.5,2.82,3.06,4.23,4.61-1.69,1.78-3.85.48-5.43,1.48l-1.95-4.5-.57,0c-.11.42-.41.91-.3,1.26.38,1.18.91,2.31,1.36,3.47.39,1,.24,1.65-1,1.85a24.58,24.58,0,0,0-3.12.79c-.27.08-.66.44-.64.64.09.9,0,2.05.56,2.61.67.71,1.87.91,2.81,1.4a5.3,5.3,0,0,1,1.83,1.18,9.45,9.45,0,0,1,1.56,2.83c.25.71.41,1.89,0,2.3a16,16,0,0,1-3.82,2.92c-.91.5-2.14.4-3.17.74-.28.09-.55.78-.52,1.17.1,1.5.32,3,.48,4.41a47,47,0,0,1,3.15,4.52,3.45,3.45,0,0,0,1.84,1.84c2.08.7,4.2,1.31,6.29,2,1,.35,2.4.58,2.94,1.34a4.08,4.08,0,0,0,2.17,1.83c2.94.79,4,3,4.48,5.68,0,.17,0,.38.08.51.32.49.69.95,1.16,1.59l.54-1.31c2.19,3.2,2.62,4.55,2.31,7.84a2.55,2.55,0,0,1-.78,1.5c-.75.7-1.71,1.17-2.46,1.87-1.11,1-2.11,1.76-3.74.87-1.19-.64-1.63-1.11-1.37-2.43a11.79,11.79,0,0,0,.22-2.44,2.77,2.77,0,0,0-2.38-2.05,2.19,2.19,0,0,0-2,2.18c0,.6.06,1.21,0,1.81-.22,2.14-.59,4.26-.68,6.4a10.1,10.1,0,0,1-1.35,4.92c-1.5,2.51-1.68,2.55-4.08,1.08a3,3,0,0,0-2.25-.22c-.4.14-.63,1.1-.72,1.72-.12.9,0,1.82-.06,2.73a5.92,5.92,0,0,1-5.8,5.51,16.21,16.21,0,0,0-6.84,1.61,3.35,3.35,0,0,1-1.63,0c-.93-.12-2-.67-2.73-.35a39.64,39.64,0,0,1-4.88,1.49c-2,.63-4.17.7-6.12,1.68-1,.48-2.2.38-3.29.64s-2.26.66-3.39,1l.09.25,4.28-.46.22.33a6.94,6.94,0,0,1-.73,1.21,4.69,4.69,0,0,1-1.45,1.19,11.48,11.48,0,0,1-4,1.37c-1.93.06-2.3.21-3.46,1.75a13.74,13.74,0,0,1-4,3.76,15.83,15.83,0,0,0-4.54,3.77,12,12,0,0,1-1.42,1.22,11.94,11.94,0,0,1-.74-1.81c-.53-2.43-2.25-3.74-4.36-4.64-1.67-.7-3.4-1.25-5.09-1.91a21.66,21.66,0,0,0-5.72-1.34c-2.71-.27-5.42-.48-8.11-.82-1.63-.2-3.23-.62-4.84-.92-1.77-.34-3.56-.63-5.33-1a2,2,0,0,1-.89-.41,10.65,10.65,0,0,1-2.89-4.75c-.12-.34-.85-.8-1.05-.7-.43.2-1,.9-.95,1.12a29.51,29.51,0,0,0,1.81,3.18,13.6,13.6,0,0,1,1.29,2.15,2.1,2.1,0,0,0,2.25,1.58,24.43,24.43,0,0,1,4.65.94,48.39,48.39,0,0,0,5.47,1.33c2.34.27,4.74.07,7.11.25,2.64.2,5.33.23,7.66,1.9a40.81,40.81,0,0,0,4.64,2.76c2.21,1.17,3,2.67,2.51,5.09a10.53,10.53,0,0,0-.32,2.29c0,.87,1,1.5,1.62,1.13a13.79,13.79,0,0,0,2.33-1.65c3.05-2.9,6-5.88,9.07-8.78.87-.82,2-1.36,2.83-2.24a11.87,11.87,0,0,1,4.89-3.24,9,9,0,0,0,2.42-1.65c.66-.56,1.12-1.39,1.83-1.85.94-.6,2.14-.81,3-1.46,2-1.42,4.29-1,6.47-1.43a1.46,1.46,0,0,1,1,.29c1,.7,2,.28,3,.08a35.19,35.19,0,0,1,4.33-.59,1.6,1.6,0,0,1,1.83,1.58,6.1,6.1,0,0,0,.91,2.14,7.53,7.53,0,0,1,.7,6.62c-.48,1.35-1,2.68-1.45,4.06a48,48,0,0,1-2.28,5.28,15.93,15.93,0,0,1-1.85,3.52,4.35,4.35,0,0,0-1.2,2.86c0,1.57.07,3.33-1.26,4.49a4.8,4.8,0,0,0-1.74,4.36,2,2,0,0,0,1.61,2c.44.11,1.14.5,1.16.8.15,2.28.2,4.57.19,6.85,0,1.29-.65,1.75-2,1.64-2.22-.17-3.19,1.37-2.5,3.49a4.3,4.3,0,0,1,0,2.14c-.27,1.26-.76,2.48-1,3.75a28.48,28.48,0,0,1-.69,4.18,30.78,30.78,0,0,1-4.4,8.27c-2,2.56-3.64,5.43-5.67,8-1.41,1.78-2.85,3.78-5.46,4a3,3,0,0,1-1.8-.33c-1.34-1-2.89-1.5-4-2.94-1-1.28-2.77-2-4.2-2.91a9.93,9.93,0,0,0-2.27-1.48c-1-.31-1.19-.72-.67-1.55a25.17,25.17,0,0,1,1.61-2.36c1.19-1.48,1.05-2.34.05-3.9a17.49,17.49,0,0,1-1.79-4.48,3.42,3.42,0,0,0-1.72-2.37c-1.33-.68-2.58-1.54-3.91-2.22-1.64-.84-3.33-1.75-5.25-1.41a27,27,0,0,1-9,.42,5.54,5.54,0,0,0-1.81.09c-1.22.21-2.45.43-3.65.73a19.14,19.14,0,0,0-2.86.94c-.78.33-1.5.9-1.91-.42-.05-.17-.49-.22-.74-.33a13.45,13.45,0,0,1-2.59-1.16c-1.21-.85-.8-2.56-1.89-3.75-.78-.86-.55-2.83-.43-4.28a5.74,5.74,0,0,0-.32-3.51,2.11,2.11,0,0,1,.47-2,15.12,15.12,0,0,1,4.32-1.69,12.22,12.22,0,0,0,5.45-2.17c1-.8,1.87-1.74,2.84-2.57,1.38-1.21,1.35-2.62-.09-3.87-.51-.45-.93-1-1.41-1.51-.35-.35-.74-.67-1.12-1l-.32.26a18.71,18.71,0,0,0,.9,1.79c1.89,3.07-.2,5.23-2.75,6a24.56,24.56,0,0,1-5,.53l1.07-2.33a13.6,13.6,0,0,0,.67-1.39c.84-2.58,1.65-5.18,2.49-7.77.37-1.14.66-1.18,1.6-.4a8,8,0,0,0,1.41.85c1.36.73,2.88,1.21,3.58,2.82a28.07,28.07,0,0,0,1.71,3.2,3.57,3.57,0,0,0,1,.76,3.68,3.68,0,0,0-1.46-4c-.39-.26-.92-.5-1.08-.87-.76-1.76-2.4-2.51-3.81-3.52s-2.74-1.84-4.1-2.78c-.13-.08-.18-.28-.27-.43-1.6-2.44-3.13-4.95-5.84-6.38-.76-.41-.62-.82-.07-1.28l.6-.5-.28-.38-1.58,1.15c-1.16-.66-2.38-1.41-3.64-2.06a22.68,22.68,0,0,0-2.87-1.22c-.9-.31-1.85-.46-2.73-.81-.15-.05-.12-.72-.08-1.1.05-.53.19-1.06.29-1.6l-.57,0-.07.89.38.08-1.35,1.42a5.62,5.62,0,0,1-1.54-.92c-.88-1.06-2.12-1.06-3.26-1.36-1.48-.39-3.13-.45-4.38-1.21-1.55-.94-3-.28-4.47-.3a27,27,0,0,0-5.5.92,7.69,7.69,0,0,0-3.12.91,5.36,5.36,0,0,1-4.45,1.11,20.7,20.7,0,0,0-4.12.31l-.3-1.36c-.42.21-1.13.34-1.44.76a8.92,8.92,0,0,1-3.24,2.91,3.92,3.92,0,0,1-3.06.6c-.19,1.54-1.39,1.13-2.33,1.13-.08.37,0,.83-.21.92a33,33,0,0,1-3.18,1.5c-.42.18-.95.1-1.39.24-1.93.6-3.82,1.37-5.79,1.82a13.63,13.63,0,0,1-3.61-.22c-.6.37-1.5,1.67-3.09.78-.11-.06-.47.17-.6.35a10.42,10.42,0,0,1-1,1.48,13.77,13.77,0,0,1-2.13,1.45c-.08,0-.34-.17-.67-.34.09.52.14.83.17,1-.39.09-.78.08-1,.26a12.35,12.35,0,0,0-1.49,1.66c-1.53,2.07-3,4.09-5.41,5.41-2.17,1.19-3.93,3.12-5.88,4.72a13.67,13.67,0,0,0-2.37,1.93,37.49,37.49,0,0,0-2.2,3.67,6.35,6.35,0,0,1-.84,1c-1.17,1.26-2.59,2.35-2.6,4.34,0,.43-.35.86-.66,1.56l-.63-1.94a6.07,6.07,0,0,0-.67,1.21c-.38,1.68-.6,3.4-1.08,5a9.62,9.62,0,0,1-1.59,3.3,27.27,27.27,0,0,0-4.3,7.37c-.86,2.3-1.79,4.58-2.64,6.88a19.51,19.51,0,0,0-1.05,3.47c-.67,3.92-1.26,7.86-1.82,11.8-.26,1.87.31,2.53,2,2.64.71.05,1.18-.18.92-.95-.43-1.28.25-1.61,1.4-1.76l.57,2.08L40,306l.66-3.54.53,0,.27,1.81c.3-.45.46-.65.58-.88.35-.63.54-1.45,1.06-1.85.78-.62,1.09-1.14.58-1.93-1.3-.59-1.84.31-2.37,1.2-.37-.42-.66-.77-.8-.92a21.81,21.81,0,0,0,1.76-3.06c.57-1.47.82-3.07,1.35-4.56.87-2.46,3.06-3.82,4.86-5.49.18-.18.91,0,1.26.28a11.21,11.21,0,0,1,1.63,1.46,8.27,8.27,0,0,1,1.16,1.36c.54.88,1,1.83,1.47,2.74A3,3,0,0,1,54,296a4.65,4.65,0,0,0-.26,1.67c.53-.06,1.06-.1,1.59-.18.75-.12,1.33-.91,2.28-.3a4.44,4.44,0,0,1,2.4,4A3.13,3.13,0,0,1,57.39,304c-2.55.7-4.07,2.47-5.37,4.53-1,1.54-2,2.69-4.06,2.25-.86-.18-1.36.16-1.52,1.12-.18,1.15-.18,2.63-.9,3.33-1.17,1.13-1.61,2.63-2.56,3.8-1.17,1.44-2.78,2.53-3.95,4a4.13,4.13,0,0,1-3.4,1.9c-.47-1-1-1.11-1.84-.45-.56.45-1.23,1.23-1.76,1.16-1.55-.2-2.79.63-4.12,1-1.14.32-1.93.52-2.38-.21a14.21,14.21,0,0,1-2-.22c-1.82-.5-3.65-1.54-5.42-1.46-2.22.11-4.4,1.13-6.6,1.76-1.35.4-2.68.87-4.05,1.18s-3.11-.59-4,1a17.75,17.75,0,0,1-2.31-2A4.65,4.65,0,0,1,0,324.51a10,10,0,0,1,.61-2.91l1.31-.1.16-2.09,0,0,1,.49L4.15,319c.18-.16.47-.32.5-.52.22-1.43,2-2.17,1.72-3.83,0-.09.13-.24.23-.31,1.6-1,1.59-2.83,2-4.32.69-2.34,1-4.8,1.43-7.2a1.26,1.26,0,0,1,.37-.63,7.94,7.94,0,0,1,5.59-2,9.9,9.9,0,0,0,6.56-1.5,36.68,36.68,0,0,1,3.45-2c.49-.26,1.3-.36,1.45-.74.68-1.69,1.63-3.45,1.66-5.2.07-4.31,1.92-6.21,5.73-7,.76-.15.81-.42.83-1.1,0-1.4.27-2.8.45-4.2.2-1.56.22-3.06-1.26-4.11-1.33-.95-2.63-1.92-4-2.86-.9-.64-1.81-1.27-2.76-1.83-.5-.31-1.14-.39-1.65-.69-1.3-.76-2.58-1.57-3.83-2.41-.29-.19-.69-.62-.63-.85.2-.85.59-1.66.87-2.49a1.82,1.82,0,0,0,.1-.92c-.21-1-.49-2.05-.71-3.08-.19-.88-.27-1.79-.53-2.63a5.64,5.64,0,0,1,.33-5,25,25,0,0,0,2.07-4.56c1.12-3.17,2.15-6.38,3.15-9.59A13,13,0,0,0,28,234a42.67,42.67,0,0,0-.41-4.47,6.81,6.81,0,0,0-2.14-4.32,3.62,3.62,0,0,0-.75-1.8,8.32,8.32,0,0,0-1.8-1.07c.68-.7,1.43-1.11,1.58-1.68.94-3.43,4.37-4.33,6.53-6.49,1.31-1.3,3.11-2.12,4.61-3.24,1.27-.95,2.37-2.13,3.67-3a10.73,10.73,0,0,1,3.34-1.56,2.54,2.54,0,0,0,1.72-.87,4.06,4.06,0,0,1,1.16-1A33,33,0,0,0,49,202.51c3.21-2.52,6.33-5.14,9.47-7.75,1.7-1.41,3.33-2.93,5.05-4.32,1.9-1.54,3.84-3,5.82-4.46,1-.77,2.22-1.39,3.34-2.08a1.81,1.81,0,0,0,.47-.4q2.34-3.23,4.67-6.47a7.19,7.19,0,0,0,.94-1.36c1-2.46,2-4.94,2.86-7.44a18.92,18.92,0,0,0,1.12-4,4.24,4.24,0,0,0-1.08-3.6c-.47-.46-1-.78-.64-1.6a1.67,1.67,0,0,1,1.87-1.18,9.63,9.63,0,0,0,5.49-1.24,20.3,20.3,0,0,1,3.38-1.29c1.85-.57,3.77-.92,5.56-1.61a7.51,7.51,0,0,0,2.41-1.9c2.44-2.48,4.74-5.09,7.26-7.48a41.93,41.93,0,0,1,4.39-3.13c1.42-1.05,2.83-2,4.73-1.32a1.41,1.41,0,0,0,.65,0c3-.27,6.08-.56,9.13-.82a5.58,5.58,0,0,1,2.15,0,3.63,3.63,0,0,1,2,1.32c.45.76-.19,1.25-1,1.53-.4.14-.7.74-.91,1.2-.88,1.85-1.57,3.79-2.58,5.56a30,30,0,0,1-3.22,4.27c-1.39,1.63-2.93,3.14-4.35,4.75a8.38,8.38,0,0,0-1.69,2.46c-.72,2-2.27,3.8-1.94,6.23.14,1.05.19,1.71,1.47,1.74,2,.06,4-.15,5.67,1.48.21.21,1.12-.1,1.6-.36,1.35-.74,2.62-1.61,3.95-2.37a22.42,22.42,0,0,0,3-1.55,2.72,2.72,0,0,1,2.75-.48,5.91,5.91,0,0,0,2.58.11,18.6,18.6,0,0,0,3-1.06l.31.25c-.4,1.1-.8,2.21-1.19,3.31l-.51-.1.34-1.6-.25-.2c-.23.3-.62.59-.65.91-.08,1,0,1.94,0,2.92,0,.45.05.9.08,1.36l.36-.05a2.3,2.3,0,0,1,1.36-3c1.08-.5,1.53-.15,1.6,1.26a2.54,2.54,0,0,0,1.11-1.09,9.36,9.36,0,0,0,.23-2l-.21,0-.69,1.76-.3-.11-.22-1.08-1,.49c.17-1.08.32-2,.51-3.15a17.08,17.08,0,0,1,3.63,1,4.9,4.9,0,0,1,1.72,2.18c.19.37-.19,1-.32,1.56a6.43,6.43,0,0,0-.17.76c-.38,2.52-2.16,4.23-3.57,6.16a10.43,10.43,0,0,0-1.75,2.62,3.6,3.6,0,0,1-1.73,2.52c-.93.47-.8,1.23.12,1.75a12.35,12.35,0,0,1,1.21,1,1.14,1.14,0,0,0,.73.28.9.9,0,0,0,.63-.49,2.28,2.28,0,0,1,2.73-1.5,9.61,9.61,0,0,0,2.78.05,40,40,0,0,0,4.61-1.06,29.46,29.46,0,0,0,4.33-1.48c1.2-.54,2.19-1.65,3.42-2a3.43,3.43,0,0,0,2.55-2.54c.61-1.89-.13-3.21-2.06-3.51-.33,0-.86-.28-.91-.51a44.13,44.13,0,0,1-.75-4.41c-.09-.79.38-1.93,0-2.36-1-1.07-.54-2-.64-3-.26-.79-.51-1.59-.76-2.39a10.44,10.44,0,0,0-.55,3.24c0,2.19.3,4.37.25,6.55a3.29,3.29,0,0,0,1.43,3c1.33,1,1.76,3.49,1.08,4.46-1,.12-1.84.17-2.62.32a15.75,15.75,0,0,0-2.73.66,5.24,5.24,0,0,0-2,1.26c-.8.91-1.21.56-1.47.09l-4.57,1.35C143.81,179,144.13,178.74,144.11,178.46ZM136,191.1c0-1.34.69-1.55,1.75-1.71-.73-.14-1.45-.31-2.18-.4-.1,0-.35.37-.37.58-.08,1.12-.12,2.26-.17,3.39a4.23,4.23,0,0,0-.52.68,17.56,17.56,0,0,0-.81,1.77,11.58,11.58,0,0,0-.33,1.32l.38.13,1.13-1.75.33.15.13,2,.45,0a16.8,16.8,0,0,0-.17-1.74c-.17-.85-.41-1.68-.62-2.52C135.32,192.32,136,191.7,136,191.1Zm2.24.42-1,.95-.18-1.36-.33,0-.12,1.78,1.57-.17c.14.15.33.45.42.42a1.72,1.72,0,0,1,2.38,1c1.08-1.57,1.28-2.38.8-3.63-.26.77-.48,1.43-.65,1.9l-3,.32Zm-3.21-5.6,1-.11-.44,1.38.18.12,1.51-2.11a1.18,1.18,0,0,0-.12.36c0,.9.08,1.79.13,2.84l.83.18v1.53c1.11-1.51-1.43-3.5,1-4.79l-1.8-.11C135.46,184.27,135.3,184.62,135,185.92Zm-23.94,2.57c.23.42.38.88.6,1.4l1.26-3.57c-.71-.14-1.39-.48-1.61.68,0,.28-.56.46-.85.69l-1.3,2.79c1.19-.3,1.54-1.14,1.28-2.81A6.09,6.09,0,0,1,111.06,188.49ZM40,243.12l-.44,1.52.35.16,1.48-.91L42.48,246l.37.06c.22-1,.44-1.93.65-2.89s.38-2,.59-3.06c-.76.37-2.08.18-1.23,1.76.15.27-.11.89-.35,1.21a4.66,4.66,0,0,1-1.12.81Zm129.1-95.37a3.53,3.53,0,0,1-1.51.18,13.35,13.35,0,0,1-5.39-1.62,20.06,20.06,0,0,1-1.89,1.23,2.66,2.66,0,0,0-1.72,2.31c-.24,2.22-.84,4.39-1.22,6.6a22.07,22.07,0,0,0-.13,2.58l.48.07c.3-1.21.63-2.4.9-3.62a14.33,14.33,0,0,1,3.17-6.72c.08-.1.18-.27.27-.27,1,.06,1.93.17,2.9.22a1.91,1.91,0,0,1,1.93,1.53c1.55,0,3,0,4.5,0,.24,0,.57.37.69.65a4.81,4.81,0,0,1,.18,3.9,30.47,30.47,0,0,1-1.31,3.24,26.74,26.74,0,0,1-2.06,2.73,19.17,19.17,0,0,0-1.56,2.17c-1.09,1.95-2.18,3.89-3.12,5.91a6,6,0,0,0-.63,3c.32,3-1,5.28-2.56,7.71-1.71,2.65-2.77,5.73-4.14,8.61a7.78,7.78,0,0,1-1.19,1.93c-.87,1-1.66,1.79-1.27,3.39a2.91,2.91,0,0,1-3.39,3.37l-1.9-.19a3.12,3.12,0,0,0,2.46,2.92c1.09.13,2.28.11,2.89-1.18a1.62,1.62,0,0,1,.68-.58c2-1,1.82-2.94,2.13-4.75a10.76,10.76,0,0,1,1.61-3.83,5.06,5.06,0,0,0,1-2.55,6.19,6.19,0,0,1,.88-2.31c.72-1.41,1.46-2.82,2.29-4.17,1-1.58,2.09-3.07,3.09-4.64a2,2,0,0,0,.25-1.31c-.53-2.61-.52-5.14,1.15-7.36.82-1.09,2.14-1.88,2.73-3.06a89.65,89.65,0,0,0,4.22-9.77c.42-1.18-.14-2.68-.12-4a10.89,10.89,0,0,1,.45-2.65,6.39,6.39,0,0,1,.73-1.36l-.35-.4C173.22,146.34,171.18,147.07,169.13,147.75Zm20.09,40.69,1.79-.18-1.14,2.13c-.26,1.71-.61,3.69-.83,5.68a25,25,0,0,0,.11,2.58c0,2.13-.06,4.25-.11,6.38,0,.56-.38,1.28.69,1.27.91,0,1.13-.5,1.14-1.34a4.45,4.45,0,0,1,.45-1.71c1.13.17.54,1.12.67,1.76s.07,1.39.18,2.07a4.52,4.52,0,0,0,.41,1L193,208v-7.1c2.6-1.41,3-.33,4.12,2.37.13.31,0,.73.2,1a1.16,1.16,0,0,0,.78.55.93.93,0,0,0,.71-.56,27.46,27.46,0,0,0,.37-2.87c0-.38,0-.77,0-1.16a3.56,3.56,0,0,1,1.84-3.1c1.13-.75,1.79-2.24,2.61-3.44.11-.17,0-.56-.14-.82a29,29,0,0,1-1.1-2.94c-.22-.9-.57-1.67-1.49-1.72-1.81-.11-2.73-1.26-3.48-2.64-.3-.57-.54-1.06-1.23-.6s-1.72.65-1.42,1.86c.12.49.29,1,.37,1.48.16.95-.42,1.24-1.24,1.45s-1.41,0-1.56-.84c-.18-1-.19-2-.29-3.14C191.4,187,189.33,186.52,189.22,188.44ZM113.86,183a39.78,39.78,0,0,0,2.34-4.43c.35-.73.43-1.61.84-2.29.18-.29.91-.23,1.6-.38l-.51,1.49c1.12.13,1.71-1.77,1.24-3.74l-.57,2.1-1.7-2.31-.59,2.95-.24,0V172.1l-1.73-1c-.07-.31-.05-1-.29-1.08a2.24,2.24,0,0,0-1.55-.11,5.83,5.83,0,0,0-3.92,3.87c0,.06-.33,0-.38.1-.2.3-.56.73-.47.94.67,1.52-.69,4.32-2.36,4.79-.33.1-.6.46-.89.71l1,.74c-.12.16-.35.49-.6.8s-.54.65-.84,1l1.11.09.08.33-1.59.67,0,.41c1.38-.49,2.11,1.24,3.5.82.14,0,.4.15.54.3,1.13,1.12,1.83,1.08,2.85-.05a8.29,8.29,0,0,1,1.52-1.07l-.17-.24C112.69,183.76,113.52,183.55,113.86,183Zm34.51,25.73c-2.44.9-4.28-.73-6.44-1.25,0-.23,0-.56.12-.61,1.46-.76,1.24-2.14,1.27-3.41a2.58,2.58,0,0,1,1.18-2.09,24.16,24.16,0,0,0,2.87-3.53c1.2-1.52,1.23-1.53.85-3.3-.06-.29-.53-.73-.74-.69a2,2,0,0,0-1.24.68c-.54.87-.67,2.15-1.4,2.71a7.63,7.63,0,0,0-2.59,3.83,5.75,5.75,0,0,0-.36,1.11c-.22,1.89-.47,3.78-.57,5.67a2.14,2.14,0,0,0,.68,1.55,8.66,8.66,0,0,0,5.7,2.1,6.62,6.62,0,0,1,2.73,1,4.14,4.14,0,0,0,3.21.59c.23-.06.77.31.86.58.45,1.38.85,2.78,1.16,4.19s-1.57,3.72-3,3.75a23.44,23.44,0,0,1-4.36-.16c-.94-.16-1.77-.9-2.7-1.19a1.6,1.6,0,0,0-1.33.45c-.42.45-.35,1,.33,1.37a21,21,0,0,1,2,1.2,6.67,6.67,0,0,0,4.66.81c.82-.09,1.64-.13,2.46-.21a1.51,1.51,0,0,0,.73-.14c1.26-1,2.53-2,3.7-3,.28-.26.25-.93.26-1.4a13.12,13.12,0,0,0-.08-2.51,30.08,30.08,0,0,0-.88-3.45c-.4-1.34-1.54-1.63-2.75-1.77a10.1,10.1,0,0,1-1.93-.21,15.23,15.23,0,0,1-2.06-1A1.79,1.79,0,0,1,148.37,208.76ZM65,196.65a4.14,4.14,0,0,0-2.48,2.62.46.46,0,0,1-.12.23c-1.82,1.5-1.07,3.5-1,5.35a1.74,1.74,0,0,0,2.17,1.69c.26,0,.53-.2.76-.15.51.11,1.34.21,1.41.49.13.45-.24,1-.43,1.65.51.35,1.25.09,1.14-.78-.15-1.2.56-1.15,1.31-1.21,1.63-.13,3.27-.23,4.83-1.78a5.44,5.44,0,0,0-1.36-.13c-1,.24-2,.59-3.09.82-.26.05-.78-.12-.83-.3a1,1,0,0,1,.26-.9c1.52-1.05,3.09-2,4.6-3.06a8.07,8.07,0,0,0,1.36-1.32c.34-.37.53-1,.93-1.16,1.94-.94,1.67-2.63,1.73-4.23-1.39-.59-1.91.66-2.77,1.1-.11.06-.15.4-.12.6.32,2.22.25,2.38-1.81,3.48-.87-1.52-1.75-3-2.76-4.83C67.61,195.36,66.28,196,65,196.65Zm57.41-22.11c.21,1.52-.8,1.82-2.06,2.08,0,.42.06.83.1,1.23,0,.25.17.53.09.73-.56,1.4-.58,1.39.51,2l.44,2.16c1-.67,1.84-1.06,1.57-2.26-.08-.37.39-.86.71-1.51l1.56,1.76.59-1.33,1.49,1.89,2.9.53a10.67,10.67,0,0,0-1.4-1.14c-.31-.17-1,0-1.08-.18-.23-.48-.5-1.32-.27-1.57.75-.81.1-1.41-.11-2s-.46-1,.17-1.6c.25-.22,0-1,0-1.49l-1.69,1.56c-.77-1.42-2.56-2.2-1.45-4.15h-1.07a6,6,0,0,0-.5,1.38,4.15,4.15,0,0,0,.19,1.18l-.19-.39C122.7,173.79,122.35,174.19,122.4,174.54Zm66.65-45.31c.25-.16.42-.49.68-.57a5.53,5.53,0,0,1,1.94-.38c.15,0,.3,1,.36,1.49.08.76-.36,1.09-1.07,1.37a6.36,6.36,0,0,0-1.7,1.3c-.47.43-.87.93-1.38,1.49.94,2.48,2.31,5,1,8,1.83-.52,2.38-1.91,2.6-3.42.26-1.75.31-3.53.54-5.28a3.19,3.19,0,0,1,.72-1.37,4.61,4.61,0,0,1,.89-.76c-.4-1-.8-1.77-1.07-2.61a2.83,2.83,0,0,0-4.56-1,24.43,24.43,0,0,0-1.93,2.84l.44.45C187.35,130.32,188.21,129.79,189.05,129.23Zm-52.5,92.61c-.33.87-.67,1.75-1.1,2.9l1.52-1.3c.29.79.46,1.39-.7,1.55-.36,0-.68.43-1.14.75a2.4,2.4,0,0,0,.43.23c.74-.47,1.85-.79,2.09-1.45s-.43-1.65-.54-2.52a23.65,23.65,0,0,1,0-2.8,3.46,3.46,0,0,0-3.33,1.71l1.65-.62a10.69,10.69,0,0,1-.56,1.46,10.89,10.89,0,0,1-.94,1.22l-1-.31c-.22.8-.22.8,1.48,1.58A3.16,3.16,0,0,1,136.55,221.84ZM95.48,210.15c1.66-.38.61-2.24,2.07-2.81-.17,1-.31,1.76-.5,2.87l2.44-1.88-1.12-2.56a7.88,7.88,0,0,1-1.24.4.76.76,0,0,1-.67-.3,3,3,0,0,1,0-1l-.43-.15a21.92,21.92,0,0,0-.94,2.8c-.07.32.42.76.79,1.39Zm40.73,7.69c.93.23,1.83-.7,2.6.28.07.09.77-.32,1.35-.58l1.11.27s.35.55.44.51a18.07,18.07,0,0,0,1.93-1.12l-4.69-.84c.53-.56.85-.9,1.18-1.23v-.31c-.62.11-1.47,0-1.79.37s-.37,1.3-.58,2.18l-1.08-.81Zm8.85-2.69v1.2l2.68-1.94a9.61,9.61,0,0,0-1.86-1.41c-.31-.15-.93.32-1.4.51.43,1.07-.24,1.32-1.23,1.34l.19.5Zm-17.63-8.64,1.91-1-.42-.28c.32-.82.67-1.64,1-2.47.2-.6.31-1.22.46-1.83l-.43-.12-1.68,3.07c-.08.14-.09.35-.2.42a2.54,2.54,0,0,0-.75,2.88c0,.09.28.07.68.16ZM49.69,295a5.68,5.68,0,0,0,1.69-.18c.3-.16.41-.66.67-1.1-3.11-.12-3.6.38-4.4,4.18l.41.25ZM142,213.19l.11-.28L141,212.5v3.16l1.68.91-1-2.2.27-.14.54,1.06,1.34-2.24-.18-.5Zm-47.3,7.72c-1.57,2.18-.51,4.63-.82,7h.82ZM45.7,243.69c-.05-.31.76-.74,1.15-1.09l-.44-2.27c-.6.26-1.89,3.89-2.33,6.76C45,245.93,45.91,245.14,45.7,243.69Zm6.17,48.36-2.8-2c-.29.76-.57,1.55-1,2.67l1,.81.15-1Zm48.36-75.31c.06,1.19.11,2.16.16,3.28a6.82,6.82,0,0,0,1-1.39c.13-.33.1-1-.1-1.14-1-.59-.57-1.12-.08-1.74a3.2,3.2,0,0,0,.36-.89l-.46-.27-2.39,3.5.55.38Zm26.41-7.92,2.61,1a12.25,12.25,0,0,1,.32-2.85c.26-.69.94-1.21,1.33-1.89-1.19.74-2.74,1.21-2.43,2.7Zm1,1.11a1.7,1.7,0,0,0-1.32.1c-.21.12-.14.69-.28,1-.22.55-.36,1.27-.78,1.58-.71.51-.6.79.34,1.57a4.37,4.37,0,0,0,.68-1.22c.23-1.24,1-1.75,2.38-1.76C128.19,210.62,128,210.1,127.62,209.93ZM99.93,225c.18-.33.33-.89.57-.93,1.39-.28,1.29-1.24,1.19-2.18-2.51.28-2.6,2.09-2.32,4.12C99.56,225.67,99.74,225.33,99.93,225Zm23.53-13.71c-.08,1.4-.16,2.67-.24,4l.57.08c.07-.44.16-.88.23-1.32.15-1-.21-2.1,1.11-2.69.61-.27.2-1.16-.61-1.44Zm-20.82-23c-.34.17-.59.5-.92.6l-1.1.53.12.36,1.18.07-.49,1.13c1.07-.08,2.62-2.15,2.45-3A6.22,6.22,0,0,0,102.64,188.26ZM90.38,209.39l-1.28-.09.37,1.07,2-.16.22-1.25,1.23-.69-2.74-.67C90.25,208.32,90.32,208.86,90.38,209.39ZM127,224.91a6.39,6.39,0,0,0,.35,1.07.5.5,0,0,0,.43.18.46.46,0,0,0,.32-.33c0-1.21,0-2.43,0-3.65l-.39-.08c-.54,1.11-1.07,2.21-1.61,3.31l.46.19Zm-5.9-15.26-.39-.22a15.29,15.29,0,0,0-2.81,4.43c-.08.19.19.53.37,1ZM77.33,231.38c-.43.05-1.19,1.18-1.44,2.16a5.62,5.62,0,0,1-.86,2.19c-.64.81-.24,1.11.48,1.59Zm47.31-47.49v1.91l1.17-1.24.29.24v2.25c.86-.64,1.08-3.09.49-4.05C125.73,183.1,126.24,185.31,124.64,183.89ZM94.48,209l-1.66.37.55,1.43c1.39-1,.94-2.45,1.27-3.69l-1.17-.24C93.09,207.81,92.81,208.62,94.48,209ZM32,247.18c0-.26-.55-.51-.84-.77-.18.33-.61.8-.51,1a5.75,5.75,0,0,1,.66,4.3l.58,0C31.93,250.16,32,248.67,32,247.18ZM169.77,254c-.16,1-.21,2-.4,3a7.64,7.64,0,0,1-.6,1.35,3,3,0,0,0-.19.89c0,.08.36.26.39.24.21-.24.5-.48.56-.77.39-1.65.72-3.32,1.07-5l-.34-.15C170.09,253.7,169.79,253.81,169.77,254Zm-20-18.87,1.11-1.36.48.33-.84-.28.3-1.26-1,.53-.43-1.12h-.28l-.47,2.36,1.15-.66Zm-5.64-49.67-1.2-.23-.06-.28,1.7-.49c-2.09-.17-2.31,0-2.45,2.27l.9-.79.16.12c-.33.83-.67,1.66-1,2.48l.41.12Zm-11.76,5.33-.4-.21a14.33,14.33,0,0,0-1.51,2.34c-.17.41.18,1,.3,1.55l.46-.07Zm5,9.79-1-.52a9.49,9.49,0,0,0,.7-.72c.42-.51.82-1,1.42-1.79-1.83.3-2.57,1.79-2.56,4.6ZM139,187l.5.28,1.2-2.17c.09-.17.12-.4.26-.51.82-.67.28-.94-.51-1.39ZM75,225.12l1.49,1.13c.57-1.56,2.66-2.48,2.16-4.88C77.52,222.9,77.94,225.5,75,225.12Zm31.88-37.34c-.1-.42-.94-.67-1.52-1l-.31,2.69.77-.87.32,1.16.31.09A5,5,0,0,0,106.92,187.78Zm-9.27,32.36a4.09,4.09,0,0,0-1,4.21l.47,0Zm18.43,1.91-.89-1.35c-1.32.84-1.61,1.58-1,2.73Zm72.5,49.33-.18-.18-1.24,1.06c-.2,1.17-.37,2.23-.55,3.28l.36.09Zm-4.67,10.51c1.62-.72,1.33-2,1.27-3.39C183.52,279.27,184,280.62,183.91,281.89ZM152.45,169.08c-.28.22-.93.58-.89.71a4.75,4.75,0,0,0,.82,1.22l-.7,1.78.35.14,1.29-2.09ZM43.66,251.16,43,247.93l-.25,0c-.33.92-.65,1.84-1,2.88ZM157.37,147.44l-.45-.63c-.87,0-1.49,1.72-1,3C156.41,149,156.84,148.31,157.37,147.44Zm55.12,77.64.25.48.63-1.83-.32-.29c-.53,1.16-1.3,1.14-2.28.82-.4-.13-1,.32-1.75.61Zm-141.26.08.51.16c.45-1.52.91-3,1.36-4.55l-.58-.18ZM48.61,261.07c-1.33-.07-1.65.3-2,2.34C48.51,263.6,47.78,261.77,48.61,261.07Zm105.82-60.44v1.12l-1.05-1.13-1.17,1.86.37.26.82-1.2c.21.16.56.6.76.54a8.16,8.16,0,0,0,1.5-.82l-.22-.45Zm-32.3,12.45c-1.5.44-2.07,1.81-1.87,3.73.9-.1.9-.1.37-1.19ZM99,216.26c-.6-.28-1.47,1.06-1.56-.68l-.36.36.87,3,.3,0C98.47,218.1,98.72,217.19,99,216.26Zm-10.73,6.82c.41-.78.8-1.58,1.14-2.4a1.58,1.58,0,0,0,0-.86c0-.08-.4-.16-.42-.13a4.91,4.91,0,0,0-.33.74c-.25.62-.48,1.25-.74,1.86s-.44,1-.67,1.56l.38.2A8,8,0,0,0,88.24,223.08ZM88.72,208c.54-1.71.08-3.11-1.22-3.59Zm8.44-18.75c.26.07.48.27.74.37a6.41,6.41,0,0,0,.75.21c-.05-.25,0-.64-.16-.74-.81-.5-1.66-.92-2.6-1.43C95.64,188.67,95.83,188.89,97.16,189.22Zm-4.81,13.89c-.3.83-.61,1.65-.95,2.57l.8,1.21,1.07-.81A2.55,2.55,0,0,1,92.35,203.11ZM172,196.28l-.2-.08a14.65,14.65,0,0,0-.66,2.48,11.23,11.23,0,0,0,.23,2.28l.28-.09C171.76,199.34,171.87,197.81,172,196.28Zm34.08,14.07c1.21.18,2.21-1.44,2.34-3.7ZM102.42,190.78a7,7,0,0,0,2.22.76c.38,0,.72-.81,1.08-1.25l-.32-.3Zm83.05,80.59-.37,0-.52,3.53,1.21-.58Zm-36.85-39.49-2.66-.56c.84.93,2.08,1.48.8,2.8l.46.06Zm1.67-16-.19-1-.25,0-.55,1.44c1.64.7,2.07.46,2-1.27ZM124,223.73l-1.46-2.41h-.28a5.68,5.68,0,0,0,0,1.43,7.66,7.66,0,0,0,.75,1.49ZM101.82,184.5l.34.27a6.43,6.43,0,0,0,.64-.15c-.13-1.09.59-1.75,1.18-2.48.1-.12,0-.38,0-.58l-.47-.18Zm36.06,19.71-2.15.11-.19,1.54.31.1.61-.86C137.45,205.56,137.45,205.56,137.88,204.21ZM92.52,229.65a11.62,11.62,0,0,0,0,1.87c.08,0,.27,0,.29-.09.3-1.2.59-2.4.88-3.6l-.61-.12A15.14,15.14,0,0,0,92.52,229.65Zm25.56-86,1.41-.11.29-1.18-1.7-.44Zm13.43,53.76,1-3.29-.27-.11-1.92,3.5Zm-1-14.64.77-.31-.28-2.84h-.49Zm-15.24,31.29c-.12-1,2.14-1.39.6-2.78C115.65,212.23,114.33,212.88,115.23,214.07Zm37.15,37.31-1,3.61C152.31,254.63,153,252.59,152.38,251.38Zm-71.3-44.5c-.53.49-1.21,1-1.15,1.1a10.55,10.55,0,0,0,1.24,1.62l.33-.22C81.38,208.65,81.25,207.92,81.08,206.88Zm129.7-1.39c-.32,1-.52,2-.76,2.95l.32.06c.46-1.34.93-2.67,1.39-4l-.09-.21A5.65,5.65,0,0,0,210.78,205.49ZM134,175.12l.43.14,1.61-4-.51-.17c-.08.38-.18.77-.25,1.16s-.18,1-.27,1.58l-1.12-.47ZM40.53,249l0-.27a10.46,10.46,0,0,0-2,.6c-.31.17-.41.75-.6,1.14l.34.09Zm91.41-71.58c-1.18.21-2.27.2-2.87,1.52A2.42,2.42,0,0,0,131.94,177.46Zm73.6,36c-.1,1-.2,2-.31,3.06C206.52,215.57,206.61,214.47,205.54,213.49ZM30.44,305c1.07.14,1.19-.11,1.2-2.35l-.34-.14C31,303.36,30.73,304.18,30.44,305ZM152,186.46l.4.11,1.08-3-1.89.48.06.4C153.24,184.83,152.26,185.72,152,186.46ZM66.69,219.24c-.08,1-.15,1.94-.22,2.93C67.68,221.71,67.77,220.34,66.69,219.24ZM53.82,253.13c-.71,0-1.34-.12-1.29,1,0,.66,0,1.32,0,2.28C53,255.22,53.37,254.29,53.82,253.13Zm112.64-73.88-.3-.16a5.21,5.21,0,0,0-.69,1.48,3.62,3.62,0,0,0,.45,1.41l.26-.24ZM129,171.16,127.74,170l.83,1.09h.36l.41-2.24-.14.13Zm-44.43,56-.06.39-2.59.32,0,.2,3.18.37.19-.32Zm83.22-26.38-.6,1.47-.2-.09V204C168.54,201.56,168.54,201.56,167.77,200.74Zm-42.47-9.23a2.54,2.54,0,0,0,.2,2.58c.25-.91.45-1.64.74-2.68C125.94,191.43,125.37,191.36,125.3,191.51ZM58.83,251.37a1.76,1.76,0,0,0,1.05-2.77C59.56,249.47,59.22,250.36,58.83,251.37Zm103-95.88-.35-.29-1.68,2C161.6,157.32,161.77,156.46,161.81,155.49Zm-60.37,71.87-1-.65c.77-1.34.77-1.34.12-1.8-.29.81-.59,1.67-.94,2.67ZM132.8,185.6c-.06.06.2.6.34.61.32,0,.83,0,.94-.25a6.24,6.24,0,0,0,.38-1.53l-.24-.13C133.74,184.72,133.24,185.13,132.8,185.6ZM134.53,169c.46-.43,1-.72.92-.88-.2-.76.14-1.76-.92-2.49Zm-8.3,2.95-.37-1.44-.28-.07-.74,2.83.24.09Zm-58,35.94,1.08,1,.52-1.29h.26l.19,1.16h.21v-1.67Zm64-7.06c0-.08-.38-.36-.41-.33-.26.22-.6.45-.67.75a3.91,3.91,0,0,0,.06,1.22l.43.18C131.9,202,132.12,201.4,132.28,200.79Zm9.05-31.71.92-1.53-.42-.25-1.22,1.95.27.28,1.72-.55-.08-.29Zm-93,120a3.81,3.81,0,0,0-.6.23c-.51.32-1,.67-1.52,1l1.81.19Zm22-78.72a15.37,15.37,0,0,0-2-.57l-.12.4,2.09,1.16C70.29,211,70.45,210.36,70.34,210.32Zm36.35.77.82.75c1.46-.41.35-1.44.44-2.16Zm29.49-36,.5.32,1.41-2.37-1.8.29.61.58Zm-57.06,31.8,1.5-.25-.48-1.88-.23-.18C79.67,205.27,79.42,206,79.12,206.86ZM96,230l-.12-.67a21.63,21.63,0,0,0-2,.91c-.15.09-.09.53-.15,1Zm31.24-26.35-.42-.2-1.2,2.52.58.32Zm45-65.55a4.3,4.3,0,0,0-.67-.82l-.4.17a12,12,0,0,0,.37,1.7c0,.09.64,0,.82,0A3.24,3.24,0,0,0,172.22,138.08ZM71.84,233.43c.17.24.39.52.84,1.12.15-1.14.27-1.94.38-2.74l-.28,0Zm-48,79.27c-1.46,0-1.94.71-1.38,2Zm26.54-72.38c.43-.3.81-.67,1.21-1-.2-.19-.51-.56-.57-.53a12.53,12.53,0,0,0-1.36,1.06C50,240.1,50.28,240.37,50.34,240.32Zm178.19-59c1.13-.79.71-1.91.88-2.9l-.33,0ZM83,202.88a1.58,1.58,0,0,0,0,2.73ZM140.08,226c-.38.22-.91.36-1.1.69s.31.7.49,1.07l.61-.22Zm-6.69-39.17c-1.84.45-1.17,2.13-2,2.9l.39.22ZM77.33,207.43c-.08-.36-.15-1.05-.26-1.06a15.37,15.37,0,0,0-2.14.13l.16.36ZM129,186l-1.13-1.47-.9,2Zm-75.5,64.23c.11,1,.18,1.64.27,2.47C54.9,251.83,54.86,251.47,53.52,250.26Zm51.41-22.63.37.18c.42-.74,1.51-1.17.78-2.48C105.69,226.1,105.31,226.87,104.93,227.63ZM138,194.11l-.38-.17-1,2.31C138.22,196,138.12,195.07,138,194.11Zm-22.31-52,.22,2.31.19.06c.19-.84.39-1.68.63-2.73Zm8.94,60.73.67,1.5,1-1.81-.24-.27Zm29.43,32.75v-2.54L153,234.4Zm-18.87-21.54c1.42-.38,1.52-.9.41-2.2Zm-31.41.11-1.7-1.34-.2,1.78Zm35.27,14.35-1,1.75,2.52-.73Zm-14.58-3.63c1,0,1.47-.8,1.35-2.31Zm54.08,32.37-1.34,1.91.37.22C179.22,258.22,179.26,258.14,178.58,257.29ZM105.52,151.85a3.25,3.25,0,0,0,.33-1.26l-.6-.2-1.06,2.28A4.66,4.66,0,0,0,105.52,151.85Zm8.42,59.37c.73-.35.73-.35,1.37-2.65l-.35-.14ZM82.19,195.86c0-.18-.26-.41-.41-.62-.13.19-.35.36-.37.57-.09.66-.11,1.32-.15,2l.36.14C81.82,197.24,82.05,196.56,82.19,195.86Zm34.13,29.47.43.12.87-2.46-.63-.16C116.76,223.66,116.54,224.5,116.32,225.33Zm-60.26,18.4-1.17-1.61-.33,2,.32.26Zm80.23-27.64-.27-.29-1.79,1.76C135.85,217.86,136,216.88,136.29,216.09Zm13.8-12.85-1.57-1.76-.3,1.76ZM76.17,230.9a.61.61,0,0,0-.1-.57.54.54,0,0,0-.56-.05,1.75,1.75,0,0,0-.65.85,4.46,4.46,0,0,0,.31,1.4C75.59,231.85,75.91,231.4,76.17,230.9Zm72.48-59.19c-.55.74-1.48,1-1,2.49.25-1,.48-1.71,1.55-1.22Zm-9.1,40c-1-.24-1.32.26-1.32,2.07Zm-5.49-28.17-.12-.26-1.82.32.29,1.34Zm20.33,19.24c-1.8,1.05.1,2-.2,2.43C154.23,204.7,154.3,203.85,154.39,202.78Zm19.63,53c0,.06.29.32.44.49.36-.46.74-.91,1.06-1.4,0-.07-.24-.35-.44-.62C174.66,254.83,174.31,255.28,174,255.78ZM91,204.36c-1,.53-1,.53-.6,1.92C90.62,205.69,90.81,205.09,91,204.36ZM68.31,228l-.5-.1-.54,3,.44.09Zm77.41-68.78L144,160.34l.15.16,2-.43ZM130.1,210.51l.29.16,1.24-1.81-1.28-.12Zm80.62,2.05-.57-.17-.53,1.7.66.2Zm-78.62-5.81c-1.08-.36-1.15-.31-1.67,1,.06.06.12.14.19.15.28.06.57.1.83.13Zm-43-10.59c-.05-.67-.1-1.37-.19-2.49l-1.08,1.85Zm-7,33.54c1.82.59,2.1.44,1.79-.58ZM51,299.48c-.74,1.11-.58,1.4,1.11,1.69Zm17.31-74.85.89-2.48C68.24,221.92,68,222.61,68.27,224.63Zm115.47,51-.5-.17c-.23.72-.46,1.43-.68,2.15l.46.16ZM76.4,208.68c-.28-1-.86-1-2.19,0Zm52.95-17.87-.42-.5-1.66,1.57.25.3Zm19.12-5.05.29.06.65-2.91-.59-.06ZM70.83,217c-.39,1.29,0,2.67-1.49,3.13C70.74,219.7,71.21,218.65,70.83,217Z"/><path class="cls-1" d="M196.34,306.89l-.29-1.55-.35,0a6.19,6.19,0,0,0-.08.95,2.27,2.27,0,0,1-.1,1.21l-.67-.81-.58.51c-.16-.49-.28-.89-.41-1.28-1.68.66-1.91,2.07-.69,3.51l-.58,1.84.52.17,1.48-3.79v1.93c.42-1.17,1.79-2.37,3.06-1.46,0-.58.06-1.08.09-1.58.17-.11.48-.22.49-.35a20.2,20.2,0,0,0,.14-2.69,2.61,2.61,0,0,1,2.16-2.55,1.55,1.55,0,0,0,1-.39c1.26-1.45,2.46-2.94,3.69-4.42,0,0,0-.09,0-.13.9-1.84,1.45-3.92,3.45-5,.19-.1.25-.44.36-.67s.25-.83.52-1,.66.17.71.19c.35-1,.42-2.11,1-2.69,1.42-1.39,1.71-3.13,2-4.88.37-2.29-.25-4.84,1.88-6.63.12-.1.15-.31.21-.47,1-2.7,3.34-3.51,5.46-4.41a10.1,10.1,0,0,1,1.42-2.08,2,2,0,0,0,.83-2c-.21-1.45.08-1.69,1.61-1.8a30.63,30.63,0,0,0,4.51-.45c2.84-.65,3.62-.26,4.34,2.57.2.79.56,1.3,1.5,1.29a8.09,8.09,0,0,1,1.63.36,24.1,24.1,0,0,0,4.55.84,7.4,7.4,0,0,0,3.21-1.09c2.22-1.16,4.43-2.37,6.55-3.71,1.74-1.1,3.35-2.4,5-3.63,1.26-.93,2.5-1.88,3.77-2.8.94-.68,1.82-1.68,2.87-1.93a76.48,76.48,0,0,1,9.15-1.61,9.81,9.81,0,0,1,8.44,3.53,16,16,0,0,1,3.93,6.54c.22.86.37,1.73.57,2.6.37,1.68.85,3.34,1.09,5,.21,1.47.52,3.06-1.14,4.22.82,1.69,1.63,3.34,2.4,5a2.4,2.4,0,0,1,.25,1.11c-.21,2.58-.24,2.61,1.93,3.7,2,1,3.75,2.57,6.17,2.67a1.89,1.89,0,0,1,1.31.77c1.54,2.33,3.18,4.62,3.8,7.43.11.46.33,1.05.15,1.39-.82,1.48-.35,2.94-.22,4.45a8.84,8.84,0,0,1-.23,3.33c-.43,1.37.07,2,1.12,2.74a7.78,7.78,0,0,1,3.7,5.52,12.19,12.19,0,0,0,1.64,4.17c1,1.8,2.22,3.46,3.32,5.2a6.23,6.23,0,0,1,.41,1.07c.95,2.37,0,4.7-.27,7a14.58,14.58,0,0,1-1.37,3.46c-.38.94-.73,1.89-1.09,2.84-.2.52-.27,1.41-.58,1.5a4.56,4.56,0,0,0-2.7,2.46c-.27.46-.84.73-1.23,1.13s-.76.62-.78,1c-.08,1-.76,1.1-1.46,1.38a3.79,3.79,0,0,0-1.45,1.06c-.54.64-.9,1.43-1.42,2.09-.84,1.11-2.06,1.87-2.33,3.47-.15.83-1.08,1.56-1.71,2.27-.48.53-1.18.89-1.55,1.47-1,1.52-1,3.6-2.8,4.64-.68.4-1.33.85-2.18,1.4l-.32-1.92-2.89.75c-.71.18-1.44.28-2.13.52-1.57.55-3.37.6-4.3,2.47-1.06,2.14-1.41,2.15-3.52,1.06l-.63.6c-1,1-2.05,2.05-3.14,3a1.83,1.83,0,0,1-1.34.5c-2.14-.47-3.16,0-4.06,1.91a8.1,8.1,0,0,1-.93,1.4c-.88,1.11-1.81,2.18-2.67,3.3-1.74,2.25-3.44,4.53-5.17,6.78a6.66,6.66,0,0,1-1,.84c-1.55,1.32-3.08,2.68-4.66,4a25.42,25.42,0,0,1-4.4,3.26,26.34,26.34,0,0,1-4.93,1.36,15.35,15.35,0,0,0-3.42,1.09c-1.89,1.06-3.65,2.34-5.45,3.55a4.81,4.81,0,0,0-1,.91c-1,1.19-1.92,2.41-2.83,3.65-.68.91-1.23.72-1.85,0-.23-.28-.6-.63-.89-.62-1.35.05-2.7.21-4,.33a6.51,6.51,0,0,1-1.16.07c-2.74-.3-5.48-.65-8.23-.93-3.18-.33-6.37-.6-9.55-.92a4.35,4.35,0,0,1-1.08-.45V398l1.46-.41,1.48-.37a8.39,8.39,0,0,1,2.22-.62c1.57,0,1.78-.15,1.9-1.67a2.28,2.28,0,0,0-1.11-2l-1.36-1.1c1.14-1.46.88-2.41-.68-3.06a1.18,1.18,0,0,1-.61-.55,3,3,0,0,0-2.07-1.79c-.36-.11-.88-.9-.77-1.14.88-2-.29-3.35-1.64-4.48s-3-2.45-3.57-4.44a2.11,2.11,0,0,0-.66-1,57.71,57.71,0,0,0-6-5,10.56,10.56,0,0,1-3.86-4.78c-.16-.37-.42-.7-.54-1.07-.28-.88-.44-1.8-.76-2.66a34,34,0,0,1-1.62-3.94,5.58,5.58,0,0,0-1.83-3,61.28,61.28,0,0,1-5.66-5.38c-1.65-1.91-3.44-2.91-6-2.5a4.59,4.59,0,0,1-4.59-1.54c-1.11-1.47-2.33-1.54-3.86-1.17a2.48,2.48,0,0,1-2.72-2.76c0-.25-.14-.76-.32-.81a1.5,1.5,0,0,1-1.2-1.95,17,17,0,0,0,.5-2.31c0-1.41,1-1.74,2.08-2a4.69,4.69,0,0,0,3.57-5.95c-.05-.2.06-.44,0-.63a9.08,9.08,0,0,0-.61-1.55c-.25-.48-.64-.89-.92-1.36a31.33,31.33,0,0,0-2.09-3.56,4.65,4.65,0,0,0-2.22-1.39,6.63,6.63,0,0,0-5.38.65c-1.37.78-2.57.26-3.68-.65a6.65,6.65,0,0,0-.73-.43c-.78-.43-1.57-.78-1.54-1.93s.83-1.17,1.57-1.54a4.53,4.53,0,0,0,2.18-1.83,18.52,18.52,0,0,0,.73-4c.19-1.19-.27-2.71,1-3.4,2.25-1.16,4.63-2.07,6.91-3.19a2.19,2.19,0,0,0,1.17-1.41c.12-1.67.22-3.39-.9-4.86a.92.92,0,0,1-.17-.72c.49-1.28-.12-1.95-1.22-2.42a3.57,3.57,0,0,1-1.09-.7c-.33-.34-.85-1-.74-1.17a3.92,3.92,0,0,1,1.33-1.29c.21-.15.65,0,.88-.1a5,5,0,0,0,.85-.87c-.38-.14-.82-.49-1.12-.39a26.4,26.4,0,0,0-2.54,1.18c-1.19-2-.67-4.8-2.64-6.59l.16-.36a2.81,2.81,0,0,0,.17-.35c.62-2.39,1.62-3.83,4.6-4.14a17,17,0,0,1,7.72.66,3,3,0,0,0,3.25-.33c1.35-1.06,3-.78,4.57-.17,2,.78,3.17,2.38,4.45,4a5.22,5.22,0,0,1,1.39,3.86c-.11,1.25-.22,2.5-.45,3.72-.06.33-.55.6-.88.84a10.73,10.73,0,0,1-1.09.64,6.42,6.42,0,0,0,1.21,1.13,2,2,0,0,0,1.28.06c1.78-.36,2.88.62,4,1.79,2.12,2.16,4.35,4.21,6.57,6.27a4.82,4.82,0,0,0,1.39.56,11.33,11.33,0,0,1,2.24.92c1.41.94,2.25,1,3.62-.11.19-.15.39-.28.58-.41l.28.16-.87,2.17.79,1.21Zm59,23.68.34.06c.3-.59.6-1.18.91-1.77l-.27-.18-1.1.47c0-.41.21-.91,0-1.2a1.26,1.26,0,0,0-1.07-.39c-.52.09-.56.45-.15.86.12.12,0,.49,0,.83l1.26-.13ZM200.6,340l1-2.19c-.39.66-1.86-.2-1.72,1.22-1.79.31-2.27,1.1-1.63,2.83l1-.45-.82-.63c.15-.91,2.11-.28,1.41-1.8C200.11,339.27,200.34,339.61,200.6,340Zm3.15-39.46c-.43,1-1.7,1.73-2.81,2.77l1.58.55a3.67,3.67,0,0,1,.09-.73,6.13,6.13,0,0,1,.45-.72c.21.23.6.46.59.68,0,1.27-.13,2.53-.06,4a6.31,6.31,0,0,0,.73-1.17,2.18,2.18,0,0,1,1-1.4c.37-.21.4-1,.6-1.63-.19,0-.41-.07-.49,0a9.62,9.62,0,0,0-.69.86c-.17-.41-.35-.82-.5-1.24a9.14,9.14,0,0,1-.2-.92,3.5,3.5,0,0,0,1.59-4.32C204.5,298.13,204.25,299.32,203.75,300.5Zm70.71,50.83-.2,1-1.7-1c-.23,1.24.54,2.13,1.21,3,.13.17.82.13,1.08-.06,1.23-.89,2.39-1.87,3.85-3ZM180.55,324.2l.19.27,1.07-.51.14,1.73.4.12.63-1.9c.67-.32,1.13-2.43.64-4.45l-2.44,2-.63-.37c0,1.41.83,1.41,1.8,1.19l.14.34Zm76.79,34.21c.38,1.1,2,1.36,1.67,3-.2,1.14,1.21.77,1.94.81.36,0,.74-.38,1.11-.58l-.46-.55-.3.81-.3-.06c0-1.64-2.55-1.87-2.12-3.87.16-.76.36-1.85-.86-2.41.22,1.51-1.48,2.48-1.23,4l.45.07Zm-29.26,9.12c.38-.11.94-.38,1-.66a1.71,1.71,0,0,0-.45-1.24,11.35,11.35,0,0,0-1.63-1.19l-2.71.31c.66,1,3,1,1.92,3A12.37,12.37,0,0,0,228.08,367.53Zm48.7-29.09a5.5,5.5,0,0,1-.27-1.9l.46.22,2.26-.91-1.19-2.6-.46.14a11.4,11.4,0,0,0,.32,1.28c.24.71,0,1.16-.73,1.18-2,0-2,0-1.74,1.85.14.87.36,1.74.57,2.69C277.21,340,277.37,339.45,276.78,338.44Zm21.47-24.84c-.11,0-.29.12-.36.07-1.45-1.13-2.93-.16-4.4-.08,0,1.13.1,1.18,1,.9.29-.1.68.22,1,.21,1.29,0,2.57-.11,3.92-.18C299.45,313.72,299.39,313.05,298.25,313.6Zm-111.76,7.53c.46,1.18,1.06-.42,1.63-.13.11-.84.21-1.57.32-2.32-2,.25-2.8,1.56-3.18,3.19-.08.35.27.89.58,1.19.12.11.67-.23,1-.36l-.34-.35C184.76,322.28,186.7,321.3,186.49,321.13Zm12.22,1.06a3.71,3.71,0,0,1-.83,3.14,8.26,8.26,0,0,0-1.1,2.9c0,.1.29.45.38.43a.85.85,0,0,0,.52-.42,9.9,9.9,0,0,0,.32-1.51c.17-1,.6-.76.88-.48l1-5.28C199,320.94,198.55,321,198.71,322.19Zm12.46-19.9c.06,0-.15.46-.18.7a2.23,2.23,0,0,0,.74,2.43c.27.2.15.93.22,1.49.71.14,1.32-1.4.86-3.14l-.32,1.31c-.32-.65-1.46-1.15-.31-2,.18-.14.08-.83-.08-1.18a20.76,20.76,0,0,0-1.19-2.07C211.1,300.71,210,301.53,211.17,302.29Zm-18.08,31.86c1.43-1.69,1.51-2.4.39-3-.94,1.95-2.1,3.88-.73,6.09.2-.69.46-1.53.78-2.58Zm39.1,23.39c-.73.4-1.26,1.22-2.29.79-.09,0-.33.29-.5.45.18.19.36.53.53.53a7.45,7.45,0,0,0,1.41-.3l.63,1.36.25-.08v-1.63l1.25.39.62-1.83A7.26,7.26,0,0,0,232.19,357.54Zm-63.29-54c.15-.13.09-.51.13-.77-.25.06-.63,0-.73.19-.55.85-1,1.75-1.55,2.63-.14.25-.21.53-.37.77-.65.95-.48,1.3.83,1.56C167.6,306.35,167.59,304.72,168.9,303.57ZM186.75,325l.7.06c-.32-.26-.54-.52-.6-.48a4.17,4.17,0,0,0-1.53,1.05c-.28.43-.16,1.13-.21,1.79l.74-1.12.29,0c-.06.74-.11,1.48-.17,2.21l.78,0Zm13.19,6.66-.33-.09-.69,2.5.37.11c-1.17.92-1.2,1.34-.12,2.37C200.59,335.06,199.71,333.25,199.94,331.63Zm17.39-48.48-.9.59a14,14,0,0,0,.22,2c.09.36.44.94.66.93.67,0,.45-.42.38-1a13.35,13.35,0,0,1,.34-3Zm-2,6c.56.79,1,1.47.48,2.47-.16.29.08.78.14,1.18l.31-.08v-5.81C215.19,287.32,214.74,288.29,215.35,289.15ZM180.79,331.3l.29,0h.15v-4.23l-.24,0-.9,1.9.3,0-.39,3.58.46.12Zm51.5,30.47a2.51,2.51,0,0,0,2.56-2.56C232.71,358.88,233,360.72,232.29,361.77Zm-40.4-31.6c0-.19-.21-.42-.39-.56s-.34,0-.46.12a2,2,0,0,0,.66,3.21C191.77,332,191.87,331.08,191.89,330.17Zm48.81,23.15,0,.28h1.41l.23,2.31.46,0v-3.64ZM184,316.56a17.44,17.44,0,0,0,.05-3.15c0-.19-.47-.35-.82-.27l.85,2-.27.18-.82-.38v2.71C183.49,317.16,184,316.89,184,316.56Zm-6.29-29.08c-.49-.84-.82-1.45-1.2-2a.67.67,0,0,0-.54-.18c-.12,0-.32.27-.29.37a3,3,0,0,1-.54,2.87c-.07.08.11.38.24.76C176.18,288.49,175.78,286.73,177.75,287.48Zm32.62,4c-2.14,1.76-2.89,3.18-2.43,4.44ZM188.87,312l-.47-.08c.35,1.59-1.75,2.4-1.15,4.17l1.34-.93C188.7,313.88,188.79,312.93,188.87,312Zm.74,10.39-.43-.08c-.09.6-.14,1.2-.26,1.8-.14.75-.4,1.48-.48,2.24a7.89,7.89,0,0,0,.17,1.59l.52-.08Zm16.2-15.91.66.27.81-1.82,1,.12c-.68-.71-1.78-1.09-.49-2.24l-.71,0Zm-35.4,15.71.45.39c.79-1.06,2.42-1.37,2.62-2.95l-.41-.32Zm39.44,10.18-1.49-2.17c-.68.91-1.3,1.74-1.93,2.6.86.45.86.45,1.45-1.23Zm-19.07,3.19a8.17,8.17,0,0,0,.07-2.43l-.57-.12c-.35,1.16-.71,2.33-1.17,3.87C189.87,336.28,190.63,336,190.78,335.53Zm-12-8.79v-2.22c-1.26.77-1.26.77-1.23,2.66Zm34.14-33.62c.29-.26.1-1,.14-1.59a4.85,4.85,0,0,0-.65,0,1.77,1.77,0,0,1-1.48,1.57c-.12,0-.16.37-.24.56l.22.35A7,7,0,0,0,212.93,293.12ZM185.59,329.9a1.77,1.77,0,0,0,0-1.12c-2.19,2.91-2.19,2.91-1.46,3.69C184.68,331.57,185.18,330.75,185.59,329.9Zm5.69-14.85-.93-.19c-.32,1.3-.61,2.5-.9,3.69l.52.13Zm6.38-2.61-.62,1.92-.72-.35,1.09,1.86C198.32,315,198.2,313.92,197.66,312.44Zm8.63-2.06c.13.21.43.31.66.46.1-.28.34-.6.27-.84-.32-1.12-1.25-1.42-2.7-.59l1.75.43C206.27,309.89,206.18,310.2,206.29,310.38Zm-38.38-26c-.43-1.77-1.73-1.11-2.76-1.09C165.59,284.64,166.84,284.11,167.91,284.39ZM253.08,315l-1,.45.11.42,2.66-.68-.7.47L252.9,314l.08-.38ZM157,309.66c-.32-1-.37-2.11-.8-2.29-.93-.39-1,.6-1.29,1.24Zm14.15,17.28.43,1.44.29.11,1.06-3-.29-.12Zm2.19,2.89-1.12,2.3.29.21.9-1.11.93.85C175,330.84,174.06,330.46,173.37,329.83Zm18-21,.13,1.56c.72-.82.19-3-.68-3.08-.23,0-.53.65-.94,1.19ZM174.29,324l-.63-.78-.27.12c.22.72.43,1.44.65,2.15l.29,0,1-2.4-.52-.19Zm-15.45-15.13-.68-.56c-.5,1.2-1,2.42-1.5,3.64l.27.08Zm61.22-29.76c-.48.82-1,1.65-1.54,2.63C219.67,281.71,220.34,280.7,220.06,279.11ZM174.89,299.6a3,3,0,0,0-1,3.07l.44,0Zm38.7-4.73c-1.13,1.65-1.06,2,.48,2.8C213.92,296.78,213.76,295.88,213.59,294.87Zm-36.07,35.91c-1.49,0-1.79.46-1.49,2.46Zm13.21-8.88.52-3.25c-1,.39-1,.39-.51,1.72l-1.29.48Zm-17.91-13.58-.46-.15c.06.83-1.89,1-.27,2.58C172.39,309.76,172.61,309,172.82,308.32Zm13.14-5.5-1.37,2.84,1.62-.56Zm101.87-1.44a6.92,6.92,0,0,0,.88-.19l-.64-1.71-.7.19C287.52,300.24,287.64,300.82,287.83,301.38ZM185.74,331.09h-.37v4h.37Zm83.81,1.51c-.08-.54,0-1.1-.11-1.65-.11,1.13-1.17,2.32.61,3.25A11.39,11.39,0,0,1,269.55,332.6ZM204,334.36c.14.19.51.19.77.28A2,2,0,0,0,205,334a10,10,0,0,0-.23-1.19C203.93,333.05,203.27,333.41,204,334.36Zm-3.82-32c-.89,0-1.41,1.58-1,2.72Zm-5.84,23a4.08,4.08,0,0,0,.44.58l1.16-1-.51-.61A11.44,11.44,0,0,0,194.35,325.35Zm-24.11-24.88a2.72,2.72,0,0,0,.88-3.38Zm55-20.31,1.43-2.1C224.38,279.32,224.35,279.38,225.21,280.16Zm-62.27,6.39.41.15c.45-.83.91-1.66,1.36-2.5l-.64-.28ZM221.26,300l-1.74-1.38.25,2Zm-19.43,39.67c.84-.06,1.12-.95.42-2.85C202.11,337.74,202,338.71,201.83,339.63Zm-9.76-34.06-1.56-.41.14,1.69Zm-20.24-.4-.46-.12-.63,2.84.48.12C171.42,307.06,171.62,306.11,171.83,305.17Zm46.52-19.81,1.35-1-.62-2C218.8,283.51,218.61,284.29,218.35,285.36ZM259,349.54c.85-.7,1.3-1.41.2-2.47Zm-37.15-63.8a5.16,5.16,0,0,0-.93-.21c-.24.61-.39,1.25-.57,1.88l.38.09ZM276,349.88l.8-.75-1.26-.59-.35.47ZM175.2,333.65l-1.34-.72-.3,1.66Zm105.27,21.46-1.24,1.54C280.52,357,280.78,356.63,280.47,355.11Zm-73-56.69-.93,2.16C207.78,300.12,208.16,299.24,207.45,298.42Zm-31,37.09-.52,1.52h2Zm-17.3-51.64-.35-.84c-.12,0-.23,0-.27.06-.61.81,0,1.19.6,1.58l1-.84-.19-.3ZM250,348.62c.11-.15.46-.53.41-.58a12.38,12.38,0,0,0-1.22-1.18l-.2.3ZM228.31,278l-.6-.2-.73,2,.63.19Zm-19.55,18.57c1.78,0,2-.3,1.34-1.49Zm44.06,51.92-.8.2.48,1.41.62-.19Zm10.58,11.36c-.39.41-.79.65-.77.84a5.76,5.76,0,0,0,.5,1.32l.44-.2ZM200.21,304.8l0,.5h2.38v-.36Zm14.53-20.54-.21-.18c-.22.3-.57.59-.63.92a3.7,3.7,0,0,0,.16,1.26l.4-.09C214.56,285.53,214.65,284.89,214.74,284.26Z"/><path class="cls-1" d="M82.11,153.4c-.31-1-.6-2.07-2-2.21-.23,0-.53-.4-.63-.67a2.9,2.9,0,0,1,1.14-3.19c.24-.16.62-.27.7-.49.7-2,2-4,.34-6.07a2.2,2.2,0,0,1-.27-.73c-.44-1.62-1-3.22-1.27-4.86-.25-1.31-.89-2.75.29-3.93,1-1,2.12-1.76,3.09-2.72a12.3,12.3,0,0,0,1.58-2.12,23.71,23.71,0,0,1,2.59-4,21.53,21.53,0,0,1,4.44-3.07c1-.6,2.66.52,2.79,1.69,0,.35.23.93.42,1a13.89,13.89,0,0,0,2.88.11c1-.08,2.06-.38,3.09-.52a11.66,11.66,0,0,0,1.8-.12,3,3,0,0,1,2.58.29c1.72,1,5.72.4,7-1.1a22.21,22.21,0,0,0,2.42-3.89,7.86,7.86,0,0,0,1.32-3.21,7.51,7.51,0,0,1,2.31-5.42,2.43,2.43,0,0,0,.56-3.15c-.73-1.41-1.21-3-1.84-4.41-.9-2.07.19-3.87,2.39-4a4.15,4.15,0,0,0,1.26-.25c1.59-.55,3.18-1.1,4.75-1.71,2.1-.81,4.4-1.33,5.57-3.6a2,2,0,0,1,.57-.51c2.25-1.79,4.54-3.54,6.76-5.38a35.78,35.78,0,0,0,4.15-3.81,7.44,7.44,0,0,1,2.39-2c2.35-1.11,5-1.89,6.36-4.4.06-.1.21-.15.3-.25a17.55,17.55,0,0,0,1.82-2.23c.57-1,.82-2.09,1.41-3,1.51-2.4,3.11-4.74,4.72-7.08a2.92,2.92,0,0,1,1.22-1.07c2.31-.85,4.28-2.06,5.37-4.4a2.43,2.43,0,0,1,.76-.87c.88-.65,1.81-1.23,2.69-1.88.36-.26.65-.88,1-.88,2.09-.06,2.78-2.24,4.48-2.86a.73.73,0,0,0,.32-.53,9.23,9.23,0,0,1,1.13-4.17c.22-.34-.14-1.21-.44-1.72s-.81-1,.06-1.56c.71-.5.45-1.91-.26-2-1.48-.08-2.28-1-3.12-2.06-1.34-1.63-2.89-1.56-4,.14-.12.18-.21.38-.33.56-1,1.54-2,3.06-3.91,3.71a8.25,8.25,0,0,0-2.31,1.12c-2,1.58-3.79,1.61-5.81,0a1.06,1.06,0,0,0-.45-.25c-2.57-.54-5.13-1.25-7.73-1.53a7.47,7.47,0,0,0-3.95.9c-1,.52-1.39,2-2.77,2.16-.18,0-.38.47-.44.75a4.41,4.41,0,0,1-2.52,2.9c-.15-1.08-.73-2.3-.35-3a16,16,0,0,1,3.82-5.1c1.51-1.15,3.72-1.37,5.41-1.94a21,21,0,0,1,1.18-1.92,8.67,8.67,0,0,1,4.3-2.73c.89-.29,2.16-1.08,2.26-1.79a4.57,4.57,0,0,1,1.61-2.93,3.71,3.71,0,0,0,.94-1.69c.32-1.13.37-2.35.76-3.45.57-1.61,1.38-3.13,2-4.73a26.18,26.18,0,0,0,.92-3.05c.17-.66.25-1.34.38-2s.23-1.17.34-1.73h1l.43-2.67.93.58c1.05-1.2,1.08-2,0-3.66.52,0,1-.07,1.41-.15s.79-.17.83-.35a1.81,1.81,0,0,1,2.06-1.39,14,14,0,0,1,3.61.2A7.55,7.55,0,0,1,176.23,7a11.2,11.2,0,0,0,4.91,2.87,36.07,36.07,0,0,1,9.34,3.68,15.7,15.7,0,0,0,6.43,1.8c4.22.15,7.85,1.81,11.5,3.54a41.25,41.25,0,0,0,6.82,2.76,39.28,39.28,0,0,1,6.08,2.46,42.87,42.87,0,0,1,3.94,2.14,10.7,10.7,0,0,1,2.21,1.52,3.14,3.14,0,0,0,2.87,1.19,19.31,19.31,0,0,1,6.74,0,33.7,33.7,0,0,0,5.32,0,6,6,0,0,1,4.85,1.84c.86,1,2.43,1.35,3.17,2.36a34.26,34.26,0,0,0,7,6.87,1.25,1.25,0,0,1,.45,1,1.55,1.55,0,0,0,.7,1.78,1.33,1.33,0,0,1,.07,2.23,4.71,4.71,0,0,1-2.48,1c-2.13.11-4.23-.21-6.37.49a6.44,6.44,0,0,1-4.25-.08c-2.73-1.2-5.12-.41-7.54.61-1.53.65-2.93,1.65-4.48,2.23-1,.38-1.92,1.56-3.47.66l5.76-3a4.34,4.34,0,0,0-3.94-.37,16.48,16.48,0,0,1-2.78.55c-1.23.1-2.71-.37-3.68.15a17.08,17.08,0,0,0-4.68,3.74c-.93,1-1.67,2-3.15,2.19-1.28.14-2.56.31-3.83.56-1.8.34-3.57.94-5.39,1.12a58.17,58.17,0,0,1-7,.18c-3.56-.08-6.5,1.38-9.23,3.45a.88.88,0,0,0-.27.58c-.11,1.06-.18,2.14-.28,3.2,0,.32-.06.78-.26.9-1.42.83-2.73,2-4.63,1.34a3.31,3.31,0,0,0-3.2.35,3,3,0,0,1-2.14.43,14.21,14.21,0,0,1-2.77-1.15,43.27,43.27,0,0,0-4.93,4.69c-1.36,1.76-2.4,3.7-4.29,5.07s-3.3,3-5,4.36A13.73,13.73,0,0,1,161.45,80a9.22,9.22,0,0,1-2.43.79c-2.08.3-4.41-.39-6.07,1.72.48,1,.1,1.8-.92,2.48-.28.18-.35,1-.23,1.39.42,1.48.73,2.85-.11,4.36a3.88,3.88,0,0,0-.06,2.46,11.61,11.61,0,0,0,1,2.75c.23.48.6,1.11,1,1.22,1.07.28,2,.56,2.07,1.66a10.78,10.78,0,0,1,2.74,0c2.8.81,5.33-.25,7.75-1.24a16.94,16.94,0,0,1,6.09-1.21,21,21,0,0,1,5.58.89c.73.19,1.77.92,1.85,1.51a9.16,9.16,0,0,1-.2,4.55,15.32,15.32,0,0,1-3.29,5.31,3.88,3.88,0,0,0-1,4.4,1.78,1.78,0,0,1-.56,1.63,10.9,10.9,0,0,1-3.52,1.17,39,39,0,0,1-5.3,0c-.33,0-.66-.35-1.14-.63l4.41-2a1.41,1.41,0,0,0-1.86-.94c-1.73.54-3.43,1.19-5.14,1.79a16.25,16.25,0,0,1-2.33.76A4.26,4.26,0,0,0,157,117c-.62.93-1.21,1.88-1.78,2.85-.37.63-.66,1.3-1,1.94a3.29,3.29,0,0,1-.69,1.07c-1.58,1.24-3.2,2.42-4.83,3.64-.7-.81-1.48-1.61-2-.45a5,5,0,0,1-2.34,2.06,6.18,6.18,0,0,0-1,.78c-.67.66-1.3,1.36-2,2s-1.94,1.15-2.27,2c-1.07,2.67-3.58,3.88-5.36,5.81,0,0-.17,0-.32,0l-.7-3L131,137.16a4.42,4.42,0,0,0-4.3-1.39c-2.28.24-4.57.26-6.85.48a13.38,13.38,0,0,0-3,.67c-.81.26-1.53.78-2.33,1.06-2.91,1-6,1.29-8.25,4a59.65,59.65,0,0,1-6.6,6.3c-1.34,1.22-2.32,2.87-4.11,3.56a31.51,31.51,0,0,0-3.47,1.34,22.82,22.82,0,0,1-9.33,2.94C82.58,155.21,82.37,154.3,82.11,153.4ZM151,38.58c-.64.54-1.24,1-1.76,1.53-.12.12,0,.52.05.78a1.78,1.78,0,0,0,.67-.14c.56-.38,1.08-.81,1.62-1.22.27.15.73.49.77.44a11.37,11.37,0,0,0,.92-1.24l-.21-.25,2.59-.69,1.9-3.34-.43-.33a5.74,5.74,0,0,0-1,.69,4.71,4.71,0,0,1-2.56,1.76c-.54.11-.92,1.11-1.34,1.73a13.42,13.42,0,0,0-.65,1.25Zm1.55,39.91c-1.41,1.38-2.66,2.93-5.25,3,.45.82.81,1.46,1.36,2.48l.73-2.31.41,0,.24,1.85.43.09a17,17,0,0,1,.59-2,19.53,19.53,0,0,1,1-1.86L153.12,81l.61-1.46c.45-.25,1.23-.43,1.29-.75.14-.76.88-1.68-.32-2.49l-.93,3.27C153.34,79.19,152.92,78.84,152.5,78.49Zm17.1-67.6a4.38,4.38,0,0,0-1.09.72l.19.33,1.07-.2.12.21-.81.33c.54.42.86.86,1.13.83a6.35,6.35,0,0,0,1.56-.6A8.27,8.27,0,0,1,172,13.9a10.1,10.1,0,0,1-.17,1.52H170c.79.84,2.66.8,1.83,2.47l1.69-3.18c1,1.7.47,3.28-.55,4.85,1.75-.82,1.38-2.37,1.68-3.81l1.05-.22.15,1.13a.91.91,0,0,0,1.41-.83c.14-1.35.85-1.88,2.51-1.83-1.45-1.15-2.64-2.11-3.85-3.06a.48.48,0,0,0-.36-.09l-4,1.31C171.15,11.34,170.67,10.58,169.6,10.89ZM159.41,33c0-1-.13-2,1.17-2.31L160,29.57c-2.34,3.31-2.51,3.88-1.21,5.55A10.84,10.84,0,0,0,159.41,33ZM141.09,89l.45.22,2-3.62-.65-.33C142.31,86.47,141.7,87.72,141.09,89Zm21.43-24.19c1.11,1.68,1.67-.78,2.62-.34C164.23,63.7,164.23,63.7,162.52,64.77Zm5.37,43c-1.58-.35-2.32-.19-1.92,1.59ZM144.8,84.15c-.07.08.14.43.22.65.2-.09.48-.12.59-.28.37-.51.67-1.07,1-1.61l-.22-.26C145.85,83.14,145.3,83.62,144.8,84.15Zm16.46-17c0,.75-.34,1.7.54,2l.14-3.27C161.69,66.28,161.29,66.68,161.26,67.11ZM140.83,92.47l-.26,2.44,1.49-2.16ZM168.66,110l.72-2C168.24,107.68,168.24,107.68,168.66,110ZM138.28,90.64c0-.25-.27-.46-.41-.69-.18.19-.53.43-.49.56a18.12,18.12,0,0,0,.74,1.84l.18-.21A12.49,12.49,0,0,0,138.28,90.64ZM229.47,37l-.86-2C227.57,35.9,227.57,35.9,229.47,37Z"/><path class="cls-1" d="M81.32,261c-.09.69-.15,1.39-.27,2.08-.29,1.72-.62,3.42-.87,5.14,0,.24.28.53.43.8.28-.16.64-.25.8-.49a7.87,7.87,0,0,0,.84-1.6c.82-2.08,1.59-4.18,2.42-6.26.6-1.51,1.31-3,1.85-4.52.4-1.13.51-2.36.88-3.5.71-2.24,1.51-4.45,2.28-6.67.25-.69.49-1.39.79-2.06.84-1.91,1.92-3.73,1.92-5.93a2.26,2.26,0,0,1,.6-1.64c1.54-1.28,3-2.73,5.32-2.53.94.08,1.19.41.74,1.22a15.17,15.17,0,0,0-1.32,2.21c-.61,1.78-1.12,3.61-1.57,5.45-.21.87,0,1.9-.29,2.68-1.33,3-1.26,6.51-3.22,9.31a2,2,0,0,0-.14.88c-.22,2.14-.16,4.37-1.45,6.25a5.66,5.66,0,0,0-.87,3.43,2.5,2.5,0,0,1-1,1.85,6.07,6.07,0,0,0-2.65,2.56,1.6,1.6,0,0,1-2.08.88,2.64,2.64,0,0,0-3.18.81A15.64,15.64,0,0,1,79,273.55a2.19,2.19,0,0,1-1.65.39,10.38,10.38,0,0,1-2.18-1.1l-.37.18c0-2.28-.07-4.57,0-6.84a4,4,0,0,1,.78-2.47c.88-.89.56-1.49,0-2.25a3.27,3.27,0,0,1-.41-3.3,10.7,10.7,0,0,0,.67-2c.29-1.52.4-3.08.75-4.59.43-1.85.69-3.78,1.77-5.42a.76.76,0,0,0,.1-.51c-.18-1.07-.39-2.14-.6-3.21a2.43,2.43,0,0,1,2.47-2.92c.7,0,1.14.26,1,1-.31,1.21-.71,2.39-1,3.6a22.07,22.07,0,0,0-.64,3c-.2,1.65-.25,3.33-.46,5a5.22,5.22,0,0,0,.37,3.64,2.17,2.17,0,0,1,.09,1.57c-.85,2.69-1.81,5.35-2.67,8a4.94,4.94,0,0,0,0,1.44l.34.08c.44-1,.84-2.07,1.34-3.07a15.86,15.86,0,0,1,1.28-1.77,1.3,1.3,0,0,1-.19-.78c.08-.43.49-.79.61-1.22.53-1.77,1-3.56,1.5-5.34.81-2.86,1.71-5.7,2.41-8.59.51-2.14.76-4.34,1.16-6.5.2-1.1,1.16-1.84,2-1.47,1,.45.45,1.29.23,2-.85,2.67-1.77,5.32-2.57,8-1,3.43-1.93,6.9-2.94,10.33a18.37,18.37,0,0,1-1,2.42Zm7.57-1.78a1,1,0,0,1-.84,1.27c-.28,0-.47,1-.64,1.37l-1.76.54-.23-.13L86.61,261c-1.35-.42-1.4-.34-2.5,4.2.88-.95,1.72-1.86,2.67-2.87.49,2.07-1.61,2.24-2.17,3.53l.71.82a15.56,15.56,0,0,0,2.43-2,9,9,0,0,0,1.06-2.37l-.7-.82,1.12-.3c.2-1,.42-2.21.65-3.4C89.24,258.09,88.31,258.14,88.89,259.18Zm.35-6.43c-.18.22-.11.63-.15,1a9.09,9.09,0,0,0,.87-.47c.09-.05.08-.24.35-.22l.21.81h.32l.3-2.46-.3-.27A22.49,22.49,0,0,0,89.24,252.75Zm1.39,2.5.13-.37c-.34-.15-.93-.49-1-.42a10,10,0,0,0-1.47,2.61c1.6.16,1-1,1.28-1.82Zm3.45-15.69-.91,1.82-.7-1.22-.09,1.56C94.3,241.53,94.75,241,94.08,239.56ZM77.79,268.41l-.25-.25c-.86.59-2,.92-2.16,2.21l.33.31ZM79,266.76c.18-.5.39-1,.62-1.55L79,265l-.85,2.88.5.16C78.8,267.6,78.89,267.17,79,266.76Z"/><path class="cls-1" d="M112.89,229.56a30.14,30.14,0,0,0-3,.48c-.27.08-.53.57-.6.91a39.35,39.35,0,0,0-.82,4.67c-.16,2-1.83,3.34-2,5.28s-1.28,3.5-2,5.23q-1.11,2.82-2.25,5.63c-.3.73-.68,1.42-1,2.15a17.65,17.65,0,0,0-.92,2.58,9.77,9.77,0,0,1-1.71,3.71l-.47-.16c.23-.86.51-1.71.68-2.58.33-1.7.57-3.43.91-5.13a41.12,41.12,0,0,1,1-4.09c.93-3,2-5.88,2.94-8.82.76-2.27,1.49-4.55,2.33-6.79.45-1.22.21-1.7-1.09-1.68a3.61,3.61,0,0,0-3.22,3.55,14.55,14.55,0,0,1-1,3.52,3,3,0,0,0-.24,1c.12,2-1.07,3.77-1.34,5.69-.29,2.08-1.56,3.77-1.87,5.89-.35,2.41-1.47,4.72-2.31,7-.91,2.51-1.92,5-2.81,7.5a1.4,1.4,0,0,0,.32,1.22,1.14,1.14,0,0,0,1.13,0,5.68,5.68,0,0,0,1.34-1.78c.47-1.08.88-1.83,2.31-2,1.18-.15,2.24-1.15,3.38-1.72a9,9,0,0,1,2.31-.94,1.82,1.82,0,0,0,1.77-1.74,38.75,38.75,0,0,1,2.48-9.54c.22-.64.71-1.18.94-1.82a26.9,26.9,0,0,0,1-3.32c.73-3.19,1.35-6.41,2.14-9.58A38.83,38.83,0,0,1,112.89,229.56Z"/><path class="cls-1" d="M116.7,242.13a4.35,4.35,0,0,1-.81.57c-.43.28-.87.54-1.3.81l.21.35c.67,0,1.21-1.55,1.93-.12,1.69-3.16,1.17-2.48.65-4.21L119,239c-.48-1.16.43-2,.87-3H118.8c1.43-1.27,2.24-2.58,1.86-4.32l1.27-.13c-1.52-1-1.84.41-2.83,1l.57-1.66c-1.62.09-.79,1.42-1.23,2.06h-1l.2-1.21-1.07.35c0-1-.05-1.87,0-2.77a1,1,0,0,1,.57-.72c1.82-.29,3.66-.54,5.51-.73a3.34,3.34,0,0,1,1.16.35,7.78,7.78,0,0,1-.36,1.06,16.06,16.06,0,0,0-1.42,3.15c-.47,2.31-.51,4.71-1.68,6.87a7.59,7.59,0,0,0-.43,1.88c-.47,1.87-.51,4-1.51,5.56-1.82,2.81-2.59,6-4,8.94-.32.68-.66,1.73-1.17,1.85a35.75,35.75,0,0,1-4.82.5,6.16,6.16,0,0,1,0-1.18c.5-2.17.94-4.36,1.57-6.5.92-3.11,1.95-6.18,3-9.25.4-1.21,1-2.35,1.39-3.56a33.94,33.94,0,0,0,.69-3.64c.68.6,1,.94,1.44,1.27.17.14.38.26.57.39a7.18,7.18,0,0,0,.39-.72c.18-.44.32-.89.58-1.62.58,1.42.53,2.36-.21,3.29l-1.33-.57.38,3.27-.39,0-.17-1.44-.62.13c0,.75.09,1.42.15,2.32C116.24,240.7,118.07,240.67,116.7,242.13Zm-4.24,5.22c1.25-1.78,1.64-3.32,1-3.68L112,246.26Zm2.5.28-1.23-1.32-.84,2.69Z"/><path class="cls-1" d="M123.05,167.57a10.65,10.65,0,0,0,2.24-1.77,12.75,12.75,0,0,1,5.06-3.64c.83-.39.93-.86.77-1.75-.3-1.64-.25-3.35-.57-5a16.87,16.87,0,0,1,.45-7.28,3.19,3.19,0,0,0-.2-1.14c-.33.26-.82.45-1,.79a39.65,39.65,0,0,1-5,7.6c-1.69,2.2-3.45,4.35-5,6.61a17.18,17.18,0,0,0-1.72,3.46c-.28.67-.18,1.24.8,1.35C120.13,167,121.39,167.26,123.05,167.57Z"/><path class="cls-1" d="M133.24,235.12a6.88,6.88,0,0,0,.11-1.29c.06-.78.38-1.35,1.25-1.36,1,0,3.06,1,3.11,1.46a1.55,1.55,0,0,1-.07.52c-.32,1.25-.6,2.51-1,3.74-1.13,3.71-2.33,7.41-3.44,11.13-.68,2.28-1.21,4.61-1.93,6.87-.19.59-.87,1.46-1.31,1.45a52,52,0,0,1-5.52-.61,6.65,6.65,0,0,1,.72-1.9c1.29-1.64,1.39-3.88,2.84-5.42.1-.09.07-.32.07-.48a4.25,4.25,0,0,1,0-1.33c.64-1.69,1.41-3.34,2-5a1.7,1.7,0,0,1,2.14-1.3l-.87,1.41.35.28c.48-.38,1.4-.81,1.36-1.12-.2-1.43,1-2.2,1.31-3.34a4.23,4.23,0,0,0-.05-.82c-1.07,1.17-1.92,2.12-2.77,3.06l-.32-.24,1.14-3.57.23.05.09,1.14.29.12c.2-.4.55-.8.54-1.2s-.41-.66-.8-1.23A5.53,5.53,0,0,0,133.24,235.12ZM134,238c.93-.59,1.18-1.46.88-2.91C132.93,235.69,134.23,237,134,238Zm-4.16,11.31c-1.23.53-.57,2-1.26,2.79A2.31,2.31,0,0,0,129.8,249.29Zm1.39-2.6-.16-.11-1.81,1.35.66.95Z"/><path class="cls-1" d="M140.75,156.52c.21-.87.93-1.83.73-2.55-.43-1.57.27-2.32,1.7-3.06L142,150.3l-.58,1.11a2.85,2.85,0,0,1-.06-1.15,12.35,12.35,0,0,0,0-1.61c-.15-1.54-.36-3.07-.49-4.6-.2-2.38-.21-4.79-.57-7.14-.25-1.64-.08-2.48,1.36-3.36a10.89,10.89,0,0,0,1.6-1.29c1-.83,1.9-1.69,2.87-2.56.17.28.24.35.25.42.32,4.57-1.53,9-1.12,13.55a.74.74,0,0,1,0,.25c-.6,2.75-.72,5.4.72,8,1,1.8.69,2.83-.94,4-1.24.89-2.24,2.35-4.2,2.11A7.27,7.27,0,0,1,140.75,156.52Zm1.48-8.16.46,0,.39-4.23-.64-.13C141.36,145.38,142.45,146.93,142.23,148.36Z"/><path class="cls-1" d="M154.43,132c0,3.07-.43,6.17-.09,9.2a7.3,7.3,0,0,1-1.42,5.56,43.3,43.3,0,0,1-4.69,4.58,12.19,12.19,0,0,1,.09-1.43,16.08,16.08,0,0,0,.43-2.22q.08-7.39.05-14.79c0-2.4.09-4.65,2.77-5.84a14.82,14.82,0,0,0,2.86-2.16C154.43,127.38,154.46,129.7,154.43,132Zm-2.71,4.23c-.55.75-1.15,1.2-1.26,1.75a19.31,19.31,0,0,0-.51,6.22c1.7-1.11,1.55-2.73,1.66-4.25l-.72,2.65-.53-.11Zm.15-1.91,1.76-2.22H151l-.54.85h1.44Zm0,9.26c-.37.25-.43.93-.72,1.63,1.56-.74,2.1-1.85,1.65-3.07-.08-.21-.51-.3-.78-.44l-.25.38C152.3,142.57,152.76,143,151.89,143.59Z"/><path class="cls-1" d="M118.07,256.81c1.14.45,2.19.94,3.28,1.29s1.79-.08,1.89-1.33c.31-3.72,1.5-7.22,2.53-10.76,1.16-4,2.21-8.07,3.34-12.09.2-.71.56-1.36.8-2.06.4-1.15.07-1.74-1.25-2-1-.23-1.4.62-1.33,1.31.21,2.07-1.6,3.48-1.65,5.39,0,1.43-1.08,2.31-1.51,3.51-.66,1.9-1.39,3.78-2.12,5.66-.79,2-1.67,4-2.41,6.08C119.06,253.39,118.62,255.05,118.07,256.81Z"/><path class="cls-1" d="M61.55,257a16.27,16.27,0,0,0,.25,2.42,8.14,8.14,0,0,1,.36,4.75,42.15,42.15,0,0,0-.77,5.89c-.11.72.14,1.6-1.09,1.9-.65.16-.62,1,.06,1.72l.61-1.12h.45l.13,2.66a10.79,10.79,0,0,0-2,.28c-.05,1.35-1.23,1.28-2,1.71-.91.51-1.18,0-1.24-.8s0-1.38-.1-2.07c-.18-2.44-.38-4.89-.57-7.39l1.76-.17c-.42-.42-.63-.68-.88-.88s-.5-.19-.65-.37c-.73-.84-.14-2.14-1-3-.07-.06,0-.43.16-.59a13.84,13.84,0,0,1,1.56-2.05c1.47-1.42,3-2.75,4.7-4.25C61.39,256.05,61.5,256.49,61.55,257ZM59,270.55a5.73,5.73,0,0,0,0-.78L57,270l.07.73C57.74,270.68,58.39,270.64,59,270.55ZM57.85,272l-.48-.13c-1,.53-.5,1.53-.56,2.35l.33.06Z"/><path class="cls-1" d="M140.43,258.71l2.63,1a2.8,2.8,0,0,0,3.09-1.61c.59-1.59.95-3.27,1.5-4.89,1.1-3.21.85-6.77,2.57-9.83a1.53,1.53,0,0,0-.92-2.29c-.55-.24-1.13-.4-1.68-.63a.9.9,0,0,0-1.38.83c-.13,2.7-1.65,4.87-2.59,7.26-1.08,2.76-2.24,5.49-3.31,8.25-.12.3.15.72.18,1.09A4.17,4.17,0,0,1,140.43,258.71Z"/><path class="cls-1" d="M138.36,247.52a10.18,10.18,0,0,0-1.15,1.89c-.74,2.35-1.37,4.73-2.06,7.08-.17.6-.43,1.18-.62,1.7,1.38.16,2.64.3,3.89.46,1,.13,1-.66,1.22-1.31.28-1,.65-1.93.85-2.92s.12-1.77.23-2.65c.14-1.09.31-2.17.54-3.24a15.44,15.44,0,0,1,.88-3.25,17.12,17.12,0,0,0,1.24-5.87c.06-.93.77-1.91-.12-2.72a8.65,8.65,0,0,0-1.92-1.05c-.19.53-.4,1-.57,1.57-.64,2.11-1.27,4.21-1.89,6.32a24.34,24.34,0,0,0-.74,2.88A2.68,2.68,0,0,0,138.36,247.52Z"/><path class="cls-1" d="M159.37,136.46l-1.52.46,1.5,1c-.18-1,1.53-1.68.09-2.69l.45-.78.73.87.69-1.58,1.31-.41a8.68,8.68,0,0,1-1,2.59,26.86,26.86,0,0,0-3.88,5.12c-.14.26-.47.41-.71.61l-.31-.14c.15-.87.29-1.74.44-2.6,0-.16.15-.32.13-.47-.12-1.21-.34-2.41-.4-3.61-.2-3.78-.35-7.56-.51-11.34a.7.7,0,0,1,.12-.47c1.4-1.67,2.8-3.36,4.26-5a1.26,1.26,0,0,1,1.14-.2c.22.07.39.64.37,1-.21,3.32-.46,6.64-.7,10a9.28,9.28,0,0,0-.1,2.67c.34,1.38.21,1.8-1.28,2.2-.15-2.53-.15-2.53-.85-2.8-.31.78-.61,1.55-.91,2.32l.28.13.59-.84.32.11a10,10,0,0,0-.4,1.59,3.41,3.41,0,0,0,.25,1Zm.21-10.87V128C160.56,126.93,160.6,125.85,159.58,125.59Z"/><path class="cls-1" d="M138,137.6c-1.29,1.31-2.65,2.56-3.82,4-.31.36-.09,1.2,0,1.82.22,3.1.48,6.19.69,9.29a15.87,15.87,0,0,1-1.09,8,1.14,1.14,0,0,0,.19,1.06,1.2,1.2,0,0,0,1.06,0,9.15,9.15,0,0,0,2.42-1.45c.43-.44.8-1.55.55-1.91a5.14,5.14,0,0,1-.54-3.29c.12-5.1.47-10.19.75-15.28,0-.7.08-1.39.12-2.09Z"/><path class="cls-1" d="M169.68,117.49a1.25,1.25,0,0,1,1.07-.09.93.93,0,0,1,.51.73c-.16,1.53-.51,3.05-.58,4.58a20,20,0,0,0,.19,5.48c.58,2.44-.06,4.27-2.4,4.94a25.57,25.57,0,0,1-2.74.46,13.93,13.93,0,0,0,.2-3.06,20.67,20.67,0,0,1,.41-8.75c0-.14-.08-.32-.12-.48-.27-.92-.53-1.84-.83-2.9C167.14,118.21,168.57,118.68,169.68,117.49Zm-1.19,1.79-.4-.06c-.22,1.8-.45,3.59-.68,5.39C168.38,122.91,169.16,121.18,168.49,119.28Zm-1.07,12.61.46.1c1-1,.45-2.3.73-3.44l-.33-.06C168,129.62,167.71,130.76,167.42,131.89Z"/><path class="cls-1" d="M67.67,250.37c-2.16.66-3,1.84-2.94,3.69.2,5.53.36,11.06.55,16.59a17.4,17.4,0,0,0,.27,2.7,5,5,0,0,0,.62,1.24c.37-.41,1-.8,1.06-1.24a35.93,35.93,0,0,0,.08-4.28c0-1.59-.19-3.19-.14-4.78.12-4.18.33-8.36.5-12.54C67.69,251.33,67.67,250.92,67.67,250.37Z"/><path class="cls-1" d="M40.61,290.42c.45-1.1,0-2.05-.14-3.11a5.24,5.24,0,0,1,.33-2.82c1-2.51,2.21-4.95,3.34-7.41.36-.79.75-1.56,1.14-2.34l.42.08a5.2,5.2,0,0,1,.15,1.16,14.74,14.74,0,0,0-.47,3.24c.16,1.52-.57,3.25,1,4.56a1.31,1.31,0,0,1-.7,2c-1.25.57-2.44,1.29-2.67,3a8,8,0,0,1-1.16,2.72c-.19.37-.68.57-1.31,1.07A6.81,6.81,0,0,1,40.61,290.42Zm2.68-7.52,1.06-.64-.74-.74a3.69,3.69,0,0,0-.71.84,10.89,10.89,0,0,0-.37,1.62l.5.1Z"/><path class="cls-1" d="M51.49,266.75C48.65,268,49,270.25,49,272.38q.07,3.56.2,7.11a2.47,2.47,0,0,0,.15,1.14c.25.43.77,1.09,1,1,.66-.16,1.67-.2,1.55-1.34-.06-.55-.17-1.1-.28-1.65-.47-2.21-1.11-4.41-1.36-6.65-.13-1.08.46-2.24.72-3.37Z"/><path class="cls-1" d="M73.62,255.33l-.33,1.3c-.46,1.66-.93,3.32-1.39,5a.81.81,0,0,1-.19.34c-1.77,1.47-1.83,3.24-1,5.22.12.29-.19.74-.2,1.11a45.85,45.85,0,0,0,.17,5.23c2-1.34,1-3.57,1.83-5.27l-.68-.13c.35-1,.69-1.89,1-2.82,0,0-.68-.25-1.16-.43-.09.6-.16,1-.23,1.44-1-1.14-.59-2.35.9-3.7S75,257.71,73.62,255.33Z"/><path class="cls-1" d="M38,293.94c-.17,1.2-.37,2.39-.5,3.6a12.88,12.88,0,0,0-.14,2.7,6.64,6.64,0,0,0,.77,1.79c.37-.38,1-.7,1.07-1.14a16.41,16.41,0,0,0,.73-4.51c0-.87-1-1.69-1.49-2.54Z"/><path class="cls-1" d="M210.76,107l2.88.26-1.1,1.2c1-.17,1.8-.26,2.57-.43.25-.06.69-.43.66-.5-.34-.8.35-.7.71-1s.71-.63.68-.92a1.22,1.22,0,0,0-.84-.76c-2.15-.47-3.9.49-5.59,1.56Z"/><path class="cls-1" d="M143.75,329.6c.34.22.67.43,1,.66s1.07.54,1.19.93a1.42,1.42,0,0,0,2,1,5.47,5.47,0,0,0,2-1.37,1.8,1.8,0,0,0,.46-1.39c-.06-.28-.74-.54-1.16-.6a2.43,2.43,0,0,0-1.25.28,3.65,3.65,0,0,1-3.58,0c-.11-.06-.31.05-.48.08Z"/><path class="cls-1" d="M19.52,276.1c-1.33,2.45-1.09,4.93-.92,7.55C20.78,282.21,21.25,277.76,19.52,276.1Z"/><path class="cls-1" d="M70.45,252.57a16.56,16.56,0,0,0,1.42-6.07c0-.16-.89-.46-.92-.41a6.55,6.55,0,0,0-1.28,2.35,15,15,0,0,0,.25,3.45C69.93,252,70.11,252.14,70.45,252.57Z"/><path class="cls-1" d="M126.63,79.9a30.44,30.44,0,0,0-5.4,7c2.1-.27,2.88-1.08,3.41-2.74a14,14,0,0,1,1.53-2.66c.26-.43.56-.84.84-1.26Z"/><path class="cls-1" d="M183.19,111.6c.07-1.27.17-2.36.17-3.45,0-.32-.3-.64-.46-1a3,3,0,0,0-.82.52,8.73,8.73,0,0,0-1.07,1.75c-.2.46-.42,1.24-.21,1.46a4.15,4.15,0,0,0,1.72.76A1.46,1.46,0,0,0,183.19,111.6Z"/><path class="cls-1" d="M294.9,257.72l2.13,7,.5-.14c-.47-2.4-.77-4.86-2.19-7Z"/><path class="cls-1" d="M152,45.39c.89,1.69,1.54,1.78,3.37.49C154.86,45,153.24,44.74,152,45.39Z"/><path class="cls-1" d="M44.17,333.83h4.34C47.08,333.38,45.72,332,44.17,333.83Z"/><path class="cls-1" d="M78,139l-.29-2.63-.66-.08c-.2.53-.62,1.09-.54,1.58s.62.91,1,1.36Z"/><path class="cls-1" d="M2.06,319.44c-.31-.67-.62-1.34-.92-2l-.48.07-.31,3,.32.11,1.42-1.23Z"/><path class="cls-1" d="M221.4,0c0,1.79,1,2,1.95,2.1.12,0,.42-.72.4-.73C223.07.93,222.36.54,221.4,0Z"/><path class="cls-1" d="M57.36,192.45c.92-.22,1.91-.16,1.93-1.38,0-.18-.51-.57-.67-.52C57.81,190.81,56.89,191.09,57.36,192.45Z"/><path class="cls-1" d="M218.42,108.27l-3.23.85c1.45,1.31,2.31,0,3.39-.27Z"/><path class="cls-1" d="M57.78,289c.21-.19.57-.36.61-.58a7.31,7.31,0,0,0,0-1.75c0-.08-.42-.13-.65-.2-.11.46-.26.91-.34,1.38a7.47,7.47,0,0,0,0,1.06Z"/><path class="cls-1" d="M263.62,45.26l.38-1.17-1.81-1C262.07,43.78,262.07,43.78,263.62,45.26Z"/><path class="cls-1" d="M42.28,189.3l2.49-2.7C44.1,186.34,42.67,187.59,42.28,189.3Z"/><path class="cls-1" d="M247.94,139.26l-1.36-1.87-.49.19a6.74,6.74,0,0,0,.45,1.78c.14.25.78.22,1.19.32Z"/><path class="cls-1" d="M3.19,317.38l.44-2.67-.57-.1-.48,2.66Z"/><path class="cls-1" d="M236.62,140.68a10.19,10.19,0,0,0,1.28,1c.06,0,.58-.54.55-.58a4.79,4.79,0,0,0-1-1C237.4,140.08,237.07,140.38,236.62,140.68Z"/><path class="cls-1" d="M83.52,122l-1.94,3.2.26.16,2-3.13Z"/><path class="cls-1" d="M175.26,145.63c-2,.71-4.08,1.44-6.13,2.12a3.53,3.53,0,0,1-1.51.18,13.35,13.35,0,0,1-5.39-1.62,20.06,20.06,0,0,1-1.89,1.23,2.66,2.66,0,0,0-1.72,2.31c-.24,2.22-.84,4.39-1.22,6.6a22.07,22.07,0,0,0-.13,2.58l.48.07c.3-1.21.63-2.4.9-3.62a14.33,14.33,0,0,1,3.17-6.72c.08-.1.18-.27.27-.27,1,.06,1.93.17,2.9.22a1.91,1.91,0,0,1,1.93,1.53c1.55,0,3,0,4.5,0,.24,0,.57.37.69.65a4.81,4.81,0,0,1,.18,3.9,30.47,30.47,0,0,1-1.31,3.24,26.74,26.74,0,0,1-2.06,2.73,19.17,19.17,0,0,0-1.56,2.17c-1.09,1.95-2.18,3.89-3.12,5.91a6,6,0,0,0-.63,3c.32,3-1,5.28-2.56,7.71-1.71,2.65-2.77,5.73-4.14,8.61a7.78,7.78,0,0,1-1.19,1.93c-.87,1-1.66,1.79-1.27,3.39a2.91,2.91,0,0,1-3.39,3.37l-1.9-.19a3.12,3.12,0,0,0,2.46,2.92c1.09.13,2.28.11,2.89-1.18a1.62,1.62,0,0,1,.68-.58c2-1,1.82-2.94,2.13-4.75a10.76,10.76,0,0,1,1.61-3.83,5.06,5.06,0,0,0,1-2.55,6.19,6.19,0,0,1,.88-2.31c.72-1.41,1.46-2.82,2.29-4.17,1-1.58,2.09-3.07,3.09-4.64a2,2,0,0,0,.25-1.31c-.53-2.61-.52-5.14,1.15-7.36.82-1.09,2.14-1.88,2.73-3.06a89.65,89.65,0,0,0,4.22-9.77c.42-1.18-.14-2.68-.12-4a10.89,10.89,0,0,1,.45-2.65,6.39,6.39,0,0,1,.73-1.36Z"/><path class="cls-1" d="M192.27,189c.15.81.69,1.07,1.56.84s1.4-.5,1.24-1.45c-.08-.5-.25-1-.37-1.48-.3-1.21.75-1.42,1.42-1.86s.93,0,1.23.6c.75,1.38,1.67,2.53,3.48,2.64.92,0,1.27.82,1.49,1.72a29,29,0,0,0,1.1,2.94c.1.26.25.65.14.82-.82,1.2-1.48,2.69-2.61,3.44a3.56,3.56,0,0,0-1.84,3.1c0,.39,0,.78,0,1.16a27.46,27.46,0,0,1-.37,2.87.93.93,0,0,1-.71.56,1.16,1.16,0,0,1-.78-.55c-.17-.27-.07-.69-.2-1-1.11-2.7-1.52-3.78-4.12-2.37V208l-.37.08a4.52,4.52,0,0,1-.41-1c-.11-.68,0-1.39-.18-2.07s.46-1.59-.67-1.76a4.45,4.45,0,0,0-.45,1.71c0,.84-.23,1.33-1.14,1.34-1.07,0-.7-.71-.69-1.27.05-2.13.1-4.25.11-6.38a25,25,0,0,1-.11-2.58c.22-2,.57-4,.83-5.68l1.14-2.13-1.79.18c.11-1.92,2.18-1.45,2.76-2.63C192.08,186.93,192.09,188,192.27,189Zm1.28,1.16c-1.34,0-1.84.56-1.54,1.86a1.29,1.29,0,0,0,.79.74c1.53.44,3.06.85,4.61,1.14a1.62,1.62,0,0,0,1.41-.46,1.76,1.76,0,0,0,.17-1.58,3.54,3.54,0,0,0-4-1.7Zm-.25,9.18c1.07,0,1.39-.54,1.38-1.54,0-1.9-.5-2.56-2.13-2.47-.41,0-.79.65-.94.78C191.59,198.09,192.33,199.27,193.3,199.29Z"/><path class="cls-1" d="M112.25,184.35a8.29,8.29,0,0,0-1.52,1.07c-1,1.13-1.72,1.17-2.85.05-.14-.15-.4-.35-.54-.3-1.39.42-2.12-1.31-3.5-.82l0-.41,1.59-.67-.08-.33-1.11-.09c.3-.36.58-.68.84-1s.48-.64.6-.8l-1-.74c.29-.25.56-.61.89-.71,1.67-.47,3-3.27,2.36-4.79-.09-.21.27-.64.47-.94,0-.08.36,0,.38-.1a5.83,5.83,0,0,1,3.92-3.87,2.24,2.24,0,0,1,1.55.11c.24.12.22.77.29,1.08l1.73,1v4.29l.24,0,.59-2.95,1.7,2.31.57-2.1c.47,2-.12,3.87-1.24,3.74l.51-1.49c-.69.15-1.42.09-1.6.38-.41.68-.49,1.56-.84,2.29a39.78,39.78,0,0,1-2.34,4.43c-.34.52-1.17.73-1.78,1.08Zm.83-2.33c.23,0,.53-.37.8-.58-.25-.25-.47-.67-.75-.71a8.28,8.28,0,0,0-1.72.06l-.18.6A11.88,11.88,0,0,0,113.08,182Z"/><path class="cls-1" d="M150.66,210.38a1.79,1.79,0,0,1-2.29-1.62c-2.44.9-4.28-.73-6.44-1.25,0-.23,0-.56.12-.61,1.46-.76,1.24-2.14,1.27-3.41a2.58,2.58,0,0,1,1.18-2.09,24.16,24.16,0,0,0,2.87-3.53c1.2-1.52,1.23-1.53.85-3.3-.06-.29-.53-.73-.74-.69a2,2,0,0,0-1.24.68c-.54.87-.67,2.15-1.4,2.71a7.63,7.63,0,0,0-2.59,3.83,5.75,5.75,0,0,0-.36,1.11c-.22,1.89-.47,3.78-.57,5.67a2.14,2.14,0,0,0,.68,1.55,8.66,8.66,0,0,0,5.7,2.1,6.62,6.62,0,0,1,2.73,1,4.14,4.14,0,0,0,3.21.59c.23-.06.77.31.86.58.45,1.38.85,2.78,1.16,4.19s-1.57,3.72-3,3.75a23.44,23.44,0,0,1-4.36-.16c-.94-.16-1.77-.9-2.7-1.19a1.6,1.6,0,0,0-1.33.45c-.42.45-.35,1,.33,1.37a21,21,0,0,1,2,1.2,6.67,6.67,0,0,0,4.66.81c.82-.09,1.64-.13,2.46-.21a1.51,1.51,0,0,0,.73-.14c1.26-1,2.53-2,3.7-3,.28-.26.25-.93.26-1.4a13.12,13.12,0,0,0-.08-2.51,30.08,30.08,0,0,0-.88-3.45c-.4-1.34-1.54-1.63-2.75-1.77a10.1,10.1,0,0,1-1.93-.21A15.23,15.23,0,0,1,150.66,210.38Z"/><path class="cls-1" d="M71.46,199.66c2.06-1.1,2.13-1.26,1.81-3.48,0-.2,0-.54.12-.6.86-.44,1.38-1.69,2.77-1.1-.06,1.6.21,3.29-1.73,4.23-.4.2-.59.79-.93,1.16a8.07,8.07,0,0,1-1.36,1.32c-1.51,1.05-3.08,2-4.6,3.06a1,1,0,0,0-.26.9c0,.18.57.35.83.3,1-.23,2-.58,3.09-.82a5.44,5.44,0,0,1,1.36.13c-1.56,1.55-3.2,1.65-4.83,1.78-.75.06-1.46,0-1.31,1.21.11.87-.63,1.13-1.14.78.19-.61.56-1.2.43-1.65-.07-.28-.9-.38-1.41-.49-.23,0-.5.11-.76.15a1.74,1.74,0,0,1-2.17-1.69c0-1.85-.8-3.85,1-5.35a.46.46,0,0,0,.12-.23A4.14,4.14,0,0,1,65,196.65c1.29-.69,2.62-1.29,3.71-1.82C69.71,196.62,70.59,198.14,71.46,199.66Zm-5.79,1.13c-.4-.18-1-.65-1.17-.53a5,5,0,0,0-1.68,1.55c-.68,1.12-.1,3.19,1,3.26a4.45,4.45,0,0,0,2.64-1.18c1.09-.88,1.93-2,3-3a1.31,1.31,0,0,0,.27-2,9.46,9.46,0,0,0-1.8-1.83c-.63-.45-2.34.94-2.28,1.89a9.9,9.9,0,0,0,.53,2C66,200.9,65.83,200.86,65.67,200.79Z"/><path class="cls-1" d="M122.87,173.42c-.17.37-.52.77-.47,1.12.21,1.52-.8,1.82-2.06,2.08,0,.42.06.83.1,1.23,0,.25.17.53.09.73-.56,1.4-.58,1.39.51,2l.44,2.16c1-.67,1.84-1.06,1.57-2.26-.08-.37.39-.86.71-1.51l1.56,1.76.59-1.33,1.49,1.89,2.9.53a10.67,10.67,0,0,0-1.4-1.14c-.31-.17-1,0-1.08-.18-.23-.48-.5-1.32-.27-1.57.75-.81.1-1.41-.11-2s-.46-1,.17-1.6c.25-.22,0-1,0-1.49l-1.69,1.56c-.77-1.42-2.56-2.2-1.45-4.15h-1.07a6,6,0,0,0-.5,1.38,4.15,4.15,0,0,0,.19,1.18Z"/><path class="cls-1" d="M186.51,130.86c.84-.54,1.7-1.07,2.54-1.63.25-.16.42-.49.68-.57a5.53,5.53,0,0,1,1.94-.38c.15,0,.3,1,.36,1.49.08.76-.36,1.09-1.07,1.37a6.36,6.36,0,0,0-1.7,1.3c-.47.43-.87.93-1.38,1.49.94,2.48,2.31,5,1,8,1.83-.52,2.38-1.91,2.6-3.42.26-1.75.31-3.53.54-5.28a3.19,3.19,0,0,1,.72-1.37,4.61,4.61,0,0,1,.89-.76c-.4-1-.8-1.77-1.07-2.61a2.83,2.83,0,0,0-4.56-1,24.43,24.43,0,0,0-1.93,2.84Z"/><path class="cls-1" d="M134.41,224.24a3.16,3.16,0,0,1,2.14-2.4c-.33.87-.67,1.75-1.1,2.9l1.52-1.3c.29.79.46,1.39-.7,1.55-.36,0-.68.43-1.14.75a2.4,2.4,0,0,0,.43.23c.74-.47,1.85-.79,2.09-1.45s-.43-1.65-.54-2.52a23.65,23.65,0,0,1,0-2.8,3.46,3.46,0,0,0-3.33,1.71l1.65-.62a10.69,10.69,0,0,1-.56,1.46,10.89,10.89,0,0,1-.94,1.22l-1-.31C132.71,223.46,132.71,223.46,134.41,224.24Z"/><path class="cls-1" d="M95.85,208.92l-.37,1.23c1.66-.38.61-2.24,2.07-2.81-.17,1-.31,1.76-.5,2.87l2.44-1.88-1.12-2.56a7.88,7.88,0,0,1-1.24.4.76.76,0,0,1-.67-.3,3,3,0,0,1,0-1l-.43-.15a21.92,21.92,0,0,0-.94,2.8C95,207.85,95.48,208.29,95.85,208.92Z"/><path class="cls-1" d="M136.67,216.56l-.46,1.28c.93.23,1.83-.7,2.6.28.07.09.77-.32,1.35-.58l1.11.27s.35.55.44.51a18.07,18.07,0,0,0,1.93-1.12l-4.69-.84c.53-.56.85-.9,1.18-1.23v-.31c-.62.11-1.47,0-1.79.37s-.37,1.3-.58,2.18Z"/><path class="cls-1" d="M143.44,215.35l1.62-.2v1.2l2.68-1.94a9.61,9.61,0,0,0-1.86-1.41c-.31-.15-.93.32-1.4.51.43,1.07-.24,1.32-1.23,1.34Z"/><path class="cls-1" d="M128,207.37l-.53-.86,1.91-1-.42-.28c.32-.82.67-1.64,1-2.47.2-.6.31-1.22.46-1.83l-.43-.12-1.68,3.07c-.08.14-.09.35-.2.42a2.54,2.54,0,0,0-.75,2.88C127.33,207.3,127.56,207.28,128,207.37Z"/><path class="cls-1" d="M41.42,243.89,42.48,246l.37.06c.22-1,.44-1.93.65-2.89s.38-2,.59-3.06c-.76.37-2.08.18-1.23,1.76.15.27-.11.89-.35,1.21a4.66,4.66,0,0,1-1.12.81Z"/><path class="cls-1" d="M48.06,298.16,49.69,295a5.68,5.68,0,0,0,1.69-.18c.3-.16.41-.66.67-1.1-3.11-.12-3.6.38-4.4,4.18Z"/><path class="cls-1" d="M143.67,212.55l-1.72.64.11-.28L141,212.5v3.16l1.68.91-1-2.2.27-.14.54,1.06,1.34-2.24Z"/><path class="cls-1" d="M94.65,227.89v-7c-1.57,2.18-.51,4.63-.82,7Z"/><path class="cls-1" d="M44.08,247.09c.87-1.16,1.83-2,1.62-3.4-.05-.31.76-.74,1.15-1.09l-.44-2.27C45.81,240.59,44.52,244.22,44.08,247.09Z"/><path class="cls-1" d="M49.27,292.54l2.6-.49-2.8-2c-.29.76-.57,1.55-1,2.67l1,.81Z"/><path class="cls-1" d="M99.28,218.47l1-1.73c.06,1.19.11,2.16.16,3.28a6.82,6.82,0,0,0,1-1.39c.13-.33.1-1-.1-1.14-1-.59-.57-1.12-.08-1.74a3.2,3.2,0,0,0,.36-.89l-.46-.27-2.39,3.5Z"/><path class="cls-1" d="M128.47,207.79l-1.83,1,2.61,1a12.25,12.25,0,0,1,.32-2.85c.26-.69.94-1.21,1.33-1.89C129.71,205.83,128.16,206.3,128.47,207.79Z"/><path class="cls-1" d="M128.64,211.23c-.45-.61-.65-1.13-1-1.3a1.7,1.7,0,0,0-1.32.1c-.21.12-.14.69-.28,1-.22.55-.36,1.27-.78,1.58-.71.51-.6.79.34,1.57a4.37,4.37,0,0,0,.68-1.22C126.49,211.75,127.26,211.24,128.64,211.23Z"/><path class="cls-1" d="M99.37,226c.19-.34.37-.68.56-1s.33-.89.57-.93c1.39-.28,1.29-1.24,1.19-2.18C99.18,222.17,99.09,224,99.37,226Z"/><path class="cls-1" d="M124.52,209.87l-1.06,1.42c-.08,1.4-.16,2.67-.24,4l.57.08c.07-.44.16-.88.23-1.32.15-1-.21-2.1,1.11-2.69C125.74,211,125.33,210.15,124.52,209.87Z"/><path class="cls-1" d="M103.88,188a6.22,6.22,0,0,0-1.24.28c-.34.17-.59.5-.92.6l-1.1.53.12.36,1.18.07-.49,1.13C102.5,190.87,104.05,188.8,103.88,188Z"/><path class="cls-1" d="M90.16,207.6c.09.72.16,1.26.22,1.79l-1.28-.09.37,1.07,2-.16.22-1.25,1.23-.69Z"/><path class="cls-1" d="M126.58,225.6l.43-.69a6.39,6.39,0,0,0,.35,1.07.5.5,0,0,0,.43.18.46.46,0,0,0,.32-.33c0-1.21,0-2.43,0-3.65l-.39-.08c-.54,1.11-1.07,2.21-1.61,3.31Z"/><path class="cls-1" d="M118.28,214.87l2.83-5.22-.39-.22a15.29,15.29,0,0,0-2.81,4.43C117.83,214.05,118.1,214.39,118.28,214.87Z"/><path class="cls-1" d="M75.51,237.32l1.82-5.94c-.43.05-1.19,1.18-1.44,2.16a5.62,5.62,0,0,1-.86,2.19C74.39,236.54,74.79,236.84,75.51,237.32Z"/><path class="cls-1" d="M126.59,183c-.86.1-.35,2.31-2,.89v1.91l1.17-1.24.29.24v2.25C127,186.41,127.18,184,126.59,183Z"/><path class="cls-1" d="M93.47,206.86c-.38.95-.66,1.76,1,2.13l-1.66.37.55,1.43c1.39-1,.94-2.45,1.27-3.69Z"/><path class="cls-1" d="M31.88,251.66c.05-1.5.14-3,.11-4.48,0-.26-.55-.51-.84-.77-.18.33-.61.8-.51,1a5.75,5.75,0,0,1,.66,4.3Z"/><path class="cls-1" d="M170.26,253.57c-.17.13-.47.24-.49.4-.16,1-.21,2-.4,3a7.64,7.64,0,0,1-.6,1.35,3,3,0,0,0-.19.89c0,.08.36.26.39.24.21-.24.5-.48.56-.77.39-1.65.72-3.32,1.07-5Z"/><path class="cls-1" d="M110.43,187.66a6.05,6.05,0,0,1,.63.83c.23.42.38.88.6,1.4l1.26-3.57c-.71-.14-1.39-.48-1.61.68,0,.28-.56.46-.85.69Z"/><path class="cls-1" d="M149.77,233.64v1.46l1.11-1.36.48.33-.84-.28.3-1.26-1,.53-.43-1.12h-.28l-.47,2.36Z"/><path class="cls-1" d="M142.58,188.63l1.55-3.2-1.2-.23-.06-.28,1.7-.49c-2.09-.17-2.31,0-2.45,2.27l.9-.79.16.12c-.33.83-.67,1.66-1,2.48Z"/><path class="cls-1" d="M137.27,185.19a1.33,1.33,0,0,0-.12.37c0,.9.08,1.79.13,2.84l.83.18v1.53c1.11-1.51-1.43-3.5,1-4.79l-1.8-.11Z"/><path class="cls-1" d="M131.22,194.37l1.15-3.61-.4-.21a14.33,14.33,0,0,0-1.51,2.34c-.17.41.18,1,.3,1.55Z"/><path class="cls-1" d="M135.91,202.12l1.44-1.57-1-.52a9.49,9.49,0,0,0,.7-.72c.42-.51.82-1,1.42-1.79C136.64,197.82,135.9,199.31,135.91,202.12Z"/><path class="cls-1" d="M140.47,183.25,139,187l.5.28,1.2-2.17c.09-.17.12-.4.26-.51C141.8,184,141.26,183.7,140.47,183.25Z"/><path class="cls-1" d="M138.14,192.7c.14.15.33.45.42.42a1.72,1.72,0,0,1,2.38,1c1.08-1.57,1.28-2.38.8-3.63-.26.77-.48,1.43-.65,1.9l-3,.32Z"/><path class="cls-1" d="M78.69,221.37c-1.17,1.53-.75,4.13-3.65,3.75l1.49,1.13C77.1,224.69,79.19,223.77,78.69,221.37Z"/><path class="cls-1" d="M106.49,189.81a5,5,0,0,0,.43-2c-.1-.42-.94-.67-1.52-1l-.31,2.69.77-.87.32,1.16Z"/><path class="cls-1" d="M135,192.92c.35-.6,1-1.22,1-1.82,0-1.34.69-1.55,1.75-1.71-.73-.14-1.45-.31-2.18-.4-.1,0-.35.37-.37.58-.08,1.12-.12,2.26-.17,3.39Z"/><path class="cls-1" d="M97.09,224.38l.56-4.24a4.09,4.09,0,0,0-1,4.21Z"/><path class="cls-1" d="M114.15,223.43l1.93-1.38-.89-1.35C113.87,221.54,113.58,222.28,114.15,223.43Z"/><path class="cls-1" d="M135,193a4.23,4.23,0,0,0-.52.68,17.56,17.56,0,0,0-.81,1.77,11.58,11.58,0,0,0-.33,1.32l.38.13,1.13-1.75.33.15.13,2,.45,0a16.8,16.8,0,0,0-.17-1.74c-.17-.85-.41-1.68-.62-2.53Z"/><path class="cls-1" d="M187,275.63l1.61-4.25-.18-.18-1.24,1.06c-.2,1.17-.37,2.23-.55,3.28Z"/><path class="cls-1" d="M185.18,278.5c-1.66.77-1.23,2.12-1.27,3.39C185.53,281.17,185.24,279.87,185.18,278.5Z"/><path class="cls-1" d="M153.32,170.84l-.87-1.76c-.28.22-.93.58-.89.71a4.75,4.75,0,0,0,.82,1.22l-.7,1.78.35.14Z"/><path class="cls-1" d="M41.76,250.77l1.9.39L43,247.93l-.25,0C42.45,248.81,42.13,249.73,41.76,250.77Z"/><path class="cls-1" d="M155.9,149.85c.51-.82.94-1.54,1.47-2.41l-.45-.63C156.05,146.79,155.43,148.53,155.9,149.85Z"/><path class="cls-1" d="M209,224.87l3.47.21.25.48.63-1.83-.32-.29c-.53,1.16-1.3,1.14-2.28.82C210.37,224.13,209.79,224.58,209,224.87Z"/><path class="cls-1" d="M72.52,220.59l-1.29,4.57.51.16c.45-1.52.91-3,1.36-4.55Z"/><path class="cls-1" d="M46.57,263.41c1.94.19,1.21-1.64,2-2.34C47.28,261,47,261.37,46.57,263.41Z"/><path class="cls-1" d="M155.44,200.81l-1-.18v1.12l-1.05-1.13-1.17,1.86.37.26.82-1.2c.21.16.56.6.76.54a8.16,8.16,0,0,0,1.5-.82Z"/><path class="cls-1" d="M120.63,215.62l1.5-2.54c-1.5.44-2.07,1.81-1.87,3.73C121.16,216.71,121.16,216.71,120.63,215.62Z"/><path class="cls-1" d="M98.22,219c.25-.91.5-1.82.75-2.75-.6-.28-1.47,1.06-1.56-.68l-.36.36.87,3Z"/><path class="cls-1" d="M87.57,224.05a8,8,0,0,0,.67-1c.41-.78.8-1.58,1.14-2.4a1.58,1.58,0,0,0,0-.86c0-.08-.4-.16-.42-.13a4.91,4.91,0,0,0-.33.74c-.25.62-.48,1.25-.74,1.86s-.44,1-.67,1.56Z"/><path class="cls-1" d="M87.5,204.38,88.72,208C89.26,206.26,88.8,204.86,87.5,204.38Z"/><path class="cls-1" d="M95.89,187.63c-.25,1-.06,1.26,1.27,1.59.26.07.48.27.74.37a6.41,6.41,0,0,0,.75.21c-.05-.25,0-.64-.16-.74C97.68,188.56,96.83,188.14,95.89,187.63Z"/><path class="cls-1" d="M93.27,206.08a2.55,2.55,0,0,1-.92-3c-.3.83-.61,1.65-.95,2.57l.8,1.21Z"/><path class="cls-1" d="M137.27,185.21c-1.81-.94-2-.59-2.27.71l1-.11-.44,1.38.18.12,1.51-2.11Z"/><path class="cls-1" d="M171.64,200.87c.12-1.53.23-3.06.35-4.59l-.2-.08a14.65,14.65,0,0,0-.66,2.48,11.23,11.23,0,0,0,.23,2.28Z"/><path class="cls-1" d="M208.41,206.65l-2.34,3.7C207.28,210.53,208.28,208.91,208.41,206.65Z"/><path class="cls-1" d="M105.4,190l-3,.79a7,7,0,0,0,2.22.76c.38,0,.72-.81,1.08-1.25Z"/><path class="cls-1" d="M185.79,274.28l-.32-2.91-.37,0-.52,3.53Z"/><path class="cls-1" d="M147.22,234.18l1.4-2.3-2.66-.56c.84.93,2.08,1.48.8,2.8Z"/><path class="cls-1" d="M151.31,215l-1,.85-.19-1-.25,0-.55,1.44C150.94,217,151.37,216.76,151.31,215Z"/><path class="cls-1" d="M123,224.23l1-.5-1.46-2.41h-.28a5.68,5.68,0,0,0,0,1.43A7.66,7.66,0,0,0,123,224.23Z"/><path class="cls-1" d="M103.53,181.38l-1.71,3.12.34.27a6.43,6.43,0,0,0,.64-.15c-.13-1.09.59-1.75,1.18-2.48.1-.12,0-.38,0-.58Z"/><path class="cls-1" d="M136.46,205.1c1,.46,1,.46,1.42-.89l-2.15.11-.19,1.54.31.1Z"/><path class="cls-1" d="M93.06,227.71a15.14,15.14,0,0,0-.54,1.94,11.62,11.62,0,0,0,0,1.87c.08,0,.27,0,.29-.09.3-1.2.59-2.4.88-3.6Z"/><path class="cls-1" d="M118.08,141.93v1.73l1.41-.11.29-1.18Z"/><path class="cls-1" d="M130.36,197.52l1.15-.1,1-3.29-.27-.11Z"/><path class="cls-1" d="M143.65,179.33c.16-.29.48-.59.46-.87-.07-.92.25-1.45,1.38-1.45l-1-1c-1.08,1.06-1.43,2.47-.86,3.34Z"/><path class="cls-1" d="M130.47,179.63v3.15l.77-.31-.28-2.84Z"/><path class="cls-1" d="M115.83,211.29c-.18.94-1.5,1.59-.6,2.78C115.11,213,117.37,212.68,115.83,211.29Z"/><path class="cls-1" d="M151.38,255c.93-.36,1.63-2.4,1-3.61Z"/><path class="cls-1" d="M81.5,209.38c-.12-.73-.25-1.46-.42-2.5-.53.49-1.21,1-1.15,1.1a10.55,10.55,0,0,0,1.24,1.62Z"/><path class="cls-1" d="M211.64,204.29a5.65,5.65,0,0,0-.86,1.2c-.32,1-.52,2-.76,2.95l.32.06c.46-1.34.93-2.67,1.39-4Z"/><path class="cls-1" d="M133.88,173.35l.11,1.77.43.14,1.61-4-.51-.17c-.08.38-.18.77-.25,1.16s-.18,1-.27,1.58Z"/><path class="cls-1" d="M38.2,250.6,40.53,249l0-.27a10.46,10.46,0,0,0-2,.6c-.31.17-.41.75-.6,1.14Z"/><path class="cls-1" d="M129.07,179a2.42,2.42,0,0,0,2.87-1.52C130.76,177.67,129.67,177.66,129.07,179Z"/><path class="cls-1" d="M205.23,216.55c1.29-1,1.38-2.08.31-3.06C205.44,214.48,205.34,215.52,205.23,216.55Z"/><path class="cls-1" d="M31.3,302.54c-.28.82-.57,1.64-.86,2.49,1.07.14,1.19-.11,1.2-2.35Z"/><path class="cls-1" d="M151.67,184.45c1.57.38.59,1.27.35,2l.4.11,1.08-3-1.89.48Z"/><path class="cls-1" d="M66.47,222.17c1.21-.46,1.3-1.83.22-2.93C66.61,220.27,66.54,221.18,66.47,222.17Z"/><path class="cls-1" d="M52.53,256.42c.47-1.2.84-2.13,1.29-3.29-.71,0-1.34-.12-1.29,1C52.55,254.8,52.53,255.46,52.53,256.42Z"/><path class="cls-1" d="M166.18,181.74l.28-2.49-.3-.16a5.21,5.21,0,0,0-.69,1.48,3.62,3.62,0,0,0,.45,1.41Z"/><path class="cls-1" d="M129.2,169l-.22,2.14L127.74,170l.83,1.09h.36l.41-2.24Z"/><path class="cls-1" d="M85.3,228.08l-.75-1-.06.39-2.59.32,0,.2,3.18.37Z"/><path class="cls-1" d="M167,204c1.57-2.43,1.57-2.43.8-3.25l-.6,1.47-.2-.09Z"/><path class="cls-1" d="M126.24,191.41c-.3,0-.87,0-.94.1a2.54,2.54,0,0,0,.2,2.58C125.75,193.18,126,192.45,126.24,191.41Z"/><path class="cls-1" d="M59.88,248.6c-.32.87-.66,1.76-1.05,2.77A1.76,1.76,0,0,0,59.88,248.6Z"/><path class="cls-1" d="M159.78,157.16c1.82.16,2-.7,2-1.67l-.35-.29Z"/><path class="cls-1" d="M99.67,227.58l1.77-.22-1-.65c.77-1.34.77-1.34.12-1.8C100.32,225.72,100,226.58,99.67,227.58Z"/><path class="cls-1" d="M134.22,184.3c-.48.42-1,.83-1.42,1.3-.06.06.2.6.34.61.32,0,.83,0,.94-.25a6.24,6.24,0,0,0,.38-1.53Z"/><path class="cls-1" d="M134.53,165.59V169c.46-.43,1-.72.92-.88C135.25,167.32,135.59,166.32,134.53,165.59Z"/><path class="cls-1" d="M125.08,173.32l1.15-1.41-.37-1.44-.28-.07-.74,2.83Z"/><path class="cls-1" d="M70.53,207.08l-2.26.77,1.08,1,.52-1.29h.26l.19,1.16h.21Z"/><path class="cls-1" d="M131.69,202.61c.21-.61.43-1.21.59-1.82,0-.08-.38-.36-.41-.33-.26.22-.6.45-.67.75a3.91,3.91,0,0,0,.06,1.22Z"/><path class="cls-1" d="M142.52,168.69l-1.19.39.92-1.53-.42-.25-1.22,1.95.27.28,1.72-.55Z"/><path class="cls-1" d="M48,290.46l.31-1.42a3.81,3.81,0,0,0-.6.23c-.51.32-1,.67-1.52,1Z"/><path class="cls-1" d="M70.27,211.31c0-.27.18-.95.07-1a15.37,15.37,0,0,0-2-.57l-.12.4Z"/><path class="cls-1" d="M108,209.68l-1.26,1.41.82.75C109,211.43,107.86,210.4,108,209.68Z"/><path class="cls-1" d="M136.9,173.88l-.72,1.18.5.32,1.41-2.37-1.8.29Z"/><path class="cls-1" d="M79.91,204.55c-.24.72-.49,1.43-.79,2.31l1.5-.25-.48-1.88Z"/><path class="cls-1" d="M41.39,243.92l-1.36-.8-.44,1.52.35.16,1.48-.91Z"/><path class="cls-1" d="M93.76,231.23,96,230l-.12-.67a21.63,21.63,0,0,0-2,.91C93.76,230.31,93.82,230.75,93.76,231.23Z"/><path class="cls-1" d="M126.22,206.27l1-2.64-.42-.2-1.2,2.52Z"/><path class="cls-1" d="M172.34,139.1a3.24,3.24,0,0,0-.12-1,4.3,4.3,0,0,0-.67-.82l-.4.17a12,12,0,0,0,.37,1.7C171.56,139.22,172.16,139.11,172.34,139.1Z"/><path class="cls-1" d="M72.78,231.77l-.94,1.66c.17.24.39.52.84,1.12.15-1.14.27-1.94.38-2.74Z"/><path class="cls-1" d="M22.42,314.69l1.38-2C22.34,312.68,21.86,313.41,22.42,314.69Z"/><path class="cls-1" d="M49.62,239.84c.38.26.66.53.72.48.43-.3.81-.67,1.21-1-.2-.19-.51-.56-.57-.53A12.53,12.53,0,0,0,49.62,239.84Z"/><path class="cls-1" d="M229.08,178.35l-.55,2.94c1.13-.79.71-1.91.88-2.9Z"/><path class="cls-1" d="M83,205.61v-2.73A1.58,1.58,0,0,0,83,205.61Z"/><path class="cls-1" d="M140.08,227.58V226c-.38.22-.91.36-1.1.69s.31.7.49,1.07Z"/><path class="cls-1" d="M131.75,190l1.64-3.12c-1.84.45-1.17,2.13-2,2.9Z"/><path class="cls-1" d="M75.09,206.86l2.24.57c-.08-.36-.15-1.05-.26-1.06a15.37,15.37,0,0,0-2.14.13Z"/><path class="cls-1" d="M127,186.56l2-.53-1.13-1.47Z"/><path class="cls-1" d="M53.79,252.73c1.11-.9,1.07-1.26-.27-2.47C53.63,251.23,53.7,251.9,53.79,252.73Z"/><path class="cls-1" d="M106.08,225.33c-.39.77-.77,1.54-1.15,2.3l.37.18C105.72,227.07,106.81,226.64,106.08,225.33Z"/><path class="cls-1" d="M136.67,196.25c1.55-.23,1.45-1.18,1.36-2.14l-.38-.17Z"/><path class="cls-1" d="M116.76,141.79l-1,.36.22,2.31.19.06C116.32,143.68,116.52,142.84,116.76,141.79Z"/><path class="cls-1" d="M126.13,202.3l-1.47.58.67,1.5,1-1.81Z"/><path class="cls-1" d="M153,234.4l1.07,1.23v-2.54Z"/><path class="cls-1" d="M135.63,211.89l-.41,2.2C136.64,213.71,136.74,213.19,135.63,211.89Z"/><path class="cls-1" d="M101.91,214.64l1.9-.44-1.7-1.34Z"/><path class="cls-1" d="M140.6,229.57l-1.52-1-1,1.75Z"/><path class="cls-1" d="M125.85,222.61l-1.35,2.31C125.45,224.92,126,224.12,125.85,222.61Z"/><path class="cls-1" d="M177.61,259.42c1.61-1.2,1.65-1.28,1-2.13l-1.34,1.91Z"/><path class="cls-1" d="M104.19,152.67a4.66,4.66,0,0,0,1.33-.82,3.25,3.25,0,0,0,.33-1.26l-.6-.2Z"/><path class="cls-1" d="M115,208.43l-1,2.79c.73-.35.73-.35,1.37-2.65Z"/><path class="cls-1" d="M81.62,197.93c.2-.69.43-1.37.57-2.07,0-.18-.26-.41-.41-.62-.13.19-.35.36-.37.57-.09.66-.11,1.32-.15,2Z"/><path class="cls-1" d="M117,222.83c-.23.83-.45,1.67-.67,2.5l.43.12.87-2.46Z"/><path class="cls-1" d="M54.88,244.37l1.18-.64-1.17-1.61-.33,2Z"/><path class="cls-1" d="M134.23,217.56c1.62.3,1.75-.68,2.06-1.47l-.27-.29Z"/><path class="cls-1" d="M148.22,203.24h1.87l-1.57-1.76Z"/><path class="cls-1" d="M75.17,232.53c.42-.68.74-1.13,1-1.63a.61.61,0,0,0-.1-.57.54.54,0,0,0-.56-.05,1.75,1.75,0,0,0-.65.85A4.46,4.46,0,0,0,75.17,232.53Z"/><path class="cls-1" d="M149.25,173l-.6-1.27c-.55.74-1.48,1-1,2.49C148,173.18,148.18,172.49,149.25,173Z"/><path class="cls-1" d="M138.23,213.78l1.32-2.07C138.56,211.47,138.23,212,138.23,213.78Z"/><path class="cls-1" d="M132.41,184.94l1.65-1.4-.12-.26-1.82.32Z"/><path class="cls-1" d="M154.19,205.21c0-.51.11-1.36.2-2.43C152.59,203.83,154.49,204.76,154.19,205.21Z"/><path class="cls-1" d="M175.08,254.25c-.42.58-.77,1-1.06,1.53,0,.06.29.32.44.49.36-.46.74-.91,1.06-1.4C175.56,254.8,175.28,254.52,175.08,254.25Z"/><path class="cls-1" d="M90.44,206.28c.18-.59.37-1.19.6-1.92C90.07,204.89,90.07,204.89,90.44,206.28Z"/><path class="cls-1" d="M67.71,230.94l.6-3-.5-.1-.54,3Z"/><path class="cls-1" d="M146.2,160.07l-.48-.9L144,160.34l.15.16Z"/><path class="cls-1" d="M130.35,208.74l-.25,1.77.29.16,1.24-1.81Z"/><path class="cls-1" d="M110.46,187.69l-1.3,2.79c1.19-.3,1.54-1.14,1.28-2.82Z"/><path class="cls-1" d="M138.09,192.75l.12-1.23-1,.95-.18-1.36-.33,0-.12,1.78,1.57-.17Z"/><path class="cls-1" d="M210.28,214.29l.44-1.73-.57-.17-.53,1.7Z"/><path class="cls-1" d="M131.45,208.06l.65-1.31c-1.08-.36-1.15-.31-1.67,1,.06.05.12.13.19.14C130.9,208,131.19,208,131.45,208.06Z"/><path class="cls-1" d="M87.85,195.52l1.27.64c-.05-.67-.1-1.37-.19-2.49Z"/><path class="cls-1" d="M83.94,229.12l-1.79.58C84,230.29,84.25,230.14,83.94,229.12Z"/><path class="cls-1" d="M52.07,301.17,51,299.48C50.22,300.59,50.38,300.88,52.07,301.17Z"/><path class="cls-1" d="M69.16,222.15c-.92-.23-1.21.46-.89,2.48Z"/><path class="cls-1" d="M183,277.77l.72-2.14-.5-.17c-.23.72-.46,1.43-.68,2.15Z"/><path class="cls-1" d="M74.21,208.68H76.4C76.12,207.72,75.54,207.66,74.21,208.68Z"/><path class="cls-1" d="M127.52,192.18l1.83-1.37-.42-.5-1.66,1.57Z"/><path class="cls-1" d="M148.82,182.85l-.35,2.91.29.06.65-2.91Z"/><path class="cls-1" d="M69.34,220.08c1.4-.38,1.87-1.43,1.49-3.13C70.44,218.24,70.85,219.62,69.34,220.08Z"/><path class="cls-1" d="M205.64,297.22c-1.14.91-1.39,2.1-1.89,3.28s-1.7,1.73-2.81,2.77l1.58.55a3.67,3.67,0,0,1,.09-.73,6.13,6.13,0,0,1,.45-.72c.21.23.6.46.59.68,0,1.27-.13,2.53-.06,4a6.31,6.31,0,0,0,.73-1.17,2.18,2.18,0,0,1,1-1.4c.37-.21.4-1,.6-1.63-.19,0-.41-.07-.49,0a9.62,9.62,0,0,0-.69.86c-.17-.41-.35-.82-.5-1.24a9.14,9.14,0,0,1-.2-.92A3.5,3.5,0,0,0,205.64,297.22Z"/><path class="cls-1" d="M197.79,306.55l-1.45.34-.29-1.55-.35,0a6.19,6.19,0,0,0-.08.95,2.27,2.27,0,0,1-.1,1.21l-.67-.81-.58.51c-.16-.49-.28-.89-.41-1.28-1.68.66-1.91,2.07-.69,3.51l-.58,1.84.52.17,1.48-3.79v1.93c.42-1.17,1.79-2.37,3.06-1.46,0-.58.06-1.08.09-1.58Z"/><path class="cls-1" d="M278.7,351.33h-4.24l-.2,1-1.7-1c-.23,1.24.54,2.13,1.21,3,.13.17.82.13,1.08-.06C276.08,353.47,277.24,352.49,278.7,351.33Z"/><path class="cls-1" d="M182.49,322.62l-1.94,1.58.19.27,1.07-.51.14,1.73.4.12.63-1.9c.67-.32,1.13-2.43.64-4.45l-2.44,2-.63-.37c0,1.41.83,1.41,1.8,1.19Z"/><path class="cls-1" d="M257.24,359.59l.1-1.18c.38,1.1,2,1.36,1.67,3-.2,1.14,1.21.77,1.94.81.36,0,.74-.38,1.11-.58l-.46-.55-.3.81-.3-.06c0-1.64-2.55-1.87-2.12-3.87.16-.76.36-1.85-.86-2.41.22,1.51-1.48,2.48-1.23,4Z"/><path class="cls-1" d="M226.21,367.79a12.37,12.37,0,0,0,1.87-.26c.38-.11.94-.38,1-.66a1.71,1.71,0,0,0-.45-1.24,11.35,11.35,0,0,0-1.63-1.19l-2.71.31C225,365.71,227.3,365.72,226.21,367.79Z"/><path class="cls-1" d="M276,340.39c1.21-.39,1.37-.94.78-1.95a5.5,5.5,0,0,1-.27-1.9l.46.22,2.26-.91-1.19-2.6-.46.14a11.4,11.4,0,0,0,.32,1.28c.24.71,0,1.16-.73,1.18-2,0-2,0-1.74,1.85C275.57,338.57,275.79,339.44,276,340.39Z"/><path class="cls-1" d="M299.42,314.52c0-.8,0-1.47-1.17-.92-.11,0-.29.12-.36.07-1.45-1.13-2.93-.16-4.4-.08,0,1.13.1,1.18,1,.9.29-.1.68.22,1,.21C296.79,314.67,298.07,314.59,299.42,314.52Z"/><path class="cls-1" d="M186.53,322.35c-1.77-.07.17-1.05,0-1.22.46,1.18,1.06-.42,1.63-.13.11-.84.21-1.57.32-2.32-2,.25-2.8,1.56-3.18,3.19-.08.35.27.89.58,1.19.12.11.67-.23,1-.36Z"/><path class="cls-1" d="M199.87,321c-.92,0-1.32.06-1.16,1.22a3.71,3.71,0,0,1-.83,3.14,8.26,8.26,0,0,0-1.1,2.9c0,.1.29.45.38.43a.85.85,0,0,0,.52-.42,9.9,9.9,0,0,0,.32-1.51c.17-1,.6-.76.88-.48Z"/><path class="cls-1" d="M210.91,299.81c.19.9-.9,1.72.26,2.48.06,0-.15.46-.18.7a2.23,2.23,0,0,0,.74,2.43c.27.2.15.93.22,1.49.71.14,1.32-1.4.86-3.14l-.32,1.31c-.32-.65-1.46-1.15-.31-2,.18-.14.08-.83-.08-1.18A20.76,20.76,0,0,0,210.91,299.81Z"/><path class="cls-1" d="M193.53,334.7l-.44-.55c1.43-1.69,1.51-2.4.39-3-.94,1.95-2.1,3.88-.73,6.09C193,336.59,193.21,335.75,193.53,334.7Z"/><path class="cls-1" d="M234.09,357.22a7.26,7.26,0,0,0-1.9.32c-.73.4-1.26,1.22-2.29.79-.09,0-.33.29-.5.45.18.19.36.53.53.53a7.45,7.45,0,0,0,1.41-.3l.63,1.36.25-.08v-1.63l1.25.39Z"/><path class="cls-1" d="M167.21,308c.39-1.6.38-3.23,1.69-4.38.15-.13.09-.51.13-.77-.25.06-.63,0-.73.19-.55.85-1,1.75-1.55,2.63-.14.25-.21.53-.37.77C165.73,307.34,165.9,307.69,167.21,308Z"/><path class="cls-1" d="M186.75,328.54V325l.7.06c-.32-.26-.54-.52-.6-.48a4.17,4.17,0,0,0-1.53,1.05c-.28.43-.16,1.13-.21,1.79l.74-1.12.29,0c-.06.74-.11,1.48-.17,2.21Z"/><path class="cls-1" d="M199.17,336.52c1.42-1.46.54-3.27.77-4.89l-.33-.09-.69,2.5.37.11C198.12,335.07,198.09,335.49,199.17,336.52Z"/><path class="cls-1" d="M218,282.66l-.7.49-.9.59a14,14,0,0,0,.22,2c.09.36.44.94.66.93.67,0,.45-.42.38-1A13.35,13.35,0,0,1,218,282.66Z"/><path class="cls-1" d="M216.28,286.91c-1.09.41-1.54,1.38-.93,2.24s1,1.47.48,2.47c-.16.29.08.78.14,1.18l.31-.08Z"/><path class="cls-1" d="M180.46,332.66l.33-1.36.29,0h.15v-4.23l-.24,0-.9,1.9.3,0-.39,3.58Z"/><path class="cls-1" d="M234.85,359.21c-2.14-.33-1.85,1.51-2.56,2.56A2.51,2.51,0,0,0,234.85,359.21Z"/><path class="cls-1" d="M191.7,332.94c.07-.94.17-1.86.19-2.77,0-.19-.21-.42-.39-.56s-.34,0-.46.12A2,2,0,0,0,191.7,332.94Z"/><path class="cls-1" d="M242.84,352.23l-2.14,1.09,0,.28h1.41l.23,2.31.46,0Z"/><path class="cls-1" d="M183,317.62c.46-.46,1-.73,1-1.06a17.44,17.44,0,0,0,.05-3.15c0-.19-.47-.35-.82-.27l.85,2-.27.18-.82-.38Z"/><path class="cls-1" d="M175.42,289.28c.76-.79.36-2.55,2.33-1.8-.49-.84-.82-1.45-1.2-2a.67.67,0,0,0-.54-.18c-.12,0-.32.27-.29.37a3,3,0,0,1-.54,2.87C175.11,288.6,175.29,288.9,175.42,289.28Z"/><path class="cls-1" d="M207.94,295.94l2.43-4.44C208.23,293.26,207.48,294.68,207.94,295.94Z"/><path class="cls-1" d="M188.59,315.13c.11-1.25.2-2.2.28-3.16l-.47-.08c.35,1.59-1.75,2.4-1.15,4.17Z"/><path class="cls-1" d="M189.13,327.83l.48-5.47-.43-.08c-.09.6-.14,1.2-.26,1.8-.14.75-.4,1.48-.48,2.24a7.89,7.89,0,0,0,.17,1.59Z"/><path class="cls-1" d="M207.05,302.82l-1.24,3.63.66.27.81-1.82,1,.12c-.68-.71-1.78-1.09-.49-2.24Z"/><path class="cls-1" d="M173.07,319.28l-2.66,2.88.45.39c.79-1.06,2.42-1.37,2.62-2.95Z"/><path class="cls-1" d="M207.88,331.54l2,.8-1.49-2.17c-.68.91-1.3,1.74-1.93,2.6C207.29,333.22,207.29,333.22,207.88,331.54Z"/><path class="cls-1" d="M189.11,336.85c.76-.57,1.52-.84,1.67-1.32a8.17,8.17,0,0,0,.07-2.43l-.57-.12C189.93,334.14,189.57,335.31,189.11,336.85Z"/><path class="cls-1" d="M177.56,327.18l1.23-.44v-2.22C177.53,325.29,177.53,325.29,177.56,327.18Z"/><path class="cls-1" d="M210.92,294a7,7,0,0,0,2-.91c.29-.26.1-1,.14-1.59a4.85,4.85,0,0,0-.65,0,1.77,1.77,0,0,1-1.48,1.57c-.12,0-.16.37-.24.56Z"/><path class="cls-1" d="M184.18,332.47c.5-.9,1-1.72,1.41-2.57a1.77,1.77,0,0,0,0-1.12C183.45,331.69,183.45,331.69,184.18,332.47Z"/><path class="cls-1" d="M199.91,339c-1.79.31-2.27,1.1-1.63,2.83l1-.45-.82-.63c.15-.91,2.11-.28,1.41-1.8Z"/><path class="cls-1" d="M190,318.68l1.31-3.63-.93-.19c-.32,1.3-.61,2.5-.9,3.69Z"/><path class="cls-1" d="M197.41,315.87c.91-.88.79-1.95.25-3.43l-.62,1.92-.72-.35Z"/><path class="cls-1" d="M206.27,309.84c0,.05-.09.36,0,.54s.43.31.66.46c.1-.28.34-.6.27-.84-.32-1.12-1.25-1.42-2.7-.59Z"/><path class="cls-1" d="M165.15,283.3c.44,1.34,1.69.81,2.76,1.09C167.48,282.62,166.18,283.28,165.15,283.3Z"/><path class="cls-1" d="M253,313.63l.1,1.38-1,.45.11.42,2.66-.68-.7.47L252.9,314Z"/><path class="cls-1" d="M154.94,308.61l2.09,1.05c-.32-1-.37-2.11-.8-2.29C155.3,307,155.19,308,154.94,308.61Z"/><path class="cls-1" d="M172.67,325.4l-1.49,1.54.43,1.44.29.11,1.06-3Z"/><path class="cls-1" d="M174.37,332.08c.64-1.24-.31-1.62-1-2.25l-1.12,2.3.29.21.9-1.11Z"/><path class="cls-1" d="M189.85,308.5l1.49.33.13,1.56c.72-.82.19-3-.68-3.08C190.56,307.29,190.26,308,189.85,308.5Z"/><path class="cls-1" d="M174.8,322.93l-.51,1.07-.63-.78-.27.12c.22.72.43,1.44.65,2.15l.29,0,1-2.4Z"/><path class="cls-1" d="M156.93,312l1.91-3.16-.68-.56c-.5,1.2-1,2.42-1.5,3.64Z"/><path class="cls-1" d="M218.52,281.74c1.15,0,1.82-1,1.54-2.63C219.58,279.93,219.1,280.76,218.52,281.74Z"/><path class="cls-1" d="M255.19,329.15c0-.41.21-.91,0-1.2a1.26,1.26,0,0,0-1.07-.39c-.52.09-.56.45-.15.86.12.12,0,.49,0,.83l1.26-.13Z"/><path class="cls-1" d="M174.35,302.71l.54-3.11a3,3,0,0,0-1,3.07Z"/><path class="cls-1" d="M214.07,297.67c-.15-.89-.31-1.79-.48-2.8C212.46,296.52,212.53,296.83,214.07,297.67Z"/><path class="cls-1" d="M176,333.24l1.49-2.46C176,330.79,175.73,331.24,176,333.24Z"/><path class="cls-1" d="M189.45,320.85l1.28,1,.52-3.25c-1,.39-1,.39-.51,1.72Z"/><path class="cls-1" d="M172.09,310.75c.3-1,.52-1.71.73-2.43l-.46-.15C172.42,309,170.47,309.15,172.09,310.75Z"/><path class="cls-1" d="M186.21,305.1l-.25-2.28-1.37,2.84Z"/><path class="cls-1" d="M287.37,299.67c.15.57.27,1.15.46,1.71a6.92,6.92,0,0,0,.88-.19l-.64-1.71Z"/><ellipse class="cls-1" cx="185.56" cy="333.07" rx="0.26" ry="2.8"/><path class="cls-1" d="M270.05,334.2a11.39,11.39,0,0,1-.5-1.6c-.08-.54,0-1.1-.11-1.65C269.33,332.08,268.27,333.27,270.05,334.2Z"/><path class="cls-1" d="M204.74,332.76c-.81.29-1.47.65-.73,1.6.14.19.51.19.77.28A2,2,0,0,0,205,334,10,10,0,0,0,204.74,332.76Z"/><path class="cls-1" d="M199.91,339l0-.05c.24.33.47.67.73,1l1-2.19C201.24,338.43,199.77,337.57,199.91,339Z"/><path class="cls-1" d="M199.19,305.1l1-2.72C199.3,302.42,198.78,304,199.19,305.1Z"/><path class="cls-1" d="M195.44,324.36a11.44,11.44,0,0,0-1.09,1,4.08,4.08,0,0,0,.44.58l1.16-1Z"/><path class="cls-1" d="M171.12,297.09l-.88,3.38A2.72,2.72,0,0,0,171.12,297.09Z"/><path class="cls-1" d="M226.64,278.06c-2.26,1.26-2.29,1.32-1.43,2.1Z"/><path class="cls-1" d="M164.07,283.92l-1.13,2.63.41.15c.45-.83.91-1.66,1.36-2.5Z"/><path class="cls-1" d="M219.77,300.61l1.49-.65-1.74-1.38Z"/><path class="cls-1" d="M202.25,336.78c-.14,1-.29,1.93-.42,2.85C202.67,339.57,203,338.68,202.25,336.78Z"/><path class="cls-1" d="M190.65,306.85l1.42-1.28-1.56-.41Z"/><path class="cls-1" d="M171.22,308c.2-.95.4-1.9.61-2.84l-.46-.12-.63,2.84Z"/><path class="cls-1" d="M219.08,282.39c-.28,1.12-.47,1.9-.73,3l1.35-1Z"/><path class="cls-1" d="M259.19,347.07l-.2,2.47C259.84,348.84,260.29,348.13,259.19,347.07Z"/><path class="cls-1" d="M220.72,287.5l1.12-1.76a5.16,5.16,0,0,0-.93-.21c-.24.61-.39,1.25-.57,1.88Z"/><path class="cls-1" d="M275.17,349l.81.87.8-.75-1.26-.59Z"/><path class="cls-1" d="M173.56,334.59l1.64-.94-1.34-.72Z"/><path class="cls-1" d="M279.23,356.65c1.29.3,1.55,0,1.24-1.54Z"/><path class="cls-1" d="M206.52,300.58c1.26-.46,1.64-1.34.93-2.16Z"/><path class="cls-1" d="M177.86,337l-1.45-1.52-.52,1.52Z"/><path class="cls-1" d="M255.22,329.12l.09,1.45.34.06c.3-.59.6-1.18.91-1.77l-.27-.18-1.1.47Z"/><path class="cls-1" d="M159.93,283.53l-.82.34-.35-.84c-.12,0-.23,0-.27.06-.61.81,0,1.19.6,1.58l1-.84Z"/><path class="cls-1" d="M249,347.16l1,1.46c.11-.15.46-.53.41-.58a12.38,12.38,0,0,0-1.22-1.18Z"/><path class="cls-1" d="M227.61,280l.7-2-.6-.2-.73,2Z"/><path class="cls-1" d="M210.1,295.08l-1.34,1.49C210.54,296.54,210.75,296.27,210.1,295.08Z"/><path class="cls-1" d="M253.12,349.91l-.3-1.42-.8.2.48,1.41Z"/><path class="cls-1" d="M263.57,361.81l-.17-2c-.39.41-.79.65-.77.84a5.76,5.76,0,0,0,.5,1.32Z"/><path class="cls-1" d="M202.58,304.94l-2.37-.14,0,.5h2.38Z"/><path class="cls-1" d="M214.46,286.17c.1-.64.19-1.28.28-1.91l-.21-.18c-.22.3-.57.59-.63.92a3.7,3.7,0,0,0,.16,1.26Z"/><path class="cls-1" d="M171.77,12.51A8.27,8.27,0,0,1,172,13.9a10.1,10.1,0,0,1-.17,1.52H170c.79.84,2.66.8,1.83,2.47l1.69-3.18c1,1.7.47,3.28-.55,4.85,1.75-.82,1.38-2.37,1.68-3.81l1.05-.22.15,1.13a.91.91,0,0,0,1.41-.83c.14-1.35.85-1.88,2.51-1.83-1.45-1.15-2.64-2.11-3.85-3.06a.48.48,0,0,0-.36-.09l-4,1.3Z"/><path class="cls-1" d="M153.77,79.53l-1.27-1c-1.41,1.38-2.66,2.93-5.25,3,.45.82.81,1.46,1.36,2.48l.73-2.31.41,0,.24,1.85.43.09a17,17,0,0,1,.59-2,19.53,19.53,0,0,1,1-1.86L153.12,81l.61-1.46Z"/><path class="cls-1" d="M151.54,39.52c.26.16.72.5.76.45a11.37,11.37,0,0,0,.92-1.24l-.21-.25,2.59-.69,1.9-3.34-.43-.33a5.74,5.74,0,0,0-1,.69,4.71,4.71,0,0,1-2.56,1.76c-.54.11-.92,1.11-1.34,1.73a13.42,13.42,0,0,0-.65,1.25Z"/><path class="cls-1" d="M158.82,35.12a10.84,10.84,0,0,0,.59-2.08c0-1-.13-2,1.17-2.31L160,29.57C157.69,32.88,157.52,33.45,158.82,35.12Z"/><path class="cls-1" d="M171.77,12.51l-.22-.36c-.4-.81-.88-1.57-2-1.26a4.38,4.38,0,0,0-1.09.72l.19.33,1.07-.2.12.21-.81.33c.54.42.86.86,1.13.83A6.35,6.35,0,0,0,171.77,12.51Z"/><path class="cls-1" d="M153.73,79.5c.45-.25,1.23-.43,1.29-.75.14-.76.88-1.68-.32-2.49-.32,1.13-.63,2.2-.93,3.27Z"/><path class="cls-1" d="M142.91,85.23c-.6,1.24-1.21,2.49-1.82,3.73l.45.22,2-3.62Z"/><path class="cls-1" d="M165.14,64.43c-.91-.73-.91-.73-2.62.34C163.63,66.45,164.19,64,165.14,64.43Z"/><path class="cls-1" d="M151.52,39.55l-.57-1c-.64.54-1.24,1-1.76,1.53-.12.12,0,.52.05.78a1.78,1.78,0,0,0,.67-.14c.56-.38,1.08-.81,1.63-1.22Z"/><path class="cls-1" d="M166,109.38l1.92-1.59C166.31,107.44,165.57,107.6,166,109.38Z"/><path class="cls-1" d="M146.39,82.65c-.54.49-1.09,1-1.59,1.5-.07.08.14.43.22.65.2-.09.48-.12.59-.28.37-.51.67-1.07,1-1.61Z"/><path class="cls-1" d="M161.94,65.81c-.25.47-.65.87-.68,1.3,0,.75-.34,1.7.54,2Z"/><path class="cls-1" d="M142.06,92.75l-1.23-.28-.26,2.44Z"/><path class="cls-1" d="M169.38,108.05c-1.14-.37-1.14-.37-.72,2Z"/><path class="cls-1" d="M138.3,92.14a12.49,12.49,0,0,0,0-1.5c0-.25-.27-.46-.41-.69-.18.19-.53.43-.49.56a18.12,18.12,0,0,0,.74,1.84Z"/><path class="cls-1" d="M228.61,35c-1,.93-1,.93.86,2Z"/><path class="cls-1" d="M89.88,257.77c-.64.32-1.57.37-1,1.41a1,1,0,0,1-.84,1.27c-.28,0-.47,1-.64,1.37l-1.76.54-.23-.13L86.61,261c-1.35-.42-1.4-.34-2.5,4.2.88-.95,1.72-1.86,2.67-2.87.49,2.07-1.61,2.24-2.17,3.53l.71.82a15.56,15.56,0,0,0,2.43-2,9,9,0,0,0,1.06-2.37l-.7-.82,1.12-.3C89.43,260.14,89.65,259,89.88,257.77Z"/><path class="cls-1" d="M90.84,251.11a22.49,22.49,0,0,0-1.6,1.64c-.18.22-.11.63-.15,1a9.09,9.09,0,0,0,.87-.47c.09-.05.08-.24.35-.22l.21.81h.32l.3-2.46Z"/><path class="cls-1" d="M89.59,255.25h1l.13-.37c-.34-.15-.93-.49-1-.42a10,10,0,0,0-1.47,2.61C89.91,257.23,89.35,256.05,89.59,255.25Z"/><path class="cls-1" d="M92.38,241.72c1.92-.19,2.37-.74,1.7-2.16l-.91,1.82-.7-1.22Z"/><path class="cls-1" d="M75.71,270.68l2.08-2.27-.25-.25c-.86.59-2,.92-2.16,2.21Z"/><path class="cls-1" d="M78.69,268c.11-.42.2-.85.34-1.26s.39-1,.62-1.55L79,265l-.85,2.88Z"/><path class="cls-1" d="M112,246.26l.5,1.09c1.25-1.78,1.64-3.32,1-3.68Z"/><path class="cls-1" d="M112.89,249l2.07-1.37-1.23-1.32Z"/><path class="cls-1" d="M134.84,235.07c-1.91.62-.61,1.9-.88,2.91C134.89,237.39,135.14,236.52,134.84,235.07Z"/><path class="cls-1" d="M128.54,252.08a2.31,2.31,0,0,0,1.26-2.79C128.57,249.82,129.23,251.28,128.54,252.08Z"/><path class="cls-1" d="M129.88,248.88l1.31-2.19-.16-.11-1.81,1.35Z"/><path class="cls-1" d="M142.44,144c-1.08,1.34,0,2.89-.21,4.32l.46,0,.39-4.23Z"/><path class="cls-1" d="M150.36,142.5l1.36-6.26c-.55.75-1.15,1.2-1.26,1.75a19.31,19.31,0,0,0-.51,6.22c1.7-1.11,1.55-2.73,1.66-4.25l-.72,2.65Z"/><path class="cls-1" d="M151.87,133v1.37l1.76-2.22H151l-.54.85Z"/><path class="cls-1" d="M151.79,142.09c.51.48,1,.88.1,1.5-.37.25-.43.93-.72,1.63,1.56-.74,2.1-1.85,1.65-3.07-.08-.21-.51-.3-.78-.44Z"/><path class="cls-1" d="M57.08,270.73c.66-.05,1.31-.09,2-.18a5.73,5.73,0,0,0,0-.78L57,270Z"/><path class="cls-1" d="M57.14,274.3l.71-2.28-.48-.13c-1,.53-.5,1.53-.56,2.35Z"/><path class="cls-1" d="M159.58,128c1-1.09,1-2.17,0-2.43Z"/><path class="cls-1" d="M159.47,135.17l-.1,1.29-1.52.46,1.5,1c-.18-1,1.53-1.68.09-2.69Z"/><path class="cls-1" d="M167.41,124.61c1-1.7,1.75-3.43,1.08-5.33l-.4-.06C167.87,121,167.64,122.81,167.41,124.61Z"/><path class="cls-1" d="M168.28,128.49c-.29,1.13-.57,2.27-.86,3.4l.46.1c1-1,.45-2.3.73-3.44Z"/><path class="cls-1" d="M43,284.08l.26-1.18,1.06-.64-.74-.74a3.69,3.69,0,0,0-.71.84,10.89,10.89,0,0,0-.37,1.62Z"/><path class="cls-1" d="M195,190.11h-1.48c-1.34,0-1.84.56-1.54,1.86a1.29,1.29,0,0,0,.79.74c1.53.44,3.06.85,4.61,1.14a1.62,1.62,0,0,0,1.41-.46,1.76,1.76,0,0,0,.17-1.58A3.54,3.54,0,0,0,195,190.11Z"/><path class="cls-1" d="M191.61,196.06c0,2,.72,3.21,1.69,3.23s1.39-.54,1.38-1.54c0-1.9-.5-2.56-2.13-2.47C192.14,195.3,191.76,195.93,191.61,196.06Z"/><path class="cls-1" d="M111.23,181.39a11.88,11.88,0,0,0,1.85.63c.23,0,.53-.37.8-.58-.25-.25-.47-.67-.75-.71a8.28,8.28,0,0,0-1.72.06Z"/><path class="cls-1" d="M66.15,201c-.15,0-.32-.09-.48-.16-.4-.18-1-.65-1.17-.53a5,5,0,0,0-1.68,1.55c-.68,1.12-.1,3.19,1,3.26a4.45,4.45,0,0,0,2.64-1.18c1.09-.88,1.93-2,3-3a1.31,1.31,0,0,0,.27-2,9.46,9.46,0,0,0-1.8-1.83c-.63-.45-2.34.94-2.28,1.89A9.9,9.9,0,0,0,66.15,201Z"/></g></g></svg>