<?xml version="1.0" encoding="utf-8"?>
<!-- Generator: Adobe Illustrator 26.3.1, SVG Export Plug-In . SVG Version: 6.00 Build 0)  -->
<svg version="1.1" id="Calque_1" xmlns="http://www.w3.org/2000/svg" xmlns:xlink="http://www.w3.org/1999/xlink" x="0px" y="0px"
	 viewBox="0 0 114.6 149.9" style="enable-background:new 0 0 114.6 149.9;" xml:space="preserve">
<style type="text/css">
	.st0{fill:#F9ECF0;}
</style>
<g>
	<g>
		<g>
			<g>
				<g id="Zksaa8.tif_00000023993814411841009270000006817953038900289209_">
					<g>
						<path class="st0" d="M62.9,20.6c-1.1,1.9-2.9,2.4-5,2.3c-1.3-0.1-2.4-0.3-3.6-0.9c-1.7-0.8-2.8-2.2-3.5-4
							c-0.7-1.7-1.2-3.5-1.2-5.3c0-3.2,0.8-6.1,2.8-8.7c0.3-0.4,0.6-0.9,1-1.3c1.4-1.6,3.1-2.3,5.3-1.9c1.7,0.3,3.3,0.8,4.7,1.8
							c0,0,0.7,0.4,1.2,1.2C65.1,4.7,65,4.5,65,4.5c0.8,1.6,0.8,3.2,0.6,4.9c-0.1,1.2-0.5,2.3-1,3.4c-0.3,0.6-0.5,1.3-0.5,2
							C64.1,16.8,63.9,18.7,62.9,20.6L62.9,20.6z"/>
					</g>
				</g>
			</g>
		</g>
	</g>
	<g>
		<g>
			<g>
				<g id="Zksaa8.tif_00000032614204670412831250000003186980222213498505_">
					<g>
						<path class="st0" d="M62.9,44.1c-1.1,1.9-2.9,2.4-5,2.3c-1.3-0.1-2.4-0.3-3.6-0.9c-1.7-0.8-2.8-2.2-3.5-4
							c-0.7-1.7-1.2-3.5-1.2-5.3c0-3.2,0.8-6.1,2.8-8.7c0.3-0.4,0.6-0.9,1-1.3c1.4-1.6,3.1-2.3,5.3-1.9c1.7,0.3,3.3,0.8,4.7,1.8
							c0,0,0.7,0.4,1.2,1.2c0.4,0.8,0.4,0.7,0.4,0.7c0.8,1.6,0.8,3.2,0.6,4.9c-0.1,1.2-0.5,2.3-1,3.4c-0.3,0.6-0.5,1.3-0.5,2
							C64.1,40.3,63.9,42.3,62.9,44.1L62.9,44.1z"/>
					</g>
				</g>
			</g>
		</g>
	</g>
	<g>
		<g>
			<g>
				<g id="Zksaa8.tif_00000061444947661746557720000005807192710031633586_">
					<g>
						<path class="st0" d="M62.9,67.7c-1.1,1.9-2.9,2.4-5,2.3c-1.3-0.1-2.4-0.3-3.6-0.9c-1.7-0.8-2.8-2.2-3.5-4
							c-0.7-1.7-1.2-3.5-1.2-5.3c0-3.2,0.8-6.1,2.8-8.7c0.3-0.4,0.6-0.9,1-1.3c1.4-1.6,3.1-2.3,5.3-1.9c1.7,0.3,3.3,0.8,4.7,1.8
							c0,0,0.7,0.4,1.2,1.2c0.4,0.8,0.4,0.7,0.4,0.7c0.8,1.6,0.8,3.2,0.6,4.9c-0.1,1.2-0.5,2.3-1,3.4c-0.3,0.6-0.5,1.3-0.5,2
							C64.1,63.9,63.9,65.9,62.9,67.7L62.9,67.7z"/>
					</g>
				</g>
			</g>
		</g>
	</g>
	<g>
		<g>
			<g>
				<g id="Zksaa8.tif_00000011738288150590336040000018237035493363729812_">
					<g>
						<path class="st0" d="M62.9,91.3c-1.1,1.9-2.9,2.4-5,2.3c-1.3-0.1-2.4-0.3-3.6-0.9c-1.7-0.8-2.8-2.2-3.5-4
							c-0.7-1.7-1.2-3.5-1.2-5.3c0-3.2,0.8-6.1,2.8-8.7c0.3-0.4,0.6-0.9,1-1.3c1.4-1.6,3.1-2.3,5.3-1.9c1.7,0.3,3.3,0.8,4.7,1.8
							c0,0,0.7,0.4,1.2,1.2c0.4,0.8,0.4,0.7,0.4,0.7c0.8,1.6,0.8,3.2,0.6,4.9c-0.1,1.2-0.5,2.3-1,3.4c-0.3,0.6-0.5,1.3-0.5,2
							C64.1,87.4,63.9,89.4,62.9,91.3L62.9,91.3z"/>
					</g>
				</g>
			</g>
		</g>
	</g>
	<g>
		<g>
			<g>
				<g id="Zksaa8.tif_00000129901315694815539210000007421453263731413917_">
					<g>
						<path class="st0" d="M62.9,114.8c-1.1,1.9-2.9,2.4-5,2.3c-1.3-0.1-2.4-0.3-3.6-0.9c-1.7-0.8-2.8-2.2-3.5-4
							c-0.7-1.7-1.2-3.5-1.2-5.3c0-3.2,0.8-6.1,2.8-8.7c0.3-0.4,0.6-0.9,1-1.3c1.4-1.6,3.1-2.3,5.3-1.9c1.7,0.3,3.3,0.8,4.7,1.8
							c0,0,0.7,0.4,1.2,1.2c0.4,0.8,0.4,0.7,0.4,0.7c0.8,1.6,0.8,3.2,0.6,4.9c-0.1,1.2-0.5,2.3-1,3.4c-0.3,0.6-0.5,1.3-0.5,2
							C64.1,111,63.9,113,62.9,114.8L62.9,114.8z"/>
					</g>
				</g>
			</g>
		</g>
	</g>
	<g>
		<g>
			<g>
				<g id="Zksaa8.tif_00000161595163376099122190000001442246528170648236_">
					<g>
						<path class="st0" d="M62.9,147.4c-1.1,1.9-2.9,2.4-5,2.3c-1.3-0.1-2.4-0.3-3.6-0.9c-1.7-0.8-2.8-2.2-3.5-4
							c-0.7-1.7-1.2-3.5-1.2-5.3c0-3.2,0.8-6.1,2.8-8.7c0.3-0.4,0.6-0.9,1-1.3c1.4-1.6,3.1-2.3,5.3-1.9c1.7,0.3,3.3,0.8,4.7,1.8
							c0,0,0.7,0.4,1.2,1.2c0.4,0.8,0.4,0.7,0.4,0.7c0.8,1.6,0.8,3.2,0.6,4.9c-0.1,1.2-0.5,2.3-1,3.4c-0.3,0.6-0.5,1.3-0.5,2
							C64.1,143.5,63.9,145.5,62.9,147.4L62.9,147.4z"/>
					</g>
				</g>
			</g>
		</g>
	</g>
	<g>
		<g>
			<g>
				<g id="Zksaa8.tif_00000150094868581036534570000002636881801342372488_">
					<g>
						<path class="st0" d="M14.1,108.1c-1.1,1.9-2.9,2.4-5,2.3c-1.3-0.1-2.4-0.3-3.6-0.9c-1.7-0.8-2.8-2.2-3.5-4
							c-0.7-1.7-1.2-3.5-1.2-5.3c0-3.2,0.8-6.1,2.8-8.7c0.3-0.4,0.6-0.9,1-1.3c1.4-1.6,3.1-2.3,5.3-1.9c1.7,0.3,3.3,0.8,4.7,1.8
							c0,0,0.7,0.4,1.2,1.2s0.4,0.7,0.4,0.7c0.8,1.6,0.8,3.2,0.6,4.9c-0.1,1.2-0.5,2.3-1,3.4c-0.3,0.6-0.5,1.3-0.5,2
							C15.3,104.3,15.1,106.2,14.1,108.1L14.1,108.1z"/>
					</g>
				</g>
			</g>
		</g>
	</g>
	<g>
		<g>
			<g>
				<g id="Zksaa8.tif_00000174587786460126281070000018233070763322290342_">
					<g>
						<path class="st0" d="M28.4,122.4c-1.1,1.9-2.9,2.4-5,2.3c-1.3-0.1-2.4-0.3-3.6-0.9c-1.7-0.8-2.8-2.2-3.5-4
							c-0.7-1.7-1.2-3.5-1.2-5.3c0-3.2,0.8-6.1,2.8-8.7c0.3-0.4,0.6-0.9,1-1.3c1.4-1.6,3.1-2.3,5.3-1.9c1.7,0.3,3.3,0.8,4.7,1.8
							c0,0,0.7,0.4,1.2,1.2s0.4,0.7,0.4,0.7c0.8,1.6,0.8,3.2,0.6,4.9c-0.1,1.2-0.5,2.3-1,3.4c-0.3,0.6-0.5,1.3-0.5,2
							C29.6,118.6,29.4,120.5,28.4,122.4L28.4,122.4z"/>
					</g>
				</g>
			</g>
		</g>
	</g>
	<g>
		<g>
			<g>
				<g id="Zksaa8.tif_00000013160673678446154640000001578041646659295134_">
					<g>
						<path class="st0" d="M42.8,136.7c-1.1,1.9-2.9,2.4-5,2.3c-1.3-0.1-2.4-0.3-3.6-0.9c-1.7-0.8-2.8-2.2-3.5-4
							c-0.7-1.7-1.2-3.5-1.2-5.3c0-3.2,0.8-6.1,2.8-8.7c0.3-0.4,0.6-0.9,1-1.3c1.4-1.6,3.1-2.3,5.3-1.9c1.7,0.3,3.3,0.8,4.7,1.8
							c0,0,0.7,0.4,1.2,1.2c0.4,0.8,0.4,0.7,0.4,0.7c0.8,1.6,0.8,3.2,0.6,4.9c-0.1,1.2-0.5,2.3-1,3.4c-0.3,0.6-0.5,1.3-0.5,2
							C43.9,132.9,43.7,134.8,42.8,136.7L42.8,136.7z"/>
					</g>
				</g>
			</g>
		</g>
	</g>
	<g>
		<g>
			<g>
				<g id="Zksaa8.tif_00000050637666094862869290000009505214340299644056_">
					<g>
						<path class="st0" d="M100.5,104.7c1.1,1.9,2.9,2.4,5,2.3c1.3-0.1,2.4-0.3,3.6-0.9c1.7-0.8,2.8-2.2,3.5-4
							c0.7-1.7,1.2-3.5,1.2-5.3c0-3.2-0.8-6.1-2.8-8.7c-0.3-0.4-0.6-0.9-1-1.3c-1.4-1.6-3.1-2.3-5.3-1.9c-1.7,0.3-3.3,0.8-4.7,1.8
							c0,0-0.7,0.4-1.2,1.2c-0.4,0.8-0.4,0.7-0.4,0.7c-0.8,1.6-0.8,3.2-0.6,4.9c0.1,1.2,0.5,2.3,1,3.4c0.3,0.6,0.5,1.3,0.5,2
							C99.3,100.9,99.6,102.8,100.5,104.7L100.5,104.7z"/>
					</g>
				</g>
			</g>
		</g>
	</g>
	<g>
		<g>
			<g>
				<g id="Zksaa8.tif_00000183215121968092068260000009884187586932439181_">
					<g>
						<path class="st0" d="M86.2,119c1.1,1.9,2.9,2.4,5,2.3c1.3-0.1,2.4-0.3,3.6-0.9c1.7-0.8,2.8-2.2,3.5-4c0.7-1.7,1.2-3.5,1.2-5.3
							c0-3.2-0.8-6.1-2.8-8.7c-0.3-0.4-0.6-0.9-1-1.3c-1.4-1.6-3.1-2.3-5.3-1.9c-1.7,0.3-3.3,0.8-4.7,1.8c0,0-0.7,0.4-1.2,1.2
							s-0.4,0.7-0.4,0.7c-0.8,1.6-0.8,3.2-0.6,4.9c0.1,1.2,0.5,2.3,1,3.4c0.3,0.6,0.5,1.3,0.5,2C85,115.2,85.3,117.1,86.2,119
							L86.2,119z"/>
					</g>
				</g>
			</g>
		</g>
	</g>
	<g>
		<g>
			<g>
				<g id="Zksaa8.tif_00000005236608032710785130000009351941832425640363_">
					<g>
						<path class="st0" d="M71.9,133.3c1.1,1.9,2.9,2.4,5,2.3c1.3-0.1,2.4-0.3,3.6-0.9c1.7-0.8,2.8-2.2,3.5-4
							c0.7-1.7,1.2-3.5,1.2-5.3c0-3.2-0.8-6.1-2.8-8.7c-0.3-0.4-0.6-0.9-1-1.3c-1.4-1.6-3.1-2.3-5.3-1.9c-1.7,0.3-3.3,0.8-4.7,1.8
							c0,0-0.7,0.4-1.2,1.2s-0.4,0.7-0.4,0.7c-0.8,1.6-0.8,3.2-0.6,4.9c0.1,1.2,0.5,2.3,1,3.4c0.3,0.6,0.5,1.3,0.5,2
							C70.7,129.5,71,131.4,71.9,133.3L71.9,133.3z"/>
					</g>
				</g>
			</g>
		</g>
	</g>
</g>
</svg>
