<?xml version="1.0" encoding="utf-8"?>
<!-- Generator: Adobe Illustrator 26.3.1, SVG Export Plug-In . SVG Version: 6.00 Build 0)  -->
<svg version="1.1" id="Calque_1" xmlns="http://www.w3.org/2000/svg" xmlns:xlink="http://www.w3.org/1999/xlink" x="0px" y="0px"
	 viewBox="0 0 126.8 148.5" style="enable-background:new 0 0 126.8 148.5;" xml:space="preserve">
<style type="text/css">
	.st0{fill:#F8D372;}
</style>
<g>
	<g>
		<path class="st0" d="M67.1,9.4c0,0.6,0.1,1.4,0.1,1.4c0.5,3,0.2,7.9,0.2,7.9s-0.1,9.1-3,9.4c-2.2-0.5-2.4-4.5-2.4-5.7
			c-0.1-0.1-0.1-0.1-0.2-0.2c-0.4-0.5-1.7-6.1-0.3-11.9l0-0.8l-4-7.7l4.3,7.6L58.6,0l3.3,9.4l0,0l0,0l-1.5-6.7l1.8,6.7l0,0l0,0
			l-1.3-9l2,8.8l-0.5-6.9l0.7,7l-0.2-5.3l0.4,5.3L63.2,2l0.6,7.1l0-5.7L64,9.1l0,0.1l0-0.1l0.1-8.4l0.1,8.4l0,0l0,0l0.2-4.2
			l-0.1,4.2l0,0l0,0l0,0L65,2.4l-0.4,6.6L65.5,1l-0.5,8l1.8-8.3l-1.5,8.4l0,0l0,0l2.4-6.8l-2.2,6.8l2.6-5.9l-2.3,5.9c0,0,0,0,0,0
			l4-7.8L66,9.2c0,0,0,0,0,0l5.5-8.8l-5.2,8.8l4.3-6.4l-4.1,6.4l0,0l0,0l0,0l0,0l2.9-3.9l-2.7,3.9l0,0l0,0l5.8-7.2l-5.7,7.2l3.7-4
			L67.1,9.4z"/>
	</g>
	<g>
		<path class="st0" d="M67.1,37.2c0,0.6,0.1,1.4,0.1,1.4c0.5,3,0.2,7.9,0.2,7.9s-0.1,9.1-3,9.4c-2.2-0.5-2.4-4.5-2.4-5.7
			c-0.1-0.1-0.1-0.1-0.2-0.2c-0.4-0.5-1.7-6.1-0.3-11.9l0-0.8l-4-7.7l4.3,7.6l-3.1-9.4l3.3,9.4l0,0l0,0l-1.5-6.7l1.8,6.7l0,0l0,0
			l-1.3-9l2,8.8L62.4,30l0.7,7l-0.2-5.3l0.4,5.3l-0.1-7.1l0.6,7.1l0-5.7l0.2,5.7l0,0.1l0-0.1l0.1-8.4l0.1,8.4l0,0l0,0l0.2-4.2
			l-0.1,4.2l0,0l0,0l0,0l0.6-6.6l-0.4,6.6l0.9-8.1l-0.5,8l1.8-8.3l-1.5,8.4l0,0l0,0l2.4-6.8l-2.2,6.8l2.6-5.9L65.9,37c0,0,0,0,0,0
			l4-7.8L66,37c0,0,0,0,0,0l5.5-8.8L66.2,37l4.3-6.4l-4.1,6.4l0,0l0,0l0,0l0,0l2.9-3.9l-2.7,3.9l0,0l0,0l5.8-7.2l-5.7,7.2l3.7-4
			L67.1,37.2z"/>
	</g>
	<g>
		<path class="st0" d="M67.1,65.1c0,0.6,0.1,1.4,0.1,1.4c0.5,3,0.2,7.9,0.2,7.9s-0.1,9.1-3,9.4c-2.2-0.5-2.4-4.5-2.4-5.7
			c-0.1-0.1-0.1-0.1-0.2-0.2c-0.4-0.5-1.7-6.1-0.3-11.9l0-0.8l-4-7.7l4.3,7.6l-3.1-9.4l3.3,9.4l0,0l0,0l-1.5-6.7l1.8,6.7l0,0l0,0
			l-1.3-9l2,8.8l-0.5-6.9l0.7,7l-0.2-5.3l0.4,5.3l-0.1-7.1l0.6,7.1l0-5.7l0.2,5.7l0,0.1l0-0.1l0.1-8.4l0.1,8.4l0,0l0,0l0.2-4.2
			l-0.1,4.2l0,0l0,0l0,0l0.6-6.6l-0.4,6.6l0.9-8.1l-0.5,8l1.8-8.3l-1.5,8.4l0,0l0,0l2.4-6.8l-2.2,6.8l2.6-5.9l-2.3,5.9c0,0,0,0,0,0
			l4-7.8L66,64.8c0,0,0,0,0,0l5.5-8.8l-5.2,8.8l4.3-6.4l-4.1,6.4l0,0l0,0l0,0l0,0l2.9-3.9l-2.7,3.9l0,0l0,0l5.8-7.2L66.7,65l3.7-4
			L67.1,65.1z"/>
	</g>
	<g>
		<path class="st0" d="M67.1,92.9c0,0.6,0.1,1.4,0.1,1.4c0.5,3,0.2,7.9,0.2,7.9s-0.1,9.1-3,9.4c-2.2-0.5-2.4-4.5-2.4-5.7
			c-0.1-0.1-0.1-0.1-0.2-0.2c-0.4-0.5-1.7-6.1-0.3-11.9l0-0.8l-4-7.7l4.3,7.6l-3.1-9.4l3.3,9.4l0,0l0,0l-1.5-6.7l1.8,6.7l0,0l0,0
			l-1.3-9l2,8.8l-0.5-6.9l0.7,7l-0.2-5.3l0.4,5.3l-0.1-7.1l0.6,7.1l0-5.7l0.2,5.7l0,0.1l0-0.1l0.1-8.4l0.1,8.4l0,0l0,0l0.2-4.2
			l-0.1,4.2l0,0l0,0l0,0l0.6-6.6l-0.4,6.6l0.9-8.1l-0.5,8l1.8-8.3l-1.5,8.4l0,0l0,0l2.4-6.8l-2.2,6.8l2.6-5.9l-2.3,5.9c0,0,0,0,0,0
			l4-7.8L66,92.6c0,0,0,0,0,0l5.5-8.8l-5.2,8.8l4.3-6.4l-4.1,6.4l0,0l0,0l0,0l0,0l2.9-3.9l-2.7,3.9l0,0l0,0l5.8-7.2l-5.7,7.2l3.7-4
			L67.1,92.9z"/>
	</g>
	<g>
		<path class="st0" d="M67.1,129.3c0,0.6,0.1,1.4,0.1,1.4c0.5,3,0.2,7.9,0.2,7.9s-0.1,9.1-3,9.4c-2.2-0.5-2.4-4.5-2.4-5.7
			c-0.1-0.1-0.1-0.1-0.2-0.2c-0.4-0.5-1.7-6.1-0.3-11.9l0-0.8l-4-7.7l4.3,7.6l-3.1-9.4l3.3,9.4l0,0l0,0l-1.5-6.7l1.8,6.7l0,0l0,0
			l-1.3-9l2,8.8l-0.5-6.9l0.7,7l-0.2-5.3l0.4,5.3l-0.1-7.1l0.6,7.1l0-5.7l0.2,5.7l0,0.1l0-0.1l0.1-8.4l0.1,8.4l0,0l0,0l0.2-4.2
			l-0.1,4.2l0,0l0,0l0,0l0.6-6.6l-0.4,6.6l0.9-8.1l-0.5,8l1.8-8.3l-1.5,8.4l0,0l0,0l2.4-6.8l-2.2,6.8l2.6-5.9l-2.3,5.9c0,0,0,0,0,0
			l4-7.8L66,129c0,0,0,0,0,0l5.5-8.8l-5.2,8.8l4.3-6.4l-4.1,6.4l0,0l0,0l0,0l0,0l2.9-3.9l-2.7,3.9l0,0l0,0l5.8-7.2l-5.7,7.2l3.7-4
			L67.1,129.3z"/>
	</g>
	<g>
		<path class="st0" d="M85.1,116.9c0,0.6,0.1,1.4,0.1,1.4c0.5,3,0.2,7.9,0.2,7.9s-0.1,9.1-3,9.4c-2.2-0.5-2.4-4.5-2.4-5.7
			c-0.1-0.1-0.1-0.1-0.2-0.2c-0.4-0.5-1.7-6.1-0.3-11.9l0-0.8l-4-7.7l4.3,7.6l-3.1-9.4l3.3,9.4l0,0l0,0l-1.5-6.7l1.8,6.7l0,0l0,0
			l-1.3-9l2,8.8l-0.5-6.9l0.7,7l-0.2-5.3l0.4,5.3l-0.1-7.1l0.6,7.1l0-5.7l0.2,5.7l0,0.1l0-0.1l0.1-8.4l0.1,8.4l0,0l0,0l0.2-4.2
			l-0.1,4.2l0,0l0,0l0,0l0.6-6.6l-0.4,6.6l0.9-8.1l-0.5,8l1.8-8.3l-1.5,8.4l0,0l0,0l2.4-6.8l-2.2,6.8l2.6-5.9l-2.3,5.9c0,0,0,0,0,0
			l4-7.8l-3.9,7.8c0,0,0,0,0,0l5.5-8.8l-5.2,8.8l4.3-6.4l-4.1,6.4l0,0l0,0l0,0l0,0l2.9-3.9l-2.7,3.9l0,0l0,0l5.8-7.2l-5.7,7.2l3.7-4
			L85.1,116.9z"/>
	</g>
	<g>
		<path class="st0" d="M103.2,104.6c0,0.6,0.1,1.4,0.1,1.4c0.5,3,0.2,7.9,0.2,7.9s-0.1,9.1-3,9.4c-2.2-0.5-2.4-4.5-2.4-5.7
			c-0.1-0.1-0.1-0.1-0.2-0.2c-0.4-0.5-1.7-6.1-0.3-11.9l0-0.8l-4-7.7l4.3,7.6l-3.1-9.4l3.3,9.4l0,0l0,0l-1.5-6.7l1.8,6.7l0,0l0,0
			l-1.3-9l2,8.8l-0.5-6.9l0.7,7L99,98.9l0.4,5.3l-0.1-7.1l0.6,7.1l0-5.7l0.2,5.7l0,0.1l0-0.1l0.1-8.4l0.1,8.4l0,0l0,0l0.2-4.2
			l-0.1,4.2l0,0l0,0l0,0l0.6-6.6l-0.4,6.6l0.9-8.1l-0.5,8l1.8-8.3l-1.5,8.4l0,0l0,0l2.4-6.8l-2.2,6.8l2.6-5.9l-2.3,5.9c0,0,0,0,0,0
			l4-7.8l-3.9,7.8c0,0,0,0,0,0l5.5-8.8l-5.2,8.8l4.3-6.4l-4.1,6.4l0,0l0,0l0,0l0,0l2.9-3.9l-2.7,3.9l0,0l0,0l5.8-7.2l-5.7,7.2l3.7-4
			L103.2,104.6z"/>
	</g>
	<g>
		<path class="st0" d="M121.2,92.3c0,0.6,0.1,1.4,0.1,1.4c0.5,3,0.2,7.9,0.2,7.9s-0.1,9.1-3,9.4c-2.2-0.5-2.4-4.5-2.4-5.7
			c-0.1-0.1-0.1-0.1-0.2-0.2c-0.4-0.5-1.7-6.1-0.3-11.9l0-0.8l-4-7.7l4.3,7.6l-3.1-9.4l3.3,9.4l0,0l0,0l-1.5-6.7l1.8,6.7l0,0l0,0
			l-1.3-9l2,8.8l-0.5-6.9l0.7,7l-0.2-5.3l0.4,5.3l-0.1-7.1l0.6,7.1l0-5.7l0.2,5.7l0,0.1l0-0.1l0.1-8.4l0.1,8.4l0,0l0,0l0.2-4.2
			l-0.1,4.2l0,0l0,0l0,0l0.6-6.6l-0.4,6.6l0.9-8.1l-0.5,8l1.8-8.3l-1.5,8.4l0,0l0,0l2.4-6.8l-2.2,6.8l2.6-5.9l-2.3,5.9c0,0,0,0,0,0
			l4-7.8l-3.9,7.8c0,0,0,0,0,0l5.5-8.8l-5.2,8.8l4.3-6.4l-4.1,6.4l0,0l0,0l0,0l0,0l2.9-3.9l-2.7,3.9l0,0l0,0l5.8-7.2l-5.7,7.2l3.7-4
			L121.2,92.3z"/>
	</g>
	<g>
		<path class="st0" d="M41.4,120.1c0,0.6-0.1,1.4-0.1,1.4c-0.5,3-0.2,7.9-0.2,7.9s0.1,9.1,3,9.4c2.2-0.5,2.4-4.5,2.4-5.7
			c0.1-0.1,0.1-0.1,0.2-0.2c0.4-0.5,1.7-6.1,0.3-11.9l0-0.8l4-7.7l-4.3,7.6l3.1-9.4l-3.3,9.4l0,0l0,0l1.5-6.7l-1.8,6.7l0,0l0,0
			l1.3-9l-2,8.8l0.5-6.9l-0.7,7l0.2-5.3l-0.4,5.3l0.1-7.1l-0.6,7.1l0-5.7l-0.2,5.7l0,0.1l0-0.1l-0.1-8.4l-0.1,8.4l0,0l0,0l-0.2-4.2
			l0.1,4.2l0,0l0,0l0,0l-0.6-6.6l0.4,6.6l-0.9-8.1l0.5,8l-1.8-8.3l1.5,8.4l0,0l0,0l-2.4-6.8l2.2,6.8l-2.6-5.9l2.3,5.9c0,0,0,0,0,0
			l-4-7.8l3.9,7.8c0,0,0,0,0,0l-5.5-8.8l5.2,8.8l-4.3-6.4l4.1,6.4l0,0l0,0l0,0l0,0l-2.9-3.9l2.7,3.9l0,0l0,0l-5.8-7.2l5.7,7.2
			l-3.7-4L41.4,120.1z"/>
	</g>
	<g>
		<path class="st0" d="M23.4,107.8c0,0.6-0.1,1.4-0.1,1.4c-0.5,3-0.2,7.9-0.2,7.9s0.1,9.1,3,9.4c2.2-0.5,2.4-4.5,2.4-5.7
			c0.1-0.1,0.1-0.1,0.2-0.2c0.4-0.5,1.7-6.1,0.3-11.9l0-0.8l4-7.7l-4.3,7.6l3.1-9.4l-3.3,9.4l0,0l0,0l1.5-6.7l-1.8,6.7l0,0l0,0
			l1.3-9l-2,8.8l0.5-6.9l-0.7,7l0.2-5.3l-0.4,5.3l0.1-7.1l-0.6,7.1l0-5.7l-0.2,5.7l0,0.1l0-0.1L26.3,99l-0.1,8.4l0,0l0,0l-0.2-4.2
			l0.1,4.2l0,0l0,0l0,0l-0.6-6.6l0.4,6.6l-0.9-8.1l0.5,8l-1.8-8.3l1.5,8.4l0,0l0,0l-2.4-6.8l2.2,6.8l-2.6-5.9l2.3,5.9c0,0,0,0,0,0
			l-4-7.8l3.9,7.8c0,0,0,0,0,0L19,98.7l5.2,8.8l-4.3-6.4l4.1,6.4l0,0l0,0l0,0l0,0l-2.9-3.9l2.7,3.9l0,0l0,0l-5.8-7.2l5.7,7.2l-3.7-4
			L23.4,107.8z"/>
	</g>
	<g>
		<path class="st0" d="M5.3,95.5c0,0.6-0.1,1.4-0.1,1.4c-0.5,3-0.2,7.9-0.2,7.9s0.1,9.1,3,9.4c2.2-0.5,2.4-4.5,2.4-5.7
			c0.1-0.1,0.1-0.1,0.2-0.2c0.4-0.5,1.7-6.1,0.3-11.9l0-0.8l4-7.7l-4.3,7.6l3.1-9.4l-3.3,9.4l0,0l0,0l1.5-6.7l-1.8,6.7l0,0l0,0
			l1.3-9l-2,8.8l0.5-6.9l-0.7,7l0.2-5.3l-0.4,5.3l0.1-7.1l-0.6,7.1l0-5.7l-0.2,5.7l0,0.1l0-0.1l-0.1-8.4l-0.1,8.4l0,0l0,0L8,90.9
			L8,95.1l0,0l0,0l0,0l-0.6-6.6l0.4,6.6L6.9,87l0.5,8l-1.8-8.3l1.5,8.4l0,0l0,0l-2.4-6.8l2.2,6.8l-2.6-5.9l2.3,5.9c0,0,0,0,0,0
			l-4-7.8l3.9,7.8c0,0,0,0,0,0l-5.5-8.8l5.2,8.8l-4.3-6.4L6,95.3l0,0l0,0l0,0l0,0l-2.9-3.9l2.7,3.9l0,0l0,0L0,88.1l5.7,7.2l-3.7-4
			L5.3,95.5z"/>
	</g>
</g>
</svg>
