<?xml version="1.0" encoding="utf-8"?>
<!-- Generator: Adobe Illustrator 26.3.1, SVG Export Plug-In . SVG Version: 6.00 Build 0)  -->
<svg version="1.1" id="Calque_1" xmlns="http://www.w3.org/2000/svg" xmlns:xlink="http://www.w3.org/1999/xlink" x="0px" y="0px"
	 viewBox="0 0 220.6 259.2" style="enable-background:new 0 0 220.6 259.2;" xml:space="preserve">
<style type="text/css">
	.st0{fill:#849A84;}
</style>
<g>
	<g>
		<path class="st0" d="M102.6,240.5c0-1-0.2-2.4-0.2-2.4c-0.8-5.2-0.3-13.6-0.3-13.6s0.2-15.6,5.2-16.1c3.8,0.9,4.1,7.8,4.1,9.8
			c0.2,0.2,0.2,0.2,0.3,0.3c0.7,0.9,2.9,10.5,0.4,20.5l0,1.4l6.8,13.3l-7.3-13.1l5.4,16.2l-5.6-16.2l0,0l0,0l2.5,11.5l-3-11.5l0,0
			l0,0l2.2,15.5l-3.4-15.1l0.8,11.9l-1.2-12l0.3,9.1l-0.7-9.1l0.1,12.6l-1-12.2l0,9.8l-0.3-9.8l0-0.2l0,0.2l-0.2,14.4l-0.1-14.4l0,0
			l0,0l-0.4,7.2l0.2-7.2l0,0l0,0l0,0l-1.3,11.5l0.7-11.3l-1.6,13.8l0.9-13.8l-3.2,14.3l2.6-14.4l0,0l0,0l-4.2,11.7l3.8-11.7
			l-4.5,10.1l4-10.1l0,0l-6.9,13.4l6.6-13.6l0,0L95,255.9l9-15.1l-7.4,11l7.1-11l0,0l0,0l0,0l0,0l-5,6.7l4.7-6.7l0,0l0,0l-10,12.3
			l9.9-12.3l-6.4,6.9L102.6,240.5z"/>
	</g>
	<g>
		<path class="st0" d="M102.8,192.6c0-1-0.2-2.4-0.2-2.4c-0.8-5.2-0.3-13.6-0.3-13.6s0.2-15.6,5.2-16.1c3.8,0.9,4.1,7.8,4.1,9.8
			c0.2,0.2,0.2,0.2,0.3,0.3c0.7,0.9,2.9,10.5,0.4,20.5l0,1.4l6.8,13.3l-7.3-13.1l5.3,16.2l-5.6-16.2l0,0l0,0l2.5,11.5l-3-11.5l0,0
			l0,0l2.2,15.5l-3.4-15.1l1,12l-1.2-12l0.3,9.1l-0.7-9.1l0.1,12.2l-1-12.2l0,9.8l-0.3-9.8l0-0.2l0,0.2l-0.2,14.4l-0.1-14.4l0,0l0,0
			l-0.4,7.2l0.2-7.2l0,0l0,0l0,0l-1.1,11.3l0.7-11.3l-1.6,13.9l0.9-13.8l-3.2,14.3l2.6-14.4l0,0l0,0l-4.2,11.7l3.8-11.7l-4.5,10.1
			l3.7-10.1l0,0l-6.9,13.4l6.8-13.4l0,0l-9.5,15.1l9.2-15.1l-7.4,11l7.1-11l0,0l0,0l0,0l0,0l-5,6.7l4.7-6.7l0,0l0,0l-10,12.3
			l9.9-12.3l-6.4,6.9L102.8,192.6z"/>
	</g>
	<g>
		<path class="st0" d="M103,144.7c0-1-0.2-2.4-0.2-2.4c-0.8-5.2-0.3-13.6-0.3-13.6s0.2-15.6,5.2-16.1c3.8,0.9,4.1,7.8,4.1,9.8
			c0.2,0.2,0.2,0.2,0.3,0.3c0.7,0.9,2.9,10.5,0.4,20.5l0,1.4l6.8,13.3l-7.3-13.1l5.3,16.2l-5.6-16.2l0,0l0,0l2.5,11.5l-3-11.5l0,0
			l0,0l2.2,15.5L110,145l0.8,11.9l-1.2-12l0.3,9.1l-0.7-9.1l0.1,12.2l-1-12.2l0,9.8l-0.3-9.8l0-0.2l0,0.2l-0.2,14.4l-0.1-14.4l0,0
			l0,0l-0.4,7.2l0.2-7.2l0,0l0,0l0,0l-1.1,11.3l0.7-11.3l-1.6,13.9l0.9-13.8l-3.2,14.3l2.6-14.4l0,0l0,0l-4.2,11.7l3.8-11.7
			l-4.5,10.1l4-10.1l0,0l-6.9,13.4l6.6-13l0,0l-9.5,15.1l9-15.1l-7.4,11l7.1-11l0,0l0,0l0,0l0,0l-5,6.7l4.7-6.7l0,0l0,0l-10,12.3
			l10-12.7l-6.4,6.9L103,144.7z"/>
	</g>
	<g>
		<path class="st0" d="M103.2,96.8c0-1-0.2-2.4-0.2-2.4c-0.8-5.2-0.3-13.6-0.3-13.6s0.2-15.6,5.2-16.1c3.8,0.9,4.1,7.8,4.1,9.8
			c0.2,0.2,0.2,0.2,0.3,0.3c0.7,0.9,2.9,10.5,0.4,20.5l0,1.4l6.8,13.3l-7.3-13.1l5.3,16.2L112,96.9l0,0l0,0l2.5,11.5l-3-11.5l0,0
			l0,0l2.2,15.5l-3.4-15.1l0.8,11.9l-1.2-12l0.3,9.1l-0.7-9.1l0.1,12.2l-1-12.2l0,9.8l-0.3-9.8l0-0.2l0,0.2l-0.2,14.4L108,97l0,0
			l0,0l-0.4,7.2l0.2-7.2l0,0l0,0l0,0l-1.1,11.3l0.7-11.3l-1.6,13.9l0.9-13.8l-3.2,14.3l2.6-14.4l0,0l0,0l-4.2,11.7l3.8-11.7
			l-4.5,10.1l4-10.1l0,0l-6.9,13.4l6.6-13l0,0l-9.5,15.1l9-15.1l-7.4,11l7.1-11l0,0l0,0l0,0l0,0l-5,6.7l4.7-6.7l0,0l0,0l-10,12.3
			l9.9-12.3l-6.4,6.9L103.2,96.8z"/>
	</g>
	<g>
		<path class="st0" d="M103.4,34.2c0-1-0.2-2.4-0.2-2.4c-0.8-5.2-0.3-13.6-0.3-13.6s0.2-15.6,5.2-16.1c3.8,0.9,4.1,7.8,4.1,9.8
			c0.2,0.2,0.2,0.2,0.3,0.3c0.7,0.9,2.9,10.5,0.4,20.5l0,1.4l6.8,13.3l-7.3-13.1l5.3,16.2l-5.6-16.2l0,0l0,0l2.5,11.5l-3-11.5l0,0
			l0,0l2.2,15.5l-3.4-15.1l0.8,11.9l-1.2-12l0.3,9.1l-0.7-9.1l0.1,12.2l-1-12.2l0,9.8l-0.3-9.8l0-0.2l0,0.2l-0.2,14.4l-0.1-14.4l0,0
			l0,0l-0.4,7.2l0.2-7.2l0,0l0,0l0,0L107,45.8l0.7-11.3l-1.6,13.9l0.9-13.8l-3.2,14.3l2.6-14.4l0,0l0,0l-4.2,11.7l3.8-11.7
			l-4.5,10.1l4-10.1l0,0l-6.9,13.4l6.6-13l0,0l-9.5,15.1l9-15.1l-7.4,11l7.1-11l0,0l0,0l0,0l0,0l-5,6.7l4.7-6.7l0,0l0,0l-10,12.3
			l9.9-12.3l-6.4,6.9L103.4,34.2z"/>
	</g>
	<g>
		<path class="st0" d="M72.4,55.4c0-1-0.2-2.4-0.2-2.4c-0.8-5.2-0.3-13.6-0.3-13.6s0.2-15.6,5.2-16.1c3.8,0.9,4.1,7.8,4.1,9.8
			c0.2,0.2,0.2,0.2,0.3,0.3c0.7,0.9,2.9,10.5,0.4,20.5l0,1.4l6.8,13.3l-7.3-13.1l5.3,16.2l-5.6-16.2l0,0l0,0L83.7,67l-3-11.5l0,0
			l0,0L82.8,71l-3.4-15.1l0.8,11.9l-1.2-12l0.3,9.1l-0.7-9.1l0.1,12.2l-1-12.2l0,9.8l-0.3-9.8l0-0.2l0,0.2l-0.2,14.4l-0.1-14.4l0,0
			l0,0l-0.4,7.2l0.2-7.2l0,0l0,0l0,0L76,67l0.7-11.3l-1.6,13.9L76,55.8l-3.2,14.3l2.6-14.4l0,0l0,0l-4.2,11.7l3.8-11.7l-4.5,10.1
			l4-10.1l0,0L67.7,69l6.8-13.4l0,0l-9.5,15.1l9-15.1l-7.4,11l7.1-11l0,0l0,0l0,0l0,0l-5,6.7l4.7-6.7l0,0l0,0L63.2,68l9.9-12.3
			l-6.4,6.9L72.4,55.4z"/>
	</g>
	<g>
		<path class="st0" d="M41.2,76.5c0-1-0.2-2.4-0.2-2.4c-0.8-5.2-0.3-13.6-0.3-13.6S41,44.8,46,44.3c3.8,0.9,4.1,7.8,4.1,9.8
			c0.2,0.2,0.2,0.2,0.3,0.3c0.7,0.9,2.9,10.5,0.4,20.5l0,1.4l6.8,13.3l-7.3-13.1l5.3,16.2L50,76.5l0,0l0,0L52.5,88l-3-11.5l0,0l0,0
			L51.6,92l-3.4-15.1L49,88.7l-1.2-12l0.5,9.6l-0.7-9.1l0.1,12.2l-1-12.2l0,9.8l-0.3-9.8l0-0.2l0,0.2l-0.2,14.4l-0.1-14.4l0,0l0,0
			l-0.4,7.2l0.2-7.2l0,0l0,0l0,0l-1.1,11.3l0.7-11.3L44,91.1L45,77.3l-3.2,14.3l2.6-14.4l0,0l0,0l-4.2,11.7l3.8-11.7l-4.5,10.1
			l4-10.1l0,0l-6.9,13.4l6.8-13.4l0,0l-9.5,15.1l9-15.1l-7.4,11l7.1-11l0,0l0,0l0,0l0,0l-5,6.7l4.7-6.7l0,0l0,0l-10,12.3L42,77.2
			L35.6,84L41.2,76.5z"/>
	</g>
	<g>
		<path class="st0" d="M10.1,97.5c0-1-0.2-2.4-0.2-2.4c-0.8-5.2-0.3-13.6-0.3-13.6s0.2-15.6,5.2-16.1c3.8,0.9,4.1,7.8,4.1,9.8
			c0.2,0.2,0.2,0.2,0.3,0.3C20,76.4,22.2,86,19.8,96l0,1.4l6.8,13.3l-7.3-13.1l5.3,16.2l-5.6-16.2l0,0l0,0l2.5,11.5l-3-11.5l0,0l0,0
			l2.2,15.5l-3.4-15.1l0.8,11.9l-1.2-12l0.3,9.1l-0.7-9.1l0.1,12.2l-1-12.2l0,9.8l-0.3-9.8l0-0.2l0,0.2l-0.2,14.4L15,97.7l0,0l0,0
			l-0.4,7.2l0.2-7.2l0,0l0,0l0,0L13.7,109l0.7-11.3l-1.6,13.9l0.9-13.8l-3.2,14.3l2.6-14.4l0,0l0,0l-4.2,11.7l3.8-11.7l-4.5,10.1
			l4-10.1l0,0l-6.9,13.4l6.8-13.4l0,0l-9.5,15.1l9-15.1l-7.4,11l7.1-11l0,0l0,0l0,0l0,0l-5,6.7l4.7-6.7l0,0l0,0L1,110l9.9-12.3
			l-6.4,6.9L10.1,97.5z"/>
	</g>
	<g>
		<path class="st0" d="M147.6,50.2c0-1,0.2-2.4,0.2-2.4c0.9-5.2,0.4-13.6,0.4-13.6s-0.1-15.7-5.1-16.2c-3.8,0.8-4.2,7.7-4.2,9.8
			c-0.2,0.2-0.2,0.2-0.3,0.3c-0.7,0.9-3,10.5-0.6,20.5l0,1.4L131,63.3l7.4-13l-5.4,16.1l5.7-16.1l0,0l0,0l-2.6,11.5l3.1-11.5l0,0
			l0,0L137,65.7l3.5-15.1l-0.9,11.9l1.3-12l-0.4,9.1l0.7-9.1L141,62.6l1.1-12.2l0,9.8l0.4-9.8l0-0.2l0,0.2l0.1,14.4l0.2-14.4l0,0
			l0,0l0.3,7.2l-0.1-7.2l0,0l0,0l0,0l1,11.4l-0.6-11.4l1.5,13.9L144,50.6l3,14.3l-2.5-14.5l0,0l0,0l4.1,11.7l-3.7-11.7l4.4,10.2
			l-3.9-10.2l0,0l6.8,13.4l-6.7-13.4l0,0l9.4,15.2L146,50.4l7.3,11l-7-11l0,0l0,0l0,0l0,0l5,6.7l-4.6-6.7l0,0l0,0l9.9,12.4
			l-9.8-12.4l6.3,6.9L147.6,50.2z"/>
	</g>
	<g>
		<path class="st0" d="M178.4,71.5c0-1,0.2-2.4,0.2-2.4c0.9-5.2,0.4-13.6,0.4-13.6s-0.1-15.7-5.1-16.2c-3.8,0.8-4.2,7.7-4.2,9.8
			c-0.2,0.2-0.2,0.2-0.3,0.3c-0.7,0.9-3,10.5-0.6,20.5l0,1.4l-6.9,13.2l7.4-13l-5.4,16.1l5.7-16.1l0,0l0,0L167.1,83l3.1-11.5l0,0
			l0,0L167.9,87l3.5-15.1l-0.9,11.9l1.3-12l-0.4,9.1l0.7-9.1l-0.2,12.2l1.1-12.2l0,9.8l0.4-9.8l0-0.2l0,0.2l0.1,15l0.2-14.4l0,0l0,0
			l0.3,7.2l-0.1-7.2l0,0l0,0l0,0l1,11.4l-0.6-11.4l1.5,13.9l-0.8-13.8l3,14.3l-2.5-14.5l0,0l0,0l4.1,11.7l-3.7-11.7l4.4,10.2
			l-3.9-10.2l0,0l6.8,13.4l-6.7-13.4l0,0l9.6,15L177.1,72l7.3,11l-7-11l0,0l0,0l0,0l0,0l5,6.7l-4.6-6.7l0,0l0,0l9.9,12.4L177.9,72
			l6.3,6.9L178.4,71.5z"/>
	</g>
	<g>
		<path class="st0" d="M209.5,92.8c0-1,0.2-2.4,0.2-2.4c0.9-5.2,0.4-13.6,0.4-13.6S210,61.2,205,60.6c-3.8,0.8-4.2,7.7-4.2,9.8
			c-0.2,0.2-0.2,0.2-0.3,0.3c-0.7,0.9-3,10.5-0.6,20.5l0,1.4l-6.9,13.2l7.4-13l-5.4,16.1l5.7-16.1l0,0l0,0l-2.6,11.5l3.1-11.5l0,0
			l0,0l-2.3,15.5l3.5-15.1l-0.9,11.9l1.3-12l-0.4,9.1l0.7-9.1l-0.2,12.2L204,93l0,9.8l0.4-9.8l0-0.2l0,0.2l0.1,14.4l0.2-14.4l0,0
			l0,0l0.1,7.7l0-7.2l0,0l0,0l0,0l1,11.4l-0.6-11.4l1.5,13.9l-0.8-13.8l3,14.3l-2.5-14.5l0,0l0,0l4.1,11.7l-3.7-11.7l4.4,10.2
			l-3.9-10.2l0,0l6.8,13.4l-6.7-13.4l0,0l9.4,15.2l-8.9-15.2l7.3,11l-7-11.4l0,0l0,0l0,0l0,0l5,6.7l-4.6-6.7l0,0l0,0l9.9,12.4
			l-9.8-12.4l6.3,6.9L209.5,92.8z"/>
	</g>
</g>
</svg>
