<?xml version="1.0" encoding="utf-8"?>
<!-- Generator: Adobe Illustrator 26.3.1, SVG Export Plug-In . SVG Version: 6.00 Build 0)  -->
<svg version="1.1" id="Calque_1" xmlns="http://www.w3.org/2000/svg" xmlns:xlink="http://www.w3.org/1999/xlink" x="0px" y="0px"
	 viewBox="0 0 376.4 209.2" style="enable-background:new 0 0 376.4 209.2;" xml:space="preserve">
<style type="text/css">
	.st0{fill:#526891;}
	.st1{fill:#35466C;}
</style>
<polygon class="st0" points="0.6,84.5 0.6,208.5 375.6,208.5 375.6,0.7 0.6,0.7 0.6,62.3 "/>
<g>
	<path class="st1" d="M106.6,207.7H69.7c-0.5-0.9-0.9-1.7-1.4-2.6c0,0,0,0,0,0.1c-1.8-2.4-0.4-4.8,0.6-6.9c0.4-0.8,2.2-1.4,3.3-1.3
		c6.4,0.7,12.8,1.2,19,2.5C97.2,200.8,102.3,203.6,106.6,207.7z"/>
	<path class="st1" d="M292.1,91.5c2.9-1.2,5.8-2.3,8.7-3.4c0,0,0,0-0.1,0c2.7-1.4,4.8,0.3,6.7,1.6c0.7,0.5,1,2.4,0.8,3.4
		c-1.6,6.2-3.1,12.5-5.4,18.4c-3.4,8.8-9.8,15-18.5,18.8c-3.5,1.5-7,1.7-10.5,0.3c-3.9-1.6-5.6-4.8-5.9-8.8
		c-0.6-7.1,2.3-12.9,6.5-18.3C279.1,97.8,285.4,94.4,292.1,91.5z"/>
	<path class="st1" d="M308.6,182.1c-0.6-1-1.1-2-1.7-2.9c0,0,0,0,0,0c-0.7-0.9-0.1-1.7,0.2-2.5c0.1-0.3,0.8-0.5,1.2-0.5
		c2.3,0.3,4.6,0.5,6.9,1c3.3,0.7,5.9,2.7,7.7,5.6c0.7,1.2,1,2.4,0.7,3.7c-0.4,1.5-1.4,2.2-2.8,2.6c-2.5,0.6-4.8-0.2-6.9-1.4
		C311.5,186.4,309.9,184.4,308.6,182.1z"/>
	<path class="st1" d="M112.1,93c0.9-0.6,1.9-1.2,2.9-1.7c0,0,0,0,0,0c0.9-0.7,1.7-0.2,2.5,0.2c0.3,0.1,0.5,0.8,0.5,1.2
		c-0.2,2.3-0.3,4.6-0.8,6.9c-0.7,3.3-2.6,5.9-5.4,7.8c-1.1,0.7-2.4,1-3.7,0.8c-1.5-0.3-2.3-1.4-2.6-2.8c-0.6-2.5,0-4.8,1.2-6.9
		C107.8,96,109.9,94.4,112.1,93z"/>
	<path class="st1" d="M19.1,173c0.9-0.6,1.9-1.2,2.9-1.7c0,0,0,0,0,0c0.9-0.7,1.7-0.2,2.5,0.2c0.3,0.1,0.5,0.8,0.5,1.2
		c-0.2,2.3-0.3,4.6-0.8,6.9c-0.8,3.8-3.1,6.6-6.6,8.5c-3.2,0.6-4.6-0.7-5.2-2.7c-0.6-2.5,0-4.8,1.2-6.9
		C14.8,176,16.9,174.4,19.1,173z"/>
	<path class="st1" d="M57.8,112.4c0.5,0.4,1,0.8,1.4,1.2c0,0,0,0,0,0c0.5,0.3,0.4,0.9,0.4,1.3c0,0.2-0.3,0.4-0.5,0.5
		c-1.3,0.3-2.5,0.6-3.8,0.8c-2.1,0.3-4-0.4-5.7-2c-0.9-1.6-0.5-2.6,0.5-3.2c1.2-0.8,2.5-0.8,3.9-0.6
		C55.5,110.8,56.7,111.5,57.8,112.4z"/>
	<path class="st1" d="M166.7,169.3c-0.4,0.3-0.8,0.6-1.3,0.9c0,0,0,0,0,0c-0.4,0.3-0.8,0.1-1.1,0c-0.1-0.1-0.3-0.3-0.3-0.5
		c0-1.1,0-2.1,0.2-3.2c0.2-1.7,1.2-3.1,2.8-4.1c1.5-0.4,2.1,0.2,2.4,1.1c0.4,1.1,0.1,2.2-0.4,3.2
		C168.6,167.8,167.7,168.6,166.7,169.3z"/>
	<g>
		<path class="st1" d="M124.8,188.4c0.2,0.3,0.3,0.7,0.3,0.7c0.9,1.4,1.8,4,1.8,4s2,4.7,0.5,5.5c-1.2,0.2-2.2-1.8-2.5-2.4
			c-0.1,0-0.1,0-0.1-0.1c-0.3-0.2-2.2-2.8-2.8-6l-0.2-0.4l-3.8-3.1l3.9,3l-3.7-4.2l3.8,4.1l0,0l0,0l-2.2-3.1l2.4,3l0,0l0,0l-2.7-4.3
			l3,4.1l-1.8-3.5l1.9,3.4l-1.3-2.7l1.4,2.6l-1.6-3.6l1.9,3.5l-1.3-2.9l1.4,2.9l0,0l0,0l-1.8-4.3l1.9,4.3l0,0l0,0l-0.8-2.2l0.9,2.2
			l0,0l0,0l0,0l-1.2-3.5l1.3,3.5l-1.3-4.3l1.5,4.2l-0.9-4.7l1.1,4.6l0,0l0,0l-0.3-4l0.4,4l0-3.6l0.1,3.5c0,0,0,0,0,0l0.4-4.9
			l-0.3,4.8c0,0,0,0,0,0l0.9-5.7l-0.7,5.7l0.8-4.2l-0.7,4.2l0,0l0,0l0,0l0,0l0.6-2.6l-0.5,2.6l0,0l0,0l1.4-5l-1.3,5l1-2.9
			L124.8,188.4z"/>
		<path class="st1" d="M86.7,148.6c-0.5,1-1,2.2-1,2.2c-1.6,4.8-5.9,11.9-5.9,11.9s-7.3,13.6-11.9,11.7c-2.9-2.4-0.1-8.6,0.8-10.4
			c-0.1-0.1-0.1-0.3-0.1-0.5c-0.2-1.1,2.3-10.5,8.9-18.1l0.6-1.3l0-14.7l0.4,14.8l2.8-16.5l-2.5,16.6l0,0.1l0-0.1l3.1-11.3
			l-2.5,11.4l0,0l0,0l5.1-14.5l-3.9,14.7l4.7-10.8l-4.4,11l3.9-8.1l-3.6,8.3l5.4-10.6l-4.7,11l4.5-8.6l-4.2,8.8l0,0.1l0.1-0.1
			l6.8-12.5l-6.4,12.7l0,0l0,0l3.5-6.1l-3.3,6.2l0,0l0,0l0,0l6.1-9.4l-5.7,9.6l7.6-11.4l-7,11.7l9.2-11.1l-8.8,11.4l0,0l0,0l8.9-8.3
			l-8.6,8.5l8.4-6.8l-8,7.1c0,0,0,0,0,0l12.1-8.4l-11.9,8.6c0,0,0,0,0,0l15.1-8.9l-14.8,9.1l11.5-6.2l-11.3,6.4l0,0l-0.1,0.1l0.1,0
			l0,0l7.3-3.6l-7.1,3.8l-0.1,0l0.1,0l14.3-6.2l-14.2,6.3l8.7-3.1L86.7,148.6z"/>
		<path class="st1" d="M281.6,170.6c-0.2-0.2-0.5-0.4-0.5-0.4c-1.2-0.6-2.8-2-2.8-2s-3.2-2.4-2.5-3.5c0.7-0.6,2.2,0.3,2.6,0.6
			c0,0,0.1,0,0.1,0c0.3,0,2.6,1,4.3,3l0.3,0.2l3.8,0.6l-3.8-0.5l4.1,1.4l-4.2-1.3l0,0l0,0l2.8,1.2l-2.8-1.1l0,0l0,0l3.5,1.9
			l-3.6-1.6l2.6,1.6l-2.7-1.6l1.9,1.3l-2-1.2l2.5,1.8l-2.6-1.6l2,1.5l-2.1-1.4l0,0l0,0l2.9,2.2l-3-2.2l0,0l0,0l1.4,1.2l-1.5-1.1l0,0
			l0,0l0,0l2.2,1.9l-2.2-1.9l2.6,2.4l-2.7-2.3l2.5,2.8l-2.6-2.7l0,0l0,0l1.8,2.6l-1.8-2.5l1.4,2.4l-1.5-2.3c0,0,0,0,0,0l1.7,3.4
			l-1.7-3.4c0,0,0,0,0,0l1.7,4.2l-1.7-4.2l1.1,3.2l-1.2-3.1l0,0l0,0l0,0l0,0l0.6,2l-0.7-2l0,0l0,0l1,3.9l-1.1-3.9l0.4,2.3
			L281.6,170.6z"/>
		<path class="st1" d="M274.3,70.3c0.5,0.2,1.2,0.4,1.2,0.4c2.6,0.5,6.6,2.3,6.6,2.3s7.6,2.9,6.9,5.5c-1.1,1.7-4.5,0.6-5.5,0.3
			c-0.1,0-0.2,0.1-0.2,0.1c-0.6,0.2-5.7-0.5-10.1-3.4l-0.7-0.2l-7.7,1l7.7-1.2l-8.8-0.3l8.9,0.2l0,0l0,0l-6.1-0.9l6.1,0.5l0,0l0,0
			l-7.9-1.7l7.9,1.1l-5.9-1.7l6.1,1.5l-4.5-1.5l4.6,1.3l-5.9-2.1L273,73l-4.8-1.8l4.9,1.6l0.1,0l-0.1,0l-7-2.7l7.1,2.5l0,0l0,0
			l-3.4-1.4l3.5,1.3l0,0l0,0l0,0l-5.3-2.6l5.4,2.3l-6.5-3.2l6.6,2.9l-6.4-4l6.5,3.8l0,0l0,0l-4.9-4.1l5,3.9l-4.1-4l4.2,3.7
			c0,0,0,0,0,0l-5.2-5.8l5.3,5.6c0,0,0,0,0,0l-5.7-7.3l5.8,7.1l-4-5.6l4.1,5.5l0,0l0,0l0,0l0,0l-2.3-3.6l2.4,3.5l0,0l0,0l-4.2-7.1
			l4.3,7l-2.2-4.3L274.3,70.3z"/>
		<path class="st1" d="M351.6,101.7c0.1-0.3,0.2-0.7,0.2-0.7c0.3-1.4,1.3-3.6,1.3-3.6s1.7-4.1,3.1-3.7c0.9,0.6,0.3,2.5,0,3
			c0,0,0,0.1,0.1,0.1c0.1,0.3-0.4,3.1-2.1,5.4l-0.1,0.4l0.4,4.2l-0.5-4.2l-0.3,4.8l0.2-4.8l0,0l0,0l-0.6,3.3l0.4-3.3l0,0l0,0
			l-1.1,4.3l0.7-4.3l-1.1,3.2l0.9-3.3l-0.9,2.4l0.8-2.5l-1.2,3.2l1-3.3l-1.1,2.6l1-2.6l0,0l0,0l-1.6,3.8l1.5-3.8l0,0l0,0l-0.8,1.9
			l0.8-1.9l0,0l0,0l0,0l-1.5,2.9l1.4-2.9l-1.9,3.5l1.7-3.5l-2.3,3.4l2.2-3.5l0,0l0,0l-2.3,2.6l2.2-2.7l-2.2,2.2l2.1-2.2c0,0,0,0,0,0
			l-3.2,2.8l3.2-2.8c0,0,0,0,0,0l-4.1,3l4-3l-3.1,2.1l3.1-2.1l0,0l0,0l0,0l0,0l-2,1.2l1.9-1.3l0,0l0,0l-3.9,2.2l3.9-2.2l-2.4,1.1
			L351.6,101.7z"/>
		<path class="st1" d="M25.5,111.6l-16.3-1.4l9.6,1.6l-9.3-0.9c-0.9,0.7-2.1,1.5-2.1,1.5c-1.9,1.7-4.5,3.5-6.7,5V104
			c0.6-0.3,1.3-0.5,1.9-0.7l1.2-0.9l7.6-13.5l-7.2,13.8l11.1-13.8L4.3,102.9l8.6-8.8l-8.2,9.2L17,92.6L5.8,104.1l9.9-7.5L6,104.6
			l7.8-5.5l-7.5,5.8l10.4-7.1l-10,7.8l8.6-5.6l-8.3,5.9L6.8,106l0.1-0.1l12.7-8.1l-12.4,8.4l0,0l0.1,0l6.4-3.8l-6.3,4l10.5-5.6
			l-10.2,5.9l12.9-6.6L8,107.4l14.1-5.5l-13.9,6l-0.1,0l0.1,0l12.4-3.1l-12.2,3.4l11.3-1.9l-11,2.4c0,0,0,0,0,0l15.5-1.6L8.7,109
			l18.5-0.4l-18.3,0.8l13.8,0.2L9,109.6H8.9l0.1,0H9l8.6,0.5L9.1,110H9l0.1,0L25.5,111.6z"/>
	</g>
	<g>
		<g>
			<g id="Zksaa8.tif_00000038407896601413867000000014622320971263212982_">
				<g>
					<path class="st1" d="M343.5,133.3c0.9,1.1,0.8,2.2,0.4,3.4c-0.3,0.7-0.7,1.4-1.2,1.9c-0.8,0.8-1.9,1.2-3,1.3
						c-1.1,0.1-2.3,0-3.4-0.3c-1.9-0.6-3.5-1.7-4.6-3.4c-0.2-0.3-0.4-0.5-0.6-0.8c-0.7-1.2-0.8-2.3-0.1-3.5c0.5-0.9,1.1-1.8,2-2.5
						c0,0,0.4-0.4,0.9-0.5s0.5-0.1,0.5-0.1c1.1-0.2,2.1,0.2,3,0.6c0.7,0.3,1.2,0.7,1.8,1.2c0.3,0.3,0.7,0.5,1.1,0.7
						C341.4,131.9,342.5,132.4,343.5,133.3L343.5,133.3z"/>
				</g>
			</g>
			<g id="Zksaa8.tif_00000014635995707401629020000014271845635703696798_">
				<g>
					<path class="st1" d="M246.4,207.7h-11.3c0.4-0.6,0.9-1,1.5-1.4c0.4-0.3,0.7-0.6,0.9-1c0.7-1.2,1.5-2.2,2.6-3
						c1.3-0.8,2.5-0.4,3.7,0.3c0.7,0.5,1.3,1,1.8,1.7C246.3,205.3,246.5,206.4,246.4,207.7z"/>
				</g>
			</g>
			<g id="Zksaa8.tif_00000159447752382013361430000014071705633094015369_">
				<g>
					<path class="st1" d="M374.8,156.2v27.2c-1.3,1.7-2.9,3.2-4.6,4.5c-5.7,4.3-12.1,6.9-19.4,6.7c-1.2,0-2.4,0.1-3.6,0
						c-4.8-0.3-8.4-2.5-10.5-7c-1.6-3.5-3-7-3.2-10.9c0,0-0.4-1.8,0.5-3.7c0.5-1.1,0.7-1.5,0.7-1.5c1.7-3.5,4.7-5.8,8-7.7
						c2.3-1.3,4.8-2.2,7.3-2.8c1.5-0.3,3-1,4.2-1.8c3.7-2.7,7.6-4.9,12.2-5.7C370,152.9,372.6,154.1,374.8,156.2z"/>
				</g>
			</g>
			<g>
				<g id="Zksaa8.tif_00000005254882308633880020000002357142802600009151_">
					<g>
						<path class="st1" d="M67.9,80.2c0.5,2-0.4,3.5-1.9,4.7c-0.9,0.8-1.9,1.4-3,1.7c-1.7,0.5-3.4,0.3-4.9-0.4
							c-1.6-0.7-3-1.6-4.2-2.8c-2-2.1-3.4-4.6-3.7-7.6c0-0.5-0.1-1-0.2-1.5c-0.1-2,0.6-3.6,2.4-4.7c1.4-0.9,2.7-1.6,4.4-1.8
							c0,0,0.7-0.2,1.5,0c0.8,0.3,0.7,0.2,0.7,0.2c1.5,0.5,2.6,1.6,3.6,2.9c0.7,0.9,1.1,1.9,1.5,2.9c0.2,0.6,0.5,1.2,1,1.6
							C66.2,76.9,67.3,78.4,67.9,80.2L67.9,80.2z"/>
					</g>
				</g>
				<g id="Zksaa8.tif_00000027589571926014187260000012868351229609131164_">
					<g>
						<path class="st1" d="M178.6,190.6c-0.3-0.5-0.2-1,0.1-1.5c0.2-0.3,0.4-0.6,0.7-0.8c0.4-0.3,0.9-0.4,1.5-0.3
							c0.5,0.1,1,0.2,1.5,0.4c0.8,0.4,1.4,1,1.7,1.9c0.1,0.1,0.1,0.3,0.2,0.4c0.2,0.6,0.1,1.1-0.3,1.6c-0.3,0.4-0.7,0.7-1.1,0.9
							c0,0-0.2,0.1-0.4,0.1c-0.3,0-0.2,0-0.2,0c-0.5,0-0.9-0.2-1.3-0.5c-0.3-0.2-0.5-0.4-0.7-0.7c-0.1-0.1-0.3-0.3-0.4-0.4
							C179.4,191.4,179,191.1,178.6,190.6L178.6,190.6z"/>
					</g>
				</g>
				<g id="Zksaa8.tif_00000148624707081456027890000000251879646415677341_">
					<g>
						<path class="st1" d="M39,196.5c0.9-0.4,1.7-0.1,2.4,0.5c0.4,0.4,0.8,0.8,1.1,1.3c0.4,0.8,0.4,1.6,0.2,2.4
							c-0.2,0.8-0.5,1.6-1,2.3c-0.8,1.2-1.9,2-3.3,2.4c-0.2,0.1-0.5,0.2-0.7,0.2c-0.9,0.2-1.8,0-2.4-0.7c-0.5-0.6-1-1.2-1.3-1.9
							c0,0-0.2-0.3-0.1-0.7c0.1-0.4,0-0.3,0-0.3c0.1-0.8,0.6-1.4,1.1-2c0.4-0.4,0.8-0.7,1.2-1c0.3-0.2,0.5-0.4,0.7-0.6
							C37.5,197.6,38.2,197,39,196.5L39,196.5z"/>
					</g>
				</g>
				<g id="Zksaa8.tif_00000113315408997141427510000004528885118628778422_">
					<g>
						<path class="st1" d="M162.5,207.6C162.5,207.6,162.5,207.7,162.5,207.6l-4.5,0.1v0c0,0,0-0.2,0.1-0.3c0.1-0.1,0.1-0.1,0.1-0.1
							c0.2-0.3,0.5-0.4,0.9-0.6c0.2-0.1,0.5-0.1,0.7-0.1c0.1,0,0.3,0,0.4-0.1c0.4-0.2,0.8-0.3,1.2-0.3c0.5,0,0.7,0.3,0.9,0.8
							C162.4,207.1,162.5,207.4,162.5,207.6z"/>
					</g>
				</g>
			</g>
		</g>
	</g>
	<g id="Zksaa8.tif_00000147177968448718131380000011771527546257565862_">
		<g>
			<path class="st1" d="M7.3,151.6c-0.8-1.5-0.5-2.8,0.4-4.2c0.5-0.8,1.1-1.5,1.9-2c1.2-0.8,2.5-1,3.9-0.9c1.4,0.2,2.7,0.5,4,1.2
				c2.1,1.2,3.8,2.8,4.7,5.1c0.2,0.4,0.3,0.7,0.5,1.1c0.6,1.5,0.4,3-0.7,4.2c-0.9,1-1.8,1.9-3,2.5c0,0-0.5,0.4-1.2,0.3
				c-0.7,0-0.6,0-0.6,0c-1.3,0-2.4-0.7-3.5-1.4c-0.7-0.5-1.3-1.2-1.9-1.9c-0.3-0.4-0.7-0.8-1.1-1C9.4,153.8,8.2,152.9,7.3,151.6
				L7.3,151.6z"/>
		</g>
	</g>
	<path class="st1" d="M217.6,185.3c-2.7,0.5-4.6-0.8-6.1-2.8c-1-1.2-1.7-2.5-2.1-4c-0.6-2.3-0.2-4.4,0.8-6.5c1-2,2.2-3.9,3.9-5.4
		c2.9-2.6,6.3-4.3,10.3-4.5c0.7,0,1.3-0.1,2-0.1c2.6,0,4.7,1,6,3.4c1.1,1.8,1.9,3.7,2.2,5.8c0,0,0.3,1-0.1,2
		c-0.4,1.1-0.3,0.9-0.3,0.9c-0.8,2-2.3,3.4-4,4.5c-1.2,0.8-2.5,1.4-3.9,1.8c-0.8,0.3-1.6,0.7-2.2,1.2
		C222.1,183.3,220.1,184.7,217.6,185.3L217.6,185.3z"/>
</g>
</svg>
