<?xml version="1.0" encoding="utf-8"?>
<!-- Generator: Adobe Illustrator 26.3.1, SVG Export Plug-In . SVG Version: 6.00 Build 0)  -->
<svg version="1.1" id="Calque_1" xmlns="http://www.w3.org/2000/svg" xmlns:xlink="http://www.w3.org/1999/xlink" x="0px" y="0px"
	 viewBox="0 0 375 668.7" style="enable-background:new 0 0 375 668.7;" xml:space="preserve">
<style type="text/css">
	.st0{fill:#F9ECF0;}
	.st1{opacity:0.29;}
	.st2{fill:#CCD5CB;}
</style>
<path class="st0" d="M-0.5,0l0,668.7l376,0l0-668.7L-0.5,0z"/>
<g id="fr48Vy.tif_00000130613878255071831910000011940508263366122655_" class="st1">
	
		<image style="overflow:visible;" width="757" height="1337" xlink:href="D0393A29AEF3F83D.png"  transform="matrix(0.4968 0 0 0.501 -0.5393 -2.443977e-03)">
	</image>
</g>
<g>
	<g>
		<g>
			<g>
				<g id="Zksaa8.tif_00000096778788167000018970000003631615608560972950_">
					<g>
						<path class="st2" d="M290.8,615.5c-0.3-1.1,0.1-1.9,0.9-2.6c0.5-0.4,1-0.8,1.6-1c0.9-0.3,1.8-0.3,2.7,0.1
							c0.9,0.3,1.7,0.8,2.4,1.4c1.2,1.1,2,2.4,2.2,4c0,0.3,0.1,0.5,0.1,0.8c0.1,1.1-0.2,1.9-1.1,2.6c-0.7,0.5-1.4,0.9-2.3,1.1
							c0,0-0.4,0.1-0.8,0c-0.4-0.1-0.4-0.1-0.4-0.1c-0.8-0.2-1.5-0.8-2-1.5c-0.4-0.5-0.7-1-0.9-1.5c-0.1-0.3-0.3-0.6-0.6-0.9
							C291.7,617.2,291.1,616.4,290.8,615.5L290.8,615.5z"/>
					</g>
				</g>
			</g>
		</g>
	</g>
	<path class="st2" d="M178.9,525c-2.1-3-3.9-6.1-5.9-9.2c0,0,0,0,0,0.1c-2.3-2.8-0.8-5.6,0.3-8.1c0.4-1,2.5-1.8,3.8-1.7
		c7.5,0.4,15.1,0.7,22.5,1.9c10.9,1.8,19.5,7.8,25.9,16.9c2.5,3.6,3.6,7.6,2.8,12c-0.9,4.9-4.3,7.5-8.7,8.8
		c-8,2.3-15.4,0.3-22.5-3.3C189.2,538.4,183.7,532,178.9,525z"/>
	<path class="st2" d="M41.7,452.9c1.7-0.7,3.5-1.2,5.2-1.8c0,0,0,0,0,0c1.6-0.8,2.8,0.3,3.9,1.1c0.4,0.3,0.6,1.4,0.4,2
		c-1.1,3.6-2.1,7.3-3.6,10.8c-2.2,5.1-6.1,8.6-11.4,10.7c-2.1,0.8-4.1,0.9-6.2-0.1c-2.3-1-3.2-3-3.3-5.3c-0.2-4.2,1.7-7.6,4.3-10.6
		C33.9,456.3,37.7,454.4,41.7,452.9z"/>
	<path class="st2" d="M99.4,348c-1.6,1.6-3.3,3.1-5,4.7c0,0,0,0,0,0c-1.4,1.7-3.3,1.1-5,0.8c-0.6-0.1-1.4-1.3-1.5-2.1
		c-0.6-4.7-1.4-9.3-1.5-14c-0.2-6.9,2.5-12.9,7.3-17.9c1.9-2,4.2-3.1,7-3.1c3.1,0,5.1,1.7,6.5,4.3c2.4,4.6,2,9.5,0.6,14.2
		C106.5,340,103.1,344.2,99.4,348z"/>
	<path class="st2" d="M-25.2,299.8c-0.3-3.9-0.3-7.7-0.4-11.6c0,0,0,0,0,0.1c-0.6-3.8,2.3-5.5,4.7-7.2c0.9-0.7,3.2-0.2,4.3,0.5
		c6.6,4.5,13.4,8.8,19.5,14c9,7.6,13.6,17.7,14.5,29.5c0.3,4.7-0.8,8.9-3.9,12.5c-3.5,4-8,4.5-12.8,3.3c-8.6-2.2-14.3-8.1-18.8-15.3
		C-23.1,317.7-24.6,308.8-25.2,299.8z"/>
	<path class="st2" d="M220.7,138.6c4.6-2.4,9.3-4.5,13.9-6.7c0,0-0.1,0-0.1,0c4.2-2.7,7.9-0.2,11.3,1.8c1.3,0.7,2,3.8,1.7,5.6
		c-1.9,10.5-3.5,21-6.5,31.2c-4.4,15-14.2,26.1-28.1,33.5c-5.5,3-11.3,3.8-17.3,1.9c-6.7-2.1-9.8-7.2-10.9-13.8
		c-1.9-11.6,2.1-21.7,8.4-31.1C200,150.8,210,144.2,220.7,138.6z"/>
	<g>
		<g>
			<g>
				<g id="Zksaa8.tif_00000046311322326146523160000016583990026404176260_">
					<g>
						<path class="st2" d="M125.9,660.6c-1.5,2.8-3,5.6-4.8,8.2H3.8c-1.5-1.2-2.9-2.5-4.3-3.9v-97.5c2-1.6,4.1-3.1,6.3-4.4
							c0,0,4.7-3.9,11.4-4.5c4.4-0.4,5.4-0.5,5.6-0.5c0,0,0,0,0,0c12.9-0.8,24.1,4.1,34.9,10.5c7.5,4.4,13.9,10.2,19.8,16.6
							c3.4,3.6,7.6,7,12.1,9.1c13.7,6.4,26.2,14.1,36,25.8C135.2,633.4,133,646.8,125.9,660.6z"/>
					</g>
				</g>
			</g>
		</g>
	</g>
	<g>
		<g>
			<g>
				<g id="Zksaa8.tif_00000106131989913295763160000017483987768669775769_">
					<g>
						<path class="st2" d="M334.6,405.1c7.1-2.4,12.6,0.3,17.7,5.1c3,2.9,5.5,6.1,7.2,10c2.5,5.9,2.3,11.9,0.4,17.8
							c-1.9,5.8-4.5,11.4-8.5,16.1c-6.9,8.1-15.3,14-26,16.1c-1.8,0.4-3.5,0.9-5.2,1.1c-7.1,1.1-13-1-17.6-6.8
							c-3.6-4.5-6.7-9.3-8.2-14.9c0,0-1.1-2.5-0.5-5.5s0.5-2.5,0.5-2.5c1.3-5.7,4.9-10,9.1-13.8c2.9-2.7,6.2-4.7,9.8-6.5
							c2-1,4-2.4,5.5-4.1C323.3,412.3,328.2,407.8,334.6,405.1L334.6,405.1z"/>
					</g>
				</g>
			</g>
		</g>
	</g>
	<g>
		<g>
			<g>
				<g id="Zksaa8.tif_00000139261802050616546690000004771307103513935275_">
					<g>
						<path class="st2" d="M158.3,370.4c-2.9-2.2-3.3-5.2-2.7-8.5c0.4-2,1-3.9,2.1-5.6c1.7-2.6,4.2-4.1,7.1-4.9
							c2.9-0.8,5.8-1.3,8.8-0.9c5.1,0.6,9.8,2.4,13.5,6.2c0.6,0.6,1.3,1.2,1.9,1.8c2.4,2.6,3.1,5.5,2,9c-0.9,2.7-1.9,5.2-3.8,7.3
							c0,0-0.7,1.1-2.1,1.7s-1.1,0.5-1.1,0.5c-2.7,1-5.5,0.7-8.2,0c-1.8-0.4-3.4-1.2-5-2.1c-1-0.6-2.1-1-3.2-1.2
							C164.3,373,161.2,372.2,158.3,370.4L158.3,370.4z"/>
					</g>
				</g>
			</g>
		</g>
	</g>
	<g>
		<g>
			<g>
				<g id="Zksaa8.tif_00000137093764880048042600000009237430408758804133_">
					<g>
						<path class="st2" d="M417.8,305.6c-1.9,9.6-8.5,14.1-17.2,16.6c-5.3,1.5-10.5,2.3-16,1.6c-8.3-1-14.9-5.1-20.3-11
							c-5.4-5.9-10-12.5-12.7-20c-4.6-13.1-5.8-26.3-1.3-39.7c0.7-2.2,1.3-4.5,2.1-6.6c3.4-8.8,9.5-14.1,19-15.5
							c7.4-1.1,14.8-1.6,22.1,0.4c0,0,3.6,0.4,6.6,3.1c3,2.7,2.4,2.2,2.4,2.2c5.7,5.3,8.2,12.3,9.9,19.7c1.1,4.7,1.2,9.6,0.8,14.5
							c-0.2,3,0.1,6.2,1,9C417.1,288.1,418.9,296.6,417.8,305.6L417.8,305.6z"/>
					</g>
				</g>
			</g>
		</g>
	</g>
	<g>
		<g>
			<g>
				<g id="Zksaa8.tif_00000162347264537880240130000009219521857389300634_">
					<g>
						<path class="st2" d="M298.1,247.8c-1.4,2.3-3.5,2.8-5.9,2.7c-1.5-0.1-2.9-0.4-4.2-1.1c-2-1-3.4-2.7-4.2-4.7
							c-0.8-2-1.4-4.1-1.4-6.3c0-3.8,0.9-7.3,3.3-10.3c0.4-0.5,0.7-1,1.2-1.5c1.7-1.9,3.7-2.7,6.3-2.2c2,0.4,3.9,1,5.6,2.1
							c0,0,0.9,0.4,1.4,1.4s0.4,0.8,0.4,0.8c1,1.8,1,3.8,0.7,5.8c-0.2,1.4-0.6,2.7-1.2,4c-0.3,0.7-0.5,1.6-0.6,2.4
							C299.5,243.3,299.2,245.7,298.1,247.8L298.1,247.8z"/>
					</g>
				</g>
			</g>
		</g>
	</g>
	<g>
		<g>
			<g>
				<g id="Zksaa8.tif_00000123434610220500870140000000148564692700415894_">
					<g>
						<path class="st2" d="M86.3,232.6c2.1-1.3,4-0.8,6,0.4c1.2,0.7,2.2,1.6,3,2.7c1.2,1.7,1.6,3.6,1.4,5.6c-0.2,2-0.6,4-1.6,5.7
							c-1.6,3.1-3.9,5.5-7.1,6.9c-0.5,0.2-1,0.5-1.6,0.7c-2.2,0.9-4.2,0.6-6.1-0.9c-1.4-1.2-2.8-2.5-3.7-4.2c0,0-0.5-0.7-0.5-1.7
							s0-0.8,0-0.8c0-1.9,0.9-3.5,1.9-5c0.7-1.1,1.6-1.9,2.7-2.7c0.6-0.5,1.1-1,1.5-1.7C83.2,235.7,84.5,233.9,86.3,232.6
							L86.3,232.6z"/>
					</g>
				</g>
			</g>
		</g>
	</g>
	<g>
		<g>
			<g>
				<g id="Zksaa8.tif_00000052797270432883934290000001873254561268141496_">
					<g>
						<path class="st2" d="M214.4,600c-1.7-0.8-2.2-2.3-2.3-4c0-1.1,0.1-2.1,0.4-3.1c0.6-1.5,1.7-2.6,3-3.3c1.4-0.7,2.8-1.3,4.4-1.4
							c2.7-0.3,5.2,0.1,7.5,1.6c0.4,0.2,0.8,0.5,1.1,0.7c1.5,1,2.2,2.5,2,4.3c-0.2,1.4-0.4,2.8-1.1,4.1c0,0-0.2,0.7-0.9,1.1
							c-0.6,0.4-0.5,0.4-0.5,0.4c-1.2,0.8-2.6,0.9-4.1,0.9c-1,0-1.9-0.2-2.9-0.5c-0.5-0.2-1.1-0.3-1.7-0.2
							C217.7,600.7,216,600.6,214.4,600L214.4,600z"/>
					</g>
				</g>
			</g>
		</g>
	</g>
	<g>
		<g>
			<g>
				<g id="Zksaa8.tif_00000163761028713302666290000000417953802514293688_">
					<g>
						<path class="st2" d="M118.9,548.9c-1.8,2.4-4.3,2.7-7.1,2.2c-1.7-0.3-3.2-0.8-4.7-1.8c-2.2-1.4-3.4-3.5-4.1-5.9
							c-0.7-2.4-1.1-4.9-0.7-7.3c0.5-4.3,2-8.1,5.2-11.3c0.5-0.5,1-1.1,1.5-1.6c2.2-2,4.6-2.6,7.5-1.7c2.2,0.7,4.3,1.6,6.1,3.2
							c0,0,0.9,0.6,1.4,1.8s0.4,0.9,0.4,0.9c0.8,2.2,0.6,4.5,0,6.7c-0.4,1.6-1,3-1.9,4.4c-0.5,0.8-0.8,1.7-0.9,2.6
							C121.1,544,120.4,546.6,118.9,548.9L118.9,548.9z"/>
					</g>
				</g>
			</g>
		</g>
	</g>
	<path class="st2" d="M139.1,442.6c1.8-0.8,4.1-1.8,4.1-1.8c8.1-4.8,22.4-9.7,22.4-9.7s26.4-10.4,30.7-2.2
		c1.1,6.8-10.1,12.1-13.5,13.5c-0.1,0.3-0.2,0.6-0.4,0.8c-1.1,1.8-15.7,12.1-34,14.7l-2.4,1l-17.5,20.5l17-21.1l-23.6,19.8
		l23.2-20.3l0.1-0.1l-0.1,0.1l-17.7,12.1l17.1-13l0,0l0,0l-24.4,14.3l23-15.9l-19.4,9.4l19.2-10.3l-15.2,6.7l14.8-7.4l-20.2,8.5
		l19.6-9.9l-16.5,6.7l16.2-7.3l0.2-0.1l-0.2,0.1l-24.4,9.5l24.1-10.2l0.1,0l-0.1,0l-12.2,4.3l12.1-4.7l0,0l0.1,0l-0.1,0l-19.8,5.9
		l19.4-6.7l-24.2,6.9l23.7-8.1l-26,4.6l25.8-5.5l0.1,0l-0.1,0l-22.3,1.1l22.1-1.7l-19.9-0.5l19.6-0.3c0,0,0,0,0,0l-27-2.6l26.9,2.1
		c0,0,0,0,0,0l-31.7-5.5l31.6,4.8l-23.4-5l23.4,4.4l0.1,0l0.2,0l-0.2,0l-0.1,0l-14.5-3.7l14.4,3.2l0.2,0l-0.2-0.1l-27.5-8.3l27.4,8
		l-15.8-6L139.1,442.6z"/>
	<path class="st2" d="M60.5,533c-0.4-0.9-0.9-2.1-0.9-2.1c-2.4-4.1-4.7-11.4-4.7-11.4s-5-13.5-0.8-15.5c3.5-0.5,6,5.2,6.7,7
		c0.1,0,0.3,0.1,0.4,0.2c0.9,0.6,5.9,8.1,7.1,17.4l0.5,1.2l10.2,9.1l-10.5-8.9l9.8,12.1l-10.1-12l0,0l0,0l5.9,9.1l-6.4-8.8l0,0l0,0
		l7,12.5L67,531.1l4.6,9.9l-5-9.9l3.3,7.8l-3.6-7.6l4.1,10.3l-4.8-10l3.2,8.4l-3.5-8.3l0-0.1l0,0.1l4.5,12.4l-4.9-12.3l0,0l0,0
		l2.1,6.2l-2.3-6.2l0,0l0,0l0,0l2.8,10.1l-3.2-9.9l3.3,12.3l-3.8-12.1l2.1,13.2l-2.5-13.1l0-0.1l0,0l0.3,11.3l-0.6-11.2l-0.5,10.1
		l0-9.9c0,0,0,0,0,0l-1.6,13.7l1.4-13.6c0,0,0,0,0,0l-3.1,16l2.8-15.9l-2.8,11.8l2.5-11.8l0,0l0-0.1l0,0.1l0,0l-2,7.3l1.7-7.3l0-0.1
		l0,0.1l-4.5,13.8l4.3-13.8l-3.2,8L60.5,533z"/>
	<path class="st2" d="M19.1,386.5c-0.9,0.4-2.1,0.9-2.1,0.9c-4.1,2.4-11.4,4.7-11.4,4.7s-13.5,5-15.5,0.8c-0.5-3.5,5.2-6,7-6.7
		c0-0.1,0.1-0.3,0.2-0.4c0.6-0.9,8.1-5.9,17.3-7.1l1.2-0.5l9.1-10.2L16,378.4l12.1-9.8l-12,10.1l0,0l0,0l9.1-5.9l-8.8,6.4l0,0l0,0
		l12.5-7L17.2,380l9.9-4.6l-9.8,5l7.8-3.3l-7.6,3.6l10.3-4.1l-10,4.8l8.4-3.2l-8.3,3.6l-0.1,0l0.1,0l12.4-4.6L18,382.1l0,0l0,0
		l6.2-2.1l-6.2,2.3l0,0l0,0l0,0l10.1-2.8l-9.9,3.2l12.3-3.3l-12.1,3.8l13.2-2.1l-13.1,2.5l-0.1,0l0,0l11.3-0.3L18.7,384l10.1,0.5
		l-9.9,0c0,0,0,0,0,0l13.7,1.6l-13.6-1.3c0,0,0,0,0,0l16,3.1l-15.9-2.7l11.8,2.8L19,385.3l0,0l-0.1,0l0.1,0l0,0l7.3,2l-7.3-1.7
		l-0.1,0l0.1,0l13.8,4.5L19,385.8l8,3.2L19.1,386.5z"/>
	<path class="st2" d="M300.6,521.1c-1.1,1.1-2.5,2.5-2.5,2.5c-4.6,5.8-13.8,13.4-13.8,13.4s-16.6,15-22,10.1
		c-2.7-4.7,4.1-11.7,6.2-13.7c0-0.2,0-0.5,0-0.7c0.3-1.6,8.3-13.2,21-20.3l1.5-1.4l7.2-20l-6.7,20.3l11.9-21.2l-11.5,21.4l0,0.1
		l0.1-0.1l9.7-13.8l-9,14.3l0,0l0,0l14.1-17.3l-12.6,18.1l11.7-12.3l-11.4,12.9l9.3-9.2l-8.9,9.6l12.5-11.9l-11.8,12.7l10.4-9.5
		l-10,9.9l-0.1,0.1l0.1-0.1l15.4-13.7l-14.9,14.2l-0.1,0.1l0.1,0l7.8-6.6l-7.6,6.8l0,0l0,0l0,0l13-9.9l-12.5,10.3l15.9-11.8
		l-15.3,12.5l17.9-10.6l-17.5,11.2l-0.1,0l0.1,0l16.1-7l-15.8,7.4l14.8-5.1l-14.4,5.7c0,0,0,0,0,0l20.7-5.6l-20.4,5.9c0,0,0,0,0,0
		l24.9-4.7l-24.6,5.2l18.7-2.8l-18.5,3.2l-0.1,0l-0.1,0l0.1,0l0.1,0l11.7-1.2L300,520l-0.1,0l0.1,0l22.6-1.5l-22.4,1.7l13.3,0
		L300.6,521.1z"/>
	<path class="st2" d="M174.1,601.7c0.1,0.8,0.2,1.8,0.2,1.8c0.9,3.8,1.1,9.9,1.1,9.9s0.8,11.6-2.9,12.3c-2.8-0.4-3.5-5.4-3.6-6.9
		c-0.1-0.1-0.2-0.1-0.3-0.2c-0.6-0.6-2.8-7.6-1.6-15.1l-0.1-1.1l-5.9-9.4l6.2,9.3l-4.9-11.7l5.1,11.6l0,0l0,0l-2.6-8.4l3,8.3l0,0
		l0,0l-2.6-11.3l3.4,10.9l-1.3-8.8l1.7,8.8l-0.8-6.8l1.1,6.7l-0.9-8.9l1.5,8.9l-0.6-7.3l0.9,7.3l0,0.1l0-0.1l-0.7-10.7l1,10.7l0,0
		l0,0l-0.2-5.3l0.4,5.3l0,0l0,0l0,0l0.1-8.5l0.2,8.4l0.2-10.3l0.3,10.3l1.4-10.7l-1,10.8l0,0l0,0l2.3-8.9l-2,8.9l2.6-7.7l-2.3,7.7
		c0,0,0,0,0,0l4.3-10.3l-4.1,10.3c0,0,0,0,0,0l6-11.8l-5.7,11.8l4.8-8.6l-4.6,8.6l0,0l0,0.1l0-0.1l0,0l3.2-5.2l-3,5.3l0,0.1l0-0.1
		l6.6-9.7l-6.5,9.8l4.3-5.5L174.1,601.7z"/>
	<path class="st2" d="M196.3,304.8c-1-1.6-2.2-3.6-2.2-3.6c-5.5-6.9-11.8-19.7-11.8-19.7s-12.9-23.4-5.8-28.3
		c6.2-1.9,12.5,7.9,14.2,10.9c0.3,0,0.5,0.1,0.8,0.2c1.8,0.8,13.2,13.2,17.9,29.9l1.2,2.1l21.3,13.8l-21.8-13.3l21.4,19.5
		l-21.8-19.2l-0.1-0.1l0.1,0.1l13.5,15L209,298l0,0l0,0l16.3,21l-17.6-19.5l11.2,16.9l-11.9-16.7l8.2,13.3l-8.7-12.9l10.4,17.8
		l-11.6-17.1l8.3,14.6l-8.8-14.3l-0.1-0.2l0.1,0.2l11.8,21.6L204,301.6l0-0.1l0,0.1l5.6,10.9l-5.9-10.7l0,0l0-0.1l0,0.1l8,17.7
		l-8.6-17.3l9.4,21.7L202,302.8l7.5,23.7l-8.3-23.4l0-0.1l0,0.1l3.8,20.6l-4.3-20.4l1.9,18.6l-2.7-18.3c0,0,0,0,0,0l0.9,25.5
		l-1.3-25.3c0,0,0,0,0,0l-1.2,30.3l0.6-30l-1.8,22.5l1.3-22.3l0-0.1l0-0.2l0,0.2l0,0.1l-1.7,14l1.2-13.8l0-0.2l0,0.2l-4.4,26.6
		l4.1-26.5l-3.6,15.5L196.3,304.8z"/>
	<path class="st2" d="M308.1,314.9c0,1.1-0.1,2.4-0.1,2.4c0.4,5.1-0.7,13.1-0.7,13.1s-1.4,15.2-6.3,15.3c-3.6-1.1-3.4-7.8-3.2-9.8
		c-0.1-0.1-0.2-0.2-0.3-0.4c-0.6-1-2-10.5,1.1-19.9l0.1-1.4l-5.7-13.4l6.1,13.3l-3.9-16.2l4.2,16.1l0,0.1l0-0.1l-1.6-11.4l2.2,11.4
		l0,0l0,0l-1-15.2l2.1,14.9l0.1-11.6l0.3,11.8l0.4-8.9l0,8.9l0.8-11.8l0,11.9l0.8-9.6l-0.4,9.6l0,0.1l0-0.1l1.3-14l-0.9,14.1l0,0
		l0,0l0.9-6.9l-0.6,7l0,0l0,0l0,0l1.9-11l-1.5,11l2.5-13.3l-1.8,13.4l4-13.7l-3.6,13.8l0,0.1l0,0l4.8-11l-4.5,11.1l5.1-9.5l-4.6,9.6
		c0,0,0,0,0,0l7.8-12.4l-7.5,12.5c0,0,0,0,0,0l10.3-14l-9.9,14.1l8.1-10.1l-7.8,10.2l0,0l-0.1,0.1l0.1-0.1l0,0l5.3-6.1l-5,6.2
		l-0.1,0.1l0.1-0.1l10.6-11.2l-10.5,11.3l6.7-6.2L308.1,314.9z"/>
	<path class="st2" d="M171.6,668.8h-18.7c-0.1,0-0.1-0.1-0.1-0.1s-13.5-10-10.8-14.7c3.1-2.7,9.3,1.3,11,2.5c0.2,0,0.4-0.1,0.5-0.1
		C154.8,656.4,164.5,660.5,171.6,668.8z"/>
	<path class="st2" d="M375.5,630.1v38.6h-15c-0.3-0.3-0.5-0.6-0.8-0.9l-5-3.1l-60.4-5.6l60.9,4l-67-17.6l67.4,16.4l0.2,0.1l-0.2-0.1
		L310.6,645l46,14.5l0.1,0l-0.1-0.1l-57.9-26.4l58.9,21.7l-42.5-23.5l43.8,22.1l-32-19.2l32.8,17.7l-41.8-26.1l43.6,23.3l-33.7-21.8
		l34.5,20.4l0.4,0.2l-0.4-0.2l-49-32.5l49.8,31.1l0.2,0.1l-0.2-0.1l-23.8-16.9l24.3,16.1l0,0l0.1,0.1l-0.1-0.1L327,616.9l37.5,27.1
		l-44.1-35.5l45.5,33.1l-42.1-41.8l43.5,40.3l0.2,0.2l-0.1-0.2l-30.8-39.5l31.7,38.4l-24.7-37.2l26,35.7c0,0,0,0,0,0l-30.2-53
		l30.9,52.2c0,0,0,0,0,0l-30.9-65.4l32,64.2l-21.2-49.5l22.1,48.7l0.1,0.2l0.2,0.4l-0.1-0.4l-0.1-0.2L360.4,603l12.8,30.6l0.1,0.4
		l-0.1-0.4L353,572.2l20.8,60.7l-9.5-36.8L375.5,630.1z"/>
	<path class="st2" d="M215.5,748.5C215.5,748.5,215.5,748.5,215.5,748.5l-0.1,0C215.4,748.5,215.5,748.5,215.5,748.5L215.5,748.5z"
		/>
	<path class="st2" d="M275,668.8h-56.2c5-5.8,11.1-10.9,18.1-15.3c6.9-4.3,14.2-5.9,22.2-4c8.9,2.1,13.4,8.5,15.3,16.8
		C274.7,667.2,274.9,668,275,668.8z"/>
	<path class="st2" d="M244.4,387.4c0.5-1.7,1.1-3.4,1.7-5c0,0,0,0,0,0c0.3-1.7,1.9-2,3.1-2.4c0.5-0.1,1.4,0.4,1.8,0.9
		c2.1,3,4.3,5.9,6.1,9.1c2.6,4.7,3,9.8,1.5,15c-0.6,2.1-1.8,3.7-3.7,4.7c-2.1,1.1-4.1,0.7-6-0.6c-3.3-2.3-4.8-5.7-5.6-9.5
		C242.5,395.4,243.3,391.3,244.4,387.4z"/>
	<path class="st2" d="M17.1,498.2c-2.1,11.3-4,22.7-7.3,33.7c-2.3,7.5-5.8,14-10.3,19.7v-59.7c1.2-0.6,2.5-1.1,3.7-1.7
		c0,0-0.1,0-0.1,0c4.6-2.9,8.6-0.1,12.2,2C16.7,493,17.5,496.3,17.1,498.2z"/>
	<path class="st2" d="M360.9,540.1c1.6-0.8,3.2-1.6,4.8-2.4c0,0,0,0,0,0c1.5-1,2.7-0.1,3.9,0.6c0.4,0.2,0.7,1.3,0.6,1.9
		c-0.6,3.6-1.1,7.2-2.1,10.7c-1.5,5.2-4.8,9-9.5,11.6c-1.9,1-3.9,1.3-5.9,0.7c-2.3-0.7-3.4-2.5-3.8-4.7c-0.7-4,0.7-7.5,2.8-10.7
		C353.8,544.3,357.2,542,360.9,540.1z"/>
</g>
</svg>
