<?xml version="1.0" encoding="UTF-8"?><svg id="Calque_2" xmlns="http://www.w3.org/2000/svg" viewBox="0 0 77.64 125.79"><defs><style>.cls-1{fill:#c56120;}</style></defs><g id="Calque_1-2"><g><path class="cls-1" d="M1.71,66.32c-.1-.51,.07-1-.22-1.55-.25-.48-.03-1.17,.19-1.78,.28-.79,.28-1.68,.58-2.49,.04-.12,.16-.21,.26-.33-.07-.43,.2-.96-.25-1.36,1.34-.73,1.62-1.37,1.07-2.56,.18-.66,.98-1.21,.34-2.01-.03-.03,.15-.18,.15-.28,0-.28-.04-.56-.08-1.01l.45-.33c-.49-.87-.26-1.72-.33-2.52l.57-.57-.2-.87,.17-.19-.68-.74,.61-.32c.19-.83,.42-1.78,.62-2.73,.02-.08-.16-.2-.24-.29,.5-.58,.14-1.29,.28-1.94l.78-.78-.71-.81c.16-.06,.28-.11,.39-.16,.11-.04,.23-.08,.41-.14l-.36-.73,.31-.45-.38-.76c.83-.1,1.02-.72,1.24-1.41l-.66-.89,.55-.65-.71-1.05,.78-1.89-.31-.4c.2-.66,.45-1.3,.34-2.09-.07-.45,.41-.98,.77-1.75v-.76l.49-.49c-.66-.72,.39-1.33,.02-2.01l.52-.13c.31-.62-.57-1.2-.09-1.85l.37,.31,.47-1.91c.64-.31,.51-1.19,.63-1.85,.2-1.06,.56-2.06,.74-3.12,.12-.72,.41-1.4,.43-2.15,.02-.53,.27-1.05,.43-1.61l-.65-.11c-.25-.48,0-.77,.33-1.03l.35,.31v-1.04c-.44-.5-1.43-2.65-1.59-3.52,.11-.04,.22-.09,.34-.12,.13-.02,.26-.02,.44-.03v-.73l.95-.1,1.15-1.15-.1-.12,1.29-.46,.34-1,2.58-2.39c.37-.09,.87-.18,1.36-.33,.83-.25,1.02-.21,1.77,.43,.19,.16,.42,.33,.66,.38,.72,.15,1.45,.25,2.26,.38l.44,.98,.69,.08,.43,1.57,.62,.05c.12,.45,.05,1.17,.9,1.07,.32,1.08,1.07,1.93,1.63,2.87,.36,.61,.63,1.28,1.02,2.09,.55,.39,1.33,.8,1.73,1.66,.11,.23,.45,.35,.69,.51,.2,.13-.02,.56,.45,.55,.15,0,.34,.34,.47,.55,.16,.28,.34,.43,.68,.53,.7,.2,.98,.99,1.61,1.31,.04,.02,.09,.06,.09,.09,0,.87,.6,1.15,1.32,1.33,.1,.03,.13,.29,.2,.46l.58,.07,1.08,1.63,.29-.25c.65,.32,.82,1.11,1.49,1.45l.07,.6c.29,.21,.79-.1,.94,.39,.11,.34,.28,.6,.66,.66,0,.18,0,.36,0,.52l1.96,1.62v.72l.47-.29c.77,.27,.59,1.39,1.22,1.56,.78,.21,.67,1.27,1.5,1.28,.37,.57,.71,1.19,1.5,1.27,.21,.31,.43,.63,.74,1.08v1.08l.76-.31v1.02c.74,.44,1.21,1.07,1.57,1.79,.26,.53,1,.46,1.24,1.1,.17,.46,.2,1,.65,1.38,.3,.25,.42,.72,.58,1.11,.04,.09-.09,.25-.15,.38l2.36,1.05c.03,.07,.07,.24,.16,.38,.32,.46,.8,.87,.95,1.38,.15,.52,.35,.94,.67,1.37,.19,.25,.18,.65,.28,1.09l.92,.57-.25,.85,1.68,1.88v.36c.61,.16,.64,.85,1.11,1.11l-.18,.18c.05,.95,1.14,1.43,.97,2.55,.72,.26,.62,1.38,1.63,1.57-.2,.74,.55,.99,.88,1.54l-.37,.64,1.13,.85,.05,.66,.84,.13-.25,.67c.78,.53,1.18,1.56,2.08,2.13l-.22,.26,.52,.56-.15,.15,.7,.7v1.03c.96,.32,1.13,1.1,1.11,1.93l.51,.51c-.05,.06-.1,.13-.23,.29,.07,.08,.22,.18,.23,.3,.04,.27,.01,.54,.01,.84l.48,.16,.11,.66,.49,.49-.23,.28,.8,.49-.1,1.37,1.93,3.15c.03-.09,.03-.04,0-.02-.43,.38,.32,.62,.12,1.05-.07,.15,.36,.53,.53,.83,.36,.65,.4,1.39,.63,2.32l.59,.5,.35,1.48-.3,.47,1.09,1.53-.23,.23c.42,.72,.4,1.5-.07,2.29l.96,1.06-.6,.79c.16,.66,1.02,1.22,.22,1.98l.33,.45c-.06,.42-.64,.84-.03,1.27l-.3,.52,.31,.33c-.88,1.13,.47,2.38-.15,3.51l.54,1.57-.58,.62,.28,.83-.76,.53c.32,1.18,.04,2.39,.16,3.59l-.54,.48-.05,.98-.8,.5v.86l-.84,.51c.1-.1,.04-.06,.04-.04,.28,.72-.36,1.14-.61,1.66-.31,.65-.87,1.17-.86,1.97,0,.11-.21,.23-.32,.33l-.29-.29-.45,.44,.39,.78c-.14,.06-.25,.12-.36,.16-.27,.1-.55,.2-.79,.29v.67l-1.36,.68-.65-.32c-.25,.25-.06,.43,.87,.94v.9s-.12,.06-.16,.04c-.38-.18-.75-.38-1.08-.55q-.61,.55-.71,1.44l-.29-.22-.69,.32,.28,.44c-.33,.69-1.14,.81-1.68,1.26q.32,.53,.94,.69l.97-1.17,.48,.37c-.34,.56-.15,1.18-.23,1.86-.18,0-.35,0-.62,.13,.11-.37,.21-.62,.34-.95l-.54,.06c.03,.3,.05,.54,.19,.89,.02,.46-.71-.14-.82,.41-.22-.55-.83-.65-1.22-1.22l-.07,1.09-.57,.64,.74,1.08c-.53,.03-.93,.28-1.25-.22,0,0,.02,.02,.04,.04l.22-.19-.09-.09c-.06,.07-.13,.15-.18,.24-.52,.34-1.06,.68-1.57,.99l-.21,.44-.85-.42-.13,.86-.49,.1,.18-.8-.68-.09v.68l-1.39,.2-.05,.98-.98,.61c-.28-.09-.57-.16-.84-.28-.26-.11-.48,.53-.75,0l-.36,.34,.33,.84-.89-.31-.32,.57-2.05-.28c-.33,1.1-.34,1.04-1.86,1.35-.36,.07-.73,.17-1.14,.22l-.44,.48c-.08-.03-.15-.03-.2-.07-.34-.28-.59-.12-.94,.06-.89,.45-1.85,.75-2.88,.6-.16-.02-.3-.15-.42-.22l-1.46,.76-.5-1.11-1.34,.71,.66,.2v.72l-.71,.06-.74-1.34c-.57-.26-1.05,.17-1.71,.44l-.15-.47h-1.11l-.58,.89-.55-.86-.74-.13,.46-1.01c-.49,.14-.65,.46-.89,.64-.14,.4,.16,.94-.3,1.16l-1.11-1.09c-.01-.36,.5-.34,.9-.61l-1.34-.72-.91,.63-.31-.47-.95,.27-.5-1.45-1.02-.58-.84,.73-.57-.97-.16,.16-.05-1.03-.93,.35c-1.22-.4-1.74-1.55-2.82-2.22h-1.03c-.23-.38-2.66-2.6-3.09-2.83v-.53c-.51-.41-1.37-.39-1.47-1.26h-.56l-.74-1.33-.69-.06-.76-1.59-1.05-.06,.32-1.15c-.23-.41-.55-.65-1.1-.32l.75,1.46-.93,.05-.09-.45-.89,.21-.41-.41,1.01-1.25,.57-.03,.03-.54-1.14-1.06-.67-.04c-.18-.24,.16-.25,.17-.39,.02-.18,0-.36,0-.59-.53-.25-.86-.73-1.22-1.19l-.41,.41,.72,.77-1.24-.4c.08-.29,.52-.59-.13-.83l-.45,1.16-1.38-.56,.94-1.74,.61,.9,.33-.33-.68-1.37-.72,.79-.49-1.34,.81-.6-.38-.38-.49,.49c-.06-.02-.12-.05-.19-.07-.47-.17-.14-.67-.35-.9l-1.53,.9c-.02-.37-.06-.59-.02-.79,.02-.11,.16-.21,.28-.34-.74-.09-.89-.7-1.14-1.35l.45-.32,.79,1.01,.32-1.58-.28-.08-.47-1.09-.2,.04v1.43l-.49-.37-.33,.58-.61-.38,.33-.33-.52-.33v-1.24l-.88-.56c.14-.8,.9-.85,1.33-1.34v-.94c-.44,.88-1.21,.68-1.68,1.09-.46-.61,0-1.05,.15-1.68l-.71,.28-.65-1.27c.12-.51,1.11-.31,1.03-1.08-.45-.41-.79,.12-1.29,.16l-.08-.69,.62-.62-1.1-.47-.39-.84,.71-.34,.56,.26,.43-.83-1.01-.41c.04-.46,.45-.72,.87-1.01-.86-.3-1.02-.23-2.38,.88,.1-.28,.11-.51,.21-.56,.47-.25,.29-.81,.57-1.14,.34-.41-.16-.73-.13-1.06,.03-.34-.43-.62-.07-1.03,.11-.12-.19-.61-.32-.98l.88-.58-.51-.55,.3-.3-.77-.25,.22-.22s-.04-.1-.03-.12c.66-.65-.11-1.31-.02-1.97,0,0,.02,.02,.04,.04l.22-.19-.09-.09c-.06,.07-.13,.15-.18,.24-.12,.01-.24,.01-.44,.01-.21-.48-.11-.93,.18-1.36,.6-.34,.07-.87,.29-1.21l-.4-.4-.33,.24-.14-.39,.87-.5-.16-1.75-.75-1.27,.16-.16,.35,.25c.22-.46,.15-.89-.21-1.34l.92-1.87-.94,.3c.25-1,.91-1.1,1.64-1.19v-.85l.6-.63-.39-.39-.42,.53Zm65.98,6.3l.05-.05-.19-.22-.09,.09c.07,.06,.15,.13,.25,.16,.09,.09,.18,.18,.3,.24l-.05,.05,.19,.22,.09-.09c-.07-.06-.15-.13-.25-.16-.09-.09-.18-.18-.3-.24Zm-1.31,34.31l-.05,.05,.19,.22,.09-.09c-.07-.06-.15-.13-.27-.13l.05-.05-.19-.22-.09,.09c.07,.06,.15,.13,.27,.13ZM21.89,10.4c-.09-.09-.18-.18-.93-.59,.19,.21,.24,.31,.28,.31,.13-.02,.26-.08,.38-.12-.16-.05-.33-.09,0,.13,.09,.09,.18,.18,.3,.24l-.05,.05,.19,.22,.09-.09c-.07-.06-.15-.13-.25-.16ZM63.62,111.6c-.9,.27-1.17,1.11-1.65,1.85l.76,.39,1.21-.79c-.1-.45-.21-.95-.35-1.47l.05,.05,.22-.19-.09-.09c-.06,.07-.13,.15-.16,.25ZM38.03,23.53l-.26,.68,.84,.85,1.26,.24,.26-.26-1.42-1.77c-.24,.09-.47,.18-.72,.22l.18-.69c-.4-.37-.97-.71-1.23-1.22-.3-.58-.96-.57-1.27-1.08-.3-.49-.7-.92-1.07-1.39l-.35,.35c-.21-.44-.35-.89-.62-1.25-.22-.3-.62-.46-.89-.73-.33-.33-.6-.72-.9-1.08-.31,0-.63,0-.97,.03l.05-.05-.19-.22-.09,.09c.07,.06,.15,.13,.25,.16l.36,1.33,.64,.07c.17,.66,1.03,.73,1.13,1.41,.63,.17,.68,1.06,1.4,1.12,.29,.59,.82,.87,1.27,1.07l.39,1.35,1.05,.73c.32,0,.59,0,.9,.04ZM18.35,108.07c0,.25-.04,.49,0,.51,.64,.24,.86,.99,1.55,1.21,.29,.09,.67,.42,.65,.94,0,.21,.27,.42,.42,.63,.17,.24,.35,.49,.54,.76l.61,.07,1.12,1.34,.85-.22-.37,1.22,.86,.13,.64,1.01,.56,.03,1.06,.88c.18-.16,.27-.25,.37-.34,.66,.84,1.41,1.42,2.25,1.78l.41-.21c.29,.29,.54,.75,.86,.81,.48,.09,.82,.26,1.05,.55h1.32l-.28-.33,.75-1.06-.84,.39-.72-.63-.49,.28-.19-.49-.9-.05-1.13-1.39h-.85l-.07-.8-.97,.2c-.11-.92-1.32-.72-1.69-1.42l.3-.3-.81-.16-.96-1.3h-.6l-.47-.81h-1.04l-.37-1.06-.45,.25-1.07-1.31v-.54l-1.66-1.07,.35-1.97h-.53l-.1,.67-.93-.16-.38,1.16,.78,.77c.13,0,.3,0,.61,.55l-.05-.05-.22,.19,.09,.09c.06-.07,.13-.15,.16-.77ZM48.15,33.86c-.41,.03-.74-.07-.9-.54-.1-.29-.23-.6-.43-.81-.85-.88-1.05-1.18-1.32-2.18l-.27,.25-.5-.37-.6,.53c.4,.57,.61,1.19,1.01,1.37,.91,.39,.91,1.26,1.33,1.85l-.29,.35,.91,.43c.57,.84,1.13,1.55,1.56,2.34,.39,.71,1.15,1.25,1.21,2.03l.93,.93,.36-.26-.27,1.18c.22,.12,.47,.27,.73,.42l-.24,.27c.31,.58,1.2,.65,1.27,1.44l-.19,.19,.82,.52v.93l1.07,.79c.33,.74,.69,1.55,1.05,2.35,.07,.15,.1,.42,.2,.44,.88,.21,.81,1,1.06,1.68l1.29,.7-.33,.68,1.21-.23-.62,1.23h.51l1.07,1.31-.19,.21c.67,1.58,1.45,3.07,2.2,4.37l.76,.54-.32,.39,.4,.78c.21,.11,.35,.19,.5,.26,.15,.07,.31,.13,.46,.19,.78,1.45,.8,1.52,.62,1.96l1.3,1.67-.08,.03,1.41,2.76,.53,.06c.13,.35,.18,.71,.43,1.05,.47,.68,.96,1.34,1.08,2.29,.12,.91,.78,1.75,1.33,2.86,0-.02,0,.25,0,.49,.69,.36,1.31,1.05,1.43,2,.11,.83,.71,1.54,.47,2.28l.64,.46c-.03,.44-.12,.74-.05,1,.14,.48,.37,.94,.56,1.4,.22,.53,.44,1.07,.66,1.59l-.22,.38c.12,.42,.75,.52,.53,.99l-.81-.13c.03,.63,.67,.79,.63,1.41-.02,.38,.46,.79,.69,1.15-.23,.59,.25,1.05,.34,1.55l-.53,.98,.7,.44-.63,1.26c.11,.79,.6,1.11,1.19,1.3l.29-.97-.37-.36c.07-.38,.11-.66,.17-.95,.07-.33,.16-.66,.25-1.01l-.29-.48,.34-.5c-.43-.49-.14-1.14-.35-1.63-.25-.61-.2-1.2-.24-1.72-.19-.36-.35-.65-.51-.94,.42-.36,.1-.87,.25-1.26,.17-.42-.47-.76-.1-1.09-.29-.53-.67-1.02-.83-1.58-.09-.32-.21-.7-.17-1.07,.08-.76-.3-1.31-.8-1.77,.26-.64,.26-.64,.1-.99-.29-.62-.6-1.23-.87-1.79l.16-.29,.25-.26-.75-.2,.27-.38-.6-.21v-1.2c-.88-.14-.59-.96-.74-1.17-.42-.32-.81-.49-.8-.62,.06-.71-.58-1.14-.63-1.81-.02-.35-.2-.83-.79-.88v-1.19l-.16,.05-.77-1.74c-.36-.06-.65-.2-.72-.63-.06-.38-.23-.74-.25-1.12-.04-.52-.24-1.08-.65-1.2-.64-.18-.82-.7-.96-1.11-.23-.67-.68-1.1-1.13-1.58l.23-.23c-.35-.5-.66-1.05-1.06-1.52-.41-.48-.9-.89-1.4-1.37l.3-.46c-.46-.24-.28-.52,.01-.8l-.75-1.05-.49,.36-.34-.71,.21-.24-1.67-1.32v-1.49c-.69-.11-.91-.72-1.3-.99l-.04-.61-.53-.22,.4-.4-.68-.38,.27-.34-1-.45c-.17-.37-.31-.67-.45-.98-.49-.04-.67-.46-1-.71l.26-.26-.24-.28,.23-.26-1.35-.79,.29-.38-1.37-1.15,.33-.66c-.27-.27-.53-.51-.77-.78-.22-.24-.36-.64-.63-.74-.45-.17-.59-.54-.69-.87-.24-.79-.74-1.41-1.18-2.06l.23-.3c-.73-.59-1.41-1.14-3.03-2.55l.05,.05,.22-.19-.09-.09c-.06,.07-.13,.15,.73,1.07ZM9.07,57.86c.37,0,.31,.31,.26,.48-.11,.35-.31,.68-.38,.84,.02,.47,.15,.85,.02,1.07-.31,.52,.08,1.19-.21,1.52-.53,.62,.11,1.05,.04,1.56l-.61,.45,.31,.55c-.09,.4-.33,.93-.21,1.02,.48,.38-.16,.58-.07,.91,.08,.28-.13,.65-.22,.99l.31,.5-.67,.71,.63,.42-.29,.37,.31,.81-1.12,.29,.93,.69,.65,1.49-.39,.39,.3,.56c1.2-.6,1.41-.85,1.25-1.19l-.83-.62,.31-.33-.93-.19,.45-1.54c.65,.09,.6-.53,.87-.79h.57l.46,1.2-.88-.35v1.92l.63,.39-.37,.54c.47,.3,.17,.79,.25,1.21l-.75,.2c-.41-.44-.79-.22-1.22,.28l.39,2.19,.42,.11c.06,1.03,.51,1.86,1.45,2.38l-.05,.05,.19,.22,.09-.09c-.07-.06-.15-.13-.25-.16,.07-.36-.14-.78,.24-1.22l.92,1.27-.86,.85c.53,.59-.02,1.65,.76,2.2l-.28,.46,.36,.57-.3,.34c.84,.92,.76,2.21,1.27,3.05l-.25,1.15,.8,.08c.11,.34,.22,.7,.36,1.08l-.05-.05-.22,.19,.09,.09c.06-.07,.13-.15,.16-.25h.55c0,.27,.01,.45,0,.62,0,.07-.1,.13-.13,.17l-.37,.1c-.12,.4,.14,.87-.41,1.21,.7,.26,1.06,.81,1.41,1.36l-.25,.25,.52,.38v1.05c-.68,.08-.57,.65-.86,1.04l.45,.1,.7-.93c.41,.59,1.18,1.21,1.32,1.07,.15-.07,.31-.13,.21-.09l.83,.34-.68,.24v1.38l-.58,.61,.2,.85,.72-.97,.98,.33v.65l-.78,.15c0,.28,0,.51,.55,1.41-.4-.3-.63-.93-1.32-.59q.04,.89,.91,1c.13-.13,.25-.25-.14-1.09h1.08l.26-.37,.59,.2-1.1,2.31c.94-.03,1.37,.74,1.98,1.22l.49-1.15,.96,.87c-.55,.7-1.24,1.26-1.29,2.26,.18,.06,.34,.11,.49,.17,.18,.07,.34,.16,.62,.29l-.32-1.68c.32-.02,.54,0,.75-.05,.21-.05,.41-.17,.84-.36-.22,.48-.33,.7-.45,.91l-.64,.06c.36,.31,.53,.61,1.1,.87-.24-.47-.34-.69-.45-.92h.69l.37,.38v.95l-1.43,.67,.76,.39,1.08-.71,.71,.36-.23,.25c.31,.5,.89,.76,1.14,1.45-.27,.03-.5,0-.68,.09-.19,.08-.34,.25-.53,.4q.71,.09,1.53-.41l.28,.26,.28-.24,.4,.38v.96l-.43-.25-.34,.66,1.24,2.29c.2-.3,.41-.62,.63-.94,.03-.05,.12-.05,.18-.08l.21,.21,.29-.26c.36,.31,.6,.62,.25,1.13-.21,.32-.21,.72,.04,1.12,.99-.35,.67-1.5,1.18-1.85l.7,.29c-.43,.54-.6,.95-.2,1.32l-.22,.7,1.13,1.14h1.04l.93,1.01h.7v-.97l-.8-.14c-.22-.52-.75-.9-.41-1.56,.14,0,.31-.05,.41,0,.65,.41,1.33,.73,2.1,.87,.28,.05,.47,.4,.39,.77-.01,.07,.06,.15,.08,.2l.8,.36,.4-.32,1.43,.75c.06,.35-.02,.69-.46,.86l-.86-1.14c-.44,.4-1.12,.36-1.16,1.13l1.07,.08,.43,.75,.52-.27,.55,.81,.95-.67c.29-.75-.6-.88-.73-1.42l.5-.35c.96,.71,.68,1.98,1.39,2.66l1.31,.27,.33-.34,1.02,.15,.12-.54c.36,0,.79-.13,1.05,.03,.47,.27,.98,.37,1.39,.21,.52-.2,.95,.09,1.42,.02,.12-.02,.22-.16,.28-.21l.5,.28,.9-.9,.46,.03,.75,1.08-.73,1.13h-1.66l-.17,.52-.34-.3-.53,.8-.27-.27c-.93,.35-1.92,.69-3.09,.55l-.4-.52c-.44,0-.82-.06-1.16,.02-.28,.07-.43-.52-.78-.08-.1,.12-.59-.07-.64-.08l-1.05,.15-.13-.42c-.36,.04-.68,.17-.92,.09-.59-.2-1.15-.51-1.73-.76-.06-.02-.16,.05-.24,.07l-.15,.43c-.78-.36-1.52-.32-2.28-.06l-.63-.27c0,.3,.03,.48,0,.64-.04,.17-.14,.33-.19,.44l2.5,.61s.17-.18,.33-.22c.16-.05,.35-.01,.55-.01l.2,.57,.93-.22,.3,.33-.23,.3,.4,.37,.5-.5q1.07-.03,2.76,.74l.76-.61,.34,.69,.9-.22c.03,.12,.06,.25,.1,.37l1.5,.34,.36-.53c.5,.16,.64-.37,.98-.52l.28,.28,.4-.67,.75,.69,1.1-.67-.54-1.14c.73-.53,.96,.3,1.47,.44l1.14-.56-.7-.79c.5-.06,.85-.62,1.42-.2-.1,.22-.21,.44-.63,1.34,.21-.2,.32-.25,.31-.29-.02-.13-.08-.26-.12-.38-.05,.16-.09,.33,.13,0h.52l.45,.61,1.63-1.6,.74,.21c.7-.9,1.26-1.78,.98-3.01l1.1-.41,.1-.98c.21,0,.34,0,.62-.14l-.14,.14,.04,.54,.52-.03c-.17-.26-.29-.45-.55-.51,.17-.58,.75-.58,1.12-.84l.42,.27c.07-.18,.1-.36,.2-.48,.11-.13,.29-.22,.44-.32,.54-.31,.97-.73,1.18-1.3l1.05-.5-.36-.72,1.64-1.2-.53-.53,.08-1.01,.79,.32v-1.83l.55-.19v-.83l1.12,.51-.31,.63,.22,.22-.28,.31,1.1,.91-.29-1.11,.7-.95-.96-.2,.03-.4c.4-.19,1.09,.2,1.28-.46l-.35-.67-1.12,.75c-.29-.19-.55-.33-.79-.51-.09-.07-.11-.22-.09-.17l.77-.77,.13,.13,.43-.25c.16,.54,.53,.66,1.06,.47l.05-.9,.5-.5v-.89l-1.35-.98,.82-.32,.77,.56,.07-.86-.6-.46c.16-.7-.21-1.4,.23-1.91l-.2-.73,1-1.16-.72-2.54,.4-.4,.56,.52,.38-.33,.37,1.02,.73,.52c-.35,.52-.94,.77-1.09,1.26,.32,.33,.57,.6,.83,.85,.18,.18,.36,.34,.54,.51v.47l-1.39,.47v1.06l-.72-.68-.41,.84h1.06l1.38-.64,.72,.23q-.97,.5-.67,1.36l.91-1.21v-.78l.48-.1v-1.19l.51-.21c.12-1.53,.08-1.94-.23-2.63,.4-.34,.66-.74,.5-1.29l-.46-.16c-.2-.6,.08-1.07,.33-1.51,.33-.57,.24-1-.24-1.4l-.56,.53c-.14-.14-.26-.26-.39-.39l.37-.44c-.51-.38-1-.71-.92-1.39,.04-.38,.75-.44,.49-.96l-1.43-.31-.56,.8c.04,.4,.18,.74,.07,.95-.13,.24-.47,.37-.9,.68h1.27l-.97,1.37c-.5-.55-.61-1.2-.71-1.85l1.08-.28-.87-.74-.57,.74-.47-.94,.66-.88-.68-.32,1.29-.3,.49,.72,.99-.64c0-.37,0-.69-.17-1.12l1.11,.41q.39-.51,.28-1.03c-.19,.06-.39,.11-.58,.19-.23,.1-.44,.23-.64,.54l-1.02-.28-.16,.81-.85-.49,.66-.59c.45,.12,.62-.26,.89-.47,.32-.25,.82,.15,1.1-.29,.07-.11,.15-.2,.35-.46l-.61-.47-.49,.85c-.86-.57-.27-1.21-.07-1.83l.44-.15-.32-.64-.79,.23-.49-.41c0-.19-.02-.29,0-.37,.08-.24,.18-.47,.3-.75-.37-.32-.75-.64-1.08-.84l.54-.68-.54-.74c0,.6,0,.95-.05,1.3l-1.19,.33-.45-.59,1.1-1.11q.65-.11,.83-.96l-.74-.49-.23,1.43c-.47-.57-.78-.93-.66-1.5l.68-.33-.58-.4-.42-.97c-.62,0-.3,.96-1.07,.72,.47-.72,.87-1.43,.23-2.18,.13-.15,.22-.25,.31-.34l-.59-.63c.13-.23,.21-.36,.28-.5l-.45-.45,.27-.71h-.5l-.18,.5c-.83-.26-.15-1.16-.63-1.47l.19-.6-.64-.22,.29-.52-.97-1.32,.27-.63c-.21-.07-.37-.12-.25-.08-.88-.73-.78-1.69-1.4-2.37-.57-.63-.76-1.57-1.32-2.12l.2-.64-.57-.2,.32-.43-1.12-1.58,.49-.17c.3-.43-.43-.78,.04-1.2-.67-.29-1-.88-1.37-1.37v-.53c-.33-.98-1.48-.9-1.66-1.82l.32-.34-.8-.54c.07-.09,.14-.18,.13-.17l-1.13-2.08-.8,.46-.72-.37,1.08-.77-.37-.72-.23,.2-1.25-1.84c-.02-.21,.06-.6-.09-.72-.56-.46-.46-1.2-.85-1.71-.32,.2-.64,.46-1.09-.03,.21-.39,.94-.65,.57-1.3-.08-.02-.2-.02-.24-.07-.32-.43-.62-.88-.94-1.32l-.19,.17-.9-.29,.18-1.01c-.43,.17-.74,.52-1.1,.12l.23-.28c-1.04-.92-.79-2.47-1.88-3.45h-.81l.28-1.21-1.25-.84-.41,.19-.54-.74c.06-.67-.18-1.25-.72-1.74l-.44,.65-.72-.26c.32-.32,.46-.49,.63-.62,.14-.1,.32-.16,.63-.3-.35-.26-.55-.4-.77-.52l.05-.05-.19-.22-.09,.09c.07,.06,.15,.13,.25,.16-.02,.25,.12,.6-.3,.55l-1.03-1.22-.74,.66-.51-.55,.95-.95-.61-.58v-.6l-1.13-.11,.37-1.24h-.5l-.16,.48-.8-.74,.66-.44c-.54-.61-1.08-1.02-1.84-1.03l-.45-1-.78,.29,.41-1.36-1.17-.48-.89-1.21c-.28-.01-.47,.01-.63-.04-.12-.04-.2-.18-.33-.31-.09-1.42-.92-2.3-2.24-2.78l.21-.24c-.26-.42-.71-.82-.72-1.22-.01-.86-.64-.81-1.01-.92l-.45-1.23-.89-.4c-.38-.71-.85-1.18-1.52-1.48v-.53c-.19-.11-.39-.18-.53-.32-.17-.18-.25-.48-.44-.61-.15-.1-.41-.02-.62-.02-.05-.59-.46-.77-.89-1.32l-.46,.69-.16-.47c-.27,0-.5,.04-.72-.01-.2-.04-.37-.18-.53-.27l-.87,.4,.19-1.12c-.6-.11-.76-.71-.88-1.04l.25-1.42,.52-.56c-.7-.21-.91-.89-1.32-1.23l.45-1.74-.49-.17,.3-.58c-.2-.17-.35-.39-.54-.43-.71-.17-2.31,.62-2.48,1.33-.09,.39-.29,.61-.49,.9-.29,.41-.52,.87-.73,1.22l-.97,.46c-.24,.73,.3,.92,.82,1.15l-.55,2.12,.27,.47-.99,1.57,.86-.25c.3,.82-.21,1.01-.69,1.21,.16,.45,.53,.69,.87,.98,.16,.14,.13,.52,.18,.78h-.76l-.15-.78h-.12v1.22l.6,.86-.95,.19,.02,.43,1.02,.05-.26,.82,.66,.88-.49,1.07h-1.85l.29,1.02-.98,.72,.3,.4-.66,.77,.29,.49-.71,.69c.31,.63,.17,1.23,.18,1.93l-.48-.43,.25,2.42-1.15,2.14,.25,1.41-.26,.41,.29,.39-.38,1.65-.76,.58,.31,1.58-.38,.67,.15,1.07-.8,.05,.37,.74,.73-.35c-.05,.41,0,.7-.13,.88-.16,.22-.45,.34-.79,.57l.69,.46-.47,.93-.36-.3-1,.58c.31,.31,.57,.5,.73,.75,.17,.27,.26,.6,.36,.85l.46,.16c-.04,.59-.07,1.17-.14,1.75-.03,.25-.08,.51-.2,.73-.1,.19-.29,.35-.47,.48-.17,.12-.37,.2-.51,.27l.23,.82-.88,.57,.79,1.55-.69,1.27,.7,.42-.56,1.08,.3,.34-.25,.28,.2,.22-.95,2.93c.06,.33,.28,.76,.16,1.06-.17,.42-.08,.94-.29,1.23-.4,.57-.3,1.19-.17,1.68,.14,.53-.24,1.12,.31,1.57l-.69,.33,.24,.83-.49,1.87,.6,.35-.53,.14c-.04,.51-.15,1.04,.22,1.53l-.47,.1c.28,.46-.28,1.02,.3,1.39-.67,.37-.18,.7-.11,.93l-.5,1.87,.52,.52-.51,.54,.28,.43-.65,.86,.32,.35-.85,.54,.66,.33-.24,.42c.06,.31,.25,.68,.14,.85-.29,.43-.4,.77,.02,1.15-.44,.34,.26,.79,0,.98-.63,.44,.21,1.05-.25,1.46l.53,1.56c-.33,.49-.39,1.01-.13,1.59,.24,.54,.09,1.09,.04,1.65-.04,.42-.41,.87-.08,1.29l.81-.31-.27,1.13c.14,.23,.37,.46,.44,.74,.07,.29-.01,.62,.28,.83-.5,.25,.11,.48,.01,.73-.1,.28-.18,.56-.25,.77,.25,.77,.44,1.51,.73,2.21,.3,.72,.7,1.39,1.04,2.05l-.25,.59c.87-.11,.84,.62,1.15,1.02l-.22,.29c.36,.17,.87-.06,.97,.41,.15,.7,.7,1.21,.87,1.82,.28,.95,.91,1.61,1.39,2.4l-.28,.28c.79,.05,.95,.68,1.1,1.2,.11,.37,.19,.64,.55,.81,.12,.06,.22,.2,.3,.32,.3,.42,.59,.85,.88,1.25l.61,.12,1.2,1.76-.21,.21c.3,.54,.78,.46,1.36,.37l.62-1.27-.82-.05c-.11-.3-.32-.61-.34-.93-.02-.29,.16-.6,.31-1.07-.75,.61-1.42,.8-1.73,.49l.21-.81-.91-.62-.27,.27-.51-.91,1.23,.22v-.62l-1.32-.37-.88-.76,.07-.67,.42,.38,1.22-.65-.89-.32-.65,.47q-.22-.78-.74-1.16l-.62,.27-.74-1.79,.77-.52-.41-1.19-.79,1.03c-.17-.85-.74-1.68-.02-2.55l-1.45-1.12,.3-.3c-.73-.55-.91-1.33-.79-2.41l-.86-.59v-.46l1.14-.89-1.07-1.2-.83-1.87,.24-.28-.55-1.06v-1.11c.64-.09,.62-.62,.89-1.09l-.66-.44,.3-.38c-.3-.17-.56-.32-.82-.47,.09-.1,.17-.19,.14-.16l-.36-2.66,1.05-.7-.74-.47c.4-.9-.09-1.84,.48-2.76l-.76-.37,.81-.92c-.14-.17-.3-.29-.29-.36,.1-.44,.18-.9,.38-1.29,.21-.4,.02-.7-.11-1.01l.2-.23-.63-.31,.51-.67-.16-.96,.6-.21v-2.1l.52-.36-.54-.54c-.15-1.03,.24-1.92,.66-2.6l-.13-1.06,.44-.09-.14-.66c.13-.91,.93-.37,1.05-.94Zm66.52,39.14c-.15-.85,.27-1.46,.24-2.03-.03-.66,.61-1.27,.13-2.08l-1.15,1.23v1c-.98,.71-1.15,1.73-1.09,2.86l-.45,.29,.2,.94-.49,.18-.42,2.32-.55,.19,.26,.9c-.34,.3-.2,.72-.14,1.19,.19-.05,.32-.05,.42-.11,.11-.07,.28-.19,.28-.28-.04-.69,.5-.99,.88-1.41v-.73c.83-1.03,1.26-2.18,1.65-3.32l-.36-.46,.58-.67ZM24.36,6.67c-1.15-.35-1.31-1.36-1.58-1.93-.61-.56-1.03-.94-1.45-1.31-.04-.04-.12-.04-.19-.06v.99l.38,.08,.42,1.72,.78,.5v.72l.84,.68c0,.25,0,.43,0,.41l.71,.84h.42c.47,.63,.86,1.25,1.35,1.79,.41,.45,.85,.88,1.04,1.48,.17,.54,.61,.54,.96,.67,.69,.46,.7,1.54,1.72,1.83v-1.37l-.85-.12,.46-1.04-1.17,.18-1.03-1.99-.49,.28-1.22-1.59,.35-.47-1.46-1.11v-1.2Zm20.56,22.92l-1.94-2.49-.18,.18-.91-.53,.63-.35-.59-.79-.21,.59-1.19-1v1.01h.59c.16,.25,.35,.49,.48,.75,.13,.26,.2,.55,.3,.83,.51,.04,.59,.51,.86,.83,.37,.43-.08,.77-.02,1.14,.44,.05,.76-.59,1.22-.17l.09,.41,.87-.43ZM10.7,81.47c-.33-.32-.39-.66-.08-1.03,.03-.03,0-.12-.02-.26l-.77,.34c-.56-.33-.57-1.15-1.33-1.35,.15,.49,.27,.89,.39,1.28l.51,.17-.4,.87,.9,.18-.34,.42c.64,.11,.8-.42,1.13-.64Zm3.71,14.11q.72,1.32,.47,1.99l.69,.69c.07-.17,.32-.5,.28-.79-.05-.35,.42-.62,.08-1.03-.11-.13,.15-.57,.32-1.12l-.85,.76-1-.5Zm44.48,19.32l-2.09,1.74,.1,.14,1.22-.38,.15-.47h.69c.45-.36,.72-.58,.99-.81,.04-.04,.05-.12,.08-.22h-1.14ZM10.33,82.7c-.17,.64-.31,1.23-.96,1.5l1.29,.66,.13,1.23,.49-1c-.44-.78-.97-1.46-.95-2.39Zm58.44-5.61l.63,.83,1.02-.32-1.07-.99-.58,.48Zm5.37,16.53c.88-.25,.88-.25,1.24-1.07l-.73-.05-.51,1.11Zm-7.92-19.66c.61-.33,.62-.33,.67-.9,0-.06-.1-.13-.11-.14h-.7c0,.31,0,.57,0,.84,0,.07,.09,.14,.14,.21Zm5.7,30.55h-.55l-.4,1.3,.47,.09,.48-1.39Zm-47.92,1.91c-.47,.57-.73,.88-.97,1.19-.02,.02,.06,.11,.12,.22l.93-.43-.08-.98Zm37.76,8.35c-.07-.46-.03-.83-.16-.91-.41-.26-.72,.03-.98,.35l1.14,.56Zm7.41-40.17q-.63,.29-.55,1.28l.55-.1-.33-.59,.33-.59Zm-66.93,.25l.24-.12v-.78l-1,.07,.76,.83ZM12.55,17.82c.14,.49,.29,.81,.83,.74v-.82l-.83,.08Zm28.42,13.77l.34-.52c-.36-.3-.53-.78-1.15-.75l.8,1.28ZM11.62,87.32c-.19-.59-.35-.94-.94-.73q.29,.54,.94,.73Zm1.5,5.75c.63-.06,.85-.3,.87-.88-.52,.08-.79,.26-.87,.88Zm-.73,3.3l-1.06-.48,.56,1.04,.49-.56Zm-10.33-12.83c.13,.46-.75,.76-.16,1.29,.1-.43,.6-.76,.16-1.29Zm16.59,19.37l.53-.1-.06-.79-.47,.09v.8ZM1.37,69.46l-.57,.72,.57,.51v-1.23Zm14.54,33.06l.64-.5-.64-.61v1.1Zm52.82-2.32l.41,.92,.59-.3-.99-.63Zm-3.46-29.42l.56-.23q-.2-.34-.56-.6v.83Zm3.58,8.4l1.01,.47v-.47h-1.01ZM1.58,82.1c.11,.35,.25,.84,.73,.41l-.73-.41Zm4.47,13.96c-.61-.02-.61,.2-.4,.56l.4-.08v-.49ZM39.54,26.17l-.29-.53-.19,.1,.11,.8,.37-.37Zm-8.35-10.69l.57-.26-.1-.13h-.47v.39ZM12.96,94.16l.43,.8v-.8h-.43Zm52.83-25.7l-.53,.1,.53,.35v-.45Zm.9,41.94q.74,.04,.67-.24l-.67,.24ZM3.96,90.89l.43,.8v-.8h-.43Zm5.26-8.56c-.31,.73,.02,.64,.36,.58l-.36-.58Zm2.75,6.53q.08-.4-.3-.37l.3,.37Zm-2.25-3.66q-.04,.74,.24,.67l-.24-.67Zm-.99,3.09v-.44l-.7,.12,.7,.32Zm59.3,13.27l.03,.24,.44-.11-.02-.13h-.45ZM26.3,10.08l.24-.03-.11-.44-.13,.02v.45Zm41.64,92.84l-.23,.02,.1,.46,.13-.02v-.45Zm.05-5.98v.14h.55v-.14h-.55ZM3.03,59.54l-.24,.03,.11,.44,.13-.02v-.45Zm67.35,20.96h-.14v.55h.14v-.55Zm-59.94,12.91v.09h.27v-.09h-.27ZM32.44,15.85h-.09v.27h.09v-.27Zm34.19,58.83v-.09h-.27v.09h.27Zm-48.1,30.37h-.09v.27h.09v-.27ZM7.98,42.77v-.09h-.27v.09h.27Zm35.46-8v.09h.27v-.09h-.27Zm-8.36,80.38h.09v-.27h-.09v.27Zm21.37,1.91h-.09v.27h.09v-.27ZM34.44,18.22v-.09h-.27v.09h.27ZM9.16,83.5h.09v-.27h-.09v.27Z"/><path class="cls-1" d="M69.58,113.3v1.52l-1.16-1.65,.74-1.33,1.34,.44c-.21,.4-.19,.92-.92,1.02Z"/><path class="cls-1" d="M8.54,103.15l-.83-.4,.72-1.03,.11,1.43Z"/><path class="cls-1" d="M12.29,107.8l.68,.92c-.2,.08-.3,.16-.35,.14-.33-.16-.72-.32-.34-1.06Z"/><path class="cls-1" d="M10.31,105.87h.61l.06,.78-.18,.06-.49-.83Z"/><path class="cls-1" d="M12,107.78h-.4l-.1-.48,.5-.1v.58Z"/><path class="cls-1" d="M18.55,.58h-.4l-.1-.48,.5-.1V.58Z"/><path class="cls-1" d="M65.6,117.77l-.08-.94h.53l-.45,.94Z"/><path class="cls-1" d="M5.32,38.22v-.55h.14v.55h-.14Z"/><path class="cls-1" d="M.59,76.98l-.22-.19,.09-.09,.19,.22-.05,.05Z"/><path class="cls-1" d="M1.74,66.34l-.19,.22-.09-.09,.22-.19,.05,.05Z"/><path class="cls-1" d="M16.71,112.6h-.27v-.09h.27v.09Z"/><path class="cls-1" d="M25.95,6.01l.19-.22,.09,.09-.22,.19-.05-.05Z"/><path class="cls-1" d="M33.1,123.35l-.19,.22-.09-.09,.22-.19,.05,.05Z"/><path class="cls-1" d="M9.02,57.86h-.7v-1.56l.53-.19-.32-.68c.14-.37,.4-.74,.39-1.1,0-.41,.24-.76,.16-1.19-.11-.58,.24-1.07,.44-1.58,.15-.39,.15-.67-.18-.94l.51-.5v-1.63l.94-.75-.41-.46c.51-.44,.22-1.05,.11-1.78,0,0-.15-.15-.32-.32l.84-1.27-.28-1.17,.27-.43-.26-.41c.22-.41,.52-.83,.68-1.3,.15-.44,.14-.92,.22-1.55l-.5-.65,1.29-.65-.6-.51-.23-.88,.48-.54-.34-1.35,1.85,.58q-.41,1.05-1.34,1.52l.95,.7c-.34,.56-.3,1.27-.94,1.66l.35,.62-.33,.59,.31,.41-.39,1.17-.44,.09c.06,.88,.67,1.76,.01,2.62,.16,.94-.39,1.64-.81,2.43l.75,.47c-.26,.15-.03,.8-.63,.71l-.39,1.15,.24,.3-.75,3.24,.25,.44-.32,.65,.34,.37-.71,.46-.64,1.94,.24,.34-.33,.9Z"/><path class="cls-1" d="M14.38,25.59l-.65,.14,.56,1.05c-.12,.41-.95,.65-.48,1.3,.28,.39-.48,.87,.18,1.24l-.65,.72,.48,.52-.79,.79,.18,.16-.2,1.26s.08,.11,.23,.31l-.91,.64-.55-.59c.24-.64,.68-1.33-.12-2.01l.91-.6c-.29-.58,.27-.95,.31-1.44l-.45-.45c.06-.34,.11-.66,.18-.98,.08-.37,.14-.76,.28-1.11,.13-.31,.23-.57,0-.88-.07-.09-.07-.32,0-.39,.67-.73,.05-1.27-.17-1.86l.71-.68q0-1.61,.38-2.48,.81,.35,.46,1.19c.07,.08,.17,.16,.23,.27,.04,.07,.02,.17,.02,.24l-1.08,.81,1.23,.42-1.02,.6,.72,1.82Z"/><path class="cls-1" d="M50.26,118.19v-.73c.57-.36,1.15-.75,1.79-.92,.41-.11,.58-.4,.83-.63,.37-.33,.69-.71,.99-1.02l.84,.43-.7,.65c-.29,.42,.52,.66,.69,1.22l-.54,.36-.44-.44-1.04,1.3,.24,.75-.33,.35-.71-1.31h-1.63Z"/><path class="cls-1" d="M18.08,8.35l.3-.3-1.94-.8c0-.21,.02-.51,0-.82-.02-.28-.09-.56-.16-.91l.33-.33,.5,.75,.83-.22c.16,.33,.26,.61,.42,.85,.14,.21,.41,.35,.52,.57,.12,.23,.26,.63,.15,.76-.29,.35,.41,.49,.09,.78-.42,.23-.74,.06-1.03-.33Zm-.97-2.07l.56,1.13c.14-.02,.22-.04,.31-.05,.08-.8,.08-.8-.87-1.08Z"/><path class="cls-1" d="M69.11,90.66l-.25,1.52c.07,.23,.94,.07,.71,.82h-.66l-.54-1.08-.93,.39c0-.29-.05-.58,0-.61,.59-.26,.68-1.22,1.66-1.05Z"/><path class="cls-1" d="M69.94,97.14l-.17-.96,.88-1.74,.61,.98-.79,.15v.95l.65,.23-.68,.27,.13,.13h-.63Z"/><path class="cls-1" d="M8.8,63.36l.4-.26,.75,.36-.3,1,.3,.54-.49,.54-.16-.81-.5-.43v-.94Z"/><path class="cls-1" d="M36.89,30.71v.57l.57,.26-1.01,.5-.42-1.64,.65-.1,.71-.73v.92l-.49,.23Z"/><path class="cls-1" d="M67.95,84.59q-.68,.01-1.19,.27c-.68-.49,.15-1.05-.03-1.62l.65,.56,.57-.28v1.07Z"/><path class="cls-1" d="M26.79,108.94l1.61,1.18-1.12,.39c-.68-.27-.45-.86-.5-1.57Z"/><path class="cls-1" d="M33.77,28.17l-.22-.75-1.29-.66,.82-.31,1.27,1.03-.32,.65-.27,.04Z"/><path class="cls-1" d="M67.45,81.7c-.69-.61-1.15-1.14-1.09-1.99h.71l.38,1.99Z"/><path class="cls-1" d="M69.83,91.55l.36-.77s-.72-.27-.02-.46q.75,.99,.73,1.68l-1.08-.45Z"/><path class="cls-1" d="M31.6,24.61l1.16,1.16s0,.09-.02,.09c-.33,.03-.66,.06-1.13,.11l.33-.4-.83-.55,.48-.4Z"/><path class="cls-1" d="M10.44,73.68c.08,.03,.21,.06,.22,.09,.01,.5,0,1.01,0,1.52-.75,.15-.43-.62-.77-.79,.43-.11,.59-.4,.55-.82Z"/><path class="cls-1" d="M32.56,113.12l-.58,.21,.28,.33-.42,.19c-.05-.18-.07-.34-.13-.47-.06-.11-.17-.19-.14-.16l.33-.73,.67,.64Z"/><path class="cls-1" d="M26.11,17.51l-.5,1.03-.73-.37c.34-.24,.48-.73,1.23-.66Z"/><path class="cls-1" d="M68.19,82.37h-.69l-.07-.35,.76-.42v.77Z"/><path class="cls-1" d="M27.59,20.47l.68,.1-.54,.88-.14-.98Z"/><path class="cls-1" d="M50.81,48.18l.28,.28-.43,.37-.44-.41,.59-.24Z"/><path class="cls-1" d="M56.46,55.13h-.4l-.1-.48,.5-.1v.58Z"/><path class="cls-1" d="M10.36,67.01l-.83-.6q.59,.02,.83,.6Z"/><path class="cls-1" d="M65.51,75.98l-.48,.55-.08-1.09,.55,.54Z"/><path class="cls-1" d="M53.22,52.26l.42-.73c.4,.49-.06,.63-.42,.73Z"/><path class="cls-1" d="M22.62,15.63h1.37c-.31,.25-.46,.37-.45,.35l-.93-.35Z"/><path class="cls-1" d="M45.36,122.25l-.52-.04-.04-.46,.51-.06,.04,.56Z"/><path class="cls-1" d="M54.42,52.68h.4l.1,.48-.5,.1v-.58Z"/><path class="cls-1" d="M41.96,37.6l-.58-.36q.66-.05,.58,.36Z"/><path class="cls-1" d="M55.09,115l.58-.36c.06,.35,.15,.67-.58,.36Z"/><path class="cls-1" d="M40.06,35.19l.2,.57c-.27,.13-.37-.06-.2-.57Z"/><path class="cls-1" d="M23.28,14.26v-.45l.53,.35-.53,.1Z"/><path class="cls-1" d="M6.51,80.95l-.3-.37q.38-.03,.3,.37Z"/><path class="cls-1" d="M66.92,90.49v-.39h.47l.1,.13-.57,.26Z"/><path class="cls-1" d="M30.3,23.45h-.45l-.02-.13,.46-.1v.23Z"/><path class="cls-1" d="M66.56,101.78v.55h-.14v-.55h.14Z"/><path class="cls-1" d="M22.5,15.04l-.04-.52,.18-.02,.1,.53h-.24Z"/><path class="cls-1" d="M22.12,13.45v.45l-.13,.02-.1-.46,.23-.02Z"/><path class="cls-1" d="M22.71,15.04c.41,.02,.23,.34,.27,.55-.41-.02-.23-.34-.27-.55Z"/><path class="cls-1" d="M45.58,38.54v.45l-.13,.02-.11-.44,.24-.03Z"/><path class="cls-1" d="M26.73,18.58v.55h-.14v-.55h.14Z"/><path class="cls-1" d="M70.87,93.83l.66,.19c-.13,.04-.25,.1-.38,.12-.04,0-.09-.1-.28-.31Z"/><path class="cls-1" d="M51.85,48.91v.45l-.13,.02-.1-.46,.23-.02Z"/><path class="cls-1" d="M24.14,16.67v-.55h.14v.55h-.14Z"/><path class="cls-1" d="M67.42,91.71l-.22-.19,.09-.09,.19,.22-.05,.05Z"/><path class="cls-1" d="M13.35,87.05v.27h-.09v-.27h.09Z"/><path class="cls-1" d="M5.44,84.32v.27h-.09v-.27h.09Z"/><path class="cls-1" d="M65.5,103.39l.19-.22,.09,.09-.22,.19-.05-.05Z"/><path class="cls-1" d="M25.17,105.78h-.27v-.09h.27v.09Z"/><path class="cls-1" d="M9.87,74.53l-.22-.19,.09-.09,.19,.22-.05,.05Z"/><path class="cls-1" d="M10.53,67.95v-.27h.09v.27h-.09Z"/><path class="cls-1" d="M11.01,57.34l-.19,.22-.09-.09,.22-.19,.05,.05Z"/><path class="cls-1" d="M10.95,57.29l.19-.22,.09,.09-.22,.19-.05-.05Z"/><path class="cls-1" d="M10.98,56.68h-.27v-.09h.27v.09Z"/><path class="cls-1" d="M59.51,113.26l-.22-.19,.09-.09,.19,.22-.05,.05Z"/><path class="cls-1" d="M43.47,35.52l-.19,.22-.09-.09,.22-.19,.05,.05Z"/><path class="cls-1" d="M38.53,34.04h-.27v-.09h.27v.09Z"/><path class="cls-1" d="M14.35,31.68v-.27h.09v.27h-.09Z"/><path class="cls-1" d="M28.98,21.76h-.27v-.09h.27v.09Z"/><path class="cls-1" d="M49.44,119.6h.27v.09h-.27v-.09Z"/></g></g></svg>