<?xml version="1.0" encoding="utf-8"?>
<!-- Generator: Adobe Illustrator 26.3.1, SVG Export Plug-In . SVG Version: 6.00 Build 0)  -->
<svg version="1.1" id="Calque_2_00000154407569646087330990000000663328868661518232_"
	 xmlns="http://www.w3.org/2000/svg" xmlns:xlink="http://www.w3.org/1999/xlink" x="0px" y="0px" viewBox="0 0 77.6 125.8"
	 style="enable-background:new 0 0 77.6 125.8;" xml:space="preserve">
<style type="text/css">
	.st0{fill:#C56120;}
</style>
<g id="Calque_1-2">
	<g>
		<path class="st0" d="M8.7,65.7c-0.1-0.4,0.1-0.8-0.2-1.3c-0.2-0.4,0-0.9,0.2-1.4c0.2-0.6,0.2-1.4,0.5-2c0-0.1,0.1-0.2,0.2-0.3
			c-0.1-0.3,0.2-0.8-0.2-1.1c1.1-0.6,1.3-1.1,0.9-2.1c0.1-0.5,0.8-1,0.3-1.6c0,0,0.1-0.1,0.1-0.2c0-0.2,0-0.5-0.1-0.8l0.4-0.3
			c-0.4-0.7-0.2-1.4-0.3-2l0.5-0.5l-0.2-0.7l0.1-0.2l-0.6-0.6l0.5-0.3c0.2-0.7,0.3-1.4,0.5-2.2c0-0.1-0.1-0.2-0.2-0.2
			c0.4-0.5,0.1-1,0.2-1.6l0.6-0.6L11.5,45c0.1,0,0.2-0.1,0.3-0.1c0.1,0,0.2-0.1,0.3-0.1l-0.3-0.6l0.3-0.4l-0.3-0.6
			c0.7-0.1,0.8-0.6,1-1.1l-0.5-0.7l0.4-0.5L12.1,40l0.6-1.5l-0.3-0.3c0.2-0.5,0.4-1.1,0.3-1.7c-0.1-0.4,0.3-0.8,0.6-1.4v-0.6
			l0.4-0.4c-0.5-0.6,0.3-1.1,0-1.6l0.4-0.1c0.3-0.5-0.5-1-0.1-1.5l0.3,0.3l0.4-1.5c0.5-0.3,0.4-1,0.5-1.5c0.2-0.9,0.5-1.7,0.6-2.5
			c0.1-0.6,0.3-1.1,0.3-1.7c0-0.4,0.2-0.9,0.3-1.3l-0.5-0.1c-0.2-0.4,0-0.6,0.3-0.8l0.3,0.3v-0.8c-0.4-0.4-1.2-2.1-1.3-2.9
			c0.1,0,0.2-0.1,0.3-0.1c0.1,0,0.2,0,0.4,0v-0.6l0.8-0.1l0.9-0.9l-0.1-0.1l1-0.4l0.3-0.8L21,13c0.3-0.1,0.7-0.1,1.1-0.3
			c0.7-0.2,0.8-0.2,1.4,0.3c0.2,0.1,0.3,0.3,0.5,0.3c0.6,0.1,1.2,0.2,1.8,0.3l0.4,0.8l0.6,0.1l0.3,1.3l0.5,0c0.1,0.4,0,0.9,0.7,0.9
			c0.3,0.9,0.9,1.6,1.3,2.3c0.3,0.5,0.5,1,0.8,1.7c0.4,0.3,1.1,0.6,1.4,1.3c0.1,0.2,0.4,0.3,0.6,0.4c0.2,0.1,0,0.5,0.4,0.4
			c0.1,0,0.3,0.3,0.4,0.4c0.1,0.2,0.3,0.3,0.6,0.4c0.6,0.2,0.8,0.8,1.3,1.1c0,0,0.1,0,0.1,0.1c0,0.7,0.5,0.9,1.1,1.1
			c0.1,0,0.1,0.2,0.2,0.4l0.5,0.1l0.9,1.3l0.2-0.2c0.5,0.3,0.7,0.9,1.2,1.2l0.1,0.5c0.2,0.2,0.6-0.1,0.8,0.3
			c0.1,0.3,0.2,0.5,0.5,0.5c0,0.1,0,0.3,0,0.4l1.6,1.3v0.6l0.4-0.2c0.6,0.2,0.5,1.1,1,1.3c0.6,0.2,0.5,1,1.2,1c0.3,0.5,0.6,1,1.2,1
			c0.2,0.3,0.3,0.5,0.6,0.9v0.9l0.6-0.3v0.8c0.6,0.4,1,0.9,1.3,1.5c0.2,0.4,0.8,0.4,1,0.9c0.1,0.4,0.2,0.8,0.5,1.1
			c0.2,0.2,0.3,0.6,0.5,0.9c0,0.1-0.1,0.2-0.1,0.3l1.9,0.9c0,0.1,0.1,0.2,0.1,0.3c0.3,0.4,0.6,0.7,0.8,1.1c0.1,0.4,0.3,0.8,0.5,1.1
			c0.2,0.2,0.1,0.5,0.2,0.9l0.7,0.5L54.5,48l1.4,1.5v0.3c0.5,0.1,0.5,0.7,0.9,0.9l-0.1,0.1c0,0.8,0.9,1.2,0.8,2.1
			c0.6,0.2,0.5,1.1,1.3,1.3c-0.2,0.6,0.4,0.8,0.7,1.2L59.1,56l0.9,0.7l0,0.5l0.7,0.1l-0.2,0.5c0.6,0.4,1,1.3,1.7,1.7l-0.2,0.2
			l0.4,0.5l-0.1,0.1l0.6,0.6v0.8c0.8,0.3,0.9,0.9,0.9,1.6l0.4,0.4c0,0-0.1,0.1-0.2,0.2c0.1,0.1,0.2,0.1,0.2,0.2c0,0.2,0,0.4,0,0.7
			l0.4,0.1l0.1,0.5l0.4,0.4L65,66.2l0.6,0.4l-0.1,1.1l1.6,2.6c0-0.1,0,0,0,0c-0.3,0.3,0.3,0.5,0.1,0.9c-0.1,0.1,0.3,0.4,0.4,0.7
			c0.3,0.5,0.3,1.1,0.5,1.9l0.5,0.4l0.3,1.2l-0.2,0.4l0.9,1.2l-0.2,0.2c0.3,0.6,0.3,1.2-0.1,1.9l0.8,0.9l-0.5,0.6
			c0.1,0.5,0.8,1,0.2,1.6l0.3,0.4c0,0.3-0.5,0.7,0,1l-0.2,0.4l0.3,0.3C69.3,85,70.4,86,69.9,87l0.4,1.3l-0.5,0.5l0.2,0.7l-0.6,0.4
			c0.3,1,0,1.9,0.1,2.9l-0.4,0.4l0,0.8l-0.6,0.4V95l-0.7,0.4c0.1-0.1,0,0,0,0c0.2,0.6-0.3,0.9-0.5,1.3c-0.3,0.5-0.7,0.9-0.7,1.6
			c0,0.1-0.2,0.2-0.3,0.3l-0.2-0.2l-0.4,0.4l0.3,0.6c-0.1,0-0.2,0.1-0.3,0.1c-0.2,0.1-0.4,0.2-0.6,0.2v0.5l-1.1,0.6l-0.5-0.3
			c-0.2,0.2,0,0.3,0.7,0.8v0.7c0,0-0.1,0-0.1,0c-0.3-0.1-0.6-0.3-0.9-0.4c-0.3,0.3-0.5,0.7-0.6,1.2l-0.2-0.2l-0.6,0.3l0.2,0.4
			c-0.3,0.6-0.9,0.7-1.4,1c0.2,0.3,0.4,0.5,0.8,0.6l0.8-0.9l0.4,0.3c-0.3,0.5-0.1,1-0.2,1.5c-0.1,0-0.3,0-0.5,0.1
			c0.1-0.3,0.2-0.5,0.3-0.8l-0.4,0c0,0.2,0,0.4,0.2,0.7c0,0.4-0.6-0.1-0.7,0.3c-0.2-0.4-0.7-0.5-1-1l-0.1,0.9l-0.5,0.5l0.6,0.9
			c-0.4,0-0.8,0.2-1-0.2c0,0,0,0,0,0l0.2-0.2l-0.1-0.1c0,0.1-0.1,0.1-0.1,0.2c-0.4,0.3-0.9,0.6-1.3,0.8l-0.2,0.4l-0.7-0.3l-0.1,0.7
			l-0.4,0.1l0.1-0.6l-0.6-0.1v0.6l-1.1,0.2l0,0.8l-0.8,0.5c-0.2-0.1-0.5-0.1-0.7-0.2c-0.2-0.1-0.4,0.4-0.6,0l-0.3,0.3l0.3,0.7
			l-0.7-0.3l-0.3,0.5l-1.7-0.2c-0.3,0.9-0.3,0.8-1.5,1.1c-0.3,0.1-0.6,0.1-0.9,0.2l-0.4,0.4c-0.1,0-0.1,0-0.2-0.1
			c-0.3-0.2-0.5-0.1-0.8,0c-0.7,0.4-1.5,0.6-2.3,0.5c-0.1,0-0.2-0.1-0.3-0.2l-1.2,0.6l-0.4-0.9l-1.1,0.6l0.5,0.2v0.6l-0.6,0
			l-0.6-1.1c-0.5-0.2-0.9,0.1-1.4,0.4l-0.1-0.4h-0.9l-0.5,0.7l-0.4-0.7l-0.6-0.1l0.4-0.8c-0.4,0.1-0.5,0.4-0.7,0.5
			c-0.1,0.3,0.1,0.8-0.2,0.9l-0.9-0.9c0-0.3,0.4-0.3,0.7-0.5l-1.1-0.6l-0.7,0.5l-0.3-0.4l-0.8,0.2l-0.4-1.2l-0.8-0.5l-0.7,0.6
			l-0.5-0.8l-0.1,0.1l0-0.8l-0.8,0.3c-1-0.3-1.4-1.3-2.3-1.8h-0.8c-0.2-0.3-2.2-2.1-2.5-2.3v-0.4c-0.4-0.3-1.1-0.3-1.2-1h-0.5
			l-0.6-1.1l-0.6,0l-0.6-1.3l-0.9,0l0.3-0.9c-0.2-0.3-0.4-0.5-0.9-0.3l0.6,1.2l-0.8,0l-0.1-0.4l-0.7,0.2L18,101l0.8-1l0.5,0l0-0.4
			l-0.9-0.9l-0.5,0c-0.1-0.2,0.1-0.2,0.1-0.3c0-0.1,0-0.3,0-0.5c-0.4-0.2-0.7-0.6-1-1l-0.3,0.3l0.6,0.6l-1-0.3
			c0.1-0.2,0.4-0.5-0.1-0.7l-0.4,0.9l-1.1-0.5l0.8-1.4l0.5,0.7l0.3-0.3l-0.6-1.1l-0.6,0.6l-0.4-1.1l0.7-0.5L15,94l-0.4,0.4
			c0,0-0.1,0-0.2-0.1c-0.4-0.1-0.1-0.5-0.3-0.7L13,94.3c0-0.3,0-0.5,0-0.6c0-0.1,0.1-0.2,0.2-0.3c-0.6-0.1-0.7-0.6-0.9-1.1l0.4-0.3
			l0.6,0.8l0.3-1.3l-0.2-0.1l-0.4-0.9l-0.2,0v1.2l-0.4-0.3L12.1,92l-0.5-0.3l0.3-0.3l-0.4-0.3v-1l-0.7-0.5c0.1-0.6,0.7-0.7,1.1-1.1
			v-0.8c-0.4,0.7-1,0.6-1.4,0.9c-0.4-0.5,0-0.9,0.1-1.4L10,87.6l-0.5-1c0.1-0.4,0.9-0.3,0.8-0.9c-0.4-0.3-0.6,0.1-1,0.1l-0.1-0.6
			l0.5-0.5l-0.9-0.4l-0.3-0.7L9,83.4l0.5,0.2L9.8,83L9,82.6c0-0.4,0.4-0.6,0.7-0.8c-0.7-0.2-0.8-0.2-1.9,0.7
			c0.1-0.2,0.1-0.4,0.2-0.5c0.4-0.2,0.2-0.7,0.5-0.9c0.3-0.3-0.1-0.6-0.1-0.9c0-0.3-0.3-0.5-0.1-0.8C8.4,79.4,8.1,79,8,78.7l0.7-0.5
			l-0.4-0.4l0.2-0.2l-0.6-0.2l0.2-0.2c0,0,0-0.1,0-0.1c0.5-0.5-0.1-1.1,0-1.6c0,0,0,0,0,0l0.2-0.2l-0.1-0.1c0,0.1-0.1,0.1-0.1,0.2
			c-0.1,0-0.2,0-0.4,0c-0.2-0.4-0.1-0.8,0.1-1.1c0.5-0.3,0.1-0.7,0.2-1L7.8,73l-0.3,0.2l-0.1-0.3l0.7-0.4l-0.1-1.4l-0.6-1l0.1-0.1
			l0.3,0.2c0.2-0.4,0.1-0.7-0.2-1.1l0.7-1.5l-0.8,0.2c0.2-0.8,0.7-0.9,1.3-1v-0.7l0.5-0.5l-0.3-0.3L8.7,65.7L8.7,65.7z M62.2,70.8
			L62.2,70.8l-0.1-0.2L62,70.6C62.1,70.7,62.2,70.7,62.2,70.8c0.1,0.1,0.2,0.1,0.3,0.2l0,0l0.2,0.2l0.1-0.1c-0.1,0-0.1-0.1-0.2-0.1
			C62.4,70.9,62.3,70.8,62.2,70.8z M61.2,98.6L61.2,98.6l0.1,0.2l0.1-0.1C61.3,98.7,61.2,98.6,61.2,98.6L61.2,98.6L61,98.4L61,98.5
			C61,98.5,61.1,98.6,61.2,98.6z M25.1,20.3c-0.1-0.1-0.1-0.1-0.8-0.5c0.2,0.2,0.2,0.3,0.2,0.3c0.1,0,0.2-0.1,0.3-0.1
			c-0.1,0-0.3-0.1,0,0.1C24.9,20.2,25,20.3,25.1,20.3L25.1,20.3l0.1,0.2l0.1-0.1C25.2,20.4,25.2,20.3,25.1,20.3L25.1,20.3z
			 M58.9,102.4c-0.7,0.2-0.9,0.9-1.3,1.5l0.6,0.3l1-0.6C59.1,103.2,59,102.8,58.9,102.4L58.9,102.4l0.2-0.1l-0.1-0.1
			C59,102.2,58.9,102.3,58.9,102.4L58.9,102.4z M38.2,31L38,31.5l0.7,0.7l1,0.2l0.2-0.2l-1.2-1.4C38.5,30.8,38.4,30.9,38.2,31
			l0.1-0.6c-0.3-0.3-0.8-0.6-1-1c-0.2-0.5-0.8-0.5-1-0.9c-0.2-0.4-0.6-0.7-0.9-1.1l-0.3,0.3c-0.2-0.4-0.3-0.7-0.5-1
			c-0.2-0.2-0.5-0.4-0.7-0.6c-0.3-0.3-0.5-0.6-0.7-0.9c-0.3,0-0.5,0-0.8,0l0,0L32.3,25l-0.1,0.1c0.1,0,0.1,0.1,0.2,0.1l0.3,1.1
			l0.5,0.1c0.1,0.5,0.8,0.6,0.9,1.1c0.5,0.1,0.6,0.9,1.1,0.9c0.2,0.5,0.7,0.7,1,0.9l0.3,1.1l0.9,0.6C37.7,30.9,37.9,30.9,38.2,31z
			 M22.2,99.5c0,0.2,0,0.4,0,0.4c0.5,0.2,0.7,0.8,1.3,1c0.2,0.1,0.5,0.3,0.5,0.8c0,0.2,0.2,0.3,0.3,0.5c0.1,0.2,0.3,0.4,0.4,0.6
			l0.5,0.1l0.9,1.1l0.7-0.2l-0.3,1l0.7,0.1l0.5,0.8l0.5,0l0.9,0.7c0.1-0.1,0.2-0.2,0.3-0.3c0.5,0.7,1.1,1.2,1.8,1.4l0.3-0.2
			c0.2,0.2,0.4,0.6,0.7,0.7c0.4,0.1,0.7,0.2,0.9,0.4h1.1l-0.2-0.3l0.6-0.9l-0.7,0.3l-0.6-0.5l-0.4,0.2l-0.2-0.4l-0.7,0l-0.9-1.1
			h-0.7l-0.1-0.6l-0.8,0.2c-0.1-0.7-1.1-0.6-1.4-1.2l0.2-0.2l-0.7-0.1l-0.8-1.1h-0.5l-0.4-0.7h-0.8l-0.3-0.9l-0.4,0.2l-0.9-1.1V100
			l-1.3-0.9l0.3-1.6h-0.4l-0.1,0.5l-0.8-0.1l-0.3,0.9l0.6,0.6c0.1,0,0.2,0,0.5,0.4l0,0l-0.2,0.2l0.1,0.1
			C22.2,100.1,22.2,100,22.2,99.5L22.2,99.5z M46.4,39.3c-0.3,0-0.6-0.1-0.7-0.4c-0.1-0.2-0.2-0.5-0.3-0.7c-0.7-0.7-0.9-1-1.1-1.8
			L44,36.7l-0.4-0.3l-0.5,0.4c0.3,0.5,0.5,1,0.8,1.1c0.7,0.3,0.7,1,1.1,1.5l-0.2,0.3l0.7,0.3c0.5,0.7,0.9,1.3,1.3,1.9
			c0.3,0.6,0.9,1,1,1.6l0.8,0.8l0.3-0.2l-0.2,1c0.2,0.1,0.4,0.2,0.6,0.3L49,45.7c0.3,0.5,1,0.5,1,1.2L49.9,47l0.7,0.4v0.8l0.9,0.6
			c0.3,0.6,0.6,1.3,0.9,1.9c0.1,0.1,0.1,0.3,0.2,0.4c0.7,0.2,0.7,0.8,0.9,1.4l1,0.6l-0.3,0.6l1-0.2l-0.5,1H55l0.9,1.1l-0.2,0.2
			c0.5,1.3,1.2,2.5,1.8,3.5l0.6,0.4l-0.3,0.3l0.3,0.6c0.2,0.1,0.3,0.2,0.4,0.2c0.1,0.1,0.3,0.1,0.4,0.2c0.6,1.2,0.6,1.2,0.5,1.6
			l1.1,1.4l-0.1,0l1.1,2.2l0.4,0c0.1,0.3,0.1,0.6,0.3,0.9c0.4,0.6,0.8,1.1,0.9,1.9c0.1,0.7,0.6,1.4,1.1,2.3c0,0,0,0.2,0,0.4
			c0.6,0.3,1.1,0.9,1.2,1.6c0.1,0.7,0.6,1.2,0.4,1.8l0.5,0.4c0,0.4-0.1,0.6,0,0.8c0.1,0.4,0.3,0.8,0.5,1.1c0.2,0.4,0.4,0.9,0.5,1.3
			L67.1,79c0.1,0.3,0.6,0.4,0.4,0.8l-0.7-0.1c0,0.5,0.5,0.6,0.5,1.1c0,0.3,0.4,0.6,0.6,0.9c-0.2,0.5,0.2,0.9,0.3,1.3l-0.4,0.8
			l0.6,0.4l-0.5,1c0.1,0.6,0.5,0.9,1,1.1l0.2-0.8l-0.3-0.3c0.1-0.3,0.1-0.5,0.1-0.8c0.1-0.3,0.1-0.5,0.2-0.8l-0.2-0.4l0.3-0.4
			c-0.3-0.4-0.1-0.9-0.3-1.3c-0.2-0.5-0.2-1-0.2-1.4c-0.2-0.3-0.3-0.5-0.4-0.8c0.3-0.3,0.1-0.7,0.2-1c0.1-0.3-0.4-0.6-0.1-0.9
			c-0.2-0.4-0.5-0.8-0.7-1.3c-0.1-0.3-0.2-0.6-0.1-0.9c0.1-0.6-0.2-1.1-0.6-1.4c0.2-0.5,0.2-0.5,0.1-0.8c-0.2-0.5-0.5-1-0.7-1.5
			l0.1-0.2l0.2-0.2L66,70.9l0.2-0.3l-0.5-0.2v-1c-0.7-0.1-0.5-0.8-0.6-0.9c-0.3-0.3-0.7-0.4-0.6-0.5c0-0.6-0.5-0.9-0.5-1.5
			c0-0.3-0.2-0.7-0.6-0.7v-1l-0.1,0l-0.6-1.4c-0.3,0-0.5-0.2-0.6-0.5c0-0.3-0.2-0.6-0.2-0.9c0-0.4-0.2-0.9-0.5-1
			c-0.5-0.1-0.7-0.6-0.8-0.9c-0.2-0.5-0.6-0.9-0.9-1.3l0.2-0.2c-0.3-0.4-0.5-0.9-0.9-1.2c-0.3-0.4-0.7-0.7-1.1-1.1L58,56
			c-0.4-0.2-0.2-0.4,0-0.6l-0.6-0.9L57,54.8l-0.3-0.6l0.2-0.2L55.6,53v-1.2c-0.6-0.1-0.7-0.6-1.1-0.8l0-0.5L54,50.3l0.3-0.3
			l-0.6-0.3l0.2-0.3L53.2,49c-0.1-0.3-0.3-0.5-0.4-0.8c-0.4,0-0.5-0.4-0.8-0.6l0.2-0.2l-0.2-0.2l0.2-0.2l-1.1-0.6l0.2-0.3l-1.1-0.9
			l0.3-0.5c-0.2-0.2-0.4-0.4-0.6-0.6c-0.2-0.2-0.3-0.5-0.5-0.6c-0.4-0.1-0.5-0.4-0.6-0.7c-0.2-0.6-0.6-1.1-1-1.7l0.2-0.2
			c-0.6-0.5-1.1-0.9-2.5-2.1l0,0l0.2-0.2l-0.1-0.1C45.7,38.5,45.7,38.6,46.4,39.3L46.4,39.3z M14.7,58.8c0.3,0,0.3,0.3,0.2,0.4
			c-0.1,0.3-0.3,0.6-0.3,0.7c0,0.4,0.1,0.7,0,0.9c-0.3,0.4,0.1,1-0.2,1.2c-0.4,0.5,0.1,0.9,0,1.3L14,63.6l0.3,0.4
			c-0.1,0.3-0.3,0.8-0.2,0.8c0.4,0.3-0.1,0.5-0.1,0.7c0.1,0.2-0.1,0.5-0.2,0.8l0.3,0.4l-0.5,0.6l0.5,0.3L13.8,68l0.3,0.7l-0.9,0.2
			l0.8,0.6l0.5,1.2L14.1,71l0.2,0.5c1-0.5,1.1-0.7,1-1L14.7,70l0.3-0.3l-0.8-0.2l0.4-1.2c0.5,0.1,0.5-0.4,0.7-0.6h0.5l0.4,1
			l-0.7-0.3v1.6l0.5,0.3l-0.3,0.4c0.4,0.2,0.1,0.6,0.2,1l-0.6,0.2c-0.3-0.4-0.6-0.2-1,0.2l0.3,1.8l0.3,0.1c0,0.8,0.4,1.5,1.2,1.9
			l0,0l0.2,0.2l0.1-0.1c-0.1,0-0.1-0.1-0.2-0.1c0.1-0.3-0.1-0.6,0.2-1l0.7,1l-0.7,0.7c0.4,0.5,0,1.3,0.6,1.8l-0.2,0.4l0.3,0.5
			l-0.2,0.3c0.7,0.7,0.6,1.8,1,2.5l-0.2,0.9l0.6,0.1c0.1,0.3,0.2,0.6,0.3,0.9l0,0L18.3,84l0.1,0.1c0-0.1,0.1-0.1,0.1-0.2h0.4
			c0,0.2,0,0.4,0,0.5c0,0.1-0.1,0.1-0.1,0.1l-0.3,0.1c-0.1,0.3,0.1,0.7-0.3,1c0.6,0.2,0.9,0.7,1.1,1.1l-0.2,0.2l0.4,0.3V88
			c-0.6,0.1-0.5,0.5-0.7,0.8l0.4,0.1l0.6-0.8c0.3,0.5,1,1,1.1,0.9C21,89,21.1,88.9,21,89l0.7,0.3l-0.6,0.2v1.1l-0.5,0.5l0.2,0.7
			l0.6-0.8l0.8,0.3v0.5l-0.6,0.1c0,0.2,0,0.4,0.4,1.1c-0.3-0.2-0.5-0.8-1.1-0.5c0,0.5,0.3,0.8,0.7,0.8c0.1-0.1,0.2-0.2-0.1-0.9h0.9
			l0.2-0.3l0.5,0.2l-0.9,1.9c0.8,0,1.1,0.6,1.6,1l0.4-0.9L25,95c-0.4,0.6-1,1-1,1.8c0.1,0,0.3,0.1,0.4,0.1c0.1,0.1,0.3,0.1,0.5,0.2
			l-0.3-1.4c0.3,0,0.4,0,0.6,0s0.3-0.1,0.7-0.3c-0.2,0.4-0.3,0.6-0.4,0.7l-0.5,0c0.3,0.3,0.4,0.5,0.9,0.7c-0.2-0.4-0.3-0.6-0.4-0.7
			h0.6l0.3,0.3v0.8l-1.2,0.5l0.6,0.3l0.9-0.6l0.6,0.3l-0.2,0.2c0.3,0.4,0.7,0.6,0.9,1.2c-0.2,0-0.4,0-0.6,0.1
			c-0.2,0.1-0.3,0.2-0.4,0.3c0.4,0,0.8-0.1,1.2-0.3l0.2,0.2l0.2-0.2l0.3,0.3v0.8l-0.3-0.2l-0.3,0.5l1,1.9c0.2-0.2,0.3-0.5,0.5-0.8
			c0,0,0.1,0,0.1-0.1l0.2,0.2l0.2-0.2c0.3,0.3,0.5,0.5,0.2,0.9c-0.2,0.3-0.2,0.6,0,0.9c0.8-0.3,0.5-1.2,1-1.5l0.6,0.2
			c-0.3,0.4-0.5,0.8-0.2,1.1l-0.2,0.6l0.9,0.9h0.8l0.8,0.8H35v-0.8l-0.6-0.1c-0.2-0.4-0.6-0.7-0.3-1.3c0.1,0,0.3,0,0.3,0
			c0.5,0.3,1.1,0.6,1.7,0.7c0.2,0,0.4,0.3,0.3,0.6c0,0.1,0,0.1,0.1,0.2l0.6,0.3l0.3-0.3l1.2,0.6c0,0.3,0,0.6-0.4,0.7l-0.7-0.9
			c-0.4,0.3-0.9,0.3-0.9,0.9l0.9,0.1l0.3,0.6l0.4-0.2l0.4,0.7l0.8-0.5c0.2-0.6-0.5-0.7-0.6-1.2l0.4-0.3c0.8,0.6,0.6,1.6,1.1,2.2
			l1.1,0.2l0.3-0.3l0.8,0.1l0.1-0.4c0.3,0,0.6-0.1,0.9,0c0.4,0.2,0.8,0.3,1.1,0.2c0.4-0.2,0.8,0.1,1.2,0c0.1,0,0.2-0.1,0.2-0.2
			l0.4,0.2l0.7-0.7l0.4,0l0.6,0.9l-0.6,0.9h-1.3L46,109l-0.3-0.2l-0.4,0.6l-0.2-0.2c-0.8,0.3-1.6,0.6-2.5,0.4l-0.3-0.4
			c-0.4,0-0.7,0-0.9,0c-0.2,0.1-0.3-0.4-0.6-0.1c-0.1,0.1-0.5-0.1-0.5-0.1l-0.9,0.1l-0.1-0.3c-0.3,0-0.6,0.1-0.7,0.1
			c-0.5-0.2-0.9-0.4-1.4-0.6c0,0-0.1,0-0.2,0.1l-0.1,0.3c-0.6-0.3-1.2-0.3-1.8,0l-0.5-0.2c0,0.2,0,0.4,0,0.5c0,0.1-0.1,0.3-0.2,0.4
			l2,0.5c0,0,0.1-0.1,0.3-0.2c0.1,0,0.3,0,0.4,0l0.2,0.5l0.8-0.2l0.2,0.3l-0.2,0.2l0.3,0.3l0.4-0.4c0.6,0,1.3,0.2,2.2,0.6l0.6-0.5
			l0.3,0.6l0.7-0.2c0,0.1,0,0.2,0.1,0.3l1.2,0.3l0.3-0.4c0.4,0.1,0.5-0.3,0.8-0.4l0.2,0.2l0.3-0.5l0.6,0.6l0.9-0.5l-0.4-0.9
			c0.6-0.4,0.8,0.2,1.2,0.4l0.9-0.5l-0.6-0.6c0.4,0,0.7-0.5,1.2-0.2c-0.1,0.2-0.2,0.4-0.5,1.1c0.2-0.2,0.3-0.2,0.3-0.2
			c0-0.1-0.1-0.2-0.1-0.3c0,0.1-0.1,0.3,0.1,0h0.4l0.4,0.5l1.3-1.3l0.6,0.2c0.6-0.7,1-1.4,0.8-2.4l0.9-0.3l0.1-0.8
			c0.2,0,0.3,0,0.5-0.1l-0.1,0.1l0,0.4l0.4,0c-0.1-0.2-0.2-0.4-0.4-0.4c0.1-0.5,0.6-0.5,0.9-0.7l0.3,0.2c0.1-0.1,0.1-0.3,0.2-0.4
			c0.1-0.1,0.2-0.2,0.4-0.3c0.4-0.3,0.8-0.6,1-1.1l0.9-0.4l-0.3-0.6l1.3-1l-0.4-0.4l0.1-0.8l0.6,0.3v-1.5l0.4-0.2v-0.7l0.9,0.4
			l-0.3,0.5l0.2,0.2l-0.2,0.3l0.9,0.7l-0.2-0.9l0.6-0.8l-0.8-0.2l0-0.3c0.3-0.2,0.9,0.2,1-0.4l-0.3-0.5L60.1,97
			c-0.2-0.2-0.4-0.3-0.6-0.4c-0.1-0.1-0.1-0.2-0.1-0.1l0.6-0.6l0.1,0.1l0.3-0.2c0.1,0.4,0.4,0.5,0.9,0.4l0-0.7l0.4-0.4v-0.7
			l-1.1-0.8l0.7-0.3l0.6,0.5l0.1-0.7l-0.5-0.4c0.1-0.6-0.2-1.1,0.2-1.5l-0.2-0.6l0.8-0.9l-0.6-2.1l0.3-0.3l0.5,0.4l0.3-0.3l0.3,0.8
			l0.6,0.4c-0.3,0.4-0.8,0.6-0.9,1c0.3,0.3,0.5,0.5,0.7,0.7c0.1,0.1,0.3,0.3,0.4,0.4V91l-1.1,0.4v0.9l-0.6-0.6L62,92.4h0.9l1.1-0.5
			l0.6,0.2c-0.5,0.3-0.7,0.6-0.5,1.1l0.7-1v-0.6l0.4-0.1v-1l0.4-0.2c0.1-1.2,0.1-1.6-0.2-2.1c0.3-0.3,0.5-0.6,0.4-1L65.4,87
			c-0.2-0.5,0.1-0.9,0.3-1.2c0.3-0.5,0.2-0.8-0.2-1.1L65,85.1c-0.1-0.1-0.2-0.2-0.3-0.3l0.3-0.4c-0.4-0.3-0.8-0.6-0.7-1.1
			c0-0.3,0.6-0.4,0.4-0.8l-1.2-0.3L63,82.9c0,0.3,0.1,0.6,0.1,0.8c-0.1,0.2-0.4,0.3-0.7,0.6h1l-0.8,1.1c-0.4-0.4-0.5-1-0.6-1.5
			l0.9-0.2L62.2,83l-0.5,0.6l-0.4-0.8l0.5-0.7l-0.6-0.3l1-0.2l0.4,0.6l0.8-0.5c0-0.3,0-0.6-0.1-0.9l0.9,0.3c0.2-0.3,0.3-0.6,0.2-0.8
			c-0.2,0-0.3,0.1-0.5,0.2c-0.2,0.1-0.4,0.2-0.5,0.4l-0.8-0.2l-0.1,0.7l-0.7-0.4l0.5-0.5c0.4,0.1,0.5-0.2,0.7-0.4
			c0.3-0.2,0.7,0.1,0.9-0.2c0.1-0.1,0.1-0.2,0.3-0.4l-0.5-0.4l-0.4,0.7c-0.7-0.5-0.2-1-0.1-1.5l0.4-0.1l-0.3-0.5l-0.6,0.2l-0.4-0.3
			c0-0.2,0-0.2,0-0.3c0.1-0.2,0.1-0.4,0.2-0.6c-0.3-0.3-0.6-0.5-0.9-0.7l0.4-0.6l-0.4-0.6c0,0.5,0,0.8,0,1.1l-1,0.3l-0.4-0.5
			l0.9-0.9c0.4-0.1,0.6-0.3,0.7-0.8l-0.6-0.4l-0.2,1.2c-0.4-0.5-0.6-0.8-0.5-1.2l0.6-0.3l-0.5-0.3l-0.3-0.8c-0.5,0-0.2,0.8-0.9,0.6
			c0.4-0.6,0.7-1.2,0.2-1.8c0.1-0.1,0.2-0.2,0.3-0.3l-0.5-0.5c0.1-0.2,0.2-0.3,0.2-0.4l-0.4-0.4l0.2-0.6h-0.4l-0.1,0.4
			C58.4,69,59,68.2,58.6,68l0.2-0.5l-0.5-0.2l0.2-0.4l-0.8-1.1l0.2-0.5c-0.2-0.1-0.3-0.1-0.2-0.1c-0.7-0.6-0.6-1.4-1.1-1.9
			c-0.5-0.5-0.6-1.3-1.1-1.7l0.2-0.5l-0.5-0.2l0.3-0.3l-0.9-1.3l0.4-0.1c0.2-0.3-0.3-0.6,0-1c-0.5-0.2-0.8-0.7-1.1-1.1v-0.4
			c-0.3-0.8-1.2-0.7-1.3-1.5l0.3-0.3l-0.6-0.4c0.1-0.1,0.1-0.1,0.1-0.1l-0.9-1.7L50.6,53l-0.6-0.3l0.9-0.6l-0.3-0.6l-0.2,0.2l-1-1.5
			c0-0.2,0-0.5-0.1-0.6c-0.5-0.4-0.4-1-0.7-1.4c-0.3,0.2-0.5,0.4-0.9,0c0.2-0.3,0.8-0.5,0.5-1.1c-0.1,0-0.2,0-0.2-0.1
			c-0.3-0.3-0.5-0.7-0.8-1.1l-0.2,0.1l-0.7-0.2l0.1-0.8c-0.3,0.1-0.6,0.4-0.9,0.1l0.2-0.2c-0.8-0.7-0.6-2-1.5-2.8h-0.7l0.2-1l-1-0.7
			l-0.3,0.2L42.1,40c0-0.5-0.1-1-0.6-1.4l-0.4,0.5l-0.6-0.2c0.3-0.3,0.4-0.4,0.5-0.5c0.1-0.1,0.3-0.1,0.5-0.2
			c-0.3-0.2-0.4-0.3-0.6-0.4l0,0l-0.2-0.2l-0.1,0.1c0.1,0,0.1,0.1,0.2,0.1c0,0.2,0.1,0.5-0.2,0.4l-0.8-1l-0.6,0.5l-0.4-0.4l0.8-0.8
			l-0.5-0.5v-0.5l-0.9-0.1l0.3-1h-0.4L38,34.9l-0.6-0.6l0.5-0.4c-0.4-0.5-0.9-0.8-1.5-0.8l-0.4-0.8l-0.6,0.2l0.3-1.1L34.8,31l-0.7-1
			c-0.2,0-0.4,0-0.5,0c-0.1,0-0.2-0.1-0.3-0.3c-0.1-1.2-0.7-1.9-1.8-2.3l0.2-0.2c-0.2-0.3-0.6-0.7-0.6-1c0-0.7-0.5-0.7-0.8-0.7
			l-0.4-1l-0.7-0.3c-0.3-0.6-0.7-1-1.2-1.2v-0.4c-0.2-0.1-0.3-0.1-0.4-0.3c-0.1-0.1-0.2-0.4-0.4-0.5c-0.1-0.1-0.3,0-0.5,0
			c0-0.5-0.4-0.6-0.7-1.1l-0.4,0.6l-0.1-0.4c-0.2,0-0.4,0-0.6,0c-0.2,0-0.3-0.1-0.4-0.2L23.7,21l0.2-0.9c-0.5-0.1-0.6-0.6-0.7-0.8
			l0.2-1.2l0.4-0.5c-0.6-0.2-0.7-0.7-1.1-1l0.4-1.4l-0.4-0.1l0.2-0.5c-0.2-0.1-0.3-0.3-0.4-0.3c-0.6-0.1-1.9,0.5-2,1.1
			c-0.1,0.3-0.2,0.5-0.4,0.7c-0.2,0.3-0.4,0.7-0.6,1l-0.8,0.4c-0.2,0.6,0.2,0.7,0.7,0.9l-0.4,1.7l0.2,0.4l-0.8,1.3l0.7-0.2
			c0.2,0.7-0.2,0.8-0.6,1c0.1,0.4,0.4,0.6,0.7,0.8c0.1,0.1,0.1,0.4,0.1,0.6h-0.6l-0.1-0.6h-0.1v1l0.5,0.7l-0.8,0.2l0,0.3l0.8,0
			l-0.2,0.7l0.5,0.7L19,27.8h-1.5l0.2,0.8l-0.8,0.6l0.2,0.3l-0.5,0.6l0.2,0.4l-0.6,0.6c0.3,0.5,0.1,1,0.1,1.6L16,32.4l0.2,2
			l-0.9,1.7l0.2,1.1l-0.2,0.3l0.2,0.3l-0.3,1.3l-0.6,0.5l0.3,1.3l-0.3,0.5l0.1,0.9l-0.6,0l0.3,0.6l0.6-0.3c0,0.3,0,0.6-0.1,0.7
			c-0.1,0.2-0.4,0.3-0.6,0.5l0.6,0.4L14.3,45l-0.3-0.2l-0.8,0.5c0.3,0.3,0.5,0.4,0.6,0.6c0.1,0.2,0.2,0.5,0.3,0.7l0.4,0.1
			c0,0.5-0.1,0.9-0.1,1.4c0,0.2-0.1,0.4-0.2,0.6c-0.1,0.2-0.2,0.3-0.4,0.4c-0.1,0.1-0.3,0.2-0.4,0.2l0.2,0.7l-0.7,0.5l0.6,1.3
			l-0.6,1l0.6,0.3l-0.5,0.9l0.2,0.3l-0.2,0.2l0.2,0.2L12.5,57c0,0.3,0.2,0.6,0.1,0.9c-0.1,0.3-0.1,0.8-0.2,1c-0.3,0.5-0.2,1-0.1,1.4
			c0.1,0.4-0.2,0.9,0.3,1.3L12,61.8l0.2,0.7l-0.4,1.5l0.5,0.3l-0.4,0.1c0,0.4-0.1,0.8,0.2,1.2l-0.4,0.1c0.2,0.4-0.2,0.8,0.2,1.1
			c-0.5,0.3-0.1,0.6-0.1,0.8l-0.4,1.5l0.4,0.4l-0.4,0.4l0.2,0.3L11.1,71l0.3,0.3l-0.7,0.4l0.5,0.3L11,72.3c0,0.3,0.2,0.6,0.1,0.7
			c-0.2,0.3-0.3,0.6,0,0.9c-0.4,0.3,0.2,0.6,0,0.8c-0.5,0.4,0.2,0.9-0.2,1.2l0.4,1.3c-0.3,0.4-0.3,0.8-0.1,1.3
			c0.2,0.4,0.1,0.9,0,1.3c0,0.3-0.3,0.7-0.1,1l0.7-0.3l-0.2,0.9c0.1,0.2,0.3,0.4,0.4,0.6c0.1,0.2,0,0.5,0.2,0.7
			c-0.4,0.2,0.1,0.4,0,0.6c-0.1,0.2-0.1,0.5-0.2,0.6c0.2,0.6,0.4,1.2,0.6,1.8c0.2,0.6,0.6,1.1,0.8,1.7l-0.2,0.5
			c0.7-0.1,0.7,0.5,0.9,0.8L14,89c0.3,0.1,0.7,0,0.8,0.3c0.1,0.6,0.6,1,0.7,1.5c0.2,0.8,0.7,1.3,1.1,1.9L16.4,93
			c0.6,0,0.8,0.6,0.9,1c0.1,0.3,0.2,0.5,0.4,0.7c0.1,0,0.2,0.2,0.2,0.3c0.2,0.3,0.5,0.7,0.7,1l0.5,0.1l1,1.4L20,97.6
			c0.2,0.4,0.6,0.4,1.1,0.3l0.5-1l-0.7,0c-0.1-0.2-0.3-0.5-0.3-0.8c0-0.2,0.1-0.5,0.3-0.9c-0.6,0.5-1.2,0.6-1.4,0.4l0.2-0.7L19,94.4
			l-0.2,0.2l-0.4-0.7l1,0.2v-0.5l-1.1-0.3l-0.7-0.6l0.1-0.5l0.3,0.3l1-0.5l-0.7-0.3L17.7,92c-0.1-0.4-0.3-0.7-0.6-0.9l-0.5,0.2
			L16,89.8l0.6-0.4l-0.3-1l-0.6,0.8c-0.1-0.7-0.6-1.4,0-2.1l-1.2-0.9l0.2-0.2c-0.6-0.4-0.7-1.1-0.6-2l-0.7-0.5v-0.4l0.9-0.7l-0.9-1
			l-0.7-1.5l0.2-0.2L12.5,79v-0.9c0.5-0.1,0.5-0.5,0.7-0.9l-0.5-0.4l0.2-0.3c-0.2-0.1-0.5-0.3-0.7-0.4c0.1-0.1,0.1-0.2,0.1-0.1
			l-0.3-2.2l0.9-0.6l-0.6-0.4c0.3-0.7-0.1-1.5,0.4-2.2l-0.6-0.3l0.7-0.7c-0.1-0.1-0.2-0.2-0.2-0.3c0.1-0.4,0.1-0.7,0.3-1
			c0.2-0.3,0-0.6-0.1-0.8l0.2-0.2L12.4,67l0.4-0.5l-0.1-0.8l0.5-0.2v-1.7l0.4-0.3l-0.4-0.4c-0.1-0.8,0.2-1.6,0.5-2.1l-0.1-0.9
			l0.4-0.1l-0.1-0.5C13.9,58.8,14.6,59.2,14.7,58.8L14.7,58.8z M68.6,90.6c-0.1-0.7,0.2-1.2,0.2-1.6c0-0.5,0.5-1,0.1-1.7l-0.9,1V89
			c-0.8,0.6-0.9,1.4-0.9,2.3l-0.4,0.2l0.2,0.8l-0.4,0.1l-0.3,1.9l-0.4,0.2l0.2,0.7c-0.3,0.2-0.2,0.6-0.1,1c0.2,0,0.3,0,0.3-0.1
			c0.1-0.1,0.2-0.2,0.2-0.2c0-0.6,0.4-0.8,0.7-1.1v-0.6c0.7-0.8,1-1.8,1.3-2.7l-0.3-0.4L68.6,90.6L68.6,90.6z M27.1,17.3
			c-0.9-0.3-1.1-1.1-1.3-1.6c-0.5-0.5-0.8-0.8-1.2-1.1c0,0-0.1,0-0.2,0v0.8l0.3,0.1l0.3,1.4l0.6,0.4v0.6l0.7,0.6c0,0.2,0,0.3,0,0.3
			l0.6,0.7h0.3c0.4,0.5,0.7,1,1.1,1.5c0.3,0.4,0.7,0.7,0.8,1.2c0.1,0.4,0.5,0.4,0.8,0.5c0.6,0.4,0.6,1.2,1.4,1.5V23l-0.7-0.1
			l0.4-0.8l-0.9,0.1l-0.8-1.6L29,20.8l-1-1.3l0.3-0.4l-1.2-0.9L27.1,17.3L27.1,17.3z M43.8,35.9l-1.6-2L42,34l-0.7-0.4l0.5-0.3
			l-0.5-0.6l-0.2,0.5l-1-0.8v0.8h0.5c0.1,0.2,0.3,0.4,0.4,0.6c0.1,0.2,0.2,0.4,0.2,0.7c0.4,0,0.5,0.4,0.7,0.7c0.3,0.3-0.1,0.6,0,0.9
			c0.4,0,0.6-0.5,1-0.1l0.1,0.3L43.8,35.9L43.8,35.9z M16,78c-0.3-0.3-0.3-0.5-0.1-0.8c0,0,0-0.1,0-0.2l-0.6,0.3
			c-0.5-0.3-0.5-0.9-1.1-1.1c0.1,0.4,0.2,0.7,0.3,1l0.4,0.1L14.6,78l0.7,0.1l-0.3,0.3C15.6,78.6,15.7,78.1,16,78L16,78z M19,89.4
			c0.4,0.7,0.5,1.3,0.4,1.6l0.6,0.6c0.1-0.1,0.3-0.4,0.2-0.6c0-0.3,0.3-0.5,0.1-0.8c-0.1-0.1,0.1-0.5,0.3-0.9l-0.7,0.6L19,89.4
			L19,89.4z M55.1,105.1l-1.7,1.4l0.1,0.1l1-0.3l0.1-0.4h0.6c0.4-0.3,0.6-0.5,0.8-0.7c0,0,0-0.1,0.1-0.2
			C56,105.1,55.1,105.1,55.1,105.1z M15.7,79c-0.1,0.5-0.3,1-0.8,1.2l1,0.5l0.1,1l0.4-0.8C16.1,80.3,15.7,79.7,15.7,79z M63.1,74.4
			l0.5,0.7l0.8-0.3L63.6,74C63.6,74,63.1,74.4,63.1,74.4z M67.5,87.8c0.7-0.2,0.7-0.2,1-0.9l-0.6,0L67.5,87.8L67.5,87.8z M61,71.9
			c0.5-0.3,0.5-0.3,0.5-0.7c0,0-0.1-0.1-0.1-0.1h-0.6c0,0.3,0,0.5,0,0.7C60.9,71.8,61,71.8,61,71.9L61,71.9z M65.7,96.6h-0.4
			l-0.3,1.1l0.4,0.1L65.7,96.6z M26.8,98.2c-0.4,0.5-0.6,0.7-0.8,1c0,0,0,0.1,0.1,0.2l0.8-0.3C26.9,99,26.8,98.2,26.8,98.2z
			 M57.4,105c-0.1-0.4,0-0.7-0.1-0.7c-0.3-0.2-0.6,0-0.8,0.3C56.5,104.5,57.4,105,57.4,105z M63.4,72.4c-0.3,0.2-0.5,0.5-0.4,1
			l0.4-0.1l-0.3-0.5C63.2,72.9,63.4,72.4,63.4,72.4z M9.2,72.6l0.2-0.1v-0.6l-0.8,0.1L9.2,72.6z M17.5,26.3c0.1,0.4,0.2,0.7,0.7,0.6
			v-0.7L17.5,26.3z M40.6,37.5l0.3-0.4c-0.3-0.2-0.4-0.6-0.9-0.6L40.6,37.5L40.6,37.5z M16.8,82.7c-0.2-0.5-0.3-0.8-0.8-0.6
			C16.2,82.4,16.4,82.6,16.8,82.7z M18,87.4c0.5,0,0.7-0.2,0.7-0.7C18.3,86.7,18,86.9,18,87.4z M17.4,90l-0.9-0.4l0.5,0.8L17.4,90
			L17.4,90z M9,79.6c0.1,0.4-0.6,0.6-0.1,1C9,80.3,9.4,80.1,9,79.6z M22.5,95.3l0.4-0.1l0-0.6l-0.4,0.1
			C22.5,94.7,22.5,95.3,22.5,95.3z M8.5,68.2L8,68.8l0.5,0.4V68.2z M20.2,95l0.5-0.4l-0.5-0.5V95L20.2,95z M63.1,93.1l0.3,0.7
			l0.5-0.2L63.1,93.1L63.1,93.1z M60.3,69.3l0.5-0.2c-0.1-0.2-0.3-0.3-0.5-0.5V69.3z M63.2,76.1l0.8,0.4v-0.4H63.2z M8.6,78.5
			c0.1,0.3,0.2,0.7,0.6,0.3C9.2,78.8,8.6,78.5,8.6,78.5z M12.2,89.8c-0.5,0-0.5,0.2-0.3,0.5l0.3-0.1V89.8L12.2,89.8z M39.4,33.1
			l-0.2-0.4L39,32.8l0.1,0.6C39.1,33.4,39.4,33.1,39.4,33.1z M32.6,24.4l0.5-0.2L33,24.1h-0.4V24.4z M17.9,88.2l0.3,0.6v-0.6H17.9z
			 M60.7,67.4l-0.4,0.1l0.4,0.3V67.4z M61.4,101.4c0.4,0,0.6,0,0.5-0.2L61.4,101.4z M10.6,85.6l0.3,0.6v-0.6
			C10.9,85.6,10.6,85.6,10.6,85.6z M14.8,78.7c-0.3,0.6,0,0.5,0.3,0.5L14.8,78.7z M17,84c0-0.2,0-0.3-0.2-0.3L17,84z M15.2,81
			c0,0.4,0,0.6,0.2,0.5L15.2,81z M14.4,83.5v-0.4l-0.6,0.1L14.4,83.5z M62.5,94.3l0,0.2l0.4-0.1l0-0.1
			C62.9,94.3,62.5,94.3,62.5,94.3z M28.7,20.1l0.2,0l-0.1-0.4l-0.1,0C28.7,19.7,28.7,20.1,28.7,20.1z M62.4,95.4l-0.2,0l0.1,0.4
			l0.1,0L62.4,95.4L62.4,95.4z M62.5,90.5v0.1h0.4v-0.1H62.5z M9.8,60.2l-0.2,0l0.1,0.4l0.1,0C9.8,60.5,9.8,60.2,9.8,60.2z
			 M64.4,77.2h-0.1v0.4h0.1V77.2z M15.8,87.6L15.8,87.6l0.2,0.1v-0.1H15.8z M33.6,24.7L33.6,24.7L33.6,25h0.1V24.7z M61.4,72.5
			L61.4,72.5l-0.2-0.1v0.1H61.4z M22.4,97.1L22.4,97.1l-0.1,0.2h0.1V97.1z M13.8,46.6L13.8,46.6l-0.2-0.1v0.1H13.8z M42.6,40.1
			L42.6,40.1l0.2,0.1v-0.1H42.6z M35.8,105.3L35.8,105.3l0.1-0.2h-0.1V105.3z M53.1,106.8L53.1,106.8L53,107h0.1V106.8z M35.3,26.7
			L35.3,26.7l-0.2-0.1v0.1H35.3z M14.8,79.6L14.8,79.6l0.1-0.2h-0.1V79.6z"/>
		<path class="st0" d="M63.8,103.8v1.2l-0.9-1.3l0.6-1.1l1.1,0.4C64.3,103.3,64.4,103.7,63.8,103.8z"/>
		<path class="st0" d="M14.3,95.5l-0.7-0.3l0.6-0.8L14.3,95.5z"/>
		<path class="st0" d="M17.3,99.3l0.6,0.7c-0.2,0.1-0.2,0.1-0.3,0.1C17.3,100,17,99.9,17.3,99.3L17.3,99.3z"/>
		<path class="st0" d="M15.7,97.7h0.5l0,0.6l-0.1,0L15.7,97.7L15.7,97.7z"/>
		<path class="st0" d="M17.1,99.3h-0.3l-0.1-0.4l0.4-0.1V99.3z"/>
		<path class="st0" d="M22.4,12.4h-0.3L22,12l0.4-0.1V12.4z"/>
		<path class="st0" d="M60.5,107.4l-0.1-0.8h0.4L60.5,107.4z"/>
		<path class="st0" d="M11.7,42.9v-0.4h0.1v0.4H11.7z"/>
		<path class="st0" d="M7.8,74.3l-0.2-0.2l0.1-0.1L7.8,74.3L7.8,74.3L7.8,74.3z"/>
		<path class="st0" d="M8.8,65.7l-0.2,0.2l-0.1-0.1L8.8,65.7L8.8,65.7L8.8,65.7z"/>
		<path class="st0" d="M20.9,103.2h-0.2v-0.1L20.9,103.2L20.9,103.2z"/>
		<path class="st0" d="M28.4,16.8l0.2-0.2l0.1,0.1L28.4,16.8L28.4,16.8L28.4,16.8z"/>
		<path class="st0" d="M34.2,111.9l-0.2,0.2L34,112L34.2,111.9L34.2,111.9L34.2,111.9z"/>
		<path class="st0" d="M14.7,58.8h-0.6v-1.3l0.4-0.2l-0.3-0.6c0.1-0.3,0.3-0.6,0.3-0.9c0-0.3,0.2-0.6,0.1-1
			c-0.1-0.5,0.2-0.9,0.4-1.3c0.1-0.3,0.1-0.5-0.1-0.8l0.4-0.4v-1.3l0.8-0.6l-0.3-0.4c0.4-0.4,0.2-0.9,0.1-1.4c0,0-0.1-0.1-0.3-0.3
			l0.7-1L16,46.6l0.2-0.3l-0.2-0.3c0.2-0.3,0.4-0.7,0.6-1.1c0.1-0.4,0.1-0.7,0.2-1.3L16.4,43l1-0.5l-0.5-0.4l-0.2-0.7l0.4-0.4
			l-0.3-1.1l1.5,0.5c-0.2,0.6-0.6,1-1.1,1.2l0.8,0.6c-0.3,0.5-0.2,1-0.8,1.3l0.3,0.5l-0.3,0.5l0.3,0.3l-0.3,0.9l-0.4,0.1
			c0,0.7,0.5,1.4,0,2.1c0.1,0.8-0.3,1.3-0.7,2l0.6,0.4c-0.2,0.1,0,0.6-0.5,0.6L16,51.8l0.2,0.2l-0.6,2.6l0.2,0.4l-0.3,0.5l0.3,0.3
			l-0.6,0.4l-0.5,1.6l0.2,0.3L14.7,58.8L14.7,58.8z"/>
		<path class="st0" d="M19,32.6l-0.5,0.1l0.5,0.9c-0.1,0.3-0.8,0.5-0.4,1.1c0.2,0.3-0.4,0.7,0.1,1l-0.5,0.6l0.4,0.4l-0.6,0.6
			l0.1,0.1l-0.2,1c0,0,0.1,0.1,0.2,0.3l-0.7,0.5l-0.4-0.5c0.2-0.5,0.6-1.1-0.1-1.6l0.7-0.5c-0.2-0.5,0.2-0.8,0.3-1.2l-0.4-0.4
			c0-0.3,0.1-0.5,0.1-0.8c0.1-0.3,0.1-0.6,0.2-0.9c0.1-0.3,0.2-0.5,0-0.7c-0.1-0.1-0.1-0.3,0-0.3c0.5-0.6,0-1-0.1-1.5l0.6-0.6
			c0-0.9,0.1-1.5,0.3-2c0.4,0.2,0.6,0.5,0.4,1c0.1,0.1,0.1,0.1,0.2,0.2c0,0.1,0,0.1,0,0.2l-0.9,0.7l1,0.3l-0.8,0.5L19,32.6L19,32.6z
			"/>
		<path class="st0" d="M48.1,107.7v-0.6c0.5-0.3,0.9-0.6,1.5-0.7c0.3-0.1,0.5-0.3,0.7-0.5c0.3-0.3,0.6-0.6,0.8-0.8l0.7,0.3l-0.6,0.5
			c-0.2,0.3,0.4,0.5,0.6,1l-0.4,0.3l-0.4-0.4l-0.8,1.1l0.2,0.6l-0.3,0.3l-0.6-1.1L48.1,107.7L48.1,107.7z"/>
		<path class="st0" d="M22,18.7l0.2-0.2l-1.6-0.6c0-0.2,0-0.4,0-0.7c0-0.2-0.1-0.5-0.1-0.7l0.3-0.3l0.4,0.6l0.7-0.2
			c0.1,0.3,0.2,0.5,0.3,0.7c0.1,0.2,0.3,0.3,0.4,0.5c0.1,0.2,0.2,0.5,0.1,0.6c-0.2,0.3,0.3,0.4,0.1,0.6C22.5,19.1,22.2,19,22,18.7
			L22,18.7z M21.2,17l0.5,0.9c0.1,0,0.2,0,0.3,0C22,17.2,22,17.2,21.2,17z"/>
		<path class="st0" d="M63.4,85.4l-0.2,1.2c0.1,0.2,0.8,0.1,0.6,0.7h-0.5l-0.4-0.9L62,86.7c0-0.2,0-0.5,0-0.5
			C62.5,86,62.6,85.3,63.4,85.4L63.4,85.4z"/>
		<path class="st0" d="M64.1,90.7l-0.1-0.8l0.7-1.4l0.5,0.8l-0.6,0.1v0.8l0.5,0.2l-0.6,0.2l0.1,0.1L64.1,90.7L64.1,90.7z"/>
		<path class="st0" d="M14.5,63.3l0.3-0.2l0.6,0.3l-0.2,0.8l0.2,0.4L15,65l-0.1-0.7L14.5,64V63.3L14.5,63.3z"/>
		<path class="st0" d="M37.3,36.8v0.5l0.5,0.2l-0.8,0.4l-0.3-1.3l0.5-0.1l0.6-0.6v0.7L37.3,36.8L37.3,36.8z"/>
		<path class="st0" d="M62.4,80.5c-0.4,0-0.7,0.1-1,0.2c-0.6-0.4,0.1-0.9,0-1.3l0.5,0.5l0.5-0.2C62.4,79.6,62.4,80.5,62.4,80.5z"/>
		<path class="st0" d="M29.1,100.2l1.3,1l-0.9,0.3C28.9,101.3,29.1,100.8,29.1,100.2L29.1,100.2z"/>
		<path class="st0" d="M34.7,34.7l-0.2-0.6l-1-0.5l0.7-0.3l1,0.8l-0.3,0.5L34.7,34.7L34.7,34.7z"/>
		<path class="st0" d="M62,78.1c-0.6-0.5-0.9-0.9-0.9-1.6h0.6L62,78.1z"/>
		<path class="st0" d="M64,86.1l0.3-0.6c0,0-0.6-0.2,0-0.4c0.4,0.5,0.6,1,0.6,1.4L64,86.1L64,86.1z"/>
		<path class="st0" d="M33,31.8l0.9,0.9c0,0,0,0.1,0,0.1c-0.3,0-0.5,0-0.9,0.1l0.3-0.3l-0.7-0.4L33,31.8L33,31.8z"/>
		<path class="st0" d="M15.8,71.6c0.1,0,0.2,0,0.2,0.1c0,0.4,0,0.8,0,1.2c-0.6,0.1-0.3-0.5-0.6-0.6C15.7,72.2,15.8,72,15.8,71.6z"/>
		<path class="st0" d="M33.7,103.6l-0.5,0.2l0.2,0.3l-0.3,0.2c0-0.1-0.1-0.3-0.1-0.4c0-0.1-0.1-0.2-0.1-0.1l0.3-0.6L33.7,103.6
			L33.7,103.6z"/>
		<path class="st0" d="M28.5,26.1l-0.4,0.8l-0.6-0.3C27.8,26.4,27.9,26,28.5,26.1z"/>
		<path class="st0" d="M62.6,78.7h-0.6L62,78.4l0.6-0.3V78.7z"/>
		<path class="st0" d="M29.7,28.5l0.6,0.1l-0.4,0.7L29.7,28.5z"/>
		<path class="st0" d="M48.5,51l0.2,0.2l-0.3,0.3l-0.4-0.3C48.1,51.2,48.5,51,48.5,51z"/>
		<path class="st0" d="M53.1,56.6h-0.3l-0.1-0.4l0.4-0.1C53.1,56.1,53.1,56.6,53.1,56.6z"/>
		<path class="st0" d="M15.7,66.2l-0.7-0.5C15.4,65.8,15.6,65.9,15.7,66.2z"/>
		<path class="st0" d="M60.5,73.5L60.1,74L60,73.1L60.5,73.5L60.5,73.5z"/>
		<path class="st0" d="M50.5,54.3l0.3-0.6C51.2,54.1,50.8,54.2,50.5,54.3z"/>
		<path class="st0" d="M25.7,24.6h1.1c-0.3,0.2-0.4,0.3-0.4,0.3L25.7,24.6L25.7,24.6z"/>
		<path class="st0" d="M44.1,111l-0.4,0l0-0.4l0.4,0L44.1,111L44.1,111z"/>
		<path class="st0" d="M51.5,54.6h0.3l0.1,0.4l-0.4,0.1C51.5,55.1,51.5,54.6,51.5,54.6z"/>
		<path class="st0" d="M41.4,42.4l-0.5-0.3C41.3,42.1,41.4,42.2,41.4,42.4z"/>
		<path class="st0" d="M52,105.1l0.5-0.3C52.5,105.1,52.6,105.4,52,105.1z"/>
		<path class="st0" d="M39.8,40.4l0.2,0.5C39.8,41,39.7,40.8,39.8,40.4z"/>
		<path class="st0" d="M26.2,23.5v-0.4l0.4,0.3C26.6,23.4,26.2,23.5,26.2,23.5z"/>
		<path class="st0" d="M12.6,77.5l-0.2-0.3C12.6,77.2,12.7,77.3,12.6,77.5z"/>
		<path class="st0" d="M61.6,85.3V85H62l0.1,0.1L61.6,85.3z"/>
		<path class="st0" d="M31.9,30.9h-0.4l0-0.1l0.4-0.1L31.9,30.9L31.9,30.9z"/>
		<path class="st0" d="M61.3,94.4v0.4h-0.1v-0.4H61.3z"/>
		<path class="st0" d="M25.6,24.1l0-0.4l0.1,0l0.1,0.4L25.6,24.1L25.6,24.1z"/>
		<path class="st0" d="M25.3,22.8v0.4l-0.1,0l-0.1-0.4L25.3,22.8L25.3,22.8z"/>
		<path class="st0" d="M25.8,24.1c0.3,0,0.2,0.3,0.2,0.4C25.6,24.5,25.8,24.3,25.8,24.1z"/>
		<path class="st0" d="M44.3,43.1v0.4l-0.1,0l-0.1-0.4C44.1,43.2,44.3,43.1,44.3,43.1z"/>
		<path class="st0" d="M29,27v0.4h-0.1V27H29z"/>
		<path class="st0" d="M64.8,88l0.5,0.2c-0.1,0-0.2,0.1-0.3,0.1C65,88.2,65,88.2,64.8,88z"/>
		<path class="st0" d="M49.4,51.6v0.4l-0.1,0l-0.1-0.4L49.4,51.6L49.4,51.6z"/>
		<path class="st0" d="M26.9,25.4V25H27v0.4H26.9z"/>
		<path class="st0" d="M62,86.3l-0.2-0.2l0.1-0.1L62,86.3L62,86.3L62,86.3z"/>
		<path class="st0" d="M18.2,82.5v0.2h-0.1L18.2,82.5L18.2,82.5z"/>
		<path class="st0" d="M11.8,80.3v0.2h-0.1L11.8,80.3L11.8,80.3z"/>
		<path class="st0" d="M60.5,95.7l0.2-0.2l0.1,0.1L60.5,95.7L60.5,95.7L60.5,95.7z"/>
		<path class="st0" d="M27.8,97.7h-0.2v-0.1L27.8,97.7L27.8,97.7z"/>
		<path class="st0" d="M15.3,72.3l-0.2-0.2l0.1-0.1L15.3,72.3L15.3,72.3L15.3,72.3z"/>
		<path class="st0" d="M15.9,67v-0.2H16L15.9,67L15.9,67z"/>
		<path class="st0" d="M16.3,58.4l-0.2,0.2L16,58.5L16.3,58.4L16.3,58.4L16.3,58.4z"/>
		<path class="st0" d="M16.2,58.3l0.2-0.2l0.1,0.1L16.2,58.3L16.2,58.3L16.2,58.3z"/>
		<path class="st0" d="M16.2,57.9H16v-0.1L16.2,57.9L16.2,57.9z"/>
		<path class="st0" d="M55.6,103.7l-0.2-0.2l0.1-0.1L55.6,103.7L55.6,103.7L55.6,103.7z"/>
		<path class="st0" d="M42.6,40.7l-0.2,0.2l-0.1-0.1L42.6,40.7L42.6,40.7L42.6,40.7z"/>
		<path class="st0" d="M38.6,39.5h-0.2v-0.1L38.6,39.5L38.6,39.5z"/>
		<path class="st0" d="M19,37.6v-0.2h0.1L19,37.6L19,37.6z"/>
		<path class="st0" d="M30.8,29.5h-0.2v-0.1L30.8,29.5L30.8,29.5z"/>
		<path class="st0" d="M47.4,108.9h0.2v0.1L47.4,108.9L47.4,108.9z"/>
	</g>
</g>
</svg>
