<?xml version="1.0" encoding="utf-8"?>
<!-- Generator: Adobe Illustrator 26.3.1, SVG Export Plug-In . SVG Version: 6.00 Build 0)  -->
<svg version="1.1" id="Calque_2_00000052079135231654582080000007903474512818440371_"
	 xmlns="http://www.w3.org/2000/svg" xmlns:xlink="http://www.w3.org/1999/xlink" x="0px" y="0px" viewBox="0 0 103.5 128.9"
	 style="enable-background:new 0 0 103.5 128.9;" xml:space="preserve">
<style type="text/css">
	.st0{fill:#5B61A6;}
</style>
<g id="Calque_1-2">
	<g>
		<path class="st0" d="M76.3,15.1c0.3,0.1,0.4-0.7,0.8-0.1c0.2,0.2,0.4,0.4,0.6,0.6c0.5,0.7,0,1.9-0.9,2.2c-0.2,0.1-0.5,0.2-0.5,0.3
			c0.2,0.7-0.8,0.9-0.7,1.5c0.1,0.8-0.7,0.7-1,1.1c-0.2,0.3-0.6,0.4-0.1,0.8c0,0-0.1,0.4-0.2,0.5c-0.5,0.3-0.9,0.8-0.7,1.2
			c0.2,0.4,0.1,0.6-0.1,0.8c-0.3,0.5-0.1,1.4-1,1.6c0,0,0,0.4,0.1,0.4c0.4,0.3-0.4,0.9,0.4,1.1c0.4,0.1,0,0.4-0.1,0.5
			c-0.2,0.1-0.5,0.2-0.6,0.2c-0.4-0.4-0.5-0.3-0.5,0.2c0,0.1,0,0.3,0,0.3c-0.7,1-1,2-1,3.2c0,0.6-0.5,0.8-1.3,0.8
			c-0.1,0-0.3,0.1-0.4,0.2c0,0,0,0.2,0,0.3c0.1,0.1,0.2,0.3,0.4,0.4c0.3,0.3,0.6,0.6,0.6,0.8c0,0.3,0,0.7-0.3,0.9
			c0,0,0.1,0.4,0.2,0.5c0,0,0.4-0.1,0.4-0.2c0-0.5,0.4-0.9,0.6-0.7c0.4,0.3,0.5-0.2,0.7-0.1c0.3,0.1,0.6,0.3,0.8,0.5
			c0.1,0,0.2,0.1,0.2,0.1c0-0.1,0.1-0.3,0.1-0.5c0-0.1-0.2-0.2-0.3-0.4c0-0.1,0-0.2,0-0.3c0.1,0,0.3,0,0.4,0.1
			c0.3,0.3,0.5,0.6,0.9,0.2c0.7,0.8,0.3-0.4,0.6-0.4c0.4,0,0.4-0.4,0.6-0.5c0.3-0.3,1-0.2,1.3-0.5c0.3-0.3,0.4-0.8,0.7-1.3
			c0.1-0.1,0.3-0.1,0.4-0.2c0.8-0.5,1.1-1,1.3-1.9c0.1-0.6-0.1-1.2,0.6-1.7c0.1-0.1,0.1-0.6,0-0.9c-0.1-0.3-0.2-0.3,0.1-0.4
			c0.7-0.2,0.9-0.6,0.6-1.3c-0.1-0.2-0.2-0.2,0-0.5c0.5-0.6,1-1.3,1.3-2c0.3-0.5,0.4-1.1,0.5-1.7c0.1-0.3-0.5-0.5,0-1
			c0.2-0.2,0-0.8,0-1.2c0-0.3,0.1-0.6,0.3-0.7c0.3-0.3,0.5-0.6,0.4-1c0,0,0.2-0.1,0.3-0.1c0.1,0,0.2,0.1,0.2,0.2
			c0,0.1,0,0.2-0.1,0.4c-0.2,0.8-0.2,0.7,0.5,1c0.4,0.1,0.8,0.3,1.1,0.6c0.2,0.1-0.4,2-0.7,2.1c-0.3,0.1-0.1,0.3-0.1,0.4
			c-0.3,0.9,0,1.9-0.7,2.7c-0.1,0.1-0.2,0.4-0.2,0.4c0.4,0.3,0,0.7,0.2,1c0.2,0.5-0.8,0.2-0.5,0.8c-0.7,0.7-0.2,1.5-0.3,2.3
			c-0.1,0.5-0.2,0.7-0.7,0.7c-0.1,0-0.3,0.2-0.4,0.4C81,30.5,81,31,81,31.5c-0.8,0-0.6,0.6-0.6,1.1c0,0.3-0.2,0.6-0.7,0.9
			c-0.3,0.2-0.5,0.4-0.8,0.6c-0.1,0.1-0.2,0.3-0.1,0.3c0.5,0.4,0.1,0.7-0.2,1c-0.1,0.2-0.3,0.5-0.3,0.5c0.5,0.5,0.1,0.7-0.3,1
			c-0.2,0.1-0.4,0.2-0.4,0.4c-0.1,0.5,0.4,0.9,0,1.5c-0.1,0.1,0.2,0.5,0.3,0.7c0.1,0.1,0.3,0.2,0.5,0.2c0.1-0.2,0.2-0.3,0.1-0.5
			c-0.1-0.3-0.6-0.4-0.2-0.8c0.2-0.2,0.4-0.6,0.7-0.1c-0.1-0.9,1.2-0.3,1.2-1.1l2-1.3c0.5-0.2,1.4-0.9,1.5-1.1
			c0-0.2,0.2-0.4,0.7-0.7c0.4-0.3,0.2-1,0.9-1c-0.1-0.5-0.2-1-0.3-1.5c-0.1-0.3-0.3-0.6-0.5-0.8c-0.3-0.4-0.1-0.6,0.2-0.8
			c0.2-0.1,0.4-0.1,0.6-0.3c0.2-0.2,0.4-0.4,0.4-0.7c0-0.4-0.4-0.2-0.6-0.3c-0.2-0.1-0.3-0.2-0.4-0.4c-0.1-0.5,0-0.9,0-1.4
			c0-0.1,0.1-0.2,0.2-0.3c0.1,0.1,0.2,0.2,0.4,0.4c0.1,0,0.1,0.1,0.1,0.1c-0.1,0.2-0.1,0.3-0.2,0.5c0.2,0,0.4,0,0.6-0.1
			c0.3-0.2,0.5-0.2,0.7,0c0.1,0.2,0.3,0.5,0.3,0.5c-0.5,0.6-0.1,1.9-1.4,2c-0.4,0-0.4,0.3-0.2,0.6c0.1,0.1,0.3,0.2,0.4,0.4
			c0.4,0.7,0.8,0.2,1.3,0c0.6-0.3,0.3-0.5,0-0.9c-0.1-0.1,0.1-0.3,0.2-0.5c0.4,0.5,0.5,0.2,0.5-0.2c0-0.4-0.3-0.9-0.1-1.1
			c0.2-0.3,0.7-0.5,1-0.8c0.5-0.2,1-0.4,1.4-0.7c0.5-0.4,1-0.8,1.4-1.3c0.2-0.2,0.2-1-0.5-0.5c0,0-0.3-0.2-0.3-0.4
			c-0.2-0.4,0.2-0.2,0.3-0.3c0.3-0.2,0.4-0.2,0.8,0c0.7,0.3,1.2-0.1,1.5-0.8c0-0.1,0.1-0.2,0-0.3c-0.1-0.4,0.6-0.7,0-1.1
			c0.3-0.1,0.6-0.1,0.8-0.2c0.1-0.1,0.2-0.4,0.2-0.5c0-0.4,0.4-0.4,0.5-0.5c0.4-0.7,1.1,0.6,1.4-0.2c0,0,0.5,0.9,0.4,0.9
			c-1-0.1-0.2,1-0.8,1.2c-0.2,0.1-0.1,0.6-0.6,0.6c-0.3,0-0.5,0.6-0.5,1.2c0,0.5-0.8,0.9-0.1,1.4c-0.9,0-0.9,1.1-1.7,1.3
			c-0.5,0.1-0.8,0.4-0.7,1.1c0,0.5,0.4,1.4-0.8,1.2c-0.1,0-0.1,0.4-0.2,0.5c-0.2,0.3-0.3,0.6-0.5,0.8c-0.2-0.2-0.5-0.6-0.5,0.1
			c0,0.4,0,0.7,0,1c0,0.1-0.6,0-0.6,0.1c-0.1,1-1.4,1.5-1.1,2.7c0,0.1-0.2,0.5-0.4,0.5c-0.9,0.1-0.7,0.9-0.5,1.3
			c0.2,0.4,0.3,0.6-0.1,0.7c-0.2,0.1-0.4-0.1-0.7-0.2c0-0.2,0.2-0.6-0.3-0.7c-0.2,0-0.6,0-0.7,0.2c-0.2,0.3-0.4,0.7-0.4,1
			c0.1,1-0.3,1.6-1.2,1.9c-0.3,0.1-0.7,0.4-0.2,0.9c0,0-0.2,0.5-0.3,0.7c0,0-0.1,0.1-0.1,0.1c-0.1-0.2-0.1-0.4-0.2-0.5
			c-0.3-0.3-1-0.1-1,0.3c0,0.7-0.1,1.2-0.9,1.3c-0.3,0.1-0.6,0.5-0.9,0.6c-0.4,0.1-0.1,0.8-0.7,0.8c-0.3,0-0.3,0.4-0.1,0.6
			c0.2,0.2,0.2,0.4,0.6,0.2c0.6-0.3,1-0.8,1.4-1.1c0.1-0.1,0.4-0.3,0.5-0.3c0.5,0.7,0.9-0.1,1.3-0.2c0.5-0.1,0.9-0.6,1.3-0.9
			c0.8,0.6,0.9-0.6,1.3-0.6c0.7,0,1-0.5,1.3-1c0-0.1,0.2-0.1,0.2-0.1c0.6,0.5,0.8-0.2,0.8-0.3c-0.1-0.9,0.7-1,1.1-1.1
			c0.5-0.1,0.6-0.2,0.7-0.7c0.1-0.5,0.4-0.9,0.7-1.2c0.1-0.1,0.5,0.2,0.8,0.1c0.2,0,0.4-0.2,0.6-0.2c0.1,0.1,0.1,0.2,0.2,0.2
			c0-0.1,0.1-0.2,0.1-0.2c-0.1,0-0.2-0.1-0.3-0.1c0,0.1,0,0.1,0,0.1c-0.2-0.4-0.3-0.8-0.5-1.1c-0.3-0.4,0.4-0.6,0.2-1
			c0.2,0.1,0.5,0.2,0.6,0.4c0.2,0.2,0.2,0.5,0.4,0.7c0.1,0.1,0.4,0.1,0.6,0.1c0-0.1-0.1-0.2-0.2-0.4c-0.1-0.3-0.3-0.9,0.2-0.9
			c0.7,0,0.8-0.3,0.7-0.8c-0.1-0.5,0.2-0.9,0.6-0.9c0.6-0.1,0.4-0.4,0.5-0.7c0.1-0.4,0.2-0.7,0.3-1.1c0.1-0.2,0.5-0.2,0.5-0.4
			c0.1-0.3-0.2-0.7,0-0.9c0.2-0.3,0.6-0.5,0.8-0.7c0,0,0-0.1,0-0.2c0.1-0.5,0.2-1.1,0.3-1.6c0.2-0.7,0.8-1,1.5-1.1
			c0.2,0,0.5-0.2,0.7-0.4c0.2-0.2,0.3-0.6,0.5-0.8c0.3-0.3,0.6-0.4,0.7,0.1c0.1,0.3,0.4,0.5,0,0.9c-0.3,0.4-0.4,1.1-0.8,1.4
			c-0.4,0.3,0.2,1.3-0.8,1.2c0,0.1,0.1,0.2,0.1,0.4c0,0.1,0.1,0.3,0.1,0.5c-0.1,0.6-1.6,0.7-0.7,1.7c-0.1,0.1-0.1,0.1-0.2,0.2
			c-0.3,0.1-0.6,0.2-0.9,0.4c-0.1,0-0.1,0.2-0.1,0.3c0.2,0.2,0.4,0.5,0.6,0.6c0.5,0.2,0.8,0.3,0.2,0.8c-0.2,0.2-0.4,0.6-0.7,0.1
			c-0.2,0.6-0.7,0.7-1.2,0.8c0,0,0,0.1,0,0.1c0.5,0.5-0.1,0.8-0.2,1c-0.3,0.5,0,1-0.2,1.3c-0.6,0.6-0.7,1.4-0.7,2.1
			c0,0.3-0.2,0.7-0.5,0.8c-0.8,0.3-0.9,1-1.4,1.5c-0.5,0.5-0.9,1.2-1.1,1.9c-0.2,0.7-0.5-0.1-0.6,0.1c-0.2,0.3-0.2,0.7-0.4,1
			c0,0.1-0.2,0.2-0.2,0.2c-0.5,0-0.4,0.3-0.6,0.6c-0.3,0.5-0.5,1.1-0.7,1.6c-0.2,0.5-0.9,0.8-1.3,1.1c-0.1,0.1-0.2,0.3-0.3,0.5
			c-0.1,0.4-0.4,0.3-0.6,0.2c-0.1-0.1-0.3-0.1-0.4-0.1c-0.8,0.5-1.7,0.9-2.1,1.8l-0.7,0.2c-0.4,0.2-0.9-0.2-1.1,0.4
			c-0.2-0.1-0.4-0.1-1-1c-0.5-0.6-0.8-0.3-1,0l1.2,0.8c0.1-0.4,0.3-0.7,0.4-1.1c0,0-0.7-0.6-0.5,0.2c0.2,1,0.3,1.4,0.2,1.5
			c-0.4,0.2-0.8,0.4-1.2,0.4c-0.6,0.1-0.5,0.5-0.4,0.7c0.1,0.3,0.4,0.6,0.7,0.6c0.4,0.1,0.5,0.3,0.3,0.6c-0.1,0.1-0.4,0.1-0.7,0
			c-0.1-0.1-0.2-0.1-0.2,0c0,0.1,0.1,0.1,0.2,0.2l0.2-0.2c-0.1,0-0.1-0.1-0.1,0c0.2,0.5,0.4,1,0.3,1.1c-0.5,0.5,0.3,0.8,0.2,1.2
			c0,0.2,0,0.4,0,0.5c-0.2,0.9-0.4,1.9-0.7,2.8c-0.1,0.4-0.3,0.8-0.4,1.2c-0.1,0.4-0.5,0.8-0.5,1.2c0.1,0.7-0.7,0.3-0.7,0.7
			c0,0.2-0.2,0.4-0.1,0.5c0.6,0.5,0,0.9-0.2,1.2c-0.2,0.4-0.6,0.9-1.2,0.8c-0.1,0-0.3,0.2-0.3,0.3c0.2,0.6-0.3,0.7-0.7,0.9
			c-0.1,0.1-0.3,0.4-0.2,0.5c0.3,0.4-0.2,0.7-0.2,1.2c0.1,0.4-0.2,0.2-0.4,0c-0.1-0.1-0.3,0-0.4-0.1c-0.3-0.3-0.5-0.4-0.5,0.2
			c0,0.5-0.1,1.1,0.1,1.5c0.3,0.5-0.2,0.7-0.3,0.7c-0.4,0.1-0.8,0-1.2,0.1c-0.3,0.1-0.6,0.3-0.7,0.6c-0.2,0.3-0.2,0.7-0.2,1.1
			c-0.3-0.6-0.6,0.1-0.9,0c0,0-0.2,0.3-0.2,0.5c-0.1,0.3-0.2,0.9-0.4,1c-0.9,0.3-0.8,1.2-1.3,1.7c-0.5,0.6-0.8,1.3-1.2,1.9
			c-0.6,0.8-1.1,1.7-2.2,2.1c-0.2,0.1-0.4,0.3-0.4,0.3c0.2,0.9-0.5,1.3-1,1.8c-0.4,0.4-0.7,0.9-1,1.3c-0.2,0.4-0.4,0.8-0.7,1.1
			c-0.6,0.6-1.1,1.2-1.5,2c-0.3,0.7-0.6,0.8-1.4,1c-0.1,0.1-0.3,0.3-0.3,0.5c0,0.5-0.1,0.8-0.5,1.2c-0.7,0.9-1.6,1.7-2,2.8
			c-0.2,0.7-0.9,0-1,0.5c-0.1,0.4,0.2,0.9-0.3,1.3c-0.1,0.1-0.3,0.2-0.4,0.3c-0.1,0.1-0.4,0.2-0.3,0.2c0.1,0.6-0.3,1-0.7,1.3
			c-0.4,0.3-0.2,1-0.9,1c-0.2,0-0.3,0.5-0.4,0.8c-0.1,0.3,0.2,0.8-0.5,0.8c-0.2,0-0.2,0.7-0.9,0.7c-0.6,0-1.2,0.4-1,1.3
			c0.2,1.1-1.2,1.4-1.2,2.4c-0.7,0-0.8,0.6-1.1,1.1c-0.1,0.1-0.3,0.1-0.5,0.1c0.2,0.1,0.4,0.1,0.5,0.2c0.1,0.2,0.2,0.6,0.1,0.8
			c-0.2,0.5-0.4-0.2-0.6-0.1c-0.2,0.1-0.2,0.3-0.5,0.1c-0.6-0.5-1,0.2-1.5,0.2c-0.3,0-0.6,0.4-0.9,0.6l-1.1,0.9
			c-0.4,0.2-1,0.2-1,0.8c0,0.9-0.5-0.2-0.8,0.2c-0.2,0.3-0.7,0.5-1,0.8c-0.2,0.1-0.6,0.2-0.6,0.4c-0.1,1-0.9,0.4-1.3,0.7
			c0,0-0.4-0.3-0.5,0c-0.2,0.7-0.9,0-1.1,0.4c-0.6-0.3-0.8-0.1-0.9,0.5c0,0.1,0.1,0.3,0,0.3c-0.4,0.5-0.3,1.6-1.5,1
			c-0.2-0.1-0.8,0.2-0.8,0.4c-0.3,0.9-0.9,0.6-1.4,0.5c-0.2,0-0.2-0.4-0.4,0c-0.2,0.4-0.1,0.9-0.7,1.2c-0.9,0.4-2,0.7-2.6,1.7
			c-0.2,0.3-0.8,0.6-1.3,0.6c-0.7,0-1.2,0.5-1.5,0.9c-0.5,0.8-1.3,0.9-2,1.3c-0.8,0.4-1.8,0.4-2.3,1c-0.6,0.6-1.3,0.7-2,1
			c-0.4,0.2-1.1,0.2-1.2,0.9c0,0.2-0.5,0.4-0.8,0.5c-0.7,0.2-1.1,1-2,1.1c-0.7,0.1-1.3,0.8-1.7,1.4c-0.4,0.5-0.7-0.4-0.9,0.1
			c-0.2,0.4-0.4,0.7-0.7,1.1c0,0.1,0,0.2-0.1,0.3c-0.1,0.2-1.2-0.1-1.3-0.3c-0.1-0.2,0.1-0.7-0.3-0.6c-0.2,0-0.5,0.2-0.7,0.4
			c-0.2,0.2-0.2,0.5-0.4,0.7c-0.6,1.1-1.2,1.4-2.3,1.2c-0.2,0-0.3-0.3-0.5,0c-0.3,0.6-0.6,0.4-1,0c-0.2-0.2-0.6-0.2-0.9-0.2
			c-0.1,0-0.3,0.2-0.4,0.3c0.1,0.1,0.2,0.2,0.3,0.3c0.4,0.3,0.6,0.8,0.3,1c-0.3,0.1-0.6,0.2-0.9,0.2c-0.2,0-0.5-0.2-0.6-0.3
			c-0.2-0.3-0.8,0-0.8-0.7c0-0.4-0.6,0.5-0.8-0.2c-0.3,0.2-0.2,0.4,0,0.7c0.6,0.7-0.2,0.7-0.5,0.8c-0.5,0.3-0.7-0.1-0.7-0.5
			c0-0.5,0.1-1.2-0.5-1.3c-0.6-0.1-0.5-0.4-0.6-0.8c0-0.3-0.1-0.5-0.3-0.7c-0.2-0.3-0.5-0.4-0.1-0.8c0.1-0.1,0.1-0.6-0.1-0.8
			c-0.5-0.5-0.1-0.7,0.1-1c0.1-0.1,0.1-0.3,0.2-0.5c-1-0.1-0.5-0.6-0.3-1.1c0.1-0.3,0.3-0.7,0.3-1.1c0-0.3-0.2-0.6-0.2-0.8
			c0.2-0.7-0.6-1.6,0.6-2c0,0,0-0.2-0.1-0.2c-0.4-0.5-0.2-0.9,0.2-1.3c0.3-0.3,0.3-0.5,0.1-0.8c-0.4-0.6-0.4-0.8-0.2-1.5
			c0.1-0.4,0.3-0.8-0.2-1.2c-0.3-0.3-0.7-1.1,0.4-1.4c0.1,0,0.1-0.4,0.1-0.6c-0.1-1.1-0.1-1.2,0.3-2.2c0.1-0.2,0.1-1.9,0-2.2
			c0-0.2,0-0.5,0-0.7c0-0.7,0-1.5,0-2.2c0-0.5,0-0.5,0.7-1.6c0.1-0.2,0.7-0.6,0.1-0.9L3,98.4c0.7,0.1,0.5-0.4,0.5-0.8
			c0.1-1,0.7-2.2,1.6-3.1c0.2-0.2,0.3-0.5,0.3-0.7c0-0.2-0.2-0.4-0.3-0.5c-0.3-0.2-0.2-0.4,0-0.6c0.3-0.2,0.4-0.5,0.4-0.9
			c0-0.4-0.4-0.9,0.4-1.1c0.5-0.1,0.1-0.8,0.3-1.2c0-0.1,0.2-0.2,0.3-0.2c1,0.1,0.6-0.2,0.3-0.7c-0.1-0.2-0.3-0.8,0-1.1
			c0.7-0.6,0.2-1.5,0.8-2.1c-0.5-0.9-0.7-1.7,0.6-2c0-0.1-0.1-0.2-0.1-0.4c-0.2-1-0.2-1,0.9-1c0.1,0,0.2-0.1,0.3-0.1
			c-0.1-0.1-0.1-0.2-0.2-0.2c-0.3-0.2-0.6-0.4-0.8-0.7c0.6-0.5,0.1-1.4,0.7-2c0.2-0.1,0.3-0.5,0.2-0.7c-0.1-0.3-0.6-0.6-0.6-0.8
			c0.1-0.3,0.5-0.4,0.8-0.7c0.2-0.2,0.2-0.5,0.2-0.8c0-0.6,0-1.3,0-1.9c0-0.3,0.3-0.6,0.5-0.8c0.2-0.2,0.6,0,0.8-0.2
			c0.2-0.1-0.4-0.3-0.1-0.6c0.4-0.3,0.7-0.6,0.2-1.2c-0.3-0.4,0.3-0.4,0.6-0.6c0.1-0.1,0.2-0.1,0.4-0.2c-0.2,0.6,0.7,0.9,0.2,1.7
			C12,73.2,12,74,11.8,74.8c-0.1,0-0.2,0.1-0.3,0.1c-0.2,0.2-0.7,0.5-0.3,0.8c0.2,0.1,0.6,0.1,0.9-0.1c0.4-0.1,0.4-0.5,0.4-0.9
			c0-0.1,0.2-0.2,0.2-0.3c0.2,0.3,0.8,0.7,0.7,0.8c-0.3,0.8-0.6,1.5-0.6,2.3c0,0.1-0.7,0.2-1,0.4c-0.2,0.1-0.2,0.3-0.6,0.7
			c-0.1,0.1,0.1,0,0.2,0c-0.2-0.1-0.4-0.1-0.7-0.2c-0.1,0-0.2,0.1-0.3,0.2c0.2,0.1,0.4,0.1,0.8,0c0.9,0,0.5,0.6,0.5,0.9
			c0,0.3-0.6,0.6-0.2,0.8c0.6,0.3-0.5,0.7,0.1,0.9c0.1,0.8,0.2,0.9,0.8,1c0.2,0,0.5,0,0.7,0.1c0.1,0.1,0.1,0.2,0.2,0.2
			c0-0.1,0.1-0.2,0.1-0.2c-0.1,0-0.2-0.1-0.3-0.1c0,0.1,0,0.1,0,0.1c-0.1-0.7,0-1.1,0.7-1.3c0.2-0.1,0.7-0.2,0.7-0.4
			c0-0.6,0.2-1.4-0.2-1.8c-0.4-0.5-0.2-0.8-0.2-1.2c0.1-0.4-0.1-0.9,0.1-1.1c0.4-0.5-0.4-0.7-0.1-1.2c0.1-0.2,0.1-0.4,0.1-0.6
			c0.1-0.2,0.7,0.1,0.4-0.4c-0.2-0.3-0.4-0.4-0.8-0.1c-0.1,0.1-0.6,0.1-0.9-0.2c-0.4-0.4-0.5-0.5,0.2-0.8c0.5-0.2,0.3-0.6,0.2-1
			c-0.3-0.9-0.2-1.2,0.4-1.4c0.9-0.4,0.9-0.4,0.4-1.4l0.3-0.7c0.3,0,0.7,0.1,1,0c0.6-0.1,0-0.3,0.1-0.5c0.2-0.6,0.7-1.2,0.5-1.9
			c-0.5,0.5-1.1,1-1.6,1.5c-0.2,0.2-0.2,0.3-0.4,0.5c-0.6,0.1-0.6,0.1-0.4,0.5c0.1,0.2,0.3,0.4,0.4,0.6c0,0.2,0,0.5,0,0.7
			c0,0.1-0.2,0.3-0.2,0.3c-0.5-0.1-1.5-1.6-1.5-2.1c0,0,0.1-0.1,0.1-0.1c0.8,0,0.6-0.7,0.6-1.1c-0.1-0.7,0.2-0.8,0.8-0.7
			c0.2,0,0.7,0.1,0.6-0.3s0.7-0.8,0-1.3c-0.4-0.3-0.4-0.7,0-0.9c0.5-0.3,0.6,0.2,0.7,0.5c0,0.1,0,0.2,0,0.2c0.1,0.1,0.3,0.2,0.4,0.2
			c0.2-0.1,0.4-0.4,0.6-0.6c-0.6-0.1,0.2-1.2-0.8-1.2c-0.1,0-0.4-0.8-0.4-0.9c0.8-0.7,1.3-1.8,2.3-2.3c0.4-0.2,0.6,0.2,0.9,0.3
			c0.2,0,0.3,0.4,0.4,0.7c0,0,0,0.1-0.1,0.1c-0.9,0.3-0.9,0.9-0.7,1.7c0,0.2-0.6,0.5,0.1,0.6c0.2,0,0.6,0.5,0.5,0.7
			c-0.2,0.5-0.1,1.1-0.1,1.6c-0.8,0-0.6,0.6-0.6,1.1c0,0.1,0,0.2,0,0.3c0,0.7-0.2,0.8-0.9,0.6c-0.2-0.1-0.3-0.5-0.4-0.1
			c0,0.1,0.2,0.3,0.3,0.5c0.1,0.1,0.3,0.1,0.4,0.2c0.1,0.1,0.2,0.2,0.2,0.4c-0.1,0-0.2,0.1-0.3,0.1c-0.9,0.3-0.9,0.3-0.5,1
			c0.1,0.1,0.1,0.2,0.1,0.4c-0.1,0.4-0.2,0.7-0.3,1.1c0,0.1,0,0.3,0,0.3c0.3,0,0.7,0,1,0c0.1,0,0.1-0.4,0.2-0.6
			c0-0.2,0.1-0.4,0.1-0.7c0.2,0.1,0.4,0.2,0.5,0.2c0.2-0.2,0.6-0.4,0.4-0.8c-0.1-0.1-0.2-0.2-0.2-0.4c0.5-0.3,0.1-1.3,0.9-1.3
			c0.2-0.7-0.2-1.3,0.2-2c0.3-0.4,0.2-0.9,0.6-1.3c0.5-0.5,0.3-1.3-0.3-1.7c-0.2-0.1-0.5-0.2-0.7-0.4c-0.1-0.1-0.2-0.3-0.1-0.4
			c0.2-0.4,0.3,0.1,0.4,0.1c0.2,0,0.4,0,0.6-0.2c0.1-0.1,0.2-0.5,0.3-0.5c0.8,0,1.5-0.1,1.4-1.2c0-0.4,0.8-0.3,1.1,0
			c0.2,0.2,0.6,0.3,0.9,0.4c0.1,0,0.2-0.1,0.4-0.2c-0.9-0.7,0.2-1.3,0-2c-0.2-0.6,0.2-0.6,0.7-0.6c0.2,0,0.5,0,0.7,0
			c0.4,0,0.4-0.3,0.2-0.6c-0.1-0.1-0.2-0.2-0.4-0.4c-0.5-0.4-0.1-0.4,0.2-0.4c0.1,0,0.1-0.2,0.1-0.3c-0.3-0.5-0.3-0.7,0.3-0.7
			c0.1,0,0.2-0.2,0.2-0.2c-0.2-0.8,0.3-0.8,0.9-0.8c0.5,0,0.6-0.2,0.4-0.6c-0.2-0.3-0.4-0.6-0.6-1c-0.1-0.1,0.1-0.4,0.3-0.5
			c0.2-0.1,0.6-0.1,0.7-0.2c0.1-0.2-0.1-0.5-0.1-0.8c0-0.1,0-0.2,0-0.4c0.2,0.1,0.5,0.2,0.5,0.3c-0.3,0.8,0.7,0.9,0.8,1.6
			c0,0.3,0.4,0.2,0.7,0c0.2-0.2,0.5-0.4,0.1-0.6c-0.5-0.3-0.1-0.6-0.1-0.9c0.1-0.6,0.5-0.4,0.8-0.4c1.1-0.1,1.5,1,2,1.6
			c0.2,0.3,0,0.8-0.4,1c-0.4,0.2-0.9,0.5-1-0.4c0-0.1-0.3-0.2-0.4-0.2c-0.1,0-0.3,0.2-0.3,0.3c0.2,0.9-0.6,1.5-0.8,2.3
			c0,0.2-0.3,0.6-0.2,0.7c0.6,0.8,0,0.9-0.5,1.2c-0.7,0.3-0.6,0.4-0.4,1.2c0.1,0.4,0,0.9-0.1,1.3c-0.2,0.6-0.7,1.1-0.2,1.7
			c0.1,0.1,0,0.5-0.1,0.6c-0.2,0.3-0.3,0.5-0.1,0.7c0.1,0.1,0.3,0.1,0.3,0c0.1-0.2,0.2-0.4,0.2-0.6c0-0.2,0-0.4,0-0.7
			c0.2,0,0.5,0.1,0.6,0.1c0.2-0.1,0.6-0.3,0.2-0.6c-0.5-0.4,0.6-0.8,0-1.1c0,0,0.2-0.2,0.2-0.3c0.1-0.5,0.2-0.7,0.6-0.2
			c0.2,0.2,0.7-0.2,0.8,0.3c0.1,0.4,0,0.8-0.6,0.8c0,0-0.1,0.2-0.1,0.3c-0.1,0.6-0.3,1.2-0.3,1.8c0,0.8-0.7-0.5-0.7,0.2
			c0,0.4,0,0.7,0,1c0,0.4-0.3,0.4-0.5,0.5c-0.4,0.2,0.4,0.4,0,0.7c-0.2,0.2-0.2,0.8-0.8,0.6c-0.2,0-0.3,0-0.5,0
			c-0.1,0-0.2,0.1-0.2,0.2c0,0.2,0.1,0.4,0.1,0.4c0.8,0.1,0.7,0.4,0.3,0.9c-0.2,0.1-0.4,0.3-0.4,0.5c-0.1,1.4-0.8,2.4-1.4,3.6
			c-0.1,0.2-0.3,0.3-0.3,0.4c0.6,0.8-0.1,1.2-0.4,1.8c-0.1,0.1,0,0.4,0.1,0.4c0.1,0.1,0.4,0.1,0.4,0c0.2-0.3,0.3-0.5,0.4-0.8
			c0.3-0.7,0.5-1.5,1.3-1.8c0.5-0.2,0.4-0.4,0.4-0.7c-0.1-0.8-0.1-0.8,0.7-1l0.3,1c-0.4,0.2-1,0.2-0.4,0.9c0.3,0.3,0.4,0.8,0.6,1.3
			c0,0.1-0.1,0.3-0.2,0.3c-0.1,0.1-0.3,0.2-0.3,0.1c-0.4-0.3-0.8-0.6-1.2-0.9c-0.6,0.4-0.2,1.1-0.2,1.6c0,1.1-0.3,1.9-1.4,2.2
			c-0.2,0.1-0.3,0.3-0.3,0.4c0.2,0.8-0.2,1.6-0.5,2.2c-0.3,0.5,0.5,0.6,0.2,1c-0.3,0.3-0.5,0.7-0.7,1.1c-0.2,0.3-0.5,0.6-0.6,0.9
			c-0.1,0.1,0.1,0.4,0.2,0.6c0.1,0.1,0.4,0.2,0.6,0.3c0.9,0.3,1.2,0.8,0.6,1.4c-1,1-0.9,2.3-1.6,3.3c-0.2,0.3-0.3,0.7-0.7,0.8
			c-0.2,0.1-0.4,0.1-0.7,0.2c0.1-0.2,0.2-0.4,0.2-0.6c0.1-0.3,0.1-0.7,0.1-1c0-0.5-0.2-1,0.6-1.2c0.3-0.1,0.1-0.8-0.4-0.9
			c-0.1,0-0.2,0-0.3,0c-0.2,0-0.5-0.8-0.6,0.1c0,0.4-0.2,0.8-0.3,1.1c-0.3,0.4-0.6,0.7,0,1.1c-0.4,0.2-0.7,0.5-1.1,0.8
			c-0.2,0.2-0.2,0.6-0.4,0.7c-0.2,0.1-0.5,0.1-0.8,0.1c0,0-0.1-0.5-0.1-0.5c0.6-0.4-0.2-0.5-0.1-0.8c0.1-0.1,0.3-0.2,0.3-0.3
			c0-0.7,0.2-1.1,0.9-1.1c0.8,0,0.8-0.5,0.5-1.1c-0.1-0.2-0.2-1.1,0.5-0.3c0.3-0.3,0.3-0.7,0-1c-0.2-0.2-0.3-0.4-0.6-0.1
			c-0.2,0.2-0.8,0.5-1,0.4c-0.4-0.2-0.7-0.7-0.9-1.1C18,82,17.8,81.9,17,82.7c-0.5,0.4-0.8,0.9-0.7,1.6c0,0.6-0.2,1.3-0.4,1.9
			c-0.1,0.3-0.5,0.6-1.1,0.1c-0.3-0.2-0.4,0-0.6,0.2c0.2,0.1,0.3,0.2,0.5,0.2c0,0,0.2-0.2,0.2-0.3c0-0.1-0.1-0.2-0.1,0
			c0.3,0.8,0.9,1.3-0.2,1.5c-0.4,0.1-0.6,1.5-0.4,1.8c0,0,0.2,0,0.2,0c0.2-0.2,0.4-0.4,0.6-0.6c0.3-0.3,0.5-0.4,0.9-0.1
			c0.2,0.1,0.6-0.2,0.9-0.3c-0.1-0.2-0.1-0.5-0.2-0.7c-0.3-0.4-0.2-1,0.2-1.3c0.2-0.2,0.4-0.4,0.4-0.5c-0.2-0.8,0.9-1.7,0-2.5
			c-0.1-0.1,0-0.2,0-0.3c0-0.1,0.1-0.3,0.2-0.4c0,0,0.2,0,0.3,0c0.5,0.3,0.8,1.2,0.6,1.8c-0.2,0.7,0.2,0.6,0.6,0.6
			c0,0.2,0.1,0.4,0,0.5c-0.6,0.6-0.3,1.1,0,1.6c-0.2,0.1-0.5,0.3-0.7,0.3c-0.3,0.1-0.3,0.2-0.1,0.4c0.2,0.3,0.9,0.6-0.1,0.7
			c0,0.4-0.1,0.9-0.8,1.3c-0.5,0.5-0.3,1-0.2,1.4c0,0.1,0.2,0.2,0.3,0.2c0-0.1,0.1-0.2,0.1-0.3c0.1-0.4-0.2-0.8,0.2-1.1
			c0.1-0.1-0.3-0.7-0.4-0.6c-0.3,0.1-0.6,0.3-0.1,0.3c1-0.1,1.4,0,1.6-0.2c0.5-0.4,0.5,0.2,0.8,0.3c-0.1,0.2-0.1,0.4-0.2,0.5
			c-0.3,0.3-0.6,0.4-0.9,0.7c-0.1,0.1-0.1,0.4-0.2,0.6c0.2,0.1,0.4,0.1,0.6,0.1c0.2,0,0.6-0.2,0.6-0.2c0.4,0.5,1.1,0.6,1.3,1.3
			c0,0.1,0,0.2,0,0.2c-0.1,0-0.2,0.1-0.3,0c-0.2-0.1-0.4-0.3-0.5-0.4c-0.3-0.4-0.5,0-0.6,0.2c-0.2,0.2-0.3,0.5,0.1,0.7
			c0.2,0.1,0.4,0.2,0.6,0.3c0.1,0.1,0.1,0.3,0.1,0.3c-0.4,0.3-0.6,0.8-0.6,1.3c0,0-0.4,0.1-0.7,0c-0.1-0.1-0.2-0.1-0.2-0.1
			c0,0.1,0.1,0.1,0.2,0.2l0.2-0.2c-0.1-0.1-0.1-0.1-0.1,0c0,0.5-0.2,0.7-0.2,1.1c-0.1,0.8-0.2,1.5-0.4,2.3c-0.1,0.5-0.5,0.2-0.8,0.3
			c0-0.1,0-0.2,0-0.3c0-0.2,1.2-0.5,0-0.7c0-0.1,0-0.3,0.1-0.4c0.3-0.3-0.1-0.9,0.4-1.2c-0.1-0.1-0.2-0.2-0.2-0.2
			c0.4-0.7-0.3-0.9-0.5-1.2c0,0-0.2,0-0.2,0.1c-0.3,0.2-0.6,0.1-0.8-0.1C16,95.2,15.9,95,15.7,95c-0.2,0-0.4,0.1-0.5,0.2
			c0.3,0.6-0.5,1.2,0,1.8c0.1,0.1-0.3,0.4-0.4,0.7c-0.1-0.1-0.2-0.3-0.3-0.4c-0.2-0.3-0.5-0.5-0.7-0.7c-0.4-0.4-0.7-0.8,0.2-0.8
			l0.9-2.3c-0.1-0.2-0.1-0.4-0.2-0.4s-0.3,0-0.4,0c-0.3,0.2-0.5,0.4-0.8,0.6c0-0.3,0-0.7-0.1-1c0-0.1-0.2-0.2-0.3-0.4
			c-0.1,0.1-0.2,0.3-0.2,0.4c0.3,0.6-0.8,1.2-0.1,1.8c-0.5,0.5-0.3,1.1-0.3,1.7c0,0.5-0.2,0.6-0.6,0.6c-0.3,0-0.5-0.1-0.8-0.2
			c-0.1,0-0.2,0-0.3,0c0.1,0.3,0,0.7,0.2,0.8c0.4,0.2,0.8,0.2,1.3,0.3c0.4,0,0.6-0.2,0.7-0.6c0.1-0.4,0.8-0.3,0.8,0.1
			c0.1,0.4-0.1,0.9-0.2,1.3c0,0.2-0.3,0.2-0.4,0.3c-0.2,0.2-0.9,0.3-0.3,0.8c0,0-0.1,0.2-0.1,0.2c-0.4,0.1-0.8,0-1-0.4
			c0-0.1,0-0.2,0.1-0.3c0.5-0.4,0.5-0.6,0.1-0.9c-0.2-0.1-0.5-0.1-0.8-0.2c-0.2-0.1-0.5-0.2-0.7-0.4c-0.1-0.1,0.1-0.4,0-0.6
			c-0.1-0.3-0.4-0.5-0.5-0.8c0.1-0.1,0.2-0.1,0.2-0.2c-0.1,0-0.2-0.1-0.2-0.1c0,0.1-0.1,0.2-0.1,0.3c0.1,0,0.1,0,0.1,0
			c-0.3,0-0.7-0.2-0.8,0.3c0,0.4,0,0.9,0,1.4c-0.1,0.5-0.3,0.8-0.9,0.8c-0.5,0-0.7-0.3-0.4-0.6c0.5-0.4-0.2-0.5-0.1-0.8
			c0-0.1-0.1-0.2-0.2-0.3c-0.1,0.1-0.2,0.1-0.2,0.2c-0.2,0.4-0.3,0.8-0.5,1.2c-0.1,0.4-0.2,0.7-0.7,0.6c-0.4-0.1-0.5,0.2-0.4,0.5
			c0.2,0.7,0.7,1,1.3,1.2c0,0.2,0.2,0.6-0.3,0.7c-0.6,0.1-0.8,0.5-0.8,1.1c0.2,1.2-0.3,2-1,2.8c-0.3,0.3-0.3,0.4-0.1,0.8
			c0.1,0.2,0.3,0.9-0.4,0.8c-0.6,0.9-1.1,1.9-1.2,2.9c-0.1,0.8-0.9,1.8,0,2.6c-0.5,0.7,0.5,1.6-0.3,2.4c-0.2,0.2,0,0.9-0.1,1.3
			c-0.1,0.4,0.4,1.1-0.5,1.1c0,0.1,0,0.3,0.1,0.4c0.5,0.5,1,1-0.1,1.5c-0.2,0.1-0.2,0.8-0.1,1.1c0.4,1.1,0.4,1.3,0.1,2.3
			c-0.1,0.7-0.2,1.3-0.1,2c0,0.2,0.2,0.6,0.4,0.7c0.3,0.1,0.7,0.1,0.6,0.6c0.2,0,0.5,0.1,0.6,0.1c0.2-0.2,0.3-0.5,0.5-0.8
			c0.4-0.5,0.7-1.1,1.4-1.1c0.6,0,0.7-0.2,0.7-0.7c0-0.1,0.3-0.3,0.4-0.3c0.7,0,1-0.5,1.5-1c0.6-0.6,1.5-0.9,1.8-1.8
			c0.1-0.1,0.4-0.3,0.5-0.3c0.8,0.3,0.9-1.1,1.8-0.7c0,0,0.1,0,0.1-0.1c0.2-0.3,0.4-0.6,0.6-0.9c0.3,0.6,0.7,0,0.9-0.1
			c0.5-0.3,1.2-0.4,1.4-1.2c0.1-0.3,0.7-0.5,1-0.8c0.3-0.3,0.9,0.3,0.9-0.4c0.1-0.8,0.5,0.1,0.6-0.1c0.1-0.4,0.3-0.6,0.7-0.7
			c0.4-0.2,0.6-0.7,1.2-0.6c0.1,0,0.3-0.1,0.4-0.2c0.1-0.2,0.2-0.5,0.4-0.7c0.2-0.2,0.4-0.6,0.7-0.1c0.1-0.2,0.2-0.5,0.4-0.7
			c0.1-0.1,0.2-0.3,0.4-0.3c0.6,0,1.1,0,1.4-0.7c0.2-0.4,0.8-0.7,1.3-1c0.3-0.2,0.6-0.6,1-0.2c0,0,0.3,0,0.3-0.1
			c0.2-0.2,0.4-0.4,0.6-0.6c0.2-0.3,0.3-0.6,0.5-0.8c0.1-0.1,0.5,0.7,0.6-0.1c0-0.3,0.2-0.7,0.4-0.8c0.2-0.1,0.7-0.1,0.9,0.1
			c0.6,0.3,0.7,0.1,0.7-0.4c0-0.1,0-0.1,0-0.2c0.3-0.8,0.7,0.2,1-0.1c0.2-0.3-0.2-1,0.6-0.9c0.8,0.1,1.4-0.1,1.7-1
			c0.2-0.6,0.9,0.1,1.2-0.4c0,0.3-0.2,0.7,0.3,0.8c0.1,0.1,0.1,0.2,0.2,0.2c0-0.1,0.1-0.2,0.1-0.2c-0.1,0-0.2-0.1-0.3-0.1
			c0,0.1,0,0.1,0,0.1c-0.1-0.3,0.2-0.7-0.3-0.8c-0.2-0.8,0.6-0.7,1-1c0.7,0.5,1,0.1,1.2-0.6c0-0.1,0.5-0.9,0.6,0.1
			c0,0.1,0.6,0.2,0.9,0.2c0.6,0.1,0.4-0.4,0.4-0.7c0-0.4,0.7-0.5,0.2-1c-0.3-0.2-0.5-0.4-0.9-0.4c-0.1,0-0.2-0.3-0.3-0.4
			c0.2-0.1,0.4-0.3,0.5-0.2c1,0.5,1.9,0.5,2.8,0c0.2-0.1,0.5,0,0.7-0.1c1.8-0.6,1.8-0.6,2.9-2.3c0.2-0.4,0.5-0.7,0.8-1
			c0.8,0.5,0.8-0.1,0.9-0.7c0.1-0.8,0.4-0.1,0.5,0c0.1,0.1,0.2,0.2,0.4,0.2c0-0.2,0-0.4,0-0.6c-0.1-0.4-0.2-0.8-0.2-1.1
			c0-0.1,0.2-0.3,0.3-0.3c1,0.2,0.3-0.7,0.7-1c-0.6-0.6,0-0.9,0.4-1.1c0.3-0.1,0.9,0.1,0.8-0.6c0.1,0,0.3,0,0.4,0.1
			c0.5,0.5,0.6-0.3,1-0.2c0.6,1.3,0.3,1.7-1.1,1.8c-0.2,0-0.3,0.2-0.5,0.3c0,0,0.1,0.3,0.1,0.3c0.6,0,0.4,0.4,0.4,0.7
			c0,0.5-0.4,0.3-0.6,0.3c-0.2,0-0.4-0.1-0.5,0c-0.1,0.1-0.2,0.3-0.2,0.5c0.5,0.1,0.1,0.9,0.8,0.9c0.5,0-0.2,0.9,0.5,1
			c-0.7,0.6-0.7,0.7-0.7,1.4c0,0.5,0.2,0.7,0.5,1c0.1-0.8,1.2,0.1,1.2-0.8c0-0.5,0.9-0.8,0.3-1.5c0,0,0.2-0.4,0.3-0.4
			c1-0.2,1.2-1,1.6-1.8c0.2-0.3,0.1-0.5-0.1-0.7c-0.3-0.3-0.4-0.2-0.6,0c-0.1,0.1-0.2,0-0.3,0c-0.2,0-0.3-0.1-0.5-0.1
			c0.1-0.1,0.1-0.3,0.2-0.3c0.6-0.2,0.6-0.7,0.9-1.2c0.3-0.6,0.4-0.9-0.4-0.8c-0.6,0.1-0.4-0.4-0.5-0.7c-0.3-0.5-0.6-0.1-0.9,0
			c-0.3-0.4-0.4-0.8,0.2-1c0.4-0.1,0.7-0.1,0.2-0.5c-0.1-0.1-0.2-0.4-0.2-0.6c0-0.1-0.1-0.2,0-0.2c0.1-0.1,0.2-0.1,0.3-0.1
			c0.9,0.1,0.9,0.1,0.8-0.7c0-0.2,0.2-1,0.4-1c0.9-0.1,0.8-0.8,0.8-1.4c0-0.2,0.1-0.4,0.1-0.6l0.5,0.2c0-0.1,0.1-0.2,0.1-0.3
			c-0.1-0.5,0.2-0.7,0.7-0.6c0.3,0,0.6-0.6,0.9,0c0.1-0.1,0.3-0.2,0.4-0.4c0.2-0.4-0.2-0.2-0.3-0.3c-0.1-0.1-0.3-0.2-0.4-0.3
			c-0.1-0.1,0-0.2-0.1-0.4c0.8,0,0.6-0.8,0.9-1.2c0.1-0.1,0.2-0.2,0.4-0.2c0.2-0.1,0.6,0.2,0.7-0.3c0-0.2-0.7-0.8-0.9-0.7
			c-1,0.6-1.5-0.3-2-0.8c-0.2-0.2,0.4-0.7-0.2-0.8c0.1-0.1,0.2-0.2,0.3-0.2c0.5,0.2,0.8,0.5,0.8-0.4c0-0.4,0.5-0.7,1-0.6
			c0.5,0,1.1,0.2,1.1-0.6c0,0,0.6-0.1,0.8,0c0.3,0.2,0.2,0.5-0.1,0.7c0,0,0,0.2,0,0.2c0,0.8-0.2,1.1-0.8,1.1c-0.2,0-0.5-0.1-0.7,0
			c-0.2,0.1-0.4,0.3-0.7,0.5c0.2,0.2,0.5,0.5,0.7,0.4c0.6-0.2,1.4-0.3,1.8-0.7c0.4-0.3,0.6-1.2,0.4-1.7c-0.5-0.9,0-0.9,0.6-1
			c0.2,0,0.4,0,0.5,0c0.1,0,0.2-0.1,0.3-0.2c-0.1-0.1-0.2-0.2-0.3-0.2c-0.4,0-0.9,0-1.3,0.1c-0.2,0-0.2,0.3-0.5,0.1
			c-0.4-0.3-0.8-0.4-1.3-0.6c0.2-0.4,0.4-0.8,0.6-1.2c0.3-0.6,0.9-1,0.8-1.8c0-0.1,0.6-0.5,1-0.6c0.3-0.1,0.3-0.1,0.2-0.4
			c-0.1-0.3-0.1-0.6-0.2-1c-0.1-0.6-0.1-0.6-0.3-0.6c-0.4,0.1-1-0.5-1.3,0.3c-0.1,0.2-0.3,0.5-0.4,0.7c-0.1,0.3-0.1,0.4,0.3,0.6
			c0.5,0.2,0.5,0.7,0.1,1c-0.5,0.3-1,0.7-1.4,1.1c-0.3,0.3-0.4,0.1-0.6-0.1c-0.1,0.3,0,0.6-0.2,0.8c-0.5,0.5-1,0.8-1.5,1.2
			c0,0-0.2-0.1-0.2-0.1c-0.5-0.5-0.4-1.6,0.2-1.8c0.1,0,0.3,0.4,0.6,0c0.1-0.2,0.4-0.3,0-0.4c-0.1,0-0.3-0.1-0.4-0.2
			c0.1-0.1,0.2-0.1,0.3-0.2c0.2-0.1,0.5-0.1,0.7-0.2c-0.2-0.2-0.5-0.4-0.7-0.4c-0.5,0-0.7-0.2-0.8-0.6c0-0.1-0.5-1-0.6,0.1
			c-0.9,0.4-0.3,1.6-1,2.1c-0.2,0.1-0.2,0.5-0.3,0.5c-1-0.1-0.9,0.5-0.8,1.1c0.1,0.6-0.5,0.8-0.6,1.1c-0.2,0.6-0.5,0.6-1,0.6
			c-0.4,0-0.8,0.2-1.2,0.3l-0.3-0.3c0-0.2,0-0.5,0-0.7c0.1-0.2,0.4-0.4,0.4-0.3c0.3,0.2,0.7,0.5,0.6-0.2c0-0.2,0.1-0.5-0.1-0.7
			c-0.7-0.7-0.6-1.3,0.2-1.8c0.7-0.5,0.1-1-0.1-1.5c-0.2-0.4-0.3-0.6,0.1-0.9c0.2-0.1,0.7,0.1,0.5-0.3c0-0.1-0.4-0.2-0.6-0.2
			c-0.2,0-0.4,0-0.5,0.2c-0.3,0.4-1,0.6-0.9,1.3c0,0.1-0.2,0.3-0.4,0.4c-0.4,0.2-0.7,0.4-0.6,0.9c0.1,0.7-0.5,0.5-0.8,0.5
			c-0.3,0-0.6-0.2-0.8-0.4c-0.4-0.3-0.7-0.5-0.8,0.2c0,0.1-0.3,0.2-0.5,0.2c-0.4,0-0.5,0.1-0.5,0.5c0,0.3,0,0.6-0.4,0.6
			c-0.3,0-0.7,0.3-0.8,0.2c-0.4-0.3,0.1-0.6,0.2-0.8c0.1-0.2,0.3-0.4,0.3-0.6c-0.2-0.8,0.6-1.3,0.8-1.9c0.2-0.4,0.7-0.7,0.3-1.3
			c-0.1-0.2,0.4-0.8,0.6-1.2c0.1-0.2,0.2-0.5,0.3-0.7c0.1-0.3,0.1-0.6-0.3-0.6c-0.3,0-0.6,0-0.9,0c-0.1,0-0.4-0.1-0.4-0.2
			c-0.1-0.2-0.2-0.6-0.3-0.8c-0.2,0.2-0.4,0.5-0.5-0.1c0-0.1-0.3-0.2-0.5-0.3c-0.1,0.2-0.2,0.4-0.2,0.5c0.3,0.5,0.7,0.9,1,1.3
			c0.2,0.3,0,0.8-0.4,0.9c-0.5,0.2-1,0.4-1.4,0.7c-0.4,0.3-0.2,0.6-0.1,1c0.2,0.9-0.2,1.8-0.5,2.6c0,0.1-0.3,0.2-0.4,0.2
			c-0.6,0-0.8,0.2-0.4,0.7c0.2,0.3,0.2,0.5,0,0.7c-0.1,0.1-0.2,0.2-0.4,0.3c0-0.1-0.1-0.2-0.1-0.3c0-0.4,0-0.7-0.3-0.9
			c-0.1-0.1-0.2-0.3-0.2-0.4c-0.2,0.2-0.4,0.4-0.4,0.5c0.2,1-0.2,2-0.8,2.4c-0.8,0.5-1,1.1-1.3,1.7c-0.1,0.3-0.1,0.8-0.3,0.9
			c-0.4,0.4-0.3,0.8-0.4,1.2c0,0.1-0.1,0.3-0.2,0.3c-0.7,0.1-0.6,0.5-0.2,0.8c0.7,0.5,0.1,0.6-0.2,0.8c0,0-0.1,0.1-0.1,0.1
			c-1,0.5-1.2,1.1-0.8,2.1c0.1,0.2,0.2,0.5,0.4,0.7c0.3,0.4,0.4,0.7-0.3,0.8c-0.1,0-0.2,0.3-0.2,0.4c0.1,0.6-0.2,0.7-0.7,0.6
			c-0.2,0-0.5,0-0.7,0c-0.1,0-0.2,0.1-0.3,0.1c0.1,0.1,0.2,0.1,0.3,0.2c0.4,0.3,0.5,0.9,0.1,1C30.1,90,30,90.4,30,91
			c0,0.8-0.5,1.3-1.2,1.5c-0.5,0.2-0.6,0.2-0.2,0.5c0.1,0.1,0.2,0.3,0.3,0.5c-0.3,0.1-0.3,0.8-1,0.6c-0.7-0.2-0.8-0.1-1-0.8
			c0.6-0.5,0.6-0.5,0.2-1.1C27,92,27,91.7,26.8,91.6c-0.4-0.4-0.1-0.3,0.2-0.4c0.1-0.1,0.2-0.3,0.2-0.5c0-0.1-0.2-0.3-0.3-0.4
			c-0.4-0.2-0.2,0.2-0.3,0.3c-0.2,0.3-0.4,0.5-0.7,0.8c-0.2,0.1-0.4,0.1-0.6,0.2c0-0.2-0.1-0.5,0-0.6c0.6-0.2-0.5-0.6,0.1-0.9
			c0.2-0.1,0.3-0.5,0.5-0.8c0.2-0.3,0.4-0.6,0.6-0.9c0.2-0.4,0.3,0,0.5,0.1c0.2,0.1,0.3,0.2,0.5,0.3c0.1-0.3,0.2-0.6,0.2-0.9
			c0-0.1-0.2-0.2-0.3-0.4c-0.3-0.3-0.2-0.5,0.1-0.7c0.2-0.2,0.5-0.2,0.7-0.4c0.3-0.2,0.8-0.7,0.9-0.6c0.4,0.3,0.3,0.9,0.1,1.3
			c0,0.1,0,0.2,0,0.4c0.2,0,0.3,0,0.5-0.1c0.3-0.2,0.5-0.4,0.1-0.7c0.4-0.3,0.3-1.1,1-1.2c0.2,0,0.5,0,0.2-0.3
			c-0.1-0.1-0.3-0.2-0.5-0.2c-0.1,0-0.2,0.1-0.3,0.2c-1.1,0.5-1.1,0.5-1.5-0.7c-0.1-0.2-0.2-0.4-0.4-0.5c0,0-0.3,0.1-0.3,0.1
			c0,0.8-0.6,0.5-0.9,0.4c-0.2,0-0.8-0.3-0.2-0.8c0.2-0.2-0.2-0.8-0.3-1.2c0.2,0,0.4,0.1,0.6,0.1c0.3,0.1,0.6,0.1,0.9,0.2
			c0.7,0.2,0.5-0.7,0.7-0.6c0.3,0.1,0.4,0.7,0.6,0.8c0.2,0.1,0.6-0.2,0.9-0.4c-0.6-0.6,0.2-0.8,0.4-1.1c0.4-0.4,0.2-0.8,0.3-1.2
			c0.1-0.4,0.5-0.7,1-0.5c0.2,0.4,0.3,0.6,0.5,0.9c0.2-0.3,0.4-0.5,0.5-0.8c0-0.1-0.3-0.5-0.4-0.4c-0.2,0-0.4,0.3-0.6,0.4
			c0.1-0.5-0.1-1,0.3-1.2c0.8-0.4,0.7-1.3,1-2c0-0.1,0-0.3,0-0.4c-0.1-0.2-0.4-0.4-0.3-0.6c0.1-0.6,0.3-1.1,0.6-1.6
			c0-0.1,0.6,0.1,1,0.2c0.1,0,0.3,0.2,0.3,0.3c0,0.1-0.1,0.3-0.2,0.4c-0.1,0.1-0.2,0.2-0.4,0.3c0.2,0.1,0.3,0.3,0.5,0.4
			c0.1,0,0.4-0.2,0.4-0.3c0-0.7,0.5-1.2,0.4-1.9c-0.1-0.5-0.2-0.6-0.7-0.4c-0.2,0.1-0.4,0.2-0.6,0.2c-0.1-0.3-0.2-0.7-0.1-0.8
			c0.4-0.3,0.1-1,0.7-1c0.1,0,0.3-0.1,0.3-0.2c-0.4-0.8,1-0.9,0.8-1.8c-0.1-0.5,0.4-1.2,0.5-1.8c0-0.2-0.4-0.3,0.1-0.5
			c0.5-0.3,0.5-0.5-0.1-1c-0.1-0.1-0.2-0.1-0.3-0.2c0.1-0.1,0.2-0.2,0.3-0.2c0.2,0,0.4,0,0.5,0c0.1,0,0.2-0.2,0.2-0.3
			c0-0.1,0-0.2-0.1-0.3c-0.4-0.2-0.9-0.6-1.2-0.6c-0.6,0.2-0.5,0.9-0.4,1.3c0.1,0.8-0.4,1.5-0.5,2.2c-1-0.1-0.3,1-0.8,1.2
			c0.6,0.8-0.2,1.3-0.4,1.9c0,0,0,0.2,0,0.2c-1.4,0.7-1.3,2.4-2.2,3.4c-0.3,0.3,0,1.1-0.8,1.2c0.3,0.8-0.7,1-0.7,1.6
			c0,0.6-0.4,1-0.6,1.5c-0.1,0.3-0.1,0.5,0.3,0.6c0.2,0,0.4,0.1,0.6,0.1c-0.1,0.2-0.3,0.3-0.4,0.5c-0.2,0.3-0.4,0.5-0.6,0.8
			c-0.1,0.2-0.1,0.4-0.2,0.6c0,0-0.1,0-0.1-0.1c-0.4-0.5-0.6,0.5-0.9,0.1c-0.4-0.5-0.9-0.2-1.4-0.3c-0.3-0.1-0.8,0.2-0.8-0.3
			c-0.1-0.5-0.1-1.3,0.5-1.3c1.1-0.1,1.2-0.7,1.4-1.5c0.1-0.5,0.4-1,0.6-1.5c0.3-0.7,0.5-1.2,0-1.8c-0.2-0.2,0.1-0.4,0.6-0.6
			c1-0.4,1.6-1.5,1-1.8c-0.7-0.4-0.4-1.2-0.9-1.6c0.8-0.2,1.6,0.2,2.2,0.4c0.5,0.2,0.8,0,1.1-0.1c0.4-0.2,0.3-0.6,0-1
			c-0.2-0.3-0.2-0.9-1.1-1.6c-0.4-0.9-0.7-0.5-0.7-0.2c0.1,0.2,0.1,0.5,0.2,0.8c0.2,0.4,0.4,0.4,0.7,0.1c0.3-0.3,0.6-0.7,1.1-0.5
			c0,0,0.1-0.3,0.1-0.3c-0.5-0.2-1-0.5-1.4,0.1c0,1.1-0.2,1.4-0.4,1.6c-0.5,0.5-0.9,0.3-1.5-0.3c-0.1-0.1-0.4-0.1-0.6-0.1
			c-0.2-0.2-0.6-0.4-0.6-0.5c0-0.4,0.2-1.1,0.5-1.1c0.7-0.1,0.5-0.9,1.1-1.1c0.8-0.3,0.3-1.1,0.6-1.6c0.1-0.1,0.1-0.3,0.2-0.4
			c0.2-0.2,0.6-0.3,0.7-0.6c0.1-0.3,0-0.7,0-1c0-0.1,0.1-0.4,0.2-0.4c0.6-0.4,0.5-0.9,0.6-1.5c0.1-0.6,0.1-1.4,1.1-1.3
			c0.1,0,0.3-0.2,0.3-0.3c0-0.9,0.6-1.7,0.7-2.6c0.1-0.8,0.3-1.7,1.4-1.9c0.7-0.1,0-0.3,0-0.5c-0.1-0.5,0.4-0.9,0.9-0.8
			c0.2,0,0.3,0.3,0.5,0c0.1-0.1,0.5,0.1,0.6,0c0.5-0.4,0.5,0.3,0.7,0.3c-0.5,0.2,0,0.5,0,0.8c0,0.6,0.8,0.7,0.8,1.4
			c0,0.8-0.6,1-1,1.5c0,0.1,0.1,0.3,0.2,0.5c-0.3,0-0.5,0.1-0.8,0.1c-0.1,0-0.2,0-0.3,0c-0.1,0-0.2,0.2-0.2,0.2
			c0,0.2,0.1,0.4,0.2,0.4c0.6,0,1.2,0,1.4,0.7c0.3-0.1,0.7,0.2,0.8-0.3c0.1-0.2,0.3-0.6,0.4-0.6c0.5-0.1,0.6-0.3,0.6-0.8
			c0-0.1,0.1-0.3,0.2-0.4c0.7-0.6,1.3-1.2,2.1-1.6c0.6-0.3,0.4-0.4,0.2-0.8c-0.1-0.2,0-0.6-0.1-0.9c-0.1-0.5,0.4-0.7,0.9-0.8
			c0.3-0.1,0.5-0.4,0.2-0.9c-0.2-0.3,0.2-1,0.5-1.5c0.1-0.1,0.5,0,0.8,0c0.5,0.5,0.2,1.3,0.8,1.7c0.3,0.2,0.1,0.4-0.1,0.5
			c-0.4,0.3-0.4,0.6-0.4,1c0,0.2-0.1,0.4-0.2,0.6c-0.5,0.7-0.6,0.7-0.2,1.2c0.1,0.2,0.2,0.4,0,0.8c0,0.3,0.2,0.4,0.5,0.4
			c0,0,0.1-0.2,0.1-0.3c-0.2-0.2-0.3-0.5-0.7-0.4c-0.1,0-0.2,0.2,0.1,0.2c1-0.5,1.6-0.9,2.1-0.4c0.4,0.4-0.1,0.9-0.5,1.3
			c0,0-0.1,0.1-0.1,0.1c0.7,0.6-0.3,0.7-0.4,1.1c-0.1,0.5-0.5,0.9-0.1,1.4c-0.5,0.2-0.5,1-1.2,1.2c-0.5,0.2,0.2,1.2-0.4,1.7
			c-0.5,0.5-0.2,1.3-0.3,1.9c0,0.1,0.2,0.2,0.1,0.5c-0.4,0.7-0.2,1.4,0,2.1c-0.1,0.1-0.1,0.2,0,0.2c0.1,0,0.1-0.1,0.2-0.2L44,68.1
			c0,0.1-0.1,0.1,0,0.1c0.3-0.1,0.5-0.1,0.5-0.1c0.6-0.7,1.2-1.5,1.7-2.2c-0.6-0.3,0-0.6,0-0.9c0-0.4,0.2-0.2,0.4-0.1
			c0.3,0.2,0.6,0.2,0.6-0.2c0-0.3,0.2-0.7-0.4-0.8c-0.2,0-0.3,0-0.5,0c-0.7,0-0.4-0.2-0.2-0.5c0.1-0.2,0.1-0.4,0.4-0.5
			c0.4-0.2,0.4-0.7,0-1c-0.5-0.4-0.6-0.8-0.3-1.3c0.2-0.4,0.5-0.4,0.9,0c0.3,0.3,0.7,0.4,1,0.7c0,0.3-0.1,0.6,0.4,0.7
			c0.8,0.3,0.7,0.5,0.2,1.2c-0.1,0.1-0.1,0.2-0.2,0.4c0.1,0,0.2,0.1,0.3,0.1c0.2,0,0.5,0,0.7,0c0.5,0.1,0.7-0.2,0.7-0.7
			c0-0.2,0-0.4,0-0.5c-0.1-0.8,0-1.8,0.3-2.3c0.2-0.3,1-0.7,1.2-0.6c1,0.5,1.5,1.6,1,2.7c-0.2,0.6,0,0.7,0.2,1
			c0.2,0.2,0.6,0.1,0.6-0.2c0-0.2,0-0.5,0-0.7c0.1-0.5,0.2-1.2,0.5-1.3c0.6-0.2,0.8-0.6,1.1-1.1c0.1-0.1,0.4-0.3,0.5-0.2
			c0.2,0.1,0.4,0.4,0.4,0.5c-0.5,0.6,0,0.9,0.3,1.3c0.1,0.1-0.1,0.3-0.1,0.4c-0.7-0.8-0.7,0.3-0.7,0.4c-0.1,0.5-0.7,1-0.2,1.5
			c-0.8,0-0.6,0.8-0.8,1.2c-0.2,0.4-0.5,0.4-0.8,0c0,0-0.2,0.2-0.4,0.2c0.8,0.9,0.2,2.4,1.6,3c0.1,0,0.1,0.2,0.1,0.3
			c0,0.6,0,0.7,0.4,0.6c0.4,0,0.7,0,1.1-0.2c0.6-0.4,0.9-0.2,0.9,0.6c0,0.6,0.2,1,0.7,1.4c0.2,0.2,0.5,0.3,0.7,0.2
			c0.2-0.1,0.4-0.5,0.3-0.7c-0.1-0.3-0.5-0.6-0.5-0.9c0-0.5,0.7,0,0.9-0.3c0.1-0.2,0.3-0.6,0.3-0.7c-0.6-0.4,0.1-1.3-0.6-1.7
			c-0.3-0.2-0.3-0.1-0.4,0.2c-0.1,0.6-0.5,0.3-0.8,0.3c-0.1,0-0.2-0.3-0.2-0.5c0-0.1,0-0.2,0-0.3c0.1-0.3,0.3-0.6,0.5-0.8
			c0.1-0.1,0.5,0.2,0.7,0.3c0.3,0.2,0.5,0.5,0.8,0.7c0.2,0.1,0.2-0.3,0.5-0.5c0.7-0.6,0-1.1-0.2-1.4c-0.3-0.5-0.2-0.9-0.1-1.4
			c0.8,0,0.5-0.6,0.6-1.1c0.1-0.2,0.3-0.5,0.5-0.7c1-0.8,1.4-1.3,1.6-2.4c0-0.1,0.1-0.3,0.2-0.4c0.1,0,0.3,0.1,0.4,0.2
			c0.2,0.2,0.8,1.7,0.7,1.9c-0.4,0.7-0.1,1,0.6,1c0.7,0,0.4,0.2,0.2,0.5c-0.1,0.1,0.2,0.3,0.2,0.5c0.1-0.1,0.4-0.2,0.4-0.4
			c0.2-0.5-0.4-1.3,0.6-1.4c0-0.1,0-0.2-0.1-0.2c-0.1-0.2-0.2-0.5-0.4-0.7c-0.2-0.3,0-0.4,0.2-0.3c0.6,0.1,1.2,0.3,1.6,0.8
			c0.1,0.1,0.3,0.2,0.3,0.2c0.4-0.3,0.8-0.5,1.1-0.9c0.3-0.3,0.3-0.7,0-1.1c0,0,0.2-0.2,0.2-0.3c0.2,0.2,0.4,0.4,0.6,0.6
			c1,0.7,1.1,1.1,0.4,2c-0.3,0.3-0.3,0.5,0,0.9c0.1,0.2-0.2,0.5,0.1,0.8c0,0-0.5,0.3-0.1,0.4c0.1,0,0.3-0.2,0.5-0.3
			c0.5-0.5,0.3-1.3,0.9-1.9c0.3-0.3,0.2-1.1,0.1-1.6c0-0.2-0.4-0.2-0.6-0.4c-0.1-0.1-0.2-0.3-0.3-0.5c0.2-0.1,0.4-0.3,0.7-0.4
			c0.2,0,0.4,0.1,0.6,0.2c-0.7,0.6,0.3,0.7,0.4,1.1c0.1,0.7,0.5,0.6,0.7,0.2c0.3-0.6,0.7-0.9,1.4-0.8c0.4,0.1,0.2-0.4,0.3-0.7
			c0.9-0.1,1.3-1,1.9-1.5c0.3-0.2,0.4-0.9,0.5-1.3c0.1-0.7,0.6-1.4,0.1-2.2c-0.2-0.3-0.1-0.8,0.6-1.1c1-0.4,1-0.5,0.3-1.5
			c-0.1-0.1-0.2-0.2-0.2-0.2c0.5-0.8-0.1-1.1-0.6-1.6c-0.1-0.1-0.4-0.2-0.5-0.2c-0.4,0.3-0.6,0-0.9-0.1c-0.3-0.1-0.7,0.2-1,0.2
			c-0.2,0-0.5-0.1-0.6-0.2c-0.4-0.5-0.9-0.5-1.4-0.5c-0.8,0-1.1-0.5-1.4-1c-0.1-0.2-0.2-0.7,0.4-0.7c0.2,0,0.7,0.1,0.6-0.3
			c0-0.2-0.3-0.5-0.5-0.6c-0.5-0.3-0.9,0-1.2,0.9c-0.2,0.6-0.3,0.6-0.8,0.2c-0.4-0.3-0.1-0.4,0.1-0.6c0.2-0.3,0.4-0.7,0.7-1.1
			c-0.5-0.2-1.1-0.3-1.5,0.2c0,0-0.1,0-0.6-0.3c-1-0.3-1-0.2-0.7,0.1c0.1,0.1,0,0.3,0.1,0.4c0.1,0.1,0.3,0.2,0.4,0.1
			c0.2-0.1,0.4-0.2,0.5-0.3c0,0-0.1-0.3-0.2-0.4c-0.2-0.2-0.5-0.2-0.2,0c0.4,0.6,0.4,0.9,0.4,1.2c0,0.2-0.2,0.3-0.2,0.5
			c-0.3-0.6-1,0.5-1,0c-0.1-0.9-1-0.5-1.4-0.9c-0.4-0.3-1.4,0-0.5-0.9c-0.3-0.2-0.3-0.5,0-0.7c-0.7-0.2-0.8-1.1-1.4-1.4
			c-0.1,0-0.2,0-0.2,0.1c0,0.1-0.1,0.2,0,0.3c0.2,0.5,0.5,1,0.7,1.5c0,0.1-0.2,0.5-0.3,0.5c-0.5,0-1.1,0.2-1.3-0.6
			c0-0.1-0.4-0.3-0.5-0.2c-0.4,0.3-0.7,0.4-0.8-0.3c-0.1-0.8-1.1-0.3-1.3-0.9c0.3-0.2,0.4-0.3,0.6-0.5c0.2-0.2,0.4-0.2,0.7-0.1
			c0.4,0.2,0.3,0.1,0.5-0.4c0.2-0.6-0.3-0.4-0.3-0.4c-0.3,0.3-0.5,0.3-0.8,0c-0.2-0.2-0.3-0.3-0.6,0c-0.2,0.2-0.6,0.2-0.5-0.3
			c0.1-0.5-0.2-0.7-0.6-0.8c-0.1,0-0.2-0.4-0.2-0.6c-0.1,0.2-0.1,0.4-0.2,0.5c-0.2,0.1-0.4,0-0.6,0.2c-0.2,0.2-0.4,0.4-0.6,0.6
			c0.4,0.1,0,0.8,0.7,0.8c0.5,0,0.9,0.2,1.4,0.3c0.4,0,0.7,0,0.6,0.5c0,0,0.1,0.1,0.1,0.2c-0.4-0.1-0.8-0.3-1.1-0.2
			c-1.1,0.5-1.3,0.5-2.3-0.2c-0.4-0.3-0.9-0.7-1.3-0.6c-0.9,0.3-1.1-0.8-1.8-0.7c0-0.1-0.1-0.3,0-0.3c0.4-0.5,0.8-0.5,1.2,0
			c0.1,0.1,0.4,0.4,0.4,0.4c0.2-0.1,0.5-0.3,0.6-0.5c0.2-0.5-0.2-1.1,0.3-1.6c0,0,0-0.2-0.1-0.2c-0.7-0.5-0.6-1-0.2-1.7
			c0.2-0.4,0.1-0.9,0-1.4c0-0.1-0.2-0.3-0.4-0.4c-0.3,0-0.6,0-0.8,0c-0.2,0-0.2,0.4,0,0.6c0.1,0.1,0.2,0.3,0.2,0.4c0,1-0.4,2-1,2.8
			c-0.3,0.4-0.6,0.3-0.8-0.5c-0.2-0.9-0.5-1.7,0.3-2.5c0.3-0.3-0.1-0.2-0.2-0.3c-0.1-0.1-0.2-0.3-0.3-0.5c-0.2-0.2-0.4-0.3-0.6-0.5
			c-0.1,0.2-0.4,0.5-0.3,0.7c0.3,0.8-0.6,1.7,0.2,2.5c0.1,0.1-0.1,0.6-0.2,0.9c-0.1,0.2-0.2,0.4-0.5-0.1c-0.3-0.5-0.8-1.2-1.7-1.1
			c-0.7,0.1-0.8-0.1-1.3-1.1c-0.2-0.3-0.3-0.6-0.5-0.8c0,0-0.3,0.1-0.3,0.1c0.1,0.8-0.3,0.9-0.9,0.8c-0.3,0-0.5,0.1-0.8,0.1
			c0.2,0.2,0.4,0.5,0.7,0.6c0.5,0.2,1.2,0.1,1.3,0.9c0.9,0,1.4,1.1,2.4,0.9c0.2,0,0.5,0.1,0.8,0.2c0.3,0.2,0.5,0.6,0.8,0.7
			c0.2,0.1,0.5-0.3,0.7,0.1c0.1,0.1,0.3,0.2,0.5,0.2c-0.2,0.1-0.3,0.7-0.8,0.2c-0.1-0.1-0.4,0-0.6,0.1c-0.5,0.3-0.8,0.2-1.2-0.1
			c-0.3-0.3-0.8-0.4-1.1-0.8c-0.4-0.4-0.6,0.8-0.8,0c-0.2-0.5-0.7-0.4-1-0.7c0,0-0.1,0-0.2,0c-0.6,0.6-0.9-0.1-1.3-0.2
			c-0.4-0.1-0.7-0.5-1-0.4c-0.8,0.1-1.3-0.2-1.7-0.9c-0.1-0.3-0.5-0.3-0.7,0c-0.1,0.2,0.1,0.7-0.4,0.3c-0.5-0.5-1-1.1-1.8-1.2
			c-0.7,0-0.8-0.2-0.4-0.8c0.2-0.3,0.3-0.8,0.8-0.9c0.6-0.1,0.4-0.6,0.3-0.9c-0.1-0.2-0.5-0.3-0.8-0.5c-0.3-0.2-0.7-0.5-0.2-0.9
			c0,0-0.2-0.3-0.3-0.5c0,0-0.3,0.2-0.3,0.2c0,0.5-0.1,1.1,0.2,1.5c0.5,0.6-0.2,0.8-0.2,1.2c-0.1,0.5-0.3-0.2-0.5-0.1
			c-0.4,0.1-1.5,0.8-2,1.4c-0.2,0.3-0.5,0.5-0.8,0.2c-0.3-0.3-0.5-0.3-0.7,0.2c-0.4,0.7-0.8,1.4-1.7,1.4c-0.1,0-0.3,0.3-0.3,0.5
			c0,0.3-0.1,0.4-0.4,0.6c-0.6,0.2-1.1,0.5-1.7,0.1c-0.1,0-0.3,0-0.3,0c0.1,1.2-1,1.6-1.5,2.5c-0.2,0.4-0.2,1-1,0.8
			c-0.3-0.1-0.3,0.4-0.1,0.6c0.3,0.4,0.3,0.7,0.1,1.1c-0.5-0.6-0.7,0.1-1,0.3c-0.6,0.5-0.8,1.5-1.8,1.5c-0.1,0-0.1,0.4-0.1,0.5
			c0,0.2,0.4,0.4,0.1,0.4c-0.8,0-0.8,0.8-1.1,1.2c-0.4,0.5-0.6,1.5-1.1,1.7c-0.7,0.3-0.6,1.1-1,1.5c-0.2,0.2,0.3,0.8-0.5,0.9
			c-0.3,0-0.7,0.4-1.1,0.3c-0.5-0.1-1-0.2-1.4-0.4c0,0-0.1-0.3,0-0.3c0.2-0.1,0.5-0.3,0.7-0.3c0.2,0,0.4,0.6,0.5-0.1
			c0.1-0.7-0.6-1.8,0.9-1.8c0,0,0.1-0.1,0.1-0.1c-0.2-0.7,0.4-0.8,0.7-1.1c0.2-0.1,0.3-0.5,0.3-0.7c0-0.4,0.1-0.4,0.5-0.2
			s0.1-0.4,0.2-0.5c0.1-0.2,0.3-0.4,0.3-0.5c0-0.5,0.7-0.9,0.1-1.5c-0.3-0.3,0-1.1-0.1-1.7c0-0.4,0.2-0.4,0.5-0.5
			c0.2,0,0.5-0.3,0.7-0.3c0.5,0,0.6,0,0.4-0.3c-0.3-0.3-0.3-0.5,0-0.9c0.3-0.4,0.4,0,0.6,0.1c0.2,0.1,0.6,0,0.8,0.1
			c0.1,0.1,0.1,0.2,0.2,0.2c0-0.1,0.1-0.2,0.1-0.2c-0.1,0-0.2-0.1-0.3-0.1c0,0.1,0,0.1,0,0.1c-0.1-0.2-0.2-0.4-0.4-0.6
			c-0.1-0.1-0.3-0.3-0.3-0.3c0.1-0.2,0.3-0.4,0.5-0.5c0.2-0.1,0.6-0.1,0.7,0c0.5,0.6,0.8,0,0.8-0.2c-0.1-1,0.6-1,1.2-1.2
			c0.2-0.1,0.5-0.1,0.6-0.2c0.6-1.3,1.9-0.5,2.7-1c0.6,0.5,0.7,0.2,0.8-0.4c0-0.2,0.1-0.5,0.2-0.7c0.2,0.3,0.3,0.2,0.6,0
			c0.4-0.3-0.3-0.4,0-0.8s0.3-0.8,0.5-1.3c-0.7-0.4,0.1-0.7,0.3-1.1c0.3-0.1,0.4-0.2,0.4-0.4c0-0.1-0.2-0.2-0.2-0.2L36,33.3h0.2
			c-0.6-0.4-1-0.7-1.2-1.2c-0.1-0.3-0.4-0.8,0.3-0.9c0.1,0.1,0.2,0.2,0.3,0.4c0.1,0.1,0.1,0.2,0.2,0.2c0-0.1,0.1-0.2,0.1-0.2
			c-0.1-0.1-0.2-0.1-0.3-0.1c0,0,0,0.1,0,0.1c-0.1-0.2-0.2-0.3-0.3-0.4c0.2-0.3,0.3-0.7,0.5-1c0.2-0.2,0.2-0.4-0.1-0.4
			c-0.7,0.1-1-0.5-1.3-0.9c-0.1-0.2-0.2-0.7,0.2-0.9c0.2-0.1,0.6,0,0.2-0.4c-0.3-0.4-0.5-0.8-0.8-1.2c0.5-0.3-0.6-1,0.3-1.3
			c-0.1-0.6-0.2-1.2-0.3-1.8c0,0,0.1-0.1,0.1-0.1c0.1-0.4,0.1-0.9,0.2-1.3c0.2-0.4-0.7-0.5-0.1-1c0.2-0.2,0.1-0.8,0.1-1.1
			c0-0.4-0.2-1,0-1.2c0.5-0.5-0.3-0.9,0-1.3c0.4-0.6,0.1-1-0.2-1.4c-0.3-0.4,0.2-0.5,0.2-0.8c0-0.4,0.4-0.2,0.7-0.2
			c0.1,0.1,0.1,0.2,0.2,0.2c0-0.1,0.1-0.2,0.1-0.2C35.1,15,35,15,35,14.9c0,0.1,0,0.1,0,0.1c-0.2-1.1-0.2-1.1,0.5-1.8
			c0.1-0.1,0.1-0.4,0.1-0.6c0-0.1-0.2-0.2-0.3-0.4c-0.1-0.4,0.1-0.6,0.8-0.7c0.2,0,0.1-0.1,0.7-0.9c0.2-0.3,1-0.4,0.3-1
			c0.2-0.2,0.5-0.5,0.5-0.5c0.5,0.5,0.6,0.1,0.4-0.3c-0.1-0.2-0.2-0.3,0-0.6c0.2-0.4,0.2-1,0.5-1.3c0.3-0.3,0.9-0.5,0.7-1.1
			c0.2,0,0.4-0.2,0.6-0.1c0.2,0.1,0.3,0.3,0.4,0.5c-0.7,0.3,0.4,0.8-0.2,1.2c-0.4,0.3-0.6,0.8-0.9,1.2c0.7,0.3-0.1,0.6,0,0.9
			c0.3,0.7-0.6,0.5-0.7,0.9c-0.1,0.5-0.2,1.1-0.5,1.3c-0.7,0.4,0.4,0.9-0.1,1.2c0.4,0.6-0.3,1-0.1,1.6c0.1,0.3-0.3,1.5-0.4,1.7
			c-0.1,0.1-0.2,0.2-0.2,0.2c-0.2,0.9,0.3,1.8-0.2,2.7c0,0,0.6,0.5,0.8,0.7c0,0,0.1,0.1,0.1,0.1c0,0.1,0,0.2-0.1,0.3
			c0,0-0.2,0-0.2,0C37,20,36.7,20,36.7,20.6c0,0.5,0.8,1.2-0.5,1.3c-0.4,0,0,0.3,0.1,0.4c0.1,0.3,0.1,1.5,0.1,1.8
			c0,0.4-0.6,0.9,0.1,1.2c0.4,0.2-0.1,0.3-0.1,0.5c0,0.3,0.1,0.6,0.2,0.9c0,0.1,0.2,0.2,0.3,0.3c0-0.1,0.1-0.2,0.1-0.3
			c-0.1-0.6,0.3-1.4-0.3-1.9c0.7-1.4,0.3-3.2,1.6-4.4c0.1-0.1,0.1-0.3,0.1-0.5c-0.1-0.5,0.2-1,0.2-1.5c0.1-0.5,0.5-1,0.8-1.5
			c0.5-1.1,0.9-2.2,1.4-3.2c0.5-0.9,0.7-1.2,1.3-1.9c0.5-0.5,0.8-1.2,1.1-1.9c-0.5-0.5,0-0.5,0.3-0.4c0.3,0.1,0.7,0.3,0.8,0.5
			c0.1,0.3,0.1,0.6,0.5,0.5c0.4-0.1,0.6,0.1,0.6,0.6c-0.1,0.6,0.1,1.2-0.1,1.7c-0.3,0.5-0.5,1.1-0.7,1.6c-0.2,0.6-0.8,1.1-0.7,1.8
			c0,0.1-0.1,0.2-0.2,0.2c-0.7,0.1-0.8,0.6-0.8,1.2c0,0.4-0.1,0.9-0.4,1c-0.8,0.4-0.5,1.1-0.2,1.5c0.3,0.5,0,0.9-0.1,1.3
			c0,0.2-0.3,0.3-0.5,0.5c-0.1,0.1-0.1,0.3,0,0.4c0.3,0.4,1.2,0.5,1.5,0.2c0.1-0.2,0-0.5,0.5-0.5c0.2,0,0.2-0.5,0.4-0.6
			c0.3-0.1,0.6-0.1,0.6-0.6c0-0.2,0.2-0.5,0.3-0.7c0.1-0.4,0.3-0.8,0.3-1.2c0.1-0.4,0.8-0.4,0.5-1c-0.1-0.2,0.2-0.8,0.5-1
			c0.3-0.3,0.4-0.6,0.4-1c0-0.8,0.2-1.4,1-1.8c0.4-0.2,0.7-0.6,0.8-1.2c0.1-1.3,0.5-2.5,1.8-3.1c0.1-0.1,0.2-0.3,0.3-0.5
			c0.5-1.5,1-2.9,2.5-3.7c0.2-0.1,0.9-0.5,0.3-1.1c-0.2-0.2,0.1-0.2,0.8-1c0.5-0.6,1.3-0.8,1.6-1.5c0.1-0.4,0.9-0.6,1.2-0.4
			c0.4,0.3-0.2,0.6-0.1,0.8c0.2,0.8-0.5,0.8-0.9,1.2c-0.2,0.2-0.5,0-0.6,0.4c-0.4,1.6-1.5,2.8-2.3,4.2c-0.5,0.8-1.3,1.4-1.1,2.5
			c0,0.2-0.2,0.4-0.3,0.6c-0.5,1-1.7,1.6-1.5,3c0,0.1-0.2,0.2-0.3,0.4c-0.2,0.2-0.4,0.4-0.1,0.7c0.2,0.2,0.4,0.6,0.8,0.3
			c0.6-0.5,0.7,0.1,0.8,0.4c0.1,0.4-0.2,0.4-0.5,0.4c-0.4,0-0.6,0.1-0.5,0.5c0.2,0.4,0.3,0,0.5-0.1c0.4-0.2,0.6,0.2,0.8,0.4
			c-0.2,0.2-0.4,0.5-0.6,0.6c-0.3,0.1-0.7,0-1,0c-0.1,0-0.3,0.3-0.3,0.4c0.1,0.4,0.4,0.9,0.3,1c-0.6,0.7-0.2,1.5-0.3,2.3
			c-0.7-0.2-0.7,0.3-0.7,0.8c0,0.2,0.6,0.3,0.2,0.6c-0.2,0.2-0.5,1.7-0.5,2.1c-0.1,1-0.2,2.1-0.4,3.1c0,0.1-0.4,0.2-0.5,0.3
			c-0.3,0.2-0.2,0.5,0,0.7c0.1,0.1,0.3,0.5,0.5,0.1c0.2-0.8,1-0.8,1.4-1.2c0.2-0.2,0.4-0.1,0.1-0.4c-0.6-0.6,0.3-1.1,0.2-1.7
			c0-0.2,0.3-0.6,0.5-0.6c0.6,0,0.5-0.4,0.6-0.8c0-0.2,0.1-0.6,0.3-0.7c0.5-0.6,0.8-1.2,0.8-1.9c0-0.1,0.2-0.3,0.4-0.4
			c0.3-0.2,0.7-0.2,1-0.4c0.1-0.1,0.3-0.4,0.2-0.5c-0.5-0.8,0.1-1.1,0.6-1.6c0.1-0.1,0.3-0.2,0.4-0.3c-0.2,0-0.3,0-0.5-0.1
			c-0.2,0-0.3-0.1-0.5-0.1c0.1-0.1,0.2-0.3,0.3-0.4c0.2-0.1,0.5-0.1,0.8-0.2c0.2,0,0.5-0.1,0.6-0.2c0.5-0.5,0.4-1.1,0-1.8
			c-0.1-0.1-0.1-0.2-0.2-0.4c0.2,0,0.3-0.1,0.5-0.1c0.6,0,1-0.2,1.2-0.7c0-0.1,0-0.1,0-0.2c-0.1-0.7,0.3-1.2,0.6-1.6
			c0.1-0.2,0.4-0.4,0.4-0.5c-0.4-1,0.6-1.3,1-1.8c0.4-0.5,0.3-1.3,0.9-1.7c0.5-0.4,1.1-0.8,0.9-1.7c0-0.1,0.1-0.3,0.2-0.4
			c0.6-0.4,1.1-0.4,1.5-0.2c0.5,0.4,0.3,0.9,0.3,1.4c0,0.1-0.2,0.2-0.2,0.3c0,0.7,0.1,1.4-0.1,2c-0.2,0.6-0.8,1.1-1,1.8
			c-0.1,0.4-0.5,0.8-0.7,1.3c-0.1,0.4,0.1,1-0.6,1.1c-0.2,0-0.5,0.9-0.3,1.1c0.5,0.7-0.6,0.7-0.5,1.2c0.2,1-0.3,1.6-1,2.2
			c-0.5,0.4-0.5,0.8-0.2,1.3c0.1,0.1,0.1,0.5,0,0.6c-0.3,0.3-0.7,0.5-1.1,0.8c-0.3-0.4-0.6-0.3-0.7,0c-0.2,0.4-0.4,0.9-0.5,1.4
			c-0.1,0.3,0.1,0.4,0.4,0.2c0.1-0.1,0.4-0.1,0.6-0.1c0,0.2-0.1,0.4-0.1,0.6c-0.1,0.3-0.1,0.6-0.2,1c0,0.2-0.2,0.4-0.3,0.4
			c-0.9,0-1.2,0.8-1.7,1.3c0,0,0,0.4,0.1,0.4c0.1,0.1,0.4,0,0.4,0c0.2-0.2,0.3-0.6,0.5-0.8c0.1-0.1,0.3-0.2,0.4-0.1
			c0.1,0.1,0.2,0.3,0.2,0.4c0,0.3,0.1,0.6-0.4,0.6c-0.1,0-0.3,0.4-0.3,0.4c0.4,0.4,0.3,0.7,0,1.1c-0.3,0.4,0.1,1,0.3,1.6
			c0.2,0.4,0.5,0.3,0.7,0.3c0.2-0.1,0.4-0.4,0.7-0.6c-0.3-0.3-0.3-0.3,0.1-0.5c0.4-0.1,0.8-0.3,0.3-0.9c-0.2-0.2,0.1-0.7,0.1-1.1
			c0.1-0.8,1-1.5,0.2-2.4c0.1-0.1,0.3-0.4,0.4-0.4c0.3,0,0.6,0,0.7-0.5c0-0.2,0.7-0.3,0.9-0.6c0.2-0.4,0.1-0.9,0.1-1.3
			c0-0.1,0.2-0.3,0.3-0.4c0.2-0.3,0.4-0.6,0.6-1c0.6-0.8,0.5-2.1,1.8-2.5c0.1,0,0-0.3,0.1-0.5c0.2-0.5,0.8-0.8,1.2-0.4
			c0.3,0.2,0.4,0.2,0.6,0c0.5-0.3,0.3-1,0.4-1c0.6,0.1,0.9-0.3,1.3-0.7c0.1-0.1,0.3-0.2,0.5-0.3c0.1,0.2,0.3,0.4,0.4,0.7
			c0.1,0.2,0,0.4,0,0.7c0,0.3,0.4,0.4,0.6,0.1c0.3-0.3,0.7-0.5,0.2-1c-0.3-0.3-0.1-0.5,0.1-0.7c0.3-0.4,0.5-0.9,0.9-1.1
			c0.5-0.3,1.1-0.4,1.7-0.5c-0.1,0.4,0.1,0.7,0.3,0.9c-0.7,0.8,0,2.1-1.2,2.6c-0.1,0.1-0.1,0.5-0.2,0.8c-0.1,0.2-0.2,0.5-0.2,0.5
			c-0.6,0-0.4,0.4-0.5,0.7c-0.1,1-0.2,2.1-0.4,3.1c-0.1,0.3-0.2,0.8-0.5,1c-0.2,0.1-0.6-0.1-0.9-0.1c-0.1,0-0.3,0.1-0.3,0.1
			c0.1,0.3-0.2,0.6,0.3,0.8c0.5,0.2,0.5,0.9,0.1,1c-0.5,0.1-0.5,0.4-0.5,0.7c0,0.1-0.1,0.4-0.2,0.4c-0.8,0-0.5,0.7-0.4,0.8
			c0.5,0.6-0.2,0.9-0.3,1.4c-0.3,1-0.8,0.7-1.3,0.3c-0.2-0.2-0.6-0.2-0.9-0.2c-0.2,0-0.4,0.1-0.5,0.3c-0.2,0.4,0.2,0.3,0.3,0.3
			c0.3,0,0.7-0.1,0.6,0.4c-0.1,0.7-0.4-0.1-0.5,0c-0.3,0.2-0.6,0.5-0.6,1c0,0.6,0.5,0.3,0.7,0.5c0.4,0.4,0.7-0.3,0.7-0.3
			c-0.1-0.7,0.8-0.4,0.9-0.8c0.4,0.6,0.8,0,1-0.1c0.4-0.2,0.6-0.3,1,0c0.6,0.3,1.1,0.1,1.2-0.6c0.1-0.4,0.1-0.7,0.4-0.9
			c0.5-0.3,0.5-0.9,0.8-1.4c0.2-0.4-0.1-0.5-0.1-0.6c0.1-0.2,0.4-0.4,0.6-0.6c0.2-0.3,0.4-0.6,0.4-0.9c-0.1-0.6,0.3-1,0.7-1.2
			c0.5-0.3,0.9-0.5,0.7-1.1c0.4-0.1,0.2-0.8,0.8-0.9c0.5-0.1,0.1-0.7,0.2-1c0.2-0.4,0.3-0.9,0.9-0.3c0.1,0.1,0.7,0.3,0.8-0.3
			c0-0.3,0.2-0.7-0.4-0.8c-0.1,0-0.2-0.2-0.3-0.3c0-0.1,0.1-0.2,0.2-0.3c0.6,0.7,1.1,0.1,1.1-0.3c0-0.8,0.5-1,1.1-1.3
			c0.6-0.3,0.1-0.6,0-0.9L76.3,15.1z M61.9,74.5c-0.2-0.4-0.3-0.4-0.3-0.4c0,0.1,0.1,0.1,0.2,0.2l0.2-0.2l-0.2-0.2
			c0.3,0.5,0.3,0.6,0.4,0.6c0-0.1,0.1-0.2,0.1-0.2c-0.1,0-0.2-0.1-0.3-0.1L61.9,74.5L61.9,74.5z M25.7,44.2c0.5-0.3,0.6-0.3,0.6-0.4
			c-0.1,0-0.2-0.1-0.2-0.1c0,0.1-0.1,0.2-0.1,0.3h0.2c-0.4,0.2-0.4,0.3-0.4,0.3c0.1,0,0.1-0.1,0.2-0.2L25.8,44L25.7,44.2L25.7,44.2z
			 M54,34.5c0.5-0.3,0.6-0.3,0.6-0.4c-0.1,0-0.2-0.1-0.2-0.1c0,0.1-0.1,0.2-0.1,0.3h0.2c-0.4,0.2-0.4,0.3-0.4,0.3
			c0.1,0,0.1-0.1,0.2-0.2l-0.2-0.2L54,34.5L54,34.5z M57.9,82.7c0.3,0.5,0.3,0.6,0.4,0.6c0-0.1,0.1-0.2,0.1-0.2
			c-0.1,0-0.2-0.1-0.3-0.1v0.2c-0.2-0.4-0.3-0.4-0.3-0.4c0,0.1,0.1,0.1,0.2,0.2l0.2-0.2L57.9,82.7L57.9,82.7z M76.8,39
			c0.3,1,0.3,1.1,0.4,1.1c0-0.1,0.1-0.2,0.1-0.2c-0.1,0-0.2-0.1-0.3-0.1V40c-0.3-0.7-0.4-0.5-0.3-0.4c0,0.1,0.2,0.2,0.3,0.2
			c0-0.1,0-0.2,0-0.3C77,39.4,77,39.3,76.8,39L76.8,39z M67.2,20.5c-0.7,0.6-0.6,0.7-0.5,0.7c0.4,0,0.4-0.2,0.4-0.5
			c0,0-0.1-0.1-0.2-0.1c-0.2,0.1-0.4,0.3-0.7,0.5c1-0.5,1.1-0.6,1.2-0.7c-0.1,0-0.2-0.1-0.2-0.1c0,0.1-0.1,0.2-0.1,0.3L67.2,20.5
			L67.2,20.5z M73.6,67.6c0.3-0.7,0.3-0.5,0.3-0.4c0,0.1,0.1,0.1,0.2,0.2c0.1-0.1,0.2-0.2,0.2-0.2c0-0.2,0-0.3,0-0.5
			c0-0.2-0.1-0.4-0.1-0.6c-0.1,0.2-0.1,0.3-0.2,0.5c0,0,0,0.1,0,0.2c-0.3,0.9-0.2,1-0.2,1c0.1,0,0.1-0.1,0.2-0.2l-0.2-0.2L73.6,67.6
			L73.6,67.6z M24.6,64.7c0.4,0.1,0.4-0.2,0.4-0.5c0-0.1-0.2-0.2-0.3-0.2c-0.2,0-0.3,0.2-0.5,0.3c1.1-0.4,1.1-0.5,1.2-0.6
			c-0.1,0-0.2-0.1-0.2-0.1c0,0.1-0.1,0.2-0.1,0.3h0.2C24.3,64.5,24.4,64.7,24.6,64.7z M26,62.1c0.6-0.3,0.7-0.4,0.7-0.5
			c-0.1-0.2-0.2-0.5-0.4-0.7c-0.1-0.1-0.3-0.1-0.4-0.1c0,0.1,0,0.3,0.1,0.4c0.2,0.2,0.4,0.4,0.6,0.7c-0.4,0.2-0.4,0.3-0.4,0.3
			c0.1,0,0.1-0.1,0.2-0.2l-0.2-0.2L26,62.1L26,62.1z M24.4,61.9c-0.4,0.8-0.2,0.9,0,1c0.1-0.1,0.2-0.3,0.2-0.3
			c-0.1-0.2-0.3-0.5-0.5-0.7l-0.3,0.7c0.7-0.7,0.7-0.8,0.8-0.9c-0.1,0-0.2-0.1-0.2-0.1c0,0.1-0.1,0.2-0.1,0.3L24.4,61.9L24.4,61.9z
			 M44.4,59.9c-0.6,0.8-0.5,1.1-0.3,1.3c0.2-0.2,0.5-0.4,0.5-0.6c0-0.2-0.3-0.5-0.5-0.7l-0.5,0.5c0.8-0.5,0.9-0.6,1-0.7
			c-0.1,0-0.2-0.1-0.2-0.1c0,0.1-0.1,0.2-0.1,0.3L44.4,59.9L44.4,59.9z M52.9,32.1c1-0.3,1.4-0.4,1.2-0.9c-0.1-0.2-0.2-0.5-0.4-0.6
			c-0.2-0.1-0.5,0.7-0.5,1.1c0,0.1,0.2,0.2,0.3,0.2C53,32.1,53,32.2,53,32.2c0.1,0,0.1-0.1,0.2-0.2l-0.2-0.2L52.9,32.1L52.9,32.1z
			 M21,62.7c-0.1-0.3-0.2-0.3-0.2-0.3C20.9,62.5,21,62.6,21,62.7l0.1-0.2L21,62.3c0.3,0.5,0.4,0.6,0.5,0.7c0.3,0.2,0.6,0.4,0.7,0.7
			c0.2,0.3,0.2,0.3,0.4,0.1c0.4-0.5,0.5-1.2,0.8-1.7c0.3-0.5-0.1-0.6-0.2-0.7c-0.2-0.2-0.9,0.2-0.8,0.5c0,0.2,0.4,0.4,0,0.6
			c-0.2,0.1-0.5,0.2-0.8,0.2C21.4,62.7,21.3,62.7,21,62.7L21,62.7z M76.2,60.2c-0.2,0.2-0.3,0-0.3,0c-0.2,0-0.5,0.2-0.5,0.2
			c0.1,1.1-0.2,2.1-1.1,2.6c-0.5,0.3-0.7,0.9-1.2,1.2c-0.1,0.1-0.2,0.2-0.2,0.3c0,0.1,0,0.2,0.1,0.3c0,0,0.2,0,0.2,0
			c0.5-0.5,1.3,0.1,1.6-0.3c0.3-0.3,0.1-1.1,0.3-1.6c0.2-0.6,0.5-1.3,0.8-1.9c0.1-0.2,0.1-0.4,0.2-0.7c0.1-0.4,0.2-0.4,0.3-0.5
			c-0.1,0-0.2-0.1-0.2-0.1c0,0.1-0.1,0.2-0.1,0.3L76.2,60.2L76.2,60.2z M52.4,64.4c-1.3,0-1.7,0.9-1.9,1.8c-0.1,0.5-0.2,0.8-0.7,0.9
			c-0.9-0.6-1-0.5-1-0.5c0.2,0.2,0.4,0.5,0.6,0.7c0,0,0.3-0.1,0.4-0.2l-0.7-0.8c0.6,1.1,1.3,1.2,0.8,1.6c-0.4,0.3,0,0.6,0.3,0.8
			c0.2,0.2,0.6-0.3,0.8,0.1c0,0,0.1-0.1,0.1-0.1c-0.6-0.9,0.4-1.5,0.4-2.3c0-0.2,0.1-0.4,0.1-0.6c0.2,0.1,0.4,0.2,0.5,0.2
			c0.7-0.2,0.7-0.3,0.4-0.9c-0.1-0.2-0.2-0.5-0.3-0.7c0.2-0.1,0.4-0.3,0.3-0.4c-0.1-0.1-0.3-0.2-0.4-0.3c0,0.1-0.1,0.2-0.1,0.3
			C52.1,64.1,52.2,64.2,52.4,64.4L52.4,64.4z M8.7,124.1c9-5.6,9-5.7,9-5.7c-0.2-0.3-0.3-0.6-0.5-0.8c-0.2,0.4-1,0-0.9,0.7
			c0.1,0.6-0.2,0.6-0.7,0.7c-0.6,0.1-1.1,0.7-1.8,0.7c-0.1,0-0.3,0.3-0.3,0.5c0,0.6-0.3,1-1,0.9c-0.4,0-0.8,0.1-1,0.4
			c-0.6,0.7-1.4,1.2-2.2,1.7c-0.1,0.1-0.2,0.3-0.3,0.5c0.2,0.1,0.4,0.2,0.5,0.2c1-0.6,2.2-0.7,3-1.6c0.2-0.2,0.6,0,0.8-0.2
			c0.2-0.3,1.1-0.1,0.7-0.9c0.2,0,0.2-0.6,0.6-0.3c0.1,0.1,0.2,0.1,0.2,0.1c0.2-0.3,0.4-0.6,0.6-0.9c0.3,0.4,0.7,0.4,1.1,0.3
			c0.7-0.1,1.2-0.8,1.2-1.7c-8.9,5.7-8.9,5.7-8.8,5.8c0.1-0.2,0.1-0.3,0.2-0.5c0,0-0.1-0.1-0.2-0.2L8.7,124.1L8.7,124.1z M64.1,20.4
			c-1.9,6.4-2.1,5.9-1.4,6c0.2-0.6,0.3-1.2,0.5-1.9c0.2-0.5,0.4-1,0.7-1.4c0.2-0.2,0.4-0.8,0.8-0.2c0.1-0.1,0.2-0.4,0.2-0.4
			c-0.2-0.2-0.4-0.3-0.6-0.4c-0.3-0.2-0.5-0.5-0.1-0.8c0.1,0,0.1-0.4,0-0.5c-0.1-0.1-0.2-0.2-0.4-0.2c-0.1,0-0.3,0.1-0.3,0.2
			c0,0.6-0.3,1.2-0.7,1.6c-0.5,0.5-0.2,1.6-1.3,1.7c-0.1,0.8-0.3,1.5-0.4,2.2c-0.1,0.3-0.1,0.7,0,1c0.1,0.3-0.6,0.5-0.2,0.8
			c0,0-0.1,0.2-0.1,0.3c-0.3,0.1-0.6,0.2-0.9,0.4c-0.1,0.1-0.2,0.3-0.2,0.4c0.3,0.3,0.2,0.8,0.7,1c0.4,0.2,0.7,0.4,0.8-0.3
			c0-0.3,0.2-0.5,0.2-0.8c0-0.6,0-1,0.7-1.2c0.5-0.2,0.2-0.5,0-0.7c2.1-6.5,2.1-6.4,2.2-6.3c0.1,0,0.3,0,0.5-0.1
			c0.4-0.2,0.4-0.6,0.4-1c0-0.4-0.3-1,0.5-0.9c0-0.2-0.1-0.4-0.2-0.5c-0.2-0.3-0.5-0.4-0.7,0C64.7,18.9,64.4,19.7,64.1,20.4
			L64.1,20.4z M18.5,81.7c0.2,0.5,0.7-0.2,1,0.2c0.2,0.2,0.5,0.2,0.6-0.2c0-0.4-0.2-1,0-1.2c0.5-0.4-0.1-0.7,0-1c0-0.3,0-0.7,0.2-1
			c0.3-0.4,0.2-0.6-0.1-0.9c-0.1-0.1,0-0.4,0.1-0.6c0.7-0.7,0.7-0.7,0.9-1.8c0-0.1,0.1-0.2,0.2-0.3c0.5-0.4,1.2-0.6,1.5-1.3
			c0.1-0.2,0.2-0.2,0.1-0.5c-0.5-0.7-0.1-1.5,0.4-1.9c0.5-0.5,0.2-1.5,1.2-1.6l-0.2-0.2l0.2-1.2c0.5-0.7,0.5-0.7-0.3-1.3
			c-0.3-0.2-0.5-0.5-0.1-0.7c0.2-0.1,0.4-0.1,0.6-0.3c0.1-0.1,0.1-0.3,0.1-0.4c0-0.1-0.2-0.2-0.3-0.2c-0.7,0-1.2,0.2-1.5,0.9
			c-0.1,0.3-0.9,0.3-0.2,0.8c0.4,0.2,0.3,0.5,0,0.8c-0.3,0.4-0.5,0.8-0.9,1.2c-0.3,0.2-0.9,0.3-0.2,0.8c0.2,0.2,0.1,0.3,0.1,0.5
			c-0.1,0.3-0.8,0.6-0.2,1.1c-0.3,0.2-0.5,0.5-0.8,0.6c-0.7,0.1-0.5,0.2-0.2,0.5c0.2,0.2,0.7,0.4-0.1,0.6c-0.3,0-0.5,0.4-0.7,0.7
			c-0.1,0.1,0,0.3,0,0.3c0.1,0.1,0.5,0.3,0.5,0.3c-0.2,0.5-0.3,1-0.6,1.4c-0.4,0.5-0.4,0.5-0.5,1.5c0,0.4-0.4,0.6-0.8,0.6
			c-0.4,0-0.5,0.1-0.5,0.5c0,0.8,0.1,1.7-0.3,2.4c-0.1,0.2-0.1,0.5,0,0.7C17.9,81.6,18.1,82.3,18.5,81.7L18.5,81.7z M12.9,84.2
			c0-0.1-0.2-0.4-0.4-0.7c-0.2-0.3-0.4-0.7-0.8-0.2c-0.2-0.2-0.3-0.4-0.5-0.5c-0.2-0.1-0.4-0.1-0.6-0.1c0,0.2,0,0.4,0.1,0.6
			c0.1,0.2,0.3,0.3,0.5,0.5c0.1,0.1,0,0.3,0,0.5c-0.1-0.1-0.2-0.1-0.4-0.1c-0.5-0.2-0.7-0.1-0.6,0.4c0.1,0.2,0.2,0.5,0.3,0.7
			c0.1,0.4-0.5,0.7,0,1.1c-0.2,0.2-0.3,0.4-0.5,0.4c-0.6,0-0.5,0.3-0.5,0.7c-0.1,1.1-0.2,2.1-0.3,3.1c0,0.4-0.4,0.3-0.6,0.4
			c-0.1,0.1-0.2,0.4-0.2,0.6c-0.1,0.2-0.2,0.6-0.2,0.6c0.7,0.3,0.4,0.9,0.4,1.5c0,0.3,0.3,0.5,0.5,0.7c0.2-0.2,0.4-0.4,0.5-0.7
			c0.4-0.9,0.7-1.8,1-2.7c0.1-0.2-0.3-0.6-0.2-0.7c0.4-0.3-0.4-1,0.4-1.1c-0.1-0.9,0.4-1.6,0.9-2.3c0.1-0.1,0-0.4-0.1-0.4
			c-0.1-0.1-0.5-0.2-0.5-0.3c0.1-0.4,0.2-0.8,0.4-1c0.3-0.3,0.7-0.5,1.1-0.7c0,0,0.2,0,0.2,0.1C12.9,84.8,12.9,84.8,12.9,84.2
			L12.9,84.2z M48,101.2c-0.1-0.3-0.2-0.6-0.3-0.8c-0.4-0.4-0.3-0.9-0.2-1.4c0-0.2,0.4-0.3,0-0.4c-0.1,0-0.4,0.1-0.4,0.2
			c0,0.3-0.1,0.6-0.5,0.5c-0.6-0.2,0.1-0.3,0-0.5c0-0.1-0.1-0.1-0.1-0.1c-0.2-0.1-0.2-0.5-0.6-0.1c-0.3,0.3-0.2,0.8-0.8,0.9
			c-0.8,0.1-0.8,1-1.1,1.5c-0.1,0.1,0.2,0.4,0.1,0.5c-0.3,0.5-0.2,1.1,0.3,1.3c0.5,0.2,1.4,0,1.6-0.5c0.1-0.3-0.1-0.8-0.5-0.8
			c-0.5,0-0.5-0.2-0.5-0.6c0-0.4,0.2-0.4,0.5-0.5c0.9-0.2,0.9-0.2,1.2,0.7c0.3,0.7,0.6,0.9,1.1,0.5C47.9,101.4,48,101.2,48,101.2
			L48,101.2z M53.9,70.5c0.4,0.5,0.5,0.9,0.1,1.4c-0.2,0.2,0.3,0.8,0.3,1.2c-0.1,0.6,0.5,0.5,0.7,0.7c0.2,0.2,0.4,0.2,0.4-0.2
			c0-0.8,0-1.6,0-2.4c0-0.4,0.3-0.4,0.6-0.3c0.3,0.2,0.4,0.4,0.5-0.1c0-0.6-0.4-0.7-0.8-1c-0.6-0.4-0.6,0.1-0.9,0.2
			C54.4,70.2,54.1,70.4,53.9,70.5L53.9,70.5z M44.4,33.9c0.7,0.4,0.3,0.9,0.1,1.3c-0.1,0.2-0.2,0.5-0.2,0.8c0,0.2,0.1,0.6,0.2,0.7
			c0.2,0.1,0.6,0,0.8-0.2c0.3-0.2,0.6-0.5,0.9-0.8c0.2-0.3,0.8-0.5,0.4-0.9c-0.3-0.4-0.3-1.3-1.2-1.2c-0.3,0-0.6,0-0.9,0
			c-0.1,0-0.1,0.1-0.2,0.2C44.3,33.8,44.4,33.9,44.4,33.9z M61.3,66.9c0.1,0.3,0.2,0.5,0.2,0.7c0.1,0.4-0.2,1,0.2,1.1
			c0.2,0.1-0.1-0.8,0.4-1.1c0.2-0.1-0.2-0.6,0.3-0.8c0.4-0.2,1.2-0.1,1.1-0.9c-0.1-0.5,0.6-1,0-1.4c0,0,0.2-0.3,0.3-0.4
			c0.7-0.3-0.1-0.4,0-0.7c0.1-0.4-0.2-0.5-0.5-0.3c-0.2,0.1-0.4,0.5-0.3,0.6c0.3,0.3,0,0.6,0,0.8c0.1,0.6,0,1-0.7,0.9
			c-0.3,0-0.5,0.1-0.5,0.5C61.8,66.2,62.1,66.8,61.3,66.9C61.3,66.8,61.3,67,61.3,66.9L61.3,66.9z M18,119.3
			c0.1,0.2,0.1,0.3,0.2,0.3c0.1,0.1,0.2,0.1,0.3,0c0.2-0.2,0.4-0.4,0.6-0.6c0.2-0.2,0.4-0.8,0.5-0.8c1,0.2,0.8-0.9,1.4-1.2
			c0,0-0.1-0.5-0.2-0.8c-0.2,0.1-0.4,0.1-0.5,0.2c-0.3,0.3-0.6,0.6-1,0.1c0,0-0.4,0.1-0.4,0.3C18.7,117.8,18.6,118.6,18,119.3
			L18,119.3z M35.3,60.9l-0.2-0.3c-0.1,0.1-0.3,0.2-0.4,0.4c-0.1,0.2-0.2,0.4-0.2,0.6c0,0.4,0,0.7-0.6,0.8c-0.3,0.1-0.8,0.5-0.3,1.1
			c0.2,0.2-0.2,0.8-0.4,1.3c-0.1,0.3-0.2,0.5-0.2,0.8c0,0.1,0.2,0.2,0.4,0.2c0.1,0,0.3-0.1,0.3-0.1c-0.3-0.8,0.8-1.1,0.8-2
			c0-0.6,0.4-1.3,0.6-2C35.4,61.5,35.3,61.2,35.3,60.9L35.3,60.9z M77.2,37.8c-0.2-0.2-0.2-0.4-0.4-0.4c-0.2,0-0.6,0-0.6,0
			c-0.2,0.9-1.1,1.2-1.7,1.7c-0.2,0.1-0.2,0.4-0.3,0.6c-0.1,0.1-0.4,0.3,0,0.4c0.3,0.1,0.6,0.2,0.8,0.2c0.6-0.1-0.2-0.6,0.2-0.8
			c0.3-0.1,0.8,0.2,0.8-0.3c0-0.6,0.5-0.3,0.7-0.6C76.8,38.4,77,38.1,77.2,37.8L77.2,37.8z M38.3,60.7l0.7,1.5
			c0.3-0.4,0.8,1.1,1-0.2c0.1-0.5,0.8-0.6,1.3-0.7c0.1,0,0.2,0,0.4,0c0-0.2,0-0.4-0.1-0.5c-0.2-0.2-0.5-0.2-0.7-0.4
			c-0.3-0.2-0.5-0.5-0.8,0c-0.3,0.4-0.7,0.5-1.2,0.2C38.7,60.7,38.6,60.7,38.3,60.7L38.3,60.7z M53.2,89.3c0,0.3,0,0.5,0,0.5
			c0.6,0.3,0.4,1,0.7,1.5c0.1,0.1,0.1,0.2,0.2,0.4c0.1-0.1,0.1-0.2,0.2-0.3c0.1-0.4,0.7-0.8,0-1.3c-0.1-0.1,0.1-0.6,0.2-0.9
			c0-0.3,0.2-0.8,0-0.9c-0.3-0.3-0.6,0.1-0.8,0.3C53.5,88.8,53.4,89.1,53.2,89.3L53.2,89.3z M21.3,83c0.1-0.1,0.2-0.1,0.2-0.2
			c0-0.8,0.6-0.7,1.1-0.8c0.1,0,0.2-0.3,0.2-0.5c0-0.1-0.1-0.2-0.2-0.2c-0.4-0.1,0-0.8-0.6-0.7c-0.6,0.2-1.2,0.6-1.3,1.3
			C20.6,82.4,21.1,82.7,21.3,83L21.3,83z M49.7,69.2c-0.6,0-0.5,0-0.3,0.5c0.3,0.8,0.9,0.8,1.5,0.9c0.2,0,0.5-0.6,0.8,0
			c0.1-0.2,0.2-0.4,0.2-0.5C51.3,69.4,50.5,69.1,49.7,69.2L49.7,69.2z M78.1,57.4c-0.2,0.4,0.6,0.8,0,1.3c0.2,0.2,0.3,0.4,0.5,0.5
			c0,0,0.2-0.1,0.3-0.2c0.2-0.2,0.4-1.7,0.3-1.9c-0.1-0.3-0.3-0.5-0.4-0.5c-0.3,0.2-0.5,0.3-0.7,0.5C78.1,57.1,78.1,57.3,78.1,57.4
			L78.1,57.4z M36.3,62c0.3,0.2,0.6,0.4,0.9,0.6c0.1,0,0.3-0.2,0.5-0.3c0.2-0.2,0.2-0.5-0.2-0.6c-0.5-0.1-0.5-0.4-0.2-0.7
			c0.3-0.4-0.2-0.4-0.2-0.6c-0.1,0.1-0.2,0.2-0.3,0.4C36.6,61.1,36.4,61.5,36.3,62L36.3,62z M26.7,113.9c0.1,0,0.3,0.1,0.3,0.1
			c0.3-0.3,0.7-0.3,1,0c0.4,0.3,0.4-0.1,0.6-0.2c0.2-0.2,0.2-0.5-0.1-0.6c-0.4-0.1-0.9,0-1.3,0C26.6,113,26.7,113.4,26.7,113.9
			L26.7,113.9z M40.5,26.5c0,0.2,0.2,0.6,0.3,1c0,0,0.2,0.1,0.3,0c0.1-0.1,0.2-0.2,0.4-0.4c-0.6-0.5-0.2-1.1-0.3-1.7
			c0-0.1-0.2-0.2-0.4-0.2c-0.1,0-0.3,0.1-0.3,0.1C40.5,25.7,40.5,25.9,40.5,26.5L40.5,26.5z M27.4,65.2c0,0.1,0.1,0.4,0.2,0.5
			c0.4,0.1,1-0.7,0.8-1.1c-0.1-0.2-0.3-0.3-0.5-0.5c-0.2-0.2-0.5,0-0.6,0.3C27.4,64.6,27.4,64.8,27.4,65.2L27.4,65.2z M15.2,72.3
			c-0.7-0.1-1,0-1,0.6c0,0.4,0.2,0.5,0.5,0.4c0.5-0.1,1-0.5,0.8-0.8C15.5,72.4,15.2,72.3,15.2,72.3L15.2,72.3z M15.4,74
			c0.3,0.2,0.4,0.3,0.6,0.4c0.3,0.1,1.1-0.4,1-0.5c-0.2-0.3-0.5-0.6-0.8-0.9L15.4,74L15.4,74z M63.8,70.8c0.5,0.3,0.8,0.7,1.1,0.7
			c0.3,0,0.4-0.4,0.4-0.8c0-0.5-0.4-0.4-0.6-0.4C64.4,70.3,64.2,70.5,63.8,70.8L63.8,70.8z M51.5,91.6c0,0.1,0,0.2,0.1,0.3
			c0.3,0.3,0.7,0.5,1.1,0.7c0.1,0,0.2-0.1,0.3-0.2c0.1-0.1,0.2-0.2,0.2-0.2l-0.8-0.8c-0.2,0.3-0.5,0.3-0.7,0L51.5,91.6L51.5,91.6z
			 M63.6,32.4c0.1,0.1,0.2,0.2,0.3,0.2c0.5,0.1,0.9-0.1,1.1-0.6c0.1-0.2,0-0.4,0-0.7c-0.2,0.1-0.3,0.1-0.5,0.2
			C64.1,31.8,63.9,32.1,63.6,32.4L63.6,32.4z M30.8,73c0,0.2,0,0.3,0,0.5c0,0.1,0.2,0.2,0.2,0.2c0.2,0,0.4-0.1,0.4-0.2
			c0.1-0.2,0-0.4,0-0.7c0-0.2,0.7-0.3,0.1-0.5c-0.2-0.1-0.7-0.2-0.7,0.3C30.8,72.8,30.8,72.9,30.8,73L30.8,73z M7.6,95
			c0.2,0.4,0.5,0.8,0.7,1.1c0,0,0.3,0,0.3-0.1c0.1-0.3,0.2-0.6,0.1-0.8c-0.1-0.2-0.5-0.4-0.8-0.5C7.9,94.7,7.8,94.9,7.6,95L7.6,95z
			 M3,104c0.2-0.2,0.5-0.4,0.6-0.6c0-0.2-0.3-0.4-0.4-0.7l-0.7,0.6C2.4,103.3,3,104,3,104z M81,46.4l-0.9,0.7
			c0.2,0.2,0.5,0.6,0.6,0.6c0.3-0.2,0.6-0.5,0.5-0.9C81.2,46.6,81.1,46.5,81,46.4L81,46.4z M47.3,67.6l0.2,0.2
			c0.3-0.3,0.5-0.6,0.8-1c0,0-0.1-0.2-0.2-0.2c0,0-0.1-0.1-0.1-0.1c-0.3,0.2-0.6,0.5-1,0.8C47,67.3,47.3,67.6,47.3,67.6z M55.8,88.3
			c0.2-0.1,0.5-0.3,0.5-0.4c0-0.2-0.3-0.4-0.4-0.7L55,88L55.8,88.3L55.8,88.3z M28,90.1c0.1,0.1,0.2,0.2,0.2,0.2c0.1,0,0.3,0,0.3,0
			c0.1-0.4,0.3-0.7,0.8-0.8c0,0,0-0.3,0-0.4c0-0.1-0.2-0.1-0.3-0.1C28.8,89.3,28.4,89.7,28,90.1L28,90.1z M18.5,73.6
			c0.1,0.1,0.3,0.1,0.3,0.1c0.2-0.4,0.4-0.8,0.6-1.2c0,0-0.2-0.1-0.2-0.2c-0.1,0-0.3,0-0.3,0.1c-0.2,0.3-0.3,0.7-0.5,1
			C18.4,73.4,18.5,73.6,18.5,73.6z M20.4,69.4c0.1,0,0.1-0.3,0-0.4c-0.3-0.3-1.2-0.1-1.2,0.3c0,0.1,0.1,0.2,0.1,0.2
			c0.2,0,0.3,0,0.7,0C20,69.5,20.2,69.5,20.4,69.4z M23.8,79.9l-1.4-0.4c0,0.1,0,0.2,0,0.3c0.2,0.6,0.3,0.7,0.4,0.6
			C23.1,80.4,23.3,80.2,23.8,79.9L23.8,79.9z M24.2,114.2l-0.1,0.6c0.2-0.1,0.4-0.1,0.6-0.2c0.4-0.2,0.2-0.4,0-0.6
			c-0.1-0.1-0.2-0.3-0.2-0.5C24.3,113.7,23.7,113.8,24.2,114.2L24.2,114.2z M18.2,75.1c-0.1,0-0.1,0-0.2,0c-0.2,0-0.4,0.1-0.6,0.1
			c0,0.1,0.1,0.2,0.1,0.2c0.2,0.1,0.5,0.3,0.7,0.3c0.2,0,0.3-0.2,0.5-0.3c0.1-0.1,0.2-0.1,0.3-0.1c-0.1-0.1-0.2-0.2-0.3-0.2
			C18.5,75,18.4,75.1,18.2,75.1L18.2,75.1z M40.5,28.6c0,0.3,0,0.5,0,0.7c0,0.1,0.1,0.1,0.2,0.1c0.4-0.1,0.6-1,0.3-1.3
			c-0.1-0.1-0.4-0.1-0.4,0C40.5,28.3,40.5,28.6,40.5,28.6L40.5,28.6z M41.5,66.3c0.2-0.5,0.1-0.8-0.3-0.9c-0.1,0-0.2,0.1-0.3,0.1
			c0.4,0.4,0.3,0.8,0,1.2l0.3,0.2C41.3,66.7,41.4,66.5,41.5,66.3z M16.2,79.4c-0.3,0.4-0.6,0.6-0.6,0.8s0.3,0.4,0.4,0.7
			c0.1-0.1,0.2-0.2,0.2-0.3C16.3,80.3,16.3,79.9,16.2,79.4L16.2,79.4z M11.5,94.6c0.2-0.3,0.3-0.5,0.3-0.5c-0.2-0.3-0.5-0.5-0.8-0.7
			c0,0-0.2,0.1-0.3,0.2L11.5,94.6L11.5,94.6z M59.7,74.2c0.1,0.2,0.2,0.4,0.3,0.5c0.2,0.1,0.4,0.2,0.7,0.3c0,0,0.2-0.2,0.2-0.2
			c0-0.4-0.2-0.5-0.5-0.4c-0.1,0-0.2-0.2-0.2-0.2C60,74.1,59.9,74.2,59.7,74.2L59.7,74.2z M26.7,114.7c-0.1-0.4-0.4-0.3-0.7-0.2
			c-0.1,0-0.2,0.3-0.3,0.4l0.8,0.4C26.5,115,26.7,114.9,26.7,114.7z M5.3,102.2c-0.1-0.3,0.2-0.7-0.2-0.8c-0.1,0-0.4,0.1-0.4,0.2
			c0,0.3,0.1,0.6,0.1,1C5,102.3,5.3,102.2,5.3,102.2z M57.1,20.4c0.5,0,0.2-0.5,0.3-0.8c0,0-0.2-0.2-0.3-0.1
			c-0.2,0.1-0.5,0.3-0.8,0.4C56.6,20.2,56.8,20.4,57.1,20.4z M67.1,65.2c0.2,0.1,0.4,0.2,0.7,0.2c0.1,0,0.3-0.3,0.3-0.4
			c-0.1-0.2-0.3-0.4-0.5-0.6L67.1,65.2z M20.8,67.8l0.1,0.3c0.1-0.2,0.1-0.3,0.2-0.4c0.1-0.1,0.3-0.2,0.3-0.4c0-0.1,0-0.3-0.1-0.4
			c0-0.1-0.2-0.1-0.3-0.1c-0.1,0.1-0.2,0.2-0.2,0.3C20.8,67.3,20.8,67.5,20.8,67.8L20.8,67.8z M60.5,31.4c0,0.1,0.2,0.4,0.3,0.4
			c0.5,0,0.3-0.4,0.3-0.6c0-0.2-0.1-0.3-0.4-0.9C60.6,31,60.5,31.2,60.5,31.4z M54.8,28.7c0,0,0.1-0.1,0.2-0.1l-0.5-0.8l-0.6,0.4
			C54.2,28.4,54.5,28.6,54.8,28.7z M48.8,34c0.2-0.2,0.4-0.3,0.6-0.5c0,0-0.1-0.2-0.1-0.2c-0.2,0-0.4,0-0.7,0c0,0-0.1,0.1-0.1,0.1
			c0,0.2,0,0.3,0,0.5C48.5,33.9,48.7,33.9,48.8,34L48.8,34z M80.9,26c0.1-0.1,0.3-0.3,0.2-0.3c-0.1-0.2-0.3-0.4-0.4-0.6l-0.4,0.5
			L80.9,26z M31.5,83c0.2,0,0.6,0.2,0.7-0.2c0-0.1-0.1-0.3-0.2-0.4l-1,0.5C31.3,82.9,31.4,83,31.5,83z M19.4,94.8
			c0-0.2-0.2-0.3-0.3-0.4c-0.1,0.2-0.3,0.3-0.3,0.4c0.1,0.2,0.3,0.4,0.6,0.8C19.4,95.2,19.5,95,19.4,94.8z M43,56.8
			c-0.1,0-0.1,0.2-0.1,0.3c0.1,0.1,0.2,0.3,0.2,0.3c0.3-0.1,0.5-0.3,0.8-0.5l-0.4-0.2C43.3,56.8,43.2,56.8,43,56.8z M66,68.5
			c-0.2-0.2-0.4-0.4-0.6-0.7c0,0.2-0.1,0.4-0.1,0.6c0,0.2,0.2,0.3,0.4,0.5C65.9,68.8,66,68.6,66,68.5z M60.5,72.5
			c0.2,0.2,0.3,0.4,0.5,0.5c0.1,0.1,0.2,0,0.3,0c-0.1-0.3-0.1-0.5-0.2-0.8c0-0.1-0.2-0.2-0.3-0.1C60.8,72.2,60.7,72.3,60.5,72.5
			L60.5,72.5z M48.8,65c0.5,0,0.3-0.4,0.3-0.6c0-0.1-0.1-0.3-0.2-0.4l-0.7,0.8C48.5,64.9,48.6,65,48.8,65z M43.3,36.5
			c0.1-0.2,0.3-0.4,0.3-0.5c0-0.5-0.3-0.3-0.6-0.3c-0.1,0-0.3,0.1-0.4,0.2L43.3,36.5L43.3,36.5z M61.8,64.5c0.2-0.2,0.4-0.4,0.4-0.4
			c-0.1-0.2-0.2-0.4-0.3-0.4c-0.2,0-0.4,0-0.6,0.1L61.8,64.5L61.8,64.5z M47,69.3c0-0.2-0.2-0.3-0.3-0.4c-0.1,0.2-0.3,0.3-0.3,0.4
			c0.1,0.2,0.3,0.4,0.6,0.8C47,69.7,47.1,69.5,47,69.3z M15.4,79c0.1-0.3,0.2-0.4,0.2-0.5c0-0.2,0.2-0.6-0.3-0.7
			c-0.1,0-0.3,0.1-0.4,0.2L15.4,79L15.4,79z M20.9,78.6c0.2,0.1,0.3,0.2,0.5,0.2c0.2,0,0.3-0.1,0.4-0.2l-0.5-0.8
			C21.3,77.8,20.9,78.6,20.9,78.6z M12.3,76.3L11.5,77c0.1,0.1,0.3,0.2,0.4,0.2c0.2,0,0.6,0.1,0.6-0.3
			C12.5,76.7,12.4,76.5,12.3,76.3L12.3,76.3z M24.4,77.4c0,0,0.1-0.1,0.2-0.1l-0.5-0.8l-0.6,0.4C23.9,77.1,24.1,77.3,24.4,77.4z
			 M42.1,64.4l0.4-0.2c-0.2-0.2-0.4-0.4-0.6-0.6c0,0-0.2,0.1-0.3,0.1L42.1,64.4L42.1,64.4z M72.6,36.4c0.2-0.2,0.4-0.4,0.7-0.6
			c-0.1,0-0.2-0.1-0.3-0.1c-0.2,0.1-0.5,0.3-0.8,0.5C72.4,36.3,72.5,36.4,72.6,36.4z M60.3,36.7l-0.5,0.5l0.5,0.5
			c0.1-0.2,0.2-0.4,0.2-0.6C60.5,37,60.4,36.8,60.3,36.7L60.3,36.7z M17.3,79.1c0.2-0.2,0.3-0.4,0.4-0.5c0-0.1-0.2-0.2-0.2-0.3
			c-0.1,0.1-0.3,0.2-0.4,0.4C17,78.6,17.2,78.8,17.3,79.1L17.3,79.1z M68.1,63.1c0.1,0.1,0.2,0.3,0.3,0.3c0.2,0.1,0.4,0.2,0.6,0.2
			c0,0,0.1-0.2,0.1-0.2c-0.2-0.2-0.4-0.3-0.6-0.5C68.4,63,68.2,63.1,68.1,63.1L68.1,63.1z M35.1,109c0.3,0.1,0.5,0.3,0.5,0.3
			c0.2-0.1,0.2-0.3,0.4-0.4c-0.1-0.1-0.2-0.3-0.3-0.2C35.5,108.7,35.4,108.8,35.1,109L35.1,109z M64.9,30.7c0.1-0.1,0.4-0.3,0.3-0.4
			c-0.1-0.2-0.3-0.3-0.4-0.5l-0.3,0.7C64.7,30.6,64.9,30.7,64.9,30.7z M91.5,28.5c0.1-0.1,0.3-0.3,0.2-0.4c-0.1-0.1-0.3-0.4-0.4-0.4
			c-0.2,0.1-0.3,0.3-0.5,0.4L91.5,28.5L91.5,28.5z M29.1,56.2c-0.1-0.1-0.3-0.2-0.4-0.2c-0.2,0-0.4,0.1-0.6,0.2
			c0.2,0.2,0.3,0.4,0.5,0.4C28.7,56.7,28.9,56.4,29.1,56.2L29.1,56.2z M23.3,64.2l0.5,0.5c0.1-0.1,0.2-0.4,0.2-0.4
			c-0.1-0.1-0.3-0.2-0.5-0.3C23.4,64,23.3,64.2,23.3,64.2L23.3,64.2z M57.6,81.8c0.5-0.2,0.7-0.2,0.9-0.3c0-0.1-0.1-0.3-0.1-0.4
			c-0.1,0.1-0.2,0.1-0.3,0.2C57.9,81.3,57.8,81.4,57.6,81.8L57.6,81.8z M66,67.3c0.2,0.1,0.3,0.2,0.5,0.2c0.1,0,0.2-0.1,0.3-0.2
			l-0.6-0.5L66,67.3L66,67.3z M29.2,54.6l-0.4,0.2l0.6,0.5c0-0.1,0.1-0.2,0.1-0.3C29.4,54.9,29.2,54.7,29.2,54.6L29.2,54.6z
			 M68,67.5c0.1,0.1,0.3,0.2,0.4,0.3c0.1,0,0.2-0.1,0.3-0.1l-0.5-0.6L68,67.5L68,67.5z M78.7,54.3c-0.1,0.2-0.2,0.3-0.2,0.5
			c0,0.1,0.1,0.2,0.2,0.3l0.5-0.6L78.7,54.3L78.7,54.3z M38,64.3l0.2,0.4l0.5-0.6c-0.1,0-0.2-0.1-0.3-0.1
			C38.3,64.1,38.1,64.2,38,64.3L38,64.3z M30.9,83.6l-0.4,0.2l0.6,0.5c0-0.1,0.1-0.2,0.1-0.3C31.1,83.9,31,83.8,30.9,83.6L30.9,83.6
			z M51.7,62.6c0.1-0.1,0.2-0.3,0.2-0.3c-0.1-0.1-0.3-0.3-0.4-0.3c0,0-0.2,0.1-0.3,0.2C51.2,62.1,51.7,62.6,51.7,62.6z M52.9,33.6
			c0,0.1,0.1,0.2,0.1,0.3l0.6-0.5l-0.4-0.2C53.1,33.3,53,33.4,52.9,33.6z M63.6,33.9c0.1,0,0.2-0.1,0.3-0.1l-0.5-0.6l-0.2,0.4
			C63.3,33.7,63.5,33.9,63.6,33.9z M36.2,72.3c0.1-0.2,0.2-0.4,0.2-0.6c0-0.1-0.1-0.3-0.2-0.4l-0.2,0.6L36.2,72.3z M64,41.7
			c0,0,0.1,0.2,0.1,0.2c0.2-0.1,0.4-0.1,0.5-0.3c0.1,0-0.1-0.3-0.2-0.4L64,41.7L64,41.7z M65.4,24.4c0.1,0.1,0.3,0.2,0.3,0.2
			c0.1-0.1,0.3-0.3,0.3-0.4c0-0.1-0.1-0.2-0.2-0.3C65.8,23.9,65.4,24.4,65.4,24.4z M74.7,42.8c0.1,0,0.2-0.1,0.3-0.2
			c-0.1-0.1-0.2-0.3-0.4-0.4c0,0-0.2,0.1-0.6,0.2C74.3,42.6,74.5,42.8,74.7,42.8z M16.2,94.1l0.4-0.2l-0.5-0.6
			c-0.1,0.1-0.2,0.2-0.2,0.3C16,93.8,16.1,94,16.2,94.1L16.2,94.1z M78.1,62.2l-0.4,0.2l0.6,0.5c0-0.1,0.1-0.2,0.1-0.3
			C78.4,62.5,78.2,62.3,78.1,62.2L78.1,62.2z M34.2,78.1c0-0.1-0.1-0.2-0.2-0.3c-0.1,0.1-0.3,0.2-0.4,0.4c0,0,0.1,0.2,0.2,0.6
			C34,78.5,34.1,78.3,34.2,78.1z M40.8,30.9c0,0.1,0.1,0.2,0.2,0.3l0.5-0.6L41,30.4C41,30.6,40.9,30.7,40.8,30.9z M49.7,76
			c0-0.1-0.1-0.2-0.2-0.3c-0.1,0.1-0.3,0.2-0.4,0.4c0,0,0.1,0.2,0.2,0.6C49.5,76.4,49.6,76.2,49.7,76z M66.5,31.1
			c0.1-0.1,0.2-0.2,0.2-0.3c0-0.1-0.1-0.2-0.1-0.3l-0.3,0.1L66.5,31.1z M51.9,90.2c0.2,0,0.3,0.1,0.5,0.1c0,0,0.1-0.1,0.1-0.2
			c-0.2,0-0.3-0.1-0.5-0.1C52,89.9,52,90.1,51.9,90.2L51.9,90.2z M50.3,28.8c-0.1,0.1-0.2,0.2-0.2,0.3c0,0.1,0.1,0.3,0.2,0.4
			l0.2-0.3C50.5,29.1,50.3,28.8,50.3,28.8z M15.9,77.4c0-0.1,0.1-0.2,0.1-0.3c0-0.1-0.1-0.2-0.2-0.3l-0.2,0.4
			C15.6,77.3,15.9,77.4,15.9,77.4z M62.6,77.2c0,0.2-0.1,0.3-0.1,0.5c0,0,0.1,0.1,0.2,0.1c0-0.1,0.1-0.3,0.1-0.4
			C62.9,77.3,62.7,77.2,62.6,77.2L62.6,77.2z M72.9,42.7c0.1,0.1,0.1,0.3,0.2,0.3c0.2,0,0.3-0.1,0.4-0.1c0-0.1-0.1-0.2-0.1-0.2
			C73.2,42.6,73.1,42.6,72.9,42.7L72.9,42.7z M28.5,110.6c0.1-0.1,0.2-0.2,0.2-0.3c0-0.1-0.1-0.2-0.1-0.3l-0.3,0.1
			C28.3,110.2,28.5,110.6,28.5,110.6z M50.1,72.4c-0.1,0-0.2-0.1-0.3-0.1c-0.1,0-0.2,0.1-0.3,0.2l0.5,0.2
			C49.9,72.7,50.1,72.4,50.1,72.4z M59.4,72c0.1,0.1,0.1,0.3,0.2,0.3c0.2,0,0.3-0.1,0.5-0.1c0-0.1-0.1-0.2-0.1-0.2
			C59.8,72,59.6,72,59.4,72L59.4,72z M55.5,24.3c0.1-0.1,0.1-0.3,0.2-0.4c0-0.1-0.1-0.2-0.2-0.3L55.3,24
			C55.3,24,55.5,24.3,55.5,24.3z M36,55.2c0.1,0.1,0.2,0.2,0.3,0.2c0.1,0,0.2-0.1,0.3-0.1L36.5,55C36.5,55,36,55.2,36,55.2z
			 M68.8,62.3c0.1-0.1,0.3-0.1,0.3-0.2c0-0.2-0.1-0.3-0.1-0.5c-0.1,0-0.2,0.1-0.2,0.1C68.7,61.9,68.8,62.1,68.8,62.3L68.8,62.3z
			 M56.4,34.6c0.1-0.1,0.3-0.1,0.3-0.2c0-0.2-0.1-0.3-0.1-0.5c-0.1,0-0.2,0.1-0.2,0.1C56.3,34.3,56.4,34.4,56.4,34.6L56.4,34.6z
			 M11,81.3c0,0,0.1-0.1,0.1-0.1c0-0.1-0.1-0.2-0.1-0.2l-0.1,0.1L11,81.3z M49.6,34.6c0,0.1-0.1,0.1-0.1,0.2c0,0,0.1,0.1,0.1,0.1
			l0.1-0.2L49.6,34.6z M48.3,34.9c0,0,0.1-0.1,0.1-0.1c-0.1,0-0.1-0.1-0.2-0.1c0,0-0.1,0.1-0.1,0.1C48.1,34.8,48.2,34.9,48.3,34.9z
			 M55.5,33.9c0,0,0.1-0.1,0.1-0.1c-0.1,0-0.1-0.1-0.2-0.1c0,0-0.1,0.1-0.1,0.1C55.4,33.8,55.5,33.9,55.5,33.9z M86.2,32.6
			c0,0.1-0.1,0.1-0.1,0.2c0,0,0.1,0.1,0.1,0.1l0.1-0.2L86.2,32.6z M56.7,85.9c0,0,0.1,0.1,0.1,0.1c0.1,0,0.1-0.1,0.2-0.1l-0.1-0.1
			L56.7,85.9z M22.9,77.7c0,0,0.1,0.1,0.1,0.1c0-0.1,0.1-0.2,0.1-0.2c0,0-0.1-0.1-0.1-0.1C23,77.6,23,77.6,22.9,77.7z M12.2,89.4
			c0.1,0,0.2,0.1,0.2,0.1c0,0,0.1-0.1,0.1-0.1l-0.2-0.1L12.2,89.4z M49.3,77.1c0,0,0.1-0.1,0.1-0.1c0-0.1-0.1-0.2-0.1-0.2l-0.1,0.1
			L49.3,77.1z M75,46.6c0,0-0.1-0.1-0.1-0.1c-0.1,0-0.2,0.1-0.2,0.1l0.1,0.1L75,46.6z M80.1,29.6c0.1,0,0.2,0.1,0.2,0.1
			c0,0,0.1-0.1,0.1-0.1l-0.2-0.1L80.1,29.6z M53.1,93.4c0,0-0.1,0.1-0.1,0.1c0,0.1,0.1,0.2,0.1,0.2l0.1-0.1L53.1,93.4z M44.1,73
			c0-0.1,0.1-0.2,0.1-0.2c0,0-0.1-0.1-0.1-0.1L44,72.9L44.1,73z M45.3,71.1c0,0,0.1,0.1,0.1,0.1c0.1,0,0.1-0.1,0.2-0.1L45.5,71
			L45.3,71.1z M28.3,53.6c0,0,0.1-0.1,0.1-0.1c-0.1,0-0.2-0.1-0.2-0.1c0,0-0.1,0.1-0.1,0.1C28.1,53.5,28.2,53.6,28.3,53.6z M68.9,65
			c0-0.1,0.1-0.2,0.1-0.2c0,0-0.1-0.1-0.1-0.1l-0.1,0.2L68.9,65z M37.5,57.4c0-0.1,0.1-0.1,0.1-0.2c0,0-0.1-0.1-0.1-0.1l-0.1,0.2
			L37.5,57.4z M3.7,101.7c0-0.1,0.1-0.2,0.1-0.2c0,0-0.1-0.1-0.1-0.1l-0.1,0.2L3.7,101.7z M13.5,123.6c0,0-0.1-0.1-0.1-0.1
			c-0.1,0-0.2,0.1-0.2,0.1l0.1,0.1L13.5,123.6z"/>
		<path class="st0" d="M19.6,60.2c-0.2,0-0.3,0-0.4-0.1c-0.3-0.3-0.6-0.6-0.9-0.8c-0.7-0.7-0.6-1,0.1-1.7c0.2-0.2,0.7,0,0.7-0.5
			c0-0.7,0.5,0.4,0.6-0.1c0-0.2,0.7-0.2,0.1-0.5c-0.3-0.2-0.5-0.3-0.8-0.6c0,0,0.1-0.4,0.2-0.4c1.1-0.7,1.2-0.7,1.2-1.1
			c0-0.4,0-0.7,0.4-0.9c0.2-0.1,0.4-0.4,0.6-0.4c0.3,0.1,0.6,0.4,0.9,0.6c0,0,0,0.2-0.1,0.3c-0.1,0.3-0.3,0.6-0.5,0.8
			c-0.1,0.2-0.4,0.3-0.6,0.4c0.3,0.2,0.2,0.3,0.1,0.6c-0.2,0.5-0.1,1.2-0.8,1.6c-0.8,0.4,0.1,1.3-0.5,1.8c-0.1,0.1-0.1,0.4-0.1,0.6
			C19.7,60,19.6,60.1,19.6,60.2L19.6,60.2z"/>
		<path class="st0" d="M47.7,2.7c0.2,0.2,0.4,0.3,0.5,0.5c0.3,0.2,0,0.3-0.1,0.5C47.7,4.4,47,5.1,47,6.1c0,0.2,0,0.4-0.1,0.4
			C46,6.9,46,7.5,46,8.3c0,0.2-1.2,1.2-1.4,1.1c-0.1,0-0.3-0.1-0.3-0.1c0-0.3-0.1-0.4-0.4-0.6c-0.4-0.2-0.4-0.8,0-1
			c0.5-0.2,0.8-0.4,0.7-0.9c0-0.4,0.2-0.4,0.5-0.5c0.4-0.2,0.5-0.6,0.6-1.1c0-0.3,0.8-0.4,1.2-0.7C47,4.4,47,4.2,47,4
			c0.1-0.3,0.2-0.6,0.3-0.9C47.4,3,47.5,2.9,47.7,2.7L47.7,2.7z"/>
		<path class="st0" d="M31.5,55.4c0-0.3,0-0.5,0-0.7c0-0.5,0.2-0.2,0.5-0.1c0.9,0.1,1.5,0.5,1.7,1.1c0,0.1,0.1,0.3,0.1,0.4
			c-0.5,0.9-0.6,1.2-0.6,1.9c0,0.2-0.1,0.5-0.3,0.7c-0.2,0.2-0.5,0.2-0.7,0.4c-0.8,0.7-1.2,0.7-1.6,0.1c-0.2-0.2-0.2-0.6,0.2-0.6
			c0.7,0.1,0.8-0.2,0.7-0.8c0-0.4,0.2-0.9,0.2-1.3C31.7,56,31.6,55.6,31.5,55.4L31.5,55.4z"/>
		<path class="st0" d="M58.9,63.6c-0.6,0.1-1.5-0.8-1.2-1.1c0.5-0.5,0.5-1.3,0.9-1.7c0.5-0.4,1-0.6,0.2-1.1c0,0,0-0.1,0-0.1
			c0.6-0.6,0.3-1.2,0-1.8c0-0.1,0.1-0.3,0.2-0.4c0.1,0,0.4,0.1,0.4,0.1c0,0.5,0.3,0.7,0.7,0.9c0.5,0.4,0.5,0.4,0.2,1.1
			c-0.1,0.1-0.1,0.3-0.1,0.5c0,0.5,0,0.9,0,1.4c0,0.2-0.2,0.4-0.3,0.5c-0.8,0.2-0.7,0.7-0.7,1.3C59.1,63.4,59,63.5,58.9,63.6
			L58.9,63.6z"/>
		<path class="st0" d="M73,57.5l0,0.1c-0.2-0.1-0.4-0.1-0.6-0.2c-0.4-0.3,0.1-0.4,0.2-0.6c0.3-0.4,0.8-0.7,0.7-1.3
			c-0.1-0.3,0.2-0.6,0.3-0.9c0.4-0.9,0.5-0.9,1.3-0.3c0.3,0.2,0.5,0.7,0.4,1c0,0.3,0,0.7,0,1c0,0.1-0.1,0.1-0.2,0.2
			c-0.2-0.2-0.4-0.4-0.6,0c-0.1,0.3-0.2,0.6-0.3,0.9c0,0-0.2,0.1-0.3,0C73.7,57.6,73.3,57.6,73,57.5L73,57.5z"/>
		<path class="st0" d="M56.1,67.5c-1.2,0-1.2,0-0.7-1.1c0.2-0.3,0.3-0.6,0-0.9c0,0,0-0.3,0.1-0.3c0.2,0,0.5-1,0.6,0
			c0,0,0.3,0.1,0.3,0c0.1-0.1,0.2-0.3,0.2-0.5c-0.1-0.5,0.1-0.9,0.5-1.1c0.3-0.1,0.7,0,0.9,0.3c0.3,0.5,0.2,0.8-0.2,1.2
			c-0.1,0.1-0.2,0.3-0.4,0.3c-0.9,0.2-0.8,0.9-0.6,1.5c0.1,0.2,0.3,0.3-0.1,0.4C56.5,67.5,56.3,67.5,56.1,67.5L56.1,67.5z"/>
		<path class="st0" d="M48.4,61.2c0-0.2-0.1-0.4,0-0.5c0.3-0.4,0.9-0.7,0.7-1.3c-0.3-0.8,0.8-0.5,0.7-1.1c0-0.6,0.2-1.2,0.3-1.7
			c0-0.1,0.1-0.2,0.2-0.2c0.1,0.1,0.2,0.2,0.2,0.3c-0.1,0.6,0.1,0.9,0.7,0.8c0,0,0.1,0,0.2,0c0.2,0,0.3,0.1,0.5,0.1
			c-0.1,0.1-0.2,0.3-0.3,0.4c-0.6,0.3-1.1,0.7-1,1.4c0,0.6-0.5,0.4-0.6,0.6c-0.2,0.3-0.2,0.7-0.4,1c-0.1,0.2-0.5,0.2-0.6,0.2
			C48.6,61.2,48.4,61.3,48.4,61.2z"/>
		<path class="st0" d="M76.5,22.5l0.5,0.1c-0.1,0.2-0.2,0.3-0.3,0.5c-0.1,0.1-0.2,0.2-0.1,0.5c0.1,0.4,0,1-0.3,1.2
			c-0.2,0.3-0.8,0.3-1.2,0.4c-0.1,0-0.3-0.1-0.4-0.2c0.2-0.3-0.5-1,0.4-1.2c0.2,0,0.4-0.5,0.5-0.8C75.7,22.6,76,22.4,76.5,22.5
			L76.5,22.5z"/>
		<path class="st0" d="M38.1,50.3c0.1-0.1,0.1-0.1,0.2-0.2c0.1,0,0.3-0.1,0.3,0c0.7,0.7,1.2,1.5,1.6,2.5c0,0.1-0.1,0.2-0.2,0.3
			c-0.1,0-0.2,0.1-0.3,0c-0.1,0-0.2-0.1-0.2-0.2c-0.1-0.2-0.2-0.3-0.3-0.5c-0.1,0.1-0.2,0.3-0.3,0.4c0,0,0,0.1,0,0.2
			c0,0.4-0.2,0.5-0.5,0.4c-0.2,0-0.4,0-0.4-0.1c-0.1-0.3-0.1-0.5,0.3-0.6c0.1,0,0.3-0.3,0.3-0.5C38.3,51.5,38.7,50.8,38.1,50.3
			L38.1,50.3z"/>
		<path class="st0" d="M35.3,51.9c0-0.9,0-0.8,1.1-0.8c0.2,0,0.4-0.2,0.5-0.3c0.2-0.2,0.3-0.5,0.5,0c0.1,0.2,0.3,0.5,0.3,0.5
			c-0.1,0.2-0.5,0.2-0.6,0.4c-0.3,0.5-1.1,0.4-1.2,1.2c0,0-0.2,0.1-0.3,0.1c-0.1-0.1-0.2-0.2-0.3-0.3C35.3,52.4,35.3,52.2,35.3,51.9
			L35.3,51.9z"/>
		<path class="st0" d="M35,49.8c-0.1-0.6,0-0.8,0.6-0.4c0.3,0.2,0.6-0.2,0.5-0.8c0-0.2-0.1-0.4,0-0.5c0.1-0.1,0.4-0.2,0.4-0.1
			c0.3,0.4,0.7,0.3,1.1,0.4c0.1,0,0.1,0.3,0.2,0.4c-0.1,0-0.2,0.1-0.3,0.1c-0.7-0.2-0.8,0-0.7,0.5c0.1,0.2,0.3,0.3,0.3,0.5
			c0,0.2-0.1,0.4-0.2,0.5c-0.1,0-0.4,0-0.4-0.1c-0.3-1.2-0.7-0.4-1.1-0.1c-0.2,0.2-0.4,0.2-0.4-0.1C35,50.1,35,50,35,49.8L35,49.8z"
			/>
		<path class="st0" d="M82.2,33c-0.1-0.6,0.2-0.8,0.7-0.9c0.4-0.1,0.8-0.3,1.2-0.4c0.1,0,0.3,0.1,0.5,0.3c0.1,0,0,0.3-0.1,0.3
			c-0.2,0.1-0.4,0.3-0.5,0.3c-0.8,0-1,0.4-1,1.1c0,0.1-0.1,0.2-0.1,0.3c-0.1-0.1-0.3-0.2-0.3-0.3C82.3,33.4,82.3,33.2,82.2,33
			L82.2,33z"/>
		<path class="st0" d="M33.6,45c0-0.1,0.1-0.2,0.1-0.3l0.6-0.7c0.1,0,0.2-0.1,0.3-0.1c0.5-0.4,0.4,0,0.4,0.3c0,0.8-0.9,1.3-0.7,2.1
			c-0.1,0-0.3,0-0.3,0c-0.2-0.3-0.3-0.6-0.3-0.7C33.6,45.2,33.6,45.1,33.6,45z"/>
		<path class="st0" d="M37.3,47.6c0.3-0.1,0.7-0.3,0.7-0.3c-0.3-0.7,0.6-0.7,0.7-1.2c0.1-0.6,0.8-0.4,0.9-0.3
			c0.2,0.4-0.3,0.1-0.4,0.3c-0.1,0.1-0.1,0.3-0.1,0.5c0,0.2,0.2,0.4,0.2,0.5c-0.4,0.4-0.8,0.7-1.3,1C37.9,48,37.6,47.8,37.3,47.6
			L37.3,47.6z"/>
		<path class="st0" d="M33.7,55c-0.1-0.1-0.2-0.1-0.1-0.2c0.1-0.5-0.9-0.9,0-1.4c0.3-0.2,0.3-0.5,0.3-0.9c0-0.1,0.1-0.2,0.1-0.3
			c0.1,0.1,0.2,0.1,0.2,0.2c0.1,0.2,0.2,0.4,0.3,0.6C34.8,53.8,34.4,54.8,33.7,55L33.7,55z"/>
		<path class="st0" d="M79.8,35.7c0-0.5,0.9-1.4,1.2-1.4c0.3,0,0.5,0,0.5,0.4c0,0.6-0.7,1.2-1.4,1.3C80,36,79.9,35.8,79.8,35.7
			L79.8,35.7z"/>
		<path class="st0" d="M57.2,60.9c-0.1-0.1-0.1-0.2-0.2-0.3c-0.3-0.4-0.2-0.8,0-1.2c0.1-0.2,0.2-0.5,0.2-0.5c0.4,0.1,0.7,0.2,1,0.4
			c0,0-0.1,0.4-0.2,0.6C57.8,60.2,57.5,60.6,57.2,60.9L57.2,60.9z"/>
		<path class="st0" d="M64.6,15.2c0,0.2-0.2,0.3-0.3,0.4c-0.1-0.1-0.2-0.3-0.3-0.5c-0.1-0.3-0.3-0.6-0.3-0.9c0-0.2,0-0.6,0.1-0.6
			c0.3,0,0.6-0.1,0.9,0.1c0.2,0.1,0.7,0.3,0,0.7C64.6,14.6,64.7,14.9,64.6,15.2z"/>
		<path class="st0" d="M29.2,48.7c-0.1,0.3-0.4,0.6-0.4,1c-0.1,0.4,0,0.6-0.5,0.3c-0.3-0.2-0.8-0.2-0.4-0.8c0.2-0.3,0.3-0.6,0.5-0.8
			c0.1-0.1,0.4-0.2,0.6-0.2C29,48.1,29.1,48.4,29.2,48.7L29.2,48.7z"/>
		<path class="st0" d="M73.9,30.8c-0.1,0-0.2,0-0.3,0c0-0.1,0-0.2,0.1-0.3c0.5-0.4,0.7-0.9,0.6-1.5c0-0.1,0.1-0.2,0.1-0.3
			c0.1-0.1,0.2-0.2,0.4-0.4c0.1,0.1,0.1,0.3,0.2,0.4c0.5,0.7-0.2,1.1-0.3,1.6C74.6,31,74.2,30.8,73.9,30.8L73.9,30.8z"/>
		<path class="st0" d="M86.8,25.4c0.4,0.1,1.1,1.5,0.9,1.8c0,0-0.2,0-0.3,0c-0.5-0.1-0.1-1-0.8-0.9c-0.7,0.1-0.6-0.4-0.5-0.8
			c0.1-0.8,0.5,0.4,0.6-0.1C86.7,25.5,86.8,25.4,86.8,25.4z"/>
		<path class="st0" d="M46.7,56c0-0.4,0.3-1,0.6-1c0.2,0,0.8,0.8,0.7,1.1c-0.1,0.2-0.4,0.3-0.4,0.3C46.8,56.4,46.7,56.4,46.7,56z"/>
		<path class="st0" d="M92.5,20.5c0,0,0.6,0.3,0.6,0.4c0,0.4-0.2,0.9-0.4,1.3c0,0-0.3,0-0.3,0c-0.2-0.3-0.3-0.6-0.5-0.9
			C92.1,21.1,92.3,20.7,92.5,20.5z"/>
		<path class="st0" d="M42.4,49.3c-0.1-0.3-0.1-0.5-0.2-0.6c-0.4-0.3-0.2-0.5,0-0.8c0.1-0.2,0-0.7,0.4-0.2c0.1,0.2,0.9-0.2,0.5,0.5
			c-0.1,0.2-0.1,0.5-0.2,0.8C42.8,49.1,42.6,49.1,42.4,49.3L42.4,49.3z"/>
		<path class="st0" d="M54.6,51.9c-0.1,0.1-0.2,0.5-0.3,0.8c0,0.1-0.1,0.2-0.2,0.2c-0.2-0.3-0.4-0.6-0.5-1c0-0.1,0.2-0.3,0.3-0.4
			C54.1,51.9,54.5,50.6,54.6,51.9L54.6,51.9z"/>
		<path class="st0" d="M49.5,1.1c0.1,0.2,0.3,0.4,0.3,0.5c0,0.2-0.2,0.5-0.3,0.7c-0.2,0.2-0.4,0.3-0.6,0.4l-0.3-0.9
			C48.5,1.9,49.5,1.1,49.5,1.1z"/>
		<path class="st0" d="M51.8,55.8c-0.1,0.1-0.2,0.2-0.3,0.2c-0.4-0.1-0.7-0.5-1.2-0.3c0,0-0.1-0.3-0.2-0.4c0-0.1,0.1-0.2,0.2-0.2
			c0.2,0,0.3,0,0.5,0C51.6,54.7,51.4,55.6,51.8,55.8z"/>
		<path class="st0" d="M86.3,38l0.2-0.6c0.1,0.2,0.2,0.5,0.3,0.6c0.2,0.3,0.4,0.6,0.7,0.1c0.1,0.1,0.2,0.1,0.2,0.2
			c0,0.1,0,0.3,0,0.3c-0.4,0.1-0.8,0.2-1.1,0.1C86.4,38.7,86.4,38.3,86.3,38L86.3,38z"/>
		<path class="st0" d="M102.4,22.5c0.2,0.3,0.5,0.5,0.5,0.7s-0.3,0.4-0.4,0.7c-0.2-0.2-0.5-0.5-0.5-0.8
			C101.9,23,102.2,22.7,102.4,22.5L102.4,22.5z"/>
		<path class="st0" d="M52.4,53c-0.1-0.1-0.3-0.2-0.4-0.2c0.2-0.2,0.3-0.3,0.5-0.4c0.1,0,0.4,0.1,0.4,0.2c0.1,0.3,0.2,0.7,0.3,1
			c0,0-0.1,0.1-0.3,0.3C52.8,53.5,52.6,53.2,52.4,53z"/>
		<path class="st0" d="M84,17c0.2,0,0.7-0.1,0.6,0.3c-0.1,0.3-0.4,0.5-0.6,0.7c-0.1,0-0.3-0.1-0.4-0.2C83.6,17.4,83.5,17,84,17z"/>
		<path class="st0" d="M21.7,56.4c0.2-0.3,0.4-0.6,0.6-1c0,0,0.1,0,0.1,0c0.2,0.4,0.2,0.7-0.1,1c0,0,0.1,0.2,0.1,0.3
			c0,0.1-0.1,0.2-0.2,0.3c-0.1,0-0.2,0-0.3-0.1C21.9,56.9,21.9,56.7,21.7,56.4L21.7,56.4z"/>
		<path class="st0" d="M23.6,45.9c0-0.3-0.1-0.4,0-0.5c0.1-0.1,0.3-0.2,0.4-0.4c0.1,0.2,0.2,0.3,0.2,0.5c0,0.2-0.5,0.3-0.1,0.6
			c0,0-0.1,0.2-0.2,0.3c-0.1,0-0.3,0-0.3-0.1C23.6,46.1,23.6,45.9,23.6,45.9L23.6,45.9z"/>
		<path class="st0" d="M41,3.5c0.1,0,0.2,0.3,0.2,0.4c-0.1,0.5-0.5,0.2-0.8,0.2c0,0-0.1-0.2-0.3-0.5C40.4,3.6,40.7,3.5,41,3.5z"/>
		<path class="st0" d="M77,14.3L76.7,13c0.1,0,0.2-0.1,0.3,0c0.4,0.2,0.4,0.6,0.3,1C77.4,14.1,77.3,14.2,77,14.3L77,14.3z"/>
		<path class="st0" d="M65,0c0.2,0.2,0.5,0.5,0.7,0.8c0,0,0,0.2-0.1,0.3c-0.1,0.1-0.3,0.1-0.3,0.1c-0.2-0.3-0.4-0.6-0.6-0.9L65,0
			L65,0z"/>
		<path class="st0" d="M89.1,35.4c0-0.2,0.2-0.4,0.3-0.4c0.5,0,0.3,0.3,0.3,0.6c0,0.2-0.1,0.3-0.4,0.9
			C89.2,35.8,89.1,35.6,89.1,35.4z"/>
		<path class="st0" d="M88.3,25.6c-0.2-0.2-0.3-0.3-0.5-0.5c-0.1-0.1-0.2-0.3-0.2-0.5c0.2,0,0.4,0.1,0.6,0.1c0.2,0,0.3,0.1,0.4,0.2
			c0.1,0,0.1,0.2,0.1,0.3S88.5,25.5,88.3,25.6L88.3,25.6z"/>
		<path class="st0" d="M93.6,33.9c0,0.1-0.1,0.3-0.2,0.4l-0.8-0.6l0.7-0.7C93.5,33.4,93.6,33.6,93.6,33.9z"/>
		<path class="st0" d="M53.5,57l0.2-0.5c0.2,0.2,0.4,0.4,0.6,0.7c0,0-0.2,0.2-0.3,0.3L53.5,57L53.5,57z"/>
		<path class="st0" d="M33.8,50.9c0.3,0.2,0.5,0.4,0.8,0.7c0,0,0,0.1,0,0.2c-0.1,0-0.2,0.1-0.2,0.1c-0.3-0.2-0.6-0.5-0.8-0.8
			C33.7,51,33.8,50.9,33.8,50.9z"/>
		<path class="st0" d="M78.1,20.6c-0.1,0.1-0.3,0.2-0.4,0.2c-0.4-0.1-0.2-0.4-0.2-0.7c0-0.1,0.1-0.2,0.2-0.5
			C77.6,19.6,78.1,20.6,78.1,20.6z"/>
		<path class="st0" d="M72.2,11.2c-0.1,0.1-0.3,0.3-0.3,0.2c-0.2-0.1-0.4-0.3-0.7-0.4l0.5-0.4L72.2,11.2z"/>
		<path class="st0" d="M49.5,0.8c0-0.3-0.2-0.7,0.4-0.7c0.1,0,0.3,0.2,0.3,0.3c-0.1,0.3-0.3,0.5-0.6,1C49.5,1,49.5,0.9,49.5,0.8z"/>
		<path class="st0" d="M31.3,50.9c-0.2-0.2-0.5-0.3-0.4-0.5c0.1-0.2,0.3-0.4,0.4-0.6l0.2,0.5L31.3,50.9z"/>
		<path class="st0" d="M64.6,3.4c-0.1,0.1-0.3,0.2-0.4,0.2c-0.2,0-0.4-0.1-0.6-0.2c0.2-0.2,0.3-0.4,0.5-0.4
			C64.3,2.9,64.4,3.2,64.6,3.4L64.6,3.4z"/>
		<path class="st0" d="M40,5.3c0.2-0.2,0.4-0.3,0.5-0.4c0.1,0,0.2,0.2,0.3,0.2c-0.1,0.1-0.2,0.3-0.4,0.4C40.4,5.6,40.2,5.5,40,5.3
			L40,5.3z"/>
		<path class="st0" d="M75,26.8l0.5-0.4c0.1,0.1,0.2,0.3,0.2,0.4c0,0.2-0.1,0.3-0.2,0.5L75,26.8L75,26.8z"/>
		<path class="st0" d="M50.1,51.4c-0.2-0.3-0.3-0.4-0.3-0.5c0.1-0.2,0.3-0.2,0.4-0.4c0.1,0.1,0.3,0.2,0.2,0.3
			C50.4,51,50.3,51.1,50.1,51.4L50.1,51.4z"/>
		<path class="st0" d="M76.4,21.7c0,0,0.1-0.2,0.1-0.2c0.3,0,0.5,0.1,0.8,0.1c0.1,0,0.1,0.2,0.1,0.3c0,0.1-0.2,0.3-0.2,0.3
			C77,22,76.7,21.9,76.4,21.7L76.4,21.7z"/>
		<path class="st0" d="M54.9,57.2c0.2,0.2,0.3,0.4,0.4,0.5c0,0.1-0.2,0.2-0.2,0.3c-0.1-0.1-0.3-0.2-0.4-0.4
			C54.6,57.7,54.8,57.5,54.9,57.2L54.9,57.2z"/>
		<path class="st0" d="M95.6,18.9c0.2,0.2,0.3,0.4,0.4,0.5c0,0.1-0.2,0.2-0.2,0.3c-0.1-0.1-0.3-0.2-0.4-0.4
			C95.3,19.3,95.5,19.2,95.6,18.9L95.6,18.9z"/>
		<path class="st0" d="M64.9,14.4c0.2-0.2,0.3-0.3,0.4-0.4c0.1,0,0.2,0.1,0.3,0.1c-0.1,0.1-0.2,0.3-0.3,0.4
			C65.3,14.6,65.1,14.5,64.9,14.4L64.9,14.4z"/>
		<path class="st0" d="M52.6,13.6c0.1-0.1,0.3-0.2,0.4-0.4c0.1,0.1,0.2,0.2,0.2,0.3c-0.1,0.2-0.2,0.4-0.3,0.7
			C52.6,13.7,52.5,13.6,52.6,13.6z"/>
		<path class="st0" d="M103.1,21.5c-0.1-0.2-0.2-0.3-0.2-0.5c0-0.1,0.1-0.2,0.2-0.3l0.5,0.6L103.1,21.5L103.1,21.5z"/>
		<path class="st0" d="M100.5,23.7l0.5-0.5c0.1,0.1,0.2,0.4,0.2,0.4c-0.1,0.1-0.3,0.2-0.5,0.3C100.7,23.9,100.6,23.8,100.5,23.7
			L100.5,23.7z"/>
		<path class="st0" d="M89.1,23.5l0.4,0.2l-0.6,0.5c0-0.1-0.1-0.2-0.1-0.3C88.9,23.8,89,23.6,89.1,23.5L89.1,23.5z"/>
		<path class="st0" d="M62.6,4.2c0,0.1-0.1,0.3-0.2,0.3c-0.2,0-0.3-0.1-0.5-0.2l0.5-0.5C62.5,4,62.6,4.1,62.6,4.2z"/>
		<path class="st0" d="M82.7,29.5l0.6,0.5c-0.1,0.1-0.2,0.2-0.3,0.2c-0.2,0-0.3-0.1-0.5-0.2L82.7,29.5z"/>
		<path class="st0" d="M68.1,8.9C67.9,8.9,67.8,9,67.7,9c-0.1,0-0.2-0.1-0.3-0.2l0.4-0.2L68.1,8.9z"/>
		<path class="st0" d="M40.9,49.2c0.1,0.1,0.3,0.1,0.3,0.2c0,0.2-0.1,0.3-0.1,0.5c-0.1,0-0.2-0.1-0.2-0.1
			C40.8,49.5,40.9,49.3,40.9,49.2L40.9,49.2z"/>
		<path class="st0" d="M70.7,13.4c-0.2-0.2-0.2-0.2-0.2-0.3c0-0.1,0.1-0.3,0.1-0.4c0.1,0,0.2,0,0.2,0.1C70.8,12.8,70.8,13,70.7,13.4
			L70.7,13.4z"/>
		<path class="st0" d="M70,56.8c0.1,0.1,0.2,0.1,0.2,0.2c0,0.2-0.1,0.3-0.2,0.5l-0.2-0.3C69.8,57.1,70,56.8,70,56.8z"/>
		<path class="st0" d="M75,58.1c-0.3-0.1-0.7,0.2-0.7-0.3C74.6,57.8,75,57.6,75,58.1z"/>
		<path class="st0" d="M49.4,52.8c-0.1,0-0.2,0.1-0.3,0.1c-0.1,0-0.2-0.1-0.3-0.2l0.5-0.2C49.3,52.5,49.4,52.8,49.4,52.8z"/>
		<path class="st0" d="M91,36c0.1,0.1,0.2,0.2,0.2,0.3c0,0.2-0.1,0.3-0.2,0.4l-0.2-0.3L91,36z"/>
		<path class="st0" d="M32.4,34.3c-0.1-0.1-0.2-0.2-0.2-0.3c0-0.2,0.1-0.3,0.2-0.4l0.2,0.3L32.4,34.3z"/>
		<path class="st0" d="M90.2,34.2c0.1-0.1,0.2-0.2,0.3-0.2c0.1,0,0.2,0.1,0.3,0.1l-0.1,0.3L90.2,34.2z"/>
		<path class="st0" d="M89.6,21.9c0.1,0.1,0.3,0.1,0.3,0.2c0,0.2-0.1,0.3-0.1,0.5c-0.1,0-0.2-0.1-0.2-0.1
			C89.5,22.2,89.5,22,89.6,21.9L89.6,21.9z"/>
		<path class="st0" d="M56.2,56.8c0,0.1,0.1,0.2,0.1,0.3c0,0.1-0.1,0.2-0.2,0.3l-0.2-0.5C55.9,56.9,56.2,56.8,56.2,56.8z"/>
		<path class="st0" d="M73.3,31l0.2-0.2l0.2,0.1C73.5,31,73.5,31.1,73.3,31C73.4,31.1,73.3,31,73.3,31L73.3,31z"/>
		<path class="st0" d="M11.8,75.1c0.1,0,0.2,0,0.3,0.1c0,0,0,0.1-0.1,0.2l-0.2-0.2C11.8,75.2,11.8,75.1,11.8,75.1z"/>
		<path class="st0" d="M30.3,47.8c0,0,0.1,0.1,0.1,0.1c0,0.1-0.1,0.1-0.1,0.2L30.2,48L30.3,47.8z"/>
		<path class="st0" d="M26.3,49.1c0-0.1,0-0.2,0.1-0.3c0,0,0.1,0,0.2,0.1l-0.2,0.2C26.5,49.1,26.3,49.1,26.3,49.1z"/>
		<path class="st0" d="M26,49.4l0.2-0.2l0.2,0.2c-0.1,0.1-0.1,0.1-0.2,0.2C26.1,49.5,26,49.3,26,49.4L26,49.4z"/>
		<path class="st0" d="M90,26.3c0,0,0.1,0.1,0.1,0.1c0,0.1-0.1,0.1-0.1,0.2l-0.1-0.1L90,26.3z"/>
		<path class="st0" d="M51.1,49.6c0,0.1-0.1,0.1-0.1,0.2c0,0-0.1-0.1-0.1-0.1c0-0.1,0.1-0.1,0.1-0.2C51,49.5,51.1,49.6,51.1,49.6z"
			/>
		<path class="st0" d="M37.9,49.9l0.2,0.2l-0.2,0.2c-0.1-0.1-0.1-0.1-0.2-0.2C37.8,50,37.9,49.9,37.9,49.9L37.9,49.9z"/>
		<path class="st0" d="M27.5,50.5c0,0.1,0.1,0.1,0.1,0.2c0,0-0.1,0.1-0.1,0.1l-0.1-0.2L27.5,50.5z"/>
		<path class="st0" d="M45,51.6c0-0.1,0-0.2,0.1-0.3c0,0,0.1,0,0.2,0.1l-0.2,0.2C45.1,51.6,45,51.6,45,51.6z"/>
		<path class="st0" d="M87.6,22.9c0,0,0.1,0.1,0.1,0.1c0,0.1-0.1,0.1-0.1,0.2l-0.1-0.1L87.6,22.9z"/>
		<path class="st0" d="M53.7,53.4c0.1,0,0.1,0.1,0.2,0.1c0,0-0.1,0.1-0.1,0.1c-0.1,0-0.1-0.1-0.2-0.1C53.6,53.4,53.7,53.4,53.7,53.4
			z"/>
		<path class="st0" d="M49.8,21.5c0.1,0,0.2,0.1,0.3,0.1c0,0,0,0.1-0.1,0.2l-0.2-0.2C49.8,21.7,49.8,21.5,49.8,21.5z"/>
		<path class="st0" d="M49.8,21.5l-0.3-0.4L49.8,21.5z"/>
		<path class="st0" d="M71.2,55c0-0.1,0-0.2,0.1-0.3c0,0,0.1,0,0.2,0.1L71.3,55C71.3,55,71.2,55,71.2,55z"/>
		<path class="st0" d="M70.9,55.2L71,55l0.2,0.2c-0.1,0.1-0.1,0.1-0.2,0.2C71,55.3,70.9,55.2,70.9,55.2L70.9,55.2z"/>
		<path class="st0" d="M43.1,20.1C43,20,43,20,43,19.9c0,0,0.1-0.1,0.1-0.1l0.1,0.2L43.1,20.1z"/>
		<path class="st0" d="M70.2,56.7c0-0.1,0-0.2,0.1-0.3c0,0,0.1,0,0.2,0.1l-0.2,0.2C70.3,56.7,70.2,56.7,70.2,56.7z"/>
		<path class="st0" d="M76.2,15l0.2,0.2l-0.2,0.1C76.2,15.2,76.1,15.2,76.2,15C76.1,15.1,76.2,15,76.2,15L76.2,15z"/>
		<path class="st0" d="M52.7,56.7c0-0.1-0.1-0.1-0.1-0.2c0,0,0.1-0.1,0.1-0.1l0.1,0.2L52.7,56.7z"/>
		<path class="st0" d="M65.8,12.9c0-0.1-0.1-0.1-0.1-0.2c0,0,0.1-0.1,0.1-0.1l0.1,0.2C66,12.7,65.8,12.9,65.8,12.9z"/>
		<path class="st0" d="M67.7,58c0,0,0.1-0.1,0.1-0.1c0.1,0,0.1,0.1,0.2,0.1L68,58.1L67.7,58z"/>
		<path class="st0" d="M53.4,58.5c0,0,0.1,0.1,0.1,0.1c0,0.1-0.1,0.1-0.1,0.2l-0.1-0.1L53.4,58.5z"/>
		<path class="st0" d="M54.4,59.2l0.2,0.2l-0.2,0.2c-0.1-0.1-0.1-0.1-0.2-0.2C54.3,59.3,54.4,59.2,54.4,59.2L54.4,59.2z"/>
		<path class="st0" d="M62,5.6c0,0.1,0.1,0.2,0.1,0.2c0,0-0.1,0.1-0.1,0.1l-0.1-0.2C61.9,5.7,62,5.6,62,5.6z"/>
		<path class="st0" d="M62.6,4.6c0.1,0,0.2,0,0.3,0.1c0,0,0,0.1-0.1,0.2l-0.2-0.2C62.6,4.7,62.6,4.6,62.6,4.6z"/>
		<path class="st0" d="M0.2,115.2c0.1,0,0.2,0.1,0.2,0.1c0,0-0.1,0.1-0.1,0.1c-0.1,0-0.2-0.1-0.2-0.1C0.1,115.3,0.2,115.2,0.2,115.2
			z"/>
		<path class="st0" d="M54.6,59.5c0.1,0,0.2,0,0.3,0.1c0,0,0,0.1-0.1,0.2l-0.2-0.2C54.6,59.7,54.6,59.5,54.6,59.5z"/>
		<path class="st0" d="M41.8,87.6c0.3,0.3,0.5,0.3,0.4-0.2c0-0.3-0.2-0.6-0.3-0.9c0-0.1,0-0.2,0.1-0.3c0,0,0.2,0,0.2,0
			c0.4,0.4,1,0.8,0.7,1.4c-0.2,0.4,0,0.8-0.3,1.2c-0.3,0.5,0.3,0.9,0.6,1.2c0,0,0,0.1,0,0.2c0,0.2,0.2,0.6-0.3,0.7
			c-0.1,0-0.3-0.2-0.4-0.3c-0.1-0.1-0.2-0.3-0.3-0.4c-0.3-0.6-0.7,0.5-1.1,0c-0.1-0.1-0.2-0.1-0.2-0.2c-0.1,0.1-0.1,0.2-0.2,0.3
			c0,0.2,0,0.5-0.1,0.6c-0.3,0.4-0.8,0.6-0.6,1.1c0.2,0.3,0.6,0.5,0.9,0.8c0.1,0.1,0.2,0.2,0.2,0.2c0.1,0.1,0.2,0.2,0.2,0.3
			c0,0.1-0.1,0.3-0.3,0.3c-0.1,0.1-0.3,0-0.5,0c-0.3-0.1-0.6-0.2-0.8-0.2c0,0.3-0.1,0.7-0.1,1c0,0.3,0,0.7,0,1
			c0,0.1-0.1,0.2-0.2,0.3c-0.1-0.1-0.1-0.3-0.2-0.4c-0.1-0.1-0.5-0.3-0.5-0.2c-0.3,0.5-0.5,0.1-0.8,0c-0.6-0.2-0.8,0-0.8,0.7
			c0,0.5-0.2,1,0.6,1.2c0.1,0,0.1,0.7,0.1,1.1c0,0.2-0.4,0.4-0.6,0.5c-0.4,0.1-0.3-0.3-0.4-0.6c0-0.5-0.3-0.6-0.7-0.3
			c-0.3,0.2-0.6,0.3-0.8,0.5c-0.1,0.1-0.2,0.3-0.1,0.3c0.3,0.4-0.2,0.7-0.2,1.2c0.1,0.4-0.3,0.3-0.6,0.2c-0.1-0.1-0.3-0.1-0.3-0.1
			c-0.4,0.5-1.1,0.8-1.1,1.6c0,0.6-0.6,0.3-0.9,0.2c-0.1,0-0.2-0.1-0.4-0.1c0,0.2,0,0.3,0,0.5c0,0,0.1,0.1,0.1,0.1
			c0.6,0.4,0.5,0.7-0.2,0.9c-0.1,0-0.3,0.2-0.3,0.4c0,0.4-0.2,0.6-0.5,0.5c-0.2-0.1-0.6-0.7-0.5-0.7c0.6-0.8,0.2-2.1,1.6-2.5
			c0.2-0.1,0.4-0.5,0.4-0.8c0.1-0.8,0.7-1.1,1.3-1.5c0.2-0.1,0.4-0.2,0.4-0.3c0.1-1.2,1-1.6,1.9-2.1c0.3-0.2,0.8-0.4,0.4-1.1
			c-0.2-0.4,0.4-0.8,1-0.7c0.5,0.1,0.7-0.1,0.2-0.5c0.4-0.2,0-0.6,0.1-0.9c0.2-0.4,0.3-0.8,0.5-1.2l0.2-0.6c0.1,0.2,0.1,0.4,0.2,0.6
			c0.1,0.1,0.1,0.3,0.2,0.4c0.2-0.3,0.7-0.7,0.7-1c-0.1-0.9-0.1-1.3,0.2-1.9c0.1-0.2,0.3-0.4,0.3-0.6C40.4,87.7,41,87.4,41.8,87.6
			L41.8,87.6z M38.6,94.9c0.5-0.2,0.7-0.2,0.9-0.3c0.1-0.1-0.1-0.3-0.1-0.4c-0.1,0.1-0.2,0.1-0.3,0.2C38.9,94.4,38.9,94.5,38.6,94.9
			L38.6,94.9z M41,88.9c0-0.1,0.1-0.2,0.1-0.2c0,0-0.1-0.1-0.1-0.1l-0.1,0.2L41,88.9z"/>
		<path class="st0" d="M39.3,83.8c3-3.9,2.9-3.8,2.9-3.8c0,0.1,0.1,0.1,0.2,0.2l0.2-0.2C42.5,80,42.4,80,39.3,83.8
			c-2.8,3.4-2.7,2.8-2.5,2.3c0.8,0.1,0.5-0.7,0.8-1c0.3-0.3,0.8-0.6,1-1.1c0.2-0.6,0.6-1,1.1-1.3c0.1-0.1,0.3-0.3,0.3-0.4
			c0.1-0.5,0.2-1.1,0.4-1.6c0-0.1,0.1-0.4,0.2-0.4c0.9-0.2,0.9-1.1,1.2-1.7c0.2-0.3,0-1.1,0.8-1.1c0.5-0.9,1.1,0,1.6,0.1
			c0.7,0.1,0.8,0.6,0.3,1.2c-0.3,0.3-0.5,0.7-0.7,1.1c-0.2,0.2-0.4,0.6-0.8,0.5c-1-0.1-0.3,0.3-0.2,0.5c0,0.1-0.1,0.4-0.1,0.4
			c-0.8,0-0.5,0.6-0.6,1c0,0.2-0.2,0.5-0.3,0.4c-0.9-0.2-1,0.7-1,1c0,0.6-0.3,0.7-0.7,0.9c-0.8,0.4-1.5,1.2-1.8,2.2
			c-0.1,0.4-0.3,0.6-0.7,0.8c-0.4,0.2-0.6,0.5-0.5,1.1c0.1,0.2-0.1,0.6-0.2,0.8c0,0-0.3,0-0.3,0C36.6,88.8,36.4,88.3,39.3,83.8
			L39.3,83.8z"/>
		<path class="st0" d="M49.4,86.5c0.1,0,0.3-0.1,0.3,0c0.2,0.2,0.6,0.4,0.7,0.6c0.1,0.4-0.3,0.3-0.5,0.4c-0.5,0.3-0.6,0.7-0.4,1.3
			c0.3,0.6,0.2,0.6-0.5,0.5l-0.2,0c0.1,0.7-0.6,0.5-0.8,0.8c-0.1,0.2-0.2,0.5-0.3,0.8c-0.1,0.3,0.6,0.6,0,0.9
			c-0.5,0.2-0.5-0.4-0.8-0.5c-0.1-0.1-0.2-0.2-0.3-0.3l-0.2-1.3c0.8,0,0.6-1.1,1.4-1.2c0.2,0,0.5-0.5,0.6-0.8
			C48.7,86.7,48.9,86.4,49.4,86.5L49.4,86.5z"/>
		<path class="st0" d="M48.1,82.5c0.6-0.2,0.8-0.8,1-1.3c0.1-0.3,0.3-0.6,0.4-0.9c0.2-0.4,0.8-0.7,0.3-1.3c-0.1-0.1,0.2-0.5,0.3-0.7
			c0.2-0.2,0.5,0.2,0.9-0.1c0.3-0.2,0.7-0.3,0.8-0.7l0.3,0.1c-0.2,0.4,0.7,0.6,0.1,1.1c-0.3,0.2-0.6,0.6-0.7,0.9
			c-0.2,0.4-0.9,0.2-0.8,0.9c0,0.1-0.6,0.3-0.6,0.4c0.2,1.1-1.2,1.4-1.2,2.4c0,0.1-0.5,0.3-0.8,0.4c-0.1,0-0.3-0.1-0.6-0.3
			C47.8,83,47.9,82.6,48.1,82.5z"/>
		<path class="st0" d="M47.4,78.8c0.4,0.5,0.4,1,0,1.4c-0.4,0.4,0.2,1-0.4,1.3c-0.1,0.1-0.4,0.2-0.4,0.1c-0.3-0.4-0.5-0.3-0.7,0
			c-0.3,0.4-0.5,0.9-0.8,1.2c-0.4,0.4-0.3,0.8-0.3,1.2c-0.2-0.1-0.4-0.3-0.5-0.3c-0.5-0.1-0.5,0-0.4-0.3c0.1-0.3,0.4-0.5,0.5-0.8
			c0-0.3-0.2-0.6,0.2-0.9c0.2-0.2,0.3-0.6,0.5-0.8c0.3-0.2,0.7-0.3,1-0.3c0.8-0.1,0.1-0.4,0.1-0.6c-0.2-1,0-1.2,1-1.5L47.4,78.8
			L47.4,78.8z"/>
		<path class="st0" d="M33.2,93c-0.6,0.2-0.4,1.2-0.9,1.3c-0.7,0.2-0.9,0.8-1.4,1.2c-0.1,0.1-0.2,0.1-0.4,0.1c0,0-0.2-0.9-0.2-0.9
			c0.4-0.3,0.7-0.8,1.2-1c0.5-0.2,0.5-0.4,0.2-0.7c-0.5-0.5-0.2-0.9,0.3-1.3c0.2-0.1,0.4-0.2,0.6-0.2c-0.1-0.2-0.3-0.2-0.1-0.6
			c0.2-0.5,0.1-0.6,0.7-0.6c0.1,0,0.1,0,0.2,0c0,0.3,0.6,0.5,0,0.9c-0.5,0.3-0.5,0.8-0.1,1.3C33.2,92.6,33.2,92.8,33.2,93L33.2,93z"
			/>
		<path class="st0" d="M44.1,84.7c0.3-0.1,0.5,0.1,0.5,0.5c0.1,0.6-0.4,1.5,0.7,1.8c0,0,0.2,0.7-0.2,0.8c-0.4,0.1-0.4,0.2-0.5,0.5
			c0,0.3-0.3,0.6-0.5,0.8c-0.1,0.1-0.3,0-0.4-0.1c-0.1-0.1-0.1-0.4,0-0.4c1.1-0.3,0.6-0.9,0.3-1.5c-0.3-0.6-0.4-1.3-0.7-2.1
			C43.5,85,43.8,84.8,44.1,84.7z"/>
		<path class="st0" d="M35.9,91c0.3,0.8-0.5,1-0.8,1.3c-0.1,0.1-0.4,0.2-0.4,0.3c-0.3,0.6-0.7,0.9-1.3,0.6c0,0,0-0.2,0.1-0.3
			c0.5-0.3,0.6-0.8,0.5-1.3c-0.1-0.7,0.4-1,0.8-1.3c0.2-0.1,0.6,0,0.9,0.1C35.8,90.5,35.8,90.8,35.9,91L35.9,91z"/>
		<path class="st0" d="M25.5,96.5c0.2-0.1,0.3-0.3,0.3-0.3c0.2,0.2,0.4,0.4,0.5-0.1c0-0.4,0.2-0.7,0.3-1.1c0.2-0.4,0.5-0.4,0.7-0.1
			c0.2,0.2,0.3,0.5,0.3,0.7c-0.1,0.5-0.3,1-0.4,1.6c0,0.2-0.8,0.5-1.2,0.5c-0.3,0-0.1-0.4,0.1-0.7c0.2-0.4-0.2-0.2-0.3-0.3
			C25.8,96.8,25.7,96.6,25.5,96.5L25.5,96.5z"/>
		<path class="st0" d="M41.8,97.5c-0.1,0-0.2,0-0.3,0c-0.1,0-0.3-0.1-0.3-0.1c0-0.2,0-0.3,0.1-0.5c0.1-0.1,0.2-0.3,0.3-0.3
			c0.7-0.1,1-0.4,0.6-1.2c0-0.1,0.2-0.4,0.4-0.5c0.3-0.2,0.7-0.3,1,0.1c0.4,0.7,0.3,0.7-0.2,1.2c-0.3,0.2-1,0.1-0.9,0.8
			C42.7,97.6,42.2,97.5,41.8,97.5L41.8,97.5z"/>
		<path class="st0" d="M37.7,81c0-0.2,0-0.6,0.1-0.7c0.9-0.2,0.6-1.1,1-1.6c0.1-0.1,0.1-0.2,0.2-0.2c0.2,0,0.4,0,0.5,0.2
			c0.1,0.2,0.1,0.4,0.2,0.6c0.4,0.5-0.2,0.7-0.4,0.9c-0.4-0.4-0.6-0.3-0.6,0.2c0,0.4-0.2,0.7-0.3,1c0,0.1-0.2,0.1-0.3,0.1
			s-0.2,0-0.3-0.1C37.7,81.4,37.7,81.2,37.7,81L37.7,81z"/>
		<path class="st0" d="M44.3,92.5c0.2-0.1,0.7-0.2,0.7-0.5c0.2-0.8,0.8-0.7,1.4-0.7c0.1,0,0.1,0.1,0.2,0.2c0,0.1,0,0.3,0,0.3
			c-0.6,0.3-1.2,0.5-0.7,1.3c0,0-0.2,0.2-0.3,0.2c-0.2,0.1-0.6,0.2-0.6,0.2C44.8,93.2,44.6,92.8,44.3,92.5L44.3,92.5z"/>
		<path class="st0" d="M39.7,98.8c0.2,0.3,0.5,0.6,0.7,0.9c0,0,0,0.2-0.1,0.2c-0.3,0.2-0.5,0.3-0.8,0.5c-0.1,0.1-0.3,0.1-0.3,0.1
			c-0.3-0.2-0.5-0.5-0.3-0.8C38.9,99.3,39.3,99.2,39.7,98.8L39.7,98.8z"/>
		<path class="st0" d="M40.1,77.1c0.3,0.1,0.7-0.2,0.7,0.4c0,0.7-0.3,0.9-1,1c-0.1,0-0.2,0-0.3,0c0.1-0.3,0.3-0.5,0.1-0.9
			C39.2,77.1,39.8,77.1,40.1,77.1L40.1,77.1z"/>
		<path class="st0" d="M52.9,81.2l0.4,0.2c-0.8,0.6,0,1.2,0,1.7c0,0.2,0,0.3,0,0.5c-0.1-0.1-0.3-0.1-0.4-0.2
			c-0.3-0.3-0.6-0.5-0.8-0.8c0,0,0.1-0.3,0.1-0.3c0.6,0,0.4-0.4,0.5-0.7C52.6,81.5,52.8,81.4,52.9,81.2L52.9,81.2z"/>
		<path class="st0" d="M23.2,96.7c0.1,0,0.2-0.1,0.3-0.1c0.5,0.1,1-0.1,1.4,0.4c0.1,0.1-0.2,0.5-0.3,0.7c-0.1,0.1-0.4-0.1-0.6-0.1
			C23.4,97.7,23.3,97.6,23.2,96.7L23.2,96.7z"/>
		<path class="st0" d="M25,100.5c-0.2-0.2-0.3-0.3-0.4-0.5c-0.2-0.4,0.6-0.8,0-1.3c0.1-0.1,0.2-0.2,0.2-0.2c0.5,0,0.9,0.4,0.8,0.9
			C25.6,99.8,25.3,100.1,25,100.5L25,100.5z"/>
		<path class="st0" d="M37.3,83.1c0.2,1.4-0.3,0.7-0.6,0.7c-0.2,0-0.4,0-0.5,0c-0.1,0-0.2-0.2-0.2-0.3c0-0.2,1-0.8,1.1-0.7
			C37.3,82.9,37.3,83.1,37.3,83.1L37.3,83.1z"/>
		<path class="st0" d="M31.2,97.7c0.1,0.4-0.6,1.4-1,1.5c-0.3,0.1-0.4-0.1-0.2-0.3c0.3-0.3-0.5-0.5,0-0.7c0.3-0.2,0.6-0.4,1-0.6
			C31,97.6,31.1,97.7,31.2,97.7z"/>
		<path class="st0" d="M28.8,101c0.1-0.5,0.4-0.8,0.9-0.7c0.2,0,0.3,0.2,0.4,0.3c-0.3,0.2-0.5,0.5-0.8,0.7c-0.1,0.1-0.3,0-0.5-0.1
			C28.8,101.2,28.8,101.1,28.8,101L28.8,101z"/>
		<path class="st0" d="M20.2,98.4c-0.1-0.2,0.7-0.9,0.8-0.8c0.2,0.2,0.5,0.4,0.4,0.6c-0.1,0.3-0.3,0.6-0.6,1
			C20.5,98.8,20.3,98.6,20.2,98.4z"/>
		<path class="st0" d="M27.5,85.8c-0.4-0.1-0.9,0.1-0.8-0.4c0-0.2,0.3-0.5,0.5-0.6c0.1-0.1,0.9,0.7,0.8,0.8
			C27.9,85.6,27.6,85.7,27.5,85.8L27.5,85.8z"/>
		<path class="st0" d="M21,89.6c0.1,0.1,0.2,0.2,0.2,0.2c0.2,0.3,0.1,1.3-0.3,1.4c-0.1,0.1-0.2,0-0.3,0c-0.1,0-0.1-0.2-0.1-0.2
			c0.5-0.3,0.2-0.8,0.3-1.3C20.8,89.7,20.9,89.7,21,89.6L21,89.6z"/>
		<path class="st0" d="M23.4,99.3c-0.5-0.2-0.9-0.4-0.8-0.9c0-0.2,0.2-0.3,0.2-0.5c0.1,0.1,0.3,0.2,0.4,0.3c0.1,0.2,0.2,0.5,0.2,0.7
			C23.5,99.1,23.4,99.2,23.4,99.3L23.4,99.3z"/>
		<path class="st0" d="M50.1,85.6c0.1-0.1,0.2-0.1,0.2-0.2c0.1-0.2,0.1-0.5,0.2-0.8c0-0.1,0.1-0.2,0.2-0.3c0.1,0.1,0.2,0.1,0.2,0.2
			c0.4,0.5,0.3,1-0.4,1.2C50.4,85.8,50.3,85.7,50.1,85.6L50.1,85.6z"/>
		<path class="st0" d="M7.4,101H7c0-0.4-0.2-0.9,0.4-1.2c0.1-0.1,0.3,0.1,0.5,0.1c0.2,0.2,0.2,0.3-0.1,0.4c-0.6,0.1-0.3,0.3-0.1,0.5
			C7.6,100.8,7.5,100.9,7.4,101L7.4,101z"/>
		<path class="st0" d="M36.2,98.9c0,0,0.1,0.1,0.1,0.1c0,0.5,0,1,0,1.5c-0.1,0-0.3,0-0.3-0.1c-0.1-0.1-0.3-0.3-0.3-0.4
			c0.1-0.3,0.3-0.7,0.4-1C36.1,99,36.2,98.9,36.2,98.9L36.2,98.9z"/>
		<path class="st0" d="M34.6,101.4c0.1-0.2,0.2-0.3,0.3-0.4c0.1,0.2,0.3,0.5,0.3,0.7c0,0.5-0.4,0.3-0.6,0.3c-0.1,0-0.2-0.1-0.4-0.1
			C34.4,101.7,34.5,101.6,34.6,101.4z"/>
		<path class="st0" d="M35.7,80.7c-0.1-0.6,0.2-0.9,0.6-1.1c0.1,0,0.2,0,0.3,0.1c0,0,0.1,0.1,0.1,0.1c-0.3,0.4-0.5,0.8-0.8,1.2
			L35.7,80.7L35.7,80.7z"/>
		<path class="st0" d="M32,95.8c0.1,0.1,0.2,0.2,0.2,0.2c0.4,0.3,0.3,0.7,0.2,1c0,0-0.2,0-0.2,0c-0.2-0.2-0.3-0.5-0.5-0.8
			C31.8,96.3,32,95.8,32,95.8z"/>
		<path class="st0" d="M24.6,93.9c0.2-0.2,0.2-0.3,0.3-0.3c0.1,0,0.3-0.1,0.3,0c0.1,0.3,0.3,0.6,0.3,0.9c0,0.1-0.1,0.2-0.1,0.3
			L24.6,93.9L24.6,93.9z"/>
		<path class="st0" d="M28.6,98.2c0.2,0.2,0.3,0.4,0.5,0.7c0,0.1-0.1,0.2-0.1,0.3l-0.9-0.5L28.6,98.2L28.6,98.2z"/>
		<path class="st0" d="M35.6,84.3l0.4-0.6c0.1,0.2,0.3,0.4,0.3,0.5c0,0.2-0.3,0.3-0.5,0.5L35.6,84.3L35.6,84.3z"/>
		<path class="st0" d="M31.2,77.8c0.1,0,0.3,0.3,0.2,0.3c-0.1,0.1-0.3,0.3-0.4,0.3c-0.1,0-0.2-0.2-0.4-0.4
			C30.9,78,31.1,77.8,31.2,77.8z"/>
		<path class="st0" d="M33.4,85.9c0.2,0,0.3-0.1,0.5-0.1c0.4,0,0.4,0.3,0.4,0.6c0,0.2-0.1,0.3-0.1,0.4c-0.1-0.2-0.1-0.3-0.2-0.5
			C33.8,86.2,33.7,86.1,33.4,85.9L33.4,85.9z"/>
		<path class="st0" d="M26.1,100.9l0.5,0.6c-0.1,0-0.2,0.1-0.3,0.1c-0.2-0.2-0.4-0.4-0.7-0.6L26.1,100.9L26.1,100.9z"/>
		<path class="st0" d="M53.1,83.9c0.2-0.1,0.3-0.2,0.5-0.2c0.1,0,0.2,0.1,0.3,0.2l-0.5,0.5L53.1,83.9L53.1,83.9z"/>
		<path class="st0" d="M14.5,98.5c0.1-0.1,0.2-0.2,0.4-0.3c0.1,0,0.2,0.1,0.3,0.1l-0.5,0.6L14.5,98.5L14.5,98.5z"/>
		<path class="st0" d="M15.6,97.5c0.1-0.1,0.3-0.2,0.4-0.3c0.1,0,0.2,0.1,0.3,0.1l-0.5,0.6L15.6,97.5L15.6,97.5z"/>
		<path class="st0" d="M43.6,93.6c0-0.1,0.1-0.2,0.1-0.2c0.2,0.1,0.4,0.1,0.5,0.3c0,0.1-0.1,0.3-0.2,0.4L43.6,93.6L43.6,93.6z"/>
		<path class="st0" d="M35.2,89.5c0.1-0.1,0.3-0.2,0.4-0.3c0.1,0,0.2,0.1,0.3,0.1l-0.5,0.6L35.2,89.5L35.2,89.5z"/>
		<path class="st0" d="M21,91.6c0.2-0.2,0.2-0.2,0.3-0.2c0.1,0,0.3,0.1,0.4,0.1c0,0.1,0,0.2-0.1,0.2C21.5,91.6,21.3,91.6,21,91.6
			L21,91.6z"/>
		<path class="st0" d="M25.6,93.2c0.1-0.1,0.2-0.2,0.3-0.2c0.2,0,0.3,0.1,0.4,0.2L26,93.4L25.6,93.2z"/>
		<path class="st0" d="M43.2,84.9c-0.1,0.1-0.1,0.2-0.2,0.2c-0.2,0-0.3-0.1-0.5-0.2l0.3-0.2L43.2,84.9z"/>
		<path class="st0" d="M26.5,81.5c0.1,0.3,0.2,0.4,0.2,0.5c0,0.1,0,0.2,0,0.3c-0.1-0.1-0.3-0.1-0.3-0.2C26.3,82,26.4,81.8,26.5,81.5
			L26.5,81.5z"/>
		<path class="st0" d="M44.6,84.1c0.1,0,0.2,0,0.3,0.1c0,0,0,0.1-0.1,0.2l-0.2-0.2C44.6,84.2,44.6,84.1,44.6,84.1z"/>
		<path class="st0" d="M33.4,85.5l0.2,0.2l-0.2,0.2c-0.1-0.1-0.1-0.1-0.2-0.2C33.3,85.6,33.4,85.5,33.4,85.5L33.4,85.5z"/>
		<path class="st0" d="M35.1,86.8c0,0.1,0.1,0.2,0.1,0.2c0,0-0.1,0.1-0.1,0.1L35,86.9L35.1,86.8z"/>
		<path class="st0" d="M51.9,77.1v0.3l-0.3-0.1L51.9,77.1L51.9,77.1z"/>
		<path class="st0" d="M33.6,89.9c0-0.1,0-0.2,0.1-0.3c0,0,0.1,0,0.2,0.1l-0.2,0.2C33.7,89.9,33.6,89.9,33.6,89.9z"/>
		<path class="st0" d="M51.9,77.1c0-0.1,0-0.2,0.1-0.3c0,0,0.1,0,0.2,0.1L52,77.1C52,77.1,51.9,77.1,51.9,77.1z"/>
		<path class="st0" d="M33.6,89.9l-0.3,0.3L33.6,89.9z"/>
		<path class="st0" d="M44.1,76.8c0,0-0.1-0.1-0.1-0.1c0-0.1,0.1-0.2,0.1-0.2l0.1,0.1L44.1,76.8z"/>
		<path class="st0" d="M21.4,92.1c0,0.1-0.1,0.2-0.1,0.2c0,0-0.1-0.1-0.1-0.1c0-0.1,0.1-0.2,0.1-0.2C21.4,92,21.4,92.1,21.4,92.1z"
			/>
		<path class="st0" d="M41.5,93c0-0.1,0-0.2,0.1-0.3c0,0,0.1,0,0.2,0.1L41.7,93C41.7,93,41.5,93,41.5,93z"/>
		<path class="st0" d="M26.8,93.1l0.2,0.2l-0.2,0.2c-0.1-0.1-0.1-0.1-0.2-0.2C26.7,93.2,26.8,93.1,26.8,93.1L26.8,93.1z"/>
		<path class="st0" d="M13.3,93.9l0.2-0.2l0.2,0.2c-0.1,0.1-0.1,0.1-0.2,0.2C13.4,94,13.3,93.9,13.3,93.9L13.3,93.9z"/>
		<path class="st0" d="M28.8,97.4c0,0,0.1-0.1,0.1-0.1c0.1,0,0.2,0.1,0.2,0.1L29,97.5L28.8,97.4z"/>
		<path class="st0" d="M14.2,99.7c0,0.1-0.1,0.2-0.1,0.2c0,0-0.1-0.1-0.1-0.1c0-0.1,0.1-0.2,0.1-0.2C14.1,99.6,14.2,99.7,14.2,99.7z
			"/>
		<path class="st0" d="M35,101c0-0.1,0-0.2,0.1-0.3c0,0,0.1,0,0.2,0.1l-0.2,0.2C35.1,101,35,101,35,101z"/>
		<path class="st0" d="M28.1,101.7c0-0.1,0-0.2,0.1-0.3c0,0,0.1,0,0.2,0.1l-0.2,0.2C28.2,101.7,28.1,101.7,28.1,101.7z"/>
		<path class="st0" d="M27.8,101.9l0.2-0.2l0.2,0.2c-0.1,0.1-0.1,0.1-0.2,0.2C27.8,102,27.7,101.9,27.8,101.9L27.8,101.9z"/>
		<path class="st0" d="M19.3,80.3c0.2,0.2,0.4,0.4,0.4,0.6c0,0.6-0.5,0.3-0.7,0.3c-0.1,0-0.2-0.1-0.2-0.2L19.3,80.3z"/>
		<path class="st0" d="M49.6,97.9c-0.2-0.2-0.3-0.3-0.4-0.4c0-0.1,0.1-0.2,0.1-0.3c0.1,0.1,0.3,0.2,0.4,0.3
			C49.8,97.6,49.7,97.8,49.6,97.9L49.6,97.9z"/>
		<path class="st0" d="M49.5,96.4c0.1-0.1,0.2-0.2,0.3-0.2c0.1,0,0.2,0.1,0.3,0.1L50,96.6C50,96.6,49.5,96.4,49.5,96.4z"/>
		<path class="st0" d="M49.5,97.9l-0.3,0.3L49.5,97.9z"/>
		<path class="st0" d="M19.8,85.5c0,0.1-0.1,0.2-0.2,0.3c-0.1-0.1-0.2-0.2-0.2-0.2c-0.5-0.3-0.3-0.7-0.2-1.1c0-0.1,0.2-0.1,0.3-0.1
			c0.1,0,0.2,0.1,0.3,0.1c0,0.2,0,0.4,0,0.4C19.8,85.2,19.8,85.4,19.8,85.5z"/>
		<path class="st0" d="M14.6,69.2l-0.3-0.3L14.6,69.2z"/>
	</g>
</g>
</svg>
