<?xml version="1.0" encoding="utf-8"?>
<!-- Generator: Adobe Illustrator 26.3.1, SVG Export Plug-In . SVG Version: 6.00 Build 0)  -->
<svg version="1.1" id="Calque_1" xmlns="http://www.w3.org/2000/svg" xmlns:xlink="http://www.w3.org/1999/xlink" x="0px" y="0px"
	 viewBox="0 0 33.7 62" style="enable-background:new 0 0 33.7 62;" xml:space="preserve">
<style type="text/css">
	.st0{fill:#91CCEB;}
</style>
<path class="st0" d="M21.3,21.5c0,1.4,0,3.1,0,3.1C22,31.2,21,41.7,21,41.7s-1,19.9-7.4,20.2C8.9,60.7,8.8,52,8.9,49.4
	c-0.2-0.1-0.3-0.3-0.4-0.5C7.6,47.8,5.3,35.5,8.8,23v-1.8l-8-17.1l8.6,17L3.5,0.3L9.8,21v0.1V21L7.2,6.3l3.4,14.6l0,0l0,0L8.5,1.2
	L12,20.4L11.6,5.3l1,15.2l0.1-11.6l0.4,11.6l0.4-15.3l0.7,15.4l0.5-12.5v12.5v0.1v-0.1l1-18.3l-0.4,18.3v0.1v-0.1l0.7-9.1l-0.5,9.1
	l0,0v0.1v-0.1l1.9-14.3L16,20.6l2.5-17.4l-1.7,17.4l4.5-17.9l-3.9,18.1v0.1v-0.1l5.7-14.5l-5.3,14.6L24,8.2l-5.4,12.6l0,0L28,4.3
	l-9.1,16.6l0,0L31.6,2.2L19.4,21l9.9-13.5l-9.6,13.6l0,0l-0.1,0.1l0.1-0.1l0,0l6.6-8.2l-6.2,8.3L20,21.3l0.1-0.1L33.4,6.1l-13,15.2
	l8.4-8.4L21.3,21.5z"/>
</svg>
