<?xml version="1.0" encoding="UTF-8"?><svg id="Calque_2" xmlns="http://www.w3.org/2000/svg" viewBox="0 0 103.51 128.85"><defs><style>.cls-1{fill:#5b61a6;}</style></defs><g id="Calque_1-2"><g><path class="cls-1" d="M27.19,15.28c-.03,.3-.55,.64,.04,.9,.56,.25,1.05,.46,1.05,1.28,0,.38,.52,.95,1.1,.29,.08,.1,.23,.22,.21,.3-.03,.12-.17,.31-.27,.32-.58,.03-.42,.47-.38,.75,.07,.54,.69,.37,.79,.28,.58-.55,.74-.04,.91,.33,.15,.33-.24,.97,.24,1.04,.65,.09,.36,.79,.81,.91-.16,.62,.24,.81,.7,1.08,.41,.24,.8,.61,.71,1.25-.03,.26,.22,.59,.4,.85,.16,.23,.47,.38,.57,.63,.04,.1-.3,.24-.09,.62,.25,.46,.24,1.06,.77,1.4,.29,.19,.35,.5,.43,.86,.15,.7,.63,.97,1.22,.64,.44-.25,.61-.21,1,.03,.22,.13,.67,.68,1.05,.08,.1,.46,.97,.11,.88,.83,0,.06,.24,.72,.67,.33,.22-.2,.69,.01,.7-.54,0-.48-.23-.74-.56-.95-.11-.07-.34,.66-.48,0-.09-.44,.31-.34,.57-.38,.15-.02,.53,.11,.32-.28-.08-.15-.32-.31-.47-.3-.31,.02-.67,.08-.92,.25-.57,.41-1.04,.71-1.32-.26-.13-.44-.82-.71-.3-1.35,.11-.13,.33-.86-.43-.84-.08,0-.21-.23-.22-.37-.03-.33,.04-.58-.48-.7-.39-.09-.36-.74,.13-.95,.51-.21,.27-.54,.33-.82,0-.02-.19-.13-.29-.11-.31,.04-.74,.27-.91,.14-.26-.2-.44-.62-.5-.97-.16-1.04-.25-2.08-.36-3.13-.03-.32,.12-.72-.46-.7-.07,0-.17-.34-.23-.53-.07-.26-.03-.71-.17-.77-1.23-.52-.55-1.88-1.2-2.63,.28-.23,.39-.53,.33-.88,.56,.16,1.19,.22,1.67,.52,.38,.23,.55,.77,.86,1.14,.2,.24,.38,.45,.09,.71-.48,.44-.09,.69,.19,.96,.26,.24,.59,.16,.63-.15,.03-.23-.05-.48,.02-.68,.08-.25,.28-.46,.42-.69,.16,.11,.34,.19,.48,.33,.37,.34,.67,.78,1.3,.68,.06,0-.14,.77,.39,1.05,.28,.15,.37,.23,.63-.01,.41-.38,1.05-.16,1.23,.39,.05,.15,.01,.45,.08,.47,1.27,.37,1.2,1.68,1.8,2.52,.22,.31,.41,.64,.61,.95,.09,.14,.24,.26,.26,.41,.06,.44-.04,.95,.14,1.33,.13,.29,.83,.4,.86,.64,.07,.52,.32,.48,.67,.52,.15,.02,.27,.24,.41,.37-.83,.87,.08,1.6,.19,2.4,.05,.38,.29,.9,.12,1.12-.45,.58-.07,.81,.32,.92,.44,.12,.44,.21,.13,.47,.21,.2,.4,.47,.65,.57,.2,.08,.52,.15,.68-.26,.2-.52,.58-1.11,.29-1.56-.31-.48-.39-.75,.02-1.14,.03-.02-.18-.43-.29-.44-.45-.04-.39-.33-.37-.6,.01-.15,.06-.37,.17-.43,.11-.06,.36,0,.44,.1,.2,.25,.31,.57,.51,.81,.07,.09,.35,.11,.44,.05,.1-.07,.19-.39,.14-.43-.54-.45-.79-1.29-1.7-1.27-.11,0-.29-.25-.34-.42-.1-.31-.14-.63-.2-.96-.03-.19-.05-.39-.08-.59,.2,.02,.44-.02,.58,.08,.29,.21,.43,.12,.36-.17-.11-.46-.28-.92-.49-1.35-.17-.35-.45-.45-.72-.05-.36-.24-.74-.46-1.06-.75-.1-.09-.09-.43,0-.56,.35-.51,.29-.94-.18-1.31-.71-.56-1.23-1.21-.98-2.18,.13-.52-.97-.46-.47-1.19,.15-.22-.12-1.06-.3-1.1-.78-.15-.51-.7-.64-1.14-.13-.45-.53-.83-.65-1.28-.18-.73-.79-1.19-1.01-1.82-.22-.61-.07-1.35-.11-2.03,0-.09-.22-.16-.22-.25-.04-.49-.23-1.01,.27-1.4,.37-.29,.9-.26,1.5,.16,.11,.08,.26,.26,.24,.36-.21,.85,.36,1.32,.9,1.69,.64,.43,.48,1.19,.9,1.74,.39,.5,1.36,.82,1,1.8-.04,.11,.25,.34,.38,.52,.34,.49,.71,.98,.63,1.64,0,.06-.01,.12,0,.17,.11,.52,.55,.78,1.16,.73,.16-.01,.32,.05,.48,.08-.07,.12-.12,.25-.2,.36-.48,.66-.52,1.22-.05,1.75,.12,.14,.37,.16,.57,.21,.26,.07,.54,.08,.79,.18,.14,.06,.23,.23,.34,.35-.15,.05-.3,.11-.45,.15-.16,.04-.32,.06-.48,.09,.14,.09,.29,.15,.41,.26,.43,.42,1.05,.78,.57,1.56-.05,.09,.11,.42,.25,.49,.33,.17,.71,.22,1.05,.37,.16,.07,.38,.25,.38,.38-.01,.76,.26,1.38,.77,1.94,.17,.18,.26,.49,.27,.74,.02,.42,0,.75,.57,.8,.18,.02,.48,.44,.45,.63-.1,.61,.8,1.06,.22,1.69-.24,.26-.04,.23,.14,.39,.46,.4,1.2,.42,1.42,1.17,.11,.37,.32-.02,.45-.12,.26-.2,.34-.46,.05-.7-.15-.12-.49-.16-.51-.28-.15-1.04-.26-2.09-.36-3.13-.04-.38-.31-1.93-.49-2.09-.4-.35,.13-.42,.15-.64,.03-.51,.05-.98-.69-.79-.12-.76,.24-1.56-.31-2.3-.13-.17,.23-.68,.29-1.04,.02-.13-.18-.41-.31-.44-.33-.06-.71,.06-1.02-.05-.25-.08-.42-.38-.63-.58,.24-.2,.4-.59,.83-.38,.15,.07,.29,.47,.45,.08,.13-.33-.09-.52-.46-.48-.29,.03-.66,.01-.53-.39,.08-.25,.18-.85,.75-.39,.4,.32,.6-.09,.82-.31,.28-.28,.11-.5-.12-.71-.13-.12-.36-.26-.35-.36,.18-1.34-1.02-1.98-1.48-2.99-.09-.19-.35-.39-.32-.55,.19-1.1-.67-1.7-1.12-2.48-.8-1.39-1.91-2.62-2.33-4.21-.11-.4-.4-.29-.56-.44-.34-.33-1.05-.38-.89-1.17,.04-.18-.54-.49-.14-.81,.28-.22,1.08,.02,1.2,.38,.27,.78,1.1,.94,1.57,1.54,.64,.81,.98,.78,.78,1-.57,.64,.18,1.06,.33,1.14,1.48,.81,2.04,2.19,2.51,3.66,.06,.19,.13,.45,.26,.52,1.31,.62,1.66,1.83,1.77,3.09,.05,.61,.34,1.04,.75,1.23,.83,.39,1.04,1.02,1,1.82-.02,.43,.13,.73,.41,1.05,.25,.28,.57,.8,.47,1.04-.26,.64,.46,.62,.52,1.02,.06,.42,.2,.83,.34,1.24,.08,.25,.34,.49,.32,.72-.04,.49,.26,.5,.58,.63,.19,.08,.25,.57,.41,.59,.41,.05,.31,.37,.46,.55,.32,.37,1.18,.24,1.49-.16,.06-.08,.06-.27,0-.35-.13-.19-.42-.31-.46-.5-.07-.41-.44-.74-.09-1.28,.25-.38,.53-1.06-.24-1.49-.25-.14-.37-.66-.38-1.02-.02-.62-.07-1.12-.81-1.25-.09-.01-.24-.14-.23-.19,.15-.75-.4-1.22-.65-1.81-.23-.54-.41-1.08-.68-1.62-.23-.46-.03-1.13-.08-1.7-.04-.49,.18-.6,.6-.55,.4,.05,.37-.23,.48-.5,.1-.24,.49-.43,.79-.51,.27-.07,.82-.11,.27,.44,.37,.64,.64,1.36,1.12,1.89,.59,.66,.79,.95,1.26,1.88,.53,1.05,.87,2.17,1.39,3.23,.26,.53,.73,1.01,.8,1.55,.06,.51,.29,1.01,.22,1.54-.02,.15,.02,.37,.12,.46,1.31,1.17,.84,2.99,1.58,4.36-.62,.55-.22,1.28-.32,1.92-.01,.09,.08,.19,.12,.29,.12-.09,.32-.16,.35-.28,.09-.3,.15-.62,.15-.93,0-.15-.44-.31-.09-.48,.76-.35,.11-.82,.13-1.22,.02-.28-.03-1.49,.07-1.76,.06-.16,.46-.42,.09-.44-1.24-.06-.47-.8-.49-1.26-.02-.67-.29-.65-.73-.31-.06,.05-.22,.06-.23,.04-.05-.09-.07-.2-.08-.31,0-.05,.01-.12,.05-.15,.29-.25,.88-.66,.85-.71-.5-.88-.05-1.8-.22-2.68-.02-.09-.15-.17-.22-.25-.19-.22-.55-1.42-.45-1.74,.18-.55-.46-1.03-.1-1.58-.53-.33,.55-.8-.14-1.24-.31-.2-.32-.87-.46-1.33-.12-.39-.98-.19-.69-.89,.12-.31-.65-.61,0-.92-.28-.4-.48-.91-.86-1.18-.57-.41,.52-.91-.15-1.22,.15-.16,.26-.39,.44-.47,.15-.06,.37,.07,.56,.12-.2,.63,.37,.75,.66,1.09,.28,.34,.21,.96,.46,1.34,.21,.32,.08,.39-.03,.64-.15,.36-.07,.73,.43,.26,.01-.01,.34,.31,.51,.48-.74,.62,.07,.64,.31,.98,.57,.8,.51,.85,.69,.89,.68,.15,.86,.32,.76,.74-.04,.15-.24,.26-.26,.4-.02,.19,0,.44,.12,.57,.67,.74,.68,.74,.49,1.81,0,.03,0-.03,0-.08-.09,.03-.19,.05-.26,.1-.02,.02,.04,.14,.06,.21,.07-.05,.14-.11,.2-.24,.25-.03,.7-.23,.66,.19-.03,.33,.54,.39,.19,.83-.28,.35-.6,.82-.17,1.37,.28,.37-.53,.77-.02,1.29,.2,.21,.03,.77,.04,1.17,0,.39-.12,.98,.09,1.15,.56,.46-.3,.61-.11,.99,.18,.38,.17,.85,.25,1.28,0,.05,.12,.09,.11,.12-.1,.58-.21,1.16-.32,1.75,.86,.28-.26,.98,.28,1.32-.25,.4-.45,.84-.76,1.19-.4,.46-.02,.33,.23,.43,.43,.17,.33,.69,.19,.85-.35,.4-.62,.98-1.35,.88-.33-.05-.31,.12-.13,.37,.21,.3,.34,.66,.5,1-.11,.12-.23,.23-.35,.42,0,.03,0-.03,0-.08-.09,.03-.19,.05-.26,.1-.02,.02,.04,.14,.06,.21,.07-.05,.14-.11,.2-.24,.11-.19,.23-.31,.34-.42,.63,.13,.4,.65,.27,.9-.23,.44-.63,.79-1.2,1.18h.24l-.45-.62c-.08,.08-.24,.18-.23,.24,.04,.16,.15,.3,.44,.38,.24,.38,.98,.7,.32,1.12,.15,.43,.19,.94,.46,1.27,.27,.33-.44,.48,0,.77,.28,.19,.42,.28,.62-.02,.07,.23,.2,.46,.2,.69,.02,.58,.11,.96,.75,.43,.83,.54,2.18-.29,2.73,1.04,.05,.13,.37,.14,.56,.22,.56,.24,1.3,.26,1.19,1.22-.02,.15,.37,.75,.83,.18,.09-.11,.46-.08,.66,0,.2,.08,.36,.29,.48,.47,.03,.04-.18,.23-.27,.35-.13,.18-.24,.36-.36,.61,0,.03,0-.03,0-.08-.09,.03-.19,.05-.26,.1-.02,.02,.04,.14,.06,.21,.07-.05,.14-.11,.2-.24,.29-.08,.6,0,.85-.1,.22-.08,.31-.43,.63-.07,.28,.32,.31,.52,.02,.86-.21,.25-.14,.27,.37,.3,.24,.01,.47,.28,.71,.29,.34,.03,.53,.07,.52,.47-.02,.57,.23,1.38-.05,1.68-.6,.63,.09,1.01,.07,1.49,0,.18,.22,.36,.32,.55,.11,.19-.16,.72,.24,.54,.4-.18,.41-.19,.46,.21,.04,.26,.12,.59,.3,.72,.38,.28,.93,.39,.73,1.07,0,.03,.06,.13,.09,.13,1.5-.01,.8,1.12,.93,1.8,.13,.63,.32,.05,.49,.06,.24,.02,.49,.16,.7,.29,.05,.03,.04,.32,0,.33-.46,.14-.93,.25-1.41,.36-.41,.09-.74-.26-1.07-.3-.74-.1-.25-.68-.46-.88-.43-.43-.28-1.16-1.02-1.51-.53-.25-.72-1.16-1.14-1.71-.3-.4-.25-1.11-1.05-1.15-.39-.02,.04-.28,.05-.43,.02-.19-.07-.55-.12-.55-1.01-.01-1.19-.99-1.79-1.47-.26-.21-.43-.93-.97-.3-.27-.37-.27-.71,.05-1.06,.23-.25,.2-.68-.1-.62-.77,.16-.81-.45-1.02-.82-.49-.82-1.61-1.27-1.51-2.46,0-.01-.24-.09-.31-.05-.61,.36-1.12,.11-1.7-.13-.36-.15-.37-.3-.41-.59-.02-.17-.19-.46-.3-.46-.96-.01-1.37-.74-1.73-1.4-.25-.47-.43-.43-.72-.16-.38,.35-.61,.09-.83-.17-.54-.63-1.57-1.34-2.01-1.41-.23-.04-.44,.64-.55,.12-.08-.37-.71-.6-.25-1.18,.26-.33,.17-.96,.19-1.46,0-.07-.32-.25-.35-.22-.14,.13-.32,.44-.31,.45,.54,.41,.13,.65-.16,.88-.25,.2-.66,.27-.8,.51-.15,.27-.38,.77,.26,.91,.5,.12,.56,.59,.8,.94,.42,.61,.31,.75-.39,.79-.78,.05-1.24,.65-1.76,1.15-.48,.45-.29-.09-.39-.26-.19-.31-.52-.32-.67-.03-.37,.73-.88,.99-1.7,.89-.32-.04-.66,.31-1.02,.42-.43,.14-.78,.82-1.34,.25-.03-.03-.14-.03-.16,0-.25,.34-.82,.17-.99,.71-.23,.74-.48-.45-.85-.04-.28,.31-.74,.46-1.06,.75-.39,.35-.73,.48-1.19,.14-.14-.11-.49-.17-.56-.09-.44,.5-.51-.11-.75-.21,.16-.08,.38-.12,.47-.25,.25-.4,.55,0,.73-.07,.29-.1,.47-.49,.75-.68,.21-.15,.52-.29,.75-.24,1,.22,1.5-.89,2.41-.87,.12-.78,.82-.68,1.33-.89,.27-.11,.47-.37,.7-.56-.27-.04-.55-.13-.81-.11-.61,.05-1.02-.05-.88-.81,0-.01-.27-.12-.29-.09-.18,.26-.35,.54-.5,.83-.49,.99-.54,1.15-1.27,1.06-.92-.11-1.34,.52-1.68,1.06-.27,.43-.36,.3-.49,.06-.14-.28-.32-.78-.2-.9,.8-.8-.12-1.7,.2-2.52,.06-.16-.22-.46-.34-.7-.2,.16-.41,.29-.59,.47-.13,.14-.17,.37-.31,.47-.14,.1-.54,.04-.21,.34,.82,.75,.57,1.6,.32,2.47-.2,.72-.49,.9-.84,.46-.65-.83-.97-1.8-1.02-2.85,0-.13,.12-.28,.21-.4,.21-.27,.23-.6,0-.64-.27-.05-.57-.09-.84-.04-.16,.03-.38,.22-.4,.36-.05,.45-.18,1.01,.02,1.36,.39,.7,.45,1.22-.22,1.73-.06,.04-.1,.21-.07,.23,.52,.48,.1,1.11,.28,1.62,.08,.23,.38,.4,.61,.53,.05,.03,.27-.22,.4-.36,.38-.43,.81-.43,1.2,.04,.06,.07,0,.23,0,.34-.7-.03-.91,1.02-1.8,.74-.33-.1-.86,.35-1.26,.62-1.01,.69-1.21,.68-2.31,.19-.25-.11-.66,.11-1.07,.18-.02-.06,.08-.13,.07-.18-.08-.53,.25-.49,.62-.53,.47-.06,.93-.31,1.4-.31,.63,0,.22-.74,.67-.81-.21-.2-.4-.43-.64-.58-.17-.11-.45-.05-.61-.16-.14-.1-.17-.34-.25-.51-.08,.2-.12,.53-.25,.56-.43,.12-.65,.28-.6,.78,.04,.43-.35,.47-.55,.28-.29-.28-.44-.2-.62,.05-.24,.35-.46,.39-.75,.04-.05-.06-.55-.21-.31,.37,.23,.55,.14,.66,.53,.44,.31-.18,.49-.18,.72,.07,.15,.17,.32,.33,.58,.5-.18,.6-1.17,.15-1.29,.91-.11,.67-.35,.6-.77,.26-.06-.05-.44,.13-.45,.23-.12,.83-.73,.69-1.26,.64-.11-.01-.31-.35-.27-.47,.18-.5,.45-.96,.66-1.45,.04-.09,.02-.23-.03-.33-.02-.05-.18-.09-.23-.06-.6,.36-.74,1.18-1.44,1.43,.34,.25,.3,.49,0,.73,.95,.95-.06,.6-.46,.91-.43,.34-1.26-.07-1.4,.86-.07,.5-.69-.53-1.03,.05-.08-.15-.21-.3-.23-.46-.04-.28-.01-.57,.4-1.21,.29-.29,.04-.2-.17-.05-.12,.08-.26,.36-.23,.39,.14,.15,.33,.29,.53,.35,.13,.04,.34-.03,.44-.13,.1-.1,.04-.35,.14-.44,.29-.28,.31-.43-.71-.11-.47,.35-.56,.38-.58,.35-.45-.5-.98-.41-1.52-.2,.22,.36,.42,.73,.67,1.07,.15,.21,.44,.32,.08,.62-.45,.38-.6,.37-.78-.19-.27-.87-.68-1.2-1.22-.91-.22,.12-.44,.4-.48,.64-.08,.46,.33,.35,.58,.34,.59-.02,.51,.46,.41,.7-.24,.57-.59,1.09-1.35,1.04-.51-.03-1.01-.06-1.36,.47-.1,.14-.39,.23-.58,.2-.35-.04-.75-.33-1.03-.24-.31,.1-.5,.41-.86,.08-.06-.05-.35,.06-.46,.17-.42,.42-1.06,.79-.56,1.56,.01,.02-.15,.15-.21,.24-.68,.96-.72,1.14,.3,1.49,.71,.25,.81,.79,.59,1.1-.57,.79-.09,1.45,.05,2.15,.09,.46,.16,1.1,.48,1.32,.67,.46,1.02,1.35,1.93,1.48,.05,.25-.15,.72,.27,.66,.72-.09,1.07,.2,1.4,.8,.24,.43,.67,.54,.74-.17,.04-.41,1.05-.5,.36-1.12,.21-.06,.43-.2,.61-.15,.25,.07,.46,.27,.69,.42-.11,.16-.19,.35-.33,.48-.18,.16-.58,.26-.59,.41-.05,.56-.2,1.35,.1,1.64,.57,.57,.45,1.35,.91,1.89,.12,.14,.36,.34,.46,.3,.4-.16-.08-.38-.05-.42,.26-.3-.08-.67,.05-.85,.27-.35,.24-.52-.02-.86-.7-.91-.59-1.28,.42-2.01,.23-.17,.41-.4,.61-.61,.08,.1,.24,.26,.23,.28-.33,.38-.26,.78,.02,1.09,.32,.35,.73,.61,1.12,.88,.05,.04,.26-.09,.35-.19,.44-.44,.97-.69,1.59-.75,.21-.02,.47,0,.22,.34-.16,.21-.25,.47-.37,.71-.04,.07-.05,.16-.07,.24,1,.15,.44,.95,.62,1.44,.05,.15,.27,.25,.41,.37,.09-.18,.29-.45,.24-.51-.25-.3-.53-.51,.17-.54,.67-.02,.98-.28,.57-.99-.14-.24,.46-1.76,.69-1.94,.12-.09,.31-.18,.44-.15,.1,.03,.21,.23,.23,.37,.19,1.08,.59,1.68,1.59,2.43,.21,.16,.41,.42,.47,.66,.09,.45-.19,1.06,.62,1.1,.08,.49,.17,.91-.13,1.43-.19,.33-.89,.79-.19,1.43,.26,.23,.29,.65,.49,.51,.27-.19,.5-.46,.77-.66,.21-.15,.59-.41,.68-.34,.24,.18,.38,.51,.53,.79,.05,.09,.03,.23,0,.34-.06,.19-.16,.54-.22,.53-.28-.03-.73,.26-.8-.3-.03-.27-.05-.38-.37-.19-.67,.41,.01,1.25-.58,1.68-.05,.04,.13,.46,.26,.66,.21,.33,.83-.23,.88,.31,.02,.27-.4,.55-.46,.86-.04,.21,.16,.55,.35,.68,.12,.08,.48-.08,.65-.23,.4-.36,.62-.82,.65-1.39,.04-.72,.29-.91,.91-.55,.4,.23,.74,.19,1.12,.22,.33,.03,.33,0,.37-.62,0-.11,.02-.28,.08-.3,1.37-.54,.81-2.1,1.56-2.96-.14-.09-.38-.26-.39-.25-.28,.36-.53,.33-.75-.04-.25-.41-.06-1.14-.83-1.18,.52-.58-.08-1.04-.2-1.54-.02-.09,.03-1.18-.69-.4-.05-.15-.19-.38-.13-.44,.35-.39,.81-.71,.35-1.33-.04-.05,.22-.39,.39-.48,.09-.05,.39,.11,.46,.24,.24,.49,.48,.88,1.07,1.13,.29,.12,.34,.85,.46,1.31,.06,.22-.01,.46,.02,.69,.04,.31,.37,.41,.62,.18,.28-.26,.5-.42,.25-.97-.49-1.09,.04-2.25,1.01-2.71,.19-.09,1.04,.35,1.22,.62,.32,.49,.47,1.55,.35,2.33-.03,.17,.02,.35,0,.52-.07,.51,.11,.74,.65,.67,.23-.03,.46,0,.69,0,.1,0,.21-.06,.31-.09-.07-.12-.12-.26-.2-.36-.53-.69-.57-.92,.2-1.23,.49-.19,.4-.43,.43-.74,.35-.21,.73-.38,1.02-.65,.41-.38,.69-.42,.92,0,.27,.5,.18,.91-.3,1.34-.37,.33-.42,.81,.02,1,.34,.14,.31,.35,.44,.55,.23,.35,.47,.54-.18,.52-.17,0-.34,0-.51,0-.58,.02-.39,.48-.36,.75,.04,.4,.34,.38,.6,.18,.17-.13,.39-.39,.39,.05,0,.31,.67,.6,.04,.92,.57,.75,1.14,1.51,1.72,2.25,.04,.06,.22,0,.49,.11,.1,.03,.05-.03,0-.1l-.15,.15c.07,.05,.13,.11,.21,.15,.01,0,.07-.07-.05-.21,.23-.74,.39-1.45,.03-2.12-.15-.28,.08-.4,.06-.49-.17-.63,.18-1.38-.35-1.9-.54-.53,.14-1.47-.37-1.69-.65-.28-.61-1.02-1.16-1.25,.47-.49,0-.93-.07-1.4-.05-.4-1.03-.49-.36-1.11-.04-.04-.08-.08-.12-.12-.41-.34-.86-.85-.49-1.26,.46-.5,1.11-.12,2.06,.43,.24-.01,.18-.2,.07-.25-.37-.16-.54,.15-.7,.39-.03,.05,.08,.28,.12,.27,.27-.03,.54-.09,.51-.42-.29-.44-.18-.62-.05-.79,.4-.54,.39-.53-.15-1.2-.12-.15-.21-.38-.2-.57,.01-.42-.05-.77-.41-1.04-.15-.11-.43-.28-.1-.47,.68-.39,.35-1.25,.84-1.71,.29,0,.76-.1,.83,.02,.26,.46,.66,1.13,.49,1.46-.26,.5-.14,.75,.2,.88,.44,.17,.96,.29,.86,.82-.06,.31,.02,.69-.09,.87-.23,.41-.42,.53,.19,.84,.77,.39,1.41,1.05,2.09,1.61,.12,.1,.26,.27,.25,.4-.03,.45,.06,.72,.58,.8,.19,.03,.38,.4,.45,.64,.15,.53,.56,.22,.84,.31,.23-.73,.79-.75,1.41-.71,.05,0,.15-.26,.17-.41,0-.08-.09-.21-.18-.25-.09-.04-.23,0-.34-.01-.27-.04-.54-.08-.81-.13,.07-.16,.24-.4,.19-.48-.33-.49-.91-.76-.96-1.52-.04-.71,.72-.83,.76-1.44,.02-.26,.45-.5-.03-.75,.26-.07,.25-.69,.74-.33,.12,.09,.49-.13,.58-.05,.25,.24,.33,0,.51-.05,.54-.15,.97,.24,.91,.78-.02,.17-.66,.36,0,.5,1.04,.21,1.28,1.09,1.36,1.87,.1,.94,.7,1.7,.74,2.64,0,.11,.19,.32,.27,.32,.99-.08,1.01,.69,1.07,1.3,.06,.57,0,1.13,.55,1.51,.11,.07,.15,.29,.16,.44,.02,.34-.08,.72,.04,1.02,.09,.24,.45,.36,.66,.56,.11,.11,.15,.28,.23,.42,.31,.51-.19,1.34,.61,1.64,.54,.2,.33,1.04,1.06,1.14,.21,.03,.41,.72,.46,1.13,.02,.15-.41,.35-.63,.53-.21,.04-.51,0-.62,.13-.59,.64-.99,.75-1.52,.29-.24-.21-.41-.51-.41-1.64-.4-.6-.93-.36-1.45-.12-.01,0,.09,.29,.1,.28,.53-.14,.84,.19,1.14,.53,.27,.31,.52,.28,.68-.09,.1-.24,.12-.52,.18-.77,.08-.32-.24-.73-.65,.16-.87,.63-.84,1.24-1.07,1.56-.26,.36-.34,.83,.02,.99,.24,.11,.57,.33,1.07,.12,.64-.26,1.39-.67,2.19-.42-.5,.37-.18,1.13-.91,1.55-.6,.35,0,1.44,.99,1.81,.52,.2,.75,.42,.6,.6-.53,.62-.32,1.13-.04,1.82,.19,.48,.43,.98,.57,1.49,.21,.76,.36,1.42,1.43,1.47,.57,.03,.51,.8,.46,1.31-.05,.56-.52,.26-.8,.32-.48,.1-1.02-.2-1.42,.33-.31,.4-.58-.63-.95-.08-.02,.04-.08,.05-.12,.07-.05-.21-.06-.44-.16-.62-.16-.28-.37-.54-.57-.8-.13-.17-.28-.33-.42-.49,.21-.05,.42-.12,.63-.13,.43-.03,.45-.3,.3-.57-.26-.47-.6-.88-.64-1.47-.04-.59-.96-.85-.69-1.61-.8-.03-.5-.84-.84-1.17-.99-.97-.81-2.71-2.25-3.36-.02,0,.02-.12,0-.17-.27-.62-1.01-1.14-.43-1.95-.55-.2,.14-1.27-.83-1.18-.1-.75-.59-1.41-.47-2.23,.07-.48,.2-1.17-.39-1.34-.32-.09-.79,.34-1.18,.56-.08,.04-.15,.2-.13,.28,.04,.13,.13,.3,.25,.35,.15,.06,.34,0,.51,.02,.09,.02,.17,.11,.26,.17-.09,.06-.19,.1-.27,.17-.56,.46-.63,.74-.08,1,.5,.23,.07,.35,.1,.5,.13,.6,.65,1.24,.54,1.76-.19,.88,1.14,.93,.77,1.77,0,.01,.17,.16,.26,.15,.66-.01,.38,.71,.73,.97,.09,.07-.09,.5-.14,.76-.2-.08-.4-.13-.59-.24-.42-.23-.55-.11-.65,.36-.14,.71,.33,1.27,.38,1.93,.01,.13,.29,.37,.39,.35,.19-.05,.35-.25,.52-.39-.13-.09-.27-.16-.37-.28-.1-.11-.21-.27-.2-.4,.01-.11,.19-.24,.32-.28,.33-.1,.91-.29,.96-.2,.29,.5,.49,1.06,.62,1.63,.04,.16-.23,.39-.34,.61-.05,.1-.08,.26-.04,.36,.26,.7,.11,1.58,.96,2.03,.43,.23,.2,.72,.3,1.19-.2-.11-.38-.36-.59-.4-.13-.02-.47,.34-.44,.44,.1,.31,.33,.57,.51,.85,.18-.25,.37-.51,.53-.89,.47-.18,.82,.08,.96,.53,.12,.4-.1,.85,.3,1.25,.23,.24,1.06,.42,.42,1.06,.31,.14,.71,.48,.92,.38,.28-.13,.36-.72,.64-.85,.21-.09,.02,.84,.68,.64,.3-.09,.61-.16,.92-.23,.21-.05,.42-.08,.63-.12-.11,.41-.44,1.03-.29,1.19,.53,.54-.05,.8-.24,.84-.27,.06-.87,.35-.86-.4,0-.04-.26-.13-.29-.1-.15,.15-.31,.33-.38,.52-.44,1.21-.43,1.21-1.51,.71-.1-.05-.18-.21-.26-.19-.17,.03-.37,.09-.48,.21-.3,.31,0,.3,.2,.33,.7,.11,.55,.9,.99,1.22-.48,.28-.22,.52,.06,.72,.12,.09,.3,.09,.46,.13,0-.12,.03-.25-.01-.36-.2-.47-.34-.98,.09-1.33,.08-.07,.59,.39,.91,.59,.23,.14,.49,.22,.7,.37,.27,.19,.33,.44,.06,.7-.12,.12-.35,.25-.34,.36,.03,.32,.15,.64,.24,.95,.16-.1,.32-.21,.49-.31,.14-.09,.23-.45,.46-.09,.2,.32,.42,.63,.62,.94,.17,.27,.26,.7,.5,.8,.62,.26-.45,.69,.14,.9,.06,.02,0,.37-.01,.56-.2-.05-.43-.05-.58-.17-.25-.21-.46-.48-.66-.75-.09-.12,.07-.51-.31-.28-.14,.09-.33,.23-.35,.36-.01,.17,.09,.46,.21,.51,.26,.1,.63,.02,.2,.45-.14,.14-.13,.42-.26,.57-.48,.55-.49,.54,.15,1.08-.18,.74-.22,.62-.96,.84-.66,.2-.64-.42-.99-.55,.08-.16,.13-.36,.26-.48,.37-.36,.34-.39-.18-.54-.66-.19-1.22-.7-1.21-1.5,0-.62-.1-1.05-.8-1.26-.4-.12-.33-.67,.07-1.01,.1-.08,.22-.15,.33-.22-.1-.04-.19-.11-.29-.12-.23-.02-.46-.03-.69,0-.47,.05-.78-.03-.71-.62,.02-.13-.11-.4-.19-.4-.67-.05-.63-.32-.29-.75,.16-.21,.27-.46,.37-.71,.38-.98,.13-1.58-.84-2.12-.05-.03-.08-.09-.12-.12-.35-.17-.94-.23-.21-.75,.41-.29,.53-.64-.17-.77-.11-.02-.24-.22-.25-.35-.05-.44,.06-.87-.37-1.25-.22-.19-.18-.64-.31-.95-.28-.68-.52-1.28-1.27-1.74-.66-.41-1.02-1.4-.85-2.37,.02-.14-.27-.33-.42-.5-.08,.15-.13,.34-.25,.43-.31,.24-.37,.54-.35,.9,0,.09-.08,.19-.13,.29-.12-.1-.25-.19-.37-.3-.26-.23-.23-.45-.01-.72,.41-.5,.17-.69-.39-.69-.15,0-.4-.05-.44-.15-.32-.84-.74-1.69-.52-2.61,.1-.4,.32-.76-.09-1.02-.44-.29-.94-.49-1.43-.7-.33-.14-.57-.61-.38-.89,.3-.46,.67-.87,.95-1.34,.07-.11-.1-.36-.16-.54-.16,.11-.42,.19-.45,.33-.11,.6-.31,.22-.49,.07-.08,.28-.13,.58-.26,.83-.05,.1-.29,.14-.44,.15-.29,.02-.57,0-.86,0-.42,0-.43,.26-.33,.56,.08,.25,.18,.5,.3,.74,.21,.43,.74,1.02,.62,1.24-.37,.66,.15,.94,.34,1.35,.29,.62,1.02,1.03,.85,1.88-.03,.17,.16,.38,.26,.57,.14,.27,.62,.5,.21,.82-.14,.1-.55-.22-.84-.24-.43-.03-.43-.28-.4-.58,.03-.37-.13-.49-.49-.49-.18,0-.5-.12-.52-.24-.13-.69-.39-.55-.79-.21-.24,.2-.55,.39-.84,.43-.32,.04-.88,.24-.8-.48,.05-.48-.28-.68-.63-.88-.16-.09-.39-.26-.38-.38,.06-.71-.57-.94-.92-1.35-.09-.11-.32-.17-.48-.15-.2,.02-.52,.1-.57,.24-.17,.48,.32,.21,.49,.34,.4,.31,.25,.55,.09,.91-.2,.46-.81,.96-.14,1.48,.76,.58,.86,1.13,.17,1.84-.12,.12-.04,.44-.06,.66-.08,.78,.25,.45,.6,.25,.06-.04,.36,.18,.42,.33,.07,.2,.02,.45,.02,.68l-.35,.35c-.41-.12-.82-.32-1.23-.32-.5,0-.77-.07-.96-.62-.13-.38-.67-.57-.58-1.14,.09-.56,.16-1.2-.79-1.05-.06,0-.12-.41-.27-.51-.73-.51-.14-1.64-1-2.07-.09-1.01-.55-.18-.58-.06-.12,.43-.28,.64-.79,.62-.21,0-.44,.29-.66,.45,.23,.07,.47,.14,.69,.21,.1,.03,.19,.1,.28,.15-.13,.06-.26,.15-.4,.19-.44,.12-.15,.25-.03,.42,.26,.38,.49-.06,.6-.03,.64,.2,.75,1.34,.21,1.83-.07,.06-.21,.16-.23,.14-.51-.4-1.04-.79-1.49-1.25-.16-.16-.14-.5-.2-.76-.18,.2-.3,.39-.62,.08-.43-.41-.88-.8-1.38-1.14-.38-.27-.36-.77,.11-.99,.36-.17,.41-.31,.29-.6-.1-.25-.26-.47-.36-.71-.31-.74-.89-.16-1.33-.27-.28-.07-.28,0-.33,.56-.03,.33-.02,.69-.17,.96-.16,.3-.12,.29,.17,.39,.37,.14,1.02,.48,.99,.62-.17,.81,.47,1.22,.75,1.79,.2,.42,.43,.83,.64,1.25-.43,.2-.91,.35-1.28,.63-.28,.21-.34-.05-.5-.07-.44-.08-.9-.07-1.35-.07-.09,0-.17,.11-.26,.17,.09,.06,.18,.14,.28,.16,.17,.03,.34,0,.52,.01,.6,.06,1.09,.06,.64,.98-.2,.41,.05,1.3,.41,1.65,.44,.43,1.2,.57,1.85,.72,.2,.05,.49-.29,.74-.45-.22-.16-.42-.37-.67-.46-.2-.08-.45,0-.68-.02-.62-.03-.81-.29-.8-1.08,0-.08,.04-.2,0-.24-.23-.22-.39-.51-.07-.69,.2-.11,.76,0,.76,.03,.07,.81,.67,.62,1.13,.59,.53-.03,1.04,.18,1.02,.63-.03,.89,.32,.66,.79,.42,.05-.03,.18,.1,.27,.15-.55,.2,.09,.63-.15,.85-.57,.52-1.01,1.37-2.03,.79-.19-.11-.93,.49-.91,.66,.05,.46,.42,.24,.66,.31,.14,.04,.29,.13,.37,.24,.28,.39,.13,1.12,.89,1.15-.02,.12,0,.27-.07,.36-.1,.13-.24,.23-.38,.31-.14,.08-.51-.08-.3,.3,.08,.15,.24,.25,.36,.37,.32-.55,.61,.06,.91,.02,.51-.07,.75,.1,.67,.64-.01,.1,.05,.21,.08,.31l.49-.2c.04,.21,.11,.43,.11,.64,0,.63-.06,1.28,.83,1.39,.14,.02,.4,.86,.37,1.04-.1,.81-.1,.82,.81,.68,.1-.01,.22,.03,.31,.08,.02,.01-.01,.16-.04,.23-.07,.2-.11,.45-.25,.58-.46,.45-.16,.4,.23,.52,.53,.17,.48,.6,.17,1-.3-.04-.59-.52-.92,.03-.14,.23,.04,.74-.55,.67-.75-.08-.65,.2-.38,.78,.22,.48,.3,.96,.87,1.17,.1,.04,.15,.23,.22,.35-.16,.03-.32,.08-.48,.09-.11,.01-.27,.03-.33-.03-.21-.24-.37-.35-.63-.03-.2,.25-.29,.4-.1,.73,.42,.72,.69,1.53,1.64,1.77,.13,.03,.33,.41,.29,.45-.55,.68,.29,1.01,.33,1.49,.08,.93,1.17,.04,1.25,.8,.29-.27,.55-.51,.53-1-.03-.74,0-.78-.71-1.41,.73-.06,.05-1.01,.54-1,.72,0,.36-.78,.82-.88-.08-.18-.11-.41-.24-.52-.1-.08-.33,0-.5-.02-.25-.03-.62,.14-.62-.34,0-.3-.16-.74,.43-.71,.04,0,.14-.26,.11-.28-.14-.12-.31-.27-.48-.29-1.46-.1-1.73-.53-1.11-1.84,.36-.07,.54,.74,1.01,.21,.06-.07,.23-.04,.36-.05-.08,.68,.47,.41,.77,.56,.41,.2,1.01,.5,.36,1.11,.35,.22-.35,1.17,.66,.96,.07-.02,.29,.2,.28,.3-.03,.37-.14,.74-.2,1.12-.03,.19,0,.39-.01,.59,.12-.09,.23-.19,.37-.25,.18-.09,.45-.81,.55,.04,.07,.57,.06,1.19,.91,.66,.27,.35,.58,.67,.82,1.04,1.12,1.72,1.11,1.73,2.89,2.32,.21,.07,.48-.03,.66,.06,.95,.49,1.87,.55,2.83,.02,.1-.06,.34,.14,.52,.22-.12,.15-.25,.42-.35,.41-.39-.03-.62,.14-.89,.38-.51,.48,.22,.65,.21,1.01,0,.3-.17,.76,.42,.7,.32-.03,.89-.07,.91-.18,.17-.99,.6-.15,.63-.05,.18,.69,.45,1.07,1.18,.59,.37,.3,1.14,.23,.99,1.04-.52,.03-.29,.43-.35,.77,0,.03,0-.03,0-.08-.09,.03-.19,.05-.26,.1-.02,.02,.04,.14,.06,.21,.07-.05,.14-.11,.2-.24,.52-.11,.29-.51,.34-.77,.31,.48,1.07-.22,1.25,.41,.25,.91,.86,1.07,1.65,.97,.84-.1,.38,.63,.61,.9,.26,.3,.71-.73,.97,.09,.02,.05,0,.11,0,.17-.02,.54,.11,.75,.69,.43,.26-.15,.7-.2,.94-.08,.23,.12,.39,.53,.42,.83,.08,.79,.47,.05,.55,.13,.22,.22,.32,.55,.51,.81,.17,.23,.39,.42,.61,.61,.09,.08,.32,.17,.35,.13,.42-.49,.66-.1,.97,.15,.42,.35,1.06,.57,1.27,1,.35,.7,.82,.74,1.44,.72,.12,0,.27,.2,.36,.34,.14,.2,.25,.43,.37,.65,.32-.51,.54-.13,.72,.11,.16,.21,.23,.48,.38,.7,.09,.12,.28,.27,.4,.25,.56-.11,.77,.4,1.15,.59,.36,.18,.58,.35,.71,.73,.08,.22,.49-.68,.58,.1,.08,.66,.67,.14,.95,.4,.32,.29,.96,.45,1.02,.75,.16,.85,.89,.91,1.41,1.21,.17,.1,.58,.69,.9,.05,.2,.31,.4,.62,.61,.92,.03,.04,.1,.11,.13,.09,.82-.36,.92,1.07,1.76,.72,.13-.05,.49,.13,.54,.27,.32,.91,1.2,1.22,1.79,1.83,.45,.46,.74,.99,1.47,1,.15,0,.42,.23,.41,.34-.02,.49,.09,.7,.65,.7,.71,0,1.02,.63,1.38,1.14,.19,.26,.29,.59,.51,.81,.08,.09,.37-.03,.57-.05-.09-.48,.28-.47,.58-.61,.21-.1,.45-.42,.45-.65,.02-.67,0-1.36-.14-2.01-.23-1-.23-1.17,.12-2.27,.11-.34,.09-1.03-.08-1.11-1.08-.48-.61-.94-.1-1.47,.07-.07,.04-.24,.06-.36-.94-.01-.43-.74-.51-1.13-.09-.44,.17-1.11-.06-1.34-.77-.76,.21-1.65-.31-2.37,.82-.88,.1-1.79-.04-2.64-.17-1.03-.59-2.03-1.22-2.9-.74,.05-.55-.65-.43-.81,.26-.35,.22-.47-.05-.78-.7-.8-1.25-1.68-1.03-2.85,.1-.57-.11-.99-.75-1.09-.44-.07-.22-.44-.27-.69,.61-.21,1.13-.53,1.35-1.18,.1-.3,.04-.6-.36-.53-.54,.1-.61-.26-.74-.63-.14-.4-.3-.78-.48-1.17-.04-.1-.16-.16-.24-.24-.07,.11-.22,.23-.21,.32,.05,.27-.57,.38-.11,.8,.32,.29,.06,.58-.41,.57-.55,0-.81-.33-.86-.8-.06-.45,.03-.91-.02-1.36-.05-.43-.43-.22-.76-.26-.03,0,.03,0,.08,0-.03-.09-.05-.19-.1-.26-.02-.02-.14,.04-.21,.06,.05,.07,.11,.14,.24,.2-.13,.26-.37,.5-.51,.79-.07,.15,.13,.48,.04,.57-.17,.18-.45,.28-.7,.36-.26,.08-.56,.05-.79,.17-.46,.23-.42,.46,.06,.88,.07,.06,.14,.24,.11,.3-.23,.42-.63,.43-1.04,.38-.06,0-.14-.2-.13-.21,.57-.53-.13-.58-.31-.81-.11-.14-.39-.2-.43-.35-.12-.44-.27-.91-.2-1.34,.07-.44,.73-.52,.84-.13,.12,.41,.27,.66,.69,.63,.43-.04,.88-.09,1.26-.27,.14-.06,.1-.51,.15-.77-.12,0-.24-.02-.35,0-.27,.04-.53,.12-.79,.16-.43,.07-.6-.08-.59-.55,0-.59,.19-1.22-.29-1.73,.79-.62-.37-1.19-.06-1.81,.04-.07-.12-.24-.19-.36-.12,.12-.31,.23-.35,.37-.09,.32-.09,.65-.13,.98-.26-.2-.51-.43-.78-.6-.12-.07-.35-.11-.45-.04-.1,.07-.1,.29-.15,.44l.87,2.27c.87,.09,.56,.46,.19,.84-.24,.25-.49,.48-.71,.74-.11,.12-.17,.28-.26,.42-.15-.23-.47-.59-.41-.66,.5-.63-.32-1.21-.03-1.8-.18-.07-.37-.2-.54-.18-.13,.02-.25,.21-.36,.34-.22,.26-.49,.3-.83,.12-.07-.04-.22-.1-.23-.08-.27,.36-.96,.54-.54,1.22,.01,.02-.15,.15-.23,.24,.58,.23,.15,.84,.45,1.18,.07,.08,.06,.24,.09,.36-1.21,.2,0,.49-.03,.73,0,.11-.03,.23-.04,.34-.28-.09-.73,.23-.82-.3-.13-.75-.22-1.51-.36-2.26-.06-.31-.22-.59-.24-1.05,.03-.1-.03-.05-.1,0l.15,.15c.05-.07,.11-.13,.15-.21,0-.01-.07-.07-.21,.05-.31,.12-.71,.09-.71,.04-.04-.53-.19-.97-.63-1.31-.04-.03,.01-.28,.09-.34,.16-.13,.37-.2,.56-.3,.34-.18,.33-.43,.08-.66-.15-.14-.27-.6-.61-.15-.13,.18-.32,.33-.5,.45-.07,.05-.22,.01-.32-.03-.04-.02-.06-.16-.04-.23,.21-.66,.9-.85,1.33-1.3,.07-.07,.42,.16,.64,.18,.21,.02,.42-.07,.63-.12-.05-.2-.04-.45-.17-.58-.27-.26-.63-.43-.91-.69-.13-.12-.17-.34-.25-.52,.26-.05,.24-.69,.75-.3,.23,.17,.64,.1,1.63,.16,.44-.09,.16-.25-.13-.35-.12-.04-.49,.54-.41,.62,.37,.32,.16,.73,.22,1.1,.02,.1,.08,.19,.11,.29,.12-.08,.3-.14,.35-.25,.18-.42,.33-.86-.15-1.4-.7-.46-.74-.9-.77-1.34-.98-.12-.33-.46-.09-.72,.22-.23,.2-.32-.12-.39-.25-.06-.48-.22-.71-.33,.33-.52,.62-1.03,.01-1.58-.08-.07-.01-.32-.01-.49,.38,0,.87,.1,.62-.59-.22-.61,.04-1.43,.55-1.78,.08-.06,.26-.09,.31-.04,.11,.09,.19,.24,.24,.38,.04,.1,.06,.28,0,.33-.85,.84,.26,1.65,.03,2.49-.03,.12,.25,.35,.41,.5,.39,.36,.48,.95,.22,1.35-.13,.2-.17,.47-.24,.71,.32,.1,.74,.38,.93,.26,.4-.25,.6-.13,.86,.14,.19,.21,.4,.42,.61,.61,.05,.04,.2,.05,.23,.01,.24-.29,.03-1.74-.37-1.83-1.05-.25-.44-.72-.18-1.51,.02-.21-.07-.09-.07,.03,0,.11,.12,.31,.15,.31,.17-.03,.34-.12,.5-.19-.15-.15-.3-.3-.58-.15-.55,.48-.93,.21-1.06-.14-.22-.6-.41-1.27-.37-1.9,.05-.74-.27-1.16-.74-1.61-.78-.73-1.06-.71-1.71,.14-.29,.38-.56,.84-.95,1.05-.21,.11-.74-.15-.99-.39-.32-.3-.44-.14-.63,.08-.29,.35-.31,.69,0,1.04,.7-.76,.59,.07,.49,.3-.28,.61-.35,1.05,.49,1.08,.76,.03,.95,.45,.93,1.12,0,.09,.21,.18,.33,.27,.14,.28-.65,.44-.09,.8,.07,.05-.03,.54-.07,.54-.27,.02-.59,.04-.79-.1-.19-.13-.21-.51-.39-.68-.32-.29-.7-.5-1.06-.75,.57-.37,.29-.7,.02-1.11-.2-.3-.3-.69-.35-1.06-.11-.84-.38-.1-.58-.08-.11,0-.24-.02-.34,0-.44,.11-.69,.84-.36,.92,.77,.19,.54,.69,.58,1.15,.03,.33,.07,.66,.13,.98,.04,.2,.13,.39,.19,.59-.22-.07-.44-.13-.66-.19-.42-.11-.51-.48-.73-.79-.73-1.02-.64-2.38-1.64-3.33-.65-.61-.33-1.1,.55-1.42,.2-.07,.42-.16,.55-.31,.12-.14,.25-.43,.18-.57-.16-.34-.43-.63-.64-.94-.24-.36-.42-.76-.69-1.09-.32-.39,.42-.47,.15-1-.32-.63-.67-1.39-.52-2.21,.02-.12-.18-.38-.33-.43-1.1-.37-1.44-1.14-1.4-2.24,.02-.51,.32-1.12-.23-1.57-.39,.3-.78,.62-1.18,.9-.06,.04-.26-.04-.35-.11-.09-.09-.21-.27-.18-.35,.17-.45,.31-.95,.61-1.29,.6-.67-.02-.68-.37-.87l.35-1.04c.8,.2,.78,.2,.7,1.02-.03,.3-.11,.57,.41,.74,.76,.26,1.04,1.06,1.31,1.79,.11,.3,.26,.59,.45,.85,.06,.08,.35,.1,.44,.03,.1-.08,.18-.34,.13-.44-.31-.57-.97-1.04-.4-1.81,.03-.04-.19-.24-.27-.39-.6-1.14-1.34-2.21-1.4-3.57,0-.18-.23-.37-.39-.52-.46-.46-.49-.75,.26-.86,.07,0,.13-.29,.13-.44,0-.07-.14-.18-.23-.2-.17-.03-.35-.04-.51,0-.58,.15-.51-.44-.76-.62-.45-.31,.37-.59-.03-.74-.27-.1-.55-.05-.53-.46,.02-.34,0-.69,0-1.04,0-.77-.67,.62-.71-.23-.03-.59-.21-1.17-.33-1.76-.02-.1-.08-.28-.12-.28-.55,0-.64-.35-.57-.78,.09-.55,.6-.15,.8-.33,.45-.41,.58-.26,.64,.25,.02,.13,.19,.35,.19,.35-.59,.35,.47,.74-.03,1.1-.45,.32,.03,.49,.18,.58,.13,.08,.39-.03,.59-.06,.01,.23,0,.46,.04,.67,.04,.2,.12,.39,.23,.57,.02,.04,.25,.03,.31-.03,.28-.26,.12-.46-.07-.72-.12-.16-.2-.51-.11-.62,.55-.66,.04-1.16-.17-1.74-.14-.39-.22-.89-.11-1.27,.24-.79,.3-.81-.38-1.15-.53-.26-1.1-.43-.48-1.18,.08-.1-.19-.45-.23-.69-.14-.8-.98-1.37-.75-2.29,.02-.08-.16-.3-.27-.31-.12-.02-.38,.11-.39,.19-.08,.82-.61,.52-.97,.36-.4-.17-.63-.69-.4-1,.52-.69,.84-1.7,1.98-1.64,.29,.01,.67-.19,.77,.38,.06,.34,.38,.63-.09,.9-.4,.23-.14,.41,.06,.61,.24,.24,.66,.27,.66-.01,.01-.68,1.07-.83,.75-1.62,0-.02,.32-.17,.5-.26,0,.12,0,.25-.03,.37-.04,.27-.21,.59-.11,.78,.08,.16,.49,.11,.71,.24,.14,.09,.32,.37,.27,.48-.14,.34-.4,.64-.58,.97-.23,.43-.07,.64,.4,.6,.56-.04,1.06-.04,.9,.77-.02,.07,.11,.25,.17,.25,.66,.01,.66,.28,.32,.74-.04,.05,.03,.29,.08,.3,.27,.06,.66,.01,.21,.43-.13,.12-.28,.23-.36,.37-.16,.27-.19,.55,.23,.6,.23,.03,.46,.02,.69,0,.45-.04,.85,0,.7,.6-.17,.67,.94,1.3,.03,1.97,.13,.07,.28,.21,.38,.18,.3-.1,.63-.21,.86-.41,.37-.33,1.12-.38,1.12,0-.01,1.1,.63,1.17,1.45,1.15,.1,0,.17,.35,.31,.45,.15,.11,.37,.16,.56,.15,.15,0,.26-.45,.45-.07,.05,.1-.03,.35-.14,.44-.2,.17-.47,.24-.69,.39-.59,.4-.81,1.22-.3,1.73,.42,.41,.32,.93,.59,1.32,.44,.64,.08,1.33,.23,1.98,.89,.02,.48,.98,.95,1.3-.08,.12-.18,.24-.24,.37-.19,.43,.19,.61,.42,.81,.06,.05,.31-.12,.47-.18,.03,.22,.06,.43,.1,.65,.04,.21,.05,.58,.15,.6,.32,.08,.67,.05,1.02,.04,.02,0,.07-.22,.04-.32-.1-.36-.25-.7-.35-1.06-.03-.11,0-.26,.05-.36,.42-.74,.42-.74-.52-1.01-.1-.03-.2-.06-.3-.1,.07-.12,.12-.27,.22-.36,.12-.1,.3-.13,.41-.24,.13-.13,.34-.35,.31-.46-.15-.41-.28,0-.43,.05-.75,.21-.9,.1-.92-.63,0-.12,0-.23,0-.35-.02-.46,.21-1.07-.59-1.1,.04-.53,.1-1.04-.06-1.59-.05-.19,.32-.69,.54-.72,.78-.1,.1-.4,.14-.56,.23-.77,.24-1.39-.67-1.68-.03,0-.07-.11-.05-.14,.14-.23,.27-.63,.44-.65,.35-.03,.54-.53,.95-.28,.96,.58,1.47,1.59,2.26,2.33,.09,.08-.24,.88-.36,.88-.98-.02-.22,1.07-.83,1.22,.18,.19,.34,.41,.55,.55,.08,.05,.29-.09,.43-.16,.02-.01,0-.11,0-.16,.13-.33,.23-.77,.72-.48,.45,.27,.45,.66,0,.94-.66,.42,.11,.82-.01,1.26-.12,.44,.34,.36,.59,.33,.56-.06,.87,.04,.78,.73-.06,.45-.23,1.07,.59,1.1,.03,0,.07,.08,.08,.13,.06,.48-1.01,2.02-1.48,2.1-.06,.01-.21-.16-.23-.26-.04-.22-.01-.46-.01-.69,.13-.19,.29-.37,.39-.57,.21-.4,.2-.4-.39-.46-.12-.18-.22-.38-.37-.53-.51-.51-1.05-1-1.58-1.49-.14,.72,.3,1.27,.51,1.89,.04,.12-.58,.38,.06,.47,.34,.05,.69,0,1.03,0l.35,.69c-.55,.94-.53,1.02,.36,1.38,.68,.27,.77,.52,.44,1.43-.13,.37-.33,.74,.15,.98,.62,.31,.61,.36,.16,.81-.31,.31-.78,.34-.91,.2-.36-.37-.59-.26-.75,.07-.24,.5,.35,.17,.42,.36,.07,.2,.03,.46,.13,.63,.26,.42-.57,.65-.12,1.16,.21,.23,.04,.76,.12,1.14,.1,.44,.24,.74-.15,1.23-.32,.39-.2,1.18-.17,1.78,0,.13,.4,.31,.65,.37,.68,.18,.82,.62,.7,1.31,0,.03,0-.03,0-.08-.09,.03-.19,.05-.26,.1-.02,.02,.04,.14,.06,.21,.07-.05,.14-.11,.2-.24,.23-.08,.46-.06,.69-.08,.61-.04,.69-.14,.8-.96,.64-.17-.45-.58,.14-.89,.4-.21-.25-.55-.22-.81,.04-.38-.35-.93,.53-.93,.41,.13,.61,.07,.8,0-.12-.07-.24-.19-.35-.19-.22,.01-.44,.1-.66,.15,.13,.07,.26,.15,.21,.04-.33-.38-.41-.63-.58-.72-.31-.18-.95-.25-.96-.39-.05-.84-.32-1.57-.64-2.33-.06-.15,.45-.55,.69-.83,.08,.09,.23,.19,.23,.28-.02,.37,.02,.73,.38,.86,.28,.11,.74,.2,.9,.06,.36-.33-.07-.57-.29-.8-.07-.07-.19-.09-.29-.13-.16-.8-.16-1.68-.53-2.36-.41-.74,.47-1.09,.25-1.67,.12,.05,.25,.08,.36,.15,.24,.15,.91,.15,.57,.55-.5,.6-.25,.9,.18,1.23,.38,.29-.23,.49-.07,.59,.21,.13,.59,.02,.78,.17,.24,.19,.46,.52,.5,.81,.07,.62,0,1.26,.03,1.9,.01,.26,.08,.56,.23,.76,.21,.27,.66,.42,.75,.7,.05,.18-.45,.47-.55,.77-.07,.18,.07,.56,.23,.69,.66,.52,.13,1.44,.72,1.96-.28,.22-.56,.43-.83,.66-.07,.06-.11,.16-.16,.24,.1,.04,.2,.12,.29,.12,1.15-.03,1.17,0,.94,.98-.03,.12-.07,.24-.11,.37,1.3,.37,1.09,1.16,.56,2.04,.54,.59,.09,1.54,.79,2.1,.35,.28,.15,.88,.03,1.06-.31,.48-.78,.8,.27,.73,.09,0,.24,.08,.27,.16,.15,.39-.24,1.05,.29,1.18,.81,.2,.37,.73,.4,1.09,.03,.38,.1,.66,.4,.88,.27,.2,.35,.37,.03,.62-.14,.11-.31,.33-.29,.48,.04,.25,.17,.53,.35,.71,.89,.88,1.54,2.1,1.6,3.11,.02,.37-.14,.86,.54,.78,0,0,.47,1.91,.47,1.91-.64,.33-.02,.75,.07,.91,.61,1.1,.65,1.08,.65,1.61,0,.75,0,1.5,0,2.24,0,.23,.03,.47,0,.69-.04,.26-.05,1.94,.04,2.15,.42,1.03,.42,1.13,.32,2.23-.02,.21,.04,.59,.13,.61,1.02,.25,.7,1.05,.36,1.39-.49,.47-.26,.81-.15,1.23,.19,.75,.23,.93-.16,1.54-.24,.38-.21,.59,.09,.85,.43,.37,.66,.78,.22,1.3-.05,.06-.06,.23-.05,.23,1.2,.36,.39,1.33,.57,1.98,.07,.24-.2,.56-.17,.83,.04,.36,.23,.71,.34,1.06,.14,.43,.65,.98-.33,1.06,.05,.16,.06,.36,.16,.48,.27,.31,.6,.53,.14,.98-.15,.15-.2,.67-.09,.77,.44,.36,.11,.51-.08,.77-.15,.2-.25,.48-.29,.74-.05,.38,.07,.7-.55,.82-.58,.11-.47,.8-.52,1.31-.03,.34-.21,.77-.7,.48-.28-.17-1.1-.1-.48-.82,.21-.24,.29-.45-.04-.66-.16,.65-.81-.22-.79,.17,.02,.67-.58,.4-.78,.69-.12,.17-.39,.33-.59,.34-.31,0-.64-.1-.93-.23-.32-.15-.17-.65,.27-1,.11-.09,.19-.23,.28-.34-.15-.12-.3-.33-.45-.33-.32,0-.74,0-.93,.2-.39,.39-.65,.57-1,0-.19-.31-.32,0-.49,.04-1.16,.27-1.74-.04-2.35-1.17-.13-.23-.21-.51-.38-.7-.18-.2-.43-.43-.66-.44-.45-.02-.24,.4-.3,.64-.04,.18-1.17,.42-1.29,.27-.06-.08-.04-.22-.09-.31-.22-.37-.5-.71-.67-1.1-.22-.49-.49,.4-.88-.13-.42-.57-1.02-1.33-1.74-1.41-.87-.1-1.28-.82-1.99-1.06-.3-.1-.77-.28-.8-.48-.12-.73-.76-.72-1.18-.9-.69-.29-1.38-.41-1.98-1.03-.56-.58-1.55-.58-2.31-1.03-.7-.41-1.48-.58-2.03-1.33-.28-.38-.73-.92-1.47-.91-.43,0-1.06-.25-1.26-.6-.6-1.02-1.67-1.25-2.58-1.67-.59-.27-.49-.78-.71-1.16-.22-.39-.27-.07-.44-.03-.55,.13-1.17,.46-1.43-.48-.06-.21-.64-.49-.81-.4-1.17,.61-1.08-.54-1.47-1.01-.06-.07,0-.23,0-.34-.08-.6-.36-.81-.92-.48-.25-.45-.91,.31-1.11-.4-.09-.33-.43,.03-.45,.02-.41-.26-1.24,.29-1.33-.67-.01-.15-.41-.26-.62-.4-.36-.24-.86-.41-1.04-.75-.23-.44-.73,.71-.75-.21-.01-.54-.6-.56-.97-.77l-1.08-.93c-.28-.22-.55-.58-.86-.62-.51-.07-.94-.79-1.51-.25-.26,.25-.34,.08-.5-.06-.2-.17-.38,.53-.56,.06-.08-.22,.02-.55,.14-.79,.06-.13,.32-.17,.49-.25-.15-.04-.38-.04-.45-.14-.3-.43-.38-1.06-1.09-1.06,0-.99-1.39-1.36-1.16-2.41,.21-.95-.47-1.3-1.04-1.3-.67,0-.65-.68-.9-.7-.72-.06-.4-.54-.51-.85-.1-.3-.28-.81-.44-.81-.7-.03-.55-.74-.94-1.02-.4-.28-.85-.62-.7-1.26,.01-.05-.22-.17-.35-.25-.13-.09-.28-.16-.41-.26-.46-.34-.16-.85-.27-1.27-.13-.51-.86,.15-1.05-.54-.31-1.13-1.26-1.9-1.96-2.8-.31-.4-.46-.73-.45-1.21,0-.16-.16-.42-.3-.47-.83-.25-1.11-.35-1.39-1.04-.32-.8-.88-1.39-1.46-1.99-.3-.31-.49-.71-.74-1.07-.32-.45-.62-.91-.98-1.32-.47-.54-1.19-.93-1-1.85,.02-.09-.25-.28-.41-.35-1.02-.4-1.58-1.27-2.17-2.11-.43-.62-.75-1.33-1.24-1.89-.47-.54-.42-1.43-1.29-1.73-.22-.07-.26-.66-.39-1.01-.07-.18-.22-.51-.25-.51-.32,.1-.61-.68-.94-.04-.06-.37-.05-.77-.21-1.08-.13-.26-.43-.52-.71-.6-.37-.11-.81,.02-1.18-.08-.11-.03-.65-.18-.3-.72,.24-.37,.12-.98,.14-1.48,.03-.63-.18-.5-.51-.18-.1,.1-.33,.05-.45,.14-.18,.12-.45,.37-.38-.04,.06-.43-.46-.72-.18-1.16,.05-.08-.09-.39-.22-.46-.38-.21-.88-.28-.68-.92,.02-.06-.22-.29-.3-.27-.64,.11-1-.35-1.22-.75-.17-.31-.81-.69-.2-1.2,.05-.04-.11-.29-.12-.45-.04-.45-.86-.06-.74-.73,.08-.46-.37-.83-.45-1.21-.09-.43-.28-.82-.39-1.23-.26-.93-.48-1.88-.69-2.82-.04-.16,.03-.35-.01-.52-.09-.41,.71-.65,.18-1.19-.13-.14,.1-.64,.27-1.14,.03-.1-.03-.05-.1,0l.15,.15c.05-.07,.11-.13,.15-.21,0-.01-.07-.07-.21,.05-.31,.12-.63,.15-.71,.03-.17-.24-.12-.47,.28-.58,.27-.08,.55-.38,.65-.64,.09-.24,.2-.67-.37-.73-.41-.04-.83-.21-1.19-.41-.12-.06-.09-.4,.16-1.45,.15-.84-.52-.27-.51-.25,.13,.36,.26,.73,.39,1.09l1.17-.83c-.27-.3-.54-.6-1.05,0-.51,.9-.73,.97-.95,1.04-.18-.63-.74-.24-1.1-.41l-.66-.24c-.43-.92-1.27-1.37-2.11-1.82-.08-.04-.26,.02-.36,.08-.29,.19-.5,.22-.65-.16-.08-.2-.17-.42-.32-.55-.45-.39-1.17-.67-1.34-1.14-.2-.56-.37-1.1-.68-1.62-.17-.28-.15-.63-.61-.59-.07,0-.2-.14-.24-.23-.14-.35-.21-.72-.39-1.05-.08-.15-.38,.63-.6-.1-.21-.7-.61-1.42-1.13-1.93-.49-.48-.64-1.25-1.39-1.52-.23-.08-.45-.5-.48-.79-.08-.77-.18-1.49-.73-2.13-.25-.3,.09-.84-.23-1.29-.16-.22-.76-.59-.21-1.05,.02-.02,.02-.11,.01-.11-.48-.13-1.02-.17-1.18-.79-.31,.5-.49,.09-.74-.09-.62-.43-.32-.56,.17-.76,.25-.1,.43-.38,.61-.6,.04-.05-.02-.27-.09-.3-.28-.14-.59-.23-.88-.36-.09-.04-.16-.12-.23-.19,.92-1.03-.53-1.1-.68-1.69-.04-.14,.03-.31,.07-.46,.03-.13,.08-.24,.12-.37-.98,.1-.35-.88-.8-1.22-.39-.29-.47-.97-.82-1.35-.38-.4-.05-.64,.02-.94,.13-.55,.44-.43,.7-.15,.21,.23,.29,.59,.51,.81,.17,.18,.46,.33,.7,.35,.76,.08,1.32,.41,1.53,1.08,.16,.51,.24,1.05,.35,1.58,.01,.06-.02,.15,0,.17,.28,.22,.68,.38,.84,.67,.13,.23-.1,.64-.02,.93,.05,.18,.44,.24,.54,.43,.18,.32,.28,.69,.35,1.06,.06,.32-.08,.63,.48,.7,.32,.04,.66,.41,.57,.91-.09,.53-.02,.83,.7,.82,.6,0,.32,.56,.25,.9-.03,.13-.11,.25-.16,.37,.2-.03,.46,0,.57-.11,.18-.18,.22-.49,.39-.69,.15-.17,.4-.27,.6-.4-.16,.37,.54,.52,.21,.96-.22,.29-.34,.66-.5,1.08,0,.03,0-.03,0-.08-.09,.03-.19,.05-.26,.1-.02,.02,.04,.14,.06,.21,.07-.05,.14-.11,.2-.24,.18,.04,.36,.24,.55,.25,.27,.02,.71-.24,.79-.14,.31,.36,.63,.79,.7,1.24,.07,.5,.21,.57,.67,.7,.45,.12,1.26,.16,1.12,1.08-.02,.13,.21,.88,.76,.33,.03-.02,.19,.03,.23,.09,.3,.51,.59,.95,1.3,.97,.48,.02,.49,1.23,1.34,.62,.44,.32,.84,.83,1.33,.92,.4,.08,.78,.93,1.31,.19,.01-.02,.32,.15,.46,.27,.46,.39,.86,.83,1.42,1.14,.42,.23,.47-.01,.63-.16,.25-.23,.24-.66-.05-.63-.65,.06-.33-.61-.71-.75-.34-.12-.6-.55-.94-.61-.83-.15-.91-.66-.9-1.35,0-.43-.63-.62-.97-.3-.13,.13-.17,.35-.25,.53-.04-.04-.09-.07-.12-.12-.13-.23-.39-.65-.35-.68,.54-.44,.09-.77-.18-.86-.96-.31-1.31-.91-1.24-1.9,.02-.34-.14-.75-.35-1.04-.12-.16-.49-.22-.74-.2-.44,.04-.22,.43-.27,.68-.22,.07-.49,.25-.65,.18-.36-.16-.27-.36-.09-.74,.17-.37,.36-1.14-.54-1.27-.17-.03-.45-.36-.41-.48,.28-1.16-1.04-1.66-1.09-2.68,0-.03-.62,0-.63-.07-.07-.33-.03-.68-.03-1.03,0-.75-.28-.35-.52-.13-.17-.27-.35-.54-.51-.83-.1-.17-.18-.53-.24-.53-1.16,.16-.81-.71-.78-1.23,.04-.61-.18-.93-.73-1.06-.76-.18-.77-1.31-1.66-1.32,.71-.5-.09-.94-.06-1.42,.03-.55-.22-1.18-.49-1.17-.5,.01-.43-.5-.61-.58-.57-.25,.16-1.31-.82-1.23-.07,0,.42-.95,.43-.91,.32,.8,.99-.43,1.38,.24,.07,.12,.47,.11,.47,.49,0,.19,.08,.47,.22,.55,.22,.13,.52,.12,.79,.18-.59,.37,.16,.72,.02,1.09-.04,.1-.02,.23,.02,.33,.27,.73,.78,1.1,1.49,.79,.37-.16,.51-.18,.78,.04,.11,.1,.5-.12,.35,.28-.06,.15-.32,.37-.34,.35-.78-.54-.69,.27-.54,.45,.4,.51,.91,.95,1.44,1.32,.43,.3,.97,.44,1.43,.69,.38,.21,.86,.41,1.04,.75,.15,.28-.11,.76-.14,1.15-.04,.45,.05,.7,.47,.23,.06,.17,.22,.42,.16,.5-.25,.32-.59,.57,.05,.85,.44,.2,.85,.65,1.26-.05,.08-.14,.26-.23,.36-.37,.19-.27,.22-.58-.18-.61-1.32-.1-.9-1.39-1.41-2.04-.05-.06,.17-.37,.3-.54,.21-.27,.43-.27,.72-.05,.14,.11,.38,.09,.58,.12-.07-.16-.14-.32-.2-.49,0-.02,.07-.08,.12-.12,.12-.12,.24-.24,.37-.35,.06,.09,.15,.18,.16,.28,.02,.46,.04,.92-.01,1.38-.02,.15-.21,.33-.37,.4-.22,.1-.66-.13-.62,.32,.02,.23,.26,.48,.45,.66,.15,.14,.41,.14,.57,.26,.27,.21,.51,.44,.18,.83-.21,.24-.39,.53-.48,.83-.15,.49-.2,1.01-.3,1.52,.71-.07,.55,.71,.94,.97,.5,.33,.65,.59,.68,.74,.05,.23,.97,.93,1.46,1.12l2,1.27c0,.81,1.29,.24,1.22,1.13,.29-.49,.51-.18,.73,.07,.36,.4-.1,.57-.21,.85-.05,.11,.08,.3,.13,.45,.18-.07,.42-.09,.53-.22,.17-.2,.41-.59,.33-.69-.39-.52,.09-.99,0-1.46-.02-.14-.25-.27-.41-.36-.38-.24-.75-.45-.28-.96,.05-.05-.15-.39-.28-.55-.25-.3-.67-.53-.19-.97,.03-.03-.05-.23-.12-.29-.26-.2-.54-.37-.8-.56-.46-.33-.65-.59-.66-.9-.02-.48,.15-1.07-.64-1.09-.02-.51,0-1.03-.07-1.53-.02-.15-.24-.4-.36-.4-.52,.03-.64-.15-.69-.67-.06-.76,.38-1.61-.31-2.28,.3-.61-.77-.32-.55-.83,.15-.33-.19-.74,.19-1.03,.03-.02-.09-.3-.19-.42-.65-.8-.4-1.82-.66-2.72-.04-.13,.18-.27-.14-.39-.26-.09-.87-2.02-.71-2.14,.32-.25,.71-.45,1.09-.59,.69-.26,.7-.24,.5-.99-.03-.12-.1-.25-.08-.36,.02-.09,.14-.21,.23-.23,.09-.02,.29,.08,.29,.1-.05,.43,.12,.74,.42,1.05,.17,.17,.24,.48,.27,.74,.04,.4-.16,.99,.04,1.17,.47,.42-.09,.66-.02,.96,.14,.57,.25,1.17,.52,1.68,.37,.72,.84,1.39,1.34,2.03,.2,.26,.04,.31-.04,.51-.27,.62-.09,1.11,.61,1.27,.34,.08,.27,.13,.14,.4-.12,.26-.17,.8-.04,.89,.66,.44,.5,1.08,.6,1.68,.15,.9,.48,1.34,1.28,1.88,.13,.09,.36,.1,.42,.21,.23,.42,.32,.98,.65,1.26,.34,.28,1.02,.16,1.33,.45,.19,.18,.23,.58,.63,.54,.31-.03-.12,1.15,.61,.36,.37,.4,.6,.12,.86-.16,.07-.08,.24-.06,.36-.09,.01,.11,.06,.25,.02,.33-.08,.14-.27,.24-.31,.39-.04,.13,.05,.31,.09,.46,.08-.04,.17-.08,.24-.12,.28-.17,.53-.39,.83-.48,.16-.05,.24,.44,.65,.12,.22-.17,.6,.26,.6,.71,0,.06,.37,.21,.4,.17,.12-.14,.28-.47,.24-.5-.32-.25-.34-.57-.32-.92,0-.14,.31-.51,.64-.77,.13-.11,.27-.23,.36-.37,.05-.08,.07-.27,.02-.32-.1-.1-.27-.22-.4-.21-.81,.04-1.28-.17-1.3-.78-.03-1.19-.39-2.23-1.04-3.2-.05-.08-.01-.23,0-.34,.03-.52-.09-.62-.5-.23-.07,.07-.4-.06-.56-.17-.13-.09-.48-.36-.12-.45,.79-.2-.03-.86,.39-1.14,.09-.06,.09-.43,.08-.43-.9-.2-.66-1.11-1.01-1.64-.15-.23-.32-.37-.08-.79,.23-.4-.22-.92-.71-1.21-.13-.08-.25-.48-.21-.51,.48-.34,.06-.5-.09-.76-.26-.44-1.1-.3-1-1.12,.06-.55-.93-.71-.69-1.45,.01-.04-.29-.23-.46-.29-.9-.31-1.39-1.49-.89-2.23,.16-.23,.43-.39,.58-.63,.35-.56,.51,.23,.79,.09Zm14.49,59.25v-.15c-.09,.03-.19,.05-.26,.1-.02,.02,.04,.14,.06,.21,.07-.05,.14-.11,.41-.63l-.2,.16,.15,.15c.05-.07,.11-.13,.15-.21,0-.01-.07-.07-.31,.36Zm36.2-30.36l-.16-.2-.15,.15c.07,.05,.13,.11,.21,.15,.01,0,.07-.07-.36-.31h.15c-.03-.09-.05-.19-.1-.26-.02-.02-.14,.04-.21,.06,.05,.07,.11,.14,.63,.41Zm-28.29-9.68l-.16-.2-.15,.15c.07,.05,.13,.11,.21,.15,.01,0,.07-.07-.36-.31h.15c-.03-.09-.05-.19-.1-.26-.02-.02-.14,.04-.21,.06,.05,.07,.11,.14,.63,.41Zm-3.91,48.21l-.2,.16,.15,.15c.05-.07,.11-.13,.15-.21,0-.01-.07-.07-.31,.36v-.15c-.09,.03-.19,.05-.26,.1-.02,.02,.04,.14,.06,.21,.07-.05,.14-.11,.41-.63ZM26.71,38.99c-.11,.27-.17,.39-.2,.51-.02,.1,0,.21,0,.32,.12-.08,.29-.14,.33-.24,.04-.12-.05-.28-.33,.4v-.15c-.09,.03-.19,.05-.26,.1-.02,.02,.04,.14,.06,.21,.07-.05,.14-.11,.41-1.14Zm9.64-18.52h.15c-.03-.09-.05-.19-.1-.26-.02-.02-.14,.04-.21,.06,.05,.07,.11,.14,1.15,.67-.27-.18-.47-.33-.69-.46-.02,0-.14,.1-.15,.15-.03,.27-.03,.56,.37,.52,.09,0,.18-.08-.53-.69Zm-6.43,47.2l-.16-.2-.15,.15c.07,.05,.13,.11,.21,.15,.01,0,.07-.07-.21-.97,0-.06,.01-.12,0-.17-.06-.18-.13-.35-.2-.53-.05,.2-.11,.4-.14,.6-.02,.16-.03,.33,0,.5,.02,.09,.11,.17,.17,.25,.06-.06,.15-.11,.16-.17,.02-.16,0-.33,.32,.37Zm48.52-3.66h.15c-.03-.09-.05-.19-.1-.26-.02-.02-.14,.04-.21,.06,.05,.07,.11,.14,1.17,.55-.24-.16-.37-.29-.53-.33-.09-.02-.29,.08-.31,.15-.06,.28-.02,.57,.38,.51,.12-.02,.22-.15-.55-.68Zm-.91-1.87l-.16-.2-.15,.15c.07,.05,.13,.11,.21,.15,.01,0,.07-.07-.38-.31,.22-.22,.45-.42,.64-.66,.07-.08,.05-.23,.07-.36-.15,.02-.36,0-.45,.08-.18,.19-.31,.43-.42,.67-.02,.05,.1,.17,.65,.46Zm1.6-.2h.15c-.03-.09-.05-.19-.1-.26-.02-.02-.14,.04-.21,.06,.05,.07,.11,.14,.77,.87l-.29-.67c-.17,.23-.36,.44-.49,.68-.03,.06,.14,.23,.22,.35,.18-.11,.35-.23-.04-1.04Zm-20.01-2.07h.15c-.03-.09-.05-.19-.1-.26-.02-.02-.14,.04-.21,.06,.05,.07,.11,.14,.96,.69l-.47-.48c-.17,.23-.46,.46-.48,.71-.02,.2,.29,.43,.45,.64,.17-.29,.34-.58-.29-1.35Zm-8.5-27.79l-.16-.2-.15,.15c.07,.05,.13,.11,.21,.15,.01,0,.07-.07-.48-.28,.07-.05,.24-.11,.26-.2,.1-.42-.24-1.23-.45-1.14-.18,.07-.27,.38-.37,.59-.21,.48,.15,.6,1.15,.92Zm31.92,30.63c-.25-.04-.37-.04-.49-.08-.25-.07-.52-.12-.75-.24-.37-.2-.04-.38,0-.6,.05-.3-.63-.65-.85-.45-.17,.15-.54,.22-.25,.74,.3,.53,.35,1.22,.77,1.73,.17,.21,.26,.26,.41-.07,.14-.3,.48-.5,.74-.74,.08-.07,.18-.12,.47-.67l-.2,.16,.15,.15c.05-.07,.11-.13,.15-.21,0-.01-.07-.07-.16,.28Zm-55.16-2.49h.15c-.03-.09-.05-.19-.1-.26-.02-.02-.14,.04-.21,.06,.05,.07,.11,.14,.26,.51,.06,.26,.09,.48,.18,.67,.27,.63,.61,1.24,.82,1.89,.17,.51,0,1.24,.3,1.57,.31,.33,1.08-.18,1.57,.28,.04,.04,.21,.03,.23,0,.05-.09,.07-.22,.05-.32-.02-.1-.1-.2-.19-.26-.47-.33-.61-.91-1.16-1.24-.92-.54-1.17-1.55-1.08-2.62,0-.07-.32-.2-.5-.25-.04-.01-.15,.19-.32-.02Zm23.77,4.19c.16-.17,.31-.29,.4-.44,.03-.06-.06-.19-.1-.29-.15,.1-.35,.16-.44,.3-.05,.07,.08,.27,.33,.39-.12,.24-.23,.48-.34,.71-.29,.62-.3,.63,.4,.88,.12,.04,.32-.12,.48-.19,.05,.21,.16,.42,.14,.62-.07,.81,.94,1.43,.37,2.32,0,.01,.07,.08,.12,.12,.25-.41,.61,.07,.84-.1,.25-.18,.67-.49,.3-.79-.5-.41,.25-.52,.82-1.62l-.72,.82c.14,.08,.36,.25,.4,.22,.23-.21,.42-.47,.6-.72,.01-.02-.12-.13-1,.5-.48-.13-.59-.47-.72-.94-.23-.86-.57-1.75-1.89-1.78Zm43.69,59.75l-.21-.35c-.05,.05-.16,.12-.15,.16,.05,.17,.13,.34,.19,.5,.05-.09,.1-.17-8.83-5.82-.03,.93,.47,1.64,1.21,1.71,.4,.04,.78,.04,1.05-.33,.2,.32,.4,.64,.62,.95,0,.01,.16-.05,.23-.11,.39-.31,.39,.22,.61,.27-.47,.78,.45,.61,.67,.92,.11,.16,.6,.03,.75,.18,.82,.87,2.02,.98,2.98,1.55,.1,.06,.33-.1,.51-.16-.09-.17-.14-.42-.28-.51-.81-.47-1.62-.94-2.23-1.67-.28-.33-.6-.46-1.03-.43-.63,.06-.91-.28-.96-.9-.01-.17-.2-.46-.3-.46-.72,.04-1.15-.64-1.78-.69-.48-.04-.73-.1-.68-.66,.06-.65-.71-.32-.9-.7-.16,.28-.32,.56-.47,.84-.02,.04,0,.11,8.99,5.69ZM39.41,20.39c-.28-.71-.52-1.46-.86-2.17-.15-.31-.48-.23-.68,.04-.1,.13-.11,.32-.16,.48,.82-.05,.5,.58,.51,.94,.01,.42,.04,.79,.42,1.02,.13,.08,.31,.13,.46,.11,.09-.01,.15-.19,2.24,6.34-.17,.25-.51,.57,0,.73,.69,.21,.76,.65,.71,1.25-.02,.24,.19,.5,.22,.76,.08,.67,.39,.44,.79,.28,.49-.19,.4-.71,.68-1.01,.03-.03-.1-.31-.21-.37-.28-.15-.59-.23-.88-.37-.08-.04-.16-.26-.14-.28,.48-.36-.25-.48-.15-.82,.1-.31,.06-.69,.01-1.03-.11-.75-.26-1.5-.39-2.25-1.09-.04-.77-1.19-1.31-1.67-.46-.41-.73-.95-.72-1.6,0-.07-.19-.2-.26-.18-.15,.03-.34,.12-.4,.24-.07,.14-.09,.44,0,.49,.44,.3,.25,.53-.05,.75-.2,.15-.45,.24-.63,.41-.04,.03,.11,.27,.17,.41,.42-.62,.67-.05,.83,.19,.3,.44,.52,.93,.7,1.43,.22,.6,.36,1.23,.53,1.85,.72-.09,.47,.45-1.41-5.96Zm45.6,61.27c.47,.63,.63-.04,.81-.25,.11-.13,.11-.49,0-.66-.45-.78-.32-1.63-.32-2.45,0-.38-.14-.51-.5-.47-.44,.04-.76-.17-.8-.59-.09-1.02-.12-.98-.5-1.49-.3-.4-.43-.93-.6-1.42-.01-.04,.32-.17,.46-.3,.06-.06,.08-.27,.03-.33-.23-.25-.47-.63-.74-.67-.79-.11-.29-.36-.09-.56,.3-.3,.5-.47-.16-.54-.29-.03-.55-.37-.82-.56,.53-.46-.12-.74-.22-1.06-.07-.24-.17-.35,.06-.5,.75-.48,.09-.5-.19-.75-.35-.33-.55-.81-.88-1.17-.3-.33-.33-.6,.03-.84,.74-.49-.03-.48-.17-.76-.34-.7-.85-.89-1.52-.89-.09,0-.26,.09-.26,.15-.01,.15,0,.37,.09,.45,.15,.13,.39,.16,.57,.26,.48,.27,.23,.51-.05,.73-.8,.61-.8,.62-.33,1.3l.23,1.22-.15,.24c.94,.09,.62,1.12,1.16,1.59,.47,.41,.86,1.21,.38,1.93-.18,.27-.03,.32,.05,.51,.29,.71,.99,.89,1.52,1.28,.09,.06,.17,.17,.19,.27,.26,1.13,.27,1.12,.95,1.81,.12,.12,.19,.46,.12,.55-.25,.29-.36,.49-.08,.87,.17,.23,.13,.63,.16,.96,.04,.31-.52,.54-.03,.96,.2,.17,0,.77,.04,1.17,.04,.42,.39,.44,.58,.22,.31-.37,.77,.28,.99-.21Zm5.67,2.55c-.01,.55-.01,.55,.34,.37,.08-.04,.19-.12,.24-.09,.37,.23,.79,.42,1.06,.74,.23,.26,.31,.67,.4,1.03,0,.04-.37,.13-.51,.27-.1,.09-.19,.35-.14,.44,.43,.71,.93,1.39,.86,2.29,.82,.11-.03,.83,.39,1.12,.05,.04-.27,.47-.21,.65,.3,.91,.66,1.8,1.02,2.68,.1,.25,.3,.45,.46,.67,.16-.24,.44-.48,.46-.74,.04-.53-.31-1.13,.42-1.47,.02,0-.12-.37-.2-.57-.08-.2-.11-.45-.25-.58-.17-.15-.53,0-.57-.44-.08-1.05-.23-2.09-.33-3.14-.03-.35,.04-.69-.51-.66-.16,0-.33-.29-.49-.45,.45-.38-.15-.72-.03-1.08,.08-.25,.28-.47,.33-.72,.08-.47-.08-.56-.6-.39-.12,.04-.24,.09-.37,.14,0-.16-.06-.35,.01-.46,.12-.19,.36-.31,.46-.5,.08-.16,.04-.39,.05-.58-.2,.03-.42,.02-.58,.11-.19,.11-.33,.31-.49,.48-.39-.5-.64-.11-.84,.17-.21,.3-.36,.64-.39,.71Zm-35.12,17s.13,.18,.24,.28c.44,.36,.8,.18,1.06-.51,.32-.89,.32-.86,1.21-.69,.32,.06,.52,.06,.52,.46,0,.41-.06,.61-.55,.62-.41,0-.64,.46-.5,.79,.2,.47,1.1,.76,1.6,.52,.48-.23,.58-.8,.3-1.35-.05-.11,.18-.37,.12-.47-.33-.54-.29-1.46-1.13-1.52-.65-.04-.55-.59-.81-.88-.37-.4-.44,.02-.62,.14-.05,.03-.1,.07-.12,.12-.08,.19,.63,.35,.05,.54-.38,.12-.44-.18-.46-.51,0-.06-.3-.19-.42-.16-.43,.14-.02,.27,.01,.43,.1,.48,.26,.97-.18,1.41-.17,.17-.21,.48-.34,.79Zm-5.86-30.69c-.27-.16-.52-.31-.77-.46-.26-.15-.31-.66-.89-.23-.42,.31-.86,.42-.84,1.04,.02,.5,.17,.36,.46,.14,.23-.18,.56-.18,.57,.26,.02,.81,0,1.61,0,2.42,0,.32,.12,.4,.36,.15,.23-.23,.77-.1,.7-.73-.04-.39,.43-1,.27-1.2-.4-.52-.3-.88,.13-1.39Zm9.56-36.72c-.08-.06-.15-.18-.23-.18-.29-.02-.58,.03-.86-.02-.89-.13-.88,.71-1.21,1.15-.37,.48,.22,.67,.44,.94,.25,.31,.53,.62,.86,.84,.2,.14,.56,.24,.77,.15,.15-.06,.24-.45,.24-.69,0-.25-.15-.5-.25-.75-.18-.46-.57-.94,.12-1.32,.05-.03,.08-.08,.12-.12Zm-17.01,33.08c.03,.08,0-.07-.03-.07-.81,.03-.51-.58-.53-.95-.02-.38-.16-.48-.51-.47-.69,.02-.77-.31-.68-.95,.03-.21-.31-.51,0-.84,.04-.05-.17-.46-.35-.56-.27-.15-.62-.06-.52,.33,.07,.26-.79,.41-.04,.67,.15,.05,.35,.39,.34,.4-.52,.49,.13,.95,.04,1.45-.15,.82,.69,.66,1.09,.88,.45,.25,.09,.74,.28,.85,.55,.3,.22,1.19,.44,1.14,.48-.12,.13-.73,.24-1.12,.05-.2,.12-.4,.22-.74Zm43.28,52.4c-.56-.66-.65-1.52-.87-2.35-.03-.13-.43-.29-.45-.27-.41,.49-.67,.15-.97-.13-.12-.11-.32-.12-.48-.18-.08,.28-.26,.77-.22,.8,.55,.27,.41,1.38,1.4,1.16,.11-.03,.34,.5,.54,.75,.17,.21,.37,.41,.58,.58,.06,.05,.23,.02,.31-.04,.08-.05,.1-.18,.17-.33Zm-17.28-58.37c0,.33-.05,.58,.01,.79,.2,.66,.63,1.31,.63,1.96,0,.81,1.06,1.1,.78,1.95,0,.01,.19,.15,.27,.13,.14-.04,.36-.15,.36-.23,0-.27-.08-.53-.16-.79-.13-.44-.53-1.07-.38-1.27,.47-.6,.05-1-.28-1.07-.57-.12-.56-.41-.56-.82,0-.21-.06-.43-.15-.62-.07-.15-.23-.25-.36-.37l-.17,.35ZM26.39,37.8c.18,.31,.33,.58,.49,.85,.16,.26,.66,0,.68,.56,.02,.51,.57,.13,.83,.28,.32,.19-.44,.7,.17,.82,.25,.05,.55-.06,.81-.15,.42-.15,.05-.29-.03-.44-.1-.19-.11-.46-.26-.57-.63-.5-1.46-.78-1.7-1.69-.02-.07-.42-.08-.64-.04-.11,.02-.2,.2-.36,.38Zm38.93,22.89c-.32,.04-.46,.02-.56,.08-.46,.28-.87,.22-1.17-.22-.3-.44-.48-.22-.75,.03-.19,.18-.49,.22-.69,.39-.1,.08-.08,.3-.12,.45,.12-.01,.24-.04,.36-.03,.52,.05,1.19,.22,1.27,.68,.23,1.23,.73-.24,.99,.16l.65-1.55Zm-15.01,28.59c-.11-.15-.26-.43-.47-.66-.21-.23-.45-.64-.79-.33-.15,.14-.04,.59,0,.89,.04,.31,.28,.82,.18,.89-.69,.48-.05,.87,.04,1.28,.02,.1,.1,.19,.15,.28,.07-.13,.13-.26,.2-.38,.27-.47,.04-1.16,.66-1.49,.05-.03,.02-.21,.04-.48Zm31.93-6.23c.25-.33,.72-.67,.7-.98-.04-.7-.62-1.11-1.27-1.31-.57-.18-.21,.59-.6,.65-.09,.01-.23,.15-.23,.23,0,.16,.06,.45,.15,.47,.48,.11,1.12-.07,1.09,.77,0,.04,.08,.08,.17,.17Zm-28.36-13.85c-.85-.12-1.59,.19-2.17,.85-.05,.06,.11,.32,.17,.49,.28-.54,.51,.05,.76,.04,.64-.04,1.21-.08,1.52-.88,.19-.47,.28-.54-.29-.5Zm-28.43-11.81c0-.11,.05-.28,0-.33-.23-.19-.48-.36-.74-.52-.07-.04-.25,.2-.36,.46-.07,.18,.13,1.68,.28,1.87,.09,.11,.3,.27,.34,.24,.18-.12,.31-.3,.46-.47-.55-.43,.24-.83,.02-1.26Zm41.83,4.6c-.16-.5-.28-.9-.43-1.3-.05-.14-.18-.24-.27-.37-.06,.21-.57,.22-.23,.61,.28,.31,.3,.59-.23,.67-.41,.07-.39,.35-.2,.6,.11,.15,.37,.38,.46,.34,.31-.12,.58-.36,.89-.56Zm9.58,51.92c0-.49,.1-.87-.46-.83-.45,.03-.9-.05-1.34,.02-.38,.06-.38,.38-.14,.6,.14,.13,.21,.57,.59,.23,.33-.29,.69-.26,1.04,.02,.06,.05,.23-.04,.32-.05ZM63.06,26.47c0-.56,.02-.78-.01-1,0-.07-.18-.16-.26-.15-.14,.02-.37,.1-.39,.19-.14,.56,.26,1.24-.35,1.7,.12,.12,.22,.27,.36,.35,.07,.04,.29,0,.31-.05,.17-.44,.3-.89,.35-1.04Zm13.12,38.73c0-.39,.01-.62,0-.84-.02-.3-.34-.47-.56-.29-.17,.14-.36,.29-.46,.48-.2,.37,.39,1.2,.8,1.11,.13-.03,.2-.39,.23-.46Zm12.16,7.14s-.32,.05-.4,.22c-.15,.31,.34,.71,.85,.77,.33,.04,.49-.06,.52-.44,.05-.58-.25-.66-.96-.55Zm-.22,1.64l-.75-.97c-.28,.28-.58,.55-.82,.86-.09,.12,.68,.55,.98,.49,.16-.04,.3-.19,.58-.38Zm-48.38-3.22c-.38-.22-.63-.43-.93-.51-.24-.07-.56-.1-.6,.36-.04,.4,.13,.85,.39,.83,.35-.02,.68-.38,1.13-.67Zm12.29,20.82l-.17-.27c-.23,.35-.47,.34-.72,.02l-.84,.84c.08,.08,.15,.17,.24,.24,.11,.08,.29,.22,.35,.19,.37-.21,.72-.45,1.06-.71,.06-.05,.05-.2,.07-.3Zm-12.04-59.21c-.3-.28-.58-.57-.89-.82-.14-.11-.32-.17-.48-.25-.02,.22-.11,.48-.04,.66,.19,.46,.56,.69,1.08,.59,.1-.02,.19-.1,.33-.19Zm32.74,40.63c0-.11,0-.23,0-.34-.03-.57-.51-.41-.74-.34-.65,.19,.06,.32,.06,.5,0,.23-.04,.46,.02,.67,.03,.1,.26,.16,.41,.18,.08,.01,.23-.09,.25-.16,.04-.16,.01-.34,.01-.5Zm23.19,22.01c-.15-.12-.28-.26-.31-.24-.28,.15-.62,.28-.77,.52-.11,.17,.03,.52,.09,.78,.01,.04,.26,.1,.28,.06,.25-.37,.48-.75,.71-1.13Zm5.23,8.32l-.68-.59c-.16,.22-.48,.46-.45,.65,.04,.23,.37,.41,.57,.61l.56-.67ZM22.52,46.39c-.06,.12-.13,.23-.16,.34-.12,.45,.14,.76,.48,.94,.06,.03,.36-.4,.56-.61l-.87-.67Zm34.01,20.88c-.32-.26-.63-.52-.95-.77,0,0-.08,.07-.12,.11-.08,.08-.24,.22-.23,.23,.25,.33,.51,.64,.77,.96l.24-.24,.29-.29Zm-8.8,21l.83-.24-.92-.8c-.15,.22-.36,.42-.41,.65-.02,.09,.34,.26,.51,.38Zm27.78,1.82c-.36-.4-.71-.8-1.08-1.19-.03-.03-.24,.05-.26,.11-.04,.14-.04,.43,0,.43,.46,.1,.68,.4,.81,.82,0,.03,.21,.02,.32,0,.04,0,.08-.07,.22-.18Zm9.64-16.74c-.15-.33-.29-.66-.47-.98-.03-.06-.2-.08-.3-.06-.1,.02-.26,.14-.25,.16,.18,.41,.38,.82,.59,1.21,.02,.03,.22,0,.3-.05,.07-.05,.09-.18,.13-.28Zm-1.55-3.81c.34,0,.51,.02,.67-.01,.06-.01,.14-.15,.13-.21-.06-.39-.96-.64-1.25-.34-.08,.08-.06,.39,0,.43,.17,.11,.4,.12,.45,.13Zm-3.87,10.38c.51,.29,.75,.45,1,.55,.18,.08,.24,0,.45-.57,.04-.1,0-.23,0-.35l-1.45,.36Zm-.34,34.28c.49-.4-.14-.48-.22-.72-.08,.16-.13,.36-.25,.48-.2,.21-.42,.39-.04,.61,.18,.1,.39,.16,.58,.24l-.08-.61Zm5.96-39.13c-.17,0-.34-.03-.5,0-.12,.03-.23,.13-.34,.2,.09,.05,.19,.08,.28,.14,.18,.11,.36,.32,.53,.31,.24-.01,.47-.18,.69-.3,.07-.04,.09-.15,.13-.23-.21-.04-.41-.08-.62-.12-.05,0-.11,0-.17,0ZM63.07,28.59s-.03-.28-.13-.45c-.04-.07-.35-.08-.43,0-.31,.3-.05,1.2,.33,1.26,.07,0,.2-.07,.21-.13,.03-.16,.01-.34,.01-.67Zm-.7,38.26l.27-.16c-.26-.4-.36-.81,.02-1.2-.1-.03-.21-.11-.3-.09-.45,.09-.56,.4-.32,.87,.1,.2,.22,.39,.33,.58Zm24.97,12.55c-.05,.53-.1,.87-.1,1.2,0,.09,.15,.18,.22,.28,.15-.22,.42-.43,.42-.65,0-.22-.27-.44-.55-.84Zm4.69,15.21l.71-1.06c-.09-.05-.23-.18-.26-.15-.27,.22-.53,.45-.76,.71-.03,.03,.13,.23,.3,.5Zm-48.18-20.39c-.17-.03-.29-.09-.37-.06-.09,.03-.17,.21-.24,.21-.33-.01-.55,.06-.5,.44,.01,.09,.14,.26,.16,.25,.24-.1,.48-.19,.69-.34,.11-.08,.15-.26,.27-.49Zm33.28,41.07l.79-.4c-.12-.14-.22-.39-.35-.41-.23-.03-.61-.18-.67,.24-.02,.15,.13,.32,.23,.57Zm21.69-12.8c.06-.39,.13-.68,.13-.97,0-.06-.28-.2-.4-.17-.5,.12-.2,.55-.25,.84,0,.05,.25,.15,.52,.3ZM47.25,19.99c-.31-.17-.54-.32-.79-.43-.06-.03-.28,.1-.27,.13,.06,.28-.23,.75,.31,.75,.22,0,.44-.26,.75-.45Zm-11.26,44.35c-.18,.22-.39,.4-.49,.64-.03,.08,.19,.39,.32,.39,.21,.02,.43-.12,.65-.19l-.48-.84Zm46.75,3.42c0-.29,.03-.47-.01-.63-.04-.13-.14-.26-.25-.34-.06-.04-.26,0-.3,.05-.08,.13-.15,.32-.11,.44,.04,.14,.23,.24,.32,.37,.1,.13,.16,.29,.24,.44l.11-.34ZM42.76,30.37c-.25,.57-.37,.73-.38,.89-.01,.24-.13,.63,.33,.59,.13-.01,.32-.26,.33-.41,.02-.21-.1-.43-.28-1.07Zm6.88-2.18l-.6-.41-.46,.8c.08,.04,.18,.14,.22,.12,.26-.14,.51-.31,.84-.51Zm5.16,5.76c.1-.04,.25-.06,.27-.12,.04-.14,.02-.3,0-.45,0-.04-.07-.11-.11-.11-.22-.01-.45-.02-.67,0-.05,0-.14,.2-.13,.21,.21,.17,.42,.32,.64,.48Zm-31.59-8.42l-.38-.51c-.15,.22-.33,.42-.45,.65-.03,.06,.16,.22,.25,.33l.58-.47Zm49.33,57.26l-1.01-.46c-.06,.14-.18,.3-.16,.43,.07,.42,.42,.24,.67,.25,.11,0,.22-.09,.5-.22Zm11.67,12.8c.27-.33,.47-.51,.58-.75,.03-.08-.21-.27-.32-.42-.12,.14-.29,.27-.33,.43-.04,.19,.03,.4,.07,.74Zm-24.18-38.86l-.39,.19c.26,.18,.51,.36,.77,.51,.02,0,.19-.2,.24-.33,.03-.07-.04-.24-.11-.27-.14-.06-.31-.06-.51-.1Zm-22.18,12.3c.18-.24,.35-.38,.37-.53,.03-.2-.06-.41-.09-.62-.19,.21-.41,.41-.56,.65-.03,.05,.13,.23,.28,.5Zm5.22,3.45c-.17-.17-.27-.31-.41-.39-.05-.03-.25,.06-.27,.13-.09,.25-.13,.51-.19,.77,.11,0,.25,.05,.32,0,.2-.15,.37-.34,.54-.51Zm12.21-7.68l-.66-.79c-.06,.14-.16,.29-.16,.43,0,.24-.13,.61,.32,.6,.13,0,.26-.12,.5-.24Zm4.96-28.29l.76-.67c-.14-.05-.29-.15-.43-.15-.25,0-.61-.11-.58,.34,0,.13,.13,.25,.26,.49Zm-18.51,28l.58-.74c-.21-.04-.43-.14-.62-.09-.14,.04-.27,.25-.33,.41-.02,.06,.17,.2,.37,.41Zm14.88,5.5c.27-.33,.47-.51,.58-.75,.03-.08-.21-.27-.32-.42-.12,.14-.29,.27-.33,.43-.04,.19,.03,.4,.07,.74Zm31.53,9.01l.47-1c-.14-.06-.29-.19-.42-.17-.43,.06-.25,.41-.26,.66,0,.11,.09,.23,.21,.52Zm-5.91-1.18l-.46,.79c.15,.08,.29,.22,.44,.22,.16,0,.32-.13,.48-.2l-.46-.81Zm9.05-1.53c-.13,.24-.24,.37-.25,.49-.02,.46,.34,.33,.59,.33,.14,0,.29-.1,.43-.16l-.77-.67Zm-11.27,.61l-.6-.41-.46,.8c.08,.04,.18,.14,.22,.12,.26-.14,.51-.31,.84-.51Zm-18.53-12.51l.5-.63c-.09-.04-.23-.13-.28-.1-.23,.17-.43,.38-.64,.57l.41,.16Zm-30.1-28.2c-.28-.2-.5-.38-.75-.52-.05-.03-.18,.07-.28,.11,.21,.19,.42,.39,.65,.56,.04,.03,.18-.07,.38-.15Zm11.85,.5c-.06,.14-.17,.26-.16,.36,.04,.22,.14,.42,.21,.64l.47-.47-.52-.52Zm43.01,42.35c.15-.27,.31-.45,.27-.51-.09-.15-.27-.24-.41-.36-.09,.11-.27,.25-.25,.34,.04,.16,.2,.29,.38,.54Zm-50.79-15.94c-.14-.06-.26-.15-.32-.12-.23,.13-.43,.29-.64,.46-.02,.01,.09,.22,.1,.21,.19-.06,.39-.12,.57-.22,.11-.07,.19-.21,.28-.33Zm32.97,45.88c-.25-.18-.38-.34-.53-.38-.09-.02-.22,.16-.34,.25,.12,.14,.21,.32,.36,.41,.06,.04,.24-.12,.51-.27ZM39.02,30.47l-.27-.67c-.16,.16-.39,.29-.44,.48-.03,.11,.2,.32,.35,.44,.03,.02,.22-.15,.36-.25Zm-26.99-1.95l.67-.27c-.16-.16-.29-.39-.47-.44-.11-.03-.32,.2-.44,.35-.02,.03,.15,.22,.25,.36Zm62.42,27.72c.21,.21,.37,.49,.52,.49,.16,0,.31-.28,.47-.43-.21-.07-.42-.18-.63-.21-.1-.02-.22,.09-.36,.16Zm5.81,7.98c-.04-.06-.11-.2-.13-.19-.17,.07-.37,.13-.49,.26-.05,.05,.1,.27,.15,.41l.46-.49Zm-34.26,17.59c-.28-.39-.34-.5-.43-.57-.1-.09-.23-.15-.35-.22-.03,.15-.14,.38-.09,.44,.13,.12,.34,.15,.86,.35Zm-8.42-14.56l-.17-.41-.56,.48c.09,.05,.19,.16,.26,.15,.17-.04,.32-.14,.47-.21Zm36.82-12.63c-.09,.13-.22,.27-.29,.42-.03,.06,.07,.18,.11,.28l.56-.48-.38-.23Zm-38.88,12.88l-.23-.37-.46,.57c.1,.04,.22,.13,.28,.1,.16-.07,.29-.2,.42-.3Zm-10.63-13.22l-.42,.16,.46,.57c.06-.09,.17-.19,.15-.26-.03-.17-.13-.32-.2-.48Zm40.65,10.05c-.13-.1-.26-.23-.41-.31-.06-.03-.19,.06-.28,.1l.46,.58,.24-.37Zm7.13,19.31c-.1,.13-.22,.27-.29,.42-.03,.07,.07,.18,.11,.28l.56-.48-.38-.23Zm-20.3-21.52c-.1-.07-.22-.19-.27-.17-.16,.08-.3,.2-.42,.34-.02,.02,.14,.19,.21,.29l.48-.46Zm-2.06-28.93l-.36,.24,.59,.45c.03-.1,.12-.22,.09-.28-.08-.15-.21-.28-.32-.41Zm-9.95,.43l-.24-.36-.45,.59c.1,.03,.22,.13,.28,.09,.15-.08,.28-.21,.41-.32Zm27.25,38.23l-.23-.58c-.06,.14-.17,.29-.16,.43,0,.2,.1,.4,.16,.6l.23-.45Zm-28.07-30.14l-.46-.5c-.06,.14-.2,.37-.15,.41,.12,.13,.32,.19,.5,.26,.01,0,.09-.14,.11-.18Zm-1.82-17.8c-.07,.1-.19,.22-.17,.27,.08,.16,.2,.3,.34,.42,.02,.02,.19-.14,.29-.21l-.46-.48Zm-8.17,18.59c-.44-.18-.58-.28-.62-.25-.14,.11-.24,.26-.36,.4,.09,.06,.2,.18,.27,.16,.2-.05,.38-.16,.71-.31Zm57.81,51.63c.06-.15,.16-.31,.19-.48,.01-.07-.1-.17-.16-.26l-.46,.58,.42,.16ZM25.42,62.21c-.09,.13-.22,.27-.29,.42-.03,.06,.07,.18,.11,.28l.56-.48-.38-.23Zm44.29,16.6c.18-.44,.28-.58,.25-.62-.11-.14-.26-.24-.4-.36-.06,.09-.18,.2-.16,.27,.05,.2,.16,.38,.31,.71Zm-7.19-48.38l-.42,.15,.45,.59c.06-.09,.17-.18,.16-.26-.03-.17-.12-.33-.19-.48Zm-8.34,46.3c.18-.44,.28-.58,.25-.62-.11-.14-.26-.24-.4-.36-.06,.09-.18,.2-.16,.27,.05,.2,.16,.38,.31,.71ZM37.27,30.67l-.3-.13c-.04,.09-.13,.2-.11,.28,.03,.11,.14,.2,.22,.3l.19-.45Zm14.41,59.53c-.08-.13-.13-.27-.17-.26-.15,.01-.3,.07-.45,.11,.04,.08,.08,.21,.13,.22,.15,0,.3-.03,.49-.06Zm1.37-61.05l.2,.3c.06-.14,.14-.28,.16-.43,0-.08-.1-.17-.16-.26l-.2,.39Zm34.95,48.16l-.19-.45c-.08,.1-.19,.19-.22,.3-.02,.08,.07,.19,.11,.28l.3-.13Zm-47.06-.15c-.13,.08-.27,.13-.26,.17,.01,.15,.07,.3,.11,.45,.08-.04,.21-.08,.22-.13,0-.15-.03-.31-.06-.49Zm-10.29-34.5c-.19-.03-.34-.07-.49-.06-.05,0-.09,.14-.13,.22,.15,.04,.3,.1,.45,.11,.04,0,.09-.14,.17-.26Zm44.59,67.5l-.3-.13c-.04,.09-.13,.2-.11,.28,.03,.11,.14,.2,.22,.3l.19-.45Zm-21.62-37.43l.45-.19c-.1-.08-.19-.19-.3-.22-.08-.02-.19,.07-.28,.11l.13,.3Zm-9.51-.69c-.19-.03-.34-.07-.49-.06-.05,0-.09,.14-.13,.22,.15,.04,.3,.1,.45,.11,.04,0,.09-.14,.17-.26Zm4.18-48.06l-.2-.39c-.06,.09-.17,.18-.16,.26,.02,.15,.1,.29,.16,.43l.2-.3Zm18.79,30.99l-.13,.3c.09,.04,.2,.13,.28,.11,.11-.03,.2-.14,.3-.22l-.45-.19Zm-32.34,7.31c.03-.19,.07-.34,.06-.49,0-.05-.14-.09-.22-.13-.04,.15-.1,.3-.11,.45,0,.04,.14,.09,.26,.17Zm12.42-27.65c.03-.19,.07-.34,.06-.49,0-.05-.14-.09-.22-.13-.04,.15-.1,.3-.11,.45,0,.04,.14,.09,.26,.17Zm45.56,46.44l-.12-.12c-.04,.08-.09,.15-.11,.23,0,.03,.07,.08,.11,.11l.12-.22ZM53.81,34.76l.12,.22s.11-.09,.11-.11c-.02-.08-.07-.16-.11-.23l-.12,.12Zm1.68,.05s-.09-.11-.11-.11c-.08,.02-.15,.07-.23,.11,.04,.04,.09,.11,.11,.11,.08-.02,.15-.07,.23-.11Zm-7.25-1.04s-.09-.11-.11-.11c-.08,.02-.15,.07-.23,.11,.04,.04,.09,.11,.11,.11,.08-.02,.15-.07,.23-.11Zm-31-1.09l.12,.22s.11-.09,.11-.11c-.02-.08-.07-.16-.11-.23l-.12,.12Zm29.4,53.15l-.12,.12c.08,.04,.15,.09,.23,.11,.03,0,.08-.07,.11-.11l-.22-.12Zm33.86-8.34s-.11,.09-.11,.11c.02,.08,.07,.16,.11,.23,.04-.04,.11-.09,.11-.11-.02-.08-.07-.16-.11-.23Zm10.75,11.8l-.22,.12s.09,.11,.11,.11c.08-.02,.15-.07,.23-.11l-.12-.12Zm-36.84-12.37l-.12-.12c-.04,.08-.09,.15-.11,.23,0,.03,.07,.08,.11,.11l.12-.22Zm-25.6-30.24l.12-.12c-.08-.04-.15-.09-.23-.11-.03,0-.08,.07-.11,.11l.22,.12Zm-5.52-17.18l-.22,.12s.09,.11,.11,.11c.08-.02,.15-.07,.23-.11l-.12-.12Zm27.08,64.1l.12,.12c.04-.08,.09-.15,.11-.23,0-.03-.07-.08-.11-.11l-.12,.22Zm9.22-20.73l-.12-.22s-.11,.09-.11,.11c.02,.08,.07,.16,.11,.23l.12-.12Zm-1.55-1.9l-.12,.12c.08,.04,.15,.09,.23,.11,.03,0,.08-.07,.11-.11l-.22-.12Zm17.47-17.5s-.09-.11-.11-.11c-.08,.02-.15,.07-.23,.11,.04,.04,.09,.11,.11,.11,.08-.02,.15-.07,.23-.11Zm-40.76,11.45l-.12-.22s-.11,.09-.11,.11c.02,.08,.07,.16,.11,.23l.12-.12Zm31.4-7.6l-.12-.22s-.11,.09-.11,.11c.02,.08,.07,.16,.11,.23l.12-.12Zm33.81,44.23l-.12-.22s-.11,.09-.11,.11c.02,.08,.07,.16,.11,.23l.12-.12Zm-9.73,22.19l.12-.12c-.08-.04-.15-.09-.23-.11-.03,0-.08,.07-.11,.11l.22,.12Z"/><path class="cls-1" d="M83.99,60.23c-.07-.1-.17-.22-.21-.35-.06-.21,0-.52-.13-.63-.59-.5,.25-1.42-.51-1.79-.72-.35-.59-1.05-.83-1.6-.13-.3-.23-.43,.05-.63-.22-.12-.48-.2-.63-.38-.21-.24-.35-.54-.49-.83-.05-.11-.1-.32-.06-.35,.3-.23,.61-.48,.95-.59,.15-.05,.39,.24,.6,.37,.34,.21,.34,.53,.37,.89,.04,.37,.11,.35,1.2,1.06,.1,.07,.2,.38,.15,.43-.22,.22-.49,.42-.76,.57-.58,.33,.08,.38,.13,.55,.14,.45,.58-.62,.62,.08,.03,.55,.48,.34,.69,.55,.73,.72,.76,1.02,.09,1.7-.28,.29-.56,.58-.86,.85-.07,.06-.2,.06-.38,.1Z"/><path class="cls-1" d="M55.88,2.72c.14,.2,.24,.31,.29,.44,.13,.29,.24,.59,.35,.89,.05,.15,.03,.39,.13,.45,.4,.24,1.13,.37,1.18,.65,.09,.49,.19,.93,.61,1.11,.28,.12,.53,.1,.5,.49-.04,.54,.27,.76,.74,.95,.43,.18,.45,.79,.01,.98-.34,.14-.42,.26-.44,.57,0,.06-.17,.14-.27,.15-.19,.02-1.43-.95-1.43-1.13,0-.72-.04-1.41-.9-1.68-.09-.03-.14-.29-.13-.44,.03-1-.63-1.7-1.09-2.48-.09-.15-.43-.24-.12-.49,.17-.13,.33-.27,.55-.45Z"/><path class="cls-1" d="M72.04,55.41c-.04,.22-.16,.61-.16,.99,0,.44,.16,.87,.15,1.31-.02,.56,.04,.87,.73,.79,.41-.05,.41,.33,.23,.58-.48,.64-.89,.6-1.64-.08-.19-.17-.52-.2-.69-.39-.16-.17-.28-.46-.28-.7,.02-.67-.07-1.01-.6-1.9-.05-.08,.03-.24,.07-.36,.23-.62,.86-.95,1.73-1.08,.24-.03,.43-.42,.46,.13,.01,.17,0,.34,0,.69Z"/><path class="cls-1" d="M44.61,63.62c-.03-.07-.16-.23-.16-.4,0-.58,.02-1.13-.73-1.31-.13-.03-.28-.29-.3-.46-.04-.45,0-.91-.02-1.37,0-.16-.02-.34-.08-.48-.36-.77-.37-.77,.17-1.13,.33-.22,.64-.42,.65-.89,0-.05,.3-.17,.42-.13,.1,.03,.25,.29,.21,.37-.31,.6-.66,1.18-.05,1.8,.02,.02,.01,.1,0,.11-.87,.52-.3,.7,.15,1.13,.43,.41,.45,1.16,.92,1.67,.27,.3-.58,1.22-1.18,1.08Z"/><path class="cls-1" d="M30.53,57.52c-.32,.05-.65,.1-.97,.14-.09,.01-.27,0-.28-.05-.1-.3-.12-.64-.26-.92-.19-.39-.41-.19-.59,.04-.06-.08-.18-.15-.18-.23-.02-.34,0-.69-.01-1.03-.02-.36,.16-.85,.43-1.05,.78-.59,.86-.58,1.3,.27,.14,.28,.37,.61,.32,.88-.1,.63,.33,.91,.65,1.3,.13,.15,.62,.26,.2,.59-.14,.11-.36,.12-.55,.18l-.05-.12Z"/><path class="cls-1" d="M47.49,67.46c-.23,0-.46,.02-.68,0-.4-.05-.17-.19-.08-.4,.27-.65,.34-1.27-.57-1.52-.14-.04-.24-.24-.37-.35-.38-.35-.49-.72-.16-1.18,.23-.32,.55-.47,.88-.33,.43,.18,.64,.54,.5,1.06-.04,.13,.1,.34,.21,.47,.04,.05,.31,0,.32-.03,.16-1.03,.43-.03,.64-.02,.03,0,.1,.25,.06,.29-.3,.32-.16,.59,0,.93,.51,1.08,.49,1.09-.74,1.08Z"/><path class="cls-1" d="M54.62,61.24c-.09-.04-.43-.07-.56-.25-.2-.29-.21-.72-.4-1.03-.14-.22-.65-.03-.61-.59,.05-.7-.46-1.1-1.02-1.43-.13-.08-.21-.24-.31-.36,.15-.05,.3-.1,.46-.14,.05-.01,.12-.01,.17,0,.65,.14,.82-.17,.73-.75-.01-.08,.1-.18,.15-.27,.06,.08,.16,.16,.18,.25,.13,.58,.34,1.17,.32,1.74-.02,.6,1.09,.24,.74,1.07-.25,.57,.36,.87,.66,1.26,.08,.11,.02,.34,0,.5,0,.02-.21,0-.51,0Z"/><path class="cls-1" d="M27.05,22.51c.52-.08,.81,.08,.94,.63,.06,.28,.28,.71,.49,.75,.95,.17,.19,.87,.44,1.22-.14,.06-.3,.21-.42,.18-.41-.1-.93-.15-1.16-.43-.25-.3-.38-.86-.29-1.25,.06-.28-.02-.35-.13-.5-.12-.15-.22-.32-.33-.48l.47-.12Z"/><path class="cls-1" d="M65.51,50.34c-.64,.5-.29,1.18-.35,1.77-.01,.15,.17,.45,.28,.47,.41,.05,.46,.28,.34,.57-.04,.09-.29,.12-.44,.14-.31,.04-.57,0-.54-.42,0-.06,.02-.13,0-.17-.11-.15-.23-.3-.35-.44-.11,.15-.22,.3-.34,.45-.06,.08-.12,.2-.21,.23-.09,.04-.24,.03-.33-.02-.08-.05-.17-.21-.15-.27,.37-.91,.89-1.73,1.55-2.46,.05-.06,.23-.03,.33,0,.07,.02,.13,.1,.19,.15Z"/><path class="cls-1" d="M68.25,51.94c0,.23,.03,.46-.01,.68-.03,.12-.16,.25-.27,.32-.07,.04-.29-.03-.29-.06-.06-.74-.92-.65-1.2-1.17-.1-.18-.45-.21-.57-.38-.05-.08,.19-.34,.27-.54,.19-.49,.3-.21,.48,.02,.11,.14,.31,.32,.47,.31,1.13-.03,1.13-.04,1.13,.81Z"/><path class="cls-1" d="M68.59,49.85c0,.12,0,.23,0,.35-.02,.33-.13,.37-.37,.14-.37-.34-.79-1.1-1.08,.07-.02,.07-.37,.16-.43,.11-.11-.11-.2-.34-.17-.49,.04-.2,.27-.35,.32-.55,.14-.53-.04-.64-.71-.48-.09,.02-.21-.05-.32-.08,.05-.15,.09-.42,.16-.43,.38-.05,.79,.04,1.06-.37,.03-.04,.35,.02,.43,.12,.07,.09,.03,.3,0,.45-.11,.52,.14,.95,.46,.76,.64-.37,.74-.25,.64,.39Z"/><path class="cls-1" d="M21.39,33.05c-.09,.19-.15,.4-.26,.57-.08,.12-.23,.2-.35,.29-.04-.1-.13-.19-.13-.29,.01-.66-.21-1.07-.96-1.07-.19,0-.39-.16-.55-.3-.07-.06-.12-.29-.07-.34,.13-.12,.34-.29,.47-.26,.4,.11,.77,.34,1.17,.45,.49,.14,.78,.36,.68,.94Z"/><path class="cls-1" d="M69.97,45.54c-.05,.1-.18,.39-.34,.65-.04,.06-.23,.01-.35,.02,.2-.84-.71-1.33-.68-2.11,0-.22-.08-.69,.39-.26,.07,.07,.19,.09,.29,.13l.55,.72c.05,.09,.12,.18,.14,.28,.02,.11,0,.23,0,.57Z"/><path class="cls-1" d="M66.23,47.62c-.25,.15-.55,.43-.65,.37-.47-.26-.89-.6-1.3-.95-.04-.04,.13-.3,.15-.47,.02-.15-.03-.31-.08-.46-.08-.21-.67,.1-.43-.34,.08-.15,.74-.37,.88,.26,.11,.48,1.01,.49,.72,1.22,0,.02,.43,.21,.71,.35Z"/><path class="cls-1" d="M69.83,55.03c-.67-.24-1.07-1.24-.81-1.99,.07-.2,.17-.38,.27-.57,.04-.08,.13-.13,.2-.19,.05,.09,.14,.19,.13,.28-.01,.35-.01,.69,.34,.88,.87,.47-.1,.94,0,1.41,.01,.05-.09,.12-.14,.18Z"/><path class="cls-1" d="M23.74,35.73c-.05,.05-.19,.27-.32,.27-.71-.03-1.37-.66-1.41-1.28-.02-.39,.18-.47,.51-.44,.31,.03,1.22,.97,1.22,1.44Z"/><path class="cls-1" d="M46.3,60.92c-.28-.36-.57-.69-.81-1.06-.12-.19-.25-.6-.21-.62,.32-.18,.67-.29,1.03-.39,.02,0,.13,.36,.21,.55,.19,.42,.28,.84,0,1.25-.06,.08-.12,.16-.21,.27Z"/><path class="cls-1" d="M38.92,14.39c-.68-.31-.15-.58,.03-.66,.27-.12,.61-.11,.91-.07,.06,0,.12,.41,.08,.62-.06,.31-.2,.6-.34,.89-.08,.17-.21,.31-.32,.46-.12-.14-.31-.27-.34-.43-.06-.27-.02-.55-.02-.81Z"/><path class="cls-1" d="M74.36,48.7c.12-.28,.19-.55,.25-.55,.2,0,.45,.06,.58,.19,.21,.23,.32,.55,.5,.82,.37,.54-.04,.52-.39,.75-.51,.34-.45,.16-.53-.26-.06-.35-.29-.68-.42-.96Z"/><path class="cls-1" d="M29.61,30.83c-.29-.04-.63,.15-.73-.41-.09-.53-.82-.94-.32-1.61,.08-.11,.14-.24,.2-.37,.12,.12,.25,.23,.36,.36,.06,.08,.14,.19,.13,.28-.09,.61,.07,1.09,.58,1.46,.07,.05,.08,.19,.12,.28-.11,0-.23,0-.34,0Z"/><path class="cls-1" d="M16.88,25.52c.17,.47,.54-.71,.64,.07,.05,.36,.14,.87-.54,.75-.7-.12-.36,.75-.82,.85-.12,.02-.32,.06-.35,.01-.16-.3,.59-1.71,.95-1.79,.03,0,.08,.07,.12,.11Z"/><path class="cls-1" d="M55.94,56.4c-.07-.05-.37-.15-.43-.32-.09-.27,.55-1.09,.73-1.06,.36,.07,.68,.59,.63,1.02-.04,.34-.09,.37-.93,.36Z"/><path class="cls-1" d="M11.6,21.31c-.17,.32-.3,.61-.48,.87-.03,.05-.3,.03-.32,0-.16-.43-.34-.86-.38-1.3-.01-.11,.58-.43,.63-.39,.24,.25,.4,.57,.55,.82Z"/><path class="cls-1" d="M61.18,49.27c-.26-.16-.46-.21-.5-.33-.09-.25-.04-.57-.17-.79-.43-.71,.33-.28,.47-.48,.34-.51,.28-.02,.39,.2,.15,.28,.43,.48,0,.77-.12,.08-.11,.35-.18,.62Z"/><path class="cls-1" d="M48.9,51.9c.14-1.3,.54,.03,.73-.33,.11,.14,.35,.33,.32,.42-.12,.33-.33,.64-.5,.95-.08-.08-.19-.14-.23-.24-.14-.33-.26-.68-.31-.81Z"/><path class="cls-1" d="M55.05,1.89l-.35,.86c-.2-.14-.43-.25-.58-.43-.16-.19-.31-.45-.33-.69-.01-.16,.2-.35,.31-.52l.95,.78Z"/><path class="cls-1" d="M52.71,55.02c.18,0,.36-.03,.52,.01,.08,.02,.18,.17,.17,.24-.02,.15-.14,.42-.16,.42-.48-.13-.82,.2-1.21,.35-.06,.02-.19-.14-.28-.22,.36-.22,.18-1.11,.96-.8Z"/><path class="cls-1" d="M17.25,38c-.09,.28-.14,.73-.25,.75-.37,.06-.76-.04-1.14-.1-.03,0-.06-.21-.04-.31,.02-.09,.12-.15,.18-.23,.29,.49,.53,.18,.72-.08,.13-.18,.2-.42,.3-.63l.24,.6Z"/><path class="cls-1" d="M1.12,22.49c.2,.24,.53,.47,.5,.64-.05,.27-.33,.5-.51,.75-.16-.22-.45-.44-.45-.66,0-.22,.27-.45,.46-.74Z"/><path class="cls-1" d="M50.59,53.75c-.19-.19-.27-.24-.26-.27,.11-.36,.2-.72,.35-1.05,.05-.1,.32-.2,.43-.15,.2,.09,.34,.28,.51,.43-.15,.08-.33,.13-.44,.25-.22,.24-.4,.53-.59,.79Z"/><path class="cls-1" d="M19.96,17.85c-.12,.05-.36,.23-.42,.18-.24-.19-.54-.43-.6-.69-.09-.44,.34-.3,.58-.33,.58-.05,.4,.39,.44,.84Z"/><path class="cls-1" d="M81.8,56.4c-.11,.33-.13,.5-.21,.62-.04,.06-.22,.1-.29,.06-.08-.04-.16-.17-.16-.27,0-.12,.14-.31,.1-.34-.34-.33-.28-.67-.1-1.04,0-.02,.1-.02,.11,0,.2,.35,.4,.7,.56,.98Z"/><path class="cls-1" d="M79.98,45.86s-.04,.26-.12,.46c-.02,.06-.21,.1-.29,.06-.08-.04-.17-.25-.17-.26,.45-.3-.09-.42-.1-.61,0-.17,.16-.34,.25-.5,.14,.12,.3,.22,.41,.36,.05,.07,0,.22,0,.5Z"/><path class="cls-1" d="M63.54,3.68c-.16,.28-.25,.53-.3,.52-.29-.05-.71,.25-.84-.25-.03-.12,.11-.4,.17-.4,.29,0,.58,.07,.97,.13Z"/><path class="cls-1" d="M26.53,14.3c-.23-.14-.36-.18-.37-.24-.04-.39-.08-.79,.34-1.02,.09-.05,.23,0,.34,0l-.31,1.25Z"/><path class="cls-1" d="M38.54,0l.38,.25c-.2,.29-.4,.58-.62,.86-.03,.04-.22,0-.29-.06-.07-.05-.15-.23-.11-.27,.2-.28,.44-.53,.65-.78Z"/><path class="cls-1" d="M14.13,36.48c-.25-.57-.37-.73-.38-.89-.01-.24-.13-.63,.33-.59,.13,.01,.32,.26,.33,.41,.02,.21-.1,.43-.28,1.07Z"/><path class="cls-1" d="M15.29,25.65c-.19-.19-.31-.26-.34-.36-.03-.1-.01-.27,.05-.32,.12-.09,.29-.12,.45-.16,.19-.05,.39-.1,.59-.14-.08,.16-.14,.34-.25,.48-.15,.19-.33,.34-.49,.5Z"/><path class="cls-1" d="M10.17,33l.74,.71-.8,.58c-.06-.14-.17-.29-.16-.43,.01-.22,.1-.43,.22-.86Z"/><path class="cls-1" d="M50.04,57.01l-.49,.43c-.09-.11-.29-.28-.26-.31,.16-.24,.37-.45,.56-.67l.2,.55Z"/><path class="cls-1" d="M70,51.06c-.28,.27-.55,.54-.84,.79-.02,.02-.15-.07-.21-.12-.03-.03-.03-.13,0-.16,.25-.24,.5-.47,.77-.68,.03-.02,.17,.1,.28,.17Z"/><path class="cls-1" d="M25.92,19.63c.13,.28,.23,.39,.22,.5-.01,.24,.16,.6-.25,.67-.13,.02-.28-.1-.43-.16l.46-1.01Z"/><path class="cls-1" d="M31.79,10.64l.52,.38c-.21,.16-.42,.33-.65,.45-.06,.03-.22-.16-.33-.25l.46-.58Z"/><path class="cls-1" d="M54.01,1.37c-.29-.49-.46-.75-.59-1.03-.02-.04,.19-.25,.3-.26,.55-.02,.34,.42,.37,.7,.01,.11-.03,.23-.08,.59Z"/><path class="cls-1" d="M71.99,50.3l.22-.45c.16,.19,.39,.36,.44,.57,.02,.11-.28,.3-.44,.45l-.22-.57Z"/><path class="cls-1" d="M38.92,3.37c.21-.21,.37-.49,.52-.49,.16,0,.31,.28,.47,.43-.21,.07-.42,.18-.63,.21-.1,.02-.22-.09-.36-.16Z"/><path class="cls-1" d="M63.6,5.32c-.27,.15-.45,.31-.51,.27-.15-.09-.24-.27-.36-.41,.11-.09,.25-.27,.34-.25,.16,.04,.29,.2,.53,.38Z"/><path class="cls-1" d="M28.6,26.83l-.51,.51c-.07-.16-.2-.33-.2-.49,0-.15,.14-.3,.22-.44l.49,.43Z"/><path class="cls-1" d="M53.47,51.4c-.18-.25-.34-.38-.38-.54-.02-.09,.16-.22,.25-.34,.14,.12,.32,.21,.41,.36,.04,.06-.12,.24-.27,.51Z"/><path class="cls-1" d="M27.12,21.69c-.27,.17-.53,.33-.81,.49,0,0-.14-.16-.15-.26-.02-.1,.01-.28,.06-.29,.26-.06,.52-.1,.79-.11,.04,0,.09,.14,.11,.18Z"/><path class="cls-1" d="M48.64,57.26c.15,.27,.31,.45,.27,.51-.09,.15-.27,.24-.41,.36-.09-.11-.27-.25-.25-.34,.04-.16,.2-.29,.38-.54Z"/><path class="cls-1" d="M7.92,18.9c.15,.27,.31,.45,.27,.51-.09,.15-.27,.24-.41,.36-.09-.11-.27-.25-.25-.34,.04-.16,.2-.29,.38-.54Z"/><path class="cls-1" d="M38.62,14.44c-.16,.06-.36,.18-.43,.13-.14-.09-.2-.29-.3-.44,.1-.04,.23-.13,.29-.1,.15,.09,.27,.24,.44,.4Z"/><path class="cls-1" d="M50.74,14.19c-.15-.33-.26-.51-.31-.71-.02-.07,.1-.18,.16-.27,.14,.12,.29,.22,.4,.36,.03,.04-.07,.18-.25,.62Z"/><path class="cls-1" d="M.42,21.55l-.42-.16,.46-.58c.06,.09,.17,.19,.16,.26-.03,.17-.13,.32-.19,.48Z"/><path class="cls-1" d="M3,23.71c-.05,.07-.13,.21-.14,.2-.17-.07-.37-.14-.49-.27-.05-.05,.1-.27,.16-.41l.48,.48Z"/><path class="cls-1" d="M14.46,23.51c.1,.13,.23,.26,.3,.42,.03,.06-.06,.19-.1,.28l-.57-.46,.37-.23Z"/><path class="cls-1" d="M41.15,3.86l.5,.5c-.17,.07-.33,.15-.5,.19-.03,0-.15-.2-.15-.31,0-.12,.09-.24,.15-.38Z"/><path class="cls-1" d="M21.03,29.94c-.16,.06-.31,.16-.48,.19-.07,.01-.17-.1-.26-.16l.59-.45,.15,.42Z"/><path class="cls-1" d="M35.77,8.69l.39,.2c-.09,.06-.18,.17-.26,.16-.15-.02-.29-.1-.43-.16l.3-.2Z"/><path class="cls-1" d="M62.66,49.16c.03,.19,.07,.34,.06,.49,0,.05-.14,.09-.22,.13-.04-.15-.1-.3-.11-.45,0-.04,.14-.09,.26-.17Z"/><path class="cls-1" d="M32.81,13.35c-.03-.31-.06-.5-.06-.68,0-.02,.14-.04,.22-.06,.03,.15,.07,.3,.08,.45,0,.06-.09,.12-.24,.3Z"/><path class="cls-1" d="M33.77,57.11l-.17,.31c-.07-.17-.15-.33-.19-.5,0-.04,.1-.1,.15-.16l.21,.35Z"/><path class="cls-1" d="M29.26,57.79c-.03,.52-.43,.29-.69,.35,.03-.52,.43-.29,.69-.35Z"/><path class="cls-1" d="M54.29,52.53l.45,.19c-.1,.08-.19,.19-.3,.22-.08,.02-.19-.07-.28-.11l.13-.3Z"/><path class="cls-1" d="M12.73,36.41l-.2,.3c-.06-.14-.14-.28-.16-.43,0-.08,.1-.17,.16-.26l.2,.39Z"/><path class="cls-1" d="M70.98,33.9l.2-.3c.06,.14,.14,.28,.16,.43,0,.08-.1,.17-.16,.26l-.2-.39Z"/><path class="cls-1" d="M12.88,34.36l-.13-.3c.09-.04,.2-.13,.28-.11,.11,.03,.2,.14,.3,.22l-.45,.19Z"/><path class="cls-1" d="M14.01,21.86c.03,.19,.07,.34,.06,.49,0,.05-.14,.09-.22,.13-.04-.15-.1-.3-.11-.45,0-.04,.14-.09,.26-.17Z"/><path class="cls-1" d="M47.62,56.93l-.19,.45c-.08-.1-.19-.19-.22-.3-.02-.08,.07-.19,.11-.28l.3,.13Z"/><path class="cls-1" d="M30.27,31.03s-.1,.11-.11,.11c-.07-.04-.14-.1-.21-.15l.15-.15,.16,.2Z"/><path class="cls-1" d="M91.71,75.22l-.2,.16c-.02-.07-.08-.19-.06-.21,.07-.05,.17-.07,.26-.1v.15Z"/><path class="cls-1" d="M73.37,47.99l-.12,.12c-.04-.08-.09-.15-.11-.23,0-.03,.07-.08,.11-.11l.12,.22Z"/><path class="cls-1" d="M77.07,49.15l-.16-.2c.07-.02,.19-.08,.21-.06,.05,.07,.07,.17,.1,.26h-.15Z"/><path class="cls-1" d="M77.54,49.35s-.1,.11-.11,.11c-.07-.04-.14-.1-.21-.15l.15-.15,.16,.2Z"/><path class="cls-1" d="M13.69,26.56l-.12,.12c-.04-.08-.09-.15-.11-.23,0-.03,.07-.08,.11-.11l.12,.22Z"/><path class="cls-1" d="M52.55,49.49c.04,.08,.09,.15,.11,.23,0,.03-.07,.08-.11,.11-.04-.08-.09-.15-.11-.23,0-.03,.07-.08,.11-.11Z"/><path class="cls-1" d="M65.69,49.87s.11,.1,.11,.11c-.04,.07-.1,.14-.15,.21l-.15-.15,.2-.16Z"/><path class="cls-1" d="M76.13,50.65l-.12,.22s-.11-.09-.11-.11c.02-.08,.07-.16,.11-.23l.12,.12Z"/><path class="cls-1" d="M58.43,51.57l-.16-.2c.07-.02,.19-.08,.21-.06,.05,.07,.07,.17,.1,.26h-.15Z"/><path class="cls-1" d="M16.1,23.11l-.12,.12c-.04-.08-.09-.15-.11-.23,0-.03,.07-.08,.11-.11l.12,.22Z"/><path class="cls-1" d="M49.96,53.47c-.08,.04-.15,.09-.23,.11-.03,0-.08-.07-.11-.11,.08-.04,.15-.09,.23-.11,.03,0,.08,.07,.11,.11Z"/><path class="cls-1" d="M53.76,21.66l-.2,.16c-.02-.07-.08-.19-.06-.21,.07-.05,.17-.07,.26-.1v.15Z"/><path class="cls-1" d="M54.1,21.16l-.35,.35,.35-.35Z"/><path class="cls-1" d="M32.21,55.02l-.16-.2c.07-.02,.19-.08,.21-.06,.05,.07,.07,.17,.1,.26h-.15Z"/><path class="cls-1" d="M32.68,55.22s-.1,.11-.11,.11c-.07-.04-.14-.1-.21-.15l.15-.15,.16,.2Z"/><path class="cls-1" d="M60.36,20l.12-.22s.11,.09,.11,.11c-.02,.08-.07,.16-.11,.23l-.12-.12Z"/><path class="cls-1" d="M33.25,56.75l-.16-.2c.07-.02,.19-.08,.21-.06,.05,.07,.07,.17,.1,.26h-.15Z"/><path class="cls-1" d="M27.39,14.97s.11,.1,.11,.11c-.04,.08-.1,.14-.15,.21l-.15-.15,.2-.16Z"/><path class="cls-1" d="M50.7,56.63l.12-.22s.11,.09,.11,.11c-.02,.08-.07,.16-.11,.23l-.12-.12Z"/><path class="cls-1" d="M37.59,12.74l.12-.22s.11,.09,.11,.11c-.02,.08-.07,.16-.11,.23l-.12-.12Z"/><path class="cls-1" d="M35.59,58.08l-.12-.12c.08-.04,.15-.09,.23-.11,.03,0,.08,.07,.11,.11l-.22,.12Z"/><path class="cls-1" d="M50.26,58.7l-.12,.12c-.04-.08-.09-.15-.11-.23,0-.03,.07-.08,.11-.11l.12,.22Z"/><path class="cls-1" d="M49.13,59.2s.11,.1,.11,.11c-.04,.08-.1,.14-.15,.21l-.15-.15,.2-.16Z"/><path class="cls-1" d="M41.63,5.73l-.12,.22s-.11-.09-.11-.11c.02-.08,.07-.16,.11-.23l.12,.12Z"/><path class="cls-1" d="M40.99,4.72l-.2,.16c-.02-.07-.08-.19-.06-.21,.07-.05,.17-.07,.26-.1v.15Z"/><path class="cls-1" d="M103.44,115.33c-.08,.04-.15,.09-.23,.11-.03,0-.08-.07-.11-.11,.08-.04,.15-.09,.23-.11,.03,0,.08,.07,.11,.11Z"/><path class="cls-1" d="M48.93,59.67l-.2,.16c-.02-.07-.08-.19-.06-.21,.07-.05,.17-.07,.26-.1v.15Z"/><path class="cls-1" d="M61.78,87.59c.8-.17,1.34,.16,1.64,.97,.07,.2,.24,.36,.34,.55,.31,.59,.26,.99,.17,1.9-.03,.3,.44,.65,.68,.97,.06-.14,.14-.27,.19-.41,.07-.2,.12-.4,.18-.61l.24,.59c.16,.39,.32,.79,.49,1.18,.12,.28-.34,.61,.09,.86-.44,.39-.28,.55,.21,.47,.61-.11,1.26,.27,1.02,.65-.42,.66,.06,.89,.38,1.07,.88,.51,1.84,.88,1.89,2.12,0,.11,.29,.22,.45,.32,.57,.37,1.21,.65,1.27,1.49,.02,.29,.23,.77,.43,.82,1.33,.32,1.02,1.67,1.58,2.46,.06,.08-.29,.6-.54,.73-.32,.16-.48-.1-.48-.46,0-.13-.19-.32-.33-.36-.64-.19-.8-.44-.18-.87,.05-.03,.11-.08,.12-.12,.01-.15,0-.31,0-.47-.12,.05-.24,.11-.37,.14-.35,.09-.91,.34-.92-.22,0-.87-.75-1.08-1.13-1.62-.02-.03-.25,.04-.35,.1-.29,.17-.66,.19-.59-.18,.07-.44-.5-.72-.17-1.16,.04-.06-.03-.29-.12-.35-.26-.19-.55-.32-.82-.5-.39-.26-.62-.19-.65,.31-.02,.26,.09,.66-.36,.58-.24-.04-.58-.28-.63-.49-.08-.36-.03-1.08,.06-1.1,.78-.14,.57-.7,.57-1.16,0-.66-.17-.84-.78-.67-.27,.07-.5,.48-.78,0,0-.02-.36,.13-.5,.25-.1,.09-.13,.27-.19,.41-.05-.09-.15-.18-.15-.28-.02-.34,0-.69-.01-1.04-.01-.33-.05-.67-.08-1-.28,.08-.57,.19-.85,.25-.16,.04-.36,.05-.51,0-.12-.05-.24-.21-.26-.34-.02-.1,.09-.24,.16-.34,.06-.09,.15-.17,.24-.25,.32-.26,.76-.46,.93-.79,.26-.51-.3-.77-.56-1.13-.11-.16-.06-.43-.11-.64-.02-.1-.1-.19-.15-.28-.08,.07-.18,.12-.24,.21-.35,.51-.74-.56-1.08,.04-.08,.14-.15,.29-.26,.41-.12,.14-.3,.36-.43,.34-.42-.06-.21-.44-.26-.69,0-.05-.02-.13,.01-.16,.33-.37,.95-.72,.64-1.25-.23-.4-.02-.77-.26-1.18-.35-.59,.28-1,.68-1.39,.05-.05,.22-.06,.23-.03,.05,.09,.1,.22,.07,.31-.09,.3-.29,.59-.32,.9-.05,.44,.15,.48,.42,.15Zm3.2,7.35c-.28-.39-.34-.5-.43-.57-.1-.09-.23-.15-.35-.22-.03,.15-.14,.38-.09,.44,.13,.12,.34,.15,.86,.35Zm-2.31-6.17l-.12-.22s-.11,.09-.11,.11c.02,.08,.07,.16,.11,.23l.12-.12Z"/><path class="cls-1" d="M64.23,83.84c2.89,4.48,2.77,5.01,2.63,5.53-.01,.04-.3,.07-.31,.04-.09-.27-.27-.57-.21-.82,.12-.53-.08-.87-.5-1.07-.38-.18-.58-.39-.71-.82-.29-1.01-.91-1.74-1.75-2.16-.41-.2-.69-.31-.71-.91,0-.33-.15-1.18-1.01-.98-.07,.02-.27-.28-.3-.45-.08-.39,.22-.97-.56-.96-.04,0-.17-.32-.12-.43,.13-.28,.78-.68-.18-.54-.44,.06-.62-.26-.82-.5-.28-.33-.47-.73-.74-1.06-.48-.58-.4-1.11,.34-1.16,.51-.04,1.07-.96,1.6-.05,.79-.08,.62,.71,.77,1.05,.31,.67,.29,1.49,1.22,1.73,.1,.03,.17,.25,.21,.39,.13,.52,.22,1.06,.36,1.57,.05,.17,.2,.35,.35,.43,.56,.3,.97,.72,1.13,1.34,.14,.54,.64,.75,.96,1.1,.3,.33,.06,1.1,.82,1.03,.19,.55,.38,1.1-2.46-2.29-3.09-3.85-3.16-3.8-3.22-3.74l.15,.15c.05-.07,.11-.13,.15-.21,0-.01-.07-.07,2.92,3.8Z"/><path class="cls-1" d="M54.11,86.47c.57-.02,.79,.28,1.06,1.19,.1,.32,.36,.81,.6,.84,.77,.1,.61,1.18,1.38,1.19l-.17,1.32c-.1,.1-.18,.23-.3,.29-.3,.15-.34,.75-.85,.53-.65-.28,.06-.61-.02-.91-.07-.26-.15-.52-.27-.75-.19-.35-.92-.18-.82-.83l-.24,.03c-.71,.07-.75,.05-.49-.52,.26-.58,.09-.99-.38-1.29-.2-.13-.66-.03-.52-.43,.09-.26,.43-.45,.68-.64,.07-.06,.22,0,.34,0Z"/><path class="cls-1" d="M56,83.42c-.27,.13-.46,.3-.59,.26-.3-.08-.82-.26-.82-.4,0-1.02-1.4-1.32-1.2-2.43,.02-.09-.6-.29-.58-.38,.11-.65-.64-.45-.79-.87-.12-.34-.39-.7-.69-.91-.64-.45,.29-.72,.08-1.09l.29-.12c.12,.41,.49,.51,.78,.74,.37,.28,.67-.09,.89,.1,.19,.16,.42,.59,.35,.67-.5,.62,.16,.92,.31,1.34,.11,.3,.3,.57,.42,.86,.23,.51,.35,1.06,.99,1.3,.23,.09,.32,.52,.56,.93Z"/><path class="cls-1" d="M56.17,78.87l.35-.35c1.02,.28,1.19,.52,1.03,1.51-.03,.2-.75,.47,.08,.57,.36,.04,.75,.15,1.05,.35,.24,.16,.29,.59,.53,.75,.39,.28,.14,.57,.18,.87,.04,.29,.31,.55,.46,.84,.15,.28,.14,.26-.38,.32-.19,.02-.36,.2-.54,.31-.02-.43,.09-.86-.33-1.23-.35-.31-.57-.77-.85-1.16-.22-.31-.45-.47-.73-.04-.03,.04-.3-.05-.44-.11-.6-.25,.03-.87-.39-1.26-.41-.38-.42-.92-.02-1.39Z"/><path class="cls-1" d="M70.32,93.04c.04-.21,0-.47,.12-.61,.37-.48,.37-.95-.12-1.26-.57-.36,.02-.6,0-.89,.06,0,.11,0,.17,0,.55,.02,.4,.1,.65,.59,.2,.38,0,.44-.13,.63,.2,.08,.42,.12,.58,.25,.42,.35,.72,.75,.27,1.29-.26,.32-.3,.5,.19,.72,.44,.2,.77,.63,1.15,.97,.04,.03-.14,.96-.18,.95-.12-.02-.26-.05-.36-.12-.51-.33-.75-.94-1.42-1.17-.53-.18-.3-1.1-.93-1.35Z"/><path class="cls-1" d="M60.28,85.1c-.25,.8-.4,1.48-.67,2.11-.25,.6-.78,1.18,.31,1.48,.03,0,.04,.35-.04,.43-.09,.09-.38,.13-.44,.07-.2-.25-.43-.52-.48-.82-.06-.31-.07-.47-.46-.54-.48-.09-.26-.81-.23-.82,1.08-.3,.59-1.16,.65-1.8,.04-.37,.15-.55,.5-.46,.33,.08,.63,.25,.86,.35Z"/><path class="cls-1" d="M67.68,90.99c.07-.18,.1-.47,.23-.52,.28-.11,.72-.25,.9-.12,.42,.32,.94,.65,.83,1.35-.09,.53,.03,1,.51,1.33,.06,.04,.07,.26,.05,.27-.53,.23-.94,0-1.27-.63-.08-.15-.32-.21-.44-.34-.33-.37-1.09-.52-.81-1.35Z"/><path class="cls-1" d="M78.01,96.49c-.16,.15-.25,.27-.37,.34-.13,.08-.53-.06-.28,.3,.18,.26,.32,.67,.06,.66-.41,0-1.15-.29-1.17-.52-.06-.56-.25-1.04-.38-1.56-.05-.21,.13-.51,.28-.72,.27-.37,.55-.34,.73,.06,.15,.34,.29,.69,.34,1.05,.08,.52,.24,.35,.47,.12,0,0,.18,.14,.33,.27Z"/><path class="cls-1" d="M61.74,97.53c-.38,0-.84,.1-.74-.56,.11-.67-.59-.52-.88-.77-.5-.45-.6-.49-.15-1.18,.28-.44,.65-.33,.98-.11,.17,.11,.42,.42,.37,.5-.43,.74-.12,1.04,.6,1.17,.14,.03,.28,.21,.35,.35,.07,.13,.08,.31,.06,.46,0,.06-.17,.12-.27,.14-.11,.02-.23,0-.34,0Z"/><path class="cls-1" d="M65.85,81.05c-.02,.15-.03,.32-.09,.46-.03,.07-.18,.11-.28,.11-.1,0-.25-.05-.28-.12-.14-.34-.31-.68-.35-1.04-.06-.53-.22-.61-.61-.25-.18-.29-.75-.42-.38-.95,.12-.17,.12-.42,.25-.57,.11-.12,.32-.15,.5-.17,.05,0,.12,.16,.18,.25,.34,.52,.13,1.38,.98,1.62,.08,.02,.05,.41,.07,.65Z"/><path class="cls-1" d="M59.2,92.47c-.21,.37-.4,.76-.66,1.09-.06,.07-.42-.1-.63-.18-.13-.06-.35-.24-.34-.25,.5-.84-.11-1.06-.7-1.32-.04-.02-.03-.22,0-.33,.02-.07,.1-.16,.17-.17,.6-.04,1.18-.1,1.43,.69,.07,.23,.52,.34,.74,.47Z"/><path class="cls-1" d="M63.82,98.79c.45,.38,.8,.56,.96,.84,.18,.33-.04,.65-.35,.85-.08,.05-.25,0-.35-.06-.28-.14-.56-.31-.82-.48-.06-.04-.13-.19-.1-.23,.21-.31,.44-.62,.67-.92Z"/><path class="cls-1" d="M63.43,77.14c.35,0,.92,0,.64,.44-.29,.44,0,.64,.05,.94-.11,0-.23,0-.34,0-.76-.05-1.04-.32-1.04-.98,0-.6,.44-.35,.7-.4Z"/><path class="cls-1" d="M50.7,81.22c.1,.14,.26,.28,.29,.44,.06,.3-.12,.72,.46,.68,.03,0,.14,.25,.1,.28-.26,.3-.54,.58-.83,.84-.11,.1-.27,.16-.41,.24,0-.17,0-.34,0-.51-.03-.58,.83-1.16,0-1.74l.38-.24Z"/><path class="cls-1" d="M80.33,96.74c-.03,.83-.16,.95-.76,.9-.2-.01-.48,.15-.58,.06-.18-.16-.42-.56-.35-.66,.33-.46,.9-.32,1.37-.4,.11-.02,.24,.07,.32,.09Z"/><path class="cls-1" d="M78.53,100.47c-.25-.4-.53-.68-.6-1-.11-.45,.28-.86,.76-.89,.08,0,.17,.11,.25,.17-.56,.43,.23,.85,0,1.27-.07,.12-.19,.22-.41,.46Z"/><path class="cls-1" d="M66.25,83.05c-.04,.1,0-.18,.16-.36,.1-.12,1.08,.45,1.13,.68,.02,.1-.08,.3-.16,.33-.15,.05-.34,.01-.51,.02-.28,0-.85,.72-.62-.66Z"/><path class="cls-1" d="M72.58,97.59c.34,.2,.64,.42,.98,.58,.49,.24-.32,.48,.02,.74,.28,.21,.14,.39-.15,.34-.47-.09-1.12-1.07-1.03-1.51,.01-.07,.13-.12,.18-.15Z"/><path class="cls-1" d="M74.81,100.98c-.04,.11-.06,.26-.13,.29-.15,.06-.36,.12-.47,.05-.29-.19-.53-.45-.79-.68,.14-.11,.28-.3,.43-.33,.51-.08,.81,.2,.95,.67Z"/><path class="cls-1" d="M82.75,99.09c-.25-.39-.51-.65-.59-.97-.04-.15,.24-.43,.43-.58,.14-.12,.89,.6,.8,.82-.09,.23-.34,.4-.64,.73Z"/><path class="cls-1" d="M76.04,85.8c-.12-.06-.35-.15-.54-.29-.07-.05,.76-.83,.85-.75,.2,.17,.46,.39,.5,.62,.09,.57-.39,.36-.81,.43Z"/><path class="cls-1" d="M82.54,89.6c.07,.07,.17,.13,.19,.22,.08,.42-.19,.92,.28,1.26,.01,0-.05,.2-.11,.22-.1,.04-.24,.05-.33,0-.32-.17-.5-1.18-.27-1.45,.07-.09,.16-.16,.24-.24Z"/><path class="cls-1" d="M80.16,99.32c-.02-.15-.07-.26-.05-.36,.06-.25,.11-.52,.23-.74,.08-.15,.28-.23,.42-.35,.09,.17,.23,.34,.25,.51,.07,.55-.34,.73-.85,.93Z"/><path class="cls-1" d="M53.42,85.61c-.13,.06-.26,.18-.35,.16-.67-.16-.83-.67-.39-1.15,.07-.08,.16-.14,.23-.21,.05,.09,.13,.17,.16,.27,.07,.25,.12,.51,.18,.76,.01,.05,.07,.08,.17,.18Z"/><path class="cls-1" d="M96.12,100.99c-.05-.05-.21-.21-.2-.22,.18-.21,.46-.42-.1-.47-.35-.03-.35-.2-.1-.37,.13-.09,.36-.19,.47-.14,.51,.26,.34,.77,.36,1.2h-.42Z"/><path class="cls-1" d="M67.37,98.93s.1,.05,.12,.09c.14,.33,.31,.66,.4,1.01,.03,.1-.15,.27-.27,.38-.09,.08-.23,.09-.35,.13,0-.49-.01-.98-.01-1.47,0-.04,.07-.08,.11-.12Z"/><path class="cls-1" d="M69.27,101.88c-.13,.05-.26,.14-.38,.14-.25-.01-.65,.15-.62-.31,.01-.24,.21-.48,.33-.72,.12,.15,.23,.29,.34,.44,.1,.13,.2,.26,.33,.45Z"/><path class="cls-1" d="M67.89,80.67l-.2,.22c-.27-.39-.54-.77-.81-1.16,0-.01,.06-.09,.1-.11,.1-.03,.23-.09,.3-.06,.42,.2,.71,.49,.6,1.11Z"/><path class="cls-1" d="M71.78,96.29c-.16,.25-.31,.52-.49,.77-.03,.04-.21,.02-.22,0-.09-.37-.18-.75,.22-1.03,.09-.06,.16-.15,.24-.23l.25,.49Z"/><path class="cls-1" d="M78.95,93.91l-.9,.83c-.05-.1-.15-.21-.13-.28,.09-.3,.21-.6,.35-.89,.02-.04,.24-.02,.35,.02,.1,.04,.17,.15,.34,.32Z"/><path class="cls-1" d="M74.96,98.22l.53,.52-.92,.46c-.04-.09-.14-.22-.11-.28,.14-.25,.32-.47,.49-.7Z"/><path class="cls-1" d="M67.99,84.26l-.28,.47c-.16-.16-.41-.3-.46-.49-.03-.14,.19-.35,.3-.53l.43,.55Z"/><path class="cls-1" d="M72.92,78.1c-.24,.23-.38,.42-.44,.4-.16-.06-.31-.2-.42-.34-.02-.03,.16-.31,.25-.31,.16,0,.32,.12,.61,.25Z"/><path class="cls-1" d="M70.11,85.85c-.24,.22-.38,.32-.47,.45-.1,.14-.15,.32-.22,.48-.04-.15-.11-.29-.12-.44-.02-.26-.07-.57,.36-.55,.12,0,.24,.03,.47,.07Z"/><path class="cls-1" d="M77.45,100.93l.41,.17c-.21,.19-.42,.39-.65,.56-.04,.03-.18-.07-.27-.11l.52-.63Z"/><path class="cls-1" d="M50.44,83.94l-.34,.43-.46-.46c.11-.07,.23-.19,.34-.19,.13,0,.26,.11,.46,.21Z"/><path class="cls-1" d="M89.02,98.54l-.24,.37-.46-.58c.1-.04,.22-.13,.28-.1,.16,.08,.29,.21,.41,.31Z"/><path class="cls-1" d="M87.98,97.49l-.23,.38-.48-.56c.09-.04,.21-.13,.28-.11,.16,.07,.29,.19,.42,.29Z"/><path class="cls-1" d="M59.91,93.58l-.46,.49c-.06-.14-.2-.36-.15-.41,.12-.13,.32-.19,.49-.26,.02,0,.09,.14,.13,.19Z"/><path class="cls-1" d="M68.32,89.54l-.23,.38-.48-.56c.09-.04,.21-.13,.28-.11,.16,.07,.29,.19,.42,.29Z"/><path class="cls-1" d="M82.53,91.56c-.31,.03-.5,.06-.68,.06-.02,0-.04-.14-.06-.22,.15-.03,.3-.07,.45-.08,.06,0,.12,.09,.3,.24Z"/><path class="cls-1" d="M77.52,93.41l-.3-.2c.14-.06,.28-.14,.43-.16,.08,0,.17,.1,.26,.16l-.39,.2Z"/><path class="cls-1" d="M60.67,84.72l.31,.17c-.17,.07-.33,.15-.5,.19-.04,0-.1-.1-.16-.15l.35-.21Z"/><path class="cls-1" d="M77.08,81.49c.07,.3,.16,.47,.12,.59-.03,.11-.21,.16-.33,.24,0-.11-.02-.22,0-.32,.03-.13,.09-.24,.2-.51Z"/><path class="cls-1" d="M58.93,84.21l-.2,.16c-.02-.07-.08-.19-.06-.21,.07-.05,.17-.07,.26-.1v.15Z"/><path class="cls-1" d="M70.17,85.46s.11,.1,.11,.11c-.04,.08-.1,.14-.15,.21l-.15-.15,.2-.16Z"/><path class="cls-1" d="M68.54,86.94l-.12,.22s-.11-.09-.11-.11c.02-.08,.07-.16,.11-.23l.12,.12Z"/><path class="cls-1" d="M51.69,77.14l.29,.23-.29,.11v-.35Z"/><path class="cls-1" d="M69.82,89.93l-.16-.2c.07-.02,.19-.08,.21-.06,.05,.07,.07,.17,.1,.26h-.15Z"/><path class="cls-1" d="M51.53,77.14l-.16-.2c.07-.02,.19-.08,.21-.06,.05,.07,.07,.17,.1,.26h-.15Z"/><path class="cls-1" d="M70.32,90.27l-.35-.35,.35,.35Z"/><path class="cls-1" d="M59.33,76.57l.12-.12c.04,.08,.09,.15,.11,.23,0,.03-.07,.08-.11,.11l-.12-.22Z"/><path class="cls-1" d="M82.22,92c.04,.08,.09,.15,.11,.23,0,.03-.07,.08-.11,.11-.04-.08-.09-.15-.11-.23,0-.03,.07-.08,.11-.11Z"/><path class="cls-1" d="M61.88,93.04l-.16-.2c.07-.02,.19-.08,.21-.06,.05,.07,.07,.17,.1,.26h-.15Z"/><path class="cls-1" d="M76.73,93.07s.11,.1,.11,.11c-.04,.08-.1,.14-.15,.21l-.15-.15,.2-.16Z"/><path class="cls-1" d="M90.3,93.93s-.1,.11-.11,.11c-.07-.04-.14-.1-.21-.15l.15-.15,.16,.2Z"/><path class="cls-1" d="M74.58,97.48l-.12-.12c.08-.04,.15-.09,.23-.11,.03,0,.08,.07,.11,.11l-.22,.12Z"/><path class="cls-1" d="M89.47,99.6c.04,.08,.09,.15,.11,.23,0,.03-.07,.08-.11,.11-.04-.08-.09-.15-.11-.23,0-.03,.07-.08,.11-.11Z"/><path class="cls-1" d="M68.44,100.99l-.16-.2c.07-.02,.19-.08,.21-.06,.05,.07,.07,.17,.1,.26h-.15Z"/><path class="cls-1" d="M75.34,101.68l-.16-.2c.07-.02,.19-.08,.21-.06,.05,.07,.07,.17,.1,.26h-.15Z"/><path class="cls-1" d="M75.81,101.88s-.1,.11-.11,.11c-.07-.04-.14-.1-.21-.15l.15-.15,.16,.2Z"/><path class="cls-1" d="M84.77,81.11c-.07,.05-.16,.18-.23,.17-.27-.05-.76,.23-.74-.33,0-.22,.28-.43,.44-.64l.53,.8Z"/><path class="cls-1" d="M53.91,97.92c-.06-.16-.18-.36-.13-.43,.09-.14,.29-.21,.44-.3,.04,.1,.13,.24,.1,.29-.09,.15-.24,.27-.4,.44Z"/><path class="cls-1" d="M53.6,96.56l-.13-.3c.09-.04,.2-.13,.28-.11,.11,.03,.2,.14,.3,.22l-.45,.19Z"/><path class="cls-1" d="M54.45,98.22l-.35-.35,.35,.35Z"/><path class="cls-1" d="M83.77,84.9s0-.21,.04-.36c.02-.07,.17-.13,.26-.14,.09-.01,.26,.02,.28,.08,.14,.38,.32,.78-.18,1.07-.09,.05-.16,.15-.24,.23-.06-.09-.15-.17-.16-.26-.03-.16,0-.33,0-.62Z"/><path class="cls-1" d="M89.29,68.85l-.35,.35,.35-.35Z"/></g></g></svg>