<svg xmlns="http://www.w3.org/2000/svg" viewBox="0 0 61.6 46.19"><defs><style>.cls-1{fill:#1d1d1b;}</style></defs><g id="Calque_2" data-name="Calque 2"><g id="header"><path class="cls-1" d="M.45,6.43c1.25,4.85,5.4,8.88,9.12,12a96,96,0,0,0,13.12,8.84q8.18,4.8,16.38,9.57a62.31,62.31,0,0,0,7.45,3.83,29.73,29.73,0,0,0,4,1.35c1.42.35,2.85.43,4.28.71A6.17,6.17,0,0,1,58,44.83a3.68,3.68,0,0,0,2.27,1.36c2.14,0,1-3.45.74-4.6-1.38-5.09-5.11-9.1-9-12.49-2.11-1.85-4.32-3.6-6.4-5.5s-3.74-3.91-6-5.39-5.11-2.49-7.5-4.06-4.62-3.46-7-5.15C20.31,5.48,15,2.35,9.06.87A30.35,30.35,0,0,0,4.82.12,6.54,6.54,0,0,0,1.39.34C-.79,1.41.1,5.45.69,7.22c.16.46.88.26.73-.2A11.09,11.09,0,0,1,.88,2.89c.05-1,.24-1.72,1.26-2A5.89,5.89,0,0,1,4.19.82a29.35,29.35,0,0,1,7.29,1.55A51.67,51.67,0,0,1,24.66,9.52c2,1.46,4,3.05,6,4.51a52.71,52.71,0,0,0,6.73,3.75,24.14,24.14,0,0,1,6,4.69c1.83,1.81,3.79,3.48,5.77,5.14,3.76,3.17,7.58,6.46,9.86,10.9A16.69,16.69,0,0,1,60.38,42a16.32,16.32,0,0,1,.33,1.72,3.29,3.29,0,0,1,.09,1.16c-.32.74-1,.43-1.46.11-.8-.57-1.36-1.39-2.12-2a5.48,5.48,0,0,0-2.7-1A33.11,33.11,0,0,1,46.93,40a58.5,58.5,0,0,1-7.1-3.62c-4.91-2.83-9.79-5.72-14.69-8.59a117.84,117.84,0,0,1-13.76-8.89C7.3,15.72,2.51,11.45,1.17,6.23c-.11-.47-.84-.27-.72.2Z"/><path class="cls-1" d="M1,6.84c2.2.92,3.67,2.84,5.34,4.46a40.75,40.75,0,0,0,5,4.07c4,2.81,8.16,5.35,12.26,8a97.81,97.81,0,0,0,12.35,7c4.38,2,9,3.44,13.27,5.66s8.12,5.24,10.27,9.59c.21.43.86.05.65-.38-4-8.14-13.13-11.1-21-14.29a85.19,85.19,0,0,1-13.47-7.16c-4.27-2.7-8.56-5.4-12.74-8.23a42.25,42.25,0,0,1-6.42-5.13C4.85,8.81,3.35,7,1.14,6.11.7,5.93.51,6.65,1,6.84Z"/><path class="cls-1" d="M60.76,41c-5.58-7-12.57-12.71-19.23-18.62-1.71-1.52-3.39-3.07-5.19-4.46A48,48,0,0,0,31,14.42c-4-2.32-8.07-4.57-12.14-6.78C14.2,5.11,9.54,2.62,4.89.11c-.43-.23-.8.42-.38.65C12.6,5.11,20.72,9.42,28.7,14c1.91,1.09,3.85,2.16,5.68,3.39a54.57,54.57,0,0,1,5.34,4.36c3.39,3,6.8,6,10.15,9A93.74,93.74,0,0,1,60.23,41.49c.31.38.83-.16.53-.53Z"/><path class="cls-1" d="M6.83,11.77a2.17,2.17,0,0,0,1.73.55c.7-.19.73-.88,1.06-1.41,1-1.54,3.08-1.55,4.67-1.5a2,2,0,0,1,2.06,1.07A14.41,14.41,0,0,1,17.12,13c.11.43.33.91,0,1.27a5.9,5.9,0,0,0-.74.68c-.37.49-.69,2-1.52,1.83-.48-.09-.68.64-.2.72a1.55,1.55,0,0,0,1.5-.63c.47-.58.58-1.35,1.18-1.82A1.48,1.48,0,0,0,18,13.62a16.16,16.16,0,0,0-.61-2.37A4.34,4.34,0,0,0,16.6,9.5a2.63,2.63,0,0,0-1.74-.81,8.15,8.15,0,0,0-4.4.53A3.51,3.51,0,0,0,8.9,10.66c-.14.27-.23.84-.54.94s-.87-.27-1.15-.48-.77.37-.38.65Z"/><path class="cls-1" d="M12.54,8.91a5.76,5.76,0,0,0-.19-3.6,4.09,4.09,0,0,0-2.18-2.15A5,5,0,0,0,7,2.76,4.3,4.3,0,0,0,4.53,4.85a4.29,4.29,0,0,0-.67,3.61c.15.46.88.26.72-.19a3.9,3.9,0,0,1,.85-3.42A3.62,3.62,0,0,1,6.66,3.68,3.06,3.06,0,0,1,8.4,3.43a4.29,4.29,0,0,1,2.85,1.46,4.55,4.55,0,0,1,.57,3.82.37.37,0,0,0,.72.2Z"/><path class="cls-1" d="M16.44,15.24A4.73,4.73,0,0,0,19,19.46a10,10,0,0,0,2.49,1,2,2,0,0,0,2.11-.87,6.64,6.64,0,0,0,.62-1.18c.22-.49.47-.95.7-1.43a5.7,5.7,0,0,0,.66-2.48c0-1.79-1.71-3-3.26-3.56a4.35,4.35,0,0,0-5.09,1.73c-.26.4.39.78.65.38a3.58,3.58,0,0,1,3.81-1.52,5.88,5.88,0,0,1,1.87.94,2.56,2.56,0,0,1,1.23,1.64c.27,1.49-.78,3-1.37,4.26-.28.62-.73,1.46-1.53,1.4a4.33,4.33,0,0,1-1.06-.32c-.34-.13-.67-.25-1-.4a4.14,4.14,0,0,1-2.66-3.81.38.38,0,0,0-.75,0Z"/><path class="cls-1" d="M23.19,19a9.38,9.38,0,0,0,1,2.44,6.09,6.09,0,0,0,2,1.54,4.88,4.88,0,0,0,2.57.55,2.45,2.45,0,0,0,2-1.16,12.88,12.88,0,0,0,1.33-2.23A6.05,6.05,0,0,1,32.77,19,2.58,2.58,0,0,0,33.31,18c.17-.89-.42-1.53-1-2.16a4.43,4.43,0,0,0-1.95-1.53,6.73,6.73,0,0,0-3-.47A3.45,3.45,0,0,0,25,14.7c-.29.37.23.9.53.53a2.59,2.59,0,0,1,1.74-.65,5.61,5.61,0,0,1,2.34.24,3.43,3.43,0,0,1,1.77,1c.42.46,1.19,1.12,1.19,1.79s-.7,1.24-1,1.83-.62,1.25-1,1.85-.84,1.35-1.5,1.48a4,4,0,0,1-2.24-.28,6,6,0,0,1-2-1.37,7.75,7.75,0,0,1-1-2.31c-.16-.45-.89-.25-.72.2Z"/><path class="cls-1" d="M29.28,23.11a7.44,7.44,0,0,0,1.94,4.46,2.28,2.28,0,0,0,2.16.71A5.91,5.91,0,0,0,36,27.77a5.19,5.19,0,0,0,1.39-2,10.13,10.13,0,0,0,1.12-2.35,3.72,3.72,0,0,0-.53-2.34,5.06,5.06,0,0,0-1.43-1.9A3.49,3.49,0,0,0,34,18.52a5,5,0,0,0-1.37.31c-.35.13-.79.24-.92.62a.39.39,0,0,0,.09.37l0,0c.33.35.86-.18.53-.54l0,0,.1.36c0,.08.48-.13.55-.15a4.64,4.64,0,0,1,.64-.17,4,4,0,0,1,1.38,0,2.85,2.85,0,0,1,1.91,1.39,4.79,4.79,0,0,1,.9,2.33,3.16,3.16,0,0,1-.49,1.26c-.2.4-.4.8-.62,1.19s-.44.79-.67,1.17a1.33,1.33,0,0,1-1,.69,10.49,10.49,0,0,1-1.25.2,3.57,3.57,0,0,1-1.42,0c-.4-.15-.65-.59-.88-.92a11.63,11.63,0,0,1-.67-1A5.05,5.05,0,0,1,30,23.11a.38.38,0,0,0-.75,0Z"/><path class="cls-1" d="M35.34,27.66a5.65,5.65,0,0,0,1.17,2.57,5.83,5.83,0,0,0,1.16.67l1.45.73a6.37,6.37,0,0,0,1.25.56,7.92,7.92,0,0,0,1.45.21,2.09,2.09,0,0,0,1.19,0c.35-.19.43-.67.66-1,.55-.74,1.38-1.23,1.94-2A2.8,2.8,0,0,0,46.09,27a2.34,2.34,0,0,0-.54-1.09,8.78,8.78,0,0,0-1.1-.68c-.69-.47-1.3-1.06-2-1.54a3.63,3.63,0,0,0-4.93.39c-.32.36.21.89.53.53a2.83,2.83,0,0,1,3.78-.43,16.56,16.56,0,0,1,1.56,1.2,7.77,7.77,0,0,0,.74.54c.29.2.75.33,1,.61a2.15,2.15,0,0,1,0,2.31,9.57,9.57,0,0,1-1.58,1.6,4.63,4.63,0,0,0-.63.76c-.09.13-.14.29-.22.42s0,.1-.13.14a.88.88,0,0,1-.32,0,6.23,6.23,0,0,1-2.42-.53c-.81-.41-1.63-.8-2.42-1.23s-1.08-1.58-1.36-2.47c-.14-.45-.86-.26-.72.2Z"/><path class="cls-1" d="M49.53,36a1.76,1.76,0,0,0,1.78-1.76,4.66,4.66,0,0,0-.86-2.74,5.9,5.9,0,0,0-5.1-2.66.38.38,0,0,0,0,.75,5.14,5.14,0,0,1,4.22,2,4.87,4.87,0,0,1,.94,2c.14.69,0,1.78-1,1.68-.48-.05-.48.7,0,.75Z"/><path class="cls-1" d="M42.74,32.22s0,0-.05,0l.06.08a.64.64,0,0,1-.08-.14l0,.09a.57.57,0,0,1,0-.14.27.27,0,0,0-.06-.12.35.35,0,0,0-.11-.1.23.23,0,0,0-.14,0,.26.26,0,0,0-.15,0l-.09,0A.4.4,0,0,0,42,32l0,.09a.34.34,0,0,0,0,.2.29.29,0,0,0,0,.09l0,0s0,.09,0,.13l.05.08.12.14a.2.2,0,0,0,.12.08.32.32,0,0,0,.14,0,.37.37,0,0,0,.15,0,.28.28,0,0,0,.12-.08l.06-.07a.41.41,0,0,0,.05-.19l0-.1a.28.28,0,0,0-.09-.17Z"/><path class="cls-1" d="M50.36,36.22a.74.74,0,0,1,.46-.14,5.54,5.54,0,0,1,.71,0,3.25,3.25,0,0,1,1.33.39,2.55,2.55,0,0,1,.84,2,.39.39,0,0,0,.38.37c.18,0,.4-.17.37-.37a3.26,3.26,0,0,0-1.27-2.65,4.32,4.32,0,0,0-1.72-.46,2,2,0,0,0-1.63.33c-.36.33.17.85.53.53Z"/><path class="cls-1" d="M55.25,39.1l0-.11s0-.1,0-.06,0-.06,0-.07v-.12c0-.13,0-.26,0-.39s0-.12,0,0,0-.06,0-.09a1.05,1.05,0,0,1,0-.19s0-.09,0-.05,0,0,0,0l0,0,.06-.07.07-.06s0,0,0,0l.17-.11.17-.08,0,0,.09,0a2.34,2.34,0,0,1,.38-.09h.35a.39.39,0,0,0,.38-.38.38.38,0,0,0-.38-.37,2.71,2.71,0,0,0-1,.14,2.19,2.19,0,0,0-.88.52,1.64,1.64,0,0,0-.38,1,2.2,2.2,0,0,0,0,1,.37.37,0,0,0,.72-.2Z"/><path class="cls-1" d="M56.79,41.5a1.41,1.41,0,0,0,1-.13,1.53,1.53,0,0,0,.57-.83,2.7,2.7,0,0,0,.12-1,3.7,3.7,0,0,1-.06-.93.37.37,0,0,0-.26-.46.37.37,0,0,0-.46.26,2.54,2.54,0,0,0,0,.87,2.85,2.85,0,0,1,0,.77,2.15,2.15,0,0,1-.11.36.46.46,0,0,1-.07.14.43.43,0,0,1,0,.07s0,0,0,0-.07.07,0,.06l0,0c-.06,0,0,0,0,0l-.1,0H57a.38.38,0,0,0-.46.27.38.38,0,0,0,.26.46Z"/></g></g></svg>