<svg xmlns="http://www.w3.org/2000/svg" viewBox="0 0 348.24 585.44"><defs><style>.cls-1{opacity:0.05;}.cls-2{fill:#322b80;}</style></defs><g id="Calque_2" data-name="Calque 2"><g id="Calque_1-2" data-name="Calque 1"><g id="HARICOT" class="cls-1"><path class="cls-2" d="M175.88,585.44a19.6,19.6,0,0,1,.52-3.49c.08-.49.69-.88,1-1.33a2.55,2.55,0,0,1,.92-4c-1.58-1.15-1.47-1.76.44-2.71l-1.25-.71c.5-.79,1-1.6,1.54-2.34.06-.08.64.34,1,.41a4.73,4.73,0,0,0,2.09,0l-.94-.59L180,570l.91-1.09-.61-2a5.78,5.78,0,0,1,1.61-.44c2.13.06.84-1.34.92-2.3-.75.33-1.45.65-2.17.93a1.45,1.45,0,0,1-1,.17.88.88,0,0,1-.33-.81c.19-.33.65-.79.89-.73,2,.56,2.62-1.45,4-2.07l-.32-.45-1.57,1.38c-.08-.46-.19-.9-.23-1.34s0-.78,0-1.16-.26-.85-.2-.88c1.57-.81.82-3,2.16-3.93.62-.43.5-2.94-.07-3.69l-.94,2c-.24-.81-.53-1.25-.43-1.54.67-2,1.49-3.88,2.11-5.86a9.37,9.37,0,0,0,0-2.5l2.9-.6.11-.27-2.05-.74.15-1.34,2.27.47c-.77-.75-1.61-1.2-1.68-1.75s.73-1.09,1.29-1.56c.19-.66-2.07-1.69.36-2.13-.94-1.64.42-3,.53-4.5.14-2,.4-4,1.86-5.06l-.35-2.59,1.7-.5-1.2-1.15,1.61-.89-.41-1.33.31-.19,1.18.88c.39-1.23,0-1.65-1.87-2,.19-.35.46-.93.49-.92.93.39,2.27-.28,2.8,1.07a13.38,13.38,0,0,1,.43,1.92l.51-.06v-5.12l1.25-.42-1.26-1.17c.47-.85,1.33-1.77-.32-2.42a15.23,15.23,0,0,1,.48-3l1.82,1c-1-1.63.45-2.58,1-3.75-2.14-.13-2.54-.51-2.83-2.71,0-.34.27-.72.31-1.09a3.77,3.77,0,0,0,0-.94l2.95-1.14c-.39-1.12-.41-2.33-2.19-1.63l.19-.77,2.2-.23,0-.46-1.93-.24c.62-.78,1-1.31,1.59-2-.22-.63-.61-1.14-1.78.45.37-2.5.61-4.32.92-6.13.25-1.46.64-2.89.86-4.36.47-3.11.86-6.23,1.28-9.35.33-2.52.64-5,1-7.56.24-1.69.62-3.36.8-5.05.16-1.4.07-2.83.17-4.24q.24-3.37.61-6.75a51.65,51.65,0,0,1,.92-6.7c1.17-4.75,1-9.51.52-14.31,0-.44-.06-.88-.09-1.32-.18-3.8-.64-7.62-.44-11.39.1-1.92-1.05-3.3-1-5.12s-.53-3.57-.7-5.37a13.35,13.35,0,0,1,.26-2.54c-1.61-.58-.4-2.55-.91-4l4.32,1.27.19-.7a16.47,16.47,0,0,0-3.84-1.27c-1-.08-1.22-.44-1.34-1.19-.59-3.71-1.21-7.42-1.7-11.14-.26-2-.22-4-.41-6a102,102,0,0,1,.91-23.16c.27-2,.68-4,1-6,.06-.35-.16-.74-.17-1.11,0-.84,0-1.67,0-2.51l.53-.12-2-1.63c-.23,2.23-.41,4.13-.64,6-.52,4.29-1.21,8.56-1.56,12.86-.24,3,0,6,0,8.94,0,2.05-.05,4.09,0,6.14,0,2.82-.22,5.71.29,8.44.8,4.34.3,8.62.2,12.93-.09,4-.13,8-.36,11.91-.26,4.4-.66,8.79-1.1,13.17a29.87,29.87,0,0,1-.92,4.87c-1.17,4.34-.28,8.71-.36,13.07a10.75,10.75,0,0,1-.11,2c-.93,4.37-2,8.72-2.84,13.12-.74,3.83-1.17,7.72-2,11.54a55.56,55.56,0,0,1-1.86,5.69c-.1.3.16.71.11,1.05q-.48,3.6-1,7.18A4.82,4.82,0,0,1,186,487c-1-1.15-1.83-2.29-3.45-1.74l1.42,1.43-.39.42c-1-.62-2.57-.45-2.65-2.38,0-.36-.8-.69-1.63-1.35l2.41-.73c-.29-.62-.59-1.46-1.8-.57a1.64,1.64,0,0,1-.87.35,15.25,15.25,0,0,1-1.77-.21l1.18-.9a13.38,13.38,0,0,1-.76-1.79,3.32,3.32,0,0,0-3.24-1.45c-2.19-2.4-4.32-1.08-6.5.27a3.91,3.91,0,0,1-.35-3.85c.17-.35.73-.51,1.22-.83.13,1.12.21,1.91.31,2.75,2.66-.91,2.69-3,2.93-5-.85.5-.85.5-1.2,3.11-1-.15-1.67-.55-1.41-1.78l0,0c.42-.86.85-1.71,1.22-2.47-1,.11-2.24-.15-2.18-2.15l-.65,1c-1.14-1.15-1.05-2.33.34-3.44h-1.44c-.06-.06-.17-.13-.19-.22-.47-1.75-1.05-3.47-1.35-5.25a11.86,11.86,0,0,1,.38-3.12l2.1,1.87.51-.39a10.49,10.49,0,0,1-1.12-1.74,1.42,1.42,0,0,1,.17-1.25c1-1,2.19-1.82,3.39-2.78-1.85-.94-.55-2.72-.92-4.13l1.85.08,0,.48c.43-.6.87-1.19,1.21-1.67-.36-.91-.7-1.75-1.13-2.82-1.31-.14-1.22-1.12-.55-2.49l-1.5.25a5.17,5.17,0,0,1-.27,1.27c-.15.3-.5.68-.76.68a1.09,1.09,0,0,1-.75-.69,1.71,1.71,0,0,1,.22-1.16c.24-.39.77-.6,1-1a8.81,8.81,0,0,0,.47-1.73c-.88-.12-1.08-1.84-2.44-1a1.83,1.83,0,0,1-1.78-.24c-.56-.62-1-1.25-1.82-.76-.51.3-.82.95-1.31,1.54-1.27-.31-1.25-.45.86-3.4l-1-1.32c.21-1.2.37-2.11.55-3.12-2.78.32-2.87.5-1.82,3.63a6.12,6.12,0,0,1-1.81-.48,5.64,5.64,0,0,1-1.07-1.38c-1.15,1.95-1,2.14,2.57,3.18l-.15,2c-1.47-1-3-1.45-3.76-2.53a6.92,6.92,0,0,1-1.08-6.43l2.94.51.18-.4a5.46,5.46,0,0,1-1.07-.57c-.46-.4-1.27-1-1.2-1.32a55.79,55.79,0,0,1,1.62-5.54c.1-.31.53-.49.77-.7-.28-.44-.88-1.06-.77-1.28a20.68,20.68,0,0,1,1.8-2.59l.57.16-.86-2.62c-.09-.61-.2-1.4-.36-2.54l-1.88,1.45.17-2.32c-1.18-2.27-2.48-4.72-3.73-7.2a1.48,1.48,0,0,1,.15-1.07c.69-1.37.39-3.56-.6-3.48a7.22,7.22,0,0,0-3.31,1.75c-.37.27-.49,1.12-.49,1.71,0,4.52-1.54,8.77-2.11,13.18-.41,3.18-.39,6.43-.75,9.62a9.11,9.11,0,0,1-1.32,2.72l-.65-.3a20.66,20.66,0,0,0,.72-2.09,3.66,3.66,0,0,0-.1-1.13c-.37.18-1,.32-1.05.57a23.47,23.47,0,0,0-.25,2.91,7.74,7.74,0,0,1-.14,1.19.82.82,0,0,1-.56,0,3,3,0,0,1-.35-1.19,13.44,13.44,0,0,1,.26-3,2.53,2.53,0,0,1,1-1.24,11.09,11.09,0,0,1,1.89-.83l-1.16-.65c-.46.56-.81,1-1.17,1.41l-.59-.36c.41-3.32.82-6.64,1.26-10.11,1.43.78,1.43.78.3,1.91l1.5,2.64h.36v-6.55l-1.4,1.77-.58-.25q-.13-2.86-.28-5.71c-.07-1.19.47-1.61,1.56-1.37l0,0c.49.11,1.12.44,1.45.25s.48-.91.55-1.42a31.1,31.1,0,0,1,.57-5.05,2.67,2.67,0,0,1,3.24-1.79,4.79,4.79,0,0,0,2.19-.05l-2.52-1.29-3.2,1.11c-.48.79-.94,1.58-1.44,2.32a.61.61,0,0,1-.56,0,1,1,0,0,1-.07-.73c.3-.86.66-1.7,1.06-2.71l1-.15,1.48-2.22-1.06-.45-.95,2.2-.65-.21c.23-1.36.43-2.73.68-4.09.52-2.75,1.09-5.49,1.61-8.24.57-3.07,1.22-6.12,1.66-9.21.68-4.92,1.25-9.86,1.8-14.8.14-1.33.11-2.6,1.94-2.37.07,0,.17-.23.36-.49H153.3a4.72,4.72,0,0,1-.1-1c.65-4,1.31-8,2-11.92a3.4,3.4,0,0,1,.76-1.44c.2-.24.8-.48.92-.37a1.29,1.29,0,0,1,.43,1.05,23.82,23.82,0,0,1-1,2.54l-.51,1.34,3.68.52.09-.53a2.38,2.38,0,0,1-.78-.25c-.23-.21-.53-.58-.49-.82a1.59,1.59,0,0,1,.65-.73c1.24.91,2-1.22,3.17-.52l.22-.65c-3.11.64-.78-1.91-1.7-2.52.59-.27,1-.49,1.5-.69s.82-.31,1.24-.47a6,6,0,0,1-.32,1.62c-.17.33-.67.48-.9,1l1.93-.15v-2.6l4.56-3.88c-.57-1.32-1.72.54-2.38-.36-.19,2.35-1.74,3.27-3.54,2.28-1.71,1.79-1.8,1.8-2.88.24-1.94,2,1.09,4.11-.23,6.24a5.23,5.23,0,0,1-.61-.88,8.68,8.68,0,0,0-.9-2.29c-1.47-1.71-.72-3.14.27-4.62a51.07,51.07,0,0,0,3.67-5.54,51.81,51.81,0,0,0,2.12-6.11c.32-.91.7-1.81,1.1-2.7.57-1.28,1.22-2.54,1.76-3.83.9-2.16,1.79-4.31,2.59-6.5,1.38-3.76,2.47-7.65,4.09-11.29,1.05-2.39,1-5,1.88-7.33.31-.8.65-1.58,1-2.37a3,3,0,0,0,.29-.81c.16-1.57.22-3.15.44-4.71.4-2.85.87-5.69,1.34-8.53.28-1.7.57-3.39.93-5.07.06-.29.44-.56.73-.72.59-.35,1.22-.62,1.83-.91-1-2.44-2.61-3.21-4.88-2.65-2.94.74-5.91,1.33-8.84,2.1a15,15,0,0,0-2.9,1.36,11,11,0,0,1-1.66,1c-2.8.82-4.3,3.17-6.14,5.21s-2.63,4.68-4.31,6.65a15.15,15.15,0,0,0-2.5,5c-1.39,3.8-3.25,7.43-4.86,11.15-.45,1.05-.59,2.24-1,3.3-1.24,3-2.67,5.89-2.39,9.3.2,2.41.37,4.82.42,7.23,0,2.15-.11,4.29-.15,6.44,0,.77.15,1.54.08,2.3a6.75,6.75,0,0,1-.55,1.58c-.33-.13-.85-.18-.94-.41a4.36,4.36,0,0,1-.21-1.66c0-.22.27-.45.52-.84-.43,0-.94-.08-.94-.06-.3,2-1.12.7-1.89.41a16.39,16.39,0,0,0-2.75-.53c-.55-.85,0-1.64,1-2.37-1.21.35-2.31-.4-3.56.64s-.84-.93-1.58-1.9c0,1,0,1.46,0,2,.11,1.4-.33,1.83-1.64,1.6-.32-.05-.88-.07-1,.1-1,2-2.45,1.42-4.2.44l.49,1.86,1.86-.38a19.33,19.33,0,0,1-.36,2.3c-.32,1.15-.77,2.27-1.15,3.41-.2.6-.34,1.22-.5,1.78l-1.91-.6c0,.3-.1.87-.07.88.52.11,1,.15,1.94.25-.18.58-.19,1.44-.61,1.84a2.43,2.43,0,0,1-2,.18c-1,.87-2,1.76-3,2.56a1.06,1.06,0,0,1-1-.18,12.09,12.09,0,0,1-1.31-1.53,5.94,5.94,0,0,0-.41,1.33c.75.54,1.55,1.32,2.37,1.36.66,0,1.38-.82,1.87-1.14l1.84,2.18c-.66,1-1.31.28-1.95-.46l-.37.44c.26.29.54.56.78.86s.53.78.8,1.17l-.26.74a5,5,0,0,1,2-.29c.72.21,1.33.85,1.49.73l2.11-1.09-2.46-2.73a2.64,2.64,0,0,1,3.08,2.14c.25.84-.31,1.93-.51,2.93,3.19.79,5.51-1.53,8-3.41a1.3,1.3,0,0,0,.32-1.13,10.37,10.37,0,0,1,.46-7.11,21.36,21.36,0,0,0,.62-3.73c.07-.36.38-.86.65-.91a1.43,1.43,0,0,1,1.1.44c.12.13-.1.64-.17,1a16.51,16.51,0,0,0-.38,1.83c-.11,1-.13,2-.18,2.92,0,.21-.08.51,0,.63,2,2.42-.58,3.89-1.15,5.74a6.18,6.18,0,0,1-1.79,2.35,12.65,12.65,0,0,1-2.14,1.38c.41.72,1.19.73,3.12-.29l.55,1.12,1.87-1.29-1.69-.26c.7-1.41,1.53-1.56,3-.27a5,5,0,0,1,1.27,2.48,15.17,15.17,0,0,1,.72,4.5c-.26,4.85-.77,9.69-1.11,14.54-.2,3-.18,6-.44,9-.27,3.13-.82,6.22-1.13,9.35-.2,2,0,4-.3,5.94-.41,2.91-1.06,5.77-1.7,9.11l-2-1.87.37,2.36h-1.76l1.88,3c.27-1.34.52-2.54.76-3.73l.65,0a6,6,0,0,1,.3,1.59c-.25,2.8-.5,5.6-.9,8.37-.08.52-.87.92-1.32,1.37,1.56,1.24.79,3.38,1.09,5.19a14,14,0,0,1-.21,3.74c-.11,1-.4,1.88-.49,2.84-.15,1.5-.13,3-.3,4.52a4.24,4.24,0,0,1-.52,1.31c.16,1.37.33,2.54.43,3.71.14,1.82.31,3.65.32,5.48a15.35,15.35,0,0,1-.46,2.82c0,.16-.21.36-.16.45,1.17,2.26-.57,4.38-.27,6.6.11.81-.1,1.67,0,2.47.24,1.59-.81,2.49-1.72,3.34-.28.27-1.26-.26-2.08-.46l.78,4.43,2.11-1.22c0,2.39.11,4.73,0,7.05s-.55,4.44-.86,6.81l-1.38-.6-.23.31,1.59,1.42-3.11,1.49-.51-.63c-.39.28-.75.75-1.16.79s-.82-.34-1.09-.66c-.09-.11.29-.91.48-.93,2.41-.17.84-1.09.26-2.06-.43,1.87-1.37,1.27-2.61.45l.91,2c-.77-.46-1.34-.59-1.52-.93-.58-1.13-1.48-.92-2.17-.45-.44.29-.52,1.13-.89,2l-1.13-2.57-1.21-.21L119,474l-2.28-.37,2.34-2.31-.88-.82-2.1,2.83,1.42,1.37-2.41,1.07-.81-1.7c.6-1,1.18-2,1.8-3.07l-1.27-.38.82-2.16,1.29.93c.12-.43-.09-.84-1.72-3.17-.56.72-1.18,1-1.64-.64l-.3.64c.1.66.18,1.32.31,2,.23,1.23.56,2.45.69,3.69,0,.38-.41,1.17-.65,1.17a4.86,4.86,0,0,1-2.72-.42c-1.3-.92-2.19.15-3.28,0l0,.47c.2-.05.43-.19.6-.14a11.63,11.63,0,0,1,1.24.58,5.18,5.18,0,0,1-1,.91,12.89,12.89,0,0,1-1.78.62l.12.56c.87.16,1.93.07,2.54.57s2-.49,2.08,1.29l-4-.79-.16.41,1.93,1.69-3.08,1.33-.26-.56,1.22-.9-.18-.56-2.3.72v.54L101.13,477l-.1.3.68,1.35a15.14,15.14,0,0,0-1.63.32A11.57,11.57,0,0,0,97,480.32c1.48-.45,2,.11,2.4,1.48.26,1,.88,2.05,2.3,1.77.2,0,.47.33,1,.78l-1.85.45c0,1.25,1,2.31,2,2,1.33-.41,2.09-.57,1.45,1.35-.3.92.15,1.75,1.72,1.44-.24-.67-.46-1.27-.67-1.87a4.48,4.48,0,0,1-.29-1c0-.09.42-.36.47-.31a3,3,0,0,1,.67.74c.63.94,1.33,1.71,2.6,1.38a3.69,3.69,0,0,1,.94,0l.09.4-1.6.67.91,2.07-.6,3.91-2.09-1.5-.35.32c.45,1.07.89,2.15,1.41,3.43.68,0,1.26-1.88,2.29-.58a11.26,11.26,0,0,1,1,2.18l-3.43-.42c-.19,1.21-1.39,2.59,1.09,3.56-1,.23-1.66.18-1.91.49a5.36,5.36,0,0,0-.63,1.75c.75.18,1.13.54.68,1.36a3.32,3.32,0,0,0,1.13,0,4.17,4.17,0,0,0,1-.65c.11.46.47,1.14.3,1.35-1.55,1.88-1.31,4.43-2.36,6.44a3.6,3.6,0,0,1-3.72,2.21c-.42,3.28-.84,6.47-1.22,9.67a4.93,4.93,0,0,0,.17,1.47c.36,1.91.79,3.8,1.07,5.72,0,.38-.45.85-.72,1.31,0,0,0,.21.1.24.68.31,1.74.41,2,.93a15.34,15.34,0,0,1,1.15,4.09,2.18,2.18,0,0,1-1.29,2.41,15.93,15.93,0,0,0-2.54,2.14l-.38-.22a5.44,5.44,0,0,0,.58-1.34,9.28,9.28,0,0,0-.19-1.92c-1.07,2-2.66,1.55-4.18,1.36l-.14.53,1.44.6.6,1.59a2.71,2.71,0,0,0-1.62,3.79c1.87-.47.87-3.67,3.6-3.84-.52,1-.9,1.79-1.26,2.56a8.47,8.47,0,0,0-.62,1.5c-.3,1.19.07,2.76-2.06,2.78l.31.49,1.07-.13c1.65,2.4,3.23,4.63,4.73,6.92a2.46,2.46,0,0,1,.3,1.62c-.2,1.15-.06,2,1.16,2.32s1.75-.05,2.15-1.43c1.07-3.63,2.26-7.24,3.67-10.75s3.1-6.63,4.62-10c1.32-2.89,2.72-5.76,3.79-8.75,1-2.74,1.62-5.61,2.34-8.44S123,517,123.68,514a6,6,0,0,1,.26-.68l2.79,1.37c.47-1.29.84-2.29,1.21-3.28l.46.16c-.45,2,.08,4.1-1.19,6.18-1,1.68-1,4-1.65,6-.94,2.8-.33,6.14-2.74,8.42a.78.78,0,0,0-.17.45c-.22,4.31-2.79,7.78-3.9,11.78-.08.3-.29.77-.49.8-2.11.39-1.75,2.36-2.25,3.73-1.08,2.95-2.05,5.94-3.08,8.91-.47,1.35-.91,2.72-1.46,4-.39.94-1,1.8-1.43,2.71-1.36,2.63-1.39,5.68-2.89,8.39s-1.74,6.09-2.43,9.2M84.6,585.44c-.95-3.4-1.4-5.1-2.11-8.55-1-4.76-1.89-9.54-2.53-14.35a103.76,103.76,0,0,1-.8-11.57,106,106,0,0,1,.36-10.84c.36-4.5,1-9,1.48-13.47.66-5.66,1.28-11.32,2-17,.55-4.15,1.31-8.26,2-12.39.18-1.2.21-2.42.39-3.62a6.34,6.34,0,0,1,.59-1.41l-.7-.2,1.76-1.4-.19-.29-1.47.58c0-2.13,0-4.05,0-6-.08-3.75-.22-7.5-.25-11.25a9.54,9.54,0,0,1,.59-2.27c-1.09-1.61-.31-3.63-.42-5.55-.11-2.12,0-4.25-.06-6.37q-.07-4.47-.23-9c-.1-2.59-.34-5.18-.35-7.77,0-2.2.23-4.4.3-6.6.06-1.69,0-3.39.06-5.09a32.4,32.4,0,0,1,.35-3.94c.36-2.29.8-4.57,1.26-6.84.14-.68.65-1.29.74-2,.27-2,.34-4,.63-6s.71-3.8,1.13-5.69c.52-2.35,1.13-4.68,1.66-7,.13-.59,0-1.25.16-1.81A9,9,0,0,1,92,395.32a24.91,24.91,0,0,1,2.43-2.62l-.82-1.13a3.17,3.17,0,0,0,1.89-3.78c0-.14,0-.45.06-.46,1.5-.33.56-1.82,1.16-2.6a15.68,15.68,0,0,0,1.15-2.05l.67-.17-1.61-.87,1.71-3.38c-1.53-.91-3-1.85-4.52-2.65a1.28,1.28,0,0,0-1.23.37c-2.07,3.24-5.38,3.55-8.63,4.2-2.31.47-4.7.22-7,1.51-1.36.77-3.42.31-5.16.23-4.35-.2-8.42-1.39-11.5-4.73-2.72-2.94-5.21-6.13-7.7-9.29-2.06-2.6-4.07-5.24-5.92-8-1.69-2.54-3.14-5.26-4.68-7.92a12.68,12.68,0,0,1-.59-1.36c-1.76-4-3.56-8-5.28-12.08-1.37-3.22-2.65-6.48-3.93-9.74-.46-1.18-.78-2.41-1.16-3.62-1.19-3.79-2.43-7.56-3.56-11.36-1.18-4-2.2-8.09-3.37-12.11-.68-2.31-1.61-4.54-2.26-6.86-.91-3.22-1.83-6.46-2.43-9.75-.72-4-1-8-1.65-12-.52-3.45-1.17-6.88-1.81-10.3-.39-2.1-.91-4.18-1.31-6.28a9.12,9.12,0,0,1,.07-1.64,5.35,5.35,0,0,0-.15-2.1c-1.54-3.17-1.18-6.69-1.85-10-.34-1.69-.78-3.36-1.18-5,0-.21-.18-.41-.22-.62-.69-3-1.33-6-2.06-9q-1.77-7.24-3.66-14.48c-.88-3.35-1.85-6.68-2.84-10-.4-1.32-1-2.58-1.44-3.89a3,3,0,0,1,0-1A2.8,2.8,0,0,1,4.86,200c.79,1.16,2.31,1.8,3.54,2.62,1.83,1.22,3.77,2.27,5.51,3.6,2.28,1.74,4.41,3.69,6.66,5.59L18.05,213l1.21,2.49c.18-2,2.44-3.23,3.91-2.23s2.9,2.21,4.36,3.3a4.3,4.3,0,0,0,1,.42c.3.12.8.14.88.34,1,2.69,4.2,2.12,5.85,4.11,1,1.26,3.08,1.64,4.66,2.44a2,2,0,0,1,.5.47l-3,1.76a7.82,7.82,0,0,1-1.63-.29c-.3-.11-.49-.56-.73-.86.31-.18.62-.49.95-.52a7.19,7.19,0,0,1,1.62.25c-1.6-2.19-4.12-3.35-5.74-2.83.16.91-.09,2.18,1.57,1.54.17-.07.5.33.85.57-2.38,1.15-2.38,1.15-1.53,3.21L30.68,227l-.13.48,2.05,1.78-.18.53a6.14,6.14,0,0,1-2-.39c-1.51-.88-2.94-1.92-4.38-2.93-.22-.15-.32-.51-.56-.92l2.33-.11v-.64c-.69,0-1.37,0-2.05,0a8.35,8.35,0,0,1-1.74-.17c-.11,0-.22-.8-.12-.85a7.87,7.87,0,0,1,1.56-.64,1.81,1.81,0,0,1,.53,0c.44-1-.13-1.35-.92-1.25a1.82,1.82,0,0,0-1.33.8c-.78,2-1.86,1.3-2.95.45-1.47-1.14-2.94-2.28-4.33-3.52-.9-.79-1.58-.79-1.95.36C14,221.41,14,223.15,12,223.3l2.1,3.25c.54,1.08,2.52-.58,2.7,1.74a34.75,34.75,0,0,1,.3,3.59,10.88,10.88,0,0,1,1.31,2.22c.82,2.72,1.53,5.49,2.27,8.25,1.44,5.37,2.92,10.73,4.29,16.12.42,1.65.41,3.41.83,5.06q2.19,8.67,4.55,17.29c2.62,9.57,5.38,19.1,7.93,28.7,1.67,6.33,2.88,12.81,4.68,19.11A51.08,51.08,0,0,0,47,338q4.9,9.43,10.13,18.69c2.17,3.82,5.5,6.6,8.82,9.31,1.1.9,2.2,1.18,2.91-.57.13-.3.56-.48,1.23-1-.14.88-.08,1.31-.26,1.55-1.21,1.54-.23,2.23,1,2.59,3.08.87,6.19,1.62,9.3,2.4a13.67,13.67,0,0,1,1.58.24c2.35.95,4.2-.11,6.13-1.35,2.86-1.84,5.79-3.56,8.75-5.22.41-.23,1.15.15,2.13.3l-.59-2.27.84-.34c.1-1.27.2-2.28.25-3.29a8.08,8.08,0,0,0,0-2.64c-.91-3.05.56-5.63,1.33-8.35.09-.31.41-.63.36-.9-.61-3.51,1.07-6.6,1.64-9.89.35-2.06.61-2.15,2.32-1.1.21.13.49.12.29.08l3.7-3.53h-2.24l-.12-2h-.45l-.29,1.66c-1.6-1-1.88-1.91-1.26-4.11.37.69.73,1.35,1.09,2l.4-.19c-.07-.81-.14-1.61-.2-2.41,1.38.46,1.89-.61,2.34-1.56.12-.26-.3-.82-.53-1.2,0-.05-.44.15-.67.24.65,1.32-1.08,1.54-1.11,2.56-.82.23-1.27-.21-.91-.93a12.8,12.8,0,0,1,2.12-3.08c.19-.2,1.3.26,1.76.68a5.15,5.15,0,0,1,.83,1.73c1.84-.53,1.84-.53,2.87-3.71l-.39-.2c-.23.48-.46,1-.7,1.46-1.42-.51-2.37-3.42-1.52-4.79,2-3.25,3.91-6.56,5.93-9.8q1.77-2.87,3.76-5.57a6.85,6.85,0,0,1,1.88-1.26c-.69-1.46.12-2.31,1.22-3.37,1-.9,1.33-2.42,2-3.64.43-.79.93-1.54,1.28-2.1l2,.68.65-2.33-.44-.23-1.73,1.55c-.45-.87-1-1.71-1.34-2.59-.32-.72-.54-1.38.52-1.88.47-.22.63-1.14,1.06-2-2.21.26-1.48-1.53-2.36-2.78l-1.06,3a16.9,16.9,0,0,1-1.66-1.71,29.48,29.48,0,0,1-2.31-3.71,10.44,10.44,0,0,1-.46-2.6c-1.34.21-2.16-1-2.78-2.82l4,1.54c.19-1.58-.2-2.32-1.87-2v-.56l1.36-1.22-.72-2.17-2.21-.44-.55,2.1a16.72,16.72,0,0,1-1.86-1.58,2.63,2.63,0,0,0-3-.9c-3.6,1.19-7.11.81-10.87.34-5.38-.68-9.64-3.38-14.1-6-6.3-3.65-10.83-9-14.38-15.46a25.51,25.51,0,0,0-3.29-4.78,4,4,0,0,0-2.83-1.09c-1.5.06-2.53-.24-3-2.09-2,1.82-3.48.32-5.14-.66-2.89-1.71-5.9-3.2-8.87-4.79-.27-.15-.53-.34-.89-.57l.66-1.39-5.17-1.44,3.95-2.34.34.22-1.32,2,5,.52c-.4-.51-.47-.7-.59-.75-1.23-.46-3-.2-3-2.36l-4.25-1-.11-.93-1,.33-.45-2.35c.09,0,.27-.21.36-.16,2.7,1.31,5.45,2.54,8,4A11.86,11.86,0,0,1,53,232.35l8.62,2.53,0,.48H59.61c0,.19,0,.44,0,.44,1.32,0,2.38,1.74,3.91.5.78-.63,1.25-.1,1.35,1.37l3.9-1.18c0-.58,1.66-1.71-.5-2.21a7.19,7.19,0,0,1,0-1.55c.07,0-.11-.09-.21,0-.57.32-1.52,1.07-1.61,1A6,6,0,0,1,64.71,231c-.45-3-2.51-5.06-3.79-7.57a32.41,32.41,0,0,1-1.7-4.43,3.49,3.49,0,0,1,.08-1.27l.44,0,.56,1.39,3.21.8-1.25-3.49-.79,2-2-2.31.33-.29c-.51.09-1.17.42-1.5.21s-.56-.95-.77-1.48c-.74-1.83-1.42-3.68-2.19-5.5-.55-1.3-1.1-2.54.29-3.67.15-.13.12-.49.1-.38-.84-.47-2-.77-2-1.2-.07-.74.53-1.56.92-2.51l-.92-.69,1.95-.51c-1.36-.74-1.86-.44-2.81,1.37L50,193.29l.38-.32,1.61.69,1.88-1.53c-.52-.13-.83-.2-1.13-.3s-.85-.12-1-.36c-.57-1.09-1-2.24-1.54-3.36-.34-.74-.69-1.48-1-2.21l-.53-.11-.59,1.42c-.48-.4-.79-.52-.87-.74-.89-2.44-2.63-4.48-2.74-7.33-.05-1.45-1-2.87-1.59-4.28-.25-.61-.92-1.24-.83-1.76.5-2.76-1.4-4.62-2.2-6.88-.26-.74-.42-1.52-.68-2.46l3.11,1.09-1.1-2.53-.79.06c-2,.15-2.81-.69-3.27-2.66a55.27,55.27,0,0,0-2.1-6.89q-2.4-6.32-5.07-12.53c-1-2.27-2.19-4.42-3.31-6.62a31.27,31.27,0,0,1-1.7-3.37,5.8,5.8,0,0,1,0-2.07,6.07,6.07,0,0,1,1.93.19c4.47,2,8.91,4.15,13.37,6.24,3.93,1.84,7.86,3.7,11.81,5.5a5.76,5.76,0,0,0,2,.37c1.22.08,2.48-.06,3.25,1.3.1.18.54.16.82.24l2.17.6-.1.58H56.91l-.13.38a9.86,9.86,0,0,0,1.26.43c.82.18,1.65.34,2.49.44a2.75,2.75,0,0,0,1.13-.14c.64-.21,1.42-.87,1.83-.67.66.33,1.07,1.2,1.62,1.88.45-1.16,1.65-.86,2.74-.71,1.82.25,3.62.6,5.43.92l-1.79,4h1.15c.88-1.27,1.61-2.35,2.38-3.39a.63.63,0,0,1,.59-.07c1.66.65,3.32,1.34,5,2a1.7,1.7,0,0,0,.76.16c3.63-.43,6.71,1.64,10.08,2.4,4,.89,7.38,3.13,10.89,5.12.84.48,1.78.75,2.66,1.16a22.11,22.11,0,0,1,4.09,3c4.47,3.49,9.29,6.51,13.9,9.81,1.75,1.25,3.3,2.8,5,4.19,2.39,2,4.8,4,7.19,6.06,1.57,1.33,3.2,2.62,4.65,4.09,2.27,2.3,1.81,4.46-1.09,5.8a9.55,9.55,0,0,0-1,.49c-2,1.23-2.31,1.22-4-.5-2.19-2.28-4.27-4.68-6.54-6.87a45,45,0,0,0-3.94-2.8c-2-1.59-4-3.3-6-4.88-1.22-.94-2.56-1.72-3.81-2.61-1.42-1-2.76-2.09-4.21-3-1-.65-2.21-1-3.26-1.64-1.92-1.09-3.75-2.34-5.68-3.39-4.49-2.44-8.93-5-13.57-7.12a147.75,147.75,0,0,0-13.84-5.22,74.09,74.09,0,0,0-8.24-1.92,10.16,10.16,0,0,0-1.72.12c-2,0-3.9,0-5.85-.11-.42,0-.83-.34-1.24-.32a12.43,12.43,0,0,1-8.2-2.29c-1.21-.86-2.2.34-2.87,1.15a3,3,0,0,0-.3,2.35c.8,2.76,1.83,5.45,2.68,8.2.71,2.28.08,3.05-2.24,3A1.05,1.05,0,0,0,44,163l4.1.34.76,2.33-.71.86,2.21-.71a9.91,9.91,0,0,1,.94,2.76c0,1.25,0,2.32,1.21,3.09.26.17.12,1,.17,1.64l1.87,3.06-2-.49,2.1,3.91.41-.19-.86-2.57.49-.16,1.45,4.22-2.74.64,1.64,2.7,0-.05-2,1.24c1.12,2.62,1.12,2.62,1.64,2.56l-1-2.48,1.38-.27,0,0,5.82,5.85-2,.15v.49l1.19.06,3,3c-.77,1.26-.51,2.71.23,4.24a26.55,26.55,0,0,1,1.47,4.21,5.29,5.29,0,0,1-.13,1.67c.12.1.64.35.75.72,1,3.37,1.95,6.76,2.92,10.14.35,1.21.84,2.39,1.11,3.62.62,2.81.58,2.82-.73,5l3.06,1.21L71,227a24.69,24.69,0,0,1,2,2.34c.25.38.15,1,.21,1.51-.49,0-1-.11-1.46-.15a2.12,2.12,0,0,0-.43.06l-.13.47c.64.17,1.3.29,1.92.52.46.17,1,.35,1.28.73a18.18,18.18,0,0,1,2,3.78c1.77,5.37,5.68,9.4,8.23,14.29a29.05,29.05,0,0,0,9.47,11.06c3.07,2,6.57,2.14,10.08,2,3-.15,6-.26,9-.65s5.88-1.11,8.82-1.68a18.67,18.67,0,0,1,3.94-.67,7,7,0,0,1,2.63,1.08,4.13,4.13,0,0,1,.8.67l.53-.14a37.47,37.47,0,0,0-.43-4.26c-1-4.5-3.12-8.46-5.41-12.37-1.63-2.77-3-5.72-4.6-8.49s-3.57-5.53-5.3-8.32c-1.15-1.86-2.18-3.8-3.28-5.7a4.13,4.13,0,0,0-.73-1.07,10.15,10.15,0,0,1-3.1-5.33,5.85,5.85,0,0,0-.85-1.76c-2.72-3.91-5.42-7.84-8.24-11.68-1.18-1.62-2.62-3-3.93-4.56-.49-.58-.95-1.19-1.44-1.77-2.59-3.09-5.19-6.15-7.76-9.25s-5.07-6.24-7.61-9.35c-.38-.47-.77-.92-1.18-1.36-2.7-2.91-5.44-5.79-8.07-8.77a3.94,3.94,0,0,1-1.18-2.6,23,23,0,0,1,1.82-5c.09-.21,1.11-.27,1.37,0a11.82,11.82,0,0,1,1.71,2.19c.66,1,1.26,2.06,2,3.31l-.52,1.29.25.42c1-1.55,1.74-.95,2.56-.12,2.74,2.77,5.5,5.52,8.25,8.27.19.19.35.43.55.6,3.84,3.19,6.66,7.34,9.76,11.2,3.47,4.32,6.55,9,9.75,13.52,2.23,3.17,4.37,6.4,6.59,9.57,1.1,1.57,2.38,3,3.43,4.58,2,3.11,4,6.28,5.93,9.46,1.25,2.08,2.43,4.22,3.53,6.4.15.29-.31.92-.58,1.64-1.4-2-1.79-2.06-3.42-.87-.36.26-1,.19-1.4.64a6.48,6.48,0,0,1,2.46-.12c.65.23,1.09,1.1,1.7,1.77l.13-1.08c1.71-.65,2.51,0,3.19,1.65.93,2.2,2.23,4.23,3.34,6.36.27.53.35,1.16.63,1.68a26.13,26.13,0,0,0,1.95,3.27c.28.39.95.47,1.24.94-1.61.92-2.82,1.45-3.74-.24a1.82,1.82,0,0,0-1.1-.89,2.45,2.45,0,0,0-1.66.32c-.19.13,0,1,.16,1.46a4.35,4.35,0,0,0,.83,1c.9-.11,2-1.45,2.8.24,0,.09.75-.16,1.14-.26l1.86-.45c-.05,1.22-.28,1.85-1.41,1.8a7.61,7.61,0,0,0-2.55.36c-.29.09-.43.74-.67,1.21l5.88-1.33c.33.56.92,1.55,1.53,2.52a12.58,12.58,0,0,0,.84,1.22c.75,1,1.25.87,1.89-.25a8.52,8.52,0,0,1,2.08-2.07c.67-.55,1.66-.84,2.09-1.52,1.45-2.28,2.71-4.68,4.09-7.12l.84.64c.78-1.54.26-2.14-1.43-2l.47-3.84,1.39.72.42-.17-.92-2.36h2.13l1.61-3-2.4-1-1,.84-.43-.32,1-1.62c-1.36-.06-1.29-1.12-1.4-2.3a110.89,110.89,0,0,1-.37-17.67,2.4,2.4,0,0,0-.33-1.21c-2.07-3.55-4.17-7.08-6.23-10.64a6,6,0,0,1-.62-1.7c-.52-2.48.08-3.14,2.52-3a2.8,2.8,0,0,0,1.79-.31c1.08-.86,1.76-.69,2.47.44s1.54,2.15,2.32,3.22l.72-.14a7.24,7.24,0,0,0,.31-2.11c-.4-2.34-1.1-4.64-1.39-7-.19-1.55.35-3.2.16-4.75-.27-2.17-.93-4.28-1.38-6.43-.12-.56-.31-1.56-.13-1.65a4.51,4.51,0,0,1,2.49-.68c1.77.28,1.85.35,1.91-1.1-.78.74-3.22.27-4.47-.92-.65,1.27-1.32.82-1.86-.08-1.12-1.85-2.12-3.79-3.3-5.61a13,13,0,0,0-1.94-1.83,93.8,93.8,0,0,0-6.8-6.73c-4.12-3.32-8.49-6.31-12.73-9.48a89.43,89.43,0,0,1-8.34-6.49c-3.45-3.3-6.57-7-9.8-10.49-1.88-2.05-3.79-4.08-5.54-6.25s-3.51-4.72-5.24-7.11c-.29-.39-.71-.84-.72-1.27-.1-3-2.64-4.78-3.54-7.39-.22-.64-1.09-1-1.58-1.58-.62-.72-1.76-1.4-.3-2.48.22-.16,0-.93-.26-1.45l-.66,1.61c-1-1.62-2-3-2.84-4.51q-2.19-4.11-4.16-8.33c-1.37-2.93-2.62-5.91-3.94-8.87-.6-1.34-1.3-2.65-1.82-4-.7-1.83-1.25-3.72-1.91-5.56-.43-1.21-.93-2.4-1.43-3.58a14.63,14.63,0,0,1-.69-1.29c-.5-1.56-.84-3.18-1.4-4.71-1.44-3.92-3-7.79-4.42-11.72a25.87,25.87,0,0,1-.52-3.09c-1.63-7-3.21-14.09-4.94-21.1-1.35-5.46-3-10.85-4.32-16.32C51.31,10.17,51,7,50.52,3.79a1.76,1.76,0,0,1,1.64-2.2c.39-.06.71-.57,1.15-.95.07.11.13.34.28.44,3.56,2.34,3.92,6.24,4.71,10,.34,1.66,1.17,3.2,1.66,4.83a22.55,22.55,0,0,1,.77,3.72c.07.56-.22,1.15.06,1.55.63,1.7,1.29,3.39,1.89,5.11,1.15,3.27,2.29,6.55,3.37,9.85s2,6.39,3,9.57c.38,1.2,1,2.32,1.37,3.51C72.6,55.77,74.6,62.41,77,68.87S82.45,81.6,85,88c1.09,2.74,1.6,5.73,2.72,8.45a65.28,65.28,0,0,0,3.92,7.39,40.08,40.08,0,0,0,3.08,4.6c2.23,2.81,4.62,5.5,6.85,8.32,1.24,1.57,2.19,3.39,3.45,5,2.46,3,5.23,5.86,7.51,9.06,1.26,1.78,3,2.74,4.51,4.06,4.28,3.68,8.53,7.4,12.83,11.05a84.88,84.88,0,0,0,8.13,6.48c2,1.34,2.32,3.15,2.29,5.16,0,1.52.6,1.94,1.7,1.91.37-.93.69-1.74,1.16-2.9.85.71,1.52,1.2,2.12,1.78,2.26,2.15,4.52,4.32,6.75,6.51a7.67,7.67,0,0,1,1.51,1.91,5.82,5.82,0,0,1,.23,1.91c1.61-.5,1.83.92,2.16,2.25.44,1.77.9,3.52,1.34,5.25l-1.53.62.15.41,1.52-.42.68,3.54-.51.2-.83-1.11a15,15,0,0,0-2.16,2.12,3.39,3.39,0,0,0-.3,2c0,.14.87.27,1.34.32a6.59,6.59,0,0,0,1.37-.2,8,8,0,0,1-1.78-.71c-.22-.16-.2-.65-.28-1a3.62,3.62,0,0,1,.86-.11,6.86,6.86,0,0,1,1.87.33c.4.15,1,.75,1,.9-.81,2.14.72,4,.59,6.06a87.62,87.62,0,0,0-.1,10.25,47,47,0,0,1-1,12.19c-.75,3.6-1.38,7.23-2,10.87-.35,2.16-.55,4.36-.81,6.55-.1.81,0,1.71-1.14,1.85-1.45.18-1.92-.05-2.33-1.16l-2.46-.27-.11-.45,1.68-1.14-.15-.33-2.37.87c0,1.27.4,2.13,1.74,2.17a1.11,1.11,0,0,1,.76.22c1,1.16,2.05,1.66,3.39.52.45,2.37.09,2.89-1.75,3.57-.57.21-1,.9-1.49,1.41.25.2.36.35.5.39,2.39.71,2.24.68,1.88,3.23-.56,4-1,8.09-1.27,12.15-.08,1.18.63,2.42,1,3.64.12.43.22.87.34,1.3l.55-.67c.77-1.54,1.5-3.1,2.32-4.61a1.67,1.67,0,0,1,1.07-.87c1.55,0,1.71-1.15,2-2.32.44-1.81.93-3.61,1.54-5.36a27.72,27.72,0,0,1,2-4.71,51,51,0,0,1,3.41-5c.2-.27.75-.27,1.09-.37.45-1.29-2.56-1.25-.88-3l1.16.92.33-.15-.66-2.34c1.24-1.59,2.69-3.41,4.11-5.25,1.8-2.32,3.33-4.95,5.43-6.93,3.91-3.68,8.1-7.07,12.28-10.43,2.13-1.72,4.58-3,6.75-4.69,5.07-3.88,10-7.92,15.09-11.8,5.46-4.19,11.25-8,16.39-12.52a111.7,111.7,0,0,1,11.23-8.19c.31-.21.44-.7.7-1,1.62-1.9,3.19-3.84,4.9-5.65a31.69,31.69,0,0,1,3.22-2.61c-2.33-1.36-3.44-1.08-5.1.18-2.7,2-5.57,3.86-8.4,5.73-.83.54-1.77.92-2.5-.27-.05-.08-.37,0-.72.06l1,1.28a15.92,15.92,0,0,1-3,2c-.53.21-1.36-.35-2-.56v-.44l-.92.82,1,.82c-.07.17-.08.32-.15.36-2,1.34-4,2.72-6.06,4-1.54.95-1.57.88-1.82-.92,0-.23-.23-.42-.38-.67-.1.14-.17.18-.17.23,0,.88.33,2.23-.08,2.56a21.07,21.07,0,0,1-4.23,2.3c-.2.09-.59-.41-.92-.47a9.38,9.38,0,0,0-1.5,0l0,.48,2.22.26a23.55,23.55,0,0,1-1.8,1.53c-4.28,2.84-8.6,5.59-12.83,8.5-2,1.37-3.81,3-5.69,4.55-2.55,2.09-5.08,4.2-7.63,6.29a3.92,3.92,0,0,1-1.08.7c-2.39.84-3.5,2.92-4.86,4.88a50.5,50.5,0,0,1-4.63,5.19c-1.24,1.35-2.53,2.63-3.74,4s-2.46,2.94-3.94,4.72c-.29-1-.41-1.5-.61-2.21l-2.09,1.48c2.13.9,2.18,1.26.88,3-.91,1.2-1.65,2.54-2.49,3.8-.29.45-.64.86-1.23,1.65a6.67,6.67,0,0,1-.18-1.57c1.31-5.75,2.62-11.5,4-17.23a28.77,28.77,0,0,1,1.6-5,25.77,25.77,0,0,1,2.21-3.17,11.22,11.22,0,0,0,1.53-5.89,8.24,8.24,0,0,1,2.21-5.37A24.88,24.88,0,0,0,176,183c2.62-4.44,5.07-9,9.08-12.33a27.61,27.61,0,0,0,2.63-3.12c2.83-3.24,5.77-6.4,8.51-9.72,2.36-2.86,4.53-5.9,6.75-8.87s4.32-5.79,6.44-8.71a45.81,45.81,0,0,0,3.14-4.62,15.92,15.92,0,0,0,1-3.23c1-3.37,1.86-6.8,3.12-10.07a64.79,64.79,0,0,0,3.67-11.48c.62-3.4,2-6.64,2.74-10,1-4.57,2-9.17,2.53-13.82.61-5.05.74-10.17,1-15.26.16-2.87.19-5.75.36-8.62.15-2.49.88-3.07,3.31-2.89s3.57,1.17,3.49,3.93c-.1,2.93-.46,5.84-.72,8.75a6,6,0,0,0-.2,1.48c.6,3.67-.13,7.24-.56,10.85-.25,2.12.12,4.34-.25,6.42a39,39,0,0,0-.5,8.7,27.35,27.35,0,0,1-1.07,8c-1.43,5.39-3,10.76-4.84,16-1.2,3.35-3.1,6.43-4.68,9.64l-3.78,7.63c-1.38,2.76-2.75,5.51-4.14,8.25-2.88,5.7-7.28,10-11.82,14.27-2.1,2-4,4.1-6,6.16a1.74,1.74,0,0,0-.43.69c-1.12,4.62-4.74,7.08-7.95,9.88a12.5,12.5,0,0,0-3.46,6.19,27.47,27.47,0,0,0,2.91-1.89,33.86,33.86,0,0,1,9.49-6.08c1.57-.6,2.78-2.12,4.21-3.16,1.27-.92,2.51-2.12,3.94-2.5a11,11,0,0,0,4.69-2.08,6.67,6.67,0,0,1,3.24-1.3c.76-.11,1.61.47,2.45.75a.86.86,0,0,0-.1-.61c-.89-1.23-.11-1.74.84-2a16.44,16.44,0,0,0,7-4,8.54,8.54,0,0,1,1.62-1.06c1.06-.63,2.15-1.23,3.19-1.89,4.09-2.6,8.18-5.19,12.24-7.83,1.52-1,3-2.14,4.46-3.17.67-.46,1.42-.81,2.25-1.27.23.77.37,1.22.56,1.81l2.43-1.17-1-1.38a6.31,6.31,0,0,1,1.84-.5c.2,0,.36.83.71,1.74.33-.61.53-1,.78-1.4s.66-1.33,1-1.33a9.43,9.43,0,0,1,3.37.52,20,20,0,0,1,3.34,1.87,12.5,12.5,0,0,1,5.79,8.58c.48,2.32,1.43,3.94,4.12,4.29a9.77,9.77,0,0,1,4.31,2.37c7.93,6.36,12.8,15,16.79,24.32.6,1.4.74,3.22,1.71,4.18,2,2,2.58,4.65,3.6,7.1q2.38,5.67,4.7,11.37c1.14,2.79,2.39,5.55,3.3,8.42.83,2.6,1.22,5.36,1.87,8,.7,2.87,1.77,5.69,2.15,8.61s1.26,5.51,1.88,8.26c1,4.24,1.86,8.5,2.77,12.75a132.62,132.62,0,0,1,3.06,19.05,107.56,107.56,0,0,0,1.62,12.92c1.08,5.75,2.51,11.42,3.84,17.12.89,3.81,1.88,7.59,2.81,11.39.76,3.13,1.71,6.24,2.19,9.42a59,59,0,0,1,.2,7.65c0,.67,0,1.33,0,2-.4,6.52-.9,13-1.19,19.55-.21,4.75,0,9.53-.25,14.28a58,58,0,0,0,1.12,12.7c.42,2.43.95,4.86,1.58,7.25,1.53,5.74,1.69,11.36-1.13,16.78-.13.24-.36.53-.31.74.83,3.53-1.38,6.47-1.73,9.76-.12,1.1-.34,2.18-.44,3.28-.44,5.12-.64,10.17.71,15.28,1,3.74,1.13,7.72,1.64,11.6.39,3,.8,6,1.11,9a17.48,17.48,0,0,1,0,4c-.2,1.58-.91,1.86-2.12.91s-2.05-1.85-3.12-2.83c-.57.93-1,1.77-1.59,2.53a2.46,2.46,0,0,1-2.92.79c-1.32-.41-2.64-.87-3.95-1.36a6.6,6.6,0,0,1-3.77-4c-1-2.48-2.44-4.78-3.56-7.22-.9-2-1.59-4.07-2.42-6.1-.72-1.77-1.47-3.54-2.24-5.29s-1.67-3.72-2.51-5.57c-1-2.19-2-4.37-4.86-4.36-.36,0-.78-.51-1.09-.86a11.22,11.22,0,0,0-1.69-2,2.14,2.14,0,0,0-2-.2,29,29,0,0,0-3.49,3.18,2.23,2.23,0,0,0-.16,3.24c1.56,2.17,3.12,4.39,2.69,7.38a1.65,1.65,0,0,0,.3,1.09c2.7,3.76,3.91,8.27,5.92,12.37.89,1.82,1.94,3.56,3,5.32,2.81,4.82,5.54,9.69,8.48,14.43,3,4.89,6.33,9.6,9.36,14.5,1.1,1.78,2.15,3.42,4.2,4.06.19.06.39.05.3,0,0-2.63-.05-5.2,0-7.76,0-.44.65-.85,1-1.27a11.15,11.15,0,0,1,.9,1.18c.15.26.14.62.11.47l3.77,2c-.05-1.1-.11-2.18-.17-3.41l-1.52-.35c1.06-2.52.65-4.69-1.8-6.54,2.55.27,2-2.35,3.5-3.49.35,2,.63,3.8,1,5.56.14.74.53,1.44.6,2.18.18,1.68.11,3.4.39,5.07a38.28,38.28,0,0,0,1.22,4.23c.34,1.21.58,2.46.94,3.66a18.21,18.21,0,0,0,.89,2.09,6,6,0,0,1,.57,1.17c.26,1.34.46,2.69.64,4,0,.23-.15.49-.28.89a4.45,4.45,0,0,1-.79-.61,22.45,22.45,0,0,0-2-2.43c-.87-.79-1.38-1.49-.64-2.66a2.11,2.11,0,0,0,.17-.88l-2.73-.13c.45,1.16,1,2.47,1.25,3.25.8.76,1.24,1.19,1.69,1.6a1.51,1.51,0,0,0,.58.37c.89.18,1.59.28.5,1.36a2.22,2.22,0,0,0-.12,1.92c.18.47.89.71,1.6,1.22l.41-2.48c1.22.09,1.74.74,2.2,1.86,1.17,2.87,2.54,5.66,3.82,8.5q1,2.22,1.93,4.47c.4,1,.77,1.92,1.14,2.89s.7,2.07,1.17,3a32.64,32.64,0,0,0,2.44,4.56,9.92,9.92,0,0,1,1.78,4.32,15,15,0,0,0,2,4.59,4.13,4.13,0,0,1-.62,5.27c-1.05-1.46-2.45-2.56-2.42-4.7a3.07,3.07,0,0,0-1.22-2.07c-1.73-1.32-3.28-2.54-3-5.21a3.24,3.24,0,0,0-1.49-2.55,7.79,7.79,0,0,1-4.52-5.13,10.35,10.35,0,0,0-3.64-4.56,19.82,19.82,0,0,1-5.5-5.92,26.59,26.59,0,0,0-2.48-3.17c-1-1.31-2-2.7-3.06-4-2.34-2.7-4.65-5.44-7.15-8a107.13,107.13,0,0,1-13.13-15.45c-3.25-4.87-6.21-9.95-9.49-14.8a37.21,37.21,0,0,1-4.69-9.21c-.48-1.45-1.58-2.67-2.07-4.11-1.33-4-2.5-8-3.71-12.07-.35-1.17-.51-2.4-.93-3.52a61.28,61.28,0,0,1-3.34-15c-.56-5.17-1.26-10.32-1.8-15.49-.36-3.55-.54-7.12-.83-11.05a3.73,3.73,0,0,1-.85-4.31c.55-1.52-.22-3.17-.68-4.73-.14-.5-.24-1.28,0-1.59a9.37,9.37,0,0,0,2.12-6.67c-.07-3,.63-5.92,1-8.87.45-3.51.66-7.08,1.44-10.51.53-2.31.65-4.61,1-6.91s1.18-4.83.94-7.15c-.37-3.73.74-7.21.84-10.82.08-2.52-.17-5-.28-7.56a5.78,5.78,0,0,1-.09-1.16c1.07-5.44-.74-10.64-1.33-15.93a84.9,84.9,0,0,0-1.79-8.55c-.71-3.33-1.43-6.67-2.13-10-1.61-7.68-2.91-15.45-4.91-23a184.67,184.67,0,0,0-6.28-18.26c-.73-1.91-2.21-3.52-3.45-5.19a1.54,1.54,0,0,0-1.37-.45,1.86,1.86,0,0,0-1,1.07c-.68,1.66-1.15,3.43-1.91,5.05-1.73,3.67-3.74,7.21-5.35,10.93-1.1,2.54-1.58,5.37-2.59,8-2.11,5.43-4.34,10.81-6.63,16.16a37,37,0,0,1-2.85,5.16,5.6,5.6,0,0,1-2,1.82c-2,1.07-2.68,2.66-1.59,4.68a26.75,26.75,0,0,1,3.28,7.88c.23,1.3.51,2.59.71,3.89a20.35,20.35,0,0,0,2.17,5.74c2,4.23,2.44,8.93,3.06,13.53.72,5.31,1.24,10.65,1.78,16,.21,2.14.16,4.31.4,6.44.34,3.07.83,6.12,1.27,9.18.95,6.6,1.86,13.21,2.87,19.8.47,3.05,1.2,6.05,1.73,9.08.72,4.13,1.41,8.27,2,12.41.65,4.31,1.29,8.62,1.78,12.94a74.47,74.47,0,0,1,.46,8.44c0,4.9-.05,9.8-.35,14.69-.28,4.63-.72,9.26-1.45,13.83a69.85,69.85,0,0,1-2.35,8.27,6.36,6.36,0,0,0-.33,1.77c0,4.15.2,8.31,0,12.44a14.93,14.93,0,0,1-1.43,5.91c-1.89,3.76-2.64,7.82-3.56,11.86-.27,1.18-.67,2.33-1,3.49-1.46,4.55-3.12,9.05-4.35,13.66a60.29,60.29,0,0,1-4.17,11.28c-.6,1.2-.85,2.59-1.36,3.85-1.2,2.89-2.36,5.8-3.71,8.61a29,29,0,0,0-1.9,6.39c-.72,3.22-2,6.31-3,9.46-.49,1.51-1,3-1.47,4.55-1.35,3.88-2.76,7.75-4.09,11.64a5.57,5.57,0,0,0-.34,2.44c.44,3-.87,5.6-1.91,8.28a25.17,25.17,0,0,0-1.15,4.56c-.37,2.06-.59,4.16-.89,6.23m-123.84.87H88.53M103,500.14l-2,.24-1.36,1a8.76,8.76,0,0,0,1.41.4c.59.09,1.34.25,1.74,0s.13-1.08.18-1.66l1.82,1c.41.22.84.41,1.25.61l.15-.35-1.67-1.53h1.88c0-.86-.12-1.52-1.13-1.07A21,21,0,0,0,103,500.14ZM203.7,526.92c-.12-.24-.19-.58-.38-.71-.61-.38-1.27-.69-1.9-1l-1.48.72c1.05,1,2.41,1,3.8,1-.05.55,1.11,1.08,0,1.65a3.75,3.75,0,0,0,.68,1.14c.18.14.94-.11.94-.18a10.16,10.16,0,0,0-.23-1.66c1.79-.87,1.79-.87,1.5-1.56ZM102.8,495.15l-.61-1.46c-.82.73-2.27-.78-3,.81l1.56,1.27.14-1.36,1.93.72-.28,1.94c-2-2-2.12.54-3.09,1.58l-.12-1.4-.95.72c1,2.08,2.84,1.2,4.17,1.51.43-.87.75-2.26,1.17-2.29,2.16-.18,1-2.34,2-3.16,0,0-.18-.49-.27-.49a1.68,1.68,0,0,0-.85.24C104,494.2,103.39,494.69,102.8,495.15Zm149-328.82c.29.18.72.31.82.57.66,1.75.64,1.76,2.42,1.31a13,13,0,0,0-1.71-1.6,4.13,4.13,0,0,0-1.53-.28c-1.08-1.64-1.62-1.73-3.33-.59-1.49,1-1.71.91-2.07-1.19a5.33,5.33,0,0,0-1.45.74c-.13.12.32.77.31,1.17,0,1.2.25,2.74-.35,3.53a34.55,34.55,0,0,1-5.38,5.63c-1.12.93-2.59,1.32-3.05,3-.14.53-.91.88-1.4,1.3a24.24,24.24,0,0,0-2.8,2.44,76.36,76.36,0,0,1-15.4,13.73c-2.48,1.72-5.14,3.15-7.68,4.77a72.59,72.59,0,0,0-6.84,4.63c-2.75,2.25-6.17,3.42-8.62,6.17-1.58,1.77-3.77,3-5.36,4.72a85.58,85.58,0,0,1-9.69,9.82,19.36,19.36,0,0,0-5,6.33c-1.27,2.53-3,4.78-4.48,7.22-.66,1.11-2.33,2.26-3.56,1.94-.48-.13-.85-.75-1.27-1.14l.32-.41,1.33.23c-1.37-2-1.4-2-3,1,.79.53,2.4.25,1.81,2l1.4-.09c-.14.62-.1,1.34-.35,1.48-1.15.62-2.38,1.07-3.58,1.59.09-.51.15-1,.29-1.54s.42-1.26.64-1.9a6.17,6.17,0,0,0-1.71,2,8.85,8.85,0,0,0-.43,1l1.26.36c-.38,5.32,2.4,5.8,6,4.61a5.85,5.85,0,0,1,2.19-.43c3,.22,6.05.49,9.06.88a16,16,0,0,1,3.33,1c1.15.43,2.31.79,3.22-.37,1.35-1.71,2.64-3.48,3.91-5.26,1.81-2.53,3.48-5.17,5.41-7.6a55.36,55.36,0,0,1,4.77-4.92c.24-.23.75-.16,1.14-.23a4.85,4.85,0,0,1-.15,1.16,17.74,17.74,0,0,1-1,1.88c.66-.17.89-.17,1-.29.79-.61,1.61-.63,2,.32.15.38-.45,1.15-.83,1.63A10.5,10.5,0,0,1,200.9,240c1.56.32,1.57,1,1.06,2-1.17,2.4-2.24,4.86-3.32,7.32-.85,1.94-1.62,3.93-2.48,5.87s-1.9,4-2.75,6c-1.14,2.72-2.17,5.49-3.24,8.24-.86,2.19-1.75,4.36-2.57,6.55-.53,1.39-1,2.8-1.44,4.2-1.15,3.42-2.39,6.81-3.43,10.27s-1.81,6.72-2.63,10.1-1.7,6.82-2.3,10.27c-.4,2.26.88,3.09,3,2.28a10.38,10.38,0,0,1,1.65-.38,13,13,0,0,0,2.44-.45,2,2,0,0,1,2.94,1.05c.2.39.44.76.66,1.13l.56-.31c-.39-.75-.77-1.5-1.31-2.58a12.14,12.14,0,0,0,2.48-.19,7.12,7.12,0,0,0,3.12-1.33c2.18-2.26,4.31-4.43,7.51-5a19.25,19.25,0,0,0,4.17-1.16c1.67-.76,3.47-1.49,4.18-3.54a2.65,2.65,0,0,1,.52-.7c.23.21.44.43.67.62l1.08.82.27-.43-1-1.42,2.84-.27-1.92-1.81,4.56-1.95h-3.65L211,297l-.48-.39,1.84-2.85c-1-.1-1.86-1.53-1.69-3.18a11.29,11.29,0,0,0,0-3.18c-.83-4.57-1.41-9.1.85-13.45a30,30,0,0,0,1.8-3.64c.34-1,.61-1.74,1.75-1.79a9.6,9.6,0,0,0,1.28-.24l-.68-.75-1.73-.49c.76-.48,1.25-1,1.53-.93,1.75.59,1.8-.75,2-2.05a3.48,3.48,0,0,0-1.38.47c-.28.15-.66.55-.8.47s-.42-.55-.57-.88c-.36-.79-.66-1.62-1-2.4-.25-.48-.72-.84-1-1.33-2.11-4.24-1.17-10.76,1.94-14.38,2.36-2.74,3-5.44,1.1-8.09-.09-.13,0-.38,0-.76a18.65,18.65,0,0,0,1.67.92c.93.42,2,1.52,2.5-.56.1-.4,1.05-.62,1.64-.79a6,6,0,0,1,.56,1.12l1.62-.29-.56-1.54c1-1.2,2.85-1.82,3.09-3.79,0-.17.26-.35.44-.46,1.4-.88,2.77-1.83,4.24-2.56a2.21,2.21,0,0,1,1.79.23c.23.12.18,1.39.09,1.41-1.08.27-2.18.4-3.37.58l-.14,1.64c2.05-.53,4.09-.76,5.54-2.52a1,1,0,0,1,.81-.32c.78.27,1.26,0,1.05-.78-.09-.32-.85-.55-1.33-.62a8.29,8.29,0,0,0-1.72.07l-.14-.75a7.6,7.6,0,0,1,2.53-.51,8,8,0,0,1,5,3l-.3.58-2.32-1.16c.36,1-1,2.52.73,3s2.31-.74,2.68-2l3.41,1c1.3.4,1.9,1.22,1.38,2.63-.42,1.13-.87,2.26-1.36,3.36-1.3,2.87-3.29,5.34-4.24,8.45s-2.28,5.8-3.42,8.71c-1.58,4.05-2.95,8.2-4.75,12.14s-3,7.88-5.68,11.28-4.95,7.29-7.38,11c-.3.46-.53,1-.82,1.42-.46.74-.94,1.46-1.53,2.35a15.7,15.7,0,0,1-.44,2.92,54.9,54.9,0,0,1-2.13,5.56c-3.25,7.4-6.64,14.74-9.82,22.17a74.25,74.25,0,0,0-4.91,15.26c-.44,2.31-.86,4.62-1.29,6.93,2.34.47,2.37.48,2.87-1.43s1-4.13,1.54-6.2c.28-1.12.57-2.24.88-3.36a27.43,27.43,0,0,1,1-3.49c2-4.75,3.89-9.56,6.18-14.16s3.07-10.21,6.44-14.43c.15-.19.1-.55.23-.78a53.9,53.9,0,0,1,3.45-6.08c1.28-1.75,3.25-1.45,4.07.32,2.49-.86,2.94-2.12,1.66-4.37a2,2,0,0,1-.23-1.5c1.21-2.38,2.59-4.66,3.79-7,1.53-3,3-6.11,4.4-9.22,1.25-2.81,2.26-5.73,3.52-8.54,2-4.42,4.06-8.79,6.13-13.17,1-2.09,2-4.18,3.09-6.19,1.43-2.56,3-5.08,4.53-7.55a31.21,31.21,0,0,1,3.32-4.61,3.16,3.16,0,0,0,.83-3.58c-.21-.56-.21-1.2-.42-1.75-.72-1.92-2.08-3-3.57-1.82a2.16,2.16,0,0,1-2.32.42,4.41,4.41,0,0,0-1.8.22v.37l1.27.73c-2.15,1.76-2.65,1.8-3.61-.1a13.8,13.8,0,0,0-8-6.75c-2.46-.88-3.5-2.13-3.42-4.19l1.58-2,1.67,1.89c2.39-.08,4.53-2.32,6.92.09,1.07,1.1,2.61.45,3.25-1.05.43-1,.79-2,1-2.66-.57-2.13-1.16-3.95-1.53-5.83-.58-2.91-.86-5.9-1.53-8.79s-1.75-5.46-2.42-8.24a14.84,14.84,0,0,1-.31-4.75,60.16,60.16,0,0,1,2.74-12,9.37,9.37,0,0,1,.91-2.81,2.12,2.12,0,0,0-.1-2.82,13.81,13.81,0,0,1-.7-1.25l.17-.54a16,16,0,0,0,2.06.2,2.09,2.09,0,0,0,1.35-.35C250.34,166.5,250.78,165.63,251.8,166.33ZM98,464.08l2.93,3.33c-.41,1.94,2,1.86,2.85,3.16a13.05,13.05,0,0,0-1.18-3.13,6.85,6.85,0,0,1-.51-1.06c0-.1.43-.48.52-.44a4.3,4.3,0,0,1,1,.74c.5.46,1,1.3,1.47,1.36a3.07,3.07,0,0,1,2.43,1.59c.08.12.35.1.49.13-.28-.94-.94-2.43-.72-2.59,1.5-1.05,1.3,1.2,2.47,1.62-.67-1.71.08-2.32,1.39-2.78s2.84-1,1.9-3.2h.47l1,2,2.22-.2-.28,1.05,2.7,2.12a13.14,13.14,0,0,0-.43-1.88,3.92,3.92,0,0,0-4-2.45,17.63,17.63,0,0,1,.52-2.93c.17-.45.85-.7,1.28-1.06s.62-.52.93-.79c0,.38.06.76.13,1.13a5.82,5.82,0,0,0,.48.95c-.1-4.1,3.18-3.09,4.72-4.28l-1.47-1.88-2.28.28c.87-2,1.55-3.64,2.2-5.18-1.13-.16-1.1-.13-2,1.12-.25.34-.76.75-1.1.7a1.45,1.45,0,0,1-.94-.94,2,2,0,0,1,2.31-2.37,9.58,9.58,0,0,0,2.32-.37l-.14-.73-2.08.47-1-1.53c1.34-1,1.46-2,.15-3.08a4.76,4.76,0,0,1-.74-1.17l.31-.36,1.56,1.35,1.78-1.87c-.54-.27-1.23-.57-1.86-.95a2.6,2.6,0,0,1-.84-.81,15.24,15.24,0,0,1-1.24-2.28,6,6,0,0,1-.2-1.55,5.29,5.29,0,0,1,1.21.35,18.67,18.67,0,0,1,1.64,1.19c0-.45.16-.86.07-.92-.92-.63-1.88-1.19-2.81-1.79-.29-.19-.54-.45-.82-.67.32-.07.64-.15,1-.2s.47,0,.86-.06c-.77-.81-1.39-1.49-2-2.14-1.48-1.48.27-1.79.71-2.37-.28-1.19-.54-2.26-.77-3.22-1.12,1.32-1.74,1.24-2.55-.64l2.38-.95c-2.43-.38-2.91-1.15-2.35-3.34.24-.95.43-1.75,1.56-2.06a12.74,12.74,0,0,0,2.47-1.29c-.54-1.69-1.58-.44-2.57-.53.26-.53.66-1,1.07-1.05,1.28-.07,2.94.85,3.08-1.58a2.24,2.24,0,0,1,.2-.8c.16-.36.3-.87.59-1a3.31,3.31,0,0,1,1.21-.26c.8-1.28.13-3,2-3.45.12,0,.28-1,.11-1.12-1.4-1.32-.51-2,.54-2.83a4.76,4.76,0,0,0,1.06-2.09,2.68,2.68,0,0,0,0-1.29c-.25-1.36-.54-2.71-.84-4.06,0-.07-.28-.09-.51-.15l-.23,1.63-1.76-.94c1.29-1.28,1.17-1.61-.76-2.93l.26,1.78-.61.21a8.63,8.63,0,0,1-1-2.7c0-.93-.14-1.36-1-1.74-.42-.19-.61-1-1-1.62l1.62-.24-.27-3.1a4.61,4.61,0,0,0-.51-.27c-1.66-.69-2.67-5-1.43-6.38.28-.31.84-.34,1.24-.56s.87-.55,1.58-1l-1.7-.73c.11-.37.17-.63.26-.89a16.68,16.68,0,0,0-.18-11.32c-.75-2-1.12-4.19-1.79-6.25-.17-.54-.91-1.34-1.25-1.27-2.14.43-2.75-1.55-4-2.51-.46-.35-.89-.74-1.33-1.11a6.92,6.92,0,0,0-1.26,1.87c-.62,2.3-1,4.66-1.6,7-.82,3.2-1.79,6.35-2.62,9.54a62.79,62.79,0,0,1-1.59,6.46,10.85,10.85,0,0,0-.94,4.91,20.54,20.54,0,0,1-.58,4.77c-.17,1-.44,2.07-.7,3.09a13.35,13.35,0,0,0-.83,2.92c0,2.14.06,2.16-2.2,2.25l.79,1.57c-.28.66-.79,1.28-.67,1.71.47,1.57-.42,2.73-.83,4.05s-1.24,2.84-1,4c.35,1.59.06,2.21-1,2.13a2.07,2.07,0,0,1,.78,1.35,23.17,23.17,0,0,1-.34,3.43c-.28,1.67-.59,3.35-1,5-.7,3.12.95,6.35-.42,9.46-.21.46.14,1.18.19,1.78a9,9,0,0,1,.11,2.36A6.67,6.67,0,0,0,96.17,440c1.35,1.76,1.91,2.37,1.34,4.49-.29,1.09-.31,2.26-.5,3.39a12.26,12.26,0,0,1-.62,2.49c0,.11-1-.2-1.52-.26-.17,0-.36.17-.91.46a11.41,11.41,0,0,0,1.63,1.16,1.81,1.81,0,0,1,1.06,2.71c-.73,1.4-.15,3.94,1.12,4.68a11.1,11.1,0,0,0,1.78.61l-1.76,1.39,2.78,1.63Zm127-78.45c-.08,1.08-.18,1.7-.17,2.32a15.35,15.35,0,0,0,.21,3.91c.71,2.54,1.74,5,2.57,7.49a5.52,5.52,0,0,1,.2,1.95c0,.91-.19,1.73.88,2.22a2.22,2.22,0,0,0,2.78-.38,4.24,4.24,0,0,0,1.63-4.07c-.21-1.08-.24-2.19-.39-3.29-.38-2.7-.64-5.4.24-8.06.66-2,1.39-4,1.93-6.09,1-3.69.4-7.41-.44-11-.78-3.31-1.63-6.69-3.85-9.41-.16-.2-.17-.52-.3-.76-1.15-2.07-2.33-4.13-3.47-6.21-.72-1.33-2-2.69-2-4a47,47,0,0,1,1.19-10.18c.51-2.12,2-4,3.08-5.95.82-1.47,1.65-2.95,2.6-4.34.4-.6,1.48-.88,1.63-1.47.75-3,2.19-5.92,1.14-9.17a16.92,16.92,0,0,1-.51-2.77,21.93,21.93,0,0,0-.52-4.34c-1.79-5.11-5.35-8.63-9.93-11.23a7.23,7.23,0,0,0-.73,1.27c-.67,2.07-1.17,4.21-1.95,6.23-1.05,2.7-2.48,5.24-3.43,8-1.45,4.15-2.65,8.39-3.9,12.61-1.44,4.82-3,9.62-4.18,14.52-1.44,6.06-2.54,12.22-3.77,18.34a11.63,11.63,0,0,0-.42,2.78c.13,3.64.63,7.29.49,10.91s1.71,6.76,2.78,10.06a3.77,3.77,0,0,0,.84,1.21,2.53,2.53,0,0,0,4.36-.56c1.41-2.82,1-5.91.7-8.78a15.15,15.15,0,0,1,1.86-9.21c1.09-2,1.88-1.93,3.31-.16a23.73,23.73,0,0,1,4.81,12.63,5.18,5.18,0,0,1-1.37,4.53c-1.64,1.74-3.17,3.59-4.72,5.4a4.1,4.1,0,0,0-.44.86l.35.31ZM222.54,494l.31-.46a5.8,5.8,0,0,0-1.26-.87c-1.15-.43-1-1-.21-1.63a25.62,25.62,0,0,0,3.31-2.6,25.22,25.22,0,0,0,2.45-3.93c.74-1.29,1.41-2.63,2.18-3.91a5.68,5.68,0,0,1,1.14-1.35,13,13,0,0,1,2.55-2c1-.47,1.82-.82,1.9-2.12.12-2.07.39-4.14.45-6.22a8.38,8.38,0,0,0-.44-3c-1.17-3.29-2.75-6.45-3.66-9.82-1.33-4.92-1.45-10,.62-14.76,1.3-3,.68-5.45-.69-8-.34-.63-.91-1.29-.9-1.91.07-2.19-1.39-3.37-2.59-4.75a7.15,7.15,0,0,1-1-1.1c-2-3.63-4.32-6.88-8.75-7.48a47.09,47.09,0,0,0-5.35-.74c-2,0-2.84,1.06-2.72,3.23.22,4,.73,8.07.62,12.09-.17,5.95-.78,11.89-1.21,17.84-.22,3-.58,5.92-.62,8.89a3.49,3.49,0,0,0,1.33,2.58c1.37.85,1.4,2,1.52,3.35.24,2.56-1.26,4.36-2.35,6.34a6.37,6.37,0,0,0,0,6.45,6.09,6.09,0,0,1,.71,2c.22,1.89.13,3.83.52,5.68.51,2.45,1.35,4.84,1.93,6.83,1.63,1.09,3.12,1.93,4.42,3,2.08,1.73,3.06,1.51,3.92-1.1a8.4,8.4,0,0,1,.41-.87Zm79.7-233.2-1-6.16-.67,0c0,1.19-.08,2.37-.06,3.56.05,2.63-1.23,4.12-3.8,4.45a5.66,5.66,0,0,0-2,.5,22.08,22.08,0,0,0-2.5,1.84c.74.74-.27,1-.64,1.56a5.3,5.3,0,0,1-.16,2.49,4.32,4.32,0,0,0,.62,4.37c.8,1.11,1.72,2.14,2.41,3.32a7.21,7.21,0,0,1,.86,2.73,15.77,15.77,0,0,1-.16,3,30.22,30.22,0,0,1-.39,4.58,7.51,7.51,0,0,1-3.54,4.54,3.35,3.35,0,0,0-1.22,1.23c-.81,1.77-1.57,3.57-2.22,5.41s-1.23,4-1.84,6c-.38,1.23-1,1.93-2.24.61a23,23,0,0,1,.61,2.72c.13,1.17.07,2.37.19,3.55a73.75,73.75,0,0,1,.8,8.22c0,1.72-1,3.44-1.51,5.16l-.43,0c-.09-.95-.18-1.9-.23-2.45a7.51,7.51,0,0,0-1.56.28c-.4.15-1,.49-1,.8-.12,1.13,0,2.28,0,3.91.61-.54,1-1.15,1.33-1.11s.74.62,1.18,1c.09-.19.22-.47.36-.74l.67-1.22a10.77,10.77,0,0,0,1,.93,2.48,2.48,0,0,0,1.15.63c1.18.08,2.39-.07,3.57.06.5.06,1,.62,1.79,1.21l-4.1.63c.92,1.3,4.47,1.47,4.59.29s.6-1.41,1.29-1.28a4.34,4.34,0,0,1,1.91,1.13c1.19,1.08,2.31,2.26,3.33,3.28l1-3.51,1.91.33-1.57,1.47,2.64.77c.86-1,1.51-1,3.18.45-.36,1-1.2,2.29.38,2.94a13.05,13.05,0,0,0,3,.49,6.53,6.53,0,0,0-2.24-.82c-.91-.21-1.54-.51-1-1.68a1.38,1.38,0,0,0-.53-2c-.27-.17-.35-.91-.25-1.31.06-.23.64-.38,1-.47,1.71-.46,3.42-.88,5.14-1.32l-.35-.44.6-2.61-.83.27c-.16-.74-.29-1.34-.47-2.2l-1.69,2.05c-.56-2.54-1-4.66-1.48-6.78l.38-.17a15.84,15.84,0,0,0,1.81,3.47,13.43,13.43,0,0,0,3,2.08c-.14-1.34-.17-2.38-.38-3.38s-.35-2-.93-2.39c-1.55-1.09-.6-1.34.3-1.69a5.52,5.52,0,0,1-.72-1.26,4.81,4.81,0,0,1,0-1.36l1.4-3-.5-.22a8.67,8.67,0,0,0-.73,1.62c-.41,1.78-1.62,1.35-2.59.9-2.43-1.12-2.45-1.35-.83-2.51l-1.35-2.4c-.08,1.05-.12,1.64-.17,2.21l-2,.32.39-2.31-1.7.25.92,4.42c-1.94-1.78-2.53-5-1.42-6.63.21-.31,1.06-.58,1.16-.46,1,1.15,2,2.07,3.7,1.83.47-.07,1.06,1.07,1.67,1.54.88.69,1.84,1,2.55-.25.61-1.05,1.12-2.16,1.71-3.22a3,3,0,0,0-.57-3.94c-1.07-.93-2.26-1.67-2.27-3.47a34.54,34.54,0,0,0-.68-4.57,9,9,0,0,1,0-1.28c1.37.63,1.37.63,1.41-.6l-1.46.25a24.52,24.52,0,0,1-.82-2.71c-.61-3.36-1.25-6.72-1.72-10.11a96.69,96.69,0,0,1-1-9.88,56.57,56.57,0,0,1,.56-6.71c.13-1.52-.54-2.18-2-1.93A10.14,10.14,0,0,0,302.24,260.81ZM255,177.9c-.43.67-.61,1.32-1,1.43-1.05.35-1.21,1.16-1.17,2,.13,2.76.13,5.54.52,8.26a168.68,168.68,0,0,0,2.83,16.65c1.41,5.7,3.5,11.23,5.38,16.8q2.61,7.75,5.41,15.45c.94,2.56,1.38,5.46,3.67,7.26a6.73,6.73,0,0,0,2.27.73c.73.2,1.65.16,2.16.61,1,.85,1.46.74,2.17-.29,1-1.5,2.41-2.59,4.38-2.43-.56-1.39-.44-2.22.53-2.53,2.26-.72,3.71-2.48,5.29-4.11.48-.49,1.09-.87,1.56-1.38s.9-.91.92-1.39c.09-2.12,0-4.24,0-6.37a3,3,0,0,1,.24-.84l.4-.05c.2.68.39,1.36.69,2.41.44-1.35.8-2.32,1.05-3.31.09-.36.06-1-.16-1.17-1.16-.81-.53-3-2.43-3.24,0,0,0-.45,0-.83l-1.48.91,3.59,3c-1.08.53-1.71,1.11-2.32,1.09-1,0-2.06-.23-2.33-1.74-.53-3.08-2.41-5.31-4.6-7.35a55.06,55.06,0,0,0-7.22-5.71,21.77,21.77,0,0,0-4.54-2.66c-.58-.21-1.35-.86-1.43-1.4-.38-2.57-1.08-5.13-.27-7.81a32.59,32.59,0,0,0,1.13-5.89,37.89,37.89,0,0,0,0-4.6C267.28,182,261.35,179.74,255,177.9ZM190.1,417.74c.11-.66,0-1.52.34-1.78,1.63-1.29,1.15-3,1.11-4.66-.06-2.58-.14-5.15-.32-7.72-.27-4-.77-8-.92-12.05-.13-3.37.1-6.76.18-10.13.12-4.53,0-9.07.41-13.57.42-5.34,1.23-10.65,1.81-16,.19-1.68-.15-3.2-2-3.86s-3.38-1.35-5.11-1.85c-1.89-.54-4.8,1.42-5.07,3.4-.53,3.87-1.37,7.73-.46,11.66a2.21,2.21,0,0,1-.13,1.13c-.63,1.94-1.27,3.88-2,5.79-.13.37-.54.85-.86.89-1.45.14-1.88,1.31-2.45,2.36a6.79,6.79,0,0,1-1.13,2,12.43,12.43,0,0,0-4.61,8.41,5.21,5.21,0,0,0,.85,4.12c1.36,1.85,2.71,3.71,4.09,5.55,1.18,1.58,1.28,2.83,0,4.3a4,4,0,0,0-.75,4.6A7.83,7.83,0,0,1,173,406c-1.3,4.07-.64,9.32,3.57,12.35,1.54,1.12,3,1.93,4.87,1.49,1.64-.39,3.17-1.38,4.95-.66.06,0,.23-.17.32-.29A2.85,2.85,0,0,1,190.1,417.74Zm16.84,162.94c0-.08.13-.16.2-.23,1.73.52,2.16.14,2.22-1.83a5.41,5.41,0,0,1,.29-1.08,20.33,20.33,0,0,0,.69-2.82c.22-2.17,0-4.46.53-6.52.92-3.45,2.36-6.75,3.48-10.15q3.65-11,7.18-22a3.72,3.72,0,0,0,.16-2.1,2.05,2.05,0,0,0-1.35-1.29,5.3,5.3,0,0,1-2.59-1.2c-1.46-.86-.71-1.58-.48-2.53.08-.28-.37-.71-.77-1.39-.63.91-1.07,1.61-1.57,2.26a16,16,0,0,0-1.16,1.31,17.44,17.44,0,0,0-.86,1.91l-3.77-1.47-.42,1.81c-.63-.89-1.15-1.62-1.68-2.35l-.7,0c.92,1.76-.15,1.58-.7,1.61-.51,1.88.49,2.5,2.14,2.57l-.87,4,4.2-4.38a1.85,1.85,0,0,1,.62-.5,43.29,43.29,0,0,1,4.24-1.59c.44-.13,1.06.21,1.53.48.09.05-.16,1.11-.3,1.12a5,5,0,0,1-1.49-.34,1.65,1.65,0,0,1-.22.26c-1.74,1.73-4.69,2.28-5,5.48,0,.38-.61.79-1,1a40.72,40.72,0,0,1-4,2c-.38.15-1.35-.12-1.39-.33-.31-1.75-1.23-1.12-2.21-.46l-.31-1.64c-3,.78-3,.78-3.7-.35l1.51-.83-1.59-1.55.42,1.37-.9-.79a9.23,9.23,0,0,1-.73,2c-.48.77-1.43,1.5-2.11.6-1.38-1.82-2,0-3,.28.51.57.91,1,1.26,1.42l1-1.19c.35.4.68.83,1.05,1.22.64.68,1.3,1.34,2,2.07,0-.63.06-1.22.09-1.89l-1.35-.29c1.09-1.76,1.88-2.05,3-.72,1.3,1.57,1.63.57,2.12-.71l1.19,1.36c-1.06,1.17-2.48,2-2.67,3.12-.29,1.63.26,3.43.47,5.15.32,2.67.73,5.33.94,8a15.84,15.84,0,0,1-.3,3.94c-.41,2.25-1.28,4.34-3.51,5.2a6,6,0,0,0-4,4.71,7.88,7.88,0,0,1-1,2.06c-1.58,2.91-2.47,5.87-1.21,9.22M300.07,346.23a15.64,15.64,0,0,1-.68,2.6,23.35,23.35,0,0,1-1.53,2.33,23.43,23.43,0,0,0-1.48,2.57c-1.21,2.64-.48,4.81,2,6.07,1,.51,2,1,3.07,1.41a1.73,1.73,0,0,1,1.1,2.27,74.81,74.81,0,0,1-3,9c-1.39,3-1.36,6.15.82,8.59.31.35.75.79,1.15.81a12.72,12.72,0,0,0,8-2.2c1.49-1,2.41-2.92,4.65-2.65.34,0,1.07-1.16,1.17-1.86a9.91,9.91,0,0,0-.48-2.4,51.3,51.3,0,0,1-.73-5.51c-.16-3.09-.08-6.18-.2-9.27-.08-2.15-.47-4.29-.45-6.43a8.72,8.72,0,0,0-3.63-7.51c-1.47-1.13-2.6-.72-3.9.07-.51.31-1.27.81-1.6.62s-.55-1.07-.83-1.71c-.21,0-.53,0-.84,0-.07,0-.12.14-.18.21,1.34,2.16,1.35,2.17-1.19,2.73C300.87,346.11,300.45,346.16,300.07,346.23ZM133.4,307.82c1.77.27,2.83-.35,2.35-1.39-.8-1.74.24-2.86.7-4.18.25-.74.86-1.34,1.12-2.07a54,54,0,0,1,1.81-5.61c2-4.16,4-8.28,6.29-12.27a37.58,37.58,0,0,1,9.8-11.68,38.19,38.19,0,0,1,8.54-4.48c5.29-2.19,10.7-3.94,16.54-2.42,2.59.67,4-1.1,3.26-3.84-.36-1.23-1.05-2.16-2.39-2-5.46.55-11,.5-16.26,2.46a4.16,4.16,0,0,1-1.19,0l.74-1.84-2,1.22.38.33c-.3.53-.6,1.06-.91,1.59l-1.51-1-1.26.65a3.93,3.93,0,0,1,.51,1.21,1.06,1.06,0,0,1-.5.87,2,2,0,0,1-1.32-.13c-.18-.09-.27-.72-.16-1,.32-.79.76-1.54,1.15-2.3-.78,1.54-1.86,1.46-3.42.61.29,1.58.52,2.83.85,4.6l-3-2v-3.43c-.31.2-1,.43-1.08.74a3.67,3.67,0,0,0,.31,2.35c1.65,2.27,1.39,4.07-1,5.52a1.71,1.71,0,0,0-.51.37c-1.22,1.6-2.4,3.24-3.65,4.81a62.24,62.24,0,0,0-4.73,5.84c-2,3.27-3.72,6.76-5.48,10.19-1,1.86-1.84,3.76-2.6,5.7-.49,1.26-.68,2.68-2.78,1.47a5.47,5.47,0,0,1,.61,5.83c-1.84-.68-.21-2.36-1.11-3.44a4,4,0,0,0-.54,2c.07,1.43.26,2.84.42,4.26,0,.41,0,1,.3,1.18s.76,0,1.15,0a13,13,0,0,0-.09-1.39c-.1-.62-.25-1.23-.38-1.85C134.7,305.61,134.82,306.31,133.4,307.82Zm102.73-76.14a26.81,26.81,0,0,0-2.74,1.23,22.32,22.32,0,0,0-5.3,4.58c-1.65,1.85-1.21,3.15-.46,4.92a19.4,19.4,0,0,1,1.33,4.05c.67,3.61-1.29,6.78-1.82,10.2-.4,2.6-1.45,5.09-2.09,7.66-.15.58.22,1.3.35,1.95.48-.43,1.18-.77,1.39-1.31,2-5,4.29-9.94,5.52-15.14.71-3,3.19-5.08,3-8.26,0-.34.35-.69.45-1.06a19.78,19.78,0,0,0,1-4.3A23.9,23.9,0,0,0,236.13,231.68Zm66.68,164.93c-1.51.89-3.48,2-5.44,3.22a.78.78,0,0,0-.25.41c-.86,2.73-2.85,4.11-5.33,5.06a3.78,3.78,0,0,0-1.68,1.78,3.06,3.06,0,0,0,.92,3.73c1.87,1.75,4,2.31,5.51,1.12a26.58,26.58,0,0,0,5.67-5.26,32.09,32.09,0,0,0,3.29-7.32C306.12,397.69,305.13,396.54,302.81,396.61ZM122.91,271.4c2.32,3.62,4.37,6.74,6.35,9.9,1,1.54,1.36,1.61,2.7.49,1.53-1.27,3-3,5.3-1.69.12.07.35-.08.9-.22a9.63,9.63,0,0,1-1.64-.91,2.8,2.8,0,0,1-.65-1.17c-.24-.8-.35-1.64-.58-2.45s-.53-1.56-.8-2.34l.39-.31,2.12.78a8.05,8.05,0,0,1-.18-1.76,6.83,6.83,0,0,1,.63-1.55,4.35,4.35,0,0,0-1.53-.08c-1.69.65-2.36-.1-2.95-1.72a1.94,1.94,0,0,0-3.57-.41,5.14,5.14,0,0,1-4.26,2.4A7,7,0,0,0,122.91,271.4Zm68.33,289.84-.21,1.9-1.07-.53-.24.51,3.24,1.57.18-.36c-.44-.89-.88-1.79-1.33-2.68l.35-.29,2.66,3.25-4.5,1.92c.06,1.87-.45,2.21-2.12,1.53-.33-.13-.78.07-1.18.12l.09.44a5.07,5.07,0,0,0,1.58.33,22.62,22.62,0,0,0,3.94-.73c.83-.26.88-1.45,2.09-1.8,1-.3,1.55-2.25,2.51-3.8-1.14-.09-2-.09-2.76-.23a1.58,1.58,0,0,1-.94-.62c-.09-.11.21-.7.45-.83.75-.41,1.56-.69,2.53-1.1-.34-.37-.71-.77-.89-1-.7.41-1.22.71-1.72,1-.17.11-.31.3-.48.43l-.89.62c0-.49-.3-1.2-.09-1.42.63-.65,1.87-1,2.11-1.67.54-1.62,1.73-1.9,3.12-2.17L192,554.51a5.33,5.33,0,0,1-2.77,5.59ZM207.5,407.8c-.44-.86-1.22-1.7-1.18-2.5s.84-1.68,1.49-2.85l-3.67,1.37,1.84,2.37-1.74.73c.1.94.18,1.76.27,2.61,1.43.12,2.9.17,4.05-1.08.47-.51.89-1.07,1.34-1.61.54.55,1.1,1.1,1.62,1.68a6.68,6.68,0,0,1,.52,1c.62-2.33-1.49-2.6-2-4Zm-41.82-64.68.55.33a5.88,5.88,0,0,1,.94-1.19,2,2,0,0,1,1.43-.53c.42.12.71.76,1.06,1.18-.35.29-.68.61-1,.86a9.14,9.14,0,0,1-1,.54l.11.69c1.52-1,2.33-.34,2.95,1l-1.19.75L171,348l.43-.18c-.29-1.28-.58-2.57-.88-3.85l-.56-.15c.34-.23,1-.51,1-.69-.37-2.56,1.16-1.68,2.34-1.42l.84-1.9a3.32,3.32,0,0,0-.83.09c-.28,1.94-1.15,1.15-2.07.54s-4.75.36-5.28,1.35A5.12,5.12,0,0,0,165.68,343.12ZM281,211.5l-.36-.36-1.71.26c.24-.58.56-1,.52-1.33a2,2,0,0,0-.61-1.28,16,16,0,0,0-2.37-1.12c-1,.6-1.41,1.31-2.15-1.25l-1.89-.21.85-1.77c-1.94.74-1.94,1.93-.17,4.1.45-.13,1.07-.53,1.32-.35,1.5,1,3.29,1.72,4.09,3.69.18.45,1.05.75,1.63.81C280.38,212.71,280.7,211.92,281,211.5ZM118.9,430c2.47-.26,4.53-.35,5.48-2.74a3.73,3.73,0,0,0-1.67.1c-.42.1-.85.41-1.23.33-1.84-.35-2.48.18-2.35,1.92l-1.83,1.36c1.34.58,3.48.22,1.86,2.5-.08.12.09.57.26.7a.81.81,0,0,0,.74,0,6.83,6.83,0,0,0,1-.87Zm4.47-187c3-1.28,3.65-1.15,4.36.56-2.57-.29-2.57-.29-2.85.13a25.17,25.17,0,0,0,2.61,1c.86.22,1.74.19,1.8-.62l-1.55-2.95c-1.14-.38-2.64-1.14-4.08.09C123.38,241.43,123.49,242.18,123.37,243Zm88.92,163.16.42.6c.33-.73,1.11-1.73.89-2.12a5.31,5.31,0,0,0-2.39-2.28c-1.46-.56-1.7.88-2.06,1.9Zm-34,65.53c0-.05.08.36.2.37,1.88.08,1.79,1.53,2,2.87a1.59,1.59,0,0,0,1.12.93c1.42.19,2.86.21,4.51.3a4.08,4.08,0,0,0-.7-.57c-.42-.22-1-.28-1.29-.59-1.56-1.52-1.54-1.54-2.3.41-1.73-.47-.51-2.29-1.33-3.12l2-1.32c-.75-.18-1.28-.48-1.69-.37A18.06,18.06,0,0,0,178.27,471.68Zm-62.68-125,.79-2.4,5.06,2.92c-.45-.7-.69-1.49-1.2-1.8a13,13,0,0,0-3.86-1.77,3.42,3.42,0,0,0-3.53,1.45l2.58-.45-.91,1.65ZM318,452.16l.24.57c.29-.35.77-.67.81-1s-.46-.93-.74-.94a43.66,43.66,0,0,0-4.43.08c-.19,0-.51.45-.49.66s.35.63.56.64C315.27,452.18,316.62,452.16,318,452.16Zm-213.73,49.6-.62.08-.63.88,1.22,1.14-2.5-.5c1,1.24-.62,3.36,1.7,3.46l-.28-2.26.48-.21,1.24,1.14.47-.21ZM284.36,295c0,1.54.25,2.51,1.4,2.66a1.69,1.69,0,0,0,1.38-.89,13.91,13.91,0,0,0,.07-3l1.1-.26-.1-.47c-2.17.27-2.17.27-2.48,1.3l1.24.74c-.33.67-.61,1.24-1,2ZM70.54,147.68l-1.94-1.23a8.15,8.15,0,0,0-.61-.9s-.6.28-.58.36a6.31,6.31,0,0,0,.56,1.77c.18.32.65.46,1.1.75l-1.13,1.37,1.29.34ZM46.48,173.47c-1.79,1.09-2.09,2.19-1.11,3.8.5.83,1.09,1.42,1.89.87l-1.53-2.69h1.35ZM144.12,274.3c-1.87-1.8,0-3.16.24-4.66-2.5.12-2.71.88-1.39,5.09Zm58,249.59c3-4.17,3-4.17,2.33-5-.28,1.11-.7,1.92-1.76.75-.16-.18-.82.13-1.59.29l2.64,1.22C203.2,522.25,200.24,521.34,202.13,523.89Zm-99,55.9c-.25,2.87-2.1,1.09-3.2,1.66.45.34,1,.37,1.34.7a5.06,5.06,0,0,1,.62,1.58C104.09,582,104.27,581.57,103.13,579.79ZM218.37,242.52c2.06-.09,3.8-1.45,3.76-2.58l-3.9.32C218.82,240.89,219.75,241.56,218.37,242.52ZM323.14,490.23l3.06,2.68-1.52-5.2C324,488.77,323.64,489.4,323.14,490.23Zm-217.33,1.9L106,492a21,21,0,0,0-3.17-2.67c-.59-.34-1.59.08-2.41.15l0,.37ZM305.05,234.28l-.51.08-.15,1.67-1.71-.59,2.78,4.05C305.31,237.54,305.18,235.91,305.05,234.28ZM200.74,529.53h-.31c-.14,1.19-.28,2.38-.44,3.77l-1.74-.88c0,.63.12,1.26.4,1.32,1.64.38,2.27-.92,2.81-1.86C201.17,530.94,201,530.23,200.74,529.53ZM98,494l-2-.19c-.11,1.58-1-.69-1.16,0l.58,3.16Zm82.67-146.78c-1-.4-1.66-.67-2.32-.89s-1.49-.45-2.21-.67c.07,2.22,2.25,1.42,3.23,2.38C179.47,348.11,180.28,347.45,180.67,347.19Zm76.84-118a26,26,0,0,0,2.77-.2,5,5,0,0,0,1.3-.63,8.18,8.18,0,0,0-1-1,1,1,0,0,0-.55-.24ZM142.27,276c-1.4.41-2.78,1.75-2.88,2.75l2.67-.47Zm30.31,199.39.12.7,1,.44.82-1.25,1.16,2.27c.14-.95.48-1.71.25-2a2.31,2.31,0,0,0-1.64-.8A5,5,0,0,0,172.58,475.34Zm88.16-304.91c.49-1,.79-1.47,1-2a.94.94,0,0,0,0-.74,1,1,0,0,0-.7-.47,10.78,10.78,0,0,0-1.73.46ZM182,313.68l-.07.51c2.69.53,2.69.53,2.61,2.65.47-.25,1.18-.5,1.16-.63-.1-.67-.23-1.69-.66-1.9A12,12,0,0,0,182,313.68ZM139.62,268c-1,2.09-.77,2.55,1.92,3.66Zm34.18,74-.1.43,3.43,2.39,2-1.29a15.15,15.15,0,0,1-2.75-.29A15.28,15.28,0,0,1,173.8,342.05Zm-121-200.72H49.92c.16,1.85,1.35,1.64,2.51,1.73Zm-3.44,39.84.19.5,2.73.4.22-.48C52,181,51.6,180,51.16,180,50.55,180,49.93,180.73,49.32,181.17Zm127.77,296.4c.34-1.91.34-1.91,2.51-1.53,0-2-.75-2.21-2.92-.91Zm-10.2-148-1.57-1.1c-1.7,2.93-1.68,3.35.32,3.41C165,330.69,165.05,329.77,166.89,329.55ZM21.47,221.64l-.22.18a7.25,7.25,0,0,0,.74.84c.89-.58,1.72-1.24,2.56-1.87l-.21-.42-2-.35.2,2.06ZM168.52,346.31l-2.37-1.4-.35-1c-.46.26-.75.67-.65.89A2.65,2.65,0,0,0,168.52,346.31Zm16.65,135.26c1.09-1.47,2-2.48.81-3.91l-1,.91Zm-4.85-4.3,2.2,1.52,1.7-1.13-.05-.39ZM147.6,268.36c1.33,1,2.24.38,2.76-1.62l-2.23-.41.87,1.46Zm-49,112.33,1.92,2.79C101.58,381.69,101.09,380.61,98.58,380.69Zm51.78,7.88c-.34.75-.51,1.09-.65,1.44-.22.53-.42,1.07-.61,1.6-.12.33-.21.66-.31,1,.29.09.7.35.84.25a2.12,2.12,0,0,0,.6-1,12.33,12.33,0,0,0,.5-2C150.77,389.61,150.58,389.32,150.36,388.57ZM48.68,177.41c1.19,1.61,2.4,1.73,4,.38ZM181.35,480.16l.08-.47c-2.17-1.79-2.38-1.82-3.1-.22ZM171.07,343.85l3.29,2.3C174,344.3,173,343.49,171.07,343.85Zm57.1-109.48-1.38.19-.64,1.86C227.63,236.84,228.22,236.29,228.17,234.37ZM122.71,301.21l.06.58c1.22-.08,2.44-.13,3.64-.28.19,0,.33-.54.49-.83a3.9,3.9,0,0,0-.83-.05c-.73.09-1.45.23-2.18.36ZM250.62,171.54l-.22-3.43-.47.06-.83,2.89Zm-81.24,294.2.43-.36c-.12-1.19-2.9-1.21-1.38-3.27-.61.35-1.29,1-1.23,1.09C167.86,464.1,168.64,464.91,169.38,465.74Zm-24-166.6c-.66.21-1.41.28-1.45.5a27.65,27.65,0,0,0-.26,3.17l.3,0C144.34,301.73,144.77,300.61,145.33,299.14Zm52.75,212.6-.73-.07c-.13.58-.54,1.45-.32,1.68a8.19,8.19,0,0,0,2.08,1.26l.28-.4C198.69,513.56,197.07,513.48,198.08,511.74Zm-67.15-49.51c1,.34.84,2.09,2.46,1.66l-1-1.54,1.15-.53-.39-.54Zm70.61,51.39a3.45,3.45,0,0,0,1.08.43,13.8,13.8,0,0,0,1.9-.21l-.07-.56-1.28.2c-.1-.46-.19-.83-.33-1.43Zm-46.6-337.33-.38-.9L151.28,177l.17.43Zm117.9,4.88c-.59-.88-1-1.44-1.62-2.4l-.44,2.82ZM160.71,423.25l1.47-.53c-.55-.24-1.14-.31-1.37-.65-.7-1-.65-1-1.26.05ZM62.18,222l-.24,1.05,2.64.44.17-.73Zm-5-13.2.91-.35c-2.81-.67-.25-1.66-1.16-2.89a22.56,22.56,0,0,0-1,2.58A7.14,7.14,0,0,0,57.22,208.83Zm79.41,199-4-.54-.17.63c1.65-.83,2.44.27,3.28,1.42ZM216.53,245l-.91,2.43,2.54-1.07s0-.12,0-.14ZM149.87,183.7a2.07,2.07,0,0,0-.34-3.25C149.64,181.52,149.76,182.61,149.87,183.7Zm48.66,368.57-.38-.39-1.52.92c.28.41.56.81,1.06,1.51Zm-77.18-91.42-.06.45h2l-.38-1.61Zm53.2-236.7.49.2,1.23-1.48-1.72-.75Zm33,190.57-.19-.64-2.75,1.37.29.66C206.26,416.81,206.28,414.21,207.56,414.72Zm-49.9-65.12-.44-.44c-.48.6-1,1.2-1.67,2C157.36,351.46,157.58,350.6,157.66,349.6Z"/><path class="cls-2" d="M148.83,582.78a10.75,10.75,0,0,0,.54-1.91c.06-1.84,1.69-1.19,2.54-1.76.07,0,.59.52.81.87.1.17.06.67,0,.71a1.92,1.92,0,0,1-1,.12c-.23,0-.44-.23-1.1-.62-.22,1.54-.47,2.81-.53,4.08a1.7,1.7,0,0,0,1.33.58,8.74,8.74,0,0,0,1.9-1.44c-.72-.68-2.25.19-2-1.49,1.24,0,2.84-1.62,3.14-3.11.39-1.94.68-3.9,1.11-5.83.11-.45.59-1.13.93-1.14,1.68-.09,1.67-1.24,1.63-2.45,0-1,.16-1.82,1.58-2.07a8.45,8.45,0,0,1-.42,2.28c-1,1.87-.43,4.3-2.15,6-.49.48-.42,1.56-.67,2.35m-49.42,5.78.92-.24a78.82,78.82,0,0,1,1.5-8.85c.75-2.68,2.15-5.16,3.16-7.78,1.71-4.4,3.28-8.87,5-13.26,1.06-2.72,2.27-5.37,3.5-8,.41-.89,1-1.74,2.25-1.44.17,0,.51-.06.56-.18.67-1.78,1.85-.94,2.9-.64l-1-1.8L122.77,543c2.71-9.3,5.35-18.33,8-27.49l1,.93c.14,0,.31-.06.32-.11.58-2.4,2.63-1.92,4.22-2.34.56-.14,1.1-.36,1.64-.54l-.14-.44h-1.91l1.53-1.18-.16-.24-2.62.75.37,1.42c-.87.08-1.71.31-2.11-1-.09-.32-.71-.47-1.12-.72v-2.22l1.85,1.5c-.21-.75-.26-1.56-.47-1.61-1.54-.34-.88-1.6-.89-2.4,0-1.47.31-2.91,2.79-2.06l-.46-.62H133c.07-.68.11-1.28.19-1.89.21-1.63.51-3.26.62-4.9s.36-1.94,2-1.76c.39,0,.82-.28,1.66-.6l-2.24-.66,1.65-.81,0-.26c-.36,0-.8-.14-1.08,0-1.31.73-1.51-.05-1.47-1.1,0-.77.19-1.54.31-2.42l1.34.14c0-.35-.17-.75-.05-1s.5-.49.79-.75c-2.07-.61-2.39-1.1-1.67-2.69l1.5,1.73c.4-1.43.4-1.43,2.82-.93l-1.11-1.55a9.78,9.78,0,0,1-1.18.51c-1.4.4-2,0-1.84-1.46.25-3.08.61-6.14.93-9.2s.68-6.14,1-9.22c.09-1,.17-1.73,1.47-1.86.78-.07,1.49-.88,2.38-1.45.25,1.08.42,1.79.59,2.5l-.47.15c-.22-.37-.43-.75-.67-1.17-1.71.66.19,1.5-.11,2.2l.05,0-2.25-.95a9.79,9.79,0,0,1,1.29,2.27c.33,1.52.85,1.28,1.6.35l-.06,0c2.76,1.17,1.55,3.65,1.65,5.62s-.17,3.63,1.46,5c.24.2.09.89.12,1.36l-2-.7L144,482l.4-.28-.22-1.91c.06,0,.13,0,.16.05,1.08,1.37,2.22,2.6,4.19,2.28a9.89,9.89,0,0,1,.63,1.74l-3.42-1.31,1.37,2.27-.35.4c-.86-.71-1.62-1.76-2.6-2s-2.26.1-3.41.2c.25,2.72,1.56,4.28,4.23,4.62l-.9-1.37s.09-.12.16-.12c.86,0,2.24-.25,2.49.17a9.61,9.61,0,0,1,.82,3.49c0,.33-.38.72-.58,1.09s-.33.68-.29.61a16.5,16.5,0,0,1,2,.91c.11.06,0,.77-.1.85-1.56.83-.48,1.82-.21,2.78a14.29,14.29,0,0,1,.25,1.74l-.45.07-2.24-2-.83,1c.86.45,1.56.79,2.24,1.18a4.35,4.35,0,0,1,.94.72s-.28.63-.4.61a4.49,4.49,0,0,1-1.08-.38c-.13-.05-.27-.08-.66.13l2.51,3.32c.09-1.18-.1-2.21.31-2.75s1.42-.56,2.41-.89c.44-.89.08-3,2.46-2.42l.32,1.83,1.84-1.3-.91-1.61,2.79-.35c-.69-1.35-1.26-2.39-1.76-3.46-.11-.23,0-.57,0-.86a8.92,8.92,0,0,1,1,.2c.5.15,1,.35,1.49.53a4.4,4.4,0,0,0,.15-1.66c-.59-1.79-.19-2.58,1.43-2.93a13.61,13.61,0,0,1,.55-2.26,1.12,1.12,0,0,1,1.06-.23,19.42,19.42,0,0,1,1.55,2.15L162,488.33l.31.3,2.67-2.27-1.87-1.46c.6-.52,1.12-.9,1.56-1.37s1-1.15,1.56-1.88c.82.49,1.62.38,2.32-.74a5.29,5.29,0,0,1,2-1.79c.3-.15,1.31.46,1.45.92.45,1.38-1.56,3-3,2.69A1.7,1.7,0,0,0,166.7,484c-.13.48-.66.83-1.08,1.32l3.48.63,0,0c.64,1.2,1.23,2.45,3,1.92.2-.06.53.36.8.56-.23.26-.47.74-.7.73a16.9,16.9,0,0,1-2.31-.33l-.35,2.22c.4-.27.66-.49.94-.65a3.88,3.88,0,0,1,1-.47c.11,0,.46.49.42.55a2.91,2.91,0,0,1-.71.69c-.14.12-.34.17-.48.3-.35.3-.68.63-1,.94-.07-.69-1.64-.59-.82-1.86.33-.51,0-1.43,0-2.16l-.45-.16-2.07,4.23-2.83-.37.27,1.75,1.44-1.08c.39,2,2,2,3.41,2.21l.08.52-2.8.85,1.9,2.58-1.73-.2a50.66,50.66,0,0,1,2.45,4.59c.19.42-.37,1.19-.59,1.81-.74.3-1.14.28-.72-.72s-.26-2-1-1.92c.14.46.49,1,.37,1.39-.49,1.49.23,2.23,1.46,2.92l-.1-1.72c2-.08,2-.08,1,2.19,1.22,1.05,1.49-.53,2.05-.93s.63-1.27,1.29-1.92c-.16,1.84.82,2.6,2,3.4,1.38.93.29,1.7-.5,2.35,2.91,2.25,2.91,2.25,3.92.27a8.2,8.2,0,0,0-1-.94,8.91,8.91,0,0,0-1.29-.59c.84-1.79.53-2.69-1.77-3.06.42-.32.8-.85,1.26-.93.89-.16,1.4-.33,1.06-1.44-.11-.37.14-.87.22-1.31.29.06.77,0,.83.2a4.92,4.92,0,0,1,.15,1.34c.14,1.81-1,3.76.66,5.42a7.28,7.28,0,0,1,.95,1.84c.29-.52.62-1,.86-1.55.91-2,1.54-3.9-1.13-5-.2-.09-.31-.4-.73-1,.71.06,1.22-.05,1.37.14,1.24,1.56,1.82.67,2.36-.59.07-.18.31-.27.55-.47.13.24.35.44.31.58-.55,2.24-1.14,4.47-1.73,6.7a4.17,4.17,0,0,0-.3,1.11c.1,2.32-.71,3.85-3.14,4a3.41,3.41,0,0,1-1.1,0,1.13,1.13,0,0,1-.07-.86,2.55,2.55,0,0,1,1-.43,1.84,1.84,0,0,1,.48,0c-1.15-1.07-1.73-1-3.6.92l3.2,1.38,1.6-.83a5,5,0,0,1,.06,1.39c-.25,1-.61,1.95-1.07,3.35-.34-.87-.54-1.39-.75-1.95-.82,1.67-.8,1.74.85,2.65-1.35,4-1.33,8.39-3.52,12.24-1,1.83-1.18,4.19-1.83,6.27a53.78,53.78,0,0,1-1.93,5.09c-.19.43-.81.65-1.23,1a6.23,6.23,0,0,0-.11-1.15.79.79,0,0,0-.5-.51c-.19,0-.57.16-.6.32-.32,1.5-1,.73-1.57.27-1-.77-2-1.58-3.05-2.43a3.84,3.84,0,0,1,4.58,1.17c-.18-1.32-.3-2.1-.41-2.89l1.78.77c-.21-1.66.74-.76,1.53-.31.36-1.16.68-2.16,1-3.25l-1.85-.44c-.13.41-.26.79-.51,1.55-.56-1-.94-1.72-1.42-2.59l4.79-1.28-.15-.45-1.18.27-.34-1.53a3.7,3.7,0,0,0-1.34,0c-1.17.54-.89,2.46-2.37,2.78,0,0-.11.39,0,.45,1.44,1.32.11,2.72.13,4.07l-2.25-1.26c-1.35.91-1.56.86-2.24-.65v0l3.79-.27-.54-3.68h-6.16l0,.57c.57-.05,1.22-.3,1.69-.1s.72.86,1.33,1.66c-2.15-.33-4.18.41-4.46-2.28-1.31,1-1.24,2.5.08,3a4.92,4.92,0,0,1,2.5,2.87c-.76-.16-1.59.27-2.05-1.11-.29-.88-1.76-1.34-2.71-2l-.27.48c.52.41,1,.81,1.55,1.25s1,1,1.59,1.53l-1,.81v-.53l-2.59-.73.69-1-1.32-1-.94-.68v1.84l.29-.29,2.45,3-.34.32-2.22-.74c1.56,2.36,4.09,1.88,5.91-.64l1.83,4.25-2.2-.29,0,.9,4-.53a3.74,3.74,0,0,1-2.3-3.62,5,5,0,0,0-.42-1.41l1.69-.43c-.64,2.47-.29,3.06,2,4.17a5.77,5.77,0,0,1,1.77,1.33,1.6,1.6,0,0,0,2.5.25c.05.38.24.82.12,1.12-.85,2.11-1.77,4.2-2.68,6.28-.15.35-.55.65-.56,1-.07,2.54-1.91,4.23-2.8,6.37-.52,1.27-.47,2.8-2,3.59a2.83,2.83,0,0,1-3.43-.25,5.25,5.25,0,0,1-1.36-3.2c-.06-.94-.18-1.38-1-1.74-2.5-1.1-5-2.13-7.8-2-.64,0-1.31-.71-1.63-.9-.44.71-.67,1.54-1.16,1.77-.65.32-1.61.41-1.72-.88,0-.2-.26-.52-.42-.53a18.87,18.87,0,0,0-3.19,0c-.41,0-.78.57-1.16.89l-1.43,1.2-.43-.31L137,561l1.91-.29c-.12.7-.22,1.41-.36,2.11a12.72,12.72,0,0,1-.66,2.72,5.35,5.35,0,0,1-1.7,2.52c-1.91,1-3.94,1.89-6.08.13-.47-.39-1.66.17-2.52.3l.1.55a3.52,3.52,0,0,1,.83-.14c.65.06,1.29.18,1.94.27-.28.73-.37,1.68-.88,2.13a6,6,0,0,0-1.87,4.75,3,3,0,0,0,.52,1.54c1,1.66,2.18,3.25,3.19,4.93m31.23-60.39,2.54-2.14a7.11,7.11,0,0,0-.75-2.22c-.75-1-2.5-1.35-1.81-3.45-.17,1.45-.59,2-2,1.66-.36-.09-1,.86-1.47,1.34l.34.31c2.59-1.47,2.95-1.41,3.92.67l-3.58.63.08.43a4.27,4.27,0,0,1,1.15-.23,4,4,0,0,1,2,.45c.26.2,0,1.21-.15,1.84a3.12,3.12,0,0,1-.31.76l-1-1.5c-.67.38-1.86-1.45-2.88.07.17.56.34,1.08.54,1.73l.83-1Zm2.18-5.61a23.15,23.15,0,0,1,1.4,2.82,2.9,2.9,0,0,0,3.06,2.13c.44-.08,1.13-.52,1.16-.86.12-1.17.77-2.44-.5-3.51a2.88,2.88,0,0,1-.83-2c0-2.15-.06-2.33-2.07-2.61-1.28-.18-1.37,0-.82,1.43a3.4,3.4,0,0,1,.67-.32c.31-.08.63-.1,1-.15-.11.39-.12,1-.36,1.11a2,2,0,0,1-1.3,0,11.77,11.77,0,0,1-1.68-.63l-.16.32,2.14,1.64Zm-.21,5.32c.55,3.63.57,4-2.33,4.47l1.35,1c-1.76,1.77-2.58-.45-4-1.07a10.29,10.29,0,0,0,.8,1.27c1.26,1.34,3.54,1.21,3.78-.24.17-1.08.34-1.18,1.48-1.07,1,.09,1.83-.1,2.63.72.2.19.87-.12,1.49-.22l-4.19-2.84c2.18-1.63,2.76,1.26,4.48.87l-4.34-3.7ZM144.26,516c.63.22,1.14.36,1.61.58,1.25.58,1.68-.26,1.83-1.24a3.74,3.74,0,0,0-.27-1.92c-.37-.92-.93-1.55-1.84-.41-.5.63-1.05.89-1.66,0-.19-.28-.76-.31-1.15-.45l-.17.62,2.77,1.33Zm25.05-5a14.79,14.79,0,0,0,1.57-1.7,4.84,4.84,0,0,0,.43-1.27c-.83.28-1.47.74-2,.65-1.61-.27-3.2-.75-4.79-1.15l-.13.36,4.1,1.74-1.65,1.14,0,.48ZM159,524.25l-3-.36-.06.38,2,1.42-3.63.5C156.6,527.72,158.64,526.75,159,524.25Zm-17.17-34.43c-.12-2.16-.88-2.87-2.88-1.84l2.5,1.45-2.32,1,.1.23Zm16.79,42.47.51,0-.47-2.78c-.53,1.6-.75,1.63-3,.39l-.69,1.39A2.66,2.66,0,0,1,158.64,532.29Zm-10.43-1.39h3.63l0,.42,1.34-1C151.51,529.51,149.89,529.34,148.21,530.9ZM136,532l-.2.45c.62.24,1.34.79,1.84.63.7-.22,1.24-1,1.85-1.52l-.29-.27Zm28-30.35-.46-.18-2,3.45.64.46a19.72,19.72,0,0,0,1.54-2.12A5.48,5.48,0,0,0,164,501.68Zm-15.94,2.65c-1.25-1.53-2.88-.26-4.29-.61C145,505.42,146.68,503.69,148.05,504.33ZM136.23,515.4l-.17.42,2.94,1.67c-.37-1-.6-1.53-.78-2Zm4.41-44.48.42-.33c-.17-.36-.27-.93-.53-1a7.52,7.52,0,0,0-1.8-.25l-.12.55Zm-8.16,46.46-.2.64,2.58,1.05.17-.43C134.35,517.84,133.77,516.81,132.48,517.38Zm27.06,29,.24-.75-2.13-1c-.05.3-.22.81-.14.85A21.76,21.76,0,0,0,159.54,546.34Z"/><path class="cls-2" d="M178.94,79.81c-3.64-3.54-.8-6.45-.21-9.47a14.06,14.06,0,0,0,.48-2.07,17.8,17.8,0,0,1,.84-5.5c.78-2.14.78-4.58,1.15-6.89.2-1.29.53-2.57.68-3.86s.14-2.63.24-3.94a6.66,6.66,0,0,1,.32-1.78,51.73,51.73,0,0,0,1.87-4.83c.23-.87-.25-1.92-.3-2.89a7.39,7.39,0,0,1,.15-2.75,18.46,18.46,0,0,0,1.15-7.78,2.79,2.79,0,0,1,.09-1.16c1.16-2.83.36-5.5-.36-8.27a11.45,11.45,0,0,1,0-4.52c.35-2.12,1.23-4.14,1.53-6.26a14.71,14.71,0,0,0-.3-4.76,2.41,2.41,0,0,1,1-2.83c1-.69,1.39.21,2,.71.39.32,1,.35,1.42.66a14.18,14.18,0,0,1,1.45,1.45l-.34.44-1.38-.07c2.1,3.56,1.11,7.27,1.09,10.9,0,2,.17,4.07.24,6.11a11.62,11.62,0,0,1-.08,2.64,3.19,3.19,0,0,0,.77,3.29c.7.71.89,1.63-.45,2.17-1,.42-1.27,1.23-1,2.46a12.48,12.48,0,0,1-.22,3.53c0,.15-.4.33-.62.36s-.39-.23-.44-.4a12.67,12.67,0,0,1-.24-1.48c-.51,2-.5,2,.79,2.83.24.16.49.81.41.89-1,1-.22,2.15-.33,3.21-.13,1.3-.38,2.59-.55,3.89-.08.65,0,1.33-.17,2a20.81,20.81,0,0,1-.92,4.13,17.63,17.63,0,0,0-1,6,34.83,34.83,0,0,1-1.41,8.09c-.52,1.8-1.89,3.32-2.58,5.09a8.83,8.83,0,0,0-.34,3.7,6.29,6.29,0,0,1-1.68,4.62c-.56.69-1.1,1.27,0,2a1.22,1.22,0,0,1,.22,1.14c-1.55,1.88-.43,4.26-1.16,6.29a1.58,1.58,0,0,0,0,.49,18.34,18.34,0,0,1-2.28,9.18c-.74,1.39-.83,3.15-1.2,4.74-.76,3.2-1.52,6.39-2.26,9.59a4.52,4.52,0,0,0-.13,1.63c.66,4.24-.73,8.19-1.53,12.23-.56,2.81-1,5.66-1.58,8.47-.85,4-1.82,8-2.73,12-.38,1.67-.69,3.35-1.1,5-.34,1.38-.78,2.74-1.18,4.11a4.47,4.47,0,0,0-.19.46c-.53,4.12-1,8.24-1.59,12.36,0,.29-.15.71-.35.81a.93.93,0,0,1-.85-.2c-1.6-1.62-3.16-3.27-4.73-4.9-.49-.51-1-1-1.47-1.52-1.59-1.56-3.14-3.16-4.79-4.63-2-1.8-4.07-3.55-6.18-5.21-2.34-1.83-4.73-3.59-7.15-5.31-3.76-2.66-7.67-5.1-11.29-7.94-3.36-2.64-6.41-5.7-9.63-8.53a50.37,50.37,0,0,0-5.18-4.18,14.7,14.7,0,0,0-3.66-1.2c1-2.24-.46-3.67-1.61-5.23-3.36-4.59-6.72-9.19-10-13.84a50.24,50.24,0,0,1-3.12-5.19c-2.88-5.36-5.5-10.89-8.64-16.09-1.51-2.5-1.67-5.31-2.81-7.84-.54-1.2-1-2.41-1.56-3.62-1.22-2.93-2.44-5.85-3.62-8.78-.41-1-.66-2.11-1.07-3.13-.67-1.67-1.43-3.3-2.08-5-.44-1.12-.6-2.37-1.14-3.43a45.31,45.31,0,0,1-3.29-9.92c-.69-2.91-2-5.67-2.93-8.52-1.3-3.78-2.36-7.66-3.89-11.33-1.83-4.42-2.5-9.13-3.88-13.65-.47-1.53-1.29-2.89-1-4.6.19-1.13.22-2.17,1.68-2.41,2.19-.35,3.55-.12,4.11,1.27.66,1.67,1,3.46,1.6,5.19.8,2.53,1.69,5,2.46,7.56s1.36,4.94,2,7.41a2.31,2.31,0,0,0,.28.92A9.47,9.47,0,0,1,73.37,30c.11.93,1.2,1.69,1.64,2.63,1.2,2.49,2.33,5,3.41,7.57,1.47,3.49,2.88,7,4.28,10.53,1.49,3.72,2.93,7.46,4.39,11.19q1.83,4.69,3.65,9.4c1.51,4,3,7.93,4.55,11.84a34.13,34.13,0,0,0,2.08,3.54c1.51,2.71,3,5.43,4.49,8.16,1.9,3.51,3.32,7.33,6.29,10.13.08.08.19.16.21.25.82,3.36,3.61,5.24,5.5,7.79,2.4,3.24,5.08,6.27,7.63,9.4.33.42.47,1,.84,1.39a7.36,7.36,0,0,0,1.72,1.27c.49.26,1.17.17,1.62.48,2.11,1.41,4.09,3.05,6.26,4.35,4.1,2.48,7.54,5.8,11.14,8.93,2.7,2.35,5.55,4.51,8.3,6.8a8.92,8.92,0,0,1,1.27,1.62c.09.13.09.41.19.44,2.55.82,4,3.64,6.75,4,.86.13,1.13-.16,1.1-1.07a51.54,51.54,0,0,1,.07-7.25c.2-1.71,1.19-3.3,1.62-5,1-4.11,1.93-8.25,2.91-12.37.91-3.84,1.94-7.66,2.76-11.53,1-4.52,1.59-9.12,2.61-13.63.77-3.42.82-7,2.57-10.23a19.71,19.71,0,0,0,1.63-6.55C175.17,81.87,175.72,80,178.94,79.81Zm11.28-49.26c-.23-.73-.46-1.5-.69-2.27l-.51.08-.48,3.52Zm-34.65,120-3.31-1.12c0,1.32,1.16,1.47,1.88,1.95C154.3,151.49,154.84,151,155.57,150.56Z"/><path class="cls-2" d="M197.81,62.47l2.45-.29c-.66,1.53,2.08,2.19.47,4.2l-.95-1.67-.4-.11c-.11.64-.25,1.28-.31,1.92s-.1,1.46-.15,2.17l1.58,2.51-.45.46-1.73-.76c.11.95.42,1.6,1.46,1.75.33,0,.62.4.93.61-.24.24-.49.47-.72.73a7,7,0,0,0-1.05,1.26c-.4.79-.67,1.65-1.1,2.75l.4.7-1,.68c.09.83.16,1.54.23,2.24l-.43.08,1,.8-1.36.66,1.1,1.78,1.49-2.4a12.56,12.56,0,0,1-1.53,7.54c-.05.64-.09,1.28-.14,1.91s-.09,1-.15,1.5a15,15,0,0,1-.29,1.78c-.33,1.28-.69,2.55-1.1,3.8a6.15,6.15,0,0,1-.77,1.23l-1-1.19-2.15,3,.68,1.5,2.44-1.29c-.65,2.52-1.21,4.67-1.77,6.82l-.5-.07v-3.5c-.78,0-1.79-.56-1.22,1.11.12.36-.38.94-.63,1.52l2.45,1.78-.61.87-2.09-.62c2.25,1.37,1.63,3.12,1.08,5.19a121.23,121.23,0,0,0-2.53,12.12c-.58,3.68-.81,7.43-1.13,11.15-.15,1.78-1,3.5-.33,5.35.38,1,.7,2,1,3.07a5.8,5.8,0,0,1,.1,1.19,7.55,7.55,0,0,1-1.09-.27,15.9,15.9,0,0,1-1.56-.82c.58,1,.92,1.63,1.31,2.22.17.25.62.64.69.59,1.55-1.11,2.18.84,3.3.91a13.75,13.75,0,0,1-4.67,9.23c-3.4,3.32-6.28,7.21-9.42,10.84-1,1.2-2.16,2.34-3.6,3.9.08-.87.11-1.29.16-1.71.41-3.38.8-6.77,1.24-10.14.24-1.85.63-3.69.83-5.54.37-3.29.57-6.6,1-9.89q.94-7.72,2.08-15.43c.5-3.42,1.12-6.83,1.79-10.22.28-1.39.94-2.7,1.25-4.09.45-2,.65-4,1.12-6,.58-2.46,1.35-4.87,2-7.32.76-2.79,1.59-5.56,2.22-8.38.41-1.83.46-3.74.78-5.59.25-1.46.73-2.88,1-4.34a55.08,55.08,0,0,0,1.16-7.5c.17-4.26,1.52-8.18,2.54-12.21a21.09,21.09,0,0,0,.12-4.78c0-1.38-.06-2.78.07-4.15a3.2,3.2,0,0,1,.82-1.86c.67-.64,1.46-.48,1.7.55s.35,2.17,1.76,2.39c.22,0,.48.84.47,1.28A19.14,19.14,0,0,1,197.81,62.47ZM184.9,127.39l0,.49c.69.21,1.56.23,2,.69s.06,1.24.06,1.89h.67c0-.9.35-2.17-.09-2.6S185.8,127.51,184.9,127.39Z"/><path class="cls-2" d="M100.28,324.67c-1.12-1.08-2.28-2.13-3.36-3.27-4.14-4.41-8.12-9-12.39-13.25-4.65-4.64-9.55-9-14.34-13.51-.24-.22-.5-.42-.73-.65-3.14-3.17-6.33-6.28-9.39-9.52a78,78,0,0,1-5-6c-.31-.4-.2-1.14-.29-1.81-1.3,1.15-1.89,0-2.39-1.09-.4-.91-.61-1.9-1-2.79-.17-.36-.68-.55-1.05-.8a6.48,6.48,0,0,1-1.67-1.14c-1.35-1.76-2.57-3.62-3.87-5.42-1.91-2.66-3.93-5.23-5.73-8a53.06,53.06,0,0,1-2.69-5.26l.39-.42,2.18,1.95c0-.63-.12-1.66.15-1.8a4.34,4.34,0,0,1,2-.06c3.38.09,4.23,3.34,5.9,5.37a73.86,73.86,0,0,1,6.85,10c2.85,4.91,7.09,8.33,11.07,12.07,6.82,6.39,13.71,12.73,20.38,19.29,3.36,3.3,6.31,7.06,9.48,10.58.9,1,2,1.87,2.87,2.89,2.48,2.81,5,5.62,7.34,8.53,1.33,1.62,1.14,2-.43,3.56a8.7,8.7,0,0,0-1.09,2l-1.65-.93,1-.95C101.75,322.62,101.16,324.46,100.28,324.67Z"/><path class="cls-2" d="M191.88,154.46c.17-2.1.3-3.67.44-5.38a3.68,3.68,0,0,1-1.22.09,1.63,1.63,0,0,1-.95-.69c-.11-.23.19-.68.34-1s.61-.9.52-1.24c-.42-1.72,0-2.75,2-2.58l-.55-1.63,3.29.64c0-.28-.1-.66-.16-1s-.37-1.11-.2-1.51a9.06,9.06,0,0,1,1.61-2.72c.24-.26,1.15.13,1.69.21-1.42-2.13,0-3.86,1.47-5.62a1.74,1.74,0,0,0,.27-.72c.76-2.92,1.49-5.85,2.27-8.77,1.27-4.75,2.66-9.47,3.84-14.24a135.38,135.38,0,0,0,3.62-19.18c.2-2,.91-3.65,3.28-4a10.51,10.51,0,0,0,3.6-1.59c.39-.24.44-1.09.63-1.67s.38-1.12.56-1.69l.77.22c-.84,2,.14,4.29-1.51,6.19a4.37,4.37,0,0,0-.75,2.25c-.23,2-1.26,3.55-2,5.29-1,2.3-.85,2.36.85,3.09,0,1.09.13,2,.06,2.89a11.3,11.3,0,0,1-.56,2l-1.37-1.09c-1.1.7-2,1.56-1.61,3a2.22,2.22,0,0,0,1.21,1.38c.83.26.93.63.61,1.31-.51,1.1-.37,3.08-2.52,2l1.8,1.29-.24.46-1.82.14-2.75-2.88-.66,2.39,2.12.22c.37,2,.66,2.15,2.69,1a17.33,17.33,0,0,1-.3,1.74c-.32,1.07-.65,2.13-1,3.16-.76,2-1.57,4-2.35,5.93a1,1,0,0,0-.06.55c.31,1.25-.43,1.26-1.69,1,1.36,1.06,1.58,1.94.39,2.82a.62.62,0,0,0-.2.43c.12,3.27-2.12,5.6-3.22,8.38s-1.26,2.58-3.93,2c-.2.69-.41,1.39-.59,2l2.54-1C199.23,144.41,195.68,149.31,191.88,154.46Zm9.24-23,0,.65c2.35,1.22,2.35,1.22,4-.39ZM211,107.1c-1.61-1-2.77-1.9-.33-2.43.09,0,.2-.41.15-.57s-.38-.38-.44-.34a5.68,5.68,0,0,0-1.55,1.31,6.81,6.81,0,0,0-.52,2Z"/><path class="cls-2" d="M219.12,53.13c1.64.4,1.32,1.86,1.13,3.38-.15,1.3.05,2.65-.08,4a5.76,5.76,0,0,1-.83,1.74c-.5-.4-1-.75-1.5-1.19a5.86,5.86,0,0,1-.69-1.08,9.34,9.34,0,0,0-1.08.79,10.74,10.74,0,0,0-.89,1.16,3,3,0,0,1-.34-3.91,5,5,0,0,0,.32-1.88c.06-.7,0-1.4.09-2.1,0-.38.38-.8.28-1.1a3.15,3.15,0,0,1,2-4.37c-.5-1.09-1.25-2-1.29-3s.75-2,1-3a9.78,9.78,0,0,0,.27-3.55c-.48-2.58-.81-5,.9-7.3a3.48,3.48,0,0,0,.4-1.58c.4-3,.59-6.06,1.22-9a15.28,15.28,0,0,1,2.19-4.41c.44-.7,1.55-.26,1.88.6a5.11,5.11,0,0,0,.94,1.81,4.86,4.86,0,0,1,.91,6.53c-.75,1.35-1.2,2.85-2.66,3.74-.41.26-.54,1.54-.35,2.23.62,2.33.81,4.53-.74,6.57a1.55,1.55,0,0,0-.35.73c-.14,2.29-.17,4.59-.4,6.87a46.09,46.09,0,0,1-1,5.85C220.25,52.15,219.57,52.6,219.12,53.13Zm-1.76,1.8c-.62,1.21-2,1.85-.6,3,.55.46,1.16.84,1.79,1.3C219.62,57.65,217.89,56.66,217.36,54.93Z"/><path class="cls-2" d="M199.7,6l-1.73-1,2.58-1.11a60.47,60.47,0,0,0,.08,8.07c.32,2.43-.77,4-2.16,5.61l.26.34a11,11,0,0,1,1.26-.57,4.58,4.58,0,0,1,.85-.12,3,3,0,0,1,0,1c-.45,1.45-1.54,1.43-2.76,1.07l-.27.42a8.83,8.83,0,0,0,1.64,1.6,3.5,3.5,0,0,1,2.1,3.87c-.11,1.09-.39,2.17-.51,3.26a1.56,1.56,0,0,0,.35,1c.66.86.27,1.31-.53,1.6-1.32.47-2.64.9-3.83,1.3,0,1.45.06,2.6,0,3.74-.05.85.21,1.19,1,1.33a7,7,0,0,1,1.64.73c-.14.27-.28.79-.41.79a10.83,10.83,0,0,1-1.87-.28,1.23,1.23,0,0,1-.38-.26c-.3,1.3-.3,1.3,1.38,1.47l.11.47-1.28.17c-.29,0-.82,0-.85.11a1.59,1.59,0,0,0,.07,1c.2.45.68.79.78,1.24a1.87,1.87,0,0,1-.19,1.46,4.25,4.25,0,0,0-.36,5.32c1.61,1.88,1.11,4.12-1.17,5-.31.11-1-.14-1.12-.39-.52-1.45-1-2.91-.13-4.46a3.88,3.88,0,0,0,.48-2.18c-.39-3.76.43-7.34,1.05-11a38.65,38.65,0,0,0,.07-6.55,11.51,11.51,0,0,1,.08-3.43,14.32,14.32,0,0,0,.2-8.25,3.38,3.38,0,0,1,0-1.14c.23-1.95.48-3.91.72-5.86s.28-3.66,2.2-4.59C199.34,6.72,199.44,6.38,199.7,6Z"/><path class="cls-2" d="M140.35,466.24c1.06.2,2.72-1.5,2.19-2.46-.91-1.65.36-3.15-.11-4.74-.25-.86.18-1.91.14-2.87,0-.32-.52-.62-.8-.93-.24.28-.7.57-.69.84a5.26,5.26,0,0,0,.49,1.5l-2.29.9-.49,2.72-.75-.09c.09-1,.14-2,.27-3s.37-2.27.54-3.41.33-2.24.49-3.3H141a4.21,4.21,0,0,1-.86-.82,2.22,2.22,0,0,1-.36-1.27c.41-2.66.87-5.3,1.35-7.95.19-1.06.74-1.41,1.72-.78.58.37,1.25.61,1.8,1,.3.22.67.68.64,1-.31,2.91-.68,5.81-1.05,8.71-.17,1.36-.41,2.71-.53,4.08-.16,1.63-.22,3.28-.33,4.92-.15,2.35-.31,4.7-.46,6.89l-1.89.72.06,0c-1.2-.15-1-.87-.64-1.67ZM140,453.41l.08,1.64a3.07,3.07,0,0,0,2.7-3.32Z"/><path class="cls-2" d="M129,501.13a12.54,12.54,0,0,1-2.63-.37c-.18-.06,0-1.17,0-2.14l1.31,1.09a15,15,0,0,1-.71-4c.1-1.2-.4-2.86,1.52-4-.54,1.48-.43,2.24,1.11,1.92-.48-1.46-.94-2.82-1.57-4.71,1.47.29,2.77.25,3.67.85.45.31.19,1.76.26,2.85l-1.24-.09c.06,1,.11,1.94.17,2.87.31,4.51-.67,8.89-1.34,13.29a18.59,18.59,0,0,1-1,2.82c-.75-1.2-1.3-2.06-1.85-2.93l.38-.3-1.59-.13L126,502l3-.61Z"/><path class="cls-2" d="M141.21,439.07c.34-1.38.64-2.57,1-3.85l2.38-.5a4.13,4.13,0,0,1-2.2-3.44l.4-.19,2.1,1.81.78-3.35.57.08c0,.93,0,1.86,0,2.79a41.74,41.74,0,0,1-.07,4.19c-.18,1.57-.57,3.12-.87,4.67h-.66l-.48-1.26Z"/><path class="cls-2" d="M38.36,227.53l-1.12,2.66c1.37-1.08,2.45-2.81,4.59-.88l-2.31.83,1.7,1.37L41,232c-2.3.06-4.26-1.4-6.5-1.61l-.14-.62,1.8-1.14-1.06-.86v-.51l3-.29Z"/><path class="cls-2" d="M119.74,484.83c-.33-.7-.7-1.09-.62-1.36.33-1.24.28-2.08-1.28-2.16a10.55,10.55,0,0,1-.27-2.1c-1.62-.23-1.62-.23-1.9-1.39a7.4,7.4,0,0,1,1.88-.47c.32,0,.79.5.9.87a8,8,0,0,1,.18,1.86l.62.09.7-2.66.34-.12.45,2.95,1.54.85a10.15,10.15,0,0,1-.86,2A11.86,11.86,0,0,1,119.74,484.83Z"/><path class="cls-2" d="M214.87,73c-1.14-1-1.74-1.87-1-3.5.57-1.24.38-2.85.52-4.29.09-1,.17-2,.29-3.39,1.44,1.14,1.11,2.36,1,3.39-.21,2.17-.61,4.33-.89,6.5A6.24,6.24,0,0,0,214.87,73Z"/><path class="cls-2" d="M211.73,82.44c.37-1.27-.49-2.87,1.68-2.57.22,0,.51-.65.78-.67a3.17,3.17,0,0,1,2,.26c.33.28.29,1.34.07,1.9-.12.3-1,.32-1.49.44Z"/><path class="cls-2" d="M38.23,247.15c.66.08,1.33.12,2,.26.21.05.55.46.51.55a13.68,13.68,0,0,1-.9,1.48c.08,1.29,2.77-.63,2.3,1.67-1.74-.08-3.42-.13-5.1-.26-.27,0-.52-.36-.78-.55.16-.18.3-.46.49-.52C38.91,249.14,38.91,249.15,38.23,247.15Z"/><path class="cls-2" d="M180.85,499.12l2.1-1.8-.37-.06,1.16-4.26.27.1-.79-2.67c.73.14,1.33.08,1.62.36a1.69,1.69,0,0,1,.26,1.34,43,43,0,0,1-1.62,6c-.29.75-1.44,1.13-2.2,1.68Z"/><path class="cls-2" d="M4.44,197.92c-2.31.6-3.7,0-4.35-1.93-.13-.41-.13-1.23.06-1.32a1.55,1.55,0,0,1,1.41,0C2.55,195.64,3.41,196.74,4.44,197.92Z"/><path class="cls-2" d="M139.77,335.76c.36-1.24.63-2.36,1-3.42.11-.28.71-.48,1.07-.45.2,0,.44.55.52.88C142.91,334.92,142.36,335.65,139.77,335.76Z"/><path class="cls-2" d="M36.28,248.29,34.4,247a21.41,21.41,0,0,1,1.86-2.18c.26-.23,1.17-.21,1.24-.05a2.19,2.19,0,0,1,.09,1.55A11.54,11.54,0,0,1,36.28,248.29Z"/><path class="cls-2" d="M318,472.36l1.6-1.73a11.1,11.1,0,0,1,1.31,2.41c.1.33-.64.92-1,1.39Z"/><path class="cls-2" d="M145.73,406.76a2.91,2.91,0,0,1-.84-3.3c.13-.48.65-.84,1-1.25a6.25,6.25,0,0,1,.76,1.59,17.23,17.23,0,0,1,0,2.62l-1,.31Z"/><path class="cls-2" d="M112.58,482.8c.46.21,1.29.42,1.3.64,0,1.11.69,1.19,1.46,1.37a2.27,2.27,0,0,1,1,.67,2.23,2.23,0,0,1,.32.77,5.77,5.77,0,0,1-1,.2c-.46,0-.92-.06-1.54-.11l-1.73-3Z"/><path class="cls-2" d="M219.92,64.78a20.4,20.4,0,0,1-.39,3.1c-.1.36-.72.56-1.1.83-.17-.46-.6-1.22-.49-1.32.77-.66.44-1.38.4-2.16,0-.37.67-.78,1-1.17Z"/><path class="cls-2" d="M200.68,74.65c-.35,2.58-.65,4.73-1,7C198.6,80.6,199.08,75.94,200.68,74.65Z"/><path class="cls-2" d="M318.88,477.4c.73-.62,1.19-1.31,1.67-1.32s.88.72,1.33,1.12l-1.64,1.74C319.86,478.52,319.48,478.09,318.88,477.4Z"/><path class="cls-2" d="M106.34,482.48c-1.19.44-1.19.44-3.67-2.92C103.63,478.86,104.64,479.64,106.34,482.48Z"/><path class="cls-2" d="M173.24,494.15c.65.82,1.34,1.32,1.3,1.74a1.92,1.92,0,0,1-1.16,1.32c-.31.1-1.22-.64-1.21-1C172.18,495.65,172.72,495.09,173.24,494.15Z"/><path class="cls-2" d="M178.08,498.9a1.14,1.14,0,0,1,.12-.65,18,18,0,0,1,1.42-1.48c-.09.62-.18,1.24-.26,1.85a7.45,7.45,0,0,1-.13,1.07c-.12.39-.32.75-.48,1.13a8.52,8.52,0,0,1-.65-1C178,499.68,178.08,499.42,178.08,498.9Z"/><path class="cls-2" d="M125.7,513.49c-2.07-1.28-.11-3.07-.81-4.47l.4-.33,1.44,1.49-.44,0Z"/><path class="cls-2" d="M111.9,493.89c-2.16-.57-1-2.82-2.37-3.93A3.46,3.46,0,0,1,111.9,493.89Z"/><path class="cls-2" d="M150,233.39c0,1.44-.95,1.73-1.84,2-.21.06-.85-.57-.82-.63.23-.49.5-1.11.93-1.31A4.49,4.49,0,0,1,150,233.39Z"/><path class="cls-2" d="M126.3,347.24l-3.37-1v-.6a6.3,6.3,0,0,1,2.36-.22c.58.17,1,1,1.44,1.54Z"/><path class="cls-2" d="M131.68,487.54l-2.84-.66c1.4-.53,2.88-.35,2.6-2.17C132.47,485.32,132.47,485.32,131.68,487.54Z"/><path class="cls-2" d="M173.67,499.61l1.25,2.46-2,.28.24-2.82Z"/><path class="cls-2" d="M55.06,184.46s.15,0,.15,0c.08-.66.15-1.31.22-2,.65.47,1.31.93,2.17,1.56l-2.54,1.4,0,0v-1.05Z"/><path class="cls-2" d="M154.12,482.31c.77-.54,1.55-.64,2.14.28.11.17-.32,1-.42,1a12.89,12.89,0,0,1-1.9-.56Z"/><path class="cls-2" d="M124.79,343.75c-2.44-1.3-2.63-1.94-1.05-3.4Z"/><path class="cls-2" d="M171.91,482.7a11.7,11.7,0,0,1,1.55,1.37c.12.14-.17.94-.28.94a14.51,14.51,0,0,1-2.06-.25Z"/><path class="cls-2" d="M213.56,77.5c-1-2.39-.69-3.09,1-2.87Z"/><path class="cls-2" d="M162.3,473.89l1-.6-.71-.41.08-.41a3.75,3.75,0,0,1,1.58.28,1.51,1.51,0,0,1-.13,1.39,4.08,4.08,0,0,1-1.69.4Z"/><path class="cls-2" d="M161.09,477.82c.39.83-.19,3.08-.71,3.25-.17.05-.5,0-.55-.14a1.24,1.24,0,0,1-.14-.88C160.09,479.31,160.58,478.62,161.09,477.82Z"/><path class="cls-2" d="M181.64,494.31c-.67-.4-1.34-.8-2-1.21.26-.19.59-.62.76-.55a9.31,9.31,0,0,1,2.1,1.09c.1.07-.16.7-.26,1.07Z"/><path class="cls-2" d="M49.43,191.73l-1.28-3.63C49.32,188.43,50.07,190.13,49.43,191.73Z"/><path class="cls-2" d="M141.58,484.47c.76-.87,1.49-1.4,2.44-.37a.87.87,0,0,1,.11.81c-.12.22-.53.47-.72.4A14.26,14.26,0,0,1,141.58,484.47Z"/><path class="cls-2" d="M199.18,2.44l-1,1.14c-.27-.43-.71-.85-.75-1.31s.46-.7.73-1Z"/><path class="cls-2" d="M137.1,331.61c.93-.62,1.62-1.79,2.71-.4a1,1,0,0,1,0,.87.71.71,0,0,1-.65.27C138.54,332.17,137.91,331.91,137.1,331.61Z"/><path class="cls-2" d="M322.84,469.18c-.6.45-1.08,1-1.29.91a1.81,1.81,0,0,1-.87-1.14c-.05-.21.6-.88.82-.83C321.92,468.22,322.25,468.69,322.84,469.18Z"/><path class="cls-2" d="M109.46,502.51c-.65-.41-1.29-.83-2-1.3l.89-1.66,1.4,2.49Z"/><path class="cls-2" d="M169.1,485.92l-1.59-2.12h2c-.17.69.86,1.62-.4,2.09Z"/><path class="cls-2" d="M325.1,469.6a17.06,17.06,0,0,1-.43-2c0-.08.59-.24.9-.36l.48,2.05Z"/><path class="cls-2" d="M215.91,75c-.08,1-.15,1.93-.26,3.26-1.55-1.41-.37-2.33-.44-3.3Z"/><path class="cls-2" d="M130.22,480.7l2.29.34.13,1.28C130.31,481.66,130.31,481.66,130.22,480.7Z"/><path class="cls-2" d="M169.46,472.75c-.29.14-.62.46-.85.39a1.63,1.63,0,0,1-1-.73c-.13-.27.16-.76.27-1.15a6.31,6.31,0,0,1,1.12.68,3,3,0,0,1,.44.85Z"/><path class="cls-2" d="M153,575.25c.38.71.76,1.41,1.1,2.14,0,0-.5.45-.7.4a1.13,1.13,0,0,1-.74-.64,6.75,6.75,0,0,1-.13-1.57Z"/><path class="cls-2" d="M106.84,504.33l1.82-1.34.3,1.41-2.06.36Z"/><path class="cls-2" d="M151.12,576.4c.4.73.79,1.13.78,1.52s-.53.56-.83.84c-.24-.36-.62-.69-.68-1.08S150.74,577,151.12,576.4Z"/><path class="cls-2" d="M163.27,538c-1.79,1.48-1.49-.78-2.13-1.35.62.59,2.22-.62,2.13,1.3Z"/><path class="cls-2" d="M208.1,233.34c.13-.53.11-1,.33-1.23a2,2,0,0,1,1.16-.32c.18,0,.55.4.52.5a2.49,2.49,0,0,1-.58.89c-.19.18-.67.27-.67.39,0,2.69-2.72,2.61-3.82,4.16,0,.07-.29,0-.59,0l.24-1.16c-1.15-1.88-1.15-1.88.39-2.76l-2.54-.57-.27-.48a24.91,24.91,0,0,1,2.27-1.58c.18-.1.89.28.89.44C205.43,233.6,207,232.93,208.1,233.34Z"/><path class="cls-2" d="M233.08,220.65h-1.92c.2-.92.37-1.73.56-2.58l-1.61-.28a11.23,11.23,0,0,1,1-2.71,2.41,2.41,0,0,1,1.78-.64,5.4,5.4,0,0,1,1.7.62c-.2.33-.34.81-.63,1a17.25,17.25,0,0,1-2.44.84C235.55,217.17,233,219.25,233.08,220.65Z"/><path class="cls-2" d="M218.77,234.83l.54,1.79-1.59.12.25-1.08-2.3-4.38,2.47-.62c.07.61.11,1.08.17,1.54.22,1.73.89,2.18,2.51,1.91a5.83,5.83,0,0,1,1.93.2s0,.94-.09,1a6.81,6.81,0,0,1-2,.28A7.67,7.67,0,0,1,218.77,234.83Z"/><path class="cls-2" d="M222.35,220.93a8.62,8.62,0,0,1,1.12-1.81,59.94,59.94,0,0,1,4.68-4.06c.44-.33,1.27-.12,1.93-.15-.22.55-.28,1.31-.67,1.6-1.06.77-2.3,1.27-3.38,2s-1.88,1.57-2.83,2.35a2.57,2.57,0,0,1-.63.28Z"/><path class="cls-2" d="M184.55,294.68c0-1.73,1.65-8.62,3-9.28C188.09,287.89,186.05,294.17,184.55,294.68Z"/><path class="cls-2" d="M205,242.87c1.47-2,2.67-3.74,4-5.38a1.26,1.26,0,0,1,1.26-.1,1.67,1.67,0,0,1,.44,1.28C210.62,239.55,206.6,242.76,205,242.87Z"/><path class="cls-2" d="M225.32,290c-1.47.12-1.81-.2-1.24-1.61.41-1,.47-2.38,2-2.91Z"/><path class="cls-2" d="M214.83,237.19a12.32,12.32,0,0,1-2-1.51c-.24-.27-.06-.94-.08-1.43.43,0,1.06-.1,1.25.14a18.36,18.36,0,0,1,1.43,2.29Z"/><path class="cls-2" d="M218.16,226.72l-.81-.74c.51-.5,1-1,1.56-1.47a3.23,3.23,0,0,1,.58.53C219.09,225.59,218.66,226.11,218.16,226.72Z"/><path class="cls-2" d="M113,450.31a1.83,1.83,0,0,1,.28.46c.27,1.34-1.65,4.93-2.9,5.35a1,1,0,0,1-.86-.1c-.16-.16-.14-.59-.08-.88a1.85,1.85,0,0,1,.38-.72C110.79,453.1,111.81,451.8,113,450.31Z"/><path class="cls-2" d="M124.39,404.07c-.61-1.26-1.26-2.5-1.78-3.8-.06-.15.58-.59.9-.9a7.79,7.79,0,0,1,.53.92,15.61,15.61,0,0,1,.55,1.63c.17.6.31,1.21.47,1.81Z"/><path class="cls-2" d="M103.5,463.05l1.13,2.24c-1.66,1.15-1.56-.81-2.14-1.23l-1.63.54c0-.24-.22-.54-.14-.71.4-.85,1-.79,1.7-.36.22.12.73-.29,1.11-.45Z"/><path class="cls-2" d="M108.87,466.12c-1-.32-2.21,1.57-2.76-.19-.15-.46.81-1.29,1.26-1.95l.47.28-.12,1.36Z"/><path class="cls-2" d="M122.12,406.53c.14.29.48.69.4.86a24.21,24.21,0,0,1-1.3,2.13c-.17-.21-.51-.48-.47-.63.24-.82.58-1.61.88-2.41Z"/><path class="cls-2" d="M103.53,463.08c1.08-1.33,1.35-1.26,2.85.73l-.17.46-2.7-1.22S103.53,463.08,103.53,463.08Z"/><path class="cls-2" d="M117.94,454.42c1,.57,1.58.88,2.14,1.26a.78.78,0,0,1,.3.66c0,.22-.43.57-.51.53a7.9,7.9,0,0,1-1.81-1.14C117.86,455.56,118,455,117.94,454.42Z"/><path class="cls-2" d="M306.65,326.64c.23-.91.6-1.79,1.74-1.55.34.07.57.79.85,1.21l-2.32,1Z"/><path class="cls-2" d="M306.31,315.17l-3-2.68.5-.59,2.92,2.76Z"/><path class="cls-2" d="M213,541.22l-1.6,2-.43-.14v-2.9Z"/><path class="cls-2" d="M208.75,571.81l-.35,3.57C207,574.08,207,573.35,208.75,571.81Z"/><path class="cls-2" d="M165.71,517.4,168,515l.41.38-.73,1.27,1.29.57-.36.66Z"/></g></g></g></svg>