<?xml version="1.0" encoding="UTF-8"?><svg id="Calque_2" xmlns="http://www.w3.org/2000/svg" xmlns:xlink="http://www.w3.org/1999/xlink" viewBox="0 0 297.64 234.54"><defs><style>.cls-1{fill:none;}.cls-2{fill:#e5ab41;font-family:Avenir-Light, Avenir;font-size:8px;}.cls-3{clip-path:url(#clippath);}.cls-4{fill:#e8bcbd;}.cls-5{fill:#658560;}.cls-6{fill:#90b171;}.cls-7{fill:#733f49;}.cls-8{fill:#8e4959;}.cls-9{fill:#d0667e;}.cls-10{fill:#af586c;}.cls-11{fill:#a66585;}.cls-12{fill:#d0c6c1;}.cls-13{fill:#c49eab;}.cls-14{fill:#d6ab4b;}.cls-15{fill:#3f9a47;}.cls-16{fill:#555a4b;}.cls-17{fill:#48593a;}.cls-18{fill:#5f3837;}.cls-19{letter-spacing:-.07em;}.cls-20{fill:#ddbe4e;font-size:19px;}.cls-20,.cls-21{font-family:GiovanettaScriptFont, 'Giovanetta Script Font';}.cls-21{fill:#de973e;font-size:21px;}</style><clipPath id="clippath"><rect class="cls-1" x="0" y="0" width="297.64" height="234.54"/></clipPath></defs><g id="Calque_1-2"><g><rect class="cls-18" x="0" y="0" width="297.64" height="234.54"/><g><path class="cls-8" d="M104.56,125.41c-6.36,.91-8.43,.45-9.43-.03-.47-.22-3.98-1.95-4.09-4.42-.06-1.3,.79-3.72,10.92-8.13,5.61-2.44,12.21-4.69,25.17-7.49,11.08-2.4,11.82-1.97,17.87-3.89,4.95-1.57,6.79-2.6,11.54-3.4,7.8-1.32,11.62-2.48,12.97-.68,.92,1.22-.15,2.98,1.26,4.27,.82,.74,1.7,.65,1.79,1.08,.18,.97-4.12,2.53-5.13,2.9-10.67,3.95-10.99,8.7-21.35,11.69-2.09,.6-4.07,.93-8.01,1.59-6.43,1.07-7.51,.76-13.58,1.74-3.28,.53-6.81,1.11-11.4,2.39-4.59,1.29-5.27,1.9-8.54,2.37Z"/><path class="cls-10" d="M107.27,73.83c-.73,.49,1.37,4.91,2.91,7.68,.71,1.28,2.01,3.46,4.49,6.69,1.81,2.35,3.16,3.84,8.32,9.45,3.63,3.95,5.45,5.92,5.59,6.07,3.11,3.17,6.2,5.57,12.18,10.31,3.75,2.97,5.63,4.46,7.59,5.81,3.19,2.19,5.7,3.6,10.71,6.41,4.95,2.77,6.41,3.37,7.88,3.85,2.8,.91,5,1.18,7.12,1.43,2.48,.29,6.75,.62,12.97,0,6.4-.64,14.18-2.2,14.1-3.2-.04-.48-1.82-.27-4.62-1.25-3.12-1.09-3.56-2.29-8.22-5.55-2.21-1.55-1.45-.81-8.59-5.34-2.2-1.4-2.03-1.31-5.17-3.31-3.13-1.99-4.09-2.57-5.8-3.72,0,0-2.05-1.39-4.46-3.18-7.25-5.38-14.76-12.24-14.76-12.24-6.46-5.9-6.15-6.28-12.16-11.54-1.96-1.72-5.01-4.32-9.11-7.27-2.32-1.67-10.46-7.53-11.53-6.38-.3,.32,.06,1.08,.58,2.19,1.61,3.42,4.21,5.45,4.12,5.55-.13,.15-5.98-5.49-7.46-4.48-1.3,.89,1.62,6.38,.47,7.08-1.31,.81-6.22-5.72-7.17-5.08Z"/><path class="cls-8" d="M103.73,125.52c1.54-3.07,11.36,.92,29.54,2.89,22.26,2.4,24.31-1.77,37.26,2.62,6.26,2.12,10.07,4.55,19.16,6.29,8.17,1.57,14.85,1.21,14.92,2.21,.11,1.51-15.2,2.8-15.18,5.04,.02,1.5,6.91,2.84,12.23,3.2,8.24,.57,14.76-1.06,14.8-.82,.03,.15-2.73,.71-6.17,1.46-5.82,1.27-7.4,1.75-9.48,2.19-1.42,.3-3.48,.66-16.58,.82-9.65,.12-14.48,.22-17.41-.19-15.9-2.23-13.63-1.2-21.2-2.69-2.64-.52-10.65-2.17-20.64-5.67-8.54-2.99-11.84-4.99-14.63-7.44-1.06-.93-8.06-7.08-6.64-9.92Z"/><path class="cls-4" d="M137.69,143.17c-2.41,1.09-4.59,.87-5.5,.77-1.53-.17-5.28-.59-7.01-3.68-1.47-2.62-.48-5.39-.31-5.88,.75-2.1,2.71-4.65,4.72-4.54,1.17,.06,1.26,.96,2.99,1.39,1.7,.43,2.21-.3,4.16-.21,.58,.03,3.64,.17,5.2,2.37,1.21,1.72,.84,3.76,.76,4.22-.65,3.58-4.3,5.24-5.01,5.56Z"/><path class="cls-4" d="M119.47,139.35c-2.41,1.09-4.59,.87-5.5,.77-1.53-.17-5.28-.59-7.01-3.68-1.47-2.62-.48-5.39-.31-5.88,.75-2.1,2.71-4.65,4.72-4.54,1.17,.06,1.26,.96,2.99,1.39,1.7,.43,2.21-.3,4.16-.21,.58,.03,3.64,.17,5.2,2.37,1.21,1.72,.84,3.76,.76,4.22-.65,3.58-4.3,5.24-5.01,5.56Z"/><path class="cls-4" d="M155.84,146.45c-2.41,1.09-4.59,.87-5.5,.77-1.53-.17-5.28-.59-7.01-3.68-1.47-2.62-.48-5.39-.31-5.88,.75-2.1,2.71-4.65,4.72-4.54,1.17,.06,1.26,.96,2.99,1.39,1.7,.43,2.21-.3,4.16-.21,.58,.03,3.64,.17,5.2,2.37,1.21,1.72,.84,3.76,.76,4.22-.65,3.58-4.3,5.24-5.01,5.56Z"/><path class="cls-4" d="M174.13,148.58c-2.41,1.09-4.59,.87-5.5,.77-1.53-.17-5.28-.59-7.01-3.68-1.47-2.62-.48-5.39-.31-5.88,.75-2.1,2.71-4.65,4.72-4.54,1.17,.06,1.26,.96,2.99,1.39,1.7,.43,2.21-.3,4.16-.21,.58,.03,3.64,.17,5.2,2.37,1.21,1.72,.84,3.76,.76,4.22-.65,3.58-4.3,5.24-5.01,5.56Z"/><path class="cls-4" d="M192.4,150.28c-2.41,1.09-4.59,.87-5.5,.77-1.53-.17-5.28-.59-7.01-3.68-1.47-2.62-.48-5.39-.31-5.88,.75-2.1,2.71-4.65,4.72-4.54,1.17,.06,1.26,.96,2.99,1.39,1.7,.43,2.21-.3,4.16-.21,.58,.03,3.64,.17,5.2,2.37,1.21,1.72,.84,3.76,.76,4.22-.65,3.58-4.3,5.24-5.01,5.56Z"/><path class="cls-4" d="M196.91,114.74c-2.41,1.09-4.59,.87-5.5,.77-1.53-.17-5.28-.59-7.01-3.68-1.47-2.62-.48-5.39-.31-5.88,.75-2.1,2.71-4.65,4.72-4.54,1.17,.06,1.26,.96,2.99,1.39,1.7,.43,2.21-.3,4.16-.21,.58,.03,3.64,.17,5.2,2.37,1.21,1.72,.84,3.76,.76,4.22-.65,3.58-4.3,5.24-5.01,5.56Z"/><path class="cls-4" d="M209.85,115.58c2.44-1.02,4.61-.74,5.52-.62,1.52,.21,5.26,.74,6.9,3.88,1.39,2.66,.33,5.4,.14,5.89-.81,2.08-2.84,4.57-4.85,4.41-1.17-.09-1.23-.99-2.95-1.48-1.69-.47-2.22,.24-4.17,.09-.58-.04-3.64-.28-5.13-2.52-1.16-1.75-.73-3.78-.64-4.24,.75-3.56,4.45-5.12,5.16-5.42Z"/><path class="cls-9" d="M102.58,125.24c3.56-5.06,9.05-5.57,9.05-5.57,2.92-.27,3.24,.86,6.64,.36,2.33-.34,2.82-.96,4.89-.97,2.44,0,2.64,.86,5.34,1.25,3.82,.55,4.55-1.02,7.99-.32,2.74,.55,2.34,1.57,4.85,1.98,3.6,.6,4.66-1.45,8.31-.81,2.09,.37,2.16,1.11,4.56,1.62,2.65,.55,3.42-.34,6.11-.16,3.17,.21,3.02,1.37,6.32,1.9,4.13,.67,4.96-1.06,8.84-.28,2.74,.55,2.44,1.43,5.79,2.42,3.83,1.14,5.38,.33,8.88,.97,4.21,.77,3.57,2.39,8.39,3.8,3.97,1.16,4.5,.25,8.39,1.7,1.35,.5,3.46,1.41,5.79,2.42,2.28,.99,2.57,1.16,3.46,1.41,3.16,.92,5.12,.44,5.3,1.05,.17,.62-1.65,1.75-3.5,2.59-4.7,2.11-9.09,2.05-10.19,2.02-9.25-.23-14.44-2.09-24.86-3.48-5.07-.68-4.68-.39-10.84-1.21-6.86-.92-7.78-1.34-15.77-2.55-3.44-.52-7.59-1.05-15.89-2.1-1.19-.15-5.64-.72-11.74-1.46-13.73-1.67-20.61-2.5-21.64-2.22-.23,.06-2.54,.69-4.57-.24-.43-.19-.75-.42-.94-.77-.57-1.09,.54-2.67,1.02-3.35Z"/><path class="cls-9" d="M108.5,138.5c2.38,2.24,4.19,3.38,4.66,3.67,.79,.49,2.83,1.7,5.89,2.72,3.99,1.33,4.68,.66,10.12,1.88,3.37,.75,2.76,.93,7.67,2.13,5.1,1.24,4.96,.86,7.72,1.77,2.1,.69,3.11,1.22,5,1.25,1.85,.02,2.33-.47,4.07-.45,2.17,.02,2.77,.79,5.3,1.54,2.18,.65,2.16,.2,8.84,.84,2.18,.21,3.62,.35,5.6,.66,3.24,.51,3.96,.86,7.31,1.5,3.32,.63,5.21,.99,7.7,1.07,2.95,.09,5.01-.27,8.95-.95,5.25-.91,8.39-2.03,9.05-2.26,1.17-.42,2.65-.96,4.48-1.95,1.41-.76,1.34-.88,2.24-1.27,2.45-1.05,3.5-.39,4.82-1.43,1.04-.81,1.74-2.28,1.33-2.85-.41-.57-1.66,.09-5,.52-2.75,.35-2.97,.04-4.77,.47-1.9,.46-2.38,.98-4.18,1.65-2.25,.83-4.05,.97-6.3,1.13-3.8,.28-6.72-.18-9.39-.61-4.2-.68-4.95-1.3-9.14-1.72-.58-.06-.26-.02-4.45-.29-4.24-.28-6.37-.42-7.83-.57-1.66-.16-1.36-.17-6.94-.86-3.84-.48-5.75-.71-6.69-.79-5.03-.43-5.29-.01-7.83-.57-2.54-.55-2.3-.97-6.26-2.17-3.64-1.11-4.15-.86-7.26-1.86-2.95-.95-3.17-1.4-6.35-2.63-3.39-1.31-4.82-1.45-9.46-2.72-5.34-1.46-7.97-2.32-10.14-3.17-3.11-1.22-4.35-1.96-4.7-1.54-.71,.86,3.28,5.34,5.98,7.88Z"/><path class="cls-7" d="M118.22,69.97c3.32,5.31,3.97,7.11,3.58,7.42-.79,.62-5.66-4.98-7.07-4.05-1.29,.86,1.56,6.44,.47,7.08-1.21,.71-5.92-5.39-6.53-4.95-.55,.4,3.32,5.46,2.39,6.35-.71,.67-4.34-.82-5.12-3.3-.39-1.22,.03-2.29-.66-2.75-.89-.59-2.43,.62-2.63,.32-.18-.27,.77-1.58,2.03-1.74,.8-.1,1.12,.34,1.48,.12,.83-.5,.55-3.69-1.16-4.7-.79-.47-1.21-.07-2.07-.51-1.73-.89-1.3-3.14-2.27-3.56-2.13-.9-7.09,8.56-9.33,7.71-.85-.32-1.26-2.09-.88-3.32,.25-.81,.81-1.28,1.32-1.7,5.11-4.28,5.18-4.4,5.98-4.78,.92-.44,2.01-.74,4.19-1.34,3.2-.89,4.82-1.32,5.66-.71,1.18,.85,.52,2.45,2.23,3.87,.11,.09,.71,.59,1.63,.91,1.19,.42,2.15,.28,2.95,.24,1.8-.1,3.74,.18,4.78,.59,.83,.33,2.6,1.34,3.71,5.14"/><path class="cls-7" d="M109.04,122.82c5.91,2.15,7.55,3.17,7.43,3.65-.24,.97-7.55-.46-8.08,1.14-.48,1.47,5.24,4.12,4.78,5.29-.51,1.3-8.01-.62-8.22,.1-.18,.65,6.01,2.27,5.83,3.54-.14,.96-3.93,2-6.09,.53-1.06-.72-1.4-1.82-2.23-1.76-1.07,.08-1.53,1.98-1.88,1.86-.31-.1-.38-1.71,.52-2.61,.57-.57,1.09-.42,1.24-.81,.34-.9-1.86-3.24-3.84-3-.92,.11-.99,.69-1.95,.86-1.91,.35-2.98-1.68-4-1.41-2.24,.59-.26,11.07-2.55,11.77-.87,.27-2.29-.87-2.76-2.08-.3-.79-.15-1.5-.02-2.14,1.36-6.49,1.34-6.63,1.73-7.42,.45-.91,1.12-1.81,2.46-3.62,1.97-2.66,2.98-3.98,4.02-4.02,1.45-.05,1.93,1.61,4.17,1.69,.15,0,.93,.03,1.85-.28,1.2-.4,1.87-1.09,2.47-1.62,1.35-1.18,3.06-2.15,4.14-2.46,.86-.25,2.88-.53,6.12,1.77"/><path class="cls-4" d="M101.84,154.67c-2.01,1.71-2.72,3.77-3.01,4.63-.48,1.45-1.67,5.01,.44,7.85,1.79,2.42,4.74,2.69,5.26,2.74,2.24,.21,5.39-.49,6.14-2.35,.43-1.08-.35-1.54-.02-3.27,.32-1.71,1.2-1.87,1.93-3.66,.22-.53,1.37-3.35,0-5.67-1.07-1.81-3.09-2.33-3.54-2.45-3.56-.91-6.6,1.68-7.19,2.18Z"/><path class="cls-4" d="M101.65,146.52c-.26,2.61-1.55,4.37-2.1,5.1-.92,1.22-3.17,4.23-6.74,4.15-3.02-.06-4.94-2.3-5.28-2.69-1.46-1.7-2.69-4.66-1.58-6.33,.64-.97,1.47-.6,2.72-1.86,1.23-1.25,.85-2.05,1.91-3.67,.31-.48,1.98-3.04,4.68-3.26,2.11-.17,3.7,1.17,4.06,1.47,2.8,2.36,2.4,6.32,2.33,7.09Z"/><path class="cls-4" d="M96.7,170.91c-.26,2.61-1.55,4.37-2.1,5.1-.92,1.22-3.17,4.23-6.74,4.15-3.02-.06-4.94-2.3-5.28-2.69-1.46-1.7-2.69-4.66-1.58-6.33,.64-.97,1.47-.6,2.72-1.86,1.23-1.25,.85-2.05,1.91-3.67,.31-.48,1.98-3.04,4.68-3.26,2.11-.17,3.7,1.17,4.06,1.47,2.8,2.36,2.4,6.32,2.33,7.09Z"/><path class="cls-7" d="M168.54,97.4c-3.53,1.8-4.52,2.55-4.45,2.82,.14,.55,4.5-.95,4.81-.07,.28,.82-3.14,2.89-2.87,3.54,.3,.72,4.78-1.09,4.89-.69,.11,.37-3.59,1.88-3.49,2.61,.08,.55,2.33,.82,3.62-.24,.69-.56,1.26-1.14,1.34-1.24,.38-.53,.28-.62,.8-1.5,.09-.14,.93-1.54,1.58-1.54,.17,0,.29,.03,.29,.03,.3,.08,.42,.29,.87,.3,1.14,.03,1.78-1.26,2.39-1.19,1.33,.14,.09,6.48,1.46,6.69,.51,.08,1.37-.72,1.65-1.47,.19-.49,.1-.9,.02-1.26-.77-3.69-.76-3.78-.99-4.21-.26-.5-.66-.96-1.45-1.9-1.16-1.38-1.75-2.07-2.37-2-.86,.1-1.16,1.12-2.49,1.37-.09,.02-.55,.1-1.1,0-.71-.13-1.11-.47-1.46-.73-.8-.57-1.81-.98-2.45-1.07-.49-.06-1.76-.18-3.65,1.6"/><path class="cls-12" d="M116.95,123.88c-.05,1.06,5.79,2.23,9.8,2.59,3.34,.3,6.6,.14,6.63-.27,.06-.66-8.44-1.51-8.41-2.7,.02-.91,5.04-1.34,5.02-1.51-.04-.28-12.97,.32-13.04,1.89Z"/><path class="cls-12" d="M149.98,130.91c-.08,.44,3.72,.67,6.35,.64,2.19-.02,4.34-.22,4.38-.39,.07-.27-5.5-.26-5.43-.75,.05-.37,3.38-.76,3.37-.83-.01-.11-8.56,.67-8.68,1.32Z"/><path class="cls-12" d="M195.5,137.44c.26-1.03-5.24-3.32-9.09-4.46-3.21-.95-6.44-1.43-6.56-1.04-.19,.64,7.98,3.14,7.71,4.29-.2,.89-5.21,.33-5.22,.5-.02,.28,12.78,2.23,13.16,.7Z"/><path class="cls-12" d="M168.94,152.08c.23-.85-4.28-2.83-7.46-3.83-2.65-.83-5.31-1.28-5.41-.96-.17,.52,6.55,2.72,6.31,3.67-.18,.73-4.32,.19-4.33,.33-.02,.23,10.54,2.04,10.89,.79Z"/><path class="cls-13" d="M126.4,93.74c.81-.7-2.38-5.69-4.88-8.81-2.09-2.6-4.45-4.82-4.78-4.57-.53,.41,4.73,7.1,3.85,7.89-.68,.61-4.46-2.69-4.57-2.55-.18,.22,9.19,9.08,10.39,8.04Z"/><path class="cls-13" d="M151.46,103.26c.81-.7-2.38-5.69-4.88-8.81-2.09-2.6-4.45-4.82-4.78-4.57-.53,.41,4.73,7.1,3.85,7.89-.68,.61-4.46-2.69-4.57-2.55-.18,.22,9.19,9.08,10.39,8.04Z"/><path class="cls-13" d="M164.16,121.94c.4-.47-3.48-3.34-6.29-5.1-2.34-1.47-4.78-2.69-4.95-2.52-.27,.28,5.66,4.06,5.24,4.6-.33,.41-4.15-1.39-4.19-1.3-.07,.14,9.6,5.02,10.19,4.32Z"/><path class="cls-11" d="M114.11,112.48c-.39-.99-6.21,.28-10.02,1.56-3.18,1.06-6.09,2.51-5.96,2.9,.21,.63,8.34-2,8.79-.9,.35,.84-4.07,3.25-3.98,3.4,.15,.24,11.73-5.49,11.16-6.95Z"/><path class="cls-11" d="M138.87,114.5c-.27-1.02-4.85-1.31-7.86-1.09-2.51,.18-4.83,.79-4.74,1.18,.15,.64,6.57,.26,6.89,1.39,.25,.87-3.27,1.98-3.21,2.14,.11,.26,9.32-2.11,8.92-3.62Z"/></g><g><path class="cls-15" d="M276.13,29.09c-5.49,0-10.12-4.44-10.02-10.14,.09-5.37,4.53-9.86,10.24-9.75,5.41,.1,9.93,4.5,9.82,10.17-.11,5.39-4.55,9.73-10.04,9.72Zm4.54-7.97c.38-1.43,.45-2.87,.15-4.33-.33-1.6-1.06-3.01-2.1-4.28-.63-.77-1.34-1.47-2.18-2.02-.16-.1-.28-.1-.44,0-1.48,1.03-2.7,2.3-3.57,3.88-.9,1.63-1.22,3.38-.95,5.22,.19,1.28,.65,2.47,1.27,3.59,.14,.26,.29,.51,.44,.76l-.04,.03c-.27-.21-.56-.4-.82-.63-1.51-1.32-2.39-2.99-2.81-4.92-.05-.21-.06-.43-.12-.64-.03-.1-.12-.18-.19-.27-.08,.07-.17,.13-.24,.21-.04,.05-.05,.12-.08,.19-.53,1.6-.63,3.22-.22,4.86,.55,2.16,1.78,3.79,3.83,4.75,1.59,.74,3.28,.91,5.01,.65,2.51-.37,4.27-1.73,5.24-4.05,.62-1.46,.75-3,.52-4.57-.22-1.54-.78-2.94-1.67-4.22-.05-.07-.09-.14-.15-.19-.04-.03-.11-.06-.14-.05-.04,.02-.06,.09-.05,.14,0,.07,.03,.15,.04,.22,.06,.36,.13,.71,.17,1.07,.07,.61,.02,1.22-.07,1.82-.14,.96-.41,1.88-.83,2.76Z"/><g><path class="cls-15" d="M271.71,31.9c.31,0,.6,.03,.85,.08,.26,.05,.48,.14,.66,.25,.18,.12,.33,.27,.43,.47,.1,.2,.15,.44,.15,.72,0,.31-.07,.57-.22,.78-.15,.21-.37,.38-.67,.51,.4,.11,.71,.3,.9,.57,.2,.27,.3,.6,.3,.99,0,.31-.06,.58-.19,.81-.13,.23-.3,.41-.52,.56-.22,.14-.47,.25-.74,.32-.28,.07-.56,.1-.86,.1h-3.18v-6.15h3.09Zm-.18,2.49c.26,0,.47-.06,.63-.17,.17-.11,.25-.3,.25-.56,0-.14-.03-.26-.08-.35-.06-.09-.13-.16-.22-.22-.09-.05-.2-.09-.32-.11-.12-.02-.24-.03-.37-.03h-1.35v1.44h1.46Zm.08,2.61c.14,0,.28-.01,.4-.04s.24-.07,.34-.13,.18-.14,.23-.25,.09-.24,.09-.4c0-.32-.09-.54-.28-.68-.19-.13-.44-.2-.75-.2h-1.57v1.69h1.54Z"/><path class="cls-15" d="M276.53,31.9v6.15h-1.44v-6.15h1.44Z"/><path class="cls-15" d="M277.73,33.72c.15-.39,.36-.74,.63-1.03,.28-.29,.61-.52,1.01-.69,.4-.17,.85-.25,1.35-.25s.96,.08,1.36,.25c.4,.17,.73,.4,1.01,.69,.28,.29,.49,.64,.63,1.03,.15,.39,.22,.82,.22,1.28s-.07,.87-.22,1.25c-.15,.39-.36,.72-.63,1.01-.28,.29-.61,.51-1.01,.68-.4,.16-.85,.25-1.36,.25s-.95-.08-1.35-.25c-.4-.16-.74-.39-1.01-.68-.28-.29-.49-.62-.63-1.01-.15-.39-.22-.81-.22-1.25s.07-.89,.22-1.28Zm1.32,2.03c.06,.24,.17,.46,.31,.66,.14,.2,.32,.35,.55,.47,.23,.12,.5,.18,.83,.18s.6-.06,.83-.18c.23-.12,.41-.27,.55-.47,.14-.2,.24-.41,.31-.66s.1-.5,.1-.75-.03-.53-.1-.78c-.06-.25-.17-.48-.31-.68-.14-.2-.32-.36-.55-.47-.23-.12-.5-.18-.83-.18s-.6,.06-.83,.18c-.23,.12-.41,.28-.55,.47-.14,.2-.24,.42-.31,.68-.06,.25-.1,.51-.1,.78s.03,.51,.1,.75Z"/></g></g><g class="cls-3"><g><g><path class="cls-16" d="M-28.07,157.78c1.08-1.87,2.79-4.78,5.02-8.26,4.41-6.89,5.63-7.91,8.63-12.88,3.33-5.53,5.39-8.94,6.62-13.86,1.79-7.12,.74-12.96,1.05-12.98,.31-.01-.26,7.46,2.59,15.19,1.29,3.49,3.36,7.26,9.21,13.69,14.84,16.27,23.58,16.22,25.56,25.15,1.87,8.4-4.57,14.31-1.86,16.66,2.82,2.45,9.34-4.39,25.41-10.18,10.78-3.88,13.18-2.82,24.55-7.66,5.55-2.36,10.1-4.3,15.54-8.11,9.57-6.72,12.02-12.36,14.47-11.43,2.87,1.1-.19,9,.76,26.86,.41,7.67,1.32,12.86-.3,21.1-1.12,5.67-1.91,8.47-4.34,11.11-7.55,8.2-24.71,6.29-35.36,.29-3.31-1.87-6.46-4.39-6.61-4.2-.33,.43,18.79,9.02,21.68,24.07,1.1,5.74-.34,11.45,3.26,13.69,3.18,1.97,7.11-.73,7.7,.35,1.04,1.89-9.49,12.92-23.19,13.88-3.4,.24-5.89-.22-7.62-.52-28.05-4.79-40.96,2.43-48.98-6.05-6.13-6.48-3.9-16.79-7.17-17.03-2.74-.2-3.11,7.09-9.92,12.89-7.36,6.27-16.85,6.22-19.54,6.21-2.58-.01-11.23-.18-19.42-6.35-1.26-.95-2.22-1.84-3.02-2.74-4.39-4.95-6.66-9.48-7.3-10.87-5.44-11.81-22.66-24.8-21.81-25.74,.34-.37,2.68,1.97,7.7,4.52,2.88,1.46,10,4.97,19.11,4.75,2.89-.07,6.11-.15,8.63-1.35,8.02-3.8,10.54-19.61,6.86-38.56"/><path class="cls-6" d="M-.03,207.77c-6.71,1.68-7.19,5.97-13.88,8.85-1.4,.6-6.68,2.79-13.1,1.34-5.3-1.2-8.51-4.36-11.38-7.17-2.08-2.03-4.65-5.57-6.51-11.03-3.27-9.59-1.55-17.82-.14-27.54,3.59-24.88,2.48-41.88,4.55-41.93,.58-.01,.36,1.31,2.09,4,2.72,4.21,7.11,6.83,12.94,10.46,.18,.11,.3,.18,3.51,2.17,1.41,.88,3.45,2.14,6.52,4.03,13.14,8.1,12.87,7.79,13.87,8.63,3.02,2.54,7.67,6.46,10.33,13.29,.9,2.31,4.17,10.74,.71,18.63-2.46,5.59-7.3,8.62-6.02,11.03,.8,1.51,3.21,1.64,3.42,1.65,3.97,.14,6.91-4.73,8.77-7.81,1.63-2.7,3.05-5.11,3.32-8.43,.33-4.1-1.48-5.84-4.25-12.3-2.95-6.9-4.9-11.45-4.38-16.71,.65-6.57,4.87-11.11,6.11-12.44,4.25-4.57,9.14-6.61,20.08-9.59,13.8-3.76,25.31-5.84,39.98-7.75,16.32-2.12,20.47-1.91,21.03-.43,.81,2.13-7.16,4.17-12.99,12.6-6.01,8.69-6.07,18.87-6.1,23.85-.07,10.29,2.89,11.02,1.61,18.17-.25,1.38-2.7,13.24-13.77,19.66-.98,.57-9.6,5.41-18.69,2.79-2.65-.76-4.92-2.26-9.48-5.26-9.37-6.17-10.37-9.12-13.73-8.74-2.78,.32-5.12,3.35-9.8,9.4-2.1,2.71-3.84,5-3.22,5.8,.64,.83,3.69-1.58,9.67-3.24,1.6-.45,4.83-1.35,8.27-1.33,2.46,.01,6.31,.5,12.49,4.08,3.8,2.2,9.49,6.15,16.21,14.32,1.81,2.2,2.93,3.84,4.81,6.59,10.68,15.6,10.96,21.36,18.3,25.63,4.48,2.61,7.99,2.58,7.91,3.36-.11,1.18-14.48-.65-33.23,.59-11.06,.73-16.68,2.35-28.15,1.24-5.04-.49-9.72-.97-15.57-3.13-6.03-2.22-11.19-4.12-14.52-9.36-3.13-4.92-3.76-11.39-2.01-16.53,.58-1.69,3.05-5.32,7.99-12.58,3.34-4.91,4.86-6.95,4.07-8.29-1.26-2.13-7.32-.66-7.64-.58Z"/><path class="cls-5" d="M-38.91,134.24c-.16,.19,1.32,1.66,3.12,3.48,11.18,11.32,9.41,10.84,13.2,13.89,5.58,4.49,8.37,5.19,12.77,10.34,.74,.86,1.41,1.86,2.08,3.15,4.17,7.98,2.15,16.41,1.86,17.55-.43,1.68-1.26,4.82-3.68,8.05-5.47,7.28-12.8,6.65-13.33,10.73-.43,3.27,3.88,6.71,7.09,8.07,.76,.32,4.05,1.65,7.91,.68,.89-.23,5.32-1.34,7.39-4.81,.53-.89,1.21-2.45,2.18-2.43,.45,0,.57,.35,1.27,.73,1.54,.84,3.28,.5,3.29,.36,.01-.13-1.4-.05-2.28-1.04-.12-.14-.51-.59-.58-1.27-.02-.23-.01-.57,.18-1.09,.4-1.06,1.19-1.69,1.3-1.79,1.46-1.2,5.12-6.58,6.12-10.13,1.57-5.61,.37-10.41-.32-13.02-.36-1.38-1.74-6.17-5.76-11.18-1.9-2.37-4.03-4.33-11.63-9.29-6.85-4.47-14.09-8.43-18.9-11.66-7.74-5.19-12.96-9.65-13.26-9.3Z"/><path class="cls-5" d="M5.7,207.03c-.6-1.02-.08-2.91,.85-3.2,1.31-.41,2.44,2.71,5.08,2.78,.89,.02,1.53-.32,2.14-.62,0,0,.84-.42,8.33-2.98,3.93-1.35,7.49-.95,9.77-.7,8.66,.96,14.43,6.63,15.9,8.16,8.09,8.45,7.62,19.03,7.52,21.33-.2,4.39-.52,11.65-5.89,15.25-5.82,3.9-13.65,.86-14.24,.62-6.34-2.57-5.86-6.96-14.12-11.34-3.6-1.91-6.58-3.49-10.09-2.76-4.48,.94-5.85,4.81-9.82,4.67-2.08-.07-4.92-1.25-6-3.39-3.71-7.38,14.41-24.67,12.15-26.87-.36-.35-1.15-.24-1.58-.97Z"/><path class="cls-5" d="M16.49,180.39c-1.16-1.87-6.8-10.95-6.53-19.42,.31-9.69,8.29-16.25,8.86-16.7,2.5-2,4.99-3.1,8.33-4.47,1.27-.52,3.66-1.46,11.93-3.57,9.06-2.32,15.36-3.55,16.85-3.84,2.82-.54,4.72-.86,8.42-1.48,11.98-2.01,17.4-2.56,21.45-2.84,6.91-.49,11.26-.77,11.74,.66,.55,1.61-4.15,4.48-7.4,6.51-16.27,10.21-28.17,17.68-35.56,28.13-2.6,3.68-9.58,13.55-6.19,20.7,2.03,4.29,6.43,4.72,9.11,11.07,.17,.39,3.33,8.11,.11,11.01-2.08,1.87-5.81,.82-9.12-.12-5.36-1.52-9.55-4.67-14.69-8.53-3.59-2.7-3.71-3.14-5.07-3.44-4.69-1.05-10.8,2.54-14.12,7.14-2.36,3.27-2.7,6.2-4.52,6.27-1.53,.06-3.3-1.94-2.98-3.04,.21-.72,1.28-.89,2.22-1.21,2.59-.91,3.91-3.02,6-6.37,1.81-2.88,4.13-6.59,3.54-10.95-.33-2.45-1.43-4-2.36-5.49Z"/></g><g><path class="cls-17" d="M59.95,251.66c-.17,.47-7.25-.8-14.93-4.03-22.97-9.67-35.36-30.26-35.04-30.53,.22-.19,6.58,10.21,21.16,20.2,14.79,10.14,29.05,13.69,28.81,14.36Z"/><path class="cls-17" d="M27.76,181.92c-.35-.29,6.71-10.97,17.68-21.62,17.36-16.85,35.62-25.02,35.89-24.59,.24,.37-12.88,6.99-29.39,21.49-15.16,13.32-23.8,25.03-24.18,24.71Z"/></g></g><g><g><path class="cls-16" d="M333.79,156.43c-1.08-1.87-2.79-4.78-5.02-8.26-4.41-6.89-5.63-7.91-8.63-12.88-3.33-5.53-5.39-8.94-6.62-13.86-1.79-7.12-.74-12.96-1.05-12.98-.31-.01,.26,7.46-2.59,15.19-1.29,3.49-3.36,7.26-9.21,13.69-14.84,16.27-23.58,16.22-25.56,25.15-1.87,8.4,4.57,14.31,1.86,16.66-2.82,2.45-9.34-4.39-25.41-10.18-10.78-3.88-13.18-2.82-24.55-7.66-5.55-2.36-10.1-4.3-15.54-8.11-9.57-6.72-12.02-12.36-14.47-11.43-2.87,1.1,.19,9-.76,26.86-.41,7.67-1.32,12.86,.3,21.1,1.12,5.67,1.91,8.47,4.34,11.11,7.55,8.2,24.71,6.29,35.36,.29,3.31-1.87,6.46-4.39,6.61-4.2,.33,.43-18.79,9.02-21.68,24.07-1.1,5.74,.34,11.45-3.26,13.69-3.18,1.97-7.11-.73-7.7,.35-1.04,1.89,9.49,12.92,23.19,13.88,3.4,.24,5.89-.22,7.62-.52,28.05-4.79,40.96,2.43,48.98-6.05,6.13-6.48,3.9-16.79,7.17-17.03,2.74-.2,3.11,7.09,9.92,12.89,7.36,6.27,16.85,6.22,19.54,6.21,2.58-.01,11.23-.18,19.42-6.35,1.26-.95,2.22-1.84,3.02-2.74,4.39-4.95,6.66-9.48,7.3-10.87,5.44-11.81,22.66-24.8,21.81-25.74-.34-.37-2.68,1.97-7.7,4.52-2.88,1.46-10,4.97-19.11,4.75-2.89-.07-6.11-.15-8.63-1.35-8.02-3.8-10.54-19.61-6.86-38.56"/><path class="cls-6" d="M305.75,206.42c6.71,1.68,7.19,5.97,13.88,8.85,1.4,.6,6.68,2.79,13.1,1.34,5.3-1.2,8.51-4.36,11.38-7.17,2.08-2.03,4.65-5.57,6.51-11.03,3.27-9.59,1.55-17.82,.14-27.54-3.59-24.88-2.48-41.88-4.55-41.93-.58-.01-.36,1.31-2.09,4-2.72,4.21-7.11,6.83-12.94,10.46-.18,.11-.3,.18-3.51,2.17-1.41,.88-3.45,2.14-6.52,4.03-13.14,8.1-12.87,7.79-13.87,8.63-3.02,2.54-7.67,6.46-10.33,13.29-.9,2.31-4.17,10.74-.71,18.63,2.46,5.59,7.3,8.62,6.02,11.03-.8,1.51-3.21,1.64-3.42,1.65-3.97,.14-6.91-4.73-8.77-7.81-1.63-2.7-3.05-5.11-3.32-8.43-.33-4.1,1.48-5.84,4.25-12.3,2.95-6.9,4.9-11.45,4.38-16.71-.65-6.57-4.87-11.11-6.11-12.44-4.25-4.57-9.14-6.61-20.08-9.59-13.8-3.76-25.31-5.84-39.98-7.75-16.32-2.12-20.47-1.91-21.03-.43-.81,2.13,7.16,4.17,12.99,12.6,6.01,8.69,6.07,18.87,6.1,23.85,.07,10.29-2.89,11.02-1.61,18.17,.25,1.38,2.7,13.24,13.77,19.66,.98,.57,9.6,5.41,18.69,2.79,2.65-.76,4.92-2.26,9.48-5.26,9.37-6.17,10.37-9.12,13.73-8.74,2.78,.32,5.12,3.35,9.8,9.4,2.1,2.71,3.84,5,3.22,5.8-.64,.83-3.69-1.58-9.67-3.24-1.6-.45-4.83-1.35-8.27-1.33-2.46,.01-6.31,.5-12.49,4.08-3.8,2.2-9.49,6.15-16.21,14.32-1.81,2.2-2.93,3.84-4.81,6.59-10.68,15.6-10.96,21.36-18.3,25.63-4.48,2.61-7.99,2.58-7.91,3.36,.11,1.18,14.48-.65,33.23,.59,11.06,.73,16.68,2.35,28.15,1.24,5.04-.49,9.72-.97,15.57-3.13,6.03-2.22,11.19-4.12,14.52-9.36,3.13-4.92,3.76-11.39,2.01-16.53-.58-1.69-3.05-5.32-7.99-12.58-3.34-4.91-4.86-6.95-4.07-8.29,1.26-2.13,7.32-.66,7.64-.58Z"/><path class="cls-5" d="M344.63,132.88c.16,.19-1.32,1.66-3.12,3.48-11.18,11.32-9.41,10.84-13.2,13.89-5.58,4.49-8.37,5.19-12.77,10.34-.74,.86-1.41,1.86-2.08,3.15-4.17,7.98-2.15,16.41-1.86,17.55,.43,1.68,1.26,4.82,3.68,8.05,5.47,7.28,12.8,6.65,13.33,10.73,.43,3.27-3.88,6.71-7.09,8.07-.76,.32-4.05,1.65-7.91,.68-.89-.23-5.32-1.34-7.39-4.81-.53-.89-1.21-2.45-2.18-2.43-.45,0-.57,.35-1.27,.73-1.54,.84-3.28,.5-3.29,.36-.01-.13,1.4-.05,2.28-1.04,.12-.14,.51-.59,.58-1.27,.02-.23,.01-.57-.18-1.09-.4-1.06-1.19-1.69-1.3-1.79-1.46-1.2-5.12-6.58-6.12-10.13-1.57-5.61-.37-10.41,.32-13.02,.36-1.38,1.74-6.17,5.76-11.18,1.9-2.37,4.03-4.33,11.63-9.29,6.85-4.47,14.09-8.43,18.9-11.66,7.74-5.19,12.96-9.65,13.26-9.3Z"/><path class="cls-5" d="M300.02,205.68c.6-1.02,.08-2.91-.85-3.2-1.31-.41-2.44,2.71-5.08,2.78-.89,.02-1.53-.32-2.14-.62,0,0-.84-.42-8.33-2.98-3.93-1.35-7.49-.95-9.77-.7-8.66,.96-14.43,6.63-15.9,8.16-8.09,8.45-7.62,19.03-7.52,21.33,.2,4.39,.52,11.65,5.89,15.25,5.82,3.9,13.65,.86,14.24,.62,6.34-2.57,5.86-6.96,14.12-11.34,3.6-1.91,6.58-3.49,10.09-2.76,4.48,.94,5.85,4.81,9.82,4.67,2.08-.07,4.92-1.25,6-3.39,3.71-7.38-14.41-24.67-12.15-26.87,.36-.35,1.15-.24,1.58-.97Z"/><path class="cls-5" d="M289.23,179.04c1.16-1.87,6.8-10.95,6.53-19.42-.31-9.69-8.29-16.25-8.86-16.7-2.5-2-4.99-3.1-8.33-4.47-1.27-.52-3.66-1.46-11.93-3.57-9.06-2.32-15.36-3.55-16.85-3.84-2.82-.54-4.72-.86-8.42-1.48-11.98-2.01-17.4-2.56-21.45-2.84-6.91-.49-11.26-.77-11.74,.66-.55,1.61,4.15,4.48,7.4,6.51,16.27,10.21,28.17,17.68,35.56,28.13,2.6,3.68,9.58,13.55,6.19,20.7-2.03,4.29-6.43,4.72-9.11,11.07-.17,.39-3.33,8.11-.11,11.01,2.08,1.87,5.81,.82,9.12-.12,5.36-1.52,9.55-4.67,14.69-8.53,3.59-2.7,3.71-3.14,5.07-3.44,4.69-1.05,10.8,2.54,14.12,7.14,2.36,3.27,2.7,6.2,4.52,6.27,1.53,.06,3.3-1.94,2.98-3.04-.21-.72-1.28-.89-2.22-1.21-2.59-.91-3.91-3.02-6-6.37-1.81-2.88-4.13-6.59-3.54-10.95,.33-2.45,1.43-4,2.36-5.49Z"/></g><g><path class="cls-17" d="M245.77,250.31c.17,.47,7.25-.8,14.93-4.03,22.97-9.67,35.36-30.26,35.04-30.53-.22-.19-6.58,10.21-21.16,20.2-14.79,10.14-29.05,13.69-28.81,14.36Z"/><path class="cls-17" d="M277.96,180.57c.35-.29-6.71-10.97-17.68-21.62-17.36-16.85-35.62-25.02-35.89-24.59-.24,.37,12.88,6.99,29.39,21.49,15.16,13.32,23.8,25.03,24.18,24.71Z"/></g></g></g><text class="cls-21" transform="translate(106.81 35.68)"><tspan x="0" y="0">SEMENCE</tspan></text><text class="cls-21" transform="translate(106.65 58.81)"><tspan x="0" y="0">DE PAYS</tspan></text><path class="cls-14" d="M87.04,40.58c4.78-.42,9.57-.71,14.35-1.01,9.04,0,33.69,0,43.06,0,9.45,0,33.91,0,43.06,0,4.78,.34,9.57,.59,14.35,1-4.78,.41-9.57,.66-14.35,1-9.04,0-33.69,0-43.06,0-9.45,0-33.91,0-43.06,0-4.78-.29-9.57-.59-14.35-1.01h0Z"/><text class="cls-20" transform="translate(112.93 203.49)"><tspan x="0" y="0">Curcubitacées</tspan></text><text class="cls-2" transform="translate(97.69 217.63)"><tspan x="0" y="0">POTIMARRON FRANCAIS</tspan></text><text class="cls-2" transform="translate(105.54 227.4)"><tspan x="0" y="0">CUCURBI</tspan><tspan class="cls-19" x="34.07" y="0">T</tspan><tspan x="38.12" y="0">A MAXIMA</tspan></text></g></g></svg>