<svg xmlns="http://www.w3.org/2000/svg" viewBox="0 0 228.57 714.84"><defs><style>.cls-1{opacity:0.4;}.cls-2{fill:#702a2c;}</style></defs><g id="Calque_2" data-name="Calque 2"><g id="Calque_1-2" data-name="Calque 1"><g class="cls-1"><path class="cls-2" d="M135.46,6.08c.17-.57.27-1.6.52-1.63,4.34-.64,8.7-1.16,13.06-1.69.36,0,.84.14,1.07,0,4.39-3.43,9.16-.31,13.72-.69,1.74-.14,3.59,1.18,5,2.54,1.65-.47,3.3-1,5-1.4a12.14,12.14,0,0,0,3-.82C182-.75,187.2-.43,192.66,1.27a23.92,23.92,0,0,0,6.63,1c4.92.08,9.9-.58,14.74,0,2.81.35,5.4,2.55,8.51,4.14l3.8-3.67a7.9,7.9,0,0,1,1,2.29Q228,17,228.57,28.92a6.15,6.15,0,0,1-.59,2.42c-2.23,5.41-4.79,10.71-6.65,16.24-1.38,4.11-1.27,8.76-2.9,12.73-2.84,6.9-6.56,13.43-9.81,20.17-1.16,2.41-2.87,4.57-1.45,7.81.75,1.72.16,4.43-.65,6.35-2.53,6-3,12.12-2.46,18.55.38,4.73-.27,9.52-.23,14.29.08,8.3.33,16.6.52,24.9.24,10.8.41,21.6.76,32.4.14,4.28,1.06,8.57.92,12.83-.42,13.52-1.54,27-1.69,40.54-.17,15.32-5.16,29.52-9.34,43.86-2.75,9.45-7.22,18.39-10.67,27.65-3.54,9.49-6.74,19.12-10.15,28.67-2.25,6.31-4.52,12.62-7,18.86-.53,1.36-1.83,2.41-2.77,3.59,1.89-5.41,3.67-10.86,5.68-16.22,3.24-8.66,6.9-17.18,9.85-25.95,1.52-4.5,1.81-9.42,2.82-14.11.57-2.69-.15-6.07,3.65-7.29.6-.19.87-1.6,1.19-2.48,1.35-3.68,2.91-7.31,3.94-11.08,1.56-5.75,2.76-11.61,4.11-17.43l-2.08-.48c-.25,1.12-.5,2.24-.86,3.89-1,.42-2.52,1.08-4.6,2,1.6-2.65,2.79-4.6,4.22-7-4,.8-4.61,3.38-5.07,6.15s-2.11,2.56-4.13,1.47c4.47,0,3-3.25,3.19-5.66l-2.08.19c.21-1,.39-1.81.61-2.86-3.5,1.66-3.68,3.63-1.45,5.25l-2.06,5c-2-.88-4.41-1.78-3.92,3.1l8.83-2.48.61.76-5.34,4.28-.67.42c-4,1,.34,4.32-1.58,5.85l-5.23-.82-.41,1.38,3.67,1.28c-.18,3-.35,5.94-.56,9.51l-4-4.62c-.78,3.7-1.48,7-2.25,10.6l-2.79-1.66a6.38,6.38,0,0,1-.65,1.2c-.86.91-1.76,1.78-2.65,2.66-.58-1.08-1.54-2.13-1.66-3.26-.43-4.13-.52-8.29-.85-12.42-.24-3,.3-6.65-1.19-8.9a13,13,0,0,1-2-10.9c.88-4.16-.75-7.73-3.61-9.33,1.06,8.84,2.25,17.38,3.08,25.95.71,7.34,2.14,14.87,1.18,22-.87,6.5-4.55,12.61-6.94,18.91-.63,1.66-1.06,3.39-1.62,5.07-1.07,3.19-2.17,6.37-3.26,9.55-1.37,2.49-2.92,4.89-4.08,7.47-2.79,6.23-5.41,12.53-8.06,18.82-.69,1.62-1.28,3.29-1.91,4.94,2.57-2.81,4.73-5.55,6.85-8.33.15-.2-.16-.71-.06-1,.86-2.86,1.72-5.73,2.66-8.57,1.48-4.47,3-8.92,4.52-13.38.66-.7,1.69-1.3,1.92-2.12,2.78-10,9.82-18.46,11.1-29.11.17-1.38,1.69-2.59,2.59-3.88l1.49.63-2.54,11.49c-3.44,1.57-3.75,2-3.49,5.83,4.59,1.54,3.45-5.76,8-4.89-.72,1.85-1.4,3.58-2.2,5.6l4.89,4.21-2.44,1.9,3,2.44c-1.49,1.35-2.66,2.41-3.87,3.49,1.81,4.11,1.81,4.11-3.86,4.39-.88,3.05-1.75,6.1-2.82,9.84,2.24,2.59-1.44,3.26-3.2,4.58.67,1.39,1.8,2.62,1.68,3.72a18,18,0,0,1-1.87,6.13c-.85,1.65-2.34,3-3.52,4.47a2.21,2.21,0,0,0-.19.74l2.18,1.59-5,4.43,2.2,3-3.11,3.5,3.73.38-9.54,3.83c1.47,1.55,3.33,2.66,3.7,4.14s2.31,4.55-1.83,4.34c.23,1.58.41,2.8.59,4.06l-6.26.14c4.41,2.09,6.33,4.93,4.68,9.66-.2.58.4,1.39.45,2.11a18.83,18.83,0,0,1-.11,2.52l1.29.21c.09,4.06,1.06,8,0,11.24s-2.64,6.14-2.8,8.62l-5.06.12c.69,1.9,1.09,3,1.48,4.08l.46-.89,8.37,2.37a3.16,3.16,0,0,0,.61-1.45c.22-3.27,0-6.62.5-9.83,1.27-7.43-1.47-14.44-2.1-21.66-.2-2.38.1-3.64,1.52-5.33a13.46,13.46,0,0,0,2.68-5.32c.86-3.5.57-7.38,4.16-9.89l-2.18-3.46,2.05.47c0-1.4-.56-2.94,0-3.63,3.89-4.88,4.32-10.94,6.18-16.52.49-1.48,2.22-2.55,3.39-3.81-2,7.05-4.26,14-6,21.15a219.44,219.44,0,0,0-4.78,22.75c-.69,4.92.07,10,.11,15.07.05,5.31.24,10.63-.07,15.93-.28,4.56-.59,9,1.52,13.28a7.48,7.48,0,0,1,.61,2.83c.94,13.92,1.72,27.85,2.82,41.76.44,5.57,1.54,11.1,2.36,16.64a15.72,15.72,0,0,1,.48,2.15c-.22,14,5.86,26.54,8.86,39.78,2.76,12.16,7,24,10.48,36a16.57,16.57,0,0,1,.35,2.85l.1-.07-2.36-3.22-2.58,2.13c.92,4.34,1.75,8.23,2.53,11.92l2.63-1.15-.1-.06c.75,2.22,2.37,4.75-2.9,5.18l6.65,2.73a40.52,40.52,0,0,0-5.17,2.23c-.21.12.45,1.77.61,2.36-.76,1-1.51,2.09-2.26,3.13l1.17,1.08,4.61-4.59c1,3.52.79,5.88-5.18,6.06a25,25,0,0,0,.14,4.24c.39,2,2.06,4.09-.8,5.73a8.26,8.26,0,0,0,1.38,3.19,8.63,8.63,0,0,0,2.44,1.62l-2.33,3.78,1.09.68,4.21-6.83,3.25,1.38-.41-17.93c4.85,3.25,2.67,49.68-2.08,54.31-.22-1.72-.45-3-.54-4.37-.19-2.84-.38-5.68-.4-8.52,0-.54.79-1.08,1.1-1.47l-2.6-5.21c4.1-1,4.3-3.4,2.4-6.64L188,641.4c-.71-2.47-1.37-4.8-2.31-8.1-1.82,3.11,0,6-2.68,7.43a1.09,1.09,0,0,0-.2,1c2.13,2.38,1.13,5,.73,7.63l-3.15.07-.44,1,3.16,2.51-7.14,1.51-.11,1c3.67-.22,6.82.26,6.94,4.69l-3.47-1.6c-.76,5.18-.76,5.18-6.57,9.26l4.74.72c.1.55.31,1.76.53,3l-.33,1.2,5.91,4.1,0-.06-6.15,2.45,4.31,1.19-3,2.81,2.89,1.4c-4.48.27-1.77,2.07-.66,4.37l-2.45-2.21a40.46,40.46,0,0,0-4.5,4.09,4.15,4.15,0,0,0-.47,3.07,21.44,21.44,0,0,0,1.6,3.91l-1,.64-3.64-.89c.28,3.54,11.55,11.78,14.42,10.6,1.58,5.26.75,6.75-4.62,6.71-6.56-.06-13.12-.6-19.67-1.06-2.6-.19-10.28-7.62-10.86-10.23-.1-.47-.36-1-.23-1.4,1.56-5,3.1-10,4.81-14.92,1.64-4.71,3.72-9.28,5.08-14.06.45-1.6-.16-4.65-1.29-5.3-2.22-1.29-3.39.9-4.46,2.9-2.35,4.37-3.31,8.93-4.09,13.84-.74,4.7-3.78,9.06-6,13.45-.41.79-1.9,1-2.89,1.53-.21-1-.41-2-.65-2.92a15,15,0,0,0-.54-1.45c-3.84-.08-4.2,2.34-4,5.18-.4-1.33-.76-2.67-1.22-4-.61-1.68-1.31-3.33-2-5l-1,.35,1.87,8.63,2.3,0A13.83,13.83,0,0,1,138,702.6a32,32,0,0,1,2.13,4.45l2.45-5.61a29.68,29.68,0,0,1,2.18,4.81,36.59,36.59,0,0,1,.54,5.37c-2.25.64-4.69,1.37-7.14,2-5.29,1.46-10.61.63-16,.41-6.82-.28-13.68.17-20.52.27-1.84,0-3.67-.15-5.51-.18-4,0-5.56-2.39-6.91-5.91-3.16-8.19-6.82-16.2-10.43-24.21-.4-.89-1.81-1.32-2.76-2-.65,1-1.87,2.11-1.86,3.15.06,6.29.36,12.58.64,18.86.12,2.68.39,5.36.64,8.73l-2.3-1.28c-3.34.66-6.07,2-8.44,1.54-9.92-2-19.47,2-29.26,1.31-4.72-.33-9.44-.77-14.17-1.06a19.07,19.07,0,0,0-4.19.34c-1.61.26-3.2.7-4.51,1,.64-3.95,1.87-7.67,1.68-11.32-.31-6.23-1.45-12.42-2.37-18.61-.77-5.18-1.44-10.4-2.67-15.48s-3.28-9.91-4.57-15C3.87,651,3.83,647.45,3.28,644c-1.93-12.11,0-24.19.14-36.28.07-7.91,0-15.82.07-23.73.12-8.14.51-16.27.61-24.41C4.19,552.7,4,545.79,4,538.89q-.14-14.64-.29-29.27c-.05-4.7,1.17-10-.57-13.95-2.09-4.73.23-8.86-.6-13.27s-.16-9.16-.35-13.75C1.61,455.46.66,442.29.41,429.1c-.28-14.65.09-29.32.06-44,0-6.85-.35-13.69-.47-20.53a6.82,6.82,0,0,1,.56-2.86C5.28,351.14,6.13,340,5.93,328.54c-.19-11.23.63-22.49.35-33.73C6.16,290.08,6,285.59,7.37,281c.63-2.12-.48-4.73-.66-7.13-.79-10.74.21-21.4,1.49-32,.64-5.41.66-10.89,1.13-16.32,1-11.41,2.1-22.81,3-34.23.45-5.47.43-11,.91-16.46.61-7,1.76-14,2.21-21,.49-7.61,2.13-15.72.2-22.76-2.36-8.57-2.67-17-3.37-25.61-.38-4.63.92-8.68,2.68-12.75,2.54-5.9,5.37-11.59,5.59-18.33.11-3.56,2.08-7,3.16-10.58.53-1.75,1-3.52,1.37-5.31,2-9.79,4-19.57,5.82-29.4.63-3.45.48-7,.93-10.53.25-1.87,1.13-3.66,1.49-5.53a24.26,24.26,0,0,0,.15-4.1c0-1.27-.44-3,.21-3.7.79-.9,3.06-1.76,3.71-1.28,3,2.14,6.17.75,8.76.3,8.12-1.39,16.19.12,24.25-.5a77.21,77.21,0,0,1,9.74,0c2.43.11,5.37-.19,7.13,1.05,3.35,2.36,6.18,1.4,9.72.91,8.91-1.23,18-3.56,27,.06,1.36.54,3.29-.37,5-.23-3.51,2.59-7.12,4.71-11.76,4.23l.31,1.57a50,50,0,0,0,7.29-1.21C128.51,8.92,132,7.35,135.58,6c-1.83,3-4.1,5.33-7.93,5.5,4.61,1.39,7-2.47,10.71-4.43ZM74,81.73a14.58,14.58,0,0,0-3.75.12c-2.17.64-4.24,1.61-6.62,2.56.1.93.24,2.35.37,3.64l5.36-4.64.45.48-1.15,2.19.84.61,4.56-5.07.12,5.57c2.86-2.5,4.83-4.78,7.17-1.75.58-1.67,1.15-3.3,1.79-5.12l-1.53.2C79.07,80.92,76.54,81.31,74,81.73ZM16.18,213.26l1-3.85-1.11-.79,7.36-3.47-.95-3.4c-.76.94-1.16,2-1.77,2.13-3.84.86-7.07,4.24-7.06,8,0,.47,1.56.92,2.4,1.38-1.7,1.52-4.94,2.56-1.77,5.65.09.08-.47,1-.51,1-2.15-.83-1.54.42-1,1.42s1.15,1.9,2,3.31c.46-1.93.35-4,1.33-5C18.23,217.3,16.41,215.35,16.18,213.26ZM89.34,689.49q.82-5.43,1.64-10.86l-.8-.27q-1.56,5.16-3.13,10.31l2.41.69c-.16,1.74-.31,3.47-.47,5.18A27.64,27.64,0,0,0,92,697a15.6,15.6,0,0,0,3,1.09l.13,1.75c3.45-1.89,1.6-3.64.59-5.47a33.82,33.82,0,0,1-1.6-3.87l1.27-.52,2.38,4.12,1.19-.43a23.48,23.48,0,0,0-1.33-3.92,34.5,34.5,0,0,0-2.93-4.14c-.51-.66-1.12-1.24-1.69-1.86A25.74,25.74,0,0,0,91.23,686C90.54,687.12,90,688.31,89.34,689.49Zm59.52-205.18a12.13,12.13,0,0,0,2.46-7.54c0-3.49-2.42-7.72-4.66-7.72-2.67,0-5.34.1-8,.16.21,4.3,2.48,5,7.08,2.68,2.56,2.85-.41,4.81-.78,7.48,1.13-1.06,2.26-2.12,3.36-3.17l1.18,1.27-6.74,4.94a11.54,11.54,0,0,1,2.56.28,36.07,36.07,0,0,1,3.61,1.6c-.09,1.89-.19,3.79-.25,5.69-.07,2.19-.11,4.37-.16,6.56-.16.86-.21,1.76-.29,2.66-.13,1.6-.28,3.19-.42,4.79l-.9.14c-.72-1.11-1.44-2.22-2.18-3.34-4.48,2.41-1.32,6.69-3.16,9.72l.92.35,2.34-2.79c.56,1.3,1,2.3,1.45,3.39l6.68-6.65.13,5.62c3-2.05,2.9-3.71,1.13-6.66-1.34-2.23-3.17-5.86-2.27-7.36,1.55-2.59.85-4.54.44-6.79-.34-1.92-.91-3.81-1.43-5.93Zm-39.48-94.14-1-.73c-.55.87-1.49,1.71-1.57,2.63-.72,8.51-1.47,17-1.85,25.55-.3,6.68-1.17,13.62.23,20a51,51,0,0,1,1.32,15c-.25,3.57.63,7.29,1.44,10.85,1.49,6.6,3.38,13.11,5,19.69.77,3.19,1,6.5,1.82,9.7,1.16,4.8,3.05,9.4,2.15,14.59-.41,2.31.39,4.82.53,7.24.15,2.61.85,5.46.08,7.79-1.19,3.53-.38,6.55,1,9.52.54,1.19,2.37,2.8,3.29,2.61,3.21-.63,4.06,1.43,4.56,3.53,1.1,4.6,2.39,9.26,2.61,13.94.39,8.13.25,16.31-.08,24.45-.34,8.35-1.46,16.68-1.65,25A23.77,23.77,0,0,1,125,611.7c-1.58,3.34-2.24,7.11-3.56,11.55,4.29-1.12,5.69-3.36,6.57-5.94,2.57-7.58,5.11-15.18,7.5-22.83,1.84-5.87,2.46-6.19,7.73-3a7.5,7.5,0,0,0,1.59.1c.61-2.19,1.46-4.5,1.89-6.89,1.1-6,2.85-12,2.81-18a94.79,94.79,0,0,0-5.61-32.63c-2-5.28-5.24-10.11-8.22-15a16.69,16.69,0,0,1-2.85-8.48,38.73,38.73,0,0,0-2-9.24c-1.34-4.57-2.88-9.08-4.45-13.58-1-2.87-2.2-5.69-3.35-8.51-2.72-6.71-6.16-13.22-8-20.16-2-7.56-2.7-15.46-3.56-23.31C109.82,420.63,110.54,405.38,109.38,390.17ZM45.21,274.83l-1.94,0c-1.08,11.38-2.21,22.75-3.23,34.13-.43,4.75-.51,9.53-1,14.28-.72,7.29-2.31,14.56-2.31,21.84,0,8.14,1.29,16.3,2.13,24.44.66,6.46,1.59,12.91-1.57,19-2.08,4-3.84,8.06-3.31,12.78a5.18,5.18,0,0,1-.84,3.46c-2.55,3.22-4.48,6.44-2.7,10.74a2.18,2.18,0,0,1-.51,1.69c-4.72,5.88-2.87,13.29-4.44,19.9-1.91,8.06-.06,16.38,1.9,24.35.87,3.55,2.31,7.51,6.37,8.88,3.75,1.26,4.19,3.93,4.18,7.22,0,2.62-.16,5.38.59,7.81s2.52,4.3,3.84,6.43l1.4-.41a45.51,45.51,0,0,0,.3-5.07c-.2-4.37-.5-8.73-.85-13.08-.45-5.76-1.4-11.51-1.37-17.26s-.21-11.84,1.94-16.8c2.07-4.76,3.89-9.28,3.21-14.21-1-7.28.45-14.07,2.32-20.95,1.48-5.45,3.43-10.91,1.29-16.71-.33-.9.16-2.14.38-3.2.65-3.17,2-6.36,1.9-9.49A128.92,128.92,0,0,0,50.77,356c-1.36-7.24-2.27-14.29-1.43-21.77.75-6.76-.18-13.72-.61-20.58-.39-6.2-1.1-12.39-1.67-18.58Q46.13,285,45.21,274.83Zm-10-42.42,1.94.52a11,11,0,0,0-.6-1.73c-.31-.56-1.15-1.08-1.11-1.55.62-6.89,1.34-13.78,2-20.66,1-10.18,2.27-20.34,3.1-30.54,1-11.95-.44-24.13,3.74-35.76a26.58,26.58,0,0,0,1.24-6.08c1.16-10.32,1.07-20.74,3.58-31,2.29-9.32,3.66-18.87,5.26-28.35.81-4.77,1.23-9.6,1.83-14.41l-1.77-.35A46.58,46.58,0,0,1,52.74,68c-3.88,8.58-7.89,17.1-11.8,25.67-1.69,3.67-3.4,7.34-4.85,11.1-3,7.73-3.52,15.83-3.24,24a2.2,2.2,0,0,0,.94,1.29,3.72,3.72,0,0,0,1.88-1.29c1.78-3.72,3.39-7.51,5.13-11.24a8,8,0,0,1,1.45-1.66,7.43,7.43,0,0,1,.12,4.21c-2,7.85-4.44,15.61-6,23.55-2.38,12.34-4.28,24.78-6.1,37.22-.67,4.56-.32,9.27-.86,13.86-1,8.25-2.86,16.42-3.34,24.69-.81,14-1.07,28-1.07,42.05,0,5.68,1.29,11.37,2,17.06C33,263.58,32.39,247.71,35.19,232.41ZM110.5,333.56l1.48.21c.7-1.68,2-3.34,2-5,.14-10.16-.16-20.33,0-30.49.11-7.54-.5-15.25,3.57-22.2a10.87,10.87,0,0,0,.92-3.54c1.49-8.16,3.15-16.3,4.33-24.52a76.41,76.41,0,0,0,.65-14.18c-.23-5.37-1-10.73-1.78-16.06-.68-4.91-.31-10.21-4.21-14.12-.59-.59-2.6-.89-2.74-.64-1.47,2.61-3.19,5.25-3.9,8.11a125.72,125.72,0,0,0-2.73,15.8c-.47,4.11-.15,8.31-.46,12.46a10.79,10.79,0,0,1-1.58,4.77c-2.07,3.26-5.63,6.06-6.43,9.54-1.55,6.72-1.7,13.78-2.27,20.71s.81,13.34,3.07,19.76c.76,2.17,1.95,2.74,4.06,2.83,1,0,2.62,1.11,2.69,1.85.42,4.09.4,8.22.64,12.34.35,5.87.71,11.75,1.24,17.61A23.77,23.77,0,0,0,110.5,333.56ZM85.68,448.19c2-8.4-1.7-16.9,1.41-25.26a7.23,7.23,0,0,0,.27-2.55c0-4.05.14-8.12-.24-12.14-.67-7.3-1.13-14.68-2.68-21.8-3.29-15.07-7.15-30-10.93-45-3.67-14.53-7.56-29-11.28-43.54-1.25-4.87-2.29-9.79-3.42-14.68l-1.48.25c.75,6.75,1.4,13.52,2.27,20.25,1.63,12.71,3,25.47,5.22,38.06,2.12,11.83,5.17,23.49,8,35.17,1.13,4.59,3.32,8.94,4.25,13.55,1.37,6.77,1.88,13.71,3.08,20.52.82,4.65,2.25,9.18,3.28,13.79a12.61,12.61,0,0,1,.14,3.93c-.23,2.41-1,4.81-.9,7.19.25,6.43.85,12.85,1.28,19.28.11,1.55.08,3.1.12,4.66l.87,0c.31-3.2.62-6.4.9-9.33l7-2.1ZM76.87,128a19.3,19.3,0,0,0-.81,2.66c-.66,4.72-1.44,9.43-1.85,14.16q-1.21,14.08-2,28.2c-.74,12.44-1.41,24.88-1.91,37.32-.21,5.25,0,10.52.17,15.78.35,13.26.47,26.54,1.26,39.78a177.71,177.71,0,0,0,3.23,23.16A201.62,201.62,0,0,0,81,313.64c3,9.24,8.74,17.54,9.93,27.5.08.61,1,1.12,1.54,1.68.42-.75,1.25-1.56,1.17-2.25A66,66,0,0,0,92,331.28c-4.48-16.6-9.55-33.06-13.47-49.79-2-8.53-2-17.51-2.94-26.29C75,249,73.79,242.74,74,236.55c.32-11.86,1.45-23.7,2.18-35.56.13-2.18-.18-4.39-.07-6.58.32-6.19.87-12.37,1.1-18.56.25-6.69.37-13.39.31-20.09C77.4,146.74,77.09,137.71,76.87,128Zm-57.3,89.09a10.74,10.74,0,0,0-1,1.9c-.84,4.13-1.67,8.25-2.42,12.39-.53,3-1.13,6-1.36,9-.69,9.25-1.43,18.51-1.75,27.78-.38,11.16-.34,22.33-.51,33.5q-.13,8.61-.38,17.23c-.16,5.58-.63,11.17-.53,16.75.09,4.55.95,9.09,1.21,13.64.14,2.39-.44,4.8-.38,7.19s.56,4.86.78,7.29c.73,8.28,1.37,16.57,2.14,24.84a47.61,47.61,0,0,0,1.19,7.23c1.66,6.57,2.5,13.12.84,19.83-.16.64.28,1.43.45,2.16.92-1.85.76-3.59,1.09-5.22,1.71-8.35,1.12-16.58-.24-24.95-.76-4.71,0-9.66,0-14.5,0-1,.39-1.94.32-2.9-.59-8.84-1.57-17.67-1.79-26.53-.18-7.4.64-14.83.8-22.25.36-17.14.49-34.29.9-51.43.23-9.66.86-19.31,1.23-29,.14-3.78.92-7.82-.12-11.28a14.9,14.9,0,0,1,.18-9.81C20.44,219.45,19.94,218.62,19.57,217.13Zm53-84.1c-.56-3-1-5.09-1.32-7.14-.51-3-2.46-4.4-5.35-4.49s-5.14,1-5.89,4.29a4.91,4.91,0,0,1-2.17,3c-3.45,1.69-4,4.68-4.16,8a15.91,15.91,0,0,1-.55,4c-.62,1.8-.42,2.9,1,4.46,1.15,1.25,1.92,4,1.34,5.49-2.17,5.71-1.67,10.71,2,15.59.78,1,1.28,3.59.71,4.09-4.36,3.83-2.48,6,1.59,8.1.81.4,1.28,1.43,2,2.08,2.35,2.17,4.52,1.78,5.8-1.12a12,12,0,0,0,.8-3.57c.76-7.75,1.43-15.51,2.17-23.27C71.22,145.69,72,138.89,72.54,133ZM195.1,5.75a10.46,10.46,0,0,0-10.24,6.87c-.89,2.6-.86,5.71-2.3,7.9-3.91,6-4.53,12.77-6,19.41a4.48,4.48,0,0,1-1.95,2.85c-2.39,1.13-5,1.72-7.48,2.7-1.61.64-3.62,1.19-4.56,2.44-5.38,7.18-8.15,14.95-3.7,23.68a5,5,0,0,0,2.9,2.38c.6.14,1.91-1.26,2.36-2.22,2.78-5.86,5.3-11.84,8.16-17.65a8.19,8.19,0,0,1,3.59-3.34,22,22,0,0,1,6.61-2.1c3.17-.43,4.64-2.12,5.37-5.06,1.3-5.29,2-10.93,4.38-15.7A33.76,33.76,0,0,0,195.1,5.75ZM86.44,552.25l.9-.19c-.7-4.34-1.61-8.67-2.07-13C84,526.37,78.2,514.8,76.63,502.19,75.49,493,73.22,484,72.06,474.76a195,195,0,0,1-1.47-23c-.08-11.38.45-22.75.56-34.13,0-1.11-1.08-2.23-1.66-3.34-.89,1-2.37,1.86-2.57,3a90,90,0,0,0-1.35,11.93c-.4,9.6-1,19.22-.75,28.82a155.47,155.47,0,0,0,2.2,24.1c1.21,6.75,4,13.2,5.82,19.86,2.46,9.11,4.5,18.33,6.94,27.44C81.84,537,84.21,544.62,86.44,552.25ZM189.18,234.64c-3.07-.94-5.26-1.66-7.48-2.27-2.46-.68-2.58-2.37-1.82-4.28,1.31-3.25,4.15-3.26,7.08-3.29,1.14,0,3.19-.67,3.25-1.21.46-4,1.3-7.94-.81-12a32,32,0,0,1-3.61-12c-.23-3.34,1.22-6.95,2.52-10.21,2.37-5.92,2-12,1.66-18.08,0-.61-.84-1.18-1.28-1.78-.55.57-1.38,1-1.57,1.72a33,33,0,0,0-.38,3.63c-1.42,8.51-3.09,17-4.26,25.53-.84,6.17-1,12.42-1.53,18.63-.34,3.89-.74,7.66-3.72,10.81a24.65,24.65,0,0,0-4.57,7.37c-1.68,4-2.8,8.33-4.26,12.47a11.68,11.68,0,0,1-1.65,2.74,11.53,11.53,0,0,1-1.38,1.42,6.52,6.52,0,0,0,2.55.08c.6-.25.9-1.22,1.19-1.65l7.06,3.41c-1-2.74-1.95-5.21-2.9-7.73-1,1.3-1.69,2.23-2.39,3.17l-.93-.68c2.9-5.7,4.31-12.19,9-17-.48,5.33-2.47,10.4-2.51,15.49,0,4.8-1.26,9.51-1.4,14.58l4-.31c-1.6-2.38,0-7.34,2.6-9.33a6.05,6.05,0,0,0,1.83-2.28c1.07-2.44,2.07-4.92,2.9-7.44C187.42,241,188.24,237.86,189.18,234.64ZM59.92,551.07l.47-.06c-.44-2.64-.68-5.33-1.37-7.9-2.78-10.32-5.74-20.59-8.54-30.9-1.21-4.46-2.12-9-3.34-13.46-.21-.78-1.3-1.32-2-2-.47.81-1.28,1.6-1.36,2.45a32.53,32.53,0,0,0,0,6.24c1.57,14.89,4.38,29.56,9.67,43.59,4.57,12.14,5.19,24.66,5.08,37.38a38.61,38.61,0,0,0,1.22,8.3,2.49,2.49,0,0,0,1.83,1.48,2.35,2.35,0,0,0,1.75-1.36c.63-1.82,1.5-3.78,1.35-5.6-.4-4.62-1.41-9.17-2-13.78C61.69,567.35,60.83,559.21,59.92,551.07ZM118.2,701.61l1.24-.4a52.08,52.08,0,0,1-.88-5.24c-.14-1.76.31-3.59,0-5.31-1-5.66-1.41-11.09,2.21-16.21,1.36-1.92,1.91-4.49,2.59-6.83a13.35,13.35,0,0,0-6.87-15.73,4.19,4.19,0,0,0-3.67.14,3.59,3.59,0,0,0-.52,3.44c1.21,2.19.35,3.66-.85,5.34-2.47,3.45-5,6.89-7.22,10.5-3.63,5.88-2.2,9.21,4.53,10.65,3.09.67,6.12,1,5.46,5.41-.06.38.49.81.64,1.25.67,1.94,1.3,3.89,1.94,5.83l-1.3.56-4.3-4.74-.7,1.58-2.86-2-2.53,3.76,5.41,5.28c.33-1.4.72-3,1.23-5.18.8,3.2,2.14,6.41,2.27,6.27.88-1,1.67-2,2.39-3ZM33.5,611l-1.74.57c.53,7.92.61,15.9,1.73,23.73,1.18,8.29,2.6,16.7,5.31,24.57,2.81,8.12,7.26,15.69,11.11,23.43.46.91,1.72,1.41,2.61,2.1.36-1.06,1.18-2.21,1-3.17a94.72,94.72,0,0,0-2.76-11.7C48.32,663,45.47,655.6,43,648.09c-1.1-3.35-1.12-7.15-2.63-10.27-3.48-7.24-4-15-5.12-22.69C35,613.69,34.1,612.36,33.5,611Zm99.79-462.68c1-4.68,2.32-8.84,2.77-13.08.59-5.64.42-11.35.79-17,.42-6.51,1.23-13,1.58-19.52.38-7,.46-13.92.57-20.89,0-.84-.68-1.7-1.36-3.3-4.79,13.87-6.66,27.23-7.73,40.73q-1,12.56-1.49,25.15C128.3,143.34,128.55,146.55,133.29,148.29ZM116.42,26.71h-.72c-.32,1.23-.59,2.47-1,3.68-2.7,8.44-5.69,16.79-8,25.32C105,62,104,68.52,102.85,75s-2.7,12.94-2.8,19.44-1.64,12.68-.77,19.2.5,13,.74,19.48a8.9,8.9,0,0,0,.77,3.52,2.35,2.35,0,0,0,2.09.83,2.25,2.25,0,0,0,1.44-1.66c-.39-12.17-.92-24.33-1.34-36.5a27.07,27.07,0,0,1,.49-6.16c2-9.49,4.09-18.95,6.1-28.43,2.35-11.09,4.68-22.18,6.92-33.29A21.79,21.79,0,0,0,116.42,26.71Zm29,251.21-1.5-.12a16.15,16.15,0,0,0-2.19,1.82c-4.09,4.74-3.91,10.58-4.12,16.31a94.08,94.08,0,0,0-.19,10.21,76.83,76.83,0,0,0,1.68,9.93c.31,1.5,1.33,2.91,1.39,4.38.12,2.79,1.74,3.52,4,3.75a17.93,17.93,0,0,0,2.81.27c1.44-.1,2.87-.4,4.31-.62-.28-1.31-.13-3-.91-3.88-5.67-6.21-4.58-13.72-4.59-21.13C146.09,291.86,145.63,284.89,145.37,277.92ZM38,590.1l1.44.29a18.44,18.44,0,0,0,1.41-3.78c1.24-8.78,2.36-17.58,3.51-26.37,1.18-9-1.69-17.38-4.18-25.8-1.07-3.6-2.09-7.23-3.4-10.74-.32-.85-1.71-1.3-2.61-1.93-.37.91-1.07,1.83-1.06,2.75,0,2.19.36,4.39.56,6.58.54,5.78,1.09,11.55,1.59,17.34.38,4.4-1.62,9.22,1.23,13.16,3.84,5.32,3,11,2.52,16.85Q38.48,584.29,38,590.1ZM16.74,425.66a7,7,0,0,0-.47,1.37c-1.21,10.88-2.45,21.76-3.6,32.65-1,9.21-2.88,18.43.38,27.61a5.39,5.39,0,0,1,0,2.9c-.93,4-2,7.9-2.93,11.89a14.7,14.7,0,0,0,0,3.44C17.18,484.71,21.31,430.64,16.74,425.66ZM86.82,597.85c0,1.69,0,3.39.14,5.08s.91,3.52.57,5.11a42.21,42.21,0,0,0-.47,18c1.57,7.47,2.8,15,4.23,22.52.65,3.46,1.43,6.9,2.15,10.35l1.24-.17c-.42-6.22-.78-12.45-1.28-18.67-.24-2.9-1.05-5.78-1.1-8.69-.11-7.66.4-15.35,0-23C92,604.64,92.45,600.1,86.82,597.85Zm46-196.11A8.76,8.76,0,0,0,131,402c-.75,3.87-2.28,7.82-1.94,11.6s2.64,7.42,3.89,11.17a7.14,7.14,0,0,1-.21,3.22c-1.17,6.32-2.39,12.64-3.56,19-.33,1.75-.57,3.51-.91,5.65l-4.66-2.79c-.54,1.19-1,2.3-1.55,3.41l.89.42.77-1.74c2.44,1.12,4.19,2.43,2.14,5.48,2.64-.89,5.67-.72,5.11-4.51l3.4,5.18.79-.51c.06-1.08.13-2.16.2-3.37l-3.06-1.36c-.31-5.46-.7-10.86,3.14-14.31C134.49,425.91,131.2,414.14,132.78,401.74ZM25.93,318.81l-1.24.18c.06,2.75,0,5.51.2,8.26.4,7.43.65,14.88,1.35,22.28,1,10.8,2.34,21.57,3.65,32.33a30,30,0,0,0,1.64,5.25l1.14-.32a13.08,13.08,0,0,0,.12-1.65c-.31-5.24-.52-10.49-1-15.71q-1.08-11.49-2.53-22.95c-.41-3.25-1.53-6.43-1.89-9.69C26.71,330.82,26.39,324.81,25.93,318.81ZM105,144.86c-3.81,1-4.07,1-3.89,3.92.42,6.78,1,13.54,1.61,20.45,3.66-.07,3-2.3,3-3.9,0-1.93-.33-3.87-.39-5.81C105.21,154.69,105.12,149.86,105,144.86Zm42.19,321c.15-.25.43-.51.46-.8.31-2.47-.21-4.78,2-7.2,1.21-1.33-.31-5.19-.75-7.89,0-.32-1.07-.76-1.55-.67-1.83.34-3.62.88-5.41,1.35,4.12,9.15,4.12,9.15,1,10Zm7.19-211.78,1.75-.23c.12-12.39,1.47-24.78-1.22-37.16-.54,4.48-.22,8.95-.38,13.41-.27,7.1,1.86,14.32-1,21.33C153.23,252.07,154.07,253.17,154.39,254.07Zm12.82,304.31c-.5-2.77-1-5.82-1.63-8.84-.17-.79-.94-1.45-1.43-2.17-.6.79-1.62,1.53-1.72,2.38-.47,3.75-.67,7.54-1,11.38ZM25.14,119.72c-4.18-.32-8.36-1.17-7.54,4.74l3.15,2.82c1.65-2.81,4.2-1.45,7-.08,2.91-6.3-4.85-1.7-4.85-5ZM185.13,253a5.27,5.27,0,0,0,4.55-2.19c1-1.94,1.89-5,3.37-5.38,4.43-1.06,2.38-2.14.49-3.43l2-2.36-3.41.73-.07-2.94-1,0,.15,6.72-.79-.53C188.64,246.74,186.9,249.85,185.13,253ZM154.69,40.35,155,39c-2.41-.15-5.54.29-3.22-3.54.21-.34-.26-1.45-.73-1.8-3-2.3-4,1.61-6.12,2.25-.42.12-.47,2.12-.32,3.2a2.1,2.1,0,0,0,1.52,1.35C149,40.55,151.82,40.41,154.69,40.35ZM24,109.81l-2.42-2c-.73,1.61-1.25,2.74-1.77,3.86a14,14,0,0,0-.74,4.25c0,.51,0,1.38.19,1.47a3.43,3.43,0,0,0,1.8,0c.6-.12,1.21-.68,1.74-.59,1.69.31,3.34.83,5,1.26l.36-1.08-3.69-1.67,2.64-1L26,113.15l-2.94,1.55-.56-.47L26,109.77l-.61-.58ZM171.16,278.39l-1.62,1.82c0-.91-.27-2.21.21-2.65a21.75,21.75,0,0,1,4-2.44l-3.32-3.63-4.85,10.9a19.84,19.84,0,0,0,4.76,2.2c.89.19,2.09-1.13,3.15-1.76C170.67,282.47,173.1,279.5,171.16,278.39ZM50.21,456.55c3.14,1.68,6,3.51,3.65,7.52l2.93.63,3.14-4.32-4.36-.89,4.23-3.85-4.07.45-1-2.49a19.62,19.62,0,0,1-1.6,1.29C52.37,455.39,51.55,455.8,50.21,456.55Zm67.62-26c4.17-2.34,6.1-1,6.6,4.15l-3.54.67,3,2.45,2.66-2.19c-.84-4.84-1.68-9.62-2.51-14.4l-.94.13.5,7.47C121,426.45,119.62,426.75,117.83,430.56ZM58.21,109c-.14-5.67.64-6.67,4.87-5.9l-1.75-6.37-.86.22.26,2-4,.09c0,1.72.1,4,.13,6.24a2.34,2.34,0,0,1-.14,1.13c-.44.8-1,1.54-1.48,2.3ZM193.68,231.14l4.43-2.44c-.88-3.58-1.84-7.42-3-12.26-.77,2.11-1.54,3.28-1.58,4.48C193.4,224.21,193.59,227.51,193.68,231.14ZM163.83,685.86l-1.72-.73a36.92,36.92,0,0,1-2,5.27c-1.51,2.76-3.36,5.33-4.94,8-.16.26.42,1.3.85,1.46s1.62,0,1.78-.37C159.89,695,161.85,690.43,163.83,685.86ZM125,687.14c-.76,3.3-.63,7.07-2.4,9.39-2,2.6-.53,3.78,0,5.56l1.1.14,3.37-17-4.84,1.15ZM37.28,91.63,37,90.42c-1.83.25-4.11,1.3-5.4.58-4-2.25-5.39.52-7.85,3.13C29.35,95.88,32.76,91.34,37.28,91.63Zm58.83,17.64-11.52-2.63-.48,1.19a19,19,0,0,0,2.06,1.33c1.16.57,2.59.77,3.53,1.57C92.47,113.1,94.1,111.56,96.11,109.27ZM66.16,685.94c-.34,1.3-1.25,2.93-.81,3.47,1,1.24,2.66,2,4.05,2.88.48-1,1.47-2.07,1.35-3C70.38,686.64,68.91,685,66.16,685.94ZM167.25,229l1,.27.19,8,.69.15c.5-2.71,1-5.42,1.52-8.28l-3-1.2.8-2.59c-4.44,3.4-4.72,4-2.85,6.07ZM40.56,205.45c-.85,3.43-1.69,6.81-2.73,11,3.4-2.1,5.61-7.36,4.86-9.72ZM144.69,655.7l.9-1.31c-1-.25-2.59-1-2.83-.67a13.79,13.79,0,0,0-2,4.17c-.14.44.49,1.15.83,1.69a.72.72,0,0,0,.68.1c2.17-1.76,4.31-3.56,6.46-5.34l-.86-1ZM46.94,205.13l-2-.3-1.4,7.69,5.17-.36-2.22-1.87Zm-21-21.4c-2,.43-3.78.38-4,.9-1,2.73-1.64,5.61-2.4,8.44l1,.25C22.09,190.52,23.66,187.73,25.89,183.73Zm61.18,21.63V204l-8,.19C81.2,208.06,81.53,208.08,87.07,205.36ZM20.93,653.82c.76-4.31,1.46-8.21,2.15-12.12l-1.43-.2C21.68,645.51,17.79,649,20.93,653.82ZM143.71,326c.7,1.49,1.56,2.52,1.59,3.58,0,1.24-.8,2.5-.89,3.77,0,.5.94,1.07,1.28,1.43.62-1.79,1-3.19,1.59-4.49C149.09,326.24,149.12,326.26,143.71,326Zm6.43,331.68c-5.87.79-7,3.17-3.48,7.77.09-1.58.19-3.16.32-5.28ZM70.05,90.77l-.19-1.46a71.36,71.36,0,0,0-7.19.94c-.44.09-.55,1.69-.86,2.78Zm55.13,176.45c6.61-4.77,7.17-6.15,4.74-8.75ZM35,65.8h-.83c-.26,2.37-.61,4.73-.66,7.1,0,.36,1.47,1.15,2.14,1,1.09-.19,2.08-1,3.6-1.75l-3.63-1ZM155.42,330.93l1,.71,4.1-1.22-.33-3.46L159,326.4Zm-57,4.59,7.07-6.84C102.21,327.69,100,329.78,98.44,335.52Zm65,266-1.12-1.19c-.79.65-2.06,1.19-2.27,2a32.59,32.59,0,0,0-.41,5.77l3.66-2.22C160.28,604.24,161.75,602.87,163.43,601.51ZM24.92,648.3l1.15,0,1.05-9.87-2,0C25.07,641.67,25,645,24.92,648.3ZM143.28,487.91c-1,2.27-1.83,4.26-2.69,6.26l1.51.76,4.22-6.71ZM165,250.52l1.42-.2c.57-2.18-2.33-5.12,1.58-7-1.74,0-3.75.44-3.78,1A33.71,33.71,0,0,0,165,250.52ZM39.35,255.11l-2,.19,1,6.51,1.56-.17ZM163,703.69c.62-2.91,1.11-5.17,1.59-7.43L163,696c-.29,1.54-.59,3.08-.86,4.54l-2.26-.55-.36.67Zm-43.4-287.88-1-.8c-.9,1.43-2.22,2.78-2.54,4.34-.18.85,1.32,2.06,2,3.09C118.69,419.77,119.13,417.79,119.56,415.81Zm-106.9-3.92,1.09-.83-.7-6.37-1-.37a18.59,18.59,0,0,0-.93,4.5C11.14,409.86,12.11,410.87,12.66,411.89ZM89.11,136.56l-3.3-1.18c-.93,2.11-1.7,3.87-2.48,5.63l.75.59Zm66.3,64.14h-.35c-.62,2.75-1.25,5.5-1.88,8.31l2.49,2.83Zm16.31,386.08c-1.11-3.49-2-6.39-2.95-9.27C166.87,579,168.05,583.48,171.72,586.78Zm5.15-7.5-2.26,3.33,2.86,4,1.33-1C178.23,583.77,177.66,581.88,176.87,579.28Zm-126.51-127,9.39-3.09L59.29,448C56.9,450.7,51.94,446.82,50.36,452.32ZM67,97.06l-.06.86L71,101.44l1.07-.7c-.33-1.12-.34-2.8-1.07-3.23C69.92,96.89,68.33,97.17,67,97.06Zm-1,408.6L59.2,501.5l-.59.7,3.68,3.2c-.29.81-.58,1.66-1.13,3.2,1.23-.58,1.68-.74,2.06-1C63.83,507.23,64.41,506.78,66,505.66ZM142.1,48.47c4-4.33,4-4.49.64-6.83C142.53,43.92,142.33,46,142.1,48.47ZM166.25,615.6c-1,1.5-1.82,2.28-2,3.21a16.08,16.08,0,0,0,0,3.86l4.22-4.64ZM78.52,328.13l1.21-.23c-1.28-2.25,2.7-5.15-1.38-7.27ZM51.73,219.91,43.86,224l6.14.42ZM154.41,550.74c.42,1.87.77,3.45,1.13,5l.93-.13c.09-1.21.18-2.42.24-3.21l3.13-1.47-.39-.93ZM140.33,683.09l-1.47-.11c-.24,3.24-.49,6.48-.73,9.72l1.26.1ZM46.26,200.42l-1.87-6-.82.06.16,7.07Zm62.55-4.4c-2.23-2.55-4.62-1.9-6.16,1.92ZM20.88,668.31l.6-6.29-.7,0c-1,2.09-2,4.18-3.31,6.89Zm151.55-5.58L170,660c-.61,1.79-3.53,3.42,0,5.41ZM168,240.37l-2.21,1.41c-.75-1.58-1.51-3.15-2-4.29,0,.68-.08,2.4-.14,4.12ZM20.09,173.8c1.15-1.62,1-4.17,3.67-3.61a13.73,13.73,0,0,0,.93-2.35,5.8,5.8,0,0,0-2.13.27C20.62,169.21,18.62,170.4,20.09,173.8ZM57.74,319l-.86-.53c-.7.8-2.14,1.86-2,2.37a34.15,34.15,0,0,0,2.78,5.23l.52-.32Q58,322.36,57.74,319Zm68.78,98.32c-.74-2.84-1.23-4.72-2-7.58l-2,4.81Zm-100,248.77H25.35l.2,8.73,1.18,0ZM44,229.92l.56-.54c-.77-2.14-1.54-4.27-2.4-6.69L40,224.61C41.45,226.55,42.75,228.23,44,229.92Zm37.7-101.24.9-.49c.21-1.75.42-3.5.67-5.55l-3.84,1.66ZM181.48,10.57l.09-1-6.52.15c.38,1.45.66,2.5.77,2.9ZM106,306.5l-2.68,1-1.22,6.58,1.14.35C104.05,312.08,104.86,309.74,106,306.5ZM83.64,135l2.49-3.76-4.25-1.74C82.57,131.66,83,133,83.64,135Zm-6.23-15.88-1.42.2.51,6.22,1-.08ZM52.17,445.93c.74-.67,1.65-1.1,1.8-1.71a37.11,37.11,0,0,0,.56-4.85l-1.39-.13C52.85,441.24,52.56,443.23,52.17,445.93Zm64.52,128.13-.93.22-.53,6.39,3-.84a29.57,29.57,0,0,1-1.15-3A22.47,22.47,0,0,1,116.69,574.06Z"/></g></g></g></svg>