<svg xmlns="http://www.w3.org/2000/svg" width="27.279" height="28.416" viewBox="0 0 27.279 28.416">
  <path id="Icon_material-add-shopping-cart" data-name="Icon material-add-shopping-cart" d="M15.031,12.325h2.706V8.266H21.8V5.559H17.738V1.5H15.031V5.559H10.972V8.266h4.059ZM9.619,24.5a2.706,2.706,0,1,0,2.706,2.706A2.7,2.7,0,0,0,9.619,24.5Zm13.531,0a2.706,2.706,0,1,0,2.706,2.706A2.7,2.7,0,0,0,23.15,24.5Zm-13.3-4.4.041-.162,1.218-2.206H21.188a2.693,2.693,0,0,0,2.368-1.394l5.223-9.486-2.354-1.3h-.014L24.923,8.266l-3.735,6.766h-9.5l-.176-.365-3.031-6.4L7.2,5.559,5.925,2.853H1.5V5.559H4.206L9.078,15.83,7.251,19.145a2.616,2.616,0,0,0-.338,1.3A2.714,2.714,0,0,0,9.619,23.15H25.857V20.444H10.187A.344.344,0,0,1,9.849,20.106Z" transform="translate(-1.5 -1.5)" fill="#dc8fcb"/>
</svg>
