<?xml version="1.0" encoding="utf-8"?>
<!-- Generator: Adobe Illustrator 25.4.1, SVG Export Plug-In . SVG Version: 6.00 Build 0)  -->
<svg version="1.1" id="Calque_1" xmlns="http://www.w3.org/2000/svg" xmlns:xlink="http://www.w3.org/1999/xlink" x="0px" y="0px"
	 viewBox="0 0 375 1262.4" style="enable-background:new 0 0 375 1262.4;" xml:space="preserve">
<style type="text/css">
	.st0{fill:#233131;}
	.st1{fill:#1D1D1B;}
</style>
<g id="Calque_2_00000159429293127568454670000006142010743282701953_">
	<g id="nos_semences">
		<rect class="st0" width="375" height="1262.4"/>
		<g id="Calque_4">
			<path class="st1" d="M-14.3,1089.4c15.5-1.6,31.1-0.9,46.4,2.2c1.7,0.3,3.5,0.7,5.2,1.2c1.4,0.3,2.4,0.9,3.5-0.3
				c1.4-1.6,1.1-3.7,0.3-5.5c-1.1-2.5-3.1-4.6-4-7.1s0-4.7,1.3-6.8c2.6-4.2,6.7-8.2,5.7-13.6c-0.1-0.4-0.5-0.8-0.9-0.9
				c-7.1-2.2-14.8-2-21.8,0.4l1.6,1.2l1.8-22c0.3-3.6,0.5-7.2,0.9-10.8c0.1-2.6,0.7-5.1,1.6-7.5c1-2.4,2.8-4.6,5.5-5.1
				c3-0.5,5.8,1.4,7.8,3.5c4.3,4.6,4.7,11.5,7.3,17c1,2,1.9,4.1,4.5,2.9c1.7-0.8,2.4-2.6,3-4.2c0.8-2.1,1.2-4.9,3.2-6.2
				c2.2-1.4,5.3-1,7.5,0.3c2.5,1.5,4.2,4.2,5.6,6.7c1.7,2.8,2.9,5.7,3.8,8.8c1.5,6.2-3.6,11.3-2.8,17.5c0.2,2.4,1.4,4.5,3.4,5.8
				c2.6,1.6,5.7,0.7,8.2-0.6c3.3-1.6,6.2-3.3,9.8-4.1c3.7-0.8,7.6-0.7,11.3,0.2c1.1,0.3,2.3-1.3,1.2-2.1c-3.8-3-6.7-9.6-2.8-13.7
				c2.8-3,8.7-2.9,10.5,1c0.6,1.3,2.7,0.4,2.3-1c-0.9-2.6,1.2-4.6,3.5-5.5c2.6-1,5.6-0.5,7.8,1.1c5.2,3.4,8.4,8.8,14.3,11.3
				c5.6,2.4,12,2.4,17.7,0.1c1.4-0.7,2.9-1.2,4.4-1.8c2.1-0.5,4.4-0.5,6.5,0.2c2.9,0.7,5.8,1.4,8.8,0.9c6.2-1.2,6.9-7.5,5.3-12.7
				c-1.7-5.4-5.9-9.8-10.8-12.7c-5.8-3.3-12.7-4.3-19.2-4.5c-1.7,0-3.4,0-5.1,0s-3.6,0.6-4.3-1.4c-0.9-2.5,0.5-5.6,2.6-7.1
				c5.6-4.2,13.6-2.4,19-7.2c2.5-2.2,3.3-5.3,3.2-8.5c0-2-0.3-4.1,0.4-6c0.6-1.7,2-3.7,4-3.2c0.7,0.2,1.4-0.3,1.5-0.9
				c0.1-0.3,0-0.6-0.1-0.9c-2.4-3.7-0.4-9.1,4.1-9.9s8.3,2.8,11.3,5.3c3.5,2.8,6.9,5.7,11.2,7c4.9,1.5,9.6,1,14.4-0.3s9-2,13.9-0.8
				c4.3,1.2,8.6,2.8,12.6,4.7c7.2,3.1,15.1,6.3,23,3.5c5.1-1.8,9.2-5.8,14.4-7.6c4.1-1.5,10-1.3,12.1,3.2c0.4,0.6,1.1,0.8,1.7,0.4
				c0.3-0.2,0.5-0.4,0.5-0.7c0.6-4.7,1.6-11.4,6.5-13.6c6.1-2.8,12.2,3.4,17.4,5.6c3.9,1.6,9.3,2.5,12.7-0.8
				c1.5-1.7,2.5-3.8,2.6-6.1c0.4-2.5,0.3-5.5,2.4-7.3h-1.8c4.1,4.8,8,9.7,12.2,14.3c1.4,1.5,2.9,2.9,5,3.1c2.6,0.3,4.9-1.2,7-2.4
				c5-2.8,10.6-5.1,16.5-4.6c5,0.3,9.5,3.3,11.8,7.8c0.7,1.5,2.9,0.2,2.1-1.3c-4.5-9.3-16.1-10.5-24.9-7.3c-2.6,1-5.1,2.2-7.4,3.6
				c-1.4,0.8-3,1.9-4.8,1.7c-1.4-0.3-2.6-1-3.4-2.2c-4.2-4.7-8.3-9.7-12.4-14.6c-0.5-0.5-1.3-0.5-1.8,0c-4.2,3.5-1.2,10.6-5.5,13.8
				c-4.8,3.5-11.4-1.1-15.5-3.5c-4.8-2.7-10.8-4.9-15.6-0.9c-4,3.3-5.1,9-5.7,13.9l2.3-0.3c-1.7-3.7-5.6-5.2-9.5-5.3
				c-4.9,0-9,2.4-13.1,5c-4.6,2.8-9.1,5-14.6,4.5c-4.6-0.5-9-2.3-13.1-4.2s-8.6-3.9-13.1-5c-4.8-1.1-9.8-0.9-14.5,0.6
				c-5.8,1.6-11.4,2.2-16.9-0.7c-4.4-2.3-7.8-6.2-12-8.8c-3.8-2.4-8.8-3.6-12.6-0.4c-3.4,3-4.1,7.9-1.8,11.7l1.4-1.8
				c-2.4-0.5-4.8,0.6-6,2.7c-1.9,2.8-1.5,6-1.5,9.2c-0.1,8.4-8.4,9-14.8,10.6c-5.3,1.3-10.8,4.7-10.3,10.8c0.1,1.8,1.2,4.5,3.2,5
				c1.6,0.3,3.6-0.1,5.2-0.1c2,0,4.1,0,6.1,0.2c7.2,0.5,14.6,2.3,19.9,7.4c2.4,2.2,4.2,5,5.2,8.1c1,3.2,1.3,7.8-2.6,9.1
				c-3.6,1.2-7.2-0.5-10.8-1s-6.2,0.4-9.4,1.8c-6.6,3-14.4,2.4-20.4-1.7c-5.1-3.6-9-10.8-15.9-11.1c-4.9-0.3-11.3,3.6-9.4,9.2l2.3-1
				c-2.5-5.3-10.2-5.5-14.1-1.8c-5.3,4.9-2.5,13.6,2.5,17.5l1.2-2.1c-6.9-1.7-14.2-0.7-20.4,2.7c-2.8,1.5-7.5,4.4-9.7,0.5
				c-1.7-3-0.5-6.6,0.6-9.6c1.2-3.3,2.2-6.5,1.5-10.1c-0.6-3.4-2.4-6.6-4-9.6c-2.7-5.2-7-10.4-13.4-9.5c-2.8,0.3-5.2,2.1-6.3,4.7
				c-0.8,1.8-1.3,7-4,6.8l1.1,0.6c-3.2-5-3.7-11.1-6.4-16.3c-2.2-4.1-6.5-8.2-11.5-8.1c-11.2,0.3-10.5,16.8-11.1,24.4l-1.9,23.6
				c0,0.7,0.6,1.3,1.2,1.3c0.1,0,0.2,0,0.3,0c6.6-2.3,13.8-2.5,20.5-0.5l-0.9-0.9c0.5,2.8-1.2,5.4-2.8,7.7s-3.4,4.6-4.3,7.3
				c-0.8,2.6-0.4,5.3,1,7.6c1.1,2,5.1,6.2,2.9,8.5l1.2-0.3c-17.7-4.4-36-5.7-54.1-3.8C-15.9,1087.2-15.9,1089.7-14.3,1089.4
				L-14.3,1089.4z"/>
			<path class="st1" d="M352.8,566.5c-18.1-1.9-36.5-0.6-54.2,3.9l1.2,0.3c-2.2-2.2,1.6-6.2,2.8-8.2c1.4-2.5,2-5.1,1.2-7.8
				s-2.6-4.8-4.1-7.1s-3.4-4.9-2.9-7.9l-0.9,0.9c6.7-2,13.9-1.9,20.5,0.4c0.7,0.2,1.4-0.2,1.5-0.9c0-0.1,0-0.2,0-0.3l-1.7-20.9
				c-0.5-5.8-0.4-11.9-1.8-17.6c-1-4.1-3.3-8.3-7.7-9.3c-4.9-1.1-9.4,2.2-12.1,6c-3.8,5.5-4,12.6-7.6,18.2l1.1-0.6
				c-2.5,0.2-3-4.1-3.6-5.8c-0.9-2.4-2.2-4.3-4.7-5.2c-5.8-2.1-11.1,1.9-14,6.6c-3.5,5.7-6.9,12.5-4.8,19.3c1,3.3,2.8,6.5,2.3,10
				c-0.1,1.5-0.9,3-2.1,3.9c-1.9,1.2-4.2,0.2-6-0.7c-3.6-1.8-6.8-3.6-10.8-4.3c-4-0.7-8.1-0.6-12,0.4l1.2,2.1
				c5-3.9,7.7-12.6,2.5-17.5c-4-3.7-11.7-3.5-14.1,1.8l2.3,1c1.6-4.8-3.1-8.5-7.5-9.1c-5.9-0.8-10.2,3.9-14,7.7
				c-5.1,5-11.7,8-19,6.8c-3.4-0.6-6.3-2.5-9.6-3.3c-3.7-0.9-7.2,0.5-10.8,1.1c-3.5,0.6-7.7-0.2-8-4.4c-0.1-3.3,0.8-6.5,2.6-9.2
				c3.8-5.9,10.3-9.1,17-10.4c3.9-0.7,7.9-1,11.9-0.9c1.7,0,3.8,0.4,5.4,0.1c1-0.3,1.9-1,2.4-1.9c3-4.5-0.4-10.3-4.7-12.4
				c-5.6-2.8-16.8-1.6-19-9c-1.1-3.8,0.5-7.8-1.4-11.5c-1.3-2.5-3.7-4.3-6.6-3.7l1.4,1.8c2.1-3.4,1.8-7.7-0.8-10.7
				c-2.7-3.3-7.2-3.7-10.9-2.1c-4.4,1.9-7.8,5.5-11.6,8.3c-4.5,3.4-10.2,4.8-15.7,3.8c-2.9-0.6-5.7-1.7-8.7-2.2
				c-2.3-0.4-4.6-0.4-6.9-0.1c-4.6,0.6-8.9,2.4-13.2,4.2s-8.4,3.8-13,4.9c-4.9,1.3-10.1,0.7-14.6-1.8c-4.9-2.6-9.2-6.4-15-6.9
				c-4.3-0.4-9.1,1-11.1,5.2l2.3,0.3c-0.7-4.9-1.8-10.5-5.7-13.9c-4.8-4-10.8-1.8-15.6,0.9c-4.1,2.3-10.7,6.9-15.5,3.4
				C4.5,459,7.6,452,3.3,448.4c-0.5-0.5-1.3-0.5-1.8,0c-4.1,4.8-8,9.6-12.2,14.4c-0.8,1.1-1.8,1.9-3.1,2.4c-1.8,0.4-3.5-0.6-5-1.5
				c-2.5-1.5-5-2.7-7.7-3.8c-8.7-3.2-20.4-2-24.9,7.3c-0.7,1.4,1.5,2.7,2.2,1.3c2.3-4.5,6.8-7.4,11.8-7.7c5.8-0.6,11.5,1.7,16.5,4.6
				c2.1,1.2,4.3,2.6,6.8,2.4c2.2-0.2,3.8-1.6,5.2-3.2c4.2-4.7,8.1-9.6,12.2-14.4H1.6c2.1,1.7,2,4.6,2.4,7.1c0.3,2.3,0.9,4.6,2.6,6.3
				c3.3,3.3,8.8,2.4,12.7,0.8c5.3-2.2,11.3-8.4,17.4-5.6c4.8,2.2,5.8,8.9,6.5,13.6c0.2,0.7,0.9,1,1.6,0.8c0.3-0.1,0.5-0.3,0.7-0.5
				c1.9-4,6.8-4.6,10.7-3.6c4.6,1.1,8.4,4.4,12.5,6.6c8,4.1,16,2.3,23.8-1s16.3-8,25.2-6c4.9,1.1,9.4,2.8,14.5,2.1
				c4.4-0.7,8.5-2.6,11.9-5.5c3.6-2.8,7.6-7.3,12.4-7.6c5.3-0.4,8.6,5.6,5.8,10c-0.3,0.6-0.1,1.4,0.5,1.7c0.3,0.2,0.6,0.2,0.9,0.1
				c3.9-0.9,4.5,4.9,4.4,7.4c0,3.1-0.1,6.3,1.9,8.9c3.7,4.9,10.3,5,15.7,6.5c3,0.8,6.1,2.3,7.1,5.5c0.4,1.1,0.5,2.3,0.2,3.5
				c-0.6,2-2.2,1.7-4,1.6c-7-0.1-14.3,0.1-20.9,2.7c-5.3,2-9.8,5.7-12.8,10.5c-2.4,4.1-4.5,11.7,0.1,15.1c5.7,4.3,12.4-1.2,18.4,0.4
				c3.2,0.8,6,2.6,9.3,3.2c2.9,0.5,5.9,0.5,8.8-0.1c3.3-0.7,6.4-2.1,9.1-4.1c2.7-2.1,4.9-4.7,7.5-6.9s5.4-3.9,8.7-3.1
				c2.7,0.6,5.7,2.7,4.7,5.8c-0.4,1.3,1.7,2.2,2.3,1c1.8-3.9,7.7-4,10.5-1c3.9,4.2,1,10.7-2.8,13.7c-1,0.8,0.1,2.4,1.2,2.1
				c6.5-1.5,13.3-0.5,19.1,2.8c2.4,1.3,5,2.8,7.8,2.5c2.2-0.3,4.1-1.6,5-3.6c2.5-5.1-0.5-10-1.8-14.9c-0.9-3.6,0.1-6.9,1.6-10.2
				c1.2-2.8,2.6-5.4,4.4-7.8c1.8-2.3,4.1-4.2,7.2-4.3c2.6-0.2,5.1,1.4,5.9,3.9c0.7,1.9,1.1,4.1,2.3,5.8c0.8,1.2,2.7,2.5,4.2,1.8
				c1-0.5,1.5-1.9,1.9-2.8c0.6-1.3,1.2-2.6,1.6-4c1-3.1,1.8-6.3,3.1-9.2c2.2-4.9,8.9-10.8,13.9-5.7c2,2,2.7,5,3.2,7.6
				c0.6,3.6,0.7,7.4,1,11.1l2,24.8l1.6-1.2c-7.1-2.4-14.7-2.6-21.8-0.4c-0.4,0.1-0.8,0.5-0.9,0.9c-0.9,4.7,2.2,8.3,4.7,12
				c1.3,1.9,2.8,4.1,2.7,6.5c-0.1,2.7-2.1,5-3.4,7.2c-1,1.8-2.1,3.9-1.4,6c0.3,0.9,0.9,1.7,1.8,2.1c1.2,0.4,3.6-0.7,4.8-1
				c7.7-1.7,15.6-2.9,23.5-3.3c8.6-0.5,17.3-0.4,25.9,0.5c1.6,0.2,1.6-2.3,0-2.5L352.8,566.5z"/>
			<path class="st1" d="M-0.9,1254.4c15.5-1.6,31.1-0.9,46.4,2.2c1.7,0.3,3.5,0.7,5.2,1.2c1.4,0.3,2.4,0.9,3.5-0.3
				c1.4-1.6,1.1-3.7,0.3-5.5c-1.1-2.5-3-4.6-4-7.1s0-4.7,1.3-6.8c2.6-4.2,6.7-8.2,5.7-13.6c-0.1-0.4-0.4-0.8-0.9-0.9
				c-7.1-2.2-14.8-2-21.8,0.4l1.6,1.2l1.8-22c0.3-3.6,0.5-7.2,0.9-10.8c0.1-2.6,0.7-5.1,1.6-7.6c1-2.4,2.8-4.6,5.5-5.1
				c3-0.5,5.8,1.4,7.8,3.5c4.3,4.6,4.7,11.5,7.3,17c1,2,1.9,4.1,4.5,2.9c1.7-0.8,2.4-2.6,3-4.2c0.8-2.1,1.1-4.9,3.2-6.2
				c2.2-1.4,5.3-1,7.5,0.3c2.5,1.5,4.2,4.2,5.6,6.7c1.7,2.8,3,5.7,3.9,8.8c1.4,6.2-3.6,11.3-2.8,17.5c0.2,2.4,1.4,4.5,3.4,5.8
				c2.6,1.6,5.7,0.7,8.2-0.6c3.3-1.6,6.2-3.3,9.8-4.1c3.7-0.8,7.6-0.7,11.3,0.2c1.1,0.3,2.3-1.3,1.2-2.1c-3.8-3-6.7-9.6-2.8-13.7
				c2.8-3,8.7-2.9,10.5,1c0.6,1.3,2.7,0.4,2.3-1c-0.9-2.6,1.2-4.6,3.5-5.5c2.6-1,5.6-0.5,7.8,1.2c5.2,3.4,8.4,8.8,14.3,11.3
				c5.7,2.4,12,2.4,17.7,0.1c1.4-0.7,2.9-1.2,4.4-1.8c2.1-0.5,4.4-0.5,6.5,0.2c2.9,0.7,5.8,1.4,8.8,0.9c6.2-1.2,6.9-7.5,5.3-12.7
				c-1.7-5.4-5.9-9.8-10.8-12.7c-5.8-3.3-12.6-4.3-19.2-4.5c-1.7,0-3.4,0-5.1,0s-3.6,0.6-4.3-1.4c-0.9-2.5,0.5-5.6,2.6-7.1
				c5.6-4.2,13.6-2.3,19-7.2c2.5-2.2,3.2-5.3,3.2-8.5c0-1.9-0.3-4.1,0.4-5.9c0.6-1.7,2-3.7,4-3.2c0.7,0.2,1.4-0.2,1.5-0.9
				c0.1-0.3,0-0.6-0.1-0.9c-2.4-3.7-0.4-9.1,4.1-9.9c4.3-0.8,8.3,2.8,11.3,5.3c3.5,2.8,6.9,5.7,11.2,7c4.9,1.5,9.6,1,14.5-0.3
				s9-2,13.9-0.8c4.3,1.2,8.5,2.8,12.5,4.7c7.2,3.1,15.1,6.3,23,3.5c5.1-1.8,9.2-5.8,14.4-7.6c4.1-1.4,10-1.3,12.1,3.2
				c0.4,0.6,1.1,0.8,1.7,0.4c0.3-0.2,0.5-0.4,0.5-0.7c0.6-4.7,1.6-11.4,6.5-13.6c6.1-2.8,12.2,3.4,17.4,5.6
				c3.9,1.6,9.3,2.5,12.7-0.8c1.5-1.7,2.5-3.8,2.6-6.1c0.4-2.5,0.3-5.5,2.4-7.3h-1.7c4.1,4.8,8,9.7,12.2,14.3c1.4,1.5,2.9,2.9,5,3.1
				c2.6,0.3,4.9-1.2,7-2.4c5-2.8,10.6-5.1,16.5-4.6c5,0.4,9.5,3.3,11.8,7.7c0.7,1.4,2.9,0.2,2.2-1.3c-4.5-9.3-16.1-10.5-24.9-7.3
				c-2.6,1-5.1,2.2-7.4,3.6c-1.4,0.8-3,1.9-4.8,1.7c-1.4-0.3-2.6-1-3.4-2.2c-4.2-4.7-8.3-9.7-12.4-14.6c-0.5-0.5-1.3-0.5-1.8,0
				c-4.2,3.5-1.2,10.6-5.5,13.8c-4.8,3.5-11.4-1.1-15.5-3.4c-4.8-2.8-10.8-4.9-15.6-0.9c-4,3.3-5.1,9-5.7,13.9l2.3-0.3
				c-1.7-3.7-5.6-5.2-9.5-5.3c-4.9,0-9,2.4-13.1,5c-4.6,2.8-9.1,5-14.6,4.4c-4.6-0.5-9-2.3-13.1-4.2s-8.6-3.9-13.1-5
				c-4.8-1.1-9.8-0.9-14.5,0.6c-5.8,1.6-11.4,2.2-16.9-0.7c-4.4-2.3-7.8-6.2-12-8.8c-3.8-2.4-8.8-3.6-12.6-0.4
				c-3.4,3-4.1,7.9-1.8,11.7l1.4-1.8c-2.4-0.5-4.8,0.6-6,2.7c-1.9,2.8-1.5,6-1.5,9.2c-0.1,8.4-8.4,9-14.8,10.6
				c-5.3,1.3-10.8,4.7-10.3,10.8c0.1,1.8,1.2,4.5,3.2,5c1.6,0.3,3.6-0.1,5.2-0.1c2.1,0,4.1,0,6.1,0.2c7.2,0.5,14.6,2.3,19.9,7.4
				c2.4,2.2,4.2,5,5.2,8.1c1,3.2,1.3,7.8-2.6,9.1c-3.6,1.2-7.2-0.5-10.8-1s-6.2,0.4-9.4,1.8c-6.6,3-14.4,2.4-20.4-1.7
				c-5.1-3.6-9-10.8-15.9-11.1c-4.9-0.3-11.3,3.6-9.4,9.2l2.3-1c-2.5-5.3-10.2-5.6-14.1-1.8c-5.2,4.9-2.5,13.6,2.5,17.6l1.2-2.1
				c-6.9-1.7-14.2-0.7-20.4,2.7c-2.8,1.5-7.5,4.4-9.7,0.5c-1.7-3-0.5-6.6,0.6-9.6c1.2-3.3,2.2-6.5,1.5-10.1
				c-0.6-3.4-2.4-6.6-3.9-9.6c-2.7-5.2-7-10.4-13.4-9.5c-2.8,0.3-5.2,2.1-6.3,4.7c-0.8,1.8-1.4,7-4,6.8l1.1,0.6
				c-3.2-5-3.7-11.1-6.4-16.3c-2.2-4.1-6.5-8.2-11.4-8c-11.2,0.3-10.5,16.8-11.1,24.3l-1.9,23.6c0,0.7,0.6,1.2,1.3,1.2
				c0.1,0,0.2,0,0.3,0c6.6-2.3,13.8-2.5,20.5-0.4l-0.9-0.9c0.5,2.9-1.2,5.4-2.8,7.7s-3.4,4.6-4.3,7.3c-0.8,2.6-0.4,5.3,1,7.6
				c1.1,2,5.1,6.2,2.9,8.5l1.2-0.3c-17.7-4.4-36-5.7-54.2-3.9C-2.4,1252.1-2.5,1254.6-0.9,1254.4L-0.9,1254.4z"/>
			<path class="st1" d="M378.9,144.8c-18.1-1.9-36.5-0.6-54.1,3.9l1.2,0.3c-2.2-2.2,1.6-6.2,2.7-8.2c1.4-2.5,2.1-5.1,1.2-7.8
				s-2.6-4.8-4.1-7.1s-3.4-4.9-2.9-7.9l-0.9,0.9c6.7-2,13.9-1.9,20.5,0.4c0.7,0.2,1.4-0.2,1.5-0.9c0-0.1,0-0.2,0-0.3l-1.7-20.9
				c-0.5-5.8-0.4-11.9-1.8-17.6c-1-4.1-3.3-8.3-7.7-9.3c-4.9-1.1-9.4,2.2-12.1,6c-3.8,5.4-4,12.6-7.5,18.2l1.1-0.6
				c-2.5,0.2-3-4.1-3.6-5.8c-0.7-2.4-2.4-4.3-4.7-5.2c-5.8-2.2-11.1,1.9-14,6.6c-3.6,5.7-6.9,12.5-4.8,19.3c1,3.3,2.8,6.5,2.4,10
				c-0.1,1.5-0.9,2.9-2.1,3.8c-1.9,1.2-4.2,0.2-6-0.7c-3.6-1.8-6.8-3.6-10.8-4.3c-4-0.7-8.1-0.6-12,0.4l1.2,2.1
				c5-3.9,7.7-12.6,2.5-17.5c-4-3.7-11.7-3.5-14.1,1.8l2.3,1c1.6-4.9-3.1-8.5-7.5-9.1c-5.9-0.8-10.2,3.9-14,7.7
				c-5.1,5-11.7,8-19,6.8c-3.4-0.6-6.3-2.5-9.6-3.3c-3.7-0.9-7.2,0.5-10.8,1.1c-3.5,0.6-7.7-0.2-8-4.4c-0.1-3.3,0.8-6.5,2.6-9.2
				c3.8-5.9,10.3-9.1,17-10.4c3.9-0.7,7.9-1,11.9-0.9c1.7,0,3.8,0.4,5.4,0.1c1-0.3,1.9-1,2.4-1.9c3-4.5-0.4-10.3-4.7-12.4
				c-5.6-2.8-16.8-1.6-19-9c-1.1-3.8,0.5-7.8-1.4-11.5c-1.3-2.5-3.7-4.3-6.6-3.7l1.4,1.8c2.1-3.4,1.7-7.7-0.8-10.7
				c-2.7-3.3-7.2-3.7-10.9-2.1c-4.4,1.9-7.8,5.5-11.6,8.3c-4.5,3.4-10.1,4.8-15.7,3.8c-2.9-0.6-5.7-1.7-8.7-2.2
				c-2.3-0.4-4.6-0.4-6.9-0.1c-4.6,0.6-8.9,2.4-13.2,4.2s-8.4,3.8-12.9,4.9c-4.9,1.3-10.1,0.6-14.6-1.8c-4.9-2.6-9.2-6.4-14.9-6.9
				c-4.3-0.4-9.1,1-11.1,5.2l2.3,0.3c-0.6-4.8-1.7-10.5-5.7-13.9c-4.8-4-10.8-1.8-15.6,0.9c-4.1,2.3-10.7,6.9-15.4,3.5
				c-4.3-3.2-1.2-10.2-5.5-13.8c-0.5-0.5-1.3-0.5-1.8,0c-4,4.8-8,9.7-12.2,14.4c-0.8,1.1-1.8,1.9-3.1,2.4c-1.8,0.4-3.5-0.7-5-1.5
				c-2.5-1.5-5.1-2.7-7.7-3.8c-8.7-3.2-20.4-2-24.9,7.3c-0.7,1.5,1.5,2.7,2.2,1.3c2.2-4.5,6.8-7.2,11.8-7.7
				c5.8-0.6,11.5,1.7,16.5,4.6c2,1.2,4.3,2.6,6.8,2.5c2.2-0.2,3.8-1.6,5.2-3.2c4.1-4.7,8.1-9.6,12.2-14.4h-1.8
				c2.1,1.7,2,4.6,2.4,7.1c0.3,2.3,0.9,4.6,2.6,6.3c3.4,3.2,8.8,2.4,12.7,0.8c5.3-2.2,11.3-8.4,17.4-5.6c4.9,2.2,5.9,8.9,6.5,13.6
				c0.2,0.7,0.9,1.1,1.5,0.9c0.3-0.1,0.6-0.3,0.8-0.6c1.9-4,6.8-4.6,10.7-3.6c4.6,1.1,8.4,4.4,12.5,6.6c8,4.1,15.9,2.3,23.9-1
				s16.3-8,25.2-5.9c4.9,1.1,9.4,2.8,14.5,2.1c4.4-0.7,8.5-2.6,11.9-5.5c3.6-2.8,7.6-7.3,12.4-7.6c5.2-0.4,8.5,5.6,5.8,10
				c-0.3,0.6-0.1,1.4,0.5,1.7c0.3,0.1,0.6,0.2,0.9,0.1c3.9-0.9,4.5,4.9,4.4,7.4c-0.1,3.1-0.1,6.3,1.9,8.9c3.7,4.9,10.3,5,15.7,6.5
				c3,0.8,6.1,2.3,7.1,5.5c0.4,1.1,0.5,2.3,0.2,3.5c-0.6,2-2.2,1.7-4,1.6c-7-0.1-14.3,0.1-20.9,2.7c-5.3,2-9.8,5.7-12.8,10.5
				c-2.4,4.1-4.5,11.7,0.1,15.1c5.7,4.3,12.4-1.2,18.4,0.4c3.2,0.8,6,2.6,9.3,3.2c2.9,0.5,5.9,0.5,8.8-0.1c3.3-0.7,6.4-2.1,9.1-4.1
				c2.7-2.1,4.9-4.7,7.5-6.9s5.4-3.9,8.7-3.1c2.7,0.6,5.7,2.7,4.7,5.8c-0.5,1.3,1.7,2.3,2.3,1c1.8-4,7.7-4,10.5-1
				c3.9,4.2,1,10.7-2.8,13.7c-1,0.8,0.1,2.4,1.2,2.1c6.5-1.5,13.3-0.6,19.1,2.8c2.4,1.3,5,2.8,7.8,2.5c2.2-0.3,4.1-1.6,5-3.6
				c2.5-5.1-0.5-10-1.8-14.9c-1-3.6,0-6.9,1.6-10.2c1.2-2.8,2.6-5.4,4.4-7.8c1.8-2.3,4.1-4.2,7.2-4.3c2.6-0.3,5.1,1.4,5.9,3.9
				c0.7,1.9,1.1,4.1,2.3,5.8c0.8,1.2,2.7,2.5,4.2,1.8c1-0.4,1.5-1.9,1.9-2.8c0.6-1.3,1.1-2.6,1.6-4c1-3.1,1.8-6.3,3.1-9.2
				c2.2-4.9,8.9-10.8,13.9-5.7c2,2,2.7,5,3.2,7.6c0.6,3.7,0.7,7.4,1,11.1l2,24.8l1.6-1.2c-7.1-2.4-14.7-2.6-21.8-0.4
				c-0.4,0.1-0.8,0.4-0.9,0.9c-0.9,4.7,2.2,8.3,4.6,12c1.3,1.9,2.8,4.1,2.7,6.5c-0.1,2.7-2.1,5-3.4,7.2c-1,1.8-2.1,3.9-1.4,6
				c0.3,0.9,0.9,1.7,1.7,2.1c1.2,0.4,3.6-0.7,4.8-1c7.7-1.7,15.6-2.8,23.5-3.4c8.6-0.6,17.3-0.4,25.9,0.5c1.6,0.2,1.6-2.3,0-2.5
				L378.9,144.8z"/>
		</g>
	</g>
</g>
</svg>
