<svg xmlns="http://www.w3.org/2000/svg" viewBox="0 0 173.06 77.55"><defs><style>.cls-1{fill:#1d1d1b;}</style></defs><g id="Calque_2" data-name="Calque 2"><g id="header"><path class="cls-1" d="M3.4,68.12c-1.77-1.52-2-3.92-2.16-6.1C1,59.4.48,56.53.91,53.93a17.31,17.31,0,0,1,3-6.48A25.28,25.28,0,0,1,8.51,42.1c3.47-3,8.15-3.9,11.06-7.58a17.12,17.12,0,0,0,1.53-2.4,4.12,4.12,0,0,1,3.09-2.45c1.1-.2,2.23-.33,3.34-.49,1.69-.24,3.57-.91,4.66.84s1.93,3.91,3.15,5.75a36.79,36.79,0,0,0,4.14,5.17c1.65,1.72,3.89,3.11,5.2,5.11s1.59,4.6,2.11,6.86c.62,2.62,1.72,5.48.8,8.14a40.76,40.76,0,0,1-3.28,7,16.79,16.79,0,0,1-4.69,5.4,11.17,11.17,0,0,1-7.08,1.93c-2.93-.09-6,.45-8.88,0a27.15,27.15,0,0,0-4-.77,6.15,6.15,0,0,0-2.79.89c-5.13,2.54-11-3-13.29-7.2-.23-.42-.87,0-.64.38,2.09,3.85,6.13,7.66,10.67,8.2a5.73,5.73,0,0,0,2.95-.4c.47-.2.9-.47,1.36-.68a4.62,4.62,0,0,1,3.15-.24,22.41,22.41,0,0,0,3.71.68c1.53.07,3.05-.11,4.58-.17,2.76-.11,5.51.38,8.16-.66a13.54,13.54,0,0,0,5.38-4.06,29.19,29.19,0,0,0,3.94-6.71c1-2.23,2.14-4.39,1.77-6.91a87.6,87.6,0,0,0-2-8.6,10.91,10.91,0,0,0-3.74-6,38.7,38.7,0,0,1-9.7-12.71,4.42,4.42,0,0,0-1.58-2.08,4.57,4.57,0,0,0-3-.09c-1.36.19-2.72.37-4.08.58a5,5,0,0,0-3.09,1.28,13.77,13.77,0,0,0-1.63,2.61A12.55,12.55,0,0,1,17.08,36c-2.11,1.74-4.75,2.61-7,4a21.42,21.42,0,0,0-5.69,5.5,21.82,21.82,0,0,0-4,7.54c-.71,3,0,6.33.2,9.33.19,2.26.53,4.67,2.35,6.23.37.32.9-.21.53-.53Z"/><path class="cls-1" d="M23.74,29a1.53,1.53,0,0,1-.27-1.58,11.34,11.34,0,0,0,.5-1.88c.13-1.25-.36-2.53-.08-3.77,0-.17.16-.75.37-.67s.11.74.1.95a1.8,1.8,0,0,0,.55,1.4c.79.78,1.9.79,2.87,1.18a1.84,1.84,0,0,1,1.15,1.48c.16.77.26,1.57.38,2.34.07.48.79.28.72-.2-.13-.8-.21-1.61-.39-2.41a2.5,2.5,0,0,0-1-1.62,5.8,5.8,0,0,0-1.8-.65,2.33,2.33,0,0,1-1.6-1,2.36,2.36,0,0,1-.05-1.09,1.29,1.29,0,0,0-.31-.9.83.83,0,0,0-1.36.14c-.8,1.28-.24,2.9-.24,4.29s-1.37,3.28,0,4.49c.36.33.89-.2.53-.53Z"/><path class="cls-1" d="M23.91,29.4c.08,1.18-.82,2-1.47,2.9a6.83,6.83,0,0,0-1.12,2.78,6.2,6.2,0,0,1-1.05,2.84,7.8,7.8,0,0,1-2.46,1.7.39.39,0,0,0,.09.69,3.8,3.8,0,0,0,2.94-.5c1-.69,1.39-1.79,2-2.8.34-.55.77-1,1.13-1.54a6,6,0,0,0,.79-1.66c.44-1.39.82-2.8,1.23-4.2a.37.37,0,0,0-.72-.2L24.22,33a7.62,7.62,0,0,1-.61,1.65,12.32,12.32,0,0,1-1,1.4,26.49,26.49,0,0,1-1.7,2.76,3,3,0,0,1-2.81.79l.09.69a8.49,8.49,0,0,0,2.61-1.81A6,6,0,0,0,22,35.61a14.18,14.18,0,0,1,.38-1.56,5.57,5.57,0,0,1,1-1.65,4.44,4.44,0,0,0,1.35-3c0-.47-.78-.48-.75,0Z"/><path class="cls-1" d="M26.62,29.6c.61,1.33-.19,2.95-.61,4.23l-1.33,4L22,46.08c-.13.39.5.67.68.29.73-1.51,1.71-2.86,2.52-4.31a24.86,24.86,0,0,0,1.75-4,25,25,0,0,0,1.32-9c0-.48-.77-.48-.75,0a24.38,24.38,0,0,1-1.29,8.81,23.6,23.6,0,0,1-1.83,4C23.62,43.3,22.71,44.57,22,46l.68.29,3-9.19c.49-1.49,1-3,1.47-4.48a4.52,4.52,0,0,0,.07-3.39c-.2-.43-.85,0-.65.38Z"/><path class="cls-1" d="M28.75,29.75c1.17,0,1.33,3.15,1.46,3.94.24,1.37.46,2.75.72,4.12a29.5,29.5,0,0,0,2.53,7.95.38.38,0,0,0,.7-.19,52.67,52.67,0,0,0-1.7-9.37c-.55-2.56-.78-5.7-2.55-7.77-.31-.37-.84.16-.53.53a7.75,7.75,0,0,1,1.49,3.47c.33,1.43.63,2.86.94,4.29a50.42,50.42,0,0,1,1.6,8.85l.7-.19a32.93,32.93,0,0,1-2.77-9.53c-.27-1.57-.52-3.14-.84-4.7-.2-1-.59-2.14-1.75-2.15a.38.38,0,0,0,0,.75Z"/><path class="cls-1" d="M20.8,74.34c-.41-3.46-.72-6.93-.91-10.41s-.55-7,.4-10.24l-.72-.2a110.55,110.55,0,0,0-1.52,11c-.24,3.4-.43,7.21.82,10.45.18.45.9.25.73-.2-1.23-3.17-1-6.91-.8-10.25.26-3.64.88-7.23,1.49-10.82a.37.37,0,0,0-.72-.2c-.93,3.23-.62,6.71-.45,10q.28,5.41.93,10.82c.06.47.81.47.75,0Z"/><path class="cls-1" d="M1.87,64.28a34.16,34.16,0,0,1,.06-7.36,24.93,24.93,0,0,1,2.43-6.77c.21-.43-.44-.81-.65-.37a25.74,25.74,0,0,0-2.5,6.94,34.13,34.13,0,0,0-.09,7.56c0,.48.78.48.75,0Z"/><path class="cls-1" d="M43.17,66.45a8.15,8.15,0,0,1-1.3-3.89,9,9,0,0,1,.1-2,3.09,3.09,0,0,0,0-1.54,1.42,1.42,0,0,0-2.53-.1,3.85,3.85,0,0,0-.53,1.82,6.84,6.84,0,0,0,0,2c.07.44.29,1.64,1,1.43s.57-1.26.5-1.75l-.27.46c.35-.07.29,1.13.33,1.34a2.83,2.83,0,0,0,.47,1.08,7.65,7.65,0,0,0,1.8,1.7c.39.29.76-.36.38-.64a4.57,4.57,0,0,1-1.89-2.17c-.14-.5,0-1.07-.23-1.54a1,1,0,0,0-1.06-.49.39.39,0,0,0-.26.46,1.9,1.9,0,0,1,0,.63,2.5,2.5,0,0,1-.07.26l.33,0s-.18-.49-.19-.55a2.88,2.88,0,0,1-.09-.4,6.64,6.64,0,0,1,0-2c.08-.57.21-1.35.82-1.59s.84.33.83.83-.15,1.11-.19,1.67a9.67,9.67,0,0,0,.09,1.86,9,9,0,0,0,1.33,3.49c.26.41.9,0,.64-.38Z"/><path class="cls-1" d="M21.68,54.64l-.45,2.49c-.1.55-.42,1.5.21,1.87a.67.67,0,0,0,.89-.32,4.28,4.28,0,0,0,.34-.79.94.94,0,0,1,.39-.54c.32-.17.62-.33.65-.74a1.59,1.59,0,0,0-.52-1.08l-.87-1.06a.37.37,0,0,0-.53,0,.38.38,0,0,0,0,.53l.63.76a3.36,3.36,0,0,1,.51.68.21.21,0,0,1,0,.11s0,0,0,0-.22.11-.29.15a1.39,1.39,0,0,0-.53.52,5.17,5.17,0,0,0-.28.64,2.33,2.33,0,0,1-.11.28s-.06.1-.08.14,0,0,0,0l.14,0s0,0,0,0,0-.06,0-.07a.7.7,0,0,1,0-.2c0-.34.12-.68.18-1l.42-2.26a.39.39,0,0,0-.27-.46.38.38,0,0,0-.46.26Z"/><path class="cls-1" d="M29.34,54.06c-.36.18-.73.36-1.09.56a1,1,0,0,0-.43.39.67.67,0,0,0,.1.75A1,1,0,0,0,29,56a1.4,1.4,0,0,0,.83-.62A1.33,1.33,0,0,0,30,54.28a.37.37,0,0,0-.46-.26.38.38,0,0,0-.27.46l0,.09c0,.08,0-.09,0,0v.09s0,.14,0,0l0,.15,0,.07c0-.09,0,0,0,0l0,0-.09.14c0,.05.06-.07,0,0l0,0-.07.08a.15.15,0,0,0-.06,0l0,0,0,0-.15.08c.07,0,.07,0,0,0h-.05l-.08,0h0s-.05,0,0,0h-.18c.09,0,.07,0,0,0h-.08c-.07,0,.07,0,0,0s-.05,0-.07,0,.05,0,0,0h0c0,.05,0,0,0,0s0,.1,0,0,0,0,0,.05,0,0,0,0,0,.1,0,0,0,0,0,0,0,0,0,0l0,0,0,0s0,0,0,0a1.51,1.51,0,0,0,.17-.1l1-.54a.37.37,0,0,0-.38-.64Z"/><path class="cls-1" d="M9,58.79a2.23,2.23,0,0,0,.94-1.17,4.4,4.4,0,0,0,.36-1.68,2.3,2.3,0,0,0-1.64-2.3c-.21,0-.5.11-.47.36a7.13,7.13,0,0,1-.44,3.45,2.23,2.23,0,0,0-.26.83.8.8,0,0,0,.39.6,1.25,1.25,0,0,0,1.43-.37c.37-.32-.16-.85-.53-.53-.11.1-.27.26-.43.26a.13.13,0,0,1-.12,0v0a.49.49,0,0,1,0-.11,10.64,10.64,0,0,0,.47-1.34A7.65,7.65,0,0,0,8.89,54l-.48.36A1.59,1.59,0,0,1,9.5,56a3.91,3.91,0,0,1-.28,1.26,1.54,1.54,0,0,1-.65.85c-.42.24,0,.88.38.65Z"/><path class="cls-1" d="M11.49,49.07a3.69,3.69,0,0,0-.62,2.09.38.38,0,0,0,.64.26,3,3,0,0,0,.9-2.18.39.39,0,0,0-.38-.38.38.38,0,0,0-.37.38,2.18,2.18,0,0,1,0,.25v.06s0,.09,0,0,0,0,0,0v.06a2.9,2.9,0,0,1-.14.48c0-.07,0,0,0,.06l-.06.11a2.39,2.39,0,0,1-.13.21.61.61,0,0,1-.07.1s0,.08,0,0,0,0,0,0l-.18.19.64.27a2.44,2.44,0,0,1,0-.27.28.28,0,0,1,0-.09s0-.16,0-.07a4,4,0,0,1,.11-.47,2.09,2.09,0,0,1,.08-.23s0-.11,0,0l.05-.12a3,3,0,0,1,.25-.43.38.38,0,0,0-.13-.52.39.39,0,0,0-.52.14Z"/><path class="cls-1" d="M23.66,28.58c.21-.45.89-.29,1.28-.33a1.6,1.6,0,0,0,1.13-.57,1.52,1.52,0,0,0,.26-1.27,1.9,1.9,0,0,1-.06-.71c0-.14.18-.49.31-.54l-.29,0c-.1-.07-.11-.07,0,0l.06.07a1.2,1.2,0,0,1,.15.24,4.9,4.9,0,0,1,.24.52c.18.4.34.81.52,1.22a2.18,2.18,0,0,0,.62.82c.27.22.59.37.84.61a.38.38,0,0,0,.53-.53c-.3-.3-.7-.46-1-.74a3.87,3.87,0,0,1-.65-1.26,5.69,5.69,0,0,0-.66-1.33c-.13-.18-.29-.38-.53-.37s-.36.18-.48.35a1.67,1.67,0,0,0-.39,1.28c.05.4.25.9-.11,1.2s-.91.19-1.36.25a1.27,1.27,0,0,0-1,.66c-.2.44.45.82.65.38Z"/><path class="cls-1" d="M103.87,76.62a172.8,172.8,0,0,0-6.08-24.23q-2-5.94-4.35-11.73a12.61,12.61,0,0,0-.93-2c-.43-.68-1.08-1.06-1.45-1.78s-.25-1-.17-1.76a6,6,0,0,0,0-1.12,6.74,6.74,0,0,0-.48-2,11.7,11.7,0,0,0-3.19-4.22c-1.37-1.23-4.69-3.63-2.41-5.6l-.46.05c.83.62,2.54,2.38,2.84.38.16-1.05-.09-1.92.56-2.9a6.83,6.83,0,0,1,3.41-2.41c1-.38,4-.87,4.17-2.23.19-1.89-2.63-.56-3.17-1.36l-.13.52a5.23,5.23,0,0,1,1.45-.79.36.36,0,0,0,.26-.26,1.19,1.19,0,0,0-.57-1.31,2.45,2.45,0,0,0-1-.33c-.39,0-1.17.14-1.5-.06-1-.66-.15-2.82-.07-3.8a7.65,7.65,0,0,0-.45-3.58c-.08-.2-.34-.39-.56-.23a2.23,2.23,0,0,0-.82,1.07l.73.2a4.14,4.14,0,0,0-.66-3.44.39.39,0,0,0-.69.09,41,41,0,0,0-1,5.14h.75A20.32,20.32,0,0,0,86.45.27a.38.38,0,0,0-.68-.09,10.94,10.94,0,0,0-1.38,4.7l.73-.1A4.81,4.81,0,0,0,82.66,1.7a.38.38,0,0,0-.55.43l2,5.91.69-.29L83.17,4.87a.38.38,0,0,0-.69.09,5.91,5.91,0,0,0-.2,2.92l.62-.37a2.66,2.66,0,0,1-1-1.53.37.37,0,0,0-.72,0l-.31,1.31h.72A9.25,9.25,0,0,0,80,3.59c-.15-.2-.52-.28-.65,0a15.85,15.85,0,0,0-1.46,6.16l.56-.32a17.37,17.37,0,0,0-4-2.07c-.34-.12-.54.29-.42.56l2.62,5.77.42-.55a2.48,2.48,0,0,0-2.56,0,1.28,1.28,0,0,0-.33,1.73c.52.71,1.89.76,2.68.8.41,0,.93-.08,1.3.16a3.25,3.25,0,0,1,.72,1.08,7,7,0,0,1,.74,2.37l.36-.48a13.1,13.1,0,0,1-1.65-.13c-.34-.05-.68.35-.37.63a6.82,6.82,0,0,1,2.19,4.17l.55-.43C76,19.9,74.41,14.22,73,9.11a.38.38,0,0,0-.72,0,26.69,26.69,0,0,0-.77,8.11.38.38,0,0,0,.75,0,7.61,7.61,0,0,0-6-7.38c-.26-.05-.58.18-.47.47l2.46,6.31.55-.42a6.88,6.88,0,0,0-4.57-1,.38.38,0,0,0-.36.48,13.53,13.53,0,0,0,3.7,6.9l.17-.63a12.38,12.38,0,0,0-4.67,2.57c-.27.23,0,.62.26.64a34.75,34.75,0,0,1,7.82,1.56l.1-.74L67,26.38a.38.38,0,0,0-.36.48A4.74,4.74,0,0,1,65,32.15a.38.38,0,0,0,.19.7c4.38.53,6.45-4.48,10.38-5.29l-.48-.36a13.14,13.14,0,0,0,.35,4.63.38.38,0,0,0,.68.09,6.59,6.59,0,0,0,1.23-3.39l-.28.36.78,0c.21.05.5-.11.47-.36a5.82,5.82,0,0,1,.11-1.95l-.46.27c1.69.63,2.2,2.55,2.79,4.06a13.59,13.59,0,0,0,1.95,3.44c2,2.57,4.69,4.47,6.84,6.9,2.67,3,4.12,6.83,5.54,10.53s2.77,7.58,4,11.43q2.07,6.69,3.61,13.52c.11.47.83.27.72-.2a180.63,180.63,0,0,0-7.49-24.73c-1.38-3.6-2.77-7.34-5.22-10.37-2.12-2.63-4.95-4.58-7.09-7.18a19.37,19.37,0,0,1-2.72-5.12,5,5,0,0,0-2.7-3,.38.38,0,0,0-.46.26,6.22,6.22,0,0,0-.14,2.15l.48-.36a2.77,2.77,0,0,0-1.18,0,.38.38,0,0,0-.27.36,5.87,5.87,0,0,1-1.13,3l.69.09a12.71,12.71,0,0,1-.32-4.43c0-.26-.26-.4-.47-.36-3.85.79-6,5.76-10.18,5.26l.19.7a5.49,5.49,0,0,0,1.92-6.14l-.36.47,4.32-.43a.38.38,0,0,0,.1-.74,35.28,35.28,0,0,0-8-1.58l.27.64A11.6,11.6,0,0,1,68,22.64a.37.37,0,0,0,.16-.62,12.88,12.88,0,0,1-3.51-6.57l-.36.47a6.24,6.24,0,0,1,4.19.93c.26.16.67-.11.55-.43l-2.45-6.31-.46.46a6.84,6.84,0,0,1,5.45,6.65h.75A26,26,0,0,1,73,9.31h-.72c1.42,5.32,3.15,11.12,8,14.35.3.21.59-.13.55-.42a7.43,7.43,0,0,0-2.38-4.5l-.36.62a14.44,14.44,0,0,0,1.85.16.37.37,0,0,0,.36-.47,7.7,7.7,0,0,0-.63-2.2c-.23-.47-.76-1.61-1.29-1.88s-1-.05-1.56-.08a4,4,0,0,1-1.6-.26c-1.54-1.29,1-1,1.61-.77.34.14.54-.29.43-.55L74.64,7.54l-.43.55a16.73,16.73,0,0,1,3.82,2,.38.38,0,0,0,.56-.33A14.83,14.83,0,0,1,80,4H79.3a8.85,8.85,0,0,1,1.59,3.52.37.37,0,0,0,.72,0l.31-1.32H81.2A3.26,3.26,0,0,0,82.37,8,.38.38,0,0,0,83,7.68a5,5,0,0,1,.21-2.52l-.69.09,1.65,2.88c.21.36.83.12.69-.29l-2-5.91-.55.42A4.1,4.1,0,0,1,84.4,5a.38.38,0,0,0,.74-.1A10.15,10.15,0,0,1,86.41.56L85.73.47a19.9,19.9,0,0,1,1.41,6.46.38.38,0,0,0,.75,0,37.92,37.92,0,0,1,1-4.94l-.69.09a3.4,3.4,0,0,1,.58,2.86.38.38,0,0,0,.73.2L90,4.52l-.55-.22a8,8,0,0,1,.31,4.35c-.13.84-.65,2-.24,2.85a1.72,1.72,0,0,0,1.54.77c.21,0,.42,0,.63,0s1.36.13,1.31.56c0,.07-1.15.63-1.3.74a.38.38,0,0,0-.14.51,1.29,1.29,0,0,0,.86.61,2.42,2.42,0,0,0,.76,0c.5,0,.59-.25.83.3.32.7-.84.79-1.38,1l-1.22.43a13,13,0,0,0-2.06.91,5.75,5.75,0,0,0-2.61,2.81,4,4,0,0,0-.26,1.61c0,.47.09.88-.44.78-.37-.07-1-.72-1.26-.94a.36.36,0,0,0-.45.06,2.89,2.89,0,0,0-.7,3.28c.59,1.54,2.09,2.45,3.26,3.5a9.76,9.76,0,0,1,3.21,4.92c.31,1.5-.66,3.28.53,4.49a13.71,13.71,0,0,1,1.07.95A5.08,5.08,0,0,1,92.34,40c.49,1.09.91,2.2,1.35,3.3q1.22,3.07,2.31,6.19c1.46,4.15,2.76,8.37,3.9,12.62q1.95,7.29,3.25,14.74c.08.48.81.28.72-.2Z"/><path class="cls-1" d="M104.61,76.85a55.88,55.88,0,0,1-18.3-16.74c-.89-1.3-1.58-2.72-3.18-3.22a5.12,5.12,0,0,1-2.84-1.67,8.22,8.22,0,0,1-1.36-3c-.67-2.59-1.16-7.34-4.82-7.34-1.8,0-3.2,1.36-4.07,2.82a73.22,73.22,0,0,0-3.31,7.13l.69.19a13.79,13.79,0,0,1,0-3.08.38.38,0,0,0-.48-.36L63.49,53l.47.36.21-2.11c.07-.69,0-1.93.68-2.34a.38.38,0,0,0-.38-.65c-2.64,1.32-5.45-1.16-8.18-1l.26.64a3.69,3.69,0,0,1,2.9-.88v-.75a3.81,3.81,0,0,1-3.36-3.11l-.55.43,2.2,1c.27.12.66-.08.55-.43l-.74-2.25-.63.36c1.12,1.39,3.22,3.12,4.83,1.31a.37.37,0,0,0-.17-.62,6,6,0,0,1-4.38-3.41l-.52.51,3,1.7c.3.17.74-.19.51-.51A10.92,10.92,0,0,1,58.58,38l-.46.46q2.94,1,5.86,2.07c.38.14.59-.37.36-.63-1.14-1.28-2.42-2.83-2-4.67l-.68.09a5.09,5.09,0,0,0,2.26,1.92c.61.26,2.06.7,2.7.3.34-.21.26-.61.42-.9.52-.94.63-.47,1.2,0a5.65,5.65,0,0,0,3.36,1.07.38.38,0,0,0,.27-.64A16.92,16.92,0,0,0,66,33.41v.73a50,50,0,0,1,7-.64.38.38,0,0,0,.33-.56,3.69,3.69,0,0,1,0-3.82h-.65a32.64,32.64,0,0,0,4.08,5.15.38.38,0,0,0,.63-.37,4.67,4.67,0,0,1,1.35-4.82h-.53a17,17,0,0,1,1.94,2.8c.48.94.69,2,1.1,2.95a4.09,4.09,0,0,0,2.68,2.32c2.13.91-2.36,4-3,4.9-.81,1.16-.14,2.47.81,3.31A9.32,9.32,0,0,1,84,47.53a8.14,8.14,0,0,1,.87,2.89,34.5,34.5,0,0,0,1,6c1.33,4,4.2,7,7.11,10A125.76,125.76,0,0,0,104.36,77c.37.3.91-.23.53-.53a112.47,112.47,0,0,1-10-9.25c-3.23-3.28-6.73-6.51-8.22-11a31.49,31.49,0,0,1-1-5.79,7.34,7.34,0,0,0-1.8-4.34c-.7-.69-1.69-1.12-2.22-2-.93-1.49.88-2.41,1.77-3.29.74-.73,2.52-2.33,1.91-3.53a2.35,2.35,0,0,0-1.39-.94A3.34,3.34,0,0,1,81.71,34a20.34,20.34,0,0,0-.94-2.5,18.28,18.28,0,0,0-2-2.95.37.37,0,0,0-.53,0,5.42,5.42,0,0,0-1.55,5.55l.63-.36a31.77,31.77,0,0,1-4-5,.38.38,0,0,0-.65,0,4.5,4.5,0,0,0,0,4.58l.32-.57a51.26,51.26,0,0,0-7.21.66c-.4.07-.31.62,0,.73a15.83,15.83,0,0,1,5.59,3.43l.26-.64A5.41,5.41,0,0,1,68,35.43a.88.88,0,0,0-1.25-.09,1.43,1.43,0,0,0-.33.47c-.24.5-.09,1-.71,1.1-1.29.24-2.78-1-3.44-1.95a.38.38,0,0,0-.68.09c-.51,2.14.83,3.89,2.18,5.4l.37-.62-5.86-2.08a.38.38,0,0,0-.46.47,11.47,11.47,0,0,0,1.73,3.35l.51-.51-3-1.7a.37.37,0,0,0-.51.51,6.73,6.73,0,0,0,4.83,3.75L61.22,43c-1.29,1.45-2.92-.26-3.77-1.31-.24-.29-.74,0-.63.37l.74,2.25.55-.42-2.2-1a.38.38,0,0,0-.55.42A4.58,4.58,0,0,0,59.45,47c.48,0,.48-.7,0-.75A4.4,4.4,0,0,0,56,47.35a.38.38,0,0,0,.27.64c3-.14,5.63,2.39,8.56.93l-.38-.65a1.94,1.94,0,0,0-.89,1.47c-.2,1.19-.25,2.43-.37,3.63a.38.38,0,0,0,.48.36l3.46-1.45-.47-.37a13.79,13.79,0,0,0,0,3.08c0,.32.53.57.7.19.89-2,1.75-3.91,2.66-5.84s2.46-4.4,4.85-3.62c1.94.62,2.52,3.05,2.9,4.78a13.58,13.58,0,0,0,1.67,4.85,5.94,5.94,0,0,0,3.49,2.26c1.81.64,2.83,3.08,3.93,4.56a56.37,56.37,0,0,0,17.36,15.32c.42.24.8-.41.38-.64Z"/><path class="cls-1" d="M64.9,19c-.51.72-1.21-.13-1.44-.52a7.83,7.83,0,0,1-.45-1l-.9-2.21a.38.38,0,0,0-.74.1,10.74,10.74,0,0,0,2.35,8.1l.45-.59c-2.38-1.3-5.19-2.22-7.79-1a.38.38,0,0,0-.07.59c.91,1.16,2.6.93,3.56,2,.8.87,1,2.27,2.31,2.53v-.72a17,17,0,0,1-5.27.33.38.38,0,0,0-.26.64,8.74,8.74,0,0,0,6,2.27l-.19-.69c-1.17.69-2.68.31-3.83,1.08a1.79,1.79,0,0,0-.65,2.4.36.36,0,0,0,.32.19,12.44,12.44,0,0,1,4.46.42,4.72,4.72,0,0,0,3.18-.53c.43-.2,0-.85-.38-.65a4.62,4.62,0,0,1-1.94.56,10.08,10.08,0,0,1-1.87-.41,10.25,10.25,0,0,0-3.45-.14l.32.19C57.83,30.53,60,30.12,60.8,30a5.17,5.17,0,0,0,2-.59.38.38,0,0,0-.19-.7,7.93,7.93,0,0,1-5.47-2.05l-.27.64A17.64,17.64,0,0,0,62.38,27a.37.37,0,0,0,0-.72C61.22,26,61,24.31,60.09,23.62s-2.46-.68-3.25-1.69l-.08.59c2.32-1.1,4.92-.16,7,1a.38.38,0,0,0,.46-.59,10,10,0,0,1-2.13-7.57l-.73.1,1,2.36a5,5,0,0,0,.87,1.62,1.48,1.48,0,0,0,2.33,0c.28-.4-.37-.77-.65-.38Z"/><path class="cls-1" d="M85.51,35.64a3.9,3.9,0,0,0-1.12-2.54l-.37.63a6.71,6.71,0,0,1,3.57,1.76.38.38,0,0,0,.64-.27,4.55,4.55,0,0,0-1.08-3.08c-.75-.87-1.79-1.43-2.52-2.33l-.16.63c.78-.27,1.7.54,2.29,1a12.06,12.06,0,0,1,1.86,1.71c.28.31.85-.11.59-.46a24.1,24.1,0,0,0-5.69-5.53l-.19.7a4.74,4.74,0,0,1,4.26,1.81c.28.38.94,0,.64-.38a5.45,5.45,0,0,0-4.9-2.18.38.38,0,0,0-.19.7,22.94,22.94,0,0,1,5.42,5.26l.59-.45a13.75,13.75,0,0,0-2.24-2c-.74-.53-1.68-1.21-2.64-.88a.37.37,0,0,0-.17.62,29,29,0,0,0,2.25,2,3.83,3.83,0,0,1,1.13,2.84l.64-.26a7.45,7.45,0,0,0-3.9-2,.38.38,0,0,0-.36.63,3.16,3.16,0,0,1,.9,2c0,.48.78.48.75,0Z"/><path class="cls-1" d="M80,55a2.35,2.35,0,0,1,1.59.08c.4.16.56-.37.37-.63A7.67,7.67,0,0,1,81,53a5.83,5.83,0,0,1-.59-1.62,2.07,2.07,0,0,1,0-.25c-.14,0-.17,0-.1.09l.12.12.75.72,1.42,1.37a.38.38,0,0,0,.63-.37,31.5,31.5,0,0,1-1-5l-.48.36a3.66,3.66,0,0,1,2.61,2.13c.19.44.84.06.65-.38A4.35,4.35,0,0,0,82,47.68c-.21,0-.5.1-.47.36a33.79,33.79,0,0,0,1,5.2l.63-.36-2-1.91c-.24-.23-.49-.55-.85-.56a.65.65,0,0,0-.61.51,1.66,1.66,0,0,0,.07.91,9.35,9.35,0,0,0,.4,1.12,9.12,9.12,0,0,0,1.22,2l.36-.62a3,3,0,0,0-2-.08A.37.37,0,0,0,80,55Z"/><path class="cls-1" d="M61.7,45.8a43.44,43.44,0,0,0,8.87-1.06c.41-.09.33-.77-.1-.73a1.81,1.81,0,0,0-1.26.73A6,6,0,0,1,68,45.8a9.61,9.61,0,0,0-2.59,1.82l.59.45a8.58,8.58,0,0,1,2-2.2c.38-.3-.16-.83-.53-.53a8.93,8.93,0,0,0-2.07,2.35c-.22.36.31.79.59.46a8.48,8.48,0,0,1,2.32-1.64,5.63,5.63,0,0,0,1.07-.82c.31-.32.63-.89,1.11-.93l-.1-.74a42.88,42.88,0,0,1-8.67,1,.38.38,0,0,0,0,.75Z"/><path class="cls-1" d="M71.47,42.88c-2.63-.42-4.21-2.72-5.58-4.78l-.59.46c1.18,1.4,2.33,2.83,3.43,4.3l.42-.55a22,22,0,0,0-5.78-1.17c-.49,0-.48.71,0,.75A20.9,20.9,0,0,1,69,43c.29.1.62-.29.43-.55Q67.66,40.2,65.83,38c-.27-.33-.82.1-.58.45,1.46,2.21,3.2,4.67,6,5.12.47.08.67-.64.2-.72Z"/><path class="cls-1" d="M77.29,40.77l-.15-5.42-.74.1a13.23,13.23,0,0,1,0,3.77h.72a18.29,18.29,0,0,0-2.88-6c-.28-.39-.93,0-.65.38a17.54,17.54,0,0,1,2.81,5.82c.09.33.67.38.72,0a13.88,13.88,0,0,0,0-4.17c-.06-.42-.75-.31-.73.1l.15,5.42a.38.38,0,0,0,.75,0Z"/><path class="cls-1" d="M78.78,39.53a9.92,9.92,0,0,1,.08-4.69.38.38,0,0,0-.73-.2,10.82,10.82,0,0,0-.08,5.09c.11.47.83.27.73-.2Z"/><path class="cls-1" d="M75.94,40.57a9.54,9.54,0,0,0-4.67-2.33.37.37,0,0,0-.46.26.38.38,0,0,0,.26.46,8.77,8.77,0,0,1,4.34,2.14c.36.33.89-.2.53-.53Z"/><path class="cls-1" d="M68.47,19.47A32.19,32.19,0,0,0,73,22.33a14,14,0,0,1,4.07,2.87c.32.36.84-.17.53-.53a14,14,0,0,0-4.1-2.92,34.8,34.8,0,0,1-4.64-2.92c-.38-.3-.76.35-.38.64Z"/><path class="cls-1" d="M71.84,25.26a9.42,9.42,0,0,1,5.14.61.38.38,0,0,0,.51-.13.39.39,0,0,0-.13-.52,10.29,10.29,0,0,0-5.72-.68c-.47.08-.27.8.2.72Z"/><path class="cls-1" d="M73,16.1a13.86,13.86,0,0,0,4.22,8.37c.35.33.89-.2.53-.53a13.07,13.07,0,0,1-4-7.84c-.06-.47-.81-.47-.75,0Z"/><path class="cls-1" d="M84,19a12.11,12.11,0,0,1,3.07-9.74c.33-.36-.2-.89-.53-.53A12.86,12.86,0,0,0,83.27,19c.06.48.81.48.75,0Z"/><path class="cls-1" d="M85,19,86.73,13a.37.37,0,0,0-.72-.2l-1.75,5.92A.38.38,0,0,0,85,19Z"/><path class="cls-1" d="M85.86,18.79l3.28-5.27c.25-.41-.4-.78-.65-.37l-3.28,5.27c-.25.41.39.78.65.37Z"/><path class="cls-1" d="M82.33,16.48a8.45,8.45,0,0,0-3-5.93c-.37-.3-.91.23-.53.53a7.71,7.71,0,0,1,2.8,5.4c0,.48.79.48.75,0Z"/><path class="cls-1" d="M63.16,27.93a5.17,5.17,0,0,1,2.9-1c.48,0,.48-.77,0-.75a5.81,5.81,0,0,0-3.28,1.14.4.4,0,0,0-.13.52.37.37,0,0,0,.51.13Z"/><path class="cls-1" d="M111.91,36.91c1.24,4.85,5.4,8.88,9.12,12a95.35,95.35,0,0,0,13.12,8.84q8.17,4.8,16.37,9.57A61.81,61.81,0,0,0,158,71.15a30.51,30.51,0,0,0,4,1.34c1.42.35,2.86.43,4.28.72a6.12,6.12,0,0,1,3.26,2.1,3.74,3.74,0,0,0,2.27,1.37c2.13,0,1-3.46.74-4.61-1.38-5.09-5.11-9.1-9-12.49-2.12-1.85-4.32-3.6-6.4-5.5s-3.75-3.91-6-5.39-5.11-2.49-7.49-4.06-4.62-3.46-7-5.15c-4.9-3.52-10.26-6.65-16.15-8.13a29.16,29.16,0,0,0-4.24-.74,6.43,6.43,0,0,0-3.43.21c-2.19,1.07-1.29,5.11-.7,6.89.15.45.88.26.72-.2a11.38,11.38,0,0,1-.53-4.14c0-1,.23-1.72,1.26-2a5.82,5.82,0,0,1,2-.05,29.42,29.42,0,0,1,7.3,1.55A51.17,51.17,0,0,1,136.11,40c2,1.45,4,3.05,6,4.5a53.44,53.44,0,0,0,6.74,3.76,24,24,0,0,1,6,4.68c1.84,1.81,3.8,3.48,5.77,5.14,3.76,3.17,7.59,6.46,9.87,10.9a16.66,16.66,0,0,1,1.33,3.48,12.72,12.72,0,0,1,.33,1.72,3.09,3.09,0,0,1,.1,1.16c-.32.74-1,.43-1.47.11-.79-.57-1.35-1.39-2.12-2a5.44,5.44,0,0,0-2.69-1,33.19,33.19,0,0,1-7.6-1.9,57.68,57.68,0,0,1-7.09-3.62c-4.92-2.83-9.8-5.72-14.69-8.59a118,118,0,0,1-13.77-8.89c-4.08-3.21-8.86-7.48-10.2-12.7a.37.37,0,0,0-.72.2Z"/><path class="cls-1" d="M112.4,37.32c2.2.92,3.67,2.84,5.34,4.46a42.32,42.32,0,0,0,5,4.07c4,2.81,8.16,5.36,12.26,8a98.51,98.51,0,0,0,12.35,7c4.38,2,9,3.44,13.27,5.66s8.13,5.24,10.28,9.59c.21.43.86.05.64-.38-4-8.14-13.12-11.1-20.94-14.29a84.76,84.76,0,0,1-13.47-7.16c-4.27-2.7-8.56-5.39-12.74-8.22A43,43,0,0,1,118,40.94c-1.66-1.65-3.15-3.42-5.36-4.35-.44-.18-.64.54-.2.73Z"/><path class="cls-1" d="M172.22,71.44c-5.59-7-12.57-12.71-19.24-18.62-1.7-1.51-3.39-3.07-5.19-4.46a45.57,45.57,0,0,0-5.35-3.45c-4-2.33-8.07-4.57-12.14-6.79-4.64-2.53-9.3-5-14-7.53-.42-.23-.8.42-.37.65,8.09,4.36,16.21,8.66,24.18,13.22,1.92,1.09,3.86,2.16,5.69,3.4a52.79,52.79,0,0,1,5.33,4.36c3.39,3,6.8,6,10.15,9A94.68,94.68,0,0,1,171.69,72c.3.38.83-.15.53-.53Z"/><path class="cls-1" d="M118.28,42.25a2.18,2.18,0,0,0,1.73.55c.7-.19.74-.88,1.07-1.41,1-1.54,3.07-1.55,4.67-1.5A2.06,2.06,0,0,1,127.81,41a13.81,13.81,0,0,1,.76,2.52c.12.43.34.91,0,1.27a5.83,5.83,0,0,0-.73.68c-.37.49-.69,2-1.53,1.83-.47-.08-.67.64-.2.72a1.56,1.56,0,0,0,1.51-.63c.47-.58.57-1.34,1.17-1.82a1.47,1.47,0,0,0,.71-1.43,16.16,16.16,0,0,0-.61-2.37,4.32,4.32,0,0,0-.81-1.75,2.6,2.6,0,0,0-1.74-.8,8.1,8.1,0,0,0-4.41.52,3.48,3.48,0,0,0-1.55,1.44c-.15.27-.23.84-.55.94s-.87-.27-1.15-.48-.76.37-.38.65Z"/><path class="cls-1" d="M124,39.39a5.76,5.76,0,0,0-.2-3.6,4.09,4.09,0,0,0-2.18-2.15,5,5,0,0,0-3.18-.39A4.26,4.26,0,0,0,116,35.33a4.31,4.31,0,0,0-.68,3.62c.16.45.88.25.73-.2a3.84,3.84,0,0,1,.85-3.42,3.62,3.62,0,0,1,1.23-1.17,3,3,0,0,1,1.73-.25,4.33,4.33,0,0,1,2.86,1.46,4.52,4.52,0,0,1,.56,3.82.38.38,0,0,0,.73.2Z"/><path class="cls-1" d="M127.9,45.73A4.74,4.74,0,0,0,130.47,50a10.69,10.69,0,0,0,2.49,1,2,2,0,0,0,2.11-.87,6.69,6.69,0,0,0,.63-1.18c.22-.48.46-1,.69-1.43a5.67,5.67,0,0,0,.67-2.48c0-1.79-1.72-3-3.26-3.56a4.35,4.35,0,0,0-5.09,1.73c-.27.4.38.78.65.38a3.56,3.56,0,0,1,3.8-1.52A5.78,5.78,0,0,1,135,43a2.56,2.56,0,0,1,1.24,1.64c.27,1.49-.78,3-1.37,4.26-.29.62-.73,1.46-1.54,1.4a4.46,4.46,0,0,1-1.06-.32c-.33-.12-.67-.25-1-.4a4.11,4.11,0,0,1-2.66-3.8.38.38,0,0,0-.75,0Z"/><path class="cls-1" d="M134.64,49.52a9.38,9.38,0,0,0,1,2.44,6.13,6.13,0,0,0,2,1.54,4.84,4.84,0,0,0,2.57.55,2.46,2.46,0,0,0,2-1.15,12.91,12.91,0,0,0,1.32-2.24,7.07,7.07,0,0,1,.72-1.14,2.53,2.53,0,0,0,.54-1.07,2.66,2.66,0,0,0-1-2.16,4.7,4.7,0,0,0-1.95-1.53,6.77,6.77,0,0,0-3-.47,3.45,3.45,0,0,0-2.41.89c-.3.37.23.91.53.53a2.57,2.57,0,0,1,1.74-.65,5.49,5.49,0,0,1,2.34.25,3.32,3.32,0,0,1,1.76,1c.43.46,1.2,1.12,1.2,1.79s-.71,1.25-1,1.83-.62,1.26-1,1.85-.83,1.35-1.49,1.48a4.07,4.07,0,0,1-2.24-.27,6,6,0,0,1-2-1.38,7.27,7.27,0,0,1-1-2.31c-.17-.45-.89-.25-.73.2Z"/><path class="cls-1" d="M140.73,53.59a7.51,7.51,0,0,0,2,4.46,2.26,2.26,0,0,0,2.15.71,6,6,0,0,0,2.58-.51,5.06,5.06,0,0,0,1.38-2,10.59,10.59,0,0,0,1.13-2.35,3.68,3.68,0,0,0-.54-2.34,5.11,5.11,0,0,0-1.42-1.9,3.5,3.5,0,0,0-2.55-.65,5,5,0,0,0-1.38.31c-.34.13-.78.25-.92.62a.39.39,0,0,0,.1.37l0,0c.34.35.87-.18.54-.53l0,0,.09.36c0,.08.49-.13.56-.15a4.5,4.5,0,0,1,.63-.17,4.05,4.05,0,0,1,1.39-.05,2.89,2.89,0,0,1,1.9,1.39,4.8,4.8,0,0,1,.91,2.33,3.41,3.41,0,0,1-.49,1.26c-.2.4-.41.8-.63,1.19s-.43.79-.67,1.17a1.32,1.32,0,0,1-1,.69,10.49,10.49,0,0,1-1.25.2,3.52,3.52,0,0,1-1.41,0c-.4-.15-.66-.59-.89-.92s-.46-.69-.67-1.05a5.17,5.17,0,0,1-.72-2.42.38.38,0,0,0-.75,0Z"/><path class="cls-1" d="M146.8,58.15A5.56,5.56,0,0,0,148,60.71a5.49,5.49,0,0,0,1.15.67l1.45.73a6.73,6.73,0,0,0,1.26.56,7.69,7.69,0,0,0,1.44.21,2.09,2.09,0,0,0,1.19,0c.35-.19.44-.67.66-1,.55-.74,1.38-1.22,1.94-2a2.77,2.77,0,0,0,.48-2.48,2.34,2.34,0,0,0-.54-1.09,7.07,7.07,0,0,0-1.09-.67c-.7-.48-1.3-1.07-2-1.55a3.64,3.64,0,0,0-4.94.39c-.31.36.22.9.53.53a2.85,2.85,0,0,1,3.79-.43,19.62,19.62,0,0,1,1.56,1.2c.24.19.48.38.73.54s.75.33,1,.61a2.19,2.19,0,0,1,0,2.31,9.63,9.63,0,0,1-1.59,1.6,4.12,4.12,0,0,0-.62.76c-.09.13-.14.29-.23.42s0,.1-.12.14a.92.92,0,0,1-.33,0,6.09,6.09,0,0,1-2.42-.53c-.81-.41-1.63-.8-2.42-1.23s-1.07-1.58-1.35-2.46c-.14-.46-.87-.27-.72.2Z"/><path class="cls-1" d="M161,66.5a1.75,1.75,0,0,0,1.78-1.76A4.68,4.68,0,0,0,161.9,62a5.87,5.87,0,0,0-5.09-2.66.38.38,0,0,0,0,.75,5.15,5.15,0,0,1,4.21,2,4.89,4.89,0,0,1,.95,2c.14.69-.06,1.78-1,1.68-.48,0-.47.7,0,.75Z"/><path class="cls-1" d="M154.19,62.7l0-.05.06.08a.64.64,0,0,1-.08-.14l0,.09a.65.65,0,0,1,0-.13.27.27,0,0,0-.07-.13.32.32,0,0,0-.1-.1.25.25,0,0,0-.14,0h-.15l-.09,0a.38.38,0,0,0-.14.14l0,.09a.61.61,0,0,0,0,.19l0,.1s0,0,0,0l.06.13a.35.35,0,0,0,.05.08.76.76,0,0,0,.11.14.28.28,0,0,0,.12.08.21.21,0,0,0,.15,0,.17.17,0,0,0,.14,0,.2.2,0,0,0,.12-.08l.06-.07a.32.32,0,0,0,.05-.19v-.1a.42.42,0,0,0-.1-.17Z"/><path class="cls-1" d="M161.81,66.7a.79.79,0,0,1,.47-.14,5.7,5.7,0,0,1,.71,0,3.37,3.37,0,0,1,1.32.39,2.59,2.59,0,0,1,.85,2,.38.38,0,0,0,.37.37c.19,0,.41-.17.38-.37a3.27,3.27,0,0,0-1.28-2.65,4.23,4.23,0,0,0-1.71-.46,2.05,2.05,0,0,0-1.64.33c-.36.33.18.86.53.53Z"/><path class="cls-1" d="M166.71,69.58a.36.36,0,0,1,0-.11s0-.1,0-.06,0-.06,0-.07v-.12c0-.13,0-.26,0-.39s0-.12,0,0,0-.06,0-.09a1.29,1.29,0,0,1,0-.19s0-.09,0-.05,0,0,0,0,.07-.09,0,0l.06-.07.07-.06s0,0,0,0l.17-.11.17-.08.05,0,.08,0a2.74,2.74,0,0,1,.39-.09h.35a.37.37,0,0,0,.37-.38.38.38,0,0,0-.37-.37,2.59,2.59,0,0,0-1,.15,2.13,2.13,0,0,0-.87.51,1.54,1.54,0,0,0-.38,1,2.2,2.2,0,0,0,0,1,.4.4,0,0,0,.47.27.39.39,0,0,0,.26-.47Z"/><path class="cls-1" d="M168.25,72a1.42,1.42,0,0,0,1-.13,1.51,1.51,0,0,0,.56-.83,2.32,2.32,0,0,0,.12-1,3.68,3.68,0,0,1-.05-.93.38.38,0,0,0-.26-.46.37.37,0,0,0-.46.26,2.54,2.54,0,0,0,0,.87,2.22,2.22,0,0,1,0,.77,2.12,2.12,0,0,1-.1.36l-.07.15-.05.06s0,0,0,0l-.05,0,0,0h0l-.11,0s0,0,0,0h-.25a.39.39,0,0,0-.46.27.38.38,0,0,0,.27.46Z"/></g></g></svg>