<?xml version="1.0" encoding="utf-8"?>
<!-- Generator: Adobe Illustrator 26.3.1, SVG Export Plug-In . SVG Version: 6.00 Build 0)  -->
<svg version="1.1" id="Calque_1" xmlns="http://www.w3.org/2000/svg" xmlns:xlink="http://www.w3.org/1999/xlink" x="0px" y="0px"
	 viewBox="0 0 411 70.9" style="enable-background:new 0 0 411 70.9;" xml:space="preserve">
<style type="text/css">
	.st0{fill:#28906F;}
</style>
<g>
	<path class="st0" d="M8.9,69.2l-0.7,0.2l-0.7,0.2L6,70H5.1l-0.3-0.4l-0.6-2l-0.3-0.8l-0.5-1.7L3,63.6l0.6-0.7l0.9-0.3l1-0.3
		l1.2-0.5l0.7-0.4l0.7-1.1L7.5,59l-0.4-0.7l-0.9-1.4l-1-1.4l-0.5-0.7l-0.5-0.7l-0.4-0.7L2.9,52l-0.4-0.7L2,50.5l-0.3-0.8L1.3,49
		l-0.2-0.7L1,46.6v-0.8L1.1,45l0.4-1.4l0.8-1.5l1.3-1.6l1.5-1.1L7.4,38l0.7-0.2L9,37.4l1.1-0.4l0.7-0.3l0.7-0.2l1-0.1l0.6,0.8
		l0.3,0.7l0.2,0.8l0.4,1.7l0.3,0.9l0.5,1.3l-0.1,0.9L14,44.1l-1,0.4L11.8,45l-0.6,0.4l-0.7,0.9l-0.1,0.8l0.5,1.2l0.4,0.7l0.5,0.7
		l0.5,0.7l1,1.3l0.7,1l0.8,1l0.9,1.4l0.5,0.9l0.6,1l0.4,0.9l0.2,0.9l0.2,1.9l-0.2,1.9l-0.3,0.9l-0.4,0.8l-0.5,0.8L15,66.5L14.3,67
		l-0.8,0.5l-1.7,0.6l-1.6,0.7L8.9,69.2z"/>
	<path class="st0" d="M34.3,61.3l-0.8,0.1l-0.9,0.4l-0.9,0.1l-0.9,0.3h-1l-0.6-1l-0.3-0.8L28.5,59l-0.2-1.1L28,56.8l-0.2-0.7
		l-0.2-0.7l-0.2-0.5l-0.1-0.8l-0.4-1l-0.1-0.7l-0.4-0.9l-0.3-1.3l-0.3-0.9v-0.6L22.7,38l-0.5-1.5l-0.5-1l0.4-0.9l1.2-0.5l6.5-1.9
		l1.2-0.3l0.9-0.3l1-0.3l1.4-0.5l0.9-0.2l1.4-0.4l0.8-0.1l0.5,0.2l0.4,0.9v1.2L37.8,33l-0.7,0.1l-1,0.4L34.9,34l-1.1,0.4l-1.6,0.5
		L32,35.3l0.7,2.5l0.2,0.8l0.6,2.2l0.2,1.3l1.2,4.3H36l0.9-0.3l2.7-0.8l1.2-0.2l0.8,0.8l0.3,0.8l-0.1,1.1L41.2,48l-0.6,0.1L36,49.4
		l-0.1,0.3l0.3,1l1.8,6.2h0.8l0.7-0.2l3.7-1.1h1.3l0.5,1.2l0.3,0.9L45,58.1l-0.8,0.2l-0.7,0.2l-1.1,0.4l-0.8,0.3l-0.7,0.1l-0.6,0.2
		l-0.9,0.2L38.3,60l-0.5,0.2L37,60.5l-0.7,0.3L35.6,61L34.3,61.3z"/>
	<path class="st0" d="M60.3,54.2l-0.7,0.2l-0.7,0.1l-1.3,0.4l-1.3,0.5l-1.1,0.1l-0.3-0.1l-0.3-0.9l-0.4-1.6L54,52.1l-0.8-3.2
		L52.9,48l-0.2-0.9l-0.2-1.2l-0.1-0.5l-0.2-0.7L52,43.6l-1.2-4.9l-0.2-0.8l-0.1-0.8L50,36.4l-0.2-1.1l-0.3-1.4l-0.4-1.5L49,31.6
		l-1.1-4.2l-0.3-1.5l0.7-0.9l1.3,0.6l0.8,0.4l1.6,0.8l1.6,0.9l2.2,1.4l0.7,0.5l0.8,0.4l3.1,1.7l0.6,0.4l1.4,0.8l0.8,0.5l0.9,0.4h1.2
		l4.2-6.5l1.5-2.6l1-1.6l1.8-3l1-1.4l1.3-0.1l0.4,1.3l0.3,1.5l0.4,1.4l0.3,1.1l0.3,1.1l0.1,0.6l0.3,0.9l1.9,7.6l0.4,1.8l0.1,0.9
		l0.4,1.4l0.4,1.3l0.2,1.4l0.3,1.2l0.3,1.1l0.3,1.3l0.5,1.4l0.2,0.8v1l-0.9,0.5l-6.6,1.7l-1,0.1L74,49l-1-4l-0.2-0.8l-0.9-3.7
		l-0.1-0.8L71.6,39l-0.2-1.2l-1.2-4.9l-0.6,0.4l-1,1.4l-1,1.3l-0.9,1.5l-0.9,0.7L65.1,38l-3.6-2.2l-1.1-0.6L60,36.1l0.4,1.5l0.1,0.6
		l0.2,0.5l0.3,0.9l0.2,0.8l0.3,0.8l0.3,1v0.7l0.3,0.8l0.5,1.9l0.1,0.6l0.2,0.5l0.1,0.8l0.3,1l0.2,1l0.3,0.9l0.5,2.1L63,53.6L61.9,54
		L60.3,54.2z"/>
	<path class="st0" d="M99.1,44.8h-0.8l-0.9,0.3h-0.9l-0.9,0.2l-1-0.1L94,44.3l-0.2-0.9L93.6,42l-0.1-1.2l-0.2-1L93,39.1l-0.1-0.7
		l-0.2-0.5l-0.1-0.8l-0.3-1l-0.1-0.7L92,34.5l-0.2-1.3l-0.2-0.9v-0.6l-2.3-11l-0.4-1.6l-0.4-1l0.4-0.8l1.3-0.4l6.6-1.4l1.2-0.2
		l1-0.2l1-0.2l1.5-0.3l0.9-0.1l1.4-0.3h0.8l0.5,0.3l0.4,0.9l-0.1,1.2l-0.6,0.5h-0.7l-1.1,0.4l-1.2,0.2l-1.2,0.3L99,18.2l-0.3,0.4
		l0.5,2.6l0.1,0.8l0.5,2.3l0.1,1.3l0.9,4.3l1.1,0.1l0.9-0.2l2.8-0.6l1.2-0.1l0.7,0.8l0.2,0.8l-0.2,1.1l-0.6,0.3l-0.6,0.1l-4.7,1
		l-0.2,0.3l0.2,1.1l1.3,6.3h0.8l0.8-0.1l3.8-0.8l1.3,0.1l0.4,1.2l0.2,1l-0.3,0.3l-0.9,0.1l-0.7,0.1l-1.1,0.4l-0.8,0.2l-0.7,0.1
		l-0.6,0.2l-0.9,0.2l-1.1,0.2l-0.5,0.2l-0.9,0.1l-0.7,0.2l-0.7,0.2L99.1,44.8z"/>
	<path class="st0" d="M120.2,40.1l-0.4-1.1l-0.4-2.6l-0.2-1.6l-0.3-1l-0.1-1l-0.1-0.7l-0.3-1.4l-0.2-0.7l-1.4-8.3l-0.2-1.7l-0.4-2.4
		l-0.2-1.4l-0.3-1l-0.1-1l-0.2-1.2l-0.3-1.3v-1l0.3-0.4l0.7-0.1l1.1,0.5l1.1,0.6l1.3,0.8l1.5,0.9l1.5,0.9l1.4,0.8l1.9,1.1l2.4,1.3
		l1.5,0.8l0.7,0.4l0.7,0.3l1.5,0.8l0.7-0.4l-0.2-0.8l-0.3-1.1l-0.2-1.2l-0.2-0.8L132,11l-0.1-1.5l1.2-0.6l0.8-0.1l1.1,0.1l0.5,1.2
		l0.3,1.9l0.3,1.5l0.2,1.3l0.3,1.3l0.4,2.7l0.3,1.3l0.3,1.3l0.1,1.6l0.1,0.9l0.3,1.6l0.3,1.3l0.2,1.3l0.1,0.9l0.1,0.4l0.1,1.1l0.4,2
		l0.6,3.6l-1.1,0.8l-1,0.2h-1.2l-0.4-1.1l-0.3-1.9l-0.4-1.1l-1.7-0.9l-0.7-0.4l-1.4-0.7l-2.8-1.5l-1.3-0.8l-0.7-0.5l-1.5-0.8l-3.6-2
		L121,25l-0.2,0.4l0.2,1.1l0.3,1.3l0.2,1.3l0.2,1.3l0.6,3.8l0.2,0.7l0.6,3.5v1l-0.9,0.3l-1.5,0.2L120.2,40.1z"/>
	<path class="st0" d="M163.9,34.4l-2,0.1H161l-0.9-0.1l-0.9-0.2l-1.7-0.4l-0.8-0.3l-0.8-0.3l-0.8-0.4l-1.4-0.8l-0.7-0.4l-0.6-0.5
		l-1.1-1.2l-0.6-0.7l-1-1.3l-0.4-0.6l-0.3-0.7l-0.7-1.7l-0.5-1.6l-0.3-2.9v-0.9v-0.9l0.1-1l0.4-1.7l0.2-0.8l0.6-1.5l0.3-0.8l0.6-1.1
		l0.7-1.1L151,10l1.2-1.2l0.5-0.5l1.3-1l0.8-0.5l0.7-0.4l0.8-0.4l1.6-0.7l1.9-0.5l2-0.5h1.2l0.3,0.3l0.2,1l0.2,1.7l0.2,1.3l0.1,0.6
		l0.1,0.7l0.2,1.1l0.1,1.2l0.1,0.7l-0.6,0.4l-1.5,0.4l-0.9,0.3l-1.7,0.8l-0.7,0.5l-0.7,0.6l-0.5,0.7l-0.5,1l-0.2,1.2v1.9l0.2,0.8
		l0.7,1.5l0.5,0.6l0.6,0.6l0.7,0.4l1.5,0.7l0.8,0.2l0.9,0.1h1.5h1l0.4,0.5l0.2,1.4l0.3,1.8l0.1,1.6l0.3,2.5l-0.1,0.5l-0.8,0.6
		L163.9,34.4z"/>
	<path class="st0" d="M181.9,32.6l-0.8-0.1l-1,0.2l-0.9-0.1l-0.9,0.1l-1-0.2l-0.4-1.1l-0.1-0.9l-0.1-1.5v-1.2l-0.1-1l-0.1-0.7
		l-0.1-0.7l-0.1-0.6V24l-0.2-1v-0.7l-0.2-1V20l-0.1-0.9l0.1-0.6l-0.8-11.2l-0.2-1.6l0.1-1l0.5-0.8l1.3-0.2l6.7-0.5h1.2l1-0.1l1-0.1
		l1.5-0.1h0.9l1.4-0.1l0.8,0.1l0.5,0.4l0.2,0.9l-0.2,1.2l-0.7,0.4l-0.7-0.1l-1.1,0.2h-1.2L187,6.1l-1.7,0.1L185,6.5l0.2,2.6v0.8
		l0.2,2.3l-0.1,1.3l0.3,4.4l1,0.2l0.9-0.1l2.9-0.2l1.2,0.1l0.6,0.9l0.1,0.8l-0.3,1.1l-0.6,0.2h-0.6l-4.8,0.3l-0.2,0.2v1.1l0.5,6.4
		l0.8,0.2h0.8l3.9-0.3l1.3,0.3l0.2,1.3l0.1,1l-0.3,0.3h-0.9l-0.7,0.1l-1.1,0.2l-0.8,0.1h-0.7l-0.6,0.1h-0.9l-1.1,0.1l-0.6,0.1h-0.9
		l-0.8,0.1l-0.8,0.1L181.9,32.6z"/>
	<path class="st0" d="M204.3,31.5h-0.8h-0.7h-1.5l-0.9-0.2l-0.2-0.5l-0.1-2.1l-0.1-0.9V26v-1.5l0.8-0.5h0.9l1-0.1l1.3-0.1l0.8-0.2
		l1-0.9v-1.4l-0.1-0.8l-0.5-1.6l-0.6-1.6l-0.3-0.8l-0.3-0.8l-0.2-0.8l-0.5-1.6l-0.2-0.8l-0.3-0.9l-0.1-0.9l-0.1-0.8V9.1l0.3-1.5
		l0.2-0.8l0.3-0.7l0.8-1.2l1.2-1.2l1.6-1.2l1.7-0.7l2.6-0.8h0.8l1-0.1l1.2-0.1l0.8-0.1h0.7l0.9,0.2l0.4,1l0.1,0.8v0.8l-0.1,1.8
		l0.1,0.9l0.1,1.4l-0.3,1l-0.9,0.2l-1,0.2h-1.3l-0.7,0.3l-0.9,0.7l-0.3,0.7l0.1,1.2l0.2,0.8l0.3,0.8l0.3,0.8l0.6,1.6l0.4,1.2
		l0.5,1.2l0.5,1.6l0.2,1l0.3,1.1l0.1,0.9v0.9l-0.3,1.9l-0.7,1.8l-0.5,0.8l-0.6,0.7l-0.7,0.6l-1.6,1l-0.8,0.3l-0.9,0.2l-1.8,0.1
		l-1.7,0.2L204.3,31.5z"/>
	<path class="st0" d="M240.1,30.7l-1.9-0.1l-0.2-1l0.1-1.5l0.1-0.8l0.1-2.4v-1.5l0.2-3l0.1-1.5l0.1-1.5l0.2-1.6l0.1-0.9l0.3-5.2
		l0.1-0.8l0.3-6l0.3-0.4l1-0.1l1.2-0.1l1.2,0.1h0.8l1.3,0.2h1.3h0.9l1.4,0.2l1.4,0.4l0.8,0.3l0.9,0.3l1.5,0.9l0.7,0.5l0.8,0.5
		l0.8,0.6l1.3,1.3l1,1.4l0.4,0.7l0.4,0.7l0.3,0.7l0.4,1.3l0.4,1.3l0.2,0.9l0.2,1.6V17v0.8v0.8l-0.2,1.6l-0.2,0.8l-0.5,1.4l-0.7,1.5
		l-0.4,0.8l-0.5,0.8L257,27l-0.7,0.7l-0.7,0.6l-0.8,0.7l-2.8,1.5l-1,0.2l-0.9,0.3l-0.9,0.1h-0.8h-1.5l-1,0.1l-4.3-0.2L240.1,30.7z
		 M248.7,28.4l0.8-0.1l0.7-0.2l1.5-0.6l0.8-0.4l0.7-0.5l0.7-0.6l1.2-1.2l0.5-0.7l1-1.6l0.7-1.8l0.2-0.8l0.2-0.8l0.2-1.6v-0.8v-0.8
		l-0.3-1.6l-0.2-0.8l-0.6-1.6l-0.3-0.7l-1-1.4l-0.6-0.6L253.7,8L253,7.5L252.3,7l-1.5-0.7L249.6,6l-0.4,0.7L249,8.2l-0.2,1.4
		l-0.1,1.4v0.9l-0.2,0.5l-0.1,1.4l-0.1,1.7l-0.1,1.4l-0.1,1.3l-0.1,1l-0.1,1.2l-0.1,0.9l-0.3,4.9l-0.1,1V28l0.3,0.4L248.7,28.4z"/>
	<path class="st0" d="M273.8,33.7l-0.8-0.2h-1l-0.9-0.3l-0.9-0.1l-0.9-0.4l-0.2-1.2l0.1-0.9l0.2-1.4l0.3-1.1l0.1-1v-0.7l0.1-0.7
		v-0.6l0.2-0.8v-1l0.2-0.7v-1l0.2-1.3l0.1-0.9l0.2-0.5L272,7.8l0.1-1.6L272,5.1l0.7-0.7l1.3,0.1l6.7,0.7l1.2,0.2l1,0.1l1,0.1
		l1.5,0.1l0.9,0.1l1.4,0.2l0.8,0.2l0.4,0.4l0.1,1l-0.4,1.1L287.8,9l-0.7-0.2H286l-1.2-0.2l-1.2-0.1l-1.7-0.2l-0.4,0.3l-0.3,2.6
		l-0.1,0.8l-0.3,2.3l-0.3,1.3L280,20l1,0.4l0.9,0.1l2.8,0.3L286,21l0.4,1v0.8l-0.5,1l-0.6,0.1l-0.6-0.1l-4.8-0.5l-0.2,0.2l-0.2,1.1
		l-0.7,6.4l0.8,0.3l0.8,0.1l3.9,0.4l1.2,0.5v1.3l-0.1,1l-0.4,0.2l-0.8-0.2l-0.7-0.1h-1.2l-0.9-0.1l-0.7-0.2h-0.6l-0.9-0.1l-1.1-0.1
		h-0.6l-0.8-0.2h-0.8h-0.8L273.8,33.7z"/>
	<path class="st0" d="M307.8,37.8l-0.7-0.6l0.2-1.3l0.1-0.8l0.3-1.6l0.6-3.4l0.4-1.7l1.4-7.3l0.2-0.9l0.3-1.3L311,18l0.2-0.9
		l0.1-0.9l0.3-1.8l0.2-0.9l0.6-3.2l0.3-0.7l0.4-0.2l1.1,0.2l3.1,0.6l0.7,0.1l0.9,0.1l0.5,0.1l1.2,0.1l0.9,0.2l1.4,0.4l1.6,0.3
		l1.7,0.5l0.8,0.4l0.7,0.4l1.1,0.8l0.9,1l0.6,0.7l0.4,0.7l0.4,0.8l0.3,0.8l0.4,1.8l0.1,2l-0.2,1.7l-0.2,0.7l-0.3,0.7l-0.9,1.4
		l-1.3,1.2l-0.7,0.5l-0.7,0.4l-0.7,0.4l-1.5,0.6l-1.5,0.4l-0.8,0.1l-0.8,0.1h-1.5h-0.7l-1.1-0.2l-0.6,0.4l-0.2,0.8l-0.3,0.8l-0.2,1
		l-1,5.2l-0.3,1.1l-0.5,0.3h-1.2l-5.9-1.1L307.8,37.8z M320.8,27h1.9l1.9-0.3l0.8-0.3l0.8-0.4l0.7-0.5l1.3-1.5l0.8-1.8l0.2-0.9
		l0.1-0.9l-0.2-1.4l-0.5-1.2l-0.4-0.7l-0.9-1.3l-0.6-0.5l-1.4-0.7l-0.8-0.3l-0.8-0.2l-1.2-0.2l-0.7-0.1l-0.4,0.9l-0.5,2.5l-0.4,1.5
		l-0.1,1.1l-0.2,0.8l-0.3,1.8l-0.1,0.5v0.4l-0.1,1.1l-0.3,1.6l0.7,0.9L320.8,27z"/>
	<path class="st0" d="M348.7,47l-1.5-0.4l-0.9-0.6l-0.2-1.1l-0.1-0.8l-0.3-1.8l-0.2-1.3l-1-0.6l-1-0.2l-1.3-0.2l-1.9-0.5l-2-0.4
		l-0.7-0.2h-0.9l-0.4,0.8l-0.4,0.6l-0.8,1.3l-0.5,0.6l-0.7,0.7l-0.9-0.1h-0.7l-0.7-0.2l-0.2-0.3l0.3-0.8l0.7-1.3l0.4-0.6l0.4-0.7
		l0.9-1.3l0.8-1.2l0.9-1.4l0.5-0.8l0.5-0.8l0.9-1.6l0.5-0.8l0.4-0.8l0.5-0.8l0.7-1.3l0.9-1.2l0.5-0.8l0.4-0.8l0.5-0.8l0.4-0.8l1-1.5
		L345,20l0.9-1.5l0.8-1.1l0.7-0.9l0.7-0.5l0.8,0.4l0.3,1.2l0.3,1.4l0.3,1.9l0.2,0.9l0.2,1l0.4,1.8l0.2,0.9l0.4,1.7l0.1,0.9l0.3,1.6
		l0.2,1.4l0.3,1.5l0.2,0.8l0.2,1.4l0.3,1.4l0.2,0.9l0.3,1.6l0.1,0.7l0.3,1.5l0.4,1.4v1l0.3,1.1l0.1,1l0.3,1.5l-0.2,0.8l-0.4,0.3
		l-0.8-0.1l-1.1-0.2h-0.7l-1.2-0.5l-1.1-0.1L348.7,47z M338.8,36.8l1.3,0.3l3.3,0.7l0.9,0.1l0.9-0.1l-0.2-1l-0.2-0.8l-0.2-1.5
		l-0.2-1.5l-0.2-0.8l-0.2-1.3l-0.3-1.5l-0.2-1l-0.6,0.5l-0.4,0.7l-0.5,0.7l-0.9,1.4l-0.4,0.7l-1.7,2.8l-0.4,0.7l-0.3,0.8L338.8,36.8
		z"/>
	<path class="st0" d="M365.2,50.9l-0.7-0.6l0.2-0.7l0.4-1.4l0.4-1.6l0.4-1.6l0.7-2.6l0.2-0.9l0.5-1.8l0.2-1.1l-0.3-1.2l-0.9-3.6
		l-0.3-1l-0.3-1.5l-0.3-1.2l-0.3-0.8l-0.2-1.1l-0.2-0.9l-0.3-1l-0.2-1.1l-0.5-1.8l-0.4-1.8l-0.2-0.9l0.2-0.3l0.5-0.1l1.1,0.4
		l2.4,0.7l1.3,0.3l2.5,0.9l1,0.5l0.3,1.1l0.3,1.5l0.8,3.3l0.2,0.8l0.4,1.8l0.2,0.9l0.5,1.7l0.3,0.8l0.2,0.8l0.3,0.9l0.3,0.1l0.8-0.6
		l0.6-0.6l3-2.8l0.6-0.6l0.6-0.5l0.6-0.6l1.2-1.1l0.6-0.6l0.6-0.6l0.6-0.6l1.1-1l1.4-0.1l0.9,0.1l1,0.7l-0.8,1l-0.7,0.6l-3,2.9
		l-1.3,1.2l-0.7,0.6l-0.7,0.7l-1.4,1.3l-2.8,2.6l-0.7,0.7l-0.7,0.6l-0.9,1.5l-0.2,0.9l-0.1,1l-0.4,1l-0.4,1.8l-0.9,3.4l-0.3,1.3
		l-0.1,0.9l-0.3,0.7l-0.3,0.3l-1-0.1l-1.4-0.4l-0.8-0.2L369,52h-0.6l-0.8-0.2l-1.1-0.3L365.2,50.9z"/>
	<path class="st0" d="M388.3,58.1l-0.7-0.3l-0.7-0.2l-1.4-0.5l-0.8-0.5l-0.1-0.5l0.6-2l0.2-0.9l0.5-1.7l0.5-1.5l0.9-0.3l0.9,0.3
		l1,0.3l1.2,0.3l0.8,0.1l1.2-0.6l0.5-1.3L393,48v-1.6v-1.7v-0.9V43v-0.8v-1.7v-0.8v-0.9l0.2-0.8l0.2-0.7l0.3-0.7l0.8-1.4l0.5-0.7
		l0.5-0.5l1.1-0.9l1.5-0.7l1.9-0.6l1.9-0.1l2.7,0.1l0.7,0.2l1,0.2l1.2,0.3l0.7,0.2l0.7,0.2l0.8,0.5v1l-0.2,0.8l-0.2,0.8l-0.7,1.6
		l-0.2,0.9l-0.3,1.4l-0.6,0.7l-0.9-0.2l-1-0.2l-1.2-0.3h-0.7l-1.1,0.4l-0.5,0.6l-0.3,1.2v0.8v0.9v0.9l0.1,1.7v1.3V49l-0.1,1.7
		l-0.1,1l-0.1,1.1l-0.2,0.9l-0.3,0.9l-0.9,1.7l-1.2,1.5l-0.8,0.6l-0.8,0.5l-0.8,0.4l-1.8,0.4h-0.9l-1-0.1l-1.8-0.5l-1.7-0.4
		L388.3,58.1z"/>
</g>
</svg>
