<svg xmlns="http://www.w3.org/2000/svg" viewBox="0 0 348.76 80.6"><defs><style>.cls-1{fill:#fff;}</style></defs><g id="Calque_2" data-name="Calque 2"><g id="Calque_1-2" data-name="Calque 1"><path d="M270.17,5c-.15.4-.34.79-.46,1.19a6.14,6.14,0,0,1-.17,1c-.16.34-.63.46-.78.1-.48-1.15-1.4-2.14-1.16-3.55.17-.94.24-1.19,1.19-1.24a31.49,31.49,0,0,1,3.22.11c.61,0,1.22.12,1.82.11,2.68-.07,5.36-.17,8-.27s5.08-.18,7.62-.27l4.65-.2a7,7,0,0,0,2-.19c1.86-.71,3.41.14,5,.85,2.06.93,4.07,1.95,6.13,2.88,1.45.65,2.59,1.49,2.76,3.23.06.55.33,1.08.44,1.63a5,5,0,0,1,.13,1.48,1.38,1.38,0,0,0,.9,1.7c.83.27.89.79.79,1.54a10.89,10.89,0,0,0,.49,5.54,1.27,1.27,0,0,1,0,.94c-.79,1.48-1.41,3.09-2.83,4.15-.12.08-.18.25-.3.3-2.32,1-4.39,2.63-7.09,2.69-1.41,0-2.81.39-4.21.43-1.84.07-3.67,0-5.51-.06-2.17,0-4.33-.11-6.5-.12a4.94,4.94,0,0,0-1.66.27,13.31,13.31,0,0,1-6,.73c-1.54-.13-3.11,0-4.66-.07a9.33,9.33,0,0,1-1.39-.13,1.19,1.19,0,0,1-1.09-1.26c-.21-3.95-.49-7.89-.62-11.84a16.82,16.82,0,0,0-.46-4.47c-.48-1.55.14-3.07.24-4.61a4.8,4.8,0,0,0-.09-2.44Zm5.25,7.82,0,0c.38-.58-.1-.94-.34-1.38-.46-.83-1-1.66-.42-2.68.09-.16-.05-.45-.08-.68-.7.85-1.4,1.64-1.25,2.76s.28,2,.43,3.09l1.68.39Zm10.19-3.12c-2.15,0-3.16.75-3.25,2.39a12.55,12.55,0,0,0,1,5.67,2,2,0,0,0,2.72,1.33,18.26,18.26,0,0,1,5.44-.69,10.52,10.52,0,0,0,3.84-.85,2.44,2.44,0,0,0,1-3.81,3.62,3.62,0,0,1-.55-.81,3.76,3.76,0,0,0-3.27-2.53c-1.86-.23-3.74-.36-5.61-.54C286.45,9.8,285.93,9.73,285.61,9.69Zm-11.75,8.65c-.13.42-.42.86-.3,1.07.24.43.61.13.95-.08a10.39,10.39,0,0,1,1.27-.56l-.12-.64,1.57-.22c-.45-.17-.77-.28-1.07-.42s-.64-.34-.77-.4a6.59,6.59,0,0,0-.47-1.6c-.18-.27-.64-.38-1-.54-.73-.32-1.29-.06-1.26.68C272.73,16.72,272.56,18,273.86,18.34ZM291.67,5c-.26-1-.65-1.81-1.84-2C289.44,4.65,291.24,4.23,291.67,5Zm2.62-1c-1.14-.27-1.14-.27-2,.2.31.3.69.81.84.75A5.19,5.19,0,0,0,294.29,4ZM288,4.6c0-1.08-.24-1.35-1.23-1.36Zm-12,16c-.83-.71-.83-.71-1.32-.51C275,20.41,275.29,21,276,20.55Zm-.21-5.17c.18.08.3.18.42.17s.2-.12.3-.18l-.25-.36Z"/><path d="M254.72,10.11c-6.85-1.77-13.75-1.7-21-1.08A4.56,4.56,0,0,0,236.44,11a24,24,0,0,0,5.75.15,41.89,41.89,0,0,1,10-.37c1.45.19,2.08.89,1.66,2.25-.53,1.74-.81,3.57-2,5.07a3,3,0,0,1-2.46,1.38,12.52,12.52,0,0,1-4.74-.51,9.53,9.53,0,0,0-4.32-.3c-1.36.09-2.72.14-4.08.22-.36,0-.72.08-1.09.12a1.8,1.8,0,0,0,0,.49c.38,1.63.58,1.74,2.24,1.26a7.1,7.1,0,0,1,3.85-.37c2.27.59,4.6.17,6.9.23,1.37,0,2.73,0,4.1,0a9.28,9.28,0,0,1,1.24.23,6.54,6.54,0,0,0,1.37.23c1.66,0,2.08-.52,1.95-2.17-.08-1.09-.08-1.09.73-2.07.82.53.7,1.42.67,2.13a10.75,10.75,0,0,0,.54,3.67,12.75,12.75,0,0,1,.57,5.57,2.74,2.74,0,0,0,.59,2.38,2,2,0,0,1,.4.74c.45,1.44,0,2-1.46,2.11a3.88,3.88,0,0,1-1.13,0,8.72,8.72,0,0,0-3.77,0,4.38,4.38,0,0,1-1.59-.28l-2.48-.51,5.58-.87c0-1.24-.11-1.37-1.16-1.46A126.13,126.13,0,0,0,239.83,30c-1.19,0-2.45.29-3.52-.58-.15-.13-.45-.1-.68-.1q-3.88-.13-7.78-.23c-.36,0-.88,0-1.06.19a1,1,0,0,1-1.45.4,1.84,1.84,0,0,1-1.18-1.61c0-.76,0-1.51-.08-2.26s-.17-1.49-.3-2.22a21.39,21.39,0,0,1-.56-5.31,8.51,8.51,0,0,0-.74-3.55,12.75,12.75,0,0,1-.57-6.12c.11-1.21.15-2.43.17-3.65s-.09-2.34,0-3.51,1-1.83,2-1.3a4.85,4.85,0,0,0,3.16.17,7.39,7.39,0,0,1,3.07.11,23.82,23.82,0,0,0,3.46.59c3.71.34,7.42.67,11.13.91,2,.13,3.95,0,5.93.08,1.18,0,2.35.11,3.53.15a1.25,1.25,0,0,1,1.34,1.17A10.62,10.62,0,0,1,254.72,10.11Zm-26.9,12.22.09-.21c-.32-.11-.78-.14-.92-.37s0-.7,0-1.14c-.24.06-.65.07-.7.22A6.23,6.23,0,0,0,226,22.1Zm-.72,5.41c.94-.69-.16-1.69.6-2.26A1.64,1.64,0,0,0,227.1,27.74Zm1.54-3.82v-.21a5.72,5.72,0,0,0-1.31,0,.94.94,0,0,0-.53.63c0,.14.36.35.7.66v-.91ZM228,19l-1.29-.64C227,19.46,227,19.46,228,19Z"/><path d="M96.65,28.52c.07-.61.19-1.29.22-2a56.65,56.65,0,0,0,.27-7.81,4,4,0,0,0-.34-1.34c-.57-1.15-1.2-1.29-2.25-.52-.64.48-1.21,1.05-1.84,1.54-1.72,1.32-3.39,2.71-5.2,3.87A13.39,13.39,0,0,1,84,23.65c-.3.08-.87-.28-1.14-.59a12.32,12.32,0,0,1-1-1.67c-.58-1-1.19-1.9-1.76-2.87-.23-.41-.58-.88-.54-1.29.16-1.7-1.48-2.2-1.94-3.46l-.29.07a2.51,2.51,0,0,0-.19.71,4.82,4.82,0,0,1-.55,3A4.45,4.45,0,0,0,76.41,21a16.61,16.61,0,0,1,.26,4.92,7.2,7.2,0,0,0,0,1.54,1.07,1.07,0,0,1-.87,1.38,19.76,19.76,0,0,1-6.18.41c-1-.08-1.3-.51-1.26-1.53.06-1.5.2-3,.29-4.49a20.59,20.59,0,0,0-.29-4.89,35.65,35.65,0,0,1-.49-4.62c-.16-3.24-.23-6.48-.33-9.72,0-.45,0-.91,0-1.45.43,0,.74-.08,1-.09,2.5-.09,5-.15,7.49-.29a2.12,2.12,0,0,1,2.18,1.19c.63,1.09,1.67,1.92,2,3.23.06.23.48.39.75.56s.69.28.8.52a22.92,22.92,0,0,0,2.31,3.27,3.07,3.07,0,0,0,.8.91c.49.31.79,0,.93-.57a5.91,5.91,0,0,1-1-.62,6,6,0,0,1-1.14-1.38A.92.92,0,0,1,84.07,8a1,1,0,0,1,1.37.36,4.27,4.27,0,0,1,.42,1.17c.12.39.22.78.41,1.47a8.39,8.39,0,0,0,1-1,3.94,3.94,0,0,1,1.47-1.24,17.09,17.09,0,0,0,4.66-3.84c.83-1,1.58-2.08,2.46-3.24l11.84-.46c-.1,1.11-.15,2-.26,2.94-.21,1.73-.44,3.45-.69,5.17a11,11,0,0,1-.39,1.79c-.67,2.16-.22,4.4-.46,6.6-.31,2.9-.47,5.82-.71,8.73a13.52,13.52,0,0,1-.16,1.41c-.18,1.13-.56,1.5-1.69,1.42-2.11-.13-4.22-.34-6.33-.52C97,28.74,96.87,28.66,96.65,28.52ZM70.83,14.32c-.35.55-1.16.46-1,1.35h1.61Zm-.35,4.26c.36-.62.66-1,.19-1.61C70.06,17.43,70.23,17.89,70.48,18.58Zm1.9.44-.16-.35-1.34.64C71.61,19.74,71.91,19.18,72.38,19Zm27-10.16a1.36,1.36,0,0,0,.1-.27.11.11,0,0,0-.08-.08l-1.07,0,0,.37Zm.8-2.81V5.74c-.35-.13-.71-.46-1.24.24ZM70.41,13.8l.23.21.51-.69-.21-.16Zm8-2.9c.41.35.55.51.59.49a1.85,1.85,0,0,0,.37-.32c-.12-.11-.22-.3-.34-.32A2,2,0,0,0,78.46,10.9Z"/><path d="M200,9.34c-.43.41-.82.94-1.56.56-.15-.07-.46.08-.66.19-.62.34-1.22.71-1.83,1.06a1.65,1.65,0,0,0-.91,1.5c0,1.46.09,2.92.22,4.37A5,5,0,0,0,197,20a5.78,5.78,0,0,0,6.32,1.6,10.68,10.68,0,0,0,4.14-2.26c1.09-1.08,2.27-1.58,3.74-.75a5.37,5.37,0,0,0,3.69.61,2,2,0,0,1,1.21.25c1.25.74,2.45,1.57,3.68,2.34a1,1,0,0,1,.4,1.33c-.37.95-.59,2-1.72,2.45-.36.16-.57.71-.78,1.13-.83,1.68-1.28,1.93-3.18,1.79a2.31,2.31,0,0,0-.83.1c-1,.3-2,.57-3,.95a2,2,0,0,0-1,.87c-.51,1-.67,1.1-1.5.27l-.21-.18c-.86.14-1.51.49-1.49,1.51a4.3,4.3,0,0,1-.75.15,55,55,0,0,1-10.25-.81,3.17,3.17,0,0,1-1.66-.92,20.22,20.22,0,0,0-3.15-2.36C188.91,27,187,26,186.05,23.91c-.11-.26-.29-.49-.39-.75-.62-1.62-1.22-3.25-1.83-4.88a1.93,1.93,0,0,0-.19-.38c-1.81-2.52-1.68-5.25-.82-8A36.78,36.78,0,0,1,184,6.28c.78-1.86,1.73-2.65,3.47-2.54a9.18,9.18,0,0,0,2.78-.41c3.32-.88,6.6-1.88,9.93-2.68a22.56,22.56,0,0,1,5-.61,14.38,14.38,0,0,1,3.59.62c2.19.56,4.36,1.19,6.54,1.8a6.9,6.9,0,0,1,3.18,2,3.77,3.77,0,0,1,.65,3.23,1,1,0,0,1-.41.54,6.13,6.13,0,0,1-3.39,1.6,1.55,1.55,0,0,0-1.49,1.1c-.48,1.39-1.83,1.84-2.82,2.68-.41.35-1,.16-1.43-.2-.8-.65-1.61-1.31-2.45-1.92a4.69,4.69,0,0,0-1.35-.7c-1.54-.45-3.09-.83-4.63-1.23C200.84,9.48,200.42,9.42,200,9.34ZM191.71,26.5c-.47-.54-.83-.92-1.14-1.34s-.74-.38-1.37-.05L191.13,27Zm-6-13.66c-.36.32-.78.55-.95.9-.07.16.33.55.5.81C186.28,14.2,186.12,13.64,185.75,12.84Zm3.05,7.49-1.75-.56.49,1.45A1.12,1.12,0,0,0,188.8,20.33Zm-2-3.72c1,.1,1,.1,1.68-.34C187.73,16.09,187.73,16.09,186.79,16.61Zm5.82,10.15c.38,1.19.38,1.19,1.11.61Zm-6.55-15.28c.65-1,.65-1-.2-1.19Zm.63,3.91.08-.4a8.79,8.79,0,0,0-.87-.15c-.05,0-.13.19-.28.44Zm6.18-11.12.18-.29-.68-.43-.18.29ZM195,3.66c-.19.25-.39.41-.36.51s.23.29.35.44c.09-.13.24-.26.26-.4S195.08,3.93,195,3.66Zm-6.08,19.69-.16,0-.08,1h.24Zm6.87,5.14.07.29.77-.16c-.16-.27-.29-.36-.4-.34A2.2,2.2,0,0,0,195.74,28.49Z"/><path d="M326.43,17.67c-.05.81-.08,1.39-.11,2-.05.88-.05,1.72,1,2.06a2.51,2.51,0,0,1,.71.47,1.19,1.19,0,0,0,1.53.22,3,3,0,0,1,1.23-.31Q336,21.51,341.17,21a5.78,5.78,0,0,1,1.55,0,9.93,9.93,0,0,0,4.46-.48c.44-.13.9-.17,1.58-.3-.05.81-.11,1.44-.13,2.07,0,1.16-.11,2.33-.07,3.49a2.33,2.33,0,0,1-1,2.29,4.62,4.62,0,0,1-2.82,1c-1.08,0-2.16.25-3.24.29s-1.87-.08-2.8-.1-1.88,0-2.82,0c-2.17.07-4.34.13-6.5.28-3.06.21-6.1.48-9.15.78-1,.1-1.88.65-3,.16.88-1.9.39-3.86.15-5.79-.28-2.38-.81-4.73-1.17-7.1-.29-1.94-.48-3.91-.73-5.86a6.22,6.22,0,0,0-.39-1.78,20.38,20.38,0,0,1-1.33-5.31c-.09-.56-.17-1.11-.24-1.67-.13-1.09.08-1.52,1.14-1.75a21.93,21.93,0,0,1,3.78-.54c4.75-.18,9.5-.34,14.26-.4,2.48,0,5,.23,7.46.27,1.87,0,3.75-.07,5.87-.12.17.6.45,1.34.59,2.1a28.29,28.29,0,0,1,.44,3.31c.09,1.32-.44,2-1.74,2.05a20.23,20.23,0,0,1-2.8-.16c-.89-.09-1.77-.23-2.66-.33-1.35-.14-2.71-.29-4.06-.41-1.74-.17-3.47-.33-5.21-.46-2.37-.19-4.62.61-7.15.81.29,1,.45,1.79.76,2.55a1.7,1.7,0,0,0,1.86,1c2.92-.13,5.84-.28,8.76-.39s6-.2,9-.23a11.83,11.83,0,0,1,2.15.37c.43,2.13-.41,4.18-.29,6.28-.34.32-.68.66-1,1a2.51,2.51,0,0,1-2.26-.22,5.69,5.69,0,0,0-4.65-1c-2.33.3-4.68.44-7,.62-.75.06-1.52,0-2.27.06A20.74,20.74,0,0,0,326.43,17.67Zm16.48,6.12c-.5-.73-1-.23-1.55-.17v.31l1.59-.17c.37.18.62.71,1.23.35C343.86,23.47,343.35,23.77,342.91,23.79Zm1.79,1.11c.51.92,1.11.93,1.76,0A1.34,1.34,0,0,1,344.7,24.9Zm-5.59-.34-.06.19c.13.08.25.23.39.24a2.16,2.16,0,0,0,.52-.15l0-.23ZM341,25.73l-.09-.33-.57.2a.7.7,0,0,0,.08.23C340.61,25.81,340.8,25.77,341,25.73Zm2.61.94c.15.1.26.24.36.23s.18-.16.27-.25a1.69,1.69,0,0,0-.38-.28S343.72,26.54,343.61,26.67Z"/><path d="M94,75.71c.17-.66.29-1.18.45-1.69a1.8,1.8,0,0,1,.4-.87,6,6,0,0,0,1.52-2.46c.58-1.23,1.12-1.46,2.44-1.12a49.85,49.85,0,0,0,6.82,1.77,28.66,28.66,0,0,0,7.74-.09c.56-.09.88-.33.91-.87s-.38-.66-.85-.71c-1.19-.11-2.29-.62-3.51-.67-2.41-.11-4.5-1.34-6.69-2.17-1.85-.7-3.65-1.49-5.47-2.25-2.24-.93-2.88-2.87-1.61-4.93a4.92,4.92,0,0,0,1-3.44,3,3,0,0,1,.54-1.68c.32-.56.87-1,1.21-1.56a5.28,5.28,0,0,1,3.94-2.45,34,34,0,0,1,8.31-.05c2.39.18,4.78.27,7.17.43a26.39,26.39,0,0,1,2.8.33c1.8.32,3.6.7,5.4,1.06a2.18,2.18,0,0,1,.67.21c.54.28,1.17.58,1.15,1.29a1.82,1.82,0,0,1-1,1.45,17.93,17.93,0,0,0-2.14,1.94c-2-.25-3.92-.54-5.87-.75a11.93,11.93,0,0,0-2,0,48,48,0,0,1-5.35.24,6.56,6.56,0,0,0-3.85,1.11c-.35.22-.81.81-.73,1a1.66,1.66,0,0,0,1.07,1,26.62,26.62,0,0,0,3.22.34,5.56,5.56,0,0,0,.71,0,2.18,2.18,0,0,1,2.5,1.38c.1.24.36.41.6.68a6.33,6.33,0,0,0,.74-.7,3.46,3.46,0,0,1,4.43-1.32,9.28,9.28,0,0,1,2.91,1.68,38.32,38.32,0,0,0,4.24,3,3.62,3.62,0,0,1,1.67,2.94,8.38,8.38,0,0,1-2.81,7.2,7.74,7.74,0,0,1-3.6,2,12.43,12.43,0,0,0-2.37,1.23,16.67,16.67,0,0,1-5.15,1.42c-2.23.38-4.47.63-6.71.86a5.65,5.65,0,0,1-2.09-.16c-1.66-.47-3.42-.69-4.83-1.88a3.37,3.37,0,0,0-1.47-.41c-1.43-.3-2.85-.59-4.28-.85A3,3,0,0,1,94,75.71Z"/><path d="M156.72,15.5c-.19.72-.43,1.38-.55,2.06-.44,2.5-.81,5-1.29,7.51a9.86,9.86,0,0,1-.88,2.51c-.48,1-.76,1-1.83.85-.84-.14-1.67-.35-2.51-.46-1.39-.17-2.79-.29-4.29-.44,0-.22.07-.47.11-.72a10.14,10.14,0,0,0,.28-1.52,99.07,99.07,0,0,0-.25-11.81c-.2-1.81-.11-3.67-.13-5.5a12.22,12.22,0,0,0-.13-3.36c-.3-1.07-.5-2.16-.74-3.27a2.09,2.09,0,0,1,.16-.18.44.44,0,0,1,.24-.13h10.51a4.62,4.62,0,0,0,2.31,2.56c1.19.82,2.23,1.87,3.37,2.78a8.63,8.63,0,0,0,1.42.88,3.44,3.44,0,0,1,2,2.29A3.2,3.2,0,0,0,166.75,12c.72.31,1.24.56,1.12,1.49-.07.48.37.61.79.51a1.56,1.56,0,0,0,1.23-1.4c.11-.74.14-1.5.23-2.25a12,12,0,0,0,.21-1.78A20.19,20.19,0,0,0,170,6.14c-.07-.38-.23-.75-.27-1.14s.09-.65.07-1A3,3,0,0,1,171,1c1.92,0,4.18,0,6.44,0A9.52,9.52,0,0,0,179.11.7a3.89,3.89,0,0,1,.68-.13c1.49,0,3,0,4.48.07a3.21,3.21,0,0,1,.75.21,1.13,1.13,0,0,1-.69,1.34,4.85,4.85,0,0,0-2.14,2c-.53.91-.81.93-1.87.57l-1.13-.35a4.56,4.56,0,0,0-.71,2.26c-.13,1.49-.39,3-.56,4.46a5.46,5.46,0,0,0-.11,2.08c.68,2.45.51,5,.57,7.45s-.15,5.16-.25,8c-.3.1-.81.47-1.2.37-1.47-.38-2.92,0-4.37-.08a2,2,0,0,1-1.74-.85,11.62,11.62,0,0,0-3-3.06,15.19,15.19,0,0,1-3.2-3.16c-1.26-1.39-2.39-2.91-3.7-4.25a8.62,8.62,0,0,0-2.36-1.47A12.39,12.39,0,0,0,156.72,15.5Zm7,2.53.08.44,1.9.81-.52.58,1.09.07c.35-1.08-.66-1.19-.94-1.57-.16-.73.39-1.43-.41-2C164.57,17,165,18.08,163.72,18Zm0-.47A2.94,2.94,0,0,0,163,15c-.23.51-.61,1-.58,1.42s.57.64.89.95A2,2,0,0,0,163.72,17.56Zm-4.57-4.4v.39l1.61-.12v-.27ZM171,24c.2.61.23,1.16,1,.82.12-.05.17-.27.25-.42ZM149.86,22l-.59-1C148.78,21.75,149,22,149.86,22Zm11.08-7.34c.58.93.58.93,1.16.74C161.7,14.82,161.7,14.82,160.94,14.61Zm13.38,4.29a2.23,2.23,0,0,0-.46-.21s-.19.22-.17.25a2.26,2.26,0,0,0,.35.34Zm.64,2.53.11.32.75-.27-.07-.23Zm-9-6.73-.31.1.23.51c.07,0,.21-.1.21-.13A2.85,2.85,0,0,0,166,14.7ZM151.23,2a2.24,2.24,0,0,0-.51-.23c-.11,0-.21.09-.32.14.07.1.13.24.23.27S150.85,2.07,151.23,2Z"/><path d="M130.46,9.08c-2.87-.12-5.74-.22-8.61-.36-1.44-.07-1.82.1-1.95,1a2.08,2.08,0,0,0,1.69,2.53,14.15,14.15,0,0,0,2.26.16c2.49,0,5-.06,7.49-.07,1.74,0,3.49,0,5.23,0,1.89,0,2.59,1,2,2.87a9.19,9.19,0,0,1-1.07,2.15,2.6,2.6,0,0,1-1.2.88,11,11,0,0,1-4.2.25c-2.73-.08-5.47-.09-8.2-.12a1.75,1.75,0,0,0-.56.05c-.62.15-1.17.42-1.3,1.13a1.33,1.33,0,0,0,1,1.51,3.77,3.77,0,0,0,1.37.28,62.53,62.53,0,0,0,11.26-.92,31.85,31.85,0,0,1,3.5-.43c1.24-.08,1.39.14,1.47,1.33a3.51,3.51,0,0,1-.67,2.39c-.33.45-.54.94-.08,1.4a2.59,2.59,0,0,1,.59,2c0,.7,0,1.41.07,2.11,0,1.09-.56,1.71-1.64,1.55a35.68,35.68,0,0,1-4.72-.88,44.42,44.42,0,0,0-8.26-1.09c-3.32-.33-6.68-.24-10-1a5.75,5.75,0,0,0-2.24.19c-1.24.23-1.49.15-1.62-1-.3-2.7-.89-5.38-.67-8.12a20.41,20.41,0,0,1,.35-2.05,1.57,1.57,0,0,0,.06-.67c-.89-2.3-.56-4.75-.77-7.12a3.78,3.78,0,0,1,.74-2.21A1.53,1.53,0,0,0,112,5a11.18,11.18,0,0,1-.8-1.63,3.85,3.85,0,0,1-.22-1.5.84.84,0,0,1,1-.8c.94.06,1.88.08,2.82.16,2.72.22,5.44.5,8.16.68,1.41.09,2.83.05,4.24,0a81.6,81.6,0,0,1,11.69.89c2.15.25,2.71,1,2.57,3.2,0,.47,0,.94,0,1.41-.06,1.19-.34,1.5-1.54,1.52-1.84,0-3.68,0-5.52,0h-3.82Zm-15.65,1.4.42,2.44,1.15-.17C115.32,12.18,116.34,10.76,114.81,10.48Zm-.26-4.76a2.85,2.85,0,0,0-1.27-1.56C113.54,5.55,113.54,5.55,114.55,5.72Zm.39,9.52,1.51-.64C115.67,14.32,115.17,14.14,114.94,15.24Zm1.1,3.91,0-.26-.73-.1c0,.08,0,.23,0,.23Z"/><path d="M35.55,2.08c1,0,.92.11,2,.66a2.3,2.3,0,0,0,1.87,0c1.44-.83,2.95-.39,4.41-.45,2.73-.09,5.47,0,8.2-.05s5.19,0,7.78,0c1.59,0,3.18,0,4.77-.06a1.94,1.94,0,0,1,.42.13c-.14.32-.19.77-.4.89-1.45.78-1.22,2.2-1.37,3.46a2.3,2.3,0,0,1-1.84,1.88,33.49,33.49,0,0,1-5.92-.19c-2.44-.16-4.89,0-7.34,0-1.32,0-2.64.16-4,.26-.32,0-.64.08-.95.12.25,2.41.25,2.42,2.49,2.3,2-.1,4-.31,5.94-.32,2.3,0,4.6.14,6.91.24a5.13,5.13,0,0,1,1,.31c-.11,1.23-.28,2.34-.3,3.45s.07,2.25.16,3.37c.07.79-.2,1.15-1,1.13a6.4,6.4,0,0,1-1-.19,5.48,5.48,0,0,0-1.24-.22c-2.16.1-4.32.28-6.48.36-1.93.06-3.86,0-5.79,0H42.5l.42,2.63c.93,0,1.81,0,2.68,0,3.63-.18,7.25-.4,10.87-.58,1.84-.09,3.68-.13,5.51-.16,1.08,0,1.38.21,1.24,1.21a25.19,25.19,0,0,0,.28,5.49c.11,1.49-.28,2-1.72,1.84-3.92-.44-7.8.11-11.7.31-2.63.13-5.28.09-7.91,0-2.11,0-4.22-.21-6.37-.32-.11-4.13-.87-8.11-.57-12.21,1-.27,1.63-.74,1.7-1.82,0-.63,0-1.11-.68-1.36-1-.38-1.22-1.14-1.06-2.15.3-1.85.55-3.71.78-5.58a2.13,2.13,0,0,0-.08-1.21C35.28,4.26,35.58,3.17,35.55,2.08ZM37.17,9c-.66-.45-1-.15-1.18.43s.19.88.64,1Zm1.52,2.71.12-.3-.93-.28-.08.22Zm.63-1.66-.1.26h1.27v-.12Z"/><path d="M1.79,20.13c.69.36,1.33.64,1.91,1a10.13,10.13,0,0,1,1.67,1.23,2.92,2.92,0,0,0,2.5.9,53.26,53.26,0,0,1,6.19,0c1.65,0,3.29.16,4.93.23.61,0,1-.2,1-.91a2.33,2.33,0,0,1,.51-1.08,2.34,2.34,0,0,0,.35-2.35c-.38.17-.7.33-1,.44-1.15.38-2.27.65-3.23-.44a1.51,1.51,0,0,0-1.69-.39c-.69.24-1.64.07-1.93,1.07,0,.08-.23.12-.36.15a9.37,9.37,0,0,1-5.69-.17,2.32,2.32,0,0,1-.39-.18c-1.3-1-2.61-2-3.89-3a2.76,2.76,0,0,1-.74-1,6.82,6.82,0,0,1-.54-4.27c.22-1,.35-2,.65-3a15.84,15.84,0,0,1,1.2-2.81,2.17,2.17,0,0,1,1.07-.88C5.9,4,7.58,3.35,9.27,2.78,11.75,2,14.37,2,16.93,1.64a42.76,42.76,0,0,1,4.77-.46,10.33,10.33,0,0,1,5.6,1.16,7.44,7.44,0,0,1,2.18,2.15,2.78,2.78,0,0,1-2.1,4.12,6.88,6.88,0,0,1-3.46-.36A12.29,12.29,0,0,0,21,7.81,2.45,2.45,0,0,1,18.69,6,2.86,2.86,0,0,1,15.8,7a31.79,31.79,0,0,0-3.24-.12c-.51,0-1,.07-1.53.11-.24.75-.18,1.5-1,2-.36.21-.05.87.36,1.19a6.46,6.46,0,0,0,6.22,1.33,3.3,3.3,0,0,1,2.45,0,9.17,9.17,0,0,0,1.76.54,15,15,0,0,0,2.22.19c.94,0,1.89-.11,2.82,0a3.53,3.53,0,0,1,1.59.49c2.17,1.37,3.88,4.21,3,7.12a10,10,0,0,0-.23,3.33,4.32,4.32,0,0,1-2,4.22,3.94,3.94,0,0,0-.8.78,5.38,5.38,0,0,1-3.67,1.85c-3,.34-5.91-.13-8.86-.1-.33,0-.75-.12-1,0-.82.61-1.59.2-2.42.06a26.27,26.27,0,0,0-3.08-.23.7.7,0,0,0-.51.18c-.7.84-1.35.48-2.1.05a31.79,31.79,0,0,1-4.79-3.17,2.51,2.51,0,0,1-1-2.49A13.19,13.19,0,0,1,1.79,20.13ZM15.55,2.34V2.16l-2.47.34,0,.22Z"/><path d="M68.84,78.09c-.59,0-1,.07-1.51.08-1.37,0-2.74,0-4.1.06a6.92,6.92,0,0,0-2.62.47,2.37,2.37,0,0,1-3.22-.9c-1.12-1.65-2.81-2.59-4.2-3.89a3.81,3.81,0,0,0-1.79-.72c-2-.43-3.94,0-5.91.17-.56,0-1.12.13-1.69.16-1.77.08-2.25.47-2.5,2.2A5.64,5.64,0,0,1,40,78.65a1.5,1.5,0,0,1-2.22.23c-1.06-1.34-2.58-1.39-4-1.66-1-.18-2.06-.19-3.09-.29-.26,0-.51-.13-.93-.23.38-1.1.73-2.1,1.1-3.1a5.09,5.09,0,0,0,.43-1,3.76,3.76,0,0,1,1.5-2.31,25.34,25.34,0,0,0,4.65-5.77c1.43-2.47,2.81-5,4.21-7.46.85-1.52,1.68-3.05,2.51-4.58,1-1.73,1.47-1.93,3.4-1.73,1.5.16,3,.12,4.52.17s1.93.32,2.34,1.73a34.12,34.12,0,0,0,3.51,7.21c.78,1.39,1.38,2.88,2.06,4.33a4.36,4.36,0,0,0,.33.77,34.68,34.68,0,0,1,3.49,6.87c.38.93.83,1.84,2.08,1.78a.41.41,0,0,1,.27.08C67.32,74.88,68.9,75.85,68.84,78.09ZM47.65,64a3.5,3.5,0,0,0,1.18.31A1.64,1.64,0,0,0,50,63.77a2,2,0,0,0-.35-2.45c-.4-.42-.81-.81-1.47-.49a1.6,1.6,0,0,0-.79,1.63C47.43,63,47.54,63.45,47.65,64Z"/><path d="M26.08,51.56l-.58-.94A6,6,0,0,1,31,53.07a5.79,5.79,0,0,1,1.44,4.29,8.08,8.08,0,0,0,.2,2A5.1,5.1,0,0,1,29.17,65a2.77,2.77,0,0,0-.88.43c-2.56,2-5.59,2.56-8.73,2.78-2.24.16-4.48.38-6.75.57.41,1.54.35,1.65-1.33,2.56.84,1.53.3,3.19.43,4.81l1.05.3c-.28.19-.42.37-.55.36-2.44-.12-4.87-.32-7.3-.4-1.25,0-2.5.13-3.75.19-.41,0-.82,0-1.36,0,.41-1.77.09-3.45,1-5.07.48-.9.3-2.19.29-3.31,0-2.53-.33-5.07.19-7.6a8.66,8.66,0,0,0,0-2c0-1.83-.12-3.66-.13-5.49a4.36,4.36,0,0,1,.82-3.06c1.55,0,3.09.07,4.64.14,1.92.08,3.86.12,5.78.29,3.13.29,6.26.68,9.4,1A12.59,12.59,0,0,0,26.08,51.56ZM10.92,57.09a4.4,4.4,0,0,0-.88,4,1.59,1.59,0,0,0,1.75,1.47,6.65,6.65,0,0,0,2.24-.2,14.48,14.48,0,0,1,5.54-.73c1,0,1.38-.28,1.54-1.06s-.25-1.84-.94-2a4.32,4.32,0,0,0-3.55.14,1.38,1.38,0,0,1-2.2-.75,1.16,1.16,0,0,0-1.26-.86C12.41,57.11,11.66,57.09,10.92,57.09Z"/><path d="M87.62,79.62a21.47,21.47,0,0,1-8.24-.28c-1.72-.47-3.48-.81-5.21-1.22-.43-.11-.83-.31-1.28-.47A2.11,2.11,0,0,1,74,76.27a1.86,1.86,0,0,0,.91-2.5c-.44-1.28-.94-2.55-1.38-3.83a2.33,2.33,0,0,1-.16-1.21,3,3,0,0,0-.82-2.59,11.45,11.45,0,0,0-1.18-1.41c-.94-.88-1-2.23-1.69-3.2S67.94,59.36,67,58.29c-.6-.72-1.2-1.44-1.83-2.14-.79-.86-1.64-1.67-2.39-2.56-.57-.67-1-1.45-1.64-2.32.37-.24.63-.55.94-.6,1.43-.25,2.88-.49,4.32-.63s3-.24,4.52-.27,1.88.36,2.44,1.82a15.43,15.43,0,0,0,1.19,2.23c.63,1.1,1.25,2.21,1.94,3.27a1.6,1.6,0,0,0,2.41.66c.79-.38,1.59-.67,1.59-1.87A3,3,0,0,1,81.45,54a4.05,4.05,0,0,0,1-2.08,5.13,5.13,0,0,1,.77-1.66,1.62,1.62,0,0,1,1-.69,6.42,6.42,0,0,1,4.53.54,13.57,13.57,0,0,0,4.51,2c.86.17,1.11.85.51,1.47-1.59,1.64-2.09,3.88-3.29,5.71C88.73,62,87.34,65,85.11,67.36a3.82,3.82,0,0,0-1,2.13c-.19,1.3-.52,2.58-.83,3.86a2.14,2.14,0,0,0,.8,2.46A43.49,43.49,0,0,1,87.62,79.62Z"/><path class="cls-1" d="M273.86,18.34c-1.3-.36-1.13-1.62-1.19-2.71,0-.74.53-1,1.26-.68.35.16.81.27,1,.54a6.59,6.59,0,0,1,.47,1.6c.13.06.44.25.77.4s.62.25,1.07.42l-1.57.22.12.64a10.39,10.39,0,0,0-1.27.56c-.34.21-.71.51-.95.08C273.44,19.2,273.73,18.76,273.86,18.34Zm1-1c-.1.12-.23.24-.21.29a.36.36,0,0,0,.26.21c.09,0,.17-.13.26-.21Zm-1.11-.94a1.39,1.39,0,0,0-.28.33s.08.21.12.2.27-.05.29-.12S273.79,16.62,273.72,16.43Z"/><path class="cls-1" d="M275.42,12.81v1.54L273.74,14c-.15-1.05-.3-2.07-.43-3.09s.55-1.91,1.25-2.76c0,.23.17.52.08.68-.58,1,0,1.85.42,2.68.24.44.72.8.34,1.38-.78-.72-.86,0-1.19.49C274.92,13.62,275.11,13.08,275.42,12.81Z"/><path class="cls-1" d="M291.67,5c-.43-.79-2.23-.37-1.84-2C291,3.21,291.41,4.05,291.67,5Z"/><path class="cls-1" d="M294.29,4a5.19,5.19,0,0,1-1.19,1c-.15.06-.53-.45-.84-.75C293.15,3.73,293.15,3.73,294.29,4Z"/><path class="cls-1" d="M288,4.6l-1.23-1.36C287.76,3.25,288,3.52,288,4.6Z"/><path class="cls-1" d="M276,20.55c-.68.45-1-.14-1.32-.51C275.14,19.84,275.14,19.84,276,20.55Z"/><path class="cls-1" d="M275.76,15.38l.47-.37.25.36c-.1.06-.2.18-.3.18S275.94,15.46,275.76,15.38Z"/><path class="cls-1" d="M227.82,22.33,226,22.1a6.23,6.23,0,0,1,.22-1.27c.05-.15.46-.16.7-.22,0,.44-.12.87,0,1.14s.6.26.92.37Z"/><path class="cls-1" d="M227.1,27.74a1.64,1.64,0,0,1,.6-2.26C226.94,26.05,228,27.05,227.1,27.74Z"/><path class="cls-1" d="M228.64,23.92l-1.15.2V25c-.34-.31-.72-.52-.7-.66a.94.94,0,0,1,.53-.63,5.72,5.72,0,0,1,1.31,0Z"/><path class="cls-1" d="M228,19c-1,.45-1,.45-1.29-.64Z"/><path class="cls-1" d="M70.83,14.32l.63,1.35H69.85C69.67,14.78,70.48,14.87,70.83,14.32Z"/><path class="cls-1" d="M70.48,18.58c-.25-.69-.42-1.15.19-1.61C71.14,17.56,70.84,18,70.48,18.58Z"/><path class="cls-1" d="M72.38,19c-.47.16-.77.72-1.5.29l1.34-.64Z"/><path class="cls-1" d="M99.4,8.86l-1,.06,0-.37,1.07,0a.11.11,0,0,1,.08.08A1.36,1.36,0,0,1,99.4,8.86Z"/><path class="cls-1" d="M100.2,6.05,99,6c.53-.7.89-.37,1.24-.24Z"/><path class="cls-1" d="M70.41,13.8l.53-.64.21.16-.51.69Z"/><path class="cls-1" d="M78.46,10.9a2,2,0,0,1,.62-.15c.12,0,.22.21.34.32a1.85,1.85,0,0,1-.37.32S78.87,11.25,78.46,10.9Z"/><path class="cls-1" d="M191.71,26.5l-.58.49-1.93-1.88c.63-.33,1-.44,1.37.05S191.24,26,191.71,26.5Z"/><path class="cls-1" d="M185.75,12.84c.37.8.53,1.36-.45,1.71-.17-.26-.57-.65-.5-.81C185,13.39,185.39,13.16,185.75,12.84Z"/><path class="cls-1" d="M188.8,20.33a1.12,1.12,0,0,1-1.26.89l-.49-1.45Z"/><path class="cls-1" d="M186.79,16.61c.94-.52.94-.52,1.68-.34C187.8,16.71,187.8,16.71,186.79,16.61Z"/><path class="cls-1" d="M192.61,26.76l1.11.61C193,28,193,28,192.61,26.76Z"/><path class="cls-1" d="M186.06,11.48l-.2-1.19C186.71,10.47,186.71,10.47,186.06,11.48Z"/><path class="cls-1" d="M186.69,15.39l-1.07-.11c.15-.25.23-.45.28-.44a8.79,8.79,0,0,1,.87.15Z"/><path class="cls-1" d="M192.87,4.27l-.68-.43.18-.29.68.43Z"/><path class="cls-1" d="M195,3.66c.13.27.26.42.25.55s-.17.27-.26.4c-.12-.15-.31-.27-.35-.44S194.76,3.91,195,3.66Z"/><path class="cls-1" d="M188.87,23.35v1h-.24l.08-1Z"/><path class="cls-1" d="M195.74,28.49a2.2,2.2,0,0,1,.44-.21c.11,0,.24.07.4.34l-.77.16Z"/><path class="cls-1" d="M344.7,24.9a1.34,1.34,0,0,0,1.76,0C345.81,25.83,345.21,25.82,344.7,24.9Z"/><path class="cls-1" d="M342.94,23.77l-1.58.16v-.31c.52-.06,1.05-.56,1.55.17Z"/><path class="cls-1" d="M339.11,24.56l.82.05,0,.23a2.16,2.16,0,0,1-.52.15c-.14,0-.26-.16-.39-.24Z"/><path class="cls-1" d="M342.91,23.79c.44,0,.95-.32,1.27.32-.61.36-.86-.17-1.23-.34Z"/><path class="cls-1" d="M341,25.73c-.2,0-.39.08-.58.1a.7.7,0,0,1-.08-.23l.57-.2Z"/><path class="cls-1" d="M343.61,26.67c.11-.13.23-.31.25-.3a1.69,1.69,0,0,1,.38.28c-.09.09-.17.24-.27.25S343.76,26.77,343.61,26.67Z"/><path class="cls-1" d="M163.72,18c1.29,0,.85-1,1.2-1.67.8.57.25,1.27.41,2,.28.38,1.29.49.94,1.57l-1.09-.07.52-.58-1.9-.81Z"/><path class="cls-1" d="M163.72,17.56a2,2,0,0,1-.37-.23c-.32-.31-.86-.61-.89-.95s.35-.91.58-1.42A2.94,2.94,0,0,1,163.72,17.56Z"/><path class="cls-1" d="M159.15,13.16h1.6v.27l-1.61.12Z"/><path class="cls-1" d="M171,24l1.25.4c-.08.15-.13.37-.25.42C171.26,25.16,171.23,24.61,171,24Z"/><path class="cls-1" d="M149.86,22c-.86,0-1.08-.2-.59-1Z"/><path class="cls-1" d="M160.94,14.61c.76.21.76.21,1.16.74C161.52,15.54,161.52,15.54,160.94,14.61Z"/><path class="cls-1" d="M174.32,18.9l-.28.38a2.26,2.26,0,0,1-.35-.34s.13-.26.17-.25A2.23,2.23,0,0,1,174.32,18.9Z"/><path class="cls-1" d="M175,21.43l.79-.18.07.23-.75.27Z"/><path class="cls-1" d="M166,14.7a2.85,2.85,0,0,1,.13.48s-.14.09-.21.13l-.23-.51Z"/><path class="cls-1" d="M151.23,2c-.38.12-.51.21-.6.18s-.16-.17-.23-.27c.11-.05.21-.14.32-.14A2.24,2.24,0,0,1,151.23,2Z"/><path class="cls-1" d="M114.81,10.48c1.53.28.51,1.7,1.57,2.27l-1.15.17Z"/><path class="cls-1" d="M114.55,5.72c-1-.17-1-.17-1.27-1.56A2.85,2.85,0,0,1,114.55,5.72Z"/><path class="cls-1" d="M114.94,15.24c.23-1.1.73-.92,1.51-.64Z"/><path class="cls-1" d="M116,19.15l-.7-.13s0-.15,0-.23l.73.1Z"/><path class="cls-1" d="M37.17,9l-.54,1.46c-.45-.15-.87-.35-.64-1S36.51,8.55,37.17,9Z"/><path class="cls-1" d="M38.69,11.71l-.89-.36.08-.22.93.28Z"/><path class="cls-1" d="M39.32,10.05l1.18.14v.12H39.22Z"/><path class="cls-1" d="M15.55,2.34l-2.43.38,0-.22,2.47-.34Z"/><path class="cls-1" d="M47.65,64c-.11-.57-.22-1.07-.3-1.56a1.6,1.6,0,0,1,.79-1.63c.66-.32,1.07.07,1.47.49A2,2,0,0,1,50,63.77a1.64,1.64,0,0,1-1.13.56A3.5,3.5,0,0,1,47.65,64Z"/><path class="cls-1" d="M10.92,57.09c.74,0,1.49,0,2.24,0a1.16,1.16,0,0,1,1.26.86,1.38,1.38,0,0,0,2.2.75,4.32,4.32,0,0,1,3.55-.14c.69.17,1.09,1.23.94,2s-.51,1.09-1.54,1.06a14.48,14.48,0,0,0-5.54.73,6.65,6.65,0,0,1-2.24.2A1.59,1.59,0,0,1,10,61.09,4.4,4.4,0,0,1,10.92,57.09Z"/><path d="M274.83,17.37l.31.29c-.09.08-.17.22-.26.21a.36.36,0,0,1-.26-.21C274.6,17.61,274.73,17.49,274.83,17.37Z"/><path d="M273.72,16.43c.07.19.16.32.13.41s-.19.12-.29.12-.14-.16-.12-.2A1.39,1.39,0,0,1,273.72,16.43Z"/><path d="M275.42,12.81c-.31.27-.5.81-1.21.53.33-.46.41-1.21,1.19-.49Z"/></g></g></svg>