<svg xmlns="http://www.w3.org/2000/svg" viewBox="0 0 167.56 96.91"><defs><style>.cls-1{font-size:26.99px;fill:#1d1d1b;font-family:Canto-Roman, Canto;}.cls-2{letter-spacing:-0.06em;}.cls-3{letter-spacing:-0.02em;}.cls-4{letter-spacing:-0.01em;}</style></defs><g id="Calque_2" data-name="Calque 2"><g id="Header"><text class="cls-1" transform="translate(0 51.82)">SEMENCES<tspan x="0" y="32.39">DE </tspan><tspan class="cls-2" x="40.94" y="32.39">P</tspan><tspan class="cls-3" x="53.93" y="32.39">A</tspan><tspan class="cls-4" x="69.77" y="32.39">Y</tspan><tspan x="87.45" y="32.39">S</tspan></text><path d="M152.24,30.6a15.3,15.3,0,1,1,15.31-15A15.28,15.28,0,0,1,152.24,30.6Zm6.92-12.25a14.55,14.55,0,0,0,.22-6.66,15.26,15.26,0,0,0-3.19-6.58A14.91,14.91,0,0,0,152.86,2a.53.53,0,0,0-.68,0,17.56,17.56,0,0,0-5.44,6,12.58,12.58,0,0,0-1.45,8,16.22,16.22,0,0,0,1.94,5.53l.67,1.17-.05.06c-.42-.33-.85-.63-1.25-1a13.48,13.48,0,0,1-4.28-7.57c-.07-.33-.1-.67-.19-1a1.86,1.86,0,0,0-.29-.42c-.12.11-.26.2-.37.32a.83.83,0,0,0-.11.29,13.2,13.2,0,0,0-.34,7.47,10.47,10.47,0,0,0,5.85,7.31,13,13,0,0,0,7.63,1,9.74,9.74,0,0,0,8-6.22,13,13,0,0,0,.79-7,14.83,14.83,0,0,0-2.55-6.49,1.63,1.63,0,0,0-.23-.29c-.06-.05-.17-.1-.22-.07a.29.29,0,0,0-.08.22,1.94,1.94,0,0,0,.07.33c.09.55.19,1.09.26,1.64a11,11,0,0,1-.12,2.81A15.51,15.51,0,0,1,159.16,18.35Z"/><path d="M145.49,34.92a6.46,6.46,0,0,1,1.3.12,3,3,0,0,1,1,.39,1.9,1.9,0,0,1,.65.73,2.34,2.34,0,0,1,.23,1.11,2,2,0,0,1-.34,1.19,2.47,2.47,0,0,1-1,.78,2.4,2.4,0,0,1,1.37.88,2.49,2.49,0,0,1,.46,1.52,2.55,2.55,0,0,1-.29,1.24,2.41,2.41,0,0,1-.8.85,3.49,3.49,0,0,1-1.13.49,5.22,5.22,0,0,1-1.31.16h-4.85V34.92Zm-.28,3.83a1.73,1.73,0,0,0,1-.26,1,1,0,0,0,.37-.86,1.12,1.12,0,0,0-.12-.55,1,1,0,0,0-.34-.33,1.43,1.43,0,0,0-.48-.16,3.45,3.45,0,0,0-.57-.05H143v2.21Zm.13,4a4,4,0,0,0,.61,0,1.61,1.61,0,0,0,.52-.2,1.09,1.09,0,0,0,.36-.38,1.23,1.23,0,0,0,.13-.61,1.19,1.19,0,0,0-.43-1,1.93,1.93,0,0,0-1.15-.31H143v2.59Z"/><path d="M152.84,34.92v9.46h-2.2V34.92Z"/><path d="M154.68,37.73a4.58,4.58,0,0,1,1-1.59,4.5,4.5,0,0,1,1.55-1.06,5.83,5.83,0,0,1,4.14,0,4.46,4.46,0,0,1,1.54,1.06,4.75,4.75,0,0,1,1,1.59,5.68,5.68,0,0,1,.33,2,5.55,5.55,0,0,1-.33,1.93,4.72,4.72,0,0,1-1,1.56,4.39,4.39,0,0,1-1.54,1,5.83,5.83,0,0,1-4.14,0,4.43,4.43,0,0,1-1.55-1,4.54,4.54,0,0,1-1-1.56,5.33,5.33,0,0,1-.34-1.93A5.46,5.46,0,0,1,154.68,37.73Zm2,3.12a2.76,2.76,0,0,0,.47,1,2.3,2.3,0,0,0,.84.73,2.67,2.67,0,0,0,1.26.27,2.73,2.73,0,0,0,1.26-.27,2.47,2.47,0,0,0,.84-.73,3.12,3.12,0,0,0,.47-1,4.91,4.91,0,0,0,.14-1.16,5.32,5.32,0,0,0-.14-1.2,3.19,3.19,0,0,0-.47-1,2.37,2.37,0,0,0-.84-.73,2.73,2.73,0,0,0-1.26-.27,2.67,2.67,0,0,0-1.26.27,2.21,2.21,0,0,0-.84.73,2.82,2.82,0,0,0-.47,1,4.81,4.81,0,0,0-.15,1.2A4.45,4.45,0,0,0,156.69,40.85Z"/></g></g></svg>