<?xml version="1.0" encoding="utf-8"?>
<!-- Generator: Adobe Illustrator 26.3.1, SVG Export Plug-In . SVG Version: 6.00 Build 0)  -->
<svg version="1.1" id="Calque_1" xmlns="http://www.w3.org/2000/svg" xmlns:xlink="http://www.w3.org/1999/xlink" x="0px" y="0px"
	 viewBox="0 0 173 48.2" style="enable-background:new 0 0 173 48.2;" xml:space="preserve">
<style type="text/css">
	.st0{fill:#557155;}
</style>
<g>
	<path class="st0" d="M0.9,18.4c-0.1-0.2-0.2-0.4-0.2-0.7c0-0.1,0-0.2,0-0.2c0-0.1,0-0.1,0-0.2c0-0.4,0.1-0.7,0.2-1.1
		c0.1-0.3,0.3-0.6,0.6-0.9c0.2-0.2,0.5-0.4,0.9-0.6c0.3-0.1,0.7-0.2,1.1-0.2h0.1c0.8,0,1.5,0.2,1.9,0.5c0.5,0.3,0.9,0.7,1.2,1.2
		c0.3,0.5,0.6,1,0.8,1.5c0.2,0.5,0.5,1,0.8,1.5s0.7,0.9,1.2,1.2c0.5,0.3,1.2,0.5,2,0.5s1.4-0.2,2-0.5s0.8-0.9,0.8-1.7
		c0-0.8-0.3-1.5-1-2.1c-0.6-0.6-1.4-1.1-2.4-1.7c-1-0.5-2-1-3.1-1.5s-2.1-1.1-3.1-1.7c-1-0.6-1.8-1.4-2.4-2.3c-0.6-0.9-1-1.9-1-3.2
		c0-1,0.2-1.8,0.6-2.5s1-1.3,1.7-1.8C4.4,1.3,5.2,1,6.2,0.7c1-0.2,2-0.4,3.2-0.4c1.3,0,2.4,0.1,3.4,0.3s1.8,0.4,2.5,0.7
		s1.3,0.6,1.7,1c0.5,0.4,0.8,0.7,1.1,1.1c0.1,0.2,0.3,0.4,0.4,0.6s0.2,0.4,0.2,0.7c0,0.1,0,0.1,0,0.2s0,0.1,0,0.1
		c0,0.3-0.1,0.7-0.2,1s-0.3,0.6-0.6,0.8C17.6,7,17.3,7.2,17,7.3c-0.3,0.1-0.7,0.2-1,0.2c-0.7,0-1.2-0.1-1.6-0.4
		c-0.4-0.3-0.7-0.6-1-1s-0.5-0.8-0.7-1.3s-0.5-0.9-0.8-1.3s-0.7-0.7-1.1-1c-0.4-0.3-1-0.4-1.7-0.4c-0.5,0-1,0.2-1.4,0.5
		C7.2,3,7,3.5,7,4.3s0.3,1.5,0.9,2s1.4,1,2.4,1.4c0.9,0.4,2,0.9,3.1,1.3s2.1,0.9,3.1,1.5c0.9,0.6,1.7,1.4,2.4,2.3
		c0.6,0.9,0.9,2.1,0.9,3.4c0,0.9-0.2,1.8-0.6,2.6c-0.4,0.8-1,1.5-1.8,2c-0.8,0.6-1.7,1-2.9,1.3c-1.1,0.3-2.4,0.5-3.8,0.5
		c-1.5,0-2.9-0.1-4-0.4s-2.1-0.6-2.9-1s-1.4-0.9-1.9-1.4C1.4,19.3,1.1,18.8,0.9,18.4z"/>
	<path class="st0" d="M21,21.4c0-0.3,0.1-0.6,0.3-0.8s0.4-0.5,0.7-0.7c0.2-0.2,0.5-0.5,0.7-0.8s0.3-0.6,0.3-1V5
		c0-0.3-0.1-0.6-0.3-0.9c-0.2-0.3-0.4-0.5-0.7-0.8c-0.2-0.2-0.5-0.5-0.7-0.8C21.1,2.3,21,2.1,21,1.7c0-0.3,0.1-0.6,0.3-0.9
		c0.2-0.2,0.5-0.3,0.8-0.3h15.4c0.3,0,0.6,0.1,0.7,0.3c0.2,0.2,0.3,0.4,0.3,0.8v4.1c0,0.2,0,0.4,0,0.7c0,0.2-0.1,0.5-0.1,0.7
		c-0.1,0.2-0.2,0.4-0.4,0.5s-0.4,0.2-0.7,0.2s-0.6-0.1-0.8-0.3C36.3,7.3,36.1,7,36,6.6c-0.2-0.4-0.3-0.7-0.5-1.1
		c0-0.5-0.2-0.9-0.5-1.2c-0.3-0.4-0.6-0.6-1-0.9c-0.4-0.2-0.9-0.3-1.6-0.3h-1.6c-0.5,0-0.9,0.1-1.3,0.4s-0.6,0.7-0.6,1.1v2.9
		c0,0.8,0,1.8,0,2.8h3.9c0.5,0,0.8-0.1,1.1-0.3s0.5-0.4,0.7-0.7C34.8,9,35,8.8,35.1,8.6c0.2-0.2,0.4-0.3,0.6-0.3
		c0.3,0,0.5,0.1,0.6,0.3s0.2,0.4,0.2,0.6v4.1c0,0.2-0.1,0.4-0.2,0.6c-0.1,0.2-0.3,0.3-0.6,0.3c-0.2,0-0.4-0.1-0.6-0.3
		c-0.2-0.2-0.4-0.4-0.5-0.7c-0.2-0.2-0.4-0.5-0.7-0.7s-0.7-0.3-1.1-0.3h-3.9v2.9v2c0,0.3,0,0.6,0,0.9c0.1,0.6,0.3,1,0.7,1.3
		c0.4,0.3,0.8,0.5,1.2,0.5h1.9c0.7,0,1.2-0.1,1.7-0.3c0.4-0.2,0.8-0.5,1.1-0.9c0.3-0.3,0.6-0.7,0.8-1.1s0.4-0.8,0.6-1.1
		c0.2-0.3,0.4-0.6,0.6-0.9c0.2-0.2,0.5-0.3,0.9-0.3c0.3,0,0.5,0.1,0.7,0.2c0.1,0.1,0.2,0.3,0.3,0.5c0,0.2,0.1,0.4,0,0.7
		c0,0.2,0,0.5-0.1,0.6l-0.6,4.1c0,0.3-0.2,0.5-0.4,0.7s-0.5,0.3-0.8,0.3H22.2c-0.3,0-0.6-0.1-0.8-0.3C21.2,22,21,21.7,21,21.4z"/>
	<path class="st0" d="M40.7,21.4c0-0.3,0.1-0.6,0.3-0.8c0.2-0.2,0.4-0.5,0.7-0.7c0.2-0.2,0.5-0.5,0.7-0.8s0.3-0.6,0.3-1V5
		c0-0.4-0.1-0.8-0.3-1c-0.2-0.3-0.4-0.5-0.7-0.7C41.4,3,41.2,2.8,41,2.6s-0.3-0.5-0.3-0.8s0.1-0.6,0.4-0.9c0.2-0.2,0.5-0.3,0.8-0.3
		h5.5c0.4,0,0.7,0.1,1.1,0.3C48.8,1,49,1.3,49.2,1.7l6.4,14.5l6.1-14.5c0.1-0.3,0.3-0.6,0.6-0.8s0.6-0.3,1-0.3h5.2
		c0.3,0,0.6,0.1,0.8,0.3c0.2,0.2,0.3,0.5,0.3,0.9c0,0.5-0.2,0.8-0.6,1l-0.7,0.8C68,4,67.8,4.5,67.8,5v13.1c0,0.6,0.2,1.1,0.6,1.5
		l0.7,0.8c0.4,0.2,0.6,0.5,0.6,1c0,0.3-0.1,0.6-0.3,0.9c-0.2,0.2-0.5,0.3-0.8,0.3h-7.4c-0.3,0-0.6-0.1-0.8-0.3
		C60.1,22,60,21.7,60,21.4c0-0.5,0.2-0.8,0.6-1l0.7-0.8c0.4-0.5,0.6-1,0.6-1.5v-10l-5.7,13.5c-0.1,0.3-0.3,0.5-0.6,0.7
		s-0.6,0.3-0.9,0.3h-1.9c-0.2-0.1-0.3-0.2-0.5-0.4c-0.1-0.1-0.3-0.2-0.4-0.4c-0.1-0.1-0.2-0.3-0.3-0.4l-6-13.3V18
		c0,0.4,0.1,0.7,0.3,1s0.4,0.5,0.7,0.8c0.2,0.2,0.5,0.5,0.7,0.7s0.3,0.5,0.3,0.8s-0.1,0.6-0.3,0.9c-0.2,0.2-0.5,0.3-0.8,0.3H42
		c-0.3,0-0.6-0.1-0.8-0.3C40.8,22,40.7,21.7,40.7,21.4z"/>
	<path class="st0" d="M70.7,21.4c0-0.3,0.1-0.6,0.3-0.8c0.2-0.2,0.4-0.5,0.7-0.7c0.2-0.2,0.5-0.5,0.7-0.8s0.3-0.6,0.3-1V5
		c0-0.3-0.1-0.6-0.3-0.9c-0.2-0.3-0.4-0.5-0.7-0.8c-0.2-0.2-0.5-0.5-0.7-0.8s-0.3-0.6-0.3-0.9S70.8,1,71,0.7
		c0.2-0.2,0.5-0.3,0.8-0.3h15.4c0.3,0,0.6,0.1,0.7,0.3c0.2,0.2,0.3,0.4,0.3,0.8v4.1c0,0.2,0,0.4,0,0.7c0,0.2-0.1,0.5-0.1,0.7
		c-0.1,0.2-0.2,0.4-0.4,0.5c-0.2,0.1-0.4,0.2-0.7,0.2c-0.3,0-0.6-0.1-0.8-0.3c-0.2-0.2-0.4-0.5-0.5-0.9c-0.2-0.4-0.3-0.7-0.5-1.1
		c0-0.4-0.2-0.8-0.5-1.1c-0.3-0.4-0.6-0.6-1-0.9s-0.9-0.3-1.6-0.3h-1.6c-0.5,0-0.9,0.1-1.3,0.4s-0.6,0.7-0.6,1.1v2.9
		c0,0.8,0,1.8,0,2.8h3.9c0.5,0,0.8-0.1,1.1-0.3c0.3-0.2,0.5-0.4,0.7-0.7c0.2-0.2,0.4-0.5,0.6-0.7s0.4-0.3,0.6-0.3
		c0.3,0,0.5,0.1,0.6,0.3s0.2,0.4,0.2,0.6v4.1c0,0.2-0.1,0.4-0.2,0.6c-0.1,0.2-0.3,0.3-0.6,0.3c-0.2,0-0.4-0.1-0.6-0.3
		s-0.4-0.4-0.5-0.7c-0.2-0.2-0.4-0.5-0.7-0.7c-0.3-0.2-0.7-0.3-1.1-0.3h-3.9v2.9v2c0,0.3,0,0.6,0,0.9c0.1,0.6,0.3,1,0.7,1.3
		c0.4,0.3,0.8,0.5,1.2,0.5h1.9c0.7,0,1.2-0.1,1.7-0.3c0.4-0.2,0.8-0.5,1.1-0.9c0.3-0.3,0.6-0.7,0.8-1.1c0.2-0.4,0.4-0.8,0.6-1.1
		c0.2-0.3,0.4-0.6,0.6-0.9c0.2-0.2,0.5-0.3,0.9-0.3c0.3,0,0.5,0.1,0.7,0.2c0.1,0.1,0.2,0.3,0.3,0.5c0,0.2,0.1,0.4,0,0.7
		c0,0.2,0,0.5-0.1,0.6l-0.6,4.1c0,0.3-0.2,0.5-0.4,0.7c-0.2,0.2-0.5,0.3-0.8,0.3H71.9c-0.3,0-0.6-0.1-0.8-0.3
		C70.9,22,70.7,21.7,70.7,21.4z"/>
	<path class="st0" d="M90.4,21.4c0-0.3,0.1-0.6,0.3-0.8c0.2-0.2,0.4-0.5,0.7-0.7c0.2-0.2,0.5-0.5,0.7-0.8s0.3-0.6,0.3-1V5
		c0-0.4-0.1-0.8-0.3-1c-0.2-0.3-0.4-0.5-0.7-0.7c-0.2-0.2-0.5-0.5-0.7-0.7s-0.3-0.5-0.3-0.8s0.1-0.6,0.4-0.9
		c0.2-0.2,0.5-0.3,0.8-0.3h5.7c0.7,0,1.2,0.3,1.6,0.9l7,12.1V5c0-0.4-0.1-0.7-0.3-1c-0.2-0.3-0.4-0.5-0.7-0.7
		c-0.2-0.2-0.5-0.5-0.7-0.7s-0.3-0.5-0.3-0.8c0-0.4,0.1-0.7,0.4-0.9s0.6-0.4,0.9-0.4h4.3c0.3,0,0.6,0.1,0.9,0.4
		c0.3,0.2,0.4,0.5,0.4,0.9c0,0.3-0.1,0.6-0.3,0.8c-0.2,0.2-0.4,0.5-0.7,0.7s-0.5,0.5-0.7,0.7c-0.2,0.3-0.3,0.6-0.3,1v16.3
		c0,0.4-0.1,0.7-0.4,0.9c-0.3,0.2-0.6,0.4-0.9,0.4h-2c-0.7,0-1.3-0.3-1.7-0.9l-8.6-15v11.4c0,0.4,0.1,0.7,0.3,1
		c0.2,0.3,0.4,0.5,0.7,0.8c0.2,0.2,0.5,0.5,0.7,0.7s0.3,0.5,0.3,0.8s-0.1,0.6-0.3,0.9c-0.2,0.2-0.5,0.3-0.9,0.3h-4.5
		c-0.3,0-0.6-0.1-0.8-0.3C90.5,22,90.4,21.7,90.4,21.4z"/>
	<path class="st0" d="M123.3,22.9c-1.9,0-3.6-0.3-5.1-1c-1.5-0.6-2.7-1.5-3.6-2.6c-1-1.1-1.7-2.3-2.2-3.6c-0.5-1.4-0.7-2.7-0.7-4.1
		s0.3-2.8,0.8-4.1c0.5-1.4,1.2-2.6,2.3-3.6c1-1.1,2.3-1.9,3.8-2.6c1.5-0.6,3.3-1,5.3-1c1.3,0,2.3,0.1,3.3,0.4c0.9,0.3,1.7,0.6,2.4,1
		c0.6,0.4,1.2,0.9,1.6,1.4c0.4,0.5,0.7,1,0.9,1.4c0.1,0.2,0.2,0.5,0.2,0.8c0,0.1,0,0.2,0,0.4c0,0.8-0.3,1.4-0.8,1.9
		s-1.1,0.8-1.8,0.8c-0.1,0-0.2,0-0.3,0s-0.2,0-0.3,0c-0.5-0.1-1-0.4-1.4-0.7c-0.4-0.4-0.7-0.8-1-1.3s-0.6-1-0.9-1.6
		c-0.3-0.5-0.6-1-0.9-1.5c-0.3-0.4-0.8-0.8-1.2-1c-0.7-0.3-1.3-0.3-2-0.2c-0.9,0.2-1.7,0.7-2.3,1.5c-0.6,0.9-1.1,1.9-1.4,3.1
		s-0.4,2.5-0.3,3.9s0.5,2.7,1.1,3.8c0.6,1.2,1.5,2.1,2.7,2.9c1.2,0.8,2.7,1.2,4.6,1.2c0.8,0,1.6-0.1,2.3-0.3
		c0.7-0.2,1.3-0.5,1.8-0.8c0.6-0.3,1.1-0.7,1.6-1.2c0.2-0.1,0.3-0.1,0.5,0s0.2,0.3,0.2,0.5c-0.5,1.1-1.1,2.1-2,3
		c-0.4,0.4-0.8,0.8-1.2,1.1c-0.5,0.4-1,0.7-1.6,1s-1.3,0.5-2,0.7C124.9,22.8,124.1,22.9,123.3,22.9z"/>
	<path class="st0" d="M133.8,21.4c0-0.3,0.1-0.6,0.3-0.8c0.2-0.2,0.4-0.5,0.7-0.7c0.2-0.2,0.5-0.5,0.7-0.8s0.3-0.6,0.3-1V5
		c0-0.3-0.1-0.6-0.3-0.9s-0.4-0.5-0.7-0.8c-0.2-0.2-0.5-0.5-0.7-0.8s-0.3-0.6-0.3-0.9s0.1-0.6,0.3-0.9c0.2-0.2,0.5-0.3,0.8-0.3h15.4
		c0.3,0,0.6,0.1,0.7,0.3c0.2,0.2,0.3,0.4,0.3,0.8v4.1c0,0.2,0,0.4,0,0.7c0,0.2-0.1,0.5-0.1,0.7c-0.1,0.2-0.2,0.4-0.4,0.5
		s-0.4,0.2-0.7,0.2s-0.6-0.1-0.8-0.3c-0.2-0.2-0.4-0.5-0.5-0.9c-0.2-0.4-0.3-0.7-0.5-1.1s-0.4-0.8-0.6-1.1c-0.3-0.4-0.6-0.6-1-0.9
		c-0.4-0.2-0.9-0.3-1.6-0.3h-1.6c-0.5,0-0.9,0.1-1.3,0.4c-0.4,0.3-0.6,0.7-0.6,1.1v2.9c0,0.8,0,1.8,0,2.8h3.9c0.5,0,0.8-0.1,1.1-0.3
		s0.5-0.4,0.7-0.7c0.2-0.2,0.4-0.5,0.6-0.7c0.2-0.2,0.4-0.3,0.6-0.3c0.3,0,0.5,0.1,0.6,0.3s0.2,0.4,0.2,0.6v4.1
		c0,0.2-0.1,0.4-0.2,0.6c-0.1,0.2-0.3,0.3-0.6,0.3c-0.2,0-0.4-0.1-0.6-0.3c-0.2-0.2-0.4-0.4-0.5-0.7c-0.2-0.2-0.4-0.5-0.7-0.7
		s-0.7-0.3-1.1-0.3h-3.9v2.9v2c0,0.3,0,0.6,0,0.9c0.1,0.6,0.3,1,0.7,1.3s0.8,0.5,1.2,0.5h1.9c0.7,0,1.2-0.1,1.7-0.3
		c0.4-0.2,0.8-0.5,1.1-0.9c0.3-0.3,0.6-0.7,0.8-1.1s0.4-0.8,0.6-1.1c0.2-0.3,0.4-0.6,0.6-0.9c0.2-0.2,0.5-0.3,0.9-0.3
		c0.3,0,0.5,0.1,0.7,0.2c0.1,0.1,0.2,0.3,0.3,0.5c0,0.2,0.1,0.4,0,0.7c0,0.2,0,0.5-0.1,0.6l-0.6,4.1c0,0.3-0.2,0.5-0.4,0.7
		s-0.5,0.3-0.8,0.3h-15.4c-0.3,0-0.6-0.1-0.8-0.3C133.9,22,133.8,21.7,133.8,21.4z"/>
	<path class="st0" d="M153.7,18.4c-0.1-0.2-0.2-0.4-0.2-0.7c0-0.1,0-0.2,0-0.2c0-0.1,0-0.1,0-0.2c0-0.4,0.1-0.7,0.2-1.1
		c0.1-0.3,0.3-0.6,0.6-0.9c0.2-0.2,0.5-0.4,0.9-0.6c0.3-0.1,0.7-0.2,1.1-0.2h0.1c0.8,0,1.5,0.2,1.9,0.5c0.5,0.3,0.9,0.7,1.2,1.2
		s0.6,1,0.8,1.5s0.5,1,0.8,1.5s0.7,0.9,1.2,1.2c0.5,0.3,1.2,0.5,2,0.5s1.4-0.2,2-0.5s0.8-0.9,0.8-1.7c0-0.8-0.3-1.5-1-2.1
		c-0.6-0.6-1.4-1.1-2.4-1.7c-1-0.5-2-1-3.1-1.5s-2.1-1.1-3.1-1.7c-1-0.6-1.8-1.4-2.4-2.3c-0.6-0.9-1-1.9-1-3.2c0-1,0.2-1.8,0.6-2.5
		c0.4-0.7,1-1.3,1.7-1.8S158,1,159,0.8s2-0.4,3.2-0.4c1.3,0,2.4,0.1,3.4,0.3s1.8,0.4,2.5,0.7s1.3,0.6,1.7,1c0.5,0.4,0.8,0.7,1.1,1.1
		c0.1,0.2,0.3,0.4,0.4,0.6c0.1,0.2,0.2,0.4,0.2,0.7c0,0.1,0,0.1,0,0.2s0,0.1,0,0.1c0,0.3-0.1,0.7-0.2,1c-0.1,0.3-0.3,0.6-0.6,0.8
		c-0.2,0.2-0.5,0.4-0.9,0.5c-0.3,0.1-0.7,0.2-1,0.2c-0.7,0-1.2-0.1-1.6-0.4c-0.4-0.3-0.7-0.6-1-1s-0.5-0.8-0.7-1.3S165,4,164.7,3.6
		s-0.7-0.7-1.1-1c-0.4-0.3-1-0.4-1.7-0.4c-0.5,0-1,0.2-1.4,0.5s-0.7,0.9-0.7,1.6c0,0.8,0.3,1.5,0.9,2c0.6,0.5,1.4,1,2.4,1.4
		c0.9,0.4,2,0.9,3.1,1.3c1.1,0.4,2.1,0.9,3.1,1.5c0.9,0.6,1.7,1.4,2.4,2.3c0.6,0.9,0.9,2.1,0.9,3.4c0,0.9-0.2,1.8-0.6,2.6
		c-0.4,0.8-1,1.5-1.8,2c-0.8,0.6-1.7,1-2.9,1.3c-1.1,0.3-2.4,0.5-3.8,0.5c-1.5,0-2.9-0.1-4-0.4s-2.1-0.6-2.9-1
		c-0.8-0.4-1.4-0.9-1.9-1.4C154.3,19.3,153.9,18.8,153.7,18.4z"/>
	<path class="st0" d="M26.5,46.3c0-0.3,0.1-0.6,0.3-0.8c0.2-0.2,0.4-0.5,0.7-0.7c0.2-0.2,0.5-0.5,0.7-0.8s0.3-0.6,0.3-1V30
		c0-0.3-0.1-0.6-0.3-0.9c-0.2-0.3-0.4-0.5-0.7-0.8c-0.2-0.2-0.5-0.5-0.7-0.8s-0.3-0.6-0.3-0.9s0.1-0.6,0.3-0.9
		c0.2-0.2,0.5-0.3,0.9-0.3h8.6c1.7,0,3.2,0.3,4.6,1c1.3,0.6,2.4,1.5,3.3,2.5c0.9,1,1.5,2.2,1.9,3.5c0.4,1.3,0.6,2.7,0.6,4.1
		c0,1.4-0.2,2.7-0.6,4.1c-0.4,1.3-1.1,2.5-2,3.5s-2,1.9-3.3,2.5s-2.8,0.9-4.6,0.9h-8.6c-0.3,0-0.6-0.1-0.9-0.3
		C26.6,47,26.5,46.7,26.5,46.3z M34.3,44.3c0,0.2,0.1,0.4,0.2,0.5c0.1,0.1,0.3,0.2,0.5,0.2h1.5c0.8,0,1.5-0.4,2-1.3
		c0.5-0.8,0.9-1.9,1.2-3.2s0.4-2.6,0.4-4.1s-0.1-2.8-0.4-4.1c-0.3-1.3-0.6-2.3-1.2-3.2c-0.5-0.8-1.2-1.3-2-1.3H35
		c-0.3,0-0.5,0.1-0.6,0.3c-0.2,0.2-0.3,0.4-0.3,0.6v1.5l0,0v14.1H34.3z"/>
	<path class="st0" d="M48.1,46.3c0-0.3,0.1-0.6,0.3-0.8s0.4-0.5,0.7-0.7c0.2-0.2,0.5-0.5,0.7-0.8s0.3-0.6,0.3-1V30
		c0-0.3-0.1-0.6-0.3-0.9s-0.4-0.5-0.7-0.8c-0.2-0.2-0.5-0.5-0.7-0.8s-0.3-0.6-0.3-0.9s0.1-0.6,0.3-0.9c0.2-0.2,0.5-0.3,0.8-0.3h15.4
		c0.3,0,0.6,0.1,0.7,0.3c0.2,0.2,0.3,0.4,0.3,0.8v4.1c0,0.2,0,0.4,0,0.7c0,0.2-0.1,0.5-0.1,0.7c-0.1,0.2-0.2,0.4-0.4,0.5
		c-0.2,0.1-0.4,0.2-0.7,0.2c-0.3,0-0.6-0.1-0.8-0.3s-0.4-0.5-0.5-0.9c-0.2-0.4-0.3-0.7-0.5-1.1s-0.4-0.8-0.6-1.1
		c-0.3-0.4-0.6-0.6-1-0.9c-0.4-0.2-0.9-0.3-1.6-0.3h-1.6c-0.5,0-0.9,0.1-1.3,0.4c-0.4,0.3-0.6,0.7-0.6,1.1v2.9c0,0.8,0,1.8,0,2.8
		h3.9c0.5,0,0.8-0.1,1.1-0.3s0.5-0.4,0.7-0.7c0.2-0.2,0.4-0.5,0.6-0.7c0.2-0.2,0.4-0.3,0.6-0.3c0.3,0,0.5,0.1,0.6,0.3
		s0.2,0.4,0.2,0.6v4.1c0,0.2-0.1,0.4-0.2,0.6c-0.1,0.2-0.3,0.3-0.6,0.3c-0.2,0-0.4-0.1-0.6-0.3c-0.2-0.2-0.4-0.4-0.5-0.7
		c-0.2-0.2-0.4-0.5-0.7-0.7s-0.7-0.3-1.1-0.3H56v2.9v2c0,0.3,0,0.6,0,0.9c0.1,0.6,0.3,1,0.7,1.3s0.8,0.5,1.2,0.5h1.9
		c0.7,0,1.2-0.1,1.7-0.3c0.4-0.2,0.8-0.5,1.1-0.9c0.3-0.3,0.6-0.7,0.8-1.1c0.2-0.4,0.4-0.8,0.6-1.1s0.4-0.6,0.6-0.9
		c0.2-0.2,0.5-0.3,0.9-0.3c0.3,0,0.5,0.1,0.7,0.2c0.1,0.1,0.2,0.3,0.3,0.5c0,0.2,0.1,0.4,0,0.7c0,0.2,0,0.5-0.1,0.6l-0.6,4.1
		c0,0.3-0.2,0.5-0.4,0.7c-0.2,0.2-0.5,0.3-0.8,0.3H49.2c-0.3,0-0.6-0.1-0.8-0.3C48.2,47,48.1,46.7,48.1,46.3z"/>
	<path class="st0" d="M73.1,46.3c0-0.3,0.1-0.6,0.3-0.8c0.2-0.2,0.4-0.5,0.7-0.7c0.2-0.2,0.5-0.5,0.7-0.8s0.3-0.6,0.3-1V30
		c0-0.3-0.1-0.6-0.3-0.9c-0.2-0.3-0.4-0.5-0.7-0.8c-0.2-0.2-0.5-0.5-0.7-0.8s-0.3-0.6-0.3-0.9s0.1-0.6,0.4-0.9
		c0.2-0.2,0.5-0.3,0.8-0.3h8.6c3.1,0,5.4,0.5,7.1,1.6s2.5,2.5,2.5,4.5c0,1.2-0.2,2.3-0.6,3.1c-0.4,0.9-1,1.6-1.7,2.2
		c-0.7,0.6-1.5,1-2.3,1.4c-0.9,0.3-1.7,0.6-2.6,0.7c-0.9,0.2-1.7,0.3-2.4,0.3s-1.4,0.1-1.9,0V43c0,0.5,0.1,0.9,0.3,1.2
		c0.2,0.3,0.4,0.5,0.7,0.7c0.2,0.2,0.5,0.4,0.7,0.6c0.2,0.2,0.3,0.4,0.3,0.7s-0.1,0.6-0.4,0.9c-0.2,0.2-0.5,0.3-0.8,0.3h-7.4
		c-0.3,0-0.6-0.1-0.8-0.3C73.3,47,73.1,46.7,73.1,46.3z M81,37.3c0.5,0,1-0.1,1.6-0.2c0.6-0.1,1.2-0.4,1.7-0.7
		c0.6-0.3,1-0.8,1.4-1.4c0.4-0.6,0.6-1.4,0.6-2.5c0-1.4-0.2-2.4-0.7-3.3c-0.5-0.8-1.2-1.3-2.3-1.3H82c-0.2,0.2-0.5,0.5-0.7,0.7
		C81.2,29,81,29.4,81,29.9v0.5l0,0V37.3z"/>
	<path class="st0" d="M95.6,41c-0.3,0.9-0.4,1.6-0.3,2.1s0.2,1,0.4,1.4c0.2,0.4,0.4,0.7,0.6,1s0.3,0.6,0.3,0.9
		c0,0.3-0.1,0.6-0.4,0.9c-0.2,0.2-0.5,0.3-0.8,0.3h-4.5c-0.3,0-0.6-0.1-0.9-0.3c-0.2-0.2-0.3-0.5-0.3-0.9c0-0.3,0.1-0.6,0.3-0.8
		c0.2-0.2,0.5-0.5,0.8-0.7s0.6-0.6,0.9-1s0.5-0.9,0.7-1.6L96,29.8c0.1-0.5,0.1-0.8,0-1.1c-0.1-0.3-0.2-0.5-0.4-0.8
		c-0.2-0.2-0.3-0.4-0.5-0.6s-0.3-0.4-0.3-0.7c0-0.3,0.1-0.6,0.3-0.9c0.2-0.2,0.5-0.3,0.9-0.3h7.6c0.3,0,0.6,0.1,0.8,0.2
		c0.2,0.2,0.4,0.4,0.5,0.7l4.4,14.8c0.2,0.7,0.4,1.3,0.8,1.8c0.3,0.5,0.6,0.8,0.9,1.2c0.3,0.3,0.6,0.7,0.8,1
		c0.2,0.3,0.3,0.7,0.3,1.2c0,0.3-0.1,0.6-0.3,0.8c-0.2,0.2-0.4,0.3-0.7,0.4l0,0h-7.6c-0.3,0-0.6-0.1-0.9-0.3
		c-0.2-0.2-0.3-0.5-0.3-0.9s0.1-0.8,0.2-1.1c0.2-0.3,0.3-0.6,0.4-0.9c0.1-0.3,0.2-0.7,0.3-1.1c0-0.4,0-0.9-0.2-1.6l-0.4-1.4h-6.7
		L95.6,41z M96.4,38.1h5.4L99.1,29L96.4,38.1z"/>
	<path class="st0" d="M115.6,37.5l-4.1-7.5c-0.4-0.5-0.8-0.8-1.1-1.1c-0.3-0.3-0.6-0.5-0.9-0.7c-0.2-0.2-0.4-0.4-0.5-0.6
		s-0.1-0.5-0.1-0.9c0-0.3,0.2-0.6,0.5-0.8c0.3-0.2,0.6-0.3,0.9-0.3h6.7c0.3,0,0.6,0.1,0.7,0.3c0.2,0.2,0.3,0.5,0.3,0.8s0,0.7,0,1
		c0,0.4,0,0.7,0,1.1s0.1,0.8,0.2,1.2c0.1,0.4,0.3,0.9,0.6,1.5l1.4,2.6c0.2-0.4,0.4-0.8,0.6-1.2s0.3-0.8,0.5-1.2
		c0.1-0.4,0.2-0.7,0.3-1c0.1-0.3,0.2-0.5,0.2-0.7l0,0c0.2-0.3,0.2-0.6,0.2-0.9s0-0.5-0.1-0.7s-0.2-0.5-0.3-0.7
		c-0.1-0.2-0.2-0.5-0.3-0.9c-0.1-0.4,0-0.7,0.2-0.9c0.2-0.2,0.5-0.4,0.9-0.4h3.8c0.3,0,0.7,0.1,1,0.4c0.3,0.2,0.5,0.5,0.5,0.9
		c0,0.3,0,0.5-0.2,0.7s-0.5,0.4-0.8,0.6s-0.7,0.4-1,0.7c-0.4,0.3-0.7,0.6-0.9,1.1l-3.3,7.4l0,0V43c0,0.5,0.1,0.9,0.3,1.2
		c0.2,0.3,0.4,0.5,0.7,0.7c0.2,0.2,0.5,0.4,0.7,0.6c0.2,0.2,0.3,0.4,0.3,0.7s-0.1,0.6-0.4,0.9c-0.3,0.2-0.6,0.4-1,0.4H115
		c-0.3,0-0.6-0.1-0.9-0.3s-0.4-0.5-0.4-0.9c0-0.3,0.1-0.6,0.3-0.8c0.2-0.2,0.4-0.5,0.7-0.7c0.2-0.2,0.5-0.5,0.7-0.8s0.3-0.6,0.3-1
		L115.6,37.5L115.6,37.5z"/>
	<path class="st0" d="M127.8,43.3c-0.1-0.2-0.2-0.4-0.2-0.7c0-0.1,0-0.2,0-0.2c0-0.1,0-0.1,0-0.2c0-0.4,0.1-0.7,0.2-1.1
		c0.1-0.3,0.3-0.6,0.6-0.9c0.2-0.2,0.5-0.4,0.9-0.6c0.3-0.1,0.7-0.2,1.1-0.2h0.1c0.8,0,1.5,0.2,1.9,0.5c0.5,0.3,0.9,0.7,1.2,1.2
		s0.6,1,0.8,1.5s0.5,1,0.8,1.5s0.7,0.9,1.2,1.2s1.2,0.5,2,0.5s1.4-0.2,2-0.5s0.8-0.9,0.8-1.7s-0.3-1.5-1-2.1
		c-0.6-0.6-1.4-1.1-2.4-1.7c-1-0.5-2-1-3.1-1.5s-2.1-1.1-3.1-1.7c-1-0.6-1.8-1.4-2.4-2.3c-0.6-0.9-1-1.9-1-3.2c0-1,0.2-1.8,0.6-2.5
		c0.4-0.7,1-1.3,1.7-1.8s1.6-0.9,2.6-1.1s2-0.4,3.2-0.4c1.3,0,2.4,0.1,3.4,0.3c1,0.2,1.8,0.4,2.5,0.7c0.7,0.3,1.3,0.6,1.7,1
		c0.5,0.4,0.8,0.7,1.1,1.1c0.1,0.2,0.3,0.4,0.4,0.6c0.1,0.2,0.2,0.4,0.2,0.7c0,0.1,0,0.1,0,0.2s0,0.1,0,0.1c0,0.3-0.1,0.7-0.2,1
		c-0.1,0.3-0.3,0.6-0.6,0.8c-0.2,0.2-0.5,0.4-0.9,0.5c-0.3,0.1-0.7,0.2-1,0.2c-0.7,0-1.2-0.1-1.6-0.4c-0.4-0.3-0.7-0.6-1-1
		s-0.5-0.8-0.7-1.3s-0.5-0.9-0.8-1.3s-0.7-0.7-1.1-1c-0.4-0.3-1-0.4-1.7-0.4c-0.5,0-1,0.2-1.4,0.5s-0.7,0.9-0.7,1.6
		c0,0.8,0.3,1.5,0.9,2c0.6,0.5,1.4,1,2.4,1.4c0.9,0.4,2,0.9,3.1,1.3c1.1,0.4,2.1,0.9,3.1,1.5c0.9,0.6,1.7,1.4,2.4,2.3
		c0.6,0.9,0.9,2.1,0.9,3.4c0,0.9-0.2,1.8-0.6,2.6c-0.4,0.8-1,1.5-1.8,2c-0.8,0.6-1.7,1-2.9,1.3c-1.1,0.3-2.4,0.5-3.8,0.5
		c-1.5,0-2.9-0.1-4-0.4c-1.1-0.3-2.1-0.6-2.9-1c-0.8-0.4-1.4-0.9-1.9-1.4S128,43.8,127.8,43.3z"/>
</g>
</svg>
