<svg xmlns="http://www.w3.org/2000/svg" viewBox="0 0 376.82 74.62"><defs><style>.cls-1{fill:none;stroke:#1d1d1b;stroke-miterlimit:10;stroke-width:0.89px;}</style></defs><g id="Calque_2" data-name="Calque 2"><g id="Calque_1-2" data-name="Calque 1"><path d="M123.35,43v0S123.36,43,123.35,43Z"/><path d="M28.46,41.42h-.7L20.23,63.29h.7c2.4,0,3.63-2,4.35-4.06L30,45.48C30.74,43.39,30.86,41.42,28.46,41.42Z"/><path d="M142.31,11.08a3.23,3.23,0,0,0-.93-.87l-.17-.11L141,10l-.17-.11-.17-.1-.17-.11-.17-.11-.18-.11-.17-.1-.17-.11-.17-.11L139.5,9,139.38,9c-.85-1.12-2.37-1.67-4.66-1.67a9.07,9.07,0,0,0-5.55,2l0-.07H129l0-.11h-.21l0-.11h-.21l0-.11h-.21l0-.11h-.21l0-.1h-.2l0-.11H128l0-.11h-.21l0-.11h-.21l0-.1h-.21l0-.11h-.21l0-.11h-.21l0-.11h-.24l.12-.33H113.26l.23.33h-.1l.62.9a10.33,10.33,0,0,1-.55,2.45,3.7,3.7,0,0,0-1.16-1.1l-.17-.11L112,9.92l-.17-.1-.17-.11-.17-.11-.18-.11-.17-.1-.17-.11-.17-.11-.17-.11-.17-.1,0,0a4.92,4.92,0,0,0-4-1.62A8.58,8.58,0,0,0,101.32,9h-.18l.14-.11H101l.14-.11h-.31l.14-.1h-.31l.14-.11h-.31l.14-.11h-.31l.14-.11h-.32l.15-.1h-.32l.15-.11h-.32L99.91,8H99.6l.14-.11h-.57l.44-.33H97.49L92,7.54H90.63l.22.33h-.09l.58.89a3.45,3.45,0,0,1-.08.65h-.08V9.29H91v-.1h-.18V9.08h-.18V9h-.18V8.86h-.18V8.75h-.18v-.1H90V8.54h-.18V8.43h-.18V8.32h-.18v-.1H89.3V8.11h-.18V8H89V7.89h-.15l0-.33H61.63l-.19.38-2.33,4.47.33-2,.14-.82h-.19l0-.11h-.19l0-.11h-.19l0-.11h-.19l0-.1h-.19V9.08h-.19l0-.11h-.19l0-.11h-.19l0-.11H58l0-.1h-.19l0-.11h-.19l0-.11h-.19l0-.11h-.19v-.1h-.19l0-.11H57L57,8h-.19l0-.11h-.18l.05-.33H35.66l.23.33h-.1l.62.9A9.05,9.05,0,0,1,36,10.93a3.25,3.25,0,0,0-.8-.72L35,10.1,34.81,10l-.17-.11-.17-.1-.17-.11-.18-.11L34,9.45l-.17-.1-.17-.11-.17-.11L33.27,9,33.15,9c-.85-1.12-2.37-1.67-4.66-1.67a9.26,9.26,0,0,0-8.64,6.39,6.71,6.71,0,0,0,0,5,12.13,12.13,0,0,0,2.22,3.51c.31.38.61.76.88,1.14A3.75,3.75,0,0,0,21,22.82c-3.14,0-6.06,2.84-7,5.47a6.28,6.28,0,0,0-.14,4.46,4.29,4.29,0,0,0,.59,1.17A4.4,4.4,0,0,0,16,35.24l.17.11.17.11.17.11.17.11.17.1.18.11.17.11.17.11.17.1.17.11.17.11.17.11.18.1.17.11.17.11a7.56,7.56,0,0,0,4,1c.21,0,.41,0,.62,0,0,.68-.42,2.36-1.81,6.3l-.23.66-5,14.5c-.05.17-.13.39-.22.66-.51,1.53-2.07,6.19-3,6.86l-1.77,1.28h.59l-.46.33h.32l-.15.11h.32l-.14.11H12l-.15.1h.32l-.15.11h.32l-.15.11h.32l-.15.11h.32l-.15.11h.32l-.15.1H13l-.14.11h.31l-.14.11h.32l-.15.11h.32l-.15.1h.32l-.15.11h.32l-.15.11H14l-.15.11h.32l-.14.1H22.7a10.9,10.9,0,0,0,6.1-1.72h0l-.15.11H29l-.14.11h.32l-.15.1h.32l-.15.11h.32l-.15.11h.32l-.15.11h.32l-.15.11H30l-.15.1h.32l-.14.11h.31l-.14.11h.32l-.15.11h.32l-.15.1h.32l-.15.11H31l-.15.11h.32l-.15.11h.32l-.14.1H46.9l.17-.47,1.75-5.11.5-1.44-.24.1.07-.2-.24.09.07-.2-.24.09.06-.2-.24.09.07-.2-.24.1.07-.2-.24.09.07-.2-.24.09.07-.2-.24.09.07-.2-.24.1.07-.2-.24.09.07-.2-.25.09.07-.2-.24.09.07-.2-.24.1.07-.2-.24.09.07-.2-.24.09.07-.2-.24.09.07-.2-.28.11.15-.44L45,61.59a11.55,11.55,0,0,1-2.83.79l2.63-7.64h2a5.35,5.35,0,0,1,2.54.45l.07.05h0l.17.11h0l.17.11h0l.17.12h0l.17.11h0l.17.11h0l.17.11h0l.17.12.3-.87,2-5.88.53-1.56-.25.11.08-.22-.25.12.08-.22-.25.11.08-.22-.25.11.08-.22-.25.11.07-.22-.24.12.07-.22-.24.11.07-.22-.25.11.08-.22-.25.11.08-.22-.25.11.08-.21-.25.11.08-.22-.25.11.07-.22-.24.11.07-.22L51,46.4l.07-.22-.25.12.08-.22-.25.11.08-.22-.29.13.16-.46-1.5.68a8.21,8.21,0,0,1-1.59.56l1-2.84h1.94a7.38,7.38,0,0,1,4.27.87l.73.39.27-.78,1.75-5.11.33-.94h-.21l0-.1h-.2l0-.11h-.21l0-.11h-.21l0-.11H56.9l0-.1h-.21l0-.11h-.21l0-.11h-.21l0-.11h-.21v0l5.13,0h2.08l.07.11c0,.59-.32,2.23-1.8,6.42q-.15.39-.24.66l-5,14.5c-.06.17-.13.39-.22.66-.51,1.53-2.07,6.19-3,6.86L51.5,68.06h.59l-.46.33H52l-.15.11h.32l-.15.11h.32l-.15.1h.32l-.15.11h.32l-.14.11h.32l-.15.11H53l-.15.11h.32l-.15.1h.32l-.15.11h.32l-.15.11h.32l-.15.11h.32l-.14.1H54l-.15.11h.32L54,69.9h.32L54.2,70h.32l-.15.1H64.3L63.56,69c-.11-.41.12-1.9,1.79-6.6.09-.27.17-.49.23-.66.39-1.13.83-2.46,1-3.08A22.3,22.3,0,0,0,73.83,55l-2.35,4.54A47.63,47.63,0,0,1,67,66.89l-1,1.17h.42l-.29.33h.26l-.09.11h.26l-.09.11h.27l-.1.1h.27l-.1.11h.27l-.1.11h.27l-.09.11h.26l-.09.11h.26l-.09.1h.26l-.09.11H68l-.09.11h.27l-.1.11h.27l-.1.1h.27l-.09.11h.26l-.09.11h.26l-.09.11H69l-.09.1h9.36l0-.75c0-.14,0-.29,0-.43h.18L78.3,69h.25l-.08.11h.25l-.08.1h.26l-.09.11h.26l-.08.11h.25l-.08.11h.25l-.08.1h.25l-.08.11h.25l-.08.11h.25l-.08.11h.26l-.09.1h9.32v0h4.76l3.44,0,1.41,0L98.11,69c-.14-.19-.46-1.22,1.33-6.4l.06-.18,1.56-4.53,5.86-9.25c0,.09.07.18.11.27a13.43,13.43,0,0,0,2.5,3.94c.52.65,1,1.27,1.44,1.91a3.79,3.79,0,0,0-2.72-1c-3.53,0-6.82,3.2-7.84,6.17a7,7,0,0,0-.17,5,4.77,4.77,0,0,0,.64,1.3,5.17,5.17,0,0,0,1.69,1.48l.17.11.18.1.17.11.17.11.17.11.17.1.17.11.17.11.17.11.18.1.17.11.17.11.17.11.17.1.17.11a8.57,8.57,0,0,0,4.45,1.07c5,0,9.25-3.41,11.14-8.91s-.58-8.65-2.58-11.13c-1.43-1.76-2.3-3-1.94-4.47h.12l0,.1h.21l0,.11h.21l0,.11h.21l0,.11H117l0,.11h.21l0,.1h.21l0,.11h.2l0,.11h.21l0,.11h.21l0,.1h.21l0,.11h.21l0,.11h.21l0,.11h5.27l-.31.22,2.17,0h9.36l-.62-1a9.48,9.48,0,0,1,.41-1.34l.06-.17,1.25-3.64.06-.17a7,7,0,0,1,.6-1.5l1.68-1.25h-1.86l.1-.07h-.31l.14-.11H136l.14-.11h-.31l.14-.1h-.32l.15-.11h-.32l.15-.11h-.32l.15-.11h-.32l.14-.11H135l.14-.1h-.31l.14-.1h-.12l.38-.29H135l.52-.39H135l.45-.33h-1.7a12.06,12.06,0,0,0,4.93-6.48c1.7-4.94-.5-7.66-2.28-9.85-1.2-1.49-1.91-2.46-1.72-3.64h.21l0,.11H135l0,.1h.21l0,.11h.21l0,.11h.21l0,.11h.2l0,.1h.21l0,.11h.21l0,.11h.21l0,.11h.21l0,.11H142l.16-.48.24-.69C143.19,14,143.17,12.28,142.31,11.08ZM126.1,18.65a12.13,12.13,0,0,0,2.22,3.51c.32.38.61.76.89,1.14a3.78,3.78,0,0,0-2-.48,6.37,6.37,0,0,0-3.26,1l1.59-4.61.34-1C126,18.35,126,18.5,126.1,18.65Zm-2.28-2.2.07-.21-.24.11.07-.22-.24.11.07-.22-.25.11.08-.22-.29.13.16-.46-1.49.68c-.27.12-.51.21-.74.3l.65-1.89h1.63a8.43,8.43,0,0,1,2.45.23,6.59,6.59,0,0,0,0,2.54l-.2.09.08-.22-.25.11.08-.22-.25.12.08-.22-.25.11.07-.22-.24.11.07-.22-.24.11.07-.22-.25.12.08-.22-.25.11.08-.22-.25.11.08-.22-.25.11.08-.22Zm-4.18,13.2.07-.2-.28.11.15-.44-1.41.55a12.54,12.54,0,0,1-1.87.58l2.13-6.18h1.69a4.55,4.55,0,0,1,2.14.37l0,0h0l.17.12h0l.17.11h0l.09.06a8.76,8.76,0,0,0-2.46,3.55,9.75,9.75,0,0,0-.37,1.43l-.1,0,.07-.2Zm6.13-12-.07,0,0-.13A.36.36,0,0,0,125.77,17.61Zm-13-2.33c.46-1.32,2.26-6.11,1.72-6.9h11.41l-1.55,4.48c-1.74-.91-2.56-.84-5-.84h-1.2l-2,5.73h2.19a7.61,7.61,0,0,0,3.54-.73l-1.78,5.17a4.78,4.78,0,0,0-3-.77h-2.19l-3.39,9.83h1.2c2.42,0,3.17.11,5.55-.81l-1.54,4.48H105.3c1.08-.79,2.58-5.58,3-6.9Zm-7.38,4,0,.1h.2l0,.11h.21l0,.11h.21l0,.11H106l0,.1h.21l0,.11h.21l0,.11h.21l0,.11h.2l0,.1h.2l0,.11h3.52l-1.72,5h0l0-.11h-.21l0-.11h-.21l0-.1h-.2l0-.11h-.21l0-.11h-.21l0-.11h-.24l.11-.33h-4.42l1.79-5.2h.14l0,.11Zm-5.09-8.4a8.16,8.16,0,0,1,6-2.7c2.45,0,3.73,1.14,4.12,2.7s.06,3-1.09,6.34l-.17.48H104.8l.62-1.81c.57-1.63,1.31-3.94-.52-3.94s-2.63,2.31-3.19,3.94L97.79,27.2c-.56,1.63-1.36,3.95.48,3.95s2.68-2.32,3.24-3.95l.71-2.06h4.28l-.25.74c-1.15,3.34-1.8,4.79-3.29,6.37a8.24,8.24,0,0,1-6,2.67c-2.45,0-3.74-1.15-4.13-2.67s-.05-3,1.1-6.37l3-8.71C98.12,13.83,98.76,12.41,100.25,10.83Zm4.34,25.56-.08.06h-.26l.11-.06Zm-2.42,1.12.08-.11H102l.06-.09.4-.1a2.08,2.08,0,0,1,0,.4h-.07l.08-.1Zm-9.63,7.94L92,55.35l-1.55,4.52L90.4,60c-.16.45-.31.88-.46,1.29.38-2.31.72-4.4,1-6.36C91.51,51.7,92,48.71,92.54,45.45Zm-.37-7.84v0h.11v0Zm-.11-1.19.12.61-.34-.51c-.06-.3.06-1.17.79-3.45h0a3.83,3.83,0,0,0,1.61,2l.17.11.17.11.18.11a1,1,0,0,0,.17.1l.17.11.17.11.17.11.17.11.17.1.18.11.17.11.17.11.07.05H92.06ZM81.22,15.28c.45-1.32,2.26-6.11,1.71-6.9h5L86.56,25.29s3-8.71,3.5-10,2.24-6.12,1.72-6.9l5.54,0c-1.06.79-2.58,5.58-3,6.9L89.9,28c-.46,1.32-2.23,6.11-1.72,6.9h-5l1-16S81.54,26.69,81.09,28s-2.26,6.11-1.74,6.9H73.82c1.06-.79,2.56-5.58,3-6.9Zm2,20.78v.11h.18v.11h.18v.11h.17v0h-.19l-.2.38-.07.14L83,36.52A1.93,1.93,0,0,1,83,36h0v.1ZM83,37.57C82,39.51,81,41.31,80.12,43a4.83,4.83,0,0,0-.8-2.33,4.44,4.44,0,0,0-1.13-1.07L78,39.51a1,1,0,0,0-.17-.1l-.17-.11-.17-.11-.17-.11L77.16,39l-.17-.1-.18-.11-.17-.11-.17-.11-.17-.1s0,0,0,0a4.38,4.38,0,0,0-.93-.83H83ZM79.68,16.89l.08-.22-.25.11.08-.22-.25.11.07-.22-.24.11.07-.22-.24.11.07-.21-.25.11.08-.22-.25.11.08-.22-.25.11.08-.22-.29.13.16-.46-1.5.68c-.26.12-.5.21-.74.3l.65-1.89h1.64a9.57,9.57,0,0,1,2.27.18l0,.09-.68,2-.19.08.08-.22Zm-2.23,7.55-1.12,3.24-.2.59c-.21.63-.4,1.19-.59,1.72l0-.11-.24.1.07-.2-.24.09.07-.2-.24.09.07-.2-.24.09.07-.2-.28.11.15-.44-1.42.55a12.47,12.47,0,0,1-1.86.58l2.13-6.18h1.68a4.6,4.6,0,0,1,2.15.37ZM35.12,15.28c.46-1.32,2.26-6.11,1.72-6.9H48.25L46.7,12.86C45,12,44.14,12,41.72,12h-1.2l-2,5.73h2.19A7.61,7.61,0,0,0,44.28,17L42.5,22.19a4.78,4.78,0,0,0-3-.77H37.29L33.9,31.25h1.2c2.42,0,3.17.11,5.55-.81l-1.54,4.48H27.7c1.08-.79,2.58-5.58,3-6.9ZM46.9,16.89l.08-.22-.25.11.08-.22-.25.11.08-.22-.25.11.08-.22-.25.11.07-.21-.24.11.07-.22-.24.11L46,16l-.25.11.08-.22-.29.13.16-.46-1.5.68c-.26.12-.5.21-.73.3l.65-1.89H45.7a9.57,9.57,0,0,1,2.27.18l0,.09-.68,2-.18.08.07-.22ZM42.56,30l.07-.2-.25.09.07-.2-.24.09.07-.2-.24.09.07-.2-.28.11.15-.44-1.42.55a12.13,12.13,0,0,1-1.86.58l2.13-6.18h1.69a4.55,4.55,0,0,1,2.14.37h0l-1.12,3.24-.19.57c-.2.6-.39,1.13-.57,1.64h0Zm-2.2,7.7a18.5,18.5,0,0,1-1.18,4.6,4.6,4.6,0,0,0-.72-1.71A4.36,4.36,0,0,0,37,39.29l-.17-.11-.17-.1L36.48,39l-.18-.11-.17-.11L36,38.64l-.17-.1-.17-.11-.17-.11-.05,0a4.34,4.34,0,0,0-.76-.72h5.64ZM33.73,17.53,32,22.66a17.76,17.76,0,0,0-1.83-2.57c-1.2-1.49-1.91-2.46-1.72-3.64h.2l0,.11h.21l0,.1H29l0,.11h.21l0,.11h.21l0,.11h.21l0,.1h.21l0,.11h.2l0,.11H30l0,.11h.21l0,.11h3.61Zm-5.32-1.09a.38.38,0,0,1,0-.1h0Zm-8.9,18.74c-3.62,0-6.56-1.89-5-6.55.83-2.39,3.48-5,6.31-5,2.36,0,3.19,1.75,1.8,3.92a1.62,1.62,0,0,0-1.43-.64,3,3,0,0,0-2.57,2.19,1.64,1.64,0,0,0,1.74,2.27c1.71,0,3.29-1.63,3.86-3.29C26.38,22,18,20.89,20.35,14a8.58,8.58,0,0,1,8-5.91c4.61,0,5.41,2.34,4.12,6.09l-.24.69H28.07l.12-.34c.56-1.63.45-2.77-.9-2.77a2.63,2.63,0,0,0-2.49,2c-1.5,4.35,6.64,6,3.91,14C27.09,32.45,23.48,35.18,19.51,35.18Zm10.67,23.9c-1.41,4.09-4.31,8.38-10.52,8.38h-6.5c1.24-.9,2.95-6.35,3.47-7.86l5-14.5c.52-1.51,2.57-7,1.95-7.86h6.5c6.21,0,6.15,4.29,4.74,8.38ZM52,42.34c-2-1-2.92-1-5.68-1H45l-2.25,6.52h2.5a8.59,8.59,0,0,0,4-.84l-2,5.89a5.46,5.46,0,0,0-3.44-.87h-2.5l-3.85,11.2h1.36c2.76,0,3.62.11,6.33-.93l-1.76,5.1h-13c1.24-.9,3-6.35,3.47-7.86l5-14.5c.52-1.51,2.57-7,2-7.86h13Zm-1.19-7.42,0,.11H51l0,.11h.19l0,.09-.44.32h.59l-.46.33h.32L51,36h.32l-.15.11h.32l-.15.11h.33l-.16.11h.33l-.15.11H50.23a6.41,6.41,0,0,1,.29-1.6h.12l0,.1Zm7.49,0-5.59,0c1.09-.79,2.59-5.58,3-6.91l3.35-9.73L51.76,32.7H49.11l2.54-14.39L48.3,28c-.46,1.33-2.23,6.12-1.71,6.91l-5.57,0c1.08-.79,2.58-5.58,3-6.9l4.39-12.74c.46-1.32,2.26-6.11,1.71-6.9h5.56L52.76,26,61.9,8.38h5.55c-1.06.79-2.58,5.58-3,6.9L60,28C59.57,29.34,57.79,34.13,58.31,34.92Zm2.16,0c1.09-.79,2.59-5.58,3-6.9L67.9,15.28c.45-1.32,2.26-6.11,1.71-6.9H81l-1.54,4.48c-1.75-.91-2.56-.84-5-.84H73.3l-2,5.73h2.19A7.64,7.64,0,0,0,77.06,17l-1.78,5.17a4.79,4.79,0,0,0-3-.77H70.06l-3.38,9.83h1.2c2.42,0,3.17.11,5.55-.81l-1.55,4.48ZM63,56.18s-.63,1.91-1.15,3.42-2.57,7-1.95,7.86H53.51c1.24-.9,2.94-6.35,3.46-7.86l5-14.5c.51-1.51,2.57-7,2-7.86h6.44c5.07,0,7.31,2.35,5.36,8S68.06,54.79,63,56.18ZM78.21,68.83h0Zm7.24-1.37h-7c1.49-2,1.93-4.52,2.4-6.64H76.62c-1,2.12-2.3,4.67-2.17,6.64h-7a45.13,45.13,0,0,0,4.54-7.54c4.56-8.84,7.51-14.21,11.88-22.68h6c-1.47,8.47-2.3,13.84-3.75,22.68C85.74,62.16,85.14,65.75,85.45,67.46Zm19.81-24.27L97.38,55.63l-1.59,4.61c-.47,1.36-2.14,6.06-1.29,7.22l-3.45,0H87.28c1.65-1.16,3.21-5.85,3.68-7.22l1.59-4.61.66-12.44a20.8,20.8,0,0,0-.46-5.92h6.82c-1.32,1.89-1.53,6.53-2,11.31,2.43-4.76,5.42-9.4,5.4-11.28h6.81A37.08,37.08,0,0,0,105.26,43.19Zm16,.66-.27.79h-4.7l.13-.38c.64-1.86.51-3.16-1-3.16a3,3,0,0,0-2.83,2.32c-1.71,5,7.56,6.84,4.45,15.89-1.84,5.34-6,8.44-10.48,8.44-4.12,0-7.47-2.14-5.64-7.45.94-2.73,4-5.69,7.18-5.69,2.69,0,3.63,2,2,4.47a1.81,1.81,0,0,0-1.63-.72,3.42,3.42,0,0,0-2.92,2.49,1.86,1.86,0,0,0,2,2.58c2,0,3.75-1.85,4.39-3.74,2.41-7-7.15-8.21-4.45-16a9.77,9.77,0,0,1,9.08-6.73C121.84,36.92,122.74,39.59,121.28,43.85Zm.91-5.78L122,38l-.09-.06a3.92,3.92,0,0,0-1.41-1.11l.77-2.24a4.86,4.86,0,0,0,.95.7l.17.1.17.11.17.11.17.11.18.1.17.11.17.11.17.11.17.1.17.11.16.1h-.35l-.17.48-.45,1.32-.12.36-.14-.08-.17-.11-.17-.11-.18-.11A1,1,0,0,0,122.19,38.07ZM124.58,43c0,.1-.52,1.59-.35,1.85h-1.79a6.53,6.53,0,0,0,.91-1.85l1.62-4.7a2.36,2.36,0,0,0-1.33.27l.46-1.32h3.69l-.45,1.32c-.24-.2-.45-.27-1.14-.27Zm7.66-3.77L131,42.86c-.13.38-.64,1.75-.49,2h-1.6a6.76,6.76,0,0,0,.86-2l1-2.79-2.11,4.13h-.76l.73-4.13-1,2.79c-.13.38-.64,1.75-.48,2h-1.59a7.26,7.26,0,0,0,.87-2l1.25-3.64c.14-.38.64-1.75.5-2h1.58l-.84,5,2.61-5h1.6A6.7,6.7,0,0,0,132.24,39.22Zm2.4-22.77a.41.41,0,0,1,0-.11h0Zm4-2.26-.24.69h-4.12l.11-.34c.56-1.63.45-2.77-.9-2.77a2.63,2.63,0,0,0-2.49,2c-1.5,4.35,6.64,6,3.91,14-1.62,4.69-5.23,7.42-9.2,7.42-3.62,0-6.56-1.89-5-6.55.83-2.39,3.48-5,6.31-5,2.37,0,3.19,1.75,1.8,3.92a1.62,1.62,0,0,0-1.43-.64,3,3,0,0,0-2.56,2.19,1.63,1.63,0,0,0,1.74,2.27c1.7,0,3.28-1.63,3.85-3.29,2.12-6.13-6.28-7.2-3.91-14.08a8.58,8.58,0,0,1,8-5.91C139.16,8.1,140,10.44,138.67,14.19Z"/><path d="M124.57,43v0S124.58,43,124.57,43Z"/><path d="M69.16,41.82H68l-3.1,9c2.21,0,4.94-2.64,6-5.59C71.52,43.21,71.07,41.82,69.16,41.82Z"/><polygon points="81.72 56.65 84.56 43.82 78.58 56.65 81.72 56.65"/><polyline class="cls-1" points="376.38 0.45 365.64 0.45 365.63 0.45 354.9 0.45 354.89 0.45 344.16 0.45 333.42 0.45 322.68 0.45 322.67 0.45 311.94 0.45 301.2 0.45 290.46 0.45 279.71 0.45 279.7 0.45 268.97 0.45 258.23 0.45 247.49 0.45 236.75 0.45 226.01 0.45 215.27 0.45 204.53 0.45 193.78 0.45 183.04 0.45 172.3 0.45 161.57 0.45 161.56 0.45 150.82 0.45 140.08 0.45 129.34 0.45 118.61 0.45 107.85 0.45 97.11 0.45 86.38 0.45 75.64 0.45 64.89 0.45 54.15 0.45 43.42 0.45 32.68 0.45 21.92 0.45 11.19 0.45 0.45 0.45"/><polyline class="cls-1" points="150.82 10.98 161.56 10.98 161.57 10.98 172.3 10.98 183.04 10.98 193.78 10.98 204.53 10.98 215.27 10.98 226.01 10.98 236.75 10.98 247.49 10.98 258.23 10.98 268.97 10.98 279.7 10.98 279.71 10.98 290.46 10.98 301.2 10.98 311.94 10.98 322.67 10.98 322.68 10.98 333.42 10.98 344.16 10.98 354.89 10.98 354.9 10.98 365.63 10.98 365.64 10.98 376.38 10.98"/><polyline class="cls-1" points="150.82 21.51 161.56 21.51 161.57 21.51 172.3 21.51 183.04 21.51 193.78 21.51 204.53 21.51 215.27 21.51 226.01 21.51 236.75 21.51 247.49 21.51 258.23 21.51 268.97 21.51 279.7 21.51 279.71 21.51 290.46 21.51 301.2 21.51 311.94 21.51 322.67 21.51 322.68 21.51 333.42 21.51 344.16 21.51 354.89 21.51 354.9 21.51 365.63 21.51 365.64 21.51 376.38 21.51"/><polyline class="cls-1" points="150.82 32.05 161.56 32.05 161.57 32.05 172.3 32.05 183.04 32.05 193.78 32.05 204.53 32.05 215.27 32.05 226.01 32.05 236.75 32.05 247.49 32.05 258.23 32.05 268.97 32.05 279.7 32.05 279.71 32.05 290.46 32.05 301.2 32.05 311.94 32.05 322.67 32.05 322.68 32.05 333.42 32.05 344.16 32.05 354.89 32.05 354.9 32.05 365.63 32.05 365.64 32.05 376.38 32.05"/><polyline class="cls-1" points="150.82 42.58 161.56 42.58 161.57 42.58 172.3 42.58 183.04 42.58 193.78 42.58 204.53 42.58 215.27 42.58 226.01 42.58 236.75 42.58 247.49 42.58 258.23 42.58 268.97 42.58 279.7 42.58 279.71 42.58 290.46 42.58 301.2 42.58 311.94 42.58 322.67 42.58 322.68 42.58 333.42 42.58 344.16 42.58 354.89 42.58 354.9 42.58 365.63 42.58 365.64 42.58 376.38 42.58"/><polyline class="cls-1" points="150.82 53.11 161.56 53.11 161.57 53.11 172.3 53.11 183.04 53.11 193.78 53.11 204.53 53.11 215.27 53.11 226.01 53.11 236.75 53.11 247.49 53.11 258.23 53.11 268.97 53.11 279.7 53.11 279.71 53.11 290.46 53.11 301.2 53.11 311.94 53.11 322.67 53.11 322.68 53.11 333.42 53.11 344.16 53.11 354.89 53.11 354.9 53.11 365.63 53.11 365.64 53.11 376.38 53.11"/><polyline class="cls-1" points="150.82 63.65 161.56 63.65 161.57 63.65 172.3 63.65 183.04 63.65 193.78 63.65 204.53 63.65 215.27 63.65 226.01 63.65 236.75 63.65 247.49 63.65 258.23 63.65 268.97 63.65 279.7 63.65 279.71 63.65 290.46 63.65 301.2 63.65 311.94 63.65 322.67 63.65 322.68 63.65 333.42 63.65 344.16 63.65 354.89 63.65 354.9 63.65 365.63 63.65 365.64 63.65 376.38 63.65"/><polyline class="cls-1" points="0.45 74.18 11.19 74.18 21.92 74.18 32.68 74.18 43.42 74.18 54.15 74.18 64.89 74.18 75.64 74.18 86.38 74.18 97.11 74.18 107.85 74.18 118.61 74.18 129.34 74.18 140.08 74.18 150.82 74.18 161.56 74.18 161.57 74.18 172.3 74.18 183.04 74.18 193.78 74.18 204.53 74.18 215.27 74.18 226.01 74.18 236.75 74.18 247.49 74.18 258.23 74.18 268.97 74.18 279.7 74.18 279.71 74.18 290.46 74.18 301.2 74.18 311.94 74.18 322.67 74.18 322.68 74.18 333.42 74.18 344.16 74.18 354.89 74.18 354.9 74.18 365.63 74.18 365.64 74.18 376.38 74.18"/><polyline class="cls-1" points="0.45 74.18 0.45 63.65 0.45 53.11 0.45 42.58 0.45 32.05 0.45 21.51 0.45 10.98 0.45 0.45"/><polyline class="cls-1" points="150.81 0.44 150.81 10.97 150.81 21.51 150.81 32.04 150.81 42.58 150.81 53.11 150.81 63.64 150.81 74.17"/><polyline class="cls-1" points="161.56 74.18 161.56 63.64 161.56 53.11 161.56 42.58 161.56 32.04 161.56 21.51 161.56 10.98 161.56 0.44"/><polyline class="cls-1" points="172.3 74.18 172.3 63.64 172.3 53.11 172.3 42.58 172.3 32.04 172.3 21.51 172.3 10.98 172.3 0.44"/><polyline class="cls-1" points="183.04 74.18 183.04 63.64 183.04 53.11 183.04 42.58 183.04 32.04 183.04 21.51 183.04 10.98 183.04 0.44"/><polyline class="cls-1" points="193.78 74.18 193.78 63.64 193.78 53.11 193.78 42.58 193.78 32.04 193.78 21.51 193.78 10.98 193.78 0.44"/><polyline class="cls-1" points="204.53 74.18 204.53 63.64 204.53 53.11 204.53 42.58 204.53 32.04 204.53 21.51 204.53 10.98 204.53 0.44"/><polyline class="cls-1" points="215.27 74.18 215.27 63.64 215.27 53.11 215.27 42.58 215.27 32.04 215.27 21.51 215.27 10.98 215.27 0.44"/><polyline class="cls-1" points="226.01 0.44 226.01 10.98 226.01 21.51 226.01 32.04 226.01 42.58 226.01 53.11 226.01 63.64 226.01 74.18"/><polyline class="cls-1" points="236.75 74.18 236.75 63.64 236.75 53.11 236.75 42.58 236.75 32.04 236.75 21.51 236.75 10.98 236.75 0.44"/><polyline class="cls-1" points="247.49 74.18 247.49 63.64 247.49 53.11 247.49 42.58 247.49 32.04 247.49 21.51 247.49 10.98 247.49 0.44"/><polyline class="cls-1" points="258.23 74.18 258.23 63.64 258.23 53.11 258.23 42.58 258.23 32.04 258.23 21.51 258.23 10.98 258.23 0.44"/><polyline class="cls-1" points="268.96 74.18 268.96 63.64 268.96 53.11 268.96 42.58 268.96 32.04 268.96 21.51 268.96 10.98 268.96 0.44"/><polyline class="cls-1" points="279.7 74.18 279.7 63.64 279.7 53.11 279.7 42.58 279.7 32.04 279.7 21.51 279.7 10.98 279.7 0.44"/><polyline class="cls-1" points="290.45 74.18 290.45 63.64 290.45 53.11 290.45 42.58 290.45 32.04 290.45 21.51 290.45 10.98 290.45 0.44"/><polyline class="cls-1" points="301.19 74.18 301.19 63.64 301.19 53.11 301.19 42.58 301.19 32.04 301.19 21.51 301.19 10.98 301.19 0.44"/><polyline class="cls-1" points="311.93 74.18 311.93 63.64 311.93 53.11 311.93 42.58 311.93 32.04 311.93 21.51 311.93 10.98 311.93 0.44"/><polyline class="cls-1" points="322.67 74.18 322.67 63.64 322.67 53.11 322.67 42.58 322.67 32.04 322.67 21.51 322.67 10.98 322.67 0.44"/><polyline class="cls-1" points="333.41 0.44 333.41 10.98 333.41 21.51 333.41 32.04 333.41 42.58 333.41 53.11 333.41 63.64 333.41 74.18"/><polyline class="cls-1" points="344.15 0.44 344.15 10.98 344.15 21.51 344.15 32.04 344.15 42.58 344.15 53.11 344.15 63.64 344.15 74.18"/><polyline class="cls-1" points="354.89 0.44 354.89 10.98 354.89 21.51 354.89 32.04 354.89 42.58 354.89 53.11 354.89 63.64 354.89 74.18"/><polyline class="cls-1" points="365.63 0.44 365.63 10.98 365.63 21.51 365.63 32.04 365.63 42.58 365.63 53.11 365.63 63.64 365.63 74.18"/><polyline class="cls-1" points="376.38 74.18 376.38 63.65 376.38 53.11 376.38 42.58 376.38 32.05 376.38 21.51 376.38 10.98 376.38 0.45"/></g></g></svg>