<?xml version="1.0" encoding="UTF-8"?><svg id="Calque_2" xmlns="http://www.w3.org/2000/svg" viewBox="0 0 343.82 144.3"><defs><style>.cls-1{fill:none;stroke:#000;stroke-miterlimit:10;}</style></defs><g id="header"><polygon class="cls-1" points="343.32 143.8 .5 143.8 .5 35.12 171.91 .51 343.32 35.12 343.32 143.8"/><g><path d="M34.23,53.59c-4.37,0-6.67,2.72-6.67,6.57,0,10.9,23.18,5.45,23.18,19.8,0,6.32-5.13,9.88-11.85,9.88-6.24,0-11.66-3.5-11.66-3.5l-2.02,3.36h-1.63v-12.7h1.92c1.39,5.4,6.77,10.9,13.39,10.9,4.99,0,7.25-3.16,7.25-7.05,0-9.34-22.94-4.43-22.94-19.65,0-5.59,4.51-9.53,11.04-9.53s10.13,3.7,10.13,3.7l1.63-3.21h1.92v12.16h-1.92c-1.54-5.79-5.13-10.7-11.76-10.7Z"/><path d="M70.27,68.96c2.45,0,3.7-1.17,3.7-4.18v-2.58h1.92v15.91h-1.92v-2.58c0-2.97-1.25-4.13-3.7-4.13h-6.53v14.79h11.76c6.53,0,10.41-2.82,10.89-11.29h1.92l-.48,13.72H54.1v-1.7h2.4c1.68,0,2.83-.88,2.83-2.87v-26.61c0-1.99-1.15-2.87-2.83-2.87h-2.4v-1.7h33.35l.48,13.04h-1.92c-.48-8.46-3.12-10.6-9.93-10.6h-12.33v13.67h6.53Z"/><path d="M124.74,55.63h-.34l-10.75,33.71v-.19l-.05,.19h-2.35l-10.61-33.71h-.14v27.87c.19,2.63,1.78,3.41,3.89,3.41h1.39v1.7h-12.91v-1.7h1.44c2.21,0,3.79-.88,3.79-3.84v-25.64c0-1.99-1.15-2.87-2.83-2.87h-2.4v-1.7h11.66l9.07,28.8,9.17-28.8h1.97l2.69-.05h7.01v1.75h-2.45c-1.58,0-2.69,.73-2.83,2.43v27.48c.14,1.7,1.25,2.43,2.83,2.43h2.45v1.7h-14.97v-1.7h2.4c1.73,0,2.88-.88,2.88-2.87v-28.41Z"/><path d="M153.86,68.96c2.45,0,3.7-1.17,3.7-4.18v-2.58h1.92v15.91h-1.92v-2.58c0-2.97-1.25-4.13-3.7-4.13h-6.53v14.79h11.76c6.53,0,10.41-2.82,10.89-11.29h1.92l-.48,13.72h-33.74v-1.7h2.4c1.68,0,2.83-.88,2.83-2.87v-26.61c0-1.99-1.15-2.87-2.83-2.87h-2.4v-1.7h33.35l.48,13.04h-1.92c-.48-8.46-3.12-10.6-9.93-10.6h-12.33v13.67h6.53Z"/><path d="M176.47,88.61v-1.7h1.44c2.21,0,3.79-.88,3.79-3.84v-24.91c-.1-2.77-1.68-3.6-3.79-3.6h-1.44v-1.7h10.37l19.82,28.12v-22.57c0-2.97-1.58-3.84-3.79-3.84h-1.44v-1.7h12.86v1.7h-1.39c-2.11,0-3.65,.78-3.84,3.36v31.42h-.82l-1.58-.05-22.55-31.86v26.07c.19,2.63,1.78,3.41,3.89,3.41h1.39v1.7h-12.91Z"/><path d="M246.24,80.49c-3.74,5.64-7.92,9.34-14.3,9.34-10.99,0-16.36-9.19-16.36-19.51,0-9.68,6.91-18.68,17.04-18.68,6.14,0,9.84,3.41,9.84,3.41l1.06-3.41h1.92l.96,14.74h-1.82l-.1-.44c-1.87-7.93-5.28-11.87-11.85-11.87-7.97,0-11.85,8.08-11.85,16.39s4.03,16.93,11.18,16.93c5.81,0,9.93-3.36,12.96-8.37l1.34,1.46Z"/><path d="M265.58,68.96c2.45,0,3.69-1.17,3.69-4.18v-2.58h1.92v15.91h-1.92v-2.58c0-2.97-1.25-4.13-3.69-4.13h-6.53v14.79h11.76c6.53,0,10.41-2.82,10.89-11.29h1.92l-.48,13.72h-33.74v-1.7h2.4c1.68,0,2.83-.88,2.83-2.87v-26.61c0-1.99-1.15-2.87-2.83-2.87h-2.4v-1.7h33.35l.48,13.04h-1.92c-.48-8.46-3.12-10.6-9.93-10.6h-12.33v13.67h6.53Z"/><path d="M299.17,53.59c-4.37,0-6.67,2.72-6.67,6.57,0,10.9,23.18,5.45,23.18,19.8,0,6.32-5.13,9.88-11.85,9.88-6.24,0-11.66-3.5-11.66-3.5l-2.02,3.36h-1.63v-12.7h1.92c1.39,5.4,6.77,10.9,13.39,10.9,4.99,0,7.25-3.16,7.25-7.05,0-9.34-22.94-4.43-22.94-19.65,0-5.59,4.51-9.53,11.04-9.53s10.12,3.7,10.12,3.7l1.63-3.21h1.92v12.16h-1.92c-1.54-5.79-5.13-10.7-11.76-10.7Z"/><path d="M97.59,132.39v-1.28h1.8c1.26,0,2.12-.66,2.12-2.15v-19.96c0-1.5-.86-2.15-2.12-2.15h-1.8v-1.28h11.7c8.96,0,14.69,4.23,14.69,13.39s-5.72,13.43-14.69,13.43h-11.7Zm7.23-1.82h3.2c9.11,0,12.06-4.71,12.06-11.6,0-7.33-2.95-11.56-12.06-11.56h-3.2v23.17Z"/><path d="M137.11,117.65c1.84,0,2.77-.88,2.77-3.14v-1.93h1.44v11.93h-1.44v-1.93c0-2.23-.94-3.1-2.77-3.1h-4.9v11.09h8.82c4.9,0,7.81-2.12,8.17-8.46h1.44l-.36,10.29h-25.3v-1.28h1.8c1.26,0,2.12-.66,2.12-2.15v-19.96c0-1.5-.86-2.15-2.12-2.15h-1.8v-1.28h25.02l.36,9.78h-1.44c-.36-6.35-2.34-7.95-7.45-7.95h-9.25v10.25h4.9Z"/><path d="M176.09,105.58c7.49,0,10.29,3.5,10.29,7.52s-2.81,7.44-10.12,7.44h-6.37v8.43c0,1.5,.9,2.15,2.16,2.15h1.8v1.28h-11.19v-1.28h1.8c1.26,0,2.12-.66,2.12-2.15v-19.96c0-1.5-.86-2.15-2.12-2.15h-1.8v-1.28h13.43Zm-6.19,13.13h4.79c5.94,0,7.81-2.55,7.81-5.65,0-3.5-2.56-5.65-7.81-5.65h-4.79v11.31Z"/><path d="M190.05,124.62l-1.58,4.71c-.5,1.53,1.12,1.79,2.12,1.79h1.8v1.28h-9.39v-1.28h1.08c1.3,0,2.09-.55,2.56-2.01l8.03-24.08h2.16l8.17,22.88c.9,2.55,2.05,3.21,3.38,3.21h.76v1.28h-10.8v-1.28h1.8c1.37,0,2.02-1.35,1.44-3.06l-1.26-3.43h-10.26Zm9.61-1.82l-4.68-13.1-4.36,13.1h9.04Z"/><path d="M216.97,106.85h-1.26c-2.52,0-2.88,1.86-1.84,3.98l4.57,9.19,3.89-8.28c1.08-2.33,2.05-4.93-1.55-4.89h-.94v-1.28h10.91v1.28h-.9c-1.87,0-3.71,1.02-6.01,5.98l-4.61,9.67h.04v6.46c0,1.5,.86,2.15,2.16,2.15h1.76v1.28h-11.16v-1.28h1.76c1.3,0,2.16-.66,2.16-2.15v-6.46l-5.29-10.65c-1.73-3.5-2.99-5-5.11-5h-1.48v-1.28h12.89v1.28Z"/><path d="M239.5,106.13c-3.28,0-5,2.04-5,4.93,0,8.17,17.39,4.09,17.39,14.85,0,4.74-3.85,7.41-8.89,7.41-4.68,0-8.75-2.63-8.75-2.63l-1.51,2.52h-1.22v-9.52h1.44c1.04,4.05,5.08,8.17,10.04,8.17,3.74,0,5.44-2.37,5.44-5.29,0-7-17.21-3.32-17.21-14.74,0-4.2,3.38-7.15,8.28-7.15s7.6,2.77,7.6,2.77l1.22-2.41h1.44v9.12h-1.44c-1.15-4.34-3.85-8.03-8.82-8.03Z"/></g></g></svg>