<?xml version="1.0" encoding="UTF-8"?><svg xmlns="http://www.w3.org/2000/svg" viewBox="0 0 257.41 20.97"><defs><style>.f{isolation:isolate;}</style></defs><g id="a"/><g id="b"><g id="c"><g id="d"><g id="e"><g class="f" transform="translate(0 21.46)"><g class="f"><path d="M4.48,11.53c.97,0,1.51,.13,1.51,.94,0,.65-.54,.94-1.51,.94-2.35,0-2.59,1.7-2.59,2.89,0,1.62,1.54,2.78,3.16,2.78s4.13-.54,4.91-2.78c.84-2.38-1.57-5.34-3.4-7.23-.94-.97-2.24-2.64-1.73-5.24C5.56,.16,8.77,.03,10.18,.03,12.12,.03,14.41,.92,14.41,3.97c0,1.21-.3,1.57-.94,1.57-.59,0-.97-.35-.97-1.57,0-1.43-.84-2.05-2.32-2.05-1.05,0-2.97-.08-3.4,1.97-.35,1.65,.54,3.21,1.35,4.08,1.65,1.78,4.62,5.4,3.72,8.34-1.05,3.48-4.05,4.67-6.8,4.67S0,18.9,0,16.3c0-2.38,1.08-4.78,4.48-4.78Z"/><path d="M25.38,1.7c-1.67,.03-2.59,.73-2.59,2.16,0,1.08,.78,1.89,2.38,2.51,.62,.24,.81,.49,.81,1.08,0,.51-.3,1.08-1.13,1-4.21-.41-5.72,1.35-5.72,3.37,0,1.89,1.46,3.13,3.81,3.13,2.19,0,4.05-.89,5.67-2.94,.4-.51,.92-.94,1.51-.54,.57,.41,.3,1.19-.14,1.73-1.86,2.32-3.99,3.54-7.15,3.54-3.46,0-5.75-2.21-5.75-4.72,0-2.32,1.62-5.26,5.78-5.16-1.19-.54-2-1.73-2-2.94C20.84,1.13,23.11,.05,25.51,.03c2.78-.03,4.64,1.83,4.13,3.97-.24,1-.59,1.16-1.16,1.05-.59-.11-.67-.41-.54-1.11,.19-1.03-.73-2.27-2.56-2.24Z"/><path d="M47.95,12.63c-.94,.89-2.05,2.19-3.67,3.43-.35,.27-.94,.57-1.54,.49-.73-.11-1.08-.7-.89-1.4l3.02-11.15c.19-.62,.32-1.16,.32-1.57,0-.46-.22-.65-.67-.65-.57,0-1.32,.38-1.86,.89-.46,.43-.84,1.16-1.19,2.16l-2.83,10.2c-.35,1.3-.62,1.65-1.24,1.65-.46,0-.73-.19-.73-.76,0-.24,.03-.51,.14-.89l2.97-11.04c.19-.62,.32-1.16,.32-1.57,0-.46-.22-.65-.67-.65-.57,0-1.32,.38-1.86,.89-.3,.3-.59,.73-.84,1.27l-3.05,11.04c-.35,1.29-.65,1.65-1.27,1.65-.43,0-.67-.16-.67-.73,0-.22,.03-.54,.13-.92,1.92-7.26,2.54-9.91,3.7-13.98,.22-.89,.89-1.03,1.35-.97,.51,.05,.73,.35,.67,.86,.59-.49,1.27-.84,1.92-.84,1,0,1.94,.78,2.24,1.54,0-.03,.03-.05,.03-.05,.73-.86,1.81-1.49,2.83-1.49,1.24,0,2.4,1.11,2.4,2.46,0,1-.27,1.67-2.97,11.44,.76-.7,1.84-1.59,2.65-2.38,.35-.35,.84-.32,1.13-.16,.38,.22,.46,.86,.13,1.21Z"/><path d="M57.78,1.7c-1.67,.03-2.59,.73-2.59,2.16,0,1.08,.78,1.89,2.38,2.51,.62,.24,.81,.49,.81,1.08,0,.51-.3,1.08-1.13,1-4.21-.41-5.72,1.35-5.72,3.37,0,1.89,1.46,3.13,3.81,3.13,2.19,0,4.05-.89,5.67-2.94,.4-.51,.92-.94,1.51-.54,.57,.41,.3,1.19-.14,1.73-1.86,2.32-3.99,3.54-7.15,3.54-3.46,0-5.75-2.21-5.75-4.72,0-2.32,1.62-5.26,5.78-5.16-1.19-.54-2-1.73-2-2.94C53.24,1.13,55.51,.05,57.91,.03c2.78-.03,4.64,1.83,4.13,3.97-.24,1-.59,1.16-1.16,1.05-.59-.11-.67-.41-.54-1.11,.19-1.03-.73-2.27-2.56-2.24Z"/><path d="M79.48,12.5c-1.05,.89-2.21,1.94-4.02,3.4-.57,.46-1.19,.86-1.78,.76-.73-.13-1.13-.7-.94-1.4l2.86-10.18c.65-2.27,.59-3-.57-3-1.65,0-5.21,2.73-8.48,12.74-.38,1.16-.78,2-1.62,1.83-.78-.16-.7-.73-.3-2.21,3.48-12.44,3.64-12.98,3.75-13.42,.22-.89,.89-1.03,1.35-.97,.68,.08,.81,.54,.57,1.35l-1.13,3.78C71.68,1,73.84,.05,75.3,.05c2.89,0,3.29,1.65,2.54,4.29l-2.7,9.58c.89-.76,2.21-1.89,3.19-2.7,.49-.41,.76-.38,1.08-.16,.46,.3,.43,1.13,.08,1.43Z"/><path d="M93.85,2.89c0,.97-.27,2-1,2.89-.62,.76-1.16,1-1.73,.51-.49-.4-.24-1.03,.14-1.46,.54-.59,.78-1.21,.78-1.73,0-.73-.78-1.27-1.94-1.27-4.16,0-7.13,3.48-7.13,8.1,0,2.75,1.81,4.83,4.18,4.83s4.37-1.35,6.13-3.97c.49-.73,.94-1,1.57-.65,.59,.32,.67,.86,.3,1.4-2.27,3.24-4.7,5.1-8.04,5.1-4.02,0-6.02-3.62-6.02-6.72C81.08,4.45,84.89,.03,90.07,.03c2.38,0,3.78,1.21,3.78,2.86Z"/><path d="M106.38,1.7c-1.67,.03-2.59,.73-2.59,2.16,0,1.08,.78,1.89,2.38,2.51,.62,.24,.81,.49,.81,1.08,0,.51-.3,1.08-1.13,1-4.21-.41-5.72,1.35-5.72,3.37,0,1.89,1.46,3.13,3.81,3.13,2.19,0,4.05-.89,5.67-2.94,.4-.51,.92-.94,1.51-.54,.57,.41,.3,1.19-.14,1.73-1.86,2.32-3.99,3.54-7.15,3.54-3.46,0-5.75-2.21-5.75-4.72,0-2.32,1.62-5.26,5.78-5.16-1.19-.54-2-1.73-2-2.94,0-2.78,2.27-3.86,4.67-3.89,2.78-.03,4.64,1.83,4.13,3.97-.24,1-.59,1.16-1.16,1.05-.59-.11-.67-.41-.54-1.11,.19-1.03-.73-2.27-2.56-2.24Z"/><path d="M117.88,11.53c.97,0,1.51,.13,1.51,.94,0,.65-.54,.94-1.51,.94-2.35,0-2.59,1.7-2.59,2.89,0,1.62,1.54,2.78,3.16,2.78s4.13-.54,4.91-2.78c.84-2.38-1.57-5.34-3.4-7.23-.94-.97-2.24-2.64-1.73-5.24C118.96,.16,122.17,.03,123.57,.03c1.94,0,4.24,.89,4.24,3.94,0,1.21-.3,1.57-.94,1.57-.59,0-.97-.35-.97-1.57,0-1.43-.84-2.05-2.32-2.05-1.05,0-2.97-.08-3.4,1.97-.35,1.65,.54,3.21,1.35,4.08,1.65,1.78,4.62,5.4,3.72,8.34-1.05,3.48-4.05,4.67-6.8,4.67s-5.05-2.08-5.05-4.67c0-2.38,1.08-4.78,4.48-4.78Z"/><path d="M150.9,3.1c.51,0,.81,.27,.81,.84,0,.16-.03,.35-.08,.57l-2.48,9.93c.67,.24,1.16,.32,1.94,.32,3.91,0,7.29-3.35,7.29-7.42,0-3.75-2.43-5.48-5.75-5.48-1.97,0-3.46,.51-4.89,1.67-.73,.59-1.32,.78-1.78,.3-.51-.57-.22-1.13,.59-1.78,1.78-1.43,3.67-2.02,6.15-2.02,4.53,0,7.64,2.54,7.64,7.23,0,5.34-4.45,9.39-9.1,9.39-3.1,0-4.67-.76-4.21-2.51l2.46-9.64c.32-1.21,.7-1.4,1.4-1.4Z"/><path d="M171.17,1.7c-1.67,.03-2.59,.73-2.59,2.16,0,1.08,.78,1.89,2.38,2.51,.62,.24,.81,.49,.81,1.08,0,.51-.3,1.08-1.13,1-4.21-.41-5.72,1.35-5.72,3.37,0,1.89,1.46,3.13,3.81,3.13,2.19,0,4.05-.89,5.67-2.94,.4-.51,.92-.94,1.51-.54,.57,.41,.3,1.19-.13,1.73-1.86,2.32-4,3.54-7.15,3.54-3.46,0-5.75-2.21-5.75-4.72,0-2.32,1.62-5.26,5.78-5.16-1.19-.54-2-1.73-2-2.94,0-2.78,2.27-3.86,4.67-3.89,2.78-.03,4.64,1.83,4.13,3.97-.24,1-.59,1.16-1.16,1.05-.59-.11-.67-.41-.54-1.11,.19-1.03-.73-2.27-2.56-2.24Z"/><path d="M208.76,5.4c0,3.94-2.35,8.07-6.48,8.07-.78,0-1.62-.11-2.56-.41l-1.78,6.83c-.24,.95-.89,1.03-1.35,1.03-.35,0-.76-.19-.76-.81,0-.13,.03-.3,.08-.51l3.89-15.09c.32-1.21,.7-1.4,1.4-1.4,.51,0,.81,.27,.81,.84,0,.13-.03,.32-.08,.51l-1.7,6.67c.86,.32,1.62,.46,2.27,.46,2.83-.05,4.37-3.1,4.37-6.18,0-2.65-2.62-3.51-5.13-3.51-1.97,0-3.46,.49-4.89,1.65-.43,.35-.84,.57-1.19,.57-.22,0-.41-.08-.59-.27-.16-.19-.24-.38-.24-.57,0-.41,.3-.78,.84-1.21,1.78-1.43,3.67-2,6.15-2.02,4.7-.03,6.94,2.46,6.94,5.37Z"/><path d="M224.74,2.78l-1.4,12.23c-.13,1.21-.54,1.62-1.16,1.62-.57,0-.84-.65-.73-1.59l.59-4.8h-5.56l-3.43,5.1c-.59,.97-1.35,1.48-1.94,1-.65-.54-.05-1.32,.38-2.02l2.81-4.08h-1.86c-.7,0-1.05-.32-1.05-.95,0-.57,.54-.92,1.05-.92l3.13,.03,4.16-6.05c1.32-1.94,2.11-2.32,2.89-2.32,2.08,0,2.27,1.67,2.13,2.75Zm-2.21-.86c-.3,0-.62,.22-1.51,1.57l-3.32,4.91h4.56c.76-6.21,.92-6.48,.27-6.48Z"/><path d="M241.99,1.65l-3.29,12.71h.57c.95,0,1.4,.4,1.4,.81,0,.86-.7,.86-1.24,.92l-1.24,.13c-.92,3.89-5.16,4.75-7.45,4.75-2.59,0-3.94-1.32-3.4-3.37,.51-2,4.51-2.94,9.23-3.19l1.16-4.4c-2.46,3.05-4.86,3.97-5.83,3.97-2.89,0-2.65-3.89-1.7-7.23l.05-.22,1.08-3.78c-.89,.76-2.21,1.89-3.18,2.7-.49,.41-.76,.38-1.08,.16-.46-.3-.43-1.13-.08-1.43,1.05-.89,2.21-1.94,4.02-3.4,.57-.46,1.19-.86,1.78-.76,.73,.13,1.13,.7,.94,1.4l-1.59,5.67c-.65,2.59-1,4.86,.03,4.86,2.05,0,5.7-4.86,7.72-10.31,.35-1.3,.89-1.65,1.51-1.65s.95,.35,.59,1.65Zm-5.91,14.66c-.43,0-6.51,.19-6.88,1.62-.24,.92,.43,1.21,1.57,1.21,.97,0,4.53,.19,5.32-2.83Z"/><path d="M247.48,11.53c.97,0,1.51,.13,1.51,.94,0,.65-.54,.94-1.51,.94-2.35,0-2.59,1.7-2.59,2.89,0,1.62,1.54,2.78,3.16,2.78s4.13-.54,4.91-2.78c.84-2.38-1.57-5.34-3.4-7.23-.94-.97-2.24-2.64-1.73-5.24,.73-3.67,3.94-3.81,5.34-3.81,1.94,0,4.24,.89,4.24,3.94,0,1.21-.3,1.57-.95,1.57-.59,0-.97-.35-.97-1.57,0-1.43-.84-2.05-2.32-2.05-1.05,0-2.97-.08-3.4,1.97-.35,1.65,.54,3.21,1.35,4.08,1.65,1.78,4.62,5.4,3.73,8.34-1.05,3.48-4.05,4.67-6.8,4.67s-5.05-2.08-5.05-4.67c0-2.38,1.08-4.78,4.48-4.78Z"/></g></g></g></g></g></g></svg>