<?xml version="1.0" encoding="UTF-8"?><svg id="Calque_2" xmlns="http://www.w3.org/2000/svg" viewBox="0 0 103.75 30"><g id="body"><g><path d="M9.15,11.73c0,2.62-1.99,4.57-4.94,4.57-1.41-.02-2.8-.34-4.08-.95l-.13-3.32H.13c.87,2.67,2.43,3.97,4.34,3.97,1.76,0,3.4-1.19,3.4-3.27s-1.56-2.86-3.42-3.79l-1.08-.54C1.82,7.63,.33,6.63,.33,4.31,.33,1.84,2.15,0,4.73,0c1.33,.03,2.64,.35,3.84,.93V3.51h-.13C7.59,1.26,6.24,.31,4.64,.31,2.82,.31,1.6,1.54,1.6,3.36s1.43,2.6,2.71,3.25l1.08,.54c1.91,.95,3.75,1.97,3.75,4.57Z"/><path d="M103.75,11.84c0,2.62-1.99,4.57-4.94,4.57-1.41-.02-2.8-.34-4.08-.95l-.13-3.32h.13c.87,2.67,2.43,3.97,4.34,3.97,1.76,0,3.4-1.19,3.4-3.27s-1.56-2.86-3.42-3.79l-1.08-.54c-1.54-.76-3.04-1.76-3.04-4.08,0-2.47,1.82-4.31,4.4-4.31,1.33,.03,2.64,.35,3.84,.93V3.62h-.13c-.85-2.25-2.19-3.21-3.79-3.21-1.82,0-3.04,1.24-3.04,3.06s1.43,2.6,2.71,3.25l1.08,.54c1.91,.95,3.75,1.97,3.75,4.57Z"/><path d="M21.74,12.4l-.5,3.64H10.32v-.13c1.47,0,1.56-.98,1.56-2.58,0-6.06,6.5-5.68,6.5-6.98,0-.09-.03-.17-.09-.23-.06-.06-.15-.09-.24-.08-2.05,0-3.8,3.04-6.24,3.04-.28,.04-.56-.06-.76-.25-.2-.19-.31-.47-.28-.75,0-1.27,1.12-2.5,1.12-5.11,0-1.6-.09-2.57-1.56-2.57v-.13h10.6l.28,3.25h-.13c-1.11-2.47-1.82-2.91-4.18-2.91h-3.1V2.97c0,2.59-1.25,3.72-1.25,4.84,0,.09,.05,.18,.12,.24s.16,.09,.26,.08c1.41,0,3.11-2.49,5.16-2.49,.2-.02,.4,.04,.55,.18,.15,.14,.23,.33,.22,.54,0,1.68-5.05,.31-5.05,6.99v1.33c0,.65,.2,1.02,.87,1.02h2.56c2.3,0,3.12-.39,4.4-3.3h.13Z"/><path d="M40.23,15.91v.13h-4.96v-.13c1.47,0,1.56-.95,1.47-2.56l-.63-11.58-5.12,14.27h-.17l-.85-2.35c-2.17-5.11-.06-7.44-.43-7.82-.37-.38-1.71,3.08-2.61,2.15-.77-.8,.11-2.49-.45-4.03l-.79-2.18-.56,10.49c-.11,2.08,.37,3.6,1.84,3.6v.13h-4.05v-.13c1.39-.11,1.71-1.54,1.82-3.6l.5-9.54c.09-1.69-.65-2.21-1.73-2.38v-.13h3.66l.9,2.5c.95,2.44-1,4.02-.53,4.61,.53,.67,1.58-3.11,2.58-1.91,.52,.63-.62,2.32,1,5.77l.6,1.66L36.24,.26h3.34v.13c-1.47,.13-1.63,.89-1.54,2.62l.59,10.34c.09,1.6,.17,2.56,1.6,2.56Z"/><path d="M52.82,12.4l-.5,3.64h-10.93v-.13c1.47,0,1.56-.98,1.56-2.58,0-6.06,6.5-5.68,6.5-6.98,0-.09-.03-.17-.09-.23-.06-.06-.15-.09-.24-.08-2.05,0-3.8,3.04-6.24,3.04-.28,.04-.56-.06-.76-.25-.2-.19-.31-.47-.28-.75,0-1.27,1.12-2.5,1.12-5.11,0-1.6-.09-2.57-1.56-2.57v-.13h10.6l.28,3.25h-.13c-1.11-2.47-1.82-2.91-4.18-2.91h-3.1V2.97c0,2.59-1.25,3.72-1.25,4.84,0,.09,.05,.18,.12,.24s.16,.09,.26,.08c1.41,0,3.11-2.49,5.16-2.49,.2-.02,.4,.04,.55,.18,.15,.14,.23,.33,.22,.54,0,1.68-5.05,.31-5.05,6.99v1.33c0,.65,.2,1.02,.87,1.02h2.56c2.3,0,3.12-.39,4.4-3.3h.13Z"/><path d="M65.78,4.07c0,1.99-2,3.18-2,3.68,0,.04,.02,.08,.06,.11,.03,.03,.07,.04,.11,.04,.66,0,1.87-2.67,2.7-2.67,.21-.02,.41,.05,.56,.19,.15,.14,.24,.33,.24,.54,0,.84-1.54,1.76-1.68,5.49v4.82h-.13L56.28,1.93V12.34c0,2.08,.35,3.58,1.93,3.58v.13h-4.23v-.13c1.52,0,1.91-1.5,1.91-3.58V2.71c0-1.5-.61-2.15-1.91-2.32v-.13h3.47l7.93,12.23v-.57c0-.15,0-.3,0-.48,.08-3.23,1.02-3.83,1.02-4.46,0-.23-.08-.41-.3-.41-.44,0-1.72,1.56-2.19,1.56-.1,.01-.2-.02-.27-.09s-.11-.16-.11-.26c0-.67,1.9-1.77,1.85-3.71-.01-2.23-.35-3.68-1.97-3.68v-.13h4.05v.13c-1.45,0-1.68,1.45-1.69,3.68Z"/><path d="M80.84,12.12l-.35,3.08c-1.42,.74-3,1.12-4.6,1.11-4.21,0-7.26-3.25-7.26-8.11S71.67,0,75.9,0c2.66,0,4.39,1.05,4.39,2.72,0,2.76-2.83,4.39-2.83,6.12,0,.44,.18,.85,.46,.85v.13c-.82,0-1.52-.34-1.52-1.37,0-1.84,3.26-3.44,3.26-5.73,0-1.3-1.5-2.42-3.81-2.42-3.01,0-5.08,3.34-5.08,7.87s2.12,7.83,5.09,7.83c2.25,0,3.92-1.23,4.86-3.88h.13Z"/><path d="M93.44,12.4l-.5,3.64h-10.93v-.13c1.47,0,1.56-.98,1.56-2.58,0-6.06,6.5-5.68,6.5-6.98,0-.09-.03-.17-.09-.23-.06-.06-.15-.09-.24-.08-2.05,0-3.8,3.04-6.24,3.04-.28,.04-.56-.06-.76-.25-.2-.19-.31-.47-.28-.75,0-1.27,1.12-2.5,1.12-5.11,0-1.6-.09-2.57-1.56-2.57v-.13h10.6l.28,3.25h-.13c-1.11-2.47-1.82-2.91-4.18-2.91h-3.1V2.97c0,2.59-1.25,3.72-1.25,4.84,0,.09,.05,.18,.12,.24s.16,.09,.26,.08c1.41,0,3.11-2.49,5.16-2.49,.2-.02,.4,.04,.55,.18,.15,.14,.23,.33,.22,.54,0,1.68-5.05,.31-5.05,6.99v1.33c0,.65,.2,1.02,.87,1.02h2.56c2.3,0,3.12-.39,4.4-3.3h.13Z"/><g><path d="M72.21,25.83c0,2.49-1.57,4.04-3.96,4.04h-3.08v-.07c.74,0,.78-.49,.78-1.29,0-3.21,2-3.63,2-4.2,0-.04-.01-.09-.04-.12-.03-.03-.07-.05-.12-.04-.73,0-1.44,1.91-2.57,1.91-.14,0-.27-.04-.37-.14-.1-.1-.15-.23-.15-.37,0-.85,1.26-.9,1.26-2.23,0-.8-.04-1.29-.78-1.29v-.07h3.14c2.47,0,3.89,1.41,3.89,3.85Zm-1.07,.07c0-2.18-.92-3.74-2.89-3.74h-.92c-.11-.02-.22,.02-.3,.1-.08,.08-.12,.18-.11,.3v.79c0,1.58-1.28,1.81-1.28,2.15,0,.08,.07,.11,.14,.11,.49,0,1.37-1.63,2.03-1.63,.1-.01,.2,.02,.28,.09s.11,.17,.11,.27c0,.8-1.28,.78-1.28,4.2v.48c0,.5,.28,.69,1.39,.69,1.94,0,2.84-1.47,2.84-3.81Z"/><path d="M78.57,28.05l-.25,1.82h-5.46v-.07c.74,0,.78-.49,.78-1.29,0-3.03,3.25-2.84,3.25-3.49,0-.04-.01-.09-.04-.12-.03-.03-.07-.05-.12-.04-1.02,0-1.9,1.52-3.12,1.52-.14,.02-.28-.03-.38-.13-.1-.1-.15-.24-.14-.38,0-.63,.56-1.25,.56-2.55,0-.8-.04-1.29-.78-1.29v-.07h5.3l.14,1.63h-.07c-.55-1.24-.91-1.45-2.09-1.45h-1.55v1.18c0,1.29-.62,1.86-.62,2.42,0,.05,.02,.09,.06,.12,.04,.03,.08,.04,.13,.04,.71,0,1.55-1.25,2.58-1.25,.1-.01,.2,.02,.28,.09,.07,.07,.11,.17,.11,.27,0,.84-2.53,.15-2.53,3.49v.67c0,.33,.1,.51,.43,.51h1.28c1.15,0,1.56-.2,2.2-1.65h.07Z"/><path d="M87.04,24.17c0,1.47-.98,2.38-2.49,2.38-.32,0-.63-.05-.93-.14-.12,.62-.18,1.25-.17,1.88v.22c0,.8,.09,1.29,.82,1.29v.06h-2.56v-.06c.74,0,.78-.49,.78-1.29v-.22c0-3.22,1.96-3.63,1.96-4.2,0-.04-.01-.09-.04-.12-.03-.03-.07-.05-.12-.04-.73,0-1.44,1.91-2.57,1.91-.14,0-.27-.04-.37-.14-.1-.1-.15-.23-.15-.37,0-.85,1.3-.9,1.3-1.97v-.03c0-.8-.04-1.29-.78-1.29v-.07h2.7c1.65,0,2.63,.88,2.63,2.19Zm-2.76,2.15c1.03,0,1.76-.75,1.75-2.11,0-1.15-.56-2.05-1.77-2.05h-.41c-.11-.02-.22,.02-.3,.1-.08,.08-.12,.18-.11,.3v.82c0,1.13-1.31,1.55-1.31,1.89,0,.08,.07,.11,.14,.11,.49,0,1.37-1.63,2.03-1.63,.1-.01,.2,.02,.28,.09s.11,.17,.11,.27c0,.59-.67,.74-1.02,2.12,.2,.07,.41,.11,.62,.1h0Z"/><path d="M92.91,29.8v.07h-2.47v-.07c.61-.04,.8-.4,.57-1.06l-.27-.77c-.39-.85-1.04-1.25-1.64-1.27-.61-.02-1.04,.17-1.39,.79-.02,.04-.03,.09-.04,.13l-.06,.21v.04l-.02,.02c-.4,1.24-.41,1.84,.36,1.91v.07h-1.79v-.07c.52-.05,.8-.72,1.26-2.03l.05-.14c.53-1.46,1.64-2.18,1.64-2.38,0-.07-.03-.1-.1-.1-.22,0-1.04,1.51-1.62,1.51-.1,0-.19-.04-.26-.12-.07-.07-.1-.17-.09-.27,0-.86,2.47-2.54,2.47-4.4h.09l2.33,6.61c.33,.91,.53,1.28,.99,1.32Zm-2.52-2.85l-1.21-3.47c-.57,1.04-1.5,1.98-1.5,2.43,0,.04,0,.08,.04,.1s.07,.04,.11,.03c.23,0,.82-1.05,1.2-1.05,.06,0,.12,.02,.16,.06s.06,.1,.06,.16c0,.22-.82,.87-1.31,1.76,.3-.34,.72-.53,1.17-.53,.48,0,.93,.19,1.28,.51Z"/><path d="M99.5,21.98v.07c-.6,.05-1.09,.87-1.69,2.05l-.8,1.58c-.46,.99-1.83,1.45-1.82,1.94,0,.07,.04,.1,.09,.1,.54,0,1.53-1.55,2.25-1.55,.18,0,.33,.15,.33,.34,0,.54-1.15,.83-1.15,2.02,0,.8,.04,1.29,.78,1.29v.07h-2.51v-.07c.74,0,.78-.48,.78-1.29,0-.9,1.29-1.31,1.29-1.6,0-.08-.05-.14-.12-.15-.44,0-.96,1.07-1.65,1.07-.07,0-.13-.02-.18-.07-.05-.05-.07-.12-.06-.18,0-.25,.41-.51,.85-.87l-1.71-3.34c-.5-.97-.7-1.27-1.04-1.32v-.07h2.46v.07c-.65,.04-.81,.42-.5,1.03l1.49,2.94c.08-.11,.15-.22,.21-.34l.84-1.64c.63-1.25,.81-1.89,.1-1.98v-.07h1.79Z"/><path d="M103.75,27.71c0,1.31-1,2.29-2.47,2.29-.71,0-1.4-.17-2.04-.48l-.06-1.66h.06c.43,1.33,1.21,1.98,2.17,1.98,.88,0,1.7-.6,1.7-1.64s-.78-1.43-1.71-1.9l-.54-.27c-.77-.38-1.52-.88-1.52-2.04,0-1.24,.91-2.16,2.2-2.16,.67,.02,1.32,.18,1.92,.47v1.29h-.07c-.42-1.13-1.09-1.6-1.9-1.6-.91,0-1.52,.62-1.52,1.53s.72,1.3,1.35,1.63l.54,.27c.95,.48,1.88,.99,1.87,2.29Z"/></g></g></g></svg>