<?xml version="1.0" encoding="utf-8"?>
<!-- Generator: Adobe Illustrator 26.3.1, SVG Export Plug-In . SVG Version: 6.00 Build 0)  -->
<svg version="1.1" id="Calque_1" xmlns="http://www.w3.org/2000/svg" xmlns:xlink="http://www.w3.org/1999/xlink" x="0px" y="0px"
	 viewBox="0 0 174 48.9" style="enable-background:new 0 0 174 48.9;" xml:space="preserve">
<style type="text/css">
	.st0{fill:#142241;}
</style>
<g>
	<path class="st0" d="M0.9,18.7c-0.1-0.2-0.2-0.4-0.2-0.7c0-0.1,0-0.2,0-0.2c0-0.1,0-0.1,0-0.2c0-0.4,0.1-0.7,0.2-1.1
		c0.1-0.3,0.3-0.6,0.6-0.9S2,15.1,2.3,15c0.3-0.1,0.7-0.2,1.1-0.2h0.1c0.8,0,1.5,0.2,1.9,0.5c0.5,0.3,0.9,0.7,1.2,1.2
		c0.3,0.5,0.6,1,0.8,1.5c0.2,0.5,0.5,1,0.8,1.5c0.3,0.5,0.7,0.9,1.2,1.2c0.5,0.3,1.2,0.5,2,0.5c0.8,0,1.4-0.2,2-0.5
		c0.6-0.3,0.8-0.9,0.8-1.7c0-0.8-0.3-1.5-1-2.1c-0.6-0.6-1.4-1.1-2.4-1.7c-1-0.5-2-1-3.1-1.5s-2.1-1.1-3.1-1.7
		c-1-0.6-1.8-1.4-2.4-2.3c-0.6-0.9-1-1.9-1-3.2c0-1,0.2-1.8,0.6-2.5c0.4-0.7,1-1.3,1.7-1.8C4.5,1.6,5.3,1.3,6.3,1
		c1-0.2,2-0.4,3.2-0.4c1.3,0,2.4,0.1,3.4,0.3c1,0.2,1.8,0.4,2.5,0.7c0.7,0.3,1.3,0.6,1.7,1c0.5,0.4,0.8,0.7,1.1,1.1
		c0.1,0.2,0.3,0.4,0.4,0.6c0.1,0.2,0.2,0.4,0.2,0.7c0,0.1,0,0.1,0,0.2c0,0.1,0,0.1,0,0.1c0,0.3-0.1,0.7-0.2,1
		c-0.1,0.3-0.3,0.6-0.6,0.8c-0.2,0.2-0.5,0.4-0.9,0.5c-0.3,0.1-0.7,0.2-1,0.2c-0.7,0-1.2-0.1-1.6-0.4c-0.4-0.3-0.7-0.6-1-1
		c-0.3-0.4-0.5-0.8-0.7-1.3c-0.2-0.5-0.5-0.9-0.8-1.3c-0.3-0.4-0.7-0.7-1.1-1c-0.4-0.3-1-0.4-1.7-0.4c-0.5,0-1,0.2-1.4,0.5
		C7.3,3.3,7.1,3.8,7.1,4.6c0,0.8,0.3,1.5,0.9,2c0.6,0.5,1.4,1,2.4,1.4c0.9,0.4,2,0.9,3.1,1.3c1.1,0.4,2.1,0.9,3.1,1.5
		c0.9,0.6,1.7,1.4,2.4,2.3c0.6,0.9,0.9,2.1,0.9,3.4c0,0.9-0.2,1.8-0.6,2.6c-0.4,0.8-1,1.5-1.8,2c-0.8,0.6-1.7,1-2.9,1.3
		c-1.1,0.3-2.4,0.5-3.8,0.5c-1.5,0-2.9-0.1-4-0.4c-1.1-0.3-2.1-0.6-2.9-1c-0.8-0.4-1.4-0.9-1.9-1.4C1.5,19.6,1.2,19.1,0.9,18.7z"/>
	<path class="st0" d="M21.1,21.7c0-0.3,0.1-0.6,0.3-0.8s0.4-0.5,0.7-0.7c0.2-0.2,0.5-0.5,0.7-0.8c0.2-0.3,0.3-0.6,0.3-1V5.3
		c0-0.3-0.1-0.6-0.3-0.9c-0.2-0.3-0.4-0.5-0.7-0.8c-0.2-0.2-0.5-0.5-0.7-0.8c-0.2-0.3-0.3-0.6-0.3-0.9c0-0.3,0.1-0.6,0.3-0.9
		c0.2-0.2,0.5-0.3,0.8-0.3l15.4,0c0.3,0,0.6,0.1,0.7,0.3c0.2,0.2,0.3,0.4,0.3,0.8V6c0,0.2,0,0.4,0,0.7c0,0.2-0.1,0.5-0.1,0.7
		c-0.1,0.2-0.2,0.4-0.4,0.5c-0.2,0.1-0.4,0.2-0.7,0.2c-0.3,0-0.6-0.1-0.8-0.3c-0.2-0.2-0.4-0.5-0.5-0.9c-0.2-0.4-0.3-0.7-0.5-1.1
		c-0.2-0.4-0.4-0.8-0.6-1.1c-0.3-0.4-0.6-0.6-1-0.9c-0.4-0.2-0.9-0.3-1.6-0.3h-1.6c-0.5,0-0.9,0.1-1.3,0.4c-0.4,0.3-0.6,0.7-0.6,1.1
		v2.9c0,0.8,0,1.8,0,2.8h3.9c0.5,0,0.8-0.1,1.1-0.3c0.3-0.2,0.5-0.4,0.7-0.7c0.2-0.2,0.4-0.5,0.6-0.7c0.2-0.2,0.4-0.3,0.6-0.3
		c0.3,0,0.5,0.1,0.6,0.3c0.1,0.2,0.2,0.4,0.2,0.6v4.1c0,0.2-0.1,0.4-0.2,0.6c-0.1,0.2-0.3,0.3-0.6,0.3c-0.2,0-0.4-0.1-0.6-0.3
		c-0.2-0.2-0.4-0.4-0.5-0.7c-0.2-0.2-0.4-0.5-0.7-0.7c-0.3-0.2-0.7-0.3-1.1-0.3H29v2.9v2c0,0.3,0,0.6,0,0.9c0.1,0.6,0.3,1,0.7,1.3
		c0.4,0.3,0.8,0.5,1.2,0.5h1.9c0.7,0,1.2-0.1,1.7-0.3c0.4-0.2,0.8-0.5,1.1-0.9c0.3-0.3,0.6-0.7,0.8-1.1c0.2-0.4,0.4-0.8,0.6-1.1
		c0.2-0.3,0.4-0.6,0.6-0.9c0.2-0.2,0.5-0.3,0.9-0.3c0.3,0,0.5,0.1,0.7,0.2c0.1,0.1,0.2,0.3,0.3,0.5c0,0.2,0.1,0.4,0,0.7
		c0,0.2,0,0.5-0.1,0.6l-0.6,4.1c0,0.3-0.2,0.5-0.4,0.7c-0.2,0.2-0.5,0.3-0.8,0.3H22.3c-0.3,0-0.6-0.1-0.8-0.3
		C21.2,22.3,21.1,22,21.1,21.7z"/>
	<path class="st0" d="M40.8,21.7c0-0.3,0.1-0.6,0.3-0.8s0.4-0.5,0.7-0.7c0.2-0.2,0.5-0.5,0.7-0.8c0.2-0.3,0.3-0.6,0.3-1V5.3
		c0-0.4-0.1-0.8-0.3-1C42.3,4,42,3.8,41.8,3.6c-0.2-0.2-0.5-0.5-0.7-0.7c-0.2-0.2-0.3-0.5-0.3-0.8c0-0.3,0.1-0.6,0.4-0.9
		c0.2-0.2,0.5-0.3,0.8-0.3h5.5c0.4,0,0.7,0.1,1.1,0.3c0.3,0.2,0.6,0.5,0.7,0.8l6.4,14.5l6.1-14.5c0.1-0.3,0.3-0.6,0.6-0.8
		c0.3-0.2,0.6-0.3,1-0.3h5.2c0.3,0,0.6,0.1,0.8,0.3c0.2,0.2,0.3,0.5,0.3,0.9c0,0.5-0.2,0.8-0.6,1l-0.7,0.8c-0.4,0.4-0.6,0.9-0.6,1.5
		v13.1c0,0.6,0.2,1.1,0.6,1.5l0.7,0.8c0.4,0.2,0.6,0.5,0.6,1c0,0.3-0.1,0.6-0.3,0.9c-0.2,0.2-0.5,0.3-0.8,0.3h-7.4
		c-0.3,0-0.6-0.1-0.8-0.3c-0.2-0.2-0.4-0.5-0.4-0.9c0-0.5,0.2-0.8,0.6-1l0.7-0.8c0.4-0.5,0.6-1,0.6-1.5v-10l-5.7,13.5
		c-0.1,0.3-0.3,0.5-0.6,0.7c-0.3,0.2-0.6,0.3-0.9,0.3H53c-0.2-0.1-0.3-0.2-0.5-0.4c-0.1-0.1-0.3-0.2-0.4-0.4
		c-0.1-0.1-0.2-0.3-0.3-0.4L45.7,8.4v9.9c0,0.4,0.1,0.7,0.3,1c0.2,0.3,0.4,0.5,0.7,0.8c0.2,0.2,0.5,0.5,0.7,0.7
		c0.2,0.2,0.3,0.5,0.3,0.8c0,0.3-0.1,0.6-0.3,0.9c-0.2,0.2-0.5,0.3-0.8,0.3H42c-0.3,0-0.6-0.1-0.8-0.3C40.9,22.3,40.8,22,40.8,21.7z
		"/>
	<path class="st0" d="M70.8,21.7c0-0.3,0.1-0.6,0.3-0.8c0.2-0.2,0.4-0.5,0.7-0.7c0.2-0.2,0.5-0.5,0.7-0.8c0.2-0.3,0.3-0.6,0.3-1V5.3
		c0-0.3-0.1-0.6-0.3-0.9c-0.2-0.3-0.4-0.5-0.7-0.8c-0.2-0.2-0.5-0.5-0.7-0.8c-0.2-0.3-0.3-0.6-0.3-0.9c0-0.3,0.1-0.6,0.3-0.9
		c0.2-0.2,0.5-0.3,0.8-0.3l15.4,0c0.3,0,0.6,0.1,0.7,0.3c0.2,0.2,0.3,0.4,0.3,0.8V6c0,0.2,0,0.4,0,0.7c0,0.2-0.1,0.5-0.1,0.7
		c-0.1,0.2-0.2,0.4-0.4,0.5c-0.2,0.1-0.4,0.2-0.7,0.2c-0.3,0-0.6-0.1-0.8-0.3c-0.2-0.2-0.4-0.5-0.5-0.9c-0.2-0.4-0.3-0.7-0.5-1.1
		c-0.2-0.4-0.4-0.8-0.6-1.1c-0.3-0.4-0.6-0.6-1-0.9c-0.4-0.2-0.9-0.3-1.6-0.3h-1.6c-0.5,0-0.9,0.1-1.3,0.4c-0.4,0.3-0.6,0.7-0.6,1.1
		v2.9c0,0.8,0,1.8,0,2.8h3.9c0.5,0,0.8-0.1,1.1-0.3c0.3-0.2,0.5-0.4,0.7-0.7c0.2-0.2,0.4-0.5,0.6-0.7c0.2-0.2,0.4-0.3,0.6-0.3
		c0.3,0,0.5,0.1,0.6,0.3c0.1,0.2,0.2,0.4,0.2,0.6v4.1c0,0.2-0.1,0.4-0.2,0.6c-0.1,0.2-0.3,0.3-0.6,0.3c-0.2,0-0.4-0.1-0.6-0.3
		c-0.2-0.2-0.4-0.4-0.5-0.7c-0.2-0.2-0.4-0.5-0.7-0.7c-0.3-0.2-0.7-0.3-1.1-0.3h-3.9v2.9v2c0,0.3,0,0.6,0,0.9c0.1,0.6,0.3,1,0.7,1.3
		c0.4,0.3,0.8,0.5,1.2,0.5h1.9c0.7,0,1.2-0.1,1.7-0.3c0.4-0.2,0.8-0.5,1.1-0.9c0.3-0.3,0.6-0.7,0.8-1.1c0.2-0.4,0.4-0.8,0.6-1.1
		c0.2-0.3,0.4-0.6,0.6-0.9c0.2-0.2,0.5-0.3,0.9-0.3c0.3,0,0.5,0.1,0.7,0.2c0.1,0.1,0.2,0.3,0.3,0.5c0,0.2,0.1,0.4,0,0.7
		c0,0.2,0,0.5-0.1,0.6l-0.6,4.1c0,0.3-0.2,0.5-0.4,0.7c-0.2,0.2-0.5,0.3-0.8,0.3H72c-0.3,0-0.6-0.1-0.8-0.3
		C71,22.3,70.8,22,70.8,21.7z"/>
	<path class="st0" d="M90.5,21.7c0-0.3,0.1-0.6,0.3-0.8c0.2-0.2,0.4-0.5,0.7-0.7c0.2-0.2,0.5-0.5,0.7-0.8c0.2-0.3,0.3-0.6,0.3-1V5.3
		c0-0.4-0.1-0.8-0.3-1C92,4,91.7,3.8,91.5,3.6c-0.2-0.2-0.5-0.5-0.7-0.7c-0.2-0.2-0.3-0.5-0.3-0.8c0-0.3,0.1-0.6,0.4-0.9
		c0.2-0.2,0.5-0.3,0.8-0.3h5.7c0.7,0,1.2,0.3,1.6,0.9l7,12.1V5.3c0-0.4-0.1-0.7-0.3-1c-0.2-0.3-0.4-0.5-0.7-0.7
		c-0.2-0.2-0.5-0.5-0.7-0.7c-0.2-0.2-0.3-0.5-0.3-0.8c0-0.4,0.1-0.7,0.4-0.9c0.3-0.2,0.6-0.4,0.9-0.4h4.3c0.3,0,0.6,0.1,0.9,0.4
		c0.3,0.2,0.4,0.5,0.4,0.9c0,0.3-0.1,0.6-0.3,0.8c-0.2,0.2-0.4,0.5-0.7,0.7c-0.2,0.2-0.5,0.5-0.7,0.7c-0.2,0.3-0.3,0.6-0.3,1v16.3
		c0,0.4-0.1,0.7-0.4,0.9s-0.6,0.4-0.9,0.4h-2c-0.7,0-1.3-0.3-1.7-0.9L95.4,7v11.4c0,0.4,0.1,0.7,0.3,1c0.2,0.3,0.4,0.5,0.7,0.8
		c0.2,0.2,0.5,0.5,0.7,0.7c0.2,0.2,0.3,0.5,0.3,0.8c0,0.3-0.1,0.6-0.3,0.9c-0.2,0.2-0.5,0.3-0.9,0.3h-4.5c-0.3,0-0.6-0.1-0.8-0.3
		C90.6,22.3,90.5,22,90.5,21.7z"/>
	<path class="st0" d="M123.4,23.2c-1.9,0-3.6-0.3-5.1-1c-1.5-0.6-2.7-1.5-3.6-2.6c-1-1.1-1.7-2.3-2.2-3.6c-0.5-1.4-0.7-2.7-0.7-4.1
		c0-1.4,0.3-2.8,0.8-4.1c0.5-1.4,1.2-2.6,2.3-3.6c1-1.1,2.3-1.9,3.8-2.6c1.5-0.6,3.3-1,5.3-1c1.3,0,2.3,0.1,3.3,0.4
		c0.9,0.3,1.7,0.6,2.4,1c0.6,0.4,1.2,0.9,1.6,1.4c0.4,0.5,0.7,1,0.9,1.4c0.1,0.2,0.2,0.5,0.2,0.8c0,0.1,0,0.2,0,0.4
		c0,0.8-0.3,1.4-0.8,1.9c-0.5,0.5-1.1,0.8-1.8,0.8c-0.1,0-0.2,0-0.3,0c-0.1,0-0.2,0-0.3,0c-0.5-0.1-1-0.4-1.4-0.7s-0.7-0.8-1-1.3
		c-0.3-0.5-0.6-1-0.9-1.6c-0.3-0.5-0.6-1-0.9-1.5c-0.3-0.4-0.8-0.8-1.2-1c-0.5-0.2-1.1-0.3-1.8-0.2c-0.9,0.2-1.7,0.7-2.3,1.5
		c-0.6,0.9-1.1,1.9-1.4,3.1c-0.3,1.2-0.4,2.5-0.3,3.9c0.1,1.4,0.5,2.7,1.1,3.8c0.6,1.2,1.5,2.1,2.7,2.9c1.2,0.8,2.7,1.2,4.6,1.2
		c0.8,0,1.6-0.1,2.3-0.3c0.7-0.2,1.3-0.5,1.8-0.8c0.6-0.3,1.1-0.7,1.6-1.2c0.2-0.1,0.3-0.1,0.5,0s0.2,0.3,0.2,0.5
		c-0.5,1.1-1.1,2.1-2,3c-0.4,0.4-0.8,0.8-1.2,1.1c-0.5,0.4-1,0.7-1.6,1c-0.6,0.3-1.3,0.5-2,0.7C125,23.1,124.2,23.2,123.4,23.2z"/>
	<path class="st0" d="M133.9,21.7c0-0.3,0.1-0.6,0.3-0.8c0.2-0.2,0.4-0.5,0.7-0.7c0.2-0.2,0.5-0.5,0.7-0.8c0.2-0.3,0.3-0.6,0.3-1
		V5.3c0-0.3-0.1-0.6-0.3-0.9c-0.2-0.3-0.4-0.5-0.7-0.8c-0.2-0.2-0.5-0.5-0.7-0.8c-0.2-0.3-0.3-0.6-0.3-0.9c0-0.3,0.1-0.6,0.3-0.9
		c0.2-0.2,0.5-0.3,0.8-0.3l15.4,0c0.3,0,0.6,0.1,0.7,0.3c0.2,0.2,0.3,0.4,0.3,0.8V6c0,0.2,0,0.4,0,0.7c0,0.2-0.1,0.5-0.1,0.7
		c-0.1,0.2-0.2,0.4-0.4,0.5c-0.2,0.1-0.4,0.2-0.7,0.2c-0.3,0-0.6-0.1-0.8-0.3c-0.2-0.2-0.4-0.5-0.5-0.9c-0.2-0.4-0.3-0.7-0.5-1.1
		c-0.2-0.4-0.4-0.8-0.6-1.1c-0.3-0.4-0.6-0.6-1-0.9c-0.4-0.2-0.9-0.3-1.6-0.3h-1.6c-0.5,0-0.9,0.1-1.3,0.4c-0.4,0.3-0.6,0.7-0.6,1.1
		v2.9c0,0.8,0,1.8,0,2.8h3.9c0.5,0,0.8-0.1,1.1-0.3c0.3-0.2,0.5-0.4,0.7-0.7c0.2-0.2,0.4-0.5,0.6-0.7c0.2-0.2,0.4-0.3,0.6-0.3
		c0.3,0,0.5,0.1,0.6,0.3c0.1,0.2,0.2,0.4,0.2,0.6v4.1c0,0.2-0.1,0.4-0.2,0.6c-0.1,0.2-0.3,0.3-0.6,0.3c-0.2,0-0.4-0.1-0.6-0.3
		c-0.2-0.2-0.4-0.4-0.5-0.7c-0.2-0.2-0.4-0.5-0.7-0.7c-0.3-0.2-0.7-0.3-1.1-0.3h-3.9v2.9v2c0,0.3,0,0.6,0,0.9c0.1,0.6,0.3,1,0.7,1.3
		c0.4,0.3,0.8,0.5,1.2,0.5h1.9c0.7,0,1.2-0.1,1.7-0.3c0.4-0.2,0.8-0.5,1.1-0.9c0.3-0.3,0.6-0.7,0.8-1.1c0.2-0.4,0.4-0.8,0.6-1.1
		c0.2-0.3,0.4-0.6,0.6-0.9c0.2-0.2,0.5-0.3,0.9-0.3c0.3,0,0.5,0.1,0.7,0.2c0.1,0.1,0.2,0.3,0.3,0.5c0,0.2,0.1,0.4,0,0.7
		c0,0.2,0,0.5-0.1,0.6l-0.6,4.1c0,0.3-0.2,0.5-0.4,0.7c-0.2,0.2-0.5,0.3-0.8,0.3H135c-0.3,0-0.6-0.1-0.8-0.3
		C134,22.3,133.9,22,133.9,21.7z"/>
	<path class="st0" d="M153.8,18.7c-0.1-0.2-0.2-0.4-0.2-0.7c0-0.1,0-0.2,0-0.2c0-0.1,0-0.1,0-0.2c0-0.4,0.1-0.7,0.2-1.1
		c0.1-0.3,0.3-0.6,0.6-0.9c0.2-0.2,0.5-0.4,0.9-0.6c0.3-0.1,0.7-0.2,1.1-0.2h0.1c0.8,0,1.5,0.2,1.9,0.5c0.5,0.3,0.9,0.7,1.2,1.2
		c0.3,0.5,0.6,1,0.8,1.5c0.2,0.5,0.5,1,0.8,1.5c0.3,0.5,0.7,0.9,1.2,1.2c0.5,0.3,1.2,0.5,2,0.5c0.8,0,1.4-0.2,2-0.5
		c0.6-0.3,0.8-0.9,0.8-1.7c0-0.8-0.3-1.5-1-2.1c-0.6-0.6-1.4-1.1-2.4-1.7c-1-0.5-2-1-3.1-1.5s-2.1-1.1-3.1-1.7
		c-1-0.6-1.8-1.4-2.4-2.3c-0.6-0.9-1-1.9-1-3.2c0-1,0.2-1.8,0.6-2.5c0.4-0.7,1-1.3,1.7-1.8c0.7-0.5,1.6-0.9,2.6-1.1
		c1-0.2,2-0.4,3.2-0.4c1.3,0,2.4,0.1,3.4,0.3c1,0.2,1.8,0.4,2.5,0.7c0.7,0.3,1.3,0.6,1.7,1c0.5,0.4,0.8,0.7,1.1,1.1
		c0.1,0.2,0.3,0.4,0.4,0.6c0.1,0.2,0.2,0.4,0.2,0.7c0,0.1,0,0.1,0,0.2c0,0.1,0,0.1,0,0.1c0,0.3-0.1,0.7-0.2,1
		c-0.1,0.3-0.3,0.6-0.6,0.8c-0.2,0.2-0.5,0.4-0.9,0.5c-0.3,0.1-0.7,0.2-1,0.2c-0.7,0-1.2-0.1-1.6-0.4c-0.4-0.3-0.7-0.6-1-1
		c-0.3-0.4-0.5-0.8-0.7-1.3c-0.2-0.5-0.5-0.9-0.8-1.3c-0.3-0.4-0.7-0.7-1.1-1c-0.4-0.3-1-0.4-1.7-0.4c-0.5,0-1,0.2-1.4,0.5
		c-0.4,0.3-0.7,0.9-0.7,1.6c0,0.8,0.3,1.5,0.9,2c0.6,0.5,1.4,1,2.4,1.4c0.9,0.4,2,0.9,3.1,1.3c1.1,0.4,2.1,0.9,3.1,1.5
		c0.9,0.6,1.7,1.4,2.4,2.3c0.6,0.9,0.9,2.1,0.9,3.4c0,0.9-0.2,1.8-0.6,2.6c-0.4,0.8-1,1.5-1.8,2c-0.8,0.6-1.7,1-2.9,1.3
		c-1.1,0.3-2.4,0.5-3.8,0.5c-1.5,0-2.9-0.1-4-0.4c-1.1-0.3-2.1-0.6-2.9-1c-0.8-0.4-1.4-0.9-1.9-1.4C154.4,19.6,154,19.1,153.8,18.7z
		"/>
	<path class="st0" d="M26.6,46.6c0-0.3,0.1-0.6,0.3-0.8c0.2-0.2,0.4-0.5,0.7-0.7c0.2-0.2,0.5-0.5,0.7-0.8c0.2-0.3,0.3-0.6,0.3-1
		V30.3c0-0.3-0.1-0.6-0.3-0.9c-0.2-0.3-0.4-0.5-0.7-0.8c-0.2-0.2-0.5-0.5-0.7-0.8c-0.2-0.3-0.3-0.6-0.3-0.9c0-0.3,0.1-0.6,0.3-0.9
		c0.2-0.2,0.5-0.3,0.9-0.3l8.6,0c1.7,0,3.2,0.3,4.6,1c1.3,0.6,2.4,1.5,3.3,2.5c0.9,1,1.5,2.2,1.9,3.5c0.4,1.3,0.6,2.7,0.6,4.1
		c0,1.4-0.2,2.7-0.6,4.1c-0.4,1.3-1.1,2.5-2,3.5c-0.9,1-2,1.9-3.3,2.5c-1.3,0.6-2.8,0.9-4.6,0.9h-8.6c-0.3,0-0.6-0.1-0.9-0.3
		C26.7,47.3,26.6,47,26.6,46.6z M34.4,44.7c0,0.2,0.1,0.4,0.2,0.5c0.1,0.1,0.3,0.2,0.5,0.2l1.5,0c0.8,0,1.5-0.4,2-1.3
		c0.5-0.8,0.9-1.9,1.2-3.2c0.3-1.3,0.4-2.6,0.4-4.1c0-1.5-0.1-2.8-0.4-4.1c-0.3-1.3-0.6-2.3-1.2-3.2c-0.5-0.8-1.2-1.3-2-1.3h-1.5
		c-0.3,0-0.5,0.1-0.6,0.3c-0.2,0.2-0.3,0.4-0.3,0.6v1.5l0,0V44.7z"/>
	<path class="st0" d="M48.2,46.6c0-0.3,0.1-0.6,0.3-0.8c0.2-0.2,0.4-0.5,0.7-0.7c0.2-0.2,0.5-0.5,0.7-0.8c0.2-0.3,0.3-0.6,0.3-1
		V30.3c0-0.3-0.1-0.6-0.3-0.9c-0.2-0.3-0.4-0.5-0.7-0.8c-0.2-0.2-0.5-0.5-0.7-0.8c-0.2-0.3-0.3-0.6-0.3-0.9c0-0.3,0.1-0.6,0.3-0.9
		c0.2-0.2,0.5-0.3,0.8-0.3l15.4,0c0.3,0,0.6,0.1,0.7,0.3c0.2,0.2,0.3,0.4,0.3,0.8v4.1c0,0.2,0,0.4,0,0.7c0,0.2-0.1,0.5-0.1,0.7
		c-0.1,0.2-0.2,0.4-0.4,0.5c-0.2,0.1-0.4,0.2-0.7,0.2c-0.3,0-0.6-0.1-0.8-0.3c-0.2-0.2-0.4-0.5-0.5-0.9c-0.2-0.4-0.3-0.7-0.5-1.1
		c-0.2-0.4-0.4-0.8-0.6-1.1s-0.6-0.6-1-0.9c-0.4-0.2-0.9-0.3-1.6-0.3h-1.6c-0.5,0-0.9,0.1-1.3,0.4C56.2,29,56,29.4,56,29.8v2.9
		c0,0.8,0,1.8,0,2.8h3.9c0.5,0,0.8-0.1,1.1-0.3c0.3-0.2,0.5-0.4,0.7-0.7c0.2-0.2,0.4-0.5,0.6-0.7c0.2-0.2,0.4-0.3,0.6-0.3
		c0.3,0,0.5,0.1,0.6,0.3c0.1,0.2,0.2,0.4,0.2,0.6v4.1c0,0.2-0.1,0.4-0.2,0.6c-0.1,0.2-0.3,0.3-0.6,0.3c-0.2,0-0.4-0.1-0.6-0.3
		c-0.2-0.2-0.4-0.4-0.5-0.7c-0.2-0.2-0.4-0.5-0.7-0.7c-0.3-0.2-0.7-0.3-1.1-0.3H56v2.9v2c0,0.3,0,0.6,0,0.9c0.1,0.6,0.3,1,0.7,1.3
		c0.4,0.3,0.8,0.5,1.2,0.5h1.9c0.7,0,1.2-0.1,1.7-0.3c0.4-0.2,0.8-0.5,1.1-0.9c0.3-0.3,0.6-0.7,0.8-1.1c0.2-0.4,0.4-0.8,0.6-1.1
		c0.2-0.3,0.4-0.6,0.6-0.9c0.2-0.2,0.5-0.3,0.9-0.3c0.3,0,0.5,0.1,0.7,0.2c0.1,0.1,0.2,0.3,0.3,0.5c0,0.2,0.1,0.4,0,0.7
		c0,0.2,0,0.5-0.1,0.6l-0.6,4.1c0,0.3-0.2,0.5-0.4,0.7c-0.2,0.2-0.5,0.3-0.8,0.3H49.3c-0.3,0-0.6-0.1-0.8-0.3
		C48.3,47.3,48.2,47,48.2,46.6z"/>
	<path class="st0" d="M73.2,46.6c0-0.3,0.1-0.6,0.3-0.8c0.2-0.2,0.4-0.5,0.7-0.7c0.2-0.2,0.5-0.5,0.7-0.8c0.2-0.3,0.3-0.6,0.3-1
		V30.3c0-0.3-0.1-0.6-0.3-0.9c-0.2-0.3-0.4-0.5-0.7-0.8c-0.2-0.2-0.5-0.5-0.7-0.8c-0.2-0.3-0.3-0.6-0.3-0.9c0-0.3,0.1-0.6,0.4-0.9
		c0.2-0.2,0.5-0.3,0.8-0.3l8.6,0c3.1,0,5.4,0.5,7.1,1.6c1.7,1,2.5,2.5,2.5,4.5c0,1.2-0.2,2.3-0.6,3.1c-0.4,0.9-1,1.6-1.7,2.2
		c-0.7,0.6-1.5,1-2.3,1.4c-0.9,0.3-1.7,0.6-2.6,0.7c-0.9,0.2-1.7,0.3-2.4,0.3c-0.8,0-1.4,0.1-1.9,0v3.8c0,0.5,0.1,0.9,0.3,1.2
		c0.2,0.3,0.4,0.5,0.7,0.7c0.2,0.2,0.5,0.4,0.7,0.6c0.2,0.2,0.3,0.4,0.3,0.7c0,0.3-0.1,0.6-0.4,0.9c-0.2,0.2-0.5,0.3-0.8,0.3h-7.4
		c-0.3,0-0.6-0.1-0.8-0.3C73.4,47.3,73.2,47,73.2,46.6z M81.1,37.7c0.5,0,1-0.1,1.6-0.2c0.6-0.1,1.2-0.4,1.7-0.7
		c0.6-0.3,1-0.8,1.4-1.4c0.4-0.6,0.6-1.4,0.6-2.5c0-1.4-0.2-2.4-0.7-3.3c-0.5-0.8-1.2-1.3-2.3-1.3h-1.3c-0.2,0.2-0.5,0.5-0.7,0.7
		c-0.2,0.3-0.3,0.7-0.4,1.1v0.5v0V37.7z"/>
	<path class="st0" d="M95.7,41.3c-0.3,0.9-0.4,1.6-0.3,2.1s0.2,1,0.4,1.4c0.2,0.4,0.4,0.7,0.6,1c0.2,0.3,0.3,0.6,0.3,0.9
		c0,0.3-0.1,0.6-0.4,0.9c-0.2,0.2-0.5,0.3-0.8,0.3h-4.5c-0.3,0-0.6-0.1-0.9-0.3c-0.2-0.2-0.3-0.5-0.3-0.9c0-0.3,0.1-0.6,0.3-0.8
		c0.2-0.2,0.5-0.5,0.8-0.7s0.6-0.6,0.9-1c0.3-0.4,0.5-0.9,0.7-1.6l3.6-12.4c0.1-0.5,0.1-0.8,0-1.1c-0.1-0.3-0.2-0.5-0.4-0.8
		c-0.2-0.2-0.3-0.4-0.5-0.6c-0.2-0.2-0.3-0.4-0.3-0.7c0-0.3,0.1-0.6,0.3-0.9c0.2-0.2,0.5-0.3,0.9-0.3h7.6c0.3,0,0.6,0.1,0.8,0.2
		c0.2,0.2,0.4,0.4,0.5,0.7l4.4,14.8c0.2,0.7,0.4,1.3,0.8,1.8c0.3,0.5,0.6,0.8,0.9,1.2c0.3,0.3,0.6,0.7,0.8,1
		c0.2,0.3,0.3,0.7,0.3,1.2c0,0.3-0.1,0.6-0.3,0.8c-0.2,0.2-0.4,0.3-0.7,0.4v0h-7.6c-0.3,0-0.6-0.1-0.9-0.3c-0.2-0.2-0.3-0.5-0.3-0.9
		c0-0.4,0.1-0.8,0.2-1.1c0.2-0.3,0.3-0.6,0.4-0.9c0.1-0.3,0.2-0.7,0.3-1.1c0-0.4,0-0.9-0.2-1.6l-0.4-1.4h-6.7L95.7,41.3z M96.5,38.4
		h5.4l-2.7-9.1L96.5,38.4z"/>
	<path class="st0" d="M115.7,37.8l-4.1-7.5c-0.4-0.5-0.8-0.8-1.1-1.1c-0.3-0.3-0.6-0.5-0.9-0.7c-0.2-0.2-0.4-0.4-0.5-0.6
		c-0.1-0.2-0.1-0.5-0.1-0.9c0-0.3,0.2-0.6,0.5-0.8s0.6-0.3,0.9-0.3h6.7c0.3,0,0.6,0.1,0.7,0.3c0.2,0.2,0.3,0.5,0.3,0.8
		c0,0.3,0,0.7,0,1c0,0.4,0,0.7,0,1.1s0.1,0.8,0.2,1.2c0.1,0.4,0.3,0.9,0.6,1.5l1.4,2.6c0.2-0.4,0.4-0.8,0.6-1.2
		c0.2-0.4,0.3-0.8,0.5-1.2c0.1-0.4,0.2-0.7,0.3-1c0.1-0.3,0.2-0.5,0.2-0.7h0c0.2-0.3,0.2-0.6,0.2-0.9c0-0.3,0-0.5-0.1-0.7
		c-0.1-0.2-0.2-0.5-0.3-0.7c-0.1-0.2-0.2-0.5-0.3-0.9c-0.1-0.4,0-0.7,0.2-0.9c0.2-0.2,0.5-0.4,0.9-0.4h3.8c0.3,0,0.7,0.1,1,0.4
		c0.3,0.2,0.5,0.5,0.5,0.9c0,0.3,0,0.5-0.2,0.7c-0.2,0.2-0.5,0.4-0.8,0.6c-0.3,0.2-0.7,0.4-1,0.7c-0.4,0.3-0.7,0.6-0.9,1.1l-3.3,7.4
		h0v5.9c0,0.5,0.1,0.9,0.3,1.2c0.2,0.3,0.4,0.5,0.7,0.7c0.2,0.2,0.5,0.4,0.7,0.6c0.2,0.2,0.3,0.4,0.3,0.7c0,0.3-0.1,0.6-0.4,0.9
		c-0.3,0.2-0.6,0.4-1,0.4h-7.2c-0.3,0-0.6-0.1-0.9-0.3c-0.3-0.2-0.4-0.5-0.4-0.9c0-0.3,0.1-0.6,0.3-0.8c0.2-0.2,0.4-0.5,0.7-0.7
		c0.2-0.2,0.5-0.5,0.7-0.8c0.2-0.3,0.3-0.6,0.3-1V37.8z"/>
	<path class="st0" d="M127.9,43.6c-0.1-0.2-0.2-0.4-0.2-0.7c0-0.1,0-0.2,0-0.2c0-0.1,0-0.1,0-0.2c0-0.4,0.1-0.7,0.2-1.1
		c0.1-0.3,0.3-0.6,0.6-0.9c0.2-0.2,0.5-0.4,0.9-0.6c0.3-0.1,0.7-0.2,1.1-0.2h0.1c0.8,0,1.5,0.2,1.9,0.5c0.5,0.3,0.9,0.7,1.2,1.2
		c0.3,0.5,0.6,1,0.8,1.5c0.2,0.5,0.5,1,0.8,1.5c0.3,0.5,0.7,0.9,1.2,1.2c0.5,0.3,1.2,0.5,2,0.5c0.8,0,1.4-0.2,2-0.5
		c0.6-0.3,0.8-0.9,0.8-1.7c0-0.8-0.3-1.5-1-2.1c-0.6-0.6-1.4-1.1-2.4-1.7c-1-0.5-2-1-3.1-1.5c-1.1-0.5-2.1-1.1-3.1-1.7
		c-1-0.6-1.8-1.4-2.4-2.3c-0.6-0.9-1-1.9-1-3.2c0-1,0.2-1.8,0.6-2.5c0.4-0.7,1-1.3,1.7-1.8c0.7-0.5,1.6-0.9,2.6-1.1
		c1-0.2,2-0.4,3.2-0.4c1.3,0,2.4,0.1,3.4,0.3c1,0.2,1.8,0.4,2.5,0.7c0.7,0.3,1.3,0.6,1.7,1c0.5,0.4,0.8,0.7,1.1,1.1
		c0.1,0.2,0.3,0.4,0.4,0.6c0.1,0.2,0.2,0.4,0.2,0.7c0,0.1,0,0.1,0,0.2c0,0.1,0,0.1,0,0.1c0,0.3-0.1,0.7-0.2,1
		c-0.1,0.3-0.3,0.6-0.6,0.8c-0.2,0.2-0.5,0.4-0.9,0.5c-0.3,0.1-0.7,0.2-1,0.2c-0.7,0-1.2-0.1-1.6-0.4c-0.4-0.3-0.7-0.6-1-1
		c-0.3-0.4-0.5-0.8-0.7-1.3c-0.2-0.5-0.5-0.9-0.8-1.3c-0.3-0.4-0.7-0.7-1.1-1c-0.4-0.3-1-0.4-1.7-0.4c-0.5,0-1,0.2-1.4,0.5
		c-0.4,0.3-0.7,0.9-0.7,1.6c0,0.8,0.3,1.5,0.9,2c0.6,0.5,1.4,1,2.4,1.4c0.9,0.4,2,0.9,3.1,1.3c1.1,0.4,2.1,0.9,3.1,1.5
		c0.9,0.6,1.7,1.4,2.4,2.3c0.6,0.9,0.9,2.1,0.9,3.4c0,0.9-0.2,1.8-0.6,2.6c-0.4,0.8-1,1.5-1.8,2c-0.8,0.6-1.7,1-2.9,1.3
		c-1.1,0.3-2.4,0.5-3.8,0.5c-1.5,0-2.9-0.1-4-0.4c-1.1-0.3-2.1-0.6-2.9-1c-0.8-0.4-1.4-0.9-1.9-1.4
		C128.4,44.5,128.1,44.1,127.9,43.6z"/>
</g>
</svg>
