<svg xmlns="http://www.w3.org/2000/svg" viewBox="0 0 109.4 33.61"><defs><style>.cls-1{fill:#232823;}</style></defs><g id="Calque_2" data-name="Calque 2"><g id="Calque_1-2" data-name="Calque 1"><g id="logo_semeces" data-name="logo semeces"><path class="cls-1" d="M0,11.48a.75.75,0,0,1,.79-.83c1.49.06,1,3.68,5.15,3.68,2,0,3.32-1.15,3.32-2.79C9.26,6.37.39,10.28.39,4.05c0-2.31,1.87-4,5.17-4,3.53,0,5.38,2,5.38,3.38a.77.77,0,0,1-.85.83C8.53,4.21,9.32.81,5.5.81,3.4.81,2.28,2,2.28,3.61c0,4.84,8.89,1.23,8.89,7.5,0,2.49-2.41,4-5.32,4C1.79,15.13,0,12.75,0,11.48Z"/><path class="cls-1" d="M13.12,14.68v0c0-.4.77-.4.77-1.19V1.66c0-.79-.77-.81-.77-1.18V.42c0-.15.15-.23.37-.23H22.3c.33,0,.45.16.52.45l.49,2.06c.07.29,0,.41-.25.41H23C22.32,3.11,21.82,1,20.74,1h-4.4c-.38,0-.58.21-.58.7V7h3.78c.78,0,.76-1.23,1.2-1.23h.08c.17,0,.27.12.27.35V8.64c0,.2-.1.35-.27.35h-.08c-.44,0-.42-1.18-1.2-1.18H15.76l0,5.37c0,.48.24.9.76.9h4.88c1.1,0,1.46-2.14,2.18-2.14h.13c.18,0,.29.18.25.41l-.5,2.1a.5.5,0,0,1-.54.48H13.56C13.31,14.93,13.12,14.84,13.12,14.68Z"/><path class="cls-1" d="M42.54,14.64v0c0,.16-.17.25-.44.25H39.55c-.25,0-.42-.09-.42-.25v0c0-.4.85-.42.69-1.23L38,3.05,33.82,14.47c-.13.29-.25.44-.54.44a.57.57,0,0,1-.56-.42L28.5,2.8,26.72,13.41c-.15.79.79.83.79,1.23v0c0,.16-.17.25-.42.25H25.2c-.25,0-.41-.09-.41-.25v0c0-.4.68-.44.83-1.23l2-11.73C27.76,1,27,.93,27,.5v0c0-.17.12-.27.35-.27h1.37a.79.79,0,0,1,.81.54l4.05,11.73L37.7.71a.71.71,0,0,1,.75-.52h1.47c.17,0,.31.08.31.23V.48c0,.41-.87.48-.7,1.37l2.16,11.56C41.85,14.22,42.54,14.24,42.54,14.64Z"/><path class="cls-1" d="M44.16,14.68v0c0-.4.76-.4.76-1.19V1.66c0-.79-.76-.81-.76-1.18V.42c0-.15.14-.23.37-.23h8.8a.47.47,0,0,1,.52.45l.5,2.06c.06.29,0,.41-.25.41H54C53.35,3.11,52.85,1,51.77,1h-4.4c-.37,0-.58.21-.58.7V7h3.78c.79,0,.77-1.23,1.2-1.23h.09c.16,0,.27.12.27.35V8.64c0,.2-.11.35-.27.35h-.09c-.43,0-.41-1.18-1.2-1.18H46.79l0,5.37c0,.48.25.9.77.9h4.88c1.1,0,1.45-2.14,2.18-2.14h.12c.19,0,.29.18.25.41l-.5,2.1c-.06.31-.2.48-.54.48H44.59C44.34,14.93,44.16,14.84,44.16,14.68Z"/><path class="cls-1" d="M69.84.46v0c0,.37-.83.39-.83,1.14V14.37a.5.5,0,0,1-.52.56H68c-.21,0-.4-.13-.67-.54L58.44,2.3V13.41c0,.77.89.83.89,1.23v0c0,.16-.19.25-.44.25H57c-.27,0-.42-.09-.42-.25v0c0-.4.79-.46.79-1.23V1.66c0-.73-.79-.73-.79-1.12V.46c0-.17.15-.27.42-.27h1.57a.85.85,0,0,1,.75.41L68,12.52V1.64C68,.89,67.1.87,67.1.5v0c0-.17.16-.27.43-.27h1.89C69.67.19,69.84.29,69.84.46Z"/><path class="cls-1" d="M71.6,7.41C71.6,3.05,74.51,0,78.49,0c3.28,0,5.67,2.35,5.67,3.84a.83.83,0,0,1-.91.89C81.69,4.73,81.81.85,78,.85c-2.4,0-4.54,2.24-4.54,5.52,0,4.2,2.72,7.1,5.64,7.1A5.08,5.08,0,0,0,83.68,10c.25-.42.89-.33.77.27a5.76,5.76,0,0,1-5.85,4.83C74.94,15.13,71.6,11.52,71.6,7.41Z"/><path class="cls-1" d="M86.21,14.68v0c0-.4.77-.4.77-1.19V1.66c0-.79-.77-.81-.77-1.18V.42c0-.15.15-.23.38-.23h8.8a.47.47,0,0,1,.52.45l.5,2.06c.06.29,0,.41-.25.41h-.11C95.41,3.11,94.91,1,93.83,1h-4.4c-.37,0-.58.21-.58.7V7h3.78c.79,0,.77-1.23,1.2-1.23h.09c.16,0,.27.12.27.35V8.64c0,.2-.11.35-.27.35h-.09c-.43,0-.41-1.18-1.2-1.18H88.85l0,5.37c0,.48.25.9.77.9h4.88c1.1,0,1.45-2.14,2.18-2.14h.12c.19,0,.29.18.25.41l-.5,2.1a.5.5,0,0,1-.54.48H86.65C86.4,14.93,86.21,14.84,86.21,14.68Z"/><path class="cls-1" d="M98.13,11.48a.75.75,0,0,1,.79-.83c1.49.06,1,3.68,5.15,3.68,2,0,3.32-1.15,3.32-2.79,0-5.17-8.87-1.26-8.87-7.49,0-2.31,1.87-4,5.17-4,3.53,0,5.38,2,5.38,3.38a.77.77,0,0,1-.85.83c-1.56,0-.77-3.4-4.59-3.4-2.1,0-3.22,1.22-3.22,2.8,0,4.84,8.89,1.23,8.89,7.5,0,2.49-2.41,4-5.32,4C99.92,15.13,98.13,12.75,98.13,11.48Z"/><path class="cls-1" d="M.68,32.94v0c0-.4.76-.44.76-1.17V19.9c0-.75-.76-.77-.76-1.16v0c0-.16.18-.24.43-.24H5.66c4.59,0,8.39,2.9,8.39,7.24,0,4.69-3.37,7.5-7.64,7.5H1.11C.86,33.19.68,33.1.68,32.94Zm5.6-.6a5.63,5.63,0,0,0,5.84-6A6.81,6.81,0,0,0,5.33,19.3H3.87c-.33,0-.58.2-.58.66V31.19c0,.73.38,1.15,1,1.15Z"/><path class="cls-1" d="M16,32.94v0c0-.4.77-.4.77-1.19V19.92c0-.79-.77-.81-.77-1.18v-.07c0-.14.14-.22.37-.22h8.8c.34,0,.46.16.52.45l.5,2.06c.06.29,0,.41-.25.41h-.1c-.65,0-1.14-2.07-2.22-2.07h-4.4c-.38,0-.59.2-.59.7v5.21h3.78c.79,0,.77-1.22,1.21-1.22h.08c.17,0,.27.12.27.35V26.9c0,.2-.1.35-.27.35h-.08c-.44,0-.42-1.18-1.21-1.18H18.63l0,5.37c0,.48.25.9.77.9h4.88c1.1,0,1.45-2.14,2.18-2.14h.13c.18,0,.29.18.24.41l-.49,2.1c-.07.31-.21.48-.54.48H16.43C16.18,33.19,16,33.1,16,32.94Z"/><path class="cls-1" d="M61.57,33.14v0c0-.36.77-.4.77-1.15V20.12c0-.68-.77-.77-.77-1.14v-.06c0-.17.17-.25.44-.25h3.86c3.47,0,6.54,1.35,6.54,4.79,0,3.18-2.26,4.94-6.06,4.94H64.21V32c0,.75.81.79.81,1.15v0c0,.16-.17.27-.42.27H62C61.74,33.41,61.57,33.3,61.57,33.14Zm4.78-5.59c2.53,0,4.13-1.35,4.13-3.63,0-3-2.22-4.4-4.61-4.4H64.75c-.38,0-.54.23-.54.66v6.63a.67.67,0,0,0,.75.74Z"/><path class="cls-1" d="M85.76,33.12v0c0,.16-.15.25-.4.25H82.44c-.25,0-.4-.09-.4-.25v0c0-.4,1-.44.71-1.17l-1-2.45H75L74.11,32c-.29.73.71.77.71,1.17v0c0,.16-.17.25-.44.25h-2c-.27,0-.42-.09-.42-.25v0c0-.4.69-.38,1-1.17l4.61-11.77c.25-.62-.65-.89-.65-1.22V18.9c0-.13.09-.23.29-.23h1.21a.91.91,0,0,1,1,.68L84.76,32C85.09,32.72,85.76,32.72,85.76,33.12ZM81.4,28.61l-3.12-7.7-2.9,7.7Z"/><path class="cls-1" d="M97.65,18.9V19c0,.39-.62.33-1.1,1.16l-4.48,7.33V32c0,.75.79.77.79,1.17v0c0,.16-.15.25-.4.25H89.85c-.27,0-.42-.09-.42-.25v0c0-.4.75-.42.75-1.17V27.57l-4.82-7.45c-.45-.73-1.14-.77-1.14-1.16v0c0-.17.17-.25.42-.25h3c.27,0,.41.08.41.25v0c0,.39-1,.48-.64,1.16l4,6.66,4.05-6.66c.43-.75-.71-.77-.71-1.16v0c0-.17.12-.25.37-.25h2C97.51,18.67,97.65,18.75,97.65,18.9Z"/><path class="cls-1" d="M98.23,30a.75.75,0,0,1,.79-.83c1.5.06,1,3.68,5.15,3.68,2,0,3.32-1.15,3.32-2.79,0-5.17-8.86-1.26-8.86-7.49,0-2.31,1.87-4.05,5.17-4.05,3.53,0,5.37,1.95,5.37,3.38a.77.77,0,0,1-.85.83c-1.55,0-.77-3.4-4.59-3.4-2.09,0-3.21,1.22-3.21,2.8,0,4.84,8.88,1.23,8.88,7.5,0,2.49-2.41,4-5.31,4C100,33.61,98.23,31.23,98.23,30Z"/><rect class="cls-1" x="32.93" y="25.15" width="21.61" height="0.86"/></g></g></g></svg>