<svg xmlns="http://www.w3.org/2000/svg" viewBox="0 0 123.03 123.03"><defs><style>.cls-1{fill:#44ff49;}.cls-2{font-size:23.66px;font-family:BiancaRegular, Bianca Regular;}</style></defs><g id="Calque_2" data-name="Calque 2"><g id="Calque_1-2" data-name="Calque 1"><circle class="cls-1" cx="61.52" cy="61.52" r="61.5"/><path d="M59.23,71.16A18.27,18.27,0,1,1,80.8,57.88,18.1,18.1,0,0,1,59.23,71.16ZM70.47,58.78a17.48,17.48,0,0,0,2.07-7.68,18.35,18.35,0,0,0-1.86-8.5,17.12,17.12,0,0,0-3-4.5.6.6,0,0,0-.77-.17,20.73,20.73,0,0,0-7.84,5.47,15.18,15.18,0,0,0-3.85,8.94A20.06,20.06,0,0,0,56,59.28l.45,1.54-.07,0c-.39-.49-.81-.95-1.16-1.46a16.22,16.22,0,0,1-2.84-9.94c0-.4.07-.8.06-1.2a1.77,1.77,0,0,0-.22-.56,2.42,2.42,0,0,0-.5.27.85.85,0,0,0-.21.3,15.93,15.93,0,0,0-2.42,8.59,12.44,12.44,0,0,0,4.69,10.06,15,15,0,0,0,8.45,3.2A11.49,11.49,0,0,0,73,65a15.93,15.93,0,0,0,2.82-8,18,18,0,0,0-1.15-8.22,2.46,2.46,0,0,0-.19-.4c-.05-.07-.17-.16-.23-.14s-.13.14-.15.23a2.82,2.82,0,0,0,0,.41c0,.66-.07,1.32-.15,2a13,13,0,0,1-.89,3.23A18.66,18.66,0,0,1,70.47,58.78Z"/><path d="M50.09,74.32a7.58,7.58,0,0,1,1.46.48,3.44,3.44,0,0,1,1.05.73,2.12,2.12,0,0,1,.54,1,2.88,2.88,0,0,1,0,1.36,2.39,2.39,0,0,1-.71,1.29,3,3,0,0,1-1.38.64,2.81,2.81,0,0,1,1.34,1.39,3.05,3.05,0,0,1,.11,1.88,3,3,0,0,1-.68,1.36,2.87,2.87,0,0,1-1.13.78,4.18,4.18,0,0,1-1.43.27,6.16,6.16,0,0,1-1.54-.17L42.14,84l2.58-11Zm-1.36,4.37a1.94,1.94,0,0,0,1.18,0,1.17,1.17,0,0,0,.66-.9,1.24,1.24,0,0,0,0-.66,1.09,1.09,0,0,0-.3-.48,1.65,1.65,0,0,0-.5-.32,5.34,5.34,0,0,0-.64-.21l-2.35-.55-.6,2.57Zm-.95,4.7a3.73,3.73,0,0,0,.72.09,1.71,1.71,0,0,0,.65-.09,1.18,1.18,0,0,0,.51-.34,1.49,1.49,0,0,0,.32-.68,1.45,1.45,0,0,0-.21-1.32,2.29,2.29,0,0,0-1.23-.67l-2.74-.64-.7,3Z"/><path d="M58.49,76.29l-2.57,11-2.51-.59L56,75.7Z"/><path d="M59.83,80a5.63,5.63,0,0,1,1.53-1.58,5.28,5.28,0,0,1,2.06-.82,6.27,6.27,0,0,1,2.46.11,6.2,6.2,0,0,1,2.27,1,5.24,5.24,0,0,1,1.47,1.65,5.64,5.64,0,0,1,.67,2.09,6.91,6.91,0,0,1-.15,2.38A6.68,6.68,0,0,1,69.23,87a5.51,5.51,0,0,1-1.53,1.55,5.21,5.21,0,0,1-2,.79,6.33,6.33,0,0,1-2.47-.11,6.23,6.23,0,0,1-2.26-1,5.06,5.06,0,0,1-1.48-1.62,5.33,5.33,0,0,1-.68-2.06,6.38,6.38,0,0,1,.14-2.33A6.78,6.78,0,0,1,59.83,80Zm1.44,4.17a3.72,3.72,0,0,0,.26,1.3,2.87,2.87,0,0,0,.77,1.07,3.09,3.09,0,0,0,1.36.65,3.14,3.14,0,0,0,1.52,0,2.84,2.84,0,0,0,1.15-.61,3.51,3.51,0,0,0,.81-1,5.43,5.43,0,0,0,.49-1.31,6.42,6.42,0,0,0,.16-1.44,3.62,3.62,0,0,0-.26-1.33,2.67,2.67,0,0,0-.76-1.07,3.09,3.09,0,0,0-1.36-.66,3.14,3.14,0,0,0-1.52,0,2.9,2.9,0,0,0-1.16.62,3.83,3.83,0,0,0-.81,1.08,5.74,5.74,0,0,0-.5,1.37A5.41,5.41,0,0,0,61.27,84.2Z"/><text class="cls-2" transform="translate(26.8 48.43) rotate(-63.88)">p</text><text class="cls-2" transform="matrix(0.6, -0.8, 0.8, 0.6, 29.79, 42.31)">r</text><text class="cls-2" transform="translate(33.83 36.86) rotate(-42.89)">o</text><text class="cls-2" transform="matrix(0.84, -0.54, 0.54, 0.84, 38.79, 32.23)">c</text><text class="cls-2" transform="matrix(0.93, -0.38, 0.38, 0.93, 44.54, 28.58)">h</text><text class="cls-2" transform="translate(50.61 26.15) rotate(-12.65)">e</text><text class="cls-2" transform="translate(56.36 24.97) rotate(-6.47)"> </text><text class="cls-2" transform="matrix(1, 0.01, -0.01, 1, 58.32, 24.6)">d</text><text class="cls-2" transform="translate(65.16 24.7) rotate(10)">e</text><text class="cls-2" transform="matrix(0.96, 0.28, -0.28, 0.96, 70.94, 25.83)"> </text><text class="cls-2" transform="translate(72.94 26.32) rotate(22.38)">l</text><text class="cls-2" transform="matrix(0.84, 0.54, -0.54, 0.84, 78.16, 28.37)">a</text><text class="cls-2" transform="matrix(0.77, 0.64, -0.64, 0.77, 84.54, 32.67)"> </text><text class="cls-2" transform="translate(86.17 33.84) rotate(47.02)">n</text><text class="cls-2" transform="translate(90.85 38.8) rotate(58.02)">a</text><text class="cls-2" transform="translate(93.72 43.05) rotate(66.15)">t</text><text class="cls-2" transform="matrix(0.26, 0.96, -0.96, 0.26, 96.24, 48.5)">u</text><text class="cls-2" transform="translate(98.04 55.05) rotate(85.29)">r</text><text class="cls-2" transform="matrix(-0.08, 1, -1, -0.08, 98.56, 61.85)">e</text><text class="cls-2" transform="matrix(-0.26, 0.97, -0.97, -0.26, 97.81, 68.86)">-</text><text class="cls-2" transform="translate(96.42 74.17) rotate(115.2)">p</text><text class="cls-2" transform="matrix(-0.58, 0.81, -0.81, -0.58, 93.54, 80.31)">r</text><text class="cls-2" transform="translate(89.59 85.83) rotate(136.17)">o</text><text class="cls-2" transform="matrix(-0.84, 0.55, -0.55, -0.84, 84.68, 90.56)">c</text><text class="cls-2" transform="translate(79.02 94.28) rotate(156.9)">h</text><text class="cls-2" transform="matrix(-0.97, 0.23, -0.23, -0.97, 72.98, 96.82)">e</text><text class="cls-2" transform="matrix(-0.99, 0.13, -0.13, -0.99, 67.26, 98.09)"> </text><text class="cls-2" transform="translate(65.29 98.49) rotate(179.54)">d</text><text class="cls-2" transform="translate(58.43 98.5) rotate(-170.9)">e</text><text class="cls-2" transform="translate(52.66 97.47) rotate(-164.74)"> </text><text class="cls-2" transform="matrix(-0.93, -0.37, 0.37, -0.93, 50.64, 97.01)">l</text><text class="cls-2" transform="matrix(-0.85, -0.52, 0.52, -0.85, 45.39, 95.05)">a</text><text class="cls-2" transform="translate(38.96 90.86) rotate(-140.89)"> </text><text class="cls-2" transform="matrix(-0.69, -0.72, 0.72, -0.69, 37.31, 89.71)">n</text><text class="cls-2" transform="translate(32.55 84.83) rotate(-122.93)">a</text><text class="cls-2" transform="translate(29.61 80.64) rotate(-114.81)">t</text><text class="cls-2" transform="matrix(-0.28, -0.96, 0.96, -0.28, 26.99, 75.21)">u</text><text class="cls-2" transform="translate(25.08 68.7) rotate(-95.66)">r</text><text class="cls-2" transform="translate(24.45 61.9) rotate(-86.1)">e</text><text class="cls-2" transform="translate(25.09 54.88) rotate(-76.03)">-</text></g></g></svg>