<svg xmlns="http://www.w3.org/2000/svg" viewBox="0 0 314.54 198.4"><defs><style>.cls-1{fill:#ff1fb3;}</style></defs><g id="Calque_2" data-name="Calque 2"><g id="header"><path class="cls-1" d="M20.2,46.9C8.4,46.9.82,40.65,0,30.62H12.06c.12,4.29,3,7,7.89,7,4.1,0,6.82-1.58,6.82-4.42,0-2-2-3.4-4.61-3.91l-8.27-1.58C6.63,26.32,1.83,22.09,1.83,14.77,1.83,6.31,9.28.38,19.44.38c10.8,0,18.56,6.18,19.26,16H26.64c-.32-4.1-3.09-6.75-7.07-6.75C16,9.6,13.89,11.49,13.89,14c0,2,2,3.22,4.42,3.66l8.77,1.71c8.08,1.57,12.37,5.55,12.37,12.12C39.45,40.78,32,46.9,20.2,46.9Z"/><path class="cls-1" d="M77.64,46.27H45.57V1H77.2V11.3H57.5v6.5H75.37V28.15H57.5v7.77H77.64Z"/><path class="cls-1" d="M95.25,20.14V46.27H84.46V1H98.53L110,31.69,121.32,1H135.4V46.27H124.61V19.82l-9.79,26.45H105Z"/><path class="cls-1" d="M176.3,46.27H144.23V1h31.63V11.3h-19.7v6.5H174V28.15H156.16v7.77H176.3Z"/><path class="cls-1" d="M194,18V46.27H183.12V1h12.81l16.73,26.19V1h10.92V46.27H212.09Z"/><path class="cls-1" d="M229.76,23.55c0-13.26,10.17-23.55,23-23.55,12.44,0,22,8.27,23.49,20.26H263.66c-1-5.68-5.18-9.59-10.73-9.59-6.69,0-10.92,5.17-10.92,12.88s4.23,13,10.92,13c5.49,0,9.72-3.91,10.73-9.66h12.63C274.77,39,265.24,47.22,252.8,47.22,239.93,47.22,229.76,36.87,229.76,23.55Z"/><path class="cls-1" d="M314.54,46.27H282.47V1H314.1V11.3H294.4v6.5h17.87V28.15H294.4v7.77h20.14Z"/><path class="cls-1" d="M3.16,122V76.69H20.83c14.33,0,23.36,9.22,23.36,22.41S34.85,122,20.83,122Zm11.93-10.29h5.05c7.89,0,11.8-4.1,11.8-12.63,0-8-4-12.12-11.8-12.12H15.09Z"/><path class="cls-1" d="M82.44,122H50.37V76.69H82V87.05H62.3v6.5H80.17V103.9H62.3v7.77H82.44Z"/><path class="cls-1" d="M15.09,183.94v13.83H3.16V152.44H20.83c11.87,0,19,5.3,19,15.47s-7.13,16-19,16Zm0-21.46V173.9h5.68c4.73,0,7.19-2.39,7.19-5.87s-2.46-5.55-7.19-5.55Z"/><path class="cls-1" d="M69.5,189.37H53.59l-2.84,8.4H38.69l16.79-45.33H68.55l16.6,45.33H72.28ZM56.81,180h9.6l-4.74-14.39Z"/><path class="cls-1" d="M107.88,197.77H96V180.72L80.1,152.44H93l9.34,17.36,9.53-17.36h12l-16,28.28Z"/><path class="cls-1" d="M143.35,198.4c-11.8,0-19.38-6.25-20.2-16.29h12.06c.12,4.29,3,7,7.89,7,4.1,0,6.82-1.58,6.82-4.42,0-2-2-3.41-4.61-3.91L137,179.21c-7.26-1.39-12.06-5.62-12.06-12.94,0-8.46,7.45-14.4,17.61-14.4,10.8,0,18.56,6.19,19.26,16H149.79c-.32-4.1-3.09-6.75-7.07-6.75-3.54,0-5.68,1.89-5.68,4.36,0,2,2,3.22,4.42,3.66l8.77,1.7c8.08,1.58,12.37,5.56,12.37,12.12C162.6,192.27,155.16,198.4,143.35,198.4Z"/></g></g></svg>