<svg id="Groupe_2" data-name="Groupe 2" xmlns="http://www.w3.org/2000/svg" xmlns:xlink="http://www.w3.org/1999/xlink" width="111.864" height="36.964" viewBox="0 0 111.864 36.964">
  <defs>
    <clipPath id="clip-path">
      <rect id="Rectangle_7" data-name="Rectangle 7" width="111.864" height="36.964" fill="none"/>
    </clipPath>
  </defs>
  <g id="Groupe_1" data-name="Groupe 1" clip-path="url(#clip-path)">
    <path id="Tracé_1" data-name="Tracé 1" d="M.435,4.372c0-1.919,1.844-4.3,5.425-4.3A15.363,15.363,0,0,1,8.648.589c.259,0,.517-.259.905-.259.628,0,2.03,1.421,2.03,2.972a1.166,1.166,0,0,1-1.088,1.254c-1.237,0-1.956-2.1-3.877-2.1-.573,0-1.182.259-1.182.923,0,1.458,2.53,1.071,4.671,2.492a3.4,3.4,0,0,1,1.716,3.064c0,2.159-1.772,4.6-6.073,4.6A11.187,11.187,0,0,1,1.4,12.642c-.888-.5-1.311-2.455-1.311-3.4,0-.5.222-1,.774-1,1.311,0,1.088,2.934,4.485,2.934.406,0,1.422-.2,1.422-.905,0-1.328-2.529-1-4.577-2.64A4.233,4.233,0,0,1,.435,4.372" transform="translate(0.045 0.039)" fill="#11160e"/>
    <path id="Tracé_2" data-name="Tracé 2" d="M15.759.369A9.505,9.505,0,0,0,18.879,0c1.053,0,1.495,1.81,1.495,2.621,0,.608-.239,1.328-.959,1.328-1.458,0-.277-1.772-3.785-1.772-2.049,0-1.845.369-1.845,2.492,0,1.071.055,1.108,1.181,1.108,1.4,0,.351-2.049,1.661-2.049,1.073,0,1.147,2.086,1.147,2.806,0,.756-.129,2.972-1.237,2.972-1.145,0,0-1.938-1.864-1.938-.776,0-.757.7-.757,1.291,0,2.7.185,2.566,2.122,2.566,3.785,0,2.714-2.6,4.228-2.6.591,0,.885.665.885,1.182,0,1.254-1,3.506-1.735,3.506-.129,0-.425-.055-.813-.111-.406-.037-.923-.092-1.55-.092H9.464c-1.217,0-1.237-.553-1.237-.793,0-1.017,1.256-.2,1.385-2.161a33.353,33.353,0,0,0,.055-6.367C9.538,1.164,8.136,2.621,8.136,1.31c0-1.125,1.551-.94,2.307-.94Z" transform="translate(4.387 0)" fill="#11160e"/>
    <path id="Tracé_3" data-name="Tracé 3" d="M21.721,8.064c-.109-.24-.314-.794-.646-.794-.571,0-.388,2.436-.388,3.046,0,1.975,1.182,1.051,1.182,2.049,0,1.054-1.975,1.09-2.7,1.09-.645,0-2.326-.055-2.326-1.014,0-1.053,1.108-.185,1.254-1.7A55.92,55.92,0,0,0,18.418,4.8a4.952,4.952,0,0,0-.277-2.1C17.956,2.3,16.9,2.175,16.9,1.419,16.9.367,18.62.108,20.1.108c2.161,0,2.124.368,2.678,1.311.646,1.088,1.79,4.114,2.6,4.3.573.129,1.328-2.106,1.993-3.323.942-1.736.96-2.289,3.4-2.289.811,0,2.658.055,2.658,1.217,0,.74-.831.887-1.016,1.513a24.428,24.428,0,0,0-.276,3.526c0,.277.111,2.309.185,4.025.054,1.348,1.162,1.051,1.162,1.882,0,1.237-2.529,1.182-3.341,1.182-.756,0-3.286.074-3.286-1.108,0-.646.831-.756.96-1.347.074-.314.443-3.488-.2-3.488-.573,0-1.164,1.622-1.607,2.566-.4.848-1.07,2.954-1.661,2.88-.294-.038-.443,0-1.55-2.492Z" transform="translate(9.084 0.058)" fill="#11160e"/>
    <path id="Tracé_4" data-name="Tracé 4" d="M35.618.369A9.505,9.505,0,0,0,38.738,0c1.053,0,1.495,1.81,1.495,2.621,0,.608-.239,1.328-.959,1.328-1.458,0-.277-1.772-3.785-1.772-2.049,0-1.845.369-1.845,2.492,0,1.071.055,1.108,1.181,1.108,1.4,0,.351-2.049,1.661-2.049,1.073,0,1.147,2.086,1.147,2.806,0,.756-.129,2.972-1.237,2.972-1.145,0,0-1.938-1.864-1.938-.776,0-.757.7-.757,1.291,0,2.7.185,2.566,2.122,2.566,3.785,0,2.714-2.6,4.228-2.6.591,0,.885.665.885,1.182,0,1.254-1,3.506-1.735,3.506-.129,0-.425-.055-.813-.111-.406-.037-.923-.092-1.55-.092H29.323c-1.217,0-1.237-.553-1.237-.793,0-1.017,1.256-.2,1.385-2.161a33.354,33.354,0,0,0,.055-6.367C29.4,1.164,28,2.621,28,1.31,28,.185,29.546.369,30.3.369Z" transform="translate(15.093 0)" fill="#11160e"/>
    <path id="Tracé_5" data-name="Tracé 5" d="M46.582,4.761c.223.183.813.72,1.145.72.462,0,.48-.757.48-1.073a6.315,6.315,0,0,0-.166-1.678c-.259-.776-1.236-.5-1.236-1.5C46.805.053,48.686.11,49.462.11c.813,0,2.824-.094,2.824,1.181,0,1.053-.979.665-1.291,1.515a8.77,8.77,0,0,0-.24,2.509V10.1c0,.831.111,3.358-1.127,3.358a1.522,1.522,0,0,1-.96-.46l-5.7-5.115c-.259-.24-.737-.682-1.125-.682-.573,0-.591,1.2-.591,1.587a8.378,8.378,0,0,0,.129,1.681c.277,1.182,1.256.739,1.256,1.642,0,1.236-1.9,1.347-2.769,1.347-.85,0-2.75-.111-2.75-1.31,0-.979,1.07-.591,1.254-1.772a19.838,19.838,0,0,0,.166-2.787,26.674,26.674,0,0,0-.2-4.006c-.3-1.847-1.625-1.127-1.625-2.233C36.707.036,39.2.11,40.03.11a2.4,2.4,0,0,1,2.178.811Z" transform="translate(19.791 0.058)" fill="#11160e"/>
    <path id="Tracé_6" data-name="Tracé 6" d="M54.5.072c1.81,0,2.974.905,3.452.905.406,0,.517-.129.831-.129.776,0,1.773,1.162,1.773,3.212A1.762,1.762,0,0,1,58.839,6c-1.9,0-1.421-3.268-4.707-3.268A2.154,2.154,0,0,0,52.12,5.074c0,2.732,1.458,5.058,4.043,5.058,2.344,0,2.7-1.273,3.268-1.273.536,0,.794.626.794,1.088,0,.813-.85,2.512-1.773,2.512-.628,0-1.921,1.07-4.1,1.07A6.949,6.949,0,0,1,47.3,6.755C47.3,2.97,50.865.072,54.5.072" transform="translate(25.503 0.039)" fill="#11160e"/>
    <path id="Tracé_7" data-name="Tracé 7" d="M63.878.369A9.505,9.505,0,0,0,67,0c1.053,0,1.495,1.81,1.495,2.621,0,.608-.239,1.328-.959,1.328-1.458,0-.277-1.772-3.785-1.772-2.049,0-1.845.369-1.845,2.492,0,1.071.055,1.108,1.181,1.108,1.4,0,.351-2.049,1.661-2.049,1.073,0,1.147,2.086,1.147,2.806,0,.756-.129,2.972-1.237,2.972-1.145,0,0-1.938-1.864-1.938-.776,0-.757.7-.757,1.291,0,2.7.185,2.566,2.122,2.566,3.785,0,2.714-2.6,4.228-2.6.591,0,.885.665.885,1.182,0,1.254-1,3.506-1.735,3.506-.129,0-.425-.055-.813-.111-.406-.037-.923-.092-1.55-.092H57.583c-1.217,0-1.237-.553-1.237-.793,0-1.017,1.256-.2,1.385-2.161a33.353,33.353,0,0,0,.055-6.367c-.129-2.824-1.531-1.367-1.531-2.678,0-1.125,1.551-.94,2.307-.94Z" transform="translate(30.33 0)" fill="#11160e"/>
    <path id="Tracé_8" data-name="Tracé 8" d="M65.4,4.372c0-1.919,1.845-4.3,5.427-4.3a15.362,15.362,0,0,1,2.787.517c.259,0,.517-.259.905-.259.628,0,2.03,1.421,2.03,2.972a1.166,1.166,0,0,1-1.088,1.254c-1.237,0-1.956-2.1-3.877-2.1-.573,0-1.182.259-1.182.923,0,1.458,2.53,1.071,4.671,2.492a3.4,3.4,0,0,1,1.716,3.064c0,2.159-1.772,4.6-6.073,4.6a11.2,11.2,0,0,1-4.356-.887c-.887-.5-1.311-2.455-1.311-3.4,0-.5.222-1,.776-1,1.311,0,1.088,2.934,4.485,2.934.406,0,1.422-.2,1.422-.905,0-1.328-2.529-1-4.577-2.64A4.235,4.235,0,0,1,65.4,4.372" transform="translate(35.072 0.039)" fill="#11160e"/>
    <path id="Tracé_9" data-name="Tracé 9" d="M1.661,14.355c.038-1.9-1.347-.977-1.347-2.178,0-.848,1.07-.977,1.716-.977H8.048c5.132,0,6.811,3.174,6.811,6.5,0,3.434-2.01,6.663-6.681,6.663-.794,0-1.459-.017-2.03-.054-.573-.018-1.071-.037-1.588-.037s-1.053.018-1.57.037c-.516.037-1.033.054-1.567.054C.794,24.36,0,24.047,0,23.308c0-1.33,1.458.148,1.513-2.547Zm4.431,6.757c0,.94.148,1.328,1.144,1.328,2.327,0,2.734-2.381,2.734-4.227,0-4.319-1.625-5-3.048-5-.774,0-.83.312-.83,1.014Z" transform="translate(0 6.039)" fill="#11160e"/>
    <path id="Tracé_10" data-name="Tracé 10" d="M17.739,11.412a9.505,9.505,0,0,0,3.12-.369c1.053,0,1.495,1.81,1.495,2.621,0,.608-.239,1.328-.959,1.328-1.458,0-.277-1.772-3.785-1.772-2.049,0-1.845.369-1.845,2.492,0,1.071.055,1.108,1.181,1.108,1.4,0,.351-2.049,1.661-2.049,1.073,0,1.147,2.086,1.147,2.806,0,.756-.129,2.972-1.237,2.972-1.145,0,0-1.938-1.864-1.938-.776,0-.757.7-.757,1.291,0,2.7.185,2.566,2.122,2.566,3.785,0,2.714-2.6,4.228-2.6.591,0,.885.665.885,1.182,0,1.254-1,3.506-1.735,3.506-.129,0-.425-.055-.813-.111-.406-.037-.923-.092-1.55-.092H11.444c-1.217,0-1.237-.553-1.237-.793,0-1.017,1.256-.2,1.385-2.161a33.353,33.353,0,0,0,.055-6.367c-.129-2.824-1.531-1.367-1.531-2.678,0-1.125,1.551-.94,2.307-.94Z" transform="translate(5.454 5.954)" fill="#11160e"/>
    <path id="Tracé_11" data-name="Tracé 11" d="M25.137,15.649c0-2.039-2.529-1.144-2.529-2.857,0-1.088,1.2-1.334,2.039-1.334.68,0,1.333.055,2.013.055,3.945,0,6.337-.38,7.48-.38,3.7,0,7.262,2.149,7.262,6.227,0,4.054-3.426,6.23-7.206,6.23-.817,0-1.633-.137-2.369-.137-.325,0-.434.137-.434.437v1.576c.083,3.4,2.067,1.987,2.067,3.565,0,1.767-3.916,1.849-5.141,1.849-1.142,0-5.167-.026-5.167-1.795,0-1.5,1.984-.571,1.984-2.8Zm7.289-1.307c-1.06,0-1.033.326-1.033.871v4.079c0,.571-.245,1.2,1.224,1.2,1.8,0,2.5-1.361,2.5-3.021,0-1.712-.871-3.128-2.694-3.128" transform="translate(12.189 6.002)" fill="#11160e"/>
    <path id="Tracé_12" data-name="Tracé 12" d="M38.979,20.788c.843-1.875,1.959-4.27,1.959-6.418,0-1.876.871-3.291,3.292-3.291,2.366,0,3.862,2.421,4.924,4.217.46.788,4.568,9.112,5.547,11.342.9,2.066,2.366.814,2.366,2.366,0,1.987-3.862,1.9-5.222,1.9-3.889,0-6.227-.026-6.227-1.713,0-1.305,1.658-.816,1.658-1.768,0-1.225-.679-1.333-5.058-1.333-1.416,0-2.258.055-2.258,1.388,0,1.06,1.741.352,1.741,1.767,0,1.633-2.938,1.659-4.026,1.659-3.889,0-4.243-.734-4.243-1.6,0-1.279,1.468-.9,2.256-1.878a15.774,15.774,0,0,0,1.579-2.911Zm5.712,1.961c.272,0,1.09.054,1.09-.354a9.286,9.286,0,0,0-1.008-2.2c-.243-.434-.706-1.442-1.3-1.442-.654,0-1.117,1.633-1.225,1.932a9.428,9.428,0,0,0-.571,1.687c0,.463.679.382.979.382Z" transform="translate(18.024 5.973)" fill="#11160e"/>
    <path id="Tracé_13" data-name="Tracé 13" d="M62.208,18.665c-1.2,1.5-1.277,2.312-1.277,4.217,0,2.5.137,3.591.38,4.106.382.788,1.824.626,1.824,1.9,0,1.958-4.3,1.958-5.63,1.958-5.332,0-6.041-1.224-6.041-1.958,0-1.468,1.551-.925,2.041-2.039a13.307,13.307,0,0,0,.436-4.516,4.258,4.258,0,0,0-1.2-3.291L49.67,15.482c-1.334-1.55-3.1-1.114-3.1-2.447,0-.626-.191-1.85,6.146-1.85,5.659,0,5.6,1.062,5.6,1.659,0,.706-.762.979-.762,1.551,0,.6,1.09,2.312,1.77,2.312.706,0,1.849-1.442,1.849-2.069,0-.76-.788-.816-.788-1.85,0-1.6,3.154-1.6,4.188-1.6,3.4,0,4.3.408,4.3,1.6,0,1.741-1.958.736-3.318,2.2Z" transform="translate(25.107 6.031)" fill="#11160e"/>
    <path id="Tracé_14" data-name="Tracé 14" d="M61.955,17.469c0-2.829,2.72-6.337,8-6.337a22.64,22.64,0,0,1,4.106.762c.382,0,.762-.38,1.333-.38.927,0,2.994,2.095,2.994,4.377a1.719,1.719,0,0,1-1.6,1.85c-1.824,0-2.884-3.1-5.715-3.1-.842,0-1.741.383-1.741,1.361,0,2.149,3.728,1.579,6.883,3.672a5.005,5.005,0,0,1,2.53,4.516c0,3.183-2.612,6.772-8.95,6.772a16.473,16.473,0,0,1-6.418-1.307c-1.307-.733-1.932-3.615-1.932-5,0-.736.325-1.471,1.142-1.471,1.932,0,1.6,4.327,6.609,4.327.6,0,2.1-.3,2.1-1.334,0-1.958-3.728-1.468-6.748-3.889a6.239,6.239,0,0,1-2.584-4.814" transform="translate(33.125 6.002)" fill="#11160e"/>
  </g>
</svg>
