<svg xmlns="http://www.w3.org/2000/svg" viewBox="0 0 131.81 63.12"><g id="Calque_2" data-name="Calque 2"><g id="Calque_1-2" data-name="Calque 1"><path d="M112.2,35.71v0C112.22,35.69,112.2,35.69,112.2,35.71Z"/><path d="M17.3,34.14h-.69L9.07,56h.7c2.41,0,3.64-2,4.36-4.06L18.86,38.2C19.58,36.11,19.71,34.14,17.3,34.14Z"/><path d="M131.16,3.8a3.36,3.36,0,0,0-.93-.87l-.17-.11-.17-.11-.18-.11-.17-.1-.17-.11-.17-.11L129,2.17a1.51,1.51,0,0,0-.17-.1L128.69,2l-.17-.11-.18-.11-.12-.07C127.37.55,125.85,0,123.56,0A9.1,9.1,0,0,0,118,2l0-.08h-.21l0-.1h-.21l0-.11h-.2l0-.11h-.21l0-.11h-.21l0-.1H117l0-.11h-.21l0-.11h-.21l0-.11h-.21l0-.1h-.2l0-.11h-.21l0-.11h-.21l0-.11h-.24l.11-.33H102.1l.23.33h-.1l.62.9A10.07,10.07,0,0,1,102.31,4a3.81,3.81,0,0,0-1.16-1.1L101,2.75l-.17-.11-.18-.1-.17-.11-.17-.11-.17-.11-.17-.1L99.78,2l-.18-.11-.17-.11-.17-.1,0,0a4.94,4.94,0,0,0-4-1.62A8.63,8.63,0,0,0,90.16,1.7H90l.14-.11h-.31L90,1.48h-.32l.15-.1h-.32l.15-.11H89.3l.14-.11h-.31l.14-.11H89L89.1,1h-.31l.14-.1h-.31l.14-.11h-.32l.15-.11H88l.45-.33H86.34L80.8.25H79.48l.22.33h-.09l.58.89a3.45,3.45,0,0,1-.08.65H80V2h-.18V1.9h-.18V1.8h-.18V1.69h-.18V1.58h-.18V1.47H79v-.1h-.18V1.26h-.18V1.15h-.18V1h-.18V.94h-.18V.83H78V.72H77.8V.61h-.16l0-.33H50.48l-.2.38L48,5.13l.33-2,.14-.82h-.19V2.23h-.18V2.12h-.19l0-.11h-.19l0-.11h-.19l0-.1h-.19l0-.11h-.19l0-.11H47l0-.11h-.19v-.1h-.19l0-.11h-.19l0-.11h-.19l0-.11h-.19l0-.1H46l0-.11h-.19l0-.11h-.19V.61H45.5l.06-.33H24.5l.23.33h-.1l.62.9a9.37,9.37,0,0,1-.45,2.14,3.25,3.25,0,0,0-.8-.72l-.17-.11-.18-.11-.17-.11-.17-.1-.17-.11L23,2.28l-.17-.11-.17-.1L22.45,2l-.17-.11-.17-.11L22,1.67C21.14.55,19.62,0,17.33,0A9.25,9.25,0,0,0,8.69,6.39a6.71,6.71,0,0,0,0,5,11.89,11.89,0,0,0,2.21,3.51c.32.38.61.76.89,1.14a3.78,3.78,0,0,0-2-.48c-3.15,0-6.07,2.84-7,5.47a6.17,6.17,0,0,0-.14,4.46,4.26,4.26,0,0,0,.58,1.17A4.4,4.4,0,0,0,4.85,28l.17.11.17.11.18.11.17.1.17.11.17.11.17.11.17.11.17.1.18.11.17.11.17.11.17.1.17.11.17.11a7.67,7.67,0,0,0,4,1l.61,0c0,.68-.41,2.36-1.81,6.3l-.23.66L5,52l-.22.66c-.51,1.53-2.07,6.19-3,6.86L0,60.78H.59l-.46.33H.45l-.15.11H.62l-.15.11H.79l-.15.1H1l-.15.11h.32L1,61.65H1.3l-.14.11h.32l-.15.1h.32L1.5,62h.32l-.15.11H2l-.15.11h.32L2,62.3h.32l-.15.1H2.5l-.14.11h.32l-.15.11h.32l-.15.11H3l-.15.1h8.68a10.84,10.84,0,0,0,6.09-1.72h0l-.15.11h.32l-.15.11H18l-.15.1h.32l-.15.11h.32l-.14.11h.31l-.14.11h.32l-.15.1h.32L18.7,62H19l-.15.11h.32l-.15.11h.32l-.15.11h.32l-.15.1h.32l-.14.11h.32l-.15.11h.32l-.15.11h.32l-.15.1H35.75l.16-.47,1.76-5.11.49-1.44-.24.1.07-.2-.24.09.07-.2-.24.09.07-.2-.24.09.07-.2-.24.1.07-.2-.24.09.07-.2-.24.09.06-.2-.24.09.07-.2-.24.1.07-.2-.24.09.07-.2-.24.09.07-.2-.24.09.07-.2-.24.1.07-.21-.24.1.06-.2-.24.09.07-.2-.24.09.07-.2-.28.11.15-.44-1.41.55A12.21,12.21,0,0,1,31,55.1l2.63-7.64h2a5.32,5.32,0,0,1,2.54.45l.08.05h0l.17.11h0l.17.11h0l.17.12h0l.17.11h0l.17.11h0l.17.11h0l.17.12.29-.87,2-5.89.54-1.55-.25.11.08-.22-.25.12L42,40.2l-.24.11.07-.22-.24.11.07-.22-.25.11.08-.22-.25.11.08-.21-.25.11.08-.22-.25.11.08-.22-.25.11.07-.22-.24.11.07-.22-.24.12.07-.22-.25.11.08-.22-.25.11.08-.22-.25.11.08-.22-.25.12.08-.22-.25.11.07-.22-.28.13.16-.46L38,39a8.71,8.71,0,0,1-1.59.56l1-2.84h1.93a7.35,7.35,0,0,1,4.27.88l.73.39.27-.78,1.76-5.11.32-.94h-.21l0-.1h-.21l0-.11h-.21l0-.11h-.21l0-.11h-.21l0-.1h-.2l0-.11H45.4l0-.11h-.21l0-.11h-.21v0l5.13,0h2.08l.07.11c0,.59-.32,2.23-1.81,6.42l-.23.66-5,14.5c-.06.17-.14.39-.23.66-.51,1.53-2.07,6.19-3,6.86l-1.76,1.28h.58l-.46.33h.32l-.14.11H41l-.14.11h.32l-.15.1h.32l-.15.11h.32l-.15.11h.32l-.15.11h.32l-.15.1H42l-.14.11h.31l-.14.11h.32l-.15.11h.32l-.15.11h.32l-.15.1h.32l-.15.11H43l-.15.11h.32l-.15.11h.32l-.14.1h9.93l-.74-1.07c-.11-.41.12-1.9,1.78-6.6.1-.27.18-.49.24-.67.38-1.12.82-2.45,1-3.07a22.24,22.24,0,0,0,7.22-3.75c-.75,1.43-1.52,2.93-2.35,4.54a47.76,47.76,0,0,1-4.45,7.4l-1,1.17h.42l-.29.33h.27l-.1.11h.27l-.1.11h.27l-.09.1h.26l-.09.11h.26l-.09.11h.26l-.09.11h.27l-.1.1h.27l-.1.11h.27l-.1.11h.27l-.09.11H57l-.09.11h.26l-.09.1h.26l-.09.11h.27l-.1.11h.27l-.1.11h.27l-.1.1h9.36l0-.75a3.09,3.09,0,0,1,0-.43h.18l-.08.11h.25l-.08.1h.25l-.08.11h.25l-.08.11h.25l-.08.11h.25L68,62.3h.26l-.09.1h.26l-.08.11h.25l-.08.11h.25l-.08.11h.25l-.08.1h9.32v0h4.77l3.43,0h1.41L87,61.71c-.14-.19-.46-1.22,1.33-6.4l.07-.18,1.56-4.53,5.86-9.25.1.27a14,14,0,0,0,2.5,3.94,19.91,19.91,0,0,1,1.44,1.91,3.77,3.77,0,0,0-2.71-1c-3.54,0-6.83,3.2-7.85,6.17a7.07,7.07,0,0,0-.17,5,4.53,4.53,0,0,0,.65,1.3,5.07,5.07,0,0,0,1.69,1.48l.17.1.17.11.17.11.17.11.17.11.18.1.17.11.17.11.17.11.17.1.17.11.17.11.18.11.17.1.17.11a8.51,8.51,0,0,0,4.44,1.07c5,0,9.25-3.41,11.15-8.91S109,45.56,107,43.08c-1.43-1.76-2.3-3-1.93-4.47h.12l0,.1h.21l0,.11h.21l0,.11h.21l0,.11h.2l0,.1H106l0,.11h.21l0,.11h.21l0,.11h.21l0,.11h.21l0,.1h.21l0,.11h.2l0,.11h.21l0,.11h5.26l-.31.22,2.17,0h9.36l-.62-1a10.29,10.29,0,0,1,.42-1.34l0-.17,1.26-3.64.06-.17a7,7,0,0,1,.6-1.5l1.68-1.25h-1.86l.1-.07h-.32l.15-.11h-.32l.15-.11h-.32l.14-.11h-.31l.14-.1h-.31l.14-.11h-.31l.14-.11H124l.15-.11h-.32l.15-.1h-.31l.14-.1h-.13l.39-.29h-.23l.52-.39h-.57l.45-.33h-1.71a12,12,0,0,0,4.94-6.48c1.7-4.94-.51-7.66-2.28-9.85-1.21-1.49-1.91-2.46-1.73-3.64h.21l0,.11h.2l0,.1H124l0,.11h.21l0,.11h.21l0,.11h.21l0,.1h.21l0,.11h.21l0,.11h.21l0,.11h.2l0,.1h5.62l.16-.47.24-.69C132,6.72,132,5,131.16,3.8ZM115,11.37a11.92,11.92,0,0,0,2.22,3.51c.31.38.61.76.88,1.14a3.78,3.78,0,0,0-2-.48,6.4,6.4,0,0,0-3.26,1l1.59-4.61.35-1C114.83,11.07,114.89,11.22,115,11.37Zm-2.29-2.2.08-.22-.25.12.08-.22-.25.11.08-.22-.25.11.08-.22-.29.13.16-.46L110.6,9c-.26.12-.5.21-.74.3l.65-1.89h1.64a8.47,8.47,0,0,1,2.45.23,6.59,6.59,0,0,0,0,2.54l-.2.09.07-.22-.24.11.07-.22L114,10l.07-.22-.25.11.08-.22-.25.11.08-.22-.25.11.08-.22-.25.11.08-.22-.25.12.07-.22-.24.11.07-.22-.24.11.07-.22Zm-4.17,13.2.07-.2-.28.11.15-.44-1.42.54a11.57,11.57,0,0,1-1.86.59l2.12-6.18H109a4.63,4.63,0,0,1,2.15.37l0,0h0l.17.12h0l.17.11h0l.08.06A8.73,8.73,0,0,0,109.13,21a9.84,9.84,0,0,0-.38,1.43l-.09,0,.07-.2Zm6.13-12-.07,0,0-.13ZM101.57,8c.45-1.32,2.25-6.11,1.71-6.9h11.41l-1.54,4.48c-1.75-.91-2.56-.84-5-.84H107l-2,5.73h2.2a7.52,7.52,0,0,0,3.54-.74l-1.79,5.18a4.74,4.74,0,0,0-3-.77h-2.19L100.35,24h1.19c2.42,0,3.18.1,5.56-.81l-1.55,4.48H94.14c1.09-.79,2.59-5.58,3-6.9ZM94.19,12l0,.1h.21l0,.11h.21l0,.11h.21l0,.11h.21l0,.1H95l0,.11h.21l0,.11h.21l0,.11h.21l0,.1h.21l0,.11h3.53L97.5,18h0l0-.11h-.21l0-.11h-.21l0-.1h-.21l0-.11h-.21l0-.11H96.6l0-.11h-.24l.12-.33H92.09l1.79-5.2H94L94,12Zm-5.1-8.4a8.18,8.18,0,0,1,6-2.7c2.44,0,3.73,1.14,4.11,2.7s.06,3-1.09,6.34l-.16.48H93.65l.62-1.81c.56-1.63,1.31-3.94-.53-3.94s-2.63,2.31-3.19,3.94L86.64,19.92c-.56,1.63-1.36,3.95.47,3.95s2.69-2.32,3.25-3.95l.71-2.06h4.28l-.26.74c-1.15,3.33-1.8,4.79-3.29,6.37a8.23,8.23,0,0,1-6,2.67c-2.44,0-3.73-1.15-4.12-2.67s0-3,1.1-6.37l3-8.71C87,6.55,87.61,5.12,89.09,3.55Zm4.35,25.56-.09.06H93.1l.11-.06ZM91,30.23l.07-.11h-.24L90.9,30l.41-.11a2.17,2.17,0,0,1,0,.41h-.07l.07-.1Zm-9.64,7.94-.52,9.9L79.3,52.59l-.06.17q-.22.68-.45,1.29c.38-2.31.71-4.4,1-6.36C80.35,44.42,80.84,41.43,81.38,38.17ZM81,30.33v0h.11v0Zm-.11-1.19.12.61-.33-.51c-.06-.3.06-1.17.78-3.45h0a3.89,3.89,0,0,0,1.62,2l.17.11.17.11.17.11.17.1.17.11.17.11.18.11a1,1,0,0,0,.17.1l.17.11.17.11L85,29l.17.11.08.05H80.9ZM70.06,8c.46-1.32,2.26-6.11,1.72-6.9h5L75.4,18,78.91,8c.46-1.33,2.23-6.12,1.71-6.91l5.55,0c-1.06.79-2.59,5.58-3,6.9L78.74,20.74c-.45,1.32-2.23,6.11-1.71,6.9H72l1-16s-2.66,7.79-3.12,9.12-2.26,6.11-1.74,6.9H62.66c1.07-.79,2.56-5.58,3-6.9Zm2,20.78v.11h.18V29h.18v.11h.18v0H72.4l-.2.38-.07.14-.28-.42a1.84,1.84,0,0,1,0-.56h0v.1Zm-.27,1.51c-1,1.94-1.94,3.74-2.84,5.45a4.6,4.6,0,0,0-.8-2.33A4.28,4.28,0,0,0,67,32.34l-.17-.11-.17-.11-.17-.1-.17-.11-.18-.11L66,31.69l-.17-.1-.17-.11-.17-.11-.17-.11-.17-.1-.06,0a4.58,4.58,0,0,0-.92-.83H71.8ZM68.53,9.6l.07-.22-.25.12.08-.22-.25.11.08-.22L68,9.28l.08-.22-.25.11L67.92,9l-.25.12.08-.22L67.5,9l.07-.22-.24.11.07-.22-.29.13.16-.46L65.78,9c-.26.12-.51.21-.74.3l.65-1.89h1.64a9,9,0,0,1,2.26.18l0,.09-.68,2-.18.08.07-.22Zm-2.24,7.56L65.18,20.4c-.06.15-.12.35-.2.59-.21.63-.41,1.19-.6,1.72l0-.11-.24.09.07-.2-.24.1.07-.2-.24.09.06-.2-.24.09.07-.2-.28.11.16-.44-1.42.54a11.64,11.64,0,0,1-1.87.59l2.13-6.18h1.69a4.63,4.63,0,0,1,2.15.37ZM24,8c.45-1.32,2.25-6.11,1.71-6.9H37.09L35.55,5.58c-1.75-.91-2.57-.84-5-.84H29.37l-2,5.73h2.19a7.46,7.46,0,0,0,3.54-.74l-1.78,5.18a4.74,4.74,0,0,0-3-.77H26.13L22.75,24h1.19c2.42,0,3.18.1,5.56-.81L28,27.64H16.54c1.09-.79,2.58-5.58,3-6.9ZM35.75,9.6l.07-.22-.24.12.07-.22-.24.11.07-.22-.25.11.08-.22-.25.11L35.14,9l-.25.12L35,8.85,34.72,9l.08-.22-.25.11.07-.22-.28.13.16-.46L33,9c-.26.12-.5.21-.74.3l.65-1.89h1.64a8.94,8.94,0,0,1,2.26.18l0,.09-.67,2-.19.08L36,9.49ZM31.4,22.69l.07-.2-.24.1.07-.2-.24.09.07-.2-.24.09.07-.2-.28.11.15-.44-1.42.54a11.57,11.57,0,0,1-1.86.59l2.12-6.18h1.69a4.63,4.63,0,0,1,2.15.37h0L32.4,20.4c0,.15-.12.34-.19.57-.2.6-.39,1.13-.57,1.64h0ZM29.2,30.4A17.5,17.5,0,0,1,28,35a4.76,4.76,0,0,0-.71-1.71A4.39,4.39,0,0,0,25.83,32l-.17-.11-.17-.11-.17-.1-.17-.11L25,31.47l-.17-.11-.18-.1-.17-.11L24.29,31l0,0a4.32,4.32,0,0,0-.76-.72h5.64ZM22.57,10.24l-1.76,5.14A17.06,17.06,0,0,0,19,12.81c-1.2-1.49-1.9-2.46-1.72-3.64h.21l0,.11h.21l0,.1h.21l0,.11H18l0,.11h.21l0,.11h.21l0,.1h.21l0,.11h.21l0,.11h.21l0,.11H19l0,.1h3.6ZM17.25,9.16a.31.31,0,0,0,0-.1h0ZM8.35,27.9C4.73,27.9,1.79,26,3.4,21.35c.82-2.39,3.47-5,6.3-5,2.37,0,3.19,1.75,1.81,3.92a1.63,1.63,0,0,0-1.44-.64,3,3,0,0,0-2.56,2.19A1.64,1.64,0,0,0,9.25,24.1c1.71,0,3.29-1.63,3.86-3.29,2.11-6.13-6.28-7.2-3.92-14.08a8.6,8.6,0,0,1,8-5.91c4.61,0,5.41,2.34,4.12,6.09l-.23.69H16.92L17,7.26c.57-1.63.45-2.77-.9-2.77a2.63,2.63,0,0,0-2.48,2c-1.5,4.35,6.64,6,3.9,14C15.94,25.17,12.32,27.9,8.35,27.9ZM19,51.8c-1.41,4.09-4.31,8.38-10.51,8.38H2c1.24-.9,2.94-6.35,3.46-7.86l5-14.5c.52-1.51,2.58-7,2-7.86h6.49c6.21,0,6.15,4.29,4.75,8.38ZM40.85,35.06c-2-1-2.92-1-5.67-1H33.82l-2.25,6.52h2.49a8.56,8.56,0,0,0,4-.84l-2,5.89a5.48,5.48,0,0,0-3.45-.87H30.13L26.27,56h1.37c2.75,0,3.61.11,6.32-.93l-1.76,5.1h-13c1.24-.9,2.94-6.35,3.46-7.86l5-14.5c.52-1.51,2.57-7,2-7.86h13Zm-1.19-7.42,0,.11h.19l0,.11H40V28l-.44.32h.59l-.47.33H40l-.15.11h.32l-.15.11h.32l-.15.11h.32l-.15.1h.32l-.14.11H39.08a6.41,6.41,0,0,1,.29-1.6h.12l0,.1Zm7.5,0-5.59,0c1.09-.79,2.58-5.58,3-6.91L48,11,40.61,25.42H38L40.5,11l-3.35,9.73c-.46,1.33-2.24,6.12-1.72,6.91l-5.57,0c1.09-.79,2.58-5.58,3-6.9L37.29,8c.45-1.32,2.25-6.11,1.71-6.9h5.55L41.61,18.67,50.74,1.1h5.55c-1.06.79-2.58,5.58-3,6.9L48.87,20.74C48.41,22.06,46.64,26.85,47.16,27.64Zm2.16,0c1.09-.79,2.58-5.58,3-6.9L56.74,8C57.2,6.68,59,1.89,58.46,1.1H69.87L68.32,5.58c-1.74-.91-2.56-.84-5-.84H62.15l-2,5.73h2.19a7.49,7.49,0,0,0,3.54-.74l-1.78,5.18a4.76,4.76,0,0,0-3-.77H58.91L55.52,24h1.2c2.42,0,3.18.1,5.55-.81l-1.54,4.48ZM51.87,48.9s-.63,1.91-1.15,3.42-2.57,7-1.95,7.86H42.36c1.23-.9,2.94-6.35,3.46-7.86l5-14.5c.52-1.51,2.57-7,1.95-7.86H59.2c5.08,0,7.31,2.35,5.37,8S56.9,47.51,51.87,48.9ZM67.05,61.55h0Zm7.24-1.37H67.24c1.49-2,1.94-4.52,2.41-6.64H65.47c-1,2.12-2.3,4.67-2.17,6.64h-7a45.81,45.81,0,0,0,4.54-7.54C65.34,43.8,68.29,38.43,72.66,30h6c-1.46,8.47-2.29,13.84-3.75,22.68C74.58,54.88,74,58.47,74.29,60.18ZM94.11,35.91,86.23,48.35,84.64,53c-.47,1.36-2.15,6.06-1.3,7.22l-3.44,0H76.13c1.64-1.16,3.2-5.85,3.67-7.22l1.59-4.61.66-12.44A20.44,20.44,0,0,0,81.59,30h6.82c-1.32,1.88-1.52,6.53-2,11.31,2.42-4.76,5.41-9.4,5.39-11.28h6.82A36.51,36.51,0,0,0,94.11,35.91Zm16,.66-.27.79h-4.7l.13-.38c.64-1.86.51-3.16-1-3.16a3,3,0,0,0-2.83,2.32C99.72,41.1,109,43,105.87,52c-1.84,5.34-6,8.44-10.48,8.44-4.12,0-7.47-2.14-5.64-7.45.94-2.73,4-5.69,7.18-5.69,2.7,0,3.63,2,2.06,4.47a1.83,1.83,0,0,0-1.64-.72,3.4,3.4,0,0,0-2.91,2.49,1.86,1.86,0,0,0,2,2.58c1.94,0,3.74-1.85,4.39-3.74,2.41-7-7.15-8.21-4.46-16a9.77,9.77,0,0,1,9.08-6.73C110.68,29.64,111.59,32.31,110.12,36.57Zm.92-5.78-.17-.11-.09-.06a4,4,0,0,0-1.42-1.11l.78-2.24a4.65,4.65,0,0,0,.94.69l.17.11.18.11.17.11.17.1.17.11.17.11.17.11.18.11.17.1.17.11.15.1h-.35l-.16.48L112,30.94l-.12.36-.14-.08-.17-.11-.17-.11-.17-.11A1.51,1.51,0,0,0,111,30.79Zm2.38,4.92c0,.1-.52,1.59-.34,1.85h-1.79a6.53,6.53,0,0,0,.91-1.85l1.62-4.7a2.4,2.4,0,0,0-1.34.27l.46-1.32h3.7l-.46,1.32c-.23-.2-.44-.27-1.14-.27Zm7.66-3.77-1.25,3.64c-.13.38-.65,1.75-.5,2h-1.6a6.78,6.78,0,0,0,.87-2l1-2.79-2.11,4.13h-.75l.72-4.13-1,2.79c-.13.38-.65,1.75-.49,2h-1.58a7.57,7.57,0,0,0,.87-2l1.25-3.64c.13-.38.63-1.75.49-2h1.59l-.85,5,2.61-5H122A7,7,0,0,0,121.08,31.94Zm2.4-22.77s0-.07,0-.11h0Zm4-2.26-.23.69h-4.13l.12-.34c.56-1.63.44-2.77-.91-2.77a2.63,2.63,0,0,0-2.48,2c-1.5,4.35,6.64,6,3.9,14-1.61,4.69-5.22,7.42-9.2,7.42-3.61,0-6.56-1.89-5-6.55.82-2.39,3.47-5,6.3-5,2.37,0,3.19,1.75,1.81,3.92a1.63,1.63,0,0,0-1.44-.64,3,3,0,0,0-2.56,2.19,1.64,1.64,0,0,0,1.74,2.27c1.71,0,3.29-1.63,3.86-3.29,2.11-6.13-6.28-7.2-3.91-14.08a8.58,8.58,0,0,1,8-5.91C128,.82,128.8,3.16,127.51,6.91Z"/><path d="M113.41,35.74v0Z"/><path d="M58,34.54H56.81l-3.09,9c2.2,0,4.94-2.64,6-5.59C60.36,35.93,59.92,34.54,58,34.54Z"/><polygon points="70.56 49.36 73.41 36.54 67.43 49.36 70.56 49.36"/></g></g></svg>