<svg xmlns="http://www.w3.org/2000/svg" viewBox="0 0 169.3 61.98"><defs><style>.cls-1{fill:#e6d8cf;}</style></defs><g id="Calque_2" data-name="Calque 2"><g id="Header"><path class="cls-1" d="M16.46,5c-.16.37-.3.63-.72.63s-.45-.42-.45-.75c0-2.36-1.08-3.74-3.57-3.74-2,0-4.35,1-4.35,3.27,0,4,8.67,3.29,8.67,9.26a8.09,8.09,0,0,1-2.22,5.72C11.75,21.46,9.08,22,6.24,22A15.32,15.32,0,0,1,1,21c-.3-.15-.54-.33-.54-.69a39.22,39.22,0,0,1,1-4.7c.12-.3.27-.51.63-.51s.45.32.48.62a14.24,14.24,0,0,0,.24,1.53A4.5,4.5,0,0,0,7,20.74c2.58,0,4.83-1.32,4.83-4.16,0-4.65-8.72-3.06-8.72-9.39C3.09,2,7.79,0,12.32,0a17.49,17.49,0,0,1,4.16.51c.45.12.78.27.78.78A20.4,20.4,0,0,1,16.46,5Z"/><path class="cls-1" d="M36.48,1.26l-.59,4.19a.54.54,0,0,1-.51.51.49.49,0,0,1-.51-.44c-.21-1.74-.81-3.48-3.09-3.69a15.89,15.89,0,0,0-2.07,0c-1.14,0-1.35.27-1.53,1.17l-1.35,6.8h1.08a9.7,9.7,0,0,0,3.15-.33,3.4,3.4,0,0,0,1.71-2.19.53.53,0,0,1,.51-.42h0a.45.45,0,0,1,.39.57c-.18,1.35-1.14,5.76-1.29,6.42a.53.53,0,0,1-.54.51c-.12,0-.42,0-.42-.54-.06-2.25-.69-2.88-3.09-2.88H26.59l-1.41,7a5.13,5.13,0,0,0-.09.81A1.27,1.27,0,0,0,26,20.05a6.46,6.46,0,0,0,1.71.21,7.15,7.15,0,0,0,3.42-.87,8.2,8.2,0,0,0,3.15-3.63.62.62,0,0,1,.54-.41.4.4,0,0,1,.42.44.53.53,0,0,1,0,.21,23.61,23.61,0,0,1-1.59,4.8,1,1,0,0,1-1,.6H16.94a.39.39,0,0,1-.42-.42c0-.24.18-.42.54-.42a2.6,2.6,0,0,0,2.19-.93,5.92,5.92,0,0,0,1.05-2.7L22.67,5a9.05,9.05,0,0,0,.24-1.77,1.6,1.6,0,0,0-.3-1.08,3,3,0,0,0-2-.66.39.39,0,0,1-.42-.39v0a.46.46,0,0,1,.48-.42H35.92c.38,0,.56.18.56.51Z"/><path class="cls-1" d="M68.06,1.47c-1.11.06-2,.12-2.55.9a5.76,5.76,0,0,0-.93,2.82,107,107,0,0,0-1.2,11v.75c0,1.11.12,1.65.48,1.92a1.5,1.5,0,0,0,.87.24c.87,0,1.53-.48,2-.48a.36.36,0,0,1,.36.21c.11.33-.24.63-.48.75a21.28,21.28,0,0,1-7.05,2.13,1.77,1.77,0,0,1-1.14-.33A1.85,1.85,0,0,1,58,20,99.11,99.11,0,0,1,59.48,4.77L49.74,21.25a.89.89,0,0,1-.75.54c-.33,0-.57-.21-.66-.66-.81-4.53-3-13.82-3.44-16.1-2.76,10.8-3,11.87-3,11.87a3.89,3.89,0,0,0,0,2.34,2,2,0,0,0,1.86,1.32c.33,0,.51.21.51.45a.41.41,0,0,1-.45.39h-7.1a.4.4,0,0,1-.42-.39v0c0-.24.21-.39.48-.42a3.15,3.15,0,0,0,2.09-1,5.75,5.75,0,0,0,1.38-2.79L43.39,5.24a7.74,7.74,0,0,0,.36-2c0-.09,0-.18,0-.3-.12-1.23-1-1.35-2.13-1.5a.39.39,0,0,1-.33-.39v0a.42.42,0,0,1,.45-.42H48.6c.75,0,.93.15,1,.84A22.76,22.76,0,0,0,50,4.41c1.05,4.85,2,8.42,2.28,9.86l6-10.19c.63-1.05,1.23-2,1.56-2.7S60.38.63,61,.63h7.05a.42.42,0,0,1,.47.39C68.53,1.29,68.36,1.44,68.06,1.47Z"/><path class="cls-1" d="M87.31,1.26l-.6,4.19A.53.53,0,0,1,86.2,6a.49.49,0,0,1-.51-.44c-.21-1.74-.81-3.48-3.08-3.69a15.89,15.89,0,0,0-2.07,0C79.4,1.83,79.19,2.07,79,3l-1.35,6.8h1.08a9.7,9.7,0,0,0,3.15-.33A3.4,3.4,0,0,0,83.6,7.25a.53.53,0,0,1,.51-.42h0a.45.45,0,0,1,.39.57c-.18,1.35-1.14,5.76-1.29,6.42a.53.53,0,0,1-.54.51c-.12,0-.42,0-.42-.54-.06-2.25-.69-2.88-3.09-2.88H77.42l-1.41,7a5.13,5.13,0,0,0-.09.81,1.26,1.26,0,0,0,.87,1.32,6.46,6.46,0,0,0,1.71.21,7.15,7.15,0,0,0,3.42-.87,8.2,8.2,0,0,0,3.15-3.63.6.6,0,0,1,.53-.41.39.39,0,0,1,.42.44A.53.53,0,0,1,86,16a23.54,23.54,0,0,1-1.58,4.8,1,1,0,0,1-1,.6H67.77a.39.39,0,0,1-.42-.42c0-.24.18-.42.54-.42a2.6,2.6,0,0,0,2.19-.93,5.92,5.92,0,0,0,1-2.7L73.5,5a9.05,9.05,0,0,0,.24-1.77,1.6,1.6,0,0,0-.3-1.08,3,3,0,0,0-2-.66A.39.39,0,0,1,71,1.08v0a.46.46,0,0,1,.48-.42H86.74c.39,0,.57.18.57.51Z"/><path class="cls-1" d="M113.13,1.47a3.11,3.11,0,0,0-2.43.87,6.11,6.11,0,0,0-1,2.78L106.54,21a.81.81,0,0,1-.78.75c-.42,0-.66-.33-.87-.69-.78-1.47-1.47-2.67-2.58-4.43L95,5.07,92.78,16.48a7.52,7.52,0,0,0-.18,1.65,3.63,3.63,0,0,0,0,.57c.12,1.14.93,1.62,2.28,1.86.21.06.36.18.36.39v0a.44.44,0,0,1-.48.42H87.53a.4.4,0,0,1-.39-.39v0c0-.24.18-.39.49-.42a3.61,3.61,0,0,0,2.51-1.32,7.43,7.43,0,0,0,1.11-2.76l2.58-13-.42-.57a3.92,3.92,0,0,0-2.16-1.41c-.21-.06-.39-.18-.39-.42a.43.43,0,0,1,.48-.42h6.21c.65,0,.89.09,1.1.63a15.61,15.61,0,0,0,1,2L106.51,14l1.8-9a10.33,10.33,0,0,0,.2-1.74c0-1.38-.87-1.65-2.09-1.74-.37,0-.51-.24-.51-.45a.43.43,0,0,1,.48-.42h6.92a.39.39,0,0,1,.42.39C113.7,1.29,113.52,1.47,113.13,1.47Z"/><path class="cls-1" d="M131.54,7.19c-.12.39-.33.84-.81.84s-.51-.39-.53-.72a8.71,8.71,0,0,0-1-4.16,4,4,0,0,0-3.69-2c-3.21,0-5.19,2.85-6.08,5.6a18.84,18.84,0,0,0-.78,3.87c-.06.69-.09,1.35-.09,2,0,3.68,1.16,7.4,5.48,7.4a7.13,7.13,0,0,0,5.37-2.7c.3-.39.53-.78.81-1.14s.32-.42.63-.42a.45.45,0,0,1,.47.49,1,1,0,0,1-.15.5,9.54,9.54,0,0,1-9,5.28c-5.81,0-9.95-3.27-9.95-9.35,0-.3,0-.6,0-.9a12.54,12.54,0,0,1,1.53-5.16c2.49-4.49,7-6.59,12.05-6.59a10.7,10.7,0,0,1,4.59,1.05,2,2,0,0,0,.8.27c.54,0,.36-.75,1-.75a.54.54,0,0,1,.54.6A27.43,27.43,0,0,1,131.54,7.19Z"/><path class="cls-1" d="M151.75,1.26l-.59,4.19a.54.54,0,0,1-.51.51.49.49,0,0,1-.51-.44c-.21-1.74-.81-3.48-3.09-3.69a15.89,15.89,0,0,0-2.07,0c-1.14,0-1.35.27-1.53,1.17l-1.35,6.8h1.08a9.7,9.7,0,0,0,3.15-.33A3.4,3.4,0,0,0,148,7.25a.53.53,0,0,1,.51-.42h0a.45.45,0,0,1,.39.57c-.18,1.35-1.14,5.76-1.29,6.42a.53.53,0,0,1-.54.51c-.12,0-.42,0-.42-.54-.06-2.25-.69-2.88-3.09-2.88h-1.77l-1.41,7a5.13,5.13,0,0,0-.09.81,1.27,1.27,0,0,0,.87,1.32,6.46,6.46,0,0,0,1.71.21,7.15,7.15,0,0,0,3.42-.87,8.2,8.2,0,0,0,3.15-3.63.62.62,0,0,1,.54-.41.4.4,0,0,1,.42.44.53.53,0,0,1,0,.21,23.61,23.61,0,0,1-1.59,4.8,1,1,0,0,1-1,.6H132.21a.39.39,0,0,1-.42-.42c0-.24.18-.42.54-.42a2.6,2.6,0,0,0,2.19-.93,5.92,5.92,0,0,0,1-2.7L137.94,5a9.05,9.05,0,0,0,.24-1.77,1.6,1.6,0,0,0-.3-1.08,3,3,0,0,0-2-.66.39.39,0,0,1-.42-.39v0a.46.46,0,0,1,.48-.42h15.26c.38,0,.56.18.56.51Z"/><path class="cls-1" d="M168.49,5c-.15.37-.3.63-.72.63s-.45-.42-.45-.75c0-2.36-1.08-3.74-3.57-3.74-2,0-4.34,1-4.34,3.27,0,4,8.66,3.29,8.66,9.26a8.09,8.09,0,0,1-2.22,5.72c-2.07,2-4.73,2.58-7.58,2.58A15.37,15.37,0,0,1,153,21c-.29-.15-.54-.33-.54-.69a39.22,39.22,0,0,1,1-4.7c.12-.3.27-.51.63-.51s.45.32.48.62a14.24,14.24,0,0,0,.24,1.53A4.51,4.51,0,0,0,159,20.74c2.58,0,4.82-1.32,4.82-4.16,0-4.65-8.72-3.06-8.72-9.39C155.12,2,159.83,0,164.35,0a17.63,17.63,0,0,1,4.17.51c.45.12.78.27.78.78A19.62,19.62,0,0,1,168.49,5Z"/><path class="cls-1" d="M25.54,50.08c-1.38,7.56-7.47,11.3-14.87,11.3H.42A.37.37,0,0,1,0,61c0-.33.27-.42.51-.45,1-.14,1.53,0,2.25-.84a6.08,6.08,0,0,0,1-2.78L6,45.62a9.42,9.42,0,0,0,.23-1.8c0-1-.42-1.5-1.52-1.5-.48,0-1,.12-1.44.12a.37.37,0,0,1-.42-.39c0-.27.18-.39.42-.45a16.36,16.36,0,0,1,1.61-.39,45.7,45.7,0,0,1,9-1c3.08,0,6.71.27,9.23,2.28a6.89,6.89,0,0,1,2.55,5.64A10.29,10.29,0,0,1,25.54,50.08ZM14.15,41.51a7.36,7.36,0,0,0-2.28.33L8.72,57.7a4.07,4.07,0,0,0-.09.87c0,1.25.87,1.62,2,1.62a8,8,0,0,0,3.78-1.08c3.2-1.8,4.34-5.34,4.91-8.73a16.46,16.46,0,0,0,.27-3C19.57,43.73,18,41.51,14.15,41.51Z"/><path class="cls-1" d="M45.09,41.24l-.6,4.2A.53.53,0,0,1,44,46a.49.49,0,0,1-.51-.45c-.21-1.74-.81-3.48-3.08-3.69a15.89,15.89,0,0,0-2.07,0c-1.14,0-1.35.27-1.53,1.17l-1.35,6.8h1.08a9.79,9.79,0,0,0,3.15-.32,3.35,3.35,0,0,0,1.7-2.19.54.54,0,0,1,.51-.42h0a.44.44,0,0,1,.39.57c-.18,1.34-1.14,5.75-1.28,6.41a.53.53,0,0,1-.54.51c-.12,0-.42,0-.42-.54-.06-2.25-.69-2.88-3.09-2.88H35.2l-1.41,7a4.17,4.17,0,0,0-.09.81A1.25,1.25,0,0,0,34.57,60a6.46,6.46,0,0,0,1.71.21,7,7,0,0,0,3.42-.87,8,8,0,0,0,3.14-3.62.62.62,0,0,1,.54-.42.4.4,0,0,1,.42.45.59.59,0,0,1,0,.21,23.53,23.53,0,0,1-1.59,4.79,1,1,0,0,1-1,.6H25.55a.39.39,0,0,1-.42-.42c0-.24.18-.42.54-.42a2.6,2.6,0,0,0,2.19-.93,5.82,5.82,0,0,0,1.05-2.69l2.37-12a9.05,9.05,0,0,0,.24-1.77,1.6,1.6,0,0,0-.3-1.08,3,3,0,0,0-2-.66.39.39,0,0,1-.42-.39v0a.46.46,0,0,1,.48-.42H44.52c.39,0,.57.18.57.51Z"/><path class="cls-1" d="M64.86,52.84a9.51,9.51,0,0,1-2.55-.36L61.44,57a8.06,8.06,0,0,0-.24,1.86c0,1.64,1.26,1.68,2.55,1.73a.43.43,0,0,1,.42.42.47.47,0,0,1-.51.42H53a.39.39,0,0,1-.42-.39v0a.46.46,0,0,1,.51-.42,2.57,2.57,0,0,0,2.34-1,7.81,7.81,0,0,0,.93-2.66l2.24-11.39a8.33,8.33,0,0,0,.21-1.71c0-1.17-.54-1.53-1.7-1.53a12.32,12.32,0,0,0-1.23.15.35.35,0,0,1-.39-.39c0-.24.18-.42.48-.51a35.9,35.9,0,0,1,8.9-1.29c4.22,0,6.29.69,7.49,2a4.51,4.51,0,0,1,1.05,3.06C73.4,50.2,69.38,52.84,64.86,52.84Zm1-11.42a4.39,4.39,0,0,0-1.32.18l-2,9.89a5.48,5.48,0,0,0,1.2.15c2.25,0,3.6-1.83,4.25-5.09a11.25,11.25,0,0,0,.24-2.07C68.21,43,67.65,41.42,65.82,41.42Z"/><path class="cls-1" d="M88.51,61.38H78.8a.36.36,0,0,1-.39-.39c0-1,2.85.3,2.85-2.33a32.72,32.72,0,0,0-.36-3.81H75.39c-.42.93-1.53,3-1.53,4.13,0,2,2.19,1.17,2.19,2a.43.43,0,0,1-.48.45H68.79A.37.37,0,0,1,68.4,61c0-.32.21-.42.48-.48A3.91,3.91,0,0,0,71.1,59.4a9.59,9.59,0,0,0,1.77-2.51l8.54-15.74a1.77,1.77,0,0,1,1.53-1.08,1.21,1.21,0,0,1,1.29,1.23l2.1,15.53a8,8,0,0,0,.78,2.85c.69,1.16,2,.56,2,1.25C89.08,61.29,88.81,61.38,88.51,61.38Zm-7.73-7.67L79.94,46l-4,7.67Z"/><path class="cls-1" d="M110.79,41.42a4.36,4.36,0,0,0-2.25.87,14.54,14.54,0,0,0-2.69,2.85L101.32,51l-1.11,5.82a11.89,11.89,0,0,0-.27,2.07,1.37,1.37,0,0,0,.27,1,2.85,2.85,0,0,0,2,.63.38.38,0,0,1,.39.39.4.4,0,0,1-.45.42H91.55a.39.39,0,0,1-.42-.39c0-.26.21-.42.51-.45a2.92,2.92,0,0,0,2.49-.83,6.28,6.28,0,0,0,1-2.79l1-5.55L93.38,45a11.3,11.3,0,0,0-1.44-2.7A2.35,2.35,0,0,0,90,41.42a.38.38,0,0,1-.39-.39.48.48,0,0,1,.51-.45h10.31a.4.4,0,0,1,.39.42c0,.27-.21.42-.51.42a2.85,2.85,0,0,0-1.8.51,1.19,1.19,0,0,0-.29.75v0a6.83,6.83,0,0,0,.56,1.92l2,5.22,3.48-4.8a5.26,5.26,0,0,0,1.35-2.64,1,1,0,0,0-1.08-1c-.42,0-.54-.24-.54-.42a.46.46,0,0,1,.51-.45h6.35a.38.38,0,0,1,.42.39C111.3,41.24,111.12,41.39,110.79,41.42Z"/><path class="cls-1" d="M124.56,45c-.15.36-.3.63-.72.63s-.45-.42-.45-.75c0-2.37-1.08-3.75-3.57-3.75-2,0-4.34,1-4.34,3.27,0,4,8.66,3.3,8.66,9.26a8.05,8.05,0,0,1-2.22,5.72c-2.07,2-4.73,2.58-7.58,2.58a15.26,15.26,0,0,1-5.24-1c-.3-.15-.55-.32-.55-.69a40,40,0,0,1,1-4.7c.13-.3.27-.51.63-.51s.45.33.48.63a14.64,14.64,0,0,0,.24,1.53,4.51,4.51,0,0,0,4.23,3.44c2.58,0,4.82-1.32,4.82-4.16,0-4.65-8.72-3.06-8.72-9.38,0-5.19,4.71-7.2,9.23-7.2a17.63,17.63,0,0,1,4.17.51c.45.12.78.27.78.78A19.89,19.89,0,0,1,124.56,45Z"/></g></g></svg>