<?xml version="1.0" encoding="UTF-8"?><svg id="Calque_2" xmlns="http://www.w3.org/2000/svg" viewBox="0 0 79.76 275.84"><g id="body"><g><path d="M31.18,251.52c6.97,0,12.16,5.3,12.16,13.14-.05,3.75-.91,7.45-2.54,10.84l-8.82,.35v-.35c7.09-2.31,10.55-6.46,10.55-11.53,0-4.67-3.17-9.05-8.7-9.05s-7.6,4.15-10.09,9.11l-1.44,2.88c-2.02,4.09-4.67,8.07-10.84,8.07-6.57,0-11.47-4.84-11.47-11.7,.09-3.54,.94-7.02,2.48-10.2h6.86v.35c-5.99,2.25-8.53,5.82-8.53,10.09,0,4.84,3.29,8.07,8.13,8.07s6.92-3.8,8.65-7.2l1.44-2.88c2.54-5.07,5.25-9.97,12.16-9.97Z"/><path d="M31.48,0C38.45,0,43.64,5.3,43.64,13.14c-.05,3.75-.91,7.45-2.54,10.84l-8.82,.35v-.35c7.09-2.31,10.55-6.46,10.55-11.53,0-4.67-3.17-9.05-8.7-9.05s-7.6,4.15-10.09,9.11l-1.44,2.88c-2.02,4.09-4.67,8.07-10.84,8.07C5.19,23.46,.29,18.62,.29,11.76c.09-3.54,.94-7.02,2.48-10.2h6.86v.35C3.64,4.15,1.1,7.72,1.1,11.99c0,4.84,3.29,8.07,8.13,8.07s6.92-3.8,8.65-7.2l1.44-2.88C21.86,4.9,24.57,0,31.48,0Z"/><path d="M32.98,218.04l9.68,1.33v29.05h-.35c0-3.92-2.59-4.15-6.86-4.15-16.1-.02-15.09-17.27-18.55-17.27-.23-.02-.46,.07-.62,.23-.16,.17-.25,.4-.23,.63,0,5.45,8.09,10.11,8.09,16.59,.09,.74-.15,1.49-.67,2.03-.52,.54-1.25,.82-2,.76-3.38,0-6.63-2.96-13.58-2.96-4.26,0-6.85,.24-6.85,4.15h-.35v-28.19l8.65-.75v.35c-6.57,2.94-7.72,4.84-7.72,11.12v8.24H7.9c6.88,0,9.89,3.32,12.88,3.32,.25,0,.48-.12,.64-.31s.24-.44,.21-.68c0-3.76-6.63-8.26-6.63-13.71-.06-.53,.11-1.07,.48-1.47,.37-.39,.89-.61,1.42-.59,4.46,0,.82,13.43,18.58,13.43h3.54c1.73,0,2.71-.52,2.71-2.31v-6.8c0-6.11-1.04-8.3-8.76-11.7v-.35Z"/><path d="M42.31,168.88h.35v13.2h-.35c0-3.92-2.54-4.15-6.8-3.92l-30.78,1.67,37.93,13.6v.46l-6.26,2.26c-13.58,5.78-19.77,.17-20.78,1.16-1.01,.99,8.2,4.56,5.73,6.95-2.12,2.05-6.61-.29-10.71,1.2l-5.79,2.09,27.9,1.5c5.53,.29,9.57-.98,9.57-4.9h.35v10.78h-.35c-.29-3.69-4.09-4.55-9.57-4.84l-25.36-1.33c-4.5-.23-5.88,1.73-6.34,4.61h-.35v-9.74l6.65-2.4c6.48-2.52,10.68,2.66,12.27,1.4,1.78-1.41-8.28-4.19-5.06-6.87,1.67-1.39,6.16,1.64,15.35-2.65l4.4-1.59L.7,179.49v-8.88h.35c.35,3.92,2.36,4.32,6.97,4.09l27.49-1.56c4.27-.23,6.8-.46,6.8-4.26Z"/><path d="M32.98,135.4l9.68,1.33v29.05h-.35c0-3.92-2.59-4.15-6.86-4.15-16.1-.02-15.09-17.27-18.55-17.27-.23-.02-.46,.07-.62,.23-.16,.17-.25,.4-.23,.63,0,5.45,8.09,10.11,8.09,16.59,.09,.74-.15,1.49-.67,2.03-.52,.54-1.25,.82-2,.76-3.38,0-6.63-2.96-13.58-2.96-4.26,0-6.85,.24-6.85,4.15h-.35v-28.19l8.65-.75v.35c-6.57,2.94-7.72,4.84-7.72,11.12v8.24H7.9c6.88,0,9.89,3.32,12.88,3.32,.25,0,.48-.12,.64-.31s.24-.44,.21-.68c0-3.76-6.63-8.26-6.63-13.71-.06-.53,.11-1.07,.48-1.47,.37-.39,.89-.61,1.42-.59,4.46,0,.82,13.43,18.58,13.43h3.54c1.73,0,2.71-.52,2.71-2.31v-6.8c0-6.11-1.04-8.3-8.76-11.7v-.35Z"/><path d="M10.83,100.95c5.28,0,8.46,5.31,9.78,5.31,.11,0,.21-.06,.28-.15,.07-.08,.1-.19,.1-.3,0-1.74-7.11-4.96-7.11-7.19-.04-.55,.14-1.09,.51-1.49,.37-.41,.89-.64,1.44-.65,2.23,0,4.67,4.1,14.6,4.47h12.81v.35L5.14,126.19h27.67c5.53,0,9.51-.92,9.51-5.13h.35v11.24h-.35c0-4.04-3.98-5.07-9.51-5.07H7.21c-3.98,0-5.71,1.61-6.17,5.07h-.35v-9.22l32.51-21.1h-1.51c-.39,0-.8,.01-1.27,0-8.59-.21-10.18-2.7-11.85-2.7-.62,0-1.09,.22-1.09,.81,0,1.18,4.14,4.57,4.14,5.83,.03,.26-.06,.52-.24,.71s-.44,.29-.7,.28c-1.77,0-4.7-5.05-9.86-4.93-5.94,.03-9.79,.93-9.79,5.24h-.35v-10.78h.35c0,3.85,3.85,4.48,9.79,4.5Z"/><path d="M32.23,60.9l8.19,.92c1.96,3.77,2.96,7.97,2.94,12.22,0,11.18-8.65,19.31-21.56,19.31S0,85.28,0,74.04C0,66.97,2.8,62.37,7.25,62.37c7.33,0,11.68,7.54,16.26,7.54,1.18,0,2.26-.49,2.26-1.22h.35c0,2.19-.9,4.04-3.64,4.04-4.9,0-9.15-8.68-15.23-8.68-3.47,0-6.43,3.99-6.43,10.14,0,8.01,8.88,13.51,20.92,13.51s20.81-5.65,20.81-13.55c0-6-3.28-10.43-10.32-12.91v-.34Z"/><path d="M32.98,27.42l9.68,1.33v29.05h-.35c0-3.92-2.59-4.15-6.86-4.15-16.1-.02-15.09-17.27-18.55-17.27-.23-.02-.46,.07-.62,.23-.16,.17-.25,.4-.23,.63,0,5.45,8.09,10.11,8.09,16.59,.09,.74-.15,1.49-.67,2.03-.52,.54-1.25,.82-2,.76-3.38,0-6.63-2.96-13.58-2.96-4.26,0-6.85,.24-6.85,4.15h-.35V29.62l8.65-.75v.35c-6.57,2.94-7.72,4.84-7.72,11.12v8.24H7.9c6.88,0,9.89,3.32,12.88,3.32,.25,0,.48-.12,.64-.31s.24-.44,.21-.68c0-3.76-6.63-8.26-6.63-13.71-.06-.54,.11-1.07,.48-1.47,.37-.39,.89-.61,1.42-.58,4.46,0,.82,13.43,18.58,13.43h3.54c1.73,0,2.71-.52,2.71-2.31v-6.8c0-6.11-1.04-8.3-8.76-11.7v-.35Z"/><g><path d="M68.67,83.86c6.63,0,10.75,4.18,10.75,10.52v8.18h-.17c0-1.96-1.3-2.07-3.43-2.07-8.54,0-9.64-5.31-11.15-5.31-.12,0-.23,.03-.31,.12-.08,.08-.12,.2-.11,.31,0,1.94,5.07,3.83,5.07,6.84,.02,.37-.11,.72-.36,.99-.25,.26-.61,.41-.97,.4-2.27,0-2.39-3.36-5.93-3.36-2.13,0-3.43,.12-3.43,2.07h-.17v-8.36c0-6.57,3.75-10.35,10.23-10.35Zm.17,2.86c-5.79,0-9.94,2.45-9.94,7.7v2.45c-.04,.29,.05,.59,.25,.8,.2,.21,.49,.32,.78,.3h2.1c4.19,0,4.81,3.4,5.71,3.4,.22,0,.3-.18,.3-.36,0-1.3-4.34-3.65-4.34-5.4-.03-.27,.06-.54,.24-.73s.44-.3,.71-.29c2.14,0,2.09,3.39,11.17,3.39h1.28c1.33,0,1.84-.75,1.84-3.69,0-5.16-3.92-7.55-10.12-7.55Z"/><path d="M74.58,66.95l4.84,.66v14.53h-.17c0-1.96-1.3-2.07-3.43-2.07-8.05-.01-7.55-8.64-9.27-8.64-.12,0-.23,.03-.31,.12-.08,.08-.12,.2-.11,.31,0,2.72,4.04,5.06,4.04,8.3,.05,.37-.08,.74-.33,1.01-.26,.27-.63,.41-1,.38-1.69,0-3.32-1.48-6.79-1.48-2.13,0-3.42,.12-3.42,2.07h-.17v-14.09l4.32-.37v.17c-3.29,1.47-3.86,2.42-3.86,5.56v4.12h3.14c3.44,0,4.94,1.66,6.44,1.66,.12,0,.24-.06,.32-.16,.08-.09,.12-.22,.1-.34,0-1.88-3.31-4.13-3.31-6.85-.03-.27,.06-.54,.24-.73,.18-.2,.44-.3,.71-.29,2.23,0,.41,6.72,9.29,6.72h1.77c.86,0,1.35-.26,1.35-1.15v-3.4c0-3.06-.52-4.15-4.38-5.85v-.17Z"/><path d="M64.25,44.42c3.92,0,6.34,2.59,6.34,6.63,0,.84-.13,1.68-.37,2.48,1.65,.33,3.33,.48,5.01,.46h.58c2.13,0,3.43-.23,3.43-2.19h.17v6.8h-.17c0-1.96-1.3-2.07-3.43-2.07h-.58c-8.56,0-9.66-5.22-11.17-5.22-.12,0-.23,.03-.31,.12-.08,.08-.12,.2-.11,.31,0,1.94,5.07,3.83,5.07,6.84,.02,.37-.11,.72-.36,.99-.25,.26-.6,.41-.97,.4-2.27,0-2.39-3.45-5.25-3.45h-.09c-2.13,0-3.43,.11-3.43,2.07h-.17v-7.18c0-4.38,2.33-7,5.82-7Zm5.71,7.35c0-2.74-1.99-4.67-5.62-4.67-3.05,0-5.45,1.5-5.45,4.7v1.1c-.04,.29,.05,.59,.25,.8,.2,.21,.49,.32,.78,.3h2.19c3,0,4.13,3.49,5.02,3.49,.22,0,.3-.18,.3-.36,0-1.3-4.34-3.65-4.34-5.4-.03-.27,.06-.54,.24-.73s.44-.3,.71-.29c1.57,0,1.96,1.77,5.63,2.72,.2-.52,.29-1.08,.27-1.64h0Z"/><path d="M79.24,28.82h.17v6.57h-.17c-.12-1.61-1.07-2.13-2.82-1.53l-2.04,.71c-2.26,1.03-3.32,2.76-3.37,4.37-.05,1.62,.44,2.77,2.11,3.71,.12,.04,.23,.08,.35,.12l.56,.16s.07,.02,.1,.03l.05,.02c3.31,1.07,4.9,1.08,5.07-.96h.17v4.76h-.17c-.14-1.38-1.9-2.13-5.39-3.34l-.39-.14c-3.88-1.4-5.79-4.35-6.33-4.35-.19,0-.28,.08-.28,.27,0,.57,4.01,2.77,4.01,4.3,0,.27-.11,.52-.31,.69-.2,.18-.46,.26-.72,.23-2.27,0-6.75-6.57-11.69-6.57v-.23l17.58-6.2c2.42-.86,3.4-1.41,3.51-2.62Zm-7.56,6.7l-9.24,3.22c2.77,1.53,5.28,3.98,6.45,3.98,.1,.01,.21-.02,.28-.1s.11-.18,.09-.28c0-.62-2.8-2.18-2.8-3.19,0-.16,.05-.31,.16-.42s.26-.17,.42-.17c.59,0,2.32,2.17,4.69,3.47-.89-.79-1.41-1.93-1.42-3.12,.01-1.26,.5-2.48,1.36-3.4Z"/><path d="M58.44,11.29h.17c.14,1.59,2.31,2.91,5.45,4.5l4.2,2.14c2.64,1.21,3.85,4.86,5.15,4.84,.19,0,.27-.1,.27-.23,0-1.42-4.13-4.06-4.13-5.98,0-.49,.41-.88,.9-.87,1.45,0,2.21,3.07,5.38,3.07,2.13,0,3.42-.11,3.42-2.07h.17v6.69h-.17c0-1.96-1.29-2.08-3.42-2.08-2.4,0-3.47-3.42-4.27-3.42-.2-.02-.38,.12-.4,.33,0,1.17,2.84,2.56,2.84,4.39,.01,.18-.06,.35-.19,.47-.13,.12-.31,.18-.48,.15-.66,0-1.36-1.08-2.31-2.25l-8.89,4.54c-2.57,1.33-3.37,1.87-3.52,2.77h-.17v-6.54h.17c.11,1.73,1.12,2.16,2.74,1.33l7.81-3.95c-.29-.21-.59-.4-.91-.56l-4.37-2.23c-3.31-1.67-5.02-2.16-5.27-.26h-.17v-4.76Z"/><path d="M73.68,0C77.17,0,79.76,2.65,79.76,6.57c-.02,1.88-.46,3.73-1.27,5.42l-4.41,.17v-.17c3.55-1.15,5.27-3.23,5.27-5.76,0-2.33-1.58-4.52-4.35-4.52s-3.8,2.07-5.04,4.55l-.72,1.44c-1.01,2.05-2.33,4.04-5.42,4.04-3.29,0-5.74-2.42-5.74-5.85,.05-1.77,.47-3.51,1.24-5.1h3.43v.17c-3,1.12-4.27,2.91-4.27,5.04,0,2.42,1.64,4.04,4.06,4.04s3.46-1.9,4.32-3.6l.72-1.44C68.87,2.45,70.22,0,73.68,0Z"/></g></g></g></svg>