<svg xmlns="http://www.w3.org/2000/svg" viewBox="0 0 24.88 24.88"><defs><style>.cls-1{fill:none;stroke:#222823;stroke-miterlimit:10;stroke-width:0.5px;}</style></defs><g id="Calque_2" data-name="Calque 2"><g id="Calque_1-2" data-name="Calque 1"><path class="cls-1" d="M12.44,24.63a11.9,11.9,0,0,1-4.78-1,12.25,12.25,0,0,1-3.87-2.6A12.17,12.17,0,0,1,.25,12.38,12,12,0,0,1,3.79,3.76,11.72,11.72,0,0,1,7.66,1.18,12.23,12.23,0,0,1,12.44.25a12.32,12.32,0,0,1,4.79.93A11.93,11.93,0,0,1,21.1,3.76a12.2,12.2,0,0,1,2.59,3.85,12,12,0,0,1,.94,4.77,12.22,12.22,0,0,1-3.53,8.69,12.48,12.48,0,0,1-3.87,2.6A12,12,0,0,1,12.44,24.63Z"/><line class="cls-1" x1="0.85" y1="16.11" x2="24.01" y2="16.11"/><line class="cls-1" x1="0.79" y1="8.72" x2="24.09" y2="8.72"/><path class="cls-1" d="M12.44,24.63S22.73,14,12.44.48c0,0-9.94,10.78,0,24.15"/></g></g></svg>