<svg xmlns="http://www.w3.org/2000/svg" viewBox="0 0 123.03 123.03"><defs><style>.cls-1{fill:#44ff49;}</style></defs><g id="Calque_2" data-name="Calque 2"><g id="Calque_1-2" data-name="Calque 1"><circle class="cls-1" cx="61.52" cy="61.52" r="61.5"/><path d="M59.23,71.16A18.27,18.27,0,1,1,80.8,57.88,18.1,18.1,0,0,1,59.23,71.16ZM70.47,58.78a17.48,17.48,0,0,0,2.07-7.68,18.35,18.35,0,0,0-1.86-8.5,17.12,17.12,0,0,0-3-4.5.6.6,0,0,0-.77-.17,20.73,20.73,0,0,0-7.84,5.47,15.18,15.18,0,0,0-3.85,8.94A20.06,20.06,0,0,0,56,59.28l.45,1.54-.07,0c-.39-.49-.81-.95-1.16-1.46a16.22,16.22,0,0,1-2.84-9.94c0-.4.07-.8.06-1.2a1.77,1.77,0,0,0-.22-.56,2.42,2.42,0,0,0-.5.27.85.85,0,0,0-.21.3,15.93,15.93,0,0,0-2.42,8.59,12.44,12.44,0,0,0,4.69,10.06,15,15,0,0,0,8.45,3.2A11.49,11.49,0,0,0,73,65a15.93,15.93,0,0,0,2.82-8,18,18,0,0,0-1.15-8.22,2.46,2.46,0,0,0-.19-.4c-.05-.07-.17-.16-.23-.14s-.13.14-.15.23a2.82,2.82,0,0,0,0,.41c0,.66-.07,1.32-.15,2a13,13,0,0,1-.89,3.23A18.66,18.66,0,0,1,70.47,58.78Z"/><path d="M50.09,74.32a7.58,7.58,0,0,1,1.46.48,3.44,3.44,0,0,1,1.05.73,2.12,2.12,0,0,1,.54,1,2.88,2.88,0,0,1,0,1.36,2.39,2.39,0,0,1-.71,1.29,3,3,0,0,1-1.38.64,2.81,2.81,0,0,1,1.34,1.39,3.05,3.05,0,0,1,.11,1.88,3,3,0,0,1-.68,1.36,2.87,2.87,0,0,1-1.13.78,4.18,4.18,0,0,1-1.43.27,6.16,6.16,0,0,1-1.54-.17L42.14,84l2.58-11Zm-1.36,4.37a1.94,1.94,0,0,0,1.18,0,1.17,1.17,0,0,0,.66-.9,1.24,1.24,0,0,0,0-.66,1.09,1.09,0,0,0-.3-.48,1.65,1.65,0,0,0-.5-.32,5.34,5.34,0,0,0-.64-.21l-2.35-.55-.6,2.57Zm-.95,4.7a3.73,3.73,0,0,0,.72.09,1.71,1.71,0,0,0,.65-.09,1.18,1.18,0,0,0,.51-.34,1.49,1.49,0,0,0,.32-.68,1.45,1.45,0,0,0-.21-1.32,2.29,2.29,0,0,0-1.23-.67l-2.74-.64-.7,3Z"/><path d="M58.49,76.29l-2.57,11-2.51-.59L56,75.7Z"/><path d="M59.83,80a5.63,5.63,0,0,1,1.53-1.58,5.28,5.28,0,0,1,2.06-.82,6.27,6.27,0,0,1,2.46.11,6.2,6.2,0,0,1,2.27,1,5.24,5.24,0,0,1,1.47,1.65,5.64,5.64,0,0,1,.67,2.09,6.91,6.91,0,0,1-.15,2.38A6.68,6.68,0,0,1,69.23,87a5.51,5.51,0,0,1-1.53,1.55,5.21,5.21,0,0,1-2,.79,6.33,6.33,0,0,1-2.47-.11,6.23,6.23,0,0,1-2.26-1,5.06,5.06,0,0,1-1.48-1.62,5.33,5.33,0,0,1-.68-2.06,6.38,6.38,0,0,1,.14-2.33A6.78,6.78,0,0,1,59.83,80Zm1.44,4.17a3.72,3.72,0,0,0,.26,1.3,2.87,2.87,0,0,0,.77,1.07,3.09,3.09,0,0,0,1.36.65,3.14,3.14,0,0,0,1.52,0,2.84,2.84,0,0,0,1.15-.61,3.51,3.51,0,0,0,.81-1,5.43,5.43,0,0,0,.49-1.31,6.42,6.42,0,0,0,.16-1.44,3.62,3.62,0,0,0-.26-1.33,2.67,2.67,0,0,0-.76-1.07,3.09,3.09,0,0,0-1.36-.66,3.14,3.14,0,0,0-1.52,0,2.9,2.9,0,0,0-1.16.62,3.83,3.83,0,0,0-.81,1.08,5.74,5.74,0,0,0-.5,1.37A5.41,5.41,0,0,0,61.27,84.2Z"/><path d="M23.71,44.25l4.14,2L27,48.11,12.08,40.82l1.35-2.76a3.11,3.11,0,0,1,4.18-1.43l5.12,2.5a3.12,3.12,0,0,1,1.41,4.23Zm-1.81-.89.44-.89a1.14,1.14,0,0,0-.49-1.53l-5.12-2.51a1.11,1.11,0,0,0-1.47.52l-.46.94Z"/><path d="M33.7,37.05l-1.23,1.66-4.22-2.06-.74,1,3.7,2.75L30,42,16.72,32.14l1.83-2.47A3.12,3.12,0,0,1,22.92,29l4.57,3.41a3.18,3.18,0,0,1,1.26,2.2Zm-7.8-.61.61-.82a1.13,1.13,0,0,0-.22-1.57l-4.57-3.41a1.11,1.11,0,0,0-1.54.25l-.62.83Z"/><path d="M24.76,26.56a3.1,3.1,0,1,1,4.54-4.22l7.4,8a3.1,3.1,0,1,1-4.54,4.22Zm3.06-2.85a1,1,0,0,0-1.5-.09,1.07,1.07,0,0,0-.07,1.56l7.4,8a1.07,1.07,0,0,0,1.56,0,1,1,0,0,0,0-1.5Z"/><path d="M41,23.53l1.78,2.79a3,3,0,0,1-.93,4.27,3,3,0,0,1-4.3-.94l-5.84-9.19a3,3,0,0,1,1-4.29,3,3,0,0,1,4.26,1l1.78,2.79L37,21l-1.78-2.8a1,1,0,0,0-1.46-.36,1.08,1.08,0,0,0-.35,1.52l5.84,9.19a1.08,1.08,0,0,0,1.52.32,1,1,0,0,0,.29-1.48l-1.77-2.8Z"/><path d="M40.51,12.34l2.74,6.73,1.69-.69L42.2,11.65l1.88-.77,6.25,15.35L48.45,27l-2.74-6.73L44,21l2.74,6.73-1.89.77L38.62,13.1Z"/><path d="M52.65,10.81l-2.89.64,1.15,5.1L53,16.08l.45,2-2.13.48,1.15,5.1L55.38,23l.45,2L51,26.07,47.33,9.91,52.2,8.82Z"/><path d="M64.9,21.53a3.15,3.15,0,0,1-3.15,3.1l-3.08,0L58.8,8l3.08,0A3.13,3.13,0,0,1,65,11.21ZM63,11.2a1.1,1.1,0,0,0-1.1-1.1h-1l-.1,12.5h1.05a1.12,1.12,0,0,0,1.12-1.09Z"/><path d="M73,11.32,70,10.81,69.13,16l2.15.37-.36,2L68.78,18l-.91,5.15,2.91.52-.35,2-4.92-.87L68.39,8.45l4.91.86Z"/><path d="M77.89,28.35l-4.62-1.9,6.31-15.33,1.88.77L75.93,25.35l2.73,1.12Z"/><path d="M88.79,15.5l3,1.91-7.5,14.87-1.71-1.1L84,28.36l-1.86-1.18-2,2.47-1.71-1.09ZM84.9,26.55l4-8-5.54,7Z"/><path d="M96.49,26.84l-3.21,3.64-5.49,5.11L86.41,34.1,98.53,22.81l1.93,2.08L92.7,34.65,95.93,31l5.48-5.12,1.38,1.47L90.67,38.67,88.73,36.6Z"/><path d="M106,31.75l1.88,3L94.7,45l-1.08-1.73,2.51-1.93L95,39.44l-2.85,1.39L91,39.1Zm-8.26,8.31,7.07-5.47-8,3.95Z"/><path d="M110.06,44.08l-1-2.36L95.73,47.59l-.83-1.86,13.3-5.87-1-2.36,1.86-.82,2.91,6.58Z"/><path d="M114,50.46l-13.24,3.61a3.1,3.1,0,1,1-1.63-6l13.24-3.61.53,1.94L99.61,50a1.08,1.08,0,0,0-.76,1.36,1,1,0,0,0,1.32.72l13.24-3.61Z"/><path d="M98.58,61.58l-.17-2,4.53-1.25-.1-1.23-4.6.38-.17-2L114.58,54l.25,3.07A3.12,3.12,0,0,1,112,60.48l-5.68.47a3.18,3.18,0,0,1-2.39-.83Zm6.26-4.69.09,1a1.12,1.12,0,0,0,1.2,1l5.68-.47a1.1,1.1,0,0,0,1-1.19l-.08-1Z"/><path d="M112.59,68.4l.25-3L107.63,65l-.18,2.17-2-.17.18-2.17-5.21-.44-.25,2.95-2-.17.42-5L115,63.59l-.42,5Z"/><path d="M106.72,71.6l-1,3.82-2-.52,1-3.82Z"/><path d="M99.58,78.29l-4.18-2,.87-1.84,15,7.05-1.31,2.78a3.12,3.12,0,0,1-4.15,1.5l-5.16-2.43a3.11,3.11,0,0,1-1.47-4.2Zm1.82.86-.43.9a1.13,1.13,0,0,0,.52,1.52L106.65,84a1.1,1.1,0,0,0,1.45-.54l.45-.95Z"/><path d="M89.72,85.64,90.92,84l4.26,2,.71-1-3.74-2.7,1.19-1.65,13.45,9.67-1.8,2.5a3.12,3.12,0,0,1-4.36.72L96,90.16A3.23,3.23,0,0,1,94.71,88Zm7.81.48-.6.83a1.14,1.14,0,0,0,.24,1.57l4.64,3.33a1.1,1.1,0,0,0,1.53-.27l.61-.84Z"/><path d="M98.84,96a3.1,3.1,0,1,1-4.48,4.29l-7.53-7.85a3.1,3.1,0,1,1,4.47-4.29Zm-3,2.9a1,1,0,0,0,1.51.06,1.07,1.07,0,0,0,.05-1.55l-7.54-7.86a1.08,1.08,0,0,0-1.56,0,1,1,0,0,0,0,1.51Z"/><path d="M82.59,99.3l-1.82-2.77a3,3,0,0,1,.86-4.28,3,3,0,0,1,4.32.87l6,9.1a3.1,3.1,0,0,1-5.18,3.41l-1.82-2.77,1.68-1.11,1.82,2.77a1,1,0,0,0,1.47.34,1.08,1.08,0,0,0,.33-1.52l-6-9.1a1.08,1.08,0,0,0-1.53-.3,1,1,0,0,0-.27,1.49l1.82,2.76Z"/><path d="M83.32,110.46l-2.85-6.69-1.68.72,2.85,6.68-1.87.8-6.5-15.24,1.87-.8L78,102.62l1.68-.72-2.85-6.68,1.87-.8,6.5,15.24Z"/><path d="M71.2,112.2l2.87-.7-1.23-5.08-2.11.51-.48-2,2.11-.52-1.23-5.08-2.87.7-.48-2,4.85-1.17L76.53,113l-4.85,1.18Z"/><path d="M58.76,101.67a3.13,3.13,0,0,1,3.1-3.15l3.07,0,.14,16.56-3.08,0a3.12,3.12,0,0,1-3.15-3.1ZM60.85,112A1.11,1.11,0,0,0,62,113.05h1l-.09-12.49H61.87a1.1,1.1,0,0,0-1.1,1.09Z"/><path d="M50.86,112l2.92.46.82-5.16L52.45,107l.33-2,2.15.34.82-5.17-2.92-.46.32-2,4.93.79-2.61,16.36L50.53,114Z"/><path d="M45.67,95.06l4.64,1.82-6.07,15.44-1.89-.75L47.68,98,44.92,97Z"/><path d="M35,108.07l-3-1.86,7.26-15,1.74,1.07-1.4,2.84,1.88,1.16,1.93-2.51,1.73,1.07ZM38.67,97,34.76,105l5.44-7.1Z"/><path d="M27.1,96.88l3.15-3.69,5.4-5.2,1.41,1.46L25.13,101l-2-2L30.76,89,27.6,92.69l-5.41,5.2-1.4-1.45L32.73,85l2,2Z"/><path d="M17.54,92.13l-1.93-3,13-10.42,1.1,1.71-2.47,2,1.2,1.85,2.82-1.44,1.1,1.71Zm8.12-8.45-7,5.6,8-4.09Z"/><path d="M13.25,79.88l1.09,2.34,13.18-6.09L28.38,78l-13.19,6.1,1.08,2.34-1.85.85-3-6.53Z"/><path d="M9.25,73.54l13.18-3.83a3.1,3.1,0,0,1,1.73,6L11,79.49l-.56-1.93L23.6,73.73a1.07,1.07,0,0,0,.73-1.37,1,1,0,0,0-1.33-.7L9.82,75.49Z"/><path d="M24.44,62.18l.2,2.05-4.51,1.32.13,1.23,4.59-.46.2,2L8.56,70l-.3-3.06a3.12,3.12,0,0,1,2.8-3.42l5.68-.56a3.15,3.15,0,0,1,2.4.79ZM18.25,67l-.1-1a1.13,1.13,0,0,0-1.22-1l-5.67.56a1.1,1.1,0,0,0-1,1.22l.1,1Z"/><path d="M10.33,55.57l-.2,3,5.21.36.15-2.17,2,.13L17.37,59l5.22.35.2-2.95,2,.14-.34,5L8,60.41l.34-5Z"/><path d="M16.13,52.29l1-3.84,2,.5-.95,3.83Z"/></g></g></svg>