<svg xmlns="http://www.w3.org/2000/svg" viewBox="0 0 328.37 27.6"><defs><style>.cls-1{fill:#1d1d1b;}</style></defs><g id="Calque_2" data-name="Calque 2"><g id="Header"><path class="cls-1" d="M9.47,26.77c4.5,0,8.88-1.79,8.88-5.13,0-6.81-18-5.39-18-14.71C.37,2.17,4.91,0,9.47,0c4.87,0,9.81,2.4,9.63,6.7-.79-4-4.57-5.8-8.24-5.8C7,.9,3.18,2.85,3.18,6c0,6.85,18.43,4.34,18.43,14,0,5.17-5.55,7.53-11,7.53S0,25.31,0,21.27a6,6,0,0,1,.19-1.35C-.3,24.64,4.64,26.77,9.47,26.77Z"/><path class="cls-1" d="M26.47.52H43.1l.45,2.4s-.3,0-.34-.11c-.49-.83-3.93-1.69-9.44-1.69H29.88v25h4.9c6.82,0,9.59-1.46,9.85-2.06,0-.12.3-.12.3-.12l-1,2.78H26.47Zm6.25,11.72c1.8,0,4.2,1.73,6.07,1.73a2.18,2.18,0,0,0,1.83-.9,2.24,2.24,0,0,1-2.09,1.57c-1.84,0-4.16-1.8-6-1.8-.93,0-1.72.45-2.24,1.84C30.78,12.81,31.64,12.24,32.72,12.24Z"/><path class="cls-1" d="M52.38,3.52l-1.8,15.05c-.07.71-.11,1.43-.11,2,0,3.9,1.5,5.66,2.1,5.85.15,0,.15.3.15.3H49.08L52.15.52H55L65,22.35,75,.52h2.13l3.11,26.22H76.72L74,4.08,63.69,26.74H63Z"/><path class="cls-1" d="M85.81.52h16.63l.45,2.4s-.3,0-.34-.11c-.49-.83-3.93-1.69-9.44-1.69H89.22v25h4.9c6.82,0,9.59-1.46,9.85-2.06,0-.12.3-.12.3-.12l-1,2.78H85.81Zm6.25,11.72c1.8,0,4.2,1.73,6.07,1.73a2.21,2.21,0,0,0,1.84-.9,2.26,2.26,0,0,1-2.1,1.57c-1.84,0-4.16-1.8-6-1.8-.94,0-1.73.45-2.25,1.84C90.12,12.81,91,12.24,92.06,12.24Z"/><path class="cls-1" d="M109,.52h1.58l19.84,21.27v-14c0-4.35-1.57-6.74-2.24-7-.12,0-.12-.3-.12-.3h3V26.74h-.6L109.62,4.42V18.57c0,5.32,1.61,7.64,2.29,7.87.15,0,.15.3.15.3h-3Z"/><path class="cls-1" d="M162,21.19c-2,3.75-4.95,6.11-10.86,6.11-10.3,0-15.43-6.86-15.43-13.67,0-8.76,6.82-13.44,14.6-13.44,5.06,0,6.82,1.94,6.82,3.59a2.24,2.24,0,0,1-3,2.14,5.15,5.15,0,0,0,.23-1.39c0-2.92-3.6-3.71-5.21-3.71-6.85,0-10,4.95-10,10.49,0,7.08,5.06,15.13,13.82,15.13C157,26.44,159.87,24.15,162,21.19Z"/><path class="cls-1" d="M165.33.52H182l.45,2.4s-.3,0-.34-.11c-.49-.83-3.93-1.69-9.43-1.69h-3.9v25h4.91c6.81,0,9.58-1.46,9.84-2.06,0-.12.3-.12.3-.12l-1,2.78H165.33Zm6.26,11.72c1.79,0,4.19,1.73,6.06,1.73a2.21,2.21,0,0,0,1.84-.9,2.26,2.26,0,0,1-2.1,1.57c-1.83,0-4.16-1.8-5.95-1.8-.94,0-1.73.45-2.25,1.84C169.64,12.81,170.5,12.24,171.59,12.24Z"/><path class="cls-1" d="M197.83,11.71h4.51c4.87,0,8.82,3.24,8.82,7.51s-3.95,7.47-8.82,7.52h-4.51Zm4.4,14.68a7,7,0,0,0,6.83-7.17,7,7,0,0,0-6.83-7.17h-2.45V26.39Z"/><path class="cls-1" d="M213.33,11.71h9.54l.25,1.37s-.17,0-.19-.06c-.28-.48-2.25-1-5.41-1h-2.23V26.39h2.81c3.91,0,5.5-.83,5.65-1.18,0-.06.17-.06.17-.06l-.58,1.59h-10Zm3.59,6.72c1,0,2.4,1,3.48,1a1.29,1.29,0,0,0,1-.52,1.29,1.29,0,0,1-1.2.9c-1.06,0-2.39-1-3.42-1-.53,0-1,.26-1.29,1.05C215.8,18.75,216.3,18.43,216.92,18.43Z"/><path class="cls-1" d="M242.1,1.12V26.74h-3.44V.52h8.65c7,0,10.48,4.12,10.48,8.24,0,3.18-3.22,7.53-9,7.53a15.37,15.37,0,0,1-6.15-1.46,12.11,12.11,0,0,0,3.49.52c4.86,0,7.9-3.44,7.9-6.59a7.44,7.44,0,0,0-7.87-7.64Z"/><path class="cls-1" d="M282.88,26.74H279.1l-1.5-2.93c-2.17-3.66-7.12-7.22-11.54-7.22a6.58,6.58,0,0,0-5.46,2.77,6,6,0,0,1,5.58-3.22c3.4,0,7.37,2.13,10,4.94L267.67,4.27l-8.16,16.14a9.49,9.49,0,0,0-1.16,4.12c0,1.12.38,1.79.71,1.91.15,0,.15.3.15.3h-3.56L269,.52h.63Z"/><path class="cls-1" d="M289.84,15.43,279.88.52H284L293.1,14l5.65-7.78c1.61-2.18,2.1-3.56,2.1-4.39a1,1,0,0,0-.56-1c-.12,0-.12-.3-.12-.3h3.56l-10.48,14.2v12h-3.41Z"/><path class="cls-1" d="M316.23,26.77c4.5,0,8.88-1.79,8.88-5.13,0-6.81-18-5.39-18-14.71,0-4.76,4.53-6.93,9.09-6.93,4.87,0,9.81,2.4,9.63,6.7-.79-4-4.57-5.8-8.24-5.8-3.89,0-7.68,2-7.68,5.13,0,6.85,18.43,4.34,18.43,14,0,5.17-5.55,7.53-11,7.53s-10.6-2.29-10.6-6.33a6,6,0,0,1,.19-1.35C306.46,24.64,311.4,26.77,316.23,26.77Z"/></g></g></svg>