<?xml version="1.0" encoding="utf-8"?>
<!-- Generator: Adobe Illustrator 26.3.1, SVG Export Plug-In . SVG Version: 6.00 Build 0)  -->
<svg version="1.1" id="Calque_1" xmlns="http://www.w3.org/2000/svg" xmlns:xlink="http://www.w3.org/1999/xlink" x="0px" y="0px"
	 viewBox="0 0 227.4 124.3" style="enable-background:new 0 0 227.4 124.3;" xml:space="preserve">
<style type="text/css">
	.st0{fill:#B9D6E8;}
	.st1{fill:#557155;}
</style>
<path class="st0" d="M177.2,23.7c11.8,5.5,23.2,11.7,34.8,17.7c0-0.1-0.1-0.1-0.1-0.2c12,4.4,12.5,15.7,13.7,25.4
	c0.5,3.6-4.5,9.9-8.5,12c-23.9,12.2-47.6,25.2-72.6,34.8c-37,14.1-74.2,11.4-110.3-5.1C19.8,101.7,9.3,91.4,3.9,76.5
	c-6-16.7-0.5-30.8,11-43c20.4-21.6,46.9-29,75.3-30.7C121.1,1,149.6,10.9,177.2,23.7z"/>
<g>
	<path class="st1" d="M23,58.3c-0.1-0.2-0.2-0.4-0.2-0.7c0-0.1,0-0.2,0-0.2c0-0.1,0-0.1,0-0.2c0-0.4,0.1-0.7,0.2-1.1
		c0.1-0.3,0.3-0.6,0.6-0.9c0.2-0.2,0.5-0.4,0.9-0.6c0.3-0.1,0.7-0.2,1.1-0.2h0.1c0.8,0,1.5,0.2,1.9,0.5c0.5,0.3,0.9,0.7,1.2,1.2
		c0.3,0.5,0.6,1,0.8,1.5s0.5,1,0.8,1.5c0.3,0.5,0.7,0.9,1.2,1.2c0.5,0.3,1.2,0.5,2,0.5s1.4-0.2,2-0.5c0.6-0.3,0.8-0.9,0.8-1.7
		s-0.3-1.5-1-2.1c-0.6-0.6-1.4-1.1-2.4-1.7c-1-0.5-2-1-3.1-1.5c-1.1-0.5-2.1-1.1-3.1-1.7c-1-0.6-1.8-1.4-2.4-2.3
		c-0.6-0.9-1-1.9-1-3.2c0-1,0.2-1.8,0.6-2.5s1-1.3,1.7-1.8c0.8-0.6,1.6-0.9,2.6-1.2c1-0.2,2-0.4,3.2-0.4c1.3,0,2.4,0.1,3.4,0.3
		c1,0.2,1.8,0.4,2.5,0.7s1.3,0.6,1.7,1c0.5,0.4,0.8,0.7,1.1,1.1c0.1,0.2,0.3,0.4,0.4,0.6c0.1,0.2,0.2,0.4,0.2,0.7c0,0.1,0,0.1,0,0.2
		c0,0.1,0,0.1,0,0.1c0,0.3-0.1,0.7-0.2,1c-0.1,0.3-0.3,0.6-0.6,0.8s-0.6,0.4-0.9,0.5c-0.3,0.1-0.7,0.2-1,0.2c-0.7,0-1.2-0.1-1.6-0.4
		c-0.4-0.3-0.7-0.6-1-1c-0.3-0.4-0.5-0.8-0.7-1.3s-0.5-0.9-0.8-1.3c-0.3-0.4-0.7-0.7-1.1-1c-0.4-0.3-1-0.4-1.7-0.4
		c-0.5,0-1,0.2-1.4,0.5c-0.5,0.4-0.7,0.9-0.7,1.7s0.3,1.5,0.9,2c0.6,0.5,1.4,1,2.4,1.4c0.9,0.4,2,0.9,3.1,1.3
		c1.1,0.4,2.1,0.9,3.1,1.5c0.9,0.6,1.7,1.4,2.4,2.3c0.6,0.9,0.9,2.1,0.9,3.4c0,0.9-0.2,1.8-0.6,2.6c-0.4,0.8-1,1.5-1.8,2
		c-0.8,0.6-1.7,1-2.9,1.3c-1.1,0.3-2.4,0.5-3.8,0.5c-1.5,0-2.9-0.1-4-0.4c-1.1-0.3-2.1-0.6-2.9-1c-0.8-0.4-1.4-0.9-1.9-1.4
		S23.2,58.7,23,58.3z"/>
	<path class="st1" d="M43.1,61.3c0-0.3,0.1-0.6,0.3-0.8c0.2-0.2,0.4-0.5,0.7-0.7c0.2-0.2,0.5-0.5,0.7-0.8s0.3-0.6,0.3-1V44.9
		c0-0.3-0.1-0.6-0.3-0.9c-0.2-0.3-0.4-0.5-0.7-0.8c-0.2-0.2-0.5-0.5-0.7-0.8c-0.2-0.2-0.3-0.4-0.3-0.8c0-0.3,0.1-0.6,0.3-0.9
		c0.2-0.2,0.5-0.3,0.8-0.3h15.4c0.3,0,0.6,0.1,0.7,0.3c0.2,0.2,0.3,0.4,0.3,0.8v4.1c0,0.2,0,0.4,0,0.7c0,0.2-0.1,0.5-0.1,0.7
		c-0.1,0.2-0.2,0.4-0.4,0.5c-0.2,0.1-0.4,0.2-0.7,0.2s-0.6-0.1-0.8-0.3s-0.4-0.5-0.5-0.9c-0.2-0.4-0.3-0.7-0.5-1.1
		c0-0.5-0.2-0.9-0.5-1.2c-0.3-0.4-0.6-0.6-1-0.9c-0.4-0.2-0.9-0.3-1.6-0.3h-1.6c-0.5,0-0.9,0.1-1.3,0.4c-0.4,0.3-0.6,0.7-0.6,1.1
		v2.9c0,0.8,0,1.8,0,2.8h3.9c0.5,0,0.8-0.1,1.1-0.3s0.5-0.4,0.7-0.7c0.2-0.3,0.4-0.5,0.5-0.7c0.2-0.2,0.4-0.3,0.6-0.3
		c0.3,0,0.5,0.1,0.6,0.3c0.1,0.2,0.2,0.4,0.2,0.6v4.1c0,0.2-0.1,0.4-0.2,0.6c-0.1,0.2-0.3,0.3-0.6,0.3c-0.2,0-0.4-0.1-0.6-0.3
		c-0.2-0.2-0.4-0.4-0.5-0.7c-0.2-0.2-0.4-0.5-0.7-0.7c-0.3-0.2-0.7-0.3-1.1-0.3H51V55v2c0,0.3,0,0.6,0,0.9c0.1,0.6,0.3,1,0.7,1.3
		c0.4,0.3,0.8,0.5,1.2,0.5h1.9c0.7,0,1.2-0.1,1.7-0.3c0.4-0.2,0.8-0.5,1.1-0.9c0.3-0.3,0.6-0.7,0.8-1.1c0.2-0.4,0.4-0.8,0.6-1.1
		c0.2-0.3,0.4-0.6,0.6-0.9c0.2-0.2,0.5-0.3,0.9-0.3c0.3,0,0.5,0.1,0.7,0.2c0.1,0.1,0.2,0.3,0.3,0.5c0,0.2,0.1,0.4,0,0.7
		c0,0.2,0,0.5-0.1,0.6l-0.6,4.1c0,0.3-0.2,0.5-0.4,0.7s-0.5,0.3-0.8,0.3H44.3c-0.3,0-0.6-0.1-0.8-0.3C43.3,61.9,43.1,61.6,43.1,61.3
		z"/>
	<path class="st1" d="M62.8,61.3c0-0.3,0.1-0.6,0.3-0.8s0.4-0.5,0.7-0.7c0.2-0.2,0.5-0.5,0.7-0.8c0.2-0.3,0.3-0.6,0.3-1V44.9
		c0-0.4-0.1-0.8-0.3-1c-0.2-0.3-0.4-0.5-0.7-0.7c-0.3-0.3-0.5-0.5-0.7-0.7c-0.2-0.2-0.3-0.5-0.3-0.8s0.1-0.6,0.4-0.9
		c0.2-0.2,0.5-0.3,0.8-0.3h5.5c0.4,0,0.7,0.1,1.1,0.3c0.3,0.1,0.5,0.4,0.7,0.8l6.4,14.5l6.1-14.5c0.1-0.3,0.3-0.6,0.6-0.8
		c0.3-0.2,0.6-0.3,1-0.3h5.2c0.3,0,0.6,0.1,0.8,0.3c0.2,0.2,0.3,0.5,0.3,0.9c0,0.5-0.2,0.8-0.6,1l-0.7,0.8c-0.3,0.4-0.5,0.9-0.5,1.4
		V58c0,0.6,0.2,1.1,0.6,1.5l0.7,0.8c0.4,0.2,0.6,0.5,0.6,1c0,0.3-0.1,0.6-0.3,0.9c-0.2,0.2-0.5,0.3-0.8,0.3h-7.4
		c-0.3,0-0.6-0.1-0.8-0.3c-0.3-0.3-0.4-0.6-0.4-0.9c0-0.5,0.2-0.8,0.6-1l0.7-0.8c0.4-0.5,0.6-1,0.6-1.5V48l-5.7,13.5
		c-0.1,0.3-0.3,0.5-0.6,0.7c-0.3,0.2-0.6,0.3-0.9,0.3h-1.9c-0.2-0.1-0.3-0.2-0.5-0.4c-0.1-0.1-0.3-0.2-0.4-0.4
		c-0.1-0.1-0.2-0.3-0.3-0.4l-6-13.3v9.9c0,0.4,0.1,0.7,0.3,1c0.2,0.3,0.4,0.5,0.7,0.8c0.2,0.2,0.5,0.5,0.7,0.7
		c0.2,0.2,0.3,0.5,0.3,0.8s-0.1,0.6-0.3,0.9c-0.2,0.2-0.5,0.3-0.8,0.3h-4.5c-0.3,0-0.6-0.1-0.8-0.3C62.9,61.9,62.8,61.6,62.8,61.3z"
		/>
	<path class="st1" d="M92.8,61.3c0-0.3,0.1-0.6,0.3-0.8c0.2-0.2,0.4-0.5,0.7-0.7c0.2-0.2,0.5-0.5,0.7-0.8s0.3-0.6,0.3-1V44.9
		c0-0.3-0.1-0.6-0.3-0.9c-0.2-0.3-0.4-0.5-0.7-0.8c-0.2-0.2-0.5-0.5-0.7-0.8s-0.3-0.6-0.3-0.9c0-0.3,0.1-0.6,0.3-0.9
		c0.2-0.2,0.5-0.3,0.8-0.3h15.4c0.3,0,0.6,0.1,0.7,0.3c0.2,0.2,0.3,0.4,0.3,0.8v4.1c0,0.2,0,0.4,0,0.7c0,0.2-0.1,0.5-0.1,0.7
		c-0.1,0.2-0.2,0.4-0.4,0.5c-0.2,0.1-0.4,0.2-0.7,0.2c-0.3,0-0.6-0.1-0.8-0.3c-0.2-0.2-0.4-0.5-0.5-0.9c-0.2-0.4-0.3-0.7-0.5-1.1
		c0-0.4-0.2-0.8-0.5-1.1c-0.3-0.4-0.6-0.6-1-0.9c-0.4-0.3-0.9-0.3-1.6-0.3h-1.6c-0.5,0-0.9,0.1-1.3,0.4s-0.6,0.7-0.6,1.1v2.9
		c0,0.8,0,1.8,0,2.8h3.9c0.5,0,0.8-0.1,1.1-0.3c0.3-0.2,0.5-0.4,0.7-0.7c0.2-0.2,0.4-0.5,0.6-0.7c0.2-0.2,0.4-0.3,0.6-0.3
		c0.3,0,0.5,0.1,0.6,0.3c0.1,0.2,0.2,0.4,0.2,0.6v4.1c0,0.2-0.1,0.4-0.2,0.6s-0.3,0.3-0.6,0.3c-0.2,0-0.4-0.1-0.6-0.3
		s-0.4-0.4-0.5-0.7c-0.2-0.2-0.4-0.5-0.7-0.7c-0.3-0.2-0.7-0.3-1.1-0.3h-3.9V55v2c0,0.3,0,0.6,0,0.9c0.1,0.6,0.3,1,0.7,1.3
		c0.4,0.3,0.8,0.5,1.2,0.5h1.9c0.7,0,1.2-0.1,1.7-0.3c0.4-0.2,0.8-0.5,1.1-0.9c0.3-0.3,0.6-0.7,0.8-1.1c0.2-0.4,0.4-0.8,0.6-1.1
		s0.4-0.6,0.6-0.9c0.2-0.2,0.5-0.3,0.9-0.3c0.3,0,0.5,0.1,0.7,0.2c0.1,0.1,0.2,0.3,0.3,0.5c0,0.2,0.1,0.4,0,0.7c0,0.2,0,0.5-0.1,0.6
		l-0.6,4.1c0,0.3-0.2,0.5-0.4,0.7c-0.2,0.2-0.5,0.3-0.8,0.3H94c-0.3,0-0.6-0.1-0.8-0.3C93,61.9,92.8,61.6,92.8,61.3z"/>
	<path class="st1" d="M112.5,61.3c0-0.3,0.1-0.6,0.3-0.8c0.2-0.2,0.4-0.5,0.7-0.7c0.2-0.2,0.5-0.5,0.7-0.8s0.3-0.6,0.3-1V44.9
		c0-0.4-0.1-0.8-0.3-1c-0.2-0.3-0.4-0.5-0.7-0.7c-0.2-0.2-0.5-0.5-0.7-0.7c-0.2-0.2-0.3-0.5-0.3-0.8s0.1-0.6,0.4-0.9
		c0.2-0.2,0.5-0.3,0.8-0.3h5.7c0.7,0,1.2,0.3,1.6,0.9l7,12.1v-8.6c0-0.4-0.1-0.7-0.3-1c-0.2-0.3-0.4-0.5-0.7-0.7
		c-0.2-0.2-0.5-0.5-0.7-0.7c-0.2-0.2-0.3-0.5-0.3-0.8c0-0.4,0.1-0.7,0.4-0.9c0.3-0.2,0.6-0.4,0.9-0.4h4.3c0.3,0,0.6,0.1,0.9,0.4
		c0.3,0.2,0.4,0.5,0.4,0.9c0,0.3-0.1,0.6-0.3,0.8c-0.2,0.2-0.4,0.5-0.7,0.7c-0.3,0.2-0.5,0.5-0.7,0.7c-0.2,0.3-0.3,0.6-0.3,1v16.3
		c0,0.4-0.1,0.7-0.4,0.9c-0.3,0.2-0.6,0.4-0.9,0.4h-2c-0.7,0-1.3-0.3-1.7-0.9l-8.6-15V58c0,0.4,0.1,0.7,0.3,1
		c0.2,0.3,0.4,0.5,0.7,0.8c0.2,0.2,0.5,0.5,0.7,0.7s0.3,0.5,0.3,0.8s-0.1,0.6-0.3,0.9c-0.2,0.2-0.5,0.3-0.9,0.3h-4.5
		c-0.3,0-0.6-0.1-0.8-0.3C112.6,61.9,112.5,61.6,112.5,61.3z"/>
	<path class="st1" d="M145.4,62.8c-1.9,0-3.6-0.3-5.1-1c-1.5-0.6-2.7-1.5-3.6-2.6c-1-1.1-1.7-2.3-2.2-3.6c-0.5-1.4-0.7-2.7-0.7-4.1
		s0.3-2.8,0.8-4.1c0.5-1.4,1.2-2.6,2.3-3.6c1-1.1,2.3-1.9,3.8-2.6c1.5-0.6,3.3-1,5.3-1c1.3,0,2.3,0.1,3.3,0.4c0.9,0.3,1.7,0.6,2.4,1
		c0.6,0.4,1.2,0.9,1.6,1.4c0.4,0.5,0.7,1,0.9,1.4c0.1,0.2,0.2,0.5,0.2,0.8c0,0.1,0,0.2,0,0.4c0,0.8-0.3,1.4-0.8,1.9
		s-1.1,0.8-1.8,0.8c-0.1,0-0.2,0-0.3,0s-0.2,0-0.3,0c-0.5-0.1-1-0.4-1.4-0.7c-0.4-0.4-0.7-0.8-1-1.3s-0.6-1-0.9-1.6
		c-0.3-0.5-0.6-1-0.9-1.5c-0.3-0.4-0.8-0.8-1.2-1c-0.7-0.3-1.3-0.3-2-0.2c-0.9,0.2-1.7,0.7-2.3,1.5c-0.6,0.9-1.1,1.9-1.4,3.1
		c-0.3,1.2-0.4,2.5-0.3,3.9c0.1,1.4,0.5,2.7,1.1,3.8c0.6,1.2,1.5,2.1,2.7,2.9s2.7,1.2,4.6,1.2c0.8,0,1.6-0.1,2.3-0.3
		s1.3-0.5,1.8-0.8c0.6-0.3,1.1-0.7,1.6-1.2c0.2-0.1,0.3-0.1,0.5,0c0.2,0.1,0.2,0.3,0.2,0.5c-0.5,1.1-1.1,2.1-2,3
		c-0.4,0.4-0.8,0.8-1.2,1.1c-0.5,0.4-1,0.7-1.6,1c-0.6,0.3-1.3,0.5-2,0.7C147,62.7,146.2,62.8,145.4,62.8z"/>
	<path class="st1" d="M155.9,61.3c0-0.3,0.1-0.6,0.3-0.8s0.4-0.5,0.7-0.7c0.2-0.2,0.5-0.5,0.7-0.8s0.3-0.6,0.3-1V44.9
		c0-0.3-0.1-0.6-0.3-0.9c-0.2-0.3-0.4-0.5-0.7-0.8c-0.2-0.2-0.5-0.5-0.7-0.8s-0.3-0.6-0.3-0.9c0-0.3,0.1-0.6,0.3-0.9
		c0.2-0.2,0.5-0.3,0.8-0.3h15.4c0.3,0,0.6,0.1,0.7,0.3c0.2,0.2,0.3,0.4,0.3,0.8v4.1c0,0.2,0,0.4,0,0.7c0,0.2-0.1,0.5-0.1,0.7
		c-0.1,0.2-0.2,0.4-0.4,0.5c-0.2,0.1-0.4,0.2-0.7,0.2s-0.6-0.1-0.8-0.3c-0.2-0.2-0.4-0.5-0.5-0.9c-0.2-0.4-0.3-0.7-0.5-1.1
		c-0.2-0.4-0.4-0.8-0.6-1.1c-0.3-0.4-0.6-0.6-1-0.9c-0.4-0.2-0.9-0.3-1.6-0.3h-1.6c-0.5,0-0.9,0.1-1.3,0.4c-0.4,0.3-0.6,0.7-0.6,1.1
		v2.9c0,0.8,0,1.8,0,2.8h3.9c0.5,0,0.8-0.1,1.1-0.3c0.3-0.2,0.5-0.4,0.7-0.7c0.2-0.2,0.4-0.5,0.6-0.7c0.2-0.2,0.4-0.3,0.6-0.3
		c0.3,0,0.5,0.1,0.6,0.3s0.2,0.4,0.2,0.6v4.1c0,0.2-0.1,0.4-0.2,0.6c-0.1,0.2-0.3,0.3-0.6,0.3c-0.2,0-0.4-0.1-0.6-0.3
		c-0.2-0.2-0.4-0.4-0.5-0.7c-0.2-0.2-0.4-0.5-0.7-0.7s-0.7-0.3-1.1-0.3h-3.9V55v2c0,0.3,0,0.6,0,0.9c0.1,0.6,0.3,1,0.7,1.3
		s0.8,0.5,1.2,0.5h1.9c0.7,0,1.2-0.1,1.7-0.3c0.4-0.2,0.8-0.5,1.1-0.9c0.3-0.3,0.6-0.7,0.8-1.1c0.2-0.4,0.4-0.8,0.6-1.1
		c0.2-0.3,0.4-0.6,0.6-0.9c0.2-0.2,0.5-0.3,0.9-0.3c0.3,0,0.5,0.1,0.7,0.2c0.1,0.1,0.2,0.3,0.3,0.5c0,0.2,0.1,0.4,0,0.7
		c0,0.2,0,0.5-0.1,0.6l-0.6,4.1c0,0.3-0.2,0.5-0.4,0.7s-0.5,0.3-0.8,0.3H157c-0.3,0-0.6-0.1-0.8-0.3C156,61.9,155.9,61.6,155.9,61.3
		z"/>
	<path class="st1" d="M175.8,58.3c-0.1-0.2-0.2-0.4-0.2-0.7c0-0.1,0-0.2,0-0.2c0-0.1,0-0.1,0-0.2c0-0.4,0.1-0.7,0.2-1.1
		c0.1-0.3,0.3-0.6,0.6-0.9c0.2-0.2,0.5-0.4,0.9-0.6c0.3-0.1,0.7-0.2,1.1-0.2h0.1c0.8,0,1.5,0.2,1.9,0.5c0.5,0.3,0.9,0.7,1.2,1.2
		s0.6,1,0.8,1.5s0.5,1,0.8,1.5s0.7,0.9,1.2,1.2c0.5,0.3,1.2,0.5,2,0.5s1.4-0.2,2-0.5s0.8-0.9,0.8-1.7s-0.3-1.5-1-2.1
		c-0.6-0.6-1.4-1.1-2.4-1.7c-1-0.5-2-1-3.1-1.5s-2.1-1.1-3.1-1.7c-1-0.6-1.8-1.4-2.4-2.3c-0.6-0.9-1-1.9-1-3.2c0-1,0.2-1.8,0.6-2.5
		c0.4-0.7,1-1.3,1.7-1.8s1.6-0.9,2.6-1.1c1-0.2,2-0.4,3.2-0.4c1.3,0,2.4,0.1,3.4,0.3s1.8,0.4,2.5,0.7s1.3,0.6,1.7,1
		c0.5,0.4,0.8,0.7,1.1,1.1c0.1,0.2,0.3,0.4,0.4,0.6c0.1,0.2,0.2,0.4,0.2,0.7c0,0.1,0,0.1,0,0.2s0,0.1,0,0.1c0,0.3-0.1,0.7-0.2,1
		c-0.1,0.3-0.3,0.6-0.6,0.8c-0.2,0.2-0.5,0.4-0.9,0.5c-0.3,0.1-0.7,0.2-1,0.2c-0.7,0-1.2-0.1-1.6-0.4c-0.4-0.3-0.7-0.6-1-1
		c-0.3-0.4-0.5-0.8-0.7-1.3s-0.5-0.9-0.8-1.3c-0.3-0.4-0.7-0.7-1.1-1c-0.4-0.3-1-0.4-1.7-0.4c-0.5,0-1,0.2-1.4,0.5s-0.7,0.9-0.7,1.6
		c0,0.8,0.3,1.5,0.9,2c0.6,0.5,1.4,1,2.4,1.4c0.9,0.4,2,0.9,3.1,1.3s2.1,0.9,3.1,1.5c0.9,0.6,1.7,1.4,2.4,2.3
		c0.6,0.9,0.9,2.1,0.9,3.4c0,0.9-0.2,1.8-0.6,2.6c-0.4,0.8-1,1.5-1.8,2c-0.8,0.6-1.7,1-2.9,1.3c-1.1,0.3-2.4,0.5-3.8,0.5
		c-1.5,0-2.9-0.1-4-0.4s-2.1-0.6-2.9-1c-0.8-0.4-1.4-0.9-1.9-1.4C176.4,59.2,176,58.7,175.8,58.3z"/>
	<path class="st1" d="M48.6,86.2c0-0.3,0.1-0.6,0.3-0.8c0.2-0.2,0.4-0.5,0.7-0.7c0.2-0.2,0.5-0.5,0.7-0.8c0.2-0.3,0.3-0.6,0.3-1v-13
		c0-0.3-0.1-0.6-0.3-0.9c-0.2-0.3-0.4-0.5-0.7-0.8c-0.2-0.2-0.5-0.5-0.7-0.8c-0.2-0.3-0.3-0.6-0.3-0.9c0-0.3,0.1-0.6,0.3-0.9
		c0.2-0.2,0.5-0.3,0.9-0.3h8.6c1.7,0,3.2,0.3,4.6,1c1.3,0.6,2.4,1.5,3.3,2.5c0.9,1,1.5,2.2,1.9,3.5c0.4,1.3,0.6,2.7,0.6,4.1
		c0,1.4-0.2,2.7-0.6,4.1c-0.4,1.3-1.1,2.5-2,3.5s-2,1.9-3.3,2.5s-2.8,0.9-4.6,0.9h-8.6c-0.3,0-0.6-0.1-0.9-0.3
		C48.7,86.9,48.6,86.6,48.6,86.2z M56.4,84.2c0,0.2,0.1,0.4,0.2,0.5c0.1,0.1,0.3,0.2,0.5,0.2h1.5c0.8,0,1.5-0.4,2-1.3
		c0.5-0.8,0.9-1.9,1.2-3.2c0.3-1.3,0.4-2.6,0.4-4.1s-0.1-2.8-0.4-4.1c-0.3-1.3-0.6-2.3-1.2-3.2c-0.5-0.8-1.2-1.3-2-1.3h-1.5
		c-0.3,0-0.5,0.1-0.6,0.3c-0.2,0.2-0.3,0.4-0.3,0.6v1.5l0,0v14.1H56.4z"/>
	<path class="st1" d="M70.2,86.2c0-0.3,0.1-0.6,0.3-0.8c0.2-0.2,0.4-0.5,0.7-0.7c0.2-0.2,0.5-0.5,0.7-0.8c0.2-0.3,0.3-0.6,0.3-1v-13
		c0-0.3-0.1-0.6-0.3-0.9c-0.2-0.3-0.4-0.5-0.7-0.8c-0.2-0.2-0.5-0.5-0.7-0.8c-0.2-0.3-0.3-0.6-0.3-0.9c0-0.3,0.1-0.6,0.3-0.9
		c0.2-0.2,0.5-0.3,0.8-0.3h15.4c0.3,0,0.6,0.1,0.7,0.3c0.2,0.2,0.3,0.4,0.3,0.8v4.1c0,0.2,0,0.4,0,0.7c0,0.2-0.1,0.5-0.1,0.7
		c-0.1,0.2-0.2,0.4-0.4,0.5c-0.2,0.1-0.4,0.2-0.7,0.2c-0.3,0-0.6-0.1-0.8-0.3c-0.2-0.2-0.4-0.5-0.5-0.9c-0.2-0.4-0.3-0.7-0.5-1.1
		c-0.2-0.4-0.4-0.8-0.6-1.1c-0.3-0.4-0.6-0.6-1-0.9c-0.4-0.2-0.9-0.3-1.6-0.3h-1.6c-0.5,0-0.9,0.1-1.3,0.4c-0.4,0.3-0.6,0.7-0.6,1.1
		v2.9c0,0.8,0,1.8,0,2.8h3.9c0.5,0,0.8-0.1,1.1-0.3c0.3-0.2,0.5-0.4,0.7-0.7c0.2-0.2,0.4-0.5,0.6-0.7c0.2-0.2,0.4-0.3,0.6-0.3
		c0.3,0,0.5,0.1,0.6,0.3c0.1,0.2,0.2,0.4,0.2,0.6v4.1c0,0.2-0.1,0.4-0.2,0.6c-0.1,0.2-0.3,0.3-0.6,0.3c-0.2,0-0.4-0.1-0.6-0.3
		c-0.2-0.2-0.4-0.4-0.5-0.7c-0.2-0.2-0.4-0.5-0.7-0.7c-0.3-0.2-0.7-0.3-1.1-0.3h-3.9V80v2c0,0.3,0,0.6,0,0.9c0.1,0.6,0.3,1,0.7,1.3
		c0.4,0.3,0.8,0.5,1.2,0.5h1.9c0.7,0,1.2-0.1,1.7-0.3c0.4-0.2,0.8-0.5,1.1-0.9c0.3-0.3,0.6-0.7,0.8-1.1c0.2-0.4,0.4-0.8,0.6-1.1
		c0.2-0.3,0.4-0.6,0.6-0.9c0.2-0.2,0.5-0.3,0.9-0.3c0.3,0,0.5,0.1,0.7,0.2c0.1,0.1,0.2,0.3,0.3,0.5c0,0.2,0.1,0.4,0,0.7
		c0,0.2,0,0.5-0.1,0.6l-0.6,4.1c0,0.3-0.2,0.5-0.4,0.7c-0.2,0.2-0.5,0.3-0.8,0.3H71.3c-0.3,0-0.6-0.1-0.8-0.3
		C70.3,86.9,70.2,86.6,70.2,86.2z"/>
	<path class="st1" d="M95.2,86.2c0-0.3,0.1-0.6,0.3-0.8c0.2-0.2,0.4-0.5,0.7-0.7c0.2-0.2,0.5-0.5,0.7-0.8c0.2-0.3,0.3-0.6,0.3-1v-13
		c0-0.3-0.1-0.6-0.3-0.9c-0.2-0.3-0.4-0.5-0.7-0.8c-0.2-0.2-0.5-0.5-0.7-0.8c-0.2-0.3-0.3-0.6-0.3-0.9c0-0.3,0.1-0.6,0.4-0.9
		c0.2-0.2,0.5-0.3,0.8-0.3h8.6c3.1,0,5.4,0.5,7.1,1.6s2.5,2.5,2.5,4.5c0,1.2-0.2,2.3-0.6,3.1c-0.4,0.9-1,1.6-1.7,2.2s-1.5,1-2.3,1.4
		c-0.9,0.3-1.7,0.6-2.6,0.7c-0.9,0.2-1.7,0.3-2.4,0.3s-1.4,0.1-1.9,0v3.8c0,0.5,0.1,0.9,0.3,1.2c0.2,0.3,0.4,0.5,0.7,0.7
		c0.2,0.2,0.5,0.4,0.7,0.6c0.2,0.2,0.3,0.4,0.3,0.7c0,0.3-0.1,0.6-0.4,0.9c-0.2,0.2-0.5,0.3-0.8,0.3h-7.4c-0.3,0-0.6-0.1-0.8-0.3
		C95.4,86.9,95.2,86.6,95.2,86.2z M103.1,77.2c0.5,0,1-0.1,1.6-0.2c0.6-0.1,1.2-0.4,1.7-0.7c0.6-0.3,1-0.8,1.4-1.4s0.6-1.4,0.6-2.5
		c0-1.4-0.2-2.4-0.7-3.3c-0.5-0.8-1.2-1.3-2.3-1.3h-1.3c-0.2,0.2-0.5,0.5-0.7,0.7c-0.1,0.4-0.3,0.8-0.3,1.3v0.5l0,0V77.2z"/>
	<path class="st1" d="M117.7,80.9c-0.3,0.9-0.4,1.6-0.3,2.1s0.2,1,0.4,1.4c0.2,0.4,0.4,0.7,0.6,1c0.2,0.3,0.3,0.6,0.3,0.9
		s-0.1,0.6-0.4,0.9c-0.2,0.2-0.5,0.3-0.8,0.3H113c-0.3,0-0.6-0.1-0.9-0.3c-0.2-0.2-0.3-0.5-0.3-0.9c0-0.3,0.1-0.6,0.3-0.8
		c0.2-0.2,0.5-0.5,0.8-0.7c0.3-0.2,0.6-0.6,0.9-1s0.5-0.9,0.7-1.6l3.6-12.5c0.1-0.5,0.1-0.8,0-1.1c-0.1-0.3-0.2-0.5-0.4-0.8
		c-0.2-0.2-0.3-0.4-0.5-0.6c-0.2-0.2-0.3-0.4-0.3-0.7c0-0.3,0.1-0.6,0.3-0.9c0.2-0.2,0.5-0.3,0.9-0.3h7.6c0.3,0,0.6,0.1,0.8,0.2
		c0.2,0.2,0.4,0.4,0.5,0.7l4.4,14.8c0.2,0.7,0.4,1.3,0.8,1.8c0.3,0.5,0.6,0.8,0.9,1.2c0.3,0.3,0.6,0.7,0.8,1
		c0.2,0.3,0.3,0.7,0.3,1.2c0,0.3-0.1,0.6-0.3,0.8c-0.2,0.2-0.4,0.3-0.7,0.4l0,0h-7.6c-0.3,0-0.6-0.1-0.9-0.3
		c-0.2-0.2-0.3-0.5-0.3-0.9s0.1-0.8,0.2-1.1c0.2-0.3,0.3-0.6,0.4-0.9c0.1-0.3,0.2-0.7,0.3-1.1c0-0.4,0-0.9-0.2-1.6l-0.4-1.4H118
		L117.7,80.9z M118.5,78h5.4l-2.7-9.1L118.5,78z"/>
	<path class="st1" d="M137.7,77.4l-4.1-7.5c-0.4-0.5-0.8-0.8-1.1-1.1c-0.3-0.3-0.6-0.5-0.9-0.7c-0.2-0.2-0.4-0.4-0.5-0.6
		c-0.1-0.2-0.1-0.5-0.1-0.9c0-0.3,0.2-0.6,0.5-0.8s0.6-0.3,0.9-0.3h6.7c0.3,0,0.6,0.1,0.7,0.3c0.2,0.2,0.3,0.5,0.3,0.8
		c0,0.3,0,0.7,0,1c0,0.4,0,0.7,0,1.1s0.1,0.8,0.2,1.2c0.1,0.4,0.3,0.9,0.6,1.5l1.4,2.6c0.2-0.4,0.4-0.8,0.6-1.2s0.3-0.8,0.5-1.2
		c0.1-0.4,0.2-0.7,0.3-1c0.1-0.3,0.2-0.5,0.2-0.7l0,0c0.2-0.3,0.2-0.6,0.2-0.9c0-0.3,0-0.5-0.1-0.7c-0.1-0.2-0.2-0.5-0.3-0.7
		c-0.1-0.2-0.2-0.5-0.3-0.9c-0.1-0.4,0-0.7,0.2-0.9c0.2-0.2,0.5-0.4,0.9-0.4h3.8c0.3,0,0.7,0.1,1,0.4c0.3,0.2,0.5,0.5,0.5,0.9
		c0,0.3,0,0.5-0.2,0.7c-0.2,0.2-0.5,0.4-0.8,0.6c-0.3,0.2-0.7,0.4-1,0.7c-0.4,0.3-0.7,0.6-0.9,1.1l-3.3,7.4l0,0v5.7
		c0,0.5,0.1,0.9,0.3,1.2c0.2,0.3,0.4,0.5,0.7,0.7c0.2,0.2,0.5,0.4,0.7,0.6c0.2,0.2,0.3,0.4,0.3,0.7c0,0.3-0.1,0.6-0.4,0.9
		c-0.3,0.2-0.6,0.4-1,0.4h-7.1c-0.3,0-0.6-0.1-0.9-0.3c-0.3-0.2-0.4-0.5-0.4-0.9c0-0.3,0.1-0.6,0.3-0.8c0.2-0.2,0.4-0.5,0.7-0.7
		c0.2-0.2,0.5-0.5,0.7-0.8c0.2-0.3,0.3-0.6,0.3-1L137.7,77.4L137.7,77.4z"/>
	<path class="st1" d="M149.9,83.2c-0.1-0.2-0.2-0.4-0.2-0.7c0-0.1,0-0.2,0-0.2c0-0.1,0-0.1,0-0.2c0-0.4,0.1-0.7,0.2-1.1
		c0.1-0.3,0.3-0.6,0.6-0.9c0.2-0.2,0.5-0.4,0.9-0.6c0.3-0.1,0.7-0.2,1.1-0.2h0.1c0.8,0,1.5,0.2,1.9,0.5c0.5,0.3,0.9,0.7,1.2,1.2
		s0.6,1,0.8,1.5s0.5,1,0.8,1.5s0.7,0.9,1.2,1.2c0.5,0.3,1.2,0.5,2,0.5s1.4-0.2,2-0.5c0.6-0.3,0.8-0.9,0.8-1.7c0-0.8-0.3-1.5-1-2.1
		c-0.6-0.6-1.4-1.1-2.4-1.7c-1-0.5-2-1-3.1-1.5s-2.1-1.1-3.1-1.7c-1-0.6-1.8-1.4-2.4-2.3c-0.6-0.9-1-1.9-1-3.2c0-1,0.2-1.8,0.6-2.5
		c0.4-0.7,1-1.3,1.7-1.8s1.6-0.9,2.6-1.1c1-0.2,2-0.4,3.2-0.4c1.3,0,2.4,0.1,3.4,0.3c1,0.2,1.8,0.4,2.5,0.7c0.7,0.3,1.3,0.6,1.7,1
		c0.5,0.4,0.8,0.7,1.1,1.1c0.1,0.2,0.3,0.4,0.4,0.6c0.1,0.2,0.2,0.4,0.2,0.7c0,0.1,0,0.1,0,0.2c0,0.1,0,0.1,0,0.1
		c0,0.3-0.1,0.7-0.2,1c-0.1,0.3-0.3,0.6-0.6,0.8c-0.2,0.2-0.5,0.4-0.9,0.5c-0.3,0.1-0.7,0.2-1,0.2c-0.7,0-1.2-0.1-1.6-0.4
		c-0.4-0.3-0.7-0.6-1-1s-0.5-0.8-0.7-1.3s-0.5-0.9-0.8-1.3s-0.7-0.7-1.1-1c-0.4-0.3-1-0.4-1.7-0.4c-0.5,0-1,0.2-1.4,0.5
		c-0.4,0.3-0.7,0.9-0.7,1.6c0,0.8,0.3,1.5,0.9,2c0.6,0.5,1.4,1,2.4,1.4c0.9,0.4,2,0.9,3.1,1.3s2.1,0.9,3.1,1.5
		c0.9,0.6,1.7,1.4,2.4,2.3c0.6,0.9,0.9,2.1,0.9,3.4c0,0.9-0.2,1.8-0.6,2.6c-0.4,0.8-1,1.5-1.8,2c-0.8,0.6-1.7,1-2.9,1.3
		c-1.1,0.3-2.4,0.5-3.8,0.5c-1.5,0-2.9-0.1-4-0.4s-2.1-0.6-2.9-1c-0.8-0.4-1.4-0.9-1.9-1.4S150.1,83.7,149.9,83.2z"/>
</g>
</svg>
