<svg xmlns="http://www.w3.org/2000/svg" viewBox="0 0 21.07 37.72"><defs><style>.cls-1{stroke:#000;stroke-miterlimit:10;stroke-width:1.31px;}.cls-2{fill:#44ff49;}</style></defs><g id="Calque_2" data-name="Calque 2"><g id="Calque_1-2" data-name="Calque 1"><path class="cls-1" d="M20.41,10.15a7.87,7.87,0,0,0-5-7.34l-.25-.1-.25-.1-.25-.11-.25-.1-.25-.1-.25-.1-.25-.1L13.4,2l-.25-.1-.25-.1-.25-.1-.25-.1-.25-.1-.25-.11-.25-.1a7.89,7.89,0,0,0-11,7.25c0,4.35,7.89,25.68,7.89,25.68s0-.1.1-.29c.1.25.15.39.15.39s0-.1.1-.29c.09.25.15.39.15.39l.1-.29c.09.25.15.39.15.39l.1-.29.14.39.11-.29.14.39.11-.29.14.39.11-.29.14.39.11-.28.14.39.11-.29.14.39.11-.29.14.39.11-.29.14.39.11-.29.14.39.11-.29.14.39.11-.29.14.39.11-.29.14.39.11-.29.14.39S20.41,14.5,20.41,10.15ZM8.66,9.86a3.86,3.86,0,0,1,3.08-3.78,3.84,3.84,0,0,1,.67,2.17A3.88,3.88,0,0,1,9.33,12,3.88,3.88,0,0,1,8.66,9.86Z"/><path class="cls-2" d="M8.68,1.37A7.4,7.4,0,0,0,1.29,8.76C1.29,12.38,7,28.38,8.68,33c1.69-4.63,7.39-20.63,7.39-24.25A7.4,7.4,0,0,0,8.68,1.37Zm0,11.47A4.36,4.36,0,1,1,13,8.48,4.37,4.37,0,0,1,8.68,12.84Z"/></g></g></svg>