<?xml version="1.0" encoding="UTF-8"?><svg id="Calque_2" xmlns="http://www.w3.org/2000/svg" viewBox="0 0 346.08 474.64"><defs><style>.cls-1{fill:#eee761;}.cls-2{fill:#e7c0c0;}.cls-3{fill:#8bbfea;}.cls-4{fill:#a8cdb8;}.cls-5{fill:#de9725;}.cls-6{fill:#d4d3e9;}.cls-7{fill:#d64763;}.cls-8{fill:#dfc78a;}.cls-9{fill:#556b49;}.cls-10{fill:#2a842f;}.cls-11{fill:#2e41ce;}.cls-12{fill:#7a8ec6;}</style></defs><g id="img"><g><path class="cls-1" d="M172.1,314.02c-2.68,2.08-3.66,4.11-4.03,5.63-.52,2.1,.08,3.36-.9,4.34-1.63,1.64-4.87-.29-5.78,.93-.23,.32-.63,1.28,2.81,6.35,3.07,4.51,4.38,5.22,6.95,9.22,.67,1.04,1.91,3.06,3.16,5.77,1.08,2.35,1.97,4.26,2.5,6.89,.47,2.3,1.11,5.4,.02,8.72-.74,2.24-1.47,2.17-4.93,7.06-1.64,2.32-3.25,4.62-4.74,7.82-1.55,3.34-2.36,5.14-2.14,7.62,.26,2.94,1.8,5.11,2.57,6.2,.72,1.01,1.87,2.63,3.93,3.8,1.63,.93,3.46,1.2,7.06,1.71,3.81,.53,5.33,.41,6.03,1.58,.52,.86,.3,1.93,.08,2.93-.46,2.15-1.49,2.56-2.15,4.19-.96,2.38-.44,5.73,1.56,7.82,1.06,1.12,1.75,.84,4.19,2.11,2.02,1.06,3.23,2.12,5.36,3.98,4.11,3.59,6.7,7.06,7.58,8.28,2.36,3.28,3.76,6.09,4.89,8.38,2.75,5.58,2.11,6.19,4.31,9.3,1.62,2.29,2.8,3.13,3.17,5.31,.35,2.08-.45,2.91-.28,5.21,.12,1.54,.56,2.31,2.31,5.79,2.47,4.9,3.7,7.55,6.26,10.96,.88,1.17,1.72,2.18,3.11,2.6,.39,.12,1.36,.35,4.58-.48,3.64-.94,3.53-1.53,5.05-1.51,2.38,.02,2.61,1.47,5.5,1.79,2.32,.25,4.15-.47,4.79-.73,.88-.36,2.7-1.24,4.2-3.08,1.54-1.89,1.42-3.18,2.86-3.86,1.03-.48,1.7-.11,2.92-.09,3.14,.05,4.2-2.35,8.84-4.92,2.88-1.59,4.35-2.41,6.46-2.41,2.09,0,2.62,.8,8.09,2.98,4.86,1.94,5.98,1.92,6.57,1.87,1.22-.1,2.23-.5,6.28-3.51,6.12-4.54,9.19-6.82,10.68-9.06,1.22-1.84,1.83-3.4,3.78-4.39,.62-.32,.98-.37,4.74-1.16,2.75-.58,4.13-.87,4.5-1,.51-.19,2.63-1.01,5.39-4.09,2.42-2.7,3.02-4.55,4.51-7.02,3.86-6.39,9.63-10.2,11.89-11.69,4.43-2.92,5.85-2.57,7.5-5.1,2.53-3.87,1.9-8.83,1.8-9.53-.38-2.69-1.12-2.49-1.69-6.02-.5-3.14-.07-4.24-.76-7-.6-2.36-1.51-3.92-1.94-4.71-4.58-8.63,.69-19.41-5.83-26.38-1.37-1.47-1.3-.67-5.27-3.93-3.73-3.07-6.62-5.5-8.62-9.32-.59-1.12-1.84-3.79-2.19-7.33-.42-4.23,.5-9.15,.58-15.95,0-.67,0-1.82-.76-2.54-1.21-1.13-3.21-.13-5.92,.1-3.45,.29-3.44-1.05-9.27-1.95-4.02-.62-7.13-.46-9.11-.34-2.67,.15-4.58,.28-6.96,1.16-1.1,.41-2.35,1.14-4.8,2.6-5.04,2.98-5.13,3.43-6.93,4-1.54,.49-4.39,1.39-6.94,.17-2.43-1.16-2.02-3.01-4.56-4.22-1.98-.94-4.64-.96-6.56,.17-1.94,1.13-1.77,2.62-3.34,3.74-2.8,1.98-7.29,.12-8.72-.45-13.56-5.42-28.29-7.3-42.22-11.7-7.79-2.46-19.54-5.25-35.1-5.51"/><path class="cls-12" d="M34.03,334.42c-.36,.33-.25,.45-1.44,2.09-1.7,2.35-2.24,2.53-2.88,3.73-.19,.35-1.21,2.34-.87,4.64,.18,1.2,.61,1.66,2.88,5.23,2.28,3.58,2.55,4.22,2.34,4.95-.53,1.89-3.74,2.46-4,2.51-3.38,.57-4.5-1.71-7.53-1.42-3.02,.28-2.83,2.63-6.5,4.03-4.9,1.87-9.69-.62-10.52,1.09-.41,.86,.71,1.62,.23,2.89-.56,1.49-2.34,1.1-3.39,2.53-.87,1.19-.48,3.14,.33,6.99,.83,3.98,1.25,3.72,1.05,4.77-.44,2.31-2.36,3.07-3.49,6.75-.29,.96-.33,1.46-.07,1.77,.71,.85,3.06-.25,5.05-.87,4.21-1.31,7.84-.8,12.82-.1,4.78,.67,4.56,1.54,9.16,1.95,3.24,.29,5.94,.5,8.86-.73,1.28-.54,2.01-1.11,6.29-5.15,6.89-6.51,6.52-6.47,7.74-7.23,3.72-2.32,4.62-1.15,10.13-4.21,3.79-2.11,5.04-3.6,5.67-4.46,1.19-1.65,1.7-3.22,2.51-5.69,.62-1.9,.92-2.86,.54-3.44-.9-1.33-3.47,.37-7.08-.76-1.11-.35-2.56-1.41-5.45-3.52-2.2-1.61-3.3-2.41-3.91-3.21-1.96-2.56-1.12-4.62-1.98-7.25-2.23-6.82-13.64-10.47-16.49-7.9Z"/><path class="cls-8" d="M213.95,146.22c1.93,.82,5.44,3.3,10.27,2.79,.45-.05,2.1-.52,5.41-1.46,8.23-2.34,5.01-1.69,8.97-2.78,3.18-.88,4.47-1.08,5.44-2.4,1.01-1.38,.49-2.36,1.49-3.21,1.61-1.37,4.97-.54,6.96,1.05,1.6,1.28,2.2,2.97,2.72,4.42,.46,1.29,.71,1.98,.41,2.73-.58,1.45-2.39,1.02-3.55,2.67-.54,.77-.6,1.79-.73,3.83-.13,2.08-.19,3.12,.38,4.09,.79,1.34,1.78,.99,2.57,2.25,.77,1.23,.19,2.13,.27,4.79,.07,2.45,.11,4.06,1.07,5.16,1.08,1.24,2.26,.64,7.15,1.48,.67,.11,.03,.02,6.86,1.63,2.97,.7,3.55,.83,4.46,1.36,.72,.42,2.69,1.71,3.82,4.17,.48,1.06,.61,2.09,.87,4.16,.29,2.35,.44,3.53-.06,4.27-1.1,1.61-3.52,.66-4.24,2-.78,1.44,1.75,2.98,1.47,5.78-.13,1.28-.73,1.68-2.48,4.31-.74,1.11-2.41,3.62-3.38,5.83-1.43,3.27-1.46,6.17-1.48,9-.03,3.83-.05,6.03,1.44,8.07,.91,1.25,2.13,1.92,4.55,3.27,4.4,2.44,5.22,1.67,7,3.31,2.55,2.36,3,5.95,3.28,8.14,.3,2.41,0,4.18-.07,4.65-.36,2.02-.9,5.04-2.92,6.1-2.62,1.38-5.42-1.79-7.21-.45-1.3,.97-.1,2.83-.95,6.82-.87,4.06-2.52,4.01-3.11,7.69-.62,3.88,.93,5.64-.42,7.11-1.17,1.27-2.48,.11-5.46,1.06-5.57,1.76-7.93,7.99-8.09,8.42-.3,.84-.44,1.47-.48,1.64-1.04,4.68-12.73,32.21-31.15,35.62-7.47,1.38-7.92-2.71-37.19-17.33-21.08-10.53-28.41-12.2-31.74-20.64-2.91-7.39-.98-15.46,.78-22.78,3.5-14.6,10.66-21.59,7.79-25.12-2.92-3.58-11.09,2.71-17.53-1.56-6.03-4-7.48-15.26-3.7-22.59,2.84-5.5,7.32-6.28,13.83-10.32,15.41-9.58,11.71-18.54,29.99-35.44,5.09-4.71,18.49-17.09,26.7-13.61Z"/><path class="cls-4" d="M215.88,147.55c-3.77-1.71-8.16,1.77-8.86,2.32-4.38,3.48-4.68,8.77-4.71,9.41-.1,2.53,.63,4.46,1.23,6.05,1.3,3.45,2.4,3.54,4.13,6.86,2.57,4.94,1.17,6.78,4.01,10.83,.88,1.26,2.78,3.96,4.84,3.66,1.81-.27,2.86-2.73,3.11-3.32,1.2-2.83-.16-4.19,.99-6.56,1.09-2.25,2.54-1.45,3.72-3.59,1.76-3.19-.7-6.34,1.46-8.83,.5-.57,.54-.3,1.62-1.3,1.44-1.33,3.27-3.03,2.95-4.74-.22-1.21-1.51-2.36-2.82-2.56-1.73-.27-2.52,1.24-5.64,1.67-1.15,.16-1.73,.24-2.17-.11-1.21-.95,.41-3.38-.57-6.17-.56-1.59-1.86-2.96-3.28-3.6Z"/><path class="cls-4" d="M188.04,180.51c-.61-1.73-1.41-3.06-1.15-5.12,.02-.13,.46-3.35,2.57-4.22,.3-.12,.7-.29,1.11-.14,.98,.36,.62,2.03,1.55,3.34,.78,1.1,1.66,.81,4,1.85,.41,.18,2.93,1.32,5.08,3.52,1.2,1.23,1.79,2.28,2.87,4.22,1.61,2.88,2.34,5.23,2.52,7.52,.13,1.58-.1,2.02-.33,2.27-1.06,1.14-3.25-.45-4.97,.72-1.14,.77-1.42,2.3-1.63,3.42-.36,1.94,.3,2.38,.06,3.94-.34,2.2-2.01,3.67-3.43,4.93-2.65,2.34-3.93,1.84-4.79,3.57-.99,1.99-.2,4.46,.11,5.43,.76,2.37,1.82,2.66,1.7,4.03-.05,.54-.29,1.36-3.71,4.04-3.18,2.5-4.11,2.68-5.73,4.47-1.19,1.3-1.95,2.13-2.39,3.45-1.29,3.87,2.02,6.28,.57,9.33-.97,2.04-3.29,2.73-3.47,2.78-2.67,.75-3.94-1.31-6.07-.77-2.65,.67-3.72,4.63-4.76,8.44-.96,3.54-1.97,7.25,.03,10.16,1.01,1.48,2.5,2.31,2.94,2.55,1.55,.85,2.21,.62,5.18,1.29,3.37,.76,2.78,1.12,6.52,2.04,2.37,.58,3.41,.63,3.96,1.57,.75,1.27-.1,3-.2,3.21-1.6,3.18-6.68,3.62-7.47,3.69-2.47,.22-3.21-.41-5.13,.3-.73,.27-2.65,.97-3.37,2.64-1.03,2.39,.72,5.96,3.26,7.31,2.19,1.16,3.87,.11,9.24-.2,3.45-.2,5.22-.27,6.92,.13,1.12,.27,4.66,1.25,7.56,4.43,.65,.71,2.32,2.58,3.19,5.46,.84,2.78,.13,3.86,1.37,5.82,.27,.42,1.65,2.61,4,2.84,1.59,.16,2.85-.66,3.38-1.01,2.77-1.85,2.04-4.28,4.54-7.19,1.37-1.6,2.83-2.3,5.64-3.65,1.2-.58,3.84-1.83,7.48-2.39,4.27-.66,4.85,.39,6.44-.67,2.07-1.38,1.53-3.45,4.4-6.82,1.05-1.23,2-1.98,2.67-2.52,1.6-1.27,7.25-5.75,12.5-4.1,.56,.18,3.09,.97,3.87,3.03,.58,1.53-.36,2.28-.81,5.37-.59,4.06,.74,4.73-.23,7.29-1.03,2.7-2.63,2.24-3.11,4.6-.47,2.32,.86,3.76-.18,6.28-.31,.76-.72,1.32-.91,1.58-1.2,1.64-2.18,1.72-3.28,2.8-1.5,1.46-2.45,4-1.89,5.99,.41,1.46,1.32,1.49,1.47,2.87,.18,1.62-1.01,2.04-1.18,3.85-.16,1.67,.82,1.8,1.54,4.57,.7,2.7,0,3.4,.96,5.17,.26,.48,1.25,2.27,2.71,2.37,1.69,.12,2.71-2.12,3.29-1.81,.6,.32,.44,3.28-1.34,5.08-.88,.89-2.34,1.42-5.25,2.47-1.98,.71-2.24,.67-2.71,1.14-1.17,1.16-.88,2.71-1.17,5.37-.03,.26-.47,2.07-1.35,5.7-1.71,7.02-1.93,7.5-2.47,8.14-1.33,1.57-3.39,2.71-4.92,3.56-1.98,1.09-2.54,1.06-3.13,1.91-1.29,1.85,.32,3.56-.72,5.82-.71,1.54-2.14,2.23-4.2,3.22-1.56,.75-3.07,1.21-7.11,1.86-5.38,.87-8.1,1.29-9.69,.5-1.67-.82-2.48-2.29-4.15-5.13-1.42-2.41-1.55-3.46-3.12-6.99-1.48-3.33-1.89-3.61-3.35-6.65-2.74-5.74-1.86-6-3.91-10.13-1.08-2.17-4.13-8.32-8.45-11.03-.4-.25-2.27-1.38-4.31-3.35-1.01-.98-1.52-1.46-1.93-2.17-1.11-1.93-.54-3.19-1.28-5.9,0,0-.33-1.19-1.42-3.33-1.24-2.44-13.52-19.81-35.39-22.96-11.18-1.61-9.06,2.77-44.5,11.28-20.09,4.83-29.15,5.43-34.75,13.59-1.47,2.14-4.23,7.03-9.75,13.08-3.02,3.32-6.38,6.44-11.2,7.53-1.63,.37-4.53,.98-6.86-.65-1.7-1.18-2.4-3.06-2.63-3.69-.45-1.21-1.3-3.13-.45-4.56,.54-.92,1.27-.79,1.92-1.6,1.29-1.6,.33-4.38-.01-5.36-.93-2.69-2.37-4.1-7.82-9.62-3.97-4.02-4.58-4.66-5.4-6.05-1.51-2.55-2.27-5.16-2.69-6.6-.41-1.39-.83-2.88-.98-4.93-.09-1.25-.2-2.85,.26-4.72,.58-2.34,1.78-3.89,2.79-5.17,3-3.8,4.65-3.22,6.3-6.16,.75-1.33,1.02-2.88,1.55-5.98,.6-3.45,.9-5.17,.6-7.02-.68-4.25-3.19-4.97-2.77-8.31,.05-.44,.37-2.67,2.08-4.1,1.03-.86,1.69-.7,3.07-1.37,2.01-.98,2.66-2.33,4.44-4.45,.85-1.01,2.3-2.33,5.19-4.96,4.61-4.19,5.05-3.49,9.31-7.23,5.11-4.48,7.09-7.77,10.23-8.75,.66-.21,1.87-.46,3-1.49,1.11-1,1.17-1.84,2.23-2.43,1.17-.65,1.83-.02,3.04-.28,2.59-.57,2.5-4.14,5.86-7.44,1.39-1.37,1.26-.62,4.22-2.85,4.36-3.29,4.04-4.49,7.01-6.11,3.06-1.68,4.61-1.07,5.55-2.74,.83-1.47,.4-3.29-.13-5.51-.58-2.44-1.2-2.7-1.72-5.13-.23-1.11-.62-2.96-.28-4.54,.75-3.51,4.99-5.36,6.23-5.96,9.49-4.59,10.69-16.34,22.06-24.37,9.33-6.58,24.19-9.73,32.96-3.46,3.41,2.44,4.88,5.64,7.82,12.05,2.16,4.71,7.77,16.94,2.99,22.89-1.31,1.63-3.76,3.24-3.31,5,.1,.37,.36,.9,2.37,2.12,1.98,1.2,3.61,1.83,5.9,2.69,1.99,.75,3.68,1.39,5.77,2.31,3.31,1.46,3.82,1.94,3.99,2.57,.29,1.09-.56,2.15-2.26,4.27-1.54,1.92-2.31,2.88-3.67,3.46-1.47,.62-2.87,.41-5.62-.04-4.44-.73-5.35-1.8-7.31-1.15-1.33,.44-3.02,1.62-3.21,3.33-.21,1.96,1.67,3.39,1.93,3.58,1.52,1.13,3.3,.99,4.49,.9,1.46-.11,1.48-.44,3.2-.77,.6-.11,1.49-.25,6.8,0,2.43,.11,2.76,.16,3.85,.13,2.23-.07,3.34-.11,4.1-.51,2.37-1.25,3.48-4.94,3.17-7.71-.14-1.25-.51-1.8-.35-3.19,.06-.51,.28-2.2,1.53-3.6,1.33-1.49,2.46-1.11,3.98-2.43,1.39-1.21,1.86-2.76,2.19-3.85,1.04-3.45-.49-4.99-1.24-10.74-.79-6.07,.65-6.38-.69-10.17Z"/><path class="cls-2" d="M254.88,20.43c-8.36-1.16-9.42-.49-10.49-1.75-2.94-3.48,3.26-10.84,.24-14.11-1.03-1.11-1.81-.32-7.97-1.63-5.12-1.09-5.42-1.81-7.77-1.65-3.93,.28-4.15,2.39-7.45,2.43-3.68,.04-3.96-2.58-9.08-3.49-3.38-.6-6,.06-7.68,.5-2.22,.58-4.59,1.2-5.08,2.82-.39,1.27,.76,1.9,1.87,5,.83,2.32,1.53,4.27,.83,6.05-.57,1.45-1.55,1.44-5.18,4.22-2.22,1.7-3.33,2.55-4.32,3.79-2.15,2.71-2.74,5.62-3.04,7.22-.45,2.36-.31,4.09-.13,6.3,.23,2.92,.37,4.4,1.41,5.07,.77,.5,1.31,.1,4.51-.02,2.4-.09,2.51,.11,3.79,0,2.69-.26,3.62-1.31,5.7-2.02,2.63-.9,7.31-1.31,10.33,1.39,2.03,1.81,2.95,4.72,2.66,7.19-.28,2.39-1.46,2.3-4.29,7.27-2.32,4.08-2.3,5.5-4.44,7.08-1.62,1.2-3.61,1.84-4.2,2.02-2.97,.94-4.38,.42-5.3,1.54-.85,1.03-.09,2.02-.15,4.57-.11,4.82-2.95,8.24-3.39,8.75-.69,.8-2.09,2.45-4.46,3.39-2.81,1.12-4.06,.09-5.85,1.32-1.83,1.25-1.09,2.71-2.99,5.49-1.64,2.41-3.21,3.28-6.21,5.42-5.16,3.69-11.13,9.35-10.29,10.85,.82,1.47,7.64-2.03,10.38,.97,1.07,1.17,1.14,2.93,1.79,2.91,.67-.02,.94-1.89,1.49-3.36,1.22-3.23,3.98-4.87,8.38-7.41,5.34-3.08,5.94-2.08,10.79-4.97,4.48-2.67,7.52-5.39,8.38-6.17,5.94-5.41,4.9-7.14,8.37-8.95,6.04-3.15,11.03,1.15,14.16-2.23,2.32-2.5,.36-5.66,3.67-9.1,.88-.91,2.42-2.14,4.36-3.09,.49-.24,1.85-.87,3.26-1.18,3.32-.72,6.03,.54,8.61,1.41,4.82,1.62,9.14,1.87,10.71,1.87,10.36,0,15.76-10.54,20.92-8.06,1.97,.94,1.59,2.67,4.39,3.97,2.34,1.08,3.8,.43,8.21,.47,5.28,.05,5.05,1.01,8.74,.81,3.34-.18,9.56-1.28,10.14-4.08,.29-1.39-1.04-3.01-3.71-6.24-1.58-1.91-2.56-2.67-3.49-4.63-.82-1.72-.82-2.71-1.14-3.76-1.49-4.86-8.95-7.62-13.85-8.37-5.47-.84-7.03,.93-10.22-1.03-1.58-.97-1.73-1.73-5.4-4.65-.84-.67-1.22-.93-4.33-3.17-6.57-4.73-6.58-4.76-7.05-5-1.96-.99-4.4-1.34-9.2-2.01Z"/><path class="cls-6" d="M181.36,100.66c1.31,1.99,.8,4.49,.6,5.44-.73,3.53-2.9,3.94-3.24,6.92-.25,2.12,.5,5.04,2.22,5.76,1.86,.77,3.36-1.66,8.89-4.39,1.57-.77,4.76-2.21,8.84-3.04,3.16-.64,5.6-1.13,8.69-.47,2.25,.48,4.26,1.67,8.28,4.06,3.54,2.1,4.19,2.91,4.46,3.27,1.59,2.13,2.22,5.08,1.64,7.68-.49,2.2-1.43,2.29-4.95,7.06-4.52,6.12-4.59,8.17-4.56,8.94,.07,2.49,1.43,4.11,.82,4.59-.69,.54-2.27-1.68-5.75-2.68-3.04-.88-5.74-.31-7.33,.03-1.88,.4-2.91,.61-3.9,1.5-1.75,1.57-1.08,3.19-2.54,4.11-1.88,1.18-3.85-.95-5.78,.25-1.24,.78-.89,1.96-2.2,3.95-1.53,2.31-3.15,2.36-4.49,3.71-3,3,.06,7.6-1.18,12.41-2.14,8.29-16.23,13.96-21.39,10.31-1.05-.74-1.88-2.68-3.33-6.62-2.77-7.47-2.44-9.33-4.44-10.76-2.91-2.09-7.22-.75-9.41-.07-3.82,1.19-6.35,3.49-9.37,6.25-3.81,3.48-2.7,3.63-4.96,5.14-3.92,2.61-6.74,1.81-11.97,5.24-1.16,.76-.92,.74-2.39,1.77-4.65,3.28-12.7,7.53-14.65,5.52-.66-.67,.02-1.4,.66-7.07,.38-3.38,.57-5.11,.21-6.93-.48-2.44-1.28-2.79-2.5-5.93-.61-1.57-1.75-4.51-1.8-7.87-.02-1.19-.1-6.96,3.62-10.34,1.31-1.19,2.16-1.24,9.51-2.8,10.96-2.33,10.61-2.53,13.83-2.88,5.77-.63,6.26,.1,9.33-.97,1.56-.55,5.61-1.96,8.47-5.72,2.09-2.75,1.62-4.21,3.96-6.15,2.56-2.12,4.46-1.49,5.16-3.1,1.11-2.55-3.28-5.07-2.38-8.14,.52-1.78,2.16-1.5,6.51-4.93,2.7-2.12,2.41-2.49,4.94-4.46,3.45-2.68,4.25-2.19,7.61-4.55,5.02-3.52,4.66-5.62,7.88-6.47,2.86-.75,6.71-.04,8.35,2.46Z"/><path class="cls-3" d="M204.52,155.27c.93-1.29,2.5-3.48,5.24-4.92,1.98-1.05,2.83-.78,3.54-1.84,.87-1.3,.73-3.42-.28-4.72-1.07-1.38-3.25-1.41-7.57-1.42-7.17-.02-8.91,1.37-9.47,1.87-1.15,1.03-.72,1.35-1.86,2.37-2.96,2.67-5.96,.55-9.05,2.66-1.25,.85-2.16,2.86-3.98,6.87-2.02,4.45-1.34,4.39-2.43,6.02-2,3.02-3.71,2.34-10.12,7.09-3.71,2.75-4.85,4.25-5.6,5.7-1.06,2.06-.57,2.58-1.59,3.85-2.13,2.66-5,1.29-8.29,3.79-2.22,1.69-1.28,2.59-3.77,4.97-1.49,1.42-2.36,1.61-8.22,4.38-5.89,2.78-6.76,3.42-7.42,4.62-1.07,1.95-1.34,5.01,.32,6.85,1.18,1.3,3.11,1.73,4.69,1.52,3.55-.47,3.66-3.93,7.8-5.07,1.05-.29,2.54-.31,5.51-.35,2.88-.04,3.53,.17,4.78-.19,2.4-.7,3.72-2.6,4.64-3.78,2.6-3.34,6.43-5.5,9.64-8.26,9.2-7.9,8.79-6.54,13.14-10.84,5.09-5.02,7.64-7.53,8.64-9.19,1.34-2.22,2.94-5.59,5.3-5.62,1.34-.02,2.34,1.04,3.24,.48,.69-.44,.56-1.37,.95-2.81,.41-1.51,1.08-2.45,2.21-4.01Z"/><path class="cls-3" d="M212.91,165.05c-.4,1.44,.06,3.26,1.2,4.09,1.4,1.03,3.45,.27,5.67-.55,2.23-.83,3.7-1.97,4.24-2.43,2.36-1.96,3.38-4.11,3.66-4.74,.39-.89,1.49-3.35,.66-4.09-.38-.34-1.06-.22-3.67,.79-2.4,.93-3.6,1.4-5.1,2.17-4.16,2.15-6.24,3.25-6.66,4.75Z"/><path class="cls-3" d="M226.35,254.16c.7-.03,1.27-2.81,1.26-5.06,0-2.14-.54-2.53-.78-4.91-.11-1.01-.36-3.75,.52-6.74,.94-3.15,2.16-3.25,2.42-5.97,.03-.36,.2-2.29-.72-4.43-.49-1.13-1.02-2.38-2.08-2.59-1.29-.27-2.7,1.12-3.29,2.37-.55,1.16-.41,2.24-.16,4.13,.34,2.56,.91,2.96,.79,4.6-.11,1.45-.62,1.86-1.02,3.21-.44,1.48-.37,2.79,.53,6.92,1.24,5.67,1.86,8.51,2.53,8.48Z"/><path class="cls-3" d="M68.52,246.15c1.73-1.38,2.98-2.5,4.02-3.53,3.39-3.32,3.41-4.33,3.38-4.74-.08-1.04-.79-2.14-1.78-2.54-.47-.19-1.55-.44-5.8,2.4-.6,.4-2.36,1.6-5.15,3.96-3.15,2.68-4.16,3.91-4.89,5-1.03,1.54-2.03,3.03-1.53,3.8,.78,1.19,4.79,.17,7.52-1.28,1.09-.58,2.13-1.41,4.22-3.07Z"/><path class="cls-3" d="M37.03,370c1.87,.56,4.82-2.9,6.15-5.75,.78-1.67,1.02-3.2,1.52-6.26,.76-4.65,.42-6.21,1.51-6.81,1.85-1.02,5.27,2.14,5.69,1.61,.39-.48-3-2.62-2.67-4.73,.39-2.57,5.77-1.85,9.57-6.23,.7-.8,1.5-2.66,3.12-6.37,3.14-7.21,3.05-8.49,4.69-9.33,2.82-1.46,6.89,.39,8.95,1.88,2.21,1.59,1.87,2.6,3.64,3.62,1.68,.96,3.86,1.12,11.14-1.15,4.71-1.47,7.51-2.35,11.89-4.51,7.16-3.54,6.54-4.59,11.37-6.74,6.69-2.97,12.82-3.15,17.71-3.3,3.33-.1,2.89,.18,14.78,.98,10.36,.7,9.84,.43,15.03,.92,5.02,.48,7.03,.87,15.95,1.8,8.78,.92,11.76,1.05,14.05-1.03,1.77-1.6,2.64-4.09,2.51-6.27-.23-3.99-3.76-6.57-6.09-8.23-6.28-4.46-9.91-3.12-17.79-6.22-8.03-3.16-6.16-5.3-15.13-9.31-3.2-1.43-8.56-2.75-19.28-5.39-7.3-1.8-10.99-2.69-12.81-2.52-4.22,.39-8.62,2.77-17.43,7.53-3.22,1.74-5.57,3.16-9.79,4.98-2.84,1.23-4.97,2.14-7.96,2.86-4.98,1.2-5.83,.3-9.64,1.37-2.32,.65-6.66,1.86-9.37,5.39-3.49,4.55-.64,8.2-4.14,12.15-2.76,3.12-5.06,1.45-8.71,4.91-2.49,2.36-1.54,3.25-5.44,9.98-2.85,4.92-4.28,7.39-6.63,9.27-2.52,2.01-4.35,2.39-4.97,4.53-.42,1.47-.08,3.12,.48,5.87,.51,2.51,.81,2.5,.76,3.47-.15,2.69-2.54,3.51-3.98,6.01-2.33,4.05-.88,10.37,1.3,11.02Z"/></g><g id="IHlP3O"><g><path class="cls-10" d="M199.31,301.47c4.95-.19,9.46,4.76,8,10.36-.97,3.72-2.88,6.95-5.23,9.95-.48,.61-.99,1.2-1.52,1.77-1.26,1.34-1.31,1.34-2.54,.02-2.04-2.19-3.73-4.62-5.07-7.3-.8-1.61-1.5-3.26-1.81-5.04-1.02-5.75,3.69-10.01,8.17-9.76Zm.04,3.18c-3.09-.02-5.39,2.29-5.41,5.41-.01,2.85,2.39,5.26,5.28,5.29,2.94,.04,5.39-2.37,5.41-5.31,.02-3.01-2.3-5.38-5.29-5.39Z"/><path class="cls-10" d="M199.32,327.54c.89,0,1.75,.13,2.52,.59,.74,.44,.75,1.06,.03,1.55-1.17,.79-4,.79-5.18,0-.71-.48-.7-1.11,.04-1.56,.79-.48,1.68-.58,2.59-.58Z"/></g></g><g id="IHlP3O-2"><g><path class="cls-11" d="M18.27,346.5c4.95-.19,9.46,4.76,8,10.36-.97,3.72-2.88,6.95-5.23,9.95-.48,.61-.99,1.2-1.52,1.77-1.26,1.34-1.31,1.34-2.54,.02-2.04-2.19-3.73-4.62-5.07-7.3-.8-1.61-1.5-3.26-1.81-5.04-1.02-5.75,3.69-10.01,8.17-9.76Zm.04,3.18c-3.09-.02-5.39,2.29-5.41,5.41-.01,2.85,2.39,5.26,5.28,5.29,2.94,.04,5.39-2.37,5.41-5.31,.02-3.01-2.3-5.38-5.29-5.39Z"/><path class="cls-11" d="M18.28,372.57c.89,0,1.75,.13,2.52,.59,.74,.44,.75,1.06,.03,1.55-1.17,.79-4,.79-5.18,0-.71-.48-.7-1.11,.04-1.56,.79-.48,1.68-.58,2.59-.58Z"/></g></g><g id="IHlP3O-3"><g><path class="cls-9" d="M119.23,185.06c4.95-.19,9.46,4.76,8,10.36-.97,3.72-2.88,6.95-5.23,9.95-.48,.61-.99,1.2-1.52,1.77-1.26,1.34-1.31,1.34-2.54,.02-2.04-2.19-3.73-4.62-5.07-7.3-.8-1.61-1.5-3.26-1.81-5.04-1.02-5.75,3.69-10.01,8.17-9.76Zm.04,3.18c-3.09-.02-5.39,2.29-5.41,5.41-.01,2.85,2.39,5.26,5.28,5.29,2.94,.04,5.39-2.37,5.41-5.31,.02-3.01-2.3-5.38-5.29-5.39Z"/><path class="cls-9" d="M119.24,211.14c.89,0,1.75,.13,2.52,.59,.74,.44,.75,1.06,.03,1.55-1.17,.79-4,.79-5.18,0-.71-.48-.7-1.11,.04-1.56,.79-.48,1.68-.58,2.59-.58Z"/></g></g><g id="IHlP3O-4"><g><path class="cls-7" d="M237.23,21.9c4.95-.19,9.46,4.76,8,10.36-.97,3.72-2.88,6.95-5.23,9.95-.48,.61-.99,1.2-1.52,1.77-1.26,1.34-1.31,1.34-2.54,.02-2.04-2.19-3.73-4.62-5.07-7.3-.8-1.61-1.5-3.26-1.81-5.04-1.02-5.75,3.69-10.01,8.17-9.76Zm.04,3.18c-3.09-.02-5.39,2.29-5.41,5.41-.01,2.85,2.39,5.26,5.28,5.29,2.94,.04,5.39-2.37,5.41-5.31,.02-3.01-2.3-5.38-5.29-5.39Z"/><path class="cls-7" d="M237.24,47.98c.89,0,1.75,.13,2.52,.59,.74,.44,.75,1.06,.03,1.55-1.17,.79-4,.79-5.18,0-.71-.48-.7-1.11,.04-1.56,.79-.48,1.68-.58,2.59-.58Z"/></g></g><g id="IHlP3O-5"><g><path class="cls-5" d="M191.02,340.63c4.95-.19,9.46,4.76,8,10.36-.97,3.72-2.88,6.95-5.23,9.95-.48,.61-.99,1.2-1.52,1.77-1.26,1.34-1.31,1.34-2.54,.02-2.04-2.19-3.73-4.62-5.07-7.3-.8-1.61-1.5-3.26-1.81-5.04-1.02-5.75,3.69-10.01,8.17-9.76Zm.04,3.18c-3.09-.02-5.39,2.29-5.41,5.41-.01,2.85,2.39,5.26,5.28,5.29,2.94,.04,5.39-2.37,5.41-5.31,.02-3.01-2.3-5.38-5.29-5.39Z"/><path class="cls-5" d="M191.03,366.7c.89,0,1.75,.13,2.52,.59,.74,.44,.75,1.06,.03,1.55-1.17,.79-4,.79-5.18,0-.71-.48-.7-1.11,.04-1.56,.79-.48,1.68-.58,2.59-.58Z"/></g></g></g></svg>