<svg xmlns="http://www.w3.org/2000/svg" viewBox="0 0 275.02 264.98"><g id="Calque_2" data-name="Calque 2"><g id="Calque_18" data-name="Calque 18"><path d="M126.75,264.38l20.08-7.44a1.78,1.78,0,0,1,.55-.1h15.13a1.52,1.52,0,0,0,.94-.31l14.15-10.42a1.61,1.61,0,0,1,1.27-.28l13.91,2.9a1.12,1.12,0,0,1,.26.08l14.69,5.84a1.58,1.58,0,0,0,2.07-.93l3.85-10.57a1.59,1.59,0,0,1,1.49-1.05h9.54a1.58,1.58,0,0,0,1.55-1.27L229,226.89a1.61,1.61,0,0,1,.78-1.08l12.68-7a1.57,1.57,0,0,0,.78-1.71l-2.45-11.55a1.6,1.6,0,0,0-.42-.79l-3.13-3.13a1.58,1.58,0,0,1,0-2.24l6.25-6.25,30.54-30.54a1.59,1.59,0,0,0,.46-1.27l-2.13-22.73a1.59,1.59,0,0,0-2.11-1.35l-3.91,1.38a1.6,1.6,0,0,0-1.05,1.33L264,152.75a1.57,1.57,0,0,1-1.45,1.41L237.93,156a1.58,1.58,0,0,1-.77-.14L227,151.32a1.56,1.56,0,0,0-1.76.33L212,164.83a1.94,1.94,0,0,1-.44.31L192,174.46a1.55,1.55,0,0,1-1.33,0l-7.28-3.31a1.62,1.62,0,0,0-1.55.14L167.58,181a1.29,1.29,0,0,1-.35.18l-17.08,6.21a1.66,1.66,0,0,1-.54.1h-9.72a1.6,1.6,0,0,1-1.57-1.36L136,170.52a1.52,1.52,0,0,1,.18-1l12.5-23.12a1.57,1.57,0,0,0,0-1.46l-5.21-10.59-8.28-18.61a1.52,1.52,0,0,1-.12-.43l-1.85-13.8a1.59,1.59,0,0,0-.89-1.22l-6.74-3.19-.1,0-4.86-1.89a1.59,1.59,0,0,1-.55-2.6l5.54-5.54a1.58,1.58,0,0,0-1.12-2.7h-2.69a1.62,1.62,0,0,0-1.12.46L94.66,110.9a1.64,1.64,0,0,1-.81.43l-12.42,2.49a.27.27,0,0,0-.12,0h0a1.58,1.58,0,0,1-1.56-2.64l8.46-8.47,14.61-14.61a1.42,1.42,0,0,1,.28-.22l13.17-8.25a1.18,1.18,0,0,0,.28-.22l7.84-7.84,6.08-6.08a1.73,1.73,0,0,1,.21-.17l22-15.66,21.48-16.5a1.57,1.57,0,0,0,.57-1.64l-2.33-9.33a1.59,1.59,0,0,0-1-1.1l-23-8.42a1.16,1.16,0,0,0-.32-.08l-12.29-1.71a1.58,1.58,0,0,1-1.28-2.07l.82-2.48a1.57,1.57,0,0,0-1.17-2.05L116.37.53a1.6,1.6,0,0,0-1.71.78L105,18.65A1.59,1.59,0,0,0,106.37,21h13.74a1.58,1.58,0,0,1,1.38,2.35l-4.6,8.28a1.67,1.67,0,0,1-.16.24L98.15,54.41l-.1.11L80.28,72.29a1.12,1.12,0,0,1-.24.19l-22,14.65a1.6,1.6,0,0,0-.7,1.14l-3,26.66a1.52,1.52,0,0,1-.56,1L29.64,136.09a.52.52,0,0,0-.11.1l-12,12a1.6,1.6,0,0,0,0,2.24l3.08,3.08a1.59,1.59,0,0,1,.32,1.79l-8,17.31a1.59,1.59,0,0,0,.31,1.79l7.08,7.07a1.58,1.58,0,0,1,.2,2l-5,7.7a1.53,1.53,0,0,0-.26.86v7.85A1.59,1.59,0,0,1,14,201.37l-12.32,3A1.59,1.59,0,0,0,.5,205.9v10.58a1.58,1.58,0,0,0,1.71,1.58l22-1.8a1.58,1.58,0,0,0,1-.46L35.05,206a1.59,1.59,0,0,0,.22-2l-4.63-7.23a1.58,1.58,0,0,0-2.45-.26l-4.13,4.12a1.58,1.58,0,0,1-2.59-1.7L28.21,182a1.55,1.55,0,0,1,.57-.72l23.57-16.23a1.66,1.66,0,0,1,.74-.27l31-3.1a1.66,1.66,0,0,1,.93.19l19.47,10.86a1.59,1.59,0,0,1,.81,1.39V178a1.58,1.58,0,0,1-1.58,1.58h-10a1.58,1.58,0,0,0-1.52,1.13l-2.51,8.47a1.57,1.57,0,0,0,.68,1.79L98,195.7a1.59,1.59,0,0,1,.71,1.68l-5.16,24a1.61,1.61,0,0,0,.43,1.46l9.84,9.84a1.06,1.06,0,0,1,.19.23l20.93,30.91A1.58,1.58,0,0,0,126.75,264.38Z" style="fill:#acdc8f;stroke:#1d1d1b;stroke-miterlimit:10"/></g></g></svg>