<svg id="Groupe_9" data-name="Groupe 9" xmlns="http://www.w3.org/2000/svg" xmlns:xlink="http://www.w3.org/1999/xlink" width="321" height="309.284" viewBox="0 0 321 309.284">
  <defs>
    <clipPath id="clip-path">
      <rect id="Rectangle_18" data-name="Rectangle 18" width="321" height="309.284" fill="none"/>
    </clipPath>
  </defs>
  <g id="Groupe_8" data-name="Groupe 8" clip-path="url(#clip-path)">
    <path id="Tracé_15" data-name="Tracé 15" d="M147.863,308.5l23.439-8.681a1.827,1.827,0,0,1,.642-.116H189.6a1.847,1.847,0,0,0,1.1-.361l16.515-12.169a1.848,1.848,0,0,1,1.473-.321l16.239,3.379a1.842,1.842,0,0,1,.306.091l17.146,6.818a1.847,1.847,0,0,0,2.42-1.087l4.487-12.337a1.85,1.85,0,0,1,1.738-1.217h11.139a1.848,1.848,0,0,0,1.813-1.486l3.255-16.274a1.846,1.846,0,0,1,.915-1.254l14.8-8.222a1.848,1.848,0,0,0,.91-2L281,239.794a1.839,1.839,0,0,0-.5-.923l-3.652-3.652a1.848,1.848,0,0,1,0-2.615l7.3-7.3,35.653-35.655a1.845,1.845,0,0,0,.533-1.479l-2.487-26.535a1.848,1.848,0,0,0-2.456-1.57l-4.57,1.613a1.848,1.848,0,0,0-1.223,1.549l-1.576,14.975a1.848,1.848,0,0,1-1.7,1.649l-28.683,2.173a1.849,1.849,0,0,1-.9-.156l-11.894-5.332a1.848,1.848,0,0,0-2.062.379L247.4,192.3a1.879,1.879,0,0,1-.512.362L224,203.549a1.846,1.846,0,0,1-1.558.014l-8.5-3.862a1.847,1.847,0,0,0-1.809.156l-16.616,11.37a1.832,1.832,0,0,1-.412.211l-19.934,7.248a1.856,1.856,0,0,1-.631.112H163.2a1.848,1.848,0,0,1-1.829-1.58l-2.687-18.271a1.852,1.852,0,0,1,.2-1.149l14.6-26.983a1.851,1.851,0,0,0,.033-1.7l-6.088-12.367-9.657-21.715a1.86,1.86,0,0,1-.142-.507l-2.157-16.1A1.846,1.846,0,0,0,154.43,117l-7.867-3.727c-.04-.019-.081-.036-.121-.053l-5.668-2.2a1.849,1.849,0,0,1-.636-3.03l6.465-6.466a1.848,1.848,0,0,0-1.307-3.155h-3.141a1.849,1.849,0,0,0-1.307.542L110.4,129.36a1.856,1.856,0,0,1-.944.505l-14.487,2.9c-.05.01-.1.022-.151.037A1.849,1.849,0,0,1,93,129.716l9.879-9.879,17.055-17.055a1.9,1.9,0,0,1,.327-.26l15.374-9.62a1.894,1.894,0,0,0,.327-.26l9.151-9.151,7.1-7.1a1.749,1.749,0,0,1,.236-.2l25.68-18.277L203.2,38.66a1.848,1.848,0,0,0,.668-1.914l-2.723-10.894a1.851,1.851,0,0,0-1.157-1.287L173.193,14.74a1.844,1.844,0,0,0-.382-.095l-14.34-1.992a1.849,1.849,0,0,1-1.5-2.415l.968-2.9a1.85,1.85,0,0,0-1.371-2.394L135.748.54a1.848,1.848,0,0,0-2,.908L122.462,21.688a1.849,1.849,0,0,0,1.614,2.749h16.03a1.848,1.848,0,0,1,1.615,2.746l-5.367,9.66a1.953,1.953,0,0,1-.189.279l-21.69,26.3c-.037.046-.077.09-.119.132L93.625,84.29a1.922,1.922,0,0,1-.282.231L67.707,101.613a1.844,1.844,0,0,0-.811,1.328l-3.54,31.118a1.844,1.844,0,0,1-.652,1.21l-28.2,23.494a1.615,1.615,0,0,0-.124.113L20.406,172.853a1.85,1.85,0,0,0,0,2.615L24,179.059a1.849,1.849,0,0,1,.369,2.086l-9.375,20.208a1.849,1.849,0,0,0,.37,2.085l8.256,8.256a1.848,1.848,0,0,1,.242,2.317L18,222.988a1.847,1.847,0,0,0-.3,1.01v9.158a1.847,1.847,0,0,1-1.411,1.8l-14.381,3.5a1.849,1.849,0,0,0-1.411,1.8V252.6a1.849,1.849,0,0,0,2,1.843l25.688-2.106a1.845,1.845,0,0,0,1.156-.536l11.489-11.488a1.849,1.849,0,0,0,.25-2.3l-5.4-8.437a1.849,1.849,0,0,0-2.864-.31L28,234.074a1.848,1.848,0,0,1-3.024-1.991l7.863-19.739a1.843,1.843,0,0,1,.669-.838l27.511-18.943a1.86,1.86,0,0,1,.864-.316l36.148-3.615a1.848,1.848,0,0,1,1.084.225l22.724,12.672a1.85,1.85,0,0,1,.948,1.614v4.505a1.849,1.849,0,0,1-1.849,1.849h-11.65a1.85,1.85,0,0,0-1.773,1.324l-2.929,9.884a1.847,1.847,0,0,0,.794,2.092l8.866,5.542a1.848,1.848,0,0,1,.828,1.957l-6.024,27.971a1.847,1.847,0,0,0,.5,1.7l11.485,11.485a1.918,1.918,0,0,1,.224.271l24.43,36.084a1.848,1.848,0,0,0,2.172.7" transform="translate(0.084 0.084)" fill="#acdc8f"/>
    <path id="Tracé_16" data-name="Tracé 16" d="M147.863,308.5l23.439-8.681a1.827,1.827,0,0,1,.642-.116H189.6a1.847,1.847,0,0,0,1.1-.361l16.515-12.169a1.848,1.848,0,0,1,1.473-.321l16.239,3.379a1.842,1.842,0,0,1,.306.091l17.146,6.818a1.847,1.847,0,0,0,2.42-1.087l4.487-12.337a1.85,1.85,0,0,1,1.738-1.217h11.139a1.848,1.848,0,0,0,1.813-1.486l3.255-16.274a1.846,1.846,0,0,1,.915-1.254l14.8-8.222a1.848,1.848,0,0,0,.91-2L281,239.794a1.839,1.839,0,0,0-.5-.923l-3.652-3.652a1.848,1.848,0,0,1,0-2.615l7.3-7.3,35.653-35.655a1.845,1.845,0,0,0,.533-1.479l-2.487-26.535a1.848,1.848,0,0,0-2.456-1.57l-4.57,1.613a1.848,1.848,0,0,0-1.223,1.549l-1.576,14.975a1.848,1.848,0,0,1-1.7,1.649l-28.683,2.173a1.849,1.849,0,0,1-.9-.156l-11.894-5.332a1.848,1.848,0,0,0-2.062.379L247.4,192.3a1.879,1.879,0,0,1-.512.362L224,203.549a1.846,1.846,0,0,1-1.558.014l-8.5-3.862a1.847,1.847,0,0,0-1.809.156l-16.616,11.37a1.832,1.832,0,0,1-.412.211l-19.934,7.248a1.856,1.856,0,0,1-.631.112H163.2a1.848,1.848,0,0,1-1.829-1.58l-2.687-18.271a1.852,1.852,0,0,1,.2-1.149l14.6-26.983a1.851,1.851,0,0,0,.033-1.7l-6.088-12.367-9.657-21.715a1.86,1.86,0,0,1-.142-.507l-2.157-16.1A1.846,1.846,0,0,0,154.43,117l-7.867-3.727c-.04-.019-.081-.036-.121-.053l-5.668-2.2a1.849,1.849,0,0,1-.636-3.03l6.465-6.466a1.848,1.848,0,0,0-1.307-3.155h-3.141a1.849,1.849,0,0,0-1.307.542L110.4,129.36a1.856,1.856,0,0,1-.944.505l-14.487,2.9c-.05.01-.1.022-.151.037A1.849,1.849,0,0,1,93,129.716l9.879-9.879,17.055-17.055a1.9,1.9,0,0,1,.327-.26l15.374-9.62a1.894,1.894,0,0,0,.327-.26l9.151-9.151,7.1-7.1a1.749,1.749,0,0,1,.236-.2l25.68-18.277L203.2,38.66a1.848,1.848,0,0,0,.668-1.914l-2.723-10.894a1.851,1.851,0,0,0-1.157-1.287L173.193,14.74a1.844,1.844,0,0,0-.382-.095l-14.34-1.992a1.849,1.849,0,0,1-1.5-2.415l.968-2.9a1.85,1.85,0,0,0-1.371-2.394L135.748.54a1.848,1.848,0,0,0-2,.908L122.462,21.688a1.849,1.849,0,0,0,1.614,2.749h16.03a1.848,1.848,0,0,1,1.615,2.746l-5.367,9.66a1.953,1.953,0,0,1-.189.279l-21.69,26.3c-.037.046-.077.09-.119.132L93.625,84.29a1.922,1.922,0,0,1-.282.231L67.707,101.613a1.844,1.844,0,0,0-.811,1.328l-3.54,31.118a1.844,1.844,0,0,1-.652,1.21l-28.2,23.494a1.615,1.615,0,0,0-.124.113L20.406,172.853a1.85,1.85,0,0,0,0,2.615L24,179.059a1.849,1.849,0,0,1,.369,2.086l-9.375,20.208a1.849,1.849,0,0,0,.37,2.085l8.256,8.256a1.848,1.848,0,0,1,.242,2.317L18,222.988a1.847,1.847,0,0,0-.3,1.01v9.158a1.847,1.847,0,0,1-1.411,1.8l-14.381,3.5a1.849,1.849,0,0,0-1.411,1.8V252.6a1.849,1.849,0,0,0,2,1.843l25.688-2.106a1.845,1.845,0,0,0,1.156-.536l11.489-11.488a1.849,1.849,0,0,0,.25-2.3l-5.4-8.437a1.849,1.849,0,0,0-2.864-.31L28,234.074a1.848,1.848,0,0,1-3.024-1.991l7.863-19.739a1.843,1.843,0,0,1,.669-.838l27.511-18.943a1.86,1.86,0,0,1,.864-.316l36.148-3.615a1.848,1.848,0,0,1,1.084.225l22.724,12.672a1.85,1.85,0,0,1,.948,1.614v4.505a1.849,1.849,0,0,1-1.849,1.849h-11.65a1.85,1.85,0,0,0-1.773,1.324l-2.929,9.884a1.847,1.847,0,0,0,.794,2.092l8.866,5.542a1.848,1.848,0,0,1,.828,1.957l-6.024,27.971a1.847,1.847,0,0,0,.5,1.7l11.485,11.485a1.918,1.918,0,0,1,.224.271l24.43,36.084A1.848,1.848,0,0,0,147.863,308.5Z" transform="translate(0.084 0.084)" fill="none" stroke="#1d1d1b" stroke-miterlimit="10" stroke-width="1"/>
    <path id="Tracé_17" data-name="Tracé 17" d="M23.284,205.74a2.918,2.918,0,1,1-2.918-2.918,2.918,2.918,0,0,1,2.918,2.918" transform="translate(2.917 33.913)" fill="#acdc8f"/>
    <circle id="Ellipse_1" data-name="Ellipse 1" cx="2.918" cy="2.918" r="2.918" transform="translate(20.365 236.735)" fill="none" stroke="#11160e" stroke-miterlimit="10" stroke-width="1"/>
    <path id="Tracé_18" data-name="Tracé 18" d="M77.615,156.991a2.918,2.918,0,1,1-2.918-2.918,2.918,2.918,0,0,1,2.918,2.918" transform="translate(12.002 25.762)" fill="#acdc8f"/>
    <circle id="Ellipse_2" data-name="Ellipse 2" cx="2.918" cy="2.918" r="2.918" transform="translate(83.78 179.835)" fill="none" stroke="#11160e" stroke-miterlimit="10" stroke-width="1"/>
    <path id="Tracé_19" data-name="Tracé 19" d="M71.482,129.724a2.918,2.918,0,1,1-2.918-2.918,2.918,2.918,0,0,1,2.918,2.918" transform="translate(10.976 21.203)" fill="#acdc8f"/>
    <circle id="Ellipse_3" data-name="Ellipse 3" cx="2.918" cy="2.918" r="2.918" transform="translate(76.623 148.009)" fill="none" stroke="#11160e" stroke-miterlimit="10" stroke-width="1"/>
    <path id="Tracé_20" data-name="Tracé 20" d="M127.233,224.971a2.918,2.918,0,1,1-2.918-2.918,2.918,2.918,0,0,1,2.918,2.918" transform="translate(20.298 37.128)" fill="#acdc8f"/>
    <circle id="Ellipse_4" data-name="Ellipse 4" cx="2.918" cy="2.918" r="2.918" transform="translate(141.695 259.181)" fill="none" stroke="#11160e" stroke-miterlimit="10" stroke-width="1"/>
    <path id="Tracé_21" data-name="Tracé 21" d="M118.732,197.853a2.918,2.918,0,1,1-2.918-2.918,2.918,2.918,0,0,1,2.918,2.918" transform="translate(18.877 32.594)" fill="#acdc8f"/>
    <circle id="Ellipse_5" data-name="Ellipse 5" cx="2.918" cy="2.918" r="2.918" transform="translate(131.773 227.529)" fill="none" stroke="#11160e" stroke-miterlimit="10" stroke-width="1"/>
  </g>
</svg>
