<svg xmlns="http://www.w3.org/2000/svg" viewBox="0 0 206.68 248.82"><defs><style>.cls-1{fill:none;stroke:#000;stroke-miterlimit:10;stroke-width:0.65px;}</style></defs><g id="Calque_2" data-name="Calque 2"><g id="Calque_1-2" data-name="Calque 1"><polyline class="cls-1" points="148.85 4.95 148.39 4.95 141.42 4.95 137.26 4.95 126.14 4.95 120.13 4.95 117.17 4.95"/><polyline class="cls-1" points="107.92 16.07 109.92 16.07 115.02 16.07 126.14 16.07 137.26 16.07 148.39 16.07 159.51 16.07 159.87 16.07 168.25 16.07"/><polyline class="cls-1" points="123.23 238.56 125.33 238.56 126.14 238.56 132.96 238.56 137.26 238.56 137.5 238.56 144.73 238.56 148.39 238.56 159.51 238.56 170.64 238.56 179.78 238.56"/><polyline class="cls-1" points="204.01 219.83 204.01 216.31 204.01 205.18 204.01 198.3"/><polyline class="cls-1" points="115.02 6.75 115.02 9.2 115.02 16.07 115.02 20.34 115.02 22.75"/><path d="M116.94,96.12c.69-.47,1.39-.94,2.1-1.4A16.67,16.67,0,0,1,116.94,96.12Z"/><path d="M165.74,25.73c-.54.49-1.09,1-1.66,1.47h1.63A7.23,7.23,0,0,0,165.74,25.73ZM140.89,171.81c-.06.29-.12.59-.17.89a4.87,4.87,0,0,0,1.35-.89ZM126.14,20.24v2.69a13.4,13.4,0,0,0,.94-2.87C126.77,20.13,126.46,20.19,126.14,20.24ZM92.77,148.14a35.81,35.81,0,0,0-11.13-4.73,18,18,0,0,0-6.87-.07,22.64,22.64,0,0,0-4.25,1.29c-3.29,1.3-6.45,3-9.93,3.57-.4.06-.79.11-1.19.15-2.15.2-4.34.17-6.33,1l-.55.25A15.54,15.54,0,0,0,48.27,153l-.29.3q-3.43,3.6-6.61,7.43-2.17,2.63-4.22,5.34T33,171.81c-1.93,2.85-3.77,5.78-5.49,8.76a4.2,4.2,0,0,0-.57,2.36,4.12,4.12,0,0,0,.21,1.09c.72,2,2.34.94,3.39,1.6a.49.49,0,0,1,.22.27,8.17,8.17,0,0,1,6.38-2.71v-.25h4.77c-.21-.08-.43-.15-.64-.21.47-.79,1-1.58,1.45-2.35q2.07-3.3,4.34-6.48c.39-.56.8-1.12,1.2-1.67l.3-.4q3.93-5.34,8.37-10.28l.75-.85c.56-.63,1.12-1.27,1.71-1.9a27.49,27.49,0,0,1,3-2.85c2.09-1.67,4.41-1.9,7-2.09l1.16-.11a24.63,24.63,0,0,0,6-1.52c1.7-.67,3.37-1.46,5.07-2.15l1.34-.5.56-.2a17,17,0,0,1,6.1-.83c.61.33,1.2.67,1.79,1s.89.53,1.34.81v-.81h2.31C94.31,149.08,93.54,148.6,92.77,148.14Zm73-122.41c-.54.49-1.09,1-1.66,1.47h1.63A7.23,7.23,0,0,0,165.74,25.73ZM140.89,171.81c-.06.29-.12.59-.17.89a4.87,4.87,0,0,0,1.35-.89ZM126.14,20.24v2.69a13.4,13.4,0,0,0,.94-2.87C126.77,20.13,126.46,20.19,126.14,20.24ZM104,155.11l-.06,0c-2.93-1.67-5.85-3.65-8.81-5.51-.77-.48-1.54-1-2.31-1.42a35.81,35.81,0,0,0-11.13-4.73,18,18,0,0,0-6.87-.07,22.64,22.64,0,0,0-4.25,1.29c-3.29,1.3-6.45,3-9.93,3.57-.4.06-.79.11-1.19.15-2.15.2-4.34.17-6.33,1l-.55.25A15.54,15.54,0,0,0,48.27,153l-.29.3q-3.43,3.6-6.61,7.43-2.17,2.63-4.22,5.34T33,171.81c-1.93,2.85-3.77,5.78-5.49,8.76a4.2,4.2,0,0,0-.57,2.36,4.12,4.12,0,0,0,.21,1.09c.72,2,2.34.94,3.39,1.6a.49.49,0,0,1,.22.27,8.17,8.17,0,0,1,6.38-2.71v-.25h4.77c-.21-.08-.43-.15-.64-.21.47-.79,1-1.58,1.45-2.35q2.07-3.3,4.34-6.48c.39-.56.8-1.12,1.2-1.67l.3-.4q3.93-5.34,8.37-10.28l.75-.85c.56-.63,1.12-1.27,1.71-1.9a27.49,27.49,0,0,1,3-2.85c2.09-1.67,4.41-1.9,7-2.09l1.16-.11a24.63,24.63,0,0,0,6-1.52c1.7-.67,3.37-1.46,5.07-2.15l1.34-.5.56-.2a17,17,0,0,1,6.1-.83c.61.33,1.2.67,1.79,1s.89.53,1.34.81c1.75,1.08,3.47,2.22,5.19,3.33,1.92,1.23,3.88,2.4,5.86,3.54l.07,0c1.38.8,3.1,1.82,3.67,3.4h2C109,157.81,106.31,156.45,104,155.11ZM165.74,25.73c-.54.49-1.09,1-1.66,1.47h1.63A7.23,7.23,0,0,0,165.74,25.73ZM149,33.29q-.3-.06-.6-.15c-1.69-.45-3.36-1.2-5.08-1-2.05.24-4.22,1.79-6.05,1.46a2.46,2.46,0,0,1-1.07-.46c0,1.15,0,2.29,0,3.44l.37-.62a1,1,0,0,1,.71.06,1.62,1.62,0,0,1,.92,1.52,2,2,0,0,1-.23.77,2.7,2.7,0,0,1-.69.82,3.39,3.39,0,0,1-.63.44c-3,1.64-6.81-.1-10.1.81l-.39.13c-4,1.37-5.85,6.18-9.17,8.92a8.42,8.42,0,0,1-1.35,1c-.2.11-.4.22-.6.31-2.52,1.18-5.52,1.26-7.89,2.73a7.69,7.69,0,0,0-3.24,4.3,8.06,8.06,0,0,0-.34,2.84,7.51,7.51,0,0,0,.34,1.81l.07.19a17.84,17.84,0,0,1,2.88-2,19.43,19.43,0,0,1,8.18-2.4,18.58,18.58,0,0,1,7.81,1.13,12.16,12.16,0,0,1,2.52,1.27,9.63,9.63,0,0,1,.79.6,6.68,6.68,0,0,1,1.32,1.53,4.48,4.48,0,0,1-.36,5.41,7.66,7.66,0,0,1-1,.74c-.23.17-.46.33-.67.52a4.91,4.91,0,0,0-1.38,2.32,8.59,8.59,0,0,0-.08,4.38c-3.86.78-7.61,2.69-9,6.33l-.15.42a8.91,8.91,0,0,0-.4,2.39,119.56,119.56,0,0,0-10.58,6.65c-1,.68-1.91,1.37-2.85,2.08l-.29.22a28.87,28.87,0,0,1-5.06,3.36c-.94.43-1.94.76-2.92,1.12a13.32,13.32,0,0,0-2.7,1.27c-1.69,1.12-3,3.31-2.16,5.15l0,0,.35,0c1.5-.18,3-.4,4.49-.64q5.61-.9,11.12-2.29c3-.76,6.07-1.64,9-2.62.7-.23,1.39-.46,2.08-.72a23.08,23.08,0,0,0,3-1.33,18.22,18.22,0,0,0,4.49-3.52,28.87,28.87,0,0,0,3.67-4.9c.76-1.25,1.45-2.55,2.09-3.84a20.71,20.71,0,0,1,1.37-2.38c1.91-2.78,4-3.63,7.66-5l1.23-.45c2.34-.86,5.17-1.19,7.14.32a6.14,6.14,0,0,0-2.29,2.82c1.2-.13,1.74,1,1.74,2.29h3.31v-6l-.24-.08c-.23-.08-.47-.16-.7-.22s-.47-.16-.7-.23-.47-.16-.7-.23-.47-.16-.7-.22a6.35,6.35,0,0,0-.7-.23c-2.34-.9-4.94-.39-7.39.44l-.87.32a4,4,0,0,1,.74-1.71c0-.06.09-.11.13-.16.54-.59,1.32-.93,1.89-1.5a5.21,5.21,0,0,0,1-1.35,6.09,6.09,0,0,0,.39-1c.84-3.1-.84-5.85-3.25-7.59A10.93,10.93,0,0,0,135.39,62a18.7,18.7,0,0,0-2.36-.89l-.7-.22c-.23-.09-.47-.16-.7-.23l-.33-.11-.37-.12c-.23-.08-.47-.16-.7-.22s-.47-.16-.7-.23l-.7-.23-.7-.23-.71-.22c-.23-.09-.46-.16-.7-.23l-.58-.19-.12,0c-.23-.08-.46-.16-.7-.22s-.46-.16-.7-.23l-.7-.23-.7-.23-.7-.22-.81-.27a36.26,36.26,0,0,0,4.43-1.31l.13-.06a12.28,12.28,0,0,0,4.1-3c1-1.1,1.89-2.41,2.86-3.64a11.66,11.66,0,0,1,3.49-3.23c.18-.1.36-.18.54-.26a11.13,11.13,0,0,1,4.91-.31,11.22,11.22,0,0,0,6-.78l.23-.12c1.77-1,3-3.25,1.82-5.19a3.43,3.43,0,0,0-.51-.63,14.67,14.67,0,0,0,2.07-.6c.67-.24,1.34-.48,2-.65,1.54-.4,3,.22,4.45.65.42.12.85.24,1.28.32V30.69C156.25,32.78,152.7,34.09,149,33.29Zm-8.1,138.52c-.06.29-.12.59-.17.89a4.87,4.87,0,0,0,1.35-.89ZM104,155.11l-.06,0c-2.93-1.67-5.85-3.65-8.81-5.51-.77-.48-1.54-1-2.31-1.42a35.81,35.81,0,0,0-11.13-4.73,18,18,0,0,0-6.87-.07,22.64,22.64,0,0,0-4.25,1.29c-3.29,1.3-6.45,3-9.93,3.57-.4.06-.79.11-1.19.15-2.15.2-4.34.17-6.33,1l-.55.25A15.54,15.54,0,0,0,48.27,153l-.29.3q-3.43,3.6-6.61,7.43-2.17,2.63-4.22,5.34T33,171.81c-1.93,2.85-3.77,5.78-5.49,8.76a4.2,4.2,0,0,0-.57,2.36,4.12,4.12,0,0,0,.21,1.09c.72,2,2.34.94,3.39,1.6a.49.49,0,0,1,.22.27,8.17,8.17,0,0,1,6.38-2.71v-.25h4.77c-.21-.08-.43-.15-.64-.21.47-.79,1-1.58,1.45-2.35q2.07-3.3,4.34-6.48c.39-.56.8-1.12,1.2-1.67l.3-.4q3.93-5.34,8.37-10.28l.75-.85c.56-.63,1.12-1.27,1.71-1.9a27.49,27.49,0,0,1,3-2.85c2.09-1.67,4.41-1.9,7-2.09l1.16-.11a24.63,24.63,0,0,0,6-1.52c1.7-.67,3.37-1.46,5.07-2.15l1.34-.5.56-.2a17,17,0,0,1,6.1-.83c.61.33,1.2.67,1.79,1s.89.53,1.34.81c1.75,1.08,3.47,2.22,5.19,3.33,1.92,1.23,3.88,2.4,5.86,3.54l.07,0c1.38.8,3.1,1.82,3.67,3.4h2C109,157.81,106.31,156.45,104,155.11ZM165.74,25.73c-.54.49-1.09,1-1.66,1.47h1.63A7.23,7.23,0,0,0,165.74,25.73ZM140.89,171.81c-.06.29-.12.59-.17.89a4.87,4.87,0,0,0,1.35-.89Zm-4.7-138.66c0,1.15,0,2.29,0,3.44l.37-.62a1,1,0,0,1,.71.06V33.61A2.46,2.46,0,0,1,136.19,33.15ZM104,155.11l-.06,0c-2.93-1.67-5.85-3.65-8.81-5.51-.77-.48-1.54-1-2.31-1.42a35.81,35.81,0,0,0-11.13-4.73,18,18,0,0,0-6.87-.07,22.64,22.64,0,0,0-4.25,1.29c-3.29,1.3-6.45,3-9.93,3.57-.4.06-.79.11-1.19.15-2.15.2-4.34.17-6.33,1l-.55.25A15.54,15.54,0,0,0,48.27,153l-.29.3q-3.43,3.6-6.61,7.43-2.17,2.63-4.22,5.34T33,171.81c-1.93,2.85-3.77,5.78-5.49,8.76a4.2,4.2,0,0,0-.57,2.36,4.12,4.12,0,0,0,.21,1.09c.72,2,2.34.94,3.39,1.6a.49.49,0,0,1,.22.27,8.17,8.17,0,0,1,6.38-2.71v-.25h4.77c-.21-.08-.43-.15-.64-.21.47-.79,1-1.58,1.45-2.35q2.07-3.3,4.34-6.48c.39-.56.8-1.12,1.2-1.67l.3-.4q3.93-5.34,8.37-10.28l.75-.85c.56-.63,1.12-1.27,1.71-1.9a27.49,27.49,0,0,1,3-2.85c2.09-1.67,4.41-1.9,7-2.09l1.16-.11a24.63,24.63,0,0,0,6-1.52c1.7-.67,3.37-1.46,5.07-2.15l1.34-.5.56-.2a17,17,0,0,1,6.1-.83c.61.33,1.2.67,1.79,1s.89.53,1.34.81c1.75,1.08,3.47,2.22,5.19,3.33,1.92,1.23,3.88,2.4,5.86,3.54l.07,0c1.38.8,3.1,1.82,3.67,3.4h2C109,157.81,106.31,156.45,104,155.11Zm36.94,16.7c-.06.29-.12.59-.17.89a4.87,4.87,0,0,0,1.35-.89Zm-4.7-138.66c0,1.15,0,2.29,0,3.44l.37-.62a1,1,0,0,1,.71.06V33.61A2.46,2.46,0,0,1,136.19,33.15ZM125.47,69.37a4.91,4.91,0,0,0-1.38,2.32,8.59,8.59,0,0,0-.08,4.38c-3.86.78-7.61,2.69-9,6.33l-.15.42a8.91,8.91,0,0,0-.4,2.39,119.56,119.56,0,0,0-10.58,6.65c-1,.68-1.91,1.37-2.85,2.08l-.29.22a28.87,28.87,0,0,1-5.06,3.36c-.94.43-1.94.76-2.92,1.12a13.32,13.32,0,0,0-2.7,1.27c-1.69,1.12-3,3.31-2.16,5.15l0,0,.35,0c1.5-.18,3-.4,4.49-.64q5.61-.9,11.12-2.29c3-.76,6.07-1.64,9-2.62.7-.23,1.39-.46,2.08-.72a23.08,23.08,0,0,0,3-1.33,18.22,18.22,0,0,0,4.49-3.52,28.87,28.87,0,0,0,3.67-4.9V68.85C125.91,69,125.68,69.18,125.47,69.37ZM117,49.44a8.42,8.42,0,0,1-1.35,1c-.2.11-.4.22-.6.31-2.52,1.18-5.52,1.26-7.89,2.73a7.69,7.69,0,0,0-3.24,4.3,8.06,8.06,0,0,0-.34,2.84,7.51,7.51,0,0,0,.34,1.81l.07.19a17.84,17.84,0,0,1,2.88-2,19.43,19.43,0,0,1,8.18-2.4,18.58,18.58,0,0,1,7.81,1.13,12.16,12.16,0,0,1,2.52,1.27,9.63,9.63,0,0,1,.79.6V58.9l-.12,0c-.23-.08-.46-.16-.7-.22s-.46-.16-.7-.23l-.7-.23-.7-.23-.7-.22-.81-.27a36.26,36.26,0,0,0,4.43-1.31V40.52C122.12,41.89,120.29,46.7,117,49.44ZM104,155.11l-.06,0c-2.93-1.67-5.85-3.65-8.81-5.51-.77-.48-1.54-1-2.31-1.42a35.81,35.81,0,0,0-11.13-4.73,18,18,0,0,0-6.87-.07,22.64,22.64,0,0,0-4.25,1.29c-3.29,1.3-6.45,3-9.93,3.57-.4.06-.79.11-1.19.15-2.15.2-4.34.17-6.33,1l-.55.25A15.54,15.54,0,0,0,48.27,153l-.29.3q-3.43,3.6-6.61,7.43-2.17,2.63-4.22,5.34T33,171.81c-1.93,2.85-3.77,5.78-5.49,8.76a4.2,4.2,0,0,0-.57,2.36,4.12,4.12,0,0,0,.21,1.09c.72,2,2.34.94,3.39,1.6a.49.49,0,0,1,.22.27,8.17,8.17,0,0,1,6.38-2.71v-.25h4.77c-.21-.08-.43-.15-.64-.21.47-.79,1-1.58,1.45-2.35q2.07-3.3,4.34-6.48c.39-.56.8-1.12,1.2-1.67l.3-.4q3.93-5.34,8.37-10.28l.75-.85c.56-.63,1.12-1.27,1.71-1.9a27.49,27.49,0,0,1,3-2.85c2.09-1.67,4.41-1.9,7-2.09l1.16-.11a24.63,24.63,0,0,0,6-1.52c1.7-.67,3.37-1.46,5.07-2.15l1.34-.5.56-.2a17,17,0,0,1,6.1-.83c.61.33,1.2.67,1.79,1s.89.53,1.34.81c1.75,1.08,3.47,2.22,5.19,3.33,1.92,1.23,3.88,2.4,5.86,3.54l.07,0c1.38.8,3.1,1.82,3.67,3.4h2C109,157.81,106.31,156.45,104,155.11Zm45.48-18.32-.48,1.65h3.45A7.15,7.15,0,0,0,149.43,136.79Zm-8.54,35c-.06.29-.12.59-.17.89a4.87,4.87,0,0,0,1.35-.89ZM104,155.11l-.06,0c-2.93-1.67-5.85-3.65-8.81-5.51-.77-.48-1.54-1-2.31-1.42a35.81,35.81,0,0,0-11.13-4.73,18,18,0,0,0-6.87-.07,22.64,22.64,0,0,0-4.25,1.29c-3.29,1.3-6.45,3-9.93,3.57-.4.06-.79.11-1.19.15-2.15.2-4.34.17-6.33,1l-.55.25A15.54,15.54,0,0,0,48.27,153l-.29.3q-3.43,3.6-6.61,7.43-2.17,2.63-4.22,5.34T33,171.81c-1.93,2.85-3.77,5.78-5.49,8.76a4.2,4.2,0,0,0-.57,2.36,4.12,4.12,0,0,0,.21,1.09c.72,2,2.34.94,3.39,1.6a.49.49,0,0,1,.22.27,8.17,8.17,0,0,1,6.38-2.71v-.25h4.77c-.21-.08-.43-.15-.64-.21.47-.79,1-1.58,1.45-2.35q2.07-3.3,4.34-6.48c.39-.56.8-1.12,1.2-1.67l.3-.4q3.93-5.34,8.37-10.28l.75-.85c.56-.63,1.12-1.27,1.71-1.9a27.49,27.49,0,0,1,3-2.85c2.09-1.67,4.41-1.9,7-2.09l1.16-.11a24.63,24.63,0,0,0,6-1.52c1.7-.67,3.37-1.46,5.07-2.15l1.34-.5.56-.2a17,17,0,0,1,6.1-.83c.61.33,1.2.67,1.79,1s.89.53,1.34.81c1.75,1.08,3.47,2.22,5.19,3.33,1.92,1.23,3.88,2.4,5.86,3.54l.07,0c1.38.8,3.1,1.82,3.67,3.4h2C109,157.81,106.31,156.45,104,155.11Zm-.4-94.54a7.51,7.51,0,0,0,.34,1.81V57.73A8.06,8.06,0,0,0,103.55,60.57ZM101,93.94l-.29.22a28.87,28.87,0,0,1-5.06,3.36c-.94.43-1.94.76-2.92,1.12a13.32,13.32,0,0,0-2.7,1.27c-1.69,1.12-3,3.31-2.16,5.15l0,0,.35,0c1.5-.18,3-.4,4.49-.64q5.61-.9,11.12-2.29V91.86C102.93,92.54,102,93.23,101,93.94Zm48.39,42.85-.48,1.65h3.45A7.15,7.15,0,0,0,149.43,136.79ZM104,155.11l-.06,0c-2.93-1.67-5.85-3.65-8.81-5.51-.77-.48-1.54-1-2.31-1.42a35.81,35.81,0,0,0-11.13-4.73,18,18,0,0,0-6.87-.07,22.64,22.64,0,0,0-4.25,1.29c-3.29,1.3-6.45,3-9.93,3.57-.4.06-.79.11-1.19.15-2.15.2-4.34.17-6.33,1l-.55.25A15.54,15.54,0,0,0,48.27,153l-.29.3q-3.43,3.6-6.61,7.43-2.17,2.63-4.22,5.34T33,171.81c-1.93,2.85-3.77,5.78-5.49,8.76a4.2,4.2,0,0,0-.57,2.36,4.12,4.12,0,0,0,.21,1.09c.72,2,2.34.94,3.39,1.6a.49.49,0,0,1,.22.27,8.17,8.17,0,0,1,6.38-2.71v-.25h4.77c-.21-.08-.43-.15-.64-.21.47-.79,1-1.58,1.45-2.35q2.07-3.3,4.34-6.48c.39-.56.8-1.12,1.2-1.67l.3-.4q3.93-5.34,8.37-10.28l.75-.85c.56-.63,1.12-1.27,1.71-1.9a27.49,27.49,0,0,1,3-2.85c2.09-1.67,4.41-1.9,7-2.09l1.16-.11a24.63,24.63,0,0,0,6-1.52c1.7-.67,3.37-1.46,5.07-2.15l1.34-.5.56-.2a17,17,0,0,1,6.1-.83c.61.33,1.2.67,1.79,1s.89.53,1.34.81c1.75,1.08,3.47,2.22,5.19,3.33,1.92,1.23,3.88,2.4,5.86,3.54l.07,0c1.38.8,3.1,1.82,3.67,3.4h2C109,157.81,106.31,156.45,104,155.11Zm-.4-94.54a7.51,7.51,0,0,0,.34,1.81V57.73A8.06,8.06,0,0,0,103.55,60.57ZM90.07,99.91c-1.69,1.12-3,3.31-2.16,5.15l0,0,.35,0c1.5-.18,3-.4,4.49-.64V98.64A13.32,13.32,0,0,0,90.07,99.91Zm19.57,60.91,0-.14c-.65-2.87-3.3-4.23-5.66-5.57l-.06,0c-2.93-1.67-5.85-3.65-8.81-5.51-.77-.48-1.54-1-2.31-1.42a35.81,35.81,0,0,0-11.13-4.73,18,18,0,0,0-6.87-.07,22.64,22.64,0,0,0-4.25,1.29c-3.29,1.3-6.45,3-9.93,3.57-.4.06-.79.11-1.19.15-2.15.2-4.34.17-6.33,1l-.55.25A15.54,15.54,0,0,0,48.27,153l-.29.3q-3.43,3.6-6.61,7.43-2.17,2.63-4.22,5.34T33,171.81c-1.93,2.85-3.77,5.78-5.49,8.76a4.2,4.2,0,0,0-.57,2.36,4.12,4.12,0,0,0,.21,1.09c.72,2,2.34.94,3.39,1.6a.49.49,0,0,1,.22.27,8.17,8.17,0,0,1,6.38-2.71v-.25h4.77c-.21-.08-.43-.15-.64-.21.47-.79,1-1.58,1.45-2.35q2.07-3.3,4.34-6.48c.39-.56.8-1.12,1.2-1.67l.3-.4q3.93-5.34,8.37-10.28l.75-.85c.56-.63,1.12-1.27,1.71-1.9a27.49,27.49,0,0,1,3-2.85c2.09-1.67,4.41-1.9,7-2.09l1.16-.11a24.63,24.63,0,0,0,6-1.52c1.7-.67,3.37-1.46,5.07-2.15l1.34-.5.56-.2a17,17,0,0,1,6.1-.83c.61.33,1.2.67,1.79,1s.89.53,1.34.81c1.75,1.08,3.47,2.22,5.19,3.33,1.92,1.23,3.88,2.4,5.86,3.54l.07,0c1.38.8,3.1,1.82,3.67,3.4a2.94,2.94,0,0,1,.17.71,1.68,1.68,0,0,1-.81,1.71l-.12,0-.16-.06-.54-.17-.17-.06-.53-.16a.85.85,0,0,0-.17-.06,4.68,4.68,0,0,0-.53-.17l-.17-.06-.53-.17-.11,0-.06,0-.53-.17a1.15,1.15,0,0,1-.17-.06,8.54,8.54,0,0,0-7.36.67c-3.13,2.11-3.48,7.08-.58,9.28a5.07,5.07,0,0,0,.54.36,29.2,29.2,0,0,1,1.07,10.76h2a30.7,30.7,0,0,0-1-11.12c-.09-.32-.19-.64-.29-.95-2.61-.74-3-4.77-1-6.62s5.09-1.72,7.51-.59l.12.06c1.2.58,2.39,1.41,3.83.78A3.3,3.3,0,0,0,109.64,160.82ZM103.55,60.57a7.51,7.51,0,0,0,.34,1.81V57.73A8.06,8.06,0,0,0,103.55,60.57ZM90.07,99.91c-1.69,1.12-3,3.31-2.16,5.15l0,0,.35,0c1.5-.18,3-.4,4.49-.64V98.64A13.32,13.32,0,0,0,90.07,99.91Zm19.57,60.91,0-.14c-.65-2.87-3.3-4.23-5.66-5.57l-.06,0c-2.93-1.67-5.85-3.65-8.81-5.51-.77-.48-1.54-1-2.31-1.42a35.81,35.81,0,0,0-11.13-4.73,18,18,0,0,0-6.87-.07,22.64,22.64,0,0,0-4.25,1.29c-3.29,1.3-6.45,3-9.93,3.57-.4.06-.79.11-1.19.15-2.15.2-4.34.17-6.33,1l-.55.25A15.54,15.54,0,0,0,48.27,153l-.29.3q-3.43,3.6-6.61,7.43-2.17,2.63-4.22,5.34T33,171.81c-1.93,2.85-3.77,5.78-5.49,8.76a4.2,4.2,0,0,0-.57,2.36,4.12,4.12,0,0,0,.21,1.09c.72,2,2.34.94,3.39,1.6a.49.49,0,0,1,.22.27,8.17,8.17,0,0,1,6.38-2.71v-.25h4.77c-.21-.08-.43-.15-.64-.21.47-.79,1-1.58,1.45-2.35q2.07-3.3,4.34-6.48c.39-.56.8-1.12,1.2-1.67l.3-.4q3.93-5.34,8.37-10.28l.75-.85c.56-.63,1.12-1.27,1.71-1.9a27.49,27.49,0,0,1,3-2.85c2.09-1.67,4.41-1.9,7-2.09l1.16-.11a24.63,24.63,0,0,0,6-1.52c1.7-.67,3.37-1.46,5.07-2.15l1.34-.5.56-.2a17,17,0,0,1,6.1-.83c.61.33,1.2.67,1.79,1s.89.53,1.34.81c1.75,1.08,3.47,2.22,5.19,3.33,1.92,1.23,3.88,2.4,5.86,3.54l.07,0c1.38.8,3.1,1.82,3.67,3.4a2.94,2.94,0,0,1,.17.71,1.68,1.68,0,0,1-.81,1.71l-.12,0-.16-.06-.54-.17-.17-.06-.53-.16a.85.85,0,0,0-.17-.06,4.68,4.68,0,0,0-.53-.17l-.17-.06-.53-.17-.11,0-.06,0-.53-.17a1.15,1.15,0,0,1-.17-.06,8.54,8.54,0,0,0-7.36.67c-3.13,2.11-3.48,7.08-.58,9.28a5.07,5.07,0,0,0,.54.36,29.2,29.2,0,0,1,1.07,10.76h2a30.7,30.7,0,0,0-1-11.12c-.09-.32-.19-.64-.29-.95-2.61-.74-3-4.77-1-6.62s5.09-1.72,7.51-.59l.12.06c1.2.58,2.39,1.41,3.83.78A3.3,3.3,0,0,0,109.64,160.82ZM103.55,60.57a7.51,7.51,0,0,0,.34,1.81V57.73A8.06,8.06,0,0,0,103.55,60.57ZM90.07,99.91c-1.69,1.12-3,3.31-2.16,5.15l0,0,.35,0c1.5-.18,3-.4,4.49-.64V98.64A13.32,13.32,0,0,0,90.07,99.91Zm19.57,60.91,0-.14c-.65-2.87-3.3-4.23-5.66-5.57l-.06,0c-2.93-1.67-5.85-3.65-8.81-5.51-.77-.48-1.54-1-2.31-1.42a35.81,35.81,0,0,0-11.13-4.73,18,18,0,0,0-6.87-.07,22.64,22.64,0,0,0-4.25,1.29c-3.29,1.3-6.45,3-9.93,3.57-.4.06-.79.11-1.19.15-2.15.2-4.34.17-6.33,1l-.55.25A15.54,15.54,0,0,0,48.27,153l-.29.3q-3.43,3.6-6.61,7.43-2.17,2.63-4.22,5.34T33,171.81c-1.93,2.85-3.77,5.78-5.49,8.76a4.2,4.2,0,0,0-.57,2.36,4.12,4.12,0,0,0,.21,1.09c.72,2,2.34.94,3.39,1.6a.49.49,0,0,1,.22.27,8.17,8.17,0,0,1,6.38-2.71v-.25h4.77c-.21-.08-.43-.15-.64-.21.47-.79,1-1.58,1.45-2.35q2.07-3.3,4.34-6.48c.39-.56.8-1.12,1.2-1.67l.3-.4q3.93-5.34,8.37-10.28l.75-.85c.56-.63,1.12-1.27,1.71-1.9a27.49,27.49,0,0,1,3-2.85c2.09-1.67,4.41-1.9,7-2.09l1.16-.11a24.63,24.63,0,0,0,6-1.52c1.7-.67,3.37-1.46,5.07-2.15l1.34-.5.56-.2a17,17,0,0,1,6.1-.83c.61.33,1.2.67,1.79,1s.89.53,1.34.81c1.75,1.08,3.47,2.22,5.19,3.33,1.92,1.23,3.88,2.4,5.86,3.54l.07,0c1.38.8,3.1,1.82,3.67,3.4a2.94,2.94,0,0,1,.17.71,1.68,1.68,0,0,1-.81,1.71l-.12,0-.16-.06-.54-.17-.17-.06-.53-.16a.85.85,0,0,0-.17-.06,4.68,4.68,0,0,0-.53-.17l-.17-.06-.53-.17-.11,0-.06,0-.53-.17a1.15,1.15,0,0,1-.17-.06,8.54,8.54,0,0,0-7.36.67c-3.13,2.11-3.48,7.08-.58,9.28a5.07,5.07,0,0,0,.54.36,29.2,29.2,0,0,1,1.07,10.76h2a30.7,30.7,0,0,0-1-11.12c-.09-.32-.19-.64-.29-.95-2.61-.74-3-4.77-1-6.62s5.09-1.72,7.51-.59l.12.06c1.2.58,2.39,1.41,3.83.78A3.3,3.3,0,0,0,109.64,160.82ZM103.55,60.57a7.51,7.51,0,0,0,.34,1.81V57.73A8.06,8.06,0,0,0,103.55,60.57ZM90.07,99.91c-1.69,1.12-3,3.31-2.16,5.15l0,0,.35,0c1.5-.18,3-.4,4.49-.64V98.64A13.32,13.32,0,0,0,90.07,99.91Zm19.57,60.91,0-.14c-.65-2.87-3.3-4.23-5.66-5.57l-.06,0c-2.93-1.67-5.85-3.65-8.81-5.51-.77-.48-1.54-1-2.31-1.42a35.81,35.81,0,0,0-11.13-4.73,18,18,0,0,0-6.87-.07,22.64,22.64,0,0,0-4.25,1.29c-3.29,1.3-6.45,3-9.93,3.57-.4.06-.79.11-1.19.15-2.15.2-4.34.17-6.33,1l-.55.25A15.54,15.54,0,0,0,48.27,153l-.29.3q-3.43,3.6-6.61,7.43-2.17,2.63-4.22,5.34T33,171.81c-1.93,2.85-3.77,5.78-5.49,8.76a4.2,4.2,0,0,0-.57,2.36,4.12,4.12,0,0,0,.21,1.09c.72,2,2.34.94,3.39,1.6a.49.49,0,0,1,.22.27,8.17,8.17,0,0,1,6.38-2.71v-.25h4.77c-.21-.08-.43-.15-.64-.21.47-.79,1-1.58,1.45-2.35q2.07-3.3,4.34-6.48c.39-.56.8-1.12,1.2-1.67l.3-.4q3.93-5.34,8.37-10.28l.75-.85c.56-.63,1.12-1.27,1.71-1.9a27.49,27.49,0,0,1,3-2.85c2.09-1.67,4.41-1.9,7-2.09l1.16-.11a24.63,24.63,0,0,0,6-1.52c1.7-.67,3.37-1.46,5.07-2.15l1.34-.5.56-.2a17,17,0,0,1,6.1-.83c.61.33,1.2.67,1.79,1s.89.53,1.34.81c1.75,1.08,3.47,2.22,5.19,3.33,1.92,1.23,3.88,2.4,5.86,3.54l.07,0c1.38.8,3.1,1.82,3.67,3.4a2.94,2.94,0,0,1,.17.71,1.68,1.68,0,0,1-.81,1.71l-.12,0-.16-.06-.54-.17-.17-.06-.53-.16a.85.85,0,0,0-.17-.06,4.68,4.68,0,0,0-.53-.17l-.17-.06-.53-.17-.11,0-.06,0-.53-.17a1.15,1.15,0,0,1-.17-.06,8.54,8.54,0,0,0-7.36.67c-3.13,2.11-3.48,7.08-.58,9.28a5.07,5.07,0,0,0,.54.36,29.2,29.2,0,0,1,1.07,10.76h2a30.7,30.7,0,0,0-1-11.12c-.09-.32-.19-.64-.29-.95-2.61-.74-3-4.77-1-6.62s5.09-1.72,7.51-.59l.12.06c1.2.58,2.39,1.41,3.83.78A3.3,3.3,0,0,0,109.64,160.82ZM103.55,60.57a7.51,7.51,0,0,0,.34,1.81V57.73A8.06,8.06,0,0,0,103.55,60.57ZM90.07,99.91c-1.69,1.12-3,3.31-2.16,5.15l0,0,.35,0c1.5-.18,3-.4,4.49-.64V98.64A13.32,13.32,0,0,0,90.07,99.91Zm13.48-39.34a7.51,7.51,0,0,0,.34,1.81V57.73A8.06,8.06,0,0,0,103.55,60.57ZM90.07,99.91c-1.69,1.12-3,3.31-2.16,5.15l0,0,.35,0c1.5-.18,3-.4,4.49-.64V98.64A13.32,13.32,0,0,0,90.07,99.91Zm-15.3,43.43a22.64,22.64,0,0,0-4.25,1.29c-3.29,1.3-6.45,3-9.93,3.57-.4.06-.79.11-1.19.15-2.15.2-4.34.17-6.33,1l-.55.25A15.54,15.54,0,0,0,48.27,153l-.29.3q-3.43,3.6-6.61,7.43-2.17,2.63-4.22,5.34T33,171.81c-1.93,2.85-3.77,5.78-5.49,8.76a4.2,4.2,0,0,0-.57,2.36,4.12,4.12,0,0,0,.21,1.09c.72,2,2.34.94,3.39,1.6a.49.49,0,0,1,.22.27,8.17,8.17,0,0,1,6.38-2.71v-.25h4.77c-.21-.08-.43-.15-.64-.21.47-.79,1-1.58,1.45-2.35q2.07-3.3,4.34-6.48c.39-.56.8-1.12,1.2-1.67v-.4h.3q3.93-5.34,8.37-10.28l.75-.85c.56-.63,1.12-1.27,1.71-1.9a27.49,27.49,0,0,1,3-2.85c2.09-1.67,4.41-1.9,7-2.09l1.16-.11v-4.17H81.64v-6.15A18,18,0,0,0,74.77,143.34Zm28.78-82.77a7.51,7.51,0,0,0,.34,1.81V57.73A8.06,8.06,0,0,0,103.55,60.57ZM90.07,99.91c-1.69,1.12-3,3.31-2.16,5.15l0,0,.35,0c1.5-.18,3-.4,4.49-.64V98.64A13.32,13.32,0,0,0,90.07,99.91Zm-37,49.4-.55.25H59.4v-1.21C57.25,148.55,55.06,148.52,53.07,149.31ZM48,153.25q-3.43,3.6-6.61,7.43h6.9V153ZM33,171.81h4.14V166Q35,168.87,33,171.81ZM103.55,60.57a7.51,7.51,0,0,0,.34,1.81V57.73A8.06,8.06,0,0,0,103.55,60.57ZM90.07,99.91c-1.69,1.12-3,3.31-2.16,5.15l0,0,.35,0c1.5-.18,3-.4,4.49-.64V98.64A13.32,13.32,0,0,0,90.07,99.91Zm13.48-39.34a7.51,7.51,0,0,0,.34,1.81V57.73A8.06,8.06,0,0,0,103.55,60.57ZM90.07,99.91c-1.69,1.12-3,3.31-2.16,5.15l0,0,.35,0c1.5-.18,3-.4,4.49-.64V98.64A13.32,13.32,0,0,0,90.07,99.91Zm13.48-39.34a7.51,7.51,0,0,0,.34,1.81V57.73A8.06,8.06,0,0,0,103.55,60.57ZM90.07,99.91c-1.69,1.12-3,3.31-2.16,5.15l0,0,.35,0c1.5-.18,3-.4,4.49-.64V98.64A13.32,13.32,0,0,0,90.07,99.91Zm13.48-39.34a7.51,7.51,0,0,0,.34,1.81V57.73A8.06,8.06,0,0,0,103.55,60.57ZM87.91,105.06l0,0,.35,0c1.5-.18,3-.4,4.49-.64V98.64a13.32,13.32,0,0,0-2.7,1.27C88.38,101,87.11,103.22,87.91,105.06ZM206.2,205.18c-.16-.83-.38-1.66-.62-2.48-.46-1.49-1-2.95-1.57-4.4s-1.2-2.84-1.85-4.24c-1.36-2.93-2.84-5.81-4.19-8.69l-1.14-2.44-3.18-6.76c-.25-.53-.5-1.06-.77-1.58a19.5,19.5,0,0,0-1.67-2.78,11.43,11.43,0,0,0-1.94-2.06,13.36,13.36,0,0,0-4.63-2.39l-.7-.23-.7-.23-.7-.22-.7-.23-.08,0-.62-.2c-.23-.08-.47-.16-.7-.22s-.47-.16-.7-.23l-.7-.23-.7-.23-.71-.22c-.23-.09-.46-.16-.7-.23l-.7-.23c-.23-.08-.46-.16-.7-.22s-.46-.16-.7-.23l-.7-.23a14.81,14.81,0,0,0-3.49-.77,15.85,15.85,0,0,0-5,.33,15.37,15.37,0,0,0-6.13,3.11l-.54.44a5,5,0,0,1-3.44,1.39,5.85,5.85,0,0,1-.59,0q.84-3.87,1.76-7.73,1.32-5.58,2.81-11.12v0c.52-1.93,1-3.84,1.59-5.76a1.41,1.41,0,0,0,.66.2,56.79,56.79,0,0,0,1.4.45,1.67,1.67,0,0,0,2.52-1.39,6.45,6.45,0,0,1,.53-3.52,6,6,0,0,1,.66-1.08c.09-.12.18-.24.28-.35l.64-.63a.53.53,0,0,0-.24,0,1.68,1.68,0,0,0,1.61-1.64c0-1.09.05-2.19.08-3.29a8.27,8.27,0,0,1,1.4-.12,7.75,7.75,0,0,1,1.83.22,1.65,1.65,0,0,0,2.07-1.58,15.15,15.15,0,0,0-.75-3.73,14.75,14.75,0,0,0-3.15-5.36,14.31,14.31,0,0,0-3.25-2.63c-.91-.53-1.94-.85-2.27-1.93a6.72,6.72,0,0,1-.25-1.2c-.09-.73-.1-1.49-.12-2.19-.05-1.9,0-4.44,1.7-5.71a1.66,1.66,0,0,0,0-2.82l-.63-.41-.51-.32a4.58,4.58,0,0,1,3.28-.51,1.67,1.67,0,0,0,2-1.15.76.76,0,0,1,0-.11c.59-2,1.34-4,1.75-6a4,4,0,0,0-.48-3,3.7,3.7,0,0,0-1.27-1.21l0,0a6.52,6.52,0,0,0-1.55-.62,5.73,5.73,0,0,0-.7-.23c-.23-.09-.46-.16-.7-.23s-.46-.16-.7-.22a5.73,5.73,0,0,0-.7-.23c-.23-.09-.46-.16-.7-.23a56.79,56.79,0,0,1-1.4-.45,6.35,6.35,0,0,0-.7-.23c-.23-.09-.47-.16-.7-.23s-.47-.16-.7-.22a6.35,6.35,0,0,0-.7-.23c-.23-.09-.47-.16-.7-.23a6.28,6.28,0,0,0-.7-.22,3.81,3.81,0,0,0-.44-.15l-.27-.08a5.21,5.21,0,0,0-.7-.23,6.88,6.88,0,0,0-1.2-.34,5.28,5.28,0,0,0-.77-4.72,4,4,0,0,1,.77-.71l.11-.08a1.65,1.65,0,0,0-.11-2.74,6.8,6.8,0,0,0-2.19-1,5.21,5.21,0,0,0-.7-.23,56.79,56.79,0,0,0-1.4-.45,5.73,5.73,0,0,0-.7-.23c-.23-.09-.46-.16-.7-.23s-.46-.16-.7-.23-.46-.16-.7-.22a5.73,5.73,0,0,0-.7-.23c-.23-.09-.46-.16-.7-.23l-.46-.15-.24-.08c-.23-.08-.47-.16-.7-.22s-.47-.16-.7-.23-.47-.16-.7-.23-.47-.16-.7-.22a6.35,6.35,0,0,0-.7-.23c-2.34-.9-4.94-.39-7.39.44l-.87.32a4,4,0,0,1,.74-1.71c0-.06.09-.11.13-.16.54-.59,1.32-.93,1.89-1.5a5.21,5.21,0,0,0,1-1.35,6.09,6.09,0,0,0,.39-1c.84-3.1-.84-5.85-3.25-7.59A10.93,10.93,0,0,0,135.39,62a18.7,18.7,0,0,0-2.36-.89l-.7-.22c-.23-.09-.47-.16-.7-.23l-.33-.11-.37-.12c-.23-.08-.47-.16-.7-.22s-.47-.16-.7-.23l-.7-.23-.7-.23-.71-.22c-.23-.09-.46-.16-.7-.23l-.58-.19-.12,0c-.23-.08-.46-.16-.7-.22s-.46-.16-.7-.23l-.7-.23-.7-.23-.7-.22-.81-.27a36.26,36.26,0,0,0,4.43-1.31l.13-.06a12.28,12.28,0,0,0,4.1-3c1-1.1,1.89-2.41,2.86-3.64a11.66,11.66,0,0,1,3.49-3.23c.18-.1.36-.18.54-.26a11.13,11.13,0,0,1,4.91-.31,11.22,11.22,0,0,0,6-.78l.23-.12c1.77-1,3-3.25,1.82-5.19a3.43,3.43,0,0,0-.51-.63,14.67,14.67,0,0,0,2.07-.6c.67-.24,1.34-.48,2-.65,1.54-.4,3,.22,4.45.65.42.12.85.24,1.28.32a11.74,11.74,0,0,0,3,.29,14.07,14.07,0,0,0,3.62-.61,19.12,19.12,0,0,0,3.56-1.51,1.72,1.72,0,0,0,.63.19,1.46,1.46,0,0,0,.31.14,1.59,1.59,0,0,0,.39.08,33257064164127,33257064164127,0,0,0,1.4.46,1.65,1.65,0,0,0,.83.24,80.33,80.33,0,0,0,8.5,0h.05c2.18-.15,4.56-.61,6.09-2.3a4.77,4.77,0,0,0-1.19-7.14,5.4,5.4,0,0,0,0-1.27A7.53,7.53,0,0,0,185,23.45a8.33,8.33,0,0,0-3.2-2.27,11.36,11.36,0,0,0-1.28-.44c-.23-.09-.46-.16-.7-.23l-.7-.23c-.23-.08-.47-.16-.7-.22s-.47-.16-.7-.23l-.7-.23-.7-.23c-.23-.08-.47-.16-.7-.22s-.47-.16-.7-.23l-.71-.23c-.23-.08-.46-.16-.7-.22s-.46-.16-.7-.23-.46-.16-.7-.23l-.7-.23c-.23-.08-.46-.16-.7-.22l0,0-.67-.21-.16-.06-.59-.44-1-.76a20.94,20.94,0,0,0-5.83-3.62l-.53-.16-.17-.06-.53-.17L161,12l-.54-.16-.16-.07-.54-.16-.16-.07-.11,0-.43-.13-.16-.06-.54-.17-.16-.06-.54-.16-.16-.07L157,10.7l-.16-.06a5.6,5.6,0,0,0-.54-.17l-.16-.06a5.52,5.52,0,0,0-.54-.16l-.16-.07-.5-.15a1.29,1.29,0,0,1,0-.21c-.08-.41,0-.73-.2-1.14a3.2,3.2,0,0,0-.87-.85,19.27,19.27,0,0,0-1.65-1.2A18.29,18.29,0,0,0,148.85,5l-.46-.18-.63-.22-.56-.17-.14,0c-.18-.07-.37-.12-.56-.18l-.14-.05-.56-.18-.14,0-.56-.17L145,3.64l-.56-.17-.14-.05-.56-.18-.14-.05L143,3l-.14,0-.56-.17-.14-.06-.56-.17-.14-.05-.56-.18-.14-.05-.56-.17-.14-.06-.56-.17-.14,0-.56-.18-.14,0-.56-.18-.15,0-.55-.17-.14-.05h0L136.7,1l-.15,0A18.93,18.93,0,0,0,126.14.56a22.7,22.7,0,0,0-6.81,2.89c-.74.46-1.46,1-2.16,1.5S115.71,6.11,115,6.74A34,34,0,0,0,112,9.92a22.43,22.43,0,0,0-4,6.15,10.56,10.56,0,0,0-.7,3,1.65,1.65,0,0,0,1.2,1.57l.68.22h0l.68.22h0l.68.22h0l.68.21h0l.68.22h0l.68.22h0l.67.21,0,0,.67.21h0l.67.22h0a2.46,2.46,0,0,0,.29.09l.38.13h0l.67.21h0l.67.22h0l.67.22h0l.67.22h0l.67.21h0l.67.22h0c1,.35,2.08.65,3.14.9a25.14,25.14,0,0,1-1.51,2.05c-1.24,1.56-2.61,3-3.91,4.48-.78.88-1.55,1.76-2.33,2.63q-1.77,2-3.55,4-2.53,2.86-5.13,5.69c-.8.88-1.62,1.74-2.45,2.58S102,48.52,101,49.44a55.68,55.68,0,0,1-6,4.87c-.71.5-1.44,1-2.17,1.47-2.32,1.55-4.66,3.07-6.85,4.79a38.37,38.37,0,0,0-3,2.59c-.45.44-.88.89-1.3,1.36a21.79,21.79,0,0,0-4.38,7.17,16.87,16.87,0,0,0-.74,2.79,19.16,19.16,0,0,0-6,0A20.71,20.71,0,0,0,65.41,76a19.52,19.52,0,0,0-6,4.18,14.82,14.82,0,0,0-2,2.6,10.86,10.86,0,0,0-1.25,2.89c-.63,2.35,0,4.65.69,6.9.14.45.27.89.39,1.33a5.52,5.52,0,0,1-.48,4.78c-1.09,1.7-2.56,3.28-2.59,5.42a4,4,0,0,0,.08.92c0,.17.07.33.11.5.12.45.66,1.27.59,1.75-.11.86-1.56,1.42-2.2,1.8q-2.24,1.33-4.44,2.73-3.32,2.1-6.53,4.35-2.33,1.61-4.59,3.29-5.05,3.75-9.85,7.83l-.94.81-.34.28c-2.8,2.37-7.7,6-7,10a4.56,4.56,0,0,0,.29,1,4.89,4.89,0,0,0,.81,1.33c.2.25.57.5.7.79.39.82-.73,1.39-1.32,1.7a10.54,10.54,0,0,0-4.07,3.88,9.7,9.7,0,0,0-.51,1,11.11,11.11,0,0,0-.58,1.44,13.44,13.44,0,0,0,.58,9.7c.08.19.17.37.26.55s.32.59.49.87a18.11,18.11,0,0,0,9.1,7.21c-.92,1.27-1.77,2.57-2.56,3.92a46.8,46.8,0,0,0-4.72,11.12c-.18.64-.34,1.27-.49,1.92a5.82,5.82,0,0,0-2.08,0,11.57,11.57,0,0,0-6.35,3.84,41,41,0,0,0-3.94,5.4l0,0-.81,1.23L.24,200.68a1.67,1.67,0,0,0,1,2.41c.2.07.39.13.59.18l.11,0,.59.19.11,0,.59.18.11.05.46.14.13,0L4,204l.59.18.11,0,.59.18.12,0c.19.07.39.13.58.18l.12.05a5.76,5.76,0,0,0,.59.18l.11,0a5.8,5.8,0,0,0,.59.19l.11,0,.14.05a3.81,3.81,0,0,0,.45.13l.11.05a5.76,5.76,0,0,0,.59.18l.11.05c.19.07.39.12.59.18l.11,0,.59.19.11,0c.2.07.39.13.59.18l.11.05c.2.07.39.13.59.18l.11.05.59.18.11,0a6.48,6.48,0,0,0,2.47.39,12.15,12.15,0,0,0,4.43-1.17c.52-.23,1.06-.49,1.6-.76a10.59,10.59,0,0,1,5-1.49H26a36,36,0,0,1,3.93.9,9.47,9.47,0,0,0,3.44,0A10.16,10.16,0,0,0,37.15,203c.35-.24.69-.48,1-.74,3-2.34,5.38-5.66,8.78-7.51a8,8,0,0,1,1.31-.57,5,5,0,0,1,.55-.16,2.71,2.71,0,0,1,.41-.09c1.13-.21,2.22-.06,3.27-.65a3.68,3.68,0,0,0,.61-6.3,8,8,0,0,0-2.78-1.37c-.23-.09-.47-.16-.7-.23s-.47-.16-.7-.23l-.66-.21h0c-.24-.09-.47-.16-.7-.23s-.47-.16-.71-.23-.46-.16-.7-.22a5.73,5.73,0,0,0-.7-.23c-.23-.09-.46-.16-.7-.23s-.46-.16-.7-.23-.46-.16-.7-.22-.46-.16-.7-.23l-.66-.22h0c-.21-.08-.43-.15-.64-.21.47-.79,1-1.58,1.45-2.35q2.07-3.3,4.34-6.48c.39-.56.8-1.12,1.2-1.67l.3-.4q3.93-5.34,8.37-10.28l.75-.85c.56-.63,1.12-1.27,1.71-1.9a27.49,27.49,0,0,1,3-2.85c2.09-1.67,4.41-1.9,7-2.09l1.16-.11a24.63,24.63,0,0,0,6-1.52c1.7-.67,3.37-1.46,5.07-2.15l1.34-.5.56-.2a17,17,0,0,1,6.1-.83c.61.33,1.2.67,1.79,1s.89.53,1.34.81c1.75,1.08,3.47,2.22,5.19,3.33,1.92,1.23,3.88,2.4,5.86,3.54l.07,0c1.38.8,3.1,1.82,3.67,3.4a2.94,2.94,0,0,1,.17.71,1.68,1.68,0,0,1-.81,1.71l-.12,0-.16-.06-.54-.17-.17-.06-.53-.16a.85.85,0,0,0-.17-.06,4.68,4.68,0,0,0-.53-.17l-.17-.06-.53-.17-.11,0-.06,0-.53-.17a1.15,1.15,0,0,1-.17-.06,8.54,8.54,0,0,0-7.36.67c-3.13,2.11-3.48,7.08-.58,9.28a5.07,5.07,0,0,0,.54.36,29.2,29.2,0,0,1,1.07,10.76c0,.44-.09.87-.14,1.3a31.54,31.54,0,0,1-1.44,5.84,22.07,22.07,0,0,0-1.11,4,8.11,8.11,0,0,0-.09,1.71,11.2,11.2,0,0,0,7.1,9.41,9.84,9.84,0,0,0,1,.36c.23.09.46.16.7.23l.7.23.33.11.37.11c.23.09.47.16.7.23l.67.22a11.13,11.13,0,0,0-1.48,1.28c-.09.11-.18.23-.26.35a4.76,4.76,0,0,0-.63,4.3,3.87,3.87,0,0,0,.63,1.06,5.52,5.52,0,0,0,2.9,1.71,5.21,5.21,0,0,0,.7.23,22171376109468.79,22171376109468.79,0,0,0,1.4.46,7.16,7.16,0,0,0,.7.22l.06,0,.64.2c.23.09.46.16.7.23l.6.2,3.43,5.27c.36.56.72,1.12,1.09,1.68.76,1.18,1.56,2.35,2.33,3.54a43.93,43.93,0,0,1,2.86,5,45.53,45.53,0,0,1,1.93,6.14,13.68,13.68,0,0,0,1.07,2.6,8.3,8.3,0,0,0,1.84,2.3A6.91,6.91,0,0,0,129,245a56.79,56.79,0,0,1,1.4.45,5.73,5.73,0,0,0,.7.23c.23.09.46.16.7.23s.46.16.7.22a5.73,5.73,0,0,0,.7.23c.23.09.46.16.7.23a6.28,6.28,0,0,0,.7.22,22171376109475.82,22171376109475.82,0,0,0,1.4.46c.23.09.47.16.7.23s.39.14.58.19l.12,0a6.35,6.35,0,0,0,.7.23,6.51,6.51,0,0,0,.71.23c.23.09.46.16.7.23a5.6,5.6,0,0,0,2.67.36,1.66,1.66,0,0,0,1.58-2.07,2.64,2.64,0,0,1-.06-1.22l.21,0a1.78,1.78,0,0,0,.71.22,1.57,1.57,0,0,0,.7.23,56.79,56.79,0,0,0,1.4.45,66514128328260.74,66514128328260.74,0,0,1,1.4.46,1.51,1.51,0,0,0,.29.13,1.89,1.89,0,0,0,.41.1,1.69,1.69,0,0,0,.7.22,1.71,1.71,0,0,0,2-.2,22.38,22.38,0,0,1,8-4.67,21.82,21.82,0,0,1,6.47-1.13,43.92,43.92,0,0,1,4.66.39,9.19,9.19,0,0,0,3.39-.25,18.46,18.46,0,0,0,3.69-1.78l2.06-1.15,2-1.1.53-.3c3.43-1.92,7.13-3.91,10.59-6.23a50.34,50.34,0,0,0,4.65-3.49,29.05,29.05,0,0,0,6.48-7.6c.28-.49.54-1,.78-1.51a17.3,17.3,0,0,0,.82-2A21,21,0,0,0,206.2,205.18Zm-66.72,37a4.33,4.33,0,0,0-2-3.65l-.24-.14a3.81,3.81,0,0,0-4.3.14,4.45,4.45,0,0,0-1.68,4.82c-2.09.34-4.06-1.16-5.14-3-.07-.11-.13-.22-.19-.33a11.28,11.28,0,0,1-.62-1.48c-.57-1.6-.87-3.3-1.4-4.92a28.8,28.8,0,0,0-3.17-6.2c-.29-.46-.58-.91-.88-1.36l-4.86-7.5-1.47-2.26-1.31-2-1.21-.37c-3,.28-7.6-.77-5.6-4.63a3.62,3.62,0,0,1,1.34-1.35,3.78,3.78,0,0,0,1.6-2.76,1.54,1.54,0,0,0-.62-1.39,7.81,7.81,0,0,1-3.86.28c-4.44-.77-8.41-5.09-7.87-9.7,0-.1,0-.21,0-.31a29.92,29.92,0,0,1,1.32-4.49,30,30,0,0,0,1.37-6.64,30.7,30.7,0,0,0-1-11.12c-.09-.32-.19-.64-.29-.95-2.61-.74-3-4.77-1-6.62s5.09-1.72,7.51-.59l.12.06c1.2.58,2.39,1.41,3.83.78a3.3,3.3,0,0,0,1.8-3.67l0-.14c-.65-2.87-3.3-4.23-5.66-5.57l-.06,0c-2.93-1.67-5.85-3.65-8.81-5.51-.77-.48-1.54-1-2.31-1.42a35.81,35.81,0,0,0-11.13-4.73,18,18,0,0,0-6.87-.07,22.64,22.64,0,0,0-4.25,1.29c-3.29,1.3-6.45,3-9.93,3.57-.4.06-.79.11-1.19.15-2.15.2-4.34.17-6.33,1l-.55.25A15.54,15.54,0,0,0,48.27,153l-.29.3q-3.43,3.6-6.61,7.43-2.17,2.63-4.22,5.34T33,171.81c-1.93,2.85-3.77,5.78-5.49,8.76a4.2,4.2,0,0,0-.57,2.36,4.12,4.12,0,0,0,.21,1.09c.72,2,2.34.94,3.39,1.6a.49.49,0,0,1,.22.27,8.17,8.17,0,0,1,6.38-2.71,7.4,7.4,0,0,1,4,1.29,1.79,1.79,0,0,1,.91,2.19,2.7,2.7,0,0,1-2.56,1.79,8.26,8.26,0,0,0-2.36.35c-2.82.84-5.1,3.06-7.33,5.26a37,37,0,0,1-3.8,3.39,8.39,8.39,0,0,1-5.7,1.9c-1.79-.14-3.48-1-5.28-1.08H14.9c-3.88-.05-7.51,3.51-11.12,3.45a4.8,4.8,0,0,1-1.8-.35l1.8-2.73c1-1.53,2-3,3-4.58l1.06-1.61c1.7-2.57,4.33-5.38,7-6.09a4.44,4.44,0,0,1,3.61.52c.25-1.32.56-2.64.93-3.95a44.74,44.74,0,0,1,4.85-11.12c.55-.9,1.12-1.78,1.73-2.63s1.13-1.53,1.72-2.27a18,18,0,0,1-1.72-.54,17.12,17.12,0,0,1-8-5.69,13.35,13.35,0,0,1-1.46-2.48,11.68,11.68,0,0,1-.26-8.64,8.92,8.92,0,0,1,4.58-5.13,3.46,3.46,0,0,0,1.83-2c.54-1.61-.68-2.17-1.32-3.11a3.29,3.29,0,0,1-.4-.85c-.54-2,1.2-4.27,2.87-5.8L26,130.72q2-1.72,4-3.41,3.51-2.94,7.16-5.69c2.48-1.87,5-3.69,7.59-5.43,1.17-.8,2.34-1.58,3.53-2.34q3.13-2,6.35-3.92c1-.59,2.11-1.33,2.24-2.48a6.13,6.13,0,0,0-.61-2.39,2.18,2.18,0,0,1-.11-.44c-.45-2.52,2.31-4.38,3.13-6.8,0-.14.09-.28.13-.42a6.54,6.54,0,0,0,0-2.82c0-.21-.09-.43-.14-.64-.54-2.21-1.62-4.46-1.45-6.73a8.36,8.36,0,0,1,1.59-4.06l.23-.33L60,82.4a17.76,17.76,0,0,1,10.57-6.33,17,17,0,0,1,7.73.22,14.19,14.19,0,0,1,1-4.6,19.37,19.37,0,0,1,2.4-4.33,27.69,27.69,0,0,1,4.18-4.47c1-.82,1.94-1.58,3-2.32,1.31-1,2.65-1.85,4-2.75,2-1.33,4-2.67,5.92-4.14a57.39,57.39,0,0,0,4.86-4.24l.34-.33c2.59-2.54,5-5.26,7.43-8l2.51-2.82L115,37l5.25-5.91c1.11-1.25,2.24-2.53,3.26-3.88a21.92,21.92,0,0,0,2.61-4.27,13.4,13.4,0,0,0,.94-2.87c-.31.07-.62.13-.94.18a33.74,33.74,0,0,1-11.12.1,32.59,32.59,0,0,1-5.84-1.45,7.76,7.76,0,0,1,.74-2.82,17.48,17.48,0,0,1,1.68-2.77A34.89,34.89,0,0,1,115,9.2,30,30,0,0,1,120.13,5a21.89,21.89,0,0,1,6-2.79,18.34,18.34,0,0,1,4.74-.69A17.53,17.53,0,0,1,141.42,5c.33.24.65.5,1,.77-.27,1.63,1.25,3.06,2.83,3.54a16.15,16.15,0,0,0,3.18.46,12.37,12.37,0,0,1,1.71.25c3.64.81,6.23,3.94,9.41,5.89l.36.21a12.23,12.23,0,0,0,1.54.76c2.84,1.12,6.08.92,8.92,2.07l.31.14c2.68,1.28,4.74,4.76,2.92,7.08a1.93,1.93,0,0,1,2.58,1.08,3,3,0,0,1,0,3.09c-1.17,1.7-3.43,2.11-5.53,2.22l-.57,0q-3.84.12-7.7,0a7.47,7.47,0,0,0,3.34-5.31,7.23,7.23,0,0,0,0-1.47c-.54.49-1.09,1-1.66,1.47a39.43,39.43,0,0,1-4.57,3.49c-3.26,2.09-6.81,3.4-10.52,2.6q-.3-.06-.6-.15c-1.69-.45-3.36-1.2-5.08-1-2.05.24-4.22,1.79-6.05,1.46a2.46,2.46,0,0,1-1.07-.46c0,1.15,0,2.29,0,3.44l.37-.62a1,1,0,0,1,.71.06,1.62,1.62,0,0,1,.92,1.52,2,2,0,0,1-.23.77,2.7,2.7,0,0,1-.69.82,3.39,3.39,0,0,1-.63.44c-3,1.64-6.81-.1-10.1.81l-.39.13c-4,1.37-5.85,6.18-9.17,8.92a8.42,8.42,0,0,1-1.35,1c-.2.11-.4.22-.6.31-2.52,1.18-5.52,1.26-7.89,2.73a7.69,7.69,0,0,0-3.24,4.3,8.06,8.06,0,0,0-.34,2.84,7.51,7.51,0,0,0,.34,1.81l.07.19a17.84,17.84,0,0,1,2.88-2,19.43,19.43,0,0,1,8.18-2.4,18.58,18.58,0,0,1,7.81,1.13,12.16,12.16,0,0,1,2.52,1.27,9.63,9.63,0,0,1,.79.6,6.68,6.68,0,0,1,1.32,1.53,4.48,4.48,0,0,1-.36,5.41,7.66,7.66,0,0,1-1,.74c-.23.17-.46.33-.67.52a4.91,4.91,0,0,0-1.38,2.32,8.59,8.59,0,0,0-.08,4.38c-3.86.78-7.61,2.69-9,6.33l-.15.42a8.91,8.91,0,0,0-.4,2.39,119.56,119.56,0,0,0-10.58,6.65c-1,.68-1.91,1.37-2.85,2.08l-.29.22a28.87,28.87,0,0,1-5.06,3.36c-.94.43-1.94.76-2.92,1.12a13.32,13.32,0,0,0-2.7,1.27c-1.69,1.12-3,3.31-2.16,5.15l0,0,.35,0c1.5-.18,3-.4,4.49-.64q5.61-.9,11.12-2.29c3-.76,6.07-1.64,9-2.62.7-.23,1.39-.46,2.08-.72a23.08,23.08,0,0,0,3-1.33,18.22,18.22,0,0,0,4.49-3.52,28.87,28.87,0,0,0,3.67-4.9c.76-1.25,1.45-2.55,2.09-3.84a20.71,20.71,0,0,1,1.37-2.38c1.91-2.78,4-3.63,7.66-5l1.23-.45c2.34-.86,5.17-1.19,7.14.32a6.14,6.14,0,0,0-2.29,2.82c1.2-.13,1.74,1,1.74,2.29a4.47,4.47,0,0,1-.56,2.15c-1,1.76-2.56,4-.89,5.51a3,3,0,0,0,3.06.47,17,17,0,0,1,1.7-.58,20.63,20.63,0,0,1,8.45-.66,4.38,4.38,0,0,1,2.67,1.12,1.89,1.89,0,0,1,.44.81,3.54,3.54,0,0,1-.21,1.84l-.14.46-.09.3c-.46,1.55-.91,3.09-1.37,4.63a6.09,6.09,0,0,0-6.35,2.34l3,1.89a5.2,5.2,0,0,0-1.66,2c-1,2-.94,4.8-.71,7.2a5.61,5.61,0,0,0,.91,3.06,3.94,3.94,0,0,0,1,.87c.39.24.81.45,1.21.68a12.6,12.6,0,0,1,4,3.56,12.89,12.89,0,0,1,2.51,6.83,9.22,9.22,0,0,0-2.51-.29,9,9,0,0,0-2.3.34l-.46.14c0,1.53-.07,3.06-.11,4.59l-.33,0a7.79,7.79,0,0,0-3.21,6.36,5.66,5.66,0,0,0,.06.82,7.38,7.38,0,0,0-.76-.82,7.15,7.15,0,0,0-3-1.65l-.48,1.65c-.19.66-.38,1.32-.56,2-.86,3-1.67,6.08-2.46,9.14q-1.41,5.55-2.68,11.12t-2.36,11.13c-.06.29-.12.59-.17.89a4.89,4.89,0,0,0,2.9-4.16,7,7,0,0,1,4.77-.36c3.4.73,7,2.7,10.12,1.24a7.79,7.79,0,0,0,1-.6c.64-.47,1.23-1,1.85-1.51a13.35,13.35,0,0,1,9.28-2.67,11.5,11.5,0,0,1,8.49,4.48,16.64,16.64,0,0,1,1.55,2.69c.16.32.31.65.47,1s.41.87.61,1.31l4.15,8.84q1.84,3.9,3.67,7.8c.51,1.1,1,2.21,1.52,3.33a49,49,0,0,1,1.78,4.57,25.24,25.24,0,0,1,1.32,6.55,17.33,17.33,0,0,1-1.32,7.66,20.28,20.28,0,0,1-1.85,3.47,35.17,35.17,0,0,1-9.27,8.94c-1.08.76-2.19,1.49-3.31,2.18-1.65,1-3.33,2-5,2.92l-2.83,1.58-5.45,3A9.9,9.9,0,0,1,162,236.3a8.76,8.76,0,0,1-2.45-.07l-1-.13a23.82,23.82,0,0,0-10.13,1,24.88,24.88,0,0,0-3.66,1.5A23.28,23.28,0,0,0,139.48,242.2ZM90.07,99.91c-1.69,1.12-3,3.31-2.16,5.15l0,0,.35,0c1.5-.18,3-.4,4.49-.64V98.64A13.32,13.32,0,0,0,90.07,99.91Zm13.48-39.34a7.51,7.51,0,0,0,.34,1.81V57.73A8.06,8.06,0,0,0,103.55,60.57ZM90.07,99.91c-1.69,1.12-3,3.31-2.16,5.15l0,0,.35,0c1.5-.18,3-.4,4.49-.64V98.64A13.32,13.32,0,0,0,90.07,99.91Zm13.48-39.34a7.51,7.51,0,0,0,.34,1.81V57.73A8.06,8.06,0,0,0,103.55,60.57ZM90.07,99.91c-1.69,1.12-3,3.31-2.16,5.15l0,0,.35,0c1.5-.18,3-.4,4.49-.64V98.64A13.32,13.32,0,0,0,90.07,99.91Zm13.48-39.34a7.51,7.51,0,0,0,.34,1.81V57.73A8.06,8.06,0,0,0,103.55,60.57ZM90.07,99.91c-1.69,1.12-3,3.31-2.16,5.15l0,0,.35,0c1.5-.18,3-.4,4.49-.64V98.64A13.32,13.32,0,0,0,90.07,99.91Zm13.48-39.34a7.51,7.51,0,0,0,.34,1.81V57.73A8.06,8.06,0,0,0,103.55,60.57ZM74.77,143.34a22.64,22.64,0,0,0-4.25,1.29c-3.29,1.3-6.45,3-9.93,3.57-.4.06-.79.11-1.19.15-2.15.2-4.34.17-6.33,1l-.55.25A15.54,15.54,0,0,0,48.27,153l-.29.3q-3.43,3.6-6.61,7.43-2.17,2.63-4.22,5.34T33,171.81c-1.93,2.85-3.77,5.78-5.49,8.76a4.2,4.2,0,0,0-.57,2.36,4.12,4.12,0,0,0,.21,1.09c.72,2,2.34.94,3.39,1.6a.49.49,0,0,1,.22.27,8.17,8.17,0,0,1,6.38-2.71v-.25h4.77c-.21-.08-.43-.15-.64-.21.47-.79,1-1.58,1.45-2.35q2.07-3.3,4.34-6.48c.39-.56.8-1.12,1.2-1.67v-.4h.3q3.93-5.34,8.37-10.28l.75-.85c.56-.63,1.12-1.27,1.71-1.9a27.49,27.49,0,0,1,3-2.85c2.09-1.67,4.41-1.9,7-2.09l1.16-.11v-4.17H81.64v-6.15A18,18,0,0,0,74.77,143.34Zm15.3-43.43c-1.69,1.12-3,3.31-2.16,5.15l0,0,.35,0c1.5-.18,3-.4,4.49-.64V98.64A13.32,13.32,0,0,0,90.07,99.91Zm13.48-39.34a7.51,7.51,0,0,0,.34,1.81V57.73A8.06,8.06,0,0,0,103.55,60.57ZM81.64,143.41a18,18,0,0,0-6.87-.07,22.64,22.64,0,0,0-4.25,1.29c-3.29,1.3-6.45,3-9.93,3.57-.4.06-.79.11-1.19.15-2.15.2-4.34.17-6.33,1l-.55.25A15.54,15.54,0,0,0,48.27,153l-.29.3q-3.43,3.6-6.61,7.43-2.17,2.63-4.22,5.34T33,171.81c-1.93,2.85-3.77,5.78-5.49,8.76a4.2,4.2,0,0,0-.57,2.36,4.12,4.12,0,0,0,.21,1.09c.72,2,2.34.94,3.39,1.6a.49.49,0,0,1,.22.27,8.17,8.17,0,0,1,6.38-2.71v-.25h4.77c-.21-.08-.43-.15-.64-.21.47-.79,1-1.58,1.45-2.35q2.07-3.3,4.34-6.48c.39-.56.8-1.12,1.2-1.67l.3-.4q3.93-5.34,8.37-10.28l.75-.85c.56-.63,1.12-1.27,1.71-1.9a27.49,27.49,0,0,1,3-2.85c2.09-1.67,4.41-1.9,7-2.09l1.16-.11a24.63,24.63,0,0,0,6-1.52c1.7-.67,3.37-1.46,5.07-2.15v-.5H83l.56-.2a17,17,0,0,1,6.1-.83c.61.33,1.2.67,1.79,1h1.34v-1.42A35.81,35.81,0,0,0,81.64,143.41Zm8.43-43.5c-1.69,1.12-3,3.31-2.16,5.15l0,0,.35,0c1.5-.18,3-.4,4.49-.64V98.64A13.32,13.32,0,0,0,90.07,99.91Zm13.48-39.34a7.51,7.51,0,0,0,.34,1.81V57.73A8.06,8.06,0,0,0,103.55,60.57Zm6.09,100.25,0-.14c-.65-2.87-3.3-4.23-5.66-5.57l-.06,0v2.21c1.38.8,3.1,1.82,3.67,3.4a2.94,2.94,0,0,1,.17.71,1.68,1.68,0,0,1-.81,1.71l-.12,0-.16-.06-.54-.17-.17-.06-.53-.16a.85.85,0,0,0-.17-.06,4.68,4.68,0,0,0-.53-.17l-.17-.06-.53-.17-.11,0v1.54l.12.06c1.2.58,2.39,1.41,3.83.78A3.3,3.3,0,0,0,109.64,160.82ZM90.07,99.91c-1.69,1.12-3,3.31-2.16,5.15l0,0,.35,0c1.5-.18,3-.4,4.49-.64V98.64A13.32,13.32,0,0,0,90.07,99.91Zm13.48-39.34a7.51,7.51,0,0,0,.34,1.81V57.73A8.06,8.06,0,0,0,103.55,60.57Zm6.09,100.25,0-.14c-.65-2.87-3.3-4.23-5.66-5.57l-.06,0c-2.93-1.67-5.85-3.65-8.81-5.51-.77-.48-1.54-1-2.31-1.42a35.81,35.81,0,0,0-11.13-4.73,18,18,0,0,0-6.87-.07,22.64,22.64,0,0,0-4.25,1.29c-3.29,1.3-6.45,3-9.93,3.57-.4.06-.79.11-1.19.15-2.15.2-4.34.17-6.33,1l-.55.25A15.54,15.54,0,0,0,48.27,153l-.29.3q-3.43,3.6-6.61,7.43-2.17,2.63-4.22,5.34T33,171.81c-1.93,2.85-3.77,5.78-5.49,8.76a4.2,4.2,0,0,0-.57,2.36,4.12,4.12,0,0,0,.21,1.09c.72,2,2.34.94,3.39,1.6a.49.49,0,0,1,.22.27,8.17,8.17,0,0,1,6.38-2.71v-.25h4.77c-.21-.08-.43-.15-.64-.21.47-.79,1-1.58,1.45-2.35q2.07-3.3,4.34-6.48c.39-.56.8-1.12,1.2-1.67l.3-.4q3.93-5.34,8.37-10.28l.75-.85c.56-.63,1.12-1.27,1.71-1.9a27.49,27.49,0,0,1,3-2.85c2.09-1.67,4.41-1.9,7-2.09l1.16-.11a24.63,24.63,0,0,0,6-1.52c1.7-.67,3.37-1.46,5.07-2.15l1.34-.5.56-.2a17,17,0,0,1,6.1-.83c.61.33,1.2.67,1.79,1s.89.53,1.34.81c1.75,1.08,3.47,2.22,5.19,3.33,1.92,1.23,3.88,2.4,5.86,3.54l.07,0c1.38.8,3.1,1.82,3.67,3.4a2.94,2.94,0,0,1,.17.71,1.68,1.68,0,0,1-.81,1.71l-.12,0-.16-.06-.54-.17-.17-.06-.53-.16a.85.85,0,0,0-.17-.06,4.68,4.68,0,0,0-.53-.17l-.17-.06-.53-.17-.11,0-.06,0-.53-.17a1.15,1.15,0,0,1-.17-.06,8.54,8.54,0,0,0-7.36.67c-3.13,2.11-3.48,7.08-.58,9.28a5.07,5.07,0,0,0,.54.36,29.2,29.2,0,0,1,1.07,10.76h2a30.7,30.7,0,0,0-1-11.12c-.09-.32-.19-.64-.29-.95-2.61-.74-3-4.77-1-6.62s5.09-1.72,7.51-.59l.12.06c1.2.58,2.39,1.41,3.83.78A3.3,3.3,0,0,0,109.64,160.82ZM90.07,99.91c-1.69,1.12-3,3.31-2.16,5.15l0,0,.35,0c1.5-.18,3-.4,4.49-.64V98.64A13.32,13.32,0,0,0,90.07,99.91Zm13.48-39.34a7.51,7.51,0,0,0,.34,1.81V57.73A8.06,8.06,0,0,0,103.55,60.57Zm6.09,100.25,0-.14c-.65-2.87-3.3-4.23-5.66-5.57l-.06,0c-2.93-1.67-5.85-3.65-8.81-5.51-.77-.48-1.54-1-2.31-1.42a35.81,35.81,0,0,0-11.13-4.73,18,18,0,0,0-6.87-.07,22.64,22.64,0,0,0-4.25,1.29c-3.29,1.3-6.45,3-9.93,3.57-.4.06-.79.11-1.19.15-2.15.2-4.34.17-6.33,1l-.55.25A15.54,15.54,0,0,0,48.27,153l-.29.3q-3.43,3.6-6.61,7.43-2.17,2.63-4.22,5.34T33,171.81c-1.93,2.85-3.77,5.78-5.49,8.76a4.2,4.2,0,0,0-.57,2.36,4.12,4.12,0,0,0,.21,1.09c.72,2,2.34.94,3.39,1.6a.49.49,0,0,1,.22.27,8.17,8.17,0,0,1,6.38-2.71v-.25h4.77c-.21-.08-.43-.15-.64-.21.47-.79,1-1.58,1.45-2.35q2.07-3.3,4.34-6.48c.39-.56.8-1.12,1.2-1.67l.3-.4q3.93-5.34,8.37-10.28l.75-.85c.56-.63,1.12-1.27,1.71-1.9a27.49,27.49,0,0,1,3-2.85c2.09-1.67,4.41-1.9,7-2.09l1.16-.11a24.63,24.63,0,0,0,6-1.52c1.7-.67,3.37-1.46,5.07-2.15l1.34-.5.56-.2a17,17,0,0,1,6.1-.83c.61.33,1.2.67,1.79,1s.89.53,1.34.81c1.75,1.08,3.47,2.22,5.19,3.33,1.92,1.23,3.88,2.4,5.86,3.54l.07,0c1.38.8,3.1,1.82,3.67,3.4a2.94,2.94,0,0,1,.17.71,1.68,1.68,0,0,1-.81,1.71l-.12,0-.16-.06-.54-.17-.17-.06-.53-.16a.85.85,0,0,0-.17-.06,4.68,4.68,0,0,0-.53-.17l-.17-.06-.53-.17-.11,0-.06,0-.53-.17a1.15,1.15,0,0,1-.17-.06,8.54,8.54,0,0,0-7.36.67c-3.13,2.11-3.48,7.08-.58,9.28a5.07,5.07,0,0,0,.54.36,29.2,29.2,0,0,1,1.07,10.76h2a30.7,30.7,0,0,0-1-11.12c-.09-.32-.19-.64-.29-.95-2.61-.74-3-4.77-1-6.62s5.09-1.72,7.51-.59l.12.06c1.2.58,2.39,1.41,3.83.78A3.3,3.3,0,0,0,109.64,160.82ZM90.07,99.91c-1.69,1.12-3,3.31-2.16,5.15l0,0,.35,0c1.5-.18,3-.4,4.49-.64V98.64A13.32,13.32,0,0,0,90.07,99.91Zm13.48-39.34a7.51,7.51,0,0,0,.34,1.81V57.73A8.06,8.06,0,0,0,103.55,60.57Zm6.09,100.25,0-.14c-.65-2.87-3.3-4.23-5.66-5.57l-.06,0c-2.93-1.67-5.85-3.65-8.81-5.51-.77-.48-1.54-1-2.31-1.42a35.81,35.81,0,0,0-11.13-4.73,18,18,0,0,0-6.87-.07,22.64,22.64,0,0,0-4.25,1.29c-3.29,1.3-6.45,3-9.93,3.57-.4.06-.79.11-1.19.15-2.15.2-4.34.17-6.33,1l-.55.25A15.54,15.54,0,0,0,48.27,153l-.29.3q-3.43,3.6-6.61,7.43-2.17,2.63-4.22,5.34T33,171.81c-1.93,2.85-3.77,5.78-5.49,8.76a4.2,4.2,0,0,0-.57,2.36,4.12,4.12,0,0,0,.21,1.09c.72,2,2.34.94,3.39,1.6a.49.49,0,0,1,.22.27,8.17,8.17,0,0,1,6.38-2.71v-.25h4.77c-.21-.08-.43-.15-.64-.21.47-.79,1-1.58,1.45-2.35q2.07-3.3,4.34-6.48c.39-.56.8-1.12,1.2-1.67l.3-.4q3.93-5.34,8.37-10.28l.75-.85c.56-.63,1.12-1.27,1.71-1.9a27.49,27.49,0,0,1,3-2.85c2.09-1.67,4.41-1.9,7-2.09l1.16-.11a24.63,24.63,0,0,0,6-1.52c1.7-.67,3.37-1.46,5.07-2.15l1.34-.5.56-.2a17,17,0,0,1,6.1-.83c.61.33,1.2.67,1.79,1s.89.53,1.34.81c1.75,1.08,3.47,2.22,5.19,3.33,1.92,1.23,3.88,2.4,5.86,3.54l.07,0c1.38.8,3.1,1.82,3.67,3.4a2.94,2.94,0,0,1,.17.71,1.68,1.68,0,0,1-.81,1.71l-.12,0-.16-.06-.54-.17-.17-.06-.53-.16a.85.85,0,0,0-.17-.06,4.68,4.68,0,0,0-.53-.17l-.17-.06-.53-.17-.11,0-.06,0-.53-.17a1.15,1.15,0,0,1-.17-.06,8.54,8.54,0,0,0-7.36.67c-3.13,2.11-3.48,7.08-.58,9.28a5.07,5.07,0,0,0,.54.36,29.2,29.2,0,0,1,1.07,10.76h2a30.7,30.7,0,0,0-1-11.12c-.09-.32-.19-.64-.29-.95-2.61-.74-3-4.77-1-6.62s5.09-1.72,7.51-.59l.12.06c1.2.58,2.39,1.41,3.83.78A3.3,3.3,0,0,0,109.64,160.82ZM90.07,99.91c-1.69,1.12-3,3.31-2.16,5.15l0,0,.35,0c1.5-.18,3-.4,4.49-.64V98.64A13.32,13.32,0,0,0,90.07,99.91Zm13.48-39.34a7.51,7.51,0,0,0,.34,1.81V57.73A8.06,8.06,0,0,0,103.55,60.57Zm6.09,100.25,0-.14c-.65-2.87-3.3-4.23-5.66-5.57l-.06,0c-2.93-1.67-5.85-3.65-8.81-5.51-.77-.48-1.54-1-2.31-1.42a35.81,35.81,0,0,0-11.13-4.73,18,18,0,0,0-6.87-.07,22.64,22.64,0,0,0-4.25,1.29c-3.29,1.3-6.45,3-9.93,3.57-.4.06-.79.11-1.19.15-2.15.2-4.34.17-6.33,1l-.55.25A15.54,15.54,0,0,0,48.27,153l-.29.3q-3.43,3.6-6.61,7.43-2.17,2.63-4.22,5.34T33,171.81c-1.93,2.85-3.77,5.78-5.49,8.76a4.2,4.2,0,0,0-.57,2.36,4.12,4.12,0,0,0,.21,1.09c.72,2,2.34.94,3.39,1.6a.49.49,0,0,1,.22.27,8.17,8.17,0,0,1,6.38-2.71v-.25h4.77c-.21-.08-.43-.15-.64-.21.47-.79,1-1.58,1.45-2.35q2.07-3.3,4.34-6.48c.39-.56.8-1.12,1.2-1.67l.3-.4q3.93-5.34,8.37-10.28l.75-.85c.56-.63,1.12-1.27,1.71-1.9a27.49,27.49,0,0,1,3-2.85c2.09-1.67,4.41-1.9,7-2.09l1.16-.11a24.63,24.63,0,0,0,6-1.52c1.7-.67,3.37-1.46,5.07-2.15l1.34-.5.56-.2a17,17,0,0,1,6.1-.83c.61.33,1.2.67,1.79,1s.89.53,1.34.81c1.75,1.08,3.47,2.22,5.19,3.33,1.92,1.23,3.88,2.4,5.86,3.54l.07,0c1.38.8,3.1,1.82,3.67,3.4a2.94,2.94,0,0,1,.17.71,1.68,1.68,0,0,1-.81,1.71l-.12,0-.16-.06-.54-.17-.17-.06-.53-.16a.85.85,0,0,0-.17-.06,4.68,4.68,0,0,0-.53-.17l-.17-.06-.53-.17-.11,0v1.54l.12.06c1.2.58,2.39,1.41,3.83.78A3.3,3.3,0,0,0,109.64,160.82ZM101,93.94l-.29.22a28.87,28.87,0,0,1-5.06,3.36c-.94.43-1.94.76-2.92,1.12a13.32,13.32,0,0,0-2.7,1.27c-1.69,1.12-3,3.31-2.16,5.15l0,0,.35,0c1.5-.18,3-.4,4.49-.64q5.61-.9,11.12-2.29V91.86C102.93,92.54,102,93.23,101,93.94Zm2.51-33.37a7.51,7.51,0,0,0,.34,1.81V57.73A8.06,8.06,0,0,0,103.55,60.57Zm.4,94.54-.06,0c-2.93-1.67-5.85-3.65-8.81-5.51-.77-.48-1.54-1-2.31-1.42a35.81,35.81,0,0,0-11.13-4.73,18,18,0,0,0-6.87-.07,22.64,22.64,0,0,0-4.25,1.29c-3.29,1.3-6.45,3-9.93,3.57-.4.06-.79.11-1.19.15-2.15.2-4.34.17-6.33,1l-.55.25A15.54,15.54,0,0,0,48.27,153l-.29.3q-3.43,3.6-6.61,7.43-2.17,2.63-4.22,5.34T33,171.81c-1.93,2.85-3.77,5.78-5.49,8.76a4.2,4.2,0,0,0-.57,2.36,4.12,4.12,0,0,0,.21,1.09c.72,2,2.34.94,3.39,1.6a.49.49,0,0,1,.22.27,8.17,8.17,0,0,1,6.38-2.71v-.25h4.77c-.21-.08-.43-.15-.64-.21.47-.79,1-1.58,1.45-2.35q2.07-3.3,4.34-6.48c.39-.56.8-1.12,1.2-1.67l.3-.4q3.93-5.34,8.37-10.28l.75-.85c.56-.63,1.12-1.27,1.71-1.9a27.49,27.49,0,0,1,3-2.85c2.09-1.67,4.41-1.9,7-2.09l1.16-.11a24.63,24.63,0,0,0,6-1.52c1.7-.67,3.37-1.46,5.07-2.15l1.34-.5.56-.2a17,17,0,0,1,6.1-.83c.61.33,1.2.67,1.79,1s.89.53,1.34.81c1.75,1.08,3.47,2.22,5.19,3.33,1.92,1.23,3.88,2.4,5.86,3.54l.07,0c1.38.8,3.1,1.82,3.67,3.4h2C109,157.81,106.31,156.45,104,155.11Zm36.94,16.7c-.06.29-.12.59-.17.89a4.87,4.87,0,0,0,1.35-.89Zm8.54-35-.48,1.65h3.45A7.15,7.15,0,0,0,149.43,136.79ZM101,93.94l-.29.22a28.87,28.87,0,0,1-5.06,3.36c-.94.43-1.94.76-2.92,1.12a13.32,13.32,0,0,0-2.7,1.27c-1.69,1.12-3,3.31-2.16,5.15l0,0,.35,0c1.5-.18,3-.4,4.49-.64q5.61-.9,11.12-2.29V91.86C102.93,92.54,102,93.23,101,93.94Zm2.51-33.37a7.51,7.51,0,0,0,.34,1.81V57.73A8.06,8.06,0,0,0,103.55,60.57Zm.4,94.54-.06,0c-2.93-1.67-5.85-3.65-8.81-5.51-.77-.48-1.54-1-2.31-1.42a35.81,35.81,0,0,0-11.13-4.73,18,18,0,0,0-6.87-.07,22.64,22.64,0,0,0-4.25,1.29c-3.29,1.3-6.45,3-9.93,3.57-.4.06-.79.11-1.19.15-2.15.2-4.34.17-6.33,1l-.55.25A15.54,15.54,0,0,0,48.27,153l-.29.3q-3.43,3.6-6.61,7.43-2.17,2.63-4.22,5.34T33,171.81c-1.93,2.85-3.77,5.78-5.49,8.76a4.2,4.2,0,0,0-.57,2.36,4.12,4.12,0,0,0,.21,1.09c.72,2,2.34.94,3.39,1.6a.49.49,0,0,1,.22.27,8.17,8.17,0,0,1,6.38-2.71v-.25h4.77c-.21-.08-.43-.15-.64-.21.47-.79,1-1.58,1.45-2.35q2.07-3.3,4.34-6.48c.39-.56.8-1.12,1.2-1.67l.3-.4q3.93-5.34,8.37-10.28l.75-.85c.56-.63,1.12-1.27,1.71-1.9a27.49,27.49,0,0,1,3-2.85c2.09-1.67,4.41-1.9,7-2.09l1.16-.11a24.63,24.63,0,0,0,6-1.52c1.7-.67,3.37-1.46,5.07-2.15l1.34-.5.56-.2a17,17,0,0,1,6.1-.83c.61.33,1.2.67,1.79,1s.89.53,1.34.81c1.75,1.08,3.47,2.22,5.19,3.33,1.92,1.23,3.88,2.4,5.86,3.54l.07,0c1.38.8,3.1,1.82,3.67,3.4h2C109,157.81,106.31,156.45,104,155.11Zm36.94,16.7c-.06.29-.12.59-.17.89a4.87,4.87,0,0,0,1.35-.89Zm8.54-35-.48,1.65h3.45A7.15,7.15,0,0,0,149.43,136.79ZM104,155.11l-.06,0c-2.93-1.67-5.85-3.65-8.81-5.51-.77-.48-1.54-1-2.31-1.42a35.81,35.81,0,0,0-11.13-4.73,18,18,0,0,0-6.87-.07,22.64,22.64,0,0,0-4.25,1.29c-3.29,1.3-6.45,3-9.93,3.57-.4.06-.79.11-1.19.15-2.15.2-4.34.17-6.33,1l-.55.25A15.54,15.54,0,0,0,48.27,153l-.29.3q-3.43,3.6-6.61,7.43-2.17,2.63-4.22,5.34T33,171.81c-1.93,2.85-3.77,5.78-5.49,8.76a4.2,4.2,0,0,0-.57,2.36,4.12,4.12,0,0,0,.21,1.09c.72,2,2.34.94,3.39,1.6a.49.49,0,0,1,.22.27,8.17,8.17,0,0,1,6.38-2.71v-.25h4.77c-.21-.08-.43-.15-.64-.21.47-.79,1-1.58,1.45-2.35q2.07-3.3,4.34-6.48c.39-.56.8-1.12,1.2-1.67l.3-.4q3.93-5.34,8.37-10.28l.75-.85c.56-.63,1.12-1.27,1.71-1.9a27.49,27.49,0,0,1,3-2.85c2.09-1.67,4.41-1.9,7-2.09l1.16-.11a24.63,24.63,0,0,0,6-1.52c1.7-.67,3.37-1.46,5.07-2.15l1.34-.5.56-.2a17,17,0,0,1,6.1-.83c.61.33,1.2.67,1.79,1s.89.53,1.34.81c1.75,1.08,3.47,2.22,5.19,3.33,1.92,1.23,3.88,2.4,5.86,3.54l.07,0c1.38.8,3.1,1.82,3.67,3.4h2C109,157.81,106.31,156.45,104,155.11ZM117,49.44a8.42,8.42,0,0,1-1.35,1c-.2.11-.4.22-.6.31-2.52,1.18-5.52,1.26-7.89,2.73a7.69,7.69,0,0,0-3.24,4.3,8.06,8.06,0,0,0-.34,2.84,7.51,7.51,0,0,0,.34,1.81l.07.19a17.84,17.84,0,0,1,2.88-2,19.43,19.43,0,0,1,8.18-2.4,18.58,18.58,0,0,1,7.81,1.13,12.16,12.16,0,0,1,2.52,1.27,9.63,9.63,0,0,1,.79.6V58.9l-.12,0c-.23-.08-.46-.16-.7-.22s-.46-.16-.7-.23l-.7-.23-.7-.23-.7-.22-.81-.27a36.26,36.26,0,0,0,4.43-1.31V40.52C122.12,41.89,120.29,46.7,117,49.44Zm8.5,19.93a4.91,4.91,0,0,0-1.38,2.32,8.59,8.59,0,0,0-.08,4.38c-3.86.78-7.61,2.69-9,6.33l-.15.42a8.91,8.91,0,0,0-.4,2.39,119.56,119.56,0,0,0-10.58,6.65c-1,.68-1.91,1.37-2.85,2.08l-.29.22a28.87,28.87,0,0,1-5.06,3.36c-.94.43-1.94.76-2.92,1.12a13.32,13.32,0,0,0-2.7,1.27c-1.69,1.12-3,3.31-2.16,5.15l0,0,.35,0c1.5-.18,3-.4,4.49-.64q5.61-.9,11.12-2.29c3-.76,6.07-1.64,9-2.62.7-.23,1.39-.46,2.08-.72a23.08,23.08,0,0,0,3-1.33,18.22,18.22,0,0,0,4.49-3.52,28.87,28.87,0,0,0,3.67-4.9V68.85C125.91,69,125.68,69.18,125.47,69.37Zm10.72-36.22c0,1.15,0,2.29,0,3.44l.37-.62a1,1,0,0,1,.71.06V33.61A2.46,2.46,0,0,1,136.19,33.15Zm4.7,138.66c-.06.29-.12.59-.17.89a4.87,4.87,0,0,0,1.35-.89ZM104,155.11l-.06,0c-2.93-1.67-5.85-3.65-8.81-5.51-.77-.48-1.54-1-2.31-1.42a35.81,35.81,0,0,0-11.13-4.73,18,18,0,0,0-6.87-.07,22.64,22.64,0,0,0-4.25,1.29c-3.29,1.3-6.45,3-9.93,3.57-.4.06-.79.11-1.19.15-2.15.2-4.34.17-6.33,1l-.55.25A15.54,15.54,0,0,0,48.27,153l-.29.3q-3.43,3.6-6.61,7.43-2.17,2.63-4.22,5.34T33,171.81c-1.93,2.85-3.77,5.78-5.49,8.76a4.2,4.2,0,0,0-.57,2.36,4.12,4.12,0,0,0,.21,1.09c.72,2,2.34.94,3.39,1.6a.49.49,0,0,1,.22.27,8.17,8.17,0,0,1,6.38-2.71v-.25h4.77c-.21-.08-.43-.15-.64-.21.47-.79,1-1.58,1.45-2.35q2.07-3.3,4.34-6.48c.39-.56.8-1.12,1.2-1.67l.3-.4q3.93-5.34,8.37-10.28l.75-.85c.56-.63,1.12-1.27,1.71-1.9a27.49,27.49,0,0,1,3-2.85c2.09-1.67,4.41-1.9,7-2.09l1.16-.11a24.63,24.63,0,0,0,6-1.52c1.7-.67,3.37-1.46,5.07-2.15l1.34-.5.56-.2a17,17,0,0,1,6.1-.83c.61.33,1.2.67,1.79,1s.89.53,1.34.81c1.75,1.08,3.47,2.22,5.19,3.33,1.92,1.23,3.88,2.4,5.86,3.54l.07,0c1.38.8,3.1,1.82,3.67,3.4h2C109,157.81,106.31,156.45,104,155.11Zm32.24-122c0,1.15,0,2.29,0,3.44l.37-.62a1,1,0,0,1,.71.06V33.61A2.46,2.46,0,0,1,136.19,33.15Zm4.7,138.66c-.06.29-.12.59-.17.89a4.87,4.87,0,0,0,1.35-.89ZM165.74,25.73c-.54.49-1.09,1-1.66,1.47h1.63A7.23,7.23,0,0,0,165.74,25.73ZM104,155.11l-.06,0c-2.93-1.67-5.85-3.65-8.81-5.51-.77-.48-1.54-1-2.31-1.42a35.81,35.81,0,0,0-11.13-4.73,18,18,0,0,0-6.87-.07,22.64,22.64,0,0,0-4.25,1.29c-3.29,1.3-6.45,3-9.93,3.57-.4.06-.79.11-1.19.15-2.15.2-4.34.17-6.33,1l-.55.25A15.54,15.54,0,0,0,48.27,153l-.29.3q-3.43,3.6-6.61,7.43-2.17,2.63-4.22,5.34T33,171.81c-1.93,2.85-3.77,5.78-5.49,8.76a4.2,4.2,0,0,0-.57,2.36,4.12,4.12,0,0,0,.21,1.09c.72,2,2.34.94,3.39,1.6a.49.49,0,0,1,.22.27,8.17,8.17,0,0,1,6.38-2.71v-.25h4.77c-.21-.08-.43-.15-.64-.21.47-.79,1-1.58,1.45-2.35q2.07-3.3,4.34-6.48c.39-.56.8-1.12,1.2-1.67l.3-.4q3.93-5.34,8.37-10.28l.75-.85c.56-.63,1.12-1.27,1.71-1.9a27.49,27.49,0,0,1,3-2.85c2.09-1.67,4.41-1.9,7-2.09l1.16-.11a24.63,24.63,0,0,0,6-1.52c1.7-.67,3.37-1.46,5.07-2.15l1.34-.5.56-.2a17,17,0,0,1,6.1-.83c.61.33,1.2.67,1.79,1s.89.53,1.34.81c1.75,1.08,3.47,2.22,5.19,3.33,1.92,1.23,3.88,2.4,5.86,3.54l.07,0c1.38.8,3.1,1.82,3.67,3.4h2C109,157.81,106.31,156.45,104,155.11Zm36.94,16.7c-.06.29-.12.59-.17.89a4.87,4.87,0,0,0,1.35-.89ZM149,33.29q-.3-.06-.6-.15c-1.69-.45-3.36-1.2-5.08-1-2.05.24-4.22,1.79-6.05,1.46a2.46,2.46,0,0,1-1.07-.46c0,1.15,0,2.29,0,3.44l.37-.62a1,1,0,0,1,.71.06,1.62,1.62,0,0,1,.92,1.52,2,2,0,0,1-.23.77,2.7,2.7,0,0,1-.69.82,3.39,3.39,0,0,1-.63.44c-3,1.64-6.81-.1-10.1.81l-.39.13c-4,1.37-5.85,6.18-9.17,8.92a8.42,8.42,0,0,1-1.35,1c-.2.11-.4.22-.6.31-2.52,1.18-5.52,1.26-7.89,2.73a7.69,7.69,0,0,0-3.24,4.3,8.06,8.06,0,0,0-.34,2.84,7.51,7.51,0,0,0,.34,1.81l.07.19a17.84,17.84,0,0,1,2.88-2,19.43,19.43,0,0,1,8.18-2.4,18.58,18.58,0,0,1,7.81,1.13,12.16,12.16,0,0,1,2.52,1.27,9.63,9.63,0,0,1,.79.6,6.68,6.68,0,0,1,1.32,1.53,4.48,4.48,0,0,1-.36,5.41,7.66,7.66,0,0,1-1,.74c-.23.17-.46.33-.67.52a4.91,4.91,0,0,0-1.38,2.32,8.59,8.59,0,0,0-.08,4.38c-3.86.78-7.61,2.69-9,6.33l-.15.42a8.91,8.91,0,0,0-.4,2.39,119.56,119.56,0,0,0-10.58,6.65c-1,.68-1.91,1.37-2.85,2.08l-.29.22a28.87,28.87,0,0,1-5.06,3.36c-.94.43-1.94.76-2.92,1.12a13.32,13.32,0,0,0-2.7,1.27c-1.69,1.12-3,3.31-2.16,5.15l0,0,.35,0c1.5-.18,3-.4,4.49-.64q5.61-.9,11.12-2.29c3-.76,6.07-1.64,9-2.62.7-.23,1.39-.46,2.08-.72a23.08,23.08,0,0,0,3-1.33,18.22,18.22,0,0,0,4.49-3.52,28.87,28.87,0,0,0,3.67-4.9c.76-1.25,1.45-2.55,2.09-3.84a20.71,20.71,0,0,1,1.37-2.38c1.91-2.78,4-3.63,7.66-5l1.23-.45c2.34-.86,5.17-1.19,7.14.32a6.14,6.14,0,0,0-2.29,2.82c1.2-.13,1.74,1,1.74,2.29h3.31v-6l-.24-.08c-.23-.08-.47-.16-.7-.22s-.47-.16-.7-.23-.47-.16-.7-.23-.47-.16-.7-.22a6.35,6.35,0,0,0-.7-.23c-2.34-.9-4.94-.39-7.39.44l-.87.32a4,4,0,0,1,.74-1.71c0-.06.09-.11.13-.16.54-.59,1.32-.93,1.89-1.5a5.21,5.21,0,0,0,1-1.35,6.09,6.09,0,0,0,.39-1c.84-3.1-.84-5.85-3.25-7.59A10.93,10.93,0,0,0,135.39,62a18.7,18.7,0,0,0-2.36-.89l-.7-.22c-.23-.09-.47-.16-.7-.23l-.33-.11-.37-.12c-.23-.08-.47-.16-.7-.22s-.47-.16-.7-.23l-.7-.23-.7-.23-.71-.22c-.23-.09-.46-.16-.7-.23l-.58-.19-.12,0c-.23-.08-.46-.16-.7-.22s-.46-.16-.7-.23l-.7-.23-.7-.23-.7-.22-.81-.27a36.26,36.26,0,0,0,4.43-1.31l.13-.06a12.28,12.28,0,0,0,4.1-3c1-1.1,1.89-2.41,2.86-3.64a11.66,11.66,0,0,1,3.49-3.23c.18-.1.36-.18.54-.26a11.13,11.13,0,0,1,4.91-.31,11.22,11.22,0,0,0,6-.78l.23-.12c1.77-1,3-3.25,1.82-5.19a3.43,3.43,0,0,0-.51-.63,14.67,14.67,0,0,0,2.07-.6c.67-.24,1.34-.48,2-.65,1.54-.4,3,.22,4.45.65.42.12.85.24,1.28.32V30.69C156.25,32.78,152.7,34.09,149,33.29Zm16.75-7.56c-.54.49-1.09,1-1.66,1.47h1.63A7.23,7.23,0,0,0,165.74,25.73Zm-73,122.41a35.81,35.81,0,0,0-11.13-4.73,18,18,0,0,0-6.87-.07,22.64,22.64,0,0,0-4.25,1.29c-3.29,1.3-6.45,3-9.93,3.57-.4.06-.79.11-1.19.15-2.15.2-4.34.17-6.33,1l-.55.25A15.54,15.54,0,0,0,48.27,153l-.29.3q-3.43,3.6-6.61,7.43-2.17,2.63-4.22,5.34T33,171.81c-1.93,2.85-3.77,5.78-5.49,8.76a4.2,4.2,0,0,0-.57,2.36,4.12,4.12,0,0,0,.21,1.09c.72,2,2.34.94,3.39,1.6a.49.49,0,0,1,.22.27,8.17,8.17,0,0,1,6.38-2.71v-.25h4.77c-.21-.08-.43-.15-.64-.21.47-.79,1-1.58,1.45-2.35q2.07-3.3,4.34-6.48c.39-.56.8-1.12,1.2-1.67l.3-.4q3.93-5.34,8.37-10.28l.75-.85c.56-.63,1.12-1.27,1.71-1.9a27.49,27.49,0,0,1,3-2.85c2.09-1.67,4.41-1.9,7-2.09l1.16-.11a24.63,24.63,0,0,0,6-1.52c1.7-.67,3.37-1.46,5.07-2.15l1.34-.5.56-.2a17,17,0,0,1,6.1-.83c.61.33,1.2.67,1.79,1s.89.53,1.34.81v-.81h2.31C94.31,149.08,93.54,148.6,92.77,148.14Zm33.37-127.9v2.69a13.4,13.4,0,0,0,.94-2.87C126.77,20.13,126.46,20.19,126.14,20.24Zm14.75,151.57c-.06.29-.12.59-.17.89a4.87,4.87,0,0,0,1.35-.89ZM165.74,25.73c-.54.49-1.09,1-1.66,1.47h1.63A7.23,7.23,0,0,0,165.74,25.73ZM148.39,38.32V33.14c-1.69-.45-3.36-1.2-5.08-1-2.05.24-4.22,1.79-6.05,1.46a2.46,2.46,0,0,1-1.07-.46c0,1.15,0,2.29,0,3.44l.37-.62a1,1,0,0,1,.71.06,1.62,1.62,0,0,1,.92,1.52,2,2,0,0,1-.23.77,2.7,2.7,0,0,1-.69.82,3.39,3.39,0,0,1-.63.44c-3,1.64-6.81-.1-10.1.81l-.39.13c-4,1.37-5.85,6.18-9.17,8.92a8.42,8.42,0,0,1-1.35,1c-.2.11-.4.22-.6.31-2.52,1.18-5.52,1.26-7.89,2.73a7.69,7.69,0,0,0-3.24,4.3,8.06,8.06,0,0,0-.34,2.84,7.51,7.51,0,0,0,.34,1.81l.07.19a17.84,17.84,0,0,1,2.88-2,19.43,19.43,0,0,1,8.18-2.4,18.58,18.58,0,0,1,7.81,1.13,12.16,12.16,0,0,1,2.52,1.27,9.63,9.63,0,0,1,.79.6,6.68,6.68,0,0,1,1.32,1.53,4.48,4.48,0,0,1-.36,5.41,7.66,7.66,0,0,1-1,.74c-.23.17-.46.33-.67.52a4.91,4.91,0,0,0-1.38,2.32,8.59,8.59,0,0,0-.08,4.38c-3.86.78-7.61,2.69-9,6.33l-.15.42a8.91,8.91,0,0,0-.4,2.39,119.56,119.56,0,0,0-10.58,6.65c-1,.68-1.91,1.37-2.85,2.08l-.29.22a28.87,28.87,0,0,1-5.06,3.36c-.94.43-1.94.76-2.92,1.12a13.32,13.32,0,0,0-2.7,1.27c-1.69,1.12-3,3.31-2.16,5.15l0,0,.35,0c1.5-.18,3-.4,4.49-.64q5.61-.9,11.12-2.29c3-.76,6.07-1.64,9-2.62.7-.23,1.39-.46,2.08-.72a23.08,23.08,0,0,0,3-1.33,18.22,18.22,0,0,0,4.49-3.52,28.87,28.87,0,0,0,3.67-4.9c.76-1.25,1.45-2.55,2.09-3.84a20.71,20.71,0,0,1,1.37-2.38c1.91-2.78,4-3.63,7.66-5l1.23-.45c2.34-.86,5.17-1.19,7.14.32a6.14,6.14,0,0,0-2.29,2.82c1.2-.13,1.74,1,1.74,2.29h3.31v-6l-.24-.08c-.23-.08-.47-.16-.7-.22s-.47-.16-.7-.23-.47-.16-.7-.23-.47-.16-.7-.22a6.35,6.35,0,0,0-.7-.23c-2.34-.9-4.94-.39-7.39.44l-.87.32a4,4,0,0,1,.74-1.71c0-.06.09-.11.13-.16.54-.59,1.32-.93,1.89-1.5a5.21,5.21,0,0,0,1-1.35,6.09,6.09,0,0,0,.39-1c.84-3.1-.84-5.85-3.25-7.59A10.93,10.93,0,0,0,135.39,62a18.7,18.7,0,0,0-2.36-.89l-.7-.22c-.23-.09-.47-.16-.7-.23l-.33-.11-.37-.12c-.23-.08-.47-.16-.7-.22s-.47-.16-.7-.23l-.7-.23-.7-.23-.71-.22c-.23-.09-.46-.16-.7-.23l-.58-.19-.12,0c-.23-.08-.46-.16-.7-.22s-.46-.16-.7-.23l-.7-.23-.7-.23-.7-.22-.81-.27a36.26,36.26,0,0,0,4.43-1.31l.13-.06a12.28,12.28,0,0,0,4.1-3c1-1.1,1.89-2.41,2.86-3.64a11.82,11.82,0,0,1,3.49-3.24l.54-.25a11.13,11.13,0,0,1,4.91-.31,11.22,11.22,0,0,0,6-.78l.23-.12Zm0,0V33.14c-1.69-.45-3.36-1.2-5.08-1-2.05.24-4.22,1.79-6.05,1.46a2.46,2.46,0,0,1-1.07-.46c0,1.15,0,2.29,0,3.44l.37-.62a1,1,0,0,1,.71.06,1.62,1.62,0,0,1,.92,1.52,2,2,0,0,1-.23.77,2.7,2.7,0,0,1-.69.82,3.39,3.39,0,0,1-.63.44c-3,1.64-6.81-.1-10.1.81l-.39.13c-4,1.37-5.85,6.18-9.17,8.92a8.42,8.42,0,0,1-1.35,1c-.2.11-.4.22-.6.31-2.52,1.18-5.52,1.26-7.89,2.73a7.69,7.69,0,0,0-3.24,4.3,8.06,8.06,0,0,0-.34,2.84,7.51,7.51,0,0,0,.34,1.81l.07.19a17.84,17.84,0,0,1,2.88-2,19.43,19.43,0,0,1,8.18-2.4,18.58,18.58,0,0,1,7.81,1.13,12.16,12.16,0,0,1,2.52,1.27,9.63,9.63,0,0,1,.79.6,6.68,6.68,0,0,1,1.32,1.53,4.48,4.48,0,0,1-.36,5.41,7.66,7.66,0,0,1-1,.74c-.23.17-.46.33-.67.52a4.91,4.91,0,0,0-1.38,2.32,8.59,8.59,0,0,0-.08,4.38c-3.86.78-7.61,2.69-9,6.33l-.15.42a8.91,8.91,0,0,0-.4,2.39,119.56,119.56,0,0,0-10.58,6.65c-1,.68-1.91,1.37-2.85,2.08l-.29.22a28.87,28.87,0,0,1-5.06,3.36c-.94.43-1.94.76-2.92,1.12a13.32,13.32,0,0,0-2.7,1.27c-1.69,1.12-3,3.31-2.16,5.15l0,0,.35,0c1.5-.18,3-.4,4.49-.64q5.61-.9,11.12-2.29c3-.76,6.07-1.64,9-2.62.7-.23,1.39-.46,2.08-.72a23.08,23.08,0,0,0,3-1.33,18.22,18.22,0,0,0,4.49-3.52,28.87,28.87,0,0,0,3.67-4.9c.76-1.25,1.45-2.55,2.09-3.84a20.71,20.71,0,0,1,1.37-2.38c1.91-2.78,4-3.63,7.66-5l1.23-.45c2.34-.86,5.17-1.19,7.14.32a6.14,6.14,0,0,0-2.29,2.82c1.2-.13,1.74,1,1.74,2.29h3.31v-6l-.24-.08c-.23-.08-.47-.16-.7-.22s-.47-.16-.7-.23-.47-.16-.7-.23-.47-.16-.7-.22a6.35,6.35,0,0,0-.7-.23c-2.34-.9-4.94-.39-7.39.44l-.87.32a4,4,0,0,1,.74-1.71c0-.06.09-.11.13-.16.54-.59,1.32-.93,1.89-1.5a5.21,5.21,0,0,0,1-1.35,6.09,6.09,0,0,0,.39-1c.84-3.1-.84-5.85-3.25-7.59A10.93,10.93,0,0,0,135.39,62a18.7,18.7,0,0,0-2.36-.89l-.7-.22c-.23-.09-.47-.16-.7-.23l-.33-.11-.37-.12c-.23-.08-.47-.16-.7-.22s-.47-.16-.7-.23l-.7-.23-.7-.23-.71-.22c-.23-.09-.46-.16-.7-.23l-.58-.19-.12,0c-.23-.08-.46-.16-.7-.22s-.46-.16-.7-.23l-.7-.23-.7-.23-.7-.22-.81-.27a36.26,36.26,0,0,0,4.43-1.31l.13-.06a12.28,12.28,0,0,0,4.1-3c1-1.1,1.89-2.41,2.86-3.64a11.82,11.82,0,0,1,3.49-3.24l.54-.25a11.13,11.13,0,0,1,4.91-.31,11.22,11.22,0,0,0,6-.78l.23-.12Zm0,0V33.14c-1.69-.45-3.36-1.2-5.08-1-2.05.24-4.22,1.79-6.05,1.46a2.46,2.46,0,0,1-1.07-.46c0,1.15,0,2.29,0,3.44l.37-.62a1,1,0,0,1,.71.06,1.62,1.62,0,0,1,.92,1.52,2,2,0,0,1-.23.77,2.7,2.7,0,0,1-.69.82,3.39,3.39,0,0,1-.63.44c-3,1.64-6.81-.1-10.1.81l-.39.13c-4,1.37-5.85,6.18-9.17,8.92a8.42,8.42,0,0,1-1.35,1c-.2.11-.4.22-.6.31-2.52,1.18-5.52,1.26-7.89,2.73a7.69,7.69,0,0,0-3.24,4.3,8.06,8.06,0,0,0-.34,2.84,7.51,7.51,0,0,0,.34,1.81l.07.19a17.84,17.84,0,0,1,2.88-2,19.43,19.43,0,0,1,8.18-2.4,18.58,18.58,0,0,1,7.81,1.13,12.16,12.16,0,0,1,2.52,1.27,9.63,9.63,0,0,1,.79.6,6.68,6.68,0,0,1,1.32,1.53,4.48,4.48,0,0,1-.36,5.41,7.66,7.66,0,0,1-1,.74c-.23.17-.46.33-.67.52a4.91,4.91,0,0,0-1.38,2.32,8.59,8.59,0,0,0-.08,4.38c-3.86.78-7.61,2.69-9,6.33l-.15.42a8.91,8.91,0,0,0-.4,2.39,119.56,119.56,0,0,0-10.58,6.65c-1,.68-1.91,1.37-2.85,2.08l-.29.22a28.87,28.87,0,0,1-5.06,3.36c-.94.43-1.94.76-2.92,1.12a13.32,13.32,0,0,0-2.7,1.27c-1.69,1.12-3,3.31-2.16,5.15l0,0,.35,0c1.5-.18,3-.4,4.49-.64q5.61-.9,11.12-2.29c3-.76,6.07-1.64,9-2.62.7-.23,1.39-.46,2.08-.72a23.08,23.08,0,0,0,3-1.33,18.22,18.22,0,0,0,4.49-3.52,28.87,28.87,0,0,0,3.67-4.9c.76-1.25,1.45-2.55,2.09-3.84a20.71,20.71,0,0,1,1.37-2.38c1.91-2.78,4-3.63,7.66-5l1.23-.45c2.34-.86,5.17-1.19,7.14.32a6.14,6.14,0,0,0-2.29,2.82c1.2-.13,1.74,1,1.74,2.29h3.31v-6l-.24-.08c-.23-.08-.47-.16-.7-.22s-.47-.16-.7-.23-.47-.16-.7-.23-.47-.16-.7-.22a6.35,6.35,0,0,0-.7-.23c-2.34-.9-4.94-.39-7.39.44l-.87.32a4,4,0,0,1,.74-1.71c0-.06.09-.11.13-.16.54-.59,1.32-.93,1.89-1.5a5.21,5.21,0,0,0,1-1.35,6.09,6.09,0,0,0,.39-1c.84-3.1-.84-5.85-3.25-7.59A10.93,10.93,0,0,0,135.39,62a18.7,18.7,0,0,0-2.36-.89l-.7-.22c-.23-.09-.47-.16-.7-.23l-.33-.11-.37-.12c-.23-.08-.47-.16-.7-.22s-.47-.16-.7-.23l-.7-.23-.7-.23-.71-.22c-.23-.09-.46-.16-.7-.23l-.58-.19-.12,0c-.23-.08-.46-.16-.7-.22s-.46-.16-.7-.23l-.7-.23-.7-.23-.7-.22-.81-.27a36.26,36.26,0,0,0,4.43-1.31l.13-.06a12.28,12.28,0,0,0,4.1-3c1-1.1,1.89-2.41,2.86-3.64a11.82,11.82,0,0,1,3.49-3.24l.54-.25a11.13,11.13,0,0,1,4.91-.31,11.22,11.22,0,0,0,6-.78l.23-.12ZM137.26,46l-.54.25a11.82,11.82,0,0,0-3.49,3.24c-1,1.23-1.85,2.54-2.86,3.64a12.28,12.28,0,0,1-4.1,3l-.13.06a36.26,36.26,0,0,1-4.43,1.31l.81.27.7.22.7.23.7.23c.24.07.47.14.7.23s.47.14.7.22l.12,0,.58.19c.24.07.47.14.7.23l.71.22.7.23.7.23c.23.07.47.14.7.23s.47.14.7.22l.37.12.33.11c.23.07.47.14.7.23l.7.22a18.7,18.7,0,0,1,2.36.89,10.93,10.93,0,0,1,1.87,1.08c2.41,1.74,4.09,4.49,3.25,7.59a6.09,6.09,0,0,1-.39,1,5.21,5.21,0,0,1-1,1.35c-.57.57-1.35.91-1.89,1.5,0,0-.09.1-.13.16a4,4,0,0,0-.74,1.71l.87-.32c2.45-.83,5.05-1.34,7.39-.44a6.35,6.35,0,0,1,.7.23c.23.06.47.14.7.22s.47.14.7.23.47.14.7.23.47.14.7.22l.24.08v6h-3.31c0-1.27-.54-2.42-1.74-2.29a6.14,6.14,0,0,1,2.29-2.82c-2-1.51-4.8-1.18-7.14-.32l-1.23.45c-3.7,1.35-5.75,2.2-7.66,5a20.71,20.71,0,0,0-1.37,2.38c-.64,1.29-1.33,2.59-2.09,3.84a28.87,28.87,0,0,1-3.67,4.9A18.22,18.22,0,0,1,118,97.46a23.08,23.08,0,0,1-3,1.33c-.69.26-1.38.49-2.08.72-3,1-6,1.86-9,2.62q-5.51,1.4-11.12,2.29c-1.49.24-3,.46-4.49.64l-.35,0,0,0c-.8-1.84.47-4,2.16-5.15a13.32,13.32,0,0,1,2.7-1.27c1-.36,2-.69,2.92-1.12a28.87,28.87,0,0,0,5.06-3.36l.29-.22c.94-.71,1.89-1.4,2.85-2.08a119.56,119.56,0,0,1,10.58-6.65,8.91,8.91,0,0,1,.4-2.39l.15-.42c1.38-3.64,5.13-5.55,9-6.33a8.59,8.59,0,0,1,.08-4.38,4.91,4.91,0,0,1,1.38-2.32c.21-.19.44-.35.67-.52a7.66,7.66,0,0,0,1-.74,4.48,4.48,0,0,0,.36-5.41,6.68,6.68,0,0,0-1.32-1.53,9.63,9.63,0,0,0-.79-.6,12.16,12.16,0,0,0-2.52-1.27A18.58,18.58,0,0,0,115,58.17a19.43,19.43,0,0,0-8.18,2.4,17.84,17.84,0,0,0-2.88,2l-.07-.19a7.51,7.51,0,0,1-.34-1.81,8.06,8.06,0,0,1,.34-2.84,7.69,7.69,0,0,1,3.24-4.3C109.5,52,112.5,51.88,115,50.7c.2-.09.4-.2.6-.31a8.42,8.42,0,0,0,1.35-1c3.32-2.74,5.15-7.55,9.17-8.92l.39-.13c3.29-.91,7.1.83,10.1-.81a3.39,3.39,0,0,0,.63-.44Zm0,25.74V63.1A10.93,10.93,0,0,0,135.39,62a18.7,18.7,0,0,0-2.36-.89l-.7-.22c-.23-.09-.47-.16-.7-.23l-.33-.11-.37-.12c-.23-.08-.47-.16-.7-.22s-.47-.16-.7-.23l-.7-.23-.7-.23-.71-.22c-.23-.09-.46-.16-.7-.23l-.58-.19-.12,0c-.23-.08-.46-.16-.7-.22s-.46-.16-.7-.23l-.7-.23-.7-.23-.7-.22-.81-.27a36.26,36.26,0,0,0,4.43-1.31l.13-.06a12.28,12.28,0,0,0,4.1-3c1-1.1,1.89-2.41,2.86-3.64a11.82,11.82,0,0,1,3.49-3.24l.54-.25V39.14a3.39,3.39,0,0,1-.63.44c-3,1.64-6.81-.1-10.1.81l-.39.13c-4,1.37-5.85,6.18-9.17,8.92a8.42,8.42,0,0,1-1.35,1c-.2.11-.4.22-.6.31-2.52,1.18-5.52,1.26-7.89,2.73a7.69,7.69,0,0,0-3.24,4.3,8.06,8.06,0,0,0-.34,2.84,7.51,7.51,0,0,0,.34,1.81l.07.19a17.84,17.84,0,0,1,2.88-2,19.43,19.43,0,0,1,8.18-2.4,18.58,18.58,0,0,1,7.81,1.13,12.16,12.16,0,0,1,2.52,1.27,9.63,9.63,0,0,1,.79.6,6.68,6.68,0,0,1,1.32,1.53,4.48,4.48,0,0,1-.36,5.41,7.66,7.66,0,0,1-1,.74c-.23.17-.46.33-.67.52a4.91,4.91,0,0,0-1.38,2.32,8.59,8.59,0,0,0-.08,4.38c-3.86.78-7.61,2.69-9,6.33l-.15.42a8.91,8.91,0,0,0-.4,2.39,119.56,119.56,0,0,0-10.58,6.65c-1,.68-1.91,1.37-2.85,2.08l-.29.22a28.87,28.87,0,0,1-5.06,3.36c-.94.43-1.94.76-2.92,1.12a13.32,13.32,0,0,0-2.7,1.27c-1.69,1.12-3,3.31-2.16,5.15l0,0,.35,0c1.5-.18,3-.4,4.49-.64q5.61-.9,11.12-2.29c3-.76,6.07-1.64,9-2.62.7-.23,1.39-.46,2.08-.72a23.08,23.08,0,0,0,3-1.33,18.22,18.22,0,0,0,4.49-3.52,28.87,28.87,0,0,0,3.67-4.9c.76-1.25,1.45-2.55,2.09-3.84a20.71,20.71,0,0,1,1.37-2.38c1.91-2.78,4-3.63,7.66-5V76.09l-.87.32a4,4,0,0,1,.74-1.71c0-.06.09-.11.13-.16Z"/><polyline class="cls-1" points="186.7 27.2 181.76 27.2 176.15 27.2 170.64 27.2 165.71 27.2 164.08 27.2 159.51 27.2 148.39 27.2 137.26 27.2 126.14 27.2 123.53 27.2 121.26 27.2"/><polyline class="cls-1" points="148.39 38.32 137.95 38.32 137.26 38.32 126.14 38.32 115.02 38.32 113.83 38.32 111.47 38.32"/><polyline class="cls-1" points="100.96 49.44 103.55 49.44 103.89 49.44 115.02 49.44 116.97 49.44 126.14 49.44"/><polyline class="cls-1" points="85.92 60.57 88.77 60.57 92.77 60.57 103.55 60.57 103.89 60.57 106.84 60.57 115.02 60.57 125.35 60.57 126.14 60.57"/><polyline class="cls-1" points="77.26 71.69 79.23 71.69 81.64 71.69 92.77 71.69 103.89 71.69 115.02 71.69 124.09 71.69 126.14 71.69 137.26 71.69"/><polyline class="cls-1" points="148.39 82.82 145.08 82.82 137.26 82.82 129.6 82.82 126.14 82.82 115.02 82.82 114.87 82.82 103.89 82.82 92.77 82.82 81.64 82.82 70.52 82.82 59.63 82.82 59.4 82.82 57.37 82.82"/><polyline class="cls-1" points="171.91 93.94 170.64 93.94 159.6 93.94 159.51 93.94 148.39 93.94 137.26 93.94 126.14 93.94 122.47 93.94 115.02 93.94 103.89 93.94 101.04 93.94 92.77 93.94 81.64 93.94 70.52 93.94 59.4 93.94 59.26 93.94 57.2 93.94"/><polyline class="cls-1" points="165.82 105.06 159.51 105.06 153.08 105.06 148.39 105.06 137.26 105.06 126.14 105.06 115.02 105.06 103.89 105.06 92.77 105.06 88.28 105.06 87.91 105.06 81.64 105.06 70.52 105.06 59.4 105.06 56.25 105.06 54.21 105.06"/><polyline class="cls-1" points="164.87 116.19 159.51 116.19 154.31 116.19 148.39 116.19 137.26 116.19 126.14 116.19 115.02 116.19 103.89 116.19 92.77 116.19 81.64 116.19 70.52 116.19 59.4 116.19 48.27 116.19 44.74 116.19 41.73 116.19"/><polyline class="cls-1" points="173.79 127.31 170.64 127.31 159.51 127.31 157.21 127.31 148.39 127.31 137.26 127.31 126.14 127.31 115.02 127.31 103.89 127.31 92.77 127.31 81.64 127.31 70.52 127.31 59.4 127.31 48.27 127.31 37.15 127.31 29.99 127.31 27.3 127.31"/><polyline class="cls-1" points="166.87 138.44 159.51 138.44 153.1 138.44 152.4 138.44 148.95 138.44 148.39 138.44 137.26 138.44 126.14 138.44 115.02 138.44 103.89 138.44 92.77 138.44 81.64 138.44 70.52 138.44 59.4 138.44 48.27 138.44 37.15 138.44 26.02 138.44 21.02 138.44 19 138.44"/><polyline class="cls-1" points="159.51 149.56 159.51 149.56 148.39 149.56 145.93 149.56 137.26 149.56 126.14 149.56 115.02 149.56 103.89 149.56 95.08 149.56 92.77 149.56 91.43 149.56"/><polyline class="cls-1" points="82.98 149.56 81.64 149.56 70.52 149.56 59.4 149.56 52.52 149.56 48.27 149.56 37.15 149.56 26.02 149.56 16.33 149.56 14.9 149.56 14.32 149.56"/><polyline class="cls-1" points="156.7 160.69 148.39 160.69 143.25 160.69 137.26 160.69 126.14 160.69 115.02 160.69 109.61 160.69 107.56 160.69"/><polyline class="cls-1" points="18.05 160.69 26.02 160.69 37.15 160.69 41.37 160.69 48.27 160.69 57.69 160.69"/><polyline class="cls-1" points="191.21 171.81 181.76 171.81 180.68 171.81 170.64 171.81 159.51 171.81 148.39 171.81 142.07 171.81 140.89 171.81 137.26 171.81 126.14 171.81 115.02 171.81 103.89 171.81 97.7 171.81 95.19 171.81"/><polyline class="cls-1" points="22.19 171.81 24.29 171.81 26.02 171.81 33.01 171.81 37.15 171.81 48.27 171.81 48.57 171.81"/><polyline class="cls-1" points="196.83 182.93 192.88 182.93 185.91 182.93 181.76 182.93 170.64 182.93 159.51 182.93 148.39 182.93 137.26 182.93 126.14 182.93 115.02 182.93 103.89 182.93 98.75 182.93 96.8 182.93"/><polyline class="cls-1" points="41.96 182.93 37.15 182.93 26.95 182.93 26.02 182.93 19.44 182.93 17.47 182.93"/><polyline class="cls-1" points="4.61 194.06 6.8 194.06 14.9 194.06 26.02 194.06 29.82 194.06 37.15 194.06"/><line class="cls-1" x1="48.82" y1="194.06" x2="48.27" y2="194.06"/><polyline class="cls-1" points="94.11 194.06 96.06 194.06 103.89 194.06 115.02 194.06 126.14 194.06 137.26 194.06 148.39 194.06 159.51 194.06 170.64 194.06 181.76 194.06 191.1 194.06 192.88 194.06 202.16 194.06"/><polyline class="cls-1" points="206.2 205.18 204.01 205.18 194.2 205.18 192.88 205.18 181.76 205.18 170.64 205.18 159.51 205.18 148.39 205.18 137.26 205.18 126.14 205.18 115.02 205.18 108.37 205.18 103.89 205.18 101.12 205.18"/><polyline class="cls-1" points="205.61 216.31 204.01 216.31 192.88 216.31 191.03 216.31 181.76 216.31 170.64 216.31 159.51 216.31 148.39 216.31 137.26 216.31 126.14 216.31 115.02 216.31 113.55 216.31 109.66 216.31"/><polyline class="cls-1" points="118.44 227.43 120.76 227.43 126.14 227.43 137.26 227.43 148.39 227.43 159.51 227.43 170.64 227.43 178.45 227.43 181.76 227.43 192.88 227.43 197.53 227.43"/><polyline class="cls-1" points="192.88 174.59 192.88 182.93 192.88 194.06 192.88 198.63 192.88 205.18 192.88 212.84 192.88 216.31 192.88 227.43 192.88 230.92"/><polyline class="cls-1" points="181.76 237.45 181.76 227.43 181.76 225.25 181.76 216.31 181.76 205.18 181.76 194.06 181.76 182.93 181.76 174.09 181.76 171.81 181.76 166.42"/><polyline class="cls-1" points="181.76 21.18 181.76 27.2 181.76 37.91"/><polyline class="cls-1" points="170.64 121.95 170.64 127.31 170.64 132.4"/><polyline class="cls-1" points="170.64 241.73 170.64 238.56 170.64 231.93 170.64 227.43 170.64 216.31 170.64 205.18 170.64 194.06 170.64 182.93 170.64 171.81 170.64 164.64 170.64 163.19"/><line class="cls-1" x1="170.64" y1="102.97" x2="170.64" y2="93.94"/><polyline class="cls-1" points="170.64 37.14 170.64 32.51 170.64 27.2 170.64 19.04 170.64 17.54"/><polyline class="cls-1" points="159.51 242.47 159.51 238.56 159.51 236.24 159.51 227.43 159.51 216.31 159.51 205.18 159.51 194.06 159.51 182.93 159.51 171.81 159.51 168.82 159.51 166.62"/><line class="cls-1" x1="159.51" y1="149.56" x2="159.51" y2="149.54"/><polyline class="cls-1" points="159.51 138.44 159.51 127.31 159.51 126.97 159.51 120.43 159.51 116.19 159.51 105.06 159.51 94.24 159.51 93.94 159.51 90.83"/><polyline class="cls-1" points="159.51 38.64 159.51 38.32 159.51 30.69 159.51 27.2 159.51 16.07 159.51 15.86 159.51 11.51"/><polyline class="cls-1" points="148.39 76.86 148.39 82.82 148.39 90.37 148.39 93.94 148.39 105.06 148.39 116.19 148.39 127.31 148.39 138.44 148.39 140.42 148.39 149.56 148.39 160.69 148.39 168.18 148.39 171.81 148.39 182.93 148.39 194.06 148.39 205.18 148.39 216.31 148.39 227.43 148.39 237.05 148.39 238.56 148.39 247.02"/><polyline class="cls-1" points="148.39 4.77 148.39 4.95 148.39 9.72 148.39 16.07 148.39 27.2 148.39 33.14 148.39 38.32"/><polyline class="cls-1" points="137.26 39.14 137.26 38.32 137.26 36.03 137.26 33.61 137.26 27.2 137.26 16.07 137.26 4.95 137.26 2.65 137.26 1.15"/><polyline class="cls-1" points="137.26 76.09 137.26 77.84 137.26 82.82 137.26 93.94 137.26 105.06 137.26 116.19 137.26 127.31 137.26 138.44 137.26 149.56 137.26 160.69 137.26 171.81 137.26 182.93 137.26 194.06 137.26 205.18 137.26 216.31 137.26 227.43 137.26 238.41 137.26 238.56 137.26 247.7"/><polyline class="cls-1" points="126.14 243.45 126.14 240.36 126.14 238.56 126.14 227.43 126.14 216.31 126.14 205.18 126.14 194.06 126.14 182.93 126.14 171.81 126.14 160.69 126.14 149.56 126.14 138.44 126.14 127.31 126.14 116.19 126.14 105.06 126.14 93.94 126.14 89.03 126.14 82.82 126.14 71.69 126.14 68.85 126.14 61.17 126.14 60.57 126.14 58.9"/><polyline class="cls-1" points="126.14 56.15 126.14 49.44 126.14 40.52 126.14 38.32 126.14 27.2 126.14 22.93 126.14 20.24 126.14 16.07 126.14 4.95 126.14 2.16 126.14 0.56"/><polyline class="cls-1" points="115.02 34.31 115.02 36.99 115.02 38.32 115.02 49.44 115.02 50.7 115.02 58.17 115.02 60.57 115.02 71.69 115.02 82.4 115.02 82.82 115.02 93.94 115.02 98.79 115.02 105.06 115.02 116.19 115.02 127.31 115.02 138.44 115.02 149.56 115.02 160.69 115.02 171.81 115.02 182.93 115.02 194.06 115.02 205.18 115.02 216.31 115.02 218.57 115.02 222.21"/><polyline class="cls-1" points="103.89 206.11 103.89 205.18 103.89 204.07 103.89 194.06 103.89 182.93 103.89 171.81 103.89 163.65 103.89 162.11"/><polyline class="cls-1" points="103.89 157.28 103.89 155.07 103.89 149.56 103.89 138.44 103.89 127.31 103.89 116.19 103.89 105.06 103.89 102.13 103.89 93.94 103.89 91.86 103.89 82.82 103.89 71.69 103.89 62.38 103.89 60.57 103.89 57.73 103.89 49.44 103.89 49.11 103.89 46.59"/><polyline class="cls-1" points="92.77 150.37 92.77 149.56 92.77 148.14 92.77 138.44 92.77 127.31 92.77 116.19 92.77 105.06 92.77 104.42 92.77 98.64 92.77 93.94 92.77 82.82 92.77 71.69 92.77 60.57 92.77 57.82 92.77 55.78"/><polyline class="cls-1" points="81.64 150.06 81.64 149.56 81.64 143.41 81.64 138.44 81.64 127.31 81.64 116.19 81.64 105.06 81.64 93.94 81.64 82.82 81.64 71.69 81.64 67.36 81.64 64.52"/><polyline class="cls-1" points="70.52 74.51 70.52 76.06 70.52 82.82 70.52 93.94 70.52 105.06 70.52 116.19 70.52 127.31 70.52 138.44 70.52 144.63 70.52 149.56 70.52 153.72"/><polyline class="cls-1" points="59.4 80.22 59.4 82.82 59.4 83.15 59.4 93.94 59.4 94.58 59.4 97.39 59.4 105.06 59.4 116.19 59.4 127.31 59.4 138.44 59.4 148.35 59.4 149.56 59.4 158.78"/><polyline class="cls-1" points="48.27 194.22 48.27 194.06 48.27 184.98"/><polyline class="cls-1" points="48.27 172.21 48.27 171.81 48.27 160.69 48.27 152.95 48.27 149.56 48.27 138.44 48.27 127.31 48.27 116.19 48.27 113.85 48.27 111.84"/><polyline class="cls-1" points="37.15 119.48 37.15 121.62 37.15 127.31 37.15 138.44 37.15 149.56 37.15 160.69 37.15 166.03 37.15 171.81 37.15 182.93 37.15 183.18 37.15 188.8 37.15 194.06 37.15 203.04"/><polyline class="cls-1" points="26.02 128.4 26.02 130.72 26.02 138.44 26.02 149.56 26.02 160.69 26.02 166.38 26.02 169.18 26.02 171.81 26.02 182.93 26.02 194.06 26.02 197.45 26.02 203.69"/><polyline class="cls-1" points="14.9 207.11 14.9 205.18 14.9 198.27 14.9 194.06 14.9 186.36 14.9 184.82"/><polyline class="cls-1" points="14.9 159.26 14.9 149.56 14.9 148.12"/><polyline class="cls-1" points="3.78 203.91 3.78 201.72 3.78 198.64 3.78 195.32"/></g></g></svg>