<svg xmlns="http://www.w3.org/2000/svg" viewBox="0 0 141.34 276.3"><g id="Calque_2" data-name="Calque 2"><g id="Calque_1-2" data-name="Calque 1"><path d="M102.2,215.6c-2.43.51-4.88,1-7.3,1.52a18.32,18.32,0,0,0-6.05,2.75,16.89,16.89,0,0,0-4.32,3.62c-1,1.39-1.66,3.51-.54,5s3.64,1.28,5.38,1.14a30.11,30.11,0,0,0,6.32-1.18,31.11,31.11,0,0,0,5.93-2.48,12.9,12.9,0,0,0,4.62-3.68,4.61,4.61,0,0,0,0-5.35c-1-1.28-2.25-1.36-3.72-1.41s-1.6,2.44,0,2.5c.68,0,1.29-.12,1.72.38.87,1,.11,2.41-.67,3.2-2.16,2.15-5.51,3.5-8.37,4.38a28.51,28.51,0,0,1-4.73,1c-.8.1-1.6.16-2.4.19-.5,0-1.62.22-2-.15-.87-.8.83-2.59,1.38-3.08a24.79,24.79,0,0,1,3.79-2.7c3.44-2.11,7.74-2.49,11.63-3.3C104.44,217.69,103.77,215.28,102.2,215.6Z"/><path d="M104,222a31.44,31.44,0,0,0,4.19,9.72c1.87,2.81,5,5.38,5.3,9a30.31,30.31,0,0,1-2.32,11.37,25.5,25.5,0,0,1-6.22,8c-5.26,4.7-12.08,8.93-19.33,6.52-6.39-2.12-11.25-9.72-8.84-16.38,1.24-3.44,4.56-5.69,8-6.66,4.43-1.27,9.16-.56,13.61.25,1.57.28,2.25-2.13.66-2.41C91.3,240,81.77,239.2,76.29,246c-5,6.22-2.31,15.47,3.51,20.15a16.55,16.55,0,0,0,10.84,3.62c4.23-.13,7.91-2,11.35-4.36a36.84,36.84,0,0,0,8.59-7.79,24.68,24.68,0,0,0,4.75-10.9,20.77,20.77,0,0,0,.48-7.36,13.38,13.38,0,0,0-3-5.7,32.23,32.23,0,0,1-6.39-12.36A1.25,1.25,0,0,0,104,222Z"/><path d="M94.77,241.47a82,82,0,0,0-6.62-13.7A1.25,1.25,0,0,0,86,229a78.07,78.07,0,0,1,6.37,13.1,1.3,1.3,0,0,0,1.54.88,1.26,1.26,0,0,0,.87-1.54Z"/><path d="M108.05,231.51a7.94,7.94,0,0,1,1.75,6.75,3.64,3.64,0,0,1-5.07,2.52c-1.93-1-3.26-2.87-5.09-4-2.54-1.6-5.36-1.19-8.12-.53-1.57.37-.9,2.78.66,2.41s3.41-.85,5.06-.29a8.9,8.9,0,0,1,3,2c1.92,1.73,4,3.64,6.81,3.28a6.61,6.61,0,0,0,5.4-5.69,11,11,0,0,0-2.58-8.22c-1-1.24-2.79.54-1.77,1.77Z"/><path d="M113.68,240.38c2.21,2.74,4.39,5.5,6.6,8.24l.88-2.13-2.84.3c-.6.06-1.34.52-1.25,1.25l.63,4.9,1.25-1.25a3.52,3.52,0,0,0-3.64,3.14,4.19,4.19,0,0,0,.67,2.45c.26.43,0,.18.14.1a4.68,4.68,0,0,1-1.2.07l-2.17.12a1.27,1.27,0,0,0-1.2,1.58,6.08,6.08,0,0,1-.78,5.14l1.41-.57-2.56-.74a1.26,1.26,0,0,0-1.58,1.2c.07.75.31,2.11-.23,2.77-.18.22-.84.63-1,.2a1.26,1.26,0,0,0-2.09-.55c-.85,1.06-.76,2-.92,3.31-.06.45-.11.69-.57.8-.28.07-.84,0-1-.31a1.26,1.26,0,0,0-2.41,0c-.35.86-1.08,2.77-2.33,2.5-.48-.1-.63-.61-1-.92a2.08,2.08,0,0,0-1.29-.56,2.32,2.32,0,0,0-1.85,1,9.73,9.73,0,0,0-.64.94,1.82,1.82,0,0,0-.29.45c-.16.59-.62-.58.55.09l.58,1.41c.57-2.35-2.26-3.28-4-2.44-.58.28-1.26,1-1.94.74-.48-.17-.88-.75-1.41-.95a5.85,5.85,0,0,0-4,.27l1.53.88A8.13,8.13,0,0,0,82.66,271a1.25,1.25,0,0,0-1.71-.45,6,6,0,0,1-2.5,1.06l1.54.87-1.64-11.14c-.23-1.59-2.64-.92-2.41.66l1.64,11.15c.1.7.94,1,1.53.87a7.64,7.64,0,0,0,3.1-1.32l-1.71-.44a6,6,0,0,1,.87,2.14,1.26,1.26,0,0,0,1.54.87c.86-.29,1.91-.73,2.76-.19.66.42,1,.95,1.9,1.06a3.83,3.83,0,0,0,2.25-.57,4.13,4.13,0,0,1,1-.58.78.78,0,0,1,.43,0c.3.16.29,0,0-.4a1.26,1.26,0,0,0,.57,1.41,2,2,0,0,0,2.75-.82,4.22,4.22,0,0,0,.7-1.09.84.84,0,0,1,.18-.23c.13-.16,0-.14-.45.05,0,.11.52.64.58.7a3.51,3.51,0,0,0,3.84.35c1.55-.78,2.26-2.4,2.89-3.92H99.9a3.41,3.41,0,0,0,4.28,2A3.07,3.07,0,0,0,106,271.5a4.37,4.37,0,0,0,.35-1.59c0-.44-.1-1.18.19-1.54l-2.09-.56a2.87,2.87,0,0,0,3.94,1.75c2.16-.85,2.32-3.4,2.15-5.38L109,265.39l2.56.73a1.28,1.28,0,0,0,1.41-.57,8.58,8.58,0,0,0,1-7.06l-1.21,1.58c1.72-.1,5.16.4,5.8-1.77a3.38,3.38,0,0,0-.49-2.43c-.37-.81-.2-1.76.89-1.68a1.25,1.25,0,0,0,1.25-1.25l-.63-4.9-1.25,1.25,2.84-.3a1.28,1.28,0,0,0,.89-2.14c-2.22-2.73-4.39-5.5-6.61-8.24-1-1.25-2.77.53-1.76,1.77Z"/><path d="M66.86,221.78c-2.25-.69-4.49-1.41-6.75-2.06a18.79,18.79,0,0,0-6.92-.62,18,18,0,0,0-5.5,1c-1.63.7-3.29,2.26-3,4.19s2.57,2.9,4.19,3.62a30.07,30.07,0,0,0,6.06,2,30.77,30.77,0,0,0,6.35.67,13.09,13.09,0,0,0,5.81-1,5.14,5.14,0,0,0,2.79-3.35c.4-2-1.11-3.46-2.68-4.39a1.25,1.25,0,0,0-1.26,2.16c.66.39,1.77,1,1.44,2A3.34,3.34,0,0,1,65,227.76a21.19,21.19,0,0,1-9.24-.19,30,30,0,0,1-4.55-1.32c-.78-.3-1.55-.65-2.3-1-.45-.22-1.7-.66-1.79-1.24s.79-1.14,1.17-1.36a6.08,6.08,0,0,1,1.84-.63,27.31,27.31,0,0,1,4.51-.5c3.94-.16,7.85,1.55,11.57,2.69,1.54.47,2.2-1.94.67-2.41Z"/><path d="M65,228.32a30.09,30.09,0,0,0-.64,11.38c.25,1.89.72,3.76.85,5.66a8.46,8.46,0,0,1-1.59,5.53A26.89,26.89,0,0,1,56,258.83a27.49,27.49,0,0,1-9.56,3.55c-3.54.67-7.51,1.16-11.07.42a14.34,14.34,0,0,1-8.24-5c-4.14-5.17-4.32-14.49,1.6-18.5,7.12-4.83,15.59.86,21.16,5.35,1.24,1,3-.75,1.76-1.76-5.87-4.75-13.27-9.73-21.19-7.17-7.66,2.47-10.39,11.68-7.91,18.81a16.6,16.6,0,0,0,6.92,8.62A19.17,19.17,0,0,0,41,265.54c8-.5,15.91-2.77,21.38-8.92a32.52,32.52,0,0,0,4.14-5.56,10.75,10.75,0,0,0,1.13-6.82c-.3-2.46-.86-4.85-1-7.33a26.46,26.46,0,0,1,.8-7.93,1.25,1.25,0,0,0-2.41-.66Z"/><path d="M47.88,241a83.19,83.19,0,0,0,.77-15.21c-.07-1.6-2.57-1.61-2.5,0a79.44,79.44,0,0,1-.68,14.54,1.29,1.29,0,0,0,.87,1.54,1.27,1.27,0,0,0,1.54-.87Z"/><path d="M64.35,239.13a6.85,6.85,0,0,1-3,6.67,3.49,3.49,0,0,1-5.09-1.51c-1-1.9-1.3-4.13-2.52-5.94a5.41,5.41,0,0,0-2.64-2.17c-1.17-.42-2.47-.38-3.67-.68-1.56-.39-2.23,2-.67,2.41,1.26.32,3,.14,4.06.89a6,6,0,0,1,1.77,2.88c.86,2.34,1.5,4.93,3.73,6.37s5.6.79,7.57-1a9.59,9.59,0,0,0,2.87-8.55c-.29-1.58-2.7-.91-2.41.67Z"/><path d="M65,249c.63,3.47,1.21,6.94,1.84,10.4l1.54-1.53-2.64-1.1c-.67-.28-1.32.31-1.54.87l-1.8,4.6,1.84-.74a3.52,3.52,0,0,0-4.75,1A4.44,4.44,0,0,0,58.9,265c0,.66,0,.09.11.15-.28-.15-.58-.28-.87-.41l-2.17-1a1.27,1.27,0,0,0-1.84.75A6.05,6.05,0,0,1,51,268.59l1.51.2-1.89-1.88a1.26,1.26,0,0,0-2,.25,6.79,6.79,0,0,1-1.15,2c-.1.09-1.52.8-1.34.09s-.61-1.91-1.54-1.54c-1.23.5-1.64,1.35-2.36,2.38-.29.42-.46.67-1,.5a.86.86,0,0,1-.62-1c.13-1.2-1.4-1.48-2.13-.89s-2.06,1.76-3.1,1.17c-.51-.29-.39-.74-.54-1.25a2,2,0,0,0-.87-1.2,2.26,2.26,0,0,0-2-.09,7.53,7.53,0,0,0-1.1.55,1.41,1.41,0,0,0-.4.22c-.41.51-.36-.77.36.4L30.67,270a2.09,2.09,0,0,0,.06-2.87,3.66,3.66,0,0,0-3.19-1.2c-.75,0-1.06.1-1.39-.6a4.7,4.7,0,0,0-.92-1.49,6.26,6.26,0,0,0-3.37-1.4l.87,1.54a8.44,8.44,0,0,0,.34-2.95,1.25,1.25,0,0,0-1.25-1.25,6.3,6.3,0,0,1-2.69-.26L20,261.1c1.4-3.79,2.69-7.61,4.09-11.39.56-1.51-1.86-2.16-2.41-.66-1.4,3.78-2.69,7.6-4.09,11.38a1.27,1.27,0,0,0,.87,1.54,7.83,7.83,0,0,0,3.36.34l-1.24-1.24a6.51,6.51,0,0,1-.26,2.28,1.27,1.27,0,0,0,.87,1.54,4,4,0,0,1,2.39.87c.5.59.5,1.41,1.12,2a3.29,3.29,0,0,0,2,.73c.43,0,.88-.05,1.31,0a.68.68,0,0,1,.54.1q.36.45.33-.27a1.29,1.29,0,0,0-.2,1.51,2,2,0,0,0,2.68.68,12.11,12.11,0,0,0,1.28-.69l.2-.09c.36-.1.25-.08-.32.06-.11.15.2.8.26.92a3.63,3.63,0,0,0,3.36,1.87c1.6,0,2.93-1.08,4.12-2l-2.13-.88a3.4,3.4,0,0,0,3.14,3.54,3,3,0,0,0,2.38-.82c.52-.5,1-1.93,1.62-2.19l-1.54-1.54a2.92,2.92,0,0,0,2.93,3.5c2.14.05,3.37-2,4.12-3.69l-2,.26,1.89,1.87a1.3,1.3,0,0,0,1.52.2,8.51,8.51,0,0,0,4.29-5.66l-1.84.74c1.58.75,4.6,3,6.12,1.08a4.11,4.11,0,0,0,.6-2.41c.08-.82.78-1.35,1.55-.86a1.26,1.26,0,0,0,1.83-.74l1.8-4.61-1.54.88,2.64,1.1c1,.4,1.69-.73,1.54-1.54-.63-3.46-1.21-6.94-1.84-10.4-.29-1.58-2.7-.91-2.41.66Z"/><path d="M101.7,84.46c1-3.13.5-4.82.52-8.1a4.71,4.71,0,0,0-.51-2.55,3.13,3.13,0,0,0-3.15-1.23,5.53,5.53,0,0,0-3,1.83C93.45,76.71,92.7,79.91,92,83L89.33,95c-.49,2.2-1,4.54-.23,6.66s3.24,3.8,5.27,2.83a5.57,5.57,0,0,0,2.33-2.68,37.77,37.77,0,0,0,3.65-10.42c.16-.87.22-2-.51-2.45a3,3,0,0,0-1.48-.32,3.27,3.27,0,0,1-2.4-1.1,1.73,1.73,0,0,1,.21-2.42,2.64,2.64,0,0,1,1.34-.34l4.19-.34"/><path d="M81,84.93a3.31,3.31,0,0,0,2.4,1.1,3,3,0,0,1,1.49.32c.73.5.67,1.58.51,2.45a37.54,37.54,0,0,1-3.14,9.4h0a3.91,3.91,0,0,0-4.44,2,4,4,0,0,0-.41,1.92,4.79,4.79,0,0,1-3.22-3c-.75-2.12-.27-4.46.22-6.65l2.7-12.1c.68-3,1.43-6.23,3.53-8.54a5.55,5.55,0,0,1,3-1.83,3.11,3.11,0,0,1,3.14,1.23,4.62,4.62,0,0,1,.52,2.55c0,3.28.48,5-.53,8.11l-4.19.33a2.74,2.74,0,0,0-1.33.34A1.75,1.75,0,0,0,81,84.93Z"/><path d="M82.61,105l-.36.08c.22,0-.15,0-.21,0h-.37c-.07,0-.43,0-.21,0a4.94,4.94,0,0,1-.78-.19l-.17-.06,0,0-.37-.2-.31-.2c-.11-.09,0,0,0,0l-.18-.16a3.38,3.38,0,0,1-.26-.27l-.06-.07-.09-.12-.22-.38s-.15-.33-.09-.16a5.09,5.09,0,0,1-.23-.85c0,.19,0-.11,0-.17s0-.32,0-.48,0-.14,0-.21,0,.12,0,0a4.21,4.21,0,0,1,.12-.48.7.7,0,0,1,.12-.27,2.69,2.69,0,0,1,.16-.29l.09-.13s-.12.14,0,0a3,3,0,0,1,.3-.32s.25-.22.16-.15,0,0,0,0l.18-.12.29-.17.15-.07c.17-.08-.18.06,0,0s.46-.13.69-.19c-.21.06,0,0,.1,0a3.09,3.09,0,0,1,.43,0h0l.11,0,.16,0c.26.06-.13-.08-.09,0a1.32,1.32,0,0,0,.2.12c.16.1-.16-.13.06,0s.37.32.54.49.15.16.23.24-.15-.25,0,0a1.26,1.26,0,0,0,1.71.45,1.29,1.29,0,0,0,.45-1.71,4.05,4.05,0,0,0-1.09-1.17,3.24,3.24,0,0,0-1.52-.85,5.14,5.14,0,0,0-6.12,5.24,5.58,5.58,0,0,0,2.11,4.19,5.87,5.87,0,0,0,5,1,1.25,1.25,0,0,0-.66-2.41Z"/><path d="M95.17,108.05a5.86,5.86,0,0,0,1.66,5.57,1.25,1.25,0,1,0,1.77-1.77,3.57,3.57,0,0,1-.28-.27l-.13-.15c-.13-.16.15.19.06.07a4.6,4.6,0,0,1-.4-.64s0-.11-.08-.17.09.23,0,.09l-.12-.34a5,5,0,0,1-.17-.77l0,.34a4.66,4.66,0,0,1,0-1.18l0,.34c0-.16,0-.3.08-.45a1.25,1.25,0,0,0-2.41-.67Z"/><path d="M96.19,112a1.25,1.25,0,0,0,0-2.49,1.25,1.25,0,0,0,0,2.49Z"/><path d="M95.86,109.55c-4.1,1.7-8.76,1.28-13,.53-3.51-.62-7.35-1.76-9.43-4.89-.75-1.13-2.72-.45-2.28,1,1,3.39.44,7.15,2.11,10.37s5.47,4.75,8.72,5.74c3.59,1.08,7.16.64,9.93-2a18.53,18.53,0,0,0,3-4.09,32.4,32.4,0,0,0,2.53-5.07c.57-1.51-1.84-2.16-2.41-.67a26.72,26.72,0,0,1-2.08,4.14,18.83,18.83,0,0,1-2.41,3.53c-2.43,2.6-5.5,2.61-8.69,1.49-2.79-1-5.86-2.3-6.83-5.35-.9-2.83-.57-5.89-1.45-8.74l-2.28,1c2.39,3.61,6.47,5.21,10.58,6,4.77.88,10.1,1.43,14.7-.47,1.47-.61.82-3-.66-2.41Z"/><path d="M93.89,113A22.82,22.82,0,0,1,83,114a34.58,34.58,0,0,1-5.31-1.21,5.34,5.34,0,0,1-3.43-2.42c-.72-1.44-2.88-.18-2.16,1.26,1.7,3.39,6.47,4.18,9.83,4.71a25.5,25.5,0,0,0,12.65-.91c1.5-.54.85-3-.67-2.41Z"/><path d="M88.25,120.48c-.8-1-1.59-2-2.41-2.94a5,5,0,0,0-3.08-1.71,10.53,10.53,0,0,0-3.67-.1,3.92,3.92,0,0,0-1.46.65,5.25,5.25,0,0,1-1.15.73,1.25,1.25,0,0,0,.67,2.41,4.31,4.31,0,0,0,1.3-.66,5,5,0,0,1,1-.64,6.16,6.16,0,0,1,2.7,0,3.07,3.07,0,0,1,2.14,1.27l2.24,2.74a1.25,1.25,0,1,0,1.77-1.77Z"/><path d="M88.12,16.6a12.44,12.44,0,0,1,1.22-8.16A32.85,32.85,0,0,1,91.28,5c.64-1,1.68-2.83,3.14-2.35l-.92-1.2L92.37,13.24c-.14,1.43-.75,3.52,0,4.86s2.41,1.73,3.49,2.6a12.74,12.74,0,0,1,4.49,7.41c.61,3.13-.32,6.29,1.16,9.27a1.26,1.26,0,0,0,2,.25,30.78,30.78,0,0,0,7-11.69h-2.41a15.66,15.66,0,0,1-.12,10.9,1.26,1.26,0,0,0,1.54,1.54,30.36,30.36,0,0,0,6.33-3.33l-1.71-.45c.66,1.28-2.61,3.33-3.42,3.87a20.9,20.9,0,0,1-4.82,2.41,18.35,18.35,0,0,1-10.14.67c-6.22-1.45-11.51-6.86-12-13.35l-2.13.88,9.21,7.31c.76.6,2.22.31,2.13-.88a31,31,0,0,0-1.57-7.85l-1.83,1.41,8.77,6.53a1.26,1.26,0,0,0,1.88-1.08c-.5-4.18-1-8.58-3.63-12.06a11.24,11.24,0,0,0-4-3.46A13.34,13.34,0,0,0,90,18.2a2.16,2.16,0,0,1-1.89-1.6c-.59-1.48-3-.84-2.41.66.66,1.68,1.4,2.75,3.23,3.26a9.41,9.41,0,0,1,4.65,2.34c3,3.06,3.57,7.59,4,11.66l1.88-1.08-8.77-6.53c-.87-.65-2.17.43-1.84,1.41a29,29,0,0,1,1.49,7.19l2.13-.89-9.21-7.3c-.76-.6-2.23-.32-2.14.88A17.92,17.92,0,0,0,91.34,42.63c6.14,2.95,13.43,2.14,19.26-1.17,2.57-1.47,7.5-4.56,5.66-8.12a1.26,1.26,0,0,0-1.71-.45A27.83,27.83,0,0,1,108.81,36l1.54,1.53a17.85,17.85,0,0,0,.12-12.23,1.26,1.26,0,0,0-2.41,0,28,28,0,0,1-6.35,10.59l2,.26a10,10,0,0,1-.62-4.69,18.07,18.07,0,0,0-.37-4.34,15.29,15.29,0,0,0-4-7.18,14.42,14.42,0,0,0-3.14-2.41c-.24-.14-.89-.36-1-.65a4,4,0,0,1,.08-1.15c.09-1,.19-2,.28-3L96,1.41a1.25,1.25,0,0,0-.92-1.2C91.33-1,88.94,3.73,87.57,6.39c-1.75,3.4-2.73,7.07-1.86,10.87C86.07,18.83,88.48,18.16,88.12,16.6Z"/><path d="M90.15,39.54A21,21,0,0,0,78.3,52a61.59,61.59,0,0,0-2.46,9.75c-.68,3.51-1.38,7-2.11,10.53-2.93,13.95-6.32,27.8-10,41.57-6.4,24-13.59,50.82-34.59,66.32a53.45,53.45,0,0,1-8,4.91,47.19,47.19,0,0,0-7.74,4.31,13.46,13.46,0,0,0-2.82,2.82A15.09,15.09,0,0,0,8.78,196c-1.47,3.82-5.3-.81-6.34-2.51-.52-.83-2.1-.82-2.29.3a10.85,10.85,0,0,0,2.33,8.73c2.41,2.95,5.93,3.73,9.56,4,4.37.37,8.75.7,13.13,1a73,73,0,0,0,13.14.2c7.73-.8,14.81-4.12,21.24-8.36A175.11,175.11,0,0,0,78,185.25c5.85-5.08,11.08-10.86,14.51-17.87a106,106,0,0,0,4.61-11.57c1.42-4,2.84-8.09,4.22-12.14,5.49-16.14,10.47-32.66,12.13-49.7,1.52-15.68.16-32-5.71-46.71q-1.06-2.67-2.31-5.26c-.7-1.45-2.85-.18-2.16,1.26,6.55,13.62,8.77,28.95,8.15,43.95-.66,16-4.72,31.74-9.59,47-2.48,7.76-5.16,15.47-7.9,23.14a74.85,74.85,0,0,1-4.76,11,46.55,46.55,0,0,1-6.5,8.91c-5,5.44-10.88,10-16.71,14.48s-11.89,8.8-18.77,11.38a36.69,36.69,0,0,1-11.24,2.32A97.61,97.61,0,0,1,23.72,205c-4.19-.34-8.39-.58-12.57-1-3.46-.36-6.51-1.72-8-5a7.9,7.9,0,0,1-.6-4.47l-2.28.29c1.25,2,3.13,4.54,5.6,5a4.86,4.86,0,0,0,3.29-.43c1.34-.75,1.79-2.06,2.25-3.42,1.76-5.2,7.91-7,12.3-9.36,10.4-5.51,18.63-14.45,24.72-24.41,7-11.41,11.21-24.27,14.82-37.07q5.91-21,10.74-42.27c1.78-7.89,3.23-15.84,4.93-23.75.77-3.58,1.72-7.31,3.78-10.39A18,18,0,0,1,90.82,42c1.48-.58.83-3-.67-2.41Z"/><path d="M106.4,46.05c-1.88.22-3.78,0-5.65.38a9.38,9.38,0,0,0-4.19,2.09,8.26,8.26,0,0,0-2.65,8.58,8.09,8.09,0,0,0,2.44,3.79c1.21,1,2.62,1.22,4,2,.85.45.43.89,0,1.59a4.73,4.73,0,0,0-.71,2.22,4.49,4.49,0,0,0,2.06,3.88c3.84,2.34,7.91-2.21,10.57-4.45,1.23-1-.55-2.8-1.77-1.77a30.72,30.72,0,0,1-4.8,3.8c-1.37.74-3.56.75-3.56-1.32,0-.85.71-1.53,1-2.3a2.88,2.88,0,0,0-.08-2.42c-.75-1.4-2.32-1.7-3.66-2.24a5.48,5.48,0,0,1-2.56-7.76,6.76,6.76,0,0,1,3.68-3c1.9-.64,3.94-.3,5.9-.53,1.57-.19,1.59-2.69,0-2.5Z"/><path d="M61.15,123.34c-.68,3.48.94,6.63,3.1,9.25a26.23,26.23,0,0,0,4.09,3.93,29.62,29.62,0,0,1,4.28,3.34c2.65,3,.58,7.84-1.18,10.78a5.14,5.14,0,0,1-4.59,2.85A16,16,0,0,1,61,151.91a1.25,1.25,0,0,0-1.53.87l-2,7.65c-.57,2.17-.9,5.12-2.65,6.7s-3.72.59-4.28-1.56-.11-4.47-.64-6.66c-.38-1.57-2.79-.9-2.41.66.65,2.7-.07,5.54,1.18,8.13a4.66,4.66,0,0,0,6.13,2.37c2.66-1.14,3.73-3.87,4.43-6.48.9-3.37,1.76-6.76,2.65-10.14l-1.54.87c2.91,1.2,6.33,2.39,9.42,1.13s4.48-4.37,5.56-7.18S77,141.7,75.06,139c-1.76-2.53-4.86-3.92-7.07-6s-5.11-5.46-4.43-8.92c.3-1.57-2.1-2.25-2.41-.67Z"/><path d="M43.06,174.69c-1.48,2.45-3.06,5.13-3,8.09a7,7,0,0,0,3.31,6.15,6,6,0,0,0,6.9-1.26,7.15,7.15,0,0,0,1.21-7.7,10.46,10.46,0,0,0-7-5.71,1.25,1.25,0,0,0-.67,2.41A8.35,8.35,0,0,1,48.68,180a5.06,5.06,0,0,1,.15,5.48,3.54,3.54,0,0,1-4.08,1.35,4.35,4.35,0,0,1-2.22-4C42.48,180.34,44,178,45.22,176a1.25,1.25,0,0,0-2.16-1.26Z"/><path d="M107.14,71.54a159,159,0,0,1-8.33,56.67,160.1,160.1,0,0,1-6.14,15.36c-.67,1.45,1.48,2.72,2.15,1.26a161.85,161.85,0,0,0,14.55-56.65,159.26,159.26,0,0,0,.27-16.64c0-1.6-2.55-1.61-2.5,0Z"/><path d="M90.42,149.33a12.4,12.4,0,0,1-.37,1.71c-.08.28-.17.56-.27.83s-.11.28-.16.41-.05.12,0,0l-.12.24a12,12,0,0,1-.83,1.54c-.16.25-.32.49-.5.73l-.06.09L88,155l-.32.37a1.29,1.29,0,0,0,0,1.77,1.27,1.27,0,0,0,1.77,0A14.24,14.24,0,0,0,92.83,150a1.25,1.25,0,0,0-2.41-.67Z"/><path d="M109.22,62.84l-3.68-11.56c-.49-1.53-2.9-.88-2.41.66l3.68,11.57c.49,1.52,2.9.87,2.41-.67Z"/><path d="M51.2,91.49c1.45-.52,2.06-1.87,2.45-3.25.47-1.64.91-3.34,1.26-5a26.11,26.11,0,0,0,.67-6.41c-.09-2.21-1.45-3.27-3.41-3.93-4-1.37-8.49-2-12.61-.73-2.85.86-8.8,3.93-6.3,7.72S41.14,83.31,45,83c1.59-.15,1.6-2.65,0-2.5-2.62.24-5.67.58-8.09-.71a3.7,3.7,0,0,1-1.54-1.25c-.4-.71.31-1.28.8-1.72a11,11,0,0,1,3.93-2.15,17.09,17.09,0,0,1,9.46.08c1.21.32,3.47.58,3.57,2.12a21.08,21.08,0,0,1-.41,4.82c-.28,1.56-.76,3.06-1.11,4.61-.13.55-.37,2.58-1,2.82-1.5.54-.85,3,.66,2.41Z"/><path d="M53.26,74.16c-.44-3.54-.88-7.08-1.09-10.64-.23-3.74.33-7.59-.56-11.26a13.28,13.28,0,0,0-5.53-8.13c-1.31-.82-3-.92-3.62.76a25.12,25.12,0,0,0-.86,6,68.29,68.29,0,0,0,.26,14.85l2.46-.33c-1.2-4-1.18-8.19-2.42-12.14a15.46,15.46,0,0,0-2.72-5.19,11.42,11.42,0,0,0-4.65-3.64c-2.16-.72-2.64,1.65-3,3.24a23.62,23.62,0,0,0-.33,6.61,58.15,58.15,0,0,0,3.32,13.54l2.28-1a10.62,10.62,0,0,0-5.7-5c-2.68-1-4.38,1-4.59,3.52-.42,5.05,2.88,10.29,6.86,13.12,1.31.94,2.56-1.23,1.26-2.15a14.1,14.1,0,0,1-5.54-8.88,7,7,0,0,1,0-2.37c.21-1,.63-1.15,1.59-.74a8.3,8.3,0,0,1,4,3.77,1.25,1.25,0,0,0,2.28-1,67.66,67.66,0,0,1-3-11.18,24.67,24.67,0,0,1-.22-5.76,16.86,16.86,0,0,1,.52-3l.12-.44c.31-.65.08-.66-.68,0,0,.11.94.55,1,.61,6.35,4.14,5.27,12.3,7.2,18.69.38,1.28,2.63,1.12,2.45-.33a67.78,67.78,0,0,1-.3-14.38c.1-1.16.22-2.32.39-3.48a8.94,8.94,0,0,0,.3-1.9q.18-.52-.09-.09c-.26.19-.2.32.16.4a13.15,13.15,0,0,0,1.2.94,8.53,8.53,0,0,1,1,1.08,11.12,11.12,0,0,1,1.38,2.26c1.75,3.78,1,8,1.22,12s.66,7.74,1.14,11.59c.2,1.58,2.7,1.6,2.5,0Z"/><path d="M34.69,68.13a15.06,15.06,0,0,0,1.18,1.46l.22.24c0,.06.1.13.16.19s-.11-.13,0,0a6.14,6.14,0,0,1,.51.81l.09.16s.13.28.05.11,0,.08,0,.11.06.16.08.23a7,7,0,0,1,.23.9c.06.3,0-.18,0,0s0,.15,0,.23a3.49,3.49,0,0,1,0,.46c0,.18,0,0,0-.07a1.42,1.42,0,0,0,0,.22c0,.06,0,.13-.05.2-.07.24.11-.23,0,0a1.25,1.25,0,0,0,2.16,1.27,5.54,5.54,0,0,0-.25-4.75,7.9,7.9,0,0,0-1.21-1.82c-.16-.19-.34-.37-.51-.56l-.25-.29c-.2-.23.16.22,0,0l-.21-.29a1.25,1.25,0,1,0-2.15,1.26Z"/><path d="M27.8,67.56c-1.84.31-4.14.7-5.29,2.34-1.34,1.9-1,4.91-.45,7a14.61,14.61,0,0,0,3.49,6.44c1.68,1.78,4.27,3.14,6.44,1.34,2.38-2,1.53-5.07,2.29-7.67a1.25,1.25,0,0,0-2.41-.67,25.26,25.26,0,0,0-.49,4.16,3.36,3.36,0,0,1-1.06,2.33c-1,.69-2.09-.33-2.74-1a11.94,11.94,0,0,1-2-2.75,11.25,11.25,0,0,1-1.35-6.77,2,2,0,0,1,1.41-1.7A14.08,14.08,0,0,1,28.46,70a1.25,1.25,0,0,0,.87-1.54,1.28,1.28,0,0,0-1.53-.87Z"/><path d="M24.74,81.6c-2,7,2.58,14.15,9.31,16.22l-.92-1.21c0,.22.09.46.1.67a1.26,1.26,0,0,0,2.13.88l0,0c.94-1-.34-2.84-1.52-2-2,1.45-7.28,4.2-3.93,7,2.66,2.26,7.45,1.72,10.54.88a38.47,38.47,0,0,0,10.12-5c2.74-1.74,5.79-4.2,5.61-7.8-.11-2.1-1.31-2.81-3.31-2.62a16.16,16.16,0,0,0-6.13,1.89c-1.41.77-.15,2.93,1.26,2.16a13.36,13.36,0,0,1,4.87-1.55c.17,0,1,0,.84-.11s0,.71,0,.83a4.56,4.56,0,0,1-.81,2,11.2,11.2,0,0,1-3.55,3c-1.32.83-2.66,1.65-4,2.41a20.42,20.42,0,0,1-9.18,2.9,11.68,11.68,0,0,1-2.57-.2c-.5-.1-1.71-.23-2-.71s0-.33.29-.58.64-.48,1-.72l2.32-1.71-1.51-2,0,0,2.14.88c0-.22-.1-.46-.1-.67a1.28,1.28,0,0,0-.92-1.2c-5.45-1.67-9.21-7.52-7.56-13.15a1.25,1.25,0,0,0-2.41-.66Z"/><path d="M111.86,154c8.16-2.25,18.31-3.33,25.8,1.43l-.44-1.71c-1.05,2.14-4.44,2.48-6.51,2.84a60.66,60.66,0,0,1-9,.75c-2.7.07-5.62.37-8.25-.38a5.58,5.58,0,0,1-1.73-.75,2.22,2.22,0,0,1-.89-1.4c-.06-.15,0-.49-.19-.32a1.66,1.66,0,0,1,.45-.17l.79-.29c1.49-.56.84-3-.67-2.41a4.27,4.27,0,0,0-2.32,1.32A3.71,3.71,0,0,0,109,157c2,2.89,6.49,2.89,9.62,2.84a84.65,84.65,0,0,0,12-.78c3-.47,7.21-1.07,8.69-4.11a1.28,1.28,0,0,0-.44-1.71c-8.07-5.12-18.94-4.1-27.74-1.68A1.25,1.25,0,0,0,111.86,154Z"/><path d="M111.4,157a30.46,30.46,0,0,0-7.79,10.94c-.88,2-1.73,4.28-.88,6.47.79,2,2.56,3.41,4.27,4.66,1.3,1,2.55-1.22,1.26-2.16s-2.9-2.09-3.31-3.72c-.44-1.78.72-3.9,1.49-5.46a28.76,28.76,0,0,1,6.72-9c1.22-1.06-.56-2.82-1.76-1.76Z"/><path d="M108.11,170.84a33.82,33.82,0,0,0-2,7.93,18.58,18.58,0,0,0,.26,7.5c.57,1.87,2,4.2,4.3,3.66a4,4,0,0,0,2.36-1.79c.68-1,.81-2.34,1.61-3.28l-2.08-1.21c-1,3,1.5,6.31,4.61,6.59,3.32.3,6.11-2.58,6.6-5.7l-2.28.3c1.5,2.38,1.35,6.19,5,6.47,3.79.3,5.52-3.38,6.47-6.41l-2.45-.33c.11,2,.36,4.16,2.07,5.48a3.54,3.54,0,0,0,4.73-.16c3-2.84,3.45-7.86,3.78-11.72a45.88,45.88,0,0,0-.44-12.55,26,26,0,0,0-1.75-5.64c-.65-1.45-1.63-4-3.32-4.51a1.25,1.25,0,0,0-.67,2.41c-.21,0,.2.35.32.55s.43.68.62,1a19.46,19.46,0,0,1,1,2,24.55,24.55,0,0,1,1.33,4.43,38.52,38.52,0,0,1,.62,9.22,35.74,35.74,0,0,1-1.25,9.33c-.32,1-1.14,3.58-2.37,3.93-1.88.51-2.09-2.7-2.15-3.8a1.26,1.26,0,0,0-2.46-.33c-.5,1.61-1.87,5.63-4.36,4.45-.85-.4-1.1-1.48-1.36-2.3a11.9,11.9,0,0,0-1.16-2.81c-.52-.83-2.11-.83-2.29.29-.28,1.81-1.53,3.75-3.53,3.9a2.8,2.8,0,0,1-2.86-3.46c.36-1.15-1.28-2.17-2.09-1.21a7.29,7.29,0,0,0-1.28,2.19c-.26.65-.48,1.6-1.11,2-1.52,1-2.06-3.25-2.09-4.11a29.53,29.53,0,0,1,2.07-11.68c.57-1.51-1.84-2.16-2.41-.67Z"/><path d="M115.52,161.55q-1.08,8-2.89,15.92c-.35,1.57,2.06,2.24,2.41.67q1.8-7.89,2.89-15.92a1.3,1.3,0,0,0-.88-1.54,1.25,1.25,0,0,0-1.53.87Z"/><path d="M119.76,161.57c-1.56,2.4-.69,5.73-.42,8.37l1,9.67a1.29,1.29,0,0,0,1.25,1.25,1.27,1.27,0,0,0,1.25-1.25l-.92-9c-.15-1.47-.31-2.95-.45-4.42a5.17,5.17,0,0,1,.45-3.38c.88-1.35-1.28-2.6-2.15-1.26Z"/><path d="M126.35,161.88a96.84,96.84,0,0,0,3,17.81,1.25,1.25,0,0,0,2.41-.66,92.4,92.4,0,0,1-3-17.15c-.12-1.6-2.62-1.61-2.5,0Z"/><path d="M51.6,135.94a19.6,19.6,0,0,1-8-1.57c-9.39-4.18-8.74-16.92-8.11-29.24.17-3.25.31-2.4.29-5.2,0,0-1-1.62,5.25-4.09s5.75.08,5.75.08c0,3.13-.14,6.5-.31,9.77-.25,5-.52,10.12,0,14,.41,3.29,1.23,4.48,1.64,4.66,2,.87,5.07.83,8.77-.13a33.94,33.94,0,0,0,5.91-2.13l-2.4,12.36C59.29,135,59.32,135.94,51.6,135.94Z"/><path d="M127.84,154.14s-1,1.54-6.26,1.83-5.31-1.21-5.31-1.21c.62-4.21,2-9.11,2.81-12.73,3.12-13.93,2.21-15.59.34-16.68-6.07-3.53-15,.07-15,.1s-3.49.11-4.51-4.36,2.09-6.22,2.09-6.22c.48-.22,11.85-5.49,23,1,4.68,2.72,7.09,7.27,7.17,13.51,0,4.53-1.1,9.65-2.31,15.07C129,148,128.39,150.35,127.84,154.14Z"/><path d="M89.7,224.65a96.66,96.66,0,0,0-4.33-9.14c-4.63-9-9.89-19.15-11.61-38.87,0,0,.78-2.32,5.19-3.26s5.83.93,5.83.93c1.53,17.56,6,27.69,10.36,36.16a103.39,103.39,0,0,1,4.8,10.19s.44,1.59-4.68,3.59S89.7,224.65,89.7,224.65Z"/><path d="M61.41,225.74s-1.11,1.41-6.13.32-4.78-1.48-4.78-1.48c0-1.31.9-19.77,2.92-23.68l11.12-6.54C62.17,206.4,61.43,225.43,61.41,225.74Z"/></g></g></svg>