<?xml version="1.0" encoding="utf-8"?>
<!-- Generator: Adobe Illustrator 25.4.1, SVG Export Plug-In . SVG Version: 6.00 Build 0)  -->
<svg version="1.1" id="Calque_1" xmlns="http://www.w3.org/2000/svg" xmlns:xlink="http://www.w3.org/1999/xlink" x="0px" y="0px"
	 viewBox="0 0 211.9 288.7" style="enable-background:new 0 0 211.9 288.7;" xml:space="preserve">
<style type="text/css">
	.st0{fill:none;stroke:#232322;stroke-width:0.75;stroke-miterlimit:10;}
	.st1{enable-background:new    ;}
	.st2{fill:#222221;}
	.st3{fill:#702A2C;}
	.st4{fill:#FFFFFF;}
</style>
<rect x="3.9" y="0.4" class="st0" width="202.6" height="287.9"/>
<g class="st1">
	<path class="st2" d="M143.8,210.4c5.3,0,7.9,4.2,7.9,10.5v7.7h6.1v7.7h-22v-15.4C135.9,214.6,138.5,210.4,143.8,210.4z M144,218.2
		c-1.9,0-2.6,1.4-2.6,3.4v7.1h5.2v-7.1C146.6,219.6,145.9,218.2,144,218.2z"/>
</g>
<g class="st1">
	<path class="st2" d="M149.1,208.8c-5.9,0-9.4-4.5-9.4-11.7s3.6-11.7,9.4-11.7c5.9,0,9.5,4.5,9.5,11.7S155,208.8,149.1,208.8z
		 M149.1,192.5c-2.6,0-4,1.9-4,4.7c0,2.7,1.4,4.7,4,4.7c2.6,0,4-2,4-4.7C153.1,194.4,151.7,192.5,149.1,192.5z"/>
</g>
<g class="st1">
	<path class="st2" d="M156.7,167.3c1.2,1.7,1.8,4.3,1.8,6.5c0,4.3-2.4,7.4-6.8,7.4h-6.3v2.9h-5v-2.9h-4v-7.4h4v-6.3h5v6.3h5.1
		c1.4,0,2.3-1,2.3-2.6c0-0.9-0.3-1.8-0.7-2.9L156.7,167.3z"/>
	<path class="st2" d="M135.6,165.3c-2,0-3.4-1.7-3.4-4.1s1.3-4.1,3.4-4.1s3.4,1.7,3.4,4.1S137.6,165.3,135.6,165.3z M157.8,157.4
		v7.4h-17.5v-7.4H157.8z"/>
	<path class="st2" d="M147.5,118.4h10.4v7.4h-10c-1.7,0-2.8,0.9-2.8,2.7c0,1.5,0.8,2.8,2.6,3.8h10.2v7.4h-10c-1.7,0-2.8,0.9-2.8,2.7
		c0,1.5,0.8,2.8,2.6,3.8h10.2v7.4h-17.5v-7.4h2.6c-2.1-1.4-3.2-3.6-3.2-6.5c0-3.6,1.7-5.8,4.3-6.8c-2.4-1.1-4.3-3.5-4.3-7.1
		C139.7,120.9,143,118.4,147.5,118.4z"/>
	<path class="st2" d="M148,94h6.6c1.3,0,2.3-0.2,3.3-0.8v7.4c-0.4,0.3-1,0.6-1.5,0.6h-0.1c1.3,1.3,2.2,3.6,2.2,6.5
		c0,3.6-1.4,8.2-5.9,8.2c-4.4,0-5.8-4.6-5.8-8.2c0-2.9,0.9-5.2,2.3-6.5h-1.1c-2.1,0-3.3,1.8-3.3,5.3c0,1.9,0.3,4,1.3,6.2l-4.6,1.4
		c-1.1-2.5-1.7-6.2-1.7-9.2C139.7,98.1,142.7,94,148,94z M152.5,101.1c-1.3,1.1-1.7,2.9-1.7,4.4c0,1.5,0.4,3.3,1.8,3.3
		c1.4,0,1.8-1.8,1.8-3.3c0-1.4-0.3-3.3-1.7-4.4H152.5z"/>
	<path class="st2" d="M157.8,90.3h-17.5v-7.4h2.9c-2.3-1.4-3.4-4-3.4-6.9h6.1c0,3.6,1.3,6.1,4,6.9h7.8V90.3z"/>
</g>
<g class="st1">
	<path class="st2" d="M157.8,73.7h-17.5v-7.4h2.9c-2.3-1.4-3.4-4-3.4-6.9h6.1c0,3.6,1.3,6.1,4,6.9h7.8V73.7z"/>
</g>
<g class="st1">
	<path class="st2" d="M149.1,58.3c-5.9,0-9.4-4.5-9.4-11.7s3.6-11.7,9.4-11.7c5.9,0,9.5,4.5,9.5,11.7S155,58.3,149.1,58.3z
		 M149.1,42c-2.6,0-4,1.9-4,4.7c0,2.7,1.4,4.7,4,4.7c2.6,0,4-2,4-4.7C153.1,43.9,151.7,42,149.1,42z"/>
	<path class="st2" d="M157.8,32.1h-17.5v-7.4h2.5c-2.1-1.5-3.2-3.9-3.2-6.8c0-4.9,3.2-7.7,7.7-7.7h10.4v7.4h-9.9
		c-1.7,0-2.8,1.1-2.8,2.9c0,1.6,0.8,3,2.5,4.2h10.2V32.1z"/>
</g>
<g class="st1">
	<path class="st2" d="M176.3,227.9v-6.4h5v6.2h12.4v7.4h-12.4v2.9h-5v-2.9c-4.4-0.3-6.4-3.6-6.4-8c0-1.7,0.3-4.2,1-5.7l3.9,0.8
		c-0.4,1.1-0.6,2-0.6,2.9C174.2,227,175,227.9,176.3,227.9L176.3,227.9z"/>
</g>
<g class="st1">
	<path class="st2" d="M193.8,219.2h-17.5v-7.4h2.9c-2.3-1.4-3.4-4-3.4-6.9h6.1c0,3.6,1.3,6.1,4,6.9h7.8V219.2z"/>
</g>
<g class="st1">
	<path class="st2" d="M184,182.4h6.6c1.3,0,2.3-0.2,3.3-0.8v7.4c-0.4,0.3-1,0.6-1.5,0.6h-0.1c1.3,1.3,2.2,3.6,2.2,6.5
		c0,3.6-1.4,8.2-5.9,8.2c-4.4,0-5.8-4.6-5.8-8.2c0-2.9,0.9-5.2,2.3-6.5h-1.1c-2.1,0-3.3,1.8-3.3,5.3c0,1.8,0.3,4,1.3,6.2l-4.6,1.4
		c-1.1-2.5-1.7-6.2-1.7-9.2C175.6,186.4,178.6,182.4,184,182.4z M188.4,189.5c-1.3,1.1-1.7,2.9-1.7,4.4c0,1.5,0.4,3.3,1.8,3.3
		c1.4,0,1.8-1.8,1.8-3.3c0-1.4-0.3-3.3-1.7-4.4H188.4z"/>
	<path class="st2" d="M193.8,178.7h-17.5v-7.4h2.5c-2.1-1.5-3.2-3.9-3.2-6.8c0-4.9,3.2-7.7,7.7-7.7h10.4v7.4h-9.9
		c-1.7,0-2.8,1.1-2.8,2.9c0,1.6,0.8,3,2.5,4.2h10.2V178.7z"/>
	<path class="st2" d="M194.5,142.6c0,7.1-3.6,11.5-9.5,11.5c-5.8,0-9.5-4.5-9.5-11.5c0-5.5,2.4-8.7,5.2-10.1l2.4,6.1
		c-1.6,0.8-2.2,2.3-2.2,4c0,2.7,1.4,4.6,4,4.6c2.6,0,4-1.9,4-4.6c0-1.7-0.6-3.3-2.3-4.1l2.5-6.1C192.1,133.8,194.5,137,194.5,142.6z
		 M200.9,144.2l-1.2,4.5l-4.8-3.1l0.9-6.2L200.9,144.2z"/>
	<path class="st2" d="M184,109.2h6.6c1.3,0,2.3-0.2,3.3-0.8v7.4c-0.4,0.3-1,0.6-1.5,0.6h-0.1c1.3,1.3,2.2,3.6,2.2,6.5
		c0,3.6-1.4,8.2-5.9,8.2c-4.4,0-5.8-4.6-5.8-8.2c0-2.9,0.9-5.2,2.3-6.5h-1.1c-2.1,0-3.3,1.8-3.3,5.3c0,1.9,0.3,4,1.3,6.2l-4.6,1.4
		c-1.1-2.5-1.7-6.2-1.7-9.2C175.6,113.3,178.6,109.2,184,109.2z M188.4,116.4c-1.3,1.1-1.7,2.9-1.7,4.4c0,1.5,0.4,3.3,1.8,3.3
		c1.4,0,1.8-1.8,1.8-3.3c0-1.4-0.3-3.3-1.7-4.4H188.4z"/>
	<path class="st2" d="M171.5,106c-2,0-3.4-1.7-3.4-4.1s1.3-4.1,3.4-4.1s3.4,1.7,3.4,4.1S173.5,106,171.5,106z M193.8,98.1v7.4h-17.5
		v-7.4H193.8z"/>
	<path class="st2" d="M188.1,74c3.5,0,6.4,3.4,6.4,10.5c0,4.8-1.3,8.7-3,11.2l-3.8-3c1.2-2,2.2-4.8,2.2-8.4c0-2.2-0.2-3.4-1.1-3.4
		c-0.8,0-1,1.1-1.2,4c-0.3,5.1-1.9,10.1-5.9,10.1c-3.7,0-6.2-4-6.2-10.4c0-3.9,0.8-7.4,2.3-9.9l3.9,3c-1,1.8-1.5,4.2-1.5,7
		c0,1.8,0.2,3.4,1,3.4c0.8,0,0.9-1.4,1-4C182.5,78.4,184.1,74,188.1,74z"/>
</g>
<path class="st3" d="M11.5,27c2.3-0.7,4.3-1.3,5.6-3.2c0.6-0.9,1.4-1.6,2.3-2.2c1.7-1.2,3.4-2.2,5.2-3.4c2.1,2,2.3,5.1,3.2,8
	c0.9,3.2,2,6.4,3.1,9.6c0.8,2.4,1.8,4.8,2.9,7.1c1.2,2.4,2.9,4.5,4.4,6.8c0.8,1.3,1.6,2.6,2.3,3.9c0.2,0.3,0.3,0.6,0.2,1
	c-0.8,2.4,1,3.5,2.5,4.4c2.6,1.5,5.3,2.8,8,4.2c3.4,1.7,6.9,3.4,10.3,5.1c0.2,0.1,0.5,0.4,0.7,0.4c1.3-0.1,2.7,0.4,3.6,1.4
	c1.7,1.5,3.9,2.6,4.7,5.1c-1.4-0.9-2.3-2.8-4.3-2.4c-0.3,0.1-0.5,0.7-0.8,1.1l1.6,0.8l-0.3-1.1l1.4,0.5l-0.2,1.7
	c1.9,0.6,2.2,0.9,1.8,2.9c-0.2,0.8-0.3,1.6-1.6,1v0.4l1.6,0.8l1.9-0.8v2.4l2.1-1l0.8,1.7l0.3-1.5h0.3c-0.1,0.5-0.1,1,0,1.5
	c0.2,0.5,0.5,0.9,0.8,1.4l0.5-0.9l0.2,0.1l-0.7,1.7l1.5,1.5l0.2-2.3c1.4,0.5,0.3,1.5,0.5,2.2l0.8,2.6c0.5-0.6,0.5-0.6-0.2-3l1.7,1.4
	l-0.6,1.3l1.1,0.4l0.2-2.9l2.2,2.4c1.3-1.1,1.1-2.1-0.5-3c-2-1.2-3.8-2.7-5.7-4c-1.6-1.1-3.2-2-4.7-3.3c-0.8-0.8-1.5-1.8-2.1-2.8
	l0.3-0.2l4.7,4.6c0.1,0.1,0.2,0.2,0.4,0.3c0.8,0.4,1.5,0.8,2.3,1.3c0.8,0.6,1.7,1.1,2.7,1.5c1.7,0.7,3.3,1.8,4.5,3.2
	c0.5,0.5,0.2,2,0,3c-0.4,1.7,0.6,3.5,2.3,3.9c0.2,0.1,0.5,0.1,0.7,0.1c0.6,0.2,1.2,0.5,1.5,1.1c0.7,1.2,1.4,2.5,2,3.8
	c0.8,1.7,1.4,3.4,2.3,5.1c1.3,2.4,2.7,4.7,4,7c1.2,2.1,2.2,4.4,3.4,6.4c0.7,1.2,1.6,2.3,2.7,3.2c1.2,1.1,2,2.4,2.4,3.9
	c0.6,1.9,1.5,3.7,2,5.6c0.7,2.5,1.2,5.1,1.5,7.7c0.3,2.1,0.1,4.4,0.5,6.5c0.5,2.1,0.7,4.2,0.7,6.3c-0.2,3.2-0.2,6.4-0.2,9.6
	c0,0.4-0.1,0.8-0.1,1.1c0,1.5,0.3,3-1.2,4.2s-0.2,2.6-0.2,3.9c0.2,1.9-0.3,3.9-1.3,5.6c-1,1.3-1.5,3-1.4,4.7c0.1,0.9-0.7,1.8-1,2.8
	c-0.6,1.9-1.1,3.8-1.6,5.8s-1.3,3.8-1,5.6c0.8,4.9-2,8.8-3.1,13.1c-1.2,4-2.6,7.8-4.2,11.6c-0.6,1.4-1.5,2.7-2.2,4.1
	c-1.4,2.8-2.4,5.8-4,8.5c-2.2,3.9-4.8,7.7-7.5,11.2c-1.5,1.9-2.8,3.9-4.2,6c-1,1.4-2.2,2.6-3.5,3.8c-2.1,2.2-4.3,4.2-6.6,6
	c-2.8,1.8-5.6,3.5-8.6,5c-3,1.6-5.9,3.1-8.9,4.7c-4,2.1-7.9,4.3-11.9,6.2c-4.3,2-8.8,3.7-13.2,5.4c-2.3,0.9-4.7,1.6-7.1,2.1
	c-0.9,0.1-1.9,0.1-2.8,0c-3.5-0.2-6.6,1.1-9.8,2.3c-2.5,0.9-5,1.7-7,3.6c-0.7,0.4-1.4,0.7-2.2,0.9c0.1-0.4,0-0.8,0.2-0.9
	c2.3-1.6,2-4.5,3-6.6c0.5-1,0.1-2.4,0.3-3.6c0.1-0.4,0.3-0.9,0.5-1.3c-0.1-0.2-0.5-0.4-0.4-0.6c0.4-3.6,0.9-7.1,1.2-10.7
	c0.5-4.5,1-9,1.3-13.6c0.2-1.8-0.1-3.7,0.2-5.5c0.3-2.2,1.1-4.4,1.6-6.6c0.6-2.5,1.1-5,1.7-7.5c0.3-1.3,0.5-2.6,0.8-3.9
	c0-0.2,0.3-0.3,0.5-0.5c-0.1-0.3-0.2-0.7-0.2-1c0.7-3.6,1.4-7.3,2.1-10.9c0.3-1.4,0.6-2.9,0.7-4.4c0.3-3.5,0.7-7,0.8-10.5
	c0.1-2.2-0.4-4.4-0.5-6.6c-0.1-3.8-0.1-7.6,0.1-11.3c0.1-2.1,0.8-4.1,1-6.2c0.3-3.1,0.3-6.3,0.5-9.4c0.5-8.3,1-16.6,1.5-24.9
	c0.1-1.8,0.2-3.5,0.2-5.3c0-0.1-0.1-0.2,0-0.3c1.1-1.8,0.1-3.7,0.6-5.5c0.8-3,0.5-6.1,0.6-9.2c0.1-4.6,0-9.2-0.3-13.8
	c-0.4-6-0.8-12.1-1.5-18.1c-0.7-5.4-2-10.8-2.6-16.3c-0.3-3-0.3-6.1-0.1-9.1c0.1-4,0.4-8,0.6-11.9c0.1-1.7,0.3-3.3,0.3-5
	c0-2-0.2-3.9-0.1-5.8c0-2.7,0.2-5.5,0.3-8.2C11.4,31,11.4,28.9,11.5,27z M19.3,175.2c-0.8,0.8-0.7,2,0.5,2.9L19.3,175.2l-0.3-2.4
	l-1.2,0.8c0.2,0.4,0.4,0.8,0.7,1.2C18.8,174.9,19,175.1,19.3,175.2z M29.2,150.6l-0.1-1.3l-1.1,0.6l0.8,2.1l0.4-0.1
	C29.2,151.5,29.2,151.1,29.2,150.6l2.1,1l0.3-0.5l-1.9-1.5L29.2,150.6z M82.9,96l-1.6,0.2l0.7,2.4C83.2,98,82.8,96.9,82.9,96
	c1.1-0.1,2.1,0.7,2.2,1.8c0,0.1,0,0.1,0,0.2c0.3-0.5,0.4-1,0.5-1.6c0-0.2-0.4-0.7-0.6-0.7C84.3,95.7,83.6,95.8,82.9,96z M38.9,196.9
	l-0.5,1.9l0.3-0.1l1.2,1.7C40.3,199.6,40.3,199.6,38.9,196.9c0.6-1.2,0.5-2.8-0.2-4c-0.1,1.3-0.2,2.5-0.1,3.8
	C38.5,196.8,38.8,196.8,38.9,196.9z M54.9,201.9l-0.9-2.1c-1.4,1.2,0.2,2.3,0,3.4L54.9,201.9c0.1,0.6,0.2,1.3,0.1,2
	c-0.2,0.8-0.4,1.6-0.7,2.4l0.5,0.2c0.4-0.7,0.7-1.4,0.9-2.1C55.6,203.5,55.4,202.7,54.9,201.9L54.9,201.9z M43.2,129.6l-1.4,0.3
	l-0.4-2.2c-0.3,0.6-0.1,1.2-0.3,1.6c-0.5,0.9-0.1,1.4,0.6,1.9l1,0.9c-0.7-0.5-1.3-0.9-1.9,0.1c1.9,0.9,1.4,2.9,2,4.5
	c0.2-0.1,0.6-0.3,0.6-0.4c0.1-0.7-0.4-1.5,0.6-2c-0.2-0.3-0.4-0.6-0.7-0.9c-0.2-0.1-0.5-0.1-0.7-0.2c0.2-0.3,0.4-0.2,0.6-0.3
	c1.2-0.6,1.6-0.4,1.4,1s0.2,3.2-1.1,4.5c-0.1,0.1,0.1,0.4,0.2,0.6l-2.2,0.2l0,5.3h0.5l0.5-2.4l0.8,0.7l0.1-0.1l-1.4-2.8
	c1.1-0.2,2.1-0.1,2.7-0.5c0.8-0.6,1.2-0.2,1.7,0.3l0,0c-0.2,0.3-0.3,0.6-0.4,1c-0.1,1.1-0.1,2.3-0.1,3.4h-0.5c0-0.3-0.1-0.5-0.2-0.8
	c-0.1-0.2-0.3-0.4-0.5-0.6c1.1-0.8,0.9-2.1-0.4-2.7l-0.8,4.1l0,0c-1-0.3-1-0.3-1,0.6c-0.1,0.5-0.3,1-0.5,1.5
	c0.1,0.6,0.4,1.2,0.9,1.6c1,1,1.2,2.5,0.5,3.8c-0.2-0.5-0.7-1.2-0.6-1.4c0.8-1.1-0.2-1.2-0.6-1.7l-1,2.9l0.5,1.2l1-1.4
	c-0.3,1.3,1.4,2.2,0.6,3.4c0.2,0.5,0.5,0.8,0.5,1.2c0,1.2-0.2,2.4-0.2,3.6l-0.9,0.2l1.4,0.3c0.1,7.4,1,14.9,0.1,22.2
	c-0.9,7.5,0.1,15.1-1.6,22.5l-1.1-0.1l0.1,1.3l1.4-0.4c-0.3,0.9-0.5,1.5-0.7,2.1c-0.1,0.2-0.1,0.3-0.1,0.5c0.1,1.2,0.1,2.4,0.1,3.6
	c-0.4,2.8-1,5.6-1.5,8.4c-0.7,3.3-1.3,6.6-2.1,9.8c-0.3,1-0.7,1.9-1.1,2.8c-0.2,0.4-0.3,0.8-0.5,1.2c-0.5,1.4-1,2.9-1.6,4.3
	c-0.1,0.2-0.5,0.2-0.4,0.2c-0.1,0.8-0.3,1.7-0.6,2.5c-0.8,1.7-1.8,3.3-2.6,4.8l-0.6-0.4c0.1,0.5,0.2,1.1,0.1,1.7c-0.4,1-1,2-1.4,3
	c-0.1,0.3-0.2,0.6-0.2,0.9c0.3-0.1,0.7-0.1,0.9-0.3c0.3-0.4,0.7-0.8,0.9-1.3c2-3,4.3-5.8,6-9c1.5-3,2.8-6.1,3.9-9.3
	c1.1-2.7,2-5.4,3.1-8c1.2-3,2.5-6,3.6-9.1c0.4-0.9,0.4-1.9,0.3-2.8c-0.3-1.2-0.9-2.1-0.3-3.5s0.3-3.1,0.4-4.6l2.1-0.2l-0.9-1.4
	l-0.9,0.5c-0.1-1.5-0.3-2.9-0.4-4.4c0-0.4,0.1-0.9,0.2-1.3c0-0.2,0-0.3-0.1-0.5c-0.5-0.8-0.5-0.7,0.3-1.3c0.4-0.3,0.8-0.7,1.2-1.1
	l-0.3-0.4l-1.8,0.8c-0.3-8.4-0.5-16.7-0.8-24.9c0.6,0,1.3-0.2,1.9-0.5c0.2-0.1,0-0.9-0.1-1.5c2.2,0.3,0.8,2.2,1.3,3.3
	c0.5-0.8,0.5-0.8-0.2-4.7c-1.8-0.2-1.9,1.6-2.9,2.6c-0.5-4.7-1-9.3-1.5-13.8l1.7-0.7c-0.1,1.1,0.9,2.5-1,3.1l1.1,1.1l1-3.7l-1.2-0.5
	l-0.1-1.5l-0.8,1.3c-2.3-2.4-2.2-5.1-1.5-7.9l0.2,1.1l1.9,1.1h-0.4l0.1,3.8h0.5l0-1c1.6,0.2,0.8,1.9,1.6,2.5c0.7-1,0.4-2.4-0.6-3
	c-0.1-0.1-0.2-0.1-0.2-0.1c-0.4-0.2-1-0.7-0.9-0.9c0.2-0.5,0.6-1,1-1.3c0.4-0.2,0.9-0.4,1.3-0.5l0.2,3.6c1.4,0.8-0.4,2.3,0.3,3.8
	c0.7-0.9,1.8-1.9,1.6-2.3c-0.8-1.7,0.2-2.2,1.6-2.6l-0.2-0.5l-1.7,0.4c-1.1-0.9-1.2-1.8-0.5-2.4c0.4-0.4,0.8-0.9,1-1.4l-0.5-0.4
	l-1.2,1.2c-0.3-1.9-0.8,0.1-1.2,0l0.3-3.6h0.3l0.9,1.9l0.6-1.6c-1.4-0.3-1.1-0.9-0.4-1.6c-1.2-0.3-1.1-1-0.8-1.9
	c0.3-0.6,0.7-1.2,1-1.9l0.6-0.3c0.4,2,0.8,4,1.2,6c0.3,1.7,0.4,3.5,1.4,5c0.2,0.4,0.4,0.8,0.6,1.2c0.2-0.4,0.5-0.9,0.5-1.3
	c-0.1-1.5-0.2-2.9-0.4-4.4s-0.4-3.1-0.6-4.6c0-0.8,0-1.7,0.2-2.5c0.1-0.4,0.1-0.7,0.2-1.1c-0.1-0.1-0.4-0.3-0.4-0.6
	c-0.7-2.2-1.3-4.4-1.7-6.7c-0.6-3.8-1.8-7.4-3.5-10.8c-0.9-2-1.9-4-2.6-6c-1.1-2.9-2-6-3.1-8.9c-1-2.7-2.1-5.2-3.2-7.9
	c-0.4-0.9-0.7-1.9-1.1-2.8L38,91.9c0.7,1.8,1.5,3.7,2,5.6c0.2,1,0.4,2,0.5,3c0,1,0.1,2,0.2,3c0.8,3.2,1.5,6.5,2.5,9.6
	c0.8,2.4,1.8,4.7,2.8,7.1c0.5,1.4,1,2.8,1.5,4.2l-0.4,0.2l-1.4-3h-0.5l-0.4,2.4c1.2,0.3,1.4,1.1,1.2,2s0.2,1.2,1.1,1.1
	c0.1,0.7,0.1,1.5,0.1,2.2c0,0.3-0.4,0.6-0.7,0.8c0,0-0.2,0-0.1,0V129l-1.7,1.5l-0.2-0.2l0,0.7l-2.7,0.2L43.2,129.6l1,0.7l-0.2-2.8
	h-0.6L43.2,129.6z M32,146.5c1.8-0.6-0.2-1.6,0.3-2.4c0.1-0.1-0.4-0.6-0.8-1.2l-0.7,3.2l0.5,0.1l0.5-1.1
	C31.8,145.5,31.9,146,32,146.5c-0.3,0.3-0.8,0.5-0.9,0.8c-0.3,1,0.1,2.1,1.1,2.5L32,146.5z M24.4,69c0.5-1,0.7-2.2,2.4-2.5l-1.8-0.9
	c-0.2,0.7-0.1,1.5-0.5,1.8C23.8,67.9,24.2,68.4,24.4,69c0.2,0.4,0.2,0.8,0.3,1.2c0.1,1,0.6,1.8,1.4,2.3L25.6,69l0.4-0.1
	C25.5,68.2,24.9,68.3,24.4,69z M35.4,147.8c1.3-0.6,1.3-0.6,0-3.3C35.4,145.8,34.3,146.7,35.4,147.8c-0.3,0.3-0.7,0.5-0.7,0.9
	c-0.2,1.2-0.2,2.5-0.3,3.7c0.1,0,0.4-0.1,0.4-0.3c0.5-1.2,1-2.4,1.4-3.6C36.3,148.3,35.7,148,35.4,147.8L35.4,147.8z M15.4,183.4
	l0.3-4h-0.6C15.2,180.7,14.6,182.1,15.4,183.4l-0.6,2.3l0.4-0.1l1.5,2.2c0-0.6-0.1-1.2-0.2-1.8C16.2,185,15.8,184.2,15.4,183.4
	L15.4,183.4z M98.4,172.4l-1.2-0.3l-0.5,1.9l0.3,0.1l0.8-1l0.6,0.8l1.6-0.7l0.2-2.4h-0.5c0,0.5,0,0.9-0.1,1.4
	c-0.1,0.3-0.2,0.5-0.4,0.8L98.4,172.4c0.2-0.6,0.4-1.2,0.5-1.7c0-0.5-0.1-1-0.3-1.4l-0.4,0.1l-1,1.9L98.4,172.4z M35.3,141.1
	c-1.6,1.2-2,2.4-1,3.2l0.1-1.5l1,0.1c0-0.2-0.1-0.5-0.1-0.7S35.3,141.5,35.3,141.1l0.4-5.1l-0.4,0l-1.3,1.9l0.7-0.1
	c0,0.7,0,1.3-0.2,2C34.1,140.9,34,140.9,35.3,141.1z M41.8,121.1c0.6-1,0.5-2.2-0.2-3.1l-2,0.8c0.3,0.1,0.5,0.2,0.7,0.4
	c0.3,0.2,0.5,0.4,0.8,0.5C40.1,120.8,41.5,120.7,41.8,121.1c1.3,0.7,1.6,2.1,2.3,3.3c0.5-1.4,0.4-2.9-0.3-4.2L41.8,121.1z
	 M53.1,66.6l1.5-0.7c-0.8-0.3-1.4-0.5-2.1-0.7c-0.3-0.1-0.7-0.2-0.8,0s-0.1,0.6-0.1,0.8l0.3-0.3L53.1,66.6c-0.9,0-1.1,0.2-1,0.9
	c0,0.3-0.1,0.6-0.1,0.9c-0.1,0.7-0.1,1.3-0.1,2h0.4l1-2.7l0.5,0.7C53.9,67.5,54.3,66.6,53.1,66.6z M32.3,266.6l0.1-1
	c-1.2,0.4-0.4-1.1-1.3-1.2l-0.8,2.6c0.7,0.1-0.6,1.8,1,1.3l0.1,1.5c0.9-0.9,1.9-1.5,1.9-2c-0.1-0.8,1.7-1.5,0.2-2.3L32.3,266.6z
	 M61.5,124.6c-1.3,0.9-0.8,2.1-0.5,3.3C61.6,126.9,62.4,125.9,61.5,124.6l1.1,0.1c-0.4-0.7-0.7-1.5-0.9-2.2
	c-0.2-1.3,1.1-1.3,1.9-1.6c0.2,1.2,1.1,2.4-0.2,3.6c-0.1,0,0,0.3,0.1,0.5c0.3,1.4,0.5,2.7,0.8,4.1c0,0.4,0,0.7,0,1.1l1.7-1.8
	c-0.1-0.1-0.1-0.6-0.3-0.8c-1.3-1.2-0.8-2.6-0.8-4c0-2.1,1.4-4,1-6.4c-0.4-3.5-1.2-6.9-2.4-10.2c-1.5-3.5-3.3-6.9-5.2-10.2
	c-2.2-4-4.6-8-6.9-11.9c-1.7-2.9-3.3-5.8-5.2-8.5c-1.8-2.6-4-4.8-5.9-7.3c-2.3-3-4.3-6.1-6.6-9.1c-0.5-0.7-0.9-1.9-2.5-1.5
	c0.3,0.9,0.8,1.8,1.4,2.7c2.3,2.4,4.3,5.1,5.9,8c1.6,3,4.2,5.5,6,8.5c2.1,3.3,3.8,6.8,5.6,10.3c1.3,2.5,2.5,5.1,3.7,7.7
	c0.8,1.6,1.6,3.2,2.4,4.8c0.9,1.8,1.8,3.7,2.8,5.5c0.5,0.8,0.9,1.5,0,1.9c2.3,1.8,1.9,4.8,3,7l-0.8,0.3c0.5,0.3,1,0.5,1.2,0.8
	c0.6,1.7,1,3.4,1.5,5.2c-1-0.9-1.8,0-2.7,0.2l0.5-2l0.8,0.5l0.1-1l-1-0.4l-2.3,0.2c0.3-0.5,0.5-0.9,0.7-1.4c0.1-0.5,0.2-1.2,0-1.5
	s-1-0.2-1.5-0.3s-0.8-0.2-1-0.5c-0.3-0.6-0.4-1.2-0.6-1.9l-1.3,2l0.4,1.8c0.3-0.2,0.6-0.4,1-0.6c0.7-0.1,1.5-0.1,2.2-0.1
	c-0.2,0.5-0.3,1-0.6,1.5c-0.6,0.8-0.6,1.9,0,2.8c0.4-1.8,1.4-0.9,1.9-0.9l0.5,1.9c-0.1,0.7-0.2,1.4-0.3,2c-0.2,0.6,0.1,1.3,0.7,1.5
	C61.3,124.6,61.4,124.6,61.5,124.6L61.5,124.6z M31.1,99c0.1-1-1-3.4-1.7-3.7C29.7,96.6,29.7,98.1,31.1,99l-1,1l1.4,0.2l-1.2,0.7
	l1.6,0.3l-1.7,1.7l1.7-0.4c0.7,1.1,1.1,1.2,1.8,0.3l0.6,1.1c0.4-0.5,0.6-1.1,0.8-1.7c0.1-0.5,0-1.3-0.2-1.4
	c-0.8-0.5-0.8-0.9-0.5-1.6c0.1-0.5,0.2-1.1,0.2-1.7c-1.3,0.1-1.1,1.1-1.1,1.8c0,1.2,0.1,2.4,0.2,3.6c-0.6-1.1-1.2-2.2-1.7-3.3
	C31.8,99,31.7,98.6,31.1,99z M57.1,133.6l0.2-2.5l1.1,0.1l-0.8-3.1l-0.6,0.2c0.2,0.4,0.4,0.7,0.5,1.1c0.1,0.4,0,0.8-0.3,1.1
	c-0.3,0.3-0.7,0.5-1,0.6L57.1,133.6l1.2,2.4l0.8-0.3l-1,1l0.2,3.3c0.7-0.1,0.8-0.2,0.7-1.4c-0.1-0.5,0.1-1.1,0.4-1.5
	c0.6-0.5,0.7-0.6,0.3-1.5l1-1.1l0.8,1.7l-1.1,0.4l0.2,0.5l1.5-0.4c-0.3-0.9-0.4-2.3-1.1-2.7c-0.9-0.6-2.2-0.4-3.3-0.5
	C57.4,133.4,57.2,133.5,57.1,133.6L57.1,133.6z M13.4,160.6l-0.5,6.7h0.5l0.2-3H14l0.3,1C15.4,163.4,14.1,162.1,13.4,160.6l0.4-1.4
	l0.6,1.1c-0.2-1.7-0.1-3.3,1.2-4.6c0.1,0.2,0.3,0.6,0.3,0.6c1.3-0.6,1,0.4,1.1,1s0.4,1.4,0.6,2.1l0.5-0.1l-0.8-4.4
	c-0.9,2.1-0.9-0.2-1.5,0l-0.1,0.9l-1.5,0.1v-0.3l1.2-0.1l-0.8-3l1.5,0.4l-0.5-1.4l-1.4,0.4c-0.4,2.6-0.7,5.1-1,7.6
	C13.2,159.8,13.2,160.2,13.4,160.6L13.4,160.6z M19,108.2c-0.1,0.2-0.2,0.4-0.3,0.4c-1,0-1.3-0.7-1.4-1.6c-0.1-1.5-0.6-1.9-1.6-1.4
	l1.3,3.5l2.8,0.6l0.3-0.2L19,108.2c0.9-1.1-0.7-2.3,0.1-3.4c0,0-0.1,0-0.1,0L18,103l0.4-0.2l0.8,1c0-1.7,0-1.7-2.3-1.9L16.8,98
	l1.9,1.8l0.2-2.4l-2,0.7c-1-0.6-1.3,0-1.1,0.8c0.3,1.4-0.4,3.2,1.6,4c0.1,0,0.2,0.4,0.2,0.6c0.2,1.1,0.2,2.2,0.5,3.2
	C18.3,107.3,18.6,107.8,19,108.2L19,108.2z M48.6,91.7c0-0.1,0.1-0.1,0.2-0.2h0.1L48.7,93l0.7,0.1l-1,1.3l0.3,0.2l0.9-0.9
	c0,0.6,0.1,0.9,0.1,1.3s0,0.8-0.1,1.6c0.6-0.6,1.1-0.9,1.1-1.2c0.2-0.8,0.2-1.6,0-2.4c-0.6-1.5-1.6-2.8-2.3-4.3s-1.3-1.3-2.5-0.3
	c0.6,0.3,1,0.7,1.5,0.7c1,0,1.2,0.5,1.2,1.3C48.5,90.9,48.5,91.3,48.6,91.7l-1.1-1.9c-0.1,0.5-0.2,1-0.3,1.5c0.1,1,0.1,2,0,3
	c-0.4,1.8-0.2,2.1,1.7,1.5L48,95.7c-0.1-0.6-0.1-1.3-0.1-1.9C48,93,47.4,92,48.6,91.7z M15.6,131c-0.9,0.7-0.9,1,0.5,2.6l-0.2-2.6
	c1,0.4,0.9-0.2,0.8-0.8s-0.2-1.2-0.4-1.7l0.3-0.1l0.8,1.5c0.8-1.3,0.8-1.3,0-1.8c-0.2-0.1-0.2-0.4-0.3-0.6l1.3-0.4l-1.6-3.4
	c-0.5,0.8-0.8,1.1-0.9,1.5c-0.3,1.8,0.2,3.7-0.6,5.5C15.2,130.7,15.4,130.9,15.6,131z M29.2,162c-0.3,0.3-0.7,0.5-0.8,0.8
	c-0.7,2.1-0.7,4.4,0,6.5c0.2,0.4,0.4,0.7,0.6,1.1c0.4-0.7-0.5-1.9,1-1.8l-1.4-0.8l2.6-0.5c-0.2-1.8-0.4-3.5-0.7-5.3H30l-0.1,3.1
	h-0.7C29.3,164.1,29.2,163,29.2,162c0.2-0.4,0.5-0.8,0.5-1.2c-0.1-1.2-0.3-2.4-0.5-3.7l-1.1,0.3l0.8,1.3l-1.1,0.5v0.2l0.9-0.1
	L29.2,162z M14.8,142.1l1.5-0.9l-1.2-2.1l0.9-2.1c0.1,1.9,0.1,1.9,1.5,1.5c-1.5-1.8-1.6-2.5-0.4-3.1l0.7,3.1l0.5-0.1
	c0-0.3,0.2-0.8,0-0.9c-1.6-1-0.3-1.9,0.1-2.9l-3.5-0.5c0.1,0.7,0.2,1.4,0.1,2.1c-0.2,1.1-1,2.2-0.9,3.3
	C14.2,140.3,12.9,141.7,14.8,142.1c-0.3,1.4-0.7,2.7-0.9,4.1c0.1,0.5,0.3,0.9,0.8,1.1c0.3,0.1,0.9-0.3,1.3-0.5
	c-1.5-0.5-1.5-0.5-1.6-1.2l1,0.5c-0.1-0.9-0.1-1.6-0.2-2.3C15.1,143.2,15,142.7,14.8,142.1z M62.6,184.8l-0.1-1.8h-0.5l-1.4,1.4
	l1.1,1.1l0.1,1.7h-0.5l-0.3-0.9l-3.5,1.2c1,1.2,3.1-1.1,3.4,1.4l1.1-1.1l2.3,0.6c0.5-0.9,0.9-1.6,1.2-2.4c0.2-0.3,0.2-0.7,0.1-1
	C64.6,183.8,64.1,183.8,62.6,184.8z M5.3,266.9L4.6,266c0.1-0.6,0.1-1.2,0.2-1.8c0.2-0.9,0.6-2-1.1-1.1c-0.3,0.1-0.8-0.1-1.3-0.2
	c0.5,1.4-2.3,2.9,0.4,4c-1,1.6-1,3.7,0.1,5.3l0.6-2.2l0.4,0.2l-0.5,0.6l0.6-0.5l2.3,3.8c0.1-1.6,0.2-2.9,0.3-4.2
	c0-0.2,0-0.5-0.1-0.5C5.3,268.9,5.7,267.7,5.3,266.9z M49.6,157.1l-0.8,1.4l-1.4-0.7l0.1,4.1l0.9,0.2l0.4-3.2l0.7,0.1l0.3,1.5
	l1.1-0.8l-0.3,3.6l-0.5-0.1v-2h-0.5l-0.6,3.7c2.2-1.4,4.3-2.2,3.1-5.4l2.2,1.4c0.2-0.3,0.7-0.7,0.7-1s-0.7-0.6-1.4-1
	c-1-2.4-0.6-5.3-0.1-8.2l-0.9-0.1c-0.2,1.4-0.6,2.7-1,4c-0.1,0.4-1.2,0.4-2,0.6v2.2L49.6,157.1z M52.1,177.5l0.7,0.4
	c1.2-1.4,0.5-2.8-0.5-4.2l1.5,0.8l-0.6-1.6l1.7-2.9c0.1,0.8,0.1,1.2,0.2,1.7c0,0.3,0,0.6,0,0.9s0.2,0.9,0,1.2
	c-0.7,1.6-0.2,3.5,1.1,4.6c0.6-0.8,0.4-1.9-0.4-2.5c-0.1-0.1-0.3-0.2-0.5-0.2c0.3-0.9,1.5-1.1,0.9-2.3c-0.3-0.6,0-1.5,0-2.3
	c0.1-0.5,0-1-0.1-1.5c-0.3-0.5-0.6-0.9-1-1.2c1.1-1.2,1.7-0.4,2.4,0.5c0-1.8-0.3-1.9-1.7-1.7c-0.5,0-1-0.3-1.2-0.8
	c-0.3-1-0.5-2-0.6-3l0.9-0.9l-1.3-1.2l-0.8,4l0,0c-0.9-0.6-1.1-0.2-1,0.6c0.2,0.7,0,1.4-0.5,2c-0.9,1.2-0.4,2.9-0.4,4.4
	c0,0.1,0.2,0.2,0.3,0.2c0.9,0.2,0.9,0.2,0.4,0.9c-0.6,0.7-0.4,1.8,0.3,2.4c0.1,0.1,0.2,0.2,0.4,0.2L52.1,177.5
	c-1.8,0.3-0.3,1.4-0.5,2.1c-0.1,0.3,0.5,0.9,0.8,1.3c0,0,0.5-0.3,0.8-0.4c-0.9-0.5,0.5-2.1-1.1-2.3
	C52.1,177.9,52.1,177.7,52.1,177.5z M40.2,128.3l-0.6-0.1c-0.2,1.2-0.5,2.5-0.6,3.7c-0.3,3-0.7,6-1,9.1c-0.4,4.6-1.1,9.1-1.2,13.7
	c0,2-0.7,4-0.4,6.1c0.2,1.6-0.3,3.3-0.3,5c-0.1,4,0,8.1-0.3,12.1c-0.3,3.8-0.9,7.7-1.5,11.5c-0.2,1.4-0.5,2.8-0.7,4.2
	c-0.6,3.3-1.3,6.5-1.9,9.8c-0.3,2-0.3,4.1-0.8,6.1c-0.8,3.4-1.9,6.7-3,10c-0.4,1-0.8,2.1-1,3.1c-0.3,4.4-1.9,8.5-3.5,12.6
	c-2,5.2-4,10.4-5.9,15.6c-0.1,0.7-0.3,1.4-0.6,2c-2,3.2-3.5,6.6-4.7,10.2c-0.6,2.2-1.7,4.3-3.2,6c-0.5,0.5-0.6,1.6-0.7,2.4
	c0,0.4,0.2,0.7,0.6,0.9c0.4,0,0.7-0.1,0.9-0.4c1.4-2.4,3.6-4.3,3.8-7.4c0-0.2,0.3-0.5,0.4-0.7c0.5-0.6,1-1.2,1.5-1.9
	c1.7-3.4,3.5-6.8,5-10.2c1.3-2.9,2.4-5.8,3.5-8.7c1.6-4.4,3.1-8.9,4.6-13.3c0.7-2.1,1.5-4.3,2.3-6.4c0.1-0.4,0.5-0.7,0.8-1
	c-0.4-1,0.1-3.5,0.5-4.9c0.9-2.6,1.6-5.2,2.1-7.8c0.5-2.4,0.5-4.8,0.9-7.2c0.3-0.8,0.7-1.6,1.2-2.4c0.1-0.3-0.2-0.7-0.3-1.1
	c1-6.6,2.1-13.4,3.1-20.3l0.6-0.2c-0.3-0.5-0.9-1.1-0.8-1.4c0.2-0.9,0.3-1.7,0.1-2.6c-0.2-2.7-0.2-5.3,0-8c0-1.1,0.2-2.1,0.3-3.5
	c0.9,1.5,0.9,1.5,1.8,0.7c-0.7,0-1.8-1.2-1.7-1.9s0.2-1.4,0.3-2.1c0-1.1,0-2.3,0-3.5l0.9,0.6c0.2-1.4-1.8-2.6-0.4-3.7
	c-0.2-1.3-0.3-2.4-0.5-3.5c-0.4-3.3,0.6-6.6-0.2-10c-0.3-1.7-0.4-3.4-0.2-5.1C39.9,132.4,40.1,130.3,40.2,128.3z M75,124.5
	c-0.8,0.7-1.2,1.8-0.8,2.8c0.1,0.8,0,1.6-0.1,2.4c-0.3,3.5-0.8,7-1,10.6c-0.3,4.6-0.4,9.2-0.6,13.8c-0.1,2.3-0.4,4.6-0.7,6.9
	c-0.4,3.4-0.8,6.7-1.3,10.1c-0.3,2.1-0.8,4.1-1.3,6.1c-0.5,1.7-1.3,3.3-1.8,5c-0.3,1.1-0.6,1.8-2,1.5l0,0.3l1.1,0.5
	c-0.8,2.7-1.5,5.5-2.3,8.2c-0.7,2.1-1.8,4.2-2.2,6.4c-0.5,2.9-2.5,5.5-1.6,8.6c0,0.2-0.1,0.5-0.2,0.7L54.5,228l0.5,0.2
	c0.6-1.1,1.2-2.1,1.8-3.2s0.8-2.2,1.3-3.3c0.8-1.7,1.8-3.3,2.5-5c2.6-5.9,5-11.9,7.6-17.8c2.5-5.3,4.2-10.8,5.3-16.6
	c0.5-2.8,1-5.6,1.5-8.5c0.4-1.5,0.7-3,0.9-4.5c0.3-4.7,0.8-9.4,0.8-14.2c-0.1-6.9-0.6-13.7-0.8-20.6c-0.1-2.6-1.3-5.2-0.5-7.9
	c0.2-0.6-0.4-1.3,0.3-1.8L75,124.5z M87.3,136.8c0.6,0.5,1.2,0.7,1.4,1c0.5,1.4,0.9,2.9,1.2,4.4c0.5,2.6,0.6,5.4,1.4,8
	c1,3.4,1.3,6.9,1,10.5c-0.3,3.9-0.6,7.7-1,11.6c-0.2,2.2-0.5,4.5-0.9,6.7c-0.4,2.6-1.1,5.1-1.6,7.7s-0.9,5-1.5,7.5s-1.4,5.1-2.1,7.7
	c-0.1,0.6,0,1.2,0.1,1.8l0.5,0.1c1-1.7,2.1-3.4,3.1-5.2c0.6-1,1.1-2.1,1.7-3.1c1.3-2.1,2.2-4.5,2.4-7c0-0.8,0-1.6,0.1-2.4
	c0.4-2.2,1.2-4.4,1.5-6.7c0.6-5.7,1.1-11.5,1.4-17.2c0.2-3.4,0.6-6.8-0.3-10.1c-0.7-2.3-1.3-4.7-1.9-7c-1.5-6-3-11.9-4.5-17.8
	c-0.7-2.8-2.3-5.3-2.5-8.4c-0.1-1.8-0.9-3.4,0.4-5.2l-0.6,0.5l-0.5-1c-0.1,0.7-0.2,1.4-0.1,2.1c-0.1,0.6-0.2,1.2-0.3,1.8h-0.5
	c-1.7-3.2-3.3-6.5-6-9.2c0.5,2.4,1.2,4.7,2,7c0.7,2.1,1.5,4.2,2.2,6.2c0.1,0.2-0.2,0.6-0.3,0.9c0.3,0.1,0.7,0.1,0.8,0.3
	c0.6,1.6,1.3,3.3,1.8,5c0.4,1.3,0.2,2.9,0.9,4c1,1.7,0.7,3.9,2.5,5.4L87.3,136.8z M98.3,190c-0.8,2.7-1.7,5.3-2.8,7.9
	c-1.8,3.8-3.9,7.4-6,11c-2.5,4.1-5.2,8.1-7.8,12.1c-0.6,0.8-1,1.7-1.7,2.5c-2.4,2.9-4.8,5.7-7.2,8.6c-2.8,3.3-5.5,6.8-8.4,10
	c-1.4,1.5-3.5,2.4-5.2,3.7c-2.5,1.8-5.1,3.6-7.6,5.5c-0.7,0.6-1.8,1.2-1.4,2.7l3.4,0.3l-0.9,1.9c0.5,0,1-0.2,1.5-0.5
	c3.2-1.7,5.6-4.9,9.3-5.4c0.5,0.5,1.1,0.8,1.8,1c0.2,0.1,0.9-0.4,0.9-0.6c0-0.8,0-1.9-0.5-2.3c-1-0.8-0.6-1.4-0.2-2s1.2-1.6,1.9-2.3
	c1.6-1.8,3.2-3.4,4.7-5.2c2.9-3.7,5.7-7.5,8.5-11.3c1-1.3,2-2.5,2.9-3.9c1.5-2.3,2.8-4.6,4.3-6.9c1.1-1.7,2.4-3.3,3.3-5.1
	c2.3-4.6,4.5-9.2,6.6-13.9c1.1-2.6,2.1-5.2,2.9-7.9c0.6-2.2,1-4.5,1.4-6.8c0-0.4,0-0.9-0.1-1.3l-0.5-0.1c-1.7,2.1-1.2,5.3-2.8,7.2
	l-1.2-0.5l-0.2,0.3L98.3,190z M19.7,62.5l-0.7,0.1c0.1,0.7,0.3,1.4,0.4,2.1c0.6,2.9,0.6,5.9,2.2,8.5c0.2,0.4,0.2,0.9,0.2,1.4
	c-0.1,1.1-0.2,2.2-0.2,3.2c0.2,2.4,0.4,4.9,0.8,7.3c0.5,3.5,1.3,7,1.9,10.5c0.3,1.9,0.4,3.9,0.5,5.8c0.4,5.8,0.9,11.6,1.2,17.3
	c0.3,5,0.4,10.1,0.5,15.1c0.1,4.7,0.2,9.3,0.1,14c0,3.6-0.3,7.1-0.5,10.7c0,0.4,0.1,0.8,0.1,1.2h0.4c0.1-0.4,0.2-0.9,0.2-1.3
	c0.2-4.5,0.3-9.1,0.5-13.6c0.1-2.8,0.7-5.6,0.6-8.4c-0.1-3.7,1.7-7.2,0.7-10.8c0-0.1,0-0.2,0-0.3c0.2-1.5,0.3-3,0.4-4.5
	c0.2-4.7,0-9.3-0.7-13.9c-0.4-3.2-0.9-6.4-1.5-9.6s-1.6-6.6-2.5-9.8c-0.4-1.1-0.7-2.3-0.9-3.4c-0.3-3.8-0.8-7.5-1.7-11.2
	c-0.4-1.8-0.7-3.5-1.1-5.3S20.1,64.3,19.7,62.5z M23.8,201c0.3-2.3,0.7-4.7,1-7.1s0.5-4.7,0.9-7c0.3-0.8,0.6-1.5,1.1-2.2l0.7,1.2
	l0.4-0.1l-0.8-2.9l-1.1,0.9l0.3-4.5l1.5,0.6c0.2-1.5-0.8-1.3-1.7-1.4l0.5-6.2h0.4l0.4,1.6c0.8-0.9,0.7-1.3,0-2.1
	c-0.5-0.5-0.9-1.2-1-1.9c0-1.6,0.5-3.2,0.6-4.8s0-3.1,0-4.7h-0.5c-0.1,0.4-0.3,0.8-0.3,1.2c-0.5,3.2-1.1,6.5-1.5,9.7
	c-0.8,5.5-1.7,11-2.1,16.6c-0.5,6.2-2.1,12.2-3.1,18.3c-0.2,1.5-0.2,3-0.3,4.6s-0.1,2.9-0.3,4.4s-0.5,3.1-0.7,4.7
	c2.8-5.6,4.8-11.5,5.7-17.7c1.6,0.7,1.8,1.5,0.7,2.6c1.6,1,0.4,2.3,0.2,3.3c-0.4,1.6-0.3,2.2,1.5,2.6c-0.1-0.3,0-0.5-0.2-0.7
	c-0.7-0.8-0.8-1.8-0.4-2.8c0.2-1.3,0.3-2.6,0.4-3.9l1.1,0.1l-1.6-4.4H25l0.3,3.4L23.8,201z M17.3,268.3c-0.3,1.1-1.5,1.4-3.5,0.9
	l-0.4,2.1c-0.4-0.2-0.9-0.5-1-0.4c-0.6,0.4-1.1,1-1.6,1.6c-0.1,0.2,0,0.7,0.1,1c0.5,0.9,1,1.8,1.7,2.9l0.6-1.3
	c-1.2-0.4-1.5-1.6-0.7-3.1l0.6,2.5c0.7-0.6,1.5-1.4,2.6-0.6c-0.1,0.3-0.3,0.5-0.3,0.7c0,0.5,0.1,1.2,0.3,1.3
	c0.7,0.3,0.6-0.5,0.8-0.9c0.5-1,0.6-2.6,2.5-2.2c0.2,0,0.6-0.4,0.8-0.7c0.3-0.4,0.5-0.8,0.7-1.2l1.1,0.8l1-1.5l-1-4.1l-2.3,3.7
	L17.3,268.3z M102.5,168.9c0.3,0.3,0.8,0.5,0.8,0.7c0,0.6-0.1,1.1-0.4,1.6c-1.1,1.8-1.5,3.9-1.2,5.9c0.1,0.4,0.3,0.8,0.6,1.1
	c0.3-0.3,0.5-0.7,0.7-1.1c0.1-0.4-0.2-0.9-0.1-1.3c0.2-1.1,0.4-2.3,0.7-3.4c0.1-0.3,0.3-0.6,0.4-0.9c0.5-2.9,0.2-6,2.4-8.4
	c0.1-0.1,0.1-0.2,0.2-0.4c0.3-2.8,0.7-5.5,1-8.3c0-0.3,0-0.6-0.1-0.9c-1.3,4.1-0.7,8.7-3.9,12.1c-1.3-0.9-1.6-0.8-2.3,1.1l1.6,0.4
	l0.3-1.3C104.2,166.9,104,168,102.5,168.9L102.5,168.9z M68.1,99l-0.3,0.4l1.9,1.3l-0.9,1.4l3.2,0.7l-2-5l0.4-0.3l2,1l0.1-0.2
	l-2.8-2.5l1-1l-1.9,0.4c-1.2-1.5-2-3.3-3.8-4.3l1.6,3.6l0.7,0.2v0.3l-2.6,0.2v0.6l3.4-0.1l0.8,1.1l-2.8,1.7l3.4,0.3l-0.1,0.7
	L68.1,99z M20.1,41.6c1.1,1.8,2,3.5,3,5c1,1.7,2.1,3.2,3.3,4.8c1.2,1.5,1.2,3.6,2.9,4.6l0.5-0.3l-4.5-8.5l1-1.5L26,45.5l-1.1,0.7
	C23.2,44.9,22.7,42.5,20.1,41.6L20.1,41.6z M27,265.2l-2.5,1c0.4-1.1,1.7-2.2-0.5-3.1l-0.2,2.8l-1.3,0.1c0,0.9,0,1.9,0.2,2.8
	c0.2,1-0.2,2.6,1.8,2.5c-0.2-0.4-0.9-0.7-0.9-0.9c0.1-0.5,0.4-1,0.7-1.4l-1.1-1c1.4,0,1.1-0.6,0.8-1.4c1.5,1.2,1,2.9,1.1,4.4
	l0.4,0.1l1.2-3.9l-1,0.7c0.1-0.9-0.5-2.1,1-1.9c1.1,0.2,1.3-0.3,1.5-0.8c-0.4-0.4-0.6-0.8-0.9-0.9c-0.4-0.1-0.8-0.1-1.2-0.1v0.3
	L27,265.2z M20.2,130.9c0,0,0.5-0.3,0.5-0.4c-0.2-1.2-0.4-2.3-0.7-3.4c-0.4-1.1-0.7-2.2-1-3.3c-0.1-1.2-0.1-2.4,0-3.7l-1.4,0.6
	l0.4,2.2h-0.3l-0.9-2.4l-1,2.5l2.5,1.2c0,0.5-0.1,1.6,0.1,1.7c1.4,0.5,0.4,1.2,0.3,1.9c-0.1,0.4-0.1,0.8,0,1.2
	C19.1,129.6,19.6,130.3,20.2,130.9z M29.9,179.9c0.8-1,1.3-1.6,1.8-2.4c0.2-0.3,0.3-0.7,0.2-1.1c-0.1-0.3-0.3-0.6-0.7-0.8
	c-0.2-0.1-0.6,0.3-0.8,0.6c-0.1,0.2-0.2,0.5-0.2,0.7h-0.3l-0.9-3.4l-1,3l-0.7-1.9l-0.3,0.1l-0.5,3.2l2.1-0.3v1.1h0.4l0.3-1.3h0.4
	L29.9,179.9z M66.2,98.1l-2.6-0.5v-0.5l1.3-0.2c-0.3-0.5-0.8-1-0.8-1.4c0-1.1-0.6-1.1-1.5-1.1l0.7,1c-1.3,1.6-2.4,0.8-3.4-0.6
	l-0.2,0.5l1.5,1.9v3.4c1.2-1,1.8-1.8,0.8-2.9c-0.1-0.2-0.1-0.5,0-0.7c0.2-0.1,0.4-0.2,0.6-0.1c0.2,0.1,0.5,0.5,0.5,0.6
	c-0.7,1.3,0.9,0.8,1.1,1.5c0,0.2,1,0.1,1.6,0.1c0.1-0.4,0.2-1,0.4-1.6c0.1-0.3,0.2-0.6,0.3-0.9l-1.3,0.2L66.2,98.1z M56.7,109.1
	c-1.5,0-0.8,2.3-2.3,2.2l0.1-0.4l-0.9-1.3h0.1l-1.1-2.3l-0.5,0.1l-0.6,3l1.1-0.5c0.3,0.5,0.7,0.9,0.7,1.4s-0.5,0.9-0.6,1.3
	c-0.1,0.4-0.1,0.8,0,1.2c0.2,0.3,0.4,0.5,0.5,0.8c0.2,0.4,0.3,0.8,0.3,1.2l0.5-0.1l-0.2-2.6c0.3-0.4,0.5-1.3,0.8-1.3
	C56.4,111.5,56.5,110.3,56.7,109.1L56.7,109.1z M36,265.4l-0.3-0.1c0-0.9-0.1-1.8-0.2-2.6c0-0.1-0.5-0.3-0.6-0.3
	c-0.7,0.7-1.3,1.4-2,2.2l2.2-0.1l-0.2,2.6l1.5,0.7l1.9-1.8l-0.6-0.6c1.1-1.7,1-2.2-0.3-2.2l0.2,1l-0.3,0.1l-0.4-0.6L36,265.4z
	 M66.2,134l-0.2-1.2c0.2,0,0.4,0,0.6,0c0.4,0.1,0.8,0.2,1.2,0.3c0-0.4,0.1-0.9,0.2-1.3c0.3-0.8-0.7-1.8,0.4-2.5
	c0.1-0.1-0.1-0.7-0.2-1.2l0.8-0.5l-2-0.2l0.1,4.2l-1.7,0.5l-0.4-1.4l-1.6,0.4l-0.3,1.4l0.3,0.1l0.7-0.7
	C65.3,132.4,64.5,134.3,66.2,134z M5.2,242.9c-2.3,4.3-2.6,8-0.9,10.1l0.3-4.5L4,247.2l1.3,0.4l0.2-0.3l-0.9-0.8l1.1-1.2l-0.7-1
	l0.8,0.2l0.3-0.3L5.2,242.9z M49.6,175.8c-1.3,1.2-0.6,2.5-0.4,3.8c0.1,0.6,0.2,1.3,0.1,1.9c0,1.1-0.2,2.3-0.3,3.6l1.5-0.5
	c-0.3-2-1-3.8-0.2-5.8c0.4-1,0.4-2.2,0-3.2c-0.2-0.6-0.5-1.2-0.9-2.3l-0.9,2.5L49.6,175.8z M31.9,111.2l0.5,2.3
	c-0.7,0.6-1.2,1.4-1.2,2.4c-0.1,0.8-0.3,1.6-0.5,2.6l1-1.1l1.4,1.9c-0.3-1.9-1.3-3.4-1-5.1l1.9,1.2c-0.3-0.5-0.5-1-0.7-1.6
	c-0.1-0.4-0.2-0.8-0.3-1.2c-0.3-0.6-0.4-1.1-0.5-1.8c0.1-1.2-0.5-1.3-1.8-1.2L31.9,111.2z M67.5,84c2.2,0.8,2.3,2.5,2.2,4.3
	c-0.1,0.6-0.1,1.2,0,1.8c0.5,0.9,1.1,1.8,1.8,2.6c0.7-1.6-0.9-3.1-0.8-4.8c0.1-1.6-0.4-3.1-1.3-4.4L67.5,84z M64.7,90.3l0.2-0.1
	c-0.1-0.4-0.3-0.7-0.5-1.1c-1.1-1.6-2.3-3.2-3.5-4.8c-1.3-1.9-2.6-3.9-3.9-5.8c-0.3-0.3-0.6-0.7-1-0.9L55.6,78L64.7,90.3z
	 M71.8,129.9l0.6-7.6h-0.7c-0.6,1.6,0,3.3-0.2,4.9c-0.2,1.6-0.8,3,0,4.7h-0.5l-0.5-1H70l-0.1,1.8l1.6-0.5c0,0,0.1,0,0.1-0.1
	c0.3-0.4,0.8-0.8,0.8-1.3C72.5,130.5,72,130.1,71.8,129.9L71.8,129.9z M33.2,127.7c0.2-0.7,0.2-1.4,0.1-2.1c-0.4-1-0.8-2-1.4-3
	c-0.3,0.2-0.6,0.4-0.9,0.6c-0.2,0.2-0.3,0.4-0.4,0.6l0.6,0.3l-0.7,3.6c0.4-0.2,0.8-0.3,1.3-0.3C32.3,127.4,32.8,127.5,33.2,127.7
	L33.2,127.7z M21.2,177.4l-0.8,3h0.2l0.1,2.2l-1.4,0.2c0.2,0.2,0.4,0.5,0.6,0.8c0.1,0.2,0.1,0.4,0,0.5c-0.1,1.6-0.2,3.2-0.4,4.9
	c0.9-0.3,1.5-1.2,1.4-2.1c0.1-1.2-0.3-2.6,0-3.8C21.5,181.3,21.6,179.3,21.2,177.4L21.2,177.4z M50.1,104.8l-0.6,0.1l0.6,9.7
	l1.1-1.8c-0.2-1.2-0.8-2.5-0.4-3.3C51.9,107.5,49.7,106.4,50.1,104.8L50.1,104.8z M35.1,125.7l0.9,0.1c-0.3-0.8-0.5-1.5-0.7-2.2
	c-0.1-0.2-0.3-0.6-0.4-0.6c-0.4-0.1-0.8,0-1.1,0.2c-0.3,0.5-0.6,1-0.8,1.5l1.5-0.5l-0.5,7.7l0.8-0.4L35.1,125.7z M27.3,270.4
	c2-1,3-5.3,1.8-7.9l-0.7,5.2l-1.2-1.1L27.3,270.4z M11.3,184.8l-0.5,0.1l0.2,8.9h0.3l0.5-3.2l0.9,0.9c-0.3-1.2-0.9-2.2-0.6-2.9
	C12.7,187,11.3,186.1,11.3,184.8z M95.7,213.3h-0.6l-0.2-1.8c-1.9,0.3-1.3,2.4-2,3.4c-0.5,0.1-1.2,0.1-1.2,0.2
	c-0.1,0.7-0.1,1.4-0.1,2.1l3.2-3.5l1.6,0.8l0.2-2.4h-0.3L95.7,213.3z M41.9,173.4c0.4-0.3,0.9-0.5,1-0.8c0-1.1,0.2-2.4-0.3-3.2
	c-0.9-1.4-0.7-2.4,0.9-3.1l-0.2-0.4H41c0,0.8,1.8,2.4-0.9,2.5l0.4,1.6l0.9-0.6c0.1,0.2,0.2,0.5,0.3,0.7
	C41.7,171.1,41.8,172.1,41.9,173.4z M34.1,161.5c-0.3,0.2-0.5,0.3-0.5,0.4c-0.1,1.4-0.2,2.7-0.3,4.1c0,0.8,0.1,1.7-0.2,2.3
	c-0.8,1.3-0.5,2.3,0.6,3.5C34.5,168.3,33.9,165,34.1,161.5z M43.6,98.2l0.4-2.3c2,0.2,1.5,1.7,1.8,2.6c0.2,0.4,0.6,0.6,0.9,0.9
	l0.6-0.4c-1.5-0.8-0.2-3.6-2.9-3.7l-0.5-1.4l-0.5,2.5c-1.5,0.3-0.6-2.2-2.5-1.3L43.6,98.2z M55.7,181.2l-1-3.3l-0.4,0.1
	c0.1,3-0.7,6,0.2,9c0.3-0.5,0.6-1,0.4-1.4c-0.5-1.1-0.5-1.9,0.6-2.5l-0.7-1.6L55.7,181.2z M91.2,101c-0.4-0.3-0.9-0.6-1.4-0.8
	c-0.5-0.1-1.1-0.5-1-0.9c0.5-1.7-0.9-2.7-1.2-4l-0.5,0.1l1.4,6.8L91.2,101z M94.8,107.5c-1,1.7,1.9,2.3,0.4,3.8l-0.2-1.4l-1.9-0.4
	l1.5,2l-0.2,0.3l2.1,0.2l-0.9,1.1l2,0.2c-0.5-1.1-0.9-2-1.3-2.8S95.5,108.7,94.8,107.5L94.8,107.5z M51.1,117.1l-2.4-5l0.3-0.1
	l-1.1-1.3l0.3-0.3l0.8,0.4l0.5-0.4l-2-1.5c-0.2,1.1,2.2,8.4,3.2,8.8L51.1,117.1z M53,122.7l-1.1-2.8c-1,1.8,0.7,2.8,0.9,4.1
	c0.1,0.5,0.3,1,0.6,1.5l0.3-0.2l-0.5-1.8c1.6,0.2,2.6-0.3,2.9-1.6l1.5,0.4c-0.4-1.8-1.5-0.6-2.1-1l-0.5,1.3L53,122.7z M11.5,202.2
	c0,0.9-0.1,1.9-0.2,2.8c-0.5,1.4-0.6,2.6,0.6,3.3l1.5-0.2c-0.4-0.9-0.8-1.9-1-2.9C12.2,204.1,12.4,203,11.5,202.2z M12.3,176.3
	c0.1,0.3,0.4,0.7,0.3,0.8c-0.8,1.1-1,2.7-0.3,3.9c0.5,1.3,0.8,2.7,1,4.1c0.5-1,0.5-2.1,0.1-3.1c-0.2-0.5-0.3-1-0.4-1.5
	c-0.1-0.7,0-1.5,0-2.6C13.7,177.4,13.6,177.1,12.3,176.3z M55.4,107.9c0.7,0.4,2.2-0.5,1.9,1s0.7,2.8,0.6,4.2c0,0.8,0.6,0.9,1.1,0.4
	c-0.4-1.2-0.8-2.3-1-3.4c-0.2-1.2-0.3-2.4-0.3-3.6h-0.3l-0.5,0.9l-1.9-1.2L55.4,107.9z M22.2,111.7l0.3-0.1l0.3,3.7
	c0.2-0.2,0.4-0.6,0.4-0.9c-0.1-1.5-0.1-2.9,0-4.4c0.2-1.8,0.1-2-1.6-1.7l-0.1,2l1.3,0.2L22.2,111.7z M20,139.4l-1,3.4l0.6,0.2
	l0.5-1.6l0.6,0.1c-0.1,0.8-0.2,1.6-0.4,2.3c-0.4,1.5-0.4,1.5,0.9,2.5C20.6,144.2,22,141.6,20,139.4L20,139.4z M57.7,145.7
	c0.8-1.1-0.2-4.7-1.3-5.3c-0.1,0.8-0.3,1.6-0.3,2.4c0,0.8,0,1.5,0.1,2.3l1.1-0.6L57.7,145.7z M50.2,103.3l2.2,2.1
	c0.6-0.9,1.1-2.5,2.8-1.3c0.5-1.8-1.2-0.5-1.4-1.4l-0.7,1.2l-0.8-1.7L50.2,103.3z M36.9,219.1l0.3,0.2c0.7-0.8,1.3-1.8,1.7-2.8
	c0.1-1.2,0-2.4-0.2-3.5C37.3,214.9,37.3,217,36.9,219.1z M56.5,146.1c0,0.2-0.1,0.5-0.1,0.7c0,1.1,0.3,2.3-0.1,3.2s-0.1,1.1,0.7,1.3
	l-1,1.2l1.4,0.9c0.4-2.1-1.2-4.2,0.3-6.1L56.5,146.1z M44.4,100.7c0.3,0.7,0.3,1.2,0.6,1.4c0.5,0.3,1,0.6,1.5,0.8
	c0.3,0.2,0.5,0.3,0.7,0.5l-0.2-3.6l-2.3,0.3L44.4,100.7z M41.3,262.2l-0.6,0.1c0.1,0.5,0.1,1.1,0.1,1.6c-0.1,0.5-0.3,0.9-0.5,1.3
	l-1.6-0.7l0.2,1.7c0.9-0.2,1.8-0.4,2.8-0.5c0.9,0,1.4-0.2,1.4-1.3l-1.2,0.3L41.3,262.2z M66.3,122.4c-0.2,0.5-0.4,1-0.5,1.6
	c0,0.3,0.1,0.6,0.3,0.9c0.1,0.1,0.4,0,0.7,0c-0.1-1.4,1.2-0.6,1.7-1.2c0.2,1.6,1.2,1.3,2.1,1.1l0.1-0.7c-0.5-0.1-1-0.4-1.4-0.7
	c-0.3-0.5-0.6-1-0.7-1.5C68.1,124.4,67,122.7,66.3,122.4z M20.1,265.7l0.5-0.1l-0.1-2.5l-2,1.7l-0.4-0.3c0.5-1.1,1.4-2.2,0.3-3.3
	c-0.3,0.7-0.6,1.5-0.8,2.3c-0.1,0.6,0,1.2,0.1,1.8l1.9-0.3c0.1,0,0.2-0.1,0.3-0.1L20.1,265.7z M70.5,106.9l1.6,0.9
	c0.5-1.2-2.2-2.7,0.4-3.9c-1.1-0.6-2.2-0.9-3.4-1c-1,0-0.6,0.7-0.1,1.2c1.2-0.9,1.6-0.9,1.8,0.3c0.1,0.7,0.1,1.5,0.1,2.3
	C70.8,106.7,70.6,106.8,70.5,106.9z M56.1,156.7l-1.7-4.4c-0.3,0.6-0.6,1.2-0.8,1.8c-0.3,0.8,0,1.3,1,1.4c0.3,0,0.5,0.3,0.8,0.5
	l-0.2,0.3l-0.5-0.4l-0.5,2.6l1.1-0.4l-0.3-1.3L56.1,156.7z M23.9,154.8l-0.9,2.3l0.2-0.1v2.8c0.2,0,0.4,0.1,0.6,0.2
	c0.2,0.2,0.2,0.5,0.3,0.8c0.3-1.1,0.8-2.3,0.4-2.9c-0.8-1.2-0.5-1.9,0.5-2.7L23.9,154.8z M48.7,254.5c-1.8-0.5-7.2,2.2-7.5,3.6
	c1.5-0.8,2.8-1.6,4.2-2.3c0.6-0.2,1.2-0.4,1.9-0.6C47.8,255,48.2,254.7,48.7,254.5z M38.8,105.1c1.7-0.6,0.3-1.5,0.4-2
	c-0.4-0.1-0.9-0.2-1-0.3c-0.1-0.8,0-1.7,0-2.7L37,99.6l0.2,2.4l-0.8,0.2c1.6-0.4,0.4,2.9,2.5,1.7L38.8,105.1z M33.5,136
	c-0.7-0.4-1.4-0.8-2.1-1.1c-0.1-0.1-0.5,0.2-0.6,0.3c-0.3,0.5-0.2,0.9,0.6,1.7l0.6-1.1l2.2,0.7l1.2-1.7l-1.7-0.9L33.5,136z
	 M22.5,104.1v-0.3H21l0.9-1.8l-1.1-1.8L20,106h1.5l-0.7-1.4L22.5,104.1z M99,122c1.1,0.7,2,0.2,1.8-0.5c-0.3-1.1,0.3-1.2,1-1.7
	c-2.1,0.7-1.1-1.9-2.6-2l0.2,3.7h0.6v0.2L99,122z M66.8,113.9l1,2.3l1-0.6c-0.3-0.6-0.5-1.3-0.6-2c-0.1-0.7-0.1-1.5,0-2.2
	c-0.7-0.2-1.2,0-1.1,1C67,112.9,67,113.4,66.8,113.9z M9.2,251.6c0.5,0.6,0.9,0.9,1.1,1.4c0,0.5,0,1-0.2,1.4l0.6,0.2l1.5-3.4
	l-1.7,0.4l0.4-1l-0.2-0.2L9.2,251.6z M51.8,201.2c0.8-2.5-1.5-3.4-2.5-5c0.2,1.6,2.2,2.8,0.9,4.7L51.8,201.2z M43,119.4h0.6
	c0.1-1.2,0.1-2.3,0-3.5c-0.1-0.5-0.9-0.9-1.5-1.1c-0.3-0.1-0.8,0.3-1.4,0.7l-0.3,1.2l2.5-1L43,119.4z M55.1,165l0.9,0.6l1.2-1.5
	l-0.8-1.6l0.2-0.2l0.8,0.4l0.3-0.3l-1.4-1.4L55.1,165z M40.1,107.2c-0.1,0.5-0.1,0.7-0.1,0.8c0,1.6,0.4,3.3-0.5,4.8
	c-0.1,0.2,0.2,0.8,0.4,1s0.6,0,1.3-0.1c-1.2-1-1.1-1.7-0.2-2.4c0.2-0.2,0.3-0.5,0.2-0.7C40.9,109.5,40.5,108.5,40.1,107.2
	L40.1,107.2z M62.6,231.1l1.5-3.1l-4.1,1.4L62.6,231.1z M15.9,166.8l-0.1-2.5h-0.4c-0.2,1.6-0.6,3.2,0.2,5l2.2-2.5L15.9,166.8z
	 M59.9,155.9l-1-4.4l0.7-0.2l-1.4-1c0,1.1,0.2,2.2,0.5,3.2C59.5,155.9,59.6,155.9,59.9,155.9L59.9,155.9z M17.9,142.5
	c-0.4,0.1-0.8,0.2-1.2,0.3c-0.1,0.1,0,0.5,0,0.8c1.6-0.1,1,1.2,1.2,2c0.1,0.6,0.1,1.2,0.1,1.9h0.5C19.3,145.8,18.8,144.2,17.9,142.5
	L17.9,142.5z M32.6,160l-0.4,0.3c-0.2,2-0.5,3.9-0.7,6c1-0.1,1.2-0.4,1.1-1.3c0.1-1.3,0.2-2.6,0.5-3.9C33,160.7,32.7,160.3,32.6,160
	z M61,128.5c-0.2,1-0.3,2-0.3,3c0.2,0.6,0.5,1.2,0.8,1.8l0.5-0.3l-0.5-1.5l1-0.4v-0.3l-1.1-0.1l0.2-2l0.6,1.1c0.2-0.5,0.2-1-0.1-1.4
	C61.9,128.3,61.3,128.5,61,128.5z M95.2,209.5l0.4,1.4l1.9-0.6c0.2-0.2,0.3-0.5,0.3-0.8c-0.1-0.4-0.3-0.9-0.6-1.2
	c-0.1-0.1-0.6-0.1-0.9,0.1C95.9,208.8,95.5,209.1,95.2,209.5z M28.7,185.4l-0.6,3l1.2-0.2l0.2,1.2h0.3l0.5-3L28.7,185.4z
	 M38.7,201.2l-0.4,0.1l-0.7,5.3l1.9-1.4l-0.4,0.1L38.7,201.2z M49.5,97.8l0.9,0.6l1-1.4l0.6,2.3l1.2-0.8c-0.4-1.8-1.8-1.6-3.1-1.8
	L49.5,97.8z M29.9,139c0.1,0.3,0.2,0.9,0.5,1.1c0.5,0.2,1.1,0.2,1.6,0c0.3-0.1,0.3-0.9,0.4-1.3s0.1-0.8,0.2-1.3l-1.3,0.1l0.3,0.9
	L29.9,139z M68,110.7c2-0.7,0.8-2.4,1.4-3.6C68,106.9,67.5,108.2,68,110.7L68,110.7z M20.9,172.8l0.4-0.1c0.3-2.1,0.4-4.1-1.3-5.7
	c-0.1,0.4-0.1,0.8,0,1.1c0.3,0.6,0.6,1.2,0.8,1.9C20.9,170.9,20.9,171.9,20.9,172.8z M13.9,252l-0.4-4.3h-0.5c0,1-0.1,2-0.2,2.9
	C12.3,252.4,12.3,252.3,13.9,252L13.9,252z M61.3,139.8l3,0.5c-0.2-1.6-1.7-1-2.4-1.5l-1.9,3.1l1.2,0.5L61.3,139.8z M34.5,109.8
	c0.6,1.3-0.8,2.9,1.2,3.8c-0.1-1.3-0.2-2.3-0.3-3.4c-0.1-0.5-0.2-1-0.3-1.5l-1.9,0.6L34.5,109.8z M55,194.3c-1.8,1.5-2.4,3-2,4
	l1.2,0.1L55,194.3z M32.2,133.3c-0.6-1.3-1-2.4-1.5-3.6l-0.7,3.7l1.2-0.4l-0.1,1.5L32.2,133.3z M102.5,124.3l1.5,2l0.7-4.2l-2.9,1.4
	l2.1,0.5l-0.1,0.4L102.5,124.3z M42.5,173.8h-0.4l-0.2,2.3l-1.3-1.3c-0.1,0.7-0.2,1.2-0.1,1.5c0.2,0.3,0.6,0.5,1,0.6
	c0.4,0,0.9-0.1,1.3-0.2L42.5,173.8z M52,202.5l-0.4-0.1c-0.1,0.4-0.1,0.9-0.1,1.3c0.2,0.6,0.4,1.3,0.7,1.9l-1.5,0.2l2,1.5
	C53.5,205.5,52.2,204.1,52,202.5L52,202.5z M34,179.4l-0.1-5.6h-0.6l-0.4,5L34,179.4z M65.8,146.5c1.1,1.9-0.2,3.8,1,5.4l0.5-0.1
	c-0.2-1.5-0.3-2.9-0.4-4.4h1.2V147L65.8,146.5z M18,116c0.7-0.8-1.1-2.3,1-2.7l-0.2-0.4h-1.9l-0.2,2.8L18,116z M22.5,124.8l-0.2,2.4
	h0.3l0.4-1.1l1.1,1.8c0,0,0.3-0.1,0.3-0.2c-0.1-0.8-0.2-1.7-0.4-2.5L22.5,124.8z M21.7,158.4l-1.5-5.8
	C19.5,154.1,20.4,157.5,21.7,158.4z M33.4,144.8l-0.8,6.8C33.7,151.1,34.3,146.6,33.4,144.8z M75.7,98.8l-0.2,0.5l-1.1-0.5l0.3,2.4
	l0.4-0.1c0-0.4,0-0.8,0-1.1c1.5-0.2,0.8-1.4,1-2.2l-2.9-0.4L73.1,98L75.7,98.8z M16.9,148c-0.2,0.1-0.5,0.1-0.5,0.1
	c0,1.8,0.1,3.5,0.1,5.4C17.3,152.9,17.3,152.9,16.9,148z M45.7,63.1c-0.2,0.4-0.4,0.8-0.5,1.2c-0.1,0.3-0.1,0.9,0,0.9
	c0.7,0.3,1.2,0.7,0.9,1.6l0.6,0.2l0.7-2.8L47,64.1l-0.7,1.4C45.6,64.7,47.1,63.5,45.7,63.1L45.7,63.1z M50.4,185.4l-0.6,1.8l3.5,1.2
	l0.1-1.4C51.9,187.7,51.1,186.7,50.4,185.4L50.4,185.4z M59.4,121.2h-0.5c-1,2,0.7,3.7,0.5,5.6h0.6L59.4,121.2z M31,156.6l0.4-0.2
	c-0.2-0.9-0.3-1.9-0.2-2.9c0.3-1.1-0.3-1.4-1.2-2.1C30.4,153.4,30.2,155.1,31,156.6z M98.7,116.6l0.2-0.3l-1.7-2.3l-0.3,0.2
	c0.6,1.3-0.7,3,1.2,4.3l-0.4-2.3L98.7,116.6z M23.7,141l-0.1,4.9C24.9,144.5,24.9,142.4,23.7,141z M37.3,127.3h0.2
	c0.5-0.7,0.8-1.5,1-2.4c-0.1-0.9-0.4-1.7-0.8-2.4l-1.2,1.5c0.8,0.1,1.9-0.2,1,1.2C37.2,125.8,37.4,126.6,37.3,127.3z M77.8,118.9
	l0.5,0.1c1.4-1.6-0.5-2.9-0.2-4.4h-0.5l-0.4,2.7l0.8-0.1L77.8,118.9z M92,221.2l0.2-0.1c0-0.6,0-1.2,0-1.8c0-0.4,0.3-1.1,0.1-1.2
	c-0.5-0.3-1-0.5-1.6-0.6l-0.2,0.4L92,221.2z M17.4,206.6l-0.3-0.1c-0.6,1.8-1.2,3.6-1.8,5.4c-0.1,0.5-0.1,1-0.1,1.4h0.4L17.4,206.6z
	 M40.9,202.3c-0.3,0.4-0.7,0.8-0.8,1.2c-0.1,0.8-0.2,1.7-0.1,2.5c0,0.2,0,0.5,0,0.7c0.2,0,0.5,0.1,0.7-0.1c0.2-0.2,0.2-0.5,0.2-0.7
	C40.9,204.8,40.9,203.7,40.9,202.3z M16.9,194.9c-0.2-1-0.4-1.9-0.4-2.9c0.2-1.5,0.3-2.1,0-2.5l-0.8,5.2L16.9,194.9z M36,93.8
	c-0.1,1-0.2,1.5-0.3,2.1c0,0.3,0,0.6,0.1,0.9l1.4-0.7c0.1,0,0.1-0.2,0.1-0.3l-0.4-0.3l0.5-1L36,93.8z M99.1,126.3
	c0.2,0,0.7,0,0.7-0.1c0.5-1.2,1-2.5,1.5-3.8l-1.6,0.7L99.1,126.3z M17.6,203l1.1-5.8l-0.4-0.1C17,200.6,16.8,202.3,17.6,203z
	 M100.1,164.9c-1.9,1-2.5,2.9-1.2,3.8v-1.8l1.3-0.3L100.1,164.9z M22.4,140.4l-0.3,4.3C23.2,143.4,23.3,141.4,22.4,140.4z M54.8,118
	l-0.9-0.2l0.8-0.9l-3.2-0.8l-0.2,0.4c0.4,0.2,0.8,0.4,1.2,0.6c0.3,0.1,0.6,0.3,0.8,0.6c0.3,0.5,0.6,1.1,0.9,1.6l0.4-0.2L54.8,118z
	 M21.9,115v-0.6c-0.6,0-1.2,0.1-1.7,0.3c-0.2,0.1-0.2,0.9-0.1,1.3c0.1,0.9,0.2,1.7,0.4,2.6H21l-0.4-3.6L21.9,115z M60.1,181.2
	c-0.8-1.2-1.5-2.1-2.2-3l-0.2,0.2l0.7,3.3L60.1,181.2z M7.1,264.4c-0.8,1.2-1,2.8-0.5,4.1C7.6,267.4,7.8,265.8,7.1,264.4z
	 M88.5,103.6v3.5l1.2-2.4l1.6-0.3v-0.3L88.5,103.6z M72.9,88.2h-0.4L72,90.4l1.6,0.8L74,91L72.9,88.2z M22.3,173.8l-0.5,0.1
	l-0.6,2.7l1.5,0.1L22.3,173.8z M46.2,91.9l-0.8-0.6c0.2-0.2,0.5-0.3,0.7-0.4c0.4-0.3,0.7-0.6,1.1-1L47,89.5
	c-0.7,0.3-1.3,1.4-2.2,0.3l0.1,2.9L46.2,91.9z M54,128.4h0.2c0.4-0.7,0.6-1.4,0.8-2.1c0-0.7-0.2-1.4-0.4-2.1h-0.4
	c-0.1,0.7,0.7,1.8-0.9,1.9c0.3,0.3,0.5,0.7,0.6,1.1C54,127.6,54,128,54,128.4L54,128.4z M48.5,70.7l-0.3,0.1
	c-0.1-0.3-0.2-0.5-0.3-0.8c-0.1-0.2-0.2-0.5-0.3-0.7c0,0-0.3,0.1-0.3,0.1c0,0.2,0,0.5,0.1,0.7c0.1,0.4,0.3,0.9,0.4,1.3H49l0.5-1.4
	l-1-0.6L48.5,70.7z M14.1,204.5c1.2-0.7,1.6-2.2,1-3.4c-0.1-0.2-0.3-0.4-0.4-0.6L14.1,204.5z M85.9,101l-0.3-2.5h-0.5L85,99.6
	c-0.4-0.1-0.9-0.2-1.3-0.2c-0.1,0-0.2,0.7-0.2,0.7C84.1,100.5,84.8,100.7,85.9,101z M50,170.4h-1.6l-0.2,2.2
	C49.8,172.6,49.9,171.7,50,170.4z M40.4,193.6l1.1,2.9l0.4-0.1l-0.6-4.3L40.4,193.6z M68.1,135.5h0.3c0,0.3,0.1,0.5,0.1,0.8
	c0.1,0.2,0.3,0.5,0.5,0.6c0-0.3,0-0.5,0-0.8c-0.3-0.7-0.6-1.4-0.9-2.1c-0.4,1-1.6,1.7-0.5,2.8L68.1,135.5z M31.8,92l-1.5-1.2
	L30,91.2l1,2.1c0.4-0.3,0.8-0.6,1.1-1c0.2-0.4,0.2-0.9,0.2-1.3h-0.5L31.8,92z M57.9,68.5l0.4-0.3c-0.3-0.3-0.6-0.8-0.9-0.9
	c-1-0.2-2,0.1-2.7,0.7L57.9,68.5z M23.4,152.6l1.9-0.7l-0.8-3L23.4,152.6z M95.6,192.6c0.6-1.9,0-3.5-1.1-4
	C94.8,189.9,95.2,191.2,95.6,192.6z M24.1,249.5c1,0.3,2.1,0.5,3.2,0.6c0.2,0,0.5-0.6,0.7-0.9l-0.2-0.1l-0.8,0.5l-0.4-1L24.1,249.5z
	 M42.8,86.1l-0.3,4.3l1.8-0.4C43.4,89.5,43.3,89.3,42.8,86.1z M19.3,116.4l-1.8,0.2l1.1,2.5L19,119c0.1-0.5,0.2-1,0.2-1.4
	S19.3,116.8,19.3,116.4z M39.4,91.8c1.2,0,1.1,0,1.1,0.8c0.1,0.5,0.2,1,0.5,1.4c0.2,0,0.3-0.1,0.5-0.2c0.1,0,0-0.2,0-0.4
	s0-0.6,0.1-1.2l-0.9-1.8L39.4,91.8z M34.4,161.5l0.5-0.1l0.2-3.2l-1.3,0.1L34.4,161.5z M57.8,126.7l0.5-0.2l-1.1-3.5l-0.4,0.1
	l-0.4,1.5l0.3-0.1L57.8,126.7z M15.4,248.6c-1.1,1.9-0.9,2.2,1.3,2.5L15.4,248.6z M71.5,121.2l0.5-0.1l-0.4-3.6
	C70.6,117.9,70.6,119.3,71.5,121.2z M49.3,188.8c0,0.5,0.1,1.1,0.2,1.6c0.1,0.3,0.3,0.5,0.5,0.8c0.1-0.3,0.5-0.6,0.4-0.9
	c-0.1-0.5-0.5-1,0.4-1c-0.1-0.3-0.2-0.7-0.3-0.7C50.1,188.6,49.7,188.7,49.3,188.8z M83.5,125.1h-0.6c0.8,1.2-1,2.7,1,4.2
	L83.5,125.1z M44.5,265.7c0-2.5-0.3-3.1-1.4-2.8C43.4,263.9,43.2,265.2,44.5,265.7z M13.8,175.1c0.4-1.1,0.2-1.8-0.7-2.1
	c-0.2-0.1-0.8,0.4-0.9,0.7c0,0.4,0,0.8,0.2,1.2h0.3l0.4-0.9L13.8,175.1z M61.2,81c1.3-1.1,1.3-1.8-0.2-3.8L61.2,81z M77,122.4
	l-0.3,3.8C77.8,125.5,77.9,123.6,77,122.4z M71.1,112.2l0.8-0.2c-0.8-1,0.5-2.4-1.1-3.6L71.1,112.2z M17.9,32.6
	c-0.9,1.1-0.6,2.7,0.5,3.6c0,0,0,0,0,0L17.9,32.6z M68.4,90.8l-1.2,0.6l0.1,0.3l1,0.1l0.4,1.3c0.3-0.7,0.5-1.5,0.5-2.3
	c0-0.4-0.4-0.7-0.6-1.1l-0.3,0.2L68.4,90.8z M18.3,109.7l-1.6,0.3l1,2.3l0.3-0.1L18.3,109.7z M11,218.6c-0.4-0.5-0.5-0.8-0.7-1
	s-0.4-0.4-0.5-0.6c-1.2,1.2-1.2,1.2,0.1,2.8l0.2-1.4L11,218.6z M64.7,171.2h0.4l0.1,1.3h0.5c0-0.5,0.3-1.2,0.1-1.6s-1-0.5-1.7-0.9
	l0.1,2h0.2L64.7,171.2z M54.9,193.5l-0.2-2.8l-1.4,2.2L54.9,193.5z M60.8,91.8l-0.5,0.1c-0.1,0.6-0.1,1.3-0.1,1.9
	c0,0.2,0.5,0.5,0.8,0.6c0.1,0,0.5-0.4,0.5-0.5C61.3,93.2,61,92.5,60.8,91.8z M69.6,164.7c0.8-1.1,0.6-2.5-0.8-4L69.6,164.7z
	 M30.5,169.8c-0.1,0.6-0.1,1.2,0,1.8c0.2,0.5,0.6,0.9,0.9,1.3l0.3-0.2c-0.2-0.5-0.4-1-0.5-1.5c0-0.6,0-1.2,0.1-1.7L30.5,169.8z
	 M37.2,128.7c-1.4,1.1-1.3,2,0.1,2.7L37.2,128.7z M55.8,157.3l0.2,1.3l0.3,0.3l1.7-1.8l-0.9-0.7l-0.2,0.2l0.3,1L55.8,157.3z
	 M5.7,238.1h0.6c0.2-0.8,0.4-1.7,0.6-2.5c0-0.2-0.1-0.4-0.2-0.6c-0.2,0.1-0.7,0.2-0.7,0.4C5.8,236.3,5.7,237.2,5.7,238.1z M25.6,136
	h-0.3c-0.3,0.2-0.6,0.4-1,0.6s-0.8,0.4-1.2,0.6l0.9,1.3L25.6,136z M12.7,168.3l-0.2,2.7C13.3,170.3,14.1,169.5,12.7,168.3z
	 M49.5,66.9c0.5-0.5,1-1,1.4-1.5c0.1-0.3,0.1-0.6,0-0.8c-0.1-0.2-0.4-0.3-0.6-0.3c-0.3,0.1-0.5,0.3-0.6,0.6
	C49.6,65.4,49.5,66.2,49.5,66.9z M27.5,192.7c-0.9,0.8-1,2.3-0.2,3.2c0.1,0.1,0.2,0.2,0.4,0.3L27.5,192.7z M83,153.6l0.3-4.1
	C82.5,150,82.3,152.8,83,153.6L83,153.6z M17.8,141.7l-1.2-1.7c-0.3,1.7-0.3,1.7,2.2,1.8l-0.5-2L17.8,141.7z M46.8,262.7l-1.8-0.1
	l1,2.8L46.8,262.7z M18.6,89l1.2,0.8l0.1,1.8C20.9,89.4,20.8,89.1,18.6,89z M70.3,106l-2.4-1.8l-0.2,0.3l1.1,2L70.3,106z M68.4,156
	c0.4-1.5-0.4-3.1-1.5-3.2L68.4,156z M98.1,141.9l0.1,1.4l1.1-0.6c-0.9-1.9-2.3-1-3.4-1v0.4L98.1,141.9z M52.4,193.4h-0.6l0.1,3.5
	h0.5L52.4,193.4z M54.9,210.7l0.4,0.1l0.5-1.6l-1.8-0.4L54.9,210.7z M97.1,124.8c-1.2,0.9-1,1.6,1,2.5L97.1,124.8z M104,154.7
	l0.5-0.4c-0.2-0.5-0.5-1.1-0.9-1.5c-0.1-0.1-0.8,0.3-1.5,0.6L104,154.7z M63.5,172l-0.7-2.3C60.9,171.1,62.5,171.5,63.5,172z
	 M97.2,206.3l0.2-3.2l-1.3,1.8L97.2,206.3z M49.8,68.3l-1.8-2.1l-0.4,0.3C48.5,66.9,47.6,68.7,49.8,68.3z M79.5,100.1
	c0.6-0.5,0.7-1.5,0.2-2.1c-0.1-0.1-0.2-0.2-0.3-0.3c-0.2-0.1-0.4-0.1-0.6,0c-0.1,0.2-0.1,0.4,0,0.6C78.9,98.9,79.2,99.5,79.5,100.1z
	 M52,207.3l-0.6-0.1l-0.7,3.4l0.5,0.1L52,207.3z M21.2,112.1l-0.5-2.4l-0.4,0.1l-0.8,1.9L21.2,112.1z M57.8,177.7l2.3-0.9l-0.1-0.4
	l-1.2,0.3l-0.5-1l-0.3,0.1L57.8,177.7z M8.7,252.4c-0.8,1.8-0.5,2.4,1.1,2.5L8.7,252.4z M22.4,39.7c-0.7-0.1-0.5-2-1.9-0.8
	C21.1,39.3,21,40.7,22.4,39.7z M48.9,99.7c-1.2,1.9-1.1,2.7,0.2,3L48.9,99.7z M53.7,185.7l-1.4-2.1l-0.5,2.2L53.7,185.7z M27.9,81.6
	c1.4-0.8-0.5-1.4-0.1-2.4l-1.2,1.2L27.9,81.6z M89.7,155.4l-1,2.6l1.1-0.4l0.3,1.2l0.4-1.4C89.2,157.1,90.2,156.1,89.7,155.4z
	 M11.4,213c0.8-1.6,0.1-2.1-1.2-2.3L11.4,213z M71.1,114c-1.3,0.9-1.3,1.2,0.3,2.7L71.1,114z M5.4,263.5l0.2,2.3h0.5l0.4-2.7
	L5.4,263.5z M66.5,76.1l0.3,3.3C67.7,78.2,67.7,77.6,66.5,76.1z M69.9,139.9l0.2,1.4c0.5-2.3,0.5-2.3-1.6-2L69.9,139.9z M32.9,76.6
	c0.5-1.7,0.1-2.1-1.8-1.9L32.9,76.6z M16.2,41l0.6,0.4c0.3-0.5,0.6-1,0.9-1.5c0-0.1-0.5-0.4-0.8-0.6L16.2,41z M74.9,115.7l0.4-0.3
	c-0.4-0.4-0.8-0.8-1.3-1.2c-0.1-0.1-0.6,0.5-1,0.9L74.9,115.7z M77.5,88.2h-0.5c0.1,1.1,0.2,2.3,0.3,3.4h0.6L77.5,88.2z M23.7,129.9
	l-1.1-0.3l-0.2,0.4c0.4,0.2,0.9,0.7,1.2,0.6c1-0.4,1-1.3,0.9-2.1l-0.4-0.1L23.7,129.9z M31.8,157l-0.6-0.1c-0.7,0.6-0.8,1.8-0.2,2.5
	c0.1,0.1,0.1,0.1,0.2,0.2L31.8,157z M98,177.6l-0.3,0.4c-0.2,0.7-0.3,1.3-0.4,2c0,0.3,0.1,0.5,0.2,0.7c0,0.1,0.5,0,0.5-0.1
	c0.2-0.6,0.4-1.3,0.5-2C98.5,178.3,98.1,177.9,98,177.6z M81.6,123.3c-1.1,1.1-1.2,2.6-0.4,3L81.6,123.3z M30.5,71.3l0.5-1.5
	l-0.2-0.1l-1,1.2c0-0.4-0.1-0.7-0.2-1.1c-0.2-0.1-0.4-0.1-0.6,0c-0.1,0.1-0.2,0.5-0.1,0.6C29.5,70.7,30,70.9,30.5,71.3L30.5,71.3z
	 M100,178.3l0.4-0.3l-0.7-1.9l-1-0.2c1.6,1.4-0.1,1.2-0.1,1.9L100,178.3z M98,182.3l0.6,0.1l0.7-2.9l-0.5-0.1L98,182.3z M33.2,155.3
	l0.6,0.4l0.2-0.4l-1.7-0.9l0.2,2.2h0.5L33.2,155.3z M31.5,80.3l-0.4,0.4c1.9-0.1,0.7,1.3,1.4,2.2c0.2-0.8,0.7-1.5,0.5-2
	S32,80.6,31.5,80.3L31.5,80.3z M34.7,104.8l-0.4,2.3l1,0.7C34.8,106.7,36,105.6,34.7,104.8L34.7,104.8z M59.4,193.6l-1.6,1.6
	l1.4,0.9L59.4,193.6z M27.2,200.5l0.3,3C28.9,202.1,27.9,201.3,27.2,200.5L27.2,200.5z M100.9,171.7l-0.4,2.6
	C101.7,173.8,101.8,172.6,100.9,171.7L100.9,171.7z M32.6,55.4l1.7-0.8v-0.4l-1.9,0.2L32.6,55.4z M26,44.2l-1.8-0.7l0.8,2.4L26,44.2
	z M77.1,92h-0.4c0,0.7-0.1,1.3-0.1,2c0,0,0.5,0,0.9,0.1c-0.1-0.5-0.2-0.8-0.2-1.1S77.2,92.3,77.1,92z M41.9,157.2
	c1.2-1.8,1.1-2.4-0.3-2.8L41.9,157.2z M93.2,116.4l-0.4-0.1l-0.1-2.7h-0.4v3.4L93.2,116.4z M94,114.6l0.7,0.2l0.5-2.3l-0.6-0.1
	L94,114.6z M15.9,35.9l0.4,0.1c0.1-0.6,0.1-1.1-0.1-1.7c-0.1-0.3-0.8-0.4-1.2-0.5L15.9,35.9z M20.7,147.3l-0.6,0.8l2.1,1l0.4-0.7
	L20.7,147.3z M82.7,107.6l0.6-0.1c-0.1-0.5-0.2-1.1-0.2-1.6s0-0.9,0-1.3h-0.5L82.7,107.6z M88.9,151l-0.4-0.1
	c-0.1,0.7-0.1,1.4-0.1,2.2c0.4,0.1,0.7,0.1,1.1,0.2L88.9,151z M58.4,142.4l0.8,2.4l0.8-1.7L58.4,142.4z M68.3,203.2h-0.6l0.1,3.1
	h0.5V203.2z M58.3,169.2l-0.6,0.1l0.2,2.3l0.6-0.1L58.3,169.2z"/>
<path class="st3" d="M4.8,1.4c7,0.8,10.6,5.5,13.4,11l0.5-0.2c0-0.6,0-1.3-0.1-1.9c-0.3-1.3-0.7-2.5-0.9-3.9c-0.2-1,0.1-1.8,1.2-1.8
	c0.8,1.1,1.5,2.2,2.2,3.3c0.3,0.6,0.6,1.3-0.6,1.8c-0.5,0.2-0.6,1.3-0.8,2c0,0.1,0.3,0.4,0.4,0.6c1.2,2.5,0.5,3.2-2,3.8
	c-2.1,0.5-2.7,2-3.5,3.6c-0.2,0.5-0.7,0.9-1.2,1c-1.8,0.4-3.7,0.7-5.3-0.6c-0.5-0.4-0.8-1-0.9-1.6c-0.6-4.8-1-9.6-1.5-14.3
	C5.7,3.6,5.3,3.2,5.1,2.7C5,2.3,4.9,1.9,4.8,1.4z M7.4,4.6L7.1,4.8L8.8,13l1-1.5l0.8,4.3c0.8-1.6-0.7-3.2,0.6-4.1
	c1.3,2.4-0.5,5,0.3,7.4h0.7c0-0.6,0.1-1.2,0.2-1.8c0.2-0.5,0.3-1,0.6-1.4l0.4,0.2l-0.1,1.4c1.2-1.3,1.3-1.8,0.4-3.2l-0.8,1.2
	l-0.4-0.2c0.2-0.4,0.3-0.9,0.4-1.4c0-1.1,1.5-1.9,0.5-3.2c-0.6-0.8-1.2-1.5-1.8-2.2C10.2,7.2,8.8,5.9,7.4,4.6z M9.8,18.8l0.2-0.3
	l0.5,1l0.5-0.2l-1.7-5.3c-1.4,1.6-0.2,3.1-0.4,4.5C8.8,18.5,9.5,18.6,9.8,18.8z"/>
<g class="st1">
	<path class="st2" d="M116.7,252.8l1.6,0.8c-0.5,0.8-1.6,1.5-3.2,1.5c-2.1,0-3.5-1.1-3.5-2.9c0-1.9,1.4-2.9,3.6-2.9
		c1.5,0,2.6,0.6,3.1,1.5l-1.6,0.8c-0.3-0.5-0.9-0.8-1.5-0.8c-1,0-1.6,0.5-1.6,1.4s0.7,1.4,1.6,1.4
		C115.8,253.6,116.3,253.3,116.7,252.8z"/>
	<path class="st2" d="M124.2,250.5v4.4h-1.9v-0.6c-0.4,0.5-1,0.8-1.7,0.8c-1.2,0-1.9-0.8-1.9-1.9v-2.6h1.8v2.5
		c0,0.4,0.3,0.7,0.7,0.7c0.4,0,0.7-0.2,1-0.6v-2.6H124.2z"/>
	<path class="st2" d="M127.9,255.1c-1.8,0-2.9-0.9-2.9-2.4c0-1.5,1.1-2.4,2.9-2.4c1.4,0,2.2,0.6,2.5,1.3l-1.5,0.6
		c-0.2-0.4-0.6-0.5-1-0.5c-0.7,0-1.2,0.4-1.2,1c0,0.6,0.5,1,1.2,1c0.4,0,0.8-0.1,1-0.6l1.5,0.6C130.1,254.5,129.3,255.1,127.9,255.1
		z"/>
	<path class="st2" d="M136.4,250.5v4.4h-1.9v-0.6c-0.4,0.5-1,0.8-1.7,0.8c-1.2,0-1.9-0.8-1.9-1.9v-2.6h1.8v2.5
		c0,0.4,0.3,0.7,0.7,0.7c0.4,0,0.7-0.2,1-0.6v-2.6H136.4z"/>
	<path class="st2" d="M137.4,254.9v-4.4h1.9v0.7c0.4-0.6,1-0.8,1.7-0.8v1.5c-0.9,0-1.5,0.3-1.7,1v2H137.4z"/>
	<path class="st2" d="M147.4,252.7c0,1.5-0.9,2.3-2.3,2.3c-0.7,0-1.3-0.2-1.7-0.7v0.6h-1.9v-5.8h1.9v2c0.4-0.5,1-0.7,1.7-0.7
		C146.5,250.4,147.4,251.3,147.4,252.7z M145.6,252.7c0-0.6-0.4-1-1.1-1c-0.4,0-0.8,0.1-1.2,0.5v0.9c0.3,0.4,0.7,0.5,1.2,0.5
		C145.3,253.7,145.6,253.3,145.6,252.7z"/>
	<path class="st2" d="M148,249.3c0-0.5,0.4-0.8,1-0.8c0.6,0,1,0.3,1,0.8s-0.4,0.8-1,0.8C148.4,250.2,148,249.8,148,249.3z
		 M150,254.9h-1.8v-4.4h1.8V254.9z"/>
	<path class="st2" d="M154.8,254.6c-0.4,0.3-1.1,0.4-1.6,0.4c-1.1,0-1.9-0.6-1.9-1.7v-1.6h-0.7v-1.3h0.7v-1h1.8v1h1.6v1.3h-1.6v1.3
		c0,0.3,0.3,0.6,0.7,0.6c0.2,0,0.4-0.1,0.7-0.2L154.8,254.6z"/>
</g>
<g class="st1">
	<path class="st2" d="M160.6,252.4v1.6c0,0.3,0.1,0.6,0.2,0.8h-1.9c-0.1-0.1-0.1-0.3-0.1-0.4v0c-0.3,0.3-0.9,0.6-1.6,0.6
		c-0.9,0-2-0.4-2-1.5c0-1.1,1.1-1.5,2-1.5c0.7,0,1.3,0.2,1.6,0.6v-0.3c0-0.5-0.5-0.8-1.3-0.8c-0.5,0-1,0.1-1.5,0.3l-0.4-1.1
		c0.6-0.3,1.6-0.4,2.3-0.4C159.6,250.4,160.6,251.1,160.6,252.4z M158.8,253.6c-0.3-0.3-0.7-0.4-1.1-0.4c-0.4,0-0.8,0.1-0.8,0.5
		c0,0.4,0.5,0.5,0.8,0.5C158.1,254.1,158.6,254,158.8,253.6L158.8,253.6z"/>
</g>
<g class="st1">
	<path class="st2" d="M164.1,255.1c-1.8,0-2.9-0.9-2.9-2.4c0-1.5,1.1-2.4,2.9-2.4c1.4,0,2.2,0.6,2.5,1.3l-1.5,0.6
		c-0.2-0.4-0.6-0.5-1-0.5c-0.7,0-1.2,0.4-1.2,1c0,0.6,0.5,1,1.2,1c0.4,0,0.8-0.1,1-0.6l1.5,0.6C166.3,254.5,165.5,255.1,164.1,255.1
		z"/>
</g>
<g class="st1">
	<path class="st2" d="M170.1,253.8c0.7,0,1-0.1,1.4-0.4l0.9,0.9c-0.6,0.6-1.5,0.8-2.4,0.8c-1.9,0-3-0.9-3-2.4c0-1.5,1.1-2.4,2.9-2.4
		c1.6,0,2.7,0.8,2.7,2.3c0,0.2,0,0.3-0.1,0.4h-3.8C168.9,253.6,169.4,253.8,170.1,253.8z M168.8,252.2l2.2,0
		c-0.1-0.4-0.5-0.6-1.1-0.6C169.4,251.6,169,251.8,168.8,252.2z M170.2,249.9h-1.3l1-1.4h2.2L170.2,249.9z"/>
	<path class="st2" d="M176.2,253.8c0.7,0,1-0.1,1.4-0.4l0.9,0.9c-0.6,0.6-1.5,0.8-2.4,0.8c-1.9,0-3-0.9-3-2.4c0-1.5,1.1-2.4,2.9-2.4
		c1.6,0,2.7,0.8,2.7,2.3c0,0.2,0,0.3-0.1,0.4h-3.8C175,253.6,175.5,253.8,176.2,253.8z M174.9,252.2l2.2,0c-0.1-0.4-0.5-0.6-1.1-0.6
		C175.4,251.6,175,251.8,174.9,252.2z"/>
	<path class="st2" d="M184.5,253.5c0,0.9-0.8,1.6-2.6,1.6c-1.2,0-2.2-0.3-2.8-0.8l0.8-0.9c0.5,0.3,1.2,0.5,2.1,0.5
		c0.5,0,0.8-0.1,0.8-0.3c0-0.2-0.3-0.3-1-0.3c-1.3-0.1-2.5-0.5-2.5-1.5c0-0.9,1-1.5,2.6-1.5c1,0,1.9,0.2,2.5,0.6l-0.8,1
		c-0.4-0.3-1-0.4-1.7-0.4c-0.4,0-0.9,0-0.9,0.3c0,0.2,0.3,0.2,1,0.3C183.4,252.1,184.5,252.5,184.5,253.5z"/>
</g>
<g class="st1">
	<path class="st2" d="M114.3,258.7c0.3,0,0.6,0,0.9,0.1s0.6,0.2,0.9,0.4v1c-0.3-0.2-0.6-0.3-0.9-0.4c-0.3-0.1-0.6-0.1-0.9-0.1
		c-0.4,0-0.7,0.1-1,0.2c-0.3,0.2-0.5,0.4-0.7,0.7c-0.2,0.3-0.3,0.6-0.3,1c0,0.4,0.1,0.7,0.3,1c0.2,0.3,0.4,0.5,0.7,0.7
		c0.3,0.2,0.7,0.2,1,0.2c0.3,0,0.6,0,0.8-0.1s0.6-0.2,1-0.5v1c-0.3,0.2-0.7,0.3-1,0.4s-0.6,0.1-1,0.1c-0.6,0-1.1-0.1-1.5-0.3
		s-0.8-0.5-1-1c-0.3-0.4-0.4-0.9-0.4-1.4c0-0.5,0.1-1,0.4-1.5s0.6-0.8,1.1-1S113.7,258.7,114.3,258.7z"/>
	<path class="st2" d="M118,260.6v2.2c0,0.2,0.1,0.4,0.2,0.5c0.1,0.1,0.3,0.2,0.5,0.2c0.2,0,0.3,0,0.5-0.1c0.1-0.1,0.3-0.2,0.4-0.4
		v-2.4h0.9v3.6h-0.9v-0.5c-0.3,0.4-0.7,0.6-1.1,0.6c-0.4,0-0.7-0.1-0.9-0.4c-0.2-0.2-0.4-0.6-0.4-1v-2.3H118z"/>
	<path class="st2" d="M123,260.5c0.4,0,0.8,0.1,1.1,0.2v0.8c-0.3-0.2-0.7-0.3-0.9-0.3c-0.3,0-0.6,0.1-0.8,0.3s-0.3,0.5-0.3,0.8
		c0,0.3,0.1,0.6,0.3,0.8c0.2,0.2,0.5,0.3,0.8,0.3c0.3,0,0.6-0.1,1-0.3v0.8c-0.4,0.2-0.8,0.2-1.1,0.2c-0.6,0-1-0.2-1.4-0.5
		s-0.5-0.8-0.5-1.3c0-0.6,0.2-1,0.5-1.4C122,260.7,122.4,260.5,123,260.5z"/>
	<path class="st2" d="M125.8,260.6v2.2c0,0.2,0.1,0.4,0.2,0.5c0.1,0.1,0.3,0.2,0.5,0.2c0.2,0,0.3,0,0.5-0.1c0.1-0.1,0.3-0.2,0.4-0.4
		v-2.4h0.9v3.6h-0.9v-0.5c-0.3,0.4-0.7,0.6-1.1,0.6c-0.4,0-0.7-0.1-0.9-0.4c-0.2-0.2-0.4-0.6-0.4-1v-2.3H125.8z"/>
	<path class="st2" d="M131.2,260.5c0.1,0,0.2,0,0.4,0.1c0.1,0.1,0.3,0.2,0.4,0.3l-0.3,0.8c-0.3-0.2-0.5-0.3-0.7-0.3
		c-0.1,0-0.3,0.1-0.4,0.2s-0.3,0.3-0.3,0.4s-0.1,0.4-0.1,0.5v1.6h-0.9v-3.6h0.9v0.9h0c0.2-0.3,0.3-0.6,0.5-0.7
		C130.8,260.6,131,260.5,131.2,260.5z"/>
	<path class="st2" d="M133.4,258.8v2c0.3-0.2,0.6-0.3,0.9-0.3c0.3,0,0.6,0.1,0.9,0.2c0.3,0.2,0.5,0.4,0.6,0.7s0.2,0.6,0.2,0.9
		c0,0.6-0.2,1-0.5,1.4s-0.8,0.5-1.4,0.5c-0.5,0-1.1-0.1-1.6-0.3v-5.1H133.4z M133.4,263.4c0.2,0.1,0.4,0.1,0.7,0.1
		c0.3,0,0.5-0.1,0.7-0.3s0.3-0.5,0.3-0.9c0-0.3-0.1-0.6-0.3-0.8s-0.4-0.3-0.7-0.3c-0.1,0-0.2,0-0.4,0.1c-0.1,0-0.2,0.1-0.4,0.2
		V263.4z"/>
	<path class="st2" d="M137.2,258.9c0.1,0,0.3,0.1,0.4,0.2s0.2,0.2,0.2,0.4c0,0.1-0.1,0.3-0.2,0.4s-0.2,0.2-0.4,0.2
		c-0.1,0-0.3-0.1-0.4-0.2c-0.1-0.1-0.2-0.2-0.2-0.4c0-0.1,0.1-0.3,0.2-0.4C137,259,137.1,258.9,137.2,258.9z M137.7,260.6v3.6h-0.9
		v-3.6H137.7z"/>
	<path class="st2" d="M139.6,259.6L139.6,259.6l0.1,0.9h1.2v0.7h-1.2v1.6c0,0.2,0,0.3,0.1,0.4c0.1,0.1,0.2,0.1,0.4,0.1
		c0.2,0,0.5-0.1,0.8-0.2v0.8c-0.3,0.2-0.7,0.2-1,0.2c-0.4,0-0.7-0.1-0.9-0.3c-0.2-0.2-0.3-0.5-0.3-0.9v-1.7h-0.6v-0.2L139.6,259.6z"
		/>
	<path class="st2" d="M142.8,260.5c0.5,0,0.8,0.1,1.1,0.3s0.4,0.5,0.4,0.8v1.7c0,0.1,0.1,0.2,0.2,0.2c0,0,0.1,0,0.2-0.1
		c0.1,0,0.2-0.1,0.2-0.1v0.5c-0.3,0.2-0.6,0.3-0.9,0.3c-0.2,0-0.3,0-0.4-0.1c-0.1-0.1-0.2-0.2-0.2-0.3c-0.4,0.3-0.7,0.4-1.1,0.4
		c-0.3,0-0.5-0.1-0.7-0.3c-0.2-0.2-0.3-0.4-0.3-0.6c0-0.3,0.1-0.6,0.3-0.7s0.5-0.3,1-0.5l0.8-0.2v-0.2c0-0.3-0.2-0.5-0.6-0.5
		c-0.2,0-0.4,0-0.6,0.1c-0.2,0.1-0.4,0.2-0.6,0.4V261C141.8,260.7,142.3,260.5,142.8,260.5z M142.3,263.2c0,0.1,0,0.2,0.1,0.3
		s0.2,0.1,0.3,0.1c0.2,0,0.4-0.1,0.6-0.3v-0.9c-0.3,0.1-0.5,0.2-0.6,0.3s-0.3,0.2-0.3,0.2C142.3,263,142.3,263.1,142.3,263.2z"/>
	<path class="st2" d="M149.6,260.5c0.3,0,0.5,0.1,0.7,0.2c0.2,0.1,0.3,0.3,0.4,0.5c0.2-0.2,0.4-0.4,0.6-0.5c0.2-0.1,0.4-0.2,0.7-0.2
		c0.4,0,0.7,0.1,0.9,0.4c0.2,0.2,0.3,0.6,0.3,1v2.3h-0.9V262c0-0.2-0.1-0.4-0.2-0.6c-0.1-0.1-0.3-0.2-0.5-0.2
		c-0.3,0-0.6,0.2-0.8,0.6v2.4h-0.9V262c0-0.2-0.1-0.4-0.2-0.6s-0.3-0.2-0.5-0.2c-0.2,0-0.3,0-0.4,0.1c-0.1,0.1-0.3,0.2-0.4,0.4v2.4
		h-0.9v-3.6h0.9v0.5c0.2-0.2,0.3-0.3,0.5-0.4C149.2,260.6,149.4,260.5,149.6,260.5z"/>
	<path class="st2" d="M155.4,260.5c0.5,0,0.8,0.1,1.1,0.3s0.4,0.5,0.4,0.8v1.7c0,0.1,0.1,0.2,0.2,0.2c0,0,0.1,0,0.2-0.1
		c0.1,0,0.2-0.1,0.2-0.1v0.5c-0.3,0.2-0.6,0.3-0.9,0.3c-0.2,0-0.3,0-0.4-0.1c-0.1-0.1-0.2-0.2-0.2-0.3c-0.4,0.3-0.7,0.4-1.1,0.4
		c-0.3,0-0.5-0.1-0.7-0.3c-0.2-0.2-0.3-0.4-0.3-0.6c0-0.3,0.1-0.6,0.3-0.7s0.5-0.3,1-0.5l0.8-0.2v-0.2c0-0.3-0.2-0.5-0.6-0.5
		c-0.2,0-0.4,0-0.6,0.1c-0.2,0.1-0.4,0.2-0.6,0.4V261C154.4,260.7,154.9,260.5,155.4,260.5z M154.9,263.2c0,0.1,0,0.2,0.1,0.3
		s0.2,0.1,0.3,0.1c0.2,0,0.4-0.1,0.6-0.3v-0.9c-0.3,0.1-0.5,0.2-0.6,0.3s-0.3,0.2-0.3,0.2C154.9,263,154.9,263.1,154.9,263.2z"/>
	<path class="st2" d="M158.6,260.6l0.9,1.1l0.9-1.1h1.1l-1.4,1.8l1.5,1.8h-1.1l-1-1.2l-0.9,1.2h-1.1l1.5-1.8l-1.5-1.8H158.6z"/>
	<path class="st2" d="M162.6,258.9c0.1,0,0.3,0.1,0.4,0.2c0.1,0.1,0.2,0.2,0.2,0.4c0,0.1-0.1,0.3-0.2,0.4c-0.1,0.1-0.2,0.2-0.4,0.2
		c-0.1,0-0.3-0.1-0.4-0.2c-0.1-0.1-0.2-0.2-0.2-0.4c0-0.1,0.1-0.3,0.2-0.4S162.4,258.9,162.6,258.9z M163.1,260.6v3.6h-0.9v-3.6
		H163.1z"/>
	<path class="st2" d="M166.1,260.5c0.3,0,0.5,0.1,0.7,0.2c0.2,0.1,0.3,0.3,0.4,0.5c0.2-0.2,0.4-0.4,0.6-0.5c0.2-0.1,0.4-0.2,0.7-0.2
		c0.4,0,0.7,0.1,0.9,0.4c0.2,0.2,0.3,0.6,0.3,1v2.3h-0.9V262c0-0.2-0.1-0.4-0.2-0.6c-0.1-0.1-0.3-0.2-0.5-0.2
		c-0.3,0-0.6,0.2-0.8,0.6v2.4h-0.9V262c0-0.2-0.1-0.4-0.2-0.6s-0.3-0.2-0.5-0.2c-0.2,0-0.3,0-0.4,0.1c-0.1,0.1-0.3,0.2-0.4,0.4v2.4
		H164v-3.6h0.9v0.5c0.2-0.2,0.3-0.3,0.5-0.4C165.7,260.6,165.9,260.5,166.1,260.5z"/>
	<path class="st2" d="M172,260.5c0.5,0,0.8,0.1,1.1,0.3c0.2,0.2,0.4,0.5,0.4,0.8v1.7c0,0.1,0.1,0.2,0.2,0.2c0,0,0.1,0,0.2-0.1
		c0.1,0,0.2-0.1,0.2-0.1v0.5c-0.3,0.2-0.6,0.3-0.9,0.3c-0.2,0-0.3,0-0.4-0.1c-0.1-0.1-0.2-0.2-0.2-0.3c-0.4,0.3-0.7,0.4-1.1,0.4
		c-0.3,0-0.5-0.1-0.7-0.3c-0.2-0.2-0.3-0.4-0.3-0.6c0-0.3,0.1-0.6,0.3-0.7c0.2-0.2,0.5-0.3,1-0.5l0.8-0.2v-0.2
		c0-0.3-0.2-0.5-0.6-0.5c-0.2,0-0.4,0-0.6,0.1c-0.2,0.1-0.4,0.2-0.6,0.4V261C171,260.7,171.4,260.5,172,260.5z M171.4,263.2
		c0,0.1,0,0.2,0.1,0.3s0.2,0.1,0.3,0.1c0.2,0,0.4-0.1,0.6-0.3v-0.9c-0.3,0.1-0.5,0.2-0.6,0.3c-0.1,0.1-0.3,0.2-0.3,0.2
		C171.4,263,171.4,263.1,171.4,263.2z"/>
</g>
<path d="M58.3,14.1c0,0.1-0.1,0.1-0.1,0.2c0,0.1,0,0.1,0,0.2c0,0-0.1,0.1-0.1,0c0,0,0,0,0,0c-0.1-0.2-0.2-0.4-0.2-0.6s0-0.2,0.2-0.2
	c0.2,0,0.4,0,0.5,0H59l1.3,0h1.3h0.8c0.1,0,0.2,0,0.3,0c0.3-0.1,0.6,0,0.8,0.1l1,0.5c0.3,0.1,0.4,0.3,0.5,0.5c0,0.1,0,0.2,0.1,0.3
	c0,0.1,0,0.2,0,0.2c0,0.1,0,0.2,0.2,0.3s0.2,0.1,0.1,0.3c-0.1,0.3,0,0.6,0.1,0.9c0,0,0,0.1,0,0.1c-0.1,0.3-0.3,0.5-0.5,0.7v0
	c-0.4,0.2-0.8,0.4-1.2,0.5c-0.2,0-0.5,0.1-0.7,0.1s-0.6,0-0.9,0h-1.1c-0.1,0-0.2,0-0.3,0c-0.3,0.1-0.7,0.2-1,0.1c-0.3,0-0.5,0-0.8,0
	h-0.2c-0.1,0-0.2-0.1-0.2-0.2c0-0.7-0.1-1.3-0.1-2c0-0.3,0-0.5-0.1-0.8c-0.1-0.3-0.1-0.5,0-0.8c0-0.1,0-0.3,0-0.4L58.3,14.1z
	 M59.2,15.4L59.2,15.4c0.1-0.1,0-0.2-0.1-0.2s-0.2-0.3-0.1-0.4s0-0.1,0-0.1c-0.1,0.1-0.2,0.3-0.2,0.5s0,0.3,0.1,0.5l0.3,0.1
	L59.2,15.4z M60.9,14.9c-0.4,0-0.5,0.1-0.6,0.4c0,0.3,0,0.7,0.2,1c0,0.2,0.2,0.3,0.4,0.3c0,0,0,0,0.1,0c0.3-0.1,0.6-0.1,0.9-0.1
	c0.2,0,0.4-0.1,0.6-0.1c0.2-0.1,0.3-0.3,0.2-0.5c0,0,0-0.1-0.1-0.1c0,0-0.1-0.1-0.1-0.1c-0.1-0.2-0.3-0.4-0.6-0.4l-0.9-0.1
	L60.9,14.9z M58.9,16.3c0,0.1-0.1,0.1,0,0.2s0.1,0,0.2,0c0.1,0,0.1-0.1,0.2-0.1v-0.1h0.3l-0.2-0.1c0,0-0.1,0-0.1-0.1
	c0-0.1,0-0.2-0.1-0.3c0-0.1-0.1-0.1-0.2-0.1s-0.2,0-0.2,0.1S58.7,16.2,58.9,16.3L58.9,16.3z M61.9,14.1c0-0.2-0.1-0.3-0.3-0.3
	C61.6,14,61.9,13.9,61.9,14.1L61.9,14.1z M62.4,13.9c-0.2-0.1-0.2-0.1-0.3,0c0.1,0.1,0.1,0.1,0.1,0.1C62.2,14,62.3,13.9,62.4,13.9
	L62.4,13.9z M61.3,14c0-0.2,0-0.2-0.2-0.2L61.3,14z M59.3,16.7c-0.1-0.1-0.1-0.1-0.2-0.1S59.2,16.8,59.3,16.7L59.3,16.7z M59.3,15.8
	L59.3,15.8L59.3,15.8L59.3,15.8L59.3,15.8z"/>
<path d="M55.7,14.9c-1.2-0.3-2.4-0.3-3.5-0.2c0.1,0.2,0.3,0.3,0.5,0.3c0.3,0,0.7,0,1,0c0.5-0.1,1.1-0.1,1.7-0.1
	c0.2,0,0.3,0.1,0.3,0.4c-0.1,0.3-0.2,0.6-0.3,0.9c-0.1,0.1-0.2,0.2-0.4,0.2c-0.3,0-0.5,0-0.8-0.1c-0.2,0-0.5,0-0.7,0h-0.7h-0.2
	c0,0,0,0.1,0,0.1c0.1,0.3,0.1,0.3,0.4,0.2c0.2-0.1,0.4-0.1,0.7-0.1c0.4,0,0.8,0,1.2,0c0.2,0,0.5,0,0.7,0c0.1,0,0.1,0,0.2,0
	c0.1,0,0.2,0,0.2,0c0.3,0,0.3-0.1,0.3-0.4s0-0.2,0.1-0.4c0.1,0.1,0.1,0.2,0.1,0.4c0,0.2,0,0.4,0.1,0.6c0.1,0.3,0.1,0.6,0.1,0.9
	c0,0.1,0,0.3,0.1,0.4c0,0,0.1,0.1,0.1,0.1c0.1,0.2,0,0.4-0.2,0.4c-0.1,0-0.1,0-0.2,0c-0.2,0-0.4,0-0.6,0c-0.1,0-0.2,0-0.3,0
	l-0.4-0.1l0.9-0.1c0-0.2,0-0.2-0.2-0.2c-0.8,0-1.6,0-2.4,0c-0.2,0-0.4,0-0.6-0.1c0,0-0.1,0-0.1,0h-1.3c-0.1,0-0.2,0-0.2,0
	c-0.1,0.1-0.2,0.1-0.2,0.1c-0.1,0-0.2-0.1-0.2-0.3c0-0.1,0-0.2,0-0.4c0-0.1,0-0.2,0-0.4c-0.1-0.3-0.1-0.6-0.1-0.9
	c0-0.2,0-0.4-0.1-0.6c-0.1-0.3-0.1-0.7-0.1-1c0-0.2,0-0.4,0-0.6s0-0.4,0-0.6s0.2-0.3,0.3-0.2c0.2,0.1,0.4,0.1,0.5,0
	c0.2,0,0.3,0,0.5,0c0.2,0,0.4,0.1,0.6,0.1c0.6,0.1,1.2,0.1,1.9,0.2c0.3,0,0.7,0,1,0h0.6c0.1,0,0.2,0.1,0.2,0.2c0,0,0,0,0,0
	C56.1,14.1,56,14.5,55.7,14.9z M51.2,17L51.2,17c0,0-0.1,0-0.2-0.1s0-0.1,0-0.2s-0.1,0-0.1,0c0,0.1,0,0.1,0,0.2L51.2,17z M51.1,17.9
	c0.2-0.1,0-0.3,0.1-0.4C51,17.6,51,17.7,51.1,17.9L51.1,17.9z M51.3,17.3L51.3,17.3c-0.1,0-0.1,0-0.2,0c0,0-0.1,0.1-0.1,0.1
	s0.1,0.1,0.1,0.1v-0.1L51.3,17.3z M51.2,16.4L51,16.3C51.1,16.5,51.1,16.5,51.2,16.4L51.2,16.4z"/>
<path d="M29.1,18c0-0.1,0-0.2,0-0.3c0-0.4,0-0.9,0-1.3c0-0.1,0-0.2-0.1-0.2c-0.1-0.2-0.2-0.2-0.4-0.1c-0.2,0.1-0.2,0.2-0.3,0.3
	c-0.3,0.2-0.6,0.5-0.9,0.6c-0.2,0.1-0.4,0.2-0.6,0.2c-0.1,0-0.1,0-0.2-0.1c-0.1-0.1-0.1-0.2-0.2-0.3c-0.1-0.2-0.2-0.3-0.3-0.5
	c-0.1-0.1-0.1-0.1-0.1-0.2c0-0.3-0.2-0.4-0.3-0.6h0c0,0,0,0.1,0,0.1c0,0.2,0,0.4-0.1,0.5c-0.1,0.2-0.1,0.4,0,0.6c0,0.3,0,0.6,0,0.8
	c0,0.1,0,0.2,0,0.3c0,0.1,0,0.2-0.1,0.2c0,0,0,0,0,0c-0.3,0.1-0.7,0.1-1,0.1c-0.2,0-0.2-0.1-0.2-0.2s0-0.5,0-0.8c0-0.3,0-0.5,0-0.8
	c0-0.3-0.1-0.5-0.1-0.8c0-0.6,0-1.1-0.1-1.6v-0.2h0.2l1.3-0.1c0.2,0,0.3,0.1,0.4,0.2c0.1,0.2,0.3,0.3,0.3,0.6c0,0,0.1,0.1,0.1,0.1
	s0.1,0.1,0.1,0.1c0.1,0.2,0.2,0.4,0.4,0.6c0,0.1,0.1,0.1,0.1,0.1c0.1,0,0.1,0,0.1-0.1c-0.1,0-0.1-0.1-0.2-0.1
	c-0.1-0.1-0.1-0.1-0.2-0.2c0-0.1,0-0.2,0-0.2c0,0,0,0,0,0c0.1,0,0.2,0,0.2,0.1c0,0.1,0.1,0.1,0.1,0.2c0,0.1,0,0.1,0.1,0.2
	c0.1,0,0.1-0.1,0.2-0.2c0.1-0.1,0.1-0.2,0.2-0.2c0.3-0.2,0.6-0.4,0.8-0.6c0.1-0.2,0.3-0.4,0.4-0.5l2-0.1c0,0.2,0,0.3,0,0.5l-0.1,0.9
	c0,0.1,0,0.2-0.1,0.3c-0.1,0.4-0.1,0.7-0.1,1.1c-0.1,0.5-0.1,1-0.1,1.5v0.2c0,0.2-0.1,0.2-0.3,0.2L29.1,18L29.1,18z M24.8,15.6
	c-0.1,0.1-0.2,0.1-0.2,0.2h0.3L24.8,15.6z M24.7,16.3c0.1-0.1,0.1-0.2,0-0.3C24.6,16.1,24.6,16.2,24.7,16.3L24.7,16.3z M25,16.4
	L25,16.4l-0.2,0.1C24.9,16.5,24.9,16.5,25,16.4L25,16.4z M29.6,14.7L29.6,14.7l-0.2-0.1v0.1L29.6,14.7z M29.7,14.2L29.7,14.2
	c-0.1-0.1-0.1-0.1-0.2-0.1L29.7,14.2z M24.7,15.5L24.7,15.5l0.1-0.1l0,0L24.7,15.5z M26,15c0.1,0.1,0.1,0.1,0.1,0.1l0.1-0.1
	c0,0,0-0.1-0.1-0.1S26.1,15,26,15L26,15z"/>
<path d="M46.5,14.8c-0.1,0.1-0.1,0.2-0.3,0.1s-0.1,0-0.1,0l-0.3,0.2c-0.1,0.1-0.2,0.2-0.2,0.3c0,0.2,0,0.5,0,0.7
	c0,0.2,0.1,0.4,0.3,0.5c0.3,0.3,0.7,0.4,1.1,0.3c0.3-0.1,0.5-0.2,0.7-0.4c0.1-0.2,0.4-0.3,0.6-0.1c0.2,0.1,0.4,0.1,0.6,0.1
	c0.1,0,0.1,0,0.2,0c0.2,0.1,0.4,0.3,0.6,0.4c0.1,0,0.1,0.1,0.1,0.2c0,0,0,0,0,0c-0.1,0.2-0.1,0.3-0.3,0.4s-0.1,0.1-0.1,0.2
	c-0.1,0.3-0.2,0.3-0.5,0.3h-0.1c-0.2,0-0.3,0.1-0.5,0.2c-0.1,0-0.1,0.1-0.2,0.1c-0.1,0.2-0.1,0.2-0.2,0l0,0c-0.1,0-0.2,0.1-0.2,0.2
	h-0.1c-0.6,0-1.2,0-1.7-0.1c-0.1,0-0.2-0.1-0.3-0.1c-0.2-0.2-0.3-0.3-0.5-0.4c-0.3-0.2-0.6-0.4-0.8-0.7L44.1,17
	c-0.1-0.3-0.2-0.5-0.3-0.8c0,0,0,0,0-0.1c-0.3-0.4-0.3-0.9-0.1-1.4c0.1-0.2,0.1-0.4,0.2-0.6s0.3-0.4,0.6-0.4c0.2,0,0.3,0,0.5-0.1
	c0.6-0.1,1.1-0.3,1.7-0.5c0.3-0.1,0.6-0.1,0.8-0.1c0.2,0,0.4,0,0.6,0.1c0.4,0.1,0.7,0.2,1.1,0.3c0.2,0.1,0.4,0.2,0.5,0.3
	c0.1,0.2,0.2,0.4,0.1,0.5c0,0,0,0.1-0.1,0.1c-0.2,0.1-0.4,0.2-0.6,0.3c-0.1,0-0.2,0.1-0.3,0.2c-0.1,0.2-0.3,0.3-0.5,0.4
	s-0.2,0-0.2,0l-0.4-0.3C47.7,15,47.6,15,47.5,15l-0.8-0.2L46.5,14.8z M45.1,17.7l-0.2-0.2c-0.1-0.1-0.1-0.1-0.2,0L45.1,17.7
	L45.1,17.7z M44.1,15.4c-0.1,0-0.1,0.1-0.2,0.1c0,0,0,0.1,0.1,0.1S44.2,15.5,44.1,15.4z M44.6,16.6l-0.3-0.1l0.1,0.2
	C44.5,16.8,44.6,16.8,44.6,16.6C44.6,16.6,44.6,16.6,44.6,16.6z M44.3,16c0.2,0,0.2,0,0.3-0.1C44.4,15.9,44.4,15.9,44.3,16z
	 M45.3,17.7c0.1,0.2,0.1,0.2,0.2,0.1L45.3,17.7z M44.2,15.1c0.1-0.2,0.1-0.2,0-0.2V15.1z M44.3,15.8L44.3,15.8l-0.2-0.1
	c0,0,0,0,0,0.1L44.3,15.8z M45.3,13.9L45.3,13.9l-0.1-0.1l0,0L45.3,13.9z M45.7,13.8C45.7,13.8,45.6,13.9,45.7,13.8
	c-0.1,0.1-0.1,0.1,0,0.2S45.7,14,45.7,13.8C45.7,13.8,45.7,13.9,45.7,13.8L45.7,13.8z M44.7,17.1L44.7,17.1v0.2l0,0V17.1z M45.8,18
	L45.8,18H46C46,18,46,18,45.8,18C45.8,18,45.8,18,45.8,18L45.8,18z"/>
<path d="M67.8,16.2c0,0.1,0,0.2,0,0.3s0,0.3,0.2,0.4c0,0,0.1,0,0.1,0.1c0.1,0.1,0.1,0.1,0.2,0c0.1,0,0.1-0.1,0.2-0.1l1.8-0.2
	c0.1,0,0.2,0,0.3,0c0.3,0,0.5,0,0.8-0.1l0.3,0c0,0.1,0,0.2,0,0.4c0,0.2,0,0.4,0,0.6c0,0.1,0,0.3-0.2,0.4c-0.1,0.1-0.3,0.2-0.5,0.2
	l-0.5,0c-0.2,0-0.3,0-0.5,0h-0.5l-1.1,0l-1.5,0.1c-0.2,0-0.3,0.1-0.5,0c0.1-0.3,0.1-0.7,0-1c0-0.4-0.1-0.8-0.2-1.2s-0.1-0.7-0.1-1
	c0-0.1,0-0.2-0.1-0.3c-0.1-0.3-0.2-0.6-0.2-0.9c0-0.1,0-0.2,0-0.3c0-0.2,0-0.2,0.2-0.3c0.2-0.1,0.4-0.1,0.6-0.1
	c0.8,0,1.6-0.1,2.4-0.1c0.4,0,0.8,0,1.3,0h1c0,0.1,0.1,0.2,0.1,0.4c0,0.2,0.1,0.4,0.1,0.6c0,0.2-0.1,0.3-0.3,0.3c-0.2,0-0.3,0-0.5,0
	l-0.4-0.1l-0.7-0.1l-0.9-0.1c-0.4,0-0.8,0.1-1.2,0.1c0,0.1,0.1,0.3,0.1,0.4c0,0.1,0.2,0.2,0.3,0.2l1.5,0h1.5c0.1,0,0.2,0,0.4,0.1
	c0,0.4,0,0.7,0,1.1c-0.1,0.1-0.1,0.1-0.2,0.2c-0.1,0.1-0.3,0.1-0.4,0c-0.2-0.2-0.5-0.2-0.8-0.2c-0.4,0-0.8,0.1-1.2,0.1
	c-0.1,0-0.3,0-0.4,0C68.1,16.2,68,16.2,67.8,16.2z M70.6,17.2c-0.1-0.1-0.2,0-0.3,0v0.1L70.6,17.2c0.1,0.1,0.1,0.2,0.2,0.1
	S70.7,17.2,70.6,17.2L70.6,17.2z M70.9,17.4c0.1,0.1,0.2,0.2,0.3,0C71.1,17.5,71,17.5,70.9,17.4L70.9,17.4z M70,17.3L70,17.3
	C70,17.3,70,17.3,70,17.3c0.1,0,0.1,0,0.2,0l0,0H70z M70.3,17.5L70.3,17.5L70.3,17.5L70.3,17.5L70.3,17.5z M70.7,17.7L70.7,17.7
	C70.8,17.7,70.8,17.7,70.7,17.7L70.7,17.7L70.7,17.7z"/>
<path d="M28.6,26c0-0.1,0-0.2,0.1-0.3s0-0.1,0.1-0.1c0.1-0.1,0.2-0.3,0.2-0.4c0.1-0.2,0.2-0.2,0.4-0.2c0.4,0.1,0.8,0.2,1.2,0.3
	c0.4,0.1,0.9,0.1,1.3,0c0.1,0,0.2-0.1,0.2-0.1S32,25,31.9,25s-0.4-0.1-0.6-0.1c-0.4-0.1-0.8-0.2-1.1-0.4c-0.3-0.1-0.6-0.2-0.9-0.4
	c-0.3-0.1-0.4-0.4-0.4-0.6c0-0.1,0.1-0.1,0.1-0.2c0.1-0.2,0.2-0.4,0.2-0.6c0-0.1,0.1-0.2,0.1-0.3c0.1-0.1,0.2-0.2,0.2-0.3
	c0.1-0.2,0.4-0.4,0.7-0.4c0.5-0.1,0.9-0.1,1.4,0l1.2,0.1c0.2,0,0.3,0,0.5,0.1l0.9,0.2h0.1c0.1,0,0.2,0.1,0.2,0.2
	c0,0.1-0.1,0.2-0.2,0.2c-0.1,0.1-0.2,0.2-0.4,0.3l-1-0.1c-0.1,0-0.2,0-0.3,0c-0.3,0-0.6,0.1-0.9,0c-0.2,0-0.5,0.1-0.7,0.2
	C31,22.9,30.9,23,31,23c0,0.1,0.1,0.1,0.2,0.2c0.2,0,0.4,0.1,0.5,0.1h0.1c0.2,0,0.4,0.1,0.4,0.2c0,0,0.1,0.1,0.1,0.1l0.1-0.1
	c0.2-0.3,0.5-0.4,0.7-0.2c0.2,0.1,0.3,0.2,0.5,0.3c0.2,0.2,0.5,0.4,0.7,0.5c0.2,0.1,0.3,0.3,0.3,0.5c0,0.5-0.1,0.9-0.5,1.2
	c-0.2,0.2-0.4,0.3-0.6,0.4c-0.1,0.1-0.3,0.1-0.4,0.2c-0.3,0.1-0.6,0.2-0.9,0.2c-0.4,0.1-0.8,0.1-1.1,0.1c-0.1,0-0.2,0-0.3,0
	c-0.3,0-0.6-0.1-0.8-0.3c-0.1,0-0.2-0.1-0.2-0.1l-0.7-0.1C28.9,26.2,28.8,26.1,28.6,26z"/>
<path d="M39.2,15.8c0,0.1-0.1,0.2-0.1,0.3c-0.1,0.4-0.1,0.9-0.2,1.3c0,0.1-0.1,0.3-0.2,0.4C38.7,18,38.6,18,38.5,18L38,17.9
	l-0.7-0.1c0,0,0-0.1,0-0.1c0-0.1,0-0.2,0-0.2c0-0.7,0-1.3,0-2c0-0.3,0-0.6,0-0.9c0-0.2,0-0.4,0-0.5c0-0.2-0.1-0.4-0.1-0.6l0,0l0,0
	H39c0.1,0.2,0.2,0.3,0.4,0.4c0.2,0.1,0.4,0.3,0.6,0.5s0.2,0.1,0.2,0.1c0.2,0.1,0.3,0.2,0.3,0.4c0,0.2,0.2,0.4,0.4,0.4
	c0.1,0,0.2,0.1,0.2,0.2s0.1,0.1,0.1,0.1c0.1,0,0.2-0.1,0.2-0.2c0-0.1,0-0.3,0-0.4s0-0.2,0-0.3s0-0.3-0.1-0.4s0-0.1,0-0.2
	c0-0.1,0-0.1,0-0.2c0-0.2,0.1-0.4,0.2-0.5h1.2c0.1,0,0.2,0,0.3-0.1h0.1h0.8c0,0,0.1,0,0.1,0c0,0.1,0,0.2-0.1,0.2
	c-0.2,0.1-0.3,0.2-0.4,0.3c-0.1,0.1-0.1,0.1-0.3,0.1L43,14c-0.1,0.1-0.1,0.2-0.1,0.4c0,0.2-0.1,0.5-0.1,0.8c0,0.1,0,0.2,0,0.4
	c0.1,0.4,0.1,0.8,0.1,1.2c0,0.4,0,0.9,0,1.3c0,0-0.1,0.1-0.2,0.1c-0.2,0-0.5,0-0.7,0c-0.1,0-0.2,0-0.3-0.1c-0.1-0.2-0.3-0.4-0.5-0.5
	c-0.2-0.2-0.4-0.3-0.5-0.5c-0.2-0.2-0.4-0.5-0.6-0.7c-0.1-0.1-0.2-0.2-0.4-0.2C39.5,15.9,39.3,15.9,39.2,15.8z M40.4,16.2L40.4,16.2
	l0.3,0.2l-0.1,0.1h0.2c0-0.2-0.1-0.2-0.2-0.3s0.1-0.2-0.1-0.3C40.5,16.1,40.6,16.3,40.4,16.2z M40.4,16.2c0-0.2,0-0.3-0.1-0.4
	c0,0.1-0.1,0.1-0.1,0.2C40.2,16,40.3,16.1,40.4,16.2L40.4,16.2z M39.6,15.4L39.6,15.4l0.3,0.1v-0.1L39.6,15.4z M41.6,17.3
	c0,0.1,0,0.2,0.2,0.1s0,0,0-0.1L41.6,17.3z M38.1,16.9L38,16.8C37.9,16.9,37.9,16.9,38.1,16.9z M39.9,15.7c0.1,0.1,0.1,0.1,0.2,0.1
	C40.1,15.7,40.1,15.7,39.9,15.7z M42.2,16.4L42.2,16.4C42.1,16.4,42.1,16.4,42.2,16.4C42.1,16.5,42.1,16.4,42.2,16.4L42.2,16.4z
	 M42.3,16.8L42.3,16.8l0.1,0l0,0L42.3,16.8z M40.8,15.7L40.8,15.7L40.8,15.7L40.8,15.7C40.8,15.7,40.8,15.7,40.8,15.7z M38.3,13.5
	L38.3,13.5L38.3,13.5L38.3,13.5C38.2,13.5,38.2,13.6,38.3,13.5z"/>
<path d="M34.8,14.7c-0.5,0-1,0-1.5-0.1c-0.2,0-0.3,0-0.3,0.2c0,0.2,0.1,0.4,0.3,0.4c0,0,0,0,0,0c0.1,0,0.3,0,0.4,0h1.3h0.9
	c0.3,0,0.4,0.2,0.3,0.5c0,0.1-0.1,0.3-0.2,0.4c-0.1,0.1-0.1,0.1-0.2,0.1c-0.2,0.1-0.5,0.1-0.7,0h-1.4h-0.1c-0.1,0-0.2,0.1-0.2,0.2
	c0,0.1,0.1,0.2,0.2,0.3c0.1,0,0.2,0,0.2,0c0.6,0,1.3-0.1,1.9-0.2c0.2,0,0.4-0.1,0.6-0.1c0.2,0,0.2,0,0.2,0.2c0,0.1,0,0.3-0.1,0.4
	c-0.1,0.1-0.1,0.2,0,0.2c0.1,0.1,0.1,0.2,0.1,0.3c0,0.1,0,0.2,0,0.4s-0.1,0.3-0.3,0.3c-0.3,0-0.5-0.1-0.8-0.1
	c-0.5-0.1-0.9-0.2-1.4-0.2c-0.6,0-1.2-0.1-1.7-0.2c-0.1,0-0.3,0-0.4,0c-0.2,0-0.2,0-0.3-0.2c-0.1-0.5-0.1-0.9-0.1-1.4
	c0-0.1,0-0.2,0.1-0.3s0-0.1,0-0.1c-0.1-0.4-0.1-0.8-0.1-1.2c0-0.1,0-0.3,0.1-0.4c0.1-0.1,0.1-0.2,0-0.3c-0.1-0.1-0.1-0.2-0.1-0.3
	c0-0.1,0-0.2,0-0.2c0-0.1,0.1-0.1,0.1-0.1c0,0,0,0,0,0h0.5l1.4,0.1c0.2,0,0.5,0,0.7,0c0.7,0,1.3,0,2,0.1c0.4,0,0.5,0.2,0.4,0.5
	c0,0.1,0,0.2,0,0.2c0,0.2,0,0.2-0.2,0.2L34.8,14.7L34.8,14.7z M32.2,15l0.1,0.4h0.2C32.2,15.3,32.4,15,32.2,15z M32.1,14.2
	c0-0.1-0.1-0.2-0.2-0.3C31.9,14.1,31.9,14.1,32.1,14.2L32.1,14.2z M32.2,15.8l0.2-0.1C32.3,15.6,32.2,15.6,32.2,15.8L32.2,15.8z
	 M32.4,16.5L32.4,16.5h-0.1l0,0H32.4z"/>
<path d="M18.8,13.6c0.2,0,0.2,0,0.4,0.1c0.1,0,0.2,0,0.3,0c0.2-0.1,0.5-0.1,0.7-0.1c0.5,0,0.9,0,1.4,0h2.1h0.1c0,0.1,0,0.1-0.1,0.1
	c-0.2,0.1-0.2,0.4-0.2,0.6c0,0.2-0.1,0.3-0.3,0.3c-0.3,0-0.7,0-1,0c-0.4,0-0.8,0-1.2,0l-0.7,0.1h-0.2c0,0.4,0,0.4,0.4,0.4
	s0.7-0.1,1-0.1s0.8,0,1.2,0c0.1,0,0.1,0,0.2,0c0,0.2,0,0.4,0,0.6c0,0.2,0,0.4,0,0.6c0,0.1,0,0.2-0.2,0.2c-0.1,0-0.1,0-0.2,0
	c-0.1,0-0.1,0-0.2,0c-0.4,0-0.7,0-1.1,0.1s-0.6,0-1,0h-0.3l0.1,0.4h0.5l1.8-0.1h0.9c0.2,0,0.2,0,0.2,0.2c0,0.3,0,0.6,0,0.9
	c0,0.2,0,0.3-0.3,0.3c-0.7,0-1.3,0-2,0c-0.4,0-0.9,0-1.3,0s-0.7,0-1.1,0c0-0.7-0.1-1.4-0.1-2.1c0.2,0,0.3-0.1,0.3-0.3
	c0-0.1,0-0.2-0.1-0.2c-0.1,0-0.2-0.2-0.2-0.4c0,0,0,0,0,0c0-0.3,0.1-0.6,0.1-0.9c0-0.1,0-0.1,0-0.2C18.8,13.9,18.8,13.7,18.8,13.6z
	 M19.1,14.7c-0.1-0.1-0.2,0-0.2,0.1s0,0.1,0.1,0.2L19.1,14.7z M19.3,15.2L19.3,15.2l-0.2-0.1l0,0L19.3,15.2z M19.4,14.9L19.4,14.9
	h0.2l0,0H19.4z"/>
<path d="M13.1,16.6c0.1,0,0.2,0.1,0.3,0.2c0.1,0.1,0.2,0.1,0.3,0.2c0.1,0.1,0.3,0.2,0.4,0.1c0.3,0,0.7,0,1,0c0.3,0,0.6,0,0.8,0
	c0.1,0,0.2,0,0.2-0.1c0-0.1,0-0.1,0.1-0.2c0.1-0.1,0.1-0.3,0.1-0.4l-0.2,0.1c-0.2,0.1-0.4,0.1-0.6-0.1c-0.1-0.1-0.2-0.1-0.3-0.1
	c-0.1,0-0.3,0-0.3,0.2c0,0,0,0-0.1,0c-0.3,0.1-0.7,0.1-1,0h-0.1L13.2,16c-0.1,0-0.1-0.1-0.1-0.2c-0.1-0.2-0.1-0.5-0.1-0.7
	c0-0.2,0.1-0.3,0.1-0.5c0.1-0.2,0.1-0.3,0.2-0.5c0-0.1,0.1-0.1,0.2-0.1l0.8-0.3c0.4-0.1,0.9-0.2,1.3-0.2c0.3,0,0.5-0.1,0.8-0.1
	c0.3,0,0.7,0,0.9,0.2c0.1,0.1,0.3,0.2,0.4,0.4c0.1,0.2,0,0.5-0.2,0.6c0,0-0.1,0-0.2,0.1c-0.2,0-0.4,0-0.6-0.1
	c-0.2,0-0.3-0.1-0.5-0.1c-0.2,0-0.3-0.1-0.4-0.3c-0.1,0.2-0.3,0.2-0.5,0.2c-0.2,0-0.4,0-0.5,0h-0.3c0,0.1,0,0.2-0.2,0.3
	s0,0.1,0.1,0.2c0.3,0.2,0.6,0.3,1,0.2c0.1,0,0.3,0,0.4,0c0.1,0,0.2,0.1,0.3,0.1c0.1,0,0.3,0,0.4,0c0.2,0,0.3,0,0.5,0
	c0.1,0,0.2,0,0.3,0.1c0.4,0.2,0.6,0.7,0.5,1.2c0,0.2,0,0.4,0,0.6c0,0.3-0.1,0.6-0.3,0.7l-0.1,0.1c-0.2,0.2-0.4,0.3-0.6,0.3
	c-0.5,0-1,0-1.5,0c-0.1,0-0.1,0-0.2,0s-0.3,0-0.4,0c-0.2,0-0.3,0-0.5,0c0,0-0.1,0-0.1,0c-0.1,0.1-0.2,0.1-0.4,0
	c-0.3-0.2-0.6-0.3-0.8-0.5c-0.1-0.1-0.2-0.3-0.2-0.4C12.8,17,13,16.8,13.1,16.6z M15.4,13.6L15.4,13.6L15,13.7l0,0L15.4,13.6z"/>
<path d="M24.4,26.4h-0.2c-0.2,0-0.5,0-0.7,0c-0.2,0-0.3,0-0.5,0.1c-0.2,0.1-0.4,0-0.5-0.1c0,0,0,0,0,0c-0.2-0.2-0.4-0.5-0.7-0.6
	c-0.1-0.1-0.2-0.1-0.3-0.1c-0.3-0.1-0.7-0.1-1,0c-0.1,0-0.2,0-0.3,0c-0.3,0-0.4,0.1-0.4,0.4c0,0.2-0.1,0.4-0.2,0.5
	c-0.1,0.1-0.3,0.1-0.4,0c0,0,0,0,0,0c-0.2-0.2-0.4-0.3-0.7-0.3c-0.2,0-0.3,0-0.5,0h-0.2l0.2-0.5c0-0.1,0.1-0.1,0.1-0.2
	c0-0.2,0.1-0.3,0.3-0.4c0.3-0.3,0.6-0.6,0.8-1l0.7-1.3l0.4-0.8c0.2-0.3,0.2-0.3,0.6-0.3h0.8c0.2,0,0.3,0,0.4,0.3
	c0.1,0.4,0.3,0.8,0.6,1.2c0.1,0.2,0.2,0.5,0.4,0.7c0,0,0,0.1,0,0.1c0.2,0.4,0.4,0.8,0.6,1.2c0.1,0.2,0.1,0.3,0.4,0.3l0,0
	C24.2,25.8,24.4,26,24.4,26.4z M20.8,24c0.1,0,0.1,0,0.2,0c0.1,0,0.1,0,0.2-0.1c0.1-0.1,0.1-0.3-0.1-0.4c-0.1-0.1-0.1-0.1-0.2-0.1
	c-0.1,0.1-0.1,0.2-0.1,0.3C20.8,23.8,20.8,23.9,20.8,24z"/>
<path d="M17.2,21.9l-0.1-0.2c0.4,0,0.7,0.1,0.9,0.4c0.2,0.2,0.3,0.5,0.2,0.7c0,0.1,0,0.2,0,0.3c0.1,0.4-0.2,0.9-0.6,1
	c-0.1,0-0.1,0-0.1,0.1c-0.4,0.3-0.9,0.5-1.5,0.5l-1.1,0.1c0.1,0.3,0.1,0.3-0.2,0.4c0.1,0.3,0,0.5,0.1,0.8l0.2,0c0,0-0.1,0.1-0.1,0.1
	c-0.4,0-0.8,0-1.2-0.1c-0.2,0-0.4,0-0.6,0h-0.2c0-0.3,0.1-0.6,0.2-0.9c0.1-0.2,0.1-0.4,0-0.5c0-0.4,0-0.9,0-1.3c0-0.1,0-0.2,0-0.3
	c0-0.3,0-0.6,0-0.9c0-0.2,0-0.4,0.1-0.5h0.8c0.3,0,0.6,0,1,0c0.5,0,1.1,0.1,1.6,0.2C16.8,21.9,17,21.9,17.2,21.9z M14.7,22.8
	c-0.2,0.2-0.2,0.4-0.1,0.7c0,0.2,0.1,0.3,0.3,0.2c0.1,0,0.3,0,0.4,0c0.3-0.1,0.6-0.1,0.9-0.1c0.2,0,0.2,0,0.3-0.2s0-0.3-0.2-0.3
	c-0.2-0.1-0.4-0.1-0.6,0c-0.1,0.1-0.2,0.1-0.3,0c0,0,0-0.1,0-0.1c0-0.1-0.1-0.2-0.2-0.1C14.9,22.8,14.8,22.8,14.7,22.8z"/>
<path d="M27.6,26.6c-0.5,0.1-0.9,0.1-1.4,0c-0.3-0.1-0.6-0.1-0.9-0.2l-0.2-0.1c0-0.1,0.1-0.2,0.2-0.2c0.2-0.1,0.2-0.3,0.2-0.4
	L25.2,25c0-0.1,0-0.1,0-0.2c0-0.2,0-0.3-0.1-0.4c-0.1-0.1-0.1-0.2-0.2-0.2c-0.2-0.1-0.2-0.4-0.3-0.5L24.1,23
	c-0.1-0.1-0.2-0.2-0.3-0.4s-0.3-0.3-0.4-0.4c-0.1-0.1-0.2-0.3-0.3-0.4c0,0,0.1-0.1,0.2-0.1c0.2,0,0.5-0.1,0.7-0.1s0.5,0,0.8,0
	s0.3,0.1,0.4,0.3c0.1,0.1,0.1,0.3,0.2,0.4c0.1,0.2,0.2,0.4,0.3,0.5c0.1,0.1,0.2,0.2,0.3,0.1c0,0,0,0,0.1,0c0.1-0.1,0.3-0.1,0.3-0.3
	c0-0.1,0.1-0.2,0.1-0.3c0.1-0.1,0.2-0.2,0.2-0.3c0-0.1,0.1-0.2,0.1-0.3c0-0.1,0.1-0.1,0.2-0.1c0.3-0.1,0.5,0,0.8,0.1
	c0.2,0.2,0.5,0.3,0.8,0.3c0.1,0,0.2,0.1,0.1,0.2c-0.2,0.3-0.4,0.6-0.6,1c-0.3,0.5-0.6,0.9-0.9,1.4C27.1,24.7,27,24.9,27,25
	c0,0.2-0.1,0.4-0.1,0.6c-0.1,0.2,0,0.3,0.1,0.4C27.2,26.2,27.4,26.4,27.6,26.6z"/>
<path class="st4" d="M59,16.3c-0.2-0.1-0.2-0.3-0.2-0.5s0.1-0.2,0.2-0.1s0.1,0,0.2,0.1c0,0.1,0.1,0.2,0.1,0.3c0,0,0.1,0.1,0.1,0.1
	l0.2,0.1h-0.3v0.1c-0.1,0-0.1,0.1-0.2,0.1c-0.1,0-0.1,0.1-0.2,0S58.9,16.4,59,16.3z M59.1,16.1C59.1,16.1,59.1,16.1,59.1,16.1
	C59.1,16.2,59.1,16.2,59.1,16.1L59.1,16.1L59.1,16.1z M58.9,16L58.9,16L58.9,16L58.9,16C58.9,16.1,58.9,16,58.9,16z"/>
<path class="st4" d="M59.2,15.4v0.3l-0.3-0.1c0-0.2,0-0.4-0.1-0.5s0.1-0.3,0.2-0.5c0,0,0,0.1,0,0.1s0,0.3,0.1,0.4
	S59.3,15.3,59.2,15.4c-0.2-0.1-0.2,0-0.2,0.1C59.1,15.5,59.2,15.4,59.2,15.4z"/>
<path class="st4" d="M62,14.1c-0.1-0.1-0.4-0.1-0.3-0.3C61.8,13.8,61.9,13.9,62,14.1z"/>
<path class="st4" d="M62.4,13.9c-0.1,0.1-0.1,0.1-0.2,0.2c0,0-0.1-0.1-0.1-0.1C62.2,13.8,62.2,13.8,62.4,13.9z"/>
<path class="st4" d="M61.3,14l-0.2-0.2C61.3,13.8,61.3,13.8,61.3,14z"/>
<path class="st4" d="M59.3,16.7c-0.1,0.1-0.2,0-0.2-0.1S59.2,16.6,59.3,16.7z"/>
<path class="st4" d="M59.3,15.8L59.3,15.8L59.3,15.8L59.3,15.8L59.3,15.8z"/>
<path class="st4" d="M51.2,17h-0.3c0-0.1,0-0.1,0-0.2c0,0,0.1,0,0.1,0s0,0.1,0,0.2S51.1,17,51.2,17L51.2,17z"/>
<path class="st4" d="M51.1,17.9c-0.1-0.2,0-0.3,0.1-0.4C51.1,17.6,51.2,17.8,51.1,17.9z"/>
<path class="st4" d="M51.3,17.2h-0.2v0.1c-0.1,0-0.1-0.1-0.1-0.1s0-0.1,0.1-0.1C51.2,17.2,51.2,17.2,51.3,17.2L51.3,17.2z"/>
<path class="st4" d="M51.2,16.4c-0.2,0.1-0.2,0.1-0.2-0.1L51.2,16.4z"/>
<path class="st4" d="M24.8,15.6l0.1,0.2h-0.3C24.6,15.7,24.7,15.7,24.8,15.6z"/>
<path class="st4" d="M24.7,16.3c0-0.1-0.1-0.2,0-0.3C24.8,16.2,24.8,16.2,24.7,16.3z"/>
<path class="st4" d="M25,16.4c-0.1,0-0.1,0.1-0.3,0l0.2-0.1L25,16.4z"/>
<path class="st4" d="M29.6,14.7h-0.2v-0.1L29.6,14.7L29.6,14.7z"/>
<path class="st4" d="M29.7,14.2h-0.2C29.6,14.1,29.6,14.2,29.7,14.2L29.7,14.2z"/>
<path class="st4" d="M24.7,15.5l0.1-0.1l0,0L24.7,15.5L24.7,15.5z"/>
<path class="st4" d="M26,15.1c0,0,0.1,0,0.1,0s0,0,0.1,0.1l-0.1,0.1C26.1,15.2,26.1,15.1,26,15.1z"/>
<path class="st4" d="M45.1,17.7L45.1,17.7l-0.4-0.2c0.1-0.1,0.2-0.1,0.2,0L45.1,17.7z"/>
<path class="st4" d="M44.1,15.4c0.1,0.1,0.1,0.2-0.1,0.3s-0.1-0.1-0.1-0.1C44,15.5,44.1,15.4,44.1,15.4z"/>
<path class="st4" d="M44.6,16.6c0,0.1-0.1,0.2-0.2,0.1l-0.1-0.2L44.6,16.6z"/>
<path class="st4" d="M44.3,16c0.2-0.1,0.2-0.1,0.3-0.1C44.5,16,44.5,16,44.3,16z"/>
<path class="st4" d="M45.3,17.7l0.2,0.1C45.3,17.9,45.3,17.9,45.3,17.7z"/>
<path class="st4" d="M44.2,15.1v-0.2C44.3,15,44.3,15,44.2,15.1z"/>
<path class="st4" d="M44.3,15.8h-0.2v-0.1L44.3,15.8L44.3,15.8z"/>
<path class="st4" d="M45.3,13.9l-0.1-0.1l0,0L45.3,13.9L45.3,13.9z"/>
<path class="st4" d="M45.7,13.8C45.7,13.9,45.7,13.9,45.7,13.8c0,0.1,0,0.1,0,0.2S45.6,14,45.7,13.8C45.6,13.9,45.6,13.9,45.7,13.8z
	"/>
<path class="st4" d="M44.6,17.1v0.2l0,0V17.1L44.6,17.1z"/>
<path class="st4" d="M45.8,18C45.8,18,45.8,18,45.8,18c0.1,0,0.1,0,0.1,0.1L45.8,18L45.8,18z"/>
<path class="st4" d="M70.9,17.4c0.1,0.1,0.2,0.1,0.3,0C71.1,17.6,71,17.6,70.9,17.4z"/>
<path class="st4" d="M70.6,17.2h-0.3v-0.1C70.4,17.2,70.5,17.1,70.6,17.2L70.6,17.2z"/>
<path class="st4" d="M70,17.4h0.1l0,0C70.1,17.4,70,17.4,70,17.4C70,17.4,70,17.4,70,17.4L70,17.4z"/>
<path class="st4" d="M70.6,17.2c0.1,0,0.2,0,0.2,0.1S70.7,17.3,70.6,17.2z"/>
<path class="st4" d="M70.3,17.5L70.3,17.5L70.3,17.5L70.3,17.5L70.3,17.5z"/>
<path class="st4" d="M70.7,17.7L70.7,17.7L70.7,17.7L70.7,17.7L70.7,17.7z"/>
<path class="st4" d="M40.4,16.2c0.2,0,0.1-0.2,0.2-0.3c0.1,0.1,0,0.2,0.1,0.3s0.2,0.1,0.2,0.3h-0.2l0.1-0.1L40.4,16.2L40.4,16.2z"/>
<path class="st4" d="M40.4,16.2L40.4,16.2c-0.1-0.1-0.2-0.1-0.2-0.2c0-0.1,0.1-0.2,0.1-0.2C40.4,15.9,40.4,16,40.4,16.2z"/>
<path class="st4" d="M39.6,15.4h0.3v0.1L39.6,15.4L39.6,15.4z"/>
<path class="st4" d="M41.6,17.3l0.2,0.1c0,0,0,0.1,0,0.1S41.7,17.4,41.6,17.3z"/>
<path class="st4" d="M38.1,16.9c-0.1,0-0.2,0-0.1-0.2L38.1,16.9z"/>
<path class="st4" d="M39.9,15.7c0.1,0,0.1,0,0.2,0.1C40,15.8,40,15.8,39.9,15.7z"/>
<path class="st4" d="M42.2,16.4L42.2,16.4C42.2,16.5,42.2,16.5,42.2,16.4C42.2,16.4,42.2,16.4,42.2,16.4L42.2,16.4z"/>
<path class="st4" d="M42.3,16.8h0.1l0,0H42.3L42.3,16.8z"/>
<path class="st4" d="M40.8,15.7C40.8,15.7,40.8,15.7,40.8,15.7L40.8,15.7L40.8,15.7z"/>
<path class="st4" d="M38.3,13.5C38.3,13.5,38.2,13.5,38.3,13.5C38.2,13.5,38.2,13.5,38.3,13.5L38.3,13.5L38.3,13.5z"/>
<path class="st4" d="M32.2,15c0.2,0,0.1,0.3,0.3,0.4h-0.2L32.2,15z"/>
<path class="st4" d="M32.1,14.2c-0.2,0-0.2,0-0.2-0.3C32,14,32.1,14.1,32.1,14.2z"/>
<path class="st4" d="M32.2,15.8c0-0.2,0.1-0.1,0.2-0.1L32.2,15.8z"/>
<path class="st4" d="M32.4,16.4h-0.1l0,0H32.4z"/>
<path class="st4" d="M19.1,14.7L19,15c-0.1,0-0.1-0.1-0.1-0.2S19,14.7,19.1,14.7z"/>
<path class="st4" d="M19.3,15.2l-0.1-0.1l0,0L19.3,15.2L19.3,15.2z"/>
<path class="st4" d="M19.4,14.9h0.2l0,0H19.4L19.4,14.9z"/>
<path class="st4" d="M15.4,13.6L15,13.7l0,0L15.4,13.6z"/>
<path class="st4" d="M20.8,24c0-0.1,0-0.2,0-0.3c0-0.1,0-0.2,0.1-0.3c0.1,0,0.2,0,0.2,0.1c0.1,0.1,0.1,0.3,0.1,0.4
	c0,0.1-0.1,0.1-0.2,0.1C21,24,20.9,24,20.8,24z"/>
<path class="st4" d="M14.7,22.8c0.1,0,0.2,0,0.4,0c0.1,0,0.2,0.1,0.2,0.1c0,0.1,0.2,0.2,0.3,0.2c0,0,0.1,0,0.1,0
	c0.2-0.1,0.4-0.1,0.6,0c0.1,0,0.2,0.2,0.2,0.3s-0.1,0.2-0.3,0.2c-0.3,0-0.6,0-0.9,0.1c-0.1,0-0.3,0-0.4,0c-0.2,0-0.3-0.1-0.3-0.2
	C14.5,23.3,14.5,23,14.7,22.8z"/>
<path d="M59.1,16.1L59.1,16.1L59.1,16.1L59.1,16.1C59.2,16.2,59.1,16.2,59.1,16.1z"/>
<path d="M58.9,16C58.9,16,58.9,16.1,58.9,16L58.9,16L58.9,16L58.9,16z"/>
<path d="M59.2,15.4c-0.1,0.1-0.1,0.1-0.2,0.1C59.1,15.4,59.1,15.3,59.2,15.4L59.2,15.4z"/>
</svg>
