<?xml version="1.0" encoding="utf-8"?>
<!-- Generator: Adobe Illustrator 25.4.1, SVG Export Plug-In . SVG Version: 6.00 Build 0)  -->
<svg version="1.1" id="Calque_1" xmlns="http://www.w3.org/2000/svg" xmlns:xlink="http://www.w3.org/1999/xlink" x="0px" y="0px"
	 viewBox="0 0 203.7 287.9" style="enable-background:new 0 0 203.7 287.9;" xml:space="preserve">
<style type="text/css">
	.st0{fill:none;stroke:#232322;stroke-width:0.74;stroke-miterlimit:10;}
	.st1{enable-background:new    ;}
	.st2{fill:#232322;}
	.st3{fill:#71292D;}
	.st4{fill:#FFFFFF;}
</style>
<rect x="1.9" y="2.3" class="st0" width="200" height="284.1"/>
<g class="st1">
	<path class="st2" d="M153.1,218.9c3.2,0,5.2,3.1,5.2,7.9v15.3h-19.2v-14.2c0-4.8,2-7.9,5-7.9c2.2,0,4.1,1.6,4.2,4.5
		C148.6,221.5,150.2,218.9,153.1,218.9z M146.7,235.5V229c0-1.4-0.4-2.4-1.6-2.4c-1.2,0-1.6,1-1.6,2.4v6.5H146.7z M152.3,225.8
		c-1.2,0-1.7,0.9-1.7,2.4v7.3h3.5v-7.3C154.1,226.7,153.6,225.8,152.3,225.8z"/>
	<path class="st2" d="M158.4,216.4h-20.3v-6.4h20.3V216.4z"/>
	<path class="st2" d="M154.7,196.5c0-2.3-0.5-3.6-1.6-5l3.2-3.1c1.9,2.2,2.7,5.1,2.7,8.5c0,6.7-3.1,10.5-8.3,10.5
		c-5.1,0-8.3-3.8-8.3-10c0-5.5,2.7-9.6,8.1-9.6c0.7,0,1.1,0.1,1.5,0.2v13.3C154,200.8,154.7,199.2,154.7,196.5z M149,201.1l0-7.5
		c-1.5,0.5-2.2,1.7-2.2,3.7C146.7,199.2,147.4,200.6,149,201.1z"/>
	<path class="st2" d="M143.1,166.4h15.2v6.5h-2.2c1.8,1.3,2.8,3.4,2.8,5.9c0,4.3-2.8,6.7-6.7,6.7h-9.1v-6.4h8.7
		c1.5,0,2.5-0.9,2.5-2.6c0-1.4-0.7-2.6-2.2-3.6h-8.9V166.4z"/>
</g>
<g class="st1">
	<path class="st2" d="M154.7,153c0-2.3-0.5-3.6-1.6-5l3.2-3.1c1.9,2.2,2.7,5.1,2.7,8.5c0,6.7-3.1,10.5-8.3,10.5
		c-5.1,0-8.3-3.8-8.3-10c0-5.5,2.7-9.6,8.1-9.6c0.7,0,1.1,0.1,1.5,0.2v13.3C154,157.3,154.7,155.7,154.7,153z M149,157.6l0-7.5
		c-1.5,0.5-2.2,1.7-2.2,3.7C146.7,155.7,147.4,157.1,149,157.6z"/>
</g>
<g class="st1">
	<path class="st2" d="M157.4,128.5c1,1.5,1.6,3.8,1.6,5.7c0,3.8-2.1,6.5-6,6.5h-5.5v2.6h-4.4v-2.6h-3.5v-6.4h3.5v-5.5h4.4v5.5h4.5
		c1.2,0,2-0.9,2-2.3c0-0.8-0.2-1.6-0.6-2.5L157.4,128.5z"/>
</g>
<g class="st1">
	<path class="st2" d="M187.4,218.9c3.2,0,5.2,3.1,5.2,7.9v15.3h-19.2v-14.2c0-4.8,2-7.9,5-7.9c2.2,0,4.1,1.6,4.2,4.5
		C182.9,221.5,184.5,218.9,187.4,218.9z M180.9,235.5V229c0-1.4-0.4-2.4-1.6-2.4c-1.2,0-1.6,1-1.6,2.4v6.5H180.9z M186.5,225.8
		c-1.2,0-1.7,0.9-1.7,2.4v7.3h3.5v-7.3C188.3,226.7,187.8,225.8,186.5,225.8z"/>
	<path class="st2" d="M192.6,216.4h-20.3v-6.4h20.3V216.4z"/>
	<path class="st2" d="M184,188.4h5.7c1.1,0,2-0.2,2.8-0.7v6.5c-0.4,0.3-0.9,0.5-1.3,0.5h-0.1c1.2,1.2,1.9,3.2,1.9,5.7
		c0,3.1-1.3,7.1-5.1,7.1c-3.8,0-5.1-4-5.1-7.1c0-2.5,0.8-4.5,2-5.7h-1c-1.9,0-2.9,1.6-2.9,4.6c0,1.6,0.2,3.5,1.1,5.4l-4,1.3
		c-1-2.2-1.5-5.4-1.5-8C176.8,192,179.4,188.4,184,188.4z M187.9,194.6c-1.2,1-1.5,2.5-1.5,3.8c0,1.3,0.4,2.9,1.6,2.9
		c1.3,0,1.6-1.6,1.6-2.9c0-1.3-0.3-2.8-1.5-3.8H187.9z"/>
	<path class="st2" d="M177.4,166.3h15.2v6.5h-2.2c1.8,1.3,2.8,3.4,2.8,5.9c0,4.3-2.8,6.7-6.7,6.7h-9.1v-6.4h8.7
		c1.5,0,2.5-0.9,2.5-2.6c0-1.4-0.7-2.6-2.2-3.6h-8.9V166.3z"/>
	<path class="st2" d="M188.9,152.8c0-2.3-0.5-3.6-1.6-5l3.2-3.1c1.9,2.2,2.7,5.1,2.7,8.5c0,6.7-3.1,10.5-8.3,10.5
		c-5.1,0-8.3-3.8-8.3-10c0-5.5,2.7-9.6,8.1-9.6c0.7,0,1.1,0.1,1.5,0.2v13.3C188.2,157.1,188.9,155.5,188.9,152.8z M183.2,157.5
		l0-7.5c-1.5,0.5-2.2,1.7-2.2,3.7C181,155.6,181.7,156.9,183.2,157.5z"/>
</g>
<g class="st1">
	<path class="st2" d="M192.6,141.7h-15.2v-6.5h2.5c-2-1.3-2.9-3.4-2.9-6h5.3c0,3.2,1.2,5.3,3.5,6h6.8V141.7z"/>
</g>
<g class="st1">
	<path class="st2" d="M187.9,115.1c0-3-1.8-4-4.5-4h-10v-6.7H184c5.5,0,9.2,3.7,9.2,10.6c0,4.1-1.3,6.9-3.6,8.9l-3.9-4.3
		C187.2,118.3,187.9,117,187.9,115.1z"/>
	<path class="st2" d="M177.4,82.1h15.2v6.5h-2.2c1.8,1.3,2.8,3.4,2.8,5.9c0,4.3-2.8,6.7-6.7,6.7h-9.1v-6.4h8.7
		c1.5,0,2.5-0.9,2.5-2.6c0-1.4-0.7-2.6-2.2-3.6h-8.9V82.1z"/>
	<path class="st2" d="M192.6,78.8h-15.2v-6.5h2.2c-1.8-1.3-2.8-3.4-2.8-5.9c0-4.3,2.8-6.7,6.7-6.7h9.1v6.4h-8.7
		c-1.5,0-2.5,0.9-2.5,2.6c0,1.4,0.7,2.6,2.2,3.6h8.9V78.8z"/>
	<path class="st2" d="M189.6,37c7.1,0,9,5.7,9,10.6c0,2.8-0.7,6.3-1.7,8.3l-4-1.6c0.7-1.2,1.4-3.6,1.4-6c0-3.5-1.5-5-3.5-5h-1.1
		c1.8,1.5,2.5,3.6,2.5,6c0,4.8-2.8,8-7.7,8c-4.9,0-7.7-3.2-7.7-8c0-2.4,0.7-4.5,2.6-6h-2V37H189.6z M185.6,43.4h-2.2
		c-1.5,1.1-2.1,2.5-2.1,4.1c0,2.4,1.3,3.7,3.2,3.7c1.9,0,3.2-1.3,3.2-3.7C187.7,45.9,187.1,44.5,185.6,43.4z"/>
	<path class="st2" d="M188.9,23.6c0-2.3-0.5-3.6-1.6-5l3.2-3.1c1.9,2.2,2.7,5.1,2.7,8.5c0,6.7-3.1,10.5-8.3,10.5
		c-5.1,0-8.3-3.8-8.3-10c0-5.5,2.7-9.6,8.1-9.6c0.7,0,1.1,0.1,1.5,0.2v13.3C188.2,27.8,188.9,26.2,188.9,23.6z M183.2,28.2l0-7.5
		c-1.5,0.5-2.2,1.7-2.2,3.7C181,26.3,181.7,27.7,183.2,28.2z"/>
</g>
<path class="st3" d="M4.3,174.1C4.1,173.7,4,173.4,4,173c0-1.9,0.2-3.8,0.2-5.7c-0.1-2.7-0.3-5.4-0.4-8.1c0.1-0.4,0.2-0.7,0.4-1.1
	l0.5,0.1c-0.4-3.9-0.9-7.8-1.3-11.7c-0.4-1.8,0-3.7,1.1-5.1c0.5-0.6,0.3-1.8,0.4-2.7c0.1-0.4,0.2-0.9,0.3-1.6
	c-0.8-1.2,0.1-3.2,2-3.6s3.9-0.6,5.8-1.1c1.2-0.3,2.3-0.8,3.3-1.4c1.7-1,3.6-1.6,5.6-1.8c0.7-0.2,1.3-0.5,1.9-0.8
	c0.9,1,0.9,1,1.7,0.2l-0.9-0.2l-0.1-0.3l8.1-4.1l1.3,1.1c-2.2,1.9-4.5,3.7-6.6,5.7c-1.3,1.1-2.3,2.5-3.5,3.7c-0.4,0.4-0.8,0.7-1.2,1
	l-8,5.1l0.2,0.6c0.7,0.1,1.4,0,2.1-0.2c0.6-0.2,1.3-0.2,2-0.1c3.2-0.4,5.2-2.6,7.8-3.9c1.6-0.9,3.4-1.5,5-2.4s3.4-2,5.1-3.1
	c1.1-0.7,2.2-1.4,3.3-2c1.1-0.6,2.3-1.4,3.8-2.2c1.1-0.2,2.3-0.4,3.4-0.8c2.6-1.1,5.1-2.4,7.6-3.8c3.4-2.1,6.7-4.4,10.1-6.5
	c2.8-1.7,5.7-3.2,8.5-4.8c0.1,0,0.2-0.1,0.3-0.1c4.1-3.2,9.3-3.7,14.1-4.9c2.3-0.6,5-1.5,7.5,0.1l1.1,0.7c-2.2,2.3-4.4,4.6-6.6,6.8
	c-2.9,3-5.8,6-8.8,9c-1.4,1.6-2.9,3-4.6,4.3c-2.3,1.5-4.7,2.8-7.2,3.9c-4.8,2.1-9.6,4-14.5,5.8c-4.6,1.6-9.2,3-13.9,4.4
	c-3.5,1-7.1,2-10.6,2.9c-1,0.3-2.1,0.1-3.1,0.4c-1.3,0.4-2.5,0.9-3.8,1.4c0.3,0.3,0.4,0.4,0.4,0.4c1.8-0.3,3.7-0.3,5.5,0
	c1.8,0.4,3.8-0.3,5.7-0.6c2.3-0.3,4.6-0.8,6.9-1.1c1.9-0.3,3.9-0.4,5.8-0.7c1.9-0.3,3.7-0.9,5.5-1.5c2.5-0.9,4.9-1.9,7.2-3.2
	c1.9-1.1,3.6-0.2,5.4-0.3s3.8-0.1,5.7-0.1c2.2-0.1,4.4,0,6.5,0.3c2.7,0.6,5.5,0.7,8.2,1.1c2.8,0.4,5.5,1.3,7.9,2.8
	c2.3,1.4,4.8,2.3,7.2,3.5c1,0.7,2.1,1.3,3.2,1.8c1,0.4,2.2,0.4,3,1.2c0.2,0.3,0.6,0.5,0.8,0.8c2.1,2.6,4.2,5.1,6.4,7.6
	c0.6,0.6,1.4,1,2,1.6c0.3,0.3,0.3,1,0.4,1.5l-1.4,0.3c-0.4,0.4-0.8,1-1.4,1.1c-3.7,0.8-7.4,2.1-11.2,1.9c-2-0.1-4.2,0.3-5.8-0.5
	c-2.1-1.1-4.1-0.4-6.1-0.9c-3.9-0.9-7.7-1.9-11.5-2.9c-6.1-1.6-12.1-3.2-18.2-4.8c-3.5-0.9-7-1.6-10.5-2.4c-0.7-0.1-1.3-0.4-2-0.7
	v-0.4c2.9,0,5.7,0.1,8.6,0c2.3-0.1,4.5-0.5,6.8-0.8c1-0.3,2-0.4,3-0.3c1.4,0.4,2.8,0,4.1,0.2c1.7,0.1,3.3,0.4,4.9,0.6
	c3.3,0.3,6.7,0.5,10.1,0.9s6.7,1.1,10,1.6c2.4,0.3,4.7,0.5,7.1,0.4c-0.3-0.2-0.5-0.3-0.8-0.4c-2-0.4-4.1-0.6-6.1-1
	c-3.7-0.8-7.4-1.7-11.2-2.4s-7.7-1.3-11.6-1.7c-4.4-0.4-8.9-0.5-13.4-0.6c-3.8-0.1-7.6-0.2-11.4,0c-5.2,0.4-10.3,1-15.4,1.6
	c-1.2,0.1-2.4,0.5-3.6,0.7c-2.1,0.4-4.3,0.1-6.3-0.7c-0.5-0.1-1-0.3-1.5-0.3c0.3,1,0.4,0.8,1.1,1.1c1.2,0.4,2.4,1,3.6,1.6l-0.2,0.3
	l-2.3,0.4l-0.2,0.4c1.6,0.8,3.3,1.7,4.9,2.4c1.4,0.6,2.8,1.2,4.2,1.7c0.2,0.1,0.5-0.1,0.8,0c0.8,0.3,1.7,0.6,2.5,0.9l-0.1,0.4
	c0.4-0.1,1-0.5,1.2-0.3c1.6,1.4,3.6,1,5.4,1.3c3.1,0.5,6.2,1.4,9.1,2.5c2.2,0.7,4.4,1.2,6.6,1.9c0.8,0.3,1.5,0.7,2.2,1.2
	c0.2,0.1,0.3,0.1,0.5,0.1c1-0.2,1.8-0.1,1.7,0.9c0.5-0.1,1.1-0.1,1.7,0c1.7,0.3,3.4,0.8,4.9,1.6c1.9,1.3,4.1,1.3,6,2.3
	c1.5,0.8,3.3,1.2,5,1c2-0.1,3.5,1.3,5.1,2.2c1.5,0.8,3.1,1.6,4.7,2.3l0.2-0.4l-1-1.2c-3.4-0.7-6.2-2.6-9.2-3.8s-6-2.5-9-3.7
	s-6.4-2.3-9.4-3.8s-6.4-2.2-9.5-3.5c-3.1-1.3-6.3-2.4-9.4-3.8c0.3,0,0.6,0,0.9,0c3.9,0.8,7.8,1.7,11.7,2.5c2.7,0.6,5.4,1,8.1,1.6
	c2,0.4,4,1,6,1.4c0.7,0.1,1.3,0.2,2,0.3c1.3,0.2,2.7,0.4,4,0.8c3.6,1,7.2,2.1,10.7,3.1c1.6,0.4,3,1.2,4.2,2.2
	c5.1,4.4,9.7,9.5,13.5,15.1c0.9,1.2,2.3,2,3.4,3.1c0.4,0.5,0.8,1.1,1.1,1.6c0.2,0.3,0.3,0.6,0.4,0.9c-0.9,0.3-1.7,0.4-2.6,0.5
	c-1.4,0-2.8-0.1-4.2-0.4c-2.8-0.5-5.7-1.1-8.5-1.6c-1.9-0.3-3.8-0.5-5.8-0.6c-6.5,0-12.1-3.4-18.3-4.5c-0.6-0.2-1.1-0.4-1.6-0.7
	c-2.6-1.2-5.3-2-8.1-2.4c-2.1-0.6-4.1-1.7-5.6-3.4c-0.6-0.7-1.2-1.4-1.8-2.2l0.3-0.2l-0.5-2.5l0.4-0.4c2,0.5,4,1.2,5.9,2.1
	c1.5,0.7,3.1,1.2,4.7,1.5c1,0.2,2,0.7,3,1c3.7,1,7.3,1.9,11,2.8c1.4,0.3,2.9,0.4,4.3,0.3c-1-0.7-2.1-1.2-3.2-1.7
	c-4.1-1.4-8.2-2.6-12.3-3.9c-2.4-0.8-4.8-1.8-7.3-2.6c-1.7-0.5-3.3-0.9-5-1.4c-0.7-0.2-1.2-0.3-1.3-1.3c-0.1-1.3-0.9-2.6-2.1-3.2
	c-0.7-0.5-1.4-1-2-1.6c0.1,0-0.1,0.1-0.4,0.1c-1.7-0.1-3.3,0.4-4.6,1.3c-1.3,1-2.8,0.5-4-0.6c-0.8-0.6-1.6-1.1-2.5-1.4
	c-1.6-0.7-3.2-1.3-4.8-2c-3.9-1.7-7.8-3.4-11.7-5.1c-0.6-0.2-1.2-0.5-1.7-0.8c-1-0.7-1-0.7-2.4,0c1.4,0.6,1.5,1.6,1.2,2.8
	c-0.6,2.6,1,4.7,1.7,7c0.1,0.2,0.5,0.4,0.8,0.5c0.3,0,0.7,0,1-0.1c2.3-0.6,4.2-0.1,5.3,2.1c0.2,0.4,0.5,0.6,1.1,0.6
	c2.4,0.2,4.8,0.6,7.1,1.2c1.5,0.4,2.9,1,4.2,1.8c1.8,1.1,2.9,1.2,4.6-0.2c1.1-0.9,2-1.9,3.1-2.7c1-0.7,2.3-0.7,3.2-0.1
	c-1,2.2-2,4.2-3,6.2c-0.2,0.4-0.7,0.8-1,0.8c-2.9,0.1-5.8,0-8.6-0.3c-4.6-0.7-9.1-2.1-13.4-4.1c-0.9-0.4-1.8-0.7-2.8-0.8
	c-0.4,0-1,0.5-1.3,0.9c-0.6,0.7-1.1,1.4-1.5,2.1c-0.4,0.6-1,1.3-1.1,1.9c0,2.7-1.5,4.7-3.2,6.5c-0.2,0.2-0.9,0-1.2-0.2
	c-0.7-0.4-1.4-0.9-2-1.4l-0.3,0.4c0.4,0.4,0.9,0.8,1.3,1.2c0.6,0.5,1,1,1.3,1.6c0.4,1.2-0.4,2.1-1.7,2s-2.5-0.2-3.3-1.5
	c-0.2-0.3-0.8-0.4-1.2-0.4c-1.3,0-2.7-0.5-3.7-1.3c-0.2-0.2-0.4-0.5-0.4-0.9c0.1-1.4-0.5-3.1,1.1-4.1C4,175.3,4,174.5,4.3,174.1
	l3.8,2.3c-0.7-1.1-1.5-2-2.4-2.9C4.9,172.7,4.3,172.8,4.3,174.1z M88.1,108.2l-0.3-0.6c-1.9,0.9-3.8,1.7-5.6,2.6
	c-5.8,2.9-11.6,5.9-17.4,8.8c-2.5,1.3-5,2.6-7.5,3.9c-3,1.5-6,3.1-9,4.7c-2.1,1.1-4.1,2.2-6.2,3.4c-0.6,0.4-1.2,0.9-1.8,1.3
	c8.6-2.4,16.9-5.9,24.7-10.3C72.8,117.6,81.2,114.1,88.1,108.2z M6.4,153.8l0.3,0.5c1.8,0.4,3.6,0.3,5.3-0.3
	c0.9-0.3,1.4-0.7,1.3-1.4c-0.2-2,0.6-3.5,1.5-5.2c0.3-1,0-2.1-0.6-3c-0.7-0.6-1.7-0.8-2.6-0.6c-0.6,0.1-1,1.1-1.4,1.8
	c-0.4,1-0.8,2-1.1,3c-0.2,0.7-0.8,1.5-0.6,2.1c0.5,1,0.1,2.2-0.9,2.7c-0.1,0.1-0.2,0.1-0.4,0.1C6.9,153.5,6.7,153.6,6.4,153.8z
	 M7.1,166.1c0.1,0.6,0.2,1.2,0.4,1.8c0.5,1.8,0.9,2,1.9,0.6c1.6-2.2,3.7-4.1,4.2-7.1c0.3-0.8,0-1.8-0.7-2.3
	c-0.8-0.4-1.6-0.6-2.5-0.5c-0.7,0-1.4,0.5-1.4,1.3c0,0.1,0,0.3,0.1,0.4c0,0.4-0.2,0.7-0.3,1.1C8.2,162.9,7.6,164.6,7.1,166.1z
	 M20.6,142.1l-0.1,0.4c0.4,0.2,0.9,0.2,1.3,0.2c1.3-0.4,2.6-0.9,3.9-1.2c2-0.5,4.1-0.7,6.1-1.3c3-0.9,5.8-2,8.7-3.3
	c3-1.4,5.8-3.1,8.8-4.7c0.6-0.4,1.3-0.7,2.2-1.1c-0.4-0.1-0.6-0.1-0.6-0.1c-5.7,2.2-11.4,4.5-17.1,6.7c-2.9,1.1-6,2-9,3.1
	c-0.2,0.1-0.3,0.1-0.5,0.2C23.3,141.9,21.9,142.3,20.6,142.1L20.6,142.1z M46.4,136.3c0.4,0,0.8,0,1.1,0c1.9-0.8,3.8-1.7,5.7-2.5
	c1-0.3,2-0.6,3-1.1c2.6-1.4,5.3-2.9,7.8-4.5c1.2-0.8,2.6-0.8,3.7-1.9c1.1-1.1,2.4-2,3.7-2.8c0.1-0.1,0.2-0.2,0.4-0.7
	C62.6,126.4,55.1,132.5,46.4,136.3L46.4,136.3z M14,170.3c-0.2,0-0.4,0.1-0.6,0.1c-1.1,0.6-1.9,1.5-2.5,2.5
	c-0.3,0.6,0.3,1.6,0.9,1.3c1.3-0.6,2.6-1.4,3.8-2.2c0.1-0.1,0.1-0.8-0.1-0.9C15,170.8,14.5,170.6,14,170.3L14,170.3z M82,143.8
	l-0.1-0.5l-9.2-0.4l-0.1,0.4l2.4,0.9c2.3-0.5,4.7-0.6,7.1-0.3L82,143.8z M14.4,135.1l-0.1,0.6l1.8,0.6c0.2-1.2,2.7-0.9,1.8-2.7
	l-0.5,0.7l-1.2-0.8l-0.2,0.3l0.5,0.9L14.4,135.1z M86.5,179.1l-3.2-0.9l-0.2,0.4l2.3,1.6L86.5,179.1z M90.3,182.1l-2.7,0.7
	C89.6,183.7,90.4,183.5,90.3,182.1L90.3,182.1z"/>
<path class="st3" d="M17.1,244.4l-0.2,2.6l-0.6-0.1l0.3-1.7c-0.5-0.1-1-0.6-1,0.7s-0.2,2.4,0.9,3.6c0.5,0.6,0,2.1-0.1,3.2l-1.5,0.7
	l0.6,1.3l0.4-0.1l-0.1-0.8c1.7-0.3,1.8,1.1,2.2,2.1c1.6,4.4,3.1,8.7,4.7,13.1c1,2.9,1.9,6,3.1,8.8c0.6,1.4,0.2,1.7-1,2l0.3,1.8
	c-2.1-2.2-4.5-4.5-6.6-7s-3.7-4.8-5.5-7.3c-0.5-0.8-0.8-1.7-1-2.6c-0.7-2.8-1.4-5.5-1.9-8.3c-0.6-3.4-1-6.8-1.4-10.2
	c0-0.1,0-0.3,0-0.4c1.1-2.3-0.4-4.4-0.4-6.7c0-2.5-1.3-4.2-2.6-6.2c-0.8-1.2-1-2.9-1.5-4.4c-0.4-1.2-0.9-2.5-1.2-3.8
	c-0.3-1.4-0.5-2.8-0.6-4.2c-0.1-2.4,0-4.8,0.1-7.2c0.1-1.8,0.3-3.6,0.4-5.4c0.1-2.9,0.1-5.9,0.1-8.9c0-1.1,0.3-2.3,0.4-3.4
	s-0.1-2.2-0.1-3.3c0-0.4,0-0.8,0.1-1.2c0.1-0.8,0.5-1.5-0.1-2.5c-0.3-0.6,0-1.6,0-2.4c0-0.4,0.1-0.9,0.2-1.5
	c1.2,0.5,2.7,1.1,4.1,1.6c1.7,0.7,3.1,1.8,4.3,3.2c0.1,0.1,0.3,0.2,0.4,0.1c2.1-0.6,2.8,1.1,3.6,2.4c0.1,0.1,0.2,0.2,0.3,0.3
	c1.7,0.7,3.3,1.3,5,2c0.9,0.4,1.8,0.9,2.6,1.4c1.2,0.8,2.4,1.7,3.5,2.6c0.4,0.3,0.8,0.5,1.1,0.8l-0.2,0.5l-3.3-0.9
	c0.4,0.7,0.5,1.2,0.8,1.4c4,2.3,6.1,6.6,9.7,9.3c1.6,1.2,3.4,2.2,5,3.4c0.5,0.3,0.8,0.8,1.3,1.1c2.7,2.2,5.3,4.4,8,6.6
	c1.3,1,2.6,2,4,3c0.7,0.4,1.3,0.6,2.1,0.9c1.2,1.2,1.7,3.2,3.7,4.2c1.9,1.1,3.6,2.4,5.3,3.8c0.7,0.5,1.4,1.2,2.2,1.6
	c0.5,0.3,1.2,0.3,1.7,0.2c-1.3-1-2.4-2.2-3.5-3.4c-3.2-4.3-7.7-7.2-11.6-10.7c-2.2-2-4.2-4-6.5-5.9c-5-4-10.2-7.9-15.3-11.8
	c-0.4-0.3-0.8-0.5-1.3-0.7c-1-0.6-2.5-0.8-1.4-2.6c0.7,0.5,1.4,1,2.1,1.4c1.9,1,3.9,1.8,5.8,2.8c1.1,0.5,2.1,1.1,3.1,1.9
	c1.3,1.1,3,0.5,4.4,1.3c2.4,1.4,4.6,3,6.6,4.8c1.2,1.1,2,2.8,4,3c0.7,0.1,1.5,1,2,1.7c1.4,1.7,3.5,2.3,5.2,3.6
	c0.6,0.4,0.7,1.7,1,2.7c2.3,0,3.9,1.5,5.3,3.4c0.5,0.7,1.4,1,2.1,1.6c2.3,2.1,4.5,4.2,6.8,6.3c2,1.8,3.9,3.6,5.8,5.6
	c3,3.1,6,6.2,8.9,9.3c0.4,0.5,0.7,1,1,1.5c-1.7,1.8-1.7,2.1,0,3.7c0.6,0.5,1.2,1,1.9,1.5l-0.6,0.7c-0.6-0.5-1.2-1.1-1.9-1.6
	c-0.6-0.5-1.3-0.9-2.1-1.2c-3.2-1-6.5-0.6-9.8-0.9c-4.3-0.3-8-1.6-10.8-5.4c-1.5-2-3.7-3.5-5.7-5.2c-2.3-1.9-4.6-3.7-6.9-5.6
	c-1.5-1.2-2.8-2.6-4.4-3.8c-0.9-0.7-2.1-0.9-2.5-2.2c0-0.1-0.2-0.2-0.2-0.1c-1.8,0.8-2.3-1.2-3.6-1.7c-0.3-0.1-0.4-0.8-0.7-1.3
	c-3.1,0.4-4.8-2-6.8-3.6c-3.4-2.7-6.7-5.4-10.2-8.1c-2-1.5-4.1-2.9-6.2-4.2c-1.5-0.8-3-1.5-4.5-2.1c-0.9-0.4-1.7-0.8-2.7-1.3
	c1.3,1.1,2.5,2.3,3.7,3.5c1.2,1.7,2.9,3,4.9,3.8c0.2,0.1,0.5,0.3,0.5,0.5c0.1,1.6,1.4,2.9,1,4.7c-0.1,0.4,0.4,1,0.7,1.4l0.6-0.2
	l-0.7-3.2l0.4-0.1l2.3,2.4c0.3,0.3,0.6,0.6,0.9,0.9c2,1.4,4.1,2.8,6,4.2c0.5,0.5,0.9,1.2,1.1,1.8l-3.4-0.5v-2
	c-0.6,0.5-1.1,1.1-1.5,1.9c0,0.1,0.2,0.3,0.3,0.4c0.2,0.2,0.3,0.3,0.5,0.5c0.3,0.2,0.5,0.6,0.8,0.7c0.7,0.2,1.3,0.2,2,0.4
	c1.2,0.3,1.7,0,1.4-1.3c1.3,0.2,2.7,0.4,3.2,2.1l-1.6,1.7l1.1-0.2l0.4,2.1l-1.9-1.5c0,1.1,2.8,3.2,4.3,2.9l-1.4-0.4l0.2-0.4l1.4-0.1
	l0.1-0.5l-1.8-0.5c0,0-0.1-0.3-0.4-0.8l1.4,0.2l-1.6-1.8l0.3-0.4c3.9,1.5,6,5.4,9.8,7.1l-0.6,0.9c0.1,0.1,0.2,0.3,0.2,0.2
	c1.2-0.1,1.5,1,1.7,1.6c0.4,1.5,2.1,2.3,1.9,4.1c0,0.5,1.4,1.1,1.8,1.8c0.3,1.2,0.7,2.4,1.2,3.5c2.1,3.5,3.9,7.1,5.4,10.9
	c0.3,1,0.6,2,2.2,2.1l-0.9,2.3l-0.5,0.2l5.8,4.1l-0.1,0.2l-8-4.1l0.1,1.7l-1.9-1.1c-1.3-0.7-2.6-1.4-3.8-2.2c-0.6-0.5-1-1.1-1.3-1.7
	c-1.1-1.7-2.9-2.8-4.9-3c0-0.8,0.2-1.8-1.2-1c-0.2,0.1-0.8-0.4-0.8-0.5c0.5-0.9-0.4-1.2-0.8-1.5c-1.8-1.3-2.5-3.4-4.1-4.8
	c-0.5-0.4-1-0.8-1.3-1.4c-0.6-1-1.7-1.6-1.8-3.1c0-0.9-1.2-1.8-2-2.5c-1.8-1.6-2.8-3.7-3.8-5.9c-1-2-2.2-3.8-3.6-5.5
	c-1.2-1.5-2.6-2.8-3.7-4.4c-1.7-2.4-3.2-4.9-4.6-7.5s-2.8-5.4-4.3-8c-0.3-0.5-0.7-1-1.1-1.4c-1.1,1.3-0.7,2.5-0.3,3.6s0.7,2.5,1,3.7
	l-0.7,0.3c-1.3-2.8-2.6-5.6-4-8.3c-2.8-5.1-3-10.6-3.3-16.2c-0.2-1.5-0.5-3-0.9-4.4c-0.1-0.3-0.4-0.5-0.8-0.7
	c0.2,1.5-1.1,2.8-0.3,4.4c0.3,0.9,0.4,1.8,0.3,2.7c0.2,2.1,0.2,4.3,0.6,6.4c0.4,2.3,1.2,4.6,1.9,6.9c0.2,0.9,0.5,1.7,0.9,2.6
	c0.2,0.4,0.4,1,0.7,1.1c1.8,0.6,1.5,2.3,2,3.6c0.2,0.4,0.4,0.9,0.6,1.6v1.6l0.4-0.4c0.7,0.3,1.4,0.6,2.1,1.1
	c1.3,1.2,2.2,2.7,2.7,4.4c0.9,3.2,2,6.4,3.1,9.5c0.3,0.9,0.9,1.6,1.2,2.5c0.2,0.4,0,0.9,0.1,1.4c0.5,2.3,1.1,4.6,1.7,7
	c0.2,0.6,0.4,1.2,0.4,1.8c0,1.3,0.7,1.5,1.5,1.5c-0.2-1.7-0.3-3.3-0.5-5c-0.1-0.8-0.2-1.7-0.5-2.5c-0.6-1.4-1.1-2.8,0.4-4.6
	c0.6,1.3,1.1,2.6,1.5,3.9c0.5,2.7,1,5.5,1.3,8.2c0.2,1.9,0.3,3.9,0.4,5.9c0.1,1.9,0.2,4,0.3,6c0,0.4-0.2,0.8-0.5,1.1v-3.8
	c-0.9,0.5-1.7-1-2.4,0.4c-0.1,0.1-0.3,0.3-0.3,0.4c0.4,1.7,0.3,3.6,1.8,5c0.3,0.5,0.5,1.1,0.5,1.7c0.1,1.3,0,2.5,0,3.8h-0.5
	l-0.1-2.1l-1.9,2.2l2.6,0.6v8.1c-1.1,1,0.2,2.6-1,3.7c-0.1-0.9-0.2-1.6-0.3-2.4c0-1-0.1-1.9-0.2-2.9c-0.5-2.3-1.1-4.6-1.5-7
	c-0.2-1.2-0.1-2.4-1.1-3.4c-0.3-0.3-0.1-1.2-0.1-1.8c0.1-2.1-1.6-3.3-2.1-5.1c-0.4-1.4-0.9-2.7-1.3-4l-1.7-5.1
	c-0.5-1.6-1-3.1-1.6-4.7c-0.2-0.3-0.4-0.7-0.6-1c0.2-0.8-0.9-5.1-1.5-5.6c-0.2-0.2-0.5-0.2-0.8-0.1c-0.2,0.2-0.5,0.7-0.4,0.8
	c0.4,0.8,1,1.6,1.5,2.4c-0.6,0.8-0.6,0.9,0,2C16,244.3,16.7,244.3,17.1,244.4z M63.5,238.9l0.6-1.5l1.2,0.9l1.9,1.4
	c-0.1-0.6-0.2-1.3-0.5-1.9c-2.5-3.4-5.8-6-9-8.7c-2.1-1.8-4.3-3.3-6.5-4.9c-1.5-1.1-3-2-4.5-3c-2-1.4-4-2.9-6-4.3
	c-2.6-1.9-5.2-3.7-7.7-5.6c-3.3-2.5-7.6-3.5-10.5-6.6c-0.4-0.4-1.3-0.4-1.9-0.6l-0.2,0.5c0.6,0.4,1.2,1.1,1.7,1.1
	c1.5,0,1.6,1.2,2.2,2c1.6,0.4,3.1,1.4,4.3,2.6c0.2,0.3,0.5,0.6,0.8,0.8c1.5,1.1,3,2.3,4.5,3.4l7,5.3c2.1,1.6,4.2,3.2,6.3,4.8
	c1.4,1.1,2.9,2.3,4.3,3.4c0.9,0.7,1.8,1.3,2.7,2c1.3,1,2.6,2,3.9,3c0.1,0.1,0.1,0.4,0.1,0.8l-2.7-2l-0.4,0.6l3.5,2.5l0.9-1.3
	c0.4,1.1,0.4,2.3,1,2.8c1.6,1.4,1.7,1.4,2.5,0.9c-0.3-0.2-0.7-0.4-1-0.6c-0.3-0.2-0.6-0.5-1-0.9C62.6,235.7,62.6,235.7,63.5,238.9z
	 M43.5,244.3l0.4-0.5c-0.6-0.7-1.3-1.4-1.9-2.2c-1.4-1.8-2.8-3.6-4.2-5.4c-0.9-1.1-1.9-2.1-2.8-3.1c-1.4-1.6-2.7-3.2-4.1-4.6
	c-1-1-2-1.8-3.2-2.6c-0.2-0.1-0.8,0.2-1.1,0.4c0.3,0.9,0.7,1.7,1.2,2.5c0.5,0.6,1.1,1.1,1.7,1.6c0.4,0.5,0.7,1.2,1.2,1.6
	c2,1.4,2.5,4.1,5.2,4.9c0.9,0.2,1.6,1.7,2.1,2.7C39.1,242.1,41.9,242.4,43.5,244.3L43.5,244.3z M27.7,254.2c-0.4-0.5-0.8-0.7-0.9-1
	c-0.1-0.6,0.2-1.3,0-1.9c-0.2-0.9,0-2.3-1.7-2.1l-0.2,3.3l0.4-0.1l0.7,3.6L27.7,254.2z M9,220.4c-0.3,2.9,1.2,5.3,2.4,7.8
	C10.7,225.6,10.7,222.7,9,220.4z M45.4,238v0.5c0.8,0.1,1.6,1.3,2.3,0c0.4-0.7,1.5-1.5,0.6-2.2c-0.9-0.8-1.8,0.1-2.7,0.7l1.8,1.1
	L45.4,238z M55.4,252.7l0.2-0.5l-3.1-1c0.2-0.4,0.3-0.4,0.4-0.4c0.7,0.5,0.9-0.1,1.1-0.6c0-0.1-0.4-0.6-0.6-0.6
	c-0.5,0-1.2-0.1-0.9,0.8c0,0.5,0,1-0.2,1.5L55.4,252.7z"/>
<path class="st3" d="M15.3,87.3c-0.7-1.1-0.4-2.6,0.6-3.5c1-1.1,2.1-2.2,3-3.3c0.4-0.5,0.4-1.2,0.6-1.8c0.7-1.4,1.5-2.8,2.2-4.2
	c0.4-0.6,0.9-1.1,1.4-1.6c0.7-0.8,1.5-1.3,1.4-2.7c-0.1-0.5,1.1-1.2,1.9-2c-0.5-1.4,0.9-2.5,1.8-3.7c0.6-0.9,0.9-2,2.3-2.5
	c0.6-0.2,1-1.5,1.2-2.4c0.6-2.8,3-4.6,4.4-6.9c0.2-0.3,0.3-0.6,0.5-0.9c0.4-0.8,0.5-1.9,1.8-1.9c0.2,0,0.6-0.4,0.7-0.7
	c0.6-1.3,1.2-2.5,1.8-3.8c0-0.1,0.1-0.1,0.2-0.2c1.9-0.4,1.8-2.2,2.5-3.5c0.2-0.5,0.4-0.9,0.5-1.4c-0.4,0.2-0.8,0.3-0.9,0.5
	c-2.7,3.5-5.5,7.1-8,10.7c-2,2.8-3.7,5.8-5.6,8.6c-0.4,0.5-1.1,0.8-1.4,1.4c-0.8,1-1.4,2.1-2,3.3c-1.1,2.7-3.1,4.8-5.1,6.8
	c-0.1,0.2-0.3,0.4-0.4,0.6l-0.4-0.7c-0.6,0.6-1.3,1.4-1.8,0.1c0.7-0.5,1.5-0.9,1.8-1.5c0.3-0.7,0.3-1.4,0-2.1c-0.5-1.2,0.3-2,0.5-3
	c0.1-0.5,0.3-0.9,0.7-1.2c0.6-0.5,1.4-0.8,2-1.3c0.5-0.5,0.9-1.2,1.2-1.8c0.3-0.6,0.5-1.3,0.8-2c0.4-0.9,0.4-2,1.7-2.4
	c0.3-0.1,0.3-1.3,0.5-2.2l2-0.2c-0.3-0.8-0.8-1.8,0.7-2.2c0.1,0,0.3-0.4,0.3-0.6s-0.1-0.7,0-0.7c1.6-0.9,1.2-2.9,2.3-4.1
	c0,0,0.1-0.1,0.1-0.1c-0.8-2.2,1.7-2.2,2.3-3.4c0.2-0.4,0.2-1,0.4-1.5s0-1.2,0.8-1.7c1.6-0.9,2.9-2.5,4.4-3.5c2-1.3,2.7-3.7,4.7-5
	c0.7-0.5,1.4-0.9,2.3-1.4c0.1,2,1.4,1.4,2.3,1.3c1.3-0.1,1.5,0.4,1.4,1.5c0,0.8,0.1,1.6,0.2,2.5c1-0.1,1.9-0.2,2.9-0.4
	c1-0.2,1.1-0.8,1.3-1.7c0.3-1.7,0.9-3.3,2.8-4c0.4-0.2,0.6-1.1,0.8-1.5c0.7,0,1.4-0.1,2.1-0.3c3.1-1.4,5.9-0.1,5.8,3.5
	c0,3.9-1.3,7.8-3.6,11c-1.2,1.4-2.4,2.8-3.8,4c-0.8,0.9-1.8,1.7-2.6,2.6c-1.5,1.8-3.5,2.8-5.3,4c-1,0.8-2.1,1.6-3.3,2.1
	c-0.5,0.2-1.1,0.4-1.6,0.6c0.6,0.9,0.4,1.3-0.8,1.5c-0.3,0-0.8,0.1-0.9,0.3c-0.5,1.2-1.4,2.1-2.5,2.7C42,60.3,41,61.9,39.9,63
	c-0.7,0.7-1.4,1.3-2.2,1.9c-0.2,0.1-0.7-0.2-1.1-0.4c0,0-0.1,0.1-0.1,0.1c1,1.5-0.2,2-1,3.1c-1,1.2-2.8,1.8-3.1,3.6
	c0,0.2-0.5,0.4-0.8,0.6s-0.7,0.3-0.7,0.4c0,1.5-1.2,1.5-2.2,1.8l0.3,0.3L27,77.1c-0.1,0.1-0.2,0.2-0.2,0.2c-0.3,1.8-1.4,2.6-3.4,2.4
	l1.2,0.8c-1.2,1.6-2.4,3.2-3.6,4.7c-0.6,0.7-1.6,1.1-2.2,1.8c-0.8,1-3,1.1-2.1,3.2c0.1,0.1-0.1,0.4-0.2,0.5
	c-0.5,1.3-1.1,2.6-1.8,3.8c-0.6,0.8-1.4,1.6-2.2,2.2c-0.1,0.7-0.3,1.3-0.5,1.9c-0.7,1.3-1.5,2.7-2.2,4c-0.6,1-1.2,1.7-2.5,0.9
	c-0.3-0.2-0.8-0.1-1.2-0.1l-0.1,0.5l1.9,0.4c-0.4,0.4-0.8,0.9-1.1,1.3c-0.3,0.6-0.6,1.2-0.8,1.8c-0.3,0.6-0.6,1.1-0.8,1.7l-0.5-0.1
	c-0.3-0.8-0.6-1.6-0.9-2.4c-0.3-1-0.1-2.1,0.5-2.9c0.4-0.8,0.9-1.5,1.3-2.3l-0.4-0.2L4.2,102c-0.4-0.8-0.8-1.6-1-2.5
	c-0.3-1.5,0.3-3.1,1.5-4.1c0.3-0.3,0.5-0.8,0.5-1.2c0.1-0.7,0.1-1.4,0.2-2.1c0.1-0.3,0.2-0.6,0.3-0.9l1.2,0.6l0.8-1.3
	c-1.8-0.8-2-1.6-1.5-4.5l1.6,1.2l1.2-3.4l0.8,0.1l0.7-2.1l0.9,1.4l0.9-2.2l-0.8-0.2l1.3-2.4l0.3,0.1l-0.3,0.8c1.6,0.1,2.4-0.7,2-2.2
	s0.4-2,2.4-1.3l-0.9,1.3c1.6,1.4-0.3,2.4-0.8,3.5c-0.7,1.3-2,2.3-2.8,3.5s-1.4,3-2.2,4.4c-0.3,0.6-0.7,1-1.1,1.6
	c-0.3,0.6-0.6,1.2-1,1.7c-0.3,0.2-0.6,0.4-0.9,0.5L6,100.1c1.2-1.1,2.3-2.3,3.2-3.6c0.7-1.3,1.3-2.8,1.7-4.2c0.2-0.6,0.5-1,0.8-1.5
	c0.6,0,1.1,0,1.6,0c0.1-0.2,0.1-0.3,0.1-0.5c-0.4-0.1-0.7-0.2-1.2-0.4C13.1,88.9,13.7,87.5,15.3,87.3l0.2,1.1
	c0.3-0.2,0.5-0.4,0.8-0.7c0.3-0.5,0.5-1,0.7-1.5L15.3,87.3z M51.7,46.5l0.2,0.1c0.2-0.7,0.3-1.8,0.6-1.8c1.5-0.3,2-1.7,3-2.6
	c0.6-0.6,1.1-1.3,1.5-2.1l0.5,0.4c0.5-1,1.2-1.9,1.9-2.7c0.6-0.4,1-1.1,1.1-1.8c0-0.2-0.1-0.5-0.2-0.7c-0.2,0.1-0.5,0.1-0.7,0.3
	c-0.8,0.9-1.6,2-2.4,2.8c-2.4,2.5-4.7,4.9-7.2,7.3c-2.5,2.5-5.2,4.9-7.6,7.5c-1.7,1.8-3,3.8-4.6,5.6c-1.3,1.5-2.9,2.6-4,4.2
	c-1.6,2.3-3.7,4.3-6.2,5.8l0.3,1.2l-2.5,1.2l0.5,0.3L23.8,76c0.5-0.2,0.9-0.3,1.1-0.6c1.7-1.9,3.3-3.8,4.8-5.9
	c0.5-1,1.6-1.5,2.6-1.2c0-1.3,0.8-2.4,1.9-3c1-1.3,1.7-2.3,2.3-3.2c0-0.1,0.2,0,0.4,0c0.6,0.2,1.2-0.1,1.3-0.7c0-0.1,0.1-0.3,0-0.4
	c0-0.2,0-0.3,0-0.5c1.2-0.2,1.2-1.3,1.7-2.1c0.8-1.1,1.6-2.1,2.6-2.9l2,1c-0.1-0.6-0.1-0.9-0.1-1.2c-0.3-2.2,0-2.3,1.9-3.4
	c1.1-0.6,2.1-1.6,2.7-2.7c0.3-0.6,0.4-1.1,1.1-1.3c0.2,0,0.3-0.3,0.5-0.4L51.7,46.5z"/>
<path class="st3" d="M6.9,75.9c-1.6,0.2-1.5,0.1-1.2-1.4c0.3-1.8,0.5-3.6,0.6-5.4c0.3-2.7,0.7-5.4,1-8h0.4l-0.6,5.5
	c1.5-1.2,2.2-2.3,2.3-3.9c0.1-1.3,0.8-2.6,1.2-3.9c0.7-2.3,1.2-4.7,2.1-7c0.7-1.9,1.1-4,0.9-6c-0.1-1.5,0.8-3.1,1.2-4.6
	c0.2-0.7,0.3-1.3,0.4-2c0.2-1-0.3-2,1.1-2.7c0.4-0.2,0.4-1.5,0.6-2.3c0.4-2.3,0.9-4.7,1.3-7c0.3-1.4,0.5-2.8,0.8-4.1l-0.4-0.1
	c-0.1,0.1-0.3,0.2-0.3,0.3c0.3,3-2.2,5-2.6,7.8c-0.5,2.7-1.2,5.3-2,7.9c-1,3.7-2,7.4-2.9,11.1c-0.2,1.2-0.3,2.4-0.4,3.7
	c0,0.4-0.2,0.9-0.5,1.2l-0.3-1.8l-1.3,3c0-0.7,0-1.3,0-2c-0.2-1.4-0.6-2.7-0.8-4.1c-0.2-0.9-0.1-1.7,0.3-2.5
	c1.2-1.6,1.3-3.5,1.4-5.3c0.3-3.4,0.4-6.8,0.6-10.3c0-0.7,0.3-1.4,0.2-2c0-0.4-0.3-0.7-0.7-1.4c0.2-1.1,0.5-2.6,0.8-4.1
	s0.6-3.1,1-4.6c0.1-0.2,0.3-0.5,0.4-0.5c1.2-0.1,1.5-1.1,2-1.9c0.3-0.5,0.3-1.5,1.4-0.8c0.4-0.3,0.7-0.6,1-1
	c0.8-1.6,2.4-1.8,3.8-2.6c2-1.3,4.2-2.3,6.3-3.4c0.2-0.1,0.4-0.3,0.5-0.5c0.6-1.7,1-2,2.7-1.6c0.2,0,0.4,0,0.6,0
	c0.1,0,0.1-0.1,0.3-0.3l-0.7-0.6c0.1-0.1,0.2-0.2,0.2-0.2c2.3,0.6,4-0.1,5.4-2.2c1.2-1.7,2.6-3.2,3.9-4.8c0.3-0.2,0.5-0.4,0.9-0.5
	l0.4,0.3c-1,1.6-1.9,3.3-3,4.8c-2.5,3.8-4.2,7.7-2.3,12.5c1.4,3.5,1.1,7.4,0.7,11.1c-0.3,2.5-1.7,4.8-2.5,7.2
	c-1.1,3.2-2.7,6.2-4.8,8.8c-1.4,1.8-2.2,4.1-3.3,6.1c-1.2,2.2-2.6,4.3-3.7,6.5c-2.2,4.4-4.3,8.9-6.6,13.3c-0.6,1.2-1.8,2.2-2.5,3.5
	c-1.1,1.7-1.9,3.5-2.5,5.5c-0.4,1.3-1.3,2.5-2.5,3.2c-0.4,0.3-0.7,0.6-1.1,0.9C5.6,82,5.7,82,6.6,79.5C6.9,78.3,7,77.1,6.9,75.9z
	 M25.1,29.5c-0.5,0.3-1.2,0.5-1.4,0.9c-0.8,1.6-1.4,3.3-2,5c-1.2,3.9-2.4,7.8-3.6,11.8c-0.5,1.6-1.1,3.1-1.7,4.7
	c-0.7,1.8-1.3,3.6-2,5.3c-1.3,3.4-2.7,6.7-4,10.1c-0.6,1.4-1.1,2.8-1.7,4.1c-0.2,0.4-0.7,0.6-1.1,0.9l0.2,0.1l-0.6,1l0.6,2.9
	c0.9-0.4,1.4-1.4,1.2-2.4c-0.1-0.7,0-1.4,0.4-2c1.3-2.7,2.7-5.3,4.1-7.9c0.9-1.7,1.8-3.3,2.5-5c0.6-1.5,0.9-3.2,1.5-4.7
	c1.1-2.9,2.5-5.6,3.6-8.5c0.4-1-0.1-2.2,0.2-3.2c0.8-2.3,2-4.5,2.7-6.8c0.5-1.4,1.4-2.9,0.6-4.4c0.4-0.4,0.8-0.7,1-1.1
	c1.3-3.4,2.1-7,2.5-10.6c0-0.4-0.3-0.8-0.5-1.2L27,18.7c0.1,0.7,0.1,1.4,0,2.2c-0.4,1.8-0.2,3.8-2.1,5.1
	C23.8,26.7,24,28.7,25.1,29.5z"/>
<path class="st3" d="M5.8,128.6c2.6,0,5.1,0.1,7.6-0.8c0.9-0.1,1.8-0.1,2.6,0.1c-1.9,3.7-8.4,5.4-13.3,3.8v-10
	c2.8-0.6,4.8-2.7,6.9-5.1c1.4-1.4,3-2.6,4.7-3.7l0.2,0.6c0.9,0,2.2,0.4,2.8,0c1.7-1.3,3.8-1.2,5.6-1.9c2.1-0.8,4.1-1.7,6.1-2.5
	s4.1-1.5,6.2-2.1c2-0.5,4-1.1,6-1.8c1.5-0.7,2.6-2.1,4-3c2.4-1.7,4.9-3.2,7.5-4.5c1.8-0.8,3.7-1.2,5.1-2.8c0.5-0.6,1.7-0.5,2.4-1
	c0.7-0.6,1.3-1.4,1.9-2.2c-0.4,0-0.9,0.1-1.3,0.3c-5.4,2.8-10.7,5.5-16.1,8.3c-2.6,1.4-5,3.1-7.7,4.3c-3.2,1.3-6.6,2.3-9.9,3.3
	c-1.9,0.6-3.8,1.1-6.1,1.7c0.1-0.8,0.3-1.5,0.7-2.2c0.6-0.6,1.4-1.1,2.2-1.5c0.6-0.4,1.5-0.4,2-0.9c1.9-1.9,3.7-3.9,5.6-5.8
	c0.1-0.2,0.3-0.4,0.4-0.6c-1.6-0.3-2.7,0.6-2.5,1.8l-17.1,12.1L12,112c0.9-2.5,3.1-4.1,4.9-5.9c1.6-1.6,3.3-3.1,5-4.6
	c1-0.6,2-1.1,3-1.6c2-1.1,4-2.3,6-3.3c3.5-1.7,6.8-3.9,11-4.2c2.1-0.1,4-1.4,6-2.2c0.4-0.1,0.8-0.2,1.1-0.3c1-0.3,2.1-0.6,3.1-1
	c0.7-0.2,1.4-0.8,1.9-0.7c1.4,0.4,1.8-1.1,2.9-1.2c0.9-0.1,1.6-1.3,2.6-0.2c0.1,0.1,0.5,0.1,0.5,0c1.8-2.2,4.6-1.9,6.9-3
	c1.4-0.7,2.9-1.2,4.3-1.7c0.4-0.1,0.9-0.2,1.4-0.3c1.1-2.1,3.4-3.2,5.7-2.8c0.8,0,1.6-0.2,2.4-0.4l-1.2,1c1.2,0.4,1.2,0.4,2.8-1.4
	h-0.8l-0.2-0.3c1.2-0.8,2.4-1.6,3.7-2.2c0.8-0.4,1.9-0.3,2.6-0.8c0.5-0.3,0.7-1.2,1-1.8s0.4-1.1,0.7-1.6l0.4,0.1
	c0.3,0.9,0.5,1.9,0.6,2.8c0,0.5-0.4,1-0.7,1.5c-0.3,0.4-0.5,0.8-0.7,1.3c-0.6,2.5-2,4.8-3.9,6.6c-1.8,1.9-3.2,4.2-5.2,5.9
	c-2.9,2.4-6.2,4.4-9.3,6.5c-1.4,1.1-2.9,2-4.5,2.8c-2.5,1.2-5.2,2.2-7.8,3.3c-0.5,0.3-1.1,0.6-1.7,0.8c-1.3,0.3-2.8,0.3-4.1,0.6
	c-2.5,0.5-4.9,1.5-7.1,2.9c-3,2-6.4,3.5-10,4.2c-3.1,0.6-5.9,2.4-8.9,3.8c-2.1,1-4.2,1.9-6.3,3s-3.9,2.6-5.9,3.8
	c-2.6,1.6-5.2,3.2-7.9,4.5C5.1,126.4,5.2,127.3,5.8,128.6z M65.5,89.7c1,0.1,1.9,0.1,2.9,0c0.6-0.1,1.5-0.3,1.6-0.7
	c0.4-1.2,1.4-1,2.2-1.4s1.5-0.5,2.1-0.9c1.3-0.7,2.4-1.7,3.7-2.3c2.9-1.3,4.7-3.8,7.2-5.6c0.1-0.1,0.2-0.3,0.3-0.5l-0.2-0.4
	c-1.7,1-3.4,2.1-5.1,3.2c-0.6,0.4-1,0.9-1.6,1.2C74.2,84.8,70,87.2,65.5,89.7z M42.8,95.9l-0.1-0.4L40,95v1.2L42.8,95.9z M86.3,76.4
	L86,75.7l-2.8,1.3l0.2,0.5L86.3,76.4z"/>
<path class="st3" d="M47.3,69l0.9-2.2c1.9,0.1,2.4-2,3.8-2.9c1.4-0.9,3.1-1.7,4.7-2.5c0.7-0.4,1.5-0.8,2.2-1.2
	c1.2-0.5,2.6-1.5,3.6-1.2c1.5,0.3,1.3-0.3,1.6-1.2c0.3-0.7,0.9-1.2,1.6-1.5c2.3-0.7,4-2.2,6-3.4c1-0.6,1.7-1.7,1.9-2.8
	c0.2-0.7,0.6-1.3,1-2.2l0.5,1.1l1.2-2.4c1.5,0.1,3.1,0.1,4.6-0.1c0.9-0.2,1.6-1,2.4-1.5c0.4-0.2,0.9-0.3,1.3-0.3
	c0.9,0.7,1.8,1.5,2.6,2.3c0.4,0.5,0.6,1.1,0.6,1.7c-0.1,1.1-0.4,2.1-0.8,3.1c-1.7,4.9-3.4,9.8-5.2,14.6c-0.4,0.7-0.8,1.4-1.4,2.1
	c-0.9,1.2-1.7,2.6-2.6,3.7c-0.5,0.7-1.3,1.1-2.1,1.4c-4,1-8.1,1.7-12,2.8c-3.4,0.9-6.7,2-10.1,3c-0.4,0.1-0.8,0.1-1.2,0.1
	c-0.3,0-0.6,0.1-1.1,0.2l-0.6-1L49.5,81c-0.8-0.1-2.2,1.1-3.5-0.4l0.1,1c-0.9-0.1-1.6-0.3-1.4,1c0,0.2-0.4,0.6-0.8,0.8
	c-0.8,0.4-1.6,0.8-2.5,1.1c-1.2,0.5-2.4,1-3.7,1.4c-0.7,0.1-1.4,0.1-2.2,0c0,0.1,0.1,0.3,0.1,0.4l-1.2-0.1l0.1,1.2l-0.9-1l-0.3,1.2
	L33,87.7c-0.4,0-1.1,0-1.1,0.1c-0.2,1.4-1.5,1.8-2.4,2.6c-1,0.9-2.1,1.7-3.3,2.4l-0.5-0.5c1.3-1.4,2.5-2.8,3.8-4.2
	c0.6-0.7,1-1.4,1.6-2c0.5-0.4,1.1-0.6,1.7-0.6l0.8-1.6l-1.4,0.5c1.2-2.2,1.7-2.3,4.1-2.2c0.9,0.1,1.8-0.4,2.1-1.3
	c0.3-0.8,1.5-1.4,2.3-2c0.2-0.1,0.7,0.3,1.1,0.4l-1.2,1.3l2.4-0.3c-0.7-2.9,1.8-1.5,2.8-2.7l-3.5,0.3l1.7-1.7l1.2,0.9
	c0.2-0.1,0.3-0.1,0.3-0.2c0.1-1.4,0.8-1.7,2.2-2c1.6-0.3,3-1.7,4.6-2.6c0.7-0.3,1.4-0.5,2.1-0.7c1.5-0.6,3.1-1.2,4.6-1.9
	c1.1-0.6,2.2-1.3,3.3-1.9c0.3-0.2,0.6-0.4,0.8-0.6l4.9-4l-0.4-0.7c-3.3,2-6.4,4-9.7,5.9c-1.9,1.1-4,2-6,3s-4,1.6-5.9,2.6
	c-2.8,1.5-5.5,3.2-8.2,4.8c-0.2,0.1-0.4,0.1-0.7,0.1c-0.4-1.6,0.8-2.6,1.6-3.5c1.5-1.7,3-3.3,4.6-4.8c0.7-0.7,1.4-1.4,2.3-1.9
	C45.9,68.6,46.6,68.9,47.3,69z M74.1,58.9c1.8-0.7,3.3-2,4.2-3.8C76.4,55.8,74.9,57.1,74.1,58.9z M65.8,71.5c-1.9-1.3-2.2-1.3-2.5,0
	H65.8z"/>
<path class="st3" d="M43.5,68.3C43.4,69.5,34,79.7,32.2,80l1.2,0.8l-4.1,2.6l0.6,0.7l-0.7-0.5c0,0.1-0.1,0.3-0.1,0.4
	c-0.4,0.7,0,1.9-1.3,2c-0.1,0-0.4,0.3-0.4,0.4c0.5,1.7-1.2,2.6-1.6,4c-0.1,0.7-0.8,1.1-1.5,1c-0.1,0-0.3-0.1-0.4-0.1
	c-0.2-0.1-0.6,0.2-1.3,0.4l1.6,0.7c-1.7,2.1-3.4,4.2-5,6.3c-0.5,0.7-0.9,1.5-1.2,2.3c-1.5,3.7-4.6,6.2-7.2,9c-1.5,1.4-3,2.7-4.7,4
	c-0.8,0.7-1.6,1.3-1.2,2.6c0,0.2-0.3,0.4-0.5,0.8c-0.7-1.1-2.6-1.5-1.8-3.2c0.7-1.1,1.5-2.1,2.6-2.9c0.1-0.6,0.3-1.2,0.5-1.8
	c1.4-1.8,3-3.5,4.4-5.3c1.8-2.2,3.5-4.4,5.1-6.7c1.2-1.8,2.3-3.8,3.4-5.7c0.3-0.3,0.6-0.7,0.9-0.9c1.2-1.3,2.3-2.6,3.6-3.8
	s2.1-2.9,4-3.3c0.3-0.1,0.6-0.3,0.7-0.6c0.6-1.8,1.9-3.4,3.6-4.2c0.7-0.6,1.4-1.2,1.9-2c0.7-0.7,1.3-1.4,1.9-2.2
	c1.5-1.7,2.9-3.5,4.4-5.2c1.2-1.2,2.5-2.3,3.7-3.5s2.3-2.7,3.5-4c0.6-0.6,1.3-1.1,2-1.5c1.2-0.7,2.3-1.5,3.4-2.4
	c0.7-0.6,1.1-1.3,2-0.4c0.3-0.7,0.4-1.4,0.8-1.7c0.2-0.2,1,0.3,1.2,0.4c2.1-1.6,4.2-3,6.4-4.4c1.9-0.9,3.8-1.6,5.8-2.2
	c1-0.3,1-1,1.1-1.6L69.2,48l2.4-1.5c-0.3,0.9-1.9,0.8-1.2,2.4l3.3-1.4c-0.2,0.4-0.3,0.6-0.4,0.7c-4.1,2.6-8.2,5.2-12.2,7.9
	c-0.8,0.5-1.6,1.1-2.2,1.7c-1.4,1.5-3.1,1.7-5.1,1.5l0.5,1.4c-1.6,1-3.2,2-4.7,3.2s-3,2.8-4.6,4.1C44.7,68.3,44.1,68.2,43.5,68.3z"
	/>
<path class="st3" d="M65,80l-2,0.7l1.2,1.4c-2.6,0.8-4.9,1.4-7.2,2.2c-3.8,1.2-7.5,2.5-11.3,3.5c-1.3,0.2-2.7,0.2-4,0l-0.1-0.6
	c2.3-0.9,4.6-1.7,6.8-2.6c1.3-0.6,2.8-0.8,4.2-0.7c0.9,0.1,1.8-0.3,2.3-1c0.9-0.6,1.9-1.1,2.9-1.3c1.8-0.6,3.7-1.1,5.5-1.6
	c0.6-0.1,1.1-0.2,1.7-0.2L65,80z"/>
<path class="st3" d="M52.7,116.9c-2.6-0.5-4.6,0.8-6.6,2c-2.2,1.5-4.8,2.4-7.4,2.7c-1,0.2-2,0.6-2.9,1c1.5-1.1,2.4-2.9,4.4-3.4
	c1.3-0.3,2.6-0.8,3.8-1.4c0.6-0.5,1.1-1.2,1.4-1.9c0.4-0.9,0.6-1.7,1.7-2.2c0.7-0.3,1.1-1.2,1.7-2l4.2,5L52.7,116.9z"/>
<path class="st3" d="M17.1,244.4c-0.4-0.1-1.1-0.1-1.2-0.3c-0.7-1.1-0.6-1.3,0-2c-0.5-0.8-1.1-1.6-1.5-2.4c-0.1-0.2,0.2-0.6,0.4-0.8
	c0.3-0.1,0.6-0.1,0.8,0.1C16.2,239.3,17.3,243.6,17.1,244.4L17.1,244.4z"/>
<path class="st3" d="M88.1,108.2c-6.9,5.9-15.3,9.4-23.1,13.8c-7.8,4.5-16.1,7.9-24.7,10.3c0.6-0.5,1.2-0.9,1.8-1.3
	c2-1.1,4.1-2.3,6.2-3.4c3-1.6,6-3.1,9-4.7c2.5-1.3,5-2.6,7.6-3.9c5.8-2.9,11.6-5.9,17.4-8.8c1.8-0.9,3.7-1.8,5.6-2.6L88.1,108.2z"/>
<path class="st3" d="M6.4,153.8c0.3-0.1,0.5-0.3,0.8-0.4c1.1-0.3,1.7-1.4,1.4-2.4c0-0.1-0.1-0.2-0.1-0.4c-0.2-0.6,0.4-1.4,0.6-2.1
	c0.3-1,0.7-2,1.1-3c0.3-0.7,0.8-1.7,1.4-1.8c0.9-0.2,1.9,0,2.6,0.6c0.7,0.9,0.9,2,0.6,3c-0.9,1.7-1.7,3.2-1.5,5.2
	c0.1,0.7-0.4,1.1-1.3,1.4c-1.7,0.6-3.5,0.7-5.3,0.3L6.4,153.8z"/>
<path class="st3" d="M7.1,166.1c0.5-1.6,1.1-3.2,1.7-4.8c0.1-0.4,0.4-0.7,0.3-1.1c-0.2-0.7,0.2-1.4,0.9-1.6c0.1,0,0.3-0.1,0.4-0.1
	c0.9-0.1,1.7,0.1,2.5,0.5c0.7,0.6,1,1.5,0.7,2.3c-0.5,3-2.6,4.9-4.2,7.1c-1,1.4-1.4,1.2-1.9-0.6C7.3,167.4,7.2,166.8,7.1,166.1z"/>
<path class="st3" d="M20.6,142.2c1.3,0.2,2.7-0.2,3.7-1.1c0.1-0.1,0.3-0.2,0.5-0.2c3-1,6-2,9-3.1c5.7-2.2,11.4-4.4,17.1-6.7
	c0.1,0,0.2,0,0.6,0.1c-0.9,0.5-1.6,0.8-2.2,1.1c-3,1.6-5.8,3.3-8.8,4.6c-2.8,1.3-5.7,2.4-8.6,3.3c-2,0.6-4.1,0.8-6.1,1.3
	c-1.3,0.3-2.6,0.9-3.9,1.2c-0.4,0-0.9,0-1.3-0.2L20.6,142.2z"/>
<path class="st3" d="M46.4,136.3c8.7-3.8,16.2-9.9,25.3-13.5c-0.2,0.4-0.3,0.6-0.4,0.7c-1.3,0.8-2.6,1.8-3.7,2.8
	c-1.1,1.1-2.5,1.1-3.7,1.9c-2.5,1.6-5.2,3.1-7.8,4.5c-1,0.4-2,0.8-3,1.1c-1.9,0.8-3.8,1.7-5.7,2.5C47.1,136.3,46.8,136.3,46.4,136.3
	z"/>
<path class="st3" d="M14,170.3c0.5,0.2,1.1,0.5,1.6,0.8c0.2,0.1,0.2,0.9,0.1,0.9c-1.2,0.8-2.5,1.5-3.8,2.2c-0.6,0.3-1.3-0.7-0.9-1.3
	c0.6-1.1,1.4-1.9,2.5-2.5C13.6,170.4,13.8,170.4,14,170.3z"/>
<path class="st3" d="M82,143.9c-2.4-0.3-4.7-0.2-7.1,0.3l-2.4-0.9l0.1-0.4l9.3,0.5L82,143.9z"/>
<path class="st3" d="M14.4,135.2l2.1-0.4l-0.5-0.9l0.2-0.3l1.2,0.8l0.5-0.7c0.9,1.9-1.6,1.6-1.8,2.7l-1.8-0.6L14.4,135.2z"/>
<path class="st3" d="M4.3,174.1c0-1.3,0.6-1.4,1.4-0.6c0.9,0.9,1.7,1.9,2.4,2.9L4.3,174.1L4.3,174.1z"/>
<path class="st3" d="M86.5,179.2l-1.1,1.1l-2.3-1.6l0.2-0.4L86.5,179.2z"/>
<path class="st3" d="M90.3,182.2c0,1.3-0.8,1.6-2.7,0.7L90.3,182.2z"/>
<path class="st3" d="M63.5,238.9c-0.8-3.2-0.8-3.2-2.5-2.8c0.4,0.4,0.7,0.7,1,0.9c0.3,0.2,0.7,0.4,1,0.6c-0.8,0.5-0.9,0.6-2.5-0.9
	c-0.6-0.5-0.6-1.7-1-2.8l-0.9,1.3l-3.5-2.5l0.4-0.6l2.7,1.9c0-0.4,0-0.7-0.1-0.8c-1.3-1-2.6-2-3.9-3c-0.9-0.7-1.8-1.3-2.7-2
	c-1.5-1.1-2.9-2.3-4.3-3.4c-2.1-1.6-4.2-3.2-6.3-4.8l-7-5.3c-1.5-1.1-3-2.3-4.5-3.4c-0.3-0.2-0.6-0.5-0.8-0.8
	c-1.1-1.3-2.6-2.2-4.3-2.6c-0.6-0.8-0.6-2-2.2-2c-0.6,0-1.1-0.7-1.7-1.1l0.2-0.5c0.6,0.2,1.5,0.1,1.9,0.6c3,3.1,7.2,4,10.5,6.6
	c2.5,1.9,5.1,3.8,7.7,5.6c2,1.4,4,2.9,6,4.3c1.5,1,3,2,4.5,3c2.2,1.6,4.4,3.1,6.5,4.9c3.2,2.7,6.5,5.3,9,8.7
	c0.3,0.6,0.4,1.2,0.5,1.9l-1.9-1.4l-1.2-0.9L63.5,238.9z"/>
<path class="st3" d="M43.4,244.3c-1.6-1.9-4.3-2.2-5.5-4.7c-0.5-1-1.2-2.4-2.1-2.7c-2.7-0.8-3.3-3.5-5.2-4.9
	c-0.5-0.4-0.8-1.1-1.2-1.6c-0.6-0.5-1.2-1.1-1.7-1.6c-0.5-0.8-0.9-1.7-1.2-2.5c0.4-0.1,1-0.5,1.1-0.4c1.1,0.8,2.1,1.6,3.1,2.6
	c1.4,1.5,2.7,3.1,4.1,4.6c0.9,1.1,1.9,2.1,2.8,3.1c1.4,1.8,2.8,3.6,4.2,5.4c0.6,0.8,1.3,1.5,1.9,2.2L43.4,244.3z"/>
<path class="st3" d="M27.7,254.1l-1.5,1.9l-0.7-3.6l-0.4,0.1l0.2-3.3c1.7-0.2,1.5,1.2,1.7,2.1c0.1,0.6-0.1,1.2,0,1.9
	C26.8,253.4,27.2,253.6,27.7,254.1z"/>
<path class="st3" d="M37.1,227.4c0.3,1.2-0.2,1.6-1.4,1.3c-0.7-0.2-1.4-0.2-2-0.4c-0.3-0.1-0.5-0.4-0.8-0.7
	c-0.2-0.1-0.3-0.3-0.5-0.5c-0.1-0.1-0.3-0.4-0.3-0.4c0.3-0.7,0.8-1.3,1.4-1.8v2L37.1,227.4L37.1,227.4z"/>
<path class="st3" d="M9,220.4c1.7,2.3,1.7,5.1,2.4,7.8C10.2,225.7,8.7,223.4,9,220.4z"/>
<path class="st3" d="M45.4,238h1.9l-1.8-1.1c0.9-0.7,1.7-1.6,2.7-0.7s-0.2,1.6-0.6,2.2c-0.7,1.3-1.5,0.2-2.3,0L45.4,238z"/>
<path class="st3" d="M55.4,252.7l-3.2-0.7c0.2-0.5,0.3-1,0.2-1.5c-0.3-1,0.4-0.9,0.9-0.8c0.2,0,0.6,0.5,0.6,0.6
	c-0.2,0.5-0.4,1.1-1.1,0.6c-0.1,0-0.2,0-0.4,0.4l3.1,1L55.4,252.7z"/>
<path class="st3" d="M51.7,46.5l-1,1c-0.2,0.2-0.3,0.4-0.5,0.4c-0.7,0.2-0.8,0.7-1.1,1.3c-0.6,1.1-1.6,2.1-2.7,2.7
	c-2,1.1-2.2,1.3-1.9,3.4c0,0.3,0.1,0.5,0.1,1.2l-2-1c-1,0.9-1.9,1.8-2.6,2.9c-0.5,0.9-0.5,1.9-1.7,2.1c0,0.2,0,0.3,0,0.5
	c0,0.6-0.4,1.1-1,1.1c-0.1,0-0.3,0-0.4,0c-0.1,0-0.3,0-0.4,0c-0.7,0.9-1.3,1.8-2.3,3.2c-1.2,0.6-1.9,1.7-1.9,3
	c-1.1-0.2-2.2,0.3-2.7,1.2c-1.4,2.1-3,4-4.8,5.9c-0.2,0.2-0.6,0.3-1.1,0.6l2.3-4.4l-0.5-0.3l2.5-1.2l-0.3-1.2
	c2.4-1.5,4.5-3.5,6.2-5.8c1.1-1.5,2.7-2.7,4-4.2c1.6-1.8,3-3.9,4.6-5.6c2.4-2.6,5.1-5,7.6-7.5s4.8-4.8,7.2-7.3
	c0.9-0.9,1.6-1.9,2.4-2.8c0.2-0.2,0.5-0.2,0.7-0.3c0.1,0.2,0.1,0.5,0.2,0.7c0,0.8-0.4,1.5-1.1,1.8c-0.8,0.8-1.4,1.7-1.9,2.7
	l-0.5-0.4c-0.4,0.7-0.9,1.4-1.5,2.1c-1,0.9-1.5,2.3-3,2.6c-0.3,0.1-0.4,1.2-0.6,1.8L51.7,46.5z"/>
<path class="st3" d="M15.3,87.3l1.7-1.1c-0.2,0.5-0.4,1-0.7,1.5c-0.2,0.3-0.5,0.5-0.8,0.7L15.3,87.3L15.3,87.3z"/>
<path class="st3" d="M25.1,29.5c-1-0.8-1.2-2.8-0.2-3.5c1.9-1.3,1.7-3.3,2.1-5.1c0.1-0.7,0.1-1.4,0-2.2l0.5-0.1
	c0.2,0.4,0.5,0.8,0.5,1.2c-0.4,3.6-1.2,7.2-2.4,10.6c-0.1,0.4-0.6,0.6-1,1.1c0.8,1.4-0.2,2.9-0.6,4.4c-0.7,2.3-1.9,4.5-2.7,6.8
	c-0.3,1,0.2,2.3-0.2,3.2c-1.1,2.9-2.4,5.7-3.6,8.5c-0.6,1.5-0.9,3.2-1.5,4.7c-0.7,1.7-1.6,3.3-2.5,5c-1.4,2.6-2.8,5.2-4.1,7.9
	c-0.3,0.6-0.5,1.3-0.4,2c0.2,1-0.3,2-1.2,2.4l-0.6-3l0.6-1l-0.2-0.1c0.4-0.3,0.9-0.5,1.1-0.9c0.7-1.3,1.2-2.7,1.7-4.1
	c1.3-3.3,2.7-6.7,4-10.1c0.7-1.8,1.4-3.5,2-5.3c0.6-1.5,1.2-3.1,1.7-4.7c1.2-3.9,2.3-7.8,3.6-11.8c0.6-1.7,1.2-3.4,2-5
	C23.9,29.9,24.6,29.8,25.1,29.5z"/>
<path class="st3" d="M65.5,89.7c4.4-2.5,8.7-4.9,13-7.3c0.6-0.3,1-0.9,1.6-1.2c1.7-1.1,3.4-2.2,5.2-3.2l0.2,0.4
	c-0.1,0.2-0.1,0.4-0.3,0.5c-2.5,1.8-4.3,4.3-7.2,5.6c-1.3,0.6-2.5,1.6-3.7,2.3c-0.7,0.4-1.4,0.5-2.1,0.9s-1.8,0.2-2.2,1.4
	c-0.1,0.4-1,0.7-1.6,0.7C67.4,89.7,66.5,89.7,65.5,89.7z"/>
<path class="st3" d="M42.8,95.9L40,96.2V95l2.7,0.4L42.8,95.9z"/>
<path class="st3" d="M86.3,76.4l-2.9,1l-0.2-0.5l2.8-1.3L86.3,76.4z"/>
<path class="st3" d="M74.1,58.9c0.8-1.8,2.3-3.2,4.2-3.8C77.4,56.9,75.9,58.2,74.1,58.9z"/>
<path class="st3" d="M65.8,71.6h-2.5C63.6,70.3,63.9,70.3,65.8,71.6z"/>
<g class="st1">
	<path class="st2" d="M130.1,255.1v0.8h3.3v1.4h-3.3v1.8h-1.9v-5.5h5.9v1.4H130.1z"/>
	<path class="st2" d="M134.8,259.2v-5.8h1.9v5.8H134.8z"/>
	<path class="st2" d="M140.5,258.1c0.7,0,1-0.2,1.4-0.4l0.9,0.9c-0.6,0.6-1.5,0.8-2.4,0.8c-1.9,0-3-0.9-3-2.4c0-1.5,1.1-2.4,2.9-2.4
		c1.6,0,2.8,0.8,2.8,2.3c0,0.2,0,0.3-0.1,0.4h-3.8C139.3,257.9,139.8,258.1,140.5,258.1z M139.2,256.5l2.2,0
		c-0.2-0.4-0.5-0.6-1.1-0.6C139.8,255.8,139.4,256,139.2,256.5z"/>
	<path class="st2" d="M149.2,254.8v4.4h-1.9v-0.6c-0.4,0.5-1,0.8-1.7,0.8c-1.2,0-1.9-0.8-1.9-1.9v-2.6h1.9v2.5
		c0,0.4,0.3,0.7,0.7,0.7c0.4,0,0.7-0.2,1-0.6v-2.6H149.2z"/>
</g>
<g class="st1">
	<path class="st2" d="M150.2,259.2v-4.4h1.9v0.7c0.4-0.6,1-0.8,1.7-0.8v1.5c-0.9,0-1.5,0.3-1.7,1v2H150.2z"/>
</g>
<g class="st1">
	<path class="st2" d="M159.4,257.8c0,0.9-0.8,1.6-2.6,1.6c-1.2,0-2.2-0.3-2.8-0.8l0.8-0.9c0.5,0.3,1.2,0.6,2.1,0.6
		c0.5,0,0.8-0.1,0.8-0.3c0-0.2-0.3-0.3-1-0.3c-1.3-0.1-2.5-0.5-2.5-1.5c0-0.9,1-1.6,2.6-1.6c1,0,1.9,0.2,2.5,0.6l-0.8,1
		c-0.4-0.3-1-0.4-1.7-0.4c-0.4,0-0.9,0-0.9,0.3c0,0.2,0.3,0.2,1,0.3C158.3,256.4,159.4,256.8,159.4,257.8z"/>
</g>
<g class="st1">
	<path class="st2" d="M127.8,261.7c0.3,0,0.6,0,0.9,0.1s0.6,0.2,0.9,0.4v1c-0.3-0.2-0.6-0.3-0.9-0.4c-0.3-0.1-0.6-0.1-0.9-0.1
		c-0.4,0-0.7,0.1-1,0.2c-0.3,0.2-0.5,0.4-0.7,0.7c-0.2,0.3-0.3,0.6-0.3,1c0,0.4,0.1,0.7,0.3,1c0.2,0.3,0.4,0.5,0.7,0.7
		c0.3,0.2,0.7,0.2,1,0.2c0.3,0,0.6,0,0.8-0.1c0.3-0.1,0.6-0.2,1-0.5v1c-0.3,0.2-0.7,0.3-1,0.4c-0.3,0.1-0.6,0.1-1,0.1
		c-0.6,0-1.1-0.1-1.5-0.3s-0.8-0.6-1.1-1c-0.3-0.4-0.4-0.9-0.4-1.4c0-0.5,0.1-1,0.4-1.5s0.6-0.8,1.1-1
		C126.7,261.9,127.2,261.7,127.8,261.7z"/>
	<path class="st2" d="M132.2,263.5c0.5,0,0.9,0.2,1.3,0.5s0.5,0.8,0.5,1.4v0.1h-2.5c0,0.3,0.2,0.6,0.4,0.7c0.2,0.2,0.5,0.3,0.8,0.3
		c0.2,0,0.4,0,0.7-0.1s0.4-0.2,0.6-0.4v0.7c-0.4,0.3-0.9,0.4-1.5,0.4c-0.6,0-1-0.2-1.4-0.5c-0.4-0.3-0.5-0.8-0.5-1.4
		c0-0.5,0.2-1,0.5-1.3S131.7,263.5,132.2,263.5z M133,265c0-0.3-0.1-0.5-0.2-0.6c-0.1-0.1-0.3-0.2-0.6-0.2c-0.2,0-0.4,0.1-0.6,0.2
		c-0.1,0.1-0.2,0.3-0.3,0.6H133z"/>
	<path class="st2" d="M136.7,263.5c0.4,0,0.7,0.1,0.9,0.4c0.2,0.3,0.3,0.6,0.3,1v2.3H137V265c0-0.2-0.1-0.4-0.2-0.6
		c-0.1-0.1-0.3-0.2-0.5-0.2c-0.1,0-0.3,0-0.4,0.1s-0.3,0.2-0.4,0.4v2.4h-0.9v-3.6h0.9v0.5c0.2-0.2,0.4-0.4,0.5-0.4
		S136.5,263.5,136.7,263.5z"/>
	<path class="st2" d="M139.9,262.6L139.9,262.6l0.1,1h1.2v0.7H140v1.7c0,0.2,0,0.3,0.1,0.4c0.1,0.1,0.2,0.2,0.4,0.2
		c0.2,0,0.5-0.1,0.8-0.2v0.8c-0.3,0.2-0.7,0.2-1,0.2c-0.4,0-0.7-0.1-0.9-0.3c-0.2-0.2-0.3-0.5-0.3-0.9v-1.7h-0.6v-0.2L139.9,262.6z"
		/>
	<path class="st2" d="M143.1,263.5c0.5,0,0.8,0.1,1.1,0.3c0.2,0.2,0.4,0.5,0.4,0.8v1.8c0,0.1,0.1,0.2,0.2,0.2c0,0,0.1,0,0.2-0.1
		c0.1,0,0.2-0.1,0.2-0.1v0.5c-0.3,0.2-0.6,0.3-0.9,0.3c-0.2,0-0.3,0-0.4-0.1c-0.1-0.1-0.2-0.2-0.2-0.3c-0.4,0.3-0.7,0.4-1.1,0.4
		c-0.3,0-0.5-0.1-0.7-0.3c-0.2-0.2-0.3-0.4-0.3-0.6c0-0.3,0.1-0.6,0.3-0.7s0.5-0.3,1-0.5l0.8-0.2v-0.2c0-0.4-0.2-0.5-0.6-0.5
		c-0.2,0-0.4,0-0.7,0.2c-0.2,0.1-0.4,0.2-0.6,0.4V264C142.1,263.7,142.6,263.5,143.1,263.5z M142.5,266.2c0,0.1,0,0.2,0.1,0.3
		c0.1,0.1,0.2,0.1,0.3,0.1c0.2,0,0.4-0.1,0.6-0.3v-0.9c-0.3,0.1-0.5,0.2-0.6,0.3c-0.1,0.1-0.3,0.2-0.3,0.2
		C142.6,266,142.5,266.1,142.5,266.2z"/>
	<path class="st2" d="M146.5,263.6v2.2c0,0.2,0.1,0.4,0.2,0.5c0.1,0.1,0.3,0.2,0.5,0.2c0.2,0,0.3,0,0.5-0.1c0.1-0.1,0.3-0.2,0.4-0.4
		v-2.4h0.9v3.6H148v-0.5c-0.3,0.4-0.7,0.6-1.1,0.6c-0.4,0-0.7-0.1-0.9-0.4c-0.2-0.3-0.4-0.6-0.4-1v-2.3H146.5z"/>
</g>
<g class="st1">
	<path class="st2" d="M151.9,263.5c0.1,0,0.2,0,0.4,0.1s0.3,0.2,0.4,0.3l-0.3,0.8c-0.3-0.2-0.5-0.3-0.7-0.3c-0.1,0-0.3,0.1-0.4,0.2
		c-0.1,0.1-0.3,0.3-0.3,0.4s-0.1,0.4-0.1,0.5v1.6h-0.9v-3.6h0.9v0.9h0c0.2-0.3,0.3-0.6,0.5-0.8C151.5,263.6,151.7,263.5,151.9,263.5
		z"/>
</g>
<g class="st1">
	<path class="st2" d="M154.6,263.5c0.5,0,0.9,0.2,1.3,0.5s0.5,0.8,0.5,1.4v0.1h-2.5c0,0.3,0.2,0.6,0.4,0.7c0.2,0.2,0.5,0.3,0.8,0.3
		c0.2,0,0.4,0,0.7-0.1c0.2-0.1,0.4-0.2,0.6-0.4v0.7c-0.4,0.3-0.9,0.4-1.5,0.4c-0.6,0-1-0.2-1.4-0.5s-0.5-0.8-0.5-1.4
		c0-0.5,0.2-1,0.5-1.3C153.6,263.7,154.1,263.5,154.6,263.5z M155.4,265c0-0.3-0.1-0.5-0.2-0.6c-0.1-0.1-0.3-0.2-0.5-0.2
		c-0.2,0-0.4,0.1-0.6,0.2c-0.1,0.1-0.2,0.3-0.3,0.6H155.4z"/>
	<path class="st2" d="M158.4,263.5c0.5,0,0.8,0.1,1.1,0.3c0.2,0.2,0.4,0.5,0.4,0.8v1.8c0,0.1,0.1,0.2,0.2,0.2c0,0,0.1,0,0.2-0.1
		s0.2-0.1,0.2-0.1v0.5c-0.3,0.2-0.6,0.3-0.9,0.3c-0.2,0-0.3,0-0.4-0.1s-0.2-0.2-0.2-0.3c-0.4,0.3-0.7,0.4-1.1,0.4
		c-0.3,0-0.5-0.1-0.7-0.3c-0.2-0.2-0.3-0.4-0.3-0.6c0-0.3,0.1-0.6,0.3-0.7s0.5-0.3,1-0.5l0.8-0.2v-0.2c0-0.4-0.2-0.5-0.6-0.5
		c-0.2,0-0.4,0-0.7,0.2c-0.2,0.1-0.4,0.2-0.6,0.4V264C157.4,263.7,157.8,263.5,158.4,263.5z M157.8,266.2c0,0.1,0,0.2,0.1,0.3
		c0.1,0.1,0.2,0.1,0.3,0.1c0.2,0,0.4-0.1,0.6-0.3v-0.9c-0.3,0.1-0.5,0.2-0.6,0.3c-0.2,0.1-0.3,0.2-0.3,0.2S157.8,266.1,157.8,266.2z
		"/>
	<path class="st2" d="M164.8,263.5c0.4,0,0.8,0.1,1.1,0.2v0.8c-0.3-0.2-0.7-0.3-1-0.3c-0.3,0-0.6,0.1-0.8,0.3
		c-0.2,0.2-0.3,0.5-0.3,0.8c0,0.3,0.1,0.6,0.3,0.8s0.5,0.3,0.8,0.3c0.3,0,0.6-0.1,1-0.3v0.8c-0.4,0.2-0.8,0.2-1.2,0.2
		c-0.6,0-1.1-0.2-1.4-0.5c-0.4-0.3-0.5-0.8-0.5-1.3c0-0.6,0.2-1,0.5-1.4S164.2,263.5,164.8,263.5z"/>
	<path class="st2" d="M167.3,263.6l0.9,1.9l0.9-1.9h1l-2.5,5.4h-1l1.1-2.5l-1.4-2.9H167.3z"/>
	<path class="st2" d="M171.8,263.5c0.5,0,0.8,0.1,1.1,0.3c0.2,0.2,0.4,0.5,0.4,0.8v1.8c0,0.1,0.1,0.2,0.2,0.2c0,0,0.1,0,0.2-0.1
		s0.2-0.1,0.2-0.1v0.5c-0.3,0.2-0.6,0.3-0.9,0.3c-0.2,0-0.3,0-0.4-0.1s-0.2-0.2-0.2-0.3c-0.4,0.3-0.7,0.4-1.1,0.4
		c-0.3,0-0.5-0.1-0.7-0.3c-0.2-0.2-0.3-0.4-0.3-0.6c0-0.3,0.1-0.6,0.3-0.7s0.5-0.3,1-0.5l0.8-0.2v-0.2c0-0.4-0.2-0.5-0.6-0.5
		c-0.2,0-0.4,0-0.7,0.2c-0.2,0.1-0.4,0.2-0.6,0.4V264C170.8,263.7,171.2,263.5,171.8,263.5z M171.2,266.2c0,0.1,0,0.2,0.1,0.3
		c0.1,0.1,0.2,0.1,0.3,0.1c0.2,0,0.4-0.1,0.6-0.3v-0.9c-0.3,0.1-0.5,0.2-0.6,0.3c-0.2,0.1-0.3,0.2-0.3,0.2S171.2,266.1,171.2,266.2z
		"/>
	<path class="st2" d="M176.4,263.5c0.4,0,0.7,0.1,0.9,0.4c0.2,0.3,0.3,0.6,0.3,1v2.3h-0.9V265c0-0.2-0.1-0.4-0.2-0.6
		s-0.3-0.2-0.5-0.2c-0.1,0-0.3,0-0.4,0.1c-0.1,0.1-0.3,0.2-0.4,0.4v2.4h-0.9v-3.6h0.9v0.5c0.2-0.2,0.4-0.4,0.5-0.4
		S176.1,263.5,176.4,263.5z"/>
	<path class="st2" d="M179.4,263.6v2.2c0,0.2,0.1,0.4,0.2,0.5c0.1,0.1,0.3,0.2,0.5,0.2c0.2,0,0.3,0,0.5-0.1c0.1-0.1,0.3-0.2,0.4-0.4
		v-2.4h0.9v3.6h-0.9v-0.5c-0.3,0.4-0.7,0.6-1.1,0.6c-0.4,0-0.7-0.1-0.9-0.4c-0.2-0.3-0.4-0.6-0.4-1v-2.3H179.4z"/>
	<path class="st2" d="M184,263.5c0.2,0,0.4,0,0.6,0.1s0.4,0.1,0.6,0.2v0.8c-0.2-0.1-0.4-0.2-0.6-0.3c-0.2-0.1-0.4-0.1-0.5-0.1
		c-0.1,0-0.2,0-0.3,0.1c-0.1,0.1-0.1,0.1-0.1,0.2c0,0.1,0,0.1,0.1,0.2c0.1,0.1,0.2,0.2,0.5,0.3c0.4,0.2,0.7,0.4,0.9,0.6
		c0.2,0.2,0.2,0.4,0.2,0.6c0,0.3-0.1,0.6-0.4,0.8c-0.2,0.2-0.6,0.3-1,0.3c-0.3,0-0.5,0-0.7-0.1c-0.2-0.1-0.4-0.1-0.6-0.2v-0.8
		c0.5,0.3,0.9,0.4,1.2,0.4c0.2,0,0.3,0,0.4-0.1s0.2-0.1,0.2-0.2c0-0.1,0-0.1-0.1-0.2c0,0-0.1-0.1-0.2-0.1s-0.3-0.2-0.7-0.3
		c-0.3-0.1-0.5-0.3-0.6-0.5c-0.1-0.2-0.2-0.4-0.2-0.6c0-0.3,0.1-0.6,0.4-0.8C183.2,263.6,183.5,263.5,184,263.5z"/>
</g>
<path d="M55.7,15.7c0,0.1,0,0.1-0.1,0.2s0,0.1,0,0.2s-0.1,0.1-0.1,0s-0.2-0.4-0.2-0.6s0-0.2,0.2-0.2c0.2,0,0.4,0,0.6,0h0.3l1.4,0
	l1.3,0h0.8c0.1,0,0.2,0,0.3,0c0.3-0.1,0.6,0,0.8,0.1l1,0.5c0.3,0.1,0.4,0.3,0.5,0.5c0,0.1,0,0.2,0.1,0.3c0,0.1,0,0.2,0,0.2
	c0,0.1,0,0.2,0.2,0.3s0.2,0.1,0.1,0.3c-0.1,0.3,0,0.6,0.1,0.9c0,0.1,0,0.1,0,0.2c-0.1,0.3-0.3,0.5-0.5,0.7c0,0,0,0-0.1,0
	c-0.4,0.2-0.8,0.4-1.2,0.5c-0.2,0-0.5,0.1-0.7,0.1c-0.2,0-0.6,0-0.9,0h-1.1c-0.1,0-0.2,0-0.3,0c-0.3,0.1-0.7,0.2-1,0.1
	c-0.3,0-0.5,0-0.8,0h-0.2c-0.1,0-0.2-0.1-0.2-0.2c0-0.7-0.1-1.3-0.1-2c0-0.3,0-0.5-0.1-0.8c0-0.3,0-0.5,0-0.8
	C55.8,16.1,55.8,16,55.7,15.7L55.7,15.7z M56.6,17.1L56.6,17.1c0.1-0.1,0-0.2-0.1-0.2c-0.1-0.1-0.2-0.3-0.1-0.5s0-0.1,0-0.1
	c-0.1,0.1-0.2,0.3-0.2,0.5c0,0.2,0,0.4,0.1,0.5l0.3,0.1L56.6,17.1z M58.4,16.5c-0.4,0-0.5,0.1-0.6,0.4c0,0.3,0,0.7,0.2,1
	c0,0.2,0.2,0.3,0.4,0.2c0,0,0.1,0,0.1,0c0.3-0.1,0.6-0.1,0.9-0.1c0.2,0,0.4-0.1,0.7-0.1c0.2-0.1,0.3-0.3,0.2-0.5c0,0,0-0.1-0.1-0.1
	c0,0-0.1-0.1-0.1-0.1c-0.1-0.2-0.3-0.4-0.6-0.4l-1-0.1L58.4,16.5z M56.4,18c0,0.1-0.1,0.1-0.1,0.2c0,0,0.1,0,0.2,0
	c0.1,0,0.1-0.1,0.2-0.1V18h0.3c-0.1,0-0.1,0-0.2-0.1c0,0-0.1,0-0.1-0.1c0-0.1,0-0.2-0.1-0.3c0,0-0.1-0.1-0.2-0.1s-0.2,0-0.2,0.1
	S56.1,17.9,56.4,18L56.4,18z M59.4,15.7c0-0.2-0.1-0.3-0.3-0.3C59,15.7,59.3,15.6,59.4,15.7L59.4,15.7z M59.8,15.6
	c-0.2,0-0.2,0-0.3,0c0.1,0,0.1,0.1,0.1,0.1C59.7,15.7,59.8,15.6,59.8,15.6L59.8,15.6z M58.7,15.7c0-0.2,0-0.2-0.2-0.2L58.7,15.7z
	 M56.7,18.4c-0.1-0.1-0.1-0.1-0.2-0.1C56.5,18.4,56.6,18.5,56.7,18.4L56.7,18.4z M56.7,17.5L56.7,17.5L56.7,17.5L56.7,17.5
	L56.7,17.5z"/>
<path d="M53.1,16.6c-1.2-0.3-2.4-0.3-3.6-0.2c0.1,0.2,0.3,0.3,0.5,0.3c0.3,0,0.7,0,1,0c0.6-0.1,1.1-0.1,1.7-0.1
	c0.2,0,0.3,0.1,0.3,0.4c-0.1,0.3-0.2,0.6-0.3,0.9c-0.1,0.1-0.3,0.2-0.4,0.2c-0.3,0-0.5,0-0.8-0.1c-0.2-0.1-0.5-0.1-0.7,0H50h-0.2
	c0,0,0,0.1,0,0.1c0.1,0.3,0.1,0.3,0.4,0.2c0.2-0.1,0.4-0.1,0.7-0.1c0.4,0,0.8,0,1.2,0h0.7c0.1,0,0.1,0,0.2,0c0.1,0,0.2,0,0.2,0
	c0.3,0,0.3-0.1,0.3-0.4s0-0.2,0.1-0.4c0.1,0.1,0.1,0.2,0.1,0.4c0,0.2,0,0.4,0.1,0.6c0.1,0.3,0.1,0.6,0.1,1c0,0.1,0,0.3,0.1,0.4
	c0,0,0.1,0.1,0.1,0.1c0.1,0.2,0,0.4-0.2,0.4c-0.1,0-0.1,0-0.2,0c-0.2-0.1-0.4-0.1-0.6,0c-0.1,0-0.2,0-0.3,0l-0.4-0.1l1-0.1
	c0-0.2,0-0.2-0.2-0.2c-0.8,0-1.6,0-2.4,0c-0.2,0-0.4,0-0.6-0.1c0,0-0.1,0-0.1,0h-1.3c-0.1,0-0.2,0-0.2,0c0,0.1-0.1,0.1-0.2,0.1
	c0,0,0,0,0,0c-0.1,0-0.2-0.1-0.2-0.3c0-0.1,0-0.3,0-0.4s0-0.2,0-0.4c-0.1-0.3-0.1-0.6-0.1-0.9c0-0.2,0-0.4-0.1-0.6
	c-0.1-0.3-0.1-0.7-0.1-1c0-0.2,0-0.4,0-0.6s0-0.4,0-0.6s0.2-0.3,0.3-0.2c0.2,0.1,0.4,0.2,0.6,0.1c0.2,0,0.3,0,0.5,0
	c0.2,0,0.4,0.1,0.6,0.1l1.9,0.2c0.3,0,0.7,0,1,0h0.6c0.1,0,0.2,0.1,0.2,0.2c0,0,0,0,0,0C53.4,15.8,53.3,16.3,53.1,16.6z M48.6,18.7
	L48.6,18.7c0,0-0.1,0-0.2-0.1s0-0.1,0-0.2s-0.1,0-0.1,0c0,0.1,0,0.1,0,0.2L48.6,18.7z M48.4,19.6c0.2-0.1,0-0.3,0.1-0.4
	C48.4,19.3,48.4,19.5,48.4,19.6C48.4,19.6,48.4,19.6,48.4,19.6z M48.7,18.9L48.7,18.9c-0.1,0-0.1,0-0.2,0c0,0-0.1,0.1-0.1,0.1
	c0,0,0.1,0.1,0.1,0.1V19L48.7,18.9z M48.6,18.1L48.4,18C48.4,18.2,48.4,18.2,48.6,18.1z"/>
<path d="M26.4,19.7c0-0.1,0-0.2,0-0.3c0-0.4,0-0.9,0-1.3c0-0.1,0-0.2-0.1-0.2c-0.1-0.2-0.2-0.2-0.4-0.1s-0.2,0.2-0.3,0.3
	c-0.3,0.2-0.6,0.5-0.9,0.7c-0.2,0.1-0.4,0.2-0.6,0.2c-0.1,0-0.1,0-0.2-0.1c-0.1-0.1-0.1-0.2-0.2-0.3c-0.1-0.2-0.2-0.3-0.3-0.5
	c0-0.1-0.1-0.1-0.1-0.2c0-0.3-0.2-0.4-0.3-0.6l0,0c0,0,0,0.1,0,0.1c0,0.2,0,0.3-0.1,0.5c-0.1,0.2-0.1,0.4,0,0.6c0,0.3,0,0.6,0,0.8
	c0,0.1,0,0.2,0,0.3c0,0.1,0,0.2-0.1,0.2c0,0,0,0,0,0c-0.3,0.1-0.7,0.1-1,0.1c-0.2,0-0.2-0.1-0.2-0.2s0-0.5,0-0.8c0-0.3,0-0.5,0-0.8
	c0-0.3-0.1-0.5-0.1-0.8c0-0.5,0-1.1-0.1-1.6v-0.2h0.2l1.3,0c0.2,0,0.3,0.1,0.4,0.2c0.1,0.2,0.3,0.3,0.3,0.5c0,0,0.1,0.1,0.1,0.1
	s0.1,0,0.1,0.1c0.1,0.2,0.2,0.4,0.4,0.5c0,0.1,0.1,0.1,0.1,0.2c0.1,0,0.1,0,0.2-0.1c-0.1,0-0.1-0.1-0.2-0.1
	c-0.1-0.1-0.1-0.2-0.2-0.2c0-0.1,0-0.2,0-0.2c0,0,0,0,0,0c0.1,0,0.2,0,0.2,0c0,0,0,0,0,0c0,0.1,0.1,0.1,0.1,0.2c0,0.1,0,0.1,0.1,0.2
	c0.1-0.1,0.1-0.1,0.2-0.2c0.1-0.1,0.2-0.2,0.2-0.2c0.3-0.2,0.6-0.4,0.8-0.6c0.1-0.2,0.3-0.4,0.4-0.5l2-0.1c0,0.2,0,0.3,0,0.5
	l-0.1,0.9c0,0.1,0,0.2-0.1,0.3c-0.1,0.4-0.1,0.8-0.1,1.2c-0.1,0.5-0.1,1-0.1,1.5v0.2c0,0.2-0.1,0.2-0.3,0.2L26.4,19.7L26.4,19.7z
	 M22,17.3c-0.1,0.1-0.2,0.1-0.2,0.2h0.3L22,17.3z M21.9,18c0.1-0.1,0.1-0.2,0-0.3C21.9,17.8,21.9,17.9,21.9,18z M22.3,18.1
	L22.3,18.1L22,18.2C22.1,18.2,22.2,18.1,22.3,18.1z M26.8,16.4L26.8,16.4L26.8,16.4h-0.2v0.1L26.8,16.4z M27,15.9L27,15.9
	c-0.1-0.1-0.1-0.1-0.2-0.1L27,15.9z M22,17.2L22,17.2l0.1-0.1l0,0L22,17.2z M23.3,16.7l0.1,0.1l0.1,0c0,0,0,0-0.1-0.1L23.3,16.7z"/>
<path d="M43.9,16.5c-0.1,0.1-0.1,0.2-0.3,0.1c-0.1-0.1-0.1,0-0.1,0l-0.3,0.2c-0.1,0-0.2,0.1-0.2,0.2c0,0.2,0,0.5,0,0.7
	c0,0.2,0.1,0.4,0.3,0.5c0.3,0.3,0.7,0.4,1.1,0.3c0.3-0.1,0.5-0.2,0.7-0.4c0.1-0.2,0.4-0.2,0.6-0.1c0.2,0.1,0.4,0.1,0.6,0.1
	c0.1,0,0.1,0,0.2,0l0.6,0.4c0.1,0,0.1,0.1,0.1,0.2c0,0,0,0,0,0c-0.1,0.2-0.1,0.3-0.3,0.4s-0.1,0.1-0.1,0.2c-0.1,0.3-0.2,0.3-0.5,0.3
	h-0.1l-0.5,0.2c-0.1,0-0.1,0.1-0.2,0.1c-0.1,0.2-0.1,0.2-0.2,0l0,0c-0.1,0-0.2,0.1-0.2,0.3h-0.1c-0.6,0-1.2,0-1.7-0.1
	c-0.1,0-0.2-0.1-0.3-0.2c-0.2-0.1-0.3-0.3-0.5-0.4c-0.3-0.1-0.6-0.3-0.8-0.6c0,0,0-0.1-0.1-0.1c-0.1-0.3-0.2-0.5-0.3-0.8v-0.1
	c-0.3-0.4-0.3-0.9-0.1-1.4c0.1-0.2,0.1-0.4,0.2-0.6s0.3-0.4,0.6-0.4c0.2,0,0.3,0,0.5-0.1c0.6-0.1,1.1-0.3,1.7-0.5
	c0.3-0.1,0.6-0.1,0.9-0.1c0.2,0,0.4,0,0.6,0.1l1.1,0.3c0.2,0.1,0.4,0.2,0.5,0.3c0.1,0.2,0.2,0.4,0.1,0.5c0,0,0,0.1-0.1,0.1
	c-0.2,0.1-0.4,0.2-0.6,0.3c-0.1,0-0.2,0.1-0.3,0.2c-0.1,0.2-0.3,0.3-0.5,0.5c-0.1,0.1-0.2,0.1-0.2,0c-0.1-0.1-0.3-0.2-0.4-0.3
	c-0.1,0-0.1-0.1-0.2-0.1l-0.8-0.2L43.9,16.5z M42.5,19.4l-0.2-0.2c-0.1-0.1-0.1-0.1-0.2,0L42.5,19.4L42.5,19.4z M41.5,17.1
	c-0.1,0-0.1,0.1-0.2,0.1c0,0,0.1,0.1,0.1,0.1S41.5,17.2,41.5,17.1L41.5,17.1z M42,18.3l-0.3-0.1l0.1,0.2
	C41.8,18.5,41.9,18.4,42,18.3C42,18.3,42,18.3,42,18.3L42,18.3z M41.6,17.7c0.2,0,0.2,0,0.3,0C41.8,17.6,41.8,17.6,41.6,17.7
	L41.6,17.7z M42.6,19.4c0.1,0.2,0.1,0.2,0.2,0.1L42.6,19.4z M41.5,16.8c0.1-0.2,0.1-0.2,0-0.2V16.8z M41.6,17.5L41.6,17.5l-0.1-0.1
	c0,0,0,0,0,0.1L41.6,17.5z M42.6,15.6L42.6,15.6l-0.1-0.1v0L42.6,15.6z M43,15.5C43,15.5,42.9,15.6,43,15.5c-0.1,0.1-0.1,0.1,0,0.2
	c0.1,0.1,0,0,0-0.1S43,15.6,43,15.5L43,15.5z M42,18.9L42,18.9V19l0,0V18.9z M43.1,19.7L43.1,19.7h0.1
	C43.3,19.7,43.2,19.7,43.1,19.7C43.2,19.7,43.2,19.7,43.1,19.7z"/>
<path d="M65.3,17.9c0,0.1,0,0.2,0,0.3s0,0.3,0.2,0.4c0,0,0.1,0,0.1,0.1c0.1,0.1,0.2,0.1,0.3,0c0.1,0,0.1,0,0.2,0l1.8-0.2
	c0.1,0,0.2,0,0.3,0c0.3,0,0.5,0,0.8-0.1l0.3,0c0,0.1,0,0.2,0,0.4s0,0.4,0,0.6c0,0.2,0,0.3-0.2,0.4c-0.1,0.1-0.3,0.2-0.5,0.2
	c-0.2,0-0.4,0-0.5,0s-0.3,0-0.5,0h-0.5h-1.1c-0.5,0-1,0.1-1.5,0.1c-0.2,0-0.3,0.1-0.5,0c0.1-0.3,0.1-0.7,0-1c0-0.4-0.1-0.8-0.2-1.2
	c-0.1-0.4-0.1-0.7-0.1-1c0-0.1,0-0.2-0.1-0.3c-0.1-0.3-0.2-0.6-0.2-0.9c0-0.1,0-0.2,0-0.3c0-0.2,0-0.2,0.2-0.3
	c0.2-0.1,0.4-0.1,0.6-0.1c0.8,0,1.6-0.1,2.4-0.1c0.4,0,0.8,0,1.3,0h1c0,0.1,0.1,0.2,0.1,0.4c0,0.2,0.1,0.4,0.1,0.6
	c0,0.1-0.1,0.3-0.2,0.3c0,0-0.1,0-0.1,0c-0.2,0-0.3,0-0.5,0l-0.6,0l-0.7-0.1L65.9,16c-0.4,0-0.8,0.1-1.2,0.1c0,0.1,0.1,0.3,0.1,0.4
	c0.1,0.1,0.2,0.2,0.3,0.2l1.5-0.1c0.5,0,1,0,1.5,0c0.1,0,0.2,0,0.4,0.1c0,0.4,0,0.7,0,1.1l-0.2,0.2c-0.1,0.1-0.3,0.1-0.4,0
	c-0.2-0.2-0.5-0.2-0.8-0.2c-0.4,0-0.8,0.1-1.2,0.1h-0.4L65.3,17.9z M68.1,18.9c-0.1-0.1-0.2,0-0.3,0l0,0H68.1c0.1,0,0.1,0.1,0.2,0.1
	S68.1,18.9,68.1,18.9z M68.4,19.1c0.1,0.1,0.2,0.2,0.3,0C68.6,19.2,68.4,19.2,68.4,19.1L68.4,19.1z M67.4,19.1L67.4,19.1
	C67.4,19.1,67.4,19.1,67.4,19.1h0.2l0,0H67.4z M67.7,19.3L67.7,19.3L67.7,19.3L67.7,19.3L67.7,19.3z M68.1,19.4
	C68.1,19.4,68.1,19.4,68.1,19.4L68.1,19.4L68.1,19.4C68.1,19.4,68.2,19.4,68.1,19.4L68.1,19.4z"/>
<path d="M25.9,27.7c0-0.1,0-0.2,0.1-0.3s0-0.1,0.1-0.1c0.1-0.1,0.2-0.3,0.3-0.4c0.1-0.2,0.2-0.2,0.4-0.2c0.4,0.1,0.8,0.2,1.1,0.3
	c0.4,0.1,0.9,0.1,1.3,0c0.1,0,0.1,0,0.2-0.1s-0.1-0.1-0.1-0.1s-0.4-0.1-0.6-0.1c-0.4-0.1-0.7-0.2-1.1-0.4c-0.3-0.1-0.6-0.3-0.9-0.4
	c-0.3-0.1-0.4-0.4-0.4-0.6c0-0.1,0.1-0.1,0.1-0.2c0.1-0.2,0.2-0.4,0.2-0.6c0-0.1,0-0.2,0.1-0.3c0-0.1,0.1-0.2,0.2-0.3
	c0.1-0.2,0.4-0.4,0.7-0.4c0.5-0.1,0.9-0.1,1.4,0l1.2,0.1c0.2,0,0.3,0,0.5,0.1l0.9,0.2h0.1c0.1,0,0.2,0.1,0.2,0.2
	c0,0.1-0.1,0.2-0.2,0.2c-0.1,0.1-0.2,0.2-0.4,0.3l-1-0.1c-0.1,0-0.2,0-0.3,0c-0.3,0-0.6,0-0.9,0c-0.2,0-0.5,0.1-0.6,0.2
	c-0.1,0-0.1,0.1-0.1,0.2c0,0.1,0.1,0.1,0.2,0.2c0.2,0,0.4,0.1,0.5,0.1h0.1c0.2,0,0.4,0.1,0.4,0.2c0,0,0.1,0.1,0.1,0.1
	c0,0,0.1-0.1,0.1-0.1c0.2-0.3,0.5-0.4,0.8-0.2c0.2,0.1,0.3,0.2,0.5,0.3c0.2,0.2,0.5,0.4,0.7,0.5c0.2,0.1,0.3,0.3,0.3,0.5
	c0,0.5-0.1,0.9-0.5,1.2c-0.2,0.2-0.4,0.3-0.6,0.4c-0.1,0.1-0.3,0.1-0.4,0.2c-0.3,0.1-0.6,0.2-0.9,0.2c-0.4,0.1-0.8,0.1-1.1,0.1
	c-0.1,0-0.2,0-0.4,0c-0.3,0-0.6-0.1-0.8-0.3c-0.1,0-0.2-0.1-0.2-0.1l-0.8-0.1C26.1,27.9,26,27.8,25.9,27.7z"/>
<path d="M36.5,17.5c0,0.1-0.1,0.2-0.1,0.3c-0.1,0.4-0.1,0.9-0.2,1.3c0,0.1-0.1,0.3-0.2,0.4c-0.1,0.2-0.1,0.2-0.3,0.1l-0.4-0.1
	l-0.7-0.1c0,0,0-0.1,0-0.1c0-0.1,0-0.2,0-0.3c0-0.7,0-1.3,0-2c0-0.3,0-0.6,0-0.9c0-0.2,0-0.4,0-0.6c-0.1-0.2-0.1-0.4-0.1-0.5l0,0
	l0,0h1.9c0.1,0.2,0.2,0.3,0.4,0.4c0.2,0.1,0.4,0.3,0.6,0.5c0.1,0.1,0.2,0.1,0.2,0.1c0.2,0.1,0.3,0.2,0.3,0.4c0,0.2,0.2,0.3,0.4,0.4
	c0.2,0.1,0.2,0.1,0.2,0.2s0.1,0.1,0.1,0.1c0.1,0,0.2-0.1,0.2-0.2c0-0.1,0-0.2,0-0.4c0-0.1,0-0.2,0-0.3c0-0.1,0-0.3-0.1-0.4
	c0-0.1,0-0.1,0-0.2s0-0.1,0-0.2c0-0.2,0-0.4,0.2-0.5c0.3,0,0.7,0,1.1,0c0.1,0,0.2,0,0.3,0h0.1h0.8c0,0,0.1,0,0.1,0
	c0,0.1,0,0.2-0.1,0.2c-0.1,0.1-0.3,0.2-0.4,0.3c-0.1,0.1-0.1,0.1-0.3,0.1l-0.2-0.1c-0.1,0.1-0.1,0.3-0.1,0.4c0,0.2-0.1,0.5-0.1,0.8
	c0,0.1,0,0.2,0,0.4c0.1,0.4,0.1,0.8,0.1,1.3c0,0.4,0,0.9,0,1.4c0,0-0.1,0.1-0.2,0.1c-0.2,0-0.5,0-0.7,0c-0.1,0-0.2,0-0.3-0.1
	c-0.1-0.2-0.3-0.4-0.5-0.5c-0.2-0.1-0.4-0.3-0.5-0.5c-0.2-0.2-0.4-0.5-0.6-0.7c-0.1-0.1-0.3-0.2-0.4-0.2
	C36.8,17.6,36.6,17.6,36.5,17.5z M37.7,17.9L37.7,17.9l0.3,0.2l-0.1,0.1h0.2C38.2,18.1,38,18,38,18s0.1-0.2-0.1-0.3
	C37.9,17.8,37.9,17.9,37.7,17.9z M37.7,17.9c0-0.2,0-0.3-0.1-0.4c0,0.1-0.1,0.2-0.1,0.2S37.6,17.8,37.7,17.9L37.7,17.9z M36.9,17.1
	L36.9,17.1l0.3,0.1l0,0L36.9,17.1z M38.9,18.9c0,0.1,0,0.2,0.2,0.1s0,0,0-0.1L38.9,18.9z M35.4,18.6l-0.1-0.2
	C35.2,18.6,35.2,18.6,35.4,18.6L35.4,18.6z M37.2,17.4c0.1,0.1,0.1,0.1,0.2,0.1C37.4,17.4,37.4,17.4,37.2,17.4L37.2,17.4z
	 M39.5,18.1L39.5,18.1L39.5,18.1L39.5,18.1L39.5,18.1z M39.6,18.5L39.6,18.5l0.1,0l0,0L39.6,18.5z M38.1,17.4L38.1,17.4L38.1,17.4
	L38.1,17.4C38,17.4,38.1,17.4,38.1,17.4L38.1,17.4z M35.6,15.2L35.6,15.2L35.6,15.2L35.6,15.2C35.5,15.2,35.5,15.2,35.6,15.2
	L35.6,15.2z"/>
<path d="M32.1,16.4l-1.5-0.1c-0.2,0-0.3,0-0.3,0.2c0,0.2,0.1,0.4,0.3,0.4c0,0,0,0,0,0c0.1,0,0.3,0,0.4,0h2.2c0.3,0,0.4,0.2,0.3,0.5
	c0,0.1-0.1,0.3-0.2,0.4c-0.1,0.1-0.1,0.1-0.2,0.1c-0.2,0.1-0.5,0.1-0.7,0c-0.5,0-0.9,0-1.4,0h-0.1c-0.1,0-0.2,0.1-0.2,0.2
	c0,0.1,0.1,0.2,0.2,0.2c0.1,0,0.2,0,0.2,0c0.6,0,1.3,0,1.9-0.2c0.2,0,0.4-0.1,0.6-0.1c0.2,0,0.2,0,0.2,0.2c0,0.1,0,0.3-0.1,0.4
	c-0.1,0.1-0.1,0.2,0,0.2c0.1,0.1,0.1,0.2,0.1,0.3c0,0.1,0,0.2,0,0.4s-0.1,0.3-0.3,0.3c-0.3,0-0.5-0.1-0.8-0.1
	c-0.5-0.1-0.9-0.2-1.4-0.2c-0.6,0-1.1-0.1-1.7-0.2c-0.1,0-0.3,0-0.4,0c-0.2,0-0.2,0-0.3-0.2c-0.1-0.5-0.1-0.9-0.1-1.4
	c0-0.1,0-0.2,0.1-0.3c0,0,0-0.1,0-0.1c-0.1-0.4-0.1-0.8-0.1-1.2c0-0.1,0-0.3,0.1-0.4c0.1-0.1,0.1-0.2,0-0.3
	c-0.1-0.1-0.1-0.2-0.1-0.3c0-0.1,0-0.2,0-0.2c0-0.1,0.1-0.1,0.1-0.1c0,0,0,0,0,0h0.5c0.5,0,0.9,0.1,1.4,0.1c0.2,0,0.5,0,0.7,0
	c0.7,0,1.3,0,2,0.1c0.4,0,0.5,0.2,0.4,0.5c0,0.1,0,0.2,0,0.2c0,0.2,0,0.3-0.3,0.3h-1.6V16.4z M29.4,16.7l0.1,0.4h0.2
	C29.5,16.9,29.7,16.7,29.4,16.7z M29.4,15.9c0-0.1-0.1-0.2-0.2-0.3C29.2,15.8,29.2,15.8,29.4,15.9L29.4,15.9z M29.5,17.5l0.3-0.1
	C29.6,17.3,29.5,17.3,29.5,17.5L29.5,17.5z M29.7,18.1L29.7,18.1h-0.1l0,0H29.7z"/>
<path d="M16,15.2c0.2,0,0.2,0,0.4,0.1c0.1,0,0.2,0,0.3,0c0.2-0.1,0.5-0.1,0.7-0.1c0.5,0,0.9,0,1.4,0h2.1H21c0,0,0,0.1-0.1,0.1
	c-0.2,0.1-0.2,0.4-0.2,0.6c0,0.2-0.2,0.3-0.3,0.3c-0.3,0-0.7,0-1,0c-0.4,0-0.8,0-1.2,0c-0.2,0-0.5,0-0.7,0h-0.2c0,0.4,0,0.4,0.4,0.4
	s0.7,0,1,0s0.8,0,1.2,0c0.1,0,0.1,0,0.2,0c0,0.2,0,0.4,0,0.6s0,0.4,0,0.6s0,0.2-0.2,0.2h-0.2c-0.1,0-0.1,0-0.2,0l-1.1,0.1h-1.3
	l0.1,0.5h0.5l1.8-0.1c0.3,0,0.6,0,0.9,0s0.2,0,0.2,0.2c0,0.3,0,0.6,0,0.9c0,0.2,0,0.3-0.3,0.3c-0.6-0.1-1.3-0.1-1.9-0.1
	c-0.4,0-0.9,0-1.3,0h-1.1C16,19.3,16,18.6,16,17.9c0.2,0,0.3-0.1,0.3-0.3s0-0.2-0.1-0.2c-0.1,0-0.2-0.2-0.2-0.4s0.1-0.6,0.1-0.9
	c0-0.1,0-0.1,0-0.2C16,15.6,16,15.4,16,15.2z M16.3,16.4c-0.1-0.1-0.2,0-0.2,0.1s0,0.1,0.1,0.2L16.3,16.4z M16.6,16.9L16.6,16.9
	l-0.2,0l0,0L16.6,16.9z M16.7,16.6L16.7,16.6l0.2,0l0,0L16.7,16.6z"/>
<path d="M10.3,18.3l0.3,0.2c0.1,0.1,0.2,0.1,0.3,0.2c0.1,0.1,0.3,0.2,0.4,0.1c0.3,0,0.7,0,1,0h0.8c0.1,0,0.2,0,0.2-0.1
	c0.1-0.1,0.1-0.1,0.2-0.1c0.1-0.1,0.1-0.3,0.1-0.4l-0.2,0.1c-0.2,0.1-0.4,0.1-0.6-0.1c-0.1-0.1-0.2-0.1-0.3-0.1
	c-0.1,0-0.3,0-0.3,0.2h-0.1c-0.3,0.1-0.7,0.1-1,0h-0.1l-0.7-0.5c-0.1,0-0.1-0.1-0.1-0.2c-0.1-0.2-0.1-0.5-0.1-0.7
	c0-0.2,0.1-0.4,0.1-0.5c0.1-0.2,0.1-0.3,0.2-0.5c0-0.1,0.1-0.1,0.2-0.1c0.3-0.1,0.6-0.2,0.9-0.3c0.4-0.1,0.9-0.2,1.3-0.2
	c0.3,0,0.5-0.1,0.8-0.1c0.3,0,0.7,0,0.9,0.2c0.1,0.1,0.3,0.2,0.4,0.4c0.1,0.2,0,0.5-0.2,0.6c0,0-0.1,0-0.2,0.1c-0.2,0-0.4,0-0.6-0.1
	c-0.2,0-0.3-0.1-0.5-0.1c-0.2,0-0.4-0.1-0.4-0.3c-0.1,0.1-0.3,0.2-0.5,0.2c-0.2,0-0.4,0-0.6,0h-0.3c0,0.1,0,0.2-0.2,0.3
	s0,0.1,0.1,0.2c0.3,0.3,0.7,0.3,1.1,0.2c0.1,0,0.3,0,0.4,0c0.1,0,0.2,0.1,0.3,0.1c0.1,0,0.2,0,0.4,0c0.2,0,0.3,0,0.5,0
	c0.1,0,0.2,0,0.3,0.1c0.4,0.2,0.6,0.7,0.5,1.2c0,0.2,0,0.4,0,0.6c0,0.3-0.1,0.6-0.3,0.7l-0.1,0.1c-0.2,0.2-0.4,0.3-0.6,0.3
	c-0.5,0-1,0-1.5,0c-0.1,0-0.1,0-0.2,0s-0.3,0-0.4,0c-0.2,0-0.3,0-0.5,0c0,0-0.1,0-0.1,0s-0.2,0.1-0.4,0c-0.3-0.2-0.6-0.3-0.8-0.5
	C10,19.3,10,19.1,10,19C10.1,18.7,10.2,18.5,10.3,18.3z M12.6,15.3L12.6,15.3l-0.4,0.1l0,0L12.6,15.3z"/>
<path d="M21.7,28.1h-0.2c-0.2,0-0.5,0-0.7,0c-0.2,0-0.3,0-0.4,0.1c-0.2,0.1-0.4,0-0.5-0.2c-0.2-0.2-0.4-0.5-0.7-0.7
	c-0.1-0.1-0.2-0.1-0.3-0.1c-0.3,0-0.7,0-1,0h-0.3c-0.3,0-0.4,0.1-0.4,0.4c0,0.2-0.1,0.4-0.2,0.5c-0.1,0.1-0.3,0.1-0.4,0
	c-0.2-0.1-0.4-0.2-0.7-0.2c-0.2,0-0.3,0-0.5,0H15l0.2-0.5c0-0.1,0.1-0.1,0.1-0.2c0-0.2,0.1-0.3,0.3-0.4c0.3-0.3,0.6-0.6,0.8-1
	c0.2-0.4,0.5-0.8,0.7-1.3l0.4-0.8c0.2-0.3,0.2-0.3,0.6-0.3s0.5,0,0.8,0s0.3,0,0.4,0.3c0.1,0.4,0.3,0.8,0.6,1.2
	c0.1,0.2,0.2,0.5,0.4,0.7c0,0,0,0.1,0.1,0.1c0.2,0.4,0.4,0.8,0.6,1.2c0.1,0.1,0.1,0.3,0.4,0.3l0,0C21.4,27.6,21.7,27.7,21.7,28.1z
	 M18.1,25.7c0.1,0,0.1,0,0.2,0c0.1,0,0.1,0,0.2-0.1c0.1-0.1,0.1-0.3-0.1-0.4c-0.1-0.1-0.1-0.1-0.2-0.1C18,25.3,18,25.4,18,25.5
	C18,25.6,18,25.6,18.1,25.7z"/>
<path d="M14.4,23.6l-0.1-0.2c0.4,0,0.7,0.1,0.9,0.4c0.2,0.2,0.3,0.5,0.2,0.7c0,0.1,0,0.2,0,0.3c0.1,0.4-0.2,0.9-0.6,1
	c-0.1,0-0.1,0-0.1,0.1c-0.4,0.3-1,0.5-1.5,0.5c-0.4,0-0.8,0.1-1.1,0.1c0.1,0.3,0.1,0.3-0.2,0.4c0.1,0.2,0.1,0.5,0.1,0.8l0.2,0
	c0,0-0.1,0.1-0.1,0.1l-1.2-0.1c-0.2,0-0.4,0-0.6,0H10c0-0.3,0.1-0.6,0.2-0.9c0-0.2,0-0.4,0-0.6c0-0.4,0-0.9,0-1.3c0-0.1,0-0.2,0-0.3
	v-0.9c0-0.2,0-0.4,0.1-0.5h0.8c0.3,0,0.6,0,1,0l1.6,0.2C13.9,23.6,14.2,23.7,14.4,23.6z M11.9,24.6c-0.2,0.2-0.2,0.4-0.1,0.7
	c0,0.1,0.1,0.3,0.3,0.3c0,0,0,0,0,0c0.1,0,0.3,0,0.4,0c0.3-0.1,0.6-0.1,0.9-0.1c0.2,0,0.2,0,0.3-0.2s0-0.3-0.2-0.3
	c-0.2-0.1-0.4-0.1-0.6,0c-0.1,0.1-0.2,0.1-0.3,0c0,0,0-0.1,0-0.1c0-0.1-0.1-0.2-0.2-0.1L11.9,24.6z"/>
<path d="M24.8,28.4c-0.5,0.1-0.9,0.1-1.4,0c-0.3-0.1-0.6-0.1-0.9-0.2L22.3,28c0-0.1,0.1-0.2,0.2-0.2c0.2-0.1,0.2-0.3,0.2-0.4
	c0,0,0,0,0,0c-0.1-0.2-0.2-0.4-0.2-0.6c0-0.1,0-0.1,0-0.2c0-0.2,0-0.3-0.1-0.4c-0.1-0.1-0.1-0.2-0.2-0.2c-0.2-0.1-0.2-0.4-0.3-0.5
	l-0.5-0.5l-0.3-0.4c-0.1-0.1-0.3-0.3-0.4-0.4s-0.2-0.2-0.3-0.4c0.1,0,0.1-0.1,0.2-0.1l0.7-0.1c0.3,0,0.5,0,0.8,0s0.3,0.1,0.4,0.3
	c0.1,0.1,0.1,0.3,0.2,0.4l0.3,0.6c0.1,0.1,0.2,0.2,0.4,0.1c0,0,0,0,0.1,0c0.1-0.1,0.3-0.1,0.3-0.3c0-0.1,0.1-0.2,0.1-0.3
	c0.1-0.1,0.2-0.2,0.2-0.4c0-0.1,0.1-0.2,0.1-0.3c0-0.1,0.1-0.1,0.2-0.1c0.3-0.1,0.5,0,0.8,0.1c0.2,0.2,0.5,0.3,0.8,0.3
	c0.1,0,0.2,0.1,0.1,0.2c-0.2,0.3-0.4,0.6-0.6,1c-0.3,0.5-0.6,0.9-0.9,1.4c-0.1,0.1-0.1,0.2-0.2,0.4c0,0.2-0.1,0.4-0.1,0.6
	c-0.1,0.2,0,0.3,0.1,0.4C24.5,28,24.7,28.2,24.8,28.4z"/>
<path class="st4" d="M56.4,18c-0.2-0.1-0.2-0.3-0.2-0.5s0.1-0.2,0.2-0.1c0.1,0,0.1,0,0.2,0.1c0,0.1,0.1,0.2,0.1,0.3
	c0,0,0.1,0.1,0.1,0.1c0.1,0,0.1,0.1,0.2,0.1h-0.3V18c-0.1,0-0.1,0.1-0.2,0.1c-0.1,0-0.1,0.1-0.2,0S56.3,18.1,56.4,18z M56.5,17.8
	C56.5,17.8,56.5,17.8,56.5,17.8C56.5,17.9,56.5,17.9,56.5,17.8L56.5,17.8L56.5,17.8z M56.3,17.7C56.3,17.7,56.3,17.7,56.3,17.7
	C56.3,17.8,56.3,17.7,56.3,17.7L56.3,17.7L56.3,17.7z"/>
<path class="st4" d="M56.6,17.1v0.3l-0.3-0.1c0-0.2,0-0.4-0.1-0.5s0.1-0.3,0.2-0.5c0,0,0,0.1,0,0.1s0,0.3,0.1,0.5S56.7,17,56.6,17.1
	c-0.1-0.1-0.2,0-0.2,0.1C56.5,17.2,56.6,17.1,56.6,17.1z"/>
<path class="st4" d="M59.4,15.7c-0.1-0.1-0.4-0.1-0.3-0.3C59.2,15.4,59.4,15.6,59.4,15.7z"/>
<path class="st4" d="M59.8,15.6c-0.1,0.1-0.1,0.1-0.2,0.2c0,0-0.1-0.1-0.1-0.1C59.6,15.5,59.6,15.5,59.8,15.6z"/>
<path class="st4" d="M58.8,15.7l-0.2-0.2C58.7,15.4,58.8,15.5,58.8,15.7z"/>
<path class="st4" d="M56.7,18.4c-0.1,0.1-0.2,0-0.2-0.1C56.6,18.3,56.6,18.3,56.7,18.4z"/>
<path class="st4" d="M56.7,17.5L56.7,17.5L56.7,17.5L56.7,17.5L56.7,17.5z"/>
<path class="st4" d="M48.6,18.7h-0.3c0-0.1,0-0.1,0-0.2c0,0,0.1,0,0.1,0c0,0,0,0.1,0,0.2S48.5,18.7,48.6,18.7L48.6,18.7z"/>
<path class="st4" d="M48.4,19.6c-0.1-0.1,0-0.3,0.1-0.4c0,0,0,0,0,0C48.4,19.3,48.6,19.5,48.4,19.6z"/>
<path class="st4" d="M48.7,18.9h-0.2v0.1c-0.1,0-0.1-0.1-0.1-0.1c0,0,0.1,0,0.1,0C48.6,18.9,48.7,18.9,48.7,18.9L48.7,18.9z"/>
<path class="st4" d="M48.6,18.1c-0.2,0.1-0.2,0.1-0.2-0.1L48.6,18.1z"/>
<path class="st4" d="M22,17.3l0.1,0.2h-0.3C21.8,17.4,21.9,17.4,22,17.3z"/>
<path class="st4" d="M21.9,18c0-0.1-0.1-0.2,0-0.3C22,17.9,22,17.9,21.9,18z"/>
<path class="st4" d="M22.3,18.1c-0.1,0-0.1,0.1-0.2,0L22.3,18.1L22.3,18.1z"/>
<path class="st4" d="M26.8,16.4h-0.2v-0.1L26.8,16.4L26.8,16.4L26.8,16.4z"/>
<path class="st4" d="M27,15.9h-0.2C26.8,15.8,26.9,15.9,27,15.9z"/>
<path class="st4" d="M21.9,17.2l0.1-0.1l0,0L21.9,17.2L21.9,17.2z"/>
<path class="st4" d="M23.3,16.7h0.1c0,0,0,0,0.1,0.1l-0.1,0L23.3,16.7z"/>
<path class="st4" d="M42.5,19.4L42.5,19.4L42,19.1c0.1,0,0.2-0.1,0.2,0L42.5,19.4z"/>
<path class="st4" d="M41.4,17.1c0.1,0.1,0.1,0.2-0.1,0.3c-0.2,0.1-0.1-0.1-0.1-0.1C41.3,17.2,41.4,17.1,41.4,17.1z"/>
<path class="st4" d="M42,18.3c0,0.1-0.1,0.2-0.2,0.2c0,0,0,0,0,0l-0.1-0.2L42,18.3z"/>
<path class="st4" d="M41.6,17.7c0.2-0.1,0.2-0.1,0.3,0C41.8,17.7,41.8,17.7,41.6,17.7z"/>
<path class="st4" d="M42.6,19.4l0.2,0.1C42.7,19.6,42.7,19.6,42.6,19.4z"/>
<path class="st4" d="M41.5,16.8v-0.2C41.6,16.7,41.6,16.7,41.5,16.8z"/>
<path class="st4" d="M41.6,17.5h-0.2c0,0,0-0.1,0-0.1L41.6,17.5L41.6,17.5z"/>
<path class="st4" d="M42.7,15.6l-0.1-0.1v0L42.7,15.6L42.7,15.6z"/>
<path class="st4" d="M43,15.5c0,0,0,0.1,0,0.1s0,0,0,0.1S43,15.7,43,15.5C42.9,15.5,43,15.6,43,15.5z"/>
<path class="st4" d="M42,18.9V19l0,0V18.9z"/>
<path class="st4" d="M43.1,19.7C43.1,19.7,43.2,19.7,43.1,19.7c0.1,0,0.1,0,0.2,0.1L43.1,19.7L43.1,19.7z"/>
<path class="st4" d="M68.3,19.1c0.1,0.1,0.2,0.1,0.3,0C68.5,19.3,68.4,19.3,68.3,19.1z"/>
<path class="st4" d="M68.1,18.9h-0.3l0,0C67.9,18.9,68,18.8,68.1,18.9L68.1,18.9z"/>
<path class="st4" d="M67.4,19.1h0.1l0,0H67.4C67.4,19.1,67.4,19.1,67.4,19.1L67.4,19.1z"/>
<path class="st4" d="M68.1,18.9c0.1,0,0.2,0,0.2,0S68.1,19,68.1,18.9z"/>
<path class="st4" d="M67.7,19.3L67.7,19.3L67.7,19.3L67.7,19.3L67.7,19.3z"/>
<path class="st4" d="M68.2,19.4C68.2,19.4,68.2,19.4,68.2,19.4L68.2,19.4L68.2,19.4C68.2,19.4,68.2,19.4,68.2,19.4z"/>
<path class="st4" d="M37.7,17.9c0.2,0,0.2-0.2,0.2-0.3c0.1,0.1,0,0.2,0.1,0.3s0.2,0.1,0.2,0.3H38l0.1-0.1L37.7,18L37.7,17.9z"/>
<path class="st4" d="M37.7,17.9L37.7,17.9c-0.1-0.1-0.2-0.1-0.2-0.2s0.1-0.1,0.1-0.2C37.7,17.6,37.7,17.7,37.7,17.9z"/>
<path class="st4" d="M36.9,17.1h0.3l0,0H36.9z"/>
<path class="st4" d="M39,18.9l0.2,0.1v0.1C39.2,19.1,39,19.1,39,18.9z"/>
<path class="st4" d="M35.4,18.6c-0.2,0-0.2,0-0.1-0.2L35.4,18.6z"/>
<path class="st4" d="M37.2,17.4c0.1,0,0.1,0,0.2,0.1C37.3,17.5,37.3,17.5,37.2,17.4z"/>
<path class="st4" d="M39.5,18.1L39.5,18.1L39.5,18.1C39.5,18.1,39.5,18.1,39.5,18.1L39.5,18.1z"/>
<path class="st4" d="M39.6,18.5h0.1l0,0H39.6z"/>
<path class="st4" d="M38.1,17.4C38.1,17.4,38.1,17.4,38.1,17.4L38.1,17.4L38.1,17.4z"/>
<path class="st4" d="M35.6,15.2C35.5,15.2,35.5,15.2,35.6,15.2C35.5,15.2,35.5,15.2,35.6,15.2L35.6,15.2L35.6,15.2z"/>
<path class="st4" d="M29.4,16.7c0.3,0,0.1,0.3,0.3,0.4h-0.2L29.4,16.7z"/>
<path class="st4" d="M29.4,15.9c-0.2,0-0.2,0-0.2-0.3C29.3,15.7,29.4,15.8,29.4,15.9z"/>
<path class="st4" d="M29.5,17.5c0-0.2,0.1-0.1,0.3-0.1L29.5,17.5z"/>
<path class="st4" d="M29.6,18.1h-0.1l0,0H29.6L29.6,18.1z"/>
<path class="st4" d="M16.3,16.4l-0.1,0.2c-0.1,0-0.2-0.1-0.1-0.2S16.2,16.3,16.3,16.4z"/>
<path class="st4" d="M16.5,16.9l-0.1-0.1l0,0L16.5,16.9L16.5,16.9z"/>
<path class="st4" d="M16.7,16.6h0.2l0,0H16.7L16.7,16.6z"/>
<path class="st4" d="M12.6,15.3l-0.4,0.1l0,0L12.6,15.3L12.6,15.3z"/>
<path class="st4" d="M18.1,25.7c0-0.1,0-0.2,0-0.3c0-0.1,0-0.2,0.1-0.3c0.1,0,0.2,0,0.2,0.1c0.1,0.1,0.1,0.3,0.1,0.4
	c0,0.1-0.1,0.1-0.2,0.1C18.2,25.8,18.1,25.8,18.1,25.7z"/>
<path class="st4" d="M11.9,24.6h0.4c0.1,0,0.2,0,0.2,0.1c0,0.1,0.1,0.2,0.3,0.2c0,0,0.1,0,0.1,0c0.2-0.1,0.4-0.1,0.6,0
	c0.1,0,0.2,0.2,0.2,0.3s-0.1,0.2-0.3,0.2c-0.3,0-0.6,0-0.9,0.1c-0.1,0-0.3,0-0.4,0c-0.1,0-0.3-0.1-0.3-0.2c0,0,0,0,0,0
	C11.6,25,11.7,24.8,11.9,24.6z"/>
<path d="M56.5,17.8L56.5,17.8L56.5,17.8L56.5,17.8C56.6,17.9,56.5,17.9,56.5,17.8z"/>
<path d="M56.3,17.7L56.3,17.7L56.3,17.7L56.3,17.7C56.3,17.7,56.3,17.7,56.3,17.7z"/>
<path d="M56.6,17.1c0,0-0.1,0.1-0.2,0.1C56.5,17.1,56.5,17,56.6,17.1L56.6,17.1z"/>
</svg>
