<svg xmlns="http://www.w3.org/2000/svg" viewBox="0 0 211.91 288.67"><defs><style>.cls-1{fill:none;stroke:#232322;stroke-miterlimit:10;stroke-width:0.75px;}.cls-2{font-size:31.36px;}.cls-10,.cls-2,.cls-7{fill:#222221;}.cls-2,.cls-7{font-family:Termina-Heavy, Termina;font-weight:800;}.cls-3{letter-spacing:-0.01em;}.cls-4{letter-spacing:-0.01em;}.cls-5{letter-spacing:-0.02em;}.cls-6{fill:#702a2c;}.cls-10,.cls-7{font-size:7.84px;}.cls-8{letter-spacing:-0.01em;}.cls-9{letter-spacing:0em;}.cls-10{font-family:GillSans-SemiBold, Gill Sans;font-weight:600;}.cls-11{fill:#fff;}</style></defs><g id="Calque_2" data-name="Calque 2"><g id="Calque_1-2" data-name="Calque 1"><rect class="cls-1" x="-35.06" y="43.03" width="287.92" height="202.61" transform="translate(253.24 35.43) rotate(90)"/><text class="cls-2" transform="translate(161.52 238.59) rotate(-90)">P<tspan class="cls-3" x="28.78" y="0">o</tspan><tspan x="53.84" y="0">timar</tspan><tspan class="cls-4" x="163.02" y="0">r</tspan><tspan x="179.32" y="0">on</tspan><tspan x="0" y="35.93">f</tspan><tspan class="cls-5" x="17.5" y="35.93">r</tspan><tspan x="33.52" y="35.93">ançais </tspan></text><path class="cls-6" d="M15.16,27c2.33-.74,4.28-1.27,5.57-3.19A8.51,8.51,0,0,1,23,21.65c1.68-1.17,3.44-2.22,5.22-3.35,2.11,2,2.34,5.13,3.16,8,.91,3.23,2,6.41,3.08,9.58A54.68,54.68,0,0,0,37.34,43c1.25,2.38,2.91,4.55,4.36,6.84.81,1.28,1.57,2.6,2.32,3.93a1.34,1.34,0,0,1,.21.95c-.82,2.41,1,3.45,2.49,4.37,2.57,1.54,5.3,2.84,8,4.19C58.14,65,61.6,66.7,65,68.39c.25.13.51.42.74.39a4.34,4.34,0,0,1,3.58,1.38c1.7,1.54,3.9,2.63,4.71,5.06-1.4-.91-2.3-2.75-4.32-2.37-.31.06-.51.66-.84,1.11l1.6.76-.3-1.14,1.36.48-.21,1.67c1.94.55,2.18.91,1.79,2.93-.15.75-.31,1.63-1.59,1l0,.42,1.59.84L75,80.13l0,2.4,2.12-1,.78,1.7.32-1.53h.29a5.32,5.32,0,0,0,0,1.49,6.29,6.29,0,0,0,.83,1.36l.46-.88.25.12-.72,1.72L80.88,87l.18-2.34c1.4.47.33,1.5.53,2.19l.75,2.59c.52-.57.52-.57-.17-3l1.73,1.37-.6,1.3,1.09.43.22-2.94L86.79,89c1.33-1.07,1.07-2.13-.48-3-2-1.19-3.79-2.71-5.69-4-1.55-1.1-3.24-2-4.69-3.26a14.08,14.08,0,0,1-2.05-2.78l.34-.25,4.68,4.61a1.82,1.82,0,0,0,.38.29,18.85,18.85,0,0,1,2.27,1.31,9.15,9.15,0,0,0,2.74,1.48,11.58,11.58,0,0,1,4.47,3.2c.5.53.18,2,0,3a3.21,3.21,0,0,0,3,4,2.52,2.52,0,0,1,1.53,1.1,35.73,35.73,0,0,1,2,3.79c.8,1.69,1.44,3.45,2.31,5.09,1.26,2.38,2.69,4.66,4,7,1.18,2.13,2.19,4.36,3.44,6.45a15.12,15.12,0,0,0,2.67,3.24,8.38,8.38,0,0,1,2.43,3.93c.57,1.92,1.51,3.72,2,5.65a66.67,66.67,0,0,1,1.52,7.67c.3,2.15.07,4.39.47,6.51a25.89,25.89,0,0,1,.72,6.33c-.18,3.2-.16,6.41-.23,9.61,0,.38-.07.76-.07,1.14,0,1.54.27,3-1.21,4.24s-.25,2.62-.18,3.91a9.2,9.2,0,0,1-1.26,5.58,7.17,7.17,0,0,0-1.44,4.68c.1.87-.69,1.82-1,2.76-.57,1.92-1.11,3.84-1.57,5.78s-1.3,3.84-1,5.62c.77,4.86-2,8.77-3.1,13.08a108.63,108.63,0,0,1-4.22,11.64c-.56,1.44-1.53,2.71-2.21,4.11-1.36,2.82-2.45,5.8-4,8.48a99.24,99.24,0,0,1-7.52,11.25c-1.53,1.92-2.83,3.92-4.15,6a25.13,25.13,0,0,1-3.46,3.77A60.17,60.17,0,0,1,71.6,258,78,78,0,0,1,63,263c-2.95,1.61-5.93,3.15-8.91,4.71-4,2.08-7.86,4.31-11.93,6.18-4.32,2-8.78,3.71-13.23,5.4a62.38,62.38,0,0,1-7.14,2.13,9.81,9.81,0,0,1-2.81,0c-3.47-.16-6.58,1.13-9.76,2.26-2.53.89-5,1.68-7,3.59a7.17,7.17,0,0,1-2.15.91c.08-.37.05-.75.21-.87,2.26-1.64,2-4.45,3-6.65.47-1,.14-2.42.27-3.64a4.81,4.81,0,0,1,.5-1.28c-.13-.19-.45-.44-.42-.65.39-3.56.86-7.1,1.24-10.66.49-4.52,1-9,1.35-13.56.16-1.83-.09-3.7.2-5.49.35-2.23,1.09-4.4,1.62-6.6.59-2.49,1.13-5,1.68-7.49.28-1.29.52-2.59.82-3.87,0-.18.31-.3.48-.46a2.46,2.46,0,0,1-.24-1c.66-3.65,1.37-7.29,2.05-10.94.27-1.45.6-2.9.74-4.37.34-3.51.7-7,.81-10.54.06-2.18-.44-4.38-.48-6.57-.06-3.78-.07-7.56.12-11.33.1-2.08.81-4.12,1-6.2.27-3.13.3-6.29.49-9.44.49-8.31,1-16.61,1.54-24.92.1-1.76.17-3.52.25-5.29,0-.09-.08-.21,0-.28,1.08-1.75.15-3.74.63-5.53.82-3,.48-6.12.61-9.17a133.46,133.46,0,0,0-.31-13.85c-.36-6-.8-12.1-1.5-18.11C16,84,14.78,78.59,14.12,73.16A60.18,60.18,0,0,1,14,64.05c.11-4,.4-8,.62-11.94.09-1.66.29-3.3.31-5,0-1.95-.16-3.9-.13-5.85,0-2.74.21-5.49.29-8.24C15.1,31,15.12,28.89,15.16,27ZM23,175.21c-.81.75-.71,2,.48,2.9L23,175.22l-.26-2.44-1.23.79a8.41,8.41,0,0,0,.71,1.16A3.4,3.4,0,0,0,23,175.21Zm9.88-24.57-.12-1.34-1.07.6.8,2.12.43-.06c0-.45,0-.89,0-1.32l2.05,1,.31-.49-1.87-1.54ZM86.63,96,85,96.24l.74,2.38c1.12-.62.76-1.75.91-2.67a2,2,0,0,1,2.17,2,4.36,4.36,0,0,0,.46-1.6c0-.25-.4-.72-.61-.71A12.7,12.7,0,0,0,86.63,96ZM42.56,196.91l-.45,1.9.32-.11,1.24,1.74c.27-.85.27-.85-1.15-3.5a4.11,4.11,0,0,0-.2-4,22.15,22.15,0,0,0-.12,3.82C42.2,196.78,42.44,196.84,42.56,196.91Zm16.07,5-.92-2.12c-1.41,1.23.15,2.28,0,3.38l.93-1.3a8.67,8.67,0,0,1,.11,2,17.89,17.89,0,0,1-.72,2.44l.5.18a6.23,6.23,0,0,0,.89-2.15A7.46,7.46,0,0,0,58.63,201.9ZM46.84,129.6l-1.41.34L45,127.7c-.32.58-.12,1.21-.34,1.62-.49.92-.08,1.4.6,1.87l1,.89c-.7-.5-1.32-.89-1.93.15,1.87.91,1.43,2.88,2,4.49.23-.15.62-.26.64-.43.09-.7-.36-1.54.61-2a5.29,5.29,0,0,0-.67-.87c-.17-.14-.49-.13-.74-.19.22-.28.42-.24.56-.31,1.19-.62,1.59-.35,1.41,1s.22,3.19-1.07,4.47c-.07.06.13.39.18.55l-2.2.21L45,144.45l.47,0,.46-2.41.8.68.13-.14-1.42-2.77c1.08-.2,2.08-.1,2.67-.54.82-.63,1.16-.19,1.66.26l0,0a3.43,3.43,0,0,0-.38,1c-.07,1.14-.06,2.29-.09,3.43h-.47a3.75,3.75,0,0,0-.19-.75,4,4,0,0,0-.47-.63c1.08-.81.91-2.05-.36-2.66L47,144l0,0c-1-.29-1-.29-1,.6a5,5,0,0,1-.5,1.52,2.4,2.4,0,0,0,.88,1.55,3.06,3.06,0,0,1,.49,3.76c-.23-.52-.72-1.19-.58-1.38.82-1.09-.17-1.24-.59-1.68l-1,2.86.53,1.21,1-1.45c-.27,1.32,1.4,2.25.56,3.35.23.48.55.84.55,1.2,0,1.19-.15,2.38-.25,3.63l-.91.16,1.42.32c.1,7.43,1,14.92.1,22.21-.92,7.49.06,15.06-1.57,22.47L45,204.2l.13,1.32,1.39-.45c-.3.91-.5,1.51-.69,2.12a1.64,1.64,0,0,0-.1.49,22.17,22.17,0,0,1,.06,3.64c-.41,2.82-1,5.63-1.52,8.43-.66,3.28-1.35,6.55-2.11,9.8a20.77,20.77,0,0,1-1.11,2.79c-.16.39-.32.79-.46,1.19-.53,1.45-1,2.9-1.59,4.33-.07.17-.47.22-.42.19a11.77,11.77,0,0,1-.56,2.47c-.81,1.66-1.75,3.26-2.6,4.8l-.57-.38a4.65,4.65,0,0,1,.08,1.67c-.39,1-1,2-1.44,3a4.49,4.49,0,0,0-.23.91c.31-.1.71-.1.93-.3a8.37,8.37,0,0,0,.93-1.26c2-3,4.32-5.83,6-9a81.07,81.07,0,0,0,3.9-9.3c1.06-2.66,2-5.36,3.08-8,1.2-3,2.51-6,3.64-9.06A5,5,0,0,0,52,210.8c-.29-1.18-.91-2.09-.28-3.53s.33-3.06.44-4.55l2.12-.23-.89-1.37-.92.46c-.14-1.47-.3-2.92-.4-4.36a7.23,7.23,0,0,1,.2-1.28.72.72,0,0,0-.09-.48c-.54-.77-.53-.73.28-1.29a10.28,10.28,0,0,0,1.18-1.11l-.33-.44-1.79.77q-.39-12.6-.76-24.94a5.28,5.28,0,0,0,1.87-.47c.21-.14,0-.95-.08-1.5,2.23.31.82,2.19,1.31,3.3.53-.84.53-.84-.2-4.7-1.82-.16-1.93,1.57-2.9,2.55-.5-4.67-1-9.34-1.49-13.8L51,153.1c-.12,1.08.87,2.47-.95,3.12l1.13,1.05,1-3.67L51,153.14l-.08-1.48L50.07,153c-2.32-2.35-2.15-5.08-1.53-7.89l.15,1.11,1.87,1.1-.37,0,.1,3.81.52,0-.05-1c1.64.23.79,1.88,1.59,2.54a2.19,2.19,0,0,0-.86-3.17c-.38-.19-1-.71-.89-.89a3.36,3.36,0,0,1,1-1.34,4.68,4.68,0,0,1,1.35-.54l.21,3.61c1.43.84-.37,2.26.28,3.81.68-.95,1.76-1.93,1.58-2.3-.83-1.73.17-2.22,1.56-2.65l-.23-.46-1.71.38c-1.08-.93-1.25-1.78-.49-2.41a7.42,7.42,0,0,0,1.05-1.4l-.55-.44-1.24,1.17c-.33-1.88-.76.1-1.16,0l.27-3.63.34,0,.87,1.9.62-1.62c-1.37-.3-1.11-.91-.4-1.59-1.16-.26-1.12-1-.76-1.86.28-.65.67-1.24,1-1.86l.62-.29q.6,3,1.22,6c.35,1.71.37,3.51,1.38,5a12.9,12.9,0,0,1,.6,1.17c.19-.43.55-.87.53-1.3-.07-1.47-.25-2.93-.42-4.39s-.44-3.08-.57-4.63a15.11,15.11,0,0,1,.15-2.51,7,7,0,0,1,.25-1.07c-.1-.13-.37-.33-.44-.59a56.26,56.26,0,0,1-1.71-6.67,39.64,39.64,0,0,0-3.49-10.81c-.92-2-1.86-4-2.63-6-1.11-2.94-2-6-3.1-8.89-1-2.65-2.14-5.24-3.2-7.86-.39-.94-.73-1.9-1.09-2.85l-.59.23c.69,1.85,1.45,3.68,2,5.57a16,16,0,0,1,.46,3,22.53,22.53,0,0,0,.19,3c.76,3.23,1.53,6.46,2.51,9.61.75,2.41,1.85,4.71,2.76,7.07.53,1.38,1,2.79,1.49,4.19l-.44.19-1.43-3-.48,0L48.38,124c1.17.26,1.38,1.1,1.21,2s.24,1.21,1.08,1.07a16.54,16.54,0,0,1,.08,2.22c0,.29-.43.55-.67.8,0,0-.16,0-.12,0l0-1.07-1.74,1.48L48,130.3l-.05.66-2.67.24,1.57-1.64,1,.76-.22-2.8H47Zm-11.2,16.89c1.75-.56-.21-1.65.32-2.43.07-.11-.39-.58-.84-1.22L34.38,146l.45.13.49-1.12c.12.51.24,1,.35,1.53-.31.25-.83.45-.89.76a2,2,0,0,0,1.07,2.49ZM28.12,69c.48-1,.74-2.25,2.43-2.48l-1.75-.92c-.16.67-.11,1.51-.47,1.75-.84.57-.42,1.06-.18,1.62a4.85,4.85,0,0,1,.23,1.22,3.16,3.16,0,0,0,1.43,2.33L29.29,69l.38-.09C29.14,68.15,28.63,68.31,28.12,69Zm11,78.77c1.27-.65,1.27-.65,0-3.3-.08,1.33-1.09,2.25,0,3.29-.26.3-.7.56-.74.89-.18,1.22-.22,2.46-.32,3.68.07,0,.36-.11.43-.27.5-1.19,1-2.39,1.37-3.61C39.94,148.27,39.38,148,39.12,147.72Zm-20,35.61.3-4h-.63c.13,1.33-.47,2.68.33,4l-.56,2.31.43-.13,1.52,2.2a9.58,9.58,0,0,0-.25-1.83C19.93,185,19.49,184.18,19.11,183.33Zm83-11-1.22-.34-.48,1.88.35.13.81-1,.56.81,1.58-.69.18-2.42-.47,0a9.47,9.47,0,0,1-.12,1.41,2.8,2.8,0,0,1-.43.77l-.8-.59a9.23,9.23,0,0,0,.56-1.71,4.94,4.94,0,0,0-.27-1.43l-.37.1-1,1.92ZM39,141.1c-1.64,1.21-2,2.4-1,3.19l.11-1.5,1,.15c0-.24-.07-.49-.09-.74s0-.73-.05-1.1l.38-5.07L39,136l-1.35,1.85.71-.14a9.27,9.27,0,0,1-.18,2C37.75,140.89,37.7,140.9,39,141.1Zm6.45-20a2.67,2.67,0,0,0-.19-3.12l-2,.79a7.29,7.29,0,0,1,.74.37c.27.16.52.36.77.54-1,1.1.38,1,.69,1.42,1.33.68,1.59,2.13,2.26,3.31a5.26,5.26,0,0,0-.33-4.2ZM56.74,66.55l1.52-.73c-.78-.27-1.43-.53-2.1-.72-.27-.08-.69-.15-.84,0s-.08.56-.1.85l.35-.28,1.1.86c-.82,0-1,.18-.9.92a5.78,5.78,0,0,1-.14.9c-.06.66-.08,1.33-.12,2l.36,0,1-2.68.54.67C57.54,67.51,58,66.6,56.74,66.55ZM36,266.6l.13-1c-1.17.35-.42-1.08-1.32-1.22l-.77,2.56c.7.14-.6,1.78,1,1.28l.14,1.48c.87-.9,1.9-1.51,1.87-2-.06-.79,1.67-1.49.2-2.3Zm29.17-142c-1.26.92-.81,2.13-.53,3.32.66-1,1.44-2,.52-3.32l1.09.08a9.21,9.21,0,0,1-.93-2.24c-.18-1.31,1.06-1.27,1.86-1.61.19,1.2,1.15,2.44-.23,3.55-.07,0,0,.33.07.5.26,1.37.53,2.74.77,4.11a6.44,6.44,0,0,1,0,1.08l1.66-1.78c-.05-.13-.08-.59-.33-.81-1.3-1.15-.78-2.64-.75-4,0-2.14,1.38-4,1-6.38A48.6,48.6,0,0,0,67,106.87a92.16,92.16,0,0,0-5.22-10.24c-2.23-4-4.59-8-6.92-11.93-1.69-2.87-3.27-5.83-5.18-8.54-1.8-2.56-4-4.8-5.93-7.28-2.27-3-4.34-6.1-6.59-9.09-.52-.69-.91-1.89-2.55-1.45A11.89,11.89,0,0,0,36,61a38.71,38.71,0,0,1,5.88,8c1.61,3,4.17,5.54,6,8.48,2.06,3.3,3.81,6.8,5.6,10.26,1.3,2.52,2.45,5.12,3.68,7.67.78,1.6,1.59,3.18,2.38,4.77.92,1.84,1.78,3.71,2.8,5.49.47.84.93,1.49,0,1.88,2.31,1.82,1.88,4.79,3,7l-.84.32c.47.31,1,.47,1.15.79.57,1.71,1,3.45,1.52,5.18-1-.88-1.8,0-2.69.15l.53-2,.82.48.14-1-1-.4-2.33.24a7,7,0,0,0,.71-1.44c.09-.51.23-1.21,0-1.53s-1-.17-1.47-.3-.83-.23-1-.5a9.38,9.38,0,0,1-.57-1.88L59,114.63l.42,1.81a3.67,3.67,0,0,1,1-.58c.73-.11,1.49-.09,2.24-.13-.19.5-.34,1-.56,1.51a2.51,2.51,0,0,0,0,2.79c.38-1.83,1.41-.93,1.95-.94l.5,1.92c-.11.68-.21,1.36-.33,2A1.19,1.19,0,0,0,65.2,124.63ZM34.76,99c.11-1-1-3.43-1.71-3.73.35,1.35.3,2.87,1.72,3.72l-1,1.05,1.4.19-1.17.7,1.58.34L33.87,103l1.73-.43c.69,1.14,1.06,1.21,1.82.3l.61,1.06a8,8,0,0,0,.85-1.72c.09-.46,0-1.26-.22-1.42-.76-.46-.75-.91-.5-1.64a7.58,7.58,0,0,0,.15-1.66c-1.27.13-1.08,1.11-1.1,1.78,0,1.21.13,2.42.22,3.64a31.58,31.58,0,0,1-1.71-3.32C35.49,99,35.43,98.64,34.76,99Zm26,34.58.19-2.46,1.07.08-.81-3.14-.64.23a4.23,4.23,0,0,1,.54,1.14,1.41,1.41,0,0,1-.26,1.09,3.89,3.89,0,0,1-1.05.65l1,2.41L62,136l.78-.31-1,1L62,140c.71-.06.75-.21.72-1.44a2.2,2.2,0,0,1,.39-1.53c.58-.49.72-.62.27-1.49l1-1.09.79,1.7-1.12.37.16.54,1.46-.43c-.34-.94-.41-2.28-1.08-2.71-.87-.56-2.2-.4-3.34-.53C61.11,133.36,60.93,133.51,60.75,133.58Zm-43.7,27-.51,6.73.55,0,.22-3,.35,0,.31,1c1.11-1.88-.19-3.26-1-4.75l.45-1.39.65,1.12c-.24-1.74-.13-3.3,1.2-4.55.12.2.32.59.34.58,1.28-.59,1,.37,1.11,1s.39,1.44.59,2.15l.52-.13L21,154.93c-.86,2.06-.91-.18-1.48,0l-.14.94-1.55.07v-.32l1.18-.11-.75-3,1.5.39-.5-1.45-1.38.38c-.37,2.63-.74,5.09-1,7.56A3.87,3.87,0,0,0,17.05,160.63Zm5.6-52.34c-.11.16-.23.45-.33.45-1,0-1.32-.67-1.41-1.58-.14-1.5-.64-1.87-1.61-1.37l1.28,3.46,2.81.56.3-.21-1.09-1.28c1-1.11-.64-2.32.14-3.44,0,0-.12,0-.13,0L21.73,103l.37-.18.77,1c0-1.68,0-1.71-2.26-1.87L20.51,98l1.86,1.82.18-2.43-2,.66c-1-.55-1.29,0-1.12.81.29,1.41-.4,3.24,1.57,4,.14,0,.19.41.23.64.17,1.07.24,2.16.5,3.2A7.08,7.08,0,0,0,22.65,108.29ZM52.33,91.74a.83.83,0,0,1,.15-.17s.12,0,.12,0L52.37,93l.7.12-1,1.3.31.22.88-.93c0,.55.11.91.11,1.26s-.05.78-.12,1.63c.57-.59,1.06-.86,1.12-1.2a4.84,4.84,0,0,0,0-2.42c-.63-1.48-1.64-2.8-2.29-4.28s-1.31-1.26-2.52-.26c.58.29,1,.68,1.47.69,1,0,1.19.53,1.16,1.35,0,.43,0,.85.07,1.27l-1-1.91A10.1,10.1,0,0,0,51,91.3a17.63,17.63,0,0,1,0,3c-.4,1.83-.18,2.14,1.73,1.53l-1.06-.17a7.57,7.57,0,0,1-.08-1.94C51.7,93,51.1,92,52.33,91.74ZM19.26,131c-.93.71-.91,1,.49,2.62l-.16-2.56c1,.44.9-.2.78-.83s-.25-1.16-.37-1.74l.29-.06.75,1.49c.79-1.32.77-1.3-.05-1.77-.16-.09-.18-.4-.27-.61L22,127.1l-1.64-3.45c-.46.77-.79,1.1-.85,1.47-.27,1.83.19,3.74-.6,5.52C18.87,130.7,19.13,130.88,19.26,131Zm13.58,31c-.26.27-.67.49-.75.8a11,11,0,0,0,0,6.54,7,7,0,0,0,.6,1.09c.37-.71-.49-1.94,1-1.75l-1.43-.75,2.56-.51c-.21-1.75-.43-3.52-.65-5.29l-.45,0-.06,3.13-.72,0c0-1.12-.07-2.24-.1-3.36.17-.35.51-.72.48-1.06-.08-1.2-.28-2.39-.45-3.68l-1.13.28.76,1.31-1.11.49,0,.18.93-.1ZM18.48,142.08l1.52-.85-1.24-2.06.9-2.08c.14,1.85.14,1.85,1.51,1.52-1.51-1.78-1.57-2.54-.35-3.13l.67,3.11.54-.05c0-.32.17-.84,0-.92-1.6-1-.34-1.9.1-2.94l-3.47-.48a7.7,7.7,0,0,1,.14,2.07c-.24,1.11-1,2.19-.94,3.26,0,.77-1.23,2.15.63,2.52-.33,1.39-.72,2.76-.92,4.16a1.43,1.43,0,0,0,.78,1.13c.33.11.85-.31,1.28-.49-1.48-.47-1.48-.47-1.64-1.2l1.05.48c-.06-.86-.06-1.59-.16-2.31A15.33,15.33,0,0,0,18.48,142.08ZM66.3,184.76l-.07-1.8h-.46l-1.4,1.38,1.07,1.11.09,1.74-.49,0-.35-.87-3.52,1.19c1,1.25,3.11-1.12,3.39,1.38l1.07-1.12,2.31.63c.48-.92.9-1.63,1.23-2.38a1.27,1.27,0,0,0,.06-1C68.31,183.81,67.74,183.78,66.3,184.76ZM9,266.86,8.27,266c.06-.59.07-1.18.17-1.76.17-.92.55-1.95-1.09-1.1-.3.15-.79-.1-1.33-.19.54,1.37-2.28,2.91.44,4a4.83,4.83,0,0,0,.14,5.3L7.19,270l.42.16-.46.63.64-.48,2.26,3.75c.12-1.57.23-2.88.31-4.19,0-.18,0-.49-.15-.53C9,268.9,9.34,267.7,9,266.86ZM53.26,157.07l-.85,1.35-1.4-.66.09,4.12.87.17.43-3.24.68.05.29,1.46,1.06-.8-.27,3.6-.46-.07,0-2-.52,0-.62,3.69c2.15-1.44,4.32-2.25,3.1-5.43l2.16,1.39c.18-.26.7-.67.65-1s-.67-.55-1.36-1c-1-2.38-.58-5.28-.06-8.23l-.87-.06a27.1,27.1,0,0,1-1,4c-.14.36-1.17.35-2,.56l0,2.22Zm2.53,20.39.71.36c1.17-1.45.51-2.78-.52-4.23l1.51.79-.59-1.61,1.74-2.89c.08.77.14,1.24.18,1.72,0,.31,0,.62,0,.93s.19.93,0,1.24a4,4,0,0,0,1.08,4.6,1.81,1.81,0,0,0-.87-2.77c.31-.88,1.49-1.1.91-2.32-.3-.62,0-1.51,0-2.28a4.18,4.18,0,0,0-.1-1.47,5.69,5.69,0,0,0-1-1.22c1.07-1.2,1.73-.4,2.42.53,0-1.75-.26-1.87-1.65-1.66a1.44,1.44,0,0,1-1.19-.75,22.46,22.46,0,0,1-.63-3l.91-.86-1.26-1.19-.81,4,0,0c-.86-.57-1.08-.25-1,.65a2.28,2.28,0,0,1-.45,2c-.93,1.21-.42,2.88-.36,4.36,0,.09.19.2.3.23.86.24.86.24.41.94a1.68,1.68,0,0,0,.65,2.58l-.45,1.29c-1.78.29-.22,1.42-.46,2.12-.12.32.49.93.84,1.34,0,0,.53-.28.8-.43-.94-.46.45-2.09-1.12-2.28A3.21,3.21,0,0,1,55.79,177.46ZM43.93,128.28l-.57-.05c-.21,1.24-.48,2.48-.63,3.73-.35,3-.66,6-.95,9.08-.44,4.57-1.07,9.14-1.17,13.73,0,2-.69,4-.42,6.09.21,1.63-.27,3.33-.32,5-.13,4,0,8.08-.31,12.11-.28,3.84-.93,7.66-1.45,11.49-.19,1.41-.47,2.82-.74,4.23-.63,3.26-1.32,6.51-1.89,9.78-.35,2-.31,4.11-.8,6.08-.84,3.36-1.94,6.66-2.95,10a15.23,15.23,0,0,0-1,3.13c-.3,4.45-1.85,8.52-3.45,12.6-2,5.18-4,10.4-5.93,15.61a11.69,11.69,0,0,1-.61,2,48.45,48.45,0,0,0-4.68,10.22,14.15,14.15,0,0,1-3.22,6c-.52.5-.56,1.56-.67,2.38a1.05,1.05,0,0,0,.57.85,1.11,1.11,0,0,0,.94-.43c1.45-2.35,3.64-4.33,3.77-7.37,0-.24.26-.48.42-.7a14.06,14.06,0,0,0,1.47-1.93c1.72-3.39,3.47-6.78,5-10.25,1.29-2.85,2.41-5.77,3.47-8.71,1.59-4.41,3.06-8.85,4.6-13.27q1.11-3.21,2.34-6.38c.14-.38.54-.66.83-1-.36-1,.07-3.51.5-4.89a73.36,73.36,0,0,0,2.14-7.81c.48-2.36.53-4.81.94-7.19a14.09,14.09,0,0,1,1.16-2.38c.11-.27-.17-.68-.29-1.08,1-6.65,2.07-13.44,3.13-20.3l.64-.18c-.33-.53-.9-1.05-.81-1.37a5.91,5.91,0,0,0,.13-2.62,60.7,60.7,0,0,1,0-8c0-1.06.15-2.12.26-3.5.91,1.46.93,1.46,1.84.68-.67,0-1.78-1.24-1.69-1.94s.23-1.37.26-2.06c0-1.13,0-2.26,0-3.54l.87.55c.25-1.39-1.82-2.61-.39-3.68-.18-1.34-.32-2.42-.46-3.51-.44-3.31.63-6.64-.15-10a20.08,20.08,0,0,1-.25-5.09C43.54,132.39,43.77,130.33,43.93,128.28Zm34.8-3.82a2.61,2.61,0,0,0-.85,2.84,7.89,7.89,0,0,1-.12,2.41c-.33,3.52-.76,7-1,10.57-.29,4.6-.36,9.22-.61,13.82-.13,2.32-.43,4.62-.71,6.92-.41,3.36-.82,6.72-1.35,10.06a50.35,50.35,0,0,1-1.35,6.08c-.48,1.69-1.33,3.28-1.78,5-.29,1.11-.6,1.84-2,1.49L69,184l1.1.48c-.76,2.71-1.47,5.47-2.32,8.19-.66,2.14-1.78,4.18-2.19,6.36-.53,2.86-2.47,5.47-1.64,8.59.05.2-.11.46-.18.69L58.17,228l.5.18c.59-1.06,1.23-2.09,1.75-3.18s.84-2.22,1.34-3.29c.79-1.69,1.75-3.29,2.49-5,2.55-5.91,5-11.89,7.57-17.77a67.58,67.58,0,0,0,5.27-16.58c.46-2.82,1-5.64,1.48-8.46a44.21,44.21,0,0,0,.86-4.51c.35-4.71.81-9.44.76-14.16-.08-6.87-.6-13.73-.85-20.6-.1-2.65-1.29-5.21-.54-7.94.16-.57-.45-1.33.32-1.85ZM91,136.83c.62.46,1.23.67,1.36,1a30.39,30.39,0,0,1,1.22,4.39c.5,2.65.59,5.4,1.37,8a27.66,27.66,0,0,1,1,10.46c-.3,3.85-.59,7.7-1,11.55-.22,2.25-.5,4.5-.9,6.73-.45,2.57-1.07,5.11-1.59,7.66s-.92,5-1.51,7.54-1.42,5.14-2.07,7.72a6,6,0,0,0,.08,1.79l.49.09c1-1.72,2.1-3.44,3.1-5.19.6-1,1.09-2.1,1.66-3.14a16,16,0,0,0,2.4-7,14.94,14.94,0,0,1,.1-2.42c.45-2.24,1.22-4.43,1.46-6.68.59-5.74,1.1-11.49,1.37-17.25.16-3.37.64-6.79-.33-10.14-.68-2.34-1.33-4.68-1.93-7Q95,136,92.83,127.11c-.69-2.82-2.34-5.29-2.49-8.36-.09-1.77-.94-3.45.36-5.15l-.63.51-.53-1a7.08,7.08,0,0,0-.11,2.13,12.46,12.46,0,0,1-.32,1.79h-.48c-1.7-3.22-3.29-6.52-6-9.16a47.86,47.86,0,0,0,2,7c.72,2.08,1.51,4.15,2.22,6.24.08.24-.18.61-.26.86.26.1.69.14.77.32.64,1.64,1.29,3.28,1.78,5,.39,1.32.23,2.9.88,4,1,1.74.67,3.93,2.48,5.43ZM102,190a70.73,70.73,0,0,1-2.75,7.86c-1.8,3.77-3.86,7.44-6,11C90.76,213,88,217,85.41,221c-.55.83-1,1.72-1.67,2.49-2.37,2.87-4.79,5.7-7.19,8.55-2.8,3.34-5.46,6.82-8.44,10-1.43,1.51-3.49,2.43-5.23,3.66-2.55,1.82-5.12,3.61-7.58,5.54-.74.58-1.81,1.2-1.43,2.69l3.44.26-.89,1.93a3.16,3.16,0,0,0,1.49-.5c3.21-1.72,5.56-4.89,9.31-5.41a4.6,4.6,0,0,0,1.77,1c.24.05.88-.42.87-.63,0-.79,0-1.89-.49-2.27-1-.78-.64-1.37-.15-2s1.23-1.56,1.88-2.31c1.55-1.75,3.22-3.4,4.66-5.24,2.9-3.71,5.67-7.52,8.49-11.28,1-1.28,2-2.51,2.89-3.85,1.48-2.26,2.84-4.6,4.28-6.88,1.08-1.72,2.38-3.33,3.29-5.13,2.29-4.58,4.5-9.21,6.59-13.88a63.41,63.41,0,0,0,2.89-7.87,64.73,64.73,0,0,0,1.36-6.79,5,5,0,0,0-.12-1.32l-.48-.12c-1.73,2.12-1.2,5.29-2.83,7.23l-1.21-.51-.19.34ZM23.36,62.51l-.73.14c.14.69.27,1.37.41,2.06.56,2.88.65,5.88,2.2,8.52a2.76,2.76,0,0,1,.19,1.39,29.25,29.25,0,0,0-.17,3.23c.19,2.45.42,4.91.8,7.33.55,3.51,1.3,7,1.85,10.5.3,1.91.36,3.87.51,5.81.43,5.78.92,11.55,1.24,17.33.28,5,.4,10.06.52,15.09.1,4.66.18,9.32.13,14,0,3.57-.32,7.15-.47,10.72a7.46,7.46,0,0,0,.13,1.24h.42a8.33,8.33,0,0,0,.22-1.31c.18-4.52.29-9.05.51-13.58.14-2.79.73-5.58.63-8.35-.15-3.66,1.7-7.16.69-10.85,0-.08,0-.18,0-.28.15-1.5.34-3,.44-4.5a72.09,72.09,0,0,0-.66-13.93c-.42-3.2-.85-6.41-1.5-9.57s-1.62-6.55-2.46-9.82a19.44,19.44,0,0,1-.91-3.42A71.07,71.07,0,0,0,25.64,73.1c-.38-1.76-.72-3.53-1.1-5.28S23.76,64.28,23.36,62.51ZM27.48,201c.33-2.33.66-4.7,1-7.08s.54-4.67.94-7a9.3,9.3,0,0,1,1.11-2.24l.67,1.23.42-.14-.8-2.95-1.14.86.34-4.53,1.45.65c.24-1.5-.78-1.31-1.66-1.37l.46-6.18.36,0L31,173.8c.8-.87.69-1.33,0-2.14a3.31,3.31,0,0,1-1-1.89c0-1.6.45-3.18.56-4.77s0-3.15,0-4.72l-.51,0a8.08,8.08,0,0,0-.34,1.16c-.52,3.24-1.08,6.48-1.53,9.74-.76,5.53-1.66,11-2.13,16.61-.54,6.2-2.08,12.2-3.07,18.3-.24,1.5-.2,3-.29,4.55s-.1,2.94-.27,4.39-.49,3.11-.74,4.67A60,60,0,0,0,27.41,202c1.57.71,1.75,1.54.71,2.62,1.65,1,.44,2.33.19,3.33-.39,1.58-.28,2.17,1.52,2.63-.06-.26,0-.53-.17-.67a2.61,2.61,0,0,1-.44-2.75,22,22,0,0,0,.35-3.88l1.11.09L29.06,199h-.38l.31,3.35ZM21,268.26c-.34,1.12-1.51,1.44-3.5.91l-.4,2.07c-.38-.17-.85-.52-1-.42a8.15,8.15,0,0,0-1.59,1.57c-.15.19,0,.7.1,1,.48.92,1,1.8,1.66,2.87l.61-1.28c-1.17-.37-1.46-1.62-.69-3.06l.59,2.53c.73-.59,1.5-1.4,2.62-.58-.11.26-.29.48-.27.69,0,.46.06,1.22.3,1.31.73.27.58-.46.82-.88.53-1,.64-2.59,2.48-2.17.2,0,.56-.4.76-.68a9,9,0,0,0,.69-1.2l1.09.84,1-1.55-1-4.08L23,269.86Zm85.18-99.34c.32.29.77.51.76.72a3.4,3.4,0,0,1-.38,1.65,9,9,0,0,0-1.15,5.93,3.57,3.57,0,0,0,.57,1.09,4,4,0,0,0,.67-1.1c.08-.39-.2-.86-.14-1.26.16-1.15.41-2.29.66-3.42.07-.3.35-.57.41-.87.53-2.89.22-6,2.4-8.44a.77.77,0,0,0,.17-.38c.34-2.75.69-5.51,1-8.27a4.14,4.14,0,0,0-.08-.92c-1.32,4.09-.66,8.68-3.9,12.07-1.35-.85-1.56-.76-2.28,1.1l1.55.42.3-1.32C107.92,166.9,107.68,168,106.16,168.92ZM71.82,99l-.28.36,1.92,1.3-.9,1.38,3.17.67-2-5,.41-.26,2,1,.11-.23L73.46,95.7l1-1-1.87.37c-1.24-1.53-2-3.35-3.78-4.35l1.56,3.6.71.24,0,.33-2.55.25,0,.55,3.45-.07.79,1.05L70,98.41l3.41.26-.07.65Zm-48-57.37c1.09,1.84,2,3.48,3,5a39.48,39.48,0,0,0,3.31,4.75C31.34,52.83,31.32,55,33,56l.47-.29L29,47.22l1-1.49-.29-.24-1.13.72C26.86,44.93,26.34,42.47,23.83,41.67Zm6.87,223.6-2.45,1c.44-1.08,1.69-2.17-.47-3.14l-.21,2.84-1.31.13a15.52,15.52,0,0,0,.19,2.8c.25,1-.25,2.62,1.76,2.49-.25-.39-.89-.66-.88-.92A3.64,3.64,0,0,1,28,269l-1.13-1c1.42,0,1.11-.64.78-1.35,1.55,1.16,1,2.89,1.13,4.44l.35.11,1.25-3.93-1,.72c.14-.86-.45-2.15,1-1.91,1.13.19,1.3-.29,1.52-.8-.36-.39-.57-.78-.88-.92a3.67,3.67,0,0,0-1.21-.12l0,.34ZM23.85,130.85s.49-.26.47-.45a31,31,0,0,0-.71-3.45,28.43,28.43,0,0,1-1-3.26,24.9,24.9,0,0,1,0-3.66l-1.38.61.38,2.18-.26,0-.86-2.36-1,2.5L22,124.16c0,.49-.15,1.6.06,1.68,1.4.51.43,1.25.33,1.91a2.24,2.24,0,0,0,0,1.23A15.6,15.6,0,0,0,23.85,130.85Zm9.78,49c.76-1,1.32-1.64,1.79-2.36a1.5,1.5,0,0,0,.21-1.07,1.14,1.14,0,0,0-.67-.77c-.21-.05-.58.33-.78.59a1.82,1.82,0,0,0-.17.72h-.26l-.89-3.4-.95,3-.74-1.9-.34.06-.48,3.24,2.08-.32v1.14h.38l.35-1.26h.39ZM69.85,98.1l-2.62-.47v-.47l1.34-.25c-.28-.5-.76-1-.76-1.43,0-1.09-.63-1.08-1.51-1.13l.74,1c-1.34,1.57-2.4.77-3.41-.6l-.22.52,1.54,1.86v3.36c1.19-1,1.84-1.76.79-2.86a.84.84,0,0,1,0-.74.65.65,0,0,1,.64-.09c.22.11.53.5.47.6-.66,1.27.95.79,1.15,1.46,0,.18,1,.1,1.59.14.09-.39.22-1,.37-1.55.09-.31.22-.62.32-.93L69,96.75Zm-9.43,11c-1.54,0-.82,2.34-2.34,2.2l.13-.37-.86-1.33.13,0-1.07-2.33-.5.12-.6,3,1.13-.48c.26.48.69.92.69,1.38s-.48.87-.63,1.34a4.19,4.19,0,0,0,0,1.24,4.18,4.18,0,0,1,.55.83,6.37,6.37,0,0,1,.33,1.23l.53-.1-.24-2.57c.26-.44.47-1.29.83-1.35C60.13,111.5,60.2,110.28,60.42,109.05ZM39.65,265.38l-.28-.13c0-.88-.07-1.77-.17-2.64,0-.12-.54-.34-.6-.28-.67.66-1.29,1.36-2.05,2.18l2.21-.06-.19,2.62,1.45.73L41.94,266l-.56-.61c1.06-1.7,1-2.17-.31-2.25l.2,1-.26.06-.43-.56ZM69.84,134l-.17-1.25a3.42,3.42,0,0,1,.64,0c.4.07.8.19,1.2.29a6.09,6.09,0,0,1,.16-1.3c.29-.81-.69-1.84.45-2.54.11-.06-.14-.71-.25-1.19l.85-.49-2-.15.14,4.24-1.71.54-.38-1.37-1.62.4-.26,1.41.33.12.69-.68C68.94,132.39,68.23,134.27,69.84,134Zm-61,108.86c-2.28,4.27-2.65,8-.88,10.11l.34-4.47-.6-1.3L9,247.6l.16-.34-.89-.82,1.08-1.21-.69-1,.83.21.28-.32Zm44.45-67.11c-1.3,1.24-.58,2.52-.36,3.77a9.64,9.64,0,0,1,.14,1.94c0,1.13-.16,2.26-.27,3.65l1.47-.52c-.27-2-1-3.82-.24-5.79A4.38,4.38,0,0,0,54,175.6c-.22-.61-.48-1.2-.92-2.28l-.92,2.53Zm-17.7-64.59.46,2.35a3,3,0,0,0-1.16,2.36c-.14.78-.29,1.56-.48,2.6l1-1.07,1.41,1.86c-.29-1.94-1.33-3.38-1-5.08l1.86,1.19a15.39,15.39,0,0,1-.67-1.56c-.13-.4-.15-.84-.26-1.24a5.65,5.65,0,0,1-.52-1.76c.1-1.16-.47-1.27-1.77-1.22ZM71.2,84c2.17.83,2.3,2.54,2.25,4.34a4.35,4.35,0,0,0,0,1.8,19.31,19.31,0,0,0,1.77,2.57c.71-1.64-.9-3.14-.8-4.81a7,7,0,0,0-1.28-4.4Zm-2.83,6.26.2-.06a6.42,6.42,0,0,0-.48-1.1c-1.15-1.6-2.35-3.17-3.48-4.78-1.33-1.91-2.6-3.86-3.92-5.77a6.06,6.06,0,0,0-1-.92l-.38.35Zm7.07,39.62.57-7.55-.66,0c-.59,1.57,0,3.27-.21,4.89s-.76,3,0,4.68H74.6l-.53-1-.35,0-.14,1.83,1.61-.49s.1,0,.13-.06c.3-.42.77-.83.84-1.3C76.2,130.51,75.67,130.12,75.44,129.83Zm-38.51-2.16a5.68,5.68,0,0,0,.11-2.13,16.84,16.84,0,0,0-1.4-3,10.37,10.37,0,0,0-.9.61,2.59,2.59,0,0,0-.44.59l.62.34-.65,3.59a5.21,5.21,0,0,1,1.27-.33A5.14,5.14,0,0,1,36.93,127.67Zm-12,49.71-.81,3,.17,0,.09,2.25-1.44.16a6,6,0,0,1,.56.76,1.07,1.07,0,0,1,.05.54c-.11,1.59-.23,3.18-.36,4.91a2.15,2.15,0,0,0,1.42-2.15c.07-1.25-.27-2.57,0-3.75A12.36,12.36,0,0,0,24.93,177.38Zm28.9-72.65-.56.1.59,9.71,1.1-1.77c-.18-1.21-.81-2.51-.41-3.26C55.6,107.5,53.37,106.44,53.83,104.73Zm-15,20.92.93.12c-.27-.81-.47-1.51-.72-2.19-.09-.23-.27-.59-.43-.59a1.7,1.7,0,0,0-1.13.23,5.9,5.9,0,0,0-.8,1.51l1.48-.5L37.61,132l.8-.36Zm-7.8,144.73c2-1,3-5.31,1.77-7.89l-.73,5.2-1.21-1.13ZM15,184.83l-.49.09.21,8.9.32,0,.46-3.25.93.95c-.29-1.19-.93-2.25-.65-2.95C16.4,187,15,186.14,15,184.83Zm84.36,28.43h-.6l-.16-1.83c-1.88.31-1.3,2.37-2,3.38-.48.06-1.16.06-1.19.19a12.58,12.58,0,0,0-.11,2.11l3.18-3.52,1.64.79.18-2.39h-.33ZM45.58,173.44c.38-.3.94-.54,1-.78,0-1.09.19-2.38-.32-3.23-.86-1.45-.71-2.35.88-3.12l-.18-.37-2.27,0c0,.81,1.85,2.42-.9,2.51l.41,1.6.86-.63a2.91,2.91,0,0,1,.26.71C45.39,171.13,45.47,172.15,45.58,173.44Zm-7.84-11.91c-.31.21-.52.28-.52.36-.11,1.37-.18,2.73-.27,4.1-.05.77.14,1.7-.22,2.28-.81,1.31-.47,2.26.62,3.46C38.23,168.29,37.62,165,37.74,161.53ZM47.3,98.19l.43-2.33c2,.23,1.45,1.68,1.85,2.62.15.36.56.62.86.93L51,99c-1.53-.78-.19-3.57-2.87-3.71l-.52-1.36-.47,2.46c-1.45.26-.6-2.25-2.5-1.32Zm12.13,83-1-3.32L58,178c.1,3-.67,6,.2,9,.29-.46.57-1,.39-1.39-.54-1.07-.47-1.89.57-2.49l-.67-1.58ZM94.89,101a5.61,5.61,0,0,0-1.4-.77c-.47-.11-1.13-.5-1-.91.54-1.69-.92-2.65-1.15-4l-.47.12,1.43,6.83Zm3.64,6.48c-1,1.71,1.92,2.32.42,3.79l-.16-1.43-1.87-.37,1.51,2-.17.31,2.08.16-.88,1.11,2,.15c-.51-1.11-.89-2-1.32-2.85S99.19,108.68,98.53,107.49Zm-43.75,9.59-2.43-5,.27-.09-1.13-1.35.33-.26.77.4.45-.42-2-1.53c-.22,1.12,2.24,8.36,3.16,8.79Zm1.91,5.61-1.13-2.76c-1,1.78.7,2.76.88,4.11a6.67,6.67,0,0,0,.57,1.52l.35-.16-.48-1.78c1.58.21,2.56-.31,2.94-1.55l1.54.4c-.42-1.83-1.52-.61-2.1-1l-.48,1.34ZM15.16,202.16a11.4,11.4,0,0,1-.25,2.76c-.49,1.39-.61,2.56.57,3.3L17,208a15.55,15.55,0,0,1-1-2.93C15.85,204.05,16.13,203,15.16,202.16ZM16,176.3c.11.27.38.66.28.79A3.65,3.65,0,0,0,16,181a24.26,24.26,0,0,1,1,4.14,3.86,3.86,0,0,0,.11-3.06,4.66,4.66,0,0,1-.36-1.47c-.06-.74,0-1.48,0-2.59C17.34,177.44,17.31,177.06,16,176.3Zm43.09-68.38c.7.45,2.25-.53,1.9,1s.66,2.76.63,4.2c0,.8.56.9,1.08.45-.36-1.2-.81-2.29-1-3.43a32.79,32.79,0,0,1-.3-3.59l-.32,0-.52.86-1.92-1.15Zm-33.2,3.78.26-.08.3,3.73a1.31,1.31,0,0,0,.4-.91,36.15,36.15,0,0,1,.05-4.42c.25-1.79.14-2-1.59-1.67l-.15,2,1.27.16Zm-2.22,27.72-1,3.4.6.18.5-1.56.65.15c-.14.84-.22,1.59-.39,2.32-.35,1.5-.37,1.49.93,2.54C24.3,144.17,25.71,141.65,23.65,139.42Zm37.75,6.32c.81-1.08-.2-4.69-1.27-5.27-.12.75-.3,1.57-.35,2.39a21.74,21.74,0,0,0,.11,2.32l1.09-.61Zm-7.49-42.48,2.24,2.07c.64-.87,1.07-2.46,2.79-1.33.5-1.85-1.24-.54-1.4-1.4l-.71,1.25-.75-1.67ZM40.61,219.09l.33.16a10.38,10.38,0,0,0,1.72-2.8,11.73,11.73,0,0,0-.25-3.5C41,214.91,41,217,40.61,219.09Zm19.62-73a5.58,5.58,0,0,0-.1.7c0,1.07.32,2.28-.09,3.18s-.14,1.09.73,1.26l-1,1.21,1.36.89c.44-2.13-1.15-4.25.29-6.07ZM48.11,100.74c.26.66.32,1.18.61,1.43a8,8,0,0,0,1.49.75,5.5,5.5,0,0,1,.73.54l-.19-3.64-2.35.27ZM45,262.18l-.59.07a8.42,8.42,0,0,1,.06,1.58,6.6,6.6,0,0,1-.46,1.31l-1.58-.73.15,1.69a18.43,18.43,0,0,1,2.79-.45c.91,0,1.37-.25,1.38-1.27l-1.22.31ZM70,122.44a10.67,10.67,0,0,0-.54,1.59,1.3,1.3,0,0,0,.27.87c.08.11.42,0,.65,0-.1-1.44,1.16-.61,1.73-1.25.17,1.58,1.16,1.29,2.09,1.12l.14-.67a4.76,4.76,0,0,1-1.44-.66,5.67,5.67,0,0,1-.72-1.5C71.76,124.41,70.71,122.72,70,122.44ZM23.77,265.74l.49-.06-.1-2.45-2.05,1.69-.4-.27c.48-1.09,1.43-2.17.31-3.33a16.68,16.68,0,0,0-.83,2.3,6.92,6.92,0,0,0,.07,1.75l1.85-.34a1.25,1.25,0,0,0,.27-.1ZM74.14,106.93l1.57.9c.47-1.24-2.2-2.66.38-3.88a9,9,0,0,0-3.44-1c-1,0-.64.73-.1,1.2,1.17-.91,1.61-.86,1.83.27a12.19,12.19,0,0,1,.11,2.26C74.49,106.74,74.29,106.82,74.14,106.93ZM59.83,156.72l-1.65-4.36c-.26.58-.58,1.19-.8,1.84-.29.83,0,1.33.95,1.37.28,0,.55.33.83.5l-.17.26-.45-.36-.46,2.65,1.08-.35L58.82,157Zm-32.29-1.93-.92,2.33.23-.06,0,2.82a1.16,1.16,0,0,1,.6.2c.19.17.22.52.32.8.29-1.07.78-2.31.35-2.94-.78-1.16-.47-1.85.5-2.73Zm24.82,99.7c-1.84-.52-7.15,2.24-7.47,3.56,1.46-.81,2.81-1.6,4.21-2.31a18.74,18.74,0,0,1,1.88-.6C51.45,255,51.9,254.71,52.36,254.49ZM42.49,105.14c1.67-.55.32-1.46.42-2-.38-.12-.94-.2-.95-.32-.06-.82,0-1.65,0-2.72l-1.23-.54.18,2.37-.8.18c1.63-.37.41,2.91,2.46,1.71ZM37.14,136c-.71-.37-1.37-.75-2.08-1.05-.14-.06-.5.16-.63.34-.32.48-.17.9.57,1.72l.63-1.1,2.21.72,1.24-1.69-1.65-.87ZM26.2,104.11v-.28H24.64l.88-1.77-1.07-1.78L23.72,106l1.55,0-.68-1.44ZM102.69,122c1.06.73,2,.21,1.84-.46-.31-1.06.32-1.23,1-1.71-2.1.7-1.13-1.93-2.57-2l.2,3.74.58,0,0,.18ZM70.52,113.9l1,2.3,1-.55a12.2,12.2,0,0,1-.64-2,15.26,15.26,0,0,1,0-2.25c-.71-.21-1.16,0-1.14,1A7.57,7.57,0,0,1,70.52,113.9ZM12.91,251.65c.49.61.95.95,1.07,1.39a3.72,3.72,0,0,1-.19,1.44l.57.2,1.52-3.37-1.72.45.42-1-.23-.23Zm42.58-50.42c.83-2.46-1.53-3.39-2.51-5,.21,1.61,2.23,2.81.87,4.67Zm-8.84-81.78.58,0a18.62,18.62,0,0,0,0-3.5c-.08-.47-.93-.91-1.52-1.12-.29-.1-.77.33-1.44.65L44,116.69l2.55-1ZM58.77,165l.9.57,1.22-1.5-.8-1.57.22-.18.77.44.29-.33L60,161Zm-15-57.83c-.08.52-.11.66-.12.79,0,1.6.43,3.26-.52,4.78-.12.18.16.76.41,1s.61,0,1.3-.09c-1.2-1-1.1-1.72-.17-2.41a.83.83,0,0,0,.25-.73C44.6,109.5,44.23,108.53,43.75,107.17Zm22.5,123.89,1.52-3.1-4.07,1.43ZM19.63,166.78l-.11-2.52-.35,0c-.16,1.58-.65,3.17.2,5l2.21-2.47Zm44-10.87-1-4.36.72-.16-1.44-1a9.62,9.62,0,0,0,.51,3.24C63.22,155.9,63.25,155.89,63.67,155.91Zm-42-13.44a5.09,5.09,0,0,0-1.17.34c-.1.05,0,.52,0,.79,1.62-.11,1,1.23,1.23,2a8.31,8.31,0,0,1,.06,1.87l.45,0C23,145.8,22.53,144.23,21.65,142.47ZM36.26,160l-.44.27c-.24,2-.49,3.94-.74,6,1-.14,1.17-.43,1.14-1.34a29.24,29.24,0,0,1,.45-3.92C36.69,160.67,36.41,160.32,36.26,160ZM64.73,128.5a16.42,16.42,0,0,0-.33,3,5.69,5.69,0,0,0,.84,1.79l.53-.26-.5-1.46,1-.39,0-.29-1.12-.08.15-2,.63,1.13a1.49,1.49,0,0,0-.1-1.41C65.57,128.3,65,128.5,64.73,128.5Zm34.13,81,.45,1.45,1.89-.58a1.38,1.38,0,0,0,.33-.77,2,2,0,0,0-.62-1.16c-.14-.14-.63-.06-.87.08A9.79,9.79,0,0,0,98.86,209.5Zm-66.5-24.11-.61,3,1.15-.16.23,1.22.31,0,.45-3Zm10,15.82-.4.09-.73,5.34,1.93-1.39-.38.05ZM53.18,97.78l.94.55,1-1.4.63,2.26L57,98.42c-.36-1.82-1.85-1.63-3.1-1.76ZM33.56,139c.12.31.19.95.48,1.08a2,2,0,0,0,1.57,0c.28-.14.29-.85.39-1.32s.1-.77.16-1.29l-1.34.05.35.85Zm38.17-28.29c2-.65.78-2.43,1.39-3.56C71.72,106.88,71.22,108.15,71.73,110.73ZM24.57,172.78l.43-.05c.29-2.06.35-4.06-1.28-5.74a1.64,1.64,0,0,0,0,1.11A12.77,12.77,0,0,1,24.5,170,18,18,0,0,1,24.57,172.78Zm-7,79.25-.43-4.3H16.6a22,22,0,0,1-.24,2.94C16,252.35,16,252.34,17.54,252ZM65,139.82l3,.46c-.24-1.6-1.73-1-2.44-1.49l-1.9,3.09,1.16.52Zm-26.85-30c.62,1.3-.81,2.94,1.16,3.85-.11-1.27-.19-2.34-.32-3.41a13.94,13.94,0,0,0-.28-1.46l-1.86.6Zm20.52,84.44c-1.78,1.49-2.41,3-2,4l1.16.09ZM35.91,133.29c-.56-1.31-1-2.42-1.54-3.6l-.65,3.67,1.19-.37-.11,1.53Zm70.26-9,1.53,2,.68-4.18-2.95,1.45,2.11.47-.1.44Zm-60,49.52h-.4l-.17,2.33-1.28-1.31c-.06.72-.24,1.2-.08,1.51a1.67,1.67,0,0,0,1,.62,4.23,4.23,0,0,0,1.32-.19Zm9.47,28.69-.43-.07a4.19,4.19,0,0,0-.08,1.31,14.24,14.24,0,0,0,.73,1.86l-1.55.23,2,1.51C57.2,205.54,55.85,204.11,55.65,202.51ZM37.7,179.37l-.12-5.61-.57,0-.38,5ZM69.51,146.5c1.09,1.86-.21,3.83,1,5.37l.47-.07c-.15-1.46-.3-2.92-.45-4.45l1.25,0,0-.35ZM21.68,116c.74-.77-1.15-2.29,1-2.65l-.24-.4-1.87,0-.21,2.8Zm4.49,8.84L26,127.25l.26,0,.43-1.09L27.84,128s.3-.12.3-.19c-.1-.84-.24-1.68-.37-2.54Zm-.82,33.54-1.53-5.83C23.14,154.12,24.11,157.48,25.35,158.38Zm11.76-13.55-.83,6.84C37.38,151.1,38,146.64,37.11,144.83Zm42.29-46-.22.51-1.13-.52.28,2.41.42-.06a5.57,5.57,0,0,1,0-1.14c1.52-.23.79-1.36,1-2.15l-2.89-.37-.1.44ZM20.61,148c-.25.07-.49.11-.49.15,0,1.77.07,3.54.12,5.41C21,152.91,21,152.91,20.61,148Zm28.8-84.93a8.64,8.64,0,0,0-.48,1.23c-.07.31-.13.87,0,.94.65.35,1.2.67.86,1.55l.6.18.68-2.83-.37-.07L50,65.45C49.3,64.73,50.82,63.46,49.41,63.11Zm4.67,122.36-.63,1.81L57,188.44l.1-1.44C55.56,187.69,54.83,186.74,54.08,185.47Zm9-64.23h-.49c-1,2,.73,3.67.53,5.56l.63,0ZM34.69,156.6l.37-.2a9.06,9.06,0,0,1-.19-2.86c.3-1.13-.31-1.43-1.16-2.14C34.1,153.35,33.93,155.09,34.69,156.6Zm67.72-40,.2-.31-1.68-2.33-.34.18c.55,1.3-.73,3,1.18,4.27l-.44-2.26ZM27.34,141l-.07,4.85A3.51,3.51,0,0,0,27.34,141ZM41,127.3l.24,0a6.75,6.75,0,0,0,1-2.36,7.29,7.29,0,0,0-.81-2.45L40.21,124c.85.07,1.92-.24,1,1.21C40.91,125.76,41.09,126.6,41,127.3Zm40.5-8.38L82,119c1.39-1.58-.46-2.88-.23-4.36l-.53,0-.36,2.65.82-.05ZM95.69,221.19l.22-.13c0-.6,0-1.2,0-1.8,0-.43.31-1.09.14-1.22a5.25,5.25,0,0,0-1.57-.65l-.21.38ZM21.08,206.56l-.29-.08c-.61,1.81-1.24,3.62-1.81,5.44a6.83,6.83,0,0,0-.12,1.44l.44,0Zm23.51-4.29c-.28.42-.7.79-.78,1.22a17.44,17.44,0,0,0-.14,2.51c0,.23,0,.46,0,.68.23,0,.55.06.65-.06a1.14,1.14,0,0,0,.21-.74C44.59,204.79,44.58,203.7,44.59,202.27Zm-24-7.34A13.21,13.21,0,0,1,20.2,192c.16-1.51.31-2.08,0-2.49l-.82,5.19ZM39.64,93.82c-.12,1-.22,1.5-.26,2.06a4.78,4.78,0,0,0,.1.91l1.4-.7c.06,0,.07-.15.13-.29l-.43-.34.52-1Zm63.18,32.46c.24,0,.65,0,.7-.09.51-1.21,1-2.46,1.47-3.75l-1.58.67ZM21.31,203l1.13-5.8-.36-.06C20.68,200.63,20.47,202.33,21.31,203Zm82.5-38.14c-1.89,1-2.46,2.87-1.15,3.79l0-1.81,1.29-.28ZM26.07,140.42l-.33,4.34C26.89,143.43,27,141.37,26.07,140.42ZM58.47,118l-.92-.24.81-.91-3.16-.78-.17.4c.42.2.85.39,1.25.61a2.32,2.32,0,0,1,.83.59,15.64,15.64,0,0,1,.86,1.62l.42-.2Zm-32.91-3v-.55a5,5,0,0,0-1.72.27c-.23.13-.18.88-.14,1.34.07.87.23,1.73.36,2.59l.58,0-.37-3.56Zm38.19,66.17c-.84-1.16-1.5-2.06-2.15-3l-.23.17.72,3.28ZM10.8,264.42a4.51,4.51,0,0,0-.46,4.12A3.86,3.86,0,0,0,10.8,264.42ZM92.2,103.59l0,3.48,1.16-2.45,1.55-.28,0-.28ZM76.62,88.25l-.4,0-.51,2.2,1.55.78.38-.2ZM26,173.77l-.53.15-.59,2.68,1.53.12Zm23.9-81.83-.78-.61c.22-.15.47-.28.68-.45.37-.3.73-.63,1.1-1l-.21-.4c-.68.32-1.32,1.45-2.2.31l.12,2.89Zm7.79,36.51.2,0a9,9,0,0,0,.83-2.13,7.08,7.08,0,0,0-.4-2.07l-.38,0c-.13.72.72,1.85-.89,1.88a4.94,4.94,0,0,1,.62,1.1A5.51,5.51,0,0,1,57.67,128.45ZM52.14,70.71l-.34.08c-.09-.26-.19-.52-.29-.78a5.06,5.06,0,0,0-.3-.67s-.34.06-.34.11a2.58,2.58,0,0,0,.06.73c.11.45.27.89.4,1.33l1.33,0,.55-1.39-1.05-.63ZM17.77,204.47a2.53,2.53,0,0,0,.54-4ZM89.55,101l-.33-2.54-.46,0-.08,1.15a6.92,6.92,0,0,0-1.33-.17c-.09,0-.23.71-.21.72C87.82,100.46,88.52,100.67,89.55,101ZM53.72,170.35H52.13l-.16,2.2C53.44,172.64,53.63,171.66,53.72,170.35ZM44.08,193.6l1.11,2.9.41-.14L45,192.1Zm27.75-58.14.27,0a2.83,2.83,0,0,0,.14.78,3.05,3.05,0,0,0,.51.64,2.43,2.43,0,0,0,0-.8c-.28-.72-.62-1.42-.94-2.12-.45,1-1.64,1.73-.49,2.79ZM35.46,92,34,90.83l-.35.36,1,2.13a5.9,5.9,0,0,0,1.1-1A3.73,3.73,0,0,0,36,91l-.46,0ZM61.58,68.48l.37-.35c-.3-.31-.57-.83-.9-.87a3.11,3.11,0,0,0-2.69.71Zm-34.5,84.13,1.91-.72-.82-3Zm72.21,39.95c.63-1.93,0-3.54-1.14-4C98.52,189.88,98.9,191.22,99.29,192.56ZM27.81,249.48a30.93,30.93,0,0,0,3.17.65c.19,0,.46-.56.69-.87l-.18-.15-.84.48-.43-1ZM46.48,86.05l-.32,4.26L48,89.89C47.09,89.46,47,89.28,46.48,86.05ZM23,116.4l-1.79.22,1.08,2.51.43-.09c.09-.48.19-1,.24-1.44S23,116.77,23,116.4ZM43.08,91.81c1.22,0,1.14,0,1.06.8A3.19,3.19,0,0,0,44.63,94a1.14,1.14,0,0,0,.47-.15c.06,0,0-.25,0-.39s0-.57.09-1.18l-.86-1.76Zm-5,69.73.47-.08.24-3.2-1.3.05Zm23.42-34.81.54-.19L60.92,123l-.38.11-.4,1.46.3-.07ZM19.1,248.65c-1.12,1.85-.91,2.22,1.28,2.48ZM75.18,121.17l.54-.1-.44-3.58C74.27,117.86,74.28,119.35,75.18,121.17ZM53,188.82a12.19,12.19,0,0,0,.24,1.62,3.22,3.22,0,0,0,.55.77c.14-.29.45-.61.39-.85-.11-.48-.55-1,.38-1-.11-.26-.2-.73-.33-.74A5.08,5.08,0,0,0,53,188.82Zm34.21-63.74-.58,0c.77,1.23-1,2.74,1,4.17ZM48.2,265.7c0-2.45-.33-3.07-1.41-2.75C47.08,263.94,46.84,265.19,48.2,265.7ZM17.48,175.11c.41-1.09.22-1.78-.72-2.05-.21-.06-.75.42-.86.74a2.81,2.81,0,0,0,.15,1.22h.3l.36-.87ZM64.89,81c1.29-1.12,1.29-1.8-.16-3.78ZM80.7,122.41l-.29,3.81C81.49,125.48,81.54,123.58,80.7,122.41ZM74.81,112.2l.79-.18c-.8-1,.51-2.45-1.06-3.59ZM21.58,32.58a2.57,2.57,0,0,0,.5,3.6ZM72.11,90.76l-1.23.58.09.29,1,.08.4,1.34a6.18,6.18,0,0,0,.49-2.34c0-.37-.38-.73-.59-1.09l-.27.17ZM22,109.65,20.4,110l1,2.33.32-.05ZM14.73,218.56c-.39-.54-.54-.77-.71-1s-.36-.38-.54-.57c-1.23,1.23-1.23,1.23.07,2.75l.17-1.41Zm53.66-47.37h.37l.09,1.27.46,0c0-.54.31-1.24.07-1.58s-1-.53-1.75-.87l.11,2,.23,0ZM58.6,193.51l-.19-2.75L57,192.92ZM64.46,91.8l-.53.11a10.18,10.18,0,0,0-.1,1.9c0,.24.48.49.79.59.11,0,.54-.39.5-.52C65,93.17,64.69,92.49,64.46,91.8Zm8.85,72.88c.83-1.07.58-2.48-.83-4Zm-39.17,5.09a6.69,6.69,0,0,0,0,1.78,4.86,4.86,0,0,0,.94,1.27l.31-.21a8.5,8.5,0,0,1-.46-1.54,9.8,9.8,0,0,1,.11-1.72Zm6.73-41.05c-1.38,1.05-1.31,2,.12,2.74Zm18.6,28.62.17,1.28.34.27,1.69-1.83-.94-.66-.21.24.33,1ZM9.35,238.09l.56,0c.21-.84.44-1.68.61-2.52,0-.17-.15-.39-.23-.58-.25.14-.68.25-.71.43C9.44,236.32,9.41,237.21,9.35,238.09ZM29.25,136l-.28,0c-.33.2-.65.4-1,.58s-.8.39-1.24.61l.88,1.3ZM16.39,168.27,16.18,171C17,170.27,17.74,169.53,16.39,168.27ZM53.16,66.88a14.34,14.34,0,0,0,1.41-1.54,1,1,0,0,0,0-.84.72.72,0,0,0-.6-.32.93.93,0,0,0-.6.56A20.08,20.08,0,0,0,53.16,66.88Zm-22,125.81a2.3,2.3,0,0,0,.2,3.59Zm55.53-39.08.31-4.05C86.16,150,86,152.75,86.65,153.61ZM21.48,141.74,20.32,140c-.3,1.69-.3,1.69,2.23,1.77l-.49-2Zm29,121-1.84-.13,1,2.76ZM22.27,89l1.18.83.06,1.85C24.59,89.37,24.47,89.09,22.27,89Zm51.67,17-2.4-1.82-.16.28,1.05,2ZM72.1,156c.44-1.52-.41-3.14-1.49-3.2Zm29.66-14.12.1,1.39,1.09-.59c-.9-1.89-2.26-1-3.45-1l0,.4ZM56.11,193.43l-.64,0,.07,3.47H56Zm2.49,17.24.38.11.45-1.59-1.83-.43Zm42.19-85.84c-1.18.87-1,1.55,1,2.5Zm6.88,29.87.46-.35a6,6,0,0,0-.88-1.51c-.12-.12-.8.33-1.51.65ZM67.16,172l-.69-2.3C64.54,171.15,66.15,171.53,67.16,172Zm33.77,34.31.24-3.18-1.34,1.75ZM53.52,68.3l-1.75-2.13-.36.29C52.16,66.94,51.26,68.66,53.52,68.3Zm29.64,31.83A1.51,1.51,0,0,0,83,97.7a.65.65,0,0,0-.61,0,.75.75,0,0,0,0,.61C82.61,98.92,82.88,99.47,83.16,100.13ZM55.64,207.31l-.63-.08-.66,3.43.48.08Zm-30.76-95.2-.51-2.39-.37.08-.79,1.88Zm36.58,65.6,2.32-.88-.12-.43-1.24.26-.48-1-.33.1ZM12.39,252.36c-.75,1.81-.47,2.4,1.09,2.51ZM26.05,39.67c-.69-.1-.48-2.05-1.91-.82C24.74,39.31,24.72,40.68,26.05,39.67Zm26.54,60c-1.25,1.93-1.1,2.74.15,3Zm4.83,86L56,183.53l-.48,2.22ZM31.59,81.62c1.37-.84-.48-1.45-.1-2.38l-1.18,1.18Zm61.78,73.81-1,2.6,1.1-.42.33,1.22.38-1.38C92.9,157.12,93.9,156.13,93.37,155.43ZM15.13,213c.75-1.57.07-2.09-1.22-2.28ZM74.8,114c-1.31.92-1.27,1.19.33,2.67ZM9.11,263.51l.2,2.27.54,0,.41-2.66ZM70.19,76.13l.3,3.26C71.42,78.23,71.4,77.55,70.19,76.13Zm3.39,63.75.25,1.41c.49-2.28.49-2.28-1.58-2Zm-37-63.26c.46-1.65.07-2.12-1.79-1.88ZM19.88,41l.6.36a13.72,13.72,0,0,0,.86-1.47c0-.07-.5-.38-.77-.58Zm58.74,74.67.43-.32a8.41,8.41,0,0,0-1.28-1.19c-.1-.06-.6.51-1,.91Zm2.6-27.49h-.47c.09,1.13.17,2.26.26,3.39l.61,0ZM27.41,129.92l-1.13-.29-.17.36c.41.21.94.7,1.21.58,1-.4,1-1.27.87-2.11l-.4-.11ZM35.47,157l-.57-.14a1.77,1.77,0,0,0,0,2.69Zm66.18,20.56-.35.42c-.15.67-.32,1.34-.42,2a1.19,1.19,0,0,0,.25.72c0,.06.47,0,.49-.07a9.3,9.3,0,0,0,.51-2C102.15,178.31,101.82,177.93,101.65,177.56Zm-16.33-54.3c-1.14,1.11-1.21,2.58-.39,3Zm-51.11-52,.5-1.49-.21-.12-1,1.21a4.74,4.74,0,0,0-.22-1.07.62.62,0,0,0-.56,0c-.12.12-.17.53-.1.58C33.14,70.68,33.67,70.93,34.21,71.22Zm69.51,107.09.36-.28-.7-1.86-1-.19c1.63,1.42-.13,1.17-.12,1.9Zm-2,4,.61.14.68-2.92-.51-.12Zm-64.88-27,.6.38.23-.4L36,154.48l.18,2.24.45,0Zm-1.7-75-.36.43c1.87-.13.74,1.3,1.44,2.21.23-.85.65-1.54.46-2S35.71,80.56,35.17,80.34Zm3.25,24.44L38,107.05l.95.74C38.47,106.68,39.69,105.6,38.42,104.78ZM63.06,193.6l-1.57,1.61,1.38.92Zm-32.13,6.91.33,3C32.63,202.08,31.61,201.33,30.93,200.51Zm73.61-28.86-.37,2.64C105.38,173.83,105.53,172.58,104.54,171.65ZM36.28,55.43,38,54.58l0-.4-1.89.15ZM29.69,44.16l-1.78-.72.84,2.43ZM80.83,92l-.38,0c0,.66-.11,1.32-.11,2,0,0,.51,0,.86.07-.11-.49-.19-.8-.24-1.1S80.87,92.28,80.83,92ZM45.59,157.22c1.17-1.81,1.06-2.35-.32-2.82Zm51.33-40.83-.45-.06-.14-2.7H95.9l0,3.39Zm.76-1.78.67.16.46-2.28-.61-.13ZM19.59,35.89,20,36a4.35,4.35,0,0,0-.07-1.7c-.13-.3-.82-.36-1.23-.51Zm4.77,111.45-.59.8,2.07,1,.41-.74Zm62-39.75.6-.08c-.07-.54-.16-1.08-.2-1.62s0-.87,0-1.31l-.48,0Zm6.24,43.46-.39-.08a19.73,19.73,0,0,0-.12,2.17,5.63,5.63,0,0,0,1.09.17Zm-30.49-8.69.83,2.35.82-1.73ZM72,203.17l-.56,0,.1,3.07H72Zm-10-34-.59.05.2,2.32.64-.06Z"/><path class="cls-6" d="M8.51,1.41c7,.84,10.57,5.47,13.38,11l.5-.22a15.35,15.35,0,0,0-.13-1.92C22,9,21.59,7.72,21.39,6.41c-.16-1,.13-1.83,1.24-1.81a34.54,34.54,0,0,1,2.21,3.3c.29.56.58,1.34-.56,1.79-.46.19-.59,1.28-.79,2,0,.15.26.38.36.59,1.16,2.53.5,3.15-2,3.82-2.06.54-2.67,2-3.5,3.57a2.13,2.13,0,0,1-1.17,1.05c-1.82.43-3.7.69-5.29-.62a2.72,2.72,0,0,1-.94-1.64C10.4,13.68,10,8.9,9.46,4.13c-.05-.49-.48-.92-.66-1.4A9.2,9.2,0,0,1,8.51,1.41Zm2.54,3.2-.25.16L12.53,13l1-1.51.75,4.28c.82-1.58-.66-3.18.56-4.15,1.28,2.39-.51,5,.33,7.44l.73,0a15.6,15.6,0,0,1,.23-1.82,9.31,9.31,0,0,1,.58-1.43l.44.19L17,17.39c1.23-1.26,1.31-1.75.37-3.25l-.76,1.24-.38-.17a6.33,6.33,0,0,0,.36-1.39c0-1.07,1.46-1.93.46-3.15a27.36,27.36,0,0,0-1.8-2.2C13.87,7.15,12.44,5.9,11.05,4.61ZM13.5,18.77l.16-.3.51,1,.54-.23L13,13.93c-1.43,1.58-.25,3.06-.44,4.46C12.51,18.47,13.16,18.64,13.5,18.77Z"/><text class="cls-7" transform="translate(114.96 254.9)">Cucurbit<tspan class="cls-8" x="43.65" y="0">a</tspan><tspan class="cls-9" x="49.72" y="0">c</tspan><tspan x="55.5" y="0">ées</tspan></text><text class="cls-10" transform="translate(114.58 264.16)">Cucurbita maxima</text><path d="M62,14.06a1.19,1.19,0,0,0-.08.2.45.45,0,0,1,0,.16.07.07,0,0,1-.13,0c-.08-.2-.23-.37-.19-.6s0-.2.2-.21a4.87,4.87,0,0,1,.54,0l.31,0L64,13.62l1.29,0,.78,0a.91.91,0,0,0,.33,0,1,1,0,0,1,.84.14l1,.49a.65.65,0,0,1,.47.54c0,.09,0,.18.07.28a.71.71,0,0,1,0,.25c0,.14,0,.24.15.28s.15.14.14.26a1.88,1.88,0,0,0,.08.94.2.2,0,0,1,0,.15,1.79,1.79,0,0,1-.48.7s0,.05,0,.05a3.21,3.21,0,0,1-1.19.46c-.24,0-.47.06-.71.07s-.62,0-.93,0l-1.09,0a.64.64,0,0,0-.28.05,2.31,2.31,0,0,1-1,.12,6.77,6.77,0,0,0-.78,0l-.24,0c-.12,0-.17-.09-.18-.21,0-.66-.08-1.33-.11-2a2.76,2.76,0,0,0-.07-.76,1.82,1.82,0,0,1,0-.77.81.81,0,0,0,0-.41Zm.89,1.31h0c.07-.1,0-.16-.06-.23s-.16-.28-.07-.45,0-.08,0-.12c-.12.15-.24.28-.21.47s.05.34.07.52l.29.06Zm1.71-.52c-.36,0-.53.12-.55.4a2.06,2.06,0,0,0,.17.95.33.33,0,0,0,.46.23,3.19,3.19,0,0,1,.92-.12,1.75,1.75,0,0,0,.64-.14.41.41,0,0,0,.18-.64s-.08-.09-.09-.14a.67.67,0,0,0-.56-.43l-.94-.09Zm-2,1.46c0,.07-.07.14,0,.17s.1,0,.16,0a1.45,1.45,0,0,1,.22-.09l0-.11.26,0L63,16.16a.69.69,0,0,1-.13-.07,1,1,0,0,0-.08-.26c0-.05-.11-.07-.17-.1s-.21,0-.21.12S62.42,16.24,62.64,16.31Zm3-2.25a.39.39,0,0,0-.31-.34C65.27,14,65.57,13.93,65.64,14.06Zm.44-.17c-.19-.05-.19-.05-.34,0,.06.05.12.14.14.13A.94.94,0,0,0,66.08,13.89ZM65,14c0-.18,0-.23-.2-.23Zm-2,2.69c-.14-.12-.14-.12-.22-.09S62.88,16.75,63,16.68Zm0-.87.07,0a.1.1,0,0,0,0,0l0-.06Z"/><path d="M59.42,14.92a10.27,10.27,0,0,0-3.55-.18.72.72,0,0,0,.47.32,4.48,4.48,0,0,0,1,0A7.26,7.26,0,0,1,59,15c.25,0,.35.15.28.38a2.28,2.28,0,0,1-.34.86.5.5,0,0,1-.41.23,2,2,0,0,1-.8-.09,1.8,1.8,0,0,0-.73,0l-.69,0-.18,0s0,.06,0,.08c.07.28.1.3.38.22a1.11,1.11,0,0,1,.65-.07,5,5,0,0,0,1.16,0c.23,0,.46,0,.69,0a.78.78,0,0,1,.21,0,2.23,2.23,0,0,0,.23,0c.28,0,.35-.09.33-.37s0-.18.12-.35c.14.09.12.24.12.36a1.67,1.67,0,0,0,.09.62,2.12,2.12,0,0,1,.09.94.49.49,0,0,0,.1.4.29.29,0,0,1,.07.12c.08.24,0,.35-.24.36a.59.59,0,0,1-.19,0,1.53,1.53,0,0,0-.64,0,.91.91,0,0,1-.27-.05l-.42-.09.94-.14c0-.21,0-.23-.19-.25a19.71,19.71,0,0,0-2.43,0c-.2,0-.41,0-.59-.1a.23.23,0,0,0-.12,0l-1.31,0c-.06,0-.15,0-.18,0a.18.18,0,0,1-.24.06.3.3,0,0,1-.2-.27c0-.13,0-.25,0-.38a2.2,2.2,0,0,0,0-.37,3.87,3.87,0,0,1-.09-.9,1.57,1.57,0,0,0-.12-.6,2.13,2.13,0,0,1-.1-1c0-.2,0-.41,0-.61s0-.4,0-.59.16-.31.34-.22a.91.91,0,0,0,.54,0,1.25,1.25,0,0,1,.51,0,4,4,0,0,0,.59.1c.62.06,1.25.12,1.87.16.33,0,.67,0,1,0l.6,0a.2.2,0,0,1,.22.19A1.8,1.8,0,0,1,59.42,14.92ZM54.89,17v0s-.13,0-.15-.06,0-.12,0-.19-.11,0-.12,0a1.43,1.43,0,0,0,0,.22Zm-.13.91c.16-.12,0-.29.11-.38C54.73,17.59,54.7,17.71,54.76,17.89Zm.26-.65v0a.81.81,0,0,0-.22,0s-.08.06-.09.1.06.06.12.11v-.15Zm-.11-.82-.21-.11C54.75,16.49,54.75,16.49,54.91,16.42Z"/><path d="M32.79,18c0-.1,0-.22,0-.33a9.71,9.71,0,0,0,0-1.32.55.55,0,0,0-.06-.22c-.1-.2-.2-.22-.38-.09s-.2.18-.31.26c-.29.22-.57.46-.87.65a2.57,2.57,0,0,1-.6.23.28.28,0,0,1-.19-.1,2.68,2.68,0,0,1-.18-.28c-.1-.16-.2-.32-.29-.49a.45.45,0,0,1-.1-.21c0-.29-.24-.37-.32-.59l-.05,0s0,.08,0,.12a.74.74,0,0,1-.1.5.73.73,0,0,0,0,.58,3.3,3.3,0,0,1,0,.83,1.13,1.13,0,0,0,0,.26.18.18,0,0,1-.15.23,3,3,0,0,1-1,.07c-.17,0-.21-.08-.21-.25s0-.51.05-.76a3.21,3.21,0,0,0-.05-.82,6.87,6.87,0,0,1-.08-.78c0-.55,0-1.1-.06-1.64v-.25h.18l1.26-.05a.36.36,0,0,1,.37.2,1.79,1.79,0,0,1,.33.55s.08.06.13.09.11.05.13.09a5.44,5.44,0,0,0,.39.55.5.5,0,0,0,.14.15c.08,0,.13,0,.15-.1a.75.75,0,0,1-.17-.1,1.37,1.37,0,0,1-.19-.23.15.15,0,0,1,.07-.23.18.18,0,0,1,.23.06.8.8,0,0,1,.07.2c0,.07,0,.13.07.25a1.39,1.39,0,0,0,.17-.16.64.64,0,0,1,.25-.21,2.85,2.85,0,0,0,.78-.65c.14-.17.27-.35.42-.54l2-.08c0,.19,0,.34,0,.49l-.12.87a1.55,1.55,0,0,1-.06.31,5.14,5.14,0,0,0-.08,1.11c-.06.49-.08,1-.12,1.47l0,.24c0,.19-.09.25-.28.24l-1.07-.09Zm-4.35-2.39c-.06.09-.2.08-.17.23h.27Zm-.06.71c.06-.1.11-.17,0-.27C28.31,16.15,28.33,16.23,28.38,16.34Zm.32.08,0-.06-.23.11C28.57,16.54,28.62,16.45,28.7,16.42Zm4.55-1.71,0-.05h-.2v.06Zm.13-.48v-.05c-.06,0-.12-.08-.21,0Zm-5,1.31,0,0,.09-.12,0,0Zm1.35-.49c.07.06.09.09.1.08l.06-.05s0-.05-.06-.05S29.77,15,29.72,15.05Z"/><path d="M50.19,14.79c-.07.07-.14.16-.26.09s-.08,0-.11,0l-.31.18a.29.29,0,0,0-.15.26c0,.24,0,.49,0,.73a.84.84,0,0,0,.3.51,1,1,0,0,0,1.06.27,1.84,1.84,0,0,0,.7-.38.48.48,0,0,1,.63-.13,1,1,0,0,0,.62.11.28.28,0,0,1,.2,0c.21.12.42.26.62.39a.16.16,0,0,1,.07.23c-.06.16-.1.33-.29.41s-.09.12-.13.19c-.14.28-.22.33-.54.3l-.14,0a4.66,4.66,0,0,0-.49.16.3.3,0,0,0-.17.14c-.09.18-.11.19-.25.05l0,0c-.14,0-.25.08-.25.25l-.13,0a9,9,0,0,1-1.72-.14.51.51,0,0,1-.28-.15,3.35,3.35,0,0,0-.53-.4,1.79,1.79,0,0,1-.78-.71l-.07-.12c-.1-.28-.2-.55-.31-.82,0,0,0-.05,0-.07a1.47,1.47,0,0,1-.14-1.35c.07-.21.13-.41.21-.61s.29-.44.58-.42a1.49,1.49,0,0,0,.47-.07c.56-.15,1.11-.32,1.68-.46a4.7,4.7,0,0,1,.84-.1,2.52,2.52,0,0,1,.61.11c.37.09.73.2,1.1.3a1.19,1.19,0,0,1,.54.34.65.65,0,0,1,.11.54.23.23,0,0,1-.07.1,1,1,0,0,1-.57.26.28.28,0,0,0-.26.19c-.08.23-.3.31-.47.45s-.16,0-.24,0l-.41-.33a.7.7,0,0,0-.23-.11l-.78-.21ZM48.8,17.68l-.19-.23c-.06-.08-.13-.06-.23,0l.32.31Zm-1-2.3a.58.58,0,0,0-.16.15s0,.09.08.14S47.86,15.51,47.8,15.38Zm.51,1.26L48,16.55l.08.24A.19.19,0,0,0,48.31,16.64ZM48,16c.17,0,.17,0,.29-.05C48.13,15.93,48.13,15.93,48,16Zm1,1.71c.07.2.07.2.19.11Zm-1.1-2.57c.11-.17.11-.17,0-.2Zm.11.66v-.07l-.15,0s0,0,0,.08Zm1-1.88,0,0-.12-.08,0,0Zm.35-.1s-.07.07-.06.09,0,.05.06.07,0,0,0-.07S49.37,13.88,49.35,13.83Zm-1,3.32h0l0,.18h0Zm1.16.87v0l.13,0c0-.05,0-.06-.06-.06S49.51,18,49.48,18Z"/><path d="M71.5,16.19c0,.14,0,.24,0,.33s0,.29.17.35a.5.5,0,0,1,.12.08A.2.2,0,0,0,72,17a.47.47,0,0,1,.2-.06L74,16.75a1.15,1.15,0,0,1,.26,0,1.72,1.72,0,0,0,.75-.08l.27-.05c0,.13,0,.24,0,.35a5.76,5.76,0,0,0,0,.59.4.4,0,0,1-.16.38.77.77,0,0,1-.48.16l-.54.05a3.85,3.85,0,0,1-.48,0H73.1l-1.1.05-1.54.13c-.16,0-.32.11-.5,0a1.72,1.72,0,0,0,0-1c0-.4-.14-.79-.2-1.19s-.08-.66-.12-1a1.46,1.46,0,0,0-.07-.3,3.51,3.51,0,0,1-.22-.89,2.89,2.89,0,0,1,0-.29c0-.18,0-.25.19-.29a3.4,3.4,0,0,1,.64-.09c.8,0,1.6-.06,2.4-.07.42,0,.84,0,1.26,0l1,0c0,.1.07.22.09.35a3.43,3.43,0,0,1,.08.56c0,.22-.08.33-.29.34a3.85,3.85,0,0,1-.48,0l-.44-.06-.69-.07-.88-.08a8.68,8.68,0,0,0-1.2.14,3.17,3.17,0,0,0,.13.43c0,.14.17.17.31.17L72.93,15l1.52,0a2.46,2.46,0,0,1,.36.06,7.45,7.45,0,0,1,0,1.06,1.29,1.29,0,0,1-.17.16.4.4,0,0,1-.38,0,1,1,0,0,0-.79-.16c-.39,0-.79.07-1.18.1-.13,0-.26,0-.38,0A2.88,2.88,0,0,0,71.5,16.19Zm2.78,1c-.09-.12-.18,0-.27,0v.06l.27,0c.06,0,.11.12.21.06S74.35,17.22,74.28,17.22Zm.3.19c.08.15.18.16.29,0A.21.21,0,0,1,74.58,17.41Zm-.94-.06,0,0s0,0,.07,0,.06,0,.09,0v0Zm.31.2v-.06l-.1,0,0,0Zm.44.16.06,0s0,0,0-.05l-.06,0Z"/><path d="M32.33,26c0-.11.05-.2.08-.28s0-.12.07-.15a.91.91,0,0,0,.25-.42c.1-.2.19-.24.41-.18a9.68,9.68,0,0,0,1.15.29,4.79,4.79,0,0,0,1.31,0c.09,0,.15-.06.15-.15s-.06-.11-.14-.12-.39-.1-.59-.11a3.75,3.75,0,0,1-1.13-.37c-.31-.11-.62-.25-.92-.37a.52.52,0,0,1-.27-.83.86.86,0,0,0,.16-.58A.55.55,0,0,1,33,22.4c.06-.09.15-.17.21-.26a.86.86,0,0,1,.66-.41,5.47,5.47,0,0,1,1.4,0l1.21.07a3.78,3.78,0,0,1,.47.06l.91.17.11,0c.09.05.2.1.2.22a.32.32,0,0,1-.17.24,3.7,3.7,0,0,0-.36.33l-1-.13a1.82,1.82,0,0,0-.33,0c-.3,0-.6.06-.9,0a1.13,1.13,0,0,0-.65.19c-.06,0-.14.13-.12.17a.26.26,0,0,0,.18.16,3.19,3.19,0,0,0,.54.06h.12a.36.36,0,0,1,.42.23.5.5,0,0,0,.1.11l.13-.11a.58.58,0,0,1,.74-.23,1.63,1.63,0,0,1,.49.29,7.21,7.21,0,0,0,.72.51.59.59,0,0,1,.28.49,1.4,1.4,0,0,1-.48,1.21,1.31,1.31,0,0,1-.6.35,2.14,2.14,0,0,0-.4.2,2.64,2.64,0,0,1-.87.25c-.37.06-.75.1-1.13.14a1,1,0,0,1-.35,0,2,2,0,0,1-.81-.31.43.43,0,0,0-.25-.07l-.72-.15A.51.51,0,0,1,32.33,26Z"/><path d="M42.91,15.83a2.56,2.56,0,0,0-.1.34c-.07.42-.13.85-.21,1.27a2.1,2.1,0,0,1-.15.42c-.08.16-.13.18-.31.14l-.42-.07L41,17.85a.43.43,0,0,0,0-.12,1.11,1.11,0,0,0,.05-.25,18.83,18.83,0,0,0,0-2,7.22,7.22,0,0,1,0-.93A2.18,2.18,0,0,0,41,14c0-.18-.08-.36-.12-.55,0,0,0,0,0,0a.05.05,0,0,1,0,0h1.77a.75.75,0,0,0,.39.43c.2.14.37.31.56.47s.16.1.24.15a.57.57,0,0,1,.33.38.56.56,0,0,0,.39.42c.12,0,.21.09.18.25s.07.1.14.08a.25.25,0,0,0,.2-.23c0-.13,0-.26,0-.38s0-.2,0-.3,0-.27-.06-.41,0-.13,0-.19a1,1,0,0,0,0-.17.53.53,0,0,1,.22-.51H46.4a1.37,1.37,0,0,0,.28-.05l.11,0h.76a.56.56,0,0,1,.12,0,.18.18,0,0,1-.11.22.84.84,0,0,0-.36.34c-.09.15-.14.15-.32.09L46.69,14a.89.89,0,0,0-.12.38c0,.25-.06.5-.09.75a.89.89,0,0,0,0,.36,5.24,5.24,0,0,1,.1,1.25c0,.43,0,.87-.05,1.34,0,0-.13.08-.2.07a3.06,3.06,0,0,0-.74,0,.33.33,0,0,1-.29-.14,2,2,0,0,0-.5-.51,2.76,2.76,0,0,1-.54-.54c-.21-.23-.4-.49-.63-.71a1.3,1.3,0,0,0-.39-.25A1.41,1.41,0,0,0,42.91,15.83Zm1.18.42v.08l.32.13-.09.1h.19c0-.18-.12-.2-.16-.26s.06-.24-.07-.34C44.23,16.08,44.3,16.26,44.09,16.25Zm0-.08a.51.51,0,0,0-.12-.43.64.64,0,0,0-.1.23c0,.06.1.11.15.17Zm-.77-.74v.07l.27,0v-.05Zm2,1.83c0,.1,0,.19.17.14s0,0,0-.07Zm-3.57-.35-.1-.16C41.57,16.88,41.61,16.92,41.75,16.91Zm1.87-1.23c.1.15.1.15.19.12C43.75,15.71,43.75,15.71,43.62,15.68Zm2.25.72-.08,0s0,0,0,.05,0,0,0,.05Zm.11.42,0,.06.12-.05v0Zm-1.51-1.13,0,0,0,.08,0,0A.24.24,0,0,0,44.47,15.69ZM42,13.54l-.09,0,0,0s0,0,0,0S41.92,13.56,42,13.54Z"/><path d="M38.48,14.74c-.48,0-1,0-1.45-.06-.24,0-.31,0-.33.17a.36.36,0,0,0,.29.43,2.34,2.34,0,0,0,.38,0l1.26,0h.88c.32,0,.44.17.33.48a1.22,1.22,0,0,1-.18.36.43.43,0,0,1-.2.15,2.11,2.11,0,0,1-.71.05l-1.38,0h-.1a.27.27,0,0,0-.22.19.23.23,0,0,0,.17.26.64.64,0,0,0,.23.05,11,11,0,0,0,1.9-.16,5.93,5.93,0,0,1,.59-.07c.21,0,.24,0,.25.22a.62.62,0,0,1-.11.4c-.06.08-.1.16,0,.24a.41.41,0,0,1,.1.33c0,.12,0,.24,0,.36s-.09.29-.27.26a5.37,5.37,0,0,1-.8-.15,7.15,7.15,0,0,0-1.39-.18A13.47,13.47,0,0,1,36,17.9a1,1,0,0,0-.38,0c-.21,0-.25,0-.27-.17a7,7,0,0,1-.11-1.37c0-.11,0-.23.06-.34s0-.08,0-.12a4,4,0,0,1-.13-1.2.65.65,0,0,1,.12-.37.24.24,0,0,0,0-.3,1.43,1.43,0,0,1-.13-.28.55.55,0,0,1,0-.25.14.14,0,0,1,.17-.13l.47,0,1.38.12c.23,0,.47,0,.71,0a13,13,0,0,1,2,.15c.36,0,.46.17.43.54a1.93,1.93,0,0,1,0,.24c0,.2-.05.25-.25.25H38.48ZM35.85,15l.07.41.19,0C35.93,15.27,36.1,15,35.85,15Zm-.05-.8a.45.45,0,0,0-.21-.26C35.63,14.15,35.63,14.15,35.8,14.18Zm.07,1.6.25-.11C36,15.63,35.91,15.6,35.87,15.78Zm.18.66v0l-.12,0v0Z"/><path d="M22.49,13.57c.16,0,.16,0,.35.11a.37.37,0,0,0,.31,0,1.45,1.45,0,0,1,.74-.07c.46,0,.92,0,1.38,0h2.12l.07,0c0,.05,0,.12-.07.14-.24.14-.2.38-.23.59a.39.39,0,0,1-.31.32,5.62,5.62,0,0,1-1,0c-.41,0-.82,0-1.23,0l-.67.05-.16,0c0,.4,0,.4.42.38s.67-.05,1-.05.78,0,1.17,0a1.54,1.54,0,0,1,.17,0c0,.21-.05.4-.05.58a5.44,5.44,0,0,0,0,.57c0,.14,0,.2-.17.19a1,1,0,0,1-.17,0,1.77,1.77,0,0,0-.2,0c-.37,0-.73.05-1.1.06s-.65,0-1,0h-.26l.07.44h.45l1.84-.1.93,0c.18,0,.23,0,.2.2a4.84,4.84,0,0,0,.05.93c0,.25-.05.33-.29.31a10.81,10.81,0,0,0-2,.05c-.44,0-.89,0-1.33,0s-.71,0-1.08-.05c0-.69-.14-1.37-.09-2.06a.31.31,0,0,0,.28-.3c0-.11,0-.19-.11-.23a.28.28,0,0,1-.18-.36c.05-.32.09-.63.13-.94a.37.37,0,0,0,0-.21A1.12,1.12,0,0,1,22.49,13.57Zm.27,1.16c-.11-.07-.16,0-.19.07s0,.15.1.18Zm.26.46,0,0-.16-.05v0Zm.11-.28,0,0h.21v0Z"/><path d="M16.8,16.61a2.55,2.55,0,0,1,.33.17,2.43,2.43,0,0,1,.28.2.46.46,0,0,0,.42.15,9,9,0,0,1,1,0c.28,0,.56,0,.83,0,.1,0,.16,0,.16-.15a.51.51,0,0,1,.09-.18.4.4,0,0,0,.06-.4l-.17.08c-.2.06-.39.11-.55-.08a.23.23,0,0,0-.28-.06c-.12,0-.28,0-.33.18,0,0,0,0-.06,0a1.58,1.58,0,0,1-1,0l-.06,0-.66-.5a.41.41,0,0,1-.12-.17,1.12,1.12,0,0,1-.09-.72,2.89,2.89,0,0,1,.11-.51,2.55,2.55,0,0,1,.2-.48.38.38,0,0,1,.18-.15l.84-.31a6.28,6.28,0,0,1,1.29-.19,7.4,7.4,0,0,1,.81-.08,1.8,1.8,0,0,1,.94.2,1.27,1.27,0,0,1,.37.36.48.48,0,0,1-.36.7,1.3,1.3,0,0,1-.58-.06,1.86,1.86,0,0,0-.49-.08.41.41,0,0,1-.39-.31.46.46,0,0,1-.49.17c-.18,0-.36,0-.54,0l-.26,0c0,.13,0,.25-.16.33s0,.15.06.2a1.09,1.09,0,0,0,1,.23.58.58,0,0,1,.41,0,1,1,0,0,0,.29.09,2.45,2.45,0,0,0,.38,0c.16,0,.32,0,.47,0a.48.48,0,0,1,.27.08,1.07,1.07,0,0,1,.5,1.2,1.76,1.76,0,0,0,0,.56.72.72,0,0,1-.34.71l-.13.13a.92.92,0,0,1-.62.32c-.5,0-1,0-1.49,0-.06,0-.13,0-.16,0s-.27,0-.41,0a4.55,4.55,0,0,0-.52,0,.14.14,0,0,0-.09,0c-.11.14-.22.08-.35,0a6.34,6.34,0,0,1-.81-.54.43.43,0,0,1-.16-.42A2.18,2.18,0,0,1,16.8,16.61Zm2.32-3v0l-.41.06v0Z"/><path d="M28.1,26.37h-.25c-.23,0-.47,0-.69,0a1.12,1.12,0,0,0-.45.07.39.39,0,0,1-.54-.15,4,4,0,0,0-.71-.65.58.58,0,0,0-.3-.12,3.29,3.29,0,0,0-1,0,2.85,2.85,0,0,1-.29,0c-.3,0-.38.08-.42.37a1,1,0,0,1-.22.5.25.25,0,0,1-.37,0,.93.93,0,0,0-.68-.28,3,3,0,0,0-.52-.05l-.16,0,.19-.53a.87.87,0,0,0,.07-.17.62.62,0,0,1,.26-.39,4.55,4.55,0,0,0,.78-1l.71-1.26.42-.77c.16-.29.25-.33.57-.29l.77,0c.24,0,.32.05.39.29a5.89,5.89,0,0,0,.59,1.21c.13.24.23.49.35.73,0,.05,0,.09.05.13a5.76,5.76,0,0,1,.59,1.16c.07.16.14.31.35.3h0C27.84,25.83,28.11,26,28.1,26.37ZM24.53,24a.49.49,0,0,0,.2.05.25.25,0,0,0,.19-.09.33.33,0,0,0-.06-.41c-.07-.08-.14-.14-.25-.09a.28.28,0,0,0-.13.28C24.49,23.82,24.51,23.9,24.53,24Z"/><path d="M20.9,21.9l-.1-.16a1,1,0,0,1,.92.42,1,1,0,0,1,.24.72,1.24,1.24,0,0,0,0,.33.85.85,0,0,1-.58,1,.36.36,0,0,0-.15.08,2.49,2.49,0,0,1-1.47.46l-1.14.1c.07.26.06.28-.22.43.14.26,0,.54.07.81l.17.05s-.07.06-.09.06c-.41,0-.82-.05-1.23-.06-.21,0-.42,0-.63,0H16.5a3.53,3.53,0,0,1,.16-.86,1.25,1.25,0,0,0,.05-.55,6.83,6.83,0,0,1,0-1.28,1.93,1.93,0,0,0,0-.34c0-.31,0-.61,0-.92a.73.73,0,0,1,.14-.52l.78,0c.32,0,.65,0,1,0,.53,0,1.06.11,1.59.17A2.07,2.07,0,0,0,20.9,21.9Zm-2.56.93a.75.75,0,0,0-.15.68.28.28,0,0,0,.3.25,1.58,1.58,0,0,0,.38,0,2.43,2.43,0,0,1,.93-.12c.17,0,.23-.05.26-.18s0-.31-.16-.34a.74.74,0,0,0-.6,0,.23.23,0,0,1-.37-.12.19.19,0,0,0-.21-.15C18.59,22.84,18.47,22.83,18.34,22.83Z"/><path d="M31.26,26.63a3.51,3.51,0,0,1-1.38-.05c-.29-.08-.59-.13-.88-.2l-.22-.08a.43.43,0,0,1,.19-.24.32.32,0,0,0,.16-.42L28.89,25a.38.38,0,0,1,0-.21.5.5,0,0,0-.14-.43,2.31,2.31,0,0,0-.2-.24c-.16-.15-.16-.38-.28-.54L27.8,23c-.1-.13-.21-.25-.31-.36s-.28-.29-.4-.44a3.29,3.29,0,0,1-.28-.39.59.59,0,0,1,.16-.1c.24,0,.48-.08.73-.1s.5,0,.76,0,.31.06.41.31a2.64,2.64,0,0,0,.2.37c.11.19.21.37.33.55a.26.26,0,0,0,.4.11c.14-.06.27-.11.27-.31a.53.53,0,0,1,.15-.31A.66.66,0,0,0,30.4,22a.9.9,0,0,1,.13-.28.28.28,0,0,1,.17-.12,1.06,1.06,0,0,1,.76.09,2.15,2.15,0,0,0,.76.33c.14,0,.19.15.09.25a5.46,5.46,0,0,0-.56,1,9,9,0,0,1-.91,1.36.69.69,0,0,0-.16.36c0,.22-.09.44-.14.65a.36.36,0,0,0,.13.42A6.29,6.29,0,0,1,31.26,26.63Z"/><path class="cls-11" d="M62.64,16.31c-.22-.07-.19-.28-.2-.46s.09-.17.21-.12.14,0,.17.1a1,1,0,0,1,.08.26.69.69,0,0,0,.13.07l.18.07-.26,0,0,.11a1.45,1.45,0,0,0-.22.09c-.06,0-.12.09-.16,0S62.62,16.38,62.64,16.31Zm.16-.17s0,0,0,.05,0,0,0,0,0,0,0,0ZM62.62,16l0,.06s0,0,0,0l0,0S62.63,16,62.62,16Z"/><path class="cls-11" d="M62.91,15.37v.26l-.29-.06c0-.18,0-.35-.07-.52s.09-.32.21-.47c0,0,0,.09,0,.12s0,.31.07.45.13.13.06.23c-.13-.12-.14,0-.2.08C62.82,15.51,62.85,15.42,62.91,15.37Z"/><path class="cls-11" d="M65.64,14.06c-.07-.13-.37-.06-.31-.34A.39.39,0,0,1,65.64,14.06Z"/><path class="cls-11" d="M66.08,13.89a.94.94,0,0,1-.2.16s-.08-.08-.14-.13C65.89,13.84,65.89,13.84,66.08,13.89Z"/><path class="cls-11" d="M65,14l-.2-.23C65,13.76,65,13.81,65,14Z"/><path class="cls-11" d="M63,16.68c-.12.07-.16,0-.22-.09S62.86,16.56,63,16.68Z"/><path class="cls-11" d="M63,15.81l.08-.07,0,.06a.1.1,0,0,1,0,0Z"/><path class="cls-11" d="M54.89,17l-.31,0a1.43,1.43,0,0,1,0-.22s.08,0,.12,0,0,.14,0,.19.1,0,.15.06Z"/><path class="cls-11" d="M54.76,17.89c-.06-.18,0-.3.11-.38C54.74,17.6,54.92,17.77,54.76,17.89Z"/><path class="cls-11" d="M55,17.24l-.19,0v.15c-.06-.05-.12-.09-.12-.11s0-.1.09-.1a.81.81,0,0,1,.22,0Z"/><path class="cls-11" d="M54.91,16.42c-.16.07-.16.07-.21-.11Z"/><path class="cls-11" d="M28.44,15.63l.1.23h-.27C28.24,15.71,28.38,15.72,28.44,15.63Z"/><path class="cls-11" d="M28.38,16.34c-.05-.11-.07-.19,0-.27C28.49,16.17,28.44,16.24,28.38,16.34Z"/><path class="cls-11" d="M28.7,16.42c-.08,0-.13.12-.26,0l.23-.11Z"/><path class="cls-11" d="M33.25,14.71h-.17v-.06h.2Z"/><path class="cls-11" d="M33.38,14.23h-.2c.09-.12.15-.06.21,0Z"/><path class="cls-11" d="M28.37,15.54l.08-.11,0,0-.09.12Z"/><path class="cls-11" d="M29.72,15.05c.05,0,.08,0,.1,0s0,0,.06.05l-.06.05S29.79,15.11,29.72,15.05Z"/><path class="cls-11" d="M48.8,17.68l-.1.08-.32-.31c.1-.06.17-.08.23,0Z"/><path class="cls-11" d="M47.8,15.38c.06.13.09.23-.08.29s-.1-.11-.08-.14A.58.58,0,0,1,47.8,15.38Z"/><path class="cls-11" d="M48.31,16.64a.19.19,0,0,1-.21.15L48,16.55Z"/><path class="cls-11" d="M48,16c.16-.08.16-.08.29-.05C48.14,16,48.14,16,48,16Z"/><path class="cls-11" d="M49,17.72l.19.11C49,17.92,49,17.92,49,17.72Z"/><path class="cls-11" d="M47.85,15.15l0-.2C48,15,48,15,47.85,15.15Z"/><path class="cls-11" d="M48,15.81l-.18,0s0-.08,0-.08l.15,0Z"/><path class="cls-11" d="M49,13.93l-.12-.07,0,0,.12.08Z"/><path class="cls-11" d="M49.35,13.83c0,.05,0,.07,0,.09s0,.05,0,.07-.06,0-.06-.07S49.32,13.87,49.35,13.83Z"/><path class="cls-11" d="M48.32,17.15v.17h0l0-.18Z"/><path class="cls-11" d="M49.48,18s.05,0,.08,0,0,0,.06.06l-.13,0Z"/><path class="cls-11" d="M74.58,17.41a.21.21,0,0,0,.29,0C74.76,17.57,74.66,17.56,74.58,17.41Z"/><path class="cls-11" d="M74.28,17.22l-.27,0v-.06c.09,0,.18-.09.27,0Z"/><path class="cls-11" d="M73.64,17.35h.13v0s-.06,0-.09,0,0,0-.07,0Z"/><path class="cls-11" d="M74.28,17.22c.07,0,.16,0,.21.06s-.15,0-.21-.06Z"/><path class="cls-11" d="M74,17.55l-.09,0,0,0,.1,0Z"/><path class="cls-11" d="M74.39,17.71l0-.05.06,0s0,.05,0,.05Z"/><path class="cls-11" d="M44.09,16.25c.21,0,.14-.17.2-.28.13.1,0,.22.07.34s.21.08.16.26h-.19l.09-.1-.32-.13Z"/><path class="cls-11" d="M44.09,16.17l-.07,0c-.05-.06-.14-.11-.15-.17a.64.64,0,0,1,.1-.23A.51.51,0,0,1,44.09,16.17Z"/><path class="cls-11" d="M43.32,15.43h.27v.05l-.27,0Z"/><path class="cls-11" d="M45.32,17.26l.21.07s0,.06,0,.07S45.35,17.36,45.32,17.26Z"/><path class="cls-11" d="M41.75,16.91c-.14,0-.18,0-.1-.16Z"/><path class="cls-11" d="M43.62,15.68c.13,0,.13,0,.19.12C43.72,15.83,43.72,15.83,43.62,15.68Z"/><path class="cls-11" d="M45.87,16.4l0,.06s0,0,0-.05,0-.05,0-.05Z"/><path class="cls-11" d="M46,16.82l.13,0v0l-.12.05Z"/><path class="cls-11" d="M44.47,15.69a.24.24,0,0,1,0,.08l0,0,0-.08Z"/><path class="cls-11" d="M42,13.54c-.06,0-.08,0-.1,0s0,0,0,0l0,0Z"/><path class="cls-11" d="M35.85,15c.25,0,.08.29.26.38l-.19,0Z"/><path class="cls-11" d="M35.8,14.18c-.17,0-.17,0-.21-.26A.45.45,0,0,1,35.8,14.18Z"/><path class="cls-11" d="M35.87,15.78c0-.18.12-.15.25-.11Z"/><path class="cls-11" d="M36.05,16.44l-.12,0v0l.12,0Z"/><path class="cls-11" d="M22.76,14.73l-.09.25c-.07,0-.14-.06-.1-.18S22.65,14.66,22.76,14.73Z"/><path class="cls-11" d="M23,15.19l-.15-.06v0l.16.05Z"/><path class="cls-11" d="M23.13,14.91l.2,0v0h-.21Z"/><path class="cls-11" d="M19.12,13.61l-.41.06v0l.41-.06Z"/><path class="cls-11" d="M24.53,24c0-.1,0-.18-.05-.26a.28.28,0,0,1,.13-.28c.11-.05.18,0,.25.09a.33.33,0,0,1,.06.41.25.25,0,0,1-.19.09A.49.49,0,0,1,24.53,24Z"/><path class="cls-11" d="M18.34,22.83c.13,0,.25,0,.38,0a.19.19,0,0,1,.21.15.23.23,0,0,0,.37.12.74.74,0,0,1,.6,0c.12,0,.18.21.16.34s-.09.18-.26.18a2.43,2.43,0,0,0-.93.12,1.58,1.58,0,0,1-.38,0,.28.28,0,0,1-.3-.25A.75.75,0,0,1,18.34,22.83Z"/><path d="M62.8,16.14l.06.05s0,0,0,0,0,0,0,0S62.79,16.16,62.8,16.14Z"/><path d="M62.62,16s0,.06,0,.07l0,0s0,0,0,0Z"/><path d="M62.91,15.37c-.06.05-.09.14-.21.09.06-.08.07-.2.2-.08Z"/></g></g></svg>