<?xml version="1.0" encoding="utf-8"?>
<!-- Generator: Adobe Illustrator 25.4.1, SVG Export Plug-In . SVG Version: 6.00 Build 0)  -->
<svg version="1.1" id="Calque_1" xmlns="http://www.w3.org/2000/svg" xmlns:xlink="http://www.w3.org/1999/xlink" x="0px" y="0px"
	 viewBox="0 0 212.6 286.1" style="enable-background:new 0 0 212.6 286.1;" xml:space="preserve">
<style type="text/css">
	.st0{fill:none;stroke:#232322;stroke-width:0.75;stroke-miterlimit:10;}
	.st1{enable-background:new    ;}
	.st2{fill:#232322;}
	.st3{fill:#71292D;}
	.st4{fill:#FFFFFF;}
</style>
<rect x="4.4" y="0.4" class="st0" width="200.8" height="285.4"/>
<g class="st1">
	<path class="st2" d="M98.8,201h23.7v8.3h-8.8v12.4h8.8v8.3H98.8v-8.3h8.4v-12.4h-8.4V201z"/>
	<path class="st2" d="M111.9,174.1h7.1c1.4,0,2.4-0.2,3.5-0.8v8c-0.5,0.3-1.1,0.6-1.7,0.6h-0.1c1.4,1.4,2.4,3.9,2.4,7
		c0,3.9-1.6,8.8-6.3,8.8c-4.7,0-6.3-4.9-6.3-8.8c0-3.1,1-5.6,2.4-7h-1.2c-2.3,0-3.6,2-3.6,5.7c0,2,0.3,4.3,1.4,6.7l-4.9,1.6
		c-1.2-2.7-1.8-6.7-1.8-9.9C102.9,178.5,106.1,174.1,111.9,174.1z M116.7,181.8c-1.5,1.2-1.8,3.1-1.8,4.7c0,1.6,0.4,3.6,2,3.6
		c1.6,0,2-2,2-3.6c0-1.6-0.4-3.5-1.8-4.7H116.7z"/>
	<path class="st2" d="M122.5,170.2h-18.9v-8h3.1c-2.5-1.6-3.6-4.3-3.6-7.4h6.5c0,3.9,1.5,6.6,4.3,7.4h8.5V170.2z"/>
	<path class="st2" d="M98.5,152.6c-2.2,0-3.6-1.8-3.6-4.5c0-2.6,1.4-4.5,3.6-4.5s3.6,1.8,3.6,4.5
		C102.1,150.8,100.7,152.6,98.5,152.6z M122.5,144.2v8h-18.9v-8H122.5z"/>
</g>
<g class="st1">
	<path class="st2" d="M123.3,128.6c0,7.6-3.9,12.5-10.2,12.5c-6.3,0-10.2-4.8-10.2-12.5c0-6,2.6-9.4,5.6-10.9l2.6,6.6
		c-1.7,0.8-2.3,2.4-2.3,4.3c0,2.9,1.6,5,4.3,5c2.8,0,4.3-2,4.3-5c0-1.8-0.6-3.5-2.4-4.4l2.7-6.5
		C120.7,119.1,123.3,122.6,123.3,128.6z"/>
</g>
<g class="st1">
	<path class="st2" d="M113.1,116.1c-6.3,0-10.2-4.9-10.2-12.6s3.9-12.6,10.2-12.6c6.4,0,10.2,4.9,10.2,12.6S119.4,116.1,113.1,116.1
		z M113.1,98.5c-2.8,0-4.3,2.1-4.3,5c0,2.9,1.5,5,4.3,5s4.3-2.1,4.3-5C117.4,100.6,115.8,98.5,113.1,98.5z"/>
</g>
<g class="st1">
	<path class="st2" d="M121.3,71.3c1.3,1.8,1.9,4.7,1.9,7c0,4.6-2.5,8-7.4,8h-6.8v3.2h-5.4v-3.2h-4.4v-8h4.4v-6.8h5.4v6.8h5.5
		c1.5,0,2.5-1.1,2.5-2.8c0-1-0.3-1.9-0.8-3.1L121.3,71.3z"/>
	<path class="st2" d="M95.1,49.1l5.9-4.3v5.7l-5.9,8.2V49.1z M111.9,37.8h7.1c1.4,0,2.4-0.2,3.5-0.8v8c-0.5,0.3-1.1,0.6-1.7,0.6
		h-0.1c1.4,1.4,2.4,3.9,2.4,7c0,3.9-1.6,8.8-6.3,8.8c-4.7,0-6.3-4.9-6.3-8.8c0-3.1,1-5.6,2.4-7h-1.2c-2.3,0-3.6,2-3.6,5.7
		c0,2,0.3,4.3,1.4,6.7l-4.9,1.6c-1.2-2.7-1.8-6.7-1.8-9.9C102.9,42.2,106.1,37.8,111.9,37.8z M116.7,45.5c-1.5,1.2-1.8,3.1-1.8,4.7
		c0,1.6,0.4,3.6,2,3.6c1.6,0,2-2,2-3.6c0-1.6-0.4-3.5-1.8-4.7H116.7z"/>
</g>
<g class="st1">
	<path class="st2" d="M159.7,230.4h-18.9v-8h3.1c-2.5-1.6-3.6-4.3-3.6-7.4h6.5c0,3.9,1.5,6.6,4.3,7.4h8.5V230.4z"/>
</g>
<g class="st1">
	<path class="st2" d="M149.1,190.6h7.1c1.4,0,2.4-0.2,3.5-0.8v8c-0.5,0.3-1.1,0.6-1.7,0.6H158c1.4,1.4,2.4,3.9,2.4,7
		c0,3.9-1.6,8.8-6.3,8.8c-4.7,0-6.3-4.9-6.3-8.8c0-3.1,1-5.6,2.4-7H149c-2.3,0-3.6,2-3.6,5.7c0,2,0.3,4.3,1.4,6.7l-4.9,1.6
		c-1.2-2.7-1.8-6.7-1.8-9.9C140.1,195,143.4,190.6,149.1,190.6z M154,198.3c-1.5,1.2-1.8,3.1-1.8,4.7c0,1.6,0.4,3.6,2,3.6
		c1.6,0,2-2,2-3.6c0-1.6-0.4-3.5-1.8-4.7H154z"/>
	<path class="st2" d="M148.5,148.7h11.2v8H149c-1.8,0-3,1-3,2.9c0,1.7,0.9,3,2.8,4.1h11v8H149c-1.8,0-3,1-3,2.9c0,1.6,0.9,3,2.8,4.1
		h11v8h-18.9v-8h2.8c-2.3-1.6-3.5-3.9-3.5-7c0-3.9,1.8-6.3,4.6-7.4c-2.6-1.2-4.6-3.8-4.6-7.6C140.2,151.3,143.7,148.7,148.5,148.7z"
		/>
	<path class="st2" d="M155.2,132.4c0-2.8-0.6-4.4-1.9-6.2l4-3.9c2.4,2.7,3.3,6.3,3.3,10.5c0,8.2-3.8,13-10.2,13
		c-6.3,0-10.2-4.7-10.2-12.4c0-6.8,3.4-11.8,10-11.8c0.8,0,1.4,0.1,1.9,0.2v16.4C154.3,137.6,155.2,135.6,155.2,132.4z M148.1,138.1
		l0-9.3c-1.8,0.6-2.7,2.1-2.7,4.6C145.4,135.7,146.2,137.4,148.1,138.1z"/>
	<path class="st2" d="M153.6,96.6c3.8,0,6.9,3.6,6.9,11.3c0,5.2-1.5,9.3-3.3,12.1l-4.1-3.2c1.3-2.1,2.4-5.2,2.4-9.1
		c0-2.3-0.3-3.7-1.2-3.7c-0.8,0-1.1,1.2-1.3,4.3c-0.3,5.5-2,10.9-6.4,10.9c-4,0-6.7-4.4-6.7-11.2c0-4.2,0.9-8,2.4-10.7l4.2,3.2
		c-1.1,1.9-1.6,4.5-1.6,7.5c0,1.9,0.2,3.7,1.1,3.7c0.8,0,0.9-1.5,1.1-4.4C147.6,101.4,149.4,96.6,153.6,96.6z"/>
</g>
<g class="st1">
	<path class="st2" d="M190.5,201.4c4,0,6.5,3.8,6.5,9.7V230h-23.7v-17.5c0-6,2.4-9.7,6.2-9.7c2.7,0,5,2,5.2,5.6
		C184.9,204.5,186.9,201.4,190.5,201.4z M182.6,221.9v-8.1c0-1.7-0.5-2.9-2-2.9c-1.5,0-2,1.2-2,2.9v8.1H182.6z M189.5,209.8
		c-1.5,0-2.1,1.2-2.1,3v9h4.3v-9C191.7,211,191,209.8,189.5,209.8z"/>
	<path class="st2" d="M187.5,199.3c-6.3,0-10.2-4.9-10.2-12.6s3.9-12.6,10.2-12.6c6.4,0,10.2,4.9,10.2,12.6S193.9,199.3,187.5,199.3
		z M187.5,181.6c-2.8,0-4.3,2.1-4.3,5c0,2.9,1.5,5,4.3,5s4.3-2.1,4.3-5C191.8,183.7,190.3,181.6,187.5,181.6z"/>
	<path class="st2" d="M197,171h-18.9v-8h3.1c-2.5-1.6-3.6-4.3-3.6-7.4h6.5c0,3.9,1.5,6.6,4.3,7.4h8.5V171z"/>
	<path class="st2" d="M197,152.9h-25v-8h25V152.9z"/>
</g>
<g class="st1">
	<path class="st2" d="M187.5,141.8c-6.3,0-10.2-4.9-10.2-12.6s3.9-12.6,10.2-12.6c6.4,0,10.2,4.9,10.2,12.6S193.9,141.8,187.5,141.8
		z M187.5,124.2c-2.8,0-4.3,2.1-4.3,5c0,2.9,1.5,5,4.3,5s4.3-2.1,4.3-5C191.8,126.3,190.3,124.2,187.5,124.2z"/>
</g>
<g class="st1">
	<path class="st2" d="M195.8,97c1.3,1.8,1.9,4.7,1.9,7c0,4.6-2.5,8-7.4,8h-6.8v3.2h-5.4V112h-4.4v-8h4.4v-6.8h5.4v6.8h5.5
		c1.5,0,2.5-1.1,2.5-2.8c0-1-0.3-1.9-0.8-3.1L195.8,97z"/>
</g>
<g class="st1">
	<path class="st2" d="M195.8,77.6c1.3,1.8,1.9,4.7,1.9,7c0,4.6-2.5,8-7.4,8h-6.8v3.2h-5.4v-3.2h-4.4v-8h4.4v-6.8h5.4v6.8h5.5
		c1.5,0,2.5-1.1,2.5-2.8c0-1-0.3-1.9-0.8-3.1L195.8,77.6z"/>
</g>
<g class="st1">
	<path class="st2" d="M187.5,76c-6.3,0-10.2-4.9-10.2-12.6s3.9-12.6,10.2-12.6c6.4,0,10.2,4.9,10.2,12.6S193.9,76,187.5,76z
		 M187.5,58.4c-2.8,0-4.3,2.1-4.3,5c0,2.9,1.5,5,4.3,5s4.3-2.1,4.3-5C191.8,60.5,190.3,58.4,187.5,58.4z"/>
</g>
<path class="st3" d="M58.9,2.3c0.1-0.2,0.1-0.6,0.2-0.6c1.7-0.2,3.5-0.4,5.2-0.6c0.1,0,0.3,0.1,0.4,0c1.8-1.3,3.7,0,5.5-0.1
	c0.8,0.1,1.5,0.5,2,1.1c0.7-0.2,1.3-0.4,2-0.5c0.4-0.1,0.8-0.2,1.2-0.3c1.9-1,4.3-1.2,6.3-0.3c0.9,0.3,1.7,0.4,2.6,0.5
	c2-0.1,3.9,0,5.9,0.1c1.1,0.2,2.1,1.1,3.4,1.7l1.6-1.4c0.2,0.3,0.3,0.6,0.4,0.9c0.1,3.2,0.2,6.4,0.3,9.6c0,0.3-0.1,0.7-0.3,1
	c-0.9,2.1-2,4.2-2.8,6.4c-0.6,1.6-0.6,3.5-1.3,5.1c-1.2,2.7-2.8,5.3-4.1,8c-0.5,1-1.2,1.8-0.7,3.1c0.2,0.9,0.1,1.8-0.3,2.5
	c-1,2.3-1.4,4.9-1.2,7.4c0.1,1.9-0.2,3.8-0.2,5.7c0,3.3,0,6.6,0,9.9c0,4.3,0,8.6,0,12.9c0,1.7,0.3,3.4,0.3,5.1
	c-0.3,5.4-0.9,10.8-1.1,16.2c-0.2,6.1-2.3,11.7-4.1,17.4c-1.2,3.8-3,7.3-4.5,10.9s-2.9,7.6-4.3,11.4c-1,2.5-1.9,5-3,7.5
	c-0.3,0.5-0.7,1-1.1,1.4c0.8-2.1,1.6-4.3,2.4-6.4c1.4-3.4,2.9-6.8,4.2-10.3c0.5-1.9,0.9-3.8,1.2-5.7c0.3-1.1,0-2.4,1.5-2.9
	c0.2-0.1,0.4-0.6,0.5-1c0.6-1.5,1.2-2.9,1.7-4.4c0.7-2.3,1.2-4.6,1.8-6.9l-0.8-0.2l-0.4,1.5l-1.9,0.8l1.8-2.7
	c-1.6,0.3-1.9,1.3-2.1,2.4s-0.9,1-1.7,0.6c1.8,0,1.2-1.3,1.3-2.2l-0.8,0.1l0.3-1.1c-1.4,0.6-1.5,1.4-0.6,2.1l-0.9,2
	c-0.8-0.4-1.8-0.8-1.6,1.2l3.6-0.9l0.2,0.3l-2.2,1.7l-0.3,0.2c-1.6,0.4,0.1,1.7-0.7,2.3l-2.1-0.4l-0.2,0.6l1.4,0.5l-0.3,3.8
	l-1.6-1.9l-1,4.2l-1.1-0.7c-0.1,0.2-0.2,0.3-0.3,0.5l-1.1,1c-0.3-0.4-0.5-0.8-0.6-1.3c-0.1-1.7-0.1-3.3-0.2-5
	c-0.1-1.2,0.2-2.7-0.4-3.6c-0.9-1.3-1.1-2.9-0.7-4.4c0.4-1.4-0.1-2.9-1.4-3.8c0.3,3.5,0.7,7,1,10.4c0.2,2.9,0.7,6,0.3,8.8
	c-0.4,2.6-1.9,5-3,7.5c-0.3,0.6-0.5,1.3-0.7,2l-1.4,3.8c-0.6,1-1.2,1.9-1.7,2.9c-1.2,2.5-2.3,5-3.4,7.4c-0.3,0.6-0.5,1.3-0.8,2
	c1.1-1.1,1.9-2.2,2.8-3.3c0.1-0.1,0-0.3,0-0.4c0.4-1.1,0.7-2.3,1.1-3.4c0.6-1.8,1.3-3.5,1.9-5.3c0.3-0.3,0.7-0.5,0.8-0.8
	c1.2-4,4.1-7.3,4.7-11.5c0.1-0.6,0.7-1,1.1-1.5l0.6,0.3c-0.4,1.5-0.7,3-1.1,4.6c-1.4,0.6-1.5,0.8-1.4,2.3c1.8,0.7,1.4-2.3,3.2-1.9
	l-0.9,2.2l2,1.8l-1,0.7l1.2,1l-1.6,1.3c0.7,1.7,0.7,1.7-1.6,1.7l-1.2,3.9c0.9,1-0.6,1.3-1.3,1.8c0.2,0.6,0.7,1.1,0.6,1.5
	c-0.1,0.9-0.4,1.7-0.8,2.4c-0.4,0.6-0.9,1.2-1.4,1.8c-0.1,0.1-0.1,0.2-0.1,0.3l0.9,0.6l-2,1.7l0.8,1.2l-1.3,1.4l1.5,0.2l-3.8,1.4
	c0.6,0.6,1.3,1.1,1.4,1.7s0.9,1.8-0.8,1.7l0.2,1.6h-2.5c1.7,0.9,2.5,2,1.8,3.9c-0.1,0.2,0.1,0.6,0.2,0.9c0,0.3,0,0.7-0.1,1L59,166
	c0,1.6,0.4,3.2-0.1,4.5c-0.5,1.1-0.9,2.2-1.2,3.4h-2l0.6,1.6l0.2-0.4l3.3,1c0.1-0.2,0.2-0.4,0.3-0.6c0-1.3,0.1-2.6,0.3-3.9
	c0.6-3-0.5-5.8-0.6-8.7c-0.1-0.8,0.1-1.6,0.7-2.1c0.5-0.6,0.9-1.3,1.1-2.1c0.4-1.4,0.3-2.9,1.8-3.9l-0.8-1.4l0.8,0.2
	c0-0.6-0.2-1.2,0-1.4c1.6-1.9,1.8-4.3,2.6-6.5c0.2-0.6,0.9-1,1.4-1.5c-0.9,2.8-1.8,5.6-2.6,8.4c-0.9,3-1.6,6-2.1,9
	c-0.2,2-0.2,4-0.1,6c0,2.1,0,4.2-0.2,6.4c-0.3,1.8-0.2,3.6,0.5,5.3c0.1,0.4,0.2,0.7,0.2,1.1c0.2,5.6,0.4,11.1,0.7,16.7
	c0.1,2.2,0.5,4.4,0.8,6.7c0.1,0.3,0.1,0.6,0.2,0.9c-0.2,5.6,2.1,10.6,3.2,16c1,4.9,2.6,9.6,3.8,14.5c0.1,0.4,0.1,0.8,0.1,1.1l0,0
	l-0.9-1.3l-1,0.8l0.9,4.8l1.1-0.4l0,0c0.3,0.9,0.9,1.9-1.2,2l2.6,1.1c-0.7,0.2-1.4,0.5-2.1,0.8c-0.1,0.1,0.2,0.7,0.2,1l-0.9,1.2
	l0.4,0.4l1.8-1.8c0.4,1.4,0.3,2.4-2.1,2.4c0,0.6,0,1.1,0,1.7c0.1,0.8,0.8,1.7-0.4,2.3c0.1,0.9,0.6,1.6,1.5,1.9l-1,1.5l0.4,0.3
	l1.8-2.7l1.3,0.6v-7.2c1.9,1.3,0.6,19.9-1.3,21.7c-0.1-0.7-0.2-1.2-0.2-1.8c0-1.1-0.1-2.3-0.1-3.4c0-0.2,0.3-0.4,0.4-0.6
	c-0.3-0.7-0.7-1.4-1-2.1c1.7-0.4,1.8-1.3,1-2.6l0.9-0.5l-0.8-3.3c-0.8,1.2,0,2.4-1.1,3c-0.1,0.1-0.1,0.3-0.1,0.4c0.8,1,0.4,2,0.2,3
	h-1.3l-0.2,0.4l1.2,1l-2.9,0.5v0.4c1.5,0,2.7,0.2,2.7,1.9l-1.4-0.7c-0.3,2.1-0.3,2.1-2.7,3.6l1.9,0.3c0,0.2,0.1,0.7,0.2,1.2
	l-0.2,0.5l2.3,1.7l0,0c-0.8,0.3-1.6,0.6-2.5,0.9l1.7,0.5l-1.2,1.1l1.1,0.6c-1.8,0.1-0.7,0.8-0.3,1.7l-1-0.9c-0.7,0.5-1.3,1-1.8,1.6
	c-0.2,0.4-0.3,0.8-0.2,1.2c0.1,0.5,0.3,1.1,0.6,1.6l-0.4,0.2l-1.4-0.4c0.1,1.4,4.5,4.8,5.7,4.4c0.6,2.1,0.2,2.7-1.9,2.6
	c-2.6-0.1-5.2-0.4-7.8-0.6c-1-0.1-4-3.1-4.2-4.2c0-0.2-0.1-0.4-0.1-0.6c0.7-2,1.3-4,2.1-5.9s1.6-3.7,2.2-5.6c0.2-0.7,0-1.5-0.5-2.1
	c-0.9-0.5-1.4,0.3-1.8,1.1c-0.9,1.7-1.5,3.6-1.8,5.5c-0.3,1.9-1.6,3.6-2.5,5.3c-0.2,0.3-0.8,0.4-1.2,0.6c-0.1-0.4-0.1-0.8-0.2-1.2
	c0-0.2-0.1-0.4-0.2-0.6c-1.5-0.1-1.7,0.9-1.6,2c-0.2-0.5-0.3-1.1-0.5-1.6c-0.2-0.7-0.5-1.3-0.7-2l-0.4,0.1l0.7,3.5h0.9
	c0.4,0.3,0.7,0.6,1,0.9c0.3,0.6,0.6,1.2,0.8,1.8l1-2.2c0.3,0.6,0.6,1.3,0.8,1.9c0.1,0.7,0.2,1.4,0.2,2.1l-2.9,0.8
	c-2.1,0.5-4.2,0.1-6.4,0c-2.7-0.2-5.5,0-8.2-0.1c-0.7,0-1.5-0.1-2.2-0.1c-1.6-0.1-2.2-1-2.7-2.4c-1.2-3.3-2.6-6.5-3.9-9.8
	c-0.1-0.4-0.7-0.5-1.1-0.8c-0.3,0.4-0.8,0.8-0.8,1.2c0,2.5,0,5,0.1,7.5c0,1.1,0.1,2.1,0.2,3.5l-0.9-0.5c-1.3,0.2-2.4,0.8-3.4,0.5
	c-3.9-0.9-7.8,0.6-11.7,0.3c-1.9-0.2-3.8-0.4-5.7-0.6c-0.6,0-1.1,0-1.7,0.1c-0.6,0.1-1.3,0.2-1.8,0.4c0.4-1.5,0.7-3,0.8-4.5
	c-0.1-2.5-0.5-5-0.8-7.5c-0.3-2.1-0.5-4.2-0.9-6.2s-1.2-4-1.7-6c-0.3-1.3-0.3-2.8-0.5-4.1c-0.7-4.9,0.2-9.7,0.4-14.5
	c0.1-3.1,0.1-6.3,0.2-9.5s0.4-6.5,0.5-9.7c0.1-2.8,0.1-5.5,0.1-8.3c0-3.9,0.1-7.8,0.1-11.7c0-1.9,0.6-4-0.1-5.6
	c-0.8-1.9,0.2-3.5-0.1-5.3c-0.1-1.8-0.1-3.7,0-5.5C1.3,180.6,1,175.3,1.1,170c0-5.9,0.3-11.7,0.4-17.6c0-2.7,0-5.5,0-8.2
	c0-0.4,0.1-0.8,0.2-1.1c2-4.2,2.4-8.6,2.5-13.2s0.5-9,0.4-13.5c-0.1-1.9,0.1-3.7,0.6-5.5c0.3-0.8-0.2-1.9-0.2-2.9
	c-0.1-4.3,0.2-8.6,0.9-12.8c0.3-2.2,0.4-4.3,0.6-6.5C7,84.2,7.5,79.7,8,75.1c0.2-2.2,0.3-4.4,0.5-6.6c0.3-2.8,0.8-5.6,1.1-8.4
	c0.3-3,1-6.3,0.3-9.1c-0.7-3.4-1-6.8-1.1-10.3c0-1.8,0.4-3.5,1.2-5.1c1.1-2.3,2.2-4.6,2.4-7.3c0.1-1.4,0.9-2.8,1.4-4.2
	c0.2-0.7,0.4-1.4,0.6-2.1c0.9-3.9,1.8-7.8,2.6-11.7c0.3-1.4,0.3-2.8,0.5-4.2c0.1-0.8,0.5-1.4,0.6-2.2c0.1-0.5,0.1-1.1,0.1-1.6
	C18.2,2,18,1.3,18.3,1s1.2-0.7,1.5-0.5c1.2,0.9,2.5,0.3,3.5,0.2c3.2-0.5,6.5,0.2,9.7,0c1.3-0.1,2.6,0,3.9,0.1c1,0.1,2.2,0,2.8,0.5
	c1.3,1,2.5,0.6,3.9,0.4c3.6-0.4,7.2-1.2,10.8,0.3c0.5,0.2,1.3-0.1,2,0c-1.3,1.1-3,1.7-4.7,1.6l0.1,0.6c1-0.1,2-0.2,2.9-0.4
	C56,3.4,57.5,2.8,58.9,2.3c-0.6,1.2-1.8,2-3.2,2.1C57.5,5,58.5,3.5,60,2.7L58.9,2.3z M33.6,32c-0.5-0.1-1-0.1-1.5,0
	c-0.9,0.2-1.7,0.6-2.7,1l0.1,1.5l2.2-1.8l0.2,0.2l-0.5,0.9l0.3,0.2L33.6,32l0,2.2c1.2-1,2-1.9,2.9-0.6l0.8-2l-0.6,0.1L33.6,32z
	 M9.3,84l0.4-1.5l-0.4-0.3l3-1.3L12,79.4c-0.3,0.4-0.5,0.8-0.7,0.8c-1.6,0.3-2.7,1.6-2.9,3.1C8.4,83.6,9,83.8,9.3,84
	c-0.7,0.5-2,1-0.8,2.2c0,0-0.2,0.4-0.2,0.4c-0.8-0.3-0.6,0.2-0.4,0.6s0.4,0.8,0.8,1.3c0.2-0.8,0.2-1.6,0.6-2
	C10.1,85.6,9.4,84.8,9.3,84z M34.2,274.8l0.8-4.3l-0.3-0.1l-1.3,4.1L34.2,274.8l-0.2,2c0.4,0.4,0.8,0.7,1.2,1
	c0.4,0.2,0.8,0.3,1.2,0.5v0.7c1.4-0.7,0.7-1.4,0.3-2.2c-0.2-0.5-0.4-1-0.6-1.6l0.5-0.2l0.9,1.7l0.5-0.2c-0.1-0.5-0.3-1.1-0.5-1.6
	c-0.3-0.6-0.7-1.1-1.1-1.7c-0.2-0.3-0.4-0.5-0.7-0.8c-0.2,0.3-0.5,0.6-0.7,0.9S34.5,274.3,34.2,274.8z M59.8,193.4
	c0.7-0.9,1-1.9,1-3c0-1.4-0.9-3.1-1.8-3.1c-1.1,0-2.1,0-3.2,0c0,1.7,0.9,2,2.8,1.1c1,1.2-0.2,1.9-0.4,3l1.4-1.2l0.5,0.5l-2.7,1.9
	c0.3,0,0.7,0.1,1,0.1C58.9,192.9,59.4,193.2,59.8,193.4c-0.1,0.8-0.1,1.5-0.2,2.3s-0.1,1.8-0.1,2.6c-0.1,0.4-0.1,0.7-0.1,1.1
	c-0.1,0.6-0.2,1.3-0.2,1.9h-0.4L58,200c-1.8,0.9-0.6,2.7-1.3,3.9L57,204l1-1.1l0.5,1.4l2.7-2.6v2.2c1.2-0.8,1.2-1.5,0.5-2.6
	c-0.5-0.9-1.2-2.4-0.8-3c0.5-0.8,0.5-1.8,0.2-2.7c-0.1-0.8-0.3-1.5-0.5-2.4L59.8,193.4z M44.9,155.5l-0.4-0.3
	c-0.2,0.3-0.6,0.7-0.7,1c-0.4,3.4-0.7,6.8-1,10.2c-0.2,2.7-0.6,5.4-0.1,8c0.4,2,0.6,4,0.4,6c-0.1,1.5,0.1,2.9,0.5,4.3
	c0.5,2.6,1.2,5.3,1.8,7.9c0.3,1.3,0.4,2.6,0.6,3.9c0.4,1.9,1.1,3.8,0.7,5.8c-0.1,1,0,1.9,0.2,2.9c0.2,1,0.2,2.1,0,3.1
	c-0.4,1.3-0.3,2.6,0.3,3.8c0.2,0.5,0.9,1.1,1.3,1.1c1.3-0.2,1.6,0.6,1.8,1.4c0.5,1.8,0.8,3.7,0.9,5.6c0.1,3.2-0.1,6.5-0.3,9.8
	s-0.7,6.6-0.9,10c0,1.4-0.4,2.8-1,4c-0.6,1.5-1.1,3-1.5,4.6c1.3-0.2,2.3-1.1,2.7-2.3c1.1-3,2.2-6,3.2-9c0.8-2.3,1-2.4,3.1-1.1
	c0.2,0,0.4,0.1,0.6,0.1c0.3-0.9,0.6-1.8,0.8-2.7c0.6-2.3,1.1-4.7,1.3-7.2c0.1-4.4-0.5-8.9-1.9-13.1c-0.9-2.1-1.9-4.1-3.2-6.1
	c-0.7-1-1-2.2-1.1-3.4c-0.1-1.3-0.3-2.5-0.7-3.7c-0.5-1.8-1.1-3.6-1.7-5.5c-0.4-1.2-0.8-2.3-1.3-3.4c-1.2-2.6-2.2-5.4-3-8.1
	c-0.6-3.1-1-6.2-1.2-9.3C44.8,167.6,45.2,161.5,44.9,155.5z M20.4,108.8h-0.8c-0.5,4.5-1.1,9.1-1.6,13.6c-0.2,1.9-0.3,3.8-0.5,5.7
	c-0.4,2.9-1,5.8-1.1,8.7c0,3.3,0.2,6.5,0.6,9.8c0.2,2.6,0.5,5.2-0.8,7.6c-1,1.5-1.5,3.3-1.4,5.1c0,0.5-0.1,1-0.4,1.4
	c-1,1.3-1.9,2.5-1.2,4.3c0,0.2-0.1,0.5-0.2,0.7c-1.9,2.3-1.3,5.3-2,7.9c-0.8,3.2-0.2,6.5,0.5,9.7c0.3,1.4,0.9,3,2.5,3.6
	s1.6,1.6,1.6,2.9c-0.1,1,0,2.1,0.2,3.1c0.4,0.9,0.9,1.8,1.5,2.6l0.6-0.1c0.1-0.7,0.1-1.3,0.2-2c0-1.8-0.1-3.5-0.2-5.2
	c-0.1-2.3-0.5-4.6-0.4-6.9s0-4.7,0.9-6.7s1.6-3.7,1.4-5.6c-0.2-2.8,0.2-5.7,1.1-8.4c0.6-2.2,1.5-4.3,0.7-6.7c0-0.4,0-0.9,0.2-1.3
	c0.4-1.2,0.7-2.5,0.9-3.8c0-2.5-0.3-5-0.7-7.4c-0.6-2.9-0.7-5.8-0.4-8.7c0.2-2.7,0.2-5.5-0.1-8.2c-0.1-2.5-0.3-5-0.5-7.4
	C20.7,114.2,20.5,111.5,20.4,108.8z M16.8,91.8l0.8,0.2c-0.1-0.2-0.1-0.5-0.2-0.7c-0.1-0.2-0.5-0.4-0.4-0.6c0.3-2.8,0.7-5.5,1-8.2
	c0.5-4.1,1.1-8.1,1.5-12.2c0.5-4.8,0-9.6,1.8-14.2c0.3-0.8,0.5-1.6,0.5-2.4c0.6-4.1,0.6-8.3,1.7-12.3c1-3.7,1.6-7.5,2.4-11.3
	c0.4-1.9,0.6-3.8,0.9-5.7L26,24.1c-0.2,0.7-0.4,1.4-0.7,2.1c-1.6,3.4-3.3,6.7-5,10.1c-0.7,1.5-1.4,2.9-2,4.4
	c-1.1,3.1-1.7,6.3-1.5,9.6c0,0.2,0.2,0.4,0.4,0.5c0.3-0.1,0.6-0.3,0.8-0.5c0.8-1.5,1.4-3,2.1-4.4c0.2-0.2,0.4-0.5,0.6-0.7
	c0.2,0.5,0.2,1.1,0,1.7c-0.9,3.1-1.9,6.2-2.6,9.3c-1.1,4.9-1.9,9.8-2.8,14.8c-0.3,1.8-0.2,3.7-0.5,5.5c-0.5,3.3-1.3,6.5-1.6,9.8
	c-0.4,5.6-0.7,11.2-0.8,16.8c0.1,2.3,0.3,4.6,0.6,6.8C15.6,104.2,15.5,97.9,16.8,91.8L16.8,91.8z M45.9,132.9l0.6,0.1
	c0.4-0.6,0.7-1.3,0.8-2c0.1-4,0.1-8.1,0.3-12.2c0.1-3-0.1-6.1,1.6-8.8c0.2-0.4,0.3-0.9,0.4-1.4c0.7-3.2,1.4-6.5,2-9.8
	c0.3-1.9,0.5-3.8,0.4-5.6c0-2.2-0.3-4.3-0.6-6.4c-0.2-2,0-4.1-1.5-5.7c-0.3-0.2-0.7-0.3-1.1-0.3c-0.7,1-1.3,2.1-1.7,3.2
	c-0.5,2.1-1,4.2-1.2,6.3c-0.2,1.6-0.1,3.3-0.3,5c-0.1,0.7-0.3,1.3-0.7,1.9c-0.9,1.3-2.3,2.4-2.7,3.8c-0.6,2.7-0.9,5.5-1.1,8.2
	c-0.2,2.7,0.1,5.4,1,7.9c0.2,0.7,0.9,1.2,1.6,1.2c0.4,0,1,0.5,1.1,0.8c0.1,1.6,0.1,3.3,0.1,4.9c0.1,2.3,0.2,4.7,0.3,7
	C45.4,131.6,45.6,132.2,45.9,132.9z M34.9,178.4c0.9-3.3-0.5-6.8,0.8-10.1c0.1-0.3,0.1-0.7,0.1-1c0-1.6,0.1-3.2,0-4.9
	c-0.1-2.9-0.4-5.8-0.9-8.7c-1.2-6.1-2.6-12.1-4-18.1c-1.3-5.9-2.7-11.7-4-17.5c-0.5-2-0.8-3.9-1.2-5.9l-0.6,0.1
	c0.2,2.7,0.4,5.4,0.7,8.1c0.5,5.1,1,10.2,1.7,15.2c0.7,4.7,1.9,9.4,2.9,14.1c0.4,1.9,1.2,3.6,1.6,5.4c0.5,2.7,0.6,5.5,1,8.2
	c0.3,1.9,0.8,3.7,1.2,5.5c0.1,0.5,0.1,1,0,1.6c-0.2,0.9-0.4,1.9-0.4,2.9c0,2.6,0.2,5.1,0.3,7.7c0,0.6,0,1.2,0,1.9h0.3l0.4-3.7
	l2.8-0.8L34.9,178.4z M34.3,50.5c-0.1,0.3-0.3,0.7-0.3,1c-0.3,1.9-0.7,3.8-0.9,5.6c-0.4,3.7-0.8,7.5-1.1,11.2
	c-0.4,5-0.8,9.9-1.1,14.9c-0.1,2.1-0.1,4.2-0.1,6.3c0,5.3-0.1,10.6,0.1,15.9c0.2,3.1,0.5,6.2,1.1,9.3c0.5,3.3,1.3,6.6,2.2,9.8
	c1.1,3.7,3.3,7.1,3.7,11.1c0,0.2,0.4,0.5,0.6,0.7c0.2-0.3,0.5-0.6,0.5-0.9c-0.1-1.3-0.3-2.5-0.5-3.7c-1.6-6.7-3.5-13.3-4.9-20
	c-0.7-3.4-0.7-7-0.9-10.5c-0.3-2.5-0.5-5-0.5-7.5c0.2-4.7,0.8-9.4,1.2-14.2c0.1-0.9,0-1.8,0-2.6c0.2-2.5,0.5-4.9,0.6-7.4
	c0.2-2.7,0.3-5.3,0.3-8C34.4,58,34.3,54.4,34.3,50.5z M10.7,85.6c-0.2,0.2-0.3,0.5-0.4,0.7c-0.4,1.6-0.8,3.3-1.1,4.9
	c-0.3,1.2-0.5,2.4-0.6,3.6c-0.4,3.7-0.7,7.4-0.9,11.1c-0.3,4.4-0.3,8.9-0.5,13.4c-0.1,2.3-0.2,4.6-0.3,6.9c-0.1,2.2-0.4,4.5-0.4,6.7
	c0,1.8,0.3,3.6,0.4,5.4c0,1-0.2,1.9-0.2,2.9s0.2,1.9,0.2,2.9c0.2,3.3,0.4,6.6,0.6,9.9c0.1,1,0.2,1.9,0.4,2.9
	c0.7,2.6,0.8,5.3,0.2,7.9c-0.1,0.2,0.1,0.6,0.2,0.9c0.3-0.7,0.4-1.4,0.5-2.1c0.7-3.3,0.7-6.7,0.1-10c-0.1-1.9-0.1-3.9,0.2-5.8
	c0-0.4,0.2-0.8,0.1-1.2c-0.2-3.5-0.5-7.1-0.5-10.6c0-3,0.4-5.9,0.5-8.9c0.3-6.8,0.5-13.7,0.8-20.5c0.2-3.8,0.5-7.7,0.8-11.6
	c0.1-1.5,0.4-3.1,0.1-4.5c-0.4-1.3-0.3-2.7,0.2-3.9C11,86.5,10.8,86.1,10.7,85.6z M32.6,52.5c-0.2-1.2-0.3-2-0.5-2.9
	c-0.1-1.1-1-1.9-2.1-1.8c-1.1-0.2-2.1,0.5-2.4,1.5c0,0,0,0.1,0,0.1c-0.1,0.5-0.5,0.9-0.9,1.2c-1.4,0.6-1.6,1.8-1.7,3.1
	c0,0.5-0.1,1.1-0.3,1.6c-0.3,0.6-0.1,1.3,0.4,1.8c0.5,0.6,0.7,1.4,0.5,2.2c-1,2-0.7,4.5,0.7,6.2c0.3,0.4,0.5,1.4,0.2,1.6
	c-1.8,1.5-1,2.4,0.5,3.2c0.3,0.2,0.5,0.6,0.8,0.9c0.9,0.9,1.8,0.8,2.3-0.4c0.2-0.5,0.3-0.9,0.4-1.4c0.4-3.1,0.7-6.2,1.1-9.3
	C31.9,57.5,32.3,54.8,32.6,52.5z M82.7,2.8c-1.8-0.1-3.5,1-4.2,2.6c-0.4,1-0.4,2.3-1,3.1c-1.6,2.4-1.9,5.1-2.6,7.7
	c-0.1,0.5-0.4,0.9-0.8,1.1c-1,0.4-2,0.6-3,1c-0.7,0.2-1.3,0.5-1.8,0.9c-2.2,2.8-3.4,5.9-1.7,9.4c0.2,0.5,0.6,0.8,1.1,1
	c0.2,0.1,0.8-0.5,1-0.9c1.2-2.3,2.2-4.7,3.4-7c0.3-0.6,0.9-1,1.5-1.3c0.8-0.4,1.7-0.7,2.7-0.8c1.1-0.1,2-0.9,2.2-2
	c0.6-2.1,0.9-4.3,1.9-6.2C82.8,8.8,83.2,5.7,82.7,2.8z M34.3,220l0.4-0.1c-0.2-1.7-0.6-3.5-0.7-5.2c-0.4-5.1-2.6-9.7-3.1-14.8
	c-0.4-3.7-1.2-7.3-1.6-11c-0.3-3.1-0.4-6.1-0.4-9.2c0.1-4.5,0.4-9.1,0.5-13.6c0-0.4-0.4-0.9-0.6-1.4c-0.4,0.4-1,0.7-1,1.2
	c-0.3,1.6-0.5,3.2-0.6,4.8c-0.2,3.8-0.6,7.7-0.6,11.5c0,3.2,0.2,6.4,0.7,9.6c0.4,2.7,1.5,5.3,2.1,8c0.9,3.6,1.6,7.4,2.5,11
	C32.6,213.8,33.5,216.9,34.3,220z M78.2,94.1c-1.2-0.4-2.1-0.7-3-1s-1-1-0.7-1.7c0.6-1.3,1.7-1.3,2.8-1.2c0.5,0,1.3-0.2,1.3-0.4
	c0.2-1.6,0.6-3.2-0.2-4.8c-0.8-1.5-1.2-3.2-1.3-4.9c0.1-1.4,0.5-2.8,1.1-4c1-2.3,0.9-4.8,0.8-7.2c0-0.2-0.3-0.5-0.5-0.7
	c-0.2,0.2-0.6,0.4-0.6,0.7c-0.1,0.5-0.2,1-0.2,1.4c-0.6,3.4-1.4,6.8-1.9,10.2c-0.4,2.5-0.5,5-0.8,7.4c0,1.6-0.6,3.1-1.6,4.2
	c-0.8,0.8-1.4,1.8-1.9,2.9c-0.7,1.6-1.2,3.3-1.8,4.9c-0.2,0.4-0.4,0.8-0.7,1.2c-0.2,0.2-0.4,0.4-0.6,0.6c0.3,0.1,0.7,0.1,1,0.1
	c0.2-0.1,0.4-0.5,0.5-0.7l2.8,1.4l-1.1-3.1l-1,1.2l-0.4-0.3c1.2-2.2,1.8-4.8,3.8-6.7c-0.2,2.1-1.1,4.1-1.2,6.2s-0.6,3.8-0.7,5.8
	l1.6-0.1c-0.6-1,0.1-2.9,1.1-3.7c0.3-0.2,0.6-0.5,0.8-0.9c0.4-1,0.9-1.9,1.2-2.9C77.5,96.6,77.8,95.4,78.2,94.1z M23.7,219.2h0.2
	c-0.2-1.1-0.2-2.1-0.5-3.2c-1-4.1-2.1-8.3-3.1-12.4c-0.4-1.8-0.8-3.6-1.2-5.4c-0.1-0.3-0.5-0.5-0.8-0.8c-0.2,0.3-0.5,0.6-0.6,1
	c-0.1,0.8-0.1,1.7-0.1,2.5c0.4,6,1.6,11.8,3.5,17.5c1.7,4.9,1.8,9.9,1.7,15c0,1.1,0.2,2.2,0.4,3.3c0.1,0.3,0.4,0.5,0.7,0.6
	c0.3,0,0.6-0.2,0.7-0.5c0.3-0.7,0.5-1.5,0.6-2.2c-0.1-1.9-0.5-3.7-0.7-5.5C24.3,225.8,24,222.5,23.7,219.2z M45.6,279.9l0.5-0.1
	c-0.1-0.7-0.3-1.4-0.3-2.1s0.2-1.4,0.1-2.1c-0.3-2.3-0.5-4.4,1-6.5c0.5-0.8,0.9-1.7,1.1-2.7c0.8-2.5-0.3-5.1-2.6-6.4
	c-0.5-0.2-1-0.2-1.5,0c-0.3,0.4-0.4,0.9-0.2,1.4c0.4,0.7,0.2,1.6-0.4,2.1c-1,1.4-2,2.7-3,4.1c-1.5,2.3-1,3.7,1.7,4.3
	c1.2,0.3,2.4,0.5,2.1,2.2c0,0.1,0.2,0.3,0.2,0.5c0.2,0.8,0.5,1.6,0.7,2.3l-0.5,0.2l-1.7-1.9l-0.3,0.6l-1.1-0.8l-1,1.5l2.1,2.2
	l0.5-2.1c0.2,0.9,0.5,1.7,0.8,2.5c0.4-0.4,0.7-0.8,1-1.2L45.6,279.9z M12.6,242.9l-0.7,0.2c0.1,3.2,0.1,6.4,0.5,9.5
	c0.3,3.3,1,6.6,1.9,9.8c1.2,3.2,2.6,6.4,4.2,9.5c0.2,0.4,0.7,0.6,1,0.9c0.1-0.4,0.5-0.9,0.4-1.2c-0.2-1.6-0.6-3.2-1-4.7
	c-0.9-3-2-6-2.9-9c-0.4-1.4-0.4-2.9-0.9-4.1c-1.3-2.9-1.4-6-1.8-9.1C13.1,244,12.9,243.4,12.6,242.9L12.6,242.9z M56.7,59.1
	c0.5-1.7,0.9-3.4,1.2-5.2c0.3-2.2,0.3-4.5,0.5-6.8c0.2-2.6,0.6-5.2,0.8-7.8c0.2-2.8,0.3-5.5,0.4-8.3c0-0.3-0.3-0.7-0.5-1.3
	c-1.8,5.2-3,10.7-3.5,16.2c-0.3,3.3-0.6,6.7-0.8,10C54.5,57.3,55.3,58.7,56.7,59.1z M51.1,10.4h-0.3c-0.1,0.5-0.2,1-0.4,1.5
	c-1.2,3.3-2.4,6.7-3.4,10c-0.7,2.5-1.2,5.1-1.7,7.7c-0.6,2.5-1.1,5.1-1.3,7.7c-0.1,2.5-0.8,5-0.5,7.7s0.1,5.2,0.1,7.8
	c0,0.5,0.1,1,0.3,1.4c0.2,0.3,0.5,0.4,0.8,0.3c0.3-0.1,0.5-0.3,0.6-0.7c0-4.9-0.2-9.7-0.2-14.6c0-0.8,0.1-1.7,0.2-2.5
	c0.9-3.8,1.8-7.5,2.7-11.3c1-4.4,2.1-8.8,3.1-13.2C51.1,11.7,51.1,11,51.1,10.4z M60.3,111l-0.6-0.1c-0.3,0.2-0.6,0.4-0.9,0.7
	c-1.7,1.8-1.7,4.2-1.8,6.5c-0.1,1.4-0.2,2.7-0.2,4.1c0.1,1.3,0.3,2.7,0.6,4c0.2,0.6,0.4,1.2,0.5,1.8c0,1.1,0.7,1.4,1.6,1.5
	c0.4,0.1,0.7,0.1,1.1,0.1c0.6,0,1.2-0.1,1.7-0.2c-0.1-0.5,0-1.2-0.3-1.6c-2.2-2.5-1.7-5.5-1.6-8.5C60.5,116.5,60.4,113.8,60.3,111z
	 M14.6,234.6l0.6,0.1c0.3-0.5,0.5-1,0.6-1.5c0.6-3.5,1.1-7,1.6-10.5s-0.5-7-1.4-10.3c-0.4-1.4-0.8-2.9-1.3-4.3
	c-0.1-0.3-0.7-0.5-1-0.8c-0.2,0.3-0.4,0.7-0.4,1.1c0,0.9,0.1,1.8,0.2,2.6c0.2,2.3,0.3,4.6,0.5,6.9c0.1,1.8-0.7,3.7,0.4,5.3
	c1.5,2.2,1.1,4.4,0.9,6.8L14.6,234.6z M7.6,168.8c-0.1,0.2-0.2,0.4-0.2,0.5c-0.6,4.3-1.2,8.7-1.7,13c-0.5,3.7-1.3,7.3-0.1,11
	c0.1,0.4,0.1,0.8,0,1.2c-0.4,1.6-0.9,3.1-1.3,4.7c-0.1,0.5-0.1,0.9,0,1.4C7.2,192.4,9.4,170.8,7.6,168.8L7.6,168.8z M34,238.2
	c0,0.7,0,1.4,0,2c0.1,0.7,0.2,1.4,0.2,2.1c-0.6,2.3-0.8,4.8-0.3,7.2c0.5,3,1,6,1.5,9c0.2,1.4,0.5,2.8,0.8,4.1l0.5,0
	c-0.1-2.5-0.2-5-0.3-7.5c-0.1-1.2-0.4-2.3-0.4-3.5c0-3.1,0.3-6.1,0.2-9.2C36,240.9,36.2,239.1,34,238.2z M54.2,160.3
	c-0.2,0-0.5,0-0.7,0.1c-0.3,1.5-1,3.1-0.9,4.6s1,3,1.5,4.5c0.1,0.4,0,0.9-0.1,1.3c-0.5,2.5-1.1,5-1.6,7.5c-0.2,0.7-0.3,1.4-0.4,2.2
	l-1.8-1.2l-0.7,1.4l0.3,0.2l0.3-0.7c1,0.5,1.7,1,0.8,2.2c1.1-0.3,2.3-0.2,2.1-1.8l1.3,2.1l0.3-0.2l0.1-1.4l-1.2-0.6
	c-0.1-2.2-0.2-4.3,1.4-5.7C54.6,170,53.4,165.2,54.2,160.3L54.2,160.3z M12.3,126.2l-0.5,0.1c0,1.1,0,2.2,0,3.3
	c0.1,3,0.1,5.9,0.3,8.9c0.3,4.3,0.7,8.6,1.2,12.9c0.1,0.7,0.3,1.4,0.6,2.1l0.5-0.1c0-0.2,0.1-0.4,0.1-0.7c-0.1-2.1-0.1-4.2-0.3-6.3
	c-0.2-3.1-0.5-6.1-0.8-9.2c-0.1-1.3-0.6-2.6-0.7-3.9C12.5,131,12.4,128.6,12.3,126.2z M45.4,57.5c-1.5,0.3-1.6,0.4-1.6,1.5
	c0.1,2.7,0.3,5.4,0.5,8.2c1.5,0,1.2-0.9,1.2-1.5s-0.1-1.6-0.1-2.3C45.4,61.4,45.4,59.5,45.4,57.5z M59.3,186
	c0.1-0.1,0.2-0.2,0.2-0.3c0.1-1,0-1.9,0.9-2.9c0.5-0.5-0.1-2.1-0.2-3.2c0-0.1-0.4-0.3-0.6-0.3c-0.7,0.1-1.5,0.3-2.2,0.5
	c1.6,3.7,1.6,3.7,0.3,4L59.3,186z M64.2,101.5l0.7-0.1c0.2-4.9,0.8-9.9-0.2-14.8c-0.2,1.8-0.2,3.6-0.3,5.3c-0.2,2.8,0.6,5.7-0.6,8.5
	C63.7,100.7,64,101.2,64.2,101.5L64.2,101.5z M66.5,223.1c-0.2-1.1-0.3-2.3-0.6-3.5c-0.1-0.3-0.4-0.6-0.6-0.9
	c-0.2,0.3-0.7,0.6-0.7,0.9c-0.2,1.5-0.3,3-0.5,4.5L66.5,223.1z M13.8,46.7c-1.7-0.2-3.3-0.5-3,1.8l1.2,1.2c0.7-1.1,1.7-0.5,2.8,0
	c1.2-2.5-1.9-0.7-1.9-2L13.8,46.7z M76.4,101.4c0.7,0.1,1.4-0.3,1.8-0.8c0.4-0.8,0.8-2,1.4-2.1c1.8-0.4,1-0.8,0.2-1.4l0.8-0.9
	l-1.4,0.3v-1.2h-0.4v2.7l-0.3-0.2C77.9,98.9,77.2,100.1,76.4,101.4z M66.2,16.2l0.1-0.5c-1-0.1-2.2,0.1-1.2-1.4
	c0.1-0.1-0.1-0.6-0.3-0.7c-1.2-0.9-1.6,0.6-2.5,0.8c-0.2,0.1-0.2,0.8-0.2,1.3c0.1,0.3,0.3,0.5,0.6,0.6
	C63.9,16.2,65.1,16.2,66.2,16.2z M13.4,42.7l-1-0.8l-0.7,1.5c-0.2,0.5-0.3,1.1-0.3,1.7c0,0.2,0,0.6,0.1,0.6c0.2,0.1,0.5,0.1,0.7,0
	c0.2,0,0.5-0.3,0.7-0.2c0.7,0.1,1.3,0.4,2,0.5l0.1-0.4L13.5,45l1.1-0.4l-0.4-0.5L13,44.7l-0.2-0.2l1.4-1.7L14,42.5L13.4,42.7z
	 M70.6,111.4l-0.7,0.7c0-0.4-0.1-0.9,0.1-1c0.5-0.4,1.1-0.7,1.6-0.9l-1.3-1.5l-2,4.3c0.6,0.4,1.2,0.7,1.9,0.9
	c0.4,0.1,0.8-0.4,1.3-0.7C70.4,113,71.4,111.8,70.6,111.4z M20.7,181.4c1.2,0.7,2.4,1.5,1.4,3l1.2,0.3l1.3-1.7l-1.7-0.4l1.7-1.5
	l-1.6,0.1l-0.4-1c-0.2,0.2-0.4,0.3-0.6,0.5C21.6,181,21.2,181.1,20.7,181.4L20.7,181.4z M47.9,171.6c1.7-0.9,2.5-0.3,2.6,1.7
	l-1.4,0.2l1.2,1l1.1-0.9l-0.9-5.7h-0.4l0.1,3C49.2,170.1,48.7,170.2,47.9,171.6L47.9,171.6z M27.1,42.7c0-2.3,0.3-2.7,2-2.3
	l-0.6-2.6l-0.3,0.1l0.1,0.8h-1.6v2.5c0,0.2,0,0.3-0.1,0.5c-0.2,0.3-0.4,0.6-0.6,0.9L27.1,42.7z M80.1,92.7l1.8-0.9l-1.1-4.9
	c-0.3,0.6-0.5,1.2-0.7,1.8C80,90,80,91.3,80.1,92.7L80.1,92.7z M64,274l-0.7-0.3c-0.2,0.7-0.5,1.4-0.8,2.1c-0.6,1.1-1.4,2.1-2,3.2
	c-0.1,0.1,0.2,0.5,0.3,0.6s0.6,0,0.7-0.1C62.3,277.6,63.1,275.8,64,274z M48.5,274.1c-0.3,1.3-0.3,2.8-1,3.7s-0.2,1.5-0.1,2.2
	l0.4,0.1c0.5-2.2,1-4.4,1.5-6.7l-1.9,0.4L48.5,274.1z M18.9,35.6l-0.1-0.5c-0.7,0.1-1.6,0.5-2.2,0.2c-1.6-0.9-2.2,0.2-3.2,1.2
	C15.7,37.2,17.1,35.4,18.9,35.6z M42.2,43.2L37.6,42l-0.2,0.5c0.3,0.2,0.5,0.4,0.8,0.6c0.5,0.2,1,0.4,1.4,0.7
	C40.7,44.7,41.4,44.1,42.2,43.2z M25,273.2c-0.1,0.5-0.5,1.2-0.4,1.4c0.5,0.5,1,0.9,1.6,1.2c0.2-0.4,0.6-0.8,0.6-1.2
	C26.6,273.5,26.1,272.8,25,273.2z M69.5,91.6l0.4,0.1V95l0.3,0.1l0.7-3.3l-1.2-0.5l0.3-1c-1.8,1.3-1.9,1.6-1.2,2.4L69.5,91.6z
	 M19.1,81.1L18,85.4c1.4-0.8,2.3-2.9,2-3.8L19.1,81.1z M56.6,261.8l0.4-0.5c-0.4-0.1-1-0.4-1.1-0.3c-0.4,0.5-0.6,1.1-0.8,1.6
	c-0.1,0.2,0.2,0.5,0.3,0.7c0.1,0.1,0.2,0.1,0.3,0c0.9-0.7,1.8-1.4,2.6-2.1l-0.3-0.4L56.6,261.8z M21.7,81l-0.8-0.1l-0.6,3l2.1-0.1
	L21.5,83L21.7,81z M13.5,72.3c-0.8,0.2-1.5,0.1-1.6,0.3c-0.4,1.1-0.7,2.2-1,3.3l0.4,0.1L13.5,72.3z M37.7,81.5v-0.6h-3.2
	C35.3,82.5,35.5,82.5,37.7,81.5z M7.2,259.9l1-4.8L7.6,255C7.6,256.6,6,258,7.2,259.9z M59.2,130.2c0.3,0.4,0.5,0.9,0.6,1.4
	c0,0.5-0.3,1-0.4,1.5c0,0.2,0.4,0.4,0.5,0.6c0.3-0.7,0.4-1.3,0.7-1.8C61.4,130.3,61.4,130.3,59.2,130.2L59.2,130.2z M58.7,262.7
	c-2.3,0.3-2.8,1.2-1.5,3.1l0.2-2.1L58.7,262.7z M32,35.5L31.9,35c-1,0.1-1.9,0.2-2.9,0.3c-0.2,0-0.2,0.7-0.4,1.1L32,35.5z
	 M52.4,106.6c2.7-1.8,2.9-2.4,2-3.4L52.4,106.6z M18.2,25.3h-0.3c-0.1,0.9-0.3,1.9-0.3,2.8c0,0.1,0.6,0.5,0.8,0.4
	c0.5-0.2,1-0.4,1.5-0.7l-1.4-0.4L18.2,25.3z M63.9,132.3l0.4,0.3l1.7-0.4l-0.1-1.4l-0.5-0.2L63.9,132.3z M41.1,133.6l2.9-2.7
	C42.6,130.4,41.7,131.3,41.1,133.6L41.1,133.6z M64.6,240.4l-0.4-0.5c-0.3,0.3-0.8,0.5-0.9,0.8c-0.1,0.8-0.2,1.5-0.2,2.3l1.5-0.9
	C63.3,241.4,63.9,240.9,64.6,240.4L64.6,240.4z M8.8,257.8h0.5l0.5-3.9H9L8.8,257.8z M57.6,194.8l-1.1,2.5l0.6,0.3l1.8-2.6
	L57.6,194.8z M68.4,100.2l0.6-0.1c0.2-0.9-0.9-2.1,0.7-2.8c-0.7,0-1.5,0.1-1.5,0.3C68.2,98.5,68.3,99.4,68.4,100.2L68.4,100.2z
	 M18.2,100.8l-0.8,0.1l0.4,2.6l0.6-0.1L18.2,100.8z M63.5,281.1l0.7-3l-0.6-0.1l-0.4,1.8l-0.9-0.2l-0.2,0.3L63.5,281.1z M48.8,165.8
	l-0.4-0.3c-0.4,0.5-0.8,1.1-1,1.7c-0.1,0.3,0.5,0.8,0.8,1.2L48.8,165.8z M6.1,163.2l0.4-0.3l-0.2-2.6l-0.4-0.1
	c-0.2,0.6-0.3,1.2-0.4,1.8C5.5,162.4,5.9,162.8,6.1,163.2z M39.2,54l-1.3-0.5l-1,2.2l0.3,0.2L39.2,54z M65.1,80.2h-0.2l-0.8,3.3
	l1,1.2L65.1,80.2z M68.1,234.5l-1.1-3.7C66.2,231.4,66.6,233.2,68.1,234.5L68.1,234.5z M70.2,231.6l-0.9,1.3l1.1,1.6l0.6-0.4
	L70.2,231.6z M20.8,179.7l3.8-1.1l-0.2-0.5C23.4,179.1,21.5,177.6,20.8,179.7z M30.7,38v0.3l1.6,1.4l0.4-0.3
	c-0.1-0.5-0.1-1.1-0.4-1.3C31.8,38,31.2,38,30.7,38z M26.5,201.2l-2.7-1.7l-0.2,0.3l1.4,1.3l-0.5,1.3c0.5-0.2,0.7-0.3,0.8-0.4
	S25.9,201.6,26.5,201.2z M61.1,19.3c1.6-1.7,1.6-1.8,0.3-2.7L61.1,19.3z M65.6,246c-0.4,0.6-0.8,0.9-0.8,1.3c-0.1,0.5-0.1,1,0,1.5
	l1.7-1.8L65.6,246z M33.2,130.4l0.5-0.1c-0.5-0.9,1.1-2-0.5-2.9V130.4z M23.5,87l-3.2,1.6l2.5,0.2L23.5,87z M61.5,220l0.4,2l0.4-0.1
	l0.1-1.3l1.3-0.6l-0.1-0.4L61.5,220z M54.6,272.7l-0.6-0.1l-0.4,3.9l0.5,0L54.6,272.7z M21.5,79.1l-0.7-2.4h-0.3v2.8L21.5,79.1z
	 M46.5,77.9c-0.9-1-1.8-0.8-2.5,0.7L46.5,77.9z M7.1,265.7l0.3-2.5H7.1l-1.4,2.7L7.1,265.7z M67.6,264.9l-1-1.1
	c-0.3,0.7-1.4,1.3,0,2.2L67.6,264.9z M69.7,96.2l-0.9,0.6L68,95l-0.1,1.6L69.7,96.2z M11.3,68.2c0.5-0.6,0.4-1.7,1.5-1.4
	c0.2-0.3,0.3-0.6,0.4-0.9c-0.3,0-0.6,0-0.9,0.1C11.5,66.4,10.7,66.9,11.3,68.2z M25,126.6l-0.3-0.2c-0.3,0.3-0.9,0.7-0.8,0.9
	c0.3,0.7,0.6,1.4,1.1,2.1l0.2-0.1L25,126.6z M51.6,166.4l-0.7-3l-0.8,1.9L51.6,166.4z M9.3,264.9H8.9v3.5h0.5L9.3,264.9z M20.3,90.9
	l0.2-0.2L19.6,88l-0.9,0.8L20.3,90.9z M36.3,50.8l0.4-0.2l0.3-2.2L35.4,49L36.3,50.8z M77.2,4.6V4.1h-2.6l0.3,1.2L77.2,4.6z
	 M44.3,122l-1.1,0.4l-0.5,2.6l0.5,0.1L44.3,122z M37,53.3l1-1.5l-1.7-0.7L37,53.3z M34.7,46.9L34.1,47l0.2,2.5h0.4V46.9z
	 M21.6,177.2c0.3-0.3,0.7-0.4,0.7-0.7c0.1-0.6,0.2-1.3,0.3-1.9l-0.6-0.1L21.6,177.2z M46.2,229l-0.4,0.1l-0.3,2.5l1.2-0.3
	c-0.2-0.4-0.3-0.9-0.4-1.3C46.2,229.7,46.2,229.3,46.2,229z"/>
<g class="st1">
	<path class="st2" d="M143,255.9v0.9h3.4v1.4H143v1.9h-2v-5.7h6.1v1.5H143z"/>
</g>
<g class="st1">
	<path class="st2" d="M153,257.6v1.7c0,0.3,0.1,0.6,0.2,0.8h-1.9c-0.1-0.1-0.1-0.3-0.1-0.4v0c-0.3,0.3-0.9,0.6-1.7,0.6
		c-0.9,0-2.1-0.4-2.1-1.5c0-1.1,1.2-1.5,2.1-1.5c0.7,0,1.3,0.2,1.7,0.6v-0.3c0-0.6-0.5-0.9-1.4-0.9c-0.5,0-1,0.1-1.6,0.3l-0.4-1.2
		c0.6-0.3,1.6-0.4,2.4-0.4C152,255.4,153,256.2,153,257.6z M151.2,258.7c-0.3-0.3-0.8-0.4-1.1-0.4c-0.4,0-0.9,0.1-0.9,0.5
		c0,0.4,0.5,0.5,0.9,0.5C150.4,259.2,150.9,259.1,151.2,258.7L151.2,258.7z"/>
	<path class="st2" d="M160,257.8c0,1.5-1,2.4-2.4,2.4c-0.7,0-1.3-0.3-1.8-0.8v0.6H154v-6h1.9v2.1c0.4-0.5,1-0.8,1.8-0.8
		C159,255.4,160,256.3,160,257.8z M158.2,257.8c0-0.6-0.4-1-1.1-1c-0.4,0-0.9,0.1-1.2,0.6v0.9c0.3,0.4,0.8,0.6,1.2,0.6
		C157.8,258.9,158.2,258.5,158.2,257.8z"/>
</g>
<g class="st1">
	<path class="st2" d="M166.1,257.6v1.7c0,0.3,0.1,0.6,0.2,0.8h-1.9c-0.1-0.1-0.1-0.3-0.1-0.4v0c-0.3,0.3-0.9,0.6-1.7,0.6
		c-0.9,0-2.1-0.4-2.1-1.5c0-1.1,1.2-1.5,2.1-1.5c0.7,0,1.3,0.2,1.7,0.6v-0.3c0-0.6-0.5-0.9-1.4-0.9c-0.5,0-1,0.1-1.6,0.3l-0.4-1.2
		c0.6-0.3,1.6-0.4,2.4-0.4C165.1,255.4,166.1,256.2,166.1,257.6z M164.3,258.7c-0.3-0.3-0.8-0.4-1.1-0.4c-0.4,0-0.9,0.1-0.9,0.5
		c0,0.4,0.5,0.5,0.9,0.5C163.5,259.2,164,259.1,164.3,258.7L164.3,258.7z"/>
</g>
<g class="st1">
	<path class="st2" d="M169.8,260.3c-1.8,0-3-0.9-3-2.5c0-1.5,1.2-2.5,3-2.5c1.4,0,2.3,0.6,2.6,1.3l-1.6,0.6c-0.2-0.4-0.6-0.6-1-0.6
		c-0.7,0-1.2,0.4-1.2,1c0,0.7,0.5,1,1.2,1c0.4,0,0.8-0.1,1.1-0.6l1.6,0.6C172.1,259.7,171.2,260.3,169.8,260.3z"/>
</g>
<g class="st1">
	<path class="st2" d="M176,259c0.7,0,1.1-0.2,1.5-0.5l0.9,1c-0.6,0.6-1.5,0.8-2.5,0.8c-2,0-3.1-0.9-3.1-2.5c0-1.5,1.1-2.5,3-2.5
		c1.6,0,2.8,0.8,2.8,2.4c0,0.2,0,0.3-0.1,0.4h-3.9C174.7,258.8,175.2,259,176,259z M174.6,257.3l2.2,0c-0.2-0.4-0.5-0.7-1.1-0.7
		C175.2,256.6,174.8,256.9,174.6,257.3z M176.1,254.9h-1.4l1-1.4h2.3L176.1,254.9z"/>
	<path class="st2" d="M182.3,259c0.7,0,1.1-0.2,1.5-0.5l0.9,1c-0.6,0.6-1.5,0.8-2.5,0.8c-2,0-3.1-0.9-3.1-2.5c0-1.5,1.1-2.5,3-2.5
		c1.6,0,2.8,0.8,2.8,2.4c0,0.2,0,0.3-0.1,0.4h-3.9C181,258.8,181.5,259,182.3,259z M180.9,257.3l2.2,0c-0.2-0.4-0.5-0.7-1.1-0.7
		C181.5,256.6,181.1,256.9,180.9,257.3z"/>
	<path class="st2" d="M190.9,258.6c0,0.9-0.9,1.7-2.7,1.7c-1.2,0-2.2-0.3-2.9-0.8l0.8-1c0.5,0.3,1.2,0.6,2.2,0.6
		c0.6,0,0.9-0.1,0.9-0.3c0-0.2-0.3-0.3-1-0.3c-1.3-0.1-2.6-0.5-2.6-1.5c0-1,1-1.6,2.7-1.6c1,0,1.9,0.2,2.6,0.6l-0.8,1
		c-0.5-0.3-1.1-0.4-1.8-0.4c-0.5,0-0.9,0-0.9,0.3c0,0.2,0.4,0.2,1,0.3C189.7,257.2,190.9,257.6,190.9,258.6z"/>
</g>
<g class="st1">
	<path class="st2" d="M139.7,263.3c0.5,0,0.9,0.2,1.3,0.5s0.5,0.7,0.5,1.2c0,0.5-0.2,0.9-0.5,1.2c-0.3,0.3-0.8,0.4-1.3,0.4h-1v2.3
		h-1.1v-5.5H139.7z M139.4,265.7c0.3,0,0.5-0.1,0.7-0.2s0.2-0.3,0.2-0.6c0-0.5-0.3-0.8-1-0.8h-0.7v1.5H139.4z"/>
	<path class="st2" d="M143.1,263.3v2.4h0c0.3-0.4,0.7-0.6,1.1-0.6c0.4,0,0.7,0.1,1,0.4c0.2,0.3,0.4,0.6,0.4,1v2.4h-1v-2.2
		c0-0.2-0.1-0.4-0.2-0.6c-0.1-0.1-0.3-0.2-0.5-0.2c-0.1,0-0.3,0-0.4,0.1c-0.1,0.1-0.3,0.2-0.4,0.4v2.5h-1v-5.5H143.1z"/>
	<path class="st2" d="M147.9,265.1c0.5,0,0.8,0.1,1.1,0.3c0.3,0.2,0.4,0.5,0.4,0.8v1.8c0,0.1,0.1,0.2,0.2,0.2c0,0,0.1,0,0.2-0.1
		s0.2-0.1,0.2-0.1v0.6c-0.3,0.2-0.7,0.3-0.9,0.3c-0.2,0-0.3,0-0.4-0.1c-0.1-0.1-0.2-0.2-0.2-0.3c-0.4,0.3-0.7,0.4-1.1,0.4
		c-0.3,0-0.5-0.1-0.7-0.3s-0.3-0.4-0.3-0.6c0-0.3,0.1-0.6,0.3-0.8c0.2-0.2,0.5-0.3,1-0.5l0.8-0.2v-0.2c0-0.4-0.2-0.5-0.7-0.5
		c-0.2,0-0.4,0.1-0.7,0.2c-0.2,0.1-0.4,0.3-0.6,0.5v-0.9C146.8,265.2,147.3,265.1,147.9,265.1z M147.3,267.8c0,0.1,0,0.2,0.1,0.3
		s0.2,0.1,0.3,0.1c0.2,0,0.4-0.1,0.6-0.3v-1c-0.3,0.1-0.5,0.2-0.6,0.3c-0.2,0.1-0.3,0.2-0.3,0.2
		C147.3,267.6,147.3,267.7,147.3,267.8z"/>
	<path class="st2" d="M151.7,265.1c0.2,0,0.4,0,0.6,0.1s0.4,0.1,0.6,0.2v0.8c-0.2-0.1-0.4-0.2-0.6-0.3c-0.2-0.1-0.4-0.1-0.6-0.1
		c-0.1,0-0.2,0-0.3,0.1s-0.1,0.1-0.1,0.2c0,0.1,0,0.1,0.1,0.2c0.1,0.1,0.2,0.2,0.5,0.3c0.4,0.2,0.7,0.4,0.9,0.6
		c0.2,0.2,0.3,0.4,0.3,0.7c0,0.4-0.1,0.6-0.4,0.8c-0.2,0.2-0.6,0.3-1,0.3c-0.3,0-0.5,0-0.7-0.1c-0.2-0.1-0.4-0.1-0.6-0.2v-0.8
		c0.5,0.3,0.9,0.4,1.2,0.4c0.2,0,0.3,0,0.4-0.1s0.2-0.1,0.2-0.2c0-0.1,0-0.1-0.1-0.2c0,0-0.1-0.1-0.2-0.1c-0.1-0.1-0.3-0.2-0.7-0.4
		c-0.3-0.1-0.5-0.3-0.7-0.5c-0.1-0.2-0.2-0.4-0.2-0.6c0-0.3,0.1-0.6,0.4-0.8C150.9,265.2,151.2,265.1,151.7,265.1z"/>
	<path class="st2" d="M155.4,265.1c0.5,0,1,0.2,1.3,0.5s0.5,0.8,0.5,1.4v0.1h-2.6c0,0.3,0.2,0.6,0.4,0.8c0.2,0.2,0.5,0.3,0.9,0.3
		c0.2,0,0.5,0,0.7-0.1c0.2-0.1,0.4-0.2,0.7-0.4v0.7c-0.4,0.3-1,0.5-1.6,0.5c-0.6,0-1.1-0.2-1.4-0.5s-0.6-0.8-0.6-1.4
		c0-0.6,0.2-1,0.5-1.4C154.4,265.2,154.9,265.1,155.4,265.1z M156.3,266.6c0-0.3-0.1-0.5-0.2-0.6c-0.1-0.2-0.3-0.2-0.6-0.2
		c-0.2,0-0.4,0.1-0.6,0.2s-0.2,0.4-0.3,0.6H156.3z"/>
	<path class="st2" d="M159.8,265.1c0.4,0,0.7,0.1,1.1,0.2c0.3,0.2,0.6,0.4,0.7,0.7s0.3,0.6,0.3,1c0,0.4-0.1,0.7-0.2,1
		s-0.4,0.5-0.7,0.7c-0.3,0.2-0.7,0.2-1.1,0.2c-0.4,0-0.7-0.1-1.1-0.2c-0.3-0.2-0.6-0.4-0.7-0.7s-0.2-0.6-0.2-1c0-0.4,0.1-0.7,0.3-1
		c0.2-0.3,0.4-0.5,0.7-0.7C159,265.1,159.4,265.1,159.8,265.1z M158.8,267c0,0.4,0.1,0.7,0.3,0.9c0.2,0.2,0.4,0.3,0.7,0.3
		c0.3,0,0.6-0.1,0.7-0.3c0.2-0.2,0.3-0.5,0.3-0.9c0-0.4-0.1-0.7-0.3-0.9c-0.2-0.2-0.4-0.3-0.7-0.3c-0.3,0-0.5,0.1-0.7,0.3
		C158.9,266.3,158.8,266.6,158.8,267z"/>
	<path class="st2" d="M163.6,263.3v5.5h-1v-5.5H163.6z"/>
	<path class="st2" d="M165.5,265.1v2.3c0,0.2,0.1,0.4,0.2,0.5s0.3,0.2,0.5,0.2c0.2,0,0.3-0.1,0.5-0.2c0.2-0.1,0.3-0.2,0.4-0.4v-2.5
		h1v3.7h-1v-0.5c-0.4,0.4-0.7,0.6-1.1,0.6c-0.4,0-0.7-0.1-1-0.4s-0.4-0.6-0.4-1v-2.4H165.5z"/>
	<path class="st2" d="M170.2,265.1c0.2,0,0.4,0,0.6,0.1c0.2,0,0.4,0.1,0.6,0.2v0.8c-0.2-0.1-0.4-0.2-0.6-0.3
		c-0.2-0.1-0.4-0.1-0.6-0.1c-0.1,0-0.2,0-0.3,0.1c-0.1,0.1-0.1,0.1-0.1,0.2c0,0.1,0,0.1,0.1,0.2c0.1,0.1,0.2,0.2,0.5,0.3
		c0.4,0.2,0.7,0.4,0.9,0.6c0.2,0.2,0.3,0.4,0.3,0.7c0,0.4-0.1,0.6-0.4,0.8c-0.2,0.2-0.6,0.3-1,0.3c-0.3,0-0.5,0-0.7-0.1
		c-0.2-0.1-0.4-0.1-0.6-0.2v-0.8c0.5,0.3,0.9,0.4,1.2,0.4c0.2,0,0.3,0,0.4-0.1c0.1-0.1,0.2-0.1,0.2-0.2c0-0.1,0-0.1-0.1-0.2
		s-0.1-0.1-0.2-0.1c-0.1-0.1-0.3-0.2-0.7-0.4c-0.3-0.1-0.5-0.3-0.7-0.5s-0.2-0.4-0.2-0.6c0-0.3,0.1-0.6,0.4-0.8
		C169.4,265.2,169.8,265.1,170.2,265.1z"/>
	<path class="st2" d="M175.1,265.1l0.9,2.1l0.9-2.1h1l-1.7,3.8h-0.5l-1.7-3.8H175.1z"/>
	<path class="st2" d="M179.3,265.1v2.3c0,0.2,0.1,0.4,0.2,0.5c0.1,0.1,0.3,0.2,0.5,0.2c0.2,0,0.3-0.1,0.5-0.2
		c0.2-0.1,0.3-0.2,0.4-0.4v-2.5h1v3.7h-1v-0.5c-0.4,0.4-0.7,0.6-1.1,0.6c-0.4,0-0.7-0.1-1-0.4s-0.4-0.6-0.4-1v-2.4H179.3z"/>
	<path class="st2" d="M183.8,263.3v5.5h-1v-5.5H183.8z"/>
	<path class="st2" d="M188.2,265.1v0.7h-0.6c0.1,0.1,0.2,0.2,0.2,0.4c0,0.1,0.1,0.2,0.1,0.3c0,0.3-0.1,0.6-0.3,0.8
		c-0.2,0.2-0.5,0.4-1,0.4c-0.3,0-0.4,0.1-0.5,0.1s-0.1,0.1-0.1,0.2c0,0.1,0.1,0.1,0.2,0.2c0.1,0,0.3,0.1,0.5,0.1
		c0.6,0.1,1,0.2,1.2,0.4c0.3,0.2,0.4,0.4,0.4,0.7c0,0.4-0.2,0.7-0.5,0.9c-0.3,0.2-0.8,0.3-1.4,0.3c-0.6,0-1-0.1-1.4-0.3
		c-0.3-0.2-0.5-0.5-0.5-0.8c0-0.5,0.3-0.8,1-1c-0.3-0.1-0.4-0.3-0.4-0.5c0-0.3,0.2-0.4,0.6-0.5v0c-0.3-0.1-0.5-0.2-0.7-0.4
		c-0.2-0.2-0.3-0.4-0.3-0.7c0-0.4,0.2-0.7,0.5-1c0.3-0.2,0.7-0.4,1.2-0.4H188.2z M185.3,269.6c0,0.3,0.3,0.5,1,0.5
		c0.3,0,0.5,0,0.7-0.1c0.2-0.1,0.2-0.2,0.2-0.4c0-0.2-0.1-0.3-0.3-0.4c-0.2-0.1-0.4-0.1-0.8-0.1c-0.3,0-0.5,0-0.6,0.1
		C185.4,269.3,185.3,269.4,185.3,269.6z M185.6,266.5c0,0.2,0.1,0.4,0.2,0.5c0.1,0.1,0.3,0.2,0.5,0.2c0.2,0,0.4-0.1,0.5-0.2
		c0.1-0.1,0.2-0.3,0.2-0.5c0-0.2-0.1-0.3-0.2-0.5s-0.3-0.2-0.5-0.2c-0.2,0-0.4,0.1-0.5,0.2C185.6,266.1,185.6,266.3,185.6,266.5z"/>
	<path class="st2" d="M190.1,265.1c0.5,0,0.8,0.1,1.1,0.3c0.3,0.2,0.4,0.5,0.4,0.8v1.8c0,0.1,0.1,0.2,0.2,0.2c0,0,0.1,0,0.2-0.1
		s0.2-0.1,0.2-0.1v0.6c-0.3,0.2-0.7,0.3-0.9,0.3c-0.2,0-0.3,0-0.4-0.1c-0.1-0.1-0.2-0.2-0.2-0.3c-0.4,0.3-0.7,0.4-1.1,0.4
		c-0.3,0-0.5-0.1-0.7-0.3s-0.3-0.4-0.3-0.6c0-0.3,0.1-0.6,0.3-0.8c0.2-0.2,0.5-0.3,1-0.5l0.8-0.2v-0.2c0-0.4-0.2-0.5-0.7-0.5
		c-0.2,0-0.4,0.1-0.7,0.2c-0.2,0.1-0.4,0.3-0.6,0.5v-0.9C189.1,265.2,189.6,265.1,190.1,265.1z M189.5,267.8c0,0.1,0,0.2,0.1,0.3
		s0.2,0.1,0.3,0.1c0.2,0,0.4-0.1,0.6-0.3v-1c-0.3,0.1-0.5,0.2-0.6,0.3c-0.2,0.1-0.3,0.2-0.3,0.2
		C189.5,267.6,189.5,267.7,189.5,267.8z"/>
	<path class="st2" d="M194.8,265.1c0.1,0,0.3,0,0.4,0.1c0.1,0.1,0.3,0.2,0.4,0.3l-0.3,0.9c-0.3-0.2-0.5-0.3-0.7-0.3
		c-0.2,0-0.3,0.1-0.4,0.2s-0.3,0.3-0.4,0.4c-0.1,0.2-0.1,0.4-0.1,0.6v1.7h-1v-3.7h1v0.9h0c0.2-0.4,0.4-0.6,0.5-0.8
		C194.4,265.1,194.6,265.1,194.8,265.1z"/>
	<path class="st2" d="M196.6,263.4c0.2,0,0.3,0.1,0.4,0.2c0.1,0.1,0.2,0.2,0.2,0.4c0,0.1-0.1,0.3-0.2,0.4c-0.1,0.1-0.2,0.2-0.4,0.2
		c-0.1,0-0.3-0.1-0.4-0.2c-0.1-0.1-0.2-0.2-0.2-0.4c0-0.2,0.1-0.3,0.2-0.4C196.3,263.5,196.5,263.4,196.6,263.4z M197.1,265.1v3.7
		h-1v-3.7H197.1z"/>
	<path class="st2" d="M199.3,265.1c0.2,0,0.4,0,0.6,0.1s0.4,0.1,0.6,0.2v0.8c-0.2-0.1-0.4-0.2-0.6-0.3c-0.2-0.1-0.4-0.1-0.6-0.1
		c-0.1,0-0.2,0-0.3,0.1s-0.1,0.1-0.1,0.2c0,0.1,0,0.1,0.1,0.2c0.1,0.1,0.2,0.2,0.5,0.3c0.4,0.2,0.7,0.4,0.9,0.6
		c0.2,0.2,0.3,0.4,0.3,0.7c0,0.4-0.1,0.6-0.4,0.8c-0.2,0.2-0.6,0.3-1,0.3c-0.3,0-0.5,0-0.7-0.1c-0.2-0.1-0.4-0.1-0.6-0.2v-0.8
		c0.5,0.3,0.9,0.4,1.2,0.4c0.2,0,0.3,0,0.4-0.1s0.2-0.1,0.2-0.2c0-0.1,0-0.1-0.1-0.2c0,0-0.1-0.1-0.2-0.1c-0.1-0.1-0.3-0.2-0.7-0.4
		c-0.3-0.1-0.5-0.3-0.7-0.5c-0.1-0.2-0.2-0.4-0.2-0.6c0-0.3,0.1-0.6,0.4-0.8C198.6,265.2,198.9,265.1,199.3,265.1z"/>
</g>
<path d="M55,10.4c0,0.1-0.1,0.1-0.1,0.2c0,0,0,0.1,0,0.2s-0.1,0.1-0.1,0s-0.2-0.4-0.2-0.6s0-0.2,0.2-0.2c0.2,0,0.4,0,0.6,0h0.3h1.4
	l1.3-0.1h0.8c0.1,0,0.2,0,0.3,0c0.3-0.1,0.6,0,0.9,0.1l1.1,0.5c0.3,0.1,0.5,0.3,0.5,0.6c0,0.1,0,0.2,0.1,0.3c0,0.1,0,0.2,0,0.3
	c0,0.1,0,0.3,0.2,0.3c0.2,0.1,0.2,0.1,0.1,0.3c-0.1,0.3,0,0.7,0.1,1c0,0.1,0,0.1,0,0.2c-0.1,0.3-0.3,0.5-0.5,0.7c0,0,0,0,0,0.1
	c-0.4,0.2-0.8,0.4-1.2,0.5c-0.2,0-0.5,0.1-0.7,0.1s-0.6,0-1,0h-1.1c-0.1,0-0.2,0-0.3,0.1c-0.3,0.1-0.7,0.1-1,0.1c-0.3,0-0.5,0-0.8,0
	h-0.2c-0.1,0-0.2-0.1-0.2-0.2c0-0.7-0.1-1.4-0.1-2.1c0-0.3,0-0.5-0.1-0.8c-0.1-0.3-0.1-0.5,0-0.8c0-0.1,0-0.3,0-0.4L55,10.4z
	 M55.9,11.8L55.9,11.8c0.1-0.1,0-0.2-0.1-0.2c-0.1-0.1-0.1-0.3-0.1-0.5c0,0,0-0.1,0-0.1c-0.1,0.1-0.2,0.3-0.2,0.5
	c0,0.2,0,0.4,0.1,0.5l0.3,0.1L55.9,11.8z M57.7,11.3c-0.4,0-0.5,0.1-0.6,0.4c0,0.3,0,0.7,0.2,1c0,0.2,0.2,0.3,0.4,0.3c0,0,0,0,0.1,0
	c0.3-0.1,0.7-0.1,1-0.1c0.2,0,0.5-0.1,0.7-0.1c0.2-0.1,0.3-0.3,0.2-0.5c0,0,0-0.1-0.1-0.1c0,0-0.1-0.1-0.1-0.1
	c-0.1-0.2-0.3-0.4-0.6-0.4l-1-0.1L57.7,11.3z M55.6,12.8c0,0.1-0.1,0.1,0,0.2s0.1,0,0.2,0l0.2-0.1v-0.1h0.3l-0.2-0.1L56,12.6
	c0-0.1,0-0.2-0.1-0.3c0,0-0.1-0.1-0.2-0.1s-0.2,0-0.2,0.1S55.4,12.7,55.6,12.8L55.6,12.8z M58.8,10.4c0-0.2-0.1-0.3-0.3-0.4
	C58.4,10.4,58.7,10.3,58.8,10.4L58.8,10.4z M59.2,10.3c-0.2,0-0.2,0-0.4,0c0.1,0,0.1,0.1,0.2,0.1C59.1,10.4,59.2,10.3,59.2,10.3
	L59.2,10.3z M58.1,10.4c0-0.2,0-0.2-0.2-0.2L58.1,10.4z M56,13.2c-0.2-0.1-0.2-0.1-0.2-0.1S55.9,13.2,56,13.2z M56,12.2L56,12.2
	L56,12.2L56,12.2L56,12.2z"/>
<path d="M52.3,11.3c-1.2-0.3-2.4-0.3-3.7-0.2c0.1,0.2,0.3,0.3,0.5,0.3c0.3,0,0.7,0,1,0c0.6-0.1,1.2-0.1,1.8-0.1
	c0.2,0,0.4,0.2,0.3,0.4c-0.1,0.3-0.2,0.6-0.4,0.9c-0.1,0.1-0.3,0.2-0.4,0.2c-0.3,0-0.6,0-0.8-0.1c-0.3-0.1-0.5-0.1-0.8,0h-0.7h-0.2
	c0,0,0,0.1,0,0.1c0.1,0.3,0.1,0.3,0.4,0.2c0.2-0.1,0.4-0.1,0.7-0.1c0.4,0,0.8,0,1.2,0h0.7c0.1,0,0.1,0,0.2,0c0.1,0,0.2,0,0.2,0
	c0.3,0,0.4-0.1,0.3-0.4s0-0.2,0.1-0.4c0.2,0.1,0.1,0.2,0.1,0.4c0,0.2,0,0.4,0.1,0.6c0.1,0.3,0.1,0.7,0.1,1c0,0.1,0,0.3,0.1,0.4
	c0,0,0.1,0.1,0.1,0.1c0.1,0.3,0,0.4-0.3,0.4h-0.2c-0.2-0.1-0.4-0.1-0.7,0c-0.1,0-0.2,0-0.3-0.1l-0.4-0.1l1-0.2c0-0.2,0-0.2-0.2-0.2
	c-0.8,0-1.7,0-2.5,0c-0.2,0-0.4,0-0.6-0.1c0,0-0.1,0-0.1,0h-1.4c-0.1,0-0.2,0-0.2,0c0,0.1-0.2,0.1-0.2,0.1c0,0,0,0,0,0
	c-0.1,0-0.2-0.2-0.2-0.3c0-0.1,0-0.3,0-0.4s0-0.3,0-0.4c-0.1-0.3-0.1-0.6-0.1-0.9c0-0.2,0-0.4-0.1-0.6c-0.1-0.3-0.2-0.7-0.1-1.1
	c0-0.2,0-0.4,0-0.6s0-0.4,0-0.6c0-0.1,0.2-0.2,0.3-0.2c0,0,0,0,0,0c0.2,0.1,0.4,0.1,0.5,0c0.2,0,0.4,0,0.5,0c0.2,0,0.4,0.1,0.6,0.1
	c0.7,0.1,1.3,0.1,1.9,0.2c0.3,0,0.7,0,1,0h0.6c0.1,0,0.2,0.1,0.2,0.2c0,0,0,0,0,0C52.6,10.5,52.5,10.9,52.3,11.3z M47.6,13.5
	L47.6,13.5c-0.1,0-0.1,0-0.2-0.1s0-0.1,0-0.2s-0.1,0-0.1,0c0,0.1,0,0.2,0,0.2L47.6,13.5z M47.5,14.4c0.2-0.1,0-0.3,0.1-0.4
	C47.5,14.1,47.4,14.3,47.5,14.4C47.5,14.4,47.5,14.4,47.5,14.4z M47.8,13.7L47.8,13.7c-0.1,0-0.1,0-0.2,0c0,0-0.1,0.1-0.1,0.1
	c0,0,0.1,0.1,0.1,0.1v-0.2L47.8,13.7z M47.7,12.9l-0.2-0.1C47.5,13,47.5,13,47.7,12.9z"/>
<path d="M24.7,14.6c0-0.1,0-0.2,0-0.4c0-0.5,0-0.9,0-1.4c0-0.1,0-0.2-0.1-0.2c-0.1-0.2-0.2-0.2-0.4-0.1L24,12.8
	c-0.3,0.2-0.6,0.5-0.9,0.7c-0.2,0.1-0.4,0.2-0.6,0.2c-0.1,0-0.2,0-0.2-0.1c-0.1-0.1-0.1-0.2-0.2-0.3l-0.3-0.5c0-0.1-0.1-0.1-0.1-0.2
	c0-0.3-0.3-0.4-0.3-0.6h0c0,0,0,0.1,0,0.1c0,0.2,0,0.4-0.1,0.5c-0.1,0.2-0.1,0.4,0,0.6c0,0.3,0,0.6,0,0.9c0,0.1,0,0.2,0,0.3
	c0,0.1,0,0.2-0.1,0.2c0,0,0,0,0,0c-0.4,0.1-0.7,0.1-1.1,0.1c-0.2,0-0.2-0.1-0.2-0.3s0-0.5,0-0.8c0-0.3,0-0.6,0-0.9
	c0-0.3,0-0.5,0-0.8c0-0.6,0-1.1-0.1-1.7V10h0.2h1.3c0.2,0,0.3,0.1,0.4,0.2c0.1,0.2,0.3,0.4,0.3,0.6c0,0,0.1,0.1,0.1,0.1
	s0.1,0,0.1,0.1c0.1,0.2,0.2,0.4,0.4,0.6c0,0.1,0.1,0.1,0.1,0.2c0.1,0,0.1,0,0.2-0.1c-0.1,0-0.1-0.1-0.2-0.1
	c-0.1-0.1-0.1-0.1-0.2-0.2c0-0.1,0-0.2,0.1-0.2c0,0,0,0,0,0c0.1,0,0.2,0,0.2,0.1c0,0.1,0.1,0.1,0.1,0.2l0.1,0.3
	c0.1-0.1,0.1-0.1,0.2-0.2c0.1-0.1,0.2-0.2,0.3-0.2c0.3-0.2,0.6-0.4,0.8-0.7c0.1-0.2,0.3-0.4,0.4-0.6l2.1-0.1c0,0.2,0,0.4,0,0.5
	l-0.1,0.9c0,0.1,0,0.2-0.1,0.3c-0.1,0.4-0.1,0.8-0.1,1.1c0,0.5-0.1,1-0.1,1.5v0.2c0,0.2-0.1,0.3-0.3,0.2L24.7,14.6L24.7,14.6z
	 M20.2,12.1c-0.1,0.1-0.2,0.1-0.2,0.2h0.3L20.2,12.1z M20.2,12.8c0.1-0.1,0.1-0.2,0-0.3C20.1,12.6,20.1,12.7,20.2,12.8z M20.5,12.9
	L20.5,12.9l-0.2,0C20.4,13,20.4,12.9,20.5,12.9z M25.2,11.1L25.2,11.1L25.2,11.1H25v0.1L25.2,11.1z M25.3,10.6L25.3,10.6
	c-0.1,0-0.1-0.1-0.2,0H25.3z M20.1,12L20.1,12l0.1-0.1l0,0L20.1,12z M21.5,11.5l0.1,0.1l0.1-0.1l-0.1-0.1L21.5,11.5z"/>
<path d="M42.8,11.2c-0.1,0.1-0.1,0.2-0.3,0.1s-0.1,0-0.1,0L42,11.5c-0.1,0.1-0.2,0.2-0.2,0.3c0,0.2,0,0.5,0,0.8
	c0,0.2,0.1,0.4,0.3,0.5c0.3,0.3,0.7,0.4,1.1,0.3c0.3-0.1,0.5-0.2,0.7-0.4c0.2-0.2,0.4-0.3,0.7-0.1c0.2,0.1,0.4,0.1,0.7,0.1
	c0.1,0,0.1,0,0.2,0c0.2,0.1,0.4,0.3,0.6,0.4c0.1,0,0.1,0.1,0.1,0.2c0,0,0,0,0,0c-0.1,0.2-0.1,0.4-0.3,0.4c-0.1,0.1-0.1,0.1-0.1,0.2
	c-0.2,0.3-0.2,0.3-0.6,0.3c0,0-0.1,0-0.1,0l-0.5,0.2c-0.1,0-0.1,0.1-0.2,0.1c-0.1,0.2-0.1,0.2-0.3,0l0,0c-0.2,0-0.3,0.1-0.3,0.3
	h-0.1c-0.6,0.1-1.2,0.1-1.8,0c-0.1,0-0.2-0.1-0.3-0.2c-0.2-0.2-0.4-0.3-0.5-0.4c-0.3-0.2-0.6-0.4-0.8-0.7c0,0,0-0.1-0.1-0.1
	c-0.1-0.3-0.2-0.6-0.3-0.9v-0.1c-0.3-0.4-0.3-0.9-0.1-1.4c0.1-0.2,0.1-0.4,0.2-0.6c0.1-0.3,0.3-0.5,0.6-0.4c0.2,0,0.3,0,0.5-0.1
	c0.6-0.1,1.2-0.3,1.7-0.5c0.3-0.1,0.6-0.1,0.9-0.1c0.2,0,0.4,0,0.6,0.1l1.1,0.3c0.2,0.1,0.4,0.2,0.6,0.4c0.1,0.2,0.2,0.4,0.1,0.6
	c0,0,0,0.1-0.1,0.1c-0.2,0.1-0.4,0.2-0.6,0.3c-0.1,0-0.2,0.1-0.3,0.2c-0.1,0.2-0.3,0.3-0.5,0.5s-0.2,0-0.2,0s-0.3-0.2-0.4-0.3
	c-0.1-0.1-0.2-0.1-0.2-0.1L43,11.2L42.8,11.2z M41.3,14.2c-0.1-0.1-0.2-0.2-0.2-0.2s-0.1-0.1-0.2,0l0.3,0.3L41.3,14.2z M40.3,11.8
	c-0.1,0.1-0.1,0.1-0.2,0.2s0.1,0.1,0.1,0.1S40.3,12,40.3,11.8L40.3,11.8z M40.8,13.1L40.5,13l0.1,0.2C40.7,13.3,40.8,13.2,40.8,13.1
	L40.8,13.1z M40.5,12.5c0.2,0,0.2,0,0.3-0.1C40.6,12.4,40.6,12.4,40.5,12.5L40.5,12.5z M41.5,14.2c0.1,0.2,0.1,0.2,0.2,0.1
	L41.5,14.2z M40.3,11.6c0.1-0.2,0.1-0.2,0-0.2V11.6z M40.5,12.3L40.5,12.3l-0.2-0.1c0,0,0,0,0,0.1L40.5,12.3z M41.5,10.3L41.5,10.3
	l-0.1-0.1v0.1L41.5,10.3z M41.9,10.2C41.9,10.2,41.8,10.3,41.9,10.2l0,0.2C41.9,10.4,41.9,10.4,41.9,10.2
	C41.9,10.3,41.9,10.2,41.9,10.2L41.9,10.2z M40.8,13.6L40.8,13.6v0.2l0,0V13.6z M42,14.5L42,14.5l0.1,0.1
	C42.2,14.6,42.1,14.5,42,14.5L42,14.5z"/>
<path d="M64.8,12.6c0,0.1,0,0.2,0,0.4s0,0.3,0.2,0.4c0,0,0.1,0,0.1,0.1c0.1,0.1,0.2,0.1,0.3,0c0.1,0,0.1-0.1,0.2-0.1l1.8-0.2
	c0.1,0,0.2,0,0.3,0c0.3,0,0.5,0,0.8-0.1c0.1,0,0.2,0,0.3-0.1c0,0.1,0,0.2,0,0.4s0,0.4,0,0.6c0,0.2,0,0.3-0.2,0.4
	c-0.1,0.1-0.3,0.2-0.5,0.2c-0.2,0-0.4,0.1-0.6,0.1s-0.3,0-0.5,0h-0.5h-1.1l-1.6,0.1c-0.2,0-0.3,0.1-0.5,0c0.1-0.3,0.1-0.7,0-1
	c0-0.4-0.1-0.8-0.2-1.2s-0.1-0.7-0.1-1c0-0.1,0-0.2-0.1-0.3c-0.1-0.3-0.2-0.6-0.2-0.9c0-0.1,0-0.2,0-0.3s0-0.3,0.2-0.3
	c0.2-0.1,0.4-0.1,0.7-0.1c0.8,0,1.7-0.1,2.5-0.1c0.4,0,0.9,0,1.3,0s0.7,0,1,0c0,0.1,0.1,0.2,0.1,0.4c0,0.2,0.1,0.4,0.1,0.6
	c0,0.2-0.1,0.3-0.3,0.4c-0.2,0-0.3,0-0.5,0l-0.5-0.1l-0.7-0.1l-0.9-0.1c-0.4,0-0.8,0.1-1.2,0.1c0,0.2,0.1,0.3,0.1,0.4
	c0.1,0.1,0.2,0.2,0.3,0.2l1.5-0.1c0.5,0,1.1,0,1.6,0c0.1,0,0.2,0,0.4,0.1c0,0.4,0,0.7,0,1.1l-0.2,0.2c-0.1,0.1-0.3,0.1-0.4,0
	c-0.2-0.2-0.5-0.2-0.8-0.2c-0.4,0-0.8,0.1-1.2,0.1c-0.1,0-0.3,0-0.4,0C65.2,12.6,65,12.6,64.8,12.6z M67.7,13.7
	c-0.1-0.1-0.2,0-0.3,0v0.1L67.7,13.7c0.1,0.1,0.1,0.2,0.2,0.1C67.9,13.7,67.8,13.7,67.7,13.7z M68,13.9c0.1,0.1,0.2,0.2,0.3,0
	C68.2,14,68.1,14,68,13.9C68,13.9,68,13.9,68,13.9L68,13.9z M67,13.9L67,13.9C67,13.9,67,13.9,67,13.9h0.2l0,0H67z M67.4,14.1
	L67.4,14.1L67.4,14.1L67.4,14.1L67.4,14.1z M67.8,14.2C67.8,14.2,67.8,14.2,67.8,14.2C67.9,14.2,67.9,14.2,67.8,14.2
	C67.9,14.2,67.8,14.2,67.8,14.2L67.8,14.2z"/>
<path d="M24.3,22.8l0.1-0.3c0-0.1,0-0.1,0.1-0.1c0.1-0.1,0.2-0.3,0.3-0.4c0.1-0.2,0.2-0.3,0.4-0.2c0.4,0.1,0.8,0.2,1.2,0.3
	c0.4,0.1,0.9,0.1,1.4,0c0.1,0,0.1-0.1,0.2-0.2s-0.1-0.1-0.1-0.1s-0.4-0.1-0.6-0.1c-0.4-0.1-0.8-0.2-1.2-0.4l-1-0.4
	c-0.3-0.1-0.5-0.4-0.4-0.7c0-0.1,0-0.1,0.1-0.2c0.1-0.2,0.2-0.4,0.2-0.6c0-0.1,0-0.2,0.1-0.3c0.1-0.1,0.1-0.2,0.2-0.3
	c0.1-0.2,0.4-0.4,0.7-0.4c0.5-0.1,1-0.1,1.5,0l1.2,0.1c0.2,0,0.3,0,0.5,0.1l0.9,0.2c0,0,0.1,0,0.1,0c0.1,0,0.2,0.1,0.2,0.2
	c0,0.1-0.1,0.2-0.2,0.2c-0.1,0.1-0.3,0.2-0.4,0.3l-1-0.1c-0.1,0-0.2,0-0.4,0c-0.3,0-0.6,0.1-0.9,0c-0.2,0-0.5,0.1-0.7,0.2
	c-0.1,0-0.1,0.1-0.1,0.2c0,0.1,0.1,0.1,0.2,0.2c0.2,0,0.4,0.1,0.6,0.1h0.1c0.2,0,0.4,0.1,0.4,0.2c0,0,0.1,0.1,0.1,0.1
	c0,0,0.1-0.1,0.1-0.1c0.2-0.3,0.5-0.4,0.8-0.2c0.2,0.1,0.4,0.2,0.5,0.3c0.2,0.2,0.5,0.4,0.7,0.5c0.2,0.1,0.3,0.3,0.3,0.5
	c0.1,0.5-0.1,1-0.4,1.3c-0.2,0.2-0.4,0.3-0.6,0.4c-0.1,0.1-0.3,0.1-0.4,0.2c-0.3,0.1-0.6,0.2-0.9,0.2c-0.4,0.1-0.8,0.1-1.2,0.1
	c-0.1,0-0.2,0-0.4,0c-0.3,0-0.6-0.2-0.8-0.3c-0.1,0-0.2-0.1-0.3-0.1l-0.8-0.1C24.5,23.1,24.3,22.9,24.3,22.8z"/>
<path d="M35.2,12.3c0,0.1-0.1,0.2-0.1,0.4c-0.1,0.4-0.2,0.9-0.2,1.3c0,0.2-0.1,0.3-0.2,0.4c-0.1,0.2-0.1,0.2-0.3,0.1L34,14.4
	l-0.8-0.1c0,0,0-0.1,0-0.1c0-0.1,0-0.2,0-0.3c0-0.7,0-1.4,0-2.1c0-0.3,0-0.6,0-1c0-0.2,0-0.4,0-0.6c0-0.2-0.1-0.4-0.1-0.6l0,0l0,0
	H35c0.1,0.2,0.2,0.4,0.4,0.4c0.2,0.1,0.4,0.3,0.6,0.5c0.1,0.1,0.2,0.1,0.2,0.1c0.2,0.1,0.3,0.2,0.3,0.4c0,0.2,0.2,0.4,0.4,0.4
	c0.1,0.1,0.2,0.1,0.2,0.3s0.1,0.1,0.1,0.1c0.1,0,0.2-0.1,0.2-0.2c0-0.1,0-0.3,0-0.4c0-0.1,0-0.2,0-0.3c0-0.1,0-0.3-0.1-0.4
	c0-0.1,0-0.1,0-0.2c0-0.1,0-0.1,0-0.2c0-0.2,0-0.4,0.2-0.5h1.1c0.1,0,0.2,0,0.3-0.1h0.1H40c0,0,0.1,0,0.1,0c0.1,0.1,0,0.2,0,0.3
	c0,0-0.1,0-0.1,0c-0.2,0.1-0.3,0.2-0.4,0.3c-0.1,0.2-0.1,0.2-0.3,0.1l-0.2-0.1C39,10.5,39,10.6,39,10.8c0,0.3-0.1,0.5-0.1,0.8
	c0,0.1,0,0.2,0,0.4c0.1,0.4,0.1,0.9,0.1,1.3c0,0.4,0,0.9,0,1.4c0,0-0.1,0.1-0.2,0.1c-0.3,0-0.5,0-0.8,0c-0.1,0-0.2,0-0.3-0.1
	c-0.1-0.2-0.3-0.4-0.5-0.5c-0.2-0.2-0.4-0.3-0.6-0.6c-0.2-0.2-0.4-0.5-0.7-0.7c-0.1-0.1-0.3-0.2-0.4-0.3
	C35.4,12.4,35.3,12.3,35.2,12.3z M36.4,12.7L36.4,12.7l0.3,0.2L36.7,13h0.2c0.1-0.2-0.1-0.2-0.2-0.3s0.1-0.2-0.1-0.4
	C36.6,12.5,36.7,12.7,36.4,12.7z M36.4,12.6c0-0.2,0-0.3-0.1-0.4c0,0.1-0.1,0.2-0.1,0.2C36.2,12.5,36.3,12.5,36.4,12.6
	C36.4,12.6,36.4,12.6,36.4,12.6z M35.6,11.9L35.6,11.9l0.3,0.1l0,0L35.6,11.9z M37.7,13.8c0,0.1,0,0.2,0.2,0.1s0-0.1,0-0.1
	L37.7,13.8z M34,13.4l-0.1-0.2C33.8,13.4,33.9,13.4,34,13.4z M36,12.1c0.1,0.2,0.1,0.2,0.2,0.1C36.1,12.1,36.1,12.1,36,12.1z
	 M38.3,12.9L38.3,12.9C38.2,12.9,38.2,12.9,38.3,12.9L38.3,12.9L38.3,12.9z M38.5,13.3L38.5,13.3h0.1l0,0H38.5z M36.9,12.1
	L36.9,12.1L36.9,12.1L36.9,12.1C36.8,12.2,36.8,12.2,36.9,12.1L36.9,12.1z M34.2,9.9L34.2,9.9L34.2,9.9L34.2,9.9L34.2,9.9z"/>
<path d="M30.6,11.1c-0.5,0-1,0-1.5-0.1c-0.2,0-0.3,0-0.3,0.2c0,0.2,0.1,0.4,0.3,0.4c0,0,0,0,0,0c0.1,0,0.3,0,0.4,0h2.2
	c0.3,0,0.5,0.2,0.3,0.5c0,0.1-0.1,0.3-0.2,0.4c-0.1,0.1-0.1,0.1-0.2,0.2c-0.2,0-0.5,0-0.7,0h-1.4h-0.1c-0.1,0-0.2,0.1-0.2,0.2
	c0,0.1,0.1,0.2,0.2,0.3c0.1,0,0.2,0,0.2,0.1c0.7,0,1.3-0.1,2-0.2c0.2,0,0.4-0.1,0.6-0.1c0.2,0,0.2,0,0.2,0.2c0,0.1,0,0.3-0.1,0.4
	c-0.1,0.1-0.1,0.2,0,0.2c0.1,0.1,0.1,0.2,0.1,0.3c0,0.1,0,0.2,0,0.4c0,0.1-0.1,0.2-0.2,0.3c0,0-0.1,0-0.1,0c-0.3,0-0.6-0.1-0.8-0.1
	c-0.5-0.1-1-0.2-1.4-0.2c-0.6,0-1.2-0.1-1.7-0.2c-0.1,0-0.3,0-0.4,0c-0.2,0-0.3,0-0.3-0.2c-0.1-0.5-0.1-0.9-0.1-1.4
	c0-0.1,0-0.2,0.1-0.4s0-0.1,0-0.1c-0.1-0.4-0.2-0.8-0.1-1.2c0-0.1,0.1-0.3,0.1-0.4c0.1-0.1,0.1-0.2,0-0.3c-0.1-0.1-0.1-0.2-0.1-0.3
	c0-0.1,0-0.2,0-0.3c0-0.1,0.1-0.1,0.1-0.1c0,0,0,0,0,0h0.5c0.5,0,1,0.1,1.4,0.1c0.2,0,0.5,0,0.7,0c0.7,0,1.3,0.1,2,0.1
	c0.4,0,0.5,0.2,0.5,0.6c0,0.1,0,0.2,0,0.2c0,0.2-0.1,0.3-0.3,0.3h-1.6V11.1z M27.9,11.4l0.1,0.4h0.2C28,11.7,28.2,11.4,27.9,11.4z
	 M27.9,10.6c0-0.1-0.1-0.2-0.2-0.3C27.7,10.5,27.7,10.5,27.9,10.6L27.9,10.6z M28,12.2l0.3-0.1C28,12.1,28,12,28,12.2L28,12.2z
	 M28.1,12.9L28.1,12.9H28l0,0H28.1z"/>
<path d="M14.1,9.9c0.2,0,0.2,0,0.4,0.1c0.1,0,0.2,0,0.3,0C15,10,15.3,9.9,15.5,10c0.5,0,1,0,1.4,0h2.2h0.1c0,0.1,0,0.1-0.1,0.2
	c-0.3,0.1-0.2,0.4-0.2,0.6c0,0.2-0.2,0.3-0.3,0.3c-0.3,0-0.7,0-1,0c-0.4,0-0.9,0-1.3,0c-0.2,0-0.5,0-0.7,0h-0.2c0,0.4,0,0.4,0.4,0.4
	c0.4,0,0.7-0.1,1-0.1s0.8,0,1.2,0c0.1,0,0.1,0,0.2,0.1c0,0.2,0,0.4,0,0.6s0,0.4,0,0.6s0,0.2-0.2,0.2h-0.2c-0.1,0-0.1,0-0.2,0
	l-1.1,0.1c-0.3,0-0.7,0-1,0h-0.3l0.1,0.5h0.5l1.9-0.1h1c0.2,0,0.2,0,0.2,0.2c0,0.3,0,0.7,0,1c0,0.3,0,0.4-0.3,0.3
	c-0.7-0.1-1.4-0.1-2,0c-0.5,0-0.9,0-1.4,0l-1.1-0.1c0-0.7-0.1-1.4-0.1-2.1c0.2,0,0.3-0.1,0.3-0.3c0-0.1,0-0.2-0.1-0.2
	S14,11.9,14,11.7s0.1-0.6,0.1-1c0-0.1,0-0.1,0-0.2C14.1,10.3,14,10.1,14.1,9.9z M14.3,11.1c-0.1-0.1-0.2,0-0.2,0.1s0,0.2,0.1,0.2
	L14.3,11.1z M14.6,11.6L14.6,11.6l-0.2-0.1l0,0L14.6,11.6z M14.7,11.3L14.7,11.3h0.2l0,0H14.7z"/>
<path d="M8.2,13.1c0.1,0.1,0.2,0.1,0.3,0.2c0.1,0.1,0.2,0.1,0.3,0.2c0.1,0.1,0.3,0.2,0.4,0.2c0.4,0,0.7,0,1.1,0h0.9
	c0.1,0,0.2,0,0.2-0.2c0-0.1,0-0.1,0.1-0.2c0.1-0.1,0.1-0.3,0.1-0.4L11.3,13c-0.2,0.1-0.4,0.1-0.6-0.1c-0.1-0.1-0.2-0.1-0.3-0.1
	c-0.1,0.1-0.3,0-0.3,0.2H10c-0.3,0.1-0.7,0.1-1,0l0,0l-0.7-0.5c-0.1,0-0.1-0.1-0.1-0.2c-0.1-0.2-0.1-0.5-0.1-0.8
	c0-0.2,0.1-0.4,0.1-0.6c0.1-0.2,0.1-0.3,0.2-0.5c0-0.1,0.1-0.1,0.2-0.1c0.3-0.1,0.6-0.2,0.9-0.3c0.4-0.1,0.9-0.2,1.3-0.2
	c0.3,0,0.6-0.1,0.8-0.1c0.3,0,0.7,0,1,0.2c0.2,0.1,0.3,0.2,0.4,0.4c0.1,0.2,0,0.5-0.2,0.7c-0.1,0-0.1,0-0.2,0.1
	c-0.2,0-0.4,0-0.7-0.1c-0.2,0-0.3-0.1-0.5-0.1c-0.2,0-0.4-0.1-0.4-0.3c-0.1,0.2-0.3,0.2-0.5,0.2c-0.2,0-0.4,0-0.6,0H9.8
	c0,0.1,0,0.3-0.2,0.3s0,0.1,0.1,0.2c0.3,0.3,0.7,0.3,1.1,0.2c0.1-0.1,0.3-0.1,0.4,0c0.1,0,0.2,0.1,0.3,0.1h0.4c0.2,0,0.3,0,0.5,0
	c0.1,0,0.2,0,0.3,0.1c0.5,0.2,0.7,0.8,0.5,1.3c0,0.2,0,0.4,0,0.6c0,0.3-0.1,0.6-0.3,0.7c-0.1,0-0.1,0.1-0.1,0.1
	c-0.2,0.2-0.4,0.3-0.6,0.3c-0.5,0-1,0-1.6,0c-0.1,0-0.1,0-0.2,0s-0.3,0-0.4,0c-0.2,0-0.4,0-0.5,0c0,0-0.1,0-0.1,0
	c-0.1,0.1-0.2,0.1-0.4,0c-0.3-0.2-0.6-0.3-0.9-0.5c-0.1-0.1-0.2-0.3-0.2-0.4C7.9,13.5,8,13.3,8.2,13.1z M10.6,10L10.6,10l-0.4,0.1
	l0,0L10.6,10z"/>
<path d="M19.9,23.2h-1c-0.2,0-0.3,0-0.5,0.1c-0.2,0.1-0.4,0-0.6-0.2c-0.2-0.3-0.5-0.5-0.7-0.7c-0.1-0.1-0.2-0.1-0.3-0.1
	c-0.3,0-0.7,0-1,0h-0.3c-0.3,0-0.4,0.1-0.4,0.4c0,0.2-0.1,0.4-0.2,0.5c-0.1,0.1-0.3,0.1-0.4,0c0,0,0,0,0,0C14.3,23,14,23,13.8,22.9
	s-0.4,0-0.5,0L13,23c0.1-0.2,0.1-0.4,0.2-0.5c0-0.1,0.1-0.1,0.1-0.2c0-0.2,0.1-0.3,0.3-0.4c0.3-0.3,0.6-0.6,0.8-1
	c0.2-0.4,0.5-0.9,0.7-1.3c0.1-0.3,0.3-0.5,0.4-0.8s0.2-0.3,0.6-0.3c0.3,0,0.5,0,0.8,0s0.3,0.1,0.4,0.3c0.2,0.4,0.4,0.8,0.7,1.2
	c0.1,0.2,0.2,0.5,0.4,0.8c0,0,0,0.1,0.1,0.1c0.2,0.4,0.4,0.8,0.6,1.2c0.1,0.2,0.1,0.3,0.4,0.3l0,0C19.6,22.6,19.9,22.8,19.9,23.2z
	 M16.2,20.7c0.1,0,0.1,0,0.2,0.1c0.1,0,0.1,0,0.2-0.1c0.1-0.1,0.1-0.3-0.1-0.4c-0.1-0.1-0.1-0.1-0.2-0.1c-0.1,0.1-0.2,0.2-0.1,0.3
	C16.1,20.6,16.1,20.6,16.2,20.7z"/>
<path d="M12.4,18.6l-0.1-0.2c0.4-0.1,0.8,0.1,1,0.4c0.2,0.2,0.3,0.5,0.2,0.8c0,0.1,0,0.2,0,0.3c0.1,0.4-0.2,0.9-0.6,1
	c-0.1,0-0.1,0-0.1,0.1c-0.4,0.3-1,0.5-1.5,0.5l-1.2,0.1c0.1,0.3,0.1,0.3-0.2,0.5c0.1,0.3,0.1,0.6,0.1,0.8l0.2,0L10,23l-1.3-0.1
	c-0.2,0-0.4,0-0.6,0H7.8c0-0.3,0.1-0.6,0.2-0.9c0.1-0.2,0.1-0.4,0.1-0.6c0-0.4,0-0.9,0-1.3c0-0.1,0-0.2,0-0.4c0-0.3,0-0.6,0-1
	c0-0.2,0-0.4,0.1-0.5H9l1,0.1l1.6,0.2C11.9,18.6,12.1,18.6,12.4,18.6z M9.8,19.6c-0.2,0.2-0.2,0.4-0.2,0.7c0,0.2,0.2,0.3,0.3,0.3
	c0.1,0,0.3,0,0.4,0c0.3-0.1,0.7-0.1,1-0.1c0.2,0,0.2,0,0.3-0.2s0-0.3-0.2-0.4c-0.2-0.1-0.4-0.1-0.6,0c-0.1,0.1-0.3,0.1-0.3,0
	c0,0,0-0.1,0-0.1c0-0.1-0.1-0.2-0.2-0.1L9.8,19.6z"/>
<path d="M23.1,23.5c-0.5,0.1-1,0.1-1.4,0l-0.9-0.2c-0.1,0-0.2,0-0.2-0.1c0-0.1,0.1-0.2,0.2-0.2c0.2-0.1,0.2-0.2,0.2-0.4c0,0,0,0,0,0
	c-0.1-0.2-0.2-0.5-0.2-0.7c0-0.1,0-0.1,0-0.2c0-0.2,0-0.3-0.1-0.5c-0.1-0.1-0.1-0.2-0.2-0.2c-0.2-0.2-0.2-0.4-0.3-0.6l-0.5-0.6
	l-0.3-0.4c-0.1-0.1-0.3-0.3-0.4-0.5s-0.2-0.2-0.3-0.4c0.1,0,0.1-0.1,0.2-0.1l0.8-0.1c0.3,0,0.5,0,0.8,0s0.3,0.1,0.4,0.3
	c0.1,0.1,0.1,0.3,0.2,0.4c0.1,0.2,0.2,0.4,0.3,0.6c0.1,0.1,0.2,0.2,0.4,0.1c0,0,0,0,0.1,0c0.1-0.1,0.3-0.1,0.3-0.3
	c0-0.1,0.1-0.2,0.2-0.3c0.1-0.1,0.2-0.2,0.2-0.4c0-0.1,0.1-0.2,0.1-0.3c0-0.1,0.1-0.1,0.2-0.1c0.3-0.1,0.5,0,0.8,0.1
	c0.2,0.2,0.5,0.3,0.8,0.3c0.1,0,0.2,0.1,0.1,0.3c-0.2,0.3-0.4,0.6-0.6,1c-0.3,0.5-0.6,1-0.9,1.4c-0.1,0.1-0.2,0.2-0.2,0.4
	c0,0.2-0.1,0.5-0.1,0.7c-0.1,0.2,0,0.3,0.1,0.4C22.8,23.1,23,23.3,23.1,23.5z"/>
<path class="st4" d="M55.7,12.8c-0.2-0.1-0.2-0.3-0.2-0.5s0.1-0.2,0.2-0.1s0.1,0,0.2,0.1c0,0.1,0.1,0.2,0.1,0.3l0.1,0.1l0.2,0.1H56
	v0.1l-0.2,0.1c-0.1,0-0.1,0.1-0.2,0S55.6,12.8,55.7,12.8z M55.8,12.6L55.8,12.6C55.8,12.7,55.9,12.7,55.8,12.6L55.8,12.6L55.8,12.6z
	 M55.6,12.4C55.6,12.4,55.6,12.4,55.6,12.4C55.6,12.5,55.6,12.5,55.6,12.4L55.6,12.4C55.6,12.5,55.6,12.5,55.6,12.4z"/>
<path class="st4" d="M55.9,11.8v0.3L55.6,12c0-0.2,0-0.4-0.1-0.5c0-0.2,0.1-0.4,0.2-0.5c0,0,0,0.1,0,0.1c-0.1,0.2,0,0.3,0.1,0.5
	C55.8,11.7,56,11.7,55.9,11.8c-0.2-0.1-0.2,0-0.2,0.1C55.8,12,55.9,11.9,55.9,11.8z"/>
<path class="st4" d="M58.8,10.4c-0.1-0.1-0.4-0.1-0.3-0.4C58.7,10.1,58.7,10.3,58.8,10.4z"/>
<path class="st4" d="M59.2,10.3c-0.1,0.1-0.1,0.1-0.2,0.2c0,0-0.1-0.1-0.2-0.1C59,10.2,59,10.2,59.2,10.3z"/>
<path class="st4" d="M58.1,10.4l-0.2-0.2C58.1,10.1,58.1,10.2,58.1,10.4z"/>
<path class="st4" d="M56,13.2c-0.1,0.1-0.2,0-0.2-0.1S55.9,13,56,13.2z"/>
<path class="st4" d="M56,12.2L56,12.2L56,12.2L56,12.2L56,12.2z"/>
<path class="st4" d="M47.6,13.5h-0.3c0-0.1,0-0.2,0-0.2c0,0,0.1,0,0.1,0s0,0.1,0,0.2S47.5,13.5,47.6,13.5L47.6,13.5z"/>
<path class="st4" d="M47.5,14.4c-0.1-0.1,0-0.3,0.1-0.4c0,0,0,0,0,0C47.5,14.1,47.7,14.3,47.5,14.4z"/>
<path class="st4" d="M47.8,13.7h-0.2v0.2c-0.1-0.1-0.1-0.1-0.1-0.1c0,0,0.1-0.1,0.1-0.1C47.6,13.7,47.7,13.7,47.8,13.7L47.8,13.7z"
	/>
<path class="st4" d="M47.7,12.9c-0.2,0.1-0.2,0.1-0.2-0.1L47.7,12.9z"/>
<path class="st4" d="M20.2,12.1l0.1,0.2H20C20,12.1,20.2,12.2,20.2,12.1z"/>
<path class="st4" d="M20.2,12.8c0-0.1-0.1-0.2,0-0.3C20.3,12.6,20.2,12.7,20.2,12.8z"/>
<path class="st4" d="M20.5,12.9c-0.1,0-0.1,0.1-0.3,0l0.2-0.1L20.5,12.9z"/>
<path class="st4" d="M25.2,11.1H25v-0.1L25.2,11.1L25.2,11.1L25.2,11.1z"/>
<path class="st4" d="M25.3,10.6h-0.2C25.2,10.5,25.3,10.6,25.3,10.6L25.3,10.6z"/>
<path class="st4" d="M20.1,12l0.1-0.1l0,0L20.1,12L20.1,12z"/>
<path class="st4" d="M21.5,11.5h0.1l0.1,0.1l-0.1,0.1L21.5,11.5z"/>
<path class="st4" d="M41.3,14.2L41.3,14.2L40.9,14c0.1-0.1,0.2-0.1,0.2,0S41.2,14.1,41.3,14.2z"/>
<path class="st4" d="M40.3,11.8c0.1,0.1,0.1,0.2-0.1,0.3S40.1,12,40.1,12S40.2,11.9,40.3,11.8z"/>
<path class="st4" d="M40.8,13.1c0,0.1-0.1,0.2-0.2,0.1L40.5,13L40.8,13.1z"/>
<path class="st4" d="M40.5,12.5c0.2-0.1,0.2-0.1,0.3-0.1C40.6,12.5,40.6,12.5,40.5,12.5z"/>
<path class="st4" d="M41.5,14.2l0.2,0.1C41.5,14.4,41.5,14.4,41.5,14.2z"/>
<path class="st4" d="M40.3,11.6v-0.2C40.5,11.4,40.5,11.4,40.3,11.6z"/>
<path class="st4" d="M40.4,12.2h-0.2c0-0.1,0-0.1,0-0.1L40.4,12.2L40.4,12.2z"/>
<path class="st4" d="M41.5,10.3l-0.1-0.1v-0.1L41.5,10.3L41.5,10.3z"/>
<path class="st4" d="M41.9,10.2C41.9,10.2,41.9,10.3,41.9,10.2c0,0.1,0,0.1,0,0.2V10.2C41.8,10.3,41.8,10.2,41.9,10.2z"/>
<path class="st4" d="M40.8,13.6v0.2l0,0V13.6z"/>
<path class="st4" d="M42,14.5L42,14.5c0.1,0,0.1,0,0.2,0.1L42,14.5L42,14.5z"/>
<path class="st4" d="M68,13.9c0.1,0.1,0.2,0.1,0.3,0C68.2,14.1,68.1,14.1,68,13.9z"/>
<path class="st4" d="M67.7,13.7h-0.3v-0.1C67.5,13.7,67.6,13.6,67.7,13.7L67.7,13.7z"/>
<path class="st4" d="M67.1,13.9h0.1l0,0H67.1C67.1,13.9,67.1,13.9,67.1,13.9L67.1,13.9z"/>
<path class="st4" d="M67.7,13.7c0.1,0,0.2-0.1,0.2,0.1C67.8,13.8,67.8,13.8,67.7,13.7z"/>
<path class="st4" d="M67.4,14.1L67.4,14.1L67.4,14.1L67.4,14.1z"/>
<path class="st4" d="M67.8,14.2L67.8,14.2C67.9,14.2,67.9,14.2,67.8,14.2L67.8,14.2C67.9,14.2,67.9,14.2,67.8,14.2z"/>
<path class="st4" d="M36.4,12.7c0.2,0,0.2-0.2,0.2-0.3c0.1,0.1,0,0.2,0.1,0.4s0.2,0.1,0.2,0.3h-0.2l0.1-0.1L36.4,12.7L36.4,12.7z"/>
<path class="st4" d="M36.4,12.6C36.4,12.6,36.4,12.6,36.4,12.6c-0.1-0.1-0.2-0.1-0.2-0.2c0-0.1,0.1-0.2,0.1-0.2
	C36.4,12.3,36.5,12.5,36.4,12.6z"/>
<path class="st4" d="M35.6,11.9h0.3l0,0H35.6L35.6,11.9z"/>
<path class="st4" d="M37.7,13.8l0.2,0.1c0,0,0,0.1,0,0.1S37.7,13.9,37.7,13.8z"/>
<path class="st4" d="M34,13.4c-0.2,0-0.2,0-0.1-0.2L34,13.4z"/>
<path class="st4" d="M36,12.1c0.1,0,0.1,0,0.2,0.1C36,12.3,36,12.3,36,12.1z"/>
<path class="st4" d="M38.3,12.9L38.3,12.9l-0.1,0.1c0,0,0,0,0-0.1L38.3,12.9z"/>
<path class="st4" d="M38.4,13.3h0.1l0,0H38.4L38.4,13.3z"/>
<path class="st4" d="M36.8,12.1C36.8,12.2,36.8,12.2,36.8,12.1L36.8,12.1L36.8,12.1z"/>
<path class="st4" d="M34.2,9.9L34.2,9.9L34.2,9.9L34.2,9.9L34.2,9.9z"/>
<path class="st4" d="M27.9,11.4c0.3,0,0.1,0.3,0.3,0.4H28L27.9,11.4z"/>
<path class="st4" d="M27.9,10.6c-0.2,0-0.2,0-0.2-0.3C27.7,10.4,27.8,10.5,27.9,10.6z"/>
<path class="st4" d="M27.9,12.2c0-0.2,0.1-0.2,0.3-0.1L27.9,12.2z"/>
<path class="st4" d="M28.1,12.9H28l0,0H28.1L28.1,12.9z"/>
<path class="st4" d="M14.3,11.1l-0.1,0.2c-0.1,0-0.2-0.1-0.1-0.2S14.2,11.1,14.3,11.1z"/>
<path class="st4" d="M14.6,11.6l-0.2-0.1l0,0L14.6,11.6L14.6,11.6z"/>
<path class="st4" d="M14.7,11.3h0.2l0,0H14.7L14.7,11.3z"/>
<path class="st4" d="M10.6,10l-0.4,0.1l0,0L10.6,10z"/>
<path class="st4" d="M16.2,20.7c0-0.1,0-0.2,0-0.3c0-0.1,0-0.2,0.1-0.3c0.1-0.1,0.2,0,0.2,0.1c0.1,0.1,0.1,0.3,0.1,0.4
	c0,0.1-0.1,0.1-0.2,0.1C16.3,20.8,16.2,20.8,16.2,20.7z"/>
<path class="st4" d="M9.8,19.5h0.4c0.1,0,0.2,0.1,0.2,0.1c0,0.1,0.2,0.2,0.3,0.2c0,0,0.1,0,0.1,0c0.2-0.1,0.4-0.1,0.6,0
	c0.1,0,0.2,0.2,0.2,0.4s-0.1,0.2-0.3,0.2c-0.3,0-0.7,0-1,0.1c-0.1,0-0.3,0-0.4,0c-0.2,0-0.3-0.1-0.3-0.3C9.5,20,9.6,19.7,9.8,19.5z"
	/>
<path d="M55.8,12.6L55.8,12.6L55.8,12.6C55.9,12.7,55.8,12.7,55.8,12.6L55.8,12.6z"/>
<path d="M55.6,12.4C55.6,12.5,55.6,12.5,55.6,12.4L55.6,12.4L55.6,12.4C55.6,12.5,55.6,12.5,55.6,12.4z"/>
<path d="M55.9,11.8c0,0-0.1,0.1-0.2,0.1C55.8,11.8,55.8,11.7,55.9,11.8L55.9,11.8z"/>
</svg>
