<svg xmlns="http://www.w3.org/2000/svg" viewBox="0 0 203.72 287.94"><defs><style>.cls-1{fill:none;stroke:#232322;stroke-miterlimit:10;stroke-width:0.74px;}.cls-2{font-size:27.38px;}.cls-2,.cls-7,.cls-9{fill:#232322;}.cls-2,.cls-7{font-family:Termina-Heavy, Termina;font-weight:800;}.cls-3{letter-spacing:-0.01em;}.cls-4{letter-spacing:-0.02em;}.cls-5{letter-spacing:-0.03em;}.cls-6{fill:#71292d;}.cls-7,.cls-9{font-size:7.88px;}.cls-8{letter-spacing:-0.01em;}.cls-9{font-family:GillSans-SemiBold, Gill Sans;font-weight:600;}.cls-10{letter-spacing:-0.02em;}.cls-11{letter-spacing:0em;}.cls-12{fill:#fff;}</style></defs><g id="Calque_2" data-name="Calque 2"><g id="Calque_1-2" data-name="Calque 1"><rect class="cls-1" x="-41.73" y="45.51" width="284.15" height="199.96" transform="translate(245.84 45.14) rotate(90)"/><text class="cls-2" transform="translate(156.86 245.11) rotate(-90)">Bleu<tspan class="cls-3" x="79.33" y="0">e</tspan><tspan x="100.36" y="0">t</tspan><tspan x="0" y="34.23">Blaue</tspan><tspan class="cls-4" x="100.72" y="34.23">r</tspan><tspan class="cls-5" x="114.68" y="34.23"> </tspan><tspan x="120.54" y="34.23" xml:space="preserve">Junge  </tspan></text><path class="cls-6" d="M2.77,175.14a4.33,4.33,0,0,1-.29-1.08c0-1.91.23-3.82.18-5.72-.06-2.71-.31-5.42-.43-8.13a3,3,0,0,1,.36-1.06l.47.14c-.43-3.92-.85-7.83-1.3-11.74a6.54,6.54,0,0,1,1.09-5.14c.48-.62.26-1.78.38-2.69.06-.45.18-.89.34-1.63-.8-1.23.15-3.25,2-3.57s3.87-.63,5.76-1.12A11.82,11.82,0,0,0,14.66,132a13.2,13.2,0,0,1,5.58-1.8,6.79,6.79,0,0,0,1.85-.84c.87,1,.87,1,1.67.23l-.91-.18-.1-.32,8.14-4.11,1.28,1.11c-2.22,1.9-4.49,3.74-6.65,5.72-1.26,1.14-2.31,2.5-3.49,3.72a6.9,6.9,0,0,1-1.24,1l-8,5.14.19.63a6.5,6.5,0,0,0,2.14-.2,5.47,5.47,0,0,1,1.95-.14c3.16-.37,5.25-2.6,7.84-3.93,1.65-.85,3.42-1.48,5-2.36s3.4-2,5.1-3.08c1.11-.68,2.23-1.36,3.35-2s2.3-1.35,3.76-2.2a16.53,16.53,0,0,0,3.36-.82,71,71,0,0,0,7.6-3.82c3.43-2.06,6.67-4.43,10.07-6.53,2.76-1.7,5.65-3.21,8.48-4.8a1.69,1.69,0,0,0,.27-.12c4.14-3.17,9.26-3.7,14.05-4.86,2.26-.55,5-1.5,7.51.09l1.08.71c-2.24,2.33-4.4,4.58-6.58,6.81q-4.38,4.52-8.78,9a33.15,33.15,0,0,1-4.55,4.33,44,44,0,0,1-7.25,3.9c-4.77,2.05-9.58,4-14.46,5.77-4.58,1.64-9.25,3-13.91,4.43-3.51,1-7.06,2-10.61,2.91-1,.26-2.13.11-3.13.38a34.39,34.39,0,0,0-3.75,1.43c.28.33.35.45.39.45a14.58,14.58,0,0,1,5.47,0c1.77.4,3.8-.32,5.7-.6,2.29-.34,4.57-.77,6.87-1.1,1.94-.28,3.91-.35,5.83-.71a34,34,0,0,0,5.53-1.51,50.3,50.3,0,0,0,7.2-3.18c1.86-1.06,3.6-.2,5.4-.27s3.8-.14,5.7-.12a31.49,31.49,0,0,1,6.53.27c2.72.62,5.47.69,8.2,1.06a21,21,0,0,1,7.95,2.78c2.31,1.35,4.85,2.3,7.25,3.5a25.4,25.4,0,0,0,3.16,1.84c1,.35,2.17.37,3,1.25.25.27.57.5.81.78,2.12,2.55,4.21,5.12,6.38,7.63.56.65,1.44,1,2,1.65.31.34.27,1,.39,1.48l-1.38.27c-.42.36-.84,1-1.37,1.12-3.72.8-7.37,2.1-11.25,1.94-2-.07-4.2.31-5.78-.52-2.09-1.09-4.14-.44-6.13-.91q-5.79-1.38-11.54-2.87c-6.07-1.57-12.12-3.23-18.2-4.77-3.49-.88-7-1.59-10.54-2.41-.68-.15-1.33-.44-2-.66l0-.42c2.87,0,5.73.11,8.59,0,2.28-.12,4.54-.53,6.81-.8a8.74,8.74,0,0,1,3-.3c1.41.38,2.76,0,4.12.16,1.65.15,3.27.44,4.92.6,3.35.32,6.72.51,10.06.92s6.65,1.1,10,1.56a51.54,51.54,0,0,0,7.11.43,3.08,3.08,0,0,0-.82-.43c-2-.37-4.07-.64-6.08-1-3.73-.77-7.43-1.73-11.17-2.41s-7.71-1.33-11.6-1.67c-4.43-.39-8.9-.48-13.36-.59-3.79-.1-7.61-.24-11.39,0-5.16.35-10.3,1-15.44,1.62-1.2.14-2.38.47-3.58.7a11.66,11.66,0,0,1-6.29-.68,11.25,11.25,0,0,0-1.46-.33c.31,1,.36.82,1.06,1.05,1.25.42,2.43,1,3.65,1.55l-.17.34-2.28.36-.17.44c1.64.82,3.27,1.68,4.93,2.45,1.37.64,2.78,1.19,4.19,1.74.22.09.54-.09.77,0,.84.27,1.65.6,2.47.9l-.14.36c.4-.13,1-.48,1.16-.34,1.57,1.38,3.61,1,5.37,1.28a49,49,0,0,1,9.13,2.54c2.18.73,4.43,1.23,6.62,1.93a13.7,13.7,0,0,1,2.17,1.21.85.85,0,0,0,.5.07c1-.16,1.81-.11,1.67.93a5.26,5.26,0,0,1,1.66,0A17.26,17.26,0,0,1,68,169.39c1.87,1.33,4.12,1.32,6,2.32a9.06,9.06,0,0,0,5,1c2-.12,3.48,1.26,5.1,2.24a46.82,46.82,0,0,0,4.74,2.26l.19-.37-1-1.24c-3.45-.7-6.21-2.61-9.22-3.75s-6-2.47-9-3.73-6.41-2.26-9.38-3.83-6.39-2.18-9.49-3.51-6.27-2.43-9.41-3.81a4.59,4.59,0,0,1,.91,0c3.88.82,7.76,1.67,11.65,2.47,2.7.55,5.43,1,8.13,1.55,2,.41,4,1,6,1.42.66.15,1.35.21,2,.33,1.34.25,2.7.42,4,.78,3.58,1,7.15,2.06,10.7,3.15a11.36,11.36,0,0,1,4.24,2.18A78.25,78.25,0,0,1,102.63,184c.86,1.21,2.3,2,3.39,3.07a8,8,0,0,1,1.13,1.65,6.79,6.79,0,0,1,.41.89,13.41,13.41,0,0,1-2.64.54,24.38,24.38,0,0,1-4.17-.36c-2.85-.48-5.68-1.11-8.54-1.57a36,36,0,0,0-5.76-.55c-6.48,0-12.1-3.36-18.28-4.49a5.77,5.77,0,0,1-1.61-.72,29,29,0,0,0-8.13-2.43,11.7,11.7,0,0,1-5.56-3.37,21.68,21.68,0,0,1-1.8-2.16l.29-.22-.51-2.48.44-.38a35.41,35.41,0,0,1,5.92,2.07,15.17,15.17,0,0,0,4.7,1.46c1,.19,2,.72,3,1,3.67,1,7.35,1.92,11,2.78a17.17,17.17,0,0,0,4.29.3,21.67,21.67,0,0,0-3.22-1.71c-4.09-1.36-8.24-2.55-12.34-3.89-2.45-.79-4.83-1.79-7.28-2.59-1.65-.54-3.35-.91-5-1.35-.67-.18-1.25-.32-1.29-1.27A4.09,4.09,0,0,0,49,165,24.31,24.31,0,0,1,47,163.39c.1,0-.13.1-.36.1A7.33,7.33,0,0,0,42,164.83c-1.27,1-2.76.51-4-.57a10.34,10.34,0,0,0-2.51-1.43c-1.58-.71-3.22-1.3-4.81-2-3.9-1.69-7.78-3.41-11.67-5.13a10.6,10.6,0,0,1-1.7-.81c-1-.68-1-.71-2.45,0,1.36.56,1.47,1.61,1.22,2.76-.56,2.62,1,4.71,1.73,7,.06.22.48.42.77.47a2.35,2.35,0,0,0,1-.11c2.32-.63,4.16-.13,5.34,2.12.22.41.47.59,1.15.65A42.91,42.91,0,0,1,33.2,169a15.14,15.14,0,0,1,4.15,1.8c1.78,1.09,2.9,1.18,4.57-.18,1.07-.87,2-1.93,3.14-2.7a2.9,2.9,0,0,1,3.25-.07c-1,2.17-2,4.21-3,6.22-.18.36-.65.82-1,.82a51.71,51.71,0,0,1-8.64-.34,50.36,50.36,0,0,1-13.4-4.07,8.15,8.15,0,0,0-2.82-.8c-.4,0-.95.51-1.3.91a19.37,19.37,0,0,0-1.54,2.14c-.4.62-1,1.27-1.06,1.92,0,2.74-1.53,4.68-3.25,6.51-.17.19-.89,0-1.24-.16a22.73,22.73,0,0,1-2-1.41l-.32.35c.44.4.92.77,1.33,1.2a5.48,5.48,0,0,1,1.34,1.65c.44,1.25-.38,2.05-1.69,2s-2.53-.25-3.33-1.53c-.17-.28-.79-.4-1.2-.38a6.4,6.4,0,0,1-3.73-1.27,1.12,1.12,0,0,1-.38-.87c.1-1.44-.52-3.05,1.07-4.15.36-.25.38-1,.56-1.47l3.83,2.34a15,15,0,0,0-2.36-2.92C3.4,173.74,2.78,173.85,2.77,175.14Zm83.82-65.86-.33-.6c-1.87.87-3.77,1.69-5.61,2.62-5.82,2.92-11.63,5.88-17.43,8.83-2.53,1.29-5,2.6-7.55,3.9q-4.48,2.32-9,4.67c-2.08,1.1-4.14,2.21-6.18,3.36a17.87,17.87,0,0,0-1.8,1.34,107.08,107.08,0,0,0,24.72-10.32C71.25,118.64,79.67,115.17,86.59,109.28ZM4.91,154.83l.29.46a10.12,10.12,0,0,0,5.31-.28c.89-.28,1.4-.69,1.33-1.4-.21-2,.61-3.51,1.47-5.18a3.47,3.47,0,0,0-.61-3,3.2,3.2,0,0,0-2.64-.62c-.55.1-1,1.09-1.36,1.77a25.71,25.71,0,0,0-1.09,3c-.25.71-.8,1.52-.63,2.11a2,2,0,0,1-1.29,2.8C5.43,154.55,5.17,154.7,4.91,154.83Zm.64,12.38c.13.64.21,1.21.37,1.77.49,1.8.86,2,1.91.57,1.6-2.2,3.74-4.1,4.22-7.06a2.14,2.14,0,0,0-.68-2.33,4.57,4.57,0,0,0-2.5-.52,1.33,1.33,0,0,0-1.33,1.7c0,.35-.22.73-.34,1.09C6.65,164,6.09,165.65,5.55,167.21Zm13.55-24-.1.42a3.23,3.23,0,0,0,1.3.2c1.32-.35,2.58-.91,3.9-1.23,2-.5,4.15-.7,6.14-1.33A75.49,75.49,0,0,0,39,138c3-1.39,5.85-3.11,8.77-4.68.64-.35,1.3-.66,2.21-1.12-.44-.07-.55-.12-.62-.09-5.7,2.23-11.39,4.51-17.11,6.68-2.95,1.12-6,2-9,3.08a1.47,1.47,0,0,0-.48.25A4.71,4.71,0,0,1,19.1,143.24Zm25.77-5.87A3.74,3.74,0,0,0,46,137.3c1.9-.81,3.76-1.69,5.67-2.49a30.2,30.2,0,0,0,3-1.05c2.64-1.43,5.28-2.89,7.81-4.52,1.17-.75,2.56-.81,3.68-1.88a20.92,20.92,0,0,1,3.7-2.83c.11-.06.15-.25.38-.69C61.08,127.46,53.58,133.54,44.87,137.37Zm-32.43,34a2.42,2.42,0,0,0-.57.12A6.09,6.09,0,0,0,9.39,174c-.34.62.33,1.6.95,1.32a30.67,30.67,0,0,0,3.77-2.17c.13-.08.08-.8-.1-.94A9.59,9.59,0,0,0,12.44,171.41Zm68-26.46-.11-.47L71.09,144l-.06.43,2.37.89A20.79,20.79,0,0,1,80.46,145Zm-67.6-8.7-.15.58,1.82.61c.18-1.19,2.71-.88,1.83-2.74l-.54.72-1.19-.8-.24.34.52.87Zm72.15,44-3.19-.87-.18.36,2.3,1.6Zm3.82,3-2.71.71C88.08,184.81,88.88,184.53,88.83,183.25Z"/><path class="cls-6" d="M15.59,245.44,15.42,248l-.62-.07.28-1.73c-.51-.1-1-.61-1,.68s-.23,2.44.86,3.63c.52.57,0,2.1-.08,3.25l-1.46.7.59,1.34.35-.08-.12-.82c1.71-.31,1.81,1.08,2.17,2.08,1.59,4.35,3.13,8.73,4.68,13.1,1,2.93,1.85,5.95,3.13,8.76.64,1.41.21,1.68-1,2l.33,1.82c-2.15-2.25-4.49-4.5-6.58-7s-3.74-4.83-5.5-7.33a7.76,7.76,0,0,1-1-2.58c-.7-2.75-1.45-5.49-1.94-8.28-.6-3.38-1-6.8-1.43-10.2a.81.81,0,0,1,0-.44c1.08-2.32-.38-4.45-.45-6.66C6.67,237.65,5.3,236,4,234c-.83-1.25-1-2.92-1.52-4.4-.41-1.25-.91-2.48-1.21-3.76a21.91,21.91,0,0,1-.58-4.18c-.08-2.39,0-4.78.06-7.16.06-1.79.32-3.57.38-5.36.09-2.95.06-5.91.15-8.86,0-1.14.34-2.26.38-3.39s-.09-2.22-.12-3.33a6,6,0,0,1,.08-1.19c.14-.82.49-1.54-.08-2.47-.35-.59,0-1.6,0-2.43,0-.42.08-.85.15-1.51,1.25.48,2.66,1.05,4.09,1.57a11.33,11.33,0,0,1,4.28,3.22.51.51,0,0,0,.4.14c2.12-.55,2.75,1.11,3.61,2.43a.79.79,0,0,0,.33.27c1.66.67,3.33,1.3,5,2A15.54,15.54,0,0,1,22,197c1.21.8,2.35,1.71,3.53,2.57.37.27.77.52,1.15.78l-.16.51L23.25,200c.37.67.47,1.19.78,1.36,4,2.31,6.1,6.65,9.75,9.32,1.63,1.2,3.37,2.25,5,3.39.47.32.85.77,1.29,1.13,2.65,2.19,5.3,4.4,8,6.56q1.94,1.56,4,3a11.52,11.52,0,0,0,2.06.86c1.17,1.23,1.65,3.21,3.65,4.21a38.32,38.32,0,0,1,5.27,3.79c.74.54,1.41,1.17,2.19,1.63a2.45,2.45,0,0,0,1.74.16A28.55,28.55,0,0,1,63.51,232c-3.2-4.3-7.7-7.16-11.58-10.71-2.15-2-4.23-4-6.51-5.85-5-4-10.2-7.85-15.32-11.76a13,13,0,0,0-1.26-.74c-.95-.58-2.47-.8-1.44-2.62a19.89,19.89,0,0,0,2.14,1.43c1.92,1,3.91,1.81,5.83,2.76a14.37,14.37,0,0,1,3.1,1.85c1.3,1.13,3,.49,4.38,1.33a42.47,42.47,0,0,1,6.61,4.79c1.19,1.08,2,2.75,4,3,.74.08,1.48,1,2,1.72,1.43,1.69,3.52,2.33,5.23,3.55.64.45.68,1.74,1,2.74,2.35,0,3.9,1.47,5.27,3.36.48.67,1.43,1,2.07,1.57,2.28,2.08,4.54,4.19,6.78,6.3,2,1.84,3.91,3.65,5.79,5.56,3,3.07,6,6.2,8.91,9.33a10.27,10.27,0,0,1,1,1.54c-1.71,1.76-1.71,2.12,0,3.69.59.54,1.25,1,1.87,1.5l-.6.67c-.64-.52-1.25-1.09-1.93-1.56a8.42,8.42,0,0,0-2.06-1.16c-3.18-1-6.5-.61-9.75-.85-4.28-.32-8-1.6-10.78-5.4-1.47-2-3.73-3.52-5.7-5.19-2.26-1.92-4.6-3.74-6.87-5.65-1.47-1.24-2.82-2.64-4.36-3.79-.9-.67-2.13-.9-2.46-2.19,0-.07-.19-.17-.24-.15-1.82.8-2.32-1.24-3.56-1.71-.32-.12-.44-.76-.7-1.26-3.05.39-4.75-2-6.82-3.62-3.39-2.69-6.73-5.44-10.17-8.05a68.23,68.23,0,0,0-6.22-4.18,46.86,46.86,0,0,0-4.54-2.1c-.86-.39-1.7-.82-2.67-1.29a51,51,0,0,1,3.73,3.53,11.46,11.46,0,0,0,4.85,3.75c.2.07.47.29.49.46.14,1.6,1.43,2.94,1,4.7-.09.4.44,1,.69,1.42l.61-.24-.67-3.24.41-.13,2.26,2.39a6.74,6.74,0,0,0,.94.91c2,1.42,4.08,2.76,6,4.25a5.88,5.88,0,0,1,1.12,1.84L32,228V226a5.16,5.16,0,0,0-1.48,1.87c0,.07.17.29.29.42a5.44,5.44,0,0,0,.49.47c.27.24.5.58.81.67.65.18,1.35.18,2,.35,1.24.31,1.66,0,1.4-1.28,1.34.19,2.69.35,3.22,2.06l-1.62,1.71,1.14-.16.41,2.07-1.87-1.51c0,1.09,2.81,3.24,4.33,2.95l-1.36-.37.23-.36,1.42-.08.09-.47-1.83-.51s-.14-.3-.36-.77l1.43.2-1.59-1.76.28-.35c3.86,1.5,6,5.41,9.85,7.12l-.64.88c.09.12.15.26.19.25,1.24-.15,1.52,1,1.73,1.64.43,1.48,2.12,2.27,1.94,4.14,0,.49,1.42,1.12,1.8,1.79a20,20,0,0,0,1.17,3.48,72.26,72.26,0,0,1,5.38,10.87c.33,1,.6,2,2.25,2.07l-.9,2.28-.49.23,5.75,4.06-.14.25-8-4.13.11,1.74-1.92-1.09c-1.29-.72-2.62-1.37-3.82-2.2a4.17,4.17,0,0,1-1.31-1.74,6.58,6.58,0,0,0-4.86-3c0-.79.24-1.8-1.16-1-.16.09-.84-.43-.83-.45.46-.92-.36-1.17-.84-1.51-1.79-1.26-2.54-3.4-4.13-4.83a6.16,6.16,0,0,1-1.33-1.37c-.6-1-1.73-1.58-1.81-3.09,0-.88-1.22-1.79-2-2.53-1.82-1.63-2.77-3.73-3.79-5.89A31.53,31.53,0,0,0,28,233.62c-1.16-1.53-2.64-2.84-3.73-4.42-1.66-2.42-3.17-4.94-4.62-7.49s-2.83-5.36-4.27-8a10.67,10.67,0,0,0-1.13-1.4c-1.12,1.29-.67,2.47-.34,3.65s.67,2.49,1,3.74l-.74.28c-1.34-2.78-2.57-5.62-4-8.33C7.4,206.56,7.21,201,6.87,195.49a27.42,27.42,0,0,0-.94-4.44c-.07-.28-.36-.5-.76-.71.16,1.51-1.1,2.8-.29,4.41a7.51,7.51,0,0,1,.32,2.72c.18,2.13.17,4.3.56,6.39.44,2.32,1.24,4.58,1.9,6.85.25.86.53,1.72.85,2.55.16.4.37,1,.68,1.08,1.84.57,1.51,2.28,2,3.57.18.45.36.91.61,1.56v1.65l.42-.35a7.63,7.63,0,0,1,2.08,1.1A10,10,0,0,1,17,226.28c.85,3.23,2,6.37,3.12,9.52.3.87.87,1.64,1.2,2.5.16.41,0,.95.06,1.4.53,2.33,1.1,4.65,1.66,7a6.69,6.69,0,0,1,.41,1.76c-.05,1.31.68,1.53,1.48,1.52-.16-1.69-.29-3.34-.48-5a9.82,9.82,0,0,0-.48-2.48c-.56-1.45-1.09-2.83.4-4.59a25.2,25.2,0,0,1,1.5,3.91c.55,2.72,1,5.48,1.3,8.23.25,1.94.3,3.91.42,5.86s.23,4,.31,6a1.67,1.67,0,0,1-.51,1.13v-3.83c-.87.48-1.69-1-2.36.36-.07.15-.34.3-.32.4.37,1.74.27,3.63,1.76,5a2.61,2.61,0,0,1,.46,1.66c.07,1.27,0,2.54,0,3.81l-.52,0-.09-2.07-1.89,2.16,2.58.64v8.14c-1.13,1,.25,2.65-1,3.7-.12-.88-.25-1.62-.31-2.36a27.33,27.33,0,0,0-.17-2.88c-.46-2.34-1.1-4.64-1.53-7-.22-1.2-.09-2.41-1.06-3.43-.32-.34-.13-1.2-.09-1.82.14-2.06-1.61-3.34-2.11-5.14-.37-1.36-.85-2.69-1.29-4l-1.72-5.13c-.52-1.57-1-3.15-1.57-4.71a6.84,6.84,0,0,0-.59-1c.24-.83-.89-5.13-1.51-5.57a.89.89,0,0,0-.8-.08c-.24.18-.52.66-.43.83.43.81,1,1.56,1.52,2.39-.58.75-.64.95,0,2C14.52,245.37,15.17,245.34,15.59,245.44ZM62,240l.61-1.52,1.21.91,1.93,1.44a6.67,6.67,0,0,0-.51-1.87c-2.5-3.38-5.8-6-9-8.66-2.06-1.76-4.3-3.31-6.49-4.9-1.47-1.05-3-2-4.49-3-2-1.4-4-2.85-6-4.28-2.56-1.87-5.15-3.7-7.67-5.63-3.3-2.53-7.58-3.47-10.54-6.58-.4-.41-1.27-.37-1.91-.55l-.22.48c.58.4,1.16,1.15,1.72,1.13,1.51,0,1.59,1.17,2.16,2a8.88,8.88,0,0,1,4.27,2.63,3.59,3.59,0,0,0,.82.83c1.5,1.15,3,2.27,4.52,3.42l7,5.32c2.09,1.6,4.19,3.18,6.27,4.79,1.45,1.12,2.88,2.29,4.33,3.41.88.68,1.8,1.31,2.68,2,1.3,1,2.6,2,3.87,3,.12.09.06.43.1.81L54,233.22l-.37.57,3.49,2.53.86-1.28c.39,1.13.43,2.27,1,2.8,1.62,1.45,1.71,1.35,2.49.87a9.87,9.87,0,0,1-1-.63c-.31-.24-.59-.54-1-.9C61.13,236.77,61.13,236.77,62,240Zm-20,5.39.41-.46c-.63-.72-1.29-1.43-1.89-2.18-1.43-1.79-2.8-3.62-4.25-5.39-.89-1.09-1.88-2.1-2.81-3.15-1.36-1.55-2.66-3.17-4.09-4.65A21.77,21.77,0,0,0,26.21,227c-.19-.13-.76.25-1.15.39a17.21,17.21,0,0,0,1.19,2.53,16.21,16.21,0,0,0,1.67,1.64c.44.48.7,1.2,1.22,1.55,2,1.37,2.54,4.15,5.24,4.91.88.25,1.59,1.67,2.06,2.7C37.58,243.19,40.35,243.49,41.93,245.35Zm-15.78,9.84c-.43-.49-.84-.73-.88-1-.08-.61.18-1.28,0-1.86-.21-.91,0-2.31-1.69-2.11l-.19,3.31.44-.05.74,3.63ZM7.49,221.48c-.33,2.94,1.22,5.31,2.4,7.79C9.21,226.63,9.16,223.81,7.49,221.48Zm36.39,17.58v.46c.78.15,1.6,1.26,2.33,0,.38-.67,1.46-1.46.55-2.23s-1.8.07-2.7.73l1.75,1.06Zm10,14.73.16-.49-3.08-1c.19-.37.31-.44.36-.41.72.48.93-.13,1.08-.59,0-.13-.38-.6-.6-.6-.47,0-1.17-.15-.89.84a3.93,3.93,0,0,1-.22,1.54Z"/><path class="cls-6" d="M13.81,88.39a2.77,2.77,0,0,1,.57-3.49c1-1.14,2.11-2.15,3-3.31.38-.46.37-1.2.65-1.75.71-1.43,1.45-2.84,2.25-4.22A8.7,8.7,0,0,1,21.71,74c.73-.75,1.55-1.3,1.36-2.67-.07-.5,1.1-1.16,1.91-2-.52-1.38.92-2.46,1.78-3.65.63-.86.94-2,2.29-2.45.61-.19,1-1.53,1.21-2.41.65-2.85,3-4.58,4.41-6.89a8.6,8.6,0,0,0,.46-.91c.4-.84.54-1.9,1.85-1.91.25,0,.6-.38.74-.67.62-1.26,1.18-2.55,1.77-3.83a.39.39,0,0,1,.22-.18c1.88-.4,1.75-2.24,2.46-3.47a10.28,10.28,0,0,0,.52-1.42c-.44.25-.77.33-.92.53-2.7,3.55-5.45,7.06-8,10.69-2,2.8-3.69,5.76-5.58,8.62-.36.54-1.06.84-1.43,1.37A16.91,16.91,0,0,0,24.81,66c-1.14,2.73-3.15,4.76-5.1,6.85a4.38,4.38,0,0,0-.37.57l-.42-.68c-.59.64-1.31,1.45-1.82.08.66-.54,1.48-.91,1.79-1.54a2.76,2.76,0,0,0,0-2.11c-.51-1.19.28-2,.53-3a2.37,2.37,0,0,1,.69-1.21c.62-.52,1.44-.8,2-1.35a6.72,6.72,0,0,0,1.25-1.84c.33-.62.49-1.33.77-2,.39-.89.37-2,1.7-2.38.32-.09.33-1.32.52-2.19l2-.15c-.28-.81-.83-1.84.72-2.16.14,0,.26-.38.31-.6s-.11-.65,0-.71c1.56-.93,1.23-2.89,2.25-4.09,0,0,.12-.07.12-.08C31,45.2,33.44,45.2,34.09,44c.24-.44.24-1,.45-1.48s0-1.16.85-1.66c1.62-.93,2.87-2.47,4.43-3.53,2-1.32,2.74-3.71,4.72-5,.69-.45,1.38-.88,2.26-1.43.09,1.95,1.37,1.41,2.31,1.33,1.26-.12,1.52.42,1.43,1.55a14.58,14.58,0,0,0,.22,2.45c1-.13,1.94-.2,2.89-.4s1.1-.81,1.26-1.65c.31-1.71.89-3.26,2.76-4,.42-.17.56-1.06.78-1.51a7.43,7.43,0,0,0,2.06-.29c3.1-1.38,5.91-.14,5.81,3.54a19,19,0,0,1-3.58,11,39,39,0,0,1-3.81,4c-.85.87-1.81,1.65-2.57,2.58-1.47,1.79-3.47,2.78-5.31,4a15.14,15.14,0,0,1-3.35,2.11c-.55.19-1.09.41-1.62.61.56.94.39,1.3-.85,1.49-.31,0-.76.13-.86.34a5.1,5.1,0,0,1-2.53,2.68c-1.38.64-2.32,2.23-3.49,3.37A15,15,0,0,1,36.19,66c-.19.12-.71-.25-1.11-.4,0,0-.11.1-.09.13.95,1.49-.17,2-1,3.07-1,1.23-2.78,1.85-3.14,3.64,0,.24-.5.4-.77.59s-.66.28-.66.42c0,1.49-1.23,1.53-2.21,1.85l.34.27-2.1,2.62c-.07.09-.23.15-.24.24-.34,1.85-1.43,2.59-3.39,2.37l1.23.85c-1.19,1.55-2.35,3.19-3.65,4.72-.61.71-1.61,1.11-2.19,1.84-.77,1-3,1.13-2.05,3.2.06.13-.08.37-.16.54a29.43,29.43,0,0,1-1.78,3.81A13.05,13.05,0,0,1,11,98a9.3,9.3,0,0,1-.53,1.93c-.69,1.35-1.46,2.66-2.24,4-.57,1-1.23,1.7-2.5.91-.31-.2-.83-.07-1.25-.1l-.1.48,1.9.45a11.57,11.57,0,0,0-1.14,1.32,17.43,17.43,0,0,0-.84,1.8c-.27.57-.56,1.13-.85,1.7l-.49-.14c-.29-.8-.6-1.6-.87-2.41A3.6,3.6,0,0,1,2.59,105c.38-.79.89-1.51,1.34-2.27l-.38-.25-.82.56c-.36-.84-.76-1.64-1-2.48a4.16,4.16,0,0,1,1.49-4.09,2,2,0,0,0,.49-1.22c.11-.7.09-1.42.18-2.12a3.92,3.92,0,0,1,.35-.89l1.17.6.82-1.35c-1.82-.85-2-1.6-1.48-4.52l1.64,1.24,1.15-3.39.75.12L9,82.83l.94,1.39L10.83,82l-.75-.23,1.3-2.38.29.13-.29.77c1.61.1,2.38-.71,2-2.21s.36-2,2.39-1.33L14.92,78c1.6,1.44-.27,2.44-.82,3.48-.68,1.3-2,2.27-2.79,3.53S9.89,88,9.15,89.41c-.29.55-.73,1-1.06,1.56a18.52,18.52,0,0,1-1,1.72,2.46,2.46,0,0,1-.92.54l-1.69,7.92A27.26,27.26,0,0,0,7.73,97.6a24.8,24.8,0,0,0,1.73-4.21c.22-.55.54-1,.76-1.49.58,0,1.11,0,1.63,0a1.15,1.15,0,0,0,.07-.52c-.35-.14-.73-.23-1.19-.37.9-1,1.43-2.47,3.13-2.65L14,89.49a3.22,3.22,0,0,0,.76-.65,11.37,11.37,0,0,0,.71-1.51ZM50.23,47.61l.2.11c.2-.65.3-1.79.62-1.85,1.55-.3,2.05-1.72,3.05-2.58a10.35,10.35,0,0,0,1.47-2.06l.49.39A11.73,11.73,0,0,1,58,38.92a2.22,2.22,0,0,0,1.07-1.79,3,3,0,0,0-.16-.71c-.23.1-.53.13-.68.3-.82.93-1.55,2-2.41,2.85q-3.54,3.69-7.16,7.28c-2.51,2.51-5.15,4.9-7.59,7.48-1.67,1.76-3,3.8-4.64,5.63-1.27,1.45-2.87,2.63-4,4.16a20.43,20.43,0,0,1-6.17,5.8l.3,1.2-2.47,1.21.45.32-2.29,4.42c.47-.23.87-.31,1.07-.55a54.16,54.16,0,0,0,4.75-5.89,2.37,2.37,0,0,1,2.65-1.24,3.4,3.4,0,0,1,1.93-3c1-1.35,1.65-2.27,2.34-3.17,0-.07.25-.05.38,0a1.06,1.06,0,0,0,1.38-1.09,3.57,3.57,0,0,1,0-.48C38,61.43,38,60.36,38.49,59.5a15.56,15.56,0,0,1,2.64-2.93l2,1c-.08-.6-.11-.87-.14-1.15-.26-2.18,0-2.32,1.93-3.44a7,7,0,0,0,2.68-2.7c.32-.61.41-1.11,1.13-1.29.18,0,.32-.26.47-.41Z"/><path class="cls-6" d="M5.37,77c-1.56.23-1.5.11-1.15-1.43a48.77,48.77,0,0,0,.64-5.43c.31-2.69.65-5.37,1-8l.41,0L5.65,67.6c1.47-1.25,2.19-2.29,2.29-3.92.08-1.32.83-2.58,1.22-3.89.7-2.31,1.22-4.69,2.05-6.95a14.17,14.17,0,0,0,.92-6c-.08-1.51.78-3.06,1.19-4.59.17-.66.28-1.33.41-2,.18-.95-.27-2,1.09-2.67.45-.2.42-1.5.58-2.31.44-2.33.86-4.66,1.3-7,.26-1.38.55-2.76.83-4.14L17.16,24c-.1.1-.31.2-.3.28.32,3-2.22,5-2.6,7.81a67.57,67.57,0,0,1-2,7.94c-1,3.69-2,7.36-2.87,11.07A27.36,27.36,0,0,0,9,54.78,2.17,2.17,0,0,1,8.52,56l-.28-1.78-1.33,3a15,15,0,0,0,0-2c-.23-1.37-.62-2.72-.77-4.09a4.08,4.08,0,0,1,.27-2.53c1.16-1.63,1.28-3.49,1.44-5.31.3-3.41.37-6.85.56-10.27,0-.69.26-1.37.24-2,0-.37-.34-.73-.69-1.41.2-1.09.46-2.62.76-4.15s.62-3.06,1-4.58c.05-.19.29-.47.45-.48,1.21-.1,1.48-1.12,2-1.93.3-.48.33-1.51,1.39-.78a3.34,3.34,0,0,0,1-1.05C15.31,15,17,14.83,18.33,14c2-1.27,4.21-2.27,6.32-3.4a1.1,1.1,0,0,0,.51-.46c.65-1.73,1-2,2.72-1.6a1.56,1.56,0,0,0,.57,0c.08,0,.14-.13.31-.28l-.67-.56c.11-.1.2-.22.25-.21,2.3.64,3.95-.12,5.42-2.21C34.94,3.6,36.32,2.07,37.64.5A2.9,2.9,0,0,1,38.5,0l.36.27c-1,1.61-1.94,3.26-3,4.84-2.52,3.85-4.16,7.72-2.26,12.5,1.39,3.52,1.12,7.42.67,11.1-.29,2.46-1.66,4.77-2.45,7.18A27.83,27.83,0,0,1,27,44.71c-1.42,1.79-2.21,4.09-3.33,6.12-1.22,2.2-2.6,4.31-3.74,6.54-2.25,4.4-4.33,8.9-6.59,13.29-.64,1.25-1.8,2.23-2.5,3.47A24.52,24.52,0,0,0,8.3,79.6a5.64,5.64,0,0,1-2.53,3.18,13.57,13.57,0,0,0-1.07.94c-.63-.67-.52-.63.41-3.16A13.2,13.2,0,0,0,5.37,77ZM23.54,30.54c-.46.3-1.16.5-1.36.93a42.53,42.53,0,0,0-2,5c-1.24,3.9-2.35,7.84-3.57,11.75-.5,1.58-1.15,3.11-1.74,4.66-.67,1.78-1.33,3.56-2,5.32q-2,5.06-4,10.08c-.56,1.39-1.09,2.79-1.74,4.13-.18.38-.73.58-1.12.86l.21.1-.59,1,.56,2.92A2.09,2.09,0,0,0,7.4,74.92a3.37,3.37,0,0,1,.37-2c1.31-2.66,2.72-5.28,4.08-7.93.85-1.65,1.79-3.27,2.5-5,.64-1.51.92-3.18,1.54-4.7,1.15-2.87,2.52-5.64,3.59-8.53.36-1-.14-2.24.19-3.23.77-2.3,1.95-4.46,2.69-6.76.46-1.44,1.44-2.93.64-4.36.39-.41.84-.68,1-1.06a43.5,43.5,0,0,0,2.45-10.61c0-.37-.3-.78-.46-1.16l-.49.14a10.38,10.38,0,0,1,0,2.16c-.39,1.81-.24,3.82-2.09,5.09C22.32,27.76,22.51,29.78,23.54,30.54Z"/><path class="cls-6" d="M4.31,129.65c2.61,0,5.12.1,7.58-.81a7.3,7.3,0,0,1,2.61.1c-1.87,3.68-8.42,5.45-13.34,3.8v-10C4,122.15,6,120,8.1,117.67A31.86,31.86,0,0,1,12.78,114l.17.62c.94,0,2.2.41,2.78,0,1.71-1.35,3.78-1.22,5.63-1.9,2.08-.76,4.08-1.72,6.14-2.51s4.11-1.47,6.2-2.12a51.81,51.81,0,0,0,6-1.8c1.47-.67,2.59-2.06,4-3a53.27,53.27,0,0,1,7.55-4.52C53,98,54.92,97.54,56.34,96c.52-.58,1.7-.51,2.4-1a12.52,12.52,0,0,0,1.89-2.16,5.81,5.81,0,0,0-1.31.29c-5.36,2.75-10.73,5.5-16.06,8.32-2.6,1.37-5,3.14-7.71,4.28C32.37,107.05,29,108,25.67,109c-1.86.58-3.76,1.06-6.06,1.7a6.27,6.27,0,0,1,.67-2.25,8.14,8.14,0,0,1,2.2-1.52c.63-.36,1.48-.45,2-.92,1.91-1.89,3.71-3.87,5.55-5.83a3.84,3.84,0,0,0,.36-.64c-1.63-.26-2.66.56-2.52,1.81L10.76,113.44l-.29-.36c.94-2.54,3.07-4.13,4.93-5.93,1.63-1.57,3.28-3.14,5-4.57a18.63,18.63,0,0,1,3-1.57c2-1.08,4-2.29,6-3.28,3.53-1.7,6.81-3.92,11-4.22,2.05-.14,4-1.44,6-2.2.36-.14.75-.19,1.12-.3,1-.32,2.06-.64,3.08-1,.66-.22,1.42-.84,1.94-.68,1.43.44,1.81-1.08,2.86-1.25.87-.14,1.64-1.27,2.63-.21.07.09.45.05.54,0,1.78-2.18,4.61-1.92,6.87-3,1.39-.66,2.86-1.17,4.3-1.71a11.36,11.36,0,0,1,1.36-.33A5.44,5.44,0,0,1,76.8,80a8.78,8.78,0,0,0,2.41-.42l-1.23,1c1.21.41,1.21.41,2.82-1.4l-.79,0-.2-.29c1.24-.75,2.44-1.58,3.74-2.22.81-.4,1.87-.34,2.62-.8.5-.32.69-1.18,1-1.81s.45-1.08.67-1.63l.45.12a17.54,17.54,0,0,1,.61,2.82c0,.49-.4,1-.66,1.52a5.68,5.68,0,0,0-.71,1.26,13.13,13.13,0,0,1-3.87,6.61c-1.8,1.89-3.19,4.22-5.17,5.87C75.55,93,72.28,95,69.14,97.11a33.88,33.88,0,0,1-4.48,2.81c-2.55,1.23-5.21,2.21-7.81,3.31a9.36,9.36,0,0,1-1.67.79c-1.35.26-2.75.27-4.1.55A21.2,21.2,0,0,0,44,107.44a28,28,0,0,1-10,4.22c-3.08.56-5.93,2.45-8.87,3.79-2.11,1-4.25,1.91-6.28,3S15,121.07,13,122.26c-2.59,1.56-5.19,3.15-7.91,4.47C3.56,127.48,3.73,128.34,4.31,129.65ZM64,90.73a22.19,22.19,0,0,0,2.86,0c.59-.08,1.49-.35,1.63-.74.39-1.15,1.42-1,2.17-1.36s1.47-.49,2.12-.87c1.27-.73,2.41-1.72,3.73-2.31,2.86-1.3,4.73-3.83,7.2-5.6.14-.09.18-.32.26-.49L83.74,79C82,80,80.3,81.09,78.6,82.19c-.56.37-1,.91-1.59,1.23C72.74,85.85,68.44,88.24,64,90.73ZM41.28,96.92l-.11-.45-2.73-.39v1.2ZM84.84,77.47l-.32-.75L81.69,78l.21.48Z"/><path class="cls-6" d="M45.76,70.09l.92-2.25c1.94.08,2.42-2,3.85-2.87s3.09-1.66,4.65-2.47c.74-.39,1.46-.84,2.23-1.16,1.19-.5,2.55-1.46,3.61-1.22,1.53.34,1.31-.33,1.62-1.24a2.78,2.78,0,0,1,1.64-1.49c2.28-.68,4-2.24,6-3.4a4.34,4.34,0,0,0,1.92-2.81c.21-.67.55-1.3,1-2.22l.47,1.12,1.22-2.38a28.55,28.55,0,0,0,4.64-.07c.88-.15,1.61-1,2.45-1.49a5.49,5.49,0,0,1,1.33-.35,28.26,28.26,0,0,1,2.58,2.29,2.45,2.45,0,0,1,.63,1.67,13.61,13.61,0,0,1-.79,3.12c-1.7,4.89-3.42,9.77-5.2,14.63a10.28,10.28,0,0,1-1.39,2.07c-.87,1.24-1.65,2.55-2.62,3.7a4.36,4.36,0,0,1-2.08,1.4c-4,1-8.06,1.72-12,2.75-3.4.87-6.73,2-10.1,3a7.15,7.15,0,0,1-1.24.11c-.29,0-.58.11-1.11.21l-.63-1-1.41,2.33c-.85-.1-2.2,1.12-3.53-.41l.14,1c-.86-.14-1.62-.27-1.36,1,0,.22-.44.63-.76.81-.8.42-1.64.78-2.48,1.12a37.19,37.19,0,0,1-3.68,1.41,8.64,8.64,0,0,1-2.17,0,2.21,2.21,0,0,1,.07.42L33,87.27l.1,1.23-.88-1-.31,1.23-.38.07c-.37,0-1.06,0-1.08.14-.23,1.38-1.54,1.77-2.37,2.55a28.25,28.25,0,0,1-3.3,2.42l-.48-.54c1.26-1.39,2.53-2.76,3.77-4.18.56-.65,1-1.43,1.59-2a2.39,2.39,0,0,1,1.69-.55L32.15,85l-1.44.51c1.22-2.15,1.68-2.32,4.12-2.21A1.92,1.92,0,0,0,36.89,82c.34-.84,1.46-1.39,2.31-2,.19-.12.7.26,1.06.41l-1.21,1.26,2.41-.26c-.69-2.86,1.85-1.51,2.81-2.73l-3.49.32,1.72-1.68,1.17.94c.15-.08.31-.13.31-.18.05-1.44.77-1.7,2.18-2,1.63-.34,3-1.73,4.57-2.57a17.28,17.28,0,0,1,2.11-.65c1.54-.6,3.1-1.19,4.59-1.9,1.14-.55,2.2-1.26,3.29-1.92a6.78,6.78,0,0,0,.81-.6l4.87-4-.4-.66c-3.32,2-6.44,4-9.65,5.89-1.93,1.12-4,2-6,3s-4,1.62-5.88,2.63c-2.8,1.5-5.5,3.18-8.25,4.77a2.13,2.13,0,0,1-.65.11c-.43-1.64.8-2.58,1.58-3.53A64.42,64.42,0,0,1,41.8,71.8a12.67,12.67,0,0,1,2.26-1.89C44.41,69.7,45.07,70,45.76,70.09ZM72.57,60a8.33,8.33,0,0,0,4.23-3.75A6.79,6.79,0,0,0,72.57,60Zm-8.3,12.61c-1.87-1.3-2.22-1.26-2.55,0Z"/><path class="cls-6" d="M42,69.39c-.08,1.22-9.51,11.33-11.36,11.71l1.16.79-4.05,2.57.56.68-.72-.49a1.49,1.49,0,0,1-.13.39c-.41.65,0,1.87-1.27,2-.13,0-.37.31-.35.42.46,1.72-1.22,2.57-1.63,4a1.25,1.25,0,0,1-1.84.87c-.21-.1-.6.16-1.31.38l1.64.71c-1.69,2.13-3.38,4.19-5,6.31a10.33,10.33,0,0,0-1.18,2.29c-1.53,3.69-4.57,6.18-7.18,9A51.64,51.64,0,0,1,4.68,115c-.82.69-1.58,1.33-1.18,2.58,0,.16-.27.45-.51.82-.7-1.14-2.62-1.49-1.81-3.15a9.65,9.65,0,0,1,2.58-2.88,5.71,5.71,0,0,1,.55-1.78c1.41-1.82,3-3.53,4.38-5.32,1.76-2.2,3.53-4.4,5.15-6.7,1.25-1.8,2.27-3.78,3.42-5.65a6.06,6.06,0,0,1,.89-.94c1.18-1.29,2.32-2.62,3.57-3.84s2.09-2.88,4-3.28a1.13,1.13,0,0,0,.71-.62A7.27,7.27,0,0,1,30,80a9.28,9.28,0,0,0,1.91-2c.65-.72,1.29-1.45,1.91-2.19,1.47-1.72,2.88-3.5,4.41-5.16,1.15-1.24,2.51-2.27,3.69-3.48s2.31-2.69,3.54-4a12.73,12.73,0,0,1,2-1.49,29.21,29.21,0,0,0,3.42-2.36c.68-.62,1.11-1.32,2-.43.28-.7.38-1.41.78-1.72.24-.18,1,.29,1.15.36a74.29,74.29,0,0,1,6.41-4.39A35.1,35.1,0,0,1,67,50.93c1-.32,1-1,1.11-1.6l-.37-.24,2.42-1.52c-.3.89-1.89.85-1.23,2.42l3.32-1.41c-.22.41-.26.61-.38.69-4.07,2.64-8.16,5.25-12.22,7.9A12.2,12.2,0,0,0,57.4,58.9c-1.41,1.48-3.14,1.69-5.09,1.46l.5,1.42c-1.58,1-3.24,2-4.73,3.15s-3,2.78-4.57,4.1C43.18,69.32,42.57,69.27,42,69.39Z"/><path class="cls-6" d="M63.5,81.05l-2,.67,1.25,1.39c-2.59.78-4.92,1.45-7.24,2.17-3.77,1.17-7.51,2.46-11.32,3.49a16.09,16.09,0,0,1-4.05,0L40,88.17c2.27-.86,4.57-1.65,6.8-2.61A8.57,8.57,0,0,1,51,84.83a2.86,2.86,0,0,0,2.35-1,7,7,0,0,1,2.91-1.27c1.82-.58,3.66-1.1,5.5-1.6a10.44,10.44,0,0,1,1.68-.22Z"/><path class="cls-6" d="M51.19,117.94c-2.56-.52-4.61.75-6.6,2a17.19,17.19,0,0,1-7.43,2.66,15.06,15.06,0,0,0-2.91,1c1.46-1.13,2.43-2.86,4.39-3.42a18.65,18.65,0,0,0,3.84-1.37,4.09,4.09,0,0,0,1.39-1.94c.41-.88.61-1.74,1.71-2.21.67-.29,1.06-1.25,1.67-2l4.25,5Z"/><path class="cls-6" d="M15.59,245.44c-.42-.1-1.07-.07-1.24-.34-.68-1.09-.62-1.29,0-2-.54-.83-1.09-1.58-1.52-2.39-.09-.17.19-.65.43-.83a.89.89,0,0,1,.8.08c.62.44,1.75,4.74,1.51,5.57Z"/><path class="cls-6" d="M86.59,109.28c-6.92,5.89-15.34,9.36-23.14,13.8A107.08,107.08,0,0,1,38.73,133.4a17.87,17.87,0,0,1,1.8-1.34c2-1.15,4.1-2.26,6.18-3.36q4.47-2.35,9-4.67c2.51-1.3,5-2.61,7.55-3.9,5.8-2.95,11.61-5.91,17.43-8.83,1.84-.93,3.74-1.75,5.61-2.62Z"/><path class="cls-6" d="M4.91,154.83c.26-.13.52-.28.78-.39A2,2,0,0,0,7,151.64c-.17-.59.38-1.4.63-2.11a25.71,25.71,0,0,1,1.09-3c.33-.68.81-1.67,1.36-1.77a3.2,3.2,0,0,1,2.64.62,3.47,3.47,0,0,1,.61,3c-.86,1.67-1.68,3.21-1.47,5.18.07.71-.44,1.12-1.33,1.4a10.12,10.12,0,0,1-5.31.28Z"/><path class="cls-6" d="M5.55,167.21c.54-1.56,1.1-3.17,1.65-4.78.12-.36.38-.74.34-1.09a1.33,1.33,0,0,1,1.33-1.7,4.57,4.57,0,0,1,2.5.52,2.14,2.14,0,0,1,.68,2.33c-.48,3-2.62,4.86-4.22,7.06-1,1.44-1.42,1.23-1.91-.57C5.76,168.42,5.68,167.85,5.55,167.21Z"/><path class="cls-6" d="M19.1,143.24a4.71,4.71,0,0,0,3.69-1.08,1.47,1.47,0,0,1,.48-.25c3-1,6-2,9-3.08,5.72-2.17,11.41-4.45,17.11-6.68.07,0,.18,0,.62.09-.91.46-1.57.77-2.21,1.12C44.83,134.93,42,136.65,39,138a75.49,75.49,0,0,1-8.64,3.26c-2,.63-4.1.83-6.14,1.33-1.32.32-2.58.88-3.9,1.23a3.23,3.23,0,0,1-1.3-.2Z"/><path class="cls-6" d="M44.87,137.37c8.71-3.83,16.21-9.91,25.35-13.53-.23.44-.27.63-.38.69a20.92,20.92,0,0,0-3.7,2.83c-1.12,1.07-2.51,1.13-3.68,1.88-2.53,1.63-5.17,3.09-7.81,4.52a30.2,30.2,0,0,1-3,1.05c-1.91.8-3.77,1.68-5.67,2.49A3.74,3.74,0,0,1,44.87,137.37Z"/><path class="cls-6" d="M12.44,171.41a9.59,9.59,0,0,1,1.57.83c.18.14.23.86.1.94a30.67,30.67,0,0,1-3.77,2.17c-.62.28-1.29-.7-.95-1.32a6.09,6.09,0,0,1,2.48-2.5A2.42,2.42,0,0,1,12.44,171.41Z"/><path class="cls-6" d="M80.46,145a20.79,20.79,0,0,0-7.06.34L71,144.4l.06-.43,9.26.51Z"/><path class="cls-6" d="M12.86,136.25l2.05-.42-.52-.87.24-.34,1.19.8.54-.72c.88,1.86-1.65,1.55-1.83,2.74l-1.82-.61Z"/><path class="cls-6" d="M2.77,175.14c0-1.29.63-1.4,1.44-.63a15,15,0,0,1,2.36,2.92l-3.83-2.34Z"/><path class="cls-6" d="M85,180.26l-1.07,1.09-2.3-1.6.18-.36Z"/><path class="cls-6" d="M88.83,183.25c0,1.28-.75,1.56-2.71.71Z"/><path class="cls-6" d="M62,240c-.84-3.19-.84-3.19-2.53-2.78.39.36.67.66,1,.9a9.87,9.87,0,0,0,1,.63c-.78.48-.87.58-2.49-.87-.59-.53-.63-1.67-1-2.8l-.86,1.28-3.49-2.53.37-.57,2.73,1.85c0-.38,0-.72-.1-.81-1.27-1-2.57-2-3.87-3-.88-.67-1.8-1.3-2.68-2-1.45-1.12-2.88-2.29-4.33-3.41-2.08-1.61-4.18-3.19-6.27-4.79l-7-5.32c-1.5-1.15-3-2.27-4.52-3.42a3.59,3.59,0,0,1-.82-.83,8.88,8.88,0,0,0-4.27-2.63c-.57-.81-.65-2-2.16-2-.56,0-1.14-.73-1.72-1.13l.22-.48c.64.18,1.51.14,1.91.55,3,3.11,7.24,4,10.54,6.58,2.52,1.93,5.11,3.76,7.67,5.63,2,1.43,4,2.88,6,4.28,1.47,1,3,2,4.49,3,2.19,1.59,4.43,3.14,6.49,4.9,3.16,2.7,6.46,5.28,9,8.66a6.67,6.67,0,0,1,.51,1.87l-1.93-1.44-1.21-.91Z"/><path class="cls-6" d="M41.93,245.35c-1.58-1.86-4.35-2.16-5.49-4.67-.47-1-1.18-2.45-2.06-2.7-2.7-.76-3.26-3.54-5.24-4.91-.52-.35-.78-1.07-1.22-1.55a16.21,16.21,0,0,1-1.67-1.64,17.21,17.21,0,0,1-1.19-2.53c.39-.14,1-.52,1.15-.39a21.77,21.77,0,0,1,3.09,2.56c1.43,1.48,2.73,3.1,4.09,4.65.93,1.05,1.92,2.06,2.81,3.15,1.45,1.77,2.82,3.6,4.25,5.39.6.75,1.26,1.46,1.89,2.18Z"/><path class="cls-6" d="M26.15,255.19l-1.54,1.89-.74-3.63-.44.05.19-3.31c1.73-.2,1.48,1.2,1.69,2.11.14.58-.12,1.25,0,1.86C25.31,254.46,25.72,254.7,26.15,255.19Z"/><path class="cls-6" d="M35.56,228.45c.26,1.23-.16,1.59-1.4,1.28-.66-.17-1.36-.17-2-.35-.31-.09-.54-.43-.81-.67a5.44,5.44,0,0,1-.49-.47c-.12-.13-.33-.35-.29-.42A5.16,5.16,0,0,1,32,226V228l3.56.48Z"/><path class="cls-6" d="M7.49,221.48c1.67,2.33,1.72,5.15,2.4,7.79C8.71,226.79,7.16,224.42,7.49,221.48Z"/><path class="cls-6" d="M43.88,239.06h1.94L44.07,238c.9-.66,1.74-1.56,2.7-.73s-.17,1.56-.55,2.23c-.73,1.28-1.55.17-2.33,0Z"/><path class="cls-6" d="M53.9,253.79l-3.19-.7a3.93,3.93,0,0,0,.22-1.54c-.28-1,.42-.86.89-.84.22,0,.64.47.6.6-.15.46-.36,1.07-1.08.59-.05,0-.17,0-.36.41l3.08,1Z"/><path class="cls-6" d="M50.23,47.61l-1,1c-.15.15-.29.37-.47.41-.72.18-.81.68-1.13,1.29A7,7,0,0,1,44.94,53c-2,1.12-2.19,1.26-1.93,3.44,0,.28.06.55.14,1.15l-2-1a15.56,15.56,0,0,0-2.64,2.93c-.47.86-.46,1.93-1.74,2.07a3.57,3.57,0,0,0,0,.48,1.06,1.06,0,0,1-1.38,1.09c-.13,0-.33,0-.38,0-.69.9-1.35,1.82-2.34,3.17a3.4,3.4,0,0,0-1.93,3,2.37,2.37,0,0,0-2.65,1.24,54.16,54.16,0,0,1-4.75,5.89c-.2.24-.6.32-1.07.55l2.29-4.42-.45-.32,2.47-1.21-.3-1.2a20.43,20.43,0,0,0,6.17-5.8c1.14-1.53,2.74-2.71,4-4.16,1.61-1.83,3-3.87,4.64-5.63,2.44-2.58,5.08-5,7.59-7.48s4.8-4.82,7.16-7.28c.86-.89,1.59-1.92,2.41-2.85.15-.17.45-.2.68-.3a3,3,0,0,1,.16.71A2.22,2.22,0,0,1,58,38.92a11.73,11.73,0,0,0-1.95,2.7l-.49-.39a10.35,10.35,0,0,1-1.47,2.06c-1,.86-1.5,2.28-3.05,2.58-.32.06-.42,1.2-.62,1.85Z"/><path class="cls-6" d="M13.81,88.39l1.67-1.06a11.37,11.37,0,0,1-.71,1.51,3.22,3.22,0,0,1-.76.65l-.15-1.15Z"/><path class="cls-6" d="M23.54,30.54c-1-.76-1.22-2.78-.17-3.5,1.85-1.27,1.7-3.28,2.09-5.09a10.38,10.38,0,0,0,0-2.16l.49-.14c.16.38.49.79.46,1.16A43.5,43.5,0,0,1,24,31.42c-.14.38-.59.65-1,1.06.8,1.43-.18,2.92-.64,4.36-.74,2.3-1.92,4.46-2.69,6.76-.33,1,.17,2.26-.19,3.23-1.07,2.89-2.44,5.66-3.59,8.53-.62,1.52-.9,3.19-1.54,4.7-.71,1.71-1.65,3.33-2.5,5C10.49,67.69,9.08,70.31,7.77,73a3.37,3.37,0,0,0-.37,2,2.09,2.09,0,0,1-1.24,2.36L5.6,74.36l.59-1L6,73.25c.39-.28.94-.48,1.12-.86.65-1.34,1.18-2.74,1.74-4.13q2-5,4-10.08c.7-1.76,1.36-3.54,2-5.32.59-1.55,1.24-3.08,1.74-4.66,1.22-3.91,2.33-7.85,3.57-11.75a42.53,42.53,0,0,1,2-5C22.38,31,23.08,30.84,23.54,30.54Z"/><path class="cls-6" d="M64,90.73c4.44-2.49,8.74-4.88,13-7.31.58-.32,1-.86,1.59-1.23C80.3,81.09,82,80,83.74,79l.23.38c-.08.17-.12.4-.26.49-2.47,1.77-4.34,4.3-7.2,5.6-1.32.59-2.46,1.58-3.73,2.31-.65.38-1.43.53-2.12.87s-1.78.21-2.17,1.36c-.14.39-1,.66-1.63.74A22.19,22.19,0,0,1,64,90.73Z"/><path class="cls-6" d="M41.28,96.92l-2.84.36v-1.2l2.73.39Z"/><path class="cls-6" d="M84.84,77.47l-2.94,1L81.69,78l2.83-1.29Z"/><path class="cls-6" d="M72.57,60a6.79,6.79,0,0,1,4.23-3.75A8.33,8.33,0,0,1,72.57,60Z"/><path class="cls-6" d="M64.27,72.65H61.72C62.05,71.39,62.4,71.35,64.27,72.65Z"/><text class="cls-7" transform="translate(126.14 260.24)">Fleu<tspan class="cls-8" x="22.03" y="0">r</tspan><tspan x="26.17" y="0">s</tspan></text><text class="cls-9" transform="translate(122.88 268.25)">Centau<tspan class="cls-10" x="25" y="0">r</tspan><tspan class="cls-11" x="28.14" y="0">ea cyanus</tspan></text><path d="M54.22,16.81c0,.06,0,.13-.07.2s0,.11,0,.16-.11.08-.14,0-.23-.36-.19-.6,0-.2.2-.21a5.15,5.15,0,0,1,.55,0l.3,0,1.36-.05,1.29-.05.79,0a1.19,1.19,0,0,0,.33,0,1.06,1.06,0,0,1,.85.14l1,.49a.65.65,0,0,1,.47.55,2.76,2.76,0,0,0,.08.27,1.06,1.06,0,0,1,0,.25c0,.14,0,.25.15.29s.15.14.13.26a1.89,1.89,0,0,0,.09.94.22.22,0,0,1,0,.16,2,2,0,0,1-.48.7s0,0-.05.05a3.19,3.19,0,0,1-1.2.46c-.24,0-.48.06-.71.07s-.63,0-.94,0l-1.1,0a.69.69,0,0,0-.28.05,2.31,2.31,0,0,1-1,.12c-.26,0-.52,0-.79,0l-.23,0a.22.22,0,0,1-.19-.22c0-.67-.08-1.33-.1-2a2.77,2.77,0,0,0-.08-.76,2.05,2.05,0,0,1,0-.78.81.81,0,0,0,0-.41Zm.89,1.32h0c.06-.1,0-.16-.06-.24s-.17-.28-.07-.45,0-.08,0-.11c-.12.14-.24.27-.21.46s0,.35.07.53l.28.06Zm1.73-.53c-.37,0-.54.13-.55.41a2.12,2.12,0,0,0,.17,1,.32.32,0,0,0,.46.22,3.18,3.18,0,0,1,.92-.11,1.86,1.86,0,0,0,.65-.15.4.4,0,0,0,.17-.64,1.1,1.1,0,0,1-.09-.14.63.63,0,0,0-.55-.43l-1-.09Zm-2,1.47c0,.07-.07.14-.05.18s.1,0,.16,0a1.33,1.33,0,0,1,.21-.09l0-.11.27,0a.61.61,0,0,1-.18-.07.37.37,0,0,1-.13-.07,1,1,0,0,0-.08-.26c0-.05-.11-.07-.17-.1s-.22,0-.21.12S54.63,19,54.85,19.07Zm3-2.26a.39.39,0,0,0-.31-.34C57.49,16.75,57.79,16.68,57.86,16.81Zm.45-.17c-.2-.05-.2-.05-.35,0,.06,0,.12.14.14.13A.9.9,0,0,0,58.31,16.64Zm-1.07.1c0-.18,0-.23-.21-.23Zm-2,2.7c-.14-.12-.14-.12-.23-.09C55,19.42,55.09,19.52,55.21,19.44Zm0-.87.07,0a.1.1,0,0,0,0,0l0-.06Z"/><path d="M51.61,17.67a10.58,10.58,0,0,0-3.56-.18.79.79,0,0,0,.46.33,4,4,0,0,0,1,0,7.34,7.34,0,0,1,1.69-.06c.25,0,.35.15.28.38a2.28,2.28,0,0,1-.34.86.53.53,0,0,1-.42.23,2.16,2.16,0,0,1-.8-.08,1.5,1.5,0,0,0-.73-.05l-.69,0-.19,0s0,.07,0,.09c.06.27.1.29.38.21a1.19,1.19,0,0,1,.65-.06,5.08,5.08,0,0,0,1.17,0h.69a1.55,1.55,0,0,1,.21,0,2.23,2.23,0,0,0,.23,0c.28,0,.35-.09.33-.37s0-.18.13-.35c.14.09.12.24.11.36a1.86,1.86,0,0,0,.09.62,2.16,2.16,0,0,1,.1.95.46.46,0,0,0,.1.4.47.47,0,0,1,.07.12c.07.25,0,.35-.25.36a.61.61,0,0,1-.19,0,1.38,1.38,0,0,0-.64,0,.68.68,0,0,1-.27-.05l-.42-.08.95-.15c0-.21,0-.23-.2-.25a19.87,19.87,0,0,0-2.44,0c-.2,0-.42.05-.6-.1,0,0-.07,0-.11,0l-1.32,0c-.06,0-.15,0-.18,0a.17.17,0,0,1-.25.06.31.31,0,0,1-.2-.27c0-.13,0-.26,0-.38s0-.25-.05-.38a3.82,3.82,0,0,1-.1-.9,1.29,1.29,0,0,0-.12-.6,2.13,2.13,0,0,1-.1-1c0-.21,0-.42,0-.62s0-.4,0-.6.16-.31.34-.22A.78.78,0,0,0,47,16a1.31,1.31,0,0,1,.52,0,3.7,3.7,0,0,0,.58.1L50,16.3c.33,0,.67,0,1,0l.6,0a.21.21,0,0,1,.22.2A1.8,1.8,0,0,1,51.61,17.67Zm-4.56,2.07,0,0s-.13,0-.16-.07,0-.11,0-.19-.11,0-.12,0a.71.71,0,0,0,0,.21Zm-.12.92c.16-.12,0-.29.1-.38A.27.27,0,0,0,46.93,20.66Zm.26-.65v0A.81.81,0,0,0,47,20a.17.17,0,0,0-.09.11s.06.06.12.11v-.15Zm-.11-.83-.22-.11C46.92,19.26,46.92,19.26,47.08,19.18Z"/><path d="M24.85,20.79c0-.1,0-.22,0-.33a9.8,9.8,0,0,0,0-1.33.6.6,0,0,0-.06-.22c-.09-.2-.2-.22-.38-.09s-.2.18-.31.26c-.29.22-.57.46-.88.66a2.41,2.41,0,0,1-.6.23.28.28,0,0,1-.19-.1,2.82,2.82,0,0,1-.18-.29c-.1-.16-.2-.32-.29-.48a.54.54,0,0,1-.1-.22c0-.29-.25-.37-.33-.59l0,0a.28.28,0,0,0,0,.12.79.79,0,0,1-.09.5.76.76,0,0,0,0,.59,2.9,2.9,0,0,1,0,.83.76.76,0,0,0,0,.26.18.18,0,0,1-.15.23,3.09,3.09,0,0,1-1.05.07c-.17,0-.22-.08-.21-.25s0-.51.05-.77a3.23,3.23,0,0,0-.05-.82,5.16,5.16,0,0,1-.08-.79c0-.54,0-1.09-.06-1.64v-.25h.18l1.27-.05a.36.36,0,0,1,.37.2c.1.19.28.33.33.55,0,0,.08.06.13.09s.11,0,.13.09a4.51,4.51,0,0,0,.39.55.54.54,0,0,0,.14.16c.08.05.13,0,.16-.1a1,1,0,0,1-.18-.1,1.12,1.12,0,0,1-.19-.24.15.15,0,0,1,.07-.22.16.16,0,0,1,.23.06.59.59,0,0,1,.07.2c0,.06,0,.13.07.25a1.32,1.32,0,0,0,.17-.17.85.85,0,0,1,.25-.21,2.75,2.75,0,0,0,.79-.65c.14-.17.27-.35.42-.55l2-.07c0,.19,0,.34,0,.5l-.12.87a1.59,1.59,0,0,1-.06.3A5.28,5.28,0,0,0,26.42,19c-.06.49-.08,1-.12,1.48l0,.24c0,.19-.09.25-.29.24l-1.07-.09Zm-4.37-2.4c-.06.09-.2.08-.17.23h.27Zm-.06.72c.06-.11.11-.17,0-.27C20.35,18.91,20.37,19,20.42,19.11Zm.32.07,0-.06-.22.11C20.61,19.3,20.66,19.21,20.74,19.18Zm4.57-1.72,0,0a0,0,0,0,0,0,0h-.18v.06Zm.14-.47v-.06c-.06,0-.12-.07-.21,0Zm-5,1.31,0,0,.08-.11,0,0Zm1.36-.49.1.08.06-.05s0-.05-.06-.06Z"/><path d="M42.34,17.54c-.07.07-.14.16-.27.1s-.07,0-.11,0l-.31.18a.27.27,0,0,0-.15.25c0,.25,0,.5,0,.74a.82.82,0,0,0,.29.51,1,1,0,0,0,1.07.28,1.86,1.86,0,0,0,.7-.39.48.48,0,0,1,.63-.12.92.92,0,0,0,.63.1.34.34,0,0,1,.2,0l.63.4a.15.15,0,0,1,.06.22c-.06.16-.1.34-.29.42s-.09.12-.13.19c-.14.28-.22.33-.54.3l-.14,0-.5.16a.31.31,0,0,0-.17.15c-.08.17-.11.18-.25,0l0,0c-.14,0-.25.09-.25.26l-.13,0a10,10,0,0,1-1.73-.13.61.61,0,0,1-.28-.16,4.09,4.09,0,0,0-.53-.4A1.87,1.87,0,0,1,40,20a.52.52,0,0,1-.06-.13c-.11-.27-.21-.55-.31-.82l0-.07a1.43,1.43,0,0,1-.14-1.36c.06-.2.12-.41.2-.61s.3-.44.59-.42a1.53,1.53,0,0,0,.47-.07c.56-.15,1.12-.32,1.68-.46a4.12,4.12,0,0,1,.86-.1,2.51,2.51,0,0,1,.6.1l1.11.31a1.19,1.19,0,0,1,.54.34.66.66,0,0,1,.11.55.2.2,0,0,1-.07.09,1,1,0,0,1-.57.27.27.27,0,0,0-.26.19c-.08.23-.31.31-.47.45a.2.2,0,0,1-.25,0,4.23,4.23,0,0,0-.41-.33,1,1,0,0,0-.23-.12l-.78-.21Zm-1.4,2.91-.19-.23c-.06-.08-.13-.06-.23,0l.32.32Zm-1-2.31a.58.58,0,0,0-.16.15s.06.09.09.13S40,18.27,39.93,18.14Zm.52,1.26-.3-.09.08.24A.18.18,0,0,0,40.45,19.4Zm-.34-.63c.17,0,.17,0,.28-.05C40.27,18.69,40.27,18.69,40.11,18.77Zm1,1.72c.07.2.07.2.19.11ZM40,17.91c.11-.18.11-.18,0-.21Zm.11.66V18.5l-.14,0s0,0-.05.08Zm1-1.89,0,0-.12-.08,0,.05Zm.35-.1s-.07.07-.06.09,0,0,.06.07,0,0,0-.06S41.51,16.63,41.49,16.58Zm-1,3.34h0v.17h0Zm1.16.87,0,0,.13,0s-.05-.06-.07-.06S41.65,20.77,41.62,20.79Z"/><path d="M63.75,19c0,.14,0,.24,0,.34s0,.29.17.35a.42.42,0,0,1,.12.08.21.21,0,0,0,.26,0,.72.72,0,0,1,.21-.05l1.75-.19a1.22,1.22,0,0,1,.27,0,1.6,1.6,0,0,0,.75-.08l.27-.05c0,.14,0,.24,0,.35s0,.4,0,.59a.39.39,0,0,1-.16.39.77.77,0,0,1-.48.16c-.18,0-.36.05-.54.05s-.32,0-.48,0h-.48l-1.1,0c-.51,0-1,.08-1.54.14-.17,0-.32.1-.51,0a1.72,1.72,0,0,0,0-1c0-.4-.14-.8-.2-1.2s-.08-.66-.12-1a1.46,1.46,0,0,0-.07-.3,3.2,3.2,0,0,1-.22-.9,2.89,2.89,0,0,1,0-.29c0-.18,0-.25.19-.29a3.4,3.4,0,0,1,.64-.09c.8,0,1.61-.06,2.41-.07.42,0,.84,0,1.27,0l1,0a2.47,2.47,0,0,1,.1.35,5.35,5.35,0,0,1,.07.56.28.28,0,0,1-.29.35,3.87,3.87,0,0,1-.48,0L66,17.2l-.69-.08-.88-.07a8.44,8.44,0,0,0-1.21.13,3.43,3.43,0,0,0,.12.44.3.3,0,0,0,.32.16l1.48-.06c.51,0,1,0,1.53,0a2.58,2.58,0,0,1,.37.06,7.45,7.45,0,0,1,0,1.06l-.18.17a.44.44,0,0,1-.38,0,1,1,0,0,0-.79-.16c-.39.05-.79.07-1.19.1h-.38Zm2.79,1c-.09-.12-.18,0-.26,0V20l.28,0c.06,0,.1.12.2.06S66.61,20,66.54,20Zm.3.19c.09.15.19.16.3,0A.24.24,0,0,1,66.84,20.18Zm-1-.06v0s.05,0,.07,0l.09,0v0Zm.32.2v-.06l-.1,0,0,0Zm.45.16s0,0,.06,0l0-.05-.06,0S66.67,20.46,66.66,20.48Z"/><path d="M24.39,28.78c0-.11.05-.2.08-.29s0-.11.07-.14a1,1,0,0,0,.26-.42c.09-.21.19-.25.41-.19a8.82,8.82,0,0,0,1.15.3,4.78,4.78,0,0,0,1.31,0c.1,0,.15-.05.16-.14s-.07-.12-.15-.12-.38-.11-.59-.12A3.73,3.73,0,0,1,26,27.28c-.32-.12-.62-.26-.93-.39a.52.52,0,0,1-.27-.83.79.79,0,0,0,.16-.58.56.56,0,0,1,.1-.29c.05-.09.14-.17.2-.26a.88.88,0,0,1,.67-.41,5.47,5.47,0,0,1,1.4,0l1.22.07a3.55,3.55,0,0,1,.47.06l.92.17.11,0c.09,0,.2.1.19.22a.28.28,0,0,1-.16.24,3.7,3.7,0,0,0-.36.33l-1-.13c-.11,0-.22,0-.33,0a6.93,6.93,0,0,1-.91,0,1.13,1.13,0,0,0-.65.19c-.06,0-.14.14-.12.18a.29.29,0,0,0,.18.16,4.87,4.87,0,0,0,.55.06h.11a.38.38,0,0,1,.43.24s.06.07.1.11a.46.46,0,0,0,.12-.12.59.59,0,0,1,.76-.22,1.72,1.72,0,0,1,.49.28,6.29,6.29,0,0,0,.72.52.63.63,0,0,1,.28.49,1.42,1.42,0,0,1-.48,1.22,1.34,1.34,0,0,1-.61.35,2.19,2.19,0,0,0-.4.21,2.88,2.88,0,0,1-.87.24c-.38.06-.76.1-1.14.14a.83.83,0,0,1-.35,0,2.05,2.05,0,0,1-.82-.31.49.49,0,0,0-.25-.07L24.77,29A.51.51,0,0,1,24.39,28.78Z"/><path d="M35,18.59c0,.12-.07.23-.09.34-.08.43-.14.85-.22,1.28a2.1,2.1,0,0,1-.15.42c-.08.16-.13.18-.31.14l-.43-.07-.72-.08s0-.08,0-.12a1.19,1.19,0,0,0,0-.26,14.87,14.87,0,0,0,0-2c0-.3,0-.62,0-.93a2.18,2.18,0,0,0,0-.57,4.9,4.9,0,0,1-.13-.55l0,0,0,0H34.8a.75.75,0,0,0,.39.43c.2.14.38.32.57.47a1.2,1.2,0,0,0,.24.15.6.6,0,0,1,.33.39c0,.24.2.33.39.41s.21.1.18.25.07.11.14.09a.28.28,0,0,0,.21-.24c0-.12,0-.25,0-.38a1.53,1.53,0,0,0,0-.3,1.93,1.93,0,0,0-.06-.41c0-.06,0-.13,0-.19s0-.11,0-.17a.5.5,0,0,1,.21-.51c.32,0,.71,0,1.09,0a1.51,1.51,0,0,0,.28-.05l.11,0h.76a.28.28,0,0,1,.13,0,.19.19,0,0,1-.12.22.9.9,0,0,0-.36.34c-.09.15-.14.15-.32.09l-.19-.06a.78.78,0,0,0-.12.39c0,.25-.06.5-.09.75a.85.85,0,0,0,0,.35,4.87,4.87,0,0,1,.09,1.26c0,.44,0,.88,0,1.35,0,0-.14.09-.2.07a3.07,3.07,0,0,0-.74,0,.35.35,0,0,1-.3-.14,2.23,2.23,0,0,0-.5-.52,2.26,2.26,0,0,1-.54-.53c-.22-.24-.41-.5-.63-.72a1.5,1.5,0,0,0-.4-.25A1.25,1.25,0,0,0,35,18.59ZM36.2,19l0,.08.32.14-.09.09.18,0c.06-.19-.11-.2-.15-.27s.06-.24-.07-.34C36.35,18.84,36.42,19,36.2,19Zm0-.08a.51.51,0,0,0-.11-.44c0,.09-.11.17-.1.24s.1.11.15.17Zm-.77-.74v.07l.27,0v0Zm2,1.83c0,.11,0,.2.17.14s0,0,0-.07Zm-3.58-.34-.1-.17C33.67,19.64,33.71,19.68,33.86,19.68Zm1.87-1.24c.1.15.1.15.2.12C35.86,18.47,35.86,18.47,35.73,18.44Zm2.27.72-.08,0s0,0,0,0l.06.06Zm.11.43v.05l.13,0v0Zm-1.52-1.14-.06,0,0,.08s0,0,0,0A.24.24,0,0,1,36.59,18.45Zm-2.5-2.16-.09,0s0,0,0,0,0,0,0,0S34,16.31,34.09,16.29Z"/><path d="M30.57,17.5l-1.46-.06c-.24,0-.3,0-.32.17a.35.35,0,0,0,.28.43,2.48,2.48,0,0,0,.38,0h2.16c.32,0,.44.17.33.48a2.53,2.53,0,0,1-.18.37.43.43,0,0,1-.21.14,1.7,1.7,0,0,1-.71.05c-.46,0-.92,0-1.39,0h-.09c-.11,0-.2.08-.22.2a.23.23,0,0,0,.17.25.59.59,0,0,0,.23,0,10.26,10.26,0,0,0,1.91-.16,5.6,5.6,0,0,1,.59-.07c.21,0,.23,0,.25.23a.58.58,0,0,1-.12.4c-.05.08-.09.16,0,.24a.4.4,0,0,1,.1.33c0,.12,0,.24,0,.36s-.09.29-.28.26a5.62,5.62,0,0,1-.8-.15,7.25,7.25,0,0,0-1.39-.18,13.63,13.63,0,0,1-1.69-.17,1,1,0,0,0-.38,0c-.21,0-.25,0-.28-.17a8,8,0,0,1-.11-1.38c0-.11,0-.23.06-.34a.25.25,0,0,0,0-.12,4.42,4.42,0,0,1-.13-1.2.64.64,0,0,1,.13-.37.27.27,0,0,0,0-.31,2.44,2.44,0,0,1-.14-.28.72.72,0,0,1,0-.25.14.14,0,0,1,.16-.14l.48,0c.46,0,.92.09,1.38.12q.36,0,.72,0a13.2,13.2,0,0,1,2,.15c.36,0,.46.17.43.54a1.93,1.93,0,0,1,0,.24c0,.2,0,.26-.26.26H30.57Zm-2.65.24.07.41.2,0C28,18,28.18,17.78,27.92,17.74Zm0-.81a.47.47,0,0,0-.22-.26C27.71,16.9,27.71,16.9,27.88,16.93Zm.06,1.61.26-.11C28.07,18.39,28,18.36,27.94,18.54Zm.19.66v0l-.13,0v0Z"/><path d="M14.5,16.31c.17,0,.16,0,.35.12a.4.4,0,0,0,.32,0,1.45,1.45,0,0,1,.74-.07c.47,0,.93,0,1.39,0h2.13l.07,0c0,.05,0,.12-.07.14-.25.14-.21.38-.23.59a.41.41,0,0,1-.31.32,5.69,5.69,0,0,1-1,0c-.41,0-.82,0-1.24,0-.22,0-.45,0-.67,0l-.16,0c0,.41,0,.41.42.39s.67,0,1,0,.78,0,1.17,0a.48.48,0,0,1,.17.05c0,.21,0,.4,0,.58s0,.38,0,.57,0,.2-.17.2l-.16,0a.83.83,0,0,0-.22,0l-1.09.06H15.68l.07.45h.46l1.84-.1c.31,0,.62,0,.93,0s.23,0,.21.21a4.15,4.15,0,0,0,0,.93c0,.25,0,.33-.29.31A12,12,0,0,0,17,21c-.44,0-.89,0-1.34,0L14.55,21a20.49,20.49,0,0,1-.1-2.07c.16,0,.28-.12.29-.3s0-.19-.12-.23-.2-.2-.18-.37.1-.63.14-.94a.49.49,0,0,0,0-.21A1.14,1.14,0,0,1,14.5,16.31Zm.28,1.18c-.11-.08-.17,0-.2.07s0,.15.11.17Zm.26.45,0-.05-.16,0v0Zm.1-.28v.05h.21v0Z"/><path d="M8.79,19.37l.32.17a1.46,1.46,0,0,1,.28.21.51.51,0,0,0,.43.15,9.19,9.19,0,0,1,1,0l.83,0c.1,0,.16,0,.16-.15A.82.82,0,0,1,12,19.6a.36.36,0,0,0,.06-.39l-.17.07c-.2.06-.39.11-.55-.07a.27.27,0,0,0-.29-.07c-.11,0-.27,0-.32.18l-.06,0a1.61,1.61,0,0,1-1,0l-.06,0-.66-.51a.55.55,0,0,1-.13-.17,1.12,1.12,0,0,1-.09-.72c0-.18.06-.35.11-.52a3.26,3.26,0,0,1,.2-.48.38.38,0,0,1,.19-.14c.28-.12.56-.22.85-.32a6.28,6.28,0,0,1,1.29-.19,7.4,7.4,0,0,1,.81-.08,1.74,1.74,0,0,1,.95.2,1.41,1.41,0,0,1,.37.36.48.48,0,0,1-.36.7,1.16,1.16,0,0,1-.58-.06,2,2,0,0,0-.49-.08.4.4,0,0,1-.4-.3.49.49,0,0,1-.49.17,5,5,0,0,0-.55,0l-.26,0c0,.12,0,.25-.16.33s0,.14.06.2a1.09,1.09,0,0,0,1.05.22.61.61,0,0,1,.42,0A1.32,1.32,0,0,0,12,18a2.31,2.31,0,0,0,.37,0c.16,0,.32,0,.48,0a.53.53,0,0,1,.27.08,1.08,1.08,0,0,1,.5,1.2,1.81,1.81,0,0,0,0,.57.73.73,0,0,1-.34.71l-.13.13a.94.94,0,0,1-.62.32A15,15,0,0,1,11,21c-.06,0-.13,0-.17,0s-.27,0-.41,0a4.38,4.38,0,0,0-.52,0s-.07,0-.08,0-.23.08-.36,0a5.43,5.43,0,0,1-.81-.54.42.42,0,0,1-.17-.42A2.53,2.53,0,0,1,8.79,19.37Zm2.33-3v0l-.42.06v0Z"/><path d="M20.14,29.18l-.25,0c-.24,0-.47,0-.7,0a.93.93,0,0,0-.44.08.41.41,0,0,1-.55-.16,4,4,0,0,0-.71-.66.73.73,0,0,0-.3-.12,3.71,3.71,0,0,0-1,0l-.29,0c-.3,0-.38.08-.42.37a1,1,0,0,1-.22.5c-.09.11-.29.15-.37,0A1,1,0,0,0,14.2,29a3,3,0,0,0-.52-.05l-.16,0,.19-.53a1.22,1.22,0,0,0,.07-.17.64.64,0,0,1,.26-.4,4.55,4.55,0,0,0,.78-1c.25-.42.48-.84.72-1.27l.42-.77c.16-.29.25-.33.58-.29s.51,0,.76,0,.33.05.4.29a5.72,5.72,0,0,0,.59,1.22c.13.23.24.49.35.73a.75.75,0,0,0,.06.13,6.11,6.11,0,0,1,.59,1.17c.06.15.14.31.35.3h0C19.88,28.64,20.15,28.8,20.14,29.18ZM16.55,26.8a.53.53,0,0,0,.2.05.25.25,0,0,0,.19-.09.34.34,0,0,0-.06-.42c-.06-.07-.13-.13-.24-.08a.27.27,0,0,0-.14.28C16.52,26.62,16.53,26.7,16.55,26.8Z"/><path d="M12.9,24.69l-.1-.16a1,1,0,0,1,.93.42,1,1,0,0,1,.24.72A1.86,1.86,0,0,0,14,26a.86.86,0,0,1-.59,1,.39.39,0,0,0-.14.08,2.63,2.63,0,0,1-1.48.47c-.38,0-.76.06-1.14.09.06.26.05.28-.23.44.14.25.05.54.07.81l.18.05s-.07.06-.09.06L9.35,28.9c-.21,0-.42,0-.63,0H8.49a3,3,0,0,1,.16-.86,1.28,1.28,0,0,0,0-.56,5.57,5.57,0,0,1,0-1.29,1.82,1.82,0,0,0,0-.33l0-.93a.78.78,0,0,1,.14-.52l.79,0c.32,0,.65,0,1,.05l1.59.18A2.36,2.36,0,0,0,12.9,24.69Zm-2.56.94a.71.71,0,0,0-.15.67.26.26,0,0,0,.29.25,1.17,1.17,0,0,0,.38,0,2.32,2.32,0,0,1,.94-.12c.17,0,.23,0,.26-.18s0-.32-.16-.34a.74.74,0,0,0-.6,0,.23.23,0,0,1-.37-.13.2.2,0,0,0-.22-.14Z"/><path d="M23.32,29.44a3.56,3.56,0,0,1-1.39-.05c-.3-.08-.59-.13-.89-.2l-.21-.08a.34.34,0,0,1,.19-.24.31.31,0,0,0,.15-.42c-.07-.22-.16-.43-.23-.65a.35.35,0,0,1,0-.2.51.51,0,0,0-.14-.44,1.5,1.5,0,0,0-.2-.24c-.16-.15-.16-.38-.28-.54l-.45-.55-.31-.36c-.14-.15-.28-.28-.41-.43s-.17-.25-.28-.4c.07,0,.11-.09.16-.1l.73-.11c.26,0,.51,0,.77,0s.32.06.41.31a2.64,2.64,0,0,0,.2.37l.33.56a.27.27,0,0,0,.41.11c.13-.07.27-.12.27-.32a.56.56,0,0,1,.15-.31.66.66,0,0,0,.18-.35,1.51,1.51,0,0,1,.13-.29.32.32,0,0,1,.17-.11,1.09,1.09,0,0,1,.77.09,2.15,2.15,0,0,0,.76.33c.14,0,.19.15.09.25a5.54,5.54,0,0,0-.56,1,9.65,9.65,0,0,1-.92,1.37.63.63,0,0,0-.16.36c0,.22-.09.43-.14.65a.37.37,0,0,0,.13.42A6.31,6.31,0,0,1,23.32,29.44Z"/><path class="cls-12" d="M54.85,19.07c-.22-.06-.19-.28-.2-.46s.09-.17.21-.12.14.05.17.1a1,1,0,0,1,.08.26.37.37,0,0,0,.13.07.61.61,0,0,0,.18.07l-.27,0,0,.11a1.33,1.33,0,0,0-.21.09c-.06,0-.12.09-.16,0S54.83,19.14,54.85,19.07ZM55,18.9s0,0,0,.05,0,0,0,0,0,0,0,0Zm-.19-.16s0,0,0,.06,0,0,0,0l.05,0Z"/><path class="cls-12" d="M55.11,18.13v.26l-.28-.06c0-.18,0-.35-.07-.53s.09-.32.21-.46c0,0,0,.08,0,.11s0,.31.07.45.12.14.06.24c-.13-.12-.15,0-.2.08C55,18.27,55.06,18.18,55.11,18.13Z"/><path class="cls-12" d="M57.86,16.81c-.07-.13-.37-.06-.31-.34A.39.39,0,0,1,57.86,16.81Z"/><path class="cls-12" d="M58.31,16.64a.9.9,0,0,1-.21.16s-.08-.08-.14-.13C58.11,16.59,58.11,16.59,58.31,16.64Z"/><path class="cls-12" d="M57.24,16.74,57,16.51C57.2,16.51,57.25,16.56,57.24,16.74Z"/><path class="cls-12" d="M55.21,19.44c-.12.08-.17,0-.23-.09C55.07,19.32,55.07,19.32,55.21,19.44Z"/><path class="cls-12" d="M55.17,18.57l.08-.07,0,.06a.1.1,0,0,1,0,0Z"/><path class="cls-12" d="M47.05,19.74l-.3,0a.71.71,0,0,1,0-.21s.08,0,.12,0,0,.15,0,.19.11.05.16.07Z"/><path class="cls-12" d="M46.93,20.66a.27.27,0,0,1,.1-.38C46.9,20.37,47.09,20.54,46.93,20.66Z"/><path class="cls-12" d="M47.19,20l-.19,0v.15c-.06-.05-.12-.09-.12-.11A.17.17,0,0,1,47,20a.81.81,0,0,1,.22,0Z"/><path class="cls-12" d="M47.08,19.18c-.16.08-.16.08-.22-.11Z"/><path class="cls-12" d="M20.48,18.39l.1.23h-.27C20.28,18.47,20.42,18.48,20.48,18.39Z"/><path class="cls-12" d="M20.42,19.11c-.05-.12-.07-.2,0-.27C20.53,18.94,20.48,19,20.42,19.11Z"/><path class="cls-12" d="M20.74,19.18c-.08,0-.13.12-.25.05l.22-.11Z"/><path class="cls-12" d="M25.31,17.46h-.17v-.06h.18a0,0,0,0,1,0,0Z"/><path class="cls-12" d="M25.45,17l-.21,0c.09-.11.15-.06.21,0Z"/><path class="cls-12" d="M20.41,18.3l.09-.11,0,0-.08.11Z"/><path class="cls-12" d="M21.77,17.81l.1,0s0,0,.06.06l-.06.05Z"/><path class="cls-12" d="M40.94,20.45l-.1.08-.32-.32c.1-.05.17-.07.23,0Z"/><path class="cls-12" d="M39.93,18.14c.06.13.09.23-.07.28s-.1-.11-.09-.13A.58.58,0,0,1,39.93,18.14Z"/><path class="cls-12" d="M40.45,19.4a.18.18,0,0,1-.22.15l-.08-.24Z"/><path class="cls-12" d="M40.11,18.77c.16-.08.16-.08.28-.05C40.28,18.79,40.28,18.79,40.11,18.77Z"/><path class="cls-12" d="M41.09,20.49l.19.11C41.16,20.69,41.16,20.69,41.09,20.49Z"/><path class="cls-12" d="M40,17.91l0-.21C40.09,17.73,40.09,17.73,40,17.91Z"/><path class="cls-12" d="M40.09,18.57l-.18,0s0-.08.05-.08l.14,0Z"/><path class="cls-12" d="M41.14,16.68,41,16.61l0-.05.12.08Z"/><path class="cls-12" d="M41.49,16.58c0,.05,0,.07,0,.1s0,0,0,.06-.05,0-.06-.07S41.46,16.62,41.49,16.58Z"/><path class="cls-12" d="M40.46,19.92v.17h0v-.17Z"/><path class="cls-12" d="M41.62,20.79s.05,0,.08,0,0,0,.07.06l-.13,0Z"/><path class="cls-12" d="M66.84,20.18a.24.24,0,0,0,.3,0C67,20.34,66.93,20.33,66.84,20.18Z"/><path class="cls-12" d="M66.54,20l-.27,0V20c.08,0,.17-.09.26,0Z"/><path class="cls-12" d="M65.89,20.12H66v0l-.09,0s0,0-.07,0Z"/><path class="cls-12" d="M66.54,20c.07,0,.16,0,.21.05s-.14,0-.21-.05Z"/><path class="cls-12" d="M66.21,20.32h-.09l0,0,.1,0Z"/><path class="cls-12" d="M66.66,20.48s0-.06,0-.05l.06,0,0,.05S66.68,20.49,66.66,20.48Z"/><path class="cls-12" d="M36.2,19c.22,0,.15-.17.21-.28.13.1,0,.22.07.34s.21.08.15.27l-.18,0,.09-.09-.32-.14Z"/><path class="cls-12" d="M36.2,18.93l-.06,0c0-.06-.15-.11-.15-.17s.06-.15.1-.24A.51.51,0,0,1,36.2,18.93Z"/><path class="cls-12" d="M35.43,18.19h.27v0l-.27,0Z"/><path class="cls-12" d="M37.44,20l.21.07s0,.07,0,.07S37.47,20.13,37.44,20Z"/><path class="cls-12" d="M33.86,19.68c-.15,0-.19,0-.1-.17Z"/><path class="cls-12" d="M35.73,18.44c.13,0,.13,0,.2.12C35.83,18.59,35.83,18.59,35.73,18.44Z"/><path class="cls-12" d="M38,19.16l0,.07-.06-.06s0-.05,0,0Z"/><path class="cls-12" d="M38.11,19.59l.13,0v0l-.13,0Z"/><path class="cls-12" d="M36.59,18.45a.24.24,0,0,0,0,.08s0,0,0,0l0-.08Z"/><path class="cls-12" d="M34.09,16.29c-.07,0-.09,0-.1,0s0,0,0,0,0,0,0,0Z"/><path class="cls-12" d="M27.92,17.74c.26,0,.09.28.27.38l-.2,0Z"/><path class="cls-12" d="M27.88,16.93c-.17,0-.17,0-.22-.26A.47.47,0,0,1,27.88,16.93Z"/><path class="cls-12" d="M27.94,18.54c0-.18.13-.15.26-.11Z"/><path class="cls-12" d="M28.13,19.2l-.12,0v0l.13,0Z"/><path class="cls-12" d="M14.78,17.49l-.09.24c-.08,0-.15-.06-.11-.17S14.67,17.41,14.78,17.49Z"/><path class="cls-12" d="M15,17.94l-.15-.06v0l.16,0Z"/><path class="cls-12" d="M15.14,17.66l.2,0v0h-.21Z"/><path class="cls-12" d="M11.12,16.36l-.41.06v0l.42-.06Z"/><path class="cls-12" d="M16.55,26.8c0-.1,0-.18-.05-.26a.27.27,0,0,1,.14-.28c.11-.05.18,0,.24.08a.34.34,0,0,1,.06.42.25.25,0,0,1-.19.09A.53.53,0,0,1,16.55,26.8Z"/><path class="cls-12" d="M10.34,25.63h.37a.2.2,0,0,1,.22.14.23.23,0,0,0,.37.13.74.74,0,0,1,.6,0c.12,0,.19.2.16.34s-.09.18-.26.18a2.32,2.32,0,0,0-.94.12,1.17,1.17,0,0,1-.38,0,.26.26,0,0,1-.29-.25A.71.71,0,0,1,10.34,25.63Z"/><path d="M55,18.9l.05.05s0,0,0,0,0,0,0,0S55,18.92,55,18.9Z"/><path d="M54.82,18.74l0,.07-.05,0s0,0,0,0S54.8,18.77,54.82,18.74Z"/><path d="M55.11,18.13c0,.05-.08.14-.2.09.05-.08.07-.2.2-.08Z"/></g></g></svg>