<svg xmlns="http://www.w3.org/2000/svg" viewBox="0 0 212.57 286.11"><defs><style>.cls-1{fill:none;stroke:#232322;stroke-miterlimit:10;stroke-width:0.75px;}.cls-2{font-size:33.84px;}.cls-13,.cls-2,.cls-9{fill:#232322;}.cls-2,.cls-9{font-family:Termina-Heavy, Termina;font-weight:800;}.cls-3{letter-spacing:0em;}.cls-4{letter-spacing:-0.01em;}.cls-5{letter-spacing:0em;}.cls-6{letter-spacing:-0.02em;}.cls-7{letter-spacing:0em;}.cls-8{fill:#71292d;}.cls-13,.cls-9{font-size:8.12px;}.cls-10{letter-spacing:-0.03em;}.cls-11{letter-spacing:-0.01em;}.cls-12{letter-spacing:0em;}.cls-13{font-family:GillSans-SemiBold, Gill Sans;font-weight:600;}.cls-14{fill:#fff;}</style></defs><g id="Calque_2" data-name="Calque 2"><g id="Calque_1-2" data-name="Calque 1"><rect class="cls-1" x="-37.85" y="42.65" width="285.37" height="200.81" transform="translate(247.89 38.22) rotate(90)"/><text class="cls-2" transform="translate(122.51 232.42) rotate(-90)">Hari<tspan class="cls-3" x="90.33" y="0">c</tspan><tspan class="cls-4" x="115.27" y="0">o</tspan><tspan class="cls-5" x="142.31" y="0">t à</tspan><tspan class="cls-6" x="0" y="37.23">r</tspan><tspan x="17.29" y="37.23">ames </tspan><tspan x="0" y="74.46">Borl</tspan><tspan class="cls-4" x="89.55" y="74.46">o</tspan><tspan x="116.59" y="74.46">t</tspan><tspan class="cls-7" x="136.02" y="74.46">t</tspan><tspan x="155.38" y="74.46">o</tspan></text><path class="cls-8" d="M58.86,2.34c.08-.23.13-.64.22-.65,1.74-.21,3.49-.38,5.24-.55.14,0,.33.06.42,0,1.79-1.33,3.66,0,5.49-.15a3,3,0,0,1,2,1.06c.66-.17,1.32-.35,2-.51a5.23,5.23,0,0,0,1.21-.3A7.32,7.32,0,0,1,81.75.94a9.74,9.74,0,0,0,2.63.46,54.9,54.9,0,0,1,5.89.14c1.12.16,2.13,1.07,3.36,1.73l1.55-1.43a3,3,0,0,1,.37.92c.12,3.18.21,6.37.28,9.55a2.38,2.38,0,0,1-.26,1c-.94,2.14-2,4.23-2.8,6.43-.59,1.62-.59,3.48-1.27,5.05-1.2,2.73-2.75,5.3-4.11,8-.48,1-1.19,1.79-.65,3.1a3.63,3.63,0,0,1-.32,2.53,15.43,15.43,0,0,0-1.15,7.39c.11,1.88-.19,3.79-.22,5.7,0,3.31,0,6.63,0,9.94,0,4.32,0,8.63,0,12.95,0,1.71.35,3.43.26,5.13-.3,5.39-.87,10.77-1.05,16.17-.21,6.11-2.33,11.74-4.13,17.43-1.19,3.75-3,7.27-4.52,10.94s-2.86,7.57-4.31,11.35c-1,2.5-1.92,5-3,7.47a6,6,0,0,1-1.14,1.41c.81-2.15,1.57-4.3,2.42-6.42,1.37-3.44,2.91-6.8,4.17-10.28A49.08,49.08,0,0,0,75,121.92c.26-1.06,0-2.42,1.53-2.87.24-.07.36-.63.5-1,.57-1.46,1.23-2.89,1.67-4.39.68-2.28,1.21-4.61,1.81-6.92l-.83-.21-.38,1.54-1.86.75,1.75-2.74c-1.61.29-1.87,1.31-2.08,2.41s-.86,1-1.66.55c1.78,0,1.22-1.27,1.32-2.23l-.83.06.27-1.14c-1.41.64-1.5,1.42-.63,2.08l-.86,2c-.81-.37-1.75-.75-1.6,1.2l3.55-.91.24.31-2.17,1.66-.28.16c-1.61.37.1,1.73-.68,2.33l-2.08-.38-.17.55,1.45.54-.31,3.79-1.56-1.88-1,4.21L69,120.7a3.79,3.79,0,0,1-.27.47l-1.09,1a4.3,4.3,0,0,1-.63-1.32c-.13-1.65-.13-3.31-.22-5-.07-1.21.18-2.65-.4-3.56a5.23,5.23,0,0,1-.69-4.37,3.34,3.34,0,0,0-1.36-3.76c.35,3.54.74,7,1,10.39.21,2.94.72,6,.27,8.81-.41,2.59-1.93,5-3,7.49-.26.65-.45,1.34-.69,2l-1.39,3.78c-.57,1-1.21,1.93-1.7,2.95-1.17,2.46-2.27,5-3.39,7.44-.29.64-.54,1.3-.81,2,1.06-1.1,1.94-2.17,2.81-3.26.07-.08-.05-.29,0-.41.37-1.13.74-2.27,1.14-3.4.63-1.77,1.29-3.53,1.93-5.3.27-.27.69-.5.78-.83,1.21-4,4.09-7.28,4.7-11.52.08-.55.7-1,1.07-1.52l.59.26c-.36,1.47-.72,3-1.12,4.57-1.39.59-1.51.77-1.44,2.29,1.82.66,1.42-2.27,3.24-1.88l-.92,2.22L69.4,132l-1,.74,1.18,1L68,135.09c.68,1.66.68,1.66-1.58,1.72l-1.22,3.9c.87,1-.61,1.29-1.32,1.8.25.56.69,1.06.64,1.5a7.19,7.19,0,0,1-.81,2.43,12.46,12.46,0,0,1-1.44,1.76c-.06.06-.06.17-.09.29l.86.65-2,1.73.85,1.22-1.27,1.36,1.49.19-3.85,1.44c.57.63,1.31,1.09,1.44,1.69s.88,1.84-.77,1.72l.2,1.62h-2.5c1.74.87,2.48,2,1.78,3.9-.09.23.14.56.16.85a7.43,7.43,0,0,1-.07,1l.51.1c0,1.62.36,3.19-.1,4.48a17.55,17.55,0,0,0-1.19,3.42h-2l.56,1.64.19-.35,3.32,1a1.34,1.34,0,0,0,.26-.58,39.3,39.3,0,0,1,.29-3.92c.57-3-.46-5.78-.64-8.66a2.47,2.47,0,0,1,.65-2.12,5.41,5.41,0,0,0,1.12-2.1c.37-1.39.3-2.94,1.75-3.91l-.84-1.4.82.21c0-.56-.2-1.18,0-1.45,1.59-1.91,1.82-4.33,2.61-6.54.21-.59.92-1,1.39-1.49-.87,2.79-1.83,5.56-2.6,8.39a87.81,87.81,0,0,0-2.12,9,41.46,41.46,0,0,0-.09,6c0,2.12,0,4.25-.17,6.36a10,10,0,0,0,.48,5.32,3.08,3.08,0,0,1,.22,1.14c.25,5.56.43,11.13.74,16.7.13,2.23.52,4.44.79,6.66a4.51,4.51,0,0,1,.17.86c-.21,5.58,2.1,10.65,3.18,16,1,4.88,2.56,9.65,3.85,14.47a7.1,7.1,0,0,1,.12,1.14l0,0-.92-1.3-1,.82.91,4.79,1.06-.44,0,0c.27.89.9,1.91-1.21,2l2.63,1.15a16.35,16.35,0,0,0-2.08.84c-.09.05.16.71.22,1l-.93,1.23.45.44L72.74,245c.37,1.42.26,2.35-2.13,2.37a10.58,10.58,0,0,0,0,1.69c.14.82.78,1.66-.37,2.29a2.25,2.25,0,0,0,1.48,1.95l-1,1.49.43.28L73,252.34l1.28.59v-7.17c1.91,1.34.61,19.86-1.33,21.67-.07-.69-.15-1.22-.17-1.75,0-1.14-.1-2.27-.08-3.41,0-.21.32-.42.45-.58-.34-.71-.66-1.4-1-2.1,1.65-.35,1.75-1.32,1-2.63l.87-.47-.85-3.26c-.75,1.23,0,2.41-1.13,3a.42.42,0,0,0-.09.4c.83,1,.4,2,.22,3.05H70.89l-.19.4,1.24,1-2.86.54,0,.38c1.46-.05,2.72.17,2.72,1.94l-1.37-.67c-.35,2.06-.35,2.06-2.71,3.64l1.89.33c0,.22.11.7.19,1.18l-.15.48,2.32,1.69v0c-.81.29-1.61.59-2.48.92l1.71.51-1.21,1.1,1.14.58c-1.79.07-.73.81-.3,1.74l-1-.91a15.52,15.52,0,0,0-1.83,1.6,1.63,1.63,0,0,0-.22,1.22,8.59,8.59,0,0,0,.6,1.57l-.39.25-1.45-.39c.09,1.42,4.51,4.81,5.67,4.37.58,2.11.23,2.7-1.91,2.63-2.62-.08-5.23-.36-7.84-.6-1-.1-4-3.14-4.25-4.18,0-.19-.13-.41-.08-.57.67-2,1.33-3.95,2.06-5.91s1.57-3.67,2.16-5.57a2.41,2.41,0,0,0-.47-2.13c-.87-.53-1.36.33-1.81,1.12a17,17,0,0,0-1.75,5.49c-.34,1.87-1.6,3.58-2.54,5.32-.17.31-.77.39-1.17.58-.07-.39-.14-.78-.23-1.17,0-.19-.13-.36-.21-.58-1.52-.07-1.69.89-1.64,2-.15-.54-.28-1.08-.45-1.6-.23-.68-.49-1.34-.74-2l-.4.13.67,3.46h.92a5.18,5.18,0,0,1,1,.92,13.31,13.31,0,0,1,.81,1.79l1-2.21a11.78,11.78,0,0,1,.83,1.94,15.22,15.22,0,0,1,.16,2.15l-2.87.75c-2.12.53-4.24.15-6.38,0-2.72-.17-5.46,0-8.19-.08-.74,0-1.47-.09-2.2-.12-1.58-.06-2.2-1-2.71-2.42-1.18-3.3-2.57-6.53-3.94-9.76-.15-.36-.71-.55-1.08-.81-.27.41-.77.82-.77,1.24,0,2.51,0,5,.08,7.53,0,1.08.1,2.15.17,3.5l-.9-.54c-1.34.24-2.44.75-3.39.54-3.94-.87-7.79.62-11.69.26-1.89-.18-3.77-.4-5.65-.56a7.94,7.94,0,0,0-1.68.1c-.64.09-1.28.25-1.81.36a22.83,22.83,0,0,0,.78-4.51c-.07-2.49-.47-5-.78-7.45-.26-2.07-.48-4.16-.92-6.2s-1.22-4-1.69-6c-.31-1.34-.29-2.75-.48-4.12-.66-4.85.23-9.66.39-14.49.1-3.15.12-6.31.24-9.47s.36-6.49.47-9.74c.1-2.76.1-5.52.14-8.28.05-3.89.11-7.79.15-11.68,0-1.88.56-4-.1-5.58-.79-1.91.17-3.54-.12-5.3a38.82,38.82,0,0,1,0-5.5c-.1-5.27-.36-10.54-.34-15.8,0-5.86.31-11.71.43-17.57.05-2.73,0-5.47,0-8.2a2.74,2.74,0,0,1,.25-1.13c2-4.19,2.42-8.64,2.45-13.21s.46-9,.45-13.46a17.13,17.13,0,0,1,.56-5.52c.27-.84-.15-1.9-.2-2.86a66.75,66.75,0,0,1,.89-12.78c.31-2.15.37-4.34.6-6.5C7,84.23,7.54,79.69,8,75.14c.23-2.19.27-4.39.51-6.57.31-2.79.83-5.57,1.08-8.37.26-3,1-6.26.28-9.08A55.14,55.14,0,0,1,8.78,40.86,10.41,10.41,0,0,1,10,35.79c1.07-2.33,2.25-4.58,2.4-7.27.08-1.42.9-2.79,1.36-4.19.23-.7.43-1.4.6-2.11.88-3.89,1.78-7.78,2.59-11.68.28-1.38.26-2.81.47-4.2.11-.75.48-1.45.64-2.19a9.9,9.9,0,0,0,.1-1.64c0-.51-.15-1.19.12-1.48S19.48.36,19.74.56c1.16.88,2.46.35,3.5.2,3.25-.48,6.46.19,9.68,0a29.69,29.69,0,0,1,3.89.1c1,.06,2.15,0,2.84.48,1.32,1,2.45.62,3.87.45,3.57-.4,7.2-1.25,10.77.27.53.23,1.31-.11,2,0a6.65,6.65,0,0,1-4.74,1.58l.11.63a19,19,0,0,0,2.93-.42c1.46-.42,2.88-1,4.31-1.54A3.87,3.87,0,0,1,55.7,4.42C57.52,5,58.53,3.49,60,2.74ZM33.63,32a6.25,6.25,0,0,0-1.5,0c-.88.24-1.71.61-2.67,1l.11,1.46,2.19-1.8.17.19-.48.87.33.25,1.87-2v2.23c1.16-1,2-1.86,2.88-.63l.76-2-.61.07ZM9.34,84l.42-1.53-.43-.33,3-1.32L12,79.43c-.31.37-.48.78-.73.83a3.52,3.52,0,0,0-2.89,3.13c0,.18.62.38.95.57-.7.59-2,1-.76,2.24,0,0-.2.4-.21.39-.85-.35-.62.16-.43.56s.44.77.77,1.34c.21-.77.18-1.59.58-2C10.12,85.6,9.41,84.81,9.34,84ZM34.18,274.79l.76-4.33-.32-.11-1.34,4.09.95.3L34,276.8a11.35,11.35,0,0,0,1.16,1,7.3,7.3,0,0,0,1.21.46l0,.7c1.4-.72.68-1.44.29-2.18a14,14,0,0,1-.61-1.56l.52-.2.91,1.67.48-.16a9.37,9.37,0,0,0-.5-1.58,14.1,14.1,0,0,0-1.13-1.68c-.2-.27-.44-.5-.66-.75-.24.29-.52.57-.73.88S34.45,274.32,34.18,274.79Zm25.65-81.38a4.9,4.9,0,0,0,1.05-3c0-1.39-.9-3.11-1.79-3.13-1.06,0-2.13,0-3.2,0,0,1.72.94,2,2.8,1.13,1,1.16-.21,1.92-.38,3l1.37-1.23.46.51-2.74,1.91a4.33,4.33,0,0,1,1,.14,14.2,14.2,0,0,1,1.43.67c-.05.76-.11,1.51-.15,2.27s-.09,1.75-.13,2.62a9,9,0,0,0-.13,1.06c-.07.63-.15,1.27-.22,1.91l-.36,0L58,200c-1.81.92-.58,2.66-1.35,3.85L57,204l1-1.09.55,1.36,2.72-2.59v2.25c1.23-.79,1.19-1.46.51-2.65-.51-.9-1.21-2.37-.83-3a3.31,3.31,0,0,0,.23-2.71c-.12-.77-.33-1.53-.51-2.38Zm-14.9-37.95-.4-.3c-.22.34-.61.67-.65,1-.36,3.39-.74,6.79-1,10.19-.18,2.66-.59,5.42-.09,8a20.65,20.65,0,0,1,.39,6,15,15,0,0,0,.47,4.34c.54,2.65,1.23,5.27,1.8,7.91.28,1.28.36,2.61.63,3.89.42,1.93,1.14,3.78.73,5.84a13,13,0,0,0,.15,2.9,9,9,0,0,1,0,3.11,4.86,4.86,0,0,0,.3,3.81c.21.48.92,1.14,1.29,1.08,1.29-.23,1.61.6,1.79,1.44a30.75,30.75,0,0,1,.92,5.59c.08,3.25-.06,6.52-.26,9.77s-.74,6.64-.89,10a9.51,9.51,0,0,1-1,4,34.49,34.49,0,0,0-1.53,4.58,3.28,3.28,0,0,0,2.68-2.31c1.1-3,2.18-6,3.2-9,.79-2.33,1-2.45,3.12-1.11a2.67,2.67,0,0,0,.63.05c.27-.87.62-1.78.82-2.73a39.76,39.76,0,0,0,1.29-7.16,38,38,0,0,0-1.94-13.08,35.9,35.9,0,0,0-3.15-6.05,6.68,6.68,0,0,1-1.06-3.41,15.49,15.49,0,0,0-.71-3.71c-.49-1.83-1.07-3.65-1.65-5.46-.38-1.16-.83-2.29-1.26-3.43a69.67,69.67,0,0,1-3-8.12,63.12,63.12,0,0,1-1.21-9.34C44.83,167.62,45.25,161.54,44.93,155.46ZM20.36,108.82l-.77,0c-.54,4.53-1.09,9.07-1.6,13.6-.22,1.89-.29,3.8-.53,5.69-.35,2.9-1.05,5.79-1.12,8.7a97.45,97.45,0,0,0,.62,9.78c.21,2.58.52,5.17-.8,7.58a8.86,8.86,0,0,0-1.43,5.08,2.05,2.05,0,0,1-.37,1.37c-1,1.26-1.85,2.53-1.18,4.26a.83.83,0,0,1-.22.67c-1.94,2.31-1.27,5.28-2,7.91-.84,3.2-.18,6.54.53,9.74.32,1.42.86,3,2.46,3.6s1.64,1.61,1.61,2.92a10.85,10.85,0,0,0,.16,3.13,12.31,12.31,0,0,0,1.48,2.6l.56-.15a19.65,19.65,0,0,0,.17-2c0-1.75-.12-3.49-.22-5.23-.13-2.31-.46-4.61-.39-6.91s0-4.73.93-6.69,1.64-3.67,1.41-5.64a20.53,20.53,0,0,1,1.12-8.35c.64-2.16,1.47-4.32.67-6.66a2.64,2.64,0,0,1,.17-1.27,16.64,16.64,0,0,0,.85-3.77,51.44,51.44,0,0,0-.68-7.44,29.2,29.2,0,0,1-.37-8.71,48,48,0,0,0-.06-8.22c-.09-2.48-.32-5-.49-7.43C20.73,114.22,20.55,111.52,20.36,108.82Zm-3.61-17,.77.22a4,4,0,0,0-.22-.69c-.12-.23-.45-.44-.43-.63.31-2.75.66-5.49,1-8.23.51-4.06,1.09-8.1,1.51-12.17.5-4.76,0-9.64,1.82-14.24a10.49,10.49,0,0,0,.55-2.42c.56-4.11.62-8.27,1.72-12.33,1-3.7,1.63-7.5,2.36-11.27.36-1.9.58-3.82.86-5.74L26,24.14a17.35,17.35,0,0,1-.72,2.14C23.64,29.67,22,33,20.32,36.42c-.71,1.45-1.42,2.9-2,4.39a24,24,0,0,0-1.51,9.56.87.87,0,0,0,.36.53c.28-.12.64-.26.76-.5.75-1.47,1.43-3,2.15-4.44a3.33,3.33,0,0,1,.6-.65,3,3,0,0,1,0,1.68c-.87,3.12-1.92,6.19-2.6,9.35-1.07,4.91-1.94,9.85-2.78,14.8-.31,1.82-.21,3.7-.47,5.53-.47,3.28-1.29,6.53-1.56,9.83-.45,5.58-.68,11.18-.81,16.78a56.51,56.51,0,0,0,.64,6.83C15.58,104.21,15.49,97.87,16.75,91.79ZM45.9,132.86l.58.1a6.14,6.14,0,0,0,.85-2c.14-4,.12-8.12.27-12.17.11-3-.06-6.09,1.63-8.83a4.6,4.6,0,0,0,.4-1.41c.67-3.24,1.41-6.48,1.95-9.75A30.57,30.57,0,0,0,52,93.16c0-2.15-.32-4.3-.56-6.43-.23-2,0-4.08-1.55-5.68a1.49,1.49,0,0,0-1.09-.28A13.8,13.8,0,0,0,47.14,84a49.8,49.8,0,0,0-1.24,6.28c-.22,1.64-.13,3.32-.3,5a4.3,4.3,0,0,1-.67,1.89c-.86,1.28-2.3,2.36-2.66,3.75a57.82,57.82,0,0,0-1.09,8.25,18.87,18.87,0,0,0,1,7.91,1.52,1.52,0,0,0,1.6,1.17c.38,0,1,.47,1.06.76.13,1.64.08,3.29.14,4.94.08,2.35.17,4.7.33,7A9.71,9.71,0,0,0,45.9,132.86Zm-11,45.55c.87-3.34-.53-6.77.79-10.08a2.81,2.81,0,0,0,.13-1c0-1.62.13-3.24,0-4.85a74.59,74.59,0,0,0-.87-8.73c-1.18-6.05-2.58-12.05-3.95-18.06C29.72,129.84,28.3,124,27,118.19c-.46-2-.83-3.93-1.23-5.89l-.59.09c.23,2.7.43,5.41.71,8.1.54,5.09.95,10.2,1.74,15.25.74,4.74,1.85,9.42,2.89,14.11.41,1.85,1.24,3.6,1.57,5.45.49,2.72.63,5.49,1,8.23.29,1.86.82,3.68,1.19,5.53a5.16,5.16,0,0,1,0,1.57,20.38,20.38,0,0,0-.43,2.86c0,2.57.22,5.14.34,7.71,0,.62,0,1.24,0,1.86l.35,0,.44-3.72,2.82-.77ZM34.35,50.5a9,9,0,0,0-.35,1c-.3,1.88-.66,3.75-.86,5.64q-.62,5.61-1.08,11.24c-.41,5-.79,9.92-1.11,14.88-.13,2.1-.08,4.2-.07,6.3,0,5.3-.06,10.61.14,15.9a70.9,70.9,0,0,0,1.07,9.28,80.55,80.55,0,0,0,2.2,9.85c1.13,3.72,3.32,7.08,3.71,11.07,0,.25.39.46.6.69.17-.3.51-.61.49-.89a25.66,25.66,0,0,0-.55-3.72c-1.64-6.67-3.51-13.29-4.92-20-.72-3.42-.66-7-.93-10.52a58.7,58.7,0,0,1-.5-7.47c.24-4.73.8-9.44,1.2-14.17.07-.87,0-1.76,0-2.63.18-2.47.46-4.93.61-7.4.16-2.67.27-5.34.31-8C34.39,58,34.35,54.36,34.35,50.5ZM10.66,85.55a3.3,3.3,0,0,0-.43.74c-.37,1.64-.75,3.28-1.08,4.93a35.72,35.72,0,0,0-.63,3.58c-.36,3.69-.74,7.38-.95,11.08-.26,4.45-.34,8.91-.51,13.37q-.13,3.44-.31,6.87c-.12,2.23-.36,4.46-.37,6.69,0,1.81.3,3.63.36,5.45,0,1-.22,1.92-.22,2.87s.18,1.94.25,2.92c.21,3.31.39,6.62.63,9.94a18.91,18.91,0,0,0,.4,2.9A16,16,0,0,1,8,164.81c-.07.25.1.57.16.86a7.25,7.25,0,0,0,.48-2.07,27.11,27.11,0,0,0,.13-10,33.07,33.07,0,0,1,.16-5.79c0-.39.17-.78.15-1.16-.16-3.53-.47-7.07-.47-10.6,0-3,.39-5.92.52-8.88.3-6.84.51-13.69.83-20.53.18-3.85.52-7.7.76-11.55.09-1.51.44-3.12.05-4.51a6,6,0,0,1,.17-3.91C11,86.48,10.79,86.14,10.66,85.55Zm21.92-33.1c-.2-1.22-.34-2-.46-2.86A2,2,0,0,0,30,47.75a2,2,0,0,0-2.39,1.65,2,2,0,0,1-.9,1.19c-1.39.64-1.62,1.83-1.73,3.14a6.37,6.37,0,0,1-.26,1.58,1.51,1.51,0,0,0,.37,1.79,2.56,2.56,0,0,1,.48,2.21,6,6,0,0,0,.68,6.24c.3.41.48,1.44.25,1.64-1.78,1.49-1.05,2.39.55,3.24.32.17.5.59.78.86.92.88,1.79.75,2.33-.4a4.85,4.85,0,0,0,.35-1.42c.37-3.09.71-6.18,1.08-9.27C31.93,57.49,32.29,54.78,32.58,52.45Zm50.1-49.7A4.18,4.18,0,0,0,78.53,5.4c-.38,1-.4,2.27-1,3.13-1.62,2.35-1.93,5.06-2.57,7.7a1.78,1.78,0,0,1-.81,1.12c-1,.43-2,.64-3,1a4.22,4.22,0,0,0-1.84.93c-2.22,2.82-3.39,5.9-1.7,9.42a2,2,0,0,0,1.14,1c.24.06.77-.49,1-.87,1.17-2.31,2.23-4.67,3.42-7a3.36,3.36,0,0,1,1.46-1.3,9.24,9.24,0,0,1,2.66-.78,2.32,2.32,0,0,0,2.19-2c.57-2.1.9-4.34,1.9-6.23A13.52,13.52,0,0,0,82.68,2.75ZM34.28,220l.36-.06c-.24-1.74-.56-3.48-.7-5.23-.41-5.06-2.6-9.73-3.11-14.78-.38-3.68-1.2-7.32-1.58-11a78.62,78.62,0,0,1-.37-9.21c.07-4.54.38-9.08.53-13.62,0-.45-.41-.9-.63-1.35-.36.38-1,.72-1.05,1.16a35.93,35.93,0,0,0-.65,4.75c-.25,3.83-.56,7.66-.57,11.5a63.31,63.31,0,0,0,.66,9.64c.43,2.71,1.49,5.31,2.15,8,.89,3.65,1.63,7.35,2.52,11C32.59,213.84,33.46,216.9,34.28,220ZM78.22,94.09c-1.22-.4-2.09-.71-3-1s-1-1-.68-1.72c.55-1.28,1.68-1.27,2.85-1.25.46,0,1.28-.24,1.31-.45.22-1.6.59-3.16-.21-4.81A12.55,12.55,0,0,1,77.19,80,9.82,9.82,0,0,1,78.29,76c1-2.34.91-4.77.83-7.21,0-.24-.33-.48-.5-.72-.22.22-.56.41-.64.67a13.67,13.67,0,0,0-.19,1.45c-.64,3.38-1.39,6.75-1.93,10.15-.4,2.46-.51,5-.79,7.43A6.48,6.48,0,0,1,73.49,92a9.88,9.88,0,0,0-1.89,2.9c-.71,1.6-1.2,3.3-1.82,4.94A4.9,4.9,0,0,1,69.1,101a4.85,4.85,0,0,1-.56.55,2.52,2.52,0,0,0,1,.06c.24-.09.37-.48.49-.65l2.79,1.43-1.09-3.11-1,1.24-.36-.28c1.2-2.25,1.83-4.83,3.76-6.71-.25,2.13-1.08,4.13-1.15,6.16s-.59,3.79-.69,5.81l1.6-.08c-.62-1,.07-2.94,1.12-3.7a2.53,2.53,0,0,0,.76-.9c.45-1,.86-1.94,1.22-2.94C77.46,96.61,77.81,95.37,78.22,94.09ZM23.71,219.25l.19,0c-.16-1.06-.23-2.13-.48-3.17-1-4.14-2.1-8.27-3.13-12.41-.44-1.8-.76-3.62-1.21-5.41-.07-.31-.51-.54-.77-.8-.2.32-.53.62-.57,1a13,13,0,0,0-.06,2.49,69.45,69.45,0,0,0,3.46,17.5c1.71,4.89,1.84,9.89,1.68,15a16.3,16.3,0,0,0,.41,3.32,1,1,0,0,0,.72.61.93.93,0,0,0,.71-.52,5.74,5.74,0,0,0,.59-2.23c-.11-1.85-.48-3.67-.66-5.52C24.26,225.77,24,222.51,23.71,219.25ZM45.6,279.89l.49-.15c-.1-.7-.26-1.39-.3-2.1s.16-1.43.06-2.12c-.33-2.26-.46-4.44,1-6.45a9.35,9.35,0,0,0,1.1-2.7,5.35,5.35,0,0,0-2.6-6.35,1.71,1.71,0,0,0-1.47,0,1.44,1.44,0,0,0-.24,1.37,1.77,1.77,0,0,1-.39,2.13c-1,1.36-2.05,2.7-3,4.12-1.51,2.32-1,3.66,1.7,4.3,1.23.3,2.44.47,2.14,2.21,0,.15.18.33.24.51.25.77.48,1.56.72,2.34l-.52.21-1.68-1.93-.29.62-1.12-.81-1,1.48,2.11,2.16.54-2.06a10.26,10.26,0,0,0,.85,2.53c.36-.39.69-.8,1-1.16Zm-33-37-.7.22c.14,3.16.1,6.35.47,9.49a53.42,53.42,0,0,0,1.9,9.85,79.61,79.61,0,0,0,4.22,9.46c.17.37.67.58,1,.86.15-.42.49-.87.43-1.25a37.4,37.4,0,0,0-1-4.7c-.9-3-2-6-2.89-9-.41-1.35-.38-2.86-.95-4.12-1.33-2.92-1.45-6-1.84-9.11A7,7,0,0,0,12.61,242.92ZM56.69,59.1a51.52,51.52,0,0,0,1.23-5.2c.29-2.24.27-4.53.47-6.78.23-2.6.61-5.19.81-7.79.22-2.77.31-5.55.42-8.33,0-.34-.26-.68-.51-1.33a64,64,0,0,0-3.46,16.19c-.35,3.34-.62,6.68-.83,10A2.75,2.75,0,0,0,56.69,59.1ZM51.07,10.4h-.29c-.13.49-.25,1-.42,1.46-1.15,3.35-2.42,6.66-3.44,10-.74,2.5-1.2,5.09-1.71,7.66a49,49,0,0,0-1.29,7.74c-.1,2.55-.78,5-.49,7.66s.08,5.18.12,7.78a3.69,3.69,0,0,0,.27,1.41.94.94,0,0,0,.83.35.9.9,0,0,0,.59-.65c0-4.86-.15-9.72-.2-14.58a10.7,10.7,0,0,1,.25-2.46C46.16,33,47.1,29.27,48,25.51c1-4.41,2.07-8.82,3.06-13.23A8.42,8.42,0,0,0,51.07,10.4ZM60.33,111l-.6-.06a6.16,6.16,0,0,0-.89.71c-1.68,1.85-1.66,4.18-1.79,6.47a39.71,39.71,0,0,0-.18,4.07,29.85,29.85,0,0,0,.59,4,12.13,12.13,0,0,1,.51,1.77c0,1.11.66,1.42,1.57,1.53a7.26,7.26,0,0,0,1.12.13c.58,0,1.16-.13,1.73-.2-.1-.53,0-1.21-.33-1.56-2.2-2.53-1.7-5.52-1.63-8.48C60.49,116.54,60.37,113.75,60.33,111ZM14.59,234.63l.57.13a8,8,0,0,0,.6-1.5c.57-3.49,1.1-7,1.64-10.49s-.52-7-1.43-10.34c-.39-1.45-.77-2.91-1.26-4.32-.12-.34-.67-.54-1-.8a3.24,3.24,0,0,0-.45,1.09c0,.88.1,1.76.16,2.64.16,2.31.33,4.62.47,6.93.12,1.76-.72,3.67.37,5.27,1.49,2.16,1.11,4.44.86,6.75Zm-7-65.85a2.6,2.6,0,0,0-.2.54c-.59,4.34-1.18,8.67-1.74,13-.48,3.66-1.32,7.33-.1,11a2.29,2.29,0,0,1,0,1.16c-.41,1.58-.89,3.14-1.28,4.72a5.77,5.77,0,0,0,0,1.38C7.25,192.36,9.39,170.81,7.62,168.78ZM34,238.17c0,.68,0,1.36,0,2a8.14,8.14,0,0,1,.18,2.05,16.69,16.69,0,0,0-.35,7.17c.55,3,1,6,1.48,9,.23,1.39.51,2.77.76,4.15l.5-.05c-.11-2.49-.2-5-.34-7.47-.07-1.16-.37-2.32-.36-3.48,0-3.06.3-6.12.19-9.18C36,240.93,36.25,239.13,34,238.17Zm20.15-77.88a4,4,0,0,0-.71.08c-.34,1.54-1,3.1-.88,4.62s1,3,1.45,4.49a2.85,2.85,0,0,1-.12,1.28c-.52,2.52-1.06,5-1.59,7.54-.15.7-.26,1.4-.42,2.25l-1.83-1.16-.65,1.35.35.18.32-.69c1,.47,1.65,1,.81,2.21,1.06-.34,2.27-.24,2.08-1.76l1.31,2.1.32-.19.11-1.35-1.21-.57c-.07-2.18-.18-4.34,1.39-5.68C54.63,170,53.42,165.23,54.17,160.29ZM12.26,126.2l-.5.06c0,1.1,0,2.2,0,3.3.09,3,.13,5.95.34,8.91.31,4.32.73,8.63,1.16,12.94a12.31,12.31,0,0,0,.6,2.11l.46-.11a4.91,4.91,0,0,0,.06-.66c-.07-2.1-.11-4.19-.26-6.28-.21-3.07-.48-6.13-.79-9.19-.14-1.3-.56-2.58-.67-3.89C12.47,131,12.39,128.6,12.26,126.2ZM45.43,57.47c-1.53.35-1.63.38-1.59,1.53.11,2.71.3,5.42.46,8.18,1.46,0,1.22-.89,1.24-1.53s-.1-1.55-.1-2.32C45.42,61.4,45.43,59.47,45.43,57.47ZM59.34,186c.06-.1.17-.2.19-.31.14-1,0-1.91.86-2.86.49-.52-.08-2.08-.23-3.16,0-.12-.42-.31-.62-.28-.73.12-1.45.32-2.17.49,1.56,3.69,1.56,3.69.31,4Zm4.81-84.49.7-.08c.16-4.94.81-9.88-.15-14.84-.25,1.78-.17,3.57-.27,5.35-.17,2.83.61,5.73-.61,8.5C63.7,100.72,64,101.17,64.15,101.53Zm2.33,121.62c-.17-1.11-.33-2.33-.57-3.54-.06-.32-.36-.59-.55-.88-.25.31-.66.59-.71.93-.22,1.5-.34,3-.49,4.54ZM13.77,46.7c-1.67-.16-3.32-.54-3,1.82L12,49.68c.69-1.11,1.69-.54,2.78,0,1.22-2.49-1.92-.72-1.89-2Zm62.66,54.68a2.1,2.1,0,0,0,1.84-.83c.4-.77.8-2,1.39-2.12,1.78-.38,1-.83.23-1.36l.8-.93-1.37.26V95.23h-.4v2.68l-.31-.22C77.89,98.92,77.17,100.14,76.43,101.38ZM66.23,16.2l.11-.53c-1-.08-2.21.06-1.25-1.44.09-.14-.09-.59-.27-.73-1.19-.94-1.62.61-2.47.84-.17.05-.21.84-.16,1.28a.85.85,0,0,0,.6.55C63.93,16.23,65.08,16.2,66.23,16.2ZM13.4,42.73l-1-.8-.74,1.53a5.51,5.51,0,0,0-.34,1.68c0,.21,0,.56.07.59a1.34,1.34,0,0,0,.72,0c.24,0,.49-.26.7-.22.67.14,1.32.36,2,.55l.15-.43L13.54,45l1.06-.4-.41-.46L13,44.68l-.22-.2,1.41-1.74L14,42.5Zm57.22,68.66-.66.71c0-.36-.09-.88.11-1a8.72,8.72,0,0,1,1.63-.94l-1.29-1.48-2,4.31a8,8,0,0,0,1.88.92c.36.09.85-.43,1.28-.67C70.39,113,71.39,111.85,70.62,111.39Zm-49.93,70c1.24.7,2.37,1.46,1.4,3l1.16.28L24.54,183l-1.73-.4,1.72-1.5-1.63.15-.37-1a6.24,6.24,0,0,1-.65.5C21.57,181,21.24,181.13,20.69,181.42Zm27.24-9.76c1.69-.89,2.45-.33,2.6,1.72l-1.42.24,1.19,1,1.08-.85L50.51,168l-.38,0,.14,3C49.23,170.05,48.68,170.16,47.93,171.66ZM27.07,42.72c0-2.26.32-2.66,2-2.31l-.64-2.56-.34.08.08.79H26.59v2.49a1,1,0,0,1-.07.46c-.18.31-.41.6-.61.9Zm53,50,1.8-.93-1.1-4.92a7.43,7.43,0,0,0-.67,1.77C80,90,80,91.28,80,92.73ZM64,274l-.68-.31a14.71,14.71,0,0,1-.84,2.09c-.63,1.09-1.39,2.1-2,3.17-.06.1.16.52.33.58s.64,0,.71-.13C62.3,277.64,63.13,275.83,64,274Zm-15.51.15c-.33,1.32-.32,2.82-1.05,3.73s-.24,1.51-.07,2.22l.44.07c.49-2.18,1-4.36,1.5-6.74l-1.94.42ZM18.88,35.6l-.1-.49c-.73.08-1.65.48-2.16.18-1.58-.93-2.16.16-3.16,1.18C15.67,37.22,17.07,35.44,18.88,35.6Zm23.33,7.58L37.63,42l-.2.47a7.31,7.31,0,0,0,.81.56,5.93,5.93,0,0,1,1.39.65C40.72,44.68,41.38,44.08,42.21,43.18ZM25,273.16c-.15.51-.52,1.16-.35,1.38a6.64,6.64,0,0,0,1.59,1.18c.2-.39.6-.81.56-1.18C26.64,273.48,26.07,272.83,25,273.16ZM69.51,91.64l.4.12V95l.27.07.69-3.3-1.18-.5.34-1c-1.81,1.32-1.92,1.55-1.19,2.39ZM19.14,81.07,18,85.45c1.38-.81,2.31-2.89,2-3.84ZM56.59,261.8l.38-.51c-.39-.11-1-.42-1.13-.3a5.54,5.54,0,0,0-.82,1.65c-.06.18.18.47.31.68a.27.27,0,0,0,.27.05c.89-.68,1.76-1.38,2.63-2.07l-.33-.43ZM21.69,81l-.81-.13-.63,3,2.07-.09-.87-.77Zm-8.2-8.73c-.82.15-1.52.11-1.6.32-.43,1.08-.7,2.22-1,3.35l.4.1Zm24.22,9.19V80.9h-3.2C35.35,82.49,35.48,82.5,37.71,81.46ZM7.2,259.92l1-4.82L7.6,255C7.57,256.61,6,258,7.2,259.92Zm52-129.76a4.77,4.77,0,0,1,.61,1.44c0,.5-.34,1-.39,1.5,0,.2.36.44.49.58.27-.71.44-1.26.68-1.78C61.37,130.3,61.38,130.3,59.22,130.16Zm-.47,132.49c-2.35.26-2.81,1.2-1.46,3.07l.18-2.11ZM32,35.55,31.91,35a27.27,27.27,0,0,0-2.88.31c-.18,0-.24.67-.37,1.1Zm20.39,71c2.69-1.84,2.92-2.39,2-3.45ZM18.21,25.26h-.33c-.13.94-.29,1.88-.33,2.83,0,.14.57.47.84.43a5.86,5.86,0,0,0,1.46-.66l-1.44-.42Zm45.65,107,.38.29,1.65-.45-.1-1.38-.47-.24Zm-22.8,1.31L44,130.87C42.64,130.45,41.72,131.26,41.06,133.54Zm23.51,106.8-.43-.49c-.32.26-.84.46-.93.78a13.39,13.39,0,0,0-.21,2.3l1.48-.86C63.29,241.4,63.89,240.87,64.57,240.34ZM8.84,257.75H9.3l.51-3.93-.79,0Zm48.73-63-1.13,2.48.59.32L58.78,195Zm10.86-94.58.57-.07c.25-.86-.88-2.06.69-2.76-.69,0-1.5.14-1.51.35A12.35,12.35,0,0,0,68.43,100.21Zm-50.22.68-.82.06.36,2.61.62-.06ZM63.45,281.13l.7-2.95-.6-.14-.38,1.81-.9-.24-.15.26ZM48.76,165.79l-.38-.33a6.08,6.08,0,0,0-1.05,1.71c-.08.34.5.83.79,1.25ZM6.11,163.24l.44-.32-.22-2.55-.4-.15A7.6,7.6,0,0,0,5.52,162C5.53,162.42,5.9,162.83,6.11,163.24ZM39.16,54l-1.31-.5-1,2.23.3.24ZM65.05,80.23H64.9l-.82,3.3,1,1.15Zm3,154.3-1.1-3.73C66.15,231.37,66.58,233.18,68,234.53Zm2.12-2.95-.93,1.31,1.1,1.64.55-.38ZM20.8,179.73l3.77-1.14-.17-.51C23.42,179.14,21.47,177.55,20.8,179.73ZM30.68,38l0,.34,1.6,1.44.43-.27c-.12-.45-.11-1.12-.4-1.3A3.91,3.91,0,0,0,30.68,38ZM26.53,201.17l-2.66-1.72-.24.28,1.44,1.3-.48,1.27c.5-.22.68-.28.83-.37S25.9,201.61,26.53,201.17ZM61.13,19.32c1.63-1.69,1.64-1.75.31-2.72ZM65.57,246c-.41.59-.75.89-.84,1.26a6.4,6.4,0,0,0,0,1.54L66.43,247ZM33.18,130.4l.48-.07c-.49-.92,1.13-2-.48-2.92ZM23.47,87l-3.18,1.57,2.45.22Zm38,133,.4,2,.38-.05.12-1.28,1.26-.55-.14-.38ZM54.6,272.7l-.58-.06-.38,3.88.5.05ZM21.47,79.12l-.7-2.41h-.32v2.83Zm25-1.19c-.87-1-1.83-.8-2.48.71ZM7.05,265.7l.29-2.5-.28,0-1.38,2.72Zm60.56-.84-1-1.11c-.26.71-1.44,1.34,0,2.16Zm2.1-168.68-.9.55L68,95l-.09,1.64ZM11.26,68.25c.48-.64.43-1.66,1.5-1.41a5.5,5.5,0,0,0,.39-.93,2.34,2.34,0,0,0-.85.09C11.51,66.42,10.71,66.87,11.26,68.25ZM25,126.56l-.34-.22c-.28.31-.87.73-.8.93a13,13,0,0,0,1.06,2.11l.21-.12Zm26.57,39.89-.73-3-.83,1.9ZM9.32,264.86H8.85v3.49h.47Zm11-174,.23-.21L19.64,88l-.91.75Zm16-40.07.36-.19L37,48.4,35.42,49ZM77.2,4.55l0-.41h-2.6l.28,1.17ZM44.34,122l-1.08.37L42.72,125l.45.14ZM37,53.34l1-1.48-1.68-.73Zm-2.34-6.4-.57.07.15,2.48.42,0ZM21.57,177.2c.31-.26.68-.43.74-.67a15.2,15.2,0,0,0,.27-1.93l-.56-.06ZM46.16,229l-.37.08-.27,2.54,1.22-.3A12.76,12.76,0,0,1,46.3,230C46.22,229.69,46.21,229.32,46.16,229Z"/><text class="cls-9" transform="translate(140.45 260.1)"><tspan class="cls-10">F</tspan><tspan x="6.68" y="0">ab</tspan><tspan class="cls-11" x="19.81" y="0">a</tspan><tspan class="cls-12" x="26.11" y="0">c</tspan><tspan x="32.09" y="0">ées </tspan></text><text class="cls-13" transform="translate(136.92 268.83)">Phaseolus vulgaris</text><path d="M55,10.44a1.8,1.8,0,0,0-.08.21s0,.12,0,.17-.11.08-.14,0-.24-.37-.2-.62,0-.2.2-.21a5.43,5.43,0,0,1,.57,0l.32,0,1.4,0,1.33-.05.81,0a1.22,1.22,0,0,0,.34,0,1.1,1.1,0,0,1,.87.15l1.07.5a.7.7,0,0,1,.49.57,2.86,2.86,0,0,0,.07.28.78.78,0,0,1,0,.26.25.25,0,0,0,.16.3c.15.05.16.14.14.27a2,2,0,0,0,.08,1,.25.25,0,0,1,0,.17,1.91,1.91,0,0,1-.5.72s0,0-.05.06a3.44,3.44,0,0,1-1.24.46c-.24,0-.49.07-.73.08s-.64,0-1,0l-1.14,0a.71.71,0,0,0-.29.05,2.44,2.44,0,0,1-1,.12c-.27,0-.54,0-.81,0l-.25,0a.22.22,0,0,1-.19-.22c0-.69-.08-1.38-.11-2.07a2.59,2.59,0,0,0-.08-.78,2.15,2.15,0,0,1,0-.8.89.89,0,0,0,0-.43Zm.91,1.36h0c.07-.1,0-.16-.06-.24a.44.44,0,0,1-.07-.47.27.27,0,0,0,0-.12.68.68,0,0,0-.22.49c0,.17,0,.35.08.53l.29.07Zm1.78-.54c-.37,0-.55.13-.57.42a2.26,2.26,0,0,0,.18,1,.34.34,0,0,0,.47.23,3.1,3.1,0,0,1,1-.12,1.87,1.87,0,0,0,.67-.15.42.42,0,0,0,.18-.66.75.75,0,0,1-.09-.15.66.66,0,0,0-.57-.44l-1-.09Zm-2.05,1.51c0,.07-.07.15,0,.19s.1,0,.16,0l.23-.1,0-.11.27,0-.19-.08-.13-.07a1.2,1.2,0,0,0-.08-.28s-.12-.06-.18-.09-.22,0-.22.12S55.43,12.71,55.66,12.77Zm3.11-2.33c-.05-.16-.11-.31-.32-.35C58.38,10.38,58.69,10.31,58.77,10.44Zm.46-.17c-.2,0-.2,0-.36,0,.06,0,.12.14.15.13A1.3,1.3,0,0,0,59.23,10.27Zm-1.1.1c0-.19,0-.24-.22-.24ZM56,13.16c-.15-.13-.15-.13-.23-.09S55.91,13.23,56,13.16Zm0-.91.08,0,0,0,0-.06Z"/><path d="M52.32,11.33a11,11,0,0,0-3.67-.19.74.74,0,0,0,.48.34,4.17,4.17,0,0,0,1,0,7.31,7.31,0,0,1,1.75-.07c.25,0,.36.16.29.4a2.25,2.25,0,0,1-.36.88.51.51,0,0,1-.43.24,2.09,2.09,0,0,1-.82-.09,1.76,1.76,0,0,0-.76,0l-.71,0-.19,0s0,.06,0,.09c.06.28.1.3.39.21a1.27,1.27,0,0,1,.67-.06,5.36,5.36,0,0,0,1.2,0h.72a.93.93,0,0,1,.22,0,2,2,0,0,0,.24,0c.28,0,.36-.09.34-.38s0-.19.12-.36c.15.09.12.24.12.37a2,2,0,0,0,.09.64,2.11,2.11,0,0,1,.1,1,.5.5,0,0,0,.11.42.47.47,0,0,1,.07.12c.08.26,0,.36-.26.37h-.19a1.47,1.47,0,0,0-.66,0,.69.69,0,0,1-.28-.05l-.43-.08,1-.16c0-.21,0-.24-.2-.25a23.55,23.55,0,0,0-2.52,0,.81.81,0,0,1-.61-.1.23.23,0,0,0-.12,0l-1.36,0c-.06,0-.16,0-.19,0a.18.18,0,0,1-.25.07.34.34,0,0,1-.21-.29c0-.13,0-.26,0-.39s0-.26,0-.39a3.51,3.51,0,0,1-.1-.92,1.47,1.47,0,0,0-.13-.62,2.31,2.31,0,0,1-.1-1.07c0-.21,0-.43,0-.64s0-.41,0-.61A.24.24,0,0,1,47,9.6a.87.87,0,0,0,.55,0,1.4,1.4,0,0,1,.54,0,4.17,4.17,0,0,0,.6.1c.65.06,1.3.12,1.94.16.35,0,.7,0,1,0l.62,0a.22.22,0,0,1,.23.21A1.84,1.84,0,0,1,52.32,11.33Zm-4.7,2.14,0,0c-.06,0-.14,0-.16-.07s0-.12,0-.19-.11,0-.12,0a.85.85,0,0,0,0,.23Zm-.12.94c.16-.12,0-.29.1-.39A.28.28,0,0,0,47.5,14.41Zm.27-.67v0a1.62,1.62,0,0,0-.22,0,.18.18,0,0,0-.1.11s.07.06.13.12v-.16Zm-.12-.85-.22-.11C47.48,13,47.48,13,47.65,12.89Z"/><path d="M24.72,14.55a2,2,0,0,0,0-.35,10.24,10.24,0,0,0,0-1.36.71.71,0,0,0-.06-.24c-.1-.2-.21-.22-.39-.08l-.32.26c-.3.23-.59.48-.91.68a2.22,2.22,0,0,1-.62.24.29.29,0,0,1-.2-.11,2,2,0,0,1-.18-.29l-.31-.5c0-.07-.1-.15-.09-.22,0-.3-.26-.39-.34-.61h-.05s0,.09,0,.13a.86.86,0,0,1-.1.52.78.78,0,0,0,0,.6,3.11,3.11,0,0,1,0,.86.82.82,0,0,0,0,.27.19.19,0,0,1-.15.24,3.28,3.28,0,0,1-1.08.07c-.18,0-.23-.09-.22-.26s0-.53.05-.79a3.47,3.47,0,0,0-.05-.85A5.58,5.58,0,0,1,19.7,12c0-.56,0-1.13-.06-1.69V10h.19L21.14,10a.38.38,0,0,1,.38.2,2.05,2.05,0,0,1,.34.57s.08.07.13.1.12,0,.14.09a3.88,3.88,0,0,0,.4.57.73.73,0,0,0,.14.16c.09,0,.14,0,.16-.1a1.63,1.63,0,0,1-.17-.11.91.91,0,0,1-.2-.24.17.17,0,0,1,.07-.24.18.18,0,0,1,.24.07.59.59,0,0,1,.07.2l.07.26c.08-.08.14-.12.18-.17a.67.67,0,0,1,.26-.21,3.09,3.09,0,0,0,.81-.68c.14-.17.28-.36.43-.56l2.07-.08c0,.19,0,.35-.05.51l-.12.9a1.14,1.14,0,0,1-.07.32,5.57,5.57,0,0,0-.08,1.15c-.05.51-.08,1-.12,1.52l0,.25c0,.2-.1.26-.29.25l-1.11-.09Zm-4.5-2.48c-.06.09-.21.08-.17.23h.28Zm-.06.74c.06-.11.11-.18,0-.28C20.08,12.61,20.11,12.69,20.16,12.81Zm.33.08,0-.06-.23.11C20.35,13,20.41,12.92,20.49,12.89Zm4.71-1.77,0,0v0H25v.06Zm.14-.5v0c-.07,0-.13-.08-.22,0ZM20.14,12l0,0,.09-.12,0,0Zm1.41-.51.1.09.07-.06-.06-.06Z"/><path d="M42.76,11.2c-.07.07-.14.16-.27.1s-.08,0-.12,0l-.32.18a.28.28,0,0,0-.15.27c0,.25,0,.51,0,.76a.85.85,0,0,0,.31.53,1,1,0,0,0,1.1.28,2,2,0,0,0,.72-.4.49.49,0,0,1,.65-.13,1,1,0,0,0,.65.11.38.38,0,0,1,.21,0c.22.13.43.27.64.41a.16.16,0,0,1,.07.23c-.06.17-.1.35-.3.43a.37.37,0,0,0-.13.2c-.15.29-.23.33-.56.31a.22.22,0,0,0-.14,0l-.52.16a.36.36,0,0,0-.17.15c-.09.19-.12.2-.27,0l0,0c-.15,0-.27.09-.26.26l-.13,0A9.75,9.75,0,0,1,42,15.05a.56.56,0,0,1-.29-.16,4.44,4.44,0,0,0-.55-.42,1.85,1.85,0,0,1-.81-.73s0-.08-.07-.13c-.1-.28-.21-.57-.32-.85l0-.07a1.48,1.48,0,0,1-.14-1.4q.09-.31.21-.63c.14-.32.3-.46.61-.44a1.59,1.59,0,0,0,.48-.07c.58-.15,1.15-.33,1.74-.47a4.24,4.24,0,0,1,.88-.11,2.69,2.69,0,0,1,.62.11l1.14.32a1.22,1.22,0,0,1,.56.35.65.65,0,0,1,.11.56s0,.07-.07.1a1.12,1.12,0,0,1-.59.28.27.27,0,0,0-.26.19c-.09.24-.32.32-.49.47s-.17,0-.25,0-.28-.23-.43-.33a.92.92,0,0,0-.24-.13L43,11.24Zm-1.44,3c-.08-.09-.15-.16-.2-.23s-.13-.07-.24,0l.34.33Zm-1-2.38c-.06.06-.14.1-.17.16s.06.09.09.14S40.34,12,40.28,11.81Zm.53,1.31-.3-.1.08.25A.2.2,0,0,0,40.81,13.12Zm-.35-.65c.18,0,.18,0,.29-.06C40.62,12.38,40.62,12.38,40.46,12.47Zm1,1.77c.06.21.06.21.19.11Zm-1.15-2.67c.12-.17.12-.17,0-.21Zm.11.68,0-.06-.15,0s0,0-.05.08Zm1.08-1.94,0-.05-.12-.07,0,.05Zm.37-.1s-.07.07-.07.09l.06.07s0,0,0-.07A.31.31,0,0,0,41.89,10.21Zm-1.07,3.43h0l0,.18h0Zm1.2.9,0,.05.13,0s-.05-.06-.07-.06Z"/><path d="M64.84,12.65c0,.14,0,.25,0,.35s0,.3.18.36a.42.42,0,0,1,.12.08.21.21,0,0,0,.27,0,.51.51,0,0,1,.21-.06l1.81-.19a1.24,1.24,0,0,1,.27,0,1.86,1.86,0,0,0,.78-.08c.08,0,.16,0,.28-.06,0,.14,0,.25,0,.36s0,.41,0,.61a.38.38,0,0,1-.17.4.73.73,0,0,1-.49.17c-.19,0-.37.05-.56.05s-.33,0-.49,0h-.5l-1.13,0-1.6.14c-.16,0-.33.11-.51,0a1.83,1.83,0,0,0,0-1c-.05-.42-.14-.83-.2-1.24s-.09-.68-.13-1a.87.87,0,0,0-.07-.31,3.65,3.65,0,0,1-.23-.92c0-.1,0-.2,0-.3s0-.26.2-.3a2.92,2.92,0,0,1,.66-.09c.83,0,1.66-.06,2.49-.07.43,0,.86,0,1.3,0s.65,0,1,0c0,.11.08.24.11.37a5.41,5.41,0,0,1,.07.58c0,.23-.07.34-.3.35a4,4,0,0,1-.49,0l-.46-.06-.71-.07-.91-.08a6.84,6.84,0,0,0-1.25.14c0,.17.08.31.13.44a.3.3,0,0,0,.33.17l1.53-.06c.52,0,1.05,0,1.58,0a1.68,1.68,0,0,1,.37.06,8.1,8.1,0,0,1,0,1.1l-.18.17a.48.48,0,0,1-.4,0,1,1,0,0,0-.81-.17c-.4,0-.82.08-1.23.11-.13,0-.26,0-.39,0A2.73,2.73,0,0,0,64.84,12.65Zm2.88,1.07c-.09-.13-.18,0-.28,0v.06l.28,0c.07,0,.11.12.22.06C67.88,13.67,67.79,13.72,67.72,13.72Zm.31.2c.09.15.19.16.3,0A.23.23,0,0,1,68,13.92Zm-1-.06v0s0,0,.07,0l.09,0v0Zm.33.2V14l-.1,0v0Zm.46.16s0,0,.06,0,0,0,0,0a.18.18,0,0,0-.07-.05Z"/><path d="M24.26,22.79l.07-.3a.52.52,0,0,1,.07-.15,1,1,0,0,0,.27-.43c.1-.22.2-.26.43-.2a7.69,7.69,0,0,0,1.19.31,5.09,5.09,0,0,0,1.35,0c.1,0,.15-.06.16-.16s-.07-.11-.15-.12-.4-.11-.62-.12a3.68,3.68,0,0,1-1.16-.38l-1-.39a.55.55,0,0,1-.28-.86.81.81,0,0,0,.17-.6.56.56,0,0,1,.1-.29,2.78,2.78,0,0,1,.21-.27.91.91,0,0,1,.69-.43,5.86,5.86,0,0,1,1.45,0l1.25.07a4.1,4.1,0,0,1,.49.06l.94.19a.27.27,0,0,1,.12,0c.09.05.2.1.2.23a.33.33,0,0,1-.17.25,4,4,0,0,0-.38.34l-1-.13a2.08,2.08,0,0,0-.35,0c-.31,0-.62.06-.93,0a1.1,1.1,0,0,0-.67.19c-.06,0-.14.14-.13.19a.28.28,0,0,0,.19.16,5,5,0,0,0,.56.06h.12a.37.37,0,0,1,.44.24.57.57,0,0,0,.11.12,1.42,1.42,0,0,0,.12-.13.62.62,0,0,1,.78-.23,1.67,1.67,0,0,1,.51.3,6.53,6.53,0,0,0,.74.52.68.68,0,0,1,.29.52A1.49,1.49,0,0,1,30,22.66a1.38,1.38,0,0,1-.63.36,1.88,1.88,0,0,0-.42.22,3.07,3.07,0,0,1-.9.24c-.38.07-.78.11-1.17.15a.87.87,0,0,1-.36,0,2.11,2.11,0,0,1-.84-.33.57.57,0,0,0-.26-.08l-.75-.14A.55.55,0,0,1,24.26,22.79Z"/><path d="M35.21,12.27c0,.13-.07.24-.09.36-.08.44-.15.88-.23,1.31a2.07,2.07,0,0,1-.15.44c-.09.17-.14.18-.32.15L34,14.45l-.75-.08s0-.08,0-.12a2.56,2.56,0,0,0,0-.27,17.77,17.77,0,0,0,0-2.06c0-.32,0-.64,0-1a2.33,2.33,0,0,0,0-.59c-.05-.18-.09-.37-.13-.57,0,0,0,0,0,0l0,0H35a.8.8,0,0,0,.41.44c.21.15.39.33.59.49a1.2,1.2,0,0,0,.24.15.62.62,0,0,1,.35.4.54.54,0,0,0,.39.43c.13.06.22.1.2.26s.06.11.14.09a.28.28,0,0,0,.21-.24c0-.13,0-.27,0-.4a2.91,2.91,0,0,0,0-.31,3.07,3.07,0,0,0-.07-.42,1.42,1.42,0,0,1,0-.2,1,1,0,0,1,0-.17.52.52,0,0,1,.22-.53h1.12a1.47,1.47,0,0,0,.29-.05l.12,0H40a.28.28,0,0,1,.13,0A.19.19,0,0,1,40,10a.87.87,0,0,0-.37.34c-.1.16-.14.17-.33.1l-.2-.06a.78.78,0,0,0-.12.4c0,.26-.07.52-.1.77a1.18,1.18,0,0,0,0,.37,5.19,5.19,0,0,1,.1,1.3c0,.45,0,.9,0,1.39-.05,0-.14.09-.21.07a3.24,3.24,0,0,0-.76,0,.35.35,0,0,1-.31-.15,2.17,2.17,0,0,0-.52-.53,2.91,2.91,0,0,1-.56-.55c-.22-.24-.42-.51-.65-.74a1.25,1.25,0,0,0-.41-.26A2,2,0,0,0,35.21,12.27Zm1.22.45,0,.07.33.14-.09.1.19,0c.06-.19-.12-.21-.17-.28s.07-.25-.07-.35C36.58,12.54,36.66,12.72,36.43,12.72Zm0-.09a.49.49,0,0,0-.12-.45.73.73,0,0,0-.1.25c0,.06.1.11.16.16A.09.09,0,0,0,36.43,12.63Zm-.8-.76v.06l.29,0v0Zm2.08,1.89c0,.1,0,.2.17.14s0-.05,0-.07ZM34,13.4l-.1-.17C33.83,13.36,33.86,13.4,34,13.4ZM36,12.12c.1.16.1.16.2.13C36.08,12.15,36.08,12.15,36,12.12Zm2.33.75-.08,0a.22.22,0,0,0,0,.05l.06,0Zm.12.44v0l.14,0,0,0Zm-1.57-1.18-.06,0,0,.09,0,0A.29.29,0,0,0,36.83,12.13ZM34.25,9.91l-.09,0,0,0a.1.1,0,0,0,0,0Z"/><path d="M30.63,11.15c-.5,0-1,0-1.51-.06-.25,0-.31,0-.34.18a.37.37,0,0,0,.3.44,2.55,2.55,0,0,0,.39,0h2.22c.33,0,.46.18.34.5a1.59,1.59,0,0,1-.18.37.47.47,0,0,1-.21.16,2,2,0,0,1-.74,0l-1.43,0h-.1c-.1,0-.2.07-.22.2a.23.23,0,0,0,.17.26.69.69,0,0,0,.24.05,11.81,11.81,0,0,0,2-.16,4.07,4.07,0,0,1,.61-.08c.22,0,.24,0,.25.23a.61.61,0,0,1-.11.42c-.06.08-.1.17,0,.25a.48.48,0,0,1,.11.34c0,.12,0,.25,0,.37a.23.23,0,0,1-.29.27,5.89,5.89,0,0,1-.82-.15,7,7,0,0,0-1.44-.19,14.45,14.45,0,0,1-1.74-.18.86.86,0,0,0-.39,0c-.22,0-.27,0-.29-.18a8.42,8.42,0,0,1-.12-1.42c0-.12.05-.24.07-.36s0-.08,0-.11a4.4,4.4,0,0,1-.14-1.25.7.7,0,0,1,.13-.38.29.29,0,0,0,0-.32,1,1,0,0,1-.14-.28.59.59,0,0,1,0-.26.14.14,0,0,1,.17-.14l.49,0c.48,0,.95.09,1.43.12.24,0,.49,0,.74,0a14,14,0,0,1,2,.15c.37,0,.47.18.45.56a2,2,0,0,0,0,.25c0,.2-.06.26-.27.26H30.63Zm-2.74.25.08.42.2,0C28,11.69,28.16,11.45,27.89,11.4Zm0-.83a.51.51,0,0,0-.22-.28C27.67,10.54,27.67,10.54,27.85,10.57Zm.07,1.66.26-.11C28,12.07,28,12,27.92,12.23Zm.19.68v0l-.13,0v0Z"/><path d="M14.06,9.93c.17,0,.16,0,.35.12a.42.42,0,0,0,.33,0,1.45,1.45,0,0,1,.77-.07c.48,0,1,0,1.43,0h2.19l.08,0c0,.06,0,.14-.07.16-.26.13-.22.38-.24.6a.4.4,0,0,1-.32.33,6,6,0,0,1-1,0c-.42,0-.85,0-1.28,0-.23,0-.46,0-.69,0l-.17,0c0,.42,0,.43.44.41s.69-.06,1-.06.8,0,1.2,0a.64.64,0,0,1,.18.06c0,.21,0,.4-.05.6s0,.39,0,.59,0,.2-.18.19l-.17,0a1.55,1.55,0,0,0-.21,0l-1.13.06c-.34,0-.68,0-1,0h-.27l.07.46h.47l1.9-.1,1,0c.19,0,.24,0,.22.21a3.87,3.87,0,0,0,.05,1c0,.26-.05.35-.3.32a12.74,12.74,0,0,0-2.05,0c-.46,0-.92,0-1.38,0l-1.11-.06c0-.72-.15-1.41-.1-2.13a.33.33,0,0,0,.3-.31c0-.12,0-.2-.12-.24s-.21-.2-.19-.38.1-.65.14-1a.37.37,0,0,0,0-.21A1,1,0,0,1,14.06,9.93Zm.28,1.21c-.12-.08-.17,0-.21.07s0,.16.12.18Zm.27.47,0,0-.17-.05v0Zm.11-.29,0,0h.22v0Z"/><path d="M8.16,13.08a2.71,2.71,0,0,1,.34.18,1.94,1.94,0,0,1,.29.21.48.48,0,0,0,.43.16,9.91,9.91,0,0,1,1.09,0l.86,0c.1,0,.16,0,.17-.16a.52.52,0,0,1,.08-.19.4.4,0,0,0,.07-.41l-.18.08a.47.47,0,0,1-.57-.08.27.27,0,0,0-.29-.07c-.12.05-.29,0-.34.19l-.06,0a1.7,1.7,0,0,1-1,0L9,13l-.68-.53a.43.43,0,0,1-.13-.17,1.21,1.21,0,0,1-.1-.75A4.54,4.54,0,0,1,8.2,11a2.33,2.33,0,0,1,.21-.49.3.3,0,0,1,.18-.15c.29-.12.58-.23.88-.33a7.47,7.47,0,0,1,1.34-.2,7.53,7.53,0,0,1,.83-.08,1.85,1.85,0,0,1,1,.21,1.34,1.34,0,0,1,.38.37.49.49,0,0,1-.37.72A1.24,1.24,0,0,1,12,11a2.09,2.09,0,0,0-.51-.08.43.43,0,0,1-.41-.32.5.5,0,0,1-.5.18,5.43,5.43,0,0,0-.57,0l-.26,0c0,.13,0,.26-.17.34s0,.15.06.21a1.14,1.14,0,0,0,1.09.23.56.56,0,0,1,.42,0,1.81,1.81,0,0,0,.31.09l.39,0c.16,0,.33,0,.49,0a.54.54,0,0,1,.28.08A1.12,1.12,0,0,1,13.17,13a1.67,1.67,0,0,0,0,.59.75.75,0,0,1-.34.73.62.62,0,0,0-.14.14,1,1,0,0,1-.64.32,13.33,13.33,0,0,1-1.55,0c-.06,0-.13,0-.17,0s-.28,0-.42,0a4.9,4.9,0,0,0-.54,0,.14.14,0,0,0-.09,0c-.12.15-.23.09-.36,0A6.08,6.08,0,0,1,8,14.24a.45.45,0,0,1-.17-.44A2.37,2.37,0,0,1,8.16,13.08ZM10.57,10v0l-.43.06v0Z"/><path d="M19.87,23.2h-1a1.22,1.22,0,0,0-.46.09.42.42,0,0,1-.56-.16,4.67,4.67,0,0,0-.73-.68.83.83,0,0,0-.32-.13,3.58,3.58,0,0,0-1,0l-.29,0c-.31,0-.4.09-.44.39a1.06,1.06,0,0,1-.22.51.27.27,0,0,1-.39,0c-.19-.24-.45-.24-.7-.29s-.36,0-.54-.05L13,23c.07-.19.13-.37.2-.54a1.46,1.46,0,0,0,.07-.19.69.69,0,0,1,.26-.4,4.43,4.43,0,0,0,.82-1c.25-.43.49-.86.73-1.3.15-.26.29-.53.44-.8s.25-.33.59-.3.53,0,.79,0,.34.06.41.3A5.86,5.86,0,0,0,18,20c.14.24.24.5.36.76a.75.75,0,0,0,.06.13A5.89,5.89,0,0,1,19,22.1c.07.16.14.32.36.31h0C19.6,22.64,19.88,22.81,19.87,23.2Zm-3.7-2.46a.83.83,0,0,0,.21.06.29.29,0,0,0,.19-.1.35.35,0,0,0-.06-.43c-.07-.07-.14-.14-.25-.08a.26.26,0,0,0-.14.28C16.13,20.56,16.15,20.64,16.17,20.74Z"/><path d="M12.4,18.57l-.1-.16a1,1,0,0,1,1,.42,1,1,0,0,1,.25.75,2,2,0,0,0,0,.34.88.88,0,0,1-.6,1,.44.44,0,0,0-.15.08,2.68,2.68,0,0,1-1.52.48l-1.18.1c.07.27.06.29-.24.45a1.84,1.84,0,0,1,.08.84l.18.05S10,23,10,23l-1.28-.07c-.21,0-.43,0-.65,0H7.85A3.34,3.34,0,0,1,8,22.06a1.37,1.37,0,0,0,.05-.58,5.83,5.83,0,0,1,0-1.32,2,2,0,0,0,0-.35c0-.32,0-.64,0-.95a.78.78,0,0,1,.14-.54l.81,0,1,.06,1.64.17A2.17,2.17,0,0,0,12.4,18.57Zm-2.64,1a.75.75,0,0,0-.16.69.29.29,0,0,0,.31.26,1,1,0,0,0,.39,0,2.47,2.47,0,0,1,1-.12c.18,0,.24,0,.27-.19s0-.32-.17-.35a.79.79,0,0,0-.62,0,.24.24,0,0,1-.38-.13.22.22,0,0,0-.22-.15Z"/><path d="M23.15,23.47a3.82,3.82,0,0,1-1.44,0l-.91-.22a.83.83,0,0,1-.22-.08.36.36,0,0,1,.19-.24.31.31,0,0,0,.16-.43c-.07-.23-.16-.45-.24-.67a.53.53,0,0,1,0-.21.52.52,0,0,0-.14-.46,1.57,1.57,0,0,0-.21-.24c-.16-.16-.16-.39-.29-.56l-.47-.57-.32-.37c-.13-.15-.28-.29-.41-.45s-.18-.25-.29-.4c.07,0,.11-.1.17-.11l.75-.11c.26,0,.53,0,.79,0s.33.06.42.31a3.58,3.58,0,0,0,.21.39c.11.2.22.39.34.57a.28.28,0,0,0,.42.12c.14-.07.28-.12.28-.33a.52.52,0,0,1,.16-.32.65.65,0,0,0,.18-.36.87.87,0,0,1,.14-.29.26.26,0,0,1,.17-.12,1.14,1.14,0,0,1,.79.09,2.31,2.31,0,0,0,.79.34c.15,0,.19.15.09.26a5.91,5.91,0,0,0-.58,1,10.17,10.17,0,0,1-.94,1.41.61.61,0,0,0-.17.37,5,5,0,0,1-.15.67.38.38,0,0,0,.14.43A8.31,8.31,0,0,1,23.15,23.47Z"/><path class="cls-14" d="M55.66,12.77c-.23-.06-.2-.28-.21-.47s.1-.18.22-.12.14,0,.18.09a1.2,1.2,0,0,1,.08.28l.13.07.19.08-.27,0,0,.11-.23.1c-.06,0-.12.09-.16,0S55.64,12.84,55.66,12.77Zm.17-.17,0,.05a.07.07,0,0,0,.05,0l0,0Zm-.19-.16s0,0,0,.05,0,0,0,0l0,0A.25.25,0,0,0,55.64,12.44Z"/><path class="cls-14" d="M55.93,11.8v.27L55.64,12c0-.18,0-.36-.08-.53a.68.68,0,0,1,.22-.49.27.27,0,0,1,0,.12.44.44,0,0,0,.07.47c0,.08.13.14.06.24-.14-.12-.15,0-.21.09C55.85,12,55.88,11.85,55.93,11.8Z"/><path class="cls-14" d="M58.77,10.44c-.08-.13-.39-.06-.32-.35C58.66,10.13,58.72,10.28,58.77,10.44Z"/><path class="cls-14" d="M59.23,10.27a1.3,1.3,0,0,1-.21.16s-.09-.08-.15-.13C59,10.22,59,10.22,59.23,10.27Z"/><path class="cls-14" d="M58.13,10.37l-.22-.24C58.09,10.13,58.14,10.18,58.13,10.37Z"/><path class="cls-14" d="M56,13.16c-.12.07-.17,0-.23-.09S55.88,13,56,13.16Z"/><path class="cls-14" d="M56,12.25l.08-.06,0,.06,0,0Z"/><path class="cls-14" d="M47.62,13.47l-.31,0a.85.85,0,0,1,0-.23s.08,0,.12,0,0,.15,0,.19.1.05.16.07Z"/><path class="cls-14" d="M47.5,14.41a.28.28,0,0,1,.1-.39C47.47,14.12,47.66,14.29,47.5,14.41Z"/><path class="cls-14" d="M47.77,13.74l-.2,0v.16c-.06-.06-.13-.09-.13-.12a.18.18,0,0,1,.1-.11,1.62,1.62,0,0,1,.22,0Z"/><path class="cls-14" d="M47.65,12.89c-.17.08-.17.08-.22-.11Z"/><path class="cls-14" d="M20.22,12.07l.11.23h-.28C20,12.15,20.16,12.16,20.22,12.07Z"/><path class="cls-14" d="M20.16,12.81c-.05-.12-.08-.2,0-.28C20.27,12.63,20.22,12.7,20.16,12.81Z"/><path class="cls-14" d="M20.49,12.89c-.08,0-.14.12-.26,0l.23-.11Z"/><path class="cls-14" d="M25.2,11.12H25v-.06h.19v0Z"/><path class="cls-14" d="M25.34,10.62h-.21c.09-.12.15-.06.22,0Z"/><path class="cls-14" d="M20.14,12l.1-.12,0,0-.09.12Z"/><path class="cls-14" d="M21.55,11.47l.11,0,.06.06-.07.06Z"/><path class="cls-14" d="M41.32,14.19l-.1.09L40.88,14c.11-.06.18-.08.24,0S41.24,14.1,41.32,14.19Z"/><path class="cls-14" d="M40.28,11.81c.06.14.09.24-.08.3s-.1-.12-.09-.14S40.22,11.87,40.28,11.81Z"/><path class="cls-14" d="M40.81,13.12a.2.2,0,0,1-.22.15L40.51,13Z"/><path class="cls-14" d="M40.46,12.47c.16-.09.16-.09.29-.06C40.64,12.49,40.64,12.49,40.46,12.47Z"/><path class="cls-14" d="M41.48,14.24l.19.11C41.54,14.45,41.54,14.45,41.48,14.24Z"/><path class="cls-14" d="M40.33,11.57l0-.21C40.45,11.4,40.45,11.4,40.33,11.57Z"/><path class="cls-14" d="M40.44,12.25h-.18c0-.05,0-.08.05-.08l.15,0Z"/><path class="cls-14" d="M41.52,10.31l-.12-.07,0-.05.12.07Z"/><path class="cls-14" d="M41.89,10.21a.31.31,0,0,1,0,.09s0,0,0,.07l-.06-.07S41.85,10.25,41.89,10.21Z"/><path class="cls-14" d="M40.82,13.64v.18h0l0-.18Z"/><path class="cls-14" d="M42,14.54l.08,0s0,0,.07.06l-.13,0Z"/><path class="cls-14" d="M68,13.92a.23.23,0,0,0,.3,0C68.22,14.08,68.12,14.07,68,13.92Z"/><path class="cls-14" d="M67.72,13.72l-.28,0v-.06c.1,0,.19-.1.28,0Z"/><path class="cls-14" d="M67.05,13.86h.14v0l-.09,0s0,0-.07,0Z"/><path class="cls-14" d="M67.72,13.72c.07,0,.16-.05.22.06-.11.06-.15,0-.22-.06Z"/><path class="cls-14" d="M67.38,14.06l-.1,0v0l.1,0Z"/><path class="cls-14" d="M67.84,14.22l0-.05a.18.18,0,0,1,.07.05s0,0,0,0S67.86,14.24,67.84,14.22Z"/><path class="cls-14" d="M36.43,12.72c.23,0,.15-.18.21-.3.14.1,0,.23.07.35s.23.09.17.28l-.19,0,.09-.1-.33-.14Z"/><path class="cls-14" d="M36.43,12.63a.09.09,0,0,1-.06,0c-.06-.05-.15-.1-.16-.16a.73.73,0,0,1,.1-.25A.49.49,0,0,1,36.43,12.63Z"/><path class="cls-14" d="M35.63,11.87h.28v0l-.29,0Z"/><path class="cls-14" d="M37.71,13.76l.22.07s0,.06,0,.07S37.74,13.86,37.71,13.76Z"/><path class="cls-14" d="M34,13.4c-.15,0-.18,0-.1-.17Z"/><path class="cls-14" d="M36,12.12c.13,0,.13,0,.2.13C36.05,12.28,36.05,12.28,36,12.12Z"/><path class="cls-14" d="M38.28,12.87l-.05.06-.06,0a.22.22,0,0,1,0-.05Z"/><path class="cls-14" d="M38.4,13.31l.13,0,0,0-.14,0Z"/><path class="cls-14" d="M36.83,12.13a.29.29,0,0,1,0,.09l0,0,0-.09Z"/><path class="cls-14" d="M34.25,9.91l-.1,0a.1.1,0,0,1,0,0l0,0Z"/><path class="cls-14" d="M27.89,11.4c.27,0,.09.29.28.39l-.2,0Z"/><path class="cls-14" d="M27.85,10.57c-.18,0-.18,0-.22-.28A.51.51,0,0,1,27.85,10.57Z"/><path class="cls-14" d="M27.92,12.23c0-.19.12-.16.26-.11Z"/><path class="cls-14" d="M28.11,12.91l-.12,0v0l.13,0Z"/><path class="cls-14" d="M14.34,11.14l-.09.25c-.08,0-.16-.06-.12-.18S14.22,11.06,14.34,11.14Z"/><path class="cls-14" d="M14.61,11.61l-.16-.06v0l.17.05Z"/><path class="cls-14" d="M14.72,11.32l.2,0v0H14.7Z"/><path class="cls-14" d="M10.57,10l-.43.06v0l.43-.06Z"/><path class="cls-14" d="M16.17,20.74c0-.1,0-.18-.05-.27a.26.26,0,0,1,.14-.28c.11-.06.18,0,.25.08a.35.35,0,0,1,.06.43.29.29,0,0,1-.19.1A.83.83,0,0,1,16.17,20.74Z"/><path class="cls-14" d="M9.76,19.54h.39a.22.22,0,0,1,.22.15.24.24,0,0,0,.38.13.79.79,0,0,1,.62,0c.12,0,.19.22.17.35s-.09.19-.27.19a2.47,2.47,0,0,0-1,.12,1,1,0,0,1-.39,0,.29.29,0,0,1-.31-.26A.75.75,0,0,1,9.76,19.54Z"/><path d="M55.83,12.6l.05.05,0,0a.07.07,0,0,1-.05,0Z"/><path d="M55.64,12.44a.25.25,0,0,1,0,.07l0,0s0,0,0,0S55.61,12.46,55.64,12.44Z"/><path d="M55.93,11.8s-.08.15-.21.1c.06-.08.07-.21.21-.09Z"/></g></g></svg>