<svg xmlns="http://www.w3.org/2000/svg" viewBox="0 0 154.75 376.97"><defs><style>.cls-1{opacity:0.4;}.cls-2{fill:#702a2c;}</style></defs><g id="Calque_2" data-name="Calque 2"><g id="Calque_1-2" data-name="Calque 1"><g class="cls-1"><path class="cls-2" d="M21.41,12.16c3.13-1.05,5.76-1.79,7.5-4.48A11.84,11.84,0,0,1,32,4.7c2.25-1.64,4.62-3.11,7-4.7,2.83,2.82,3.13,7.15,4.22,11.19,1.21,4.5,2.61,9,4.1,13.36a74.9,74.9,0,0,0,3.86,10C52.82,37.84,55,40.86,57,44.05c1.08,1.79,2.1,3.63,3.11,5.48a1.89,1.89,0,0,1,.27,1.32c-1.11,3.37,1.29,4.82,3.32,6.09,3.46,2.15,7.12,4,10.74,5.82,4.59,2.39,9.23,4.7,13.84,7.05.34.17.69.58,1,.54a5.69,5.69,0,0,1,4.81,1.91c2.28,2.15,5.22,3.65,6.3,7-1.87-1.26-3.07-3.84-5.78-3.29-.42.08-.69.92-1.14,1.56l2.15,1L95.19,77,97,77.7,96.72,80c2.61.76,2.94,1.26,2.39,4.09-.2,1-.41,2.27-2.12,1.4l-.06.58,2.14,1.18,2.54-1.12,0,3.35,2.84-1.39,1,2.37.43-2.13h.4a7.65,7.65,0,0,0,0,2.08,8.73,8.73,0,0,0,1.1,1.91l.63-1.23.34.16c-.35.85-.69,1.7-1,2.4l2.13,2.1.25-3.27c1.89.65.44,2.09.7,3,.34,1.2.67,2.4,1,3.61.7-.8.7-.8-.21-4.13L113.52,97l-.8,1.82,1.46.6.31-4.11,2.91,3.17c1.79-1.49,1.46-3-.63-4.26-2.67-1.65-5.07-3.76-7.62-5.62-2.09-1.53-4.35-2.83-6.3-4.53-1.15-1-1.84-2.56-2.74-3.87l.46-.36c2.09,2.14,4.17,4.28,6.27,6.42a2.48,2.48,0,0,0,.51.41,28.14,28.14,0,0,1,3.05,1.81,12.33,12.33,0,0,0,3.67,2.07,15.55,15.55,0,0,1,6,4.45c.67.74.24,2.78,0,4.15-.57,3,1,5.25,4,5.64a3.32,3.32,0,0,1,2,1.54,50.84,50.84,0,0,1,2.62,5.28c1.06,2.35,1.92,4.8,3.08,7.1,1.68,3.31,3.59,6.49,5.32,9.77,1.57,3,2.93,6.08,4.6,9a20.06,20.06,0,0,0,3.57,4.51,11.71,11.71,0,0,1,3.25,5.49c.76,2.67,2,5.19,2.68,7.87a94.56,94.56,0,0,1,2,10.72c.39,3,.08,6.12.61,9.08a37.41,37.41,0,0,1,.94,8.84c-.26,4.46-.24,8.94-.35,13.42,0,.53-.1,1.06-.09,1.59,0,2.15.35,4.23-1.65,5.92-1.8,1.52-.34,3.67-.26,5.47a13.18,13.18,0,0,1-1.71,7.79c-1.13,1.91-2.23,4-1.95,6.54.13,1.22-.94,2.55-1.32,3.87-.77,2.68-1.5,5.37-2.12,8.08s-1.77,5.36-1.4,7.84c1,6.8-2.68,12.26-4.23,18.29-1.42,5.55-3.66,10.9-5.7,16.27-.76,2-2.07,3.79-3,5.75-1.85,3.94-3.31,8.1-5.46,11.86a138.38,138.38,0,0,1-10.14,15.74c-2.06,2.68-3.81,5.48-5.6,8.32a35.32,35.32,0,0,1-4.66,5.29c-2.87,2.95-5.54,6.2-8.77,8.65-3.59,2.72-7.69,4.73-11.6,7s-8,4.43-12,6.62c-5.34,2.92-10.58,6-16.05,8.67-5.82,2.8-11.81,5.22-17.8,7.6a82.72,82.72,0,0,1-9.6,3,13,13,0,0,1-3.78,0c-4.66-.22-8.85,1.6-13.13,3.18C9,371.9,5.6,373,2.89,375.69c-.67.66-1.79.82-2.89,1.28.11-.52.07-1.05.28-1.22,3-2.3,2.67-6.22,4.05-9.3.64-1.44.2-3.38.37-5.08a7.07,7.07,0,0,1,.68-1.79c-.17-.26-.59-.61-.56-.9.54-5,1.18-9.93,1.71-14.9.67-6.31,1.32-12.62,1.87-18.94.22-2.55-.1-5.16.29-7.67.48-3.12,1.49-6.14,2.2-9.22.8-3.48,1.54-7,2.29-10.46.39-1.8.71-3.62,1.12-5.42.06-.24.42-.42.65-.64a3.44,3.44,0,0,1-.32-1.41c.89-5.1,1.86-10.19,2.79-15.28.38-2,.82-4.06,1-6.11.46-4.9,1-9.81,1.12-14.73.1-3.05-.57-6.1-.61-9.16-.07-5.28-.07-10.57.2-15.83.15-2.9,1.11-5.76,1.37-8.66.38-4.38.43-8.79.69-13.19.71-11.6,1.46-23.2,2.17-34.81.16-2.46.25-4.92.36-7.38,0-.13-.1-.3,0-.39,1.47-2.45.22-5.23.87-7.73,1.11-4.23.67-8.55.86-12.81a192,192,0,0,0-.36-19.34c-.47-8.44-1-16.89-1.95-25.28-.83-7.58-2.41-15.07-3.28-22.65A88.45,88.45,0,0,1,19.64,64c.16-5.57.57-11.12.88-16.68.14-2.31.41-4.61.45-6.92,0-2.72-.2-5.45-.16-8.17.06-3.84.3-7.67.42-11.51C21.32,17.76,21.36,14.85,21.41,12.16Zm9.92,207c-1.08,1-.95,2.86.65,4l-.68-4-.34-3.4-1.65,1.12a11.29,11.29,0,0,0,.94,1.6A4.56,4.56,0,0,0,31.33,219.15ZM44.71,184.8l-.16-1.87-1.43.85,1.07,2.95.57-.09c0-.62,0-1.25,0-1.85l2.75,1.38.41-.68-2.5-2.14Zm72.45-76.57-2.24.39c.33,1.11.64,2.16,1,3.32,1.5-.87,1-2.44,1.22-3.74A2.77,2.77,0,0,1,120,111a6.26,6.26,0,0,0,.63-2.24c0-.35-.54-1-.82-1A16.91,16.91,0,0,0,117.16,108.23ZM57.54,249.38,56.93,252l.43-.17L59,254.3c.36-1.19.36-1.19-1.52-4.88a6,6,0,0,0-.26-5.64,32.73,32.73,0,0,0-.18,5.33C57.07,249.2,57.38,249.29,57.54,249.38Zm21.57,6.9-1.22-3c-1.9,1.73.2,3.19,0,4.73l1.27-1.83a13.46,13.46,0,0,1,.14,2.75,27.46,27.46,0,0,1-1,3.4l.67.25c.44-1,1.21-2,1.21-3A10.83,10.83,0,0,0,79.11,256.28ZM63.56,155.36l-1.89.48-.55-3.13c-.43.82-.17,1.69-.47,2.27-.66,1.29-.1,2,.8,2.6l1.34,1.25c-.93-.69-1.76-1.24-2.6.22,2.52,1.26,1.92,4,2.71,6.25.32-.2.84-.36.87-.59.13-1-.47-2.16.83-2.77a7.46,7.46,0,0,0-.9-1.21c-.23-.21-.65-.18-1-.26.3-.4.56-.34.75-.44,1.6-.88,2.14-.49,1.89,1.44-.28,2.14.29,4.46-1.46,6.24-.09.1.17.56.24.78l-2.95.3L61,176.11l.64,0,.62-3.36,1.08.93.17-.18-1.89-3.87c1.45-.28,2.79-.15,3.58-.77,1.11-.87,1.57-.26,2.23.36l0-.07a4.94,4.94,0,0,0-.52,1.36c-.09,1.6-.09,3.2-.12,4.79l-.64,0a2.81,2.81,0,0,0-.88-1.93c1.45-1.13,1.23-2.87-.47-3.72l-1,5.74.05-.05c-1.39-.4-1.28-.4-1.29.85a7.24,7.24,0,0,1-.67,2.12A3.31,3.31,0,0,0,63,180.54a4.4,4.4,0,0,1,.65,5.26c-.31-.73-1-1.67-.77-1.94,1.11-1.51-.24-1.72-.79-2.34l-1.41,4,.71,1.68,1.33-2c-.36,1.85,1.88,3.14.74,4.68.3.66.74,1.17.73,1.67,0,1.67-.21,3.32-.34,5.08l-1.22.22,1.9.44c.11,10.37,1.27,20.84,0,31-1.26,10.46,0,21-2.19,31.39l-1.61-.12.18,1.84,1.86-.63c-.4,1.27-.67,2.11-.93,3a2.34,2.34,0,0,0-.13.69,34.51,34.51,0,0,1,.06,5.08c-.57,3.94-1.31,7.87-2.08,11.78-.9,4.58-1.84,9.15-2.87,13.7a27.92,27.92,0,0,1-1.51,3.89c-.21.56-.42,1.11-.62,1.67-.71,2-1.39,4.05-2.16,6.05-.09.24-.63.31-.55.27a16.91,16.91,0,0,1-.77,3.45c-1.09,2.33-2.36,4.56-3.51,6.72l-.76-.54a6.79,6.79,0,0,1,.09,2.34c-.52,1.45-1.3,2.8-1.94,4.2a8.56,8.56,0,0,0-.32,1.28c.43-.14,1-.14,1.25-.43a10.6,10.6,0,0,0,1.26-1.76c2.76-4.17,5.83-8.16,8.16-12.56,2.17-4.1,3.59-8.63,5.27-13,1.44-3.72,2.75-7.49,4.18-11.22,1.62-4.23,3.38-8.4,4.92-12.66a7.35,7.35,0,0,0,.34-3.93c-.37-1.65-1.21-2.92-.36-4.92s.46-4.28.62-6.36l2.84-.34-1.19-1.91-1.24.65c-.18-2.06-.39-4.07-.52-6.09a11.29,11.29,0,0,1,.27-1.78,1.08,1.08,0,0,0-.11-.67c-.72-1.07-.71-1,.38-1.8A15.58,15.58,0,0,0,72.49,244l-.44-.62-2.41,1.08q-.47-17.58-.93-34.81a7.18,7.18,0,0,0,2.53-.67c.28-.2,0-1.33-.11-2.09,3,.42,1.09,3.05,1.74,4.59.72-1.16.72-1.16-.24-6.56-2.45-.21-2.61,2.21-3.9,3.57l-2-19.26,2.34-1c-.17,1.51,1.16,3.45-1.29,4.37L69.34,194l1.36-5.13-1.64-.63-.1-2.07-1.14,1.9c-3.12-3.26-2.88-7.08-2-11l.21,1.54,2.5,1.53-.49.06.12,5.31.69,0-.06-1.33c2.2.31,1,2.62,2.12,3.53.94-1.85.43-3.57-1.14-4.41-.5-.27-1.27-1-1.19-1.24a4.82,4.82,0,0,1,1.35-1.89,6.63,6.63,0,0,1,1.82-.74l.27,5c1.91,1.16-.52,3.15.36,5.31.91-1.33,2.37-2.7,2.13-3.22-1.12-2.4.23-3.1,2.1-3.7l-.3-.65-2.3.54c-1.44-1.29-1.67-2.47-.65-3.36a10.1,10.1,0,0,0,1.41-2l-.73-.62-1.68,1.64c-.43-2.62-1,.15-1.56.06l.39-5.07.45,0,1.16,2.65.85-2.27c-1.85-.41-1.5-1.25-.54-2.21-1.55-.36-1.5-1.44-1-2.6.38-.9.9-1.74,1.36-2.6l.83-.41,1.62,8.43c.47,2.39.49,4.91,1.84,7.05a15.54,15.54,0,0,1,.8,1.64,5.24,5.24,0,0,0,.71-1.82c-.08-2.05-.32-4.09-.54-6.13s-.58-4.3-.74-6.46a20.85,20.85,0,0,1,.2-3.52,9.82,9.82,0,0,1,.35-1.49c-.14-.18-.51-.46-.6-.82a82,82,0,0,1-2.27-9.31A56,56,0,0,0,71,138.47c-1.23-2.76-2.49-5.51-3.51-8.34-1.48-4.1-2.67-8.31-4.14-12.41-1.32-3.7-2.84-7.31-4.26-11-.51-1.32-1-2.65-1.45-4l-.79.32c.92,2.58,1.93,5.14,2.72,7.76a21.45,21.45,0,0,1,.61,4.26,33.88,33.88,0,0,0,.25,4.18c1,4.49,2,9,3.33,13.4,1,3.37,2.46,6.57,3.67,9.87.71,1.92,1.34,3.89,2,5.83l-.6.28-1.9-4.11-.65,0-.6,2.94c1.57.36,1.85,1.53,1.62,2.86s.31,1.68,1.45,1.49a24.59,24.59,0,0,1,.09,3.09c0,.4-.58.77-.91,1.12,0,.05-.21,0-.15,0l0-1.51-2.34,2.08-.32-.3-.07.92-3.58.34c.71-.76,1.41-1.52,2.11-2.3l1.4,1.07-.28-3.92h-.86ZM48.45,179c2.35-.78-.28-2.3.44-3.39.1-.15-.52-.8-1.12-1.71-.43,1.9-.72,3.16-1,4.42l.6.17.66-1.57.48,2.14c-.42.35-1.12.64-1.21,1.06a2.81,2.81,0,0,0,1.44,3.47ZM38.66,70.74c.65-1.42,1-3.15,3.27-3.47L39.59,66c-.22,1-.16,2.11-.64,2.45-1.14.8-.58,1.48-.24,2.27A7.3,7.3,0,0,1,39,72.4a4.43,4.43,0,0,0,1.92,3.25l-.69-4.87.51-.11C40,69.62,39.34,69.84,38.66,70.74Zm14.46,110c1.71-.91,1.71-.91.05-4.61-.1,1.85-1.46,3.15,0,4.59-.35.42-1,.79-1,1.25-.24,1.71-.3,3.44-.43,5.14.08,0,.48-.15.57-.39.68-1.65,1.33-3.32,1.86-5C54.22,181.47,53.47,181,53.12,180.7Zm-27,49.81.42-5.58h-.85c.17,1.86-.65,3.74.43,5.58l-.76,3.23.58-.19,2,3.06a13.74,13.74,0,0,0-.32-2.55C27.19,232.85,26.61,231.69,26.1,230.51Zm111.6-15.65-1.63-.47-.66,2.63.47.18,1.09-1.36.76,1.13,2.12-1,.26-3.38-.63,0a16,16,0,0,1-.17,2,4.37,4.37,0,0,1-.58,1.08l-1.08-.83a13,13,0,0,0,.76-2.39,7.07,7.07,0,0,0-.35-2l-.51.14-1.39,2.69ZM52.92,171.45c-2.2,1.7-2.74,3.36-1.33,4.46l.16-2.09,1.34.21c0-.35-.1-.69-.12-1,0-.51,0-1-.06-1.54l.53-7.07-.5,0-1.82,2.58,1-.19a13.77,13.77,0,0,1-.24,2.76C51.31,171.17,51.25,171.17,52.92,171.45Zm8.75-27.91c.74-1.66.79-3.22-.24-4.36l-2.69,1.11a10.66,10.66,0,0,1,1,.52c.36.22.69.49,1,.74-1.42,1.54.5,1.38.92,2,1.77.94,2.11,3,3,4.61.55-2.26.53-4.32-.43-5.86ZM77.12,67.28l2-1c-1-.38-1.92-.74-2.82-1-.37-.11-.93-.2-1.14,0s-.1.78-.13,1.18l.47-.39L77,67.23c-1.1,0-1.31.26-1.21,1.29a9.27,9.27,0,0,1-.2,1.25c-.08.93-.11,1.86-.17,2.78l.48-.07,1.41-3.75.73.93C78.19,68.61,78.84,67.33,77.12,67.28ZM48.49,346.73l.18-1.44c-1.57.5-.56-1.51-1.77-1.69l-1,3.57c.93.2-.81,2.49,1.28,1.79l.19,2.06c1.17-1.26,2.55-2.11,2.51-2.85-.07-1.11,2.26-2.09.28-3.21ZM88.25,148.35c-1.69,1.28-1.09,3-.73,4.63.9-1.43,2-2.83.72-4.63l1.47.11a13,13,0,0,1-1.25-3.14c-.24-1.81,1.43-1.77,2.52-2.24.24,1.67,1.52,3.4-.34,4.95-.09.08,0,.47.1.71.34,1.9.7,3.81,1,5.72a10.8,10.8,0,0,1,0,1.51L94,153.48c-.07-.18-.11-.82-.44-1.12-1.75-1.6-1-3.69-1-5.57.08-3,1.87-5.54,1.35-8.92-.74-4.88-1.46-9.79-3.19-14.33a129.18,129.18,0,0,0-7-14.29c-3-5.6-6.13-11.1-9.24-16.63-2.26-4-4.38-8.12-6.93-11.91-2.4-3.56-5.4-6.67-7.94-10.14-3-4.14-5.81-8.49-8.82-12.66-.69-1-1.21-2.63-3.41-2a16.72,16.72,0,0,0,1.85,3.74,53.78,53.78,0,0,1,7.87,11.12c2.15,4.23,5.58,7.73,8,11.83,2.75,4.6,5.09,9.48,7.48,14.3,1.74,3.51,3.27,7.13,4.92,10.69,1,2.24,2.11,4.45,3.17,6.66,1.23,2.56,2.38,5.17,3.74,7.66.63,1.17,1.24,2.07,0,2.61,3.09,2.54,2.5,6.69,4.06,9.79l-1.13.45c.63.43,1.4.65,1.54,1.1.76,2.38,1.36,4.81,2,7.23-1.27-1.23-2.42,0-3.62.21l.73-2.76,1.1.66.19-1.42L88,139.21l-3.13.35a11.28,11.28,0,0,0,1-2c.12-.72.31-1.69,0-2.15s-1.31-.23-2-.41c-.48-.13-1.13-.31-1.32-.68a14,14,0,0,1-.76-2.63L80,134.4l.55,2.53a4.52,4.52,0,0,1,1.38-.81,27.15,27.15,0,0,1,3-.19c-.25.7-.45,1.43-.75,2.11-.5,1.16-1.06,2.3,0,3.9.51-2.56,1.89-1.31,2.62-1.33l.66,2.68c-.15,1-.28,1.91-.45,2.85A1.66,1.66,0,0,0,88.25,148.35ZM47.46,112.67c.16-1.33-1.36-4.78-2.28-5.19.46,1.87.39,4,2.29,5.18l-1.38,1.47,1.87.26-1.57,1,2.12.48-2.26,2.44,2.32-.62c.92,1.59,1.43,1.68,2.44.41l.83,1.48a11.72,11.72,0,0,0,1.14-2.4c.13-.64.08-1.76-.29-2-1-.64-1-1.27-.67-2.28a9.76,9.76,0,0,0,.21-2.32c-1.7.18-1.46,1.54-1.48,2.49,0,1.69.17,3.38.28,5.07a45,45,0,0,1-2.28-4.62C48.45,112.69,48.37,112.16,47.46,112.67Zm34.78,48.2.26-3.44,1.44.11-1.07-4.39-.86.32a6.16,6.16,0,0,1,.72,1.6,2.07,2.07,0,0,1-.36,1.52,5.11,5.11,0,0,1-1.41.91l1.27,3.36,1.68,3.35,1-.44-1.32,1.37.26,4.66c1-.09,1-.31,1-2a3.14,3.14,0,0,1,.53-2.15c.77-.69,1-.86.37-2.07L87.14,162l1,2.36-1.51.53.22.75,2-.61c-.44-1.3-.54-3.18-1.43-3.77-1.17-.78-3-.56-4.49-.73C82.72,160.55,82.48,160.77,82.24,160.87ZM23.41,198.82l-.7,9.39.73.08.32-4.24.46,0,.42,1.41c1.5-2.63-.24-4.55-1.28-6.63l.62-2,.86,1.56c-.31-2.43-.16-4.6,1.63-6.36a7.16,7.16,0,0,0,.47.81c1.71-.83,1.32.52,1.47,1.45s.52,2,.8,3l.69-.19c-.38-2-.76-4-1.21-6.35-1.17,2.88-1.23-.25-2,0l-.2,1.3-2.08.11v-.44l1.59-.16-1-4.17,2,.55-.66-2-1.86.53c-.51,3.68-1,7.12-1.43,10.57A5.84,5.84,0,0,0,23.41,198.82Zm7.74-73.12c-.15.22-.3.63-.44.63-1.34,0-1.78-.93-1.89-2.2-.19-2.1-.85-2.62-2.16-1.91L28.37,127l3.77.78.41-.29-1.46-1.78c1.33-1.56-.85-3.25.19-4.81-.05,0-.16,0-.16,0-.4-.86-.79-1.72-1.18-2.58l.5-.26,1,1.46c0-2.35,0-2.39-3-2.6l-.11-5.65,2.49,2.53.26-3.39-2.69.92c-1.29-.76-1.73,0-1.5,1.14.39,2-.55,4.52,2.1,5.59.18.08.25.58.29.89.23,1.5.32,3,.67,4.48A9.41,9.41,0,0,0,31.15,125.7ZM71.1,102.47a2.35,2.35,0,0,1,.19-.25s.16,0,.16.06c-.09.6-.18,1.2-.31,1.94l1,.17-1.29,1.82.42.3,1.19-1.3c.06.77.13,1.27.13,1.77s-.07,1.08-.16,2.26c.77-.82,1.42-1.19,1.5-1.67a6.76,6.76,0,0,0,0-3.37c-.83-2.08-2.19-3.92-3-6s-1.76-1.75-3.39-.35c.78.4,1.37.94,2,1,1.32,0,1.6.73,1.56,1.88,0,.59,0,1.19.08,1.77l-1.36-2.67a14.74,14.74,0,0,0-.4,2,25.23,25.23,0,0,1-.08,4.18c-.53,2.57-.24,3,2.33,2.13l-1.42-.23a10.91,10.91,0,0,1-.11-2.71C70.25,104.29,69.44,102.84,71.1,102.47Zm-44.6,55c-1.25,1-1.22,1.38.65,3.66l-.2-3.58c1.38.61,1.22-.28,1.05-1.17s-.32-1.61-.49-2.42l.39-.08,1,2.08c1.06-1.86,1.05-1.83-.06-2.48-.21-.12-.24-.55-.36-.85l1.7-.62L28,147.16a9.06,9.06,0,0,0-1.15,2.05c-.37,2.56.24,5.23-.83,7.72C26,157,26.33,157.26,26.5,157.43Zm18.13,43.18c-.35.37-.9.69-1,1.12a16.07,16.07,0,0,0-.09,9.14,11.9,11.9,0,0,0,.81,1.52c.49-1-.65-2.72,1.35-2.45l-1.92-1.05,3.45-.72c-.29-2.44-.57-4.91-.86-7.38l-.6.05-.09,4.38-1,0c0-1.56-.07-3.12-.12-4.69.24-.49.69-1,.66-1.48-.11-1.67-.38-3.33-.6-5.13l-1.51.39,1,1.82-1.49.69,0,.25L44,197ZM25.42,172.9l2-1.19-1.66-2.86L27,165.93c.18,2.59.18,2.59,2,2.12-2-2.48-2.09-3.54-.45-4.37l.88,4.33.72-.06c0-.44.24-1.18.08-1.29-2.15-1.4-.45-2.65.15-4.11l-4.66-.65a11.5,11.5,0,0,1,.18,2.89c-.33,1.55-1.32,3.06-1.28,4.55,0,1.08-1.66,3,.83,3.53-.44,1.93-1,3.85-1.25,5.8a2,2,0,0,0,1,1.58c.45.16,1.15-.43,1.73-.69-2-.64-2-.64-2.2-1.67l1.41.66c-.07-1.2-.07-2.22-.21-3.22A23.22,23.22,0,0,0,25.42,172.9Zm64.07,59.41-.08-2.5-.63,0-1.89,1.93,1.44,1.55.12,2.42-.67.07-.45-1.21-4.74,1.66c1.41,1.74,4.18-1.57,4.54,1.93l1.44-1.58,3.11.87c.65-1.28,1.21-2.27,1.66-3.32.17-.42.3-1.13.08-1.42C92.19,231,91.42,231,89.49,232.31ZM12.11,347.2,11.2,346c.08-.82.1-1.65.24-2.46.23-1.29.75-2.72-1.47-1.53-.39.21-1.06-.14-1.78-.26.72,1.91-3.07,4.08.58,5.62-1.39,2.54-1.27,5.57.16,7.4l.8-3.2.56.23-.62.88.87-.67,3,5.22c.17-2.18.32-4,.43-5.85,0-.25-.06-.69-.2-.74C12.19,350.05,12.63,348.37,12.11,347.2Zm60-153.51-1.15,1.89-1.88-.91.11,5.76,1.17.23.6-4.53.91.06.37,2,1.44-1.11-.38,5-.62-.1,0-2.8-.7-.05-.84,5.15c2.88-2,5.81-3.16,4.18-7.59l2.89,1.94c.25-.37,1-.95.88-1.39s-.9-.77-1.81-1.47c-1.29-3.31-.77-7.36-.06-11.48L76,184.27a38.89,38.89,0,0,1-1.31,5.59c-.19.49-1.58.49-2.69.79l0,3.08Zm3.32,28.47.95.5c1.58-2,.7-3.88-.68-5.9l2,1.09-.78-2.25c.85-1.45,1.47-2.51,2.35-4,.11,1.08.18,1.73.24,2.39,0,.44,0,.88,0,1.31s.26,1.29,0,1.72A5.65,5.65,0,0,0,81,223.41c1-1.81.23-3.06-1.17-3.86.43-1.22,2-1.54,1.24-3.24-.4-.87,0-2.11,0-3.19a5.71,5.71,0,0,0-.13-2,7.17,7.17,0,0,0-1.34-1.7c1.44-1.68,2.34-.57,3.26.72-.06-2.44-.34-2.6-2.22-2.3A2,2,0,0,1,79,206.74a31,31,0,0,1-.84-4.11l1.23-1.2-1.68-1.67c-.41,2.05-.76,3.86-1.12,5.68l.06-.06c-1.15-.79-1.45-.34-1.3.92a3.35,3.35,0,0,1-.62,2.8c-1.25,1.69-.57,4-.49,6.09,0,.11.24.27.39.32,1.16.33,1.16.32.54,1.3a2.39,2.39,0,0,0,.88,3.6c-.21.6-.41,1.2-.62,1.81-2.39.42-.29,2-.63,3-.15.45.66,1.29,1.13,1.88a5.82,5.82,0,0,0,1.08-.62c-1.27-.64.6-2.91-1.5-3.18A4.64,4.64,0,0,1,75.4,222.16ZM59.66,153.53l-.76-.07c-.3,1.74-.66,3.47-.86,5.22-.49,4.22-.92,8.44-1.32,12.67-.61,6.39-1.48,12.78-1.63,19.18-.06,2.85-.94,5.59-.58,8.51.27,2.27-.38,4.66-.46,7-.18,5.64,0,11.29-.46,16.91-.39,5.37-1.27,10.71-2,16.06-.26,2-.64,3.94-1,5.9-.86,4.56-1.81,9.1-2.58,13.68-.48,2.81-.44,5.74-1.1,8.49-1.14,4.7-2.64,9.3-4,13.94-.43,1.47-1.21,2.9-1.31,4.38-.42,6.21-2.52,11.9-4.69,17.61-2.74,7.25-5.37,14.54-8,21.83a17.27,17.27,0,0,1-.83,2.83A69.56,69.56,0,0,0,21.73,342c-1,3-2,6-4.35,8.36-.7.7-.75,2.18-.91,3.33a1.43,1.43,0,0,0,.77,1.18,1.45,1.45,0,0,0,1.25-.6c2-3.29,4.92-6.07,5.1-10.31,0-.34.35-.68.57-1a19.67,19.67,0,0,0,2-2.7c2.33-4.75,4.69-9.49,6.82-14.34,1.74-4,3.25-8.07,4.69-12.18,2.16-6.15,4.14-12.37,6.23-18.55q1.51-4.49,3.17-8.91a5.76,5.76,0,0,1,1.12-1.38c-.48-1.35.11-4.91.7-6.82a112,112,0,0,0,2.9-10.93c.65-3.3.74-6.71,1.3-10,.19-1.17,1.13-2.19,1.57-3.34.14-.37-.24-1-.39-1.51,1.4-9.28,2.83-18.77,4.28-28.35l.87-.26c-.45-.74-1.21-1.46-1.08-1.9a8.86,8.86,0,0,0,.18-3.67,86.28,86.28,0,0,1,0-11.14c0-1.49.21-3,.35-4.89,1.22,2,1.25,2,2.48.94-.91,0-2.39-1.73-2.27-2.7s.32-1.92.36-2.89c.06-1.57,0-3.14,0-4.93l1.16.76c.35-1.95-2.42-3.64-.51-5.14-.23-1.86-.41-3.38-.6-4.89-.57-4.63.88-9.28-.16-13.95a30.07,30.07,0,0,1-.32-7.11C59.12,159.27,59.44,156.4,59.66,153.53Zm46.77-5.47a3.78,3.78,0,0,0-1.16,4,11,11,0,0,1-.16,3.37c-.46,4.92-1.06,9.84-1.36,14.77-.41,6.42-.52,12.87-.88,19.3-.18,3.23-.59,6.45-1,9.67-.57,4.69-1.13,9.39-1.86,14.05a74.34,74.34,0,0,1-1.84,8.5c-.65,2.36-1.8,4.58-2.4,6.94-.4,1.55-.83,2.58-2.77,2.09l.1.55,1.48.67c-1,3.78-2,7.64-3.14,11.44-.91,3-2.42,5.84-3,8.89-.73,4-3.34,7.65-2.25,12,.07.28-.15.64-.24,1L78.39,292.7l.67.26c.8-1.48,1.67-2.93,2.37-4.46s1.13-3.1,1.81-4.6c1.07-2.35,2.37-4.59,3.37-7,3.45-8.27,6.69-16.62,10.24-24.84A97.58,97.58,0,0,0,104,228.91c.63-3.95,1.33-7.89,2-11.82.37-2.11,1-4.18,1.18-6.3.48-6.59,1.12-13.19,1.07-19.78-.07-9.59-.75-19.17-1.06-28.76-.12-3.7-1.71-7.28-.69-11.1.21-.79-.6-1.85.44-2.58Zm16.49,17.23c.83.63,1.66.92,1.83,1.44a44.81,44.81,0,0,1,1.61,6.12c.66,3.7.77,7.55,1.81,11.11a40.05,40.05,0,0,1,1.24,14.6c-.42,5.38-.82,10.77-1.34,16.14-.3,3.14-.69,6.29-1.23,9.41-.62,3.58-1.46,7.13-2.17,10.7s-1.26,7.05-2.06,10.54-1.93,7.17-2.81,10.78a8.9,8.9,0,0,0,.1,2.51l.66.12c1.4-2.42,2.83-4.82,4.19-7.26.8-1.43,1.46-2.95,2.23-4.4,1.63-3,3.09-6.17,3.26-9.74a23.65,23.65,0,0,1,.14-3.38c.61-3.12,1.66-6.19,2-9.34.82-8,1.52-16,1.91-24.09.23-4.7.89-9.48-.4-14.16-.9-3.26-1.77-6.53-2.57-9.82-2-8.29-4-16.57-5.94-24.88-.92-3.93-3.12-7.37-3.31-11.66-.12-2.47-1.26-4.8.49-7.19l-.84.72-.71-1.37a10.46,10.46,0,0,0-.16,3,16.89,16.89,0,0,1-.43,2.51l-.65,0c-2.27-4.49-4.39-9.09-8-12.77a70.08,70.08,0,0,0,2.68,9.75c1,2.9,2,5.78,3,8.69.11.35-.24.86-.35,1.21.34.14.93.19,1,.44.85,2.29,1.72,4.58,2.38,6.93.51,1.86.29,4.06,1.16,5.65,1.33,2.42.88,5.49,3.31,7.57Zm14.56,74.12c-1.23,3.73-2.12,7.54-3.73,11-2.44,5.27-5.21,10.4-8.13,15.41-3.37,5.8-7.05,11.4-10.61,17.08a38.44,38.44,0,0,1-2.25,3.49c-3.19,4-6.46,8-9.68,12-3.78,4.68-7.37,9.54-11.39,14-1.93,2.12-4.7,3.41-7,5.14-3.44,2.54-6.89,5.07-10.21,7.76-1,.81-2.44,1.69-1.92,3.76l4.61.35-1.2,2.71a4.18,4.18,0,0,0,2-.71c4.33-2.41,7.5-6.85,12.53-7.59a6.15,6.15,0,0,0,2.37,1.37c.33.08,1.19-.59,1.18-.88-.05-1.1,0-2.64-.65-3.17-1.29-1.08-.86-1.9-.19-2.85.79-1.12,1.65-2.18,2.53-3.22,2.09-2.46,4.35-4.77,6.28-7.34,3.91-5.2,7.65-10.53,11.46-15.8,1.3-1.79,2.71-3.51,3.89-5.38,2-3.16,3.83-6.43,5.78-9.63,1.46-2.41,3.22-4.65,4.44-7.18q4.65-9.6,8.91-19.41a90.44,90.44,0,0,0,3.92-11,88.35,88.35,0,0,0,1.84-9.49,6.85,6.85,0,0,0-.14-1.84l-.64-.16c-2.34,3-1.65,7.39-3.84,10.11l-1.62-.71-.26.47ZM32.3,61.76l-1,.2.54,2.87c.75,4,.85,8.21,2.92,11.89a3.9,3.9,0,0,1,.25,2,42.68,42.68,0,0,0-.24,4.5c.24,3.43.55,6.86,1,10.25.72,4.89,1.72,9.74,2.44,14.64.39,2.68.47,5.41.66,8.11.55,8.07,1.19,16.14,1.6,24.21.35,7,.5,14,.63,21.07.12,6.5.21,13,.12,19.53-.07,5-.45,10-.67,15a12.82,12.82,0,0,0,.17,1.73h.57a14.53,14.53,0,0,0,.3-1.83c.25-6.32.42-12.65.74-19,.2-3.89,1-7.8.87-11.67-.18-5.11,2.32-10,1-15.15,0-.11.05-.26.06-.39.21-2.1.47-4.19.61-6.29a104.51,104.51,0,0,0-.83-19.45c-.56-4.46-1.11-8.94-2-13.35-.9-4.61-2.15-9.15-3.27-13.71a26.59,26.59,0,0,1-1.21-4.78,104.26,104.26,0,0,0-2.3-15.56c-.52-2.45-1-4.92-1.47-7.37S32.82,64.23,32.3,61.76Zm5,193.39c.44-3.25.9-6.57,1.33-9.89s.75-6.52,1.3-9.75a13.07,13.07,0,0,1,1.5-3.14l.89,1.72.57-.2c-.35-1.33-.69-2.66-1.06-4.11L40.27,231l.48-6.34,1.94.9c.32-2.09-1-1.82-2.23-1.9l.65-8.63.48,0,.48,2.17c1.07-1.23.93-1.87,0-3a4.63,4.63,0,0,1-1.36-2.64c0-2.22.62-4.43.77-6.66s0-4.39,0-6.59l-.69,0a13.15,13.15,0,0,0-.46,1.63c-.71,4.53-1.47,9-2.09,13.6-1.05,7.73-2.27,15.45-2.93,23.21-.74,8.66-2.85,17-4.2,25.57-.33,2.09-.28,4.24-.4,6.35s-.16,4.1-.38,6.14-.68,4.34-1,6.52a86.52,86.52,0,0,0,7.89-24.78c2.11,1,2.35,2.15.95,3.67,2.2,1.37.57,3.25.24,4.65-.53,2.2-.39,3,2,3.66-.08-.37-.06-.74-.23-.93-1-1.16-1-2.34-.58-3.84a31.49,31.49,0,0,0,.48-5.42l1.5.12L39.4,252.3h-.5l.39,4.68Zm-9,94c-.46,1.56-2,2-4.71,1.28l-.54,2.9c-.52-.24-1.15-.73-1.33-.59a11.55,11.55,0,0,0-2.15,2.21c-.2.26-.05,1,.14,1.35.64,1.28,1.38,2.51,2.21,4l.83-1.8c-1.57-.5-1.95-2.25-.92-4.26l.79,3.53c1-.82,2-2,3.52-.82-.14.36-.39.67-.37,1,.05.65.08,1.71.4,1.83,1,.37.79-.64,1.1-1.23.72-1.37.87-3.62,3.34-3.05.27.07.76-.55,1-.94a17.34,17.34,0,0,0,.93-1.69L34,354l1.39-2.17L34,346.11c-1,1.71-1.93,3.31-3.06,5.23ZM143.11,210c.42.4,1,.71,1,1a5.13,5.13,0,0,1-.53,2.31,13,13,0,0,0-1.56,8.28,5.41,5.41,0,0,0,.76,1.52,5.3,5.3,0,0,0,.9-1.54c.12-.55-.26-1.2-.18-1.76.23-1.6.56-3.19.9-4.77.1-.43.48-.8.56-1.23.72-4,.32-8.4,3.26-11.79a1,1,0,0,0,.22-.53q.72-5.78,1.4-11.55a6.31,6.31,0,0,0-.11-1.29c-1.79,5.72-.92,12.13-5.29,16.88-1.81-1.19-2.09-1.07-3.07,1.53l2.09.59.4-1.85C145.48,207.2,145.15,208.76,143.11,210ZM97.25,112.59l-.37.49,2.56,1.82-1.2,1.93,4.25.92-2.69-7,.55-.36,2.73,1.31.15-.32-3.77-3.47,1.3-1.42-2.51.52c-1.67-2.13-2.72-4.67-5.06-6.06l2.08,5,1,.33,0,.47-3.42.35,0,.76,4.63-.11,1.06,1.47-3.71,2.47,4.57.34-.09.92ZM33,32.66c1.47,2.56,2.69,4.84,4,7a54.41,54.41,0,0,0,4.43,6.61c1.58,1.9,1.54,4.95,3.77,6.33l.63-.4L39.94,40.38l1.37-2.08L40.93,38,39.4,39C37.06,37.2,36.38,33.76,33,32.66Zm8.34,312.23-3.29,1.34c.59-1.51,2.27-3-.62-4.39l-.3,4-1.76.19a23.87,23.87,0,0,0,.24,3.91c.33,1.43-.34,3.67,2.36,3.48-.33-.55-1.19-.92-1.19-1.29a5.59,5.59,0,0,1,.85-1.94l-1.52-1.43c1.91,0,1.5-.89,1.06-1.89,2.08,1.62,1.38,4,1.5,6.21l.47.15c.51-1.67,1-3.34,1.69-5.49l-1.34,1c.19-1.19-.6-3,1.36-2.67,1.52.27,1.75-.4,2-1.13-.47-.54-.75-1.08-1.18-1.28a5,5,0,0,0-1.62-.16l0,.47ZM32.68,157.2s.66-.36.62-.63a39.45,39.45,0,0,0-.94-4.82A44.48,44.48,0,0,1,31,147.2a37.93,37.93,0,0,1,0-5.11l-1.86.86.51,3.05-.35,0-1.15-3.28-1.38,3.49,3.5,1.62c0,.69-.21,2.25.08,2.35,1.88.71.57,1.75.44,2.67a3.06,3.06,0,0,0,0,1.72A19.2,19.2,0,0,0,32.68,157.2Zm12.94,68.34c1-1.39,1.78-2.3,2.41-3.3a2.18,2.18,0,0,0,.29-1.51,1.54,1.54,0,0,0-.9-1.07c-.28-.07-.77.47-1.05.84s-.16.66-.23,1H45.8l-1.19-4.74L43.32,221l-1-2.65-.45.07-.67,4.53,2.81-.45v1.58h.5l.48-1.75h.52Zm49-114.26-3.51-.65V110l1.79-.34c-.37-.7-1-1.35-1-2,0-1.51-.84-1.5-2-1.56l1,1.38c-1.81,2.2-3.24,1.09-4.59-.82l-.3.73L88,110v4.68c1.6-1.47,2.48-2.46,1.07-4a1.19,1.19,0,0,1,0-1,.89.89,0,0,1,.86-.13c.29.17.71.7.63.84-.9,1.78,1.27,1.1,1.53,2,.08.25,1.3.14,2.14.2.13-.54.3-1.36.51-2.17.12-.44.29-.86.43-1.3l-1.82.33ZM81.9,126.61c-2.07,0-1.11,3.27-3.16,3.08l.18-.52-1.16-1.85.18,0L76.52,124l-.68.17L75,128.33l1.52-.67c.34.66.91,1.29.92,1.92s-.65,1.22-.86,1.88a6.89,6.89,0,0,0,0,1.73,6.15,6.15,0,0,1,.75,1.15,10.82,10.82,0,0,1,.43,1.72l.72-.14-.32-3.59c.35-.62.64-1.8,1.11-1.89C81.49,130,81.59,128.33,81.9,126.61ZM53.37,345l-.38-.18c-.06-1.23-.09-2.46-.22-3.69,0-.17-.73-.46-.81-.38-.9.92-1.74,1.9-2.76,3.05l3-.09-.27,3.65,2,1,2.59-2.5-.75-.86c1.42-2.37,1.31-3-.41-3.14l.26,1.46-.35.07-.57-.77ZM94.46,161.39l-.24-1.75a4.22,4.22,0,0,1,.87,0c.54.11,1.07.27,1.6.4a8.31,8.31,0,0,1,.23-1.81c.39-1.13-.92-2.57.62-3.55.14-.09-.19-1-.33-1.66l1.14-.68-2.66-.2c.06,1.94.12,3.79.18,5.91l-2.31.77-.5-1.92-2.17.57-.35,2,.44.17.92-.94C93.25,159.17,92.28,161.8,94.46,161.39ZM12.1,313.65c-3.09,6-3.59,11.26-1.22,14.13l.47-6.24-.81-1.82,1.67.59.2-.47-1.18-1.15,1.44-1.7-.91-1.46,1.11.28.38-.44Zm60-93.89c-1.75,1.73-.79,3.52-.5,5.26a12.91,12.91,0,0,1,.17,2.71c-.06,1.58-.22,3.16-.36,5.1l2-.72c-.34-2.79-1.36-5.35-.29-8.09a6.36,6.36,0,0,0-.14-4.44c-.29-.85-.64-1.68-1.23-3.19l-1.24,3.54ZM48.56,129.63l.62,3.28c-1.22,1.27-1.22,1.27-1.57,3.3-.19,1.09-.4,2.18-.66,3.62l1.4-1.49,1.89,2.6c-.38-2.72-1.77-4.72-1.29-7.1l2.5,1.65c-.41-1-.7-1.55-.9-2.17s-.19-1.17-.34-1.73a8.15,8.15,0,0,1-.69-2.46c.14-1.62-.63-1.77-2.37-1.7ZM96.49,91.51c2.89,1.15,3.07,3.55,3,6.06,0,.85-.32,1.84,0,2.51a26.38,26.38,0,0,0,2.37,3.58c1-2.29-1.21-4.38-1.07-6.72a10,10,0,0,0-1.7-6.14Zm-3.84,8.76.27-.09a8.35,8.35,0,0,0-.64-1.53c-1.53-2.24-3.15-4.41-4.66-6.67-1.78-2.65-3.47-5.38-5.24-8a8.29,8.29,0,0,0-1.3-1.28l-.51.49Q86.62,91.7,92.65,100.27ZM102,155.56l.79-10.53-.87-.08c-.81,2.21-.1,4.57-.32,6.84s-1,4.23,0,6.53h-.68l-.71-1.37-.47.05-.2,2.54c.72-.23,1.44-.45,2.16-.69.06,0,.15,0,.18-.07.41-.6,1-1.17,1.13-1.82C103,156.52,102.3,156,102,155.56ZM50.27,152.7a8.65,8.65,0,0,0,.15-3,25.22,25.22,0,0,0-1.87-4.13c-.26.18-.77.48-1.22.85a4,4,0,0,0-.59.84l.83.47-.89,5a6.64,6.64,0,0,1,1.71-.48A7.69,7.69,0,0,1,50.27,152.7ZM33.93,222.17l-1.1,4.22.24-.07.1,3.13-1.93.24a9.56,9.56,0,0,1,.75,1.05,1.46,1.46,0,0,1,.07.76c-.16,2.22-.33,4.45-.51,6.86a3.06,3.06,0,0,0,1.92-3c.1-1.74-.35-3.58,0-5.23A18,18,0,0,0,33.93,222.17ZM73.06,120.61l-.76.14.76,13.55,1.49-2.48c-.25-1.69-1.08-3.49-.55-4.55C75.43,124.46,72.43,123,73.06,120.61ZM52.87,149.87l1.25.18c-.35-1.14-.62-2.11-1-3.06-.11-.32-.36-.82-.57-.83a2.28,2.28,0,0,0-1.52.33A8,8,0,0,0,50,148.6l2-.7-.82,10.87,1.08-.5ZM41.82,352c2.75-1.39,4-7.43,2.4-11-.34,2.47-.66,4.76-1,7.26L41.6,346.7ZM20.55,232.62l-.65.13.25,12.43.42.06.64-4.55L22.45,242c-.39-1.65-1.24-3.13-.87-4.12C22.44,235.61,20.54,234.45,20.55,232.62ZM133.78,272H133l-.21-2.56c-2.53.44-1.75,3.32-2.74,4.72-.63.1-1.55.09-1.59.27a19.21,19.21,0,0,0-.16,3l4.29-4.94,2.21,1.1.25-3.33-.45,0ZM61.7,216.59c.51-.41,1.27-.75,1.27-1.1,0-1.52.27-3.31-.4-4.5-1.15-2-1-3.29,1.19-4.37l-.25-.51-3,0c-.07,1.13,2.48,3.36-1.22,3.51l.55,2.23,1.15-.88a4.22,4.22,0,0,1,.36,1C61.45,213.36,61.55,214.79,61.7,216.59ZM51.22,200c-.43.3-.7.39-.71.51-.14,1.9-.25,3.81-.37,5.72-.07,1.08.18,2.38-.31,3.19-1.1,1.82-.64,3.15.82,4.82C51.85,209.43,51,204.83,51.22,200Zm13.09-88.5.59-3.25c2.72.31,1.94,2.33,2.47,3.65.2.51.76.87,1.15,1.3l.71-.63c-2-1.08-.25-5-3.85-5.16l-.69-1.89-.64,3.42c-1.95.38-.79-3.13-3.35-1.82Zm16,115.86-1.4-4.62-.5.12c.13,4.2-.93,8.41.23,12.63.4-.63.78-1.45.54-1.94-.73-1.48-.64-2.62.76-3.47L79,227.86Zm48-112.1a7,7,0,0,0-1.88-1.08c-.64-.15-1.52-.7-1.34-1.27.74-2.35-1.22-3.7-1.53-5.65l-.63.18c.65,3.26,1.3,6.53,1.89,9.53Zm4.86,9c-1.32,2.4,2.57,3.24.56,5.29l-.22-2-2.5-.51,2,2.81-.24.44,2.79.21-1.18,1.56,2.68.2c-.69-1.55-1.19-2.78-1.77-4S134,125.93,133.1,124.27ZM74.29,137.85l-3.25-7,.36-.12-1.51-1.89.44-.36,1,.56.6-.59-2.7-2.13c-.3,1.56,3,11.66,4.22,12.26Zm2.53,7.82c-.5-1.3-1-2.51-1.5-3.85-1.38,2.49.93,3.85,1.17,5.75a10,10,0,0,0,.75,2.11l.47-.23L77.09,147c2.11.28,3.43-.45,3.94-2.18l2.07.54c-.56-2.55-2-.84-2.81-1.33l-.65,1.87ZM20.71,256.82a16.19,16.19,0,0,1-.35,3.85c-.65,1.95-.82,3.58.75,4.61l2.05-.33a21.21,21.21,0,0,1-1.34-4.08C21.64,259.46,22,258,20.71,256.82Zm1.21-36.12c.14.38.5.92.37,1.1-1.24,1.8-1.12,3.51-.31,5.5a36.48,36.48,0,0,1,1.28,5.77,5.54,5.54,0,0,0,.15-4.27,6.88,6.88,0,0,1-.48-2.06c-.07-1,0-2.06,0-3.62C23.74,222.29,23.7,221.76,21.92,220.7ZM80.08,125c.94.63,3-.76,2.55,1.36s.88,3.85.83,5.86c0,1.12.75,1.26,1.46.62a45.85,45.85,0,0,1-1.37-4.78,49,49,0,0,1-.4-5l-.42,0L82,124.35l-2.58-1.6Zm-44.61,5.4.34-.1.39,5.21a1.94,1.94,0,0,0,.55-1.28,52.82,52.82,0,0,1,.08-6.17c.35-2.5.19-2.84-2.13-2.33l-.21,2.79,1.7.22Zm-3.1,38.73L31,173.92l.81.25.68-2.18.86.21c-.18,1.17-.29,2.21-.52,3.23-.48,2.1-.51,2.1,1.23,3.55C33.23,175.81,35.13,172.27,32.37,169.17Zm50.7,8.67c1.08-1.51-.26-6.54-1.7-7.36-.15,1.06-.4,2.2-.47,3.35s.09,2.22.14,3.24l1.46-.86Zm-9.9-59.3,3,2.89c.86-1.22,1.45-3.44,3.76-1.87.67-2.58-1.67-.74-1.88-2l-1,1.74-1-2.32ZM54.83,280.36l.45.22c.81-1.29,2-2.49,2.32-3.91s-.16-3.09-.32-4.89C55.4,274.52,55.34,277.5,54.83,280.36ZM81.49,178.29a9.56,9.56,0,0,0-.14,1c0,1.5.42,3.19-.12,4.44-.61,1.4-.21,1.53,1,1.75l-1.3,1.7,1.82,1.25c.6-3-1.53-5.94.42-8.49Zm-16.1-63.23c.35.91.42,1.64.81,2a11.09,11.09,0,0,0,2,1,6.88,6.88,0,0,1,1,.77l-.25-5.09-3.15.38ZM60.57,340.53l-.78.09a13.68,13.68,0,0,1,.07,2.21,8.73,8.73,0,0,1-.63,1.82l-2.11-1,.19,2.36a23,23,0,0,1,3.74-.65c1.23,0,1.85-.35,1.87-1.78l-1.64.44ZM94.72,145.27a16.27,16.27,0,0,0-.72,2.22,1.86,1.86,0,0,0,.35,1.21c.11.15.57,0,.87.05-.12-2,1.56-.86,2.34-1.76.21,2.2,1.54,1.79,2.8,1.55l.19-.93a6.45,6.45,0,0,1-1.93-.91,8.45,8.45,0,0,1-1-2.1C97.07,148,95.67,145.66,94.72,145.27ZM32,345.59l.66-.1-.12-3.42-2.75,2.37-.55-.37c.65-1.53,1.93-3,.43-4.65a24,24,0,0,0-1.13,3.21,9.6,9.6,0,0,0,.1,2.44l2.49-.48a2,2,0,0,0,.36-.14Zm68.31-222,2.11,1.25c.64-1.74-3-3.71.52-5.41A11.31,11.31,0,0,0,98.35,118c-1.31,0-.86,1-.14,1.67,1.58-1.28,2.17-1.2,2.46.37a18.44,18.44,0,0,1,.14,3.16C100.81,123.32,100.54,123.43,100.33,123.59ZM80.91,193.18c-.75-2.08-1.46-4.05-2.2-6.07-.34.8-.78,1.66-1.08,2.56-.39,1.17-.06,1.87,1.27,1.92.38,0,.74.45,1.11.69l-.22.36-.6-.49-.63,3.7,1.44-.5-.45-1.74Zm-43.37-2.57-1.25,3.27.31-.09,0,3.94a1.56,1.56,0,0,1,.81.28c.25.24.29.73.43,1.11.4-1.49,1-3.23.48-4.11-1-1.61-.62-2.58.69-3.82ZM70.48,329.76c-2.47-.73-9.61,3.14-10.05,5,2-1.13,3.79-2.24,5.67-3.23a21.47,21.47,0,0,1,2.53-.85C69.26,330.42,69.86,330.07,70.48,329.76ZM57.82,121.22c2.24-.77.44-2,.58-2.83-.52-.16-1.27-.27-1.28-.43-.07-1.15,0-2.32,0-3.81l-1.65-.75.23,3.31-1.08.26c2.19-.52.55,4.07,3.3,2.38Zm-7.32,43.1c-.94-.5-1.83-1-2.78-1.45-.19-.09-.68.22-.85.48-.43.66-.23,1.26.76,2.4l.85-1.55,3,1,1.68-2.38-2.23-1.2ZM36,119.85v-.4l-2.1,0L35,117l-1.43-2.48-1,7.94,2.08,0-.91-2Zm102.68,24.63c1.42,1,2.73.29,2.47-.64-.41-1.48.44-1.72,1.29-2.4-2.82,1-1.51-2.69-3.44-2.82.08,1.74.16,3.42.25,5.22l.78.06,0,.25ZM95.45,133.34l1.36,3.21,1.36-.78a16.67,16.67,0,0,1-.84-2.71,23.38,23.38,0,0,1,0-3.14c-.95-.29-1.56,0-1.54,1.38A10.33,10.33,0,0,1,95.45,133.34ZM17.49,326c.66.84,1.28,1.32,1.44,1.93a5.8,5.8,0,0,1-.26,2l.75.29,2.06-4.73-2.31.65.57-1.35-.31-.32Zm57.4-70.59c1.14-3.43-2-4.72-3.34-7,.28,2.25,3,3.92,1.15,6.52ZM63.35,141.19l.79-.05a26.66,26.66,0,0,0,0-4.89c-.11-.64-1.25-1.26-2-1.55-.39-.15-1,.46-2,.91l-.44,1.73,3.43-1.47Zm16.1,63.56,1.2.79,1.66-2.1-1.07-2.19.29-.24,1,.6.39-.46-1.89-1.93Zm-20-80.7c-.1.73-.15.91-.15,1.1-.07,2.24.56,4.55-.73,6.68-.16.26.21,1.06.55,1.35s.82,0,1.74-.13c-1.61-1.39-1.46-2.4-.2-3.36a1.19,1.19,0,0,0,.32-1C60.64,127.3,60.15,126,59.5,124.05ZM89.23,297l2.07-4.33-5.48,2ZM26.87,207.39l-.15-3.52-.47,0c-.21,2.2-.89,4.43.25,6.94l3-3.46ZM86.08,192,84.74,186l1-.23-1.93-1.41a14,14,0,0,0,.67,4.52C85.47,192,85.5,192,86.08,192ZM29.67,173.44a6.47,6.47,0,0,0-1.57.47c-.14.08,0,.73,0,1.11,2.18-.16,1.37,1.71,1.64,2.76a11.4,11.4,0,0,1,.07,2.62l.61,0C31.49,178.08,30.84,175.89,29.67,173.44Zm19.56,24.4-.59.36c-.33,2.76-.67,5.51-1,8.4,1.3-.21,1.59-.62,1.54-1.88a46.9,46.9,0,0,1,.62-5.48C49.81,198.79,49.42,198.3,49.23,197.84Zm38.38-44.08a24.08,24.08,0,0,0-.46,4.18,7.7,7.7,0,0,0,1.13,2.49l.7-.35-.66-2,1.33-.56-.06-.4-1.5-.11.21-2.8.85,1.57a2.16,2.16,0,0,0-.13-2C88.74,153.48,87.91,153.75,87.61,153.76Zm45.53,113,.59,2,2.55-.82a2.08,2.08,0,0,0,.45-1.09,2.78,2.78,0,0,0-.84-1.61c-.18-.19-.84-.08-1.17.12A11.65,11.65,0,0,0,133.14,266.74Zm-89.25-33.4-.84,4.19,1.55-.24.3,1.71.43,0,.61-4.2Zm13.37,22-.54.12-1,7.46,2.6-1.94-.52.07Zm14.95-144.5,1.27.78,1.34-2,.83,3.16,1.64-1.09c-.48-2.53-2.48-2.26-4.16-2.44ZM45.68,168.57c.17.44.25,1.33.64,1.51a2.61,2.61,0,0,0,2.12,0c.38-.2.39-1.19.52-1.84s.14-1.08.22-1.81l-1.8.08.47,1.18Zm51.4-39.67c2.72-.91,1.06-3.38,1.89-5C97.08,123.53,96.41,125.31,97.08,128.9ZM33.47,215.76l.58-.08c.4-2.87.49-5.67-1.7-8a2.36,2.36,0,0,0,0,1.55,16.88,16.88,0,0,1,1.08,2.68A27.37,27.37,0,0,1,33.47,215.76ZM23.71,326.45l-.56-6h-.68a32.7,32.7,0,0,1-.34,4.1C21.65,326.91,21.57,326.9,23.71,326.45ZM87.85,169.56l4,.63c-.32-2.23-2.32-1.44-3.27-2.07L86,172.44l1.55.73ZM51.9,127.73c.83,1.81-1.1,4.11,1.55,5.37-.15-1.76-.25-3.27-.41-4.76-.07-.69-.25-1.36-.38-2l-2.5.85ZM79.13,245.57c-2.39,2.09-3.24,4.19-2.67,5.66l1.55.11Zm-30.26-85c-.75-1.82-1.38-3.36-2-5l-.89,5.13,1.6-.53-.16,2.14Zm94.43-12.83c.66.91,1.25,1.71,2,2.79.36-2.26.65-4,.93-5.84l-4,2,2.83.66L145,148ZM62.5,217.11H62l-.24,3.26c-.59-.62-1-1.05-1.72-1.84-.08,1-.32,1.68-.11,2.11a2.21,2.21,0,0,0,1.36.87c.39.11.87-.12,1.77-.27Zm12.61,40-.58-.1a6.35,6.35,0,0,0-.11,1.83,21.35,21.35,0,0,0,1,2.59l-2.08.34L76,263.9C77.19,261.37,75.38,259.38,75.11,257.15Zm-24-32.25C51,222,51,219.52,51,217.06l-.76-.06-.53,7.05Zm42.87-46c1.46,2.58-.31,5.35,1.31,7.49l.64-.1c-.19-2-.38-4.08-.59-6.21L97,180l.06-.49ZM29.81,136.47c1-1.08-1.53-3.19,1.37-3.7l-.32-.57-2.51.06-.29,3.91Zm6,12.33-.25,3.36.35.08.59-1.53L38,153.15s.42-.17.41-.27c-.13-1.17-.32-2.34-.49-3.55Zm-1.23,46.84c-.72-2.9-1.37-5.52-2-8.13C31.63,189.7,32.91,194.39,34.58,195.64Zm15.86-19-1.15,9.55C50.78,185.43,51.63,179.19,50.44,176.67Zm57-64.35-.29.7-1.52-.71.37,3.36.56-.09a8.69,8.69,0,0,1,.06-1.58c2-.33,1.07-1.91,1.37-3l-3.89-.51-.13.61ZM28.25,181.21c-.34.11-.66.17-.66.22,0,2.47.09,4.94.15,7.56C28.69,188,28.69,188,28.25,181.21Zm39-118.72a13.72,13.72,0,0,0-.65,1.72c-.1.44-.18,1.22,0,1.32.87.49,1.62.93,1.16,2.15l.8.25.93-4L69,63.89l-.9,1.87C67.13,64.75,69.17,63,67.29,62.49Zm5.78,170.87-.85,2.53,4.7,1.6.15-2C75.05,236.45,74.08,235.13,73.07,233.36Zm12.35-89.73h-.66c-1.3,2.76,1,5.12.69,7.77l.85-.09C86,148.76,85.71,146.19,85.42,143.63ZM47.14,193.11l.49-.27c-.11-1.34-.55-2.77-.24-4,.41-1.58-.41-2-1.55-3C46.36,188.58,46.12,191,47.14,193.11ZM138.28,137l.27-.44-2.25-3.25-.46.26c.73,1.81-1,4.24,1.57,6l-.58-3.17Zm-101,34.41-.11,6.78A5.06,5.06,0,0,0,37.32,171.37Zm18.45-19.2.32,0c.47-1.1,1.31-2.2,1.32-3.31s-.74-2.41-1.09-3.41l-1.64,2.12c1.14.09,2.59-.35,1.37,1.68C55.61,150,55.85,151.19,55.77,152.17Zm54.45-11.86.57.09c1.88-2.21-.6-4-.29-6.09l-.71,0L109.3,138l1.1-.08Zm18.61,142.77.29-.19c0-.84-.05-1.68,0-2.52,0-.59.42-1.51.19-1.7a7.15,7.15,0,0,0-2.11-.9l-.29.54ZM28.65,263l-.4-.11c-.82,2.53-1.67,5.05-2.44,7.59a9.61,9.61,0,0,0-.17,2l.59.05Zm31.61-6.09c-.39.59-1,1.1-1.06,1.7a24.07,24.07,0,0,0-.19,3.51c0,.32,0,.64,0,.95.3,0,.74.09.88-.08a1.78,1.78,0,0,0,.28-1C60.24,260.38,60.24,258.86,60.26,256.86ZM28,246.71a19.32,19.32,0,0,1-.48-4.11c.21-2.11.42-2.9,0-3.48l-1.12,7.26ZM54,105.42c-.17,1.33-.31,2.1-.36,2.88a6.93,6.93,0,0,0,.13,1.27c.63-.33,1.26-.65,1.89-1,.07,0,.09-.21.17-.4l-.57-.47.7-1.35Zm84.75,45.08c.32,0,.88,0,.94-.13.7-1.7,1.32-3.43,2-5.25l-2.12.95ZM29,258l1.54-8.1-.48-.09C28.13,254.67,27.85,257,29,258Zm111-53.6c-2.54,1.34-3.31,4-1.55,5.3l-.07-2.53,1.74-.4ZM35.62,170.56l-.46,6.06C36.71,174.75,36.92,171.88,35.62,170.56Zm43.62-31.45L78,138.78l1.1-1.28-4.25-1.07-.23.57c.56.27,1.14.53,1.69.84a3.18,3.18,0,0,1,1.11.82,21.71,21.71,0,0,1,1.14,2.26l.57-.28Zm-44.2-4v-.77a6.6,6.6,0,0,0-2.32.39c-.31.18-.24,1.23-.19,1.88.09,1.21.3,2.4.47,3.61l.78-.06-.47-5Zm51,92.25-2.88-4.13-.3.24c.31,1.49.61,3,.95,4.57ZM14.6,343.79c-.95,1.91-1.47,3.67-.63,5.75A5.56,5.56,0,0,0,14.6,343.79Zm110-224.94c0,1.47,0,2.87,0,4.86l1.57-3.42,2.08-.39,0-.41ZM103.74,97.5l-.54,0-.69,3.06,2.09,1.1.51-.29ZM35.36,217.13l-.71.21-.8,3.75,2,.16ZM67.8,102.75l-1-.84c.31-.21.63-.39.92-.63.51-.43,1-.89,1.48-1.34l-.27-.56c-.92.44-1.78,2-3,.44l.15,4Zm10.32,51,.27-.05a12,12,0,0,0,1.12-3,10,10,0,0,0-.53-2.89l-.5.06c-.18,1,1,2.57-1.21,2.62A6.44,6.44,0,0,1,78.1,152,8,8,0,0,1,78.12,153.71ZM70.93,73.09l-.46.12c-.13-.36-.25-.73-.39-1.09a7,7,0,0,0-.4-.93s-.46.09-.46.15a3.49,3.49,0,0,0,.08,1c.15.62.36,1.24.54,1.85l1.78,0,.75-1.95L71,71.42ZM24.21,260c2-1.38,2.3-4.17.74-5.55Zm96.85-144.79c-.2-1.65-.32-2.6-.43-3.55l-.61.07-.12,1.6a9.67,9.67,0,0,0-1.78-.22c-.12,0-.32,1-.29,1C118.75,114.5,119.69,114.79,121.06,115.24Zm-48.42,97H70.52l-.23,3.07C72.26,215.45,72.52,214.07,72.64,212.24Zm-13,32.51,1.48,4.05.56-.2c-.26-1.94-.52-3.88-.79-5.95Zm37.52-81.31.36,0a4,4,0,0,0,.19,1.1,4,4,0,0,0,.68.89,3.29,3.29,0,0,0,0-1.12c-.37-1-.83-2-1.25-3-.61,1.35-2.21,2.43-.68,3.9ZM48.43,102.89l-1.93-1.62-.47.5,1.35,3a8,8,0,0,0,1.49-1.47,5.47,5.47,0,0,0,.29-1.71l-.63,0ZM83.62,70l.5-.5c-.4-.42-.77-1.15-1.21-1.21a4.11,4.11,0,0,0-3.62,1ZM36.92,187.58l2.57-1c-.37-1.43-.67-2.6-1.09-4.25Zm96.86,55.5c.85-2.7,0-5-1.52-5.54C132.75,239.33,133.27,241.21,133.78,243.08ZM37.52,322.85a40.59,40.59,0,0,0,4.26.9c.25,0,.61-.79.92-1.22l-.23-.2-1.14.67-.56-1.37ZM63.26,94.55l-.45,5.94,2.49-.59C64.07,99.31,64,99.06,63.26,94.55ZM31.55,137l-2.41.32,1.45,3.49.58-.12c.11-.67.26-1.34.33-2S31.54,137.54,31.55,137Zm27.11-34.41c1.65,0,1.54,0,1.42,1.1a4.49,4.49,0,0,0,.66,1.94,1.46,1.46,0,0,0,.64-.21c.07-.06,0-.35,0-.54,0-.4.06-.8.12-1.66l-1.14-2.45ZM51.71,200l.63-.11.33-4.47-1.73.07Zm31.61-48.71.73-.26-1.54-5-.52.16-.54,2,.41-.1ZM25.82,321.73c-1.52,2.6-1.23,3.11,1.7,3.46Zm75.86-178.26.73-.14c-.19-1.65-.39-3.3-.58-5C100.47,138.85,100.48,140.93,101.68,143.47ZM71.61,238a17.58,17.58,0,0,0,.33,2.26,4.15,4.15,0,0,0,.73,1.07c.19-.4.61-.86.53-1.19-.15-.66-.74-1.32.51-1.4-.14-.36-.27-1-.43-1A6.34,6.34,0,0,0,71.61,238Zm46.23-89.15-.78.05c1,1.71-1.39,3.83,1.26,5.81Zm-53,196.53c0-3.41-.44-4.27-1.89-3.83C63.36,343,63,344.72,64.85,345.42ZM23.94,219c.55-1.52.3-2.48-1-2.85-.28-.09-1,.58-1.16,1s.11,1.13.2,1.7l.41,0,.47-1.21ZM88,87.34c1.75-1.56,1.75-2.5-.19-5.28Zm21.07,57.85-.4,5.32C110.13,149.46,110.21,146.82,109.08,145.19ZM101.22,131l1.06-.25c-1.07-1.37.7-3.43-1.41-5C101,127.77,101.11,129.36,101.22,131ZM30,20a3.67,3.67,0,0,0,.64,5ZM97.67,101l-1.65.82.11.4,1.32.1.53,1.88a8.7,8.7,0,0,0,.67-3.28c0-.51-.5-1-.78-1.51l-.37.24ZM30.22,127.6l-2.1.55,1.39,3.25.43-.07ZM20.07,279.73c-.53-.76-.73-1.08-.95-1.37s-.48-.53-.72-.8c-1.66,1.73-1.66,1.73.08,3.85l.24-2Zm72.28-66.37h.5l.12,1.78.62,0c0-.75.41-1.73.09-2.2s-1.36-.74-2.35-1.21l.15,2.73.3.06ZM79.11,244.57l-.25-3.85-1.88,3ZM87.39,102.5l-.71.16a15,15,0,0,0-.15,2.66c0,.32.65.67,1.06.81.15.05.73-.54.69-.73C88.06,104.41,87.7,103.46,87.39,102.5ZM99,204.25c1.12-1.51.79-3.46-1.11-5.51C98.31,200.87,98.63,202.49,99,204.25Zm-52.64,7.26a9.05,9.05,0,0,0,0,2.49,7,7,0,0,0,1.26,1.77l.42-.3a12.67,12.67,0,0,1-.61-2.14,14.07,14.07,0,0,1,.15-2.41Zm9.2-57.35c-1.86,1.46-1.77,2.79.15,3.82Zm24.87,39.89.23,1.79.46.37,2.28-2.55-1.26-.93-.29.34.44,1.36ZM12.76,307l.75,0c.29-1.18.6-2.34.83-3.52.05-.24-.19-.54-.3-.81-.34.2-.92.36-1,.6C12.89,304.55,12.85,305.79,12.76,307ZM39.91,164.32l-.38,0c-.44.27-.88.56-1.33.82s-1.07.55-1.67.85l1.18,1.81C38.6,166.38,39.26,165.35,39.91,164.32ZM22.5,209.48l-.29,3.84C23.32,212.28,24.31,211.24,22.5,209.48ZM72.32,67.74a19.06,19.06,0,0,0,1.89-2.15,1.47,1.47,0,0,0,0-1.18.92.92,0,0,0-.8-.44,1.31,1.31,0,0,0-.8.79A25.13,25.13,0,0,0,72.32,67.74ZM42.2,243.53c-1.58,1.34-1.24,4.27.24,5ZM117,188.73l.43-5.66C116.31,183.74,116.09,187.53,117,188.73ZM29.45,172.41,27.9,170c-.41,2.35-.41,2.35,3,2.46l-.66-2.73ZM68,341.23l-2.47-.18,1.39,3.85ZM30.73,98.78l1.57,1.16.08,2.58C33.84,99.27,33.68,98.88,30.73,98.78Zm69.35,23.49-3.23-2.53-.21.38,1.4,2.81ZM97.4,192.11c.6-2.12-.54-4.38-2-4.46Zm39.9-19.83.13,1.94,1.47-.83c-1.2-2.63-3-1.43-4.63-1.38l0,.55ZM75.77,244.47l-.86,0,.07,4.85h.65ZM79,268.53l.51.15.62-2.21-2.47-.6Zm57-120c-1.6,1.22-1.39,2.18,1.37,3.49Zm9.12,41.69.61-.48a8.35,8.35,0,0,0-1.18-2.12c-.16-.17-1.08.47-2,.91ZM90.7,214.51l-.93-3.21C87.18,213.31,89.34,213.84,90.7,214.51Zm45.23,47.78.34-4.44-1.81,2.45ZM72.79,69.73l-2.34-3-.49.41C71,67.83,69.74,70.24,72.79,69.73Zm39.69,44.33c1.06-1.22.94-2.73-.18-3.4a.86.86,0,0,0-.81,0c-.15.15-.12.59,0,.85C111.75,112.37,112.1,113.15,112.48,114.06ZM75.08,263.85l-.84-.11c-.31,1.6-.61,3.2-.91,4.8l.65.11ZM34.14,131l-.69-3.33-.49.11-1.06,2.63ZM83,222.49l3.13-1.24-.17-.59-1.66.35-.64-1.42-.45.14ZM16.79,326.93c-1,2.54-.65,3.37,1.46,3.51ZM36,29.86c-.93-.14-.64-2.87-2.57-1.14C34.23,29.35,34.21,31.26,36,29.86Zm35.41,83.72c-1.69,2.7-1.49,3.83.19,4.16Zm6.15,120.08-1.9-3L75,233.74ZM43.27,88.41c1.85-1.17-.64-2-.12-3.31l-1.59,1.65ZM126,191.24c-.41,1.1-.81,2.2-1.35,3.64l1.49-.58.43,1.69c.27-1,.39-1.45.52-1.93C125.34,193.61,126.69,192.23,126,191.24ZM20.63,272c1-2.2.1-2.92-1.63-3.18C19.48,269.75,20,270.7,20.63,272ZM101.2,133.51c-1.76,1.29-1.72,1.67.43,3.73C101.47,135.88,101.35,134.82,101.2,133.51Zm-88.86,209,.26,3.18.72,0,.57-3.71ZM95.15,80.59l.4,4.55C96.79,83.52,96.78,82.57,95.15,80.59Zm4.3,89,.33,2c.67-3.19.67-3.19-2.11-2.73ZM50,81.41c.63-2.3.1-3-2.4-2.61ZM27.7,31.69l.8.5a16,16,0,0,0,1.16-2c0-.1-.67-.54-1-.81Zm78.63,104.05.56-.45a11.09,11.09,0,0,0-1.7-1.66c-.14-.09-.81.72-1.41,1.28Zm3.6-38.41h-.64l.33,4.73.82-.06ZM37.46,155.89l-1.52-.41-.22.51c.55.29,1.25,1,1.62.81,1.28-.57,1.34-1.78,1.17-3l-.53-.15Zm10.72,37.79-.76-.2a2.53,2.53,0,0,0,0,3.76ZM137,222.12l-.47.59c-.2.94-.44,1.86-.57,2.81a1.73,1.73,0,0,0,.33,1c.06.09.63,0,.67-.11a12.66,12.66,0,0,0,.68-2.76C137.68,223.16,137.24,222.63,137,222.12Zm-21.72-75.76c-1.54,1.55-1.63,3.61-.53,4.12C114.92,149.24,115.08,148,115.29,146.36ZM46.83,73.89l.68-2.09-.28-.17-1.3,1.7a7.59,7.59,0,0,0-.3-1.5c0-.1-.61-.1-.75,0s-.24.75-.14.82C45.4,73.13,46.11,73.49,46.83,73.89Zm93,149.27.49-.4-.94-2.58-1.4-.28c2.18,2-.17,1.65-.16,2.66Zm-2.66,5.63.81.19.93-4.07-.68-.17Zm-87.06-37.4.8.53.32-.56-2.31-1.21.22,3.12.62,0Zm-2-104.78-.48.6c2.5-.18,1,1.82,1.92,3.08.31-1.18.87-2.15.62-2.72S48.81,86.91,48.09,86.61Zm4.26,34.12-.63,3.18,1.28,1C52.42,123.39,54.06,121.88,52.35,120.73ZM85.11,244.67,83,246.94l1.85,1.26ZM41.9,254.45c.14,1.27.27,2.55.43,4.13C44.18,256.64,42.81,255.59,41.9,254.45Zm99-40.59c-.17,1.23-.34,2.43-.51,3.68C142,216.9,142.25,215.15,140.92,213.86Zm-91.24-162,2.3-1.2,0-.55-2.55.22ZM40.87,36.11l-2.39-1,1.12,3.4Zm68.52,66.56-.52,0c-.07.93-.14,1.85-.16,2.78a11.6,11.6,0,0,0,1.17.09c-.15-.68-.26-1.11-.33-1.53S109.44,103.1,109.39,102.67ZM61.77,193.93c1.59-2.53,1.44-3.28-.41-3.93Zm69.13-57.22-.61-.09-.17-3.76h-.57c0,1.46,0,2.92-.06,4.74Zm1-2.49.91.22.63-3.18-.83-.18ZM27.34,24.6l.52.1a6.69,6.69,0,0,0-.09-2.38c-.18-.42-1.1-.49-1.65-.7Zm5.95,155.62-.79,1.12,2.77,1.39.55-1Zm83.44-55.76.8-.11c-.09-.75-.21-1.5-.26-2.26s0-1.22,0-1.83l-.66,0Zm8.21,60.67-.54-.1c-.07,1-.19,2-.16,3a7.27,7.27,0,0,0,1.46.24ZM84,173.12l1.1,3.28,1.1-2.42Zm13,84.88-.75.05.12,4.29h.68Zm-13.3-47.49-.79.08.26,3.25.86-.09Z"/></g></g></g></svg>