<?xml version="1.0" encoding="UTF-8"?><svg id="Calque_2" xmlns="http://www.w3.org/2000/svg" xmlns:xlink="http://www.w3.org/1999/xlink" viewBox="0 0 297.64 231.28"><defs><style>.cls-1{fill:none;}.cls-2{fill:#e5ab41;font-family:Avenir-Light, Avenir;font-size:8px;}.cls-3{clip-path:url(#clippath);}.cls-4{fill:#7da07b;}.cls-5{fill:#8ab188;}.cls-6{fill:#9da441;}.cls-7{fill:#323f14;}.cls-8{fill:#b7d198;}.cls-9{fill:#ca6721;}.cls-10{fill:#c52928;}.cls-11{fill:#dc9043;}.cls-12{fill:#d6ab4b;}.cls-13{fill:#3f9a47;}.cls-14{fill:#415238;}.cls-15{fill:#374416;}.cls-16{fill:#437341;}.cls-17{fill:#3d693b;}.cls-18{fill:#965544;}.cls-19,.cls-20{fill:#637f62;}.cls-21{fill:#47571e;}.cls-22{fill:#26320b;}.cls-23{fill:#264526;}.cls-24,.cls-25{fill:#3c4e3c;}.cls-26{fill:#607429;}.cls-27{fill:#606629;}.cls-28{letter-spacing:-.07em;}.cls-29{fill:#ddbe4e;font-size:19px;}.cls-29,.cls-30{font-family:GiovanettaScriptFont, 'Giovanetta Script Font';}.cls-20{opacity:.34;}.cls-30{fill:#de973e;font-size:21px;}.cls-31{fill:#beca9b;opacity:.6;}.cls-25{opacity:.28;}</style><clipPath id="clippath"><rect class="cls-1" y=".04" width="297.64" height="231.24"/></clipPath></defs><g id="Calque_1-2"><g><rect class="cls-18" x="0" y="0" width="297.64" height="231.28"/><g><path class="cls-15" d="M138.93,108.38c-.39-.53-.31-.98-.35-3.69-.07-5.47-.11-8.7-1.11-11.52-1.4-3.96-4.31-6.09-5.69-7.1-.13-.1-.26-.19-.53-.37-3.91-2.59-8.41-4.88-9.57-5.4-6.92-3.1-17.61,1.65-17.67,1.35-.07-.35,14.52-4.43,17.63-5.21h.06c1.11-.29,2.45-.46,4.52-.3,4.76,.35,9.65,2.66,9.65,2.66,5.38,2.45,9.14,5.63,10.82,7.15,5.9,5.34,9.94,9,9.54,13.2-.71,7.39-14.77,12.61-17.29,9.23Z"/><path class="cls-15" d="M129.65,118.57c-.25-.31-.32-.72-.26-2.62,.1-2.93,.36-4.19,.45-5.62,.11-1.74,.43-6.59-1.89-9.41-.58-.7-1.27-1.23-1.31-2.2-.05-1.17,.88-2.21,1.61-2.7,1.74-1.19,4.04-.37,5.4,.68,2.23,1.71,2.67,4.57,2.77,5.24,.4,2.57-.37,4.71-.6,5.33-.87,2.36-1.94,2.62-1.88,3.96,.1,2.16,2.95,2.63,2.92,4.23-.04,2.27-5.82,4.85-7.21,3.12Z"/><path class="cls-21" d="M151.88,106.65c.48-2.07,1-5.48,.22-9.36-1.27-6.36-5.3-10.31-10.55-15.33-4.14-3.96-6.21-5.93-9.43-7.54-9.14-4.55-21.47-3.5-28.28,4.42-1.43,1.67-3.77,4.38-3.59,7.8,.32,5.95,8.11,10.84,13.92,12.47,4.04,1.14,5.28,.19,8.75,2.08,1.33,.73,6.85,3.73,7.18,8.84,.17,2.54-.95,5.48-2.92,7.28-5.64,5.16-16.28-.82-22,2.6-.56,.34-2.05,1.23-2.92,3.12-.55,1.2-.66,2.38-.67,4.16-.02,2.86-.05,5.82,.56,7.91,.66,2.29,2.48,4.96,10.44,8.47,9.78,4.31,14.68,6.47,20.92,4.95,9.62-2.33,14.9-10.71,15.67-11.97,8.09-13.26,3.12-28.63,2.69-29.89Z"/><path class="cls-7" d="M161.46,77.4c-.03-1.18-.14-4.01-1.62-6.89-.66-1.28-2.11-4.08-4.04-4.16-2.69-.11-5.46,5.1-6.06,9.62-.4,3.01,.4,3.93,0,9.36-.25,3.42-.61,3.54-.45,4.94,.53,4.74,5.32,9.78,8.31,8.84,4.37-1.38,4.03-15.27,3.87-21.7Z"/><path class="cls-22" d="M151.31,92.82c-.23-.15,.6-1.43,.73-4.23,.06-1.35-.08-2.03-.44-4.9-.39-3.18-.59-4.77-.58-5.75,.01-2.09,.05-4.48,1.46-6.25,.31-.39,1.35-1.71,2.63-1.52,1.39,.2,2.14,2.06,2.4,2.69,.81,2,.58,4,.38,5.25-1.23,7.48-6.02,15.07-6.57,14.71Z"/><g><path class="cls-9" d="M158.73,72.19c-1.84,.45-2.66,3.76-3.94,9.2-1.3,5.53-.59,5.38-1.39,7.21-2.24,5.08-7.14,4.71-12.28,9.45-.28,.26-.57,.54-.87,.86-2.69,2.91-4.05,5.8-4.58,6.92-4.23,9.09-8.78,13.67-12.63,26.23-2.13,6.97-3.45,11.28-3.29,17.5,.08,3.23,.61,15.31,7.89,22.37,4.23,4.1,8.99,5.18,15.5,6.65,4.48,1.01,7.58,1.19,24.39,1,.42,0,9.72,.16,24.79-.75,12.98-.78,14.65-1.23,16.68-2.24,7.69-3.82,11.53-11.07,13.44-14.67,4.55-8.6,5.03-16.85,5.33-21.87,.61-10.29,1.08-18.23-3.21-23.35-1.92-2.28-5.64-5.01-11.64-12.44-.19-.24-.15-.22-.21-.26-9.55-6.6-13.44-3.45-19.69-10.19-2.24-2.41-5.66-7.05-8.57-11.93-2.91-4.88-3.88-7.6-6.49-8.2-3.9-.91-7.84,3.75-9.04,2.49-.83-.88,.63-3.59,0-3.98-.61-.37-1.77,2.34-3.94,2.73-2.74,.5-4.14-3.26-6.26-2.73Z"/><path class="cls-10" d="M228.14,130.28c-.41-.07-.99,2.86-3.01,9.45-2.86,9.34-4.3,14.01-5.56,13.92-1.68-.11-1.35-8.03-4.4-19.89-2.93-11.41-7.33-20.02-7.65-19.89-.26,.11,2.21,6.14,4.63,15.66,1.72,6.74,7.27,30.38,.7,35.05-.55,.39-1.14,.62-4.17,2.49-3,1.85-4.67,3.14-5.79,3.73-3.46,1.82-6.31,3.33-10.19,4.47-5.24,1.55-6.86,.83-18.77,1.74-.97,.07-2.44,.19-4.4,0-2.42-.24-2.91-.69-4.4-.75-3.52-.14-4.79,2.32-6.49,2.24-5.6-.27-8.86-27.93-9.5-27.84-.4,.06-1.67,11.48,.46,19.64,.26,.99,1.07,3.86-.23,5.47-1.11,1.37-3.18,1.12-3.24,1.74-.09,.92,3.94,1.99,3.94,1.99,8.66,2.29,17.25,2.2,20.16,2.24,4.22,.06,3.07-.17,12.05-.25,6.67-.06,9.5,.05,14.36-.5,5.28-.59,7.82-1.37,9.5-1.99,1.71-.63,4.4-1.64,7.18-3.73,4.09-3.06,6.15-6.77,7.88-9.94,3.65-6.72,4.75-12.72,5.79-18.64,1.42-8.04,1.83-16.29,1.16-16.41Z"/><path class="cls-6" d="M157.02,73.54c.16-1.31,2.71-.74,4.71-3.26,1.48-1.86,.97-3.28,2.61-4.74,1.14-1.01,1.62-.53,3.4-1.48,.33-.18,3-1.64,4.71-4.74,1.63-2.95,.89-4.65,2.35-5.63,1.36-.91,3.55-.49,4.45,.89,.56,.87,.47,1.9,.26,3.85-.33,3.1-.98,3.11-1.05,5.04-.08,2.31,.85,2.63,1.31,6.52,.2,1.74,.3,2.63,0,3.56-.64,1.98-2.6,3.7-4.45,3.56-1.84-.14-2.31-2.03-3.66-1.78-1.53,.29-1.33,2.78-3.14,3.85-1.79,1.07-4.05-.15-7.06-1.78-1.95-1.05-4.61-2.49-4.45-3.85Z"/><path class="cls-11" d="M166.54,84.54c-2.47,1.71,.66,6.78-2.27,10.47-2.41,3.04-5.72,1.89-11.94,5.95-5.97,3.9-3.15,7.89-12.2,22.86-1.4,2.32-4.5,7.24-6.15,14.29-.89,3.81-.83,5.97,.29,7.24,1.96,2.24,6.18,1,6.45,.92,6.57-2.05,6.95-10.41,10.93-10.62,4.56-.24,8.93,10.44,9.28,10.19,.16-.11-.93-2.2-.8-2.29,.08-.06,1.68,3.71,4.53,6.02,3.45,2.79,9.19,3.82,12.01,1.03,1.76-1.73,1.42-4.35,1.87-4.36,1.55-.05,3.76,30.5,4.94,30.45,.97-.04-2.15-20.74,6.43-26.23,4.46-2.85,9.55,.59,13.71-4.34,.86-1.02,4.04-4.79,3.28-8.75-.5-2.62-2.26-2.89-4.65-8.02-.41-.89-1.18-2.55-1.82-4.85-.96-3.48-1.17-6.33-1.23-7.05-.63-7.99-6.92-20.28-7.93-19.89-1.14,.44,5.44,16.74,2.06,18.92-2.16,1.4-8.57-2.9-9.62-8.26-.72-3.67,1.43-5.22,1.34-11.37-.03-2.14-.09-5.9-2.34-7.87-2.97-2.6-8.54-1.03-8.54-.8,0,.14,1.74,.44,1.85,.12,.24-.69-6.6-5.75-9.48-3.77Z"/><path class="cls-9" d="M169.34,72.39c-.87,.7-1.58,1.3-2.05,1.71-1.24,1.06-1.53,1.38-2.24,1.73-.21,.11-.92,.45-1.9,.63-.61,.11-1.09,.11-1.43,.11-.8,0-1.45,0-2.04-.23-1.4-.55-1.51-2.01-2.12-2-1.14,.02-1.98,5.21-2.39,8.11-.7,4.91-.93,8.67-.97,9.37,0,0-.45,7.63-.21,16.29,.08,2.8,.23,5.87,.23,5.87,.07,1.28,.13,2.46,.23,4.01,.47,6.74,1.12,9.75,1.33,10.67,.09,.39,.18,.76,.36,1.52,0,0,.67,2.72,1.74,6.59h0c-3.11-25.82-2.74-35.6-1.5-39.18,.23-.66,.9-2.31,1.55-4.9,1-3.95,.9-5.94,2.1-9.24,.59-1.62,1.22-2.84,1.63-3.57"/><path class="cls-27" d="M169.31,72.89l2.12-5.55c.05-.13,.1-.26,.2-.35,.15-.14,.35-.14,.54-.13l3.33,.18c.4,.02,.88-.01,1.07-.42,.07-.14,.1-.33,.22-.4,.09-.05,.19-.01,.29,.03,.75,.34,1.3,1.13,1.6,1.99,.3,.86,.39,1.81,.44,2.74,.01,.2,.01,.43-.09,.59-.08,.11-.2,.17-.32,.22-1.68,.68-3.79,.34-5.01,1.85-.47,.58-.71,1.35-1.12,1.99-.56,.88-1.45,1.48-2.39,1.61-.32,.04-.67,.03-.93-.2-.27-.24-.38-.65-.43-1.03-.13-.94-.02-1.92,.31-2.79"/><g><path class="cls-5" d="M123.14,113.11c2.82,.83,4.16,3.42,4.39,3.89,1.75,3.56-1.03,4.89,.18,10.35,.46,2.08,1.42,4.37,.37,6.4-.16,.31-.39,.66-.8,1.48-.94,1.89-1.4,2.85-1.15,3.7,.33,1.07,1.61,1.56,1.93,1.68,2.73,1.03,4.16-1.57,7.37-1.54,1.59,.02,4.08,1.8,9,5.35,3.49,2.53,3,2.36,4.13,3.06,4.71,2.92,7.39,2.08,11.76,3.75,1.47,.56,8.32,3.17,10.63,9.48,2.24,6.12-1.16,12.01-1.89,13.28-3.6,6.25-9.76,8.18-11.52,8.7-1.55,.46-6.73,1.79-12.47-.16-6.72-2.28-7.73-6.85-13.73-7.07-1.08-.04-3.85-.15-6.4,1.48-2.5,1.6-2.51,3.41-4.65,4.64-.78,.45-2.67,1.29-8.36-.2-8.42-2.2-8.1-5.03-12.92-5.22-2.79-.11-5.95,.94-12.28,3.03-.94,.31-2.06,.7-3.89,1.25-4.13,1.23-6.55,1.67-8.01,1.9-4.14,.63-5.25,.21-5.66,.04-1.6-.68-2.48-1.89-3.31-3.07-1.98-2.8-2.43-5.57-2.85-8.32-.68-4.48-1.06-7.01,.38-8.24,.24-.21,2.09-.77,5.77-1.88,.66-.2,1.4-.42,1.89-1.11,.7-.97,.51-2.28,.41-2.95-.26-1.75-1.04-2.26-.72-3.15,.22-.61,.67-.62,1.57-1.33,1.91-1.51,1.69-2.88,2.84-3.32,1.58-.61,4.12,1.15,3.95,1.9-.3,1.26-8.42-.19-10.25-.51-1.82-.32-3.03-.64-3.83-1.69-.68-.9-.72-2.02-.79-4.27-.07-2.18-.1-3.29,.65-3.91,.59-.49,1.05-.15,2.71-.36,1.03-.13,3.32-.42,4.58-1.9,1.03-1.21,.4-2.08,1.26-2.85,1.44-1.27,4.49-.02,6.47,.79,2,.82,4.42,1.81,6.63,4.11,.99,1.03,1.47,1.84,2.68,2.21,1.15,.36,2.85,.3,3.95-.79,1.39-1.38,1.23-3.84,.32-5.22-.81-1.22-2.09-1.41-2.06-2.27,.01-.4,.3-.78,1.43-1.53,1.86-1.23,3.52-1.81,3.79-1.9,4.52-1.53,4.72-1.19,6-2.06,1.53-1.04,2.49-2.39,2.78-2.8,.9-1.28,.73-1.59,1.32-2.42,1.63-2.25,3.91-1.29,6.15-3.16,2.05-1.71,.92-3.16,3-5.22,1.65-1.63,4.52-2.87,7.27-2.07Z"/><path class="cls-16" d="M129.1,169.7c-.65,.38-.45,2.36,.75,3.23,1.2,.88,2.59,.01,3.91,.98,1.08,.78,.61,1.68,1.52,2.12,1.29,.62,3.38-.62,5.15-1.68,1.7-1.01,1.64-1.29,2.73-1.91,1.66-.94,2.87-.9,7.1-1.31,6.03-.59,7.06-1.01,7.9-.24,1.29,1.19-.22,3.07,1.21,4.42,1.22,1.16,3.72,1.09,5.37,.42,2.8-1.15,3.48-4.18,3.87-5.91,.24-1.07,.74-3.49-.54-6.21-.35-.75-1.51-3.22-4.28-4.54-2.57-1.22-5.63-1.03-10.58-1.79-.75-.12-1.61-.26-2.21-.88-.66-.68-.57-1.48-1.14-1.63-.59-.15-1.01,.63-1.61,.48-.62-.15-.46-1.06-1.21-1.55-.68-.44-1.32-.03-2.36-.12-1.74-.16-2.91-1.56-3.8-2.62-.42-.5-1.4-1.78-1.86-3.71-.66-2.75,.36-4.21-.54-4.77-.85-.53-2.79,.11-3.9,1.23-1.73,1.76-.33,3.59-2.14,5.33-.79,.76-2.13,1.45-3.48,1.31-1.09-.11-2.04-.75-2.75-1.22-1.16-.78-1.29-1.23-1.54-1.17-1.05,.25-1.17,8.59,2.81,10.27,.51,.21,1.99,.26,4.95,.36,3.23,.1,3.77-.03,4.82,.36,1.87,.7,3.86,2.51,3.48,3.82-.53,1.87-5.88,2.64-8.3,2.99-1.82,.26-3.22,.3-3.35,.84-.16,.66,1.67,1.74,2.95,2.27,1.36,.56,1.98,.45,2.54,1.07,.72,.79,.83,2.17,.27,2.51-1.16,.69-4.65-3.4-5.76-2.75Z"/><path class="cls-16" d="M105.45,166.19c-.18,.13-.49,.35-.95,.62-1.42,.84-2.66,1.24-3.2,1.39-.3,.09-.59,.16-1.03,.25-3.8,.81-4.87,.34-5.57,1.16-.69,.82,.12,1.57-.47,3.46-.45,1.43-1.34,2.33-1.81,2.8-2.27,2.29-6.39,3.59-8.77,2.03-1.07-.7-.69-1.26-1.63-1.83-2.87-1.74-7.17,3.09-9.75,1.43-1.04-.67-1.51-2.21-1.74-2.95-.25-.81-.52-1.69-.27-2.68,.3-1.2,1.07-1.4,2.81-3.35,1.71-1.92,1.38-2.2,2.01-2.42,1.73-.59,4.51,1.43,7.36,3.49,.67,.49,1.06,.8,1.47,.67,1.12-.36,.25-3.41,1.94-6.81,.54-1.09,1.15-2.32,2.44-2.84,1.89-.76,4.47,.29,5.67,2.01,1.48,2.14,.28,4.55,1.21,4.96,1.37,.62,3.59-4.85,7.5-4.96,2.13-.06,4.24,1.49,4.15,2.28-.04,.32-.48,.64-1.36,1.29Z"/><path class="cls-16" d="M114.62,144.63c-.08,.38,1.18,.9,3.85,2.04,2.48,1.06,2.9,1.25,3.56,1.09,1.13-.27,1.76-1.27,2.42-2.31,1.44-2.29,1.59-4.64,1.69-6.52,.09-1.75,.14-2.62-.22-3.54-.29-.76-1.55-1.91-4.06-4.18-.53-.48-1.05-.94-1.43-.78-.45,.18-.3,1.05-.67,2.28-.03,.1-.45,1.47-1.21,2.28-1.59,1.71-4.13,.4-4.83,1.6-.82,1.4,1.56,5.09,1.75,5.38,.38,.6,.94,1.34,.67,1.88-.31,.63-1.46,.43-1.53,.79Z"/><path class="cls-16" d="M122.36,112.94c-1.27,.06-2.47,.86-3.13,1.92-.92,1.48-.76,3.41,.05,4.63,.35,.53,1.64,1.31,4.23,2.88,.83,.5,1.28,.76,1.74,1.34,.6,.76,.91,1.67,1.21,2.55,.36,1.08,.42,1.62,.54,1.61,.18-.01,.11-1.38,.42-3.88,.1-.84,.16-1.28,.28-1.93,.26-1.43,.43-1.59,.42-2.34,0-.92-.26-.96-.3-2.05-.04-1.2,.26-1.33,.09-1.85-.46-1.42-3.16-1.83-3.19-1.76-.02,.05,1.17,.59,1.21,.54,.04-.08-1.63-1.74-3.57-1.65Z"/><path class="cls-26" d="M82.14,157.79c-1.15,.17-2.42-.82-2.81-2.01-.54-1.62,.54-3.62,1.87-3.89,.74-.15,1.4,.25,1.87,.54,.4,.24,1.65,1,1.7,2.23,.04,.9-.58,1.57-1.03,2.06-.41,.45-.89,.97-1.61,1.07Z"/><path class="cls-16" d="M93.21,158.56c-1.79-.55-1.97-1.56-4.23-2.91-1.14-.68-1.61-.74-1.62-1.08-.02-.82,2.64-1.55,4.69-1.64,.83-.04,2.35-.11,2.75,.65,.21,.41-.1,.68-.2,1.53-.22,1.85,.99,2.93,.54,3.49-.36,.44-1.43,.11-1.92-.04Z"/><path class="cls-16" d="M116.91,165.32c-1.33,1.18-.63,3-1.7,3.6-.77,.43-1.31-.4-2.14,0-1.2,.58-1.28,2.88-1.34,4.7-.04,1.17-.06,1.75,.13,2.28,.98,2.69,5.27,3.78,5.89,2.95,.38-.51-.54-1.88-.54-1.88,0,0,.59,3.02,2.01,3.35,1.48,.35,2.2-2.63,6.16-4.7,1.13-.59,1.7-.67,2.01-1.34,.55-1.16-.5-2.38-1.61-5.37-.43-1.16-.64-1.98-1.07-3.62-.81-3.1-1.28-4.91-1.47-7.38-.09-1.15-.12-2.38-.4-2.42-.33-.04-.33,1.62-1.47,2.42-1.38,.96-3.08-.27-3.82,.61-.42,.5-.23,1.34,.07,2.61,.44,1.86,1.16,2.49,.8,3.22-.28,.57-.8,.33-1.51,.96Z"/><g><path class="cls-8" d="M85.07,149.82c.73-1.85,1.46-3.7,2.19-5.55,.51-1.29,1.03-2.69,.67-4.02-.5-1.85-2.45-2.85-4.21-3.63l-4.32-1.92c-.46-.21-.95-.42-1.46-.4-.59,.03-1.13,.35-1.61,.7-1.48,1.07-2.79,2.41-4.43,3.2-1.64,.8-3.5,.99-5.19,1.66-.32,.13-.66,.29-.85,.59-.21,.34-.17,.77-.11,1.17,.44,3.05,1.44,6.01,2.91,8.71,.25,.46,.54,.94,1.01,1.17,.5,.25,1.08,.17,1.63,.07,2.06-.38,4.07-1.01,5.98-1.87,.44-.2,.96-.41,1.39-.19,.95,.47,.2,1.99,.61,2.97,.49,1.18,2.17,.92,3.44,1.08,1.51,.19,2.85,1.35,3.27,2.81,.67-2.17,.32-4.64-.92-6.54Z"/><path class="cls-8" d="M98.43,149.75c-.14,.51-.32,1.03-.23,1.55,.16,.89,1.03,1.44,1.79,1.93,2.53,1.61,4.74,3.72,6.48,6.17,.39,.55,1.09,1.2,1.63,.79,.41-.31,.29-.95,.13-1.44l.21-.46c-1.51-2.2-2.77-4.58-3.74-7.07,1.41-.94,1.54-2.97,1.18-4.63-.79-3.65-3.28-6.88-6.61-8.54-.95,3.8,.21,7.92-.84,11.7Z"/><path class="cls-8" d="M103.34,129.17c-.1,.46,.3,.9,.75,1.03s.92,.04,1.38-.03c1.31-.2,2.72-.2,3.87,.47,1.87,1.09,2.43,3.49,2.81,5.62,2.28-3.37,4.69-6.64,7.24-9.81l.27-.33c.26-1.35,.3-2.75,.11-4.12l-.81,.11c.06,.34-.22,.76-.49,1.04-1.87,1.95-4.18,4.05-6.85,3.71-.76-.1-1.49-.4-2.26-.48-1.95-.22-3.74,.94-5.35,2.06-.28,.19-.58,.41-.66,.74Z"/><path class="cls-8" d="M112.46,120.18l5.86,1.42c.18,.05,.37,.1,.5,.23,.08,.08,.12,.17,.14,.26l.81-.11c-.2-1.5-.67-2.96-1.38-4.29-2.06,.6-4.06,1.44-5.93,2.49Z"/><path class="cls-8" d="M148.53,152.96c-.05,.19-.1,.4-.09,.6,.03,.46,.38,.85,.78,1.06,.41,.21,.87,.28,1.33,.34,1,.14,2.2,.19,2.8-.63,.38-.53,.35-1.25,.26-1.9-.14-.91-.38-1.83-.9-2.59-.52-.76-1.36-1.35-2.28-1.39l-.59-.24c-.19,.23-.26,.54-.34,.83-.32,1.3-.65,2.61-.97,3.91Z"/></g></g></g></g><g class="cls-3"><g><polygon class="cls-24" points="29.83 209.46 -18.1 188.49 -1.38 150.94 46.55 171.9 29.83 209.46"/><path class="cls-16" d="M53.13,218.58c.66,1.37,1.72,3.59,4.07,4.88,1.65,.91,3.16,.93,3.25,1.64,.11,.86-2.08,1.1-3.94,3.13-1.67,1.82-2.1,4.02-2.47,5.92-.31,1.58-.57,2.91-.24,4.6,.61,3.11,2.74,5.07,4.17,6.39,1.05,.96,2.11,1.94,3.83,2.61,1.24,.48,1.86,.43,6.92,.55,3.3,.08,4.94,.11,5.97,.17,3.49,.19,3.54,.36,4.45,.17,3.08-.67,5.05-3.24,5.57-3.92,1.72-2.25,1.19-3.3,3.05-4.81,.64-.53,.89-.54,2.92-2.02,.98-.71,1.54-1.12,2.23-1.7,.4-.34,1.75-1.5,2.69-2.74,1.64-2.18,.81-3,2.06-4.96,1.7-2.68,3.72-1.89,6-5.08,.59-.82,1.48-2.1,1.47-3.81,0-1.05-.35-1.48-1.33-3.55-1.91-4.01-1.78-4.83-3.37-7.2-.82-1.22-1.23-1.83-1.96-2.36-1.91-1.4-3.47-.8-4.33-2.02-.86-1.22,.36-2.35-.32-3.74-.29-.59-1.23-1.86-6.27-2.17-5.23-.32-9.05,.72-9.05,.72-14.69,3.99-19.37,.51-23.51,5.3-3.28,3.81-3.78,10.02-1.86,14.01Z"/><path class="cls-16" d="M-1.74,181.29h0c.86-.5,2.98-1.59,5.34-.99,.42,.11,1.19,.35,2.76,1.56,2,1.54,4.09,3.14,5.44,6.13,1.39,3.07,1.16,5.74,1.1,6.29-.08,.77-.2,1.88-.84,3.09-.93,1.75-2.37,2.62-3.15,3.14-3.56,2.37-8.43,7.59-10.26,12.15-.25,.61-.7,1.87-1.75,2.19-.96,.29-1.65-.45-3.74-1.15-1.05-.35-.9-.17-3.38-.74-2.71-.61-4.06-.92-4.97-1.48-.71-.43-2.82-1.73-2.89-3.53-.09-2.14,2.77-3.38,2.28-4.58-.33-.8-1.62-.27-2.77-1.43-.67-.67-.91-1.68-1.38-3.71-.27-1.16-.22-1.24-.44-2.26-.62-2.81-1.26-3.01-1.4-4.4-.15-1.53,.55-2.05,1.78-5.11,1.15-2.88,1.25-4.21,1.62-5.1,.95-2.3,4.89-4.61,18.37-4.39"/><path class="cls-4" d="M33.62,142.9c.21-.45,.8-1.68,.49-3.08-.28-1.26-1.15-2.07-1.34-2.24-1.51-1.36-2.9-.7-4.02-2.01-.61-.72-.2-.92-.87-2.06-.93-1.59-1.95-1.58-3.36-3.18-1.31-1.48-.69-1.78-1.67-2.65-1.73-1.54-3.4-.37-6.04-1.96-1.1-.66-1.82-1.47-2.19-1.9-1.15-1.32-1.28-2.16-1.95-3.32-2.02-3.48-5.87-4.6-6.48-4.77-.96-.26-2.37-.63-3.88-.03-.41,.16-1.26,.5-1.84,1.33-1,1.41,.04,2.42-.91,4.04-.62,1.06-1.32,1.05-1.63,2.17-.24,.88,.07,1.35-.3,1.75-.46,.49-1.29,.17-2.51,.11,0,0-2.14-.11-4.23,.89-1.6,.76-1.16,1.38-3.13,2.88-2.19,1.66-3.14,1.21-4.93,2.99-.65,.65-1.16,1.33-1.69,2.06-.96,1.31-1.44,1.96-1.57,2.63-.27,1.42,.69,1.61,.68,3.64,0,1.38-.46,3.01-.46,3.01h0s1.02,1.36,1.34,2.61c.36,1.39-.13,2.63-.3,3.06-.56,1.42-1.17,1.26-2.49,3.14-.52,.74-.99,1.79-1.94,3.9-.34,.76-.57,1.32-.61,2.08-.05,.9,.21,1.42,.36,2.05,.39,1.62-.31,2.39-.72,4.71-.33,1.9-.21,3.38-.11,4.5,.04,.52,.24,2.66,1.33,5.55,1.44,3.82,2.6,6.92,5.31,7.99,1.75,.69,2.4-.14,4.85,.88,1.65,.69,1.99,1.34,3.55,1.64,1.51,.28,2.77-.03,3.65-.24,.79-.19,1.22-.39,3.67-1.58,3.91-1.89,4.11-2.02,4.43-2.38,1.25-1.41,.5-2.11,1.91-3.98,1.17-1.56,1.98-1.45,2.86-2.95,.33-.57,.54-1.13,.91-3.38,.74-4.45,.56-5.95,1.25-6.16,.66-.21,1.26,1.05,3.01,2.49,1.72,1.42,3.9,2.47,5.13,2.65,6.26,.91,11.97-17.33,16.48-26.85Z"/><path class="cls-4" d="M-12.05,243.5c-.37,.42-1.37,1.58-1.35,3.28,.02,1.52,.86,2.77,1.05,3.03,1.47,2.1,3.29,1.89,4.31,3.78,.55,1.04,.01,1.11,.53,2.64,.71,2.13,1.94,2.52,3.23,4.85,1.19,2.16,.38,2.27,1.34,3.61,1.69,2.38,3.97,1.71,6.72,4.49,1.15,1.16,1.8,2.34,2.14,2.97,1.04,1.92,.99,2.91,1.51,4.47,1.55,4.67,5.87,7.39,6.56,7.81,1.08,.66,2.67,1.61,4.62,1.5,.52-.03,1.62-.09,2.53-.8,1.54-1.21,.55-2.74,2.08-4.19,1-.95,1.84-.68,2.48-1.82,.51-.9,.25-1.54,.79-1.85,.67-.38,1.58,.3,3.02,.83,0,0,2.53,.93,5.27,.6,2.1-.25,1.73-1.11,4.45-2.05,3.03-1.04,4.05-.17,6.63-1.49,.94-.48,1.71-1.06,2.52-1.67,1.47-1.1,2.21-1.66,2.52-2.36,.67-1.49-.42-2.07,.09-4.34,.35-1.54,1.3-3.21,1.3-3.21h0s-.88-1.91-.95-3.44c-.08-1.69,.81-2.9,1.12-3.32,1.02-1.38,1.71-.97,3.75-2.58,.8-.63,1.63-1.64,3.29-3.65,.6-.73,1.01-1.26,1.25-2.1,.28-1,.1-1.67,.08-2.43-.06-1.97,.96-2.56,2.02-5.02,.86-2.01,1.08-3.72,1.25-5.01,.08-.6,.37-3.08-.21-6.74-.77-4.84-1.39-8.76-4.36-10.99-1.92-1.44-2.9-.75-5.57-2.83-1.8-1.41-2.04-2.26-3.83-3.18-1.73-.89-3.31-1.02-4.42-1.11-.99-.08-1.55-.03-4.78,.38-5.14,.65-5.41,.71-5.88,1-1.84,1.12-1.12,2.18-3.27,3.75-1.79,1.3-2.72,.88-4.14,2.23-.54,.51-.92,1.06-1.93,3.46-1.98,4.72-2.14,6.47-3.01,6.45-.84-.02-1.25-1.66-2.97-3.94-1.7-2.25-4.05-4.25-5.47-4.92-7.24-3.39-18.58,14.94-26.31,23.92Z"/><path class="cls-19" d="M17.81,203.06h0l-.08-.06s-.7-.53-1.46-1c-3.43-2.13-7.25-2.67-7.25-2.67-1.52-.21-1.49,0-5.36,.08-6.5,.13-7.33-.48-8.34,.44-2.09,1.88-1.23,6.8-.06,9.3,.32,.68,1.08,2.11,2.03,4.24,.66,1.5,.6,1.5,.95,2.13,.58,1.05,.95,1.38,.87,1.94-.1,.72-.79,.85-1.21,1.54-.82,1.33,.22,3.34,.4,3.69,1.61,3.12,5.16,2.97,5.51,5.26,.08,.56-.13,.53-.48,2.03-.51,2.23-.99,4.32-.15,6.01,1.3,2.64,5.24,3.24,6.38,3.41,1.03,.16,.83-.02,2.29,.16,2,.24,4.25,.51,6.27,1.89,1.42,.97,1.14,1.41,2.8,2.44,.83,.52,2.03,1.25,3.64,1.3,1.14,.04,1.96-.28,2.97-.68,.51-.2,1.26-.53,4.89-3.02,1.57-1.07,2.14-1.49,3.21-1.83,1.25-.39,1.48-.13,2.08-.51,1.86-1.17,1.5-4.76,1.41-5.65-.07-.69-.23-2.14-1.08-3.7-.62-1.13-1.36-1.86-1.24-1.99,.18-.18,1.58,1.67,3.99,2.15,.76,.15,1.53,.09,3.07-.04,1.93-.16,2.31-.44,2.5-.72,.28-.42,.05-.72,.11-1.74,.01-.19,.12-1.66,.75-2.57,.76-1.09,2.03-1.05,3.02-1.45,2.34-.95,3.12-4.36,3.59-6.93,2.51-13.82,3.77-20.73,.78-23.6-4.73-4.53-17.87-2.06-30.33,8.51"/><g><path class="cls-14" d="M15.31,207.62c10.42,12.66,22.22,20.96,22.43,20.68"/><polygon class="cls-23" points="34.29 227.84 30.7 226.67 23.03 230.18 11.96 230.32 34.29 227.84"/><polygon class="cls-23" points="36.39 225.77 38.05 222.52 37.12 215.24 39.46 205 36.39 225.77"/><path class="cls-23" d="M35.05,223.09s1.04-6.11-1.53-11.17c-4.19-8.22-15.11-8.38-15.1-8.43,.02-.05,10.3-.06,14.65,7.69,2.96,5.27,1.93,11.92,1.98,11.91Z"/><path class="cls-23" d="M32.56,225.42c0,.05-5.48,1.42-10.16-1.2-7.61-4.26-8.23-16.33-8.28-16.3-.05,.02,.4,11.38,7.59,15.84,4.89,3.03,10.85,1.61,10.85,1.66Z"/><polyline class="cls-23" points="38.49 226.66 41.88 227.8 45.41 225.53 36.97 227.07"/><polyline class="cls-23" points="34.23 230.92 32.13 233.59 32.34 237.08 34.53 229.54"/></g><g><polygon class="cls-17" points="6.6 163.95 3.33 160.06 -8.02 158.66 -20.84 150.96 6.6 163.95"/><polygon class="cls-17" points="10.51 163.05 14.77 160.51 18.95 151.47 29.03 141.37 10.51 163.05"/><path class="cls-17" d="M10.91,159.03c.06,.02,5.61-6.29,6.3-13.92,1.12-12.41-11.32-20.35-11.26-20.4,.06-.05,11.88,7.23,11.28,19.23-.41,8.15-6.38,15.07-6.32,15.09Z"/><path class="cls-17" d="M6.36,159.94c-.04,.05-7.32-2.25-10.81-8.59-5.67-10.29,2.32-24.6,2.25-24.61-.07,0-7.76,13.36-2.71,23.59,3.43,6.96,11.31,9.55,11.26,9.6Z"/><polyline class="cls-17" points="12.29 165.56 15.37 169.28 21.06 169.18 10.24 164.97"/><polyline class="cls-17" points="4.31 167.45 -.03 169.03 -2.31 173.18 5.65 166.07"/></g><polyline class="cls-17" points="18.32 230.36 14.59 227.28 9.02 228.45 20.44 230.56"/><path class="cls-5" d="M44.67,202.16c.96-3.57,3.25-5.53,3.08-5.67-.21-.17-3.74,2.68-6.58,6.83-.46,.67-1.13,1.43-2.11,2.44-1.07,1.09-2.98,2.13-4.75,1.86-1.75-.27-2.11-1.62-3.65-1.47-.97,.1-1.17,.67-2.22,1.14-1.58,.71-3.16,.3-5.52-.35-3.28-.9-4.92-1.36-6.27-2.91-.23-.26-2.27-2.67-1.9-5.92,.11-.97,.71-1.32,.49-1.92-.45-1.22-2.64-.51-4.25-1.96-.74-.67-.6-1.12-1.86-4.68-.86-2.41-.85-1.99-1.27-3.32-.7-2.22-1.43-4.54-.91-7.27,.27-1.41,.81-2.59,1.07-3.17,.53-1.15,.92-1.63,1.64-2.84,.89-1.51,1.42-2.68,2.03-4.06,1.26-2.82,.99-3.05,2.11-5.7,.98-2.33,1.98-4.02,2.79-5.37,.81-1.37,1.79-3,3.36-4.97,.8-1,2.71-2.71,6.54-6.12,.87-.78,1.84-1.62,2.92-1.43,1.16,.2,1.76,1.47,2.23,1.26,.45-.2-.17-1.34,.41-2.49,.7-1.4,2.64-1.78,3.4-1.93,.92-.18,1.4-.27,1.91-.03,1.31,.62,.88,2.49,2.08,3.02,.8,.35,1.98-.03,2.42-.72,.5-.8-.3-1.5,.06-2.58,.13-.37,.47-1,2.64-2.01,1.99-.93,2.92-.96,4.26-1.47,2.22-.85,1.97-1.63,4.36-3,4.23-2.44,6.25-.68,8.93-3.12,.66-.6,1.49-1.57,2.87-1.74,.87-.11,1.59,.15,2.23,.42,4.16,1.75,7.32,5.1,7.68,5.49,.67,.72,1.19,1.36,2.22,2.17,1.59,1.25,1.88,.95,2.66,1.77,1.2,1.27,.65,2.16,2.06,4.72,.38,.69,.77,1.39,1.5,2.16,1.37,1.45,2.14,1.23,3.53,2.5,1.47,1.35,2.07,2.94,2.3,3.56,.22,.61,.1,.49,.62,3.94,.44,2.93,.58,3.36,.38,4.3-.27,1.27-.75,1.58-.52,2.25,.34,.98,1.59,1.01,3.04,1.88,1.4,.84,1.15,1.55,2.9,3.16,.59,.55,.71,.57,2.22,1.71,2.92,2.2,4.39,3.32,4.98,4.52,.57,1.16,.59,2.17,.63,3.49,.07,3.04-1.05,5.43-1.33,6-.93,1.89-1.58,2.03-1.76,3.44-.14,1.17,.28,1.36,.19,3.26-.08,1.79-.5,2.75-.61,3-.34,.74-.71,1.14-1.19,1.74-1.65,2.06-1.4,2.45-2.82,4.31-1.71,2.23-2.14,1.76-3.15,3.47-1.03,1.75-1.27,3.44-1.34,4.04-.24,2.15,.45,2.34,.13,3.75-.3,1.31-1.64,2.48-4.29,4.75-1.84,1.58-2.79,2.38-3.9,2.84-1.42,.6-1.9,.4-3.78,1.2-1.76,.75-1.67,1.06-3.1,1.58-2.02,.73-3.8,.68-4.15,.67-2.07-.08-2.28-.71-3.49-.41-1.16,.29-1.1,.9-3.12,2.18-1.29,.82-2.43,1.27-3.07,1.49,0,0-1.56,.55-3.02,.71-3.61,.4-7.23-2.26-8.41-3.13-1.11-.82-3.02-3.24-6.79-8.06-2.89-3.69-3.95-5.15-3.45-6.54,.45-1.24,1.72-1.24,2.83-3.28,.66-1.22,.48-1.8,.89-3.33Z"/><path class="cls-5" d="M3.3,219.72c-2.49,1.23-4.73,.92-4.73,1.08,0,.21,3.37,.76,7.11,.29,.6-.08,1.37-.08,2.42-.03,1.14,.06,2.67,.61,3.39,1.72,.71,1.1,.12,1.98,.97,2.76,.53,.49,.96,.32,1.74,.67,1.18,.53,1.73,1.61,2.52,3.24,1.1,2.27,1.66,3.4,1.45,4.92-.04,.25-.4,2.58-2.41,3.98-.6,.42-1.1,.25-1.33,.67-.47,.85,1.01,1.72,.98,3.33-.01,.74-.34,.88-1.73,3.34-.94,1.66-.71,1.45-1.26,2.34-.91,1.49-1.86,3.04-3.66,4.09-.93,.55-1.87,.83-2.32,.97-.91,.27-1.38,.29-2.42,.49-1.3,.25-2.22,.54-3.3,.87-2.22,.69-2.21,.95-4.27,1.64-1.8,.6-3.25,.88-4.41,1.1-1.17,.22-2.58,.49-4.47,.58-.96,.05-2.87-.17-6.69-.62-.87-.1-1.82-.23-2.25-.91-.46-.74-.04-1.71-.39-1.86-.34-.15-.68,.76-1.61,1-1.14,.3-2.31-.59-2.76-.94-.56-.42-.84-.64-.96-1.05-.29-1.03,.97-1.72,.68-2.65-.19-.62-1-1.08-1.6-.99-.7,.11-.7,.91-1.49,1.23-.27,.11-.8,.24-2.44-.47-1.51-.65-1.98-1.15-2.93-1.64-1.58-.82-1.9-.29-3.85-.94-3.47-1.15-3.46-3.14-6.17-3.43-.66-.07-1.62-.05-2.4-.74-.49-.43-.7-.95-.86-1.44-1.06-3.18-.72-6.59-.68-6.98,.08-.73,.18-1.33,.14-2.3-.07-1.5-.39-1.51-.31-2.35,.13-1.29,.9-1.42,1.65-3.47,.2-.55,.41-1.12,.49-1.9,.15-1.48-.36-1.8-.33-3.2,.04-1.48,.64-2.6,.88-3.03,.23-.42,.22-.3,1.92-2.29,1.44-1.69,1.62-1.98,2.25-2.33,.85-.48,1.26-.36,1.53-.82,.39-.67-.21-1.38-.43-2.62-.21-1.19,.31-1.4,.36-3.17,.02-.6-.03-.68-.13-2.08-.2-2.71-.29-4.08,.1-5,.37-.89,.94-1.4,1.66-2.07,1.68-1.54,3.59-2.1,4.05-2.22,1.53-.41,1.93-.12,2.81-.72,.73-.5,.63-.82,1.75-1.72,1.05-.84,1.8-1.08,2-1.14,.59-.18,.99-.17,1.57-.2,1.98-.1,2.07-.43,3.83-.56,2.1-.15,2.06,.32,3.51,.04,1.5-.29,2.57-.99,2.95-1.25,1.34-.93,1.1-1.41,2.06-1.92,.89-.48,2.21-.31,4.81,.04,1.8,.25,2.72,.38,3.53,.77,1.04,.5,1.17,.86,2.54,1.51,1.29,.61,1.42,.4,2.42,.95,1.41,.77,2.26,1.78,2.42,1.98,.98,1.19,.72,1.62,1.49,2.14,.74,.5,1.05,.17,2.78,.66,1.1,.32,1.92,.73,2.36,.97,0,0,1.08,.6,1.89,1.33,2,1.81,2.29,5.13,2.38,6.22,.09,1.02-.35,3.28-1.22,7.75-.67,3.43-.97,4.74-2,5.15-.92,.36-1.55-.34-3.25,.05-1.02,.23-1.25,.62-2.33,1.15Z"/><path class="cls-16" d="M47.75,196.49c.3,.23,4.06-3.67,7.25-7.92,9.47-12.63,12.25-26.16,11.73-26.35-.41-.15-2.65,7.94-9.96,20.21-4.89,8.2-9.37,13.8-9.02,14.06Z"/><path class="cls-16" d="M9.3,164.22c.28-.02,.47-3.99,.17-7.88-.9-11.56-5.95-20.42-6.33-20.28-.3,.11,2.4,5.69,4.32,16.01,1.28,6.9,1.52,12.17,1.84,12.15Z"/><path class="cls-16" d="M-26.69,220.28c15.45,3.6,29.08,.75,29.06,.21"/><polygon class="cls-16" points="45.3 196.16 45.65 188.59 36.25 176.01 31 154.87 45.3 196.16"/><polygon class="cls-16" points="49.74 198.93 55.95 200.17 67.76 193.97 86.02 192.28 49.74 198.93"/><path class="cls-16" d="M53.63,194.76c.04,.08,10.74-1.7,18.07-9.69,11.9-12.98,7.21-34.02,7.31-34.02,.1,0,4.78,19.7-6.26,32.72-7.51,8.85-19.15,10.9-19.11,10.99Z"/><path class="cls-16" d="M48.58,191.38c-.09,.02-4.87-9.64-2.59-20.19,3.7-17.15,23.69-25.64,23.63-25.72-.06-.08-18.94,7.64-23.17,24.12-2.88,11.21,2.23,21.77,2.13,21.79Z"/><polyline class="cls-16" points="49.2 203.49 48.83 210.69 54.24 216.09 47.81 200.84"/><polyline class="cls-16" points="40.1 197.92 34.66 195.5 28.9 198 42.56 197.65"/><polygon class="cls-16" points="1.08 222.75 -3.32 225.26 -7.06 234.97 -17.12 245.44 1.08 222.75"/><polygon class="cls-16" points="1.06 219.29 -.46 215.41 -8.18 211.07 -15.66 201.55 1.06 219.29"/><polyline class="cls-16" points="3.83 217.96 8.03 215.6 9.14 210.67 2.83 219.68"/><polyline class="cls-16" points="3.93 225.01 4.51 228.89 7.98 231.19 2.9 223.74"/><path class="cls-20" d="M36.17,203.77c.94-.3,2.41-.79,3.91-2.02,2.34-1.92,2.93-4.18,4.42-7.92,2.03-5.11,2.36-4.53,3.84-8.38,3.6-9.37,.99-11.21,3.83-16.49,2.43-4.52,4.18-2.86,11.91-10.96,7.54-7.9,7.81-11.51,7.68-13.31-.04-.53-.31-3.73-2.77-6.19-4.52-4.52-13.7-3.82-17.47,.32-3.33,3.67-.5,7.94-4.47,11.73-2.89,2.76-6.89,2.89-8.08,2.93-4.02,.13-8.63-1.52-8.64-3.01,0-.86,1.53-1.7,1.84-1.46,.47,.38-1.14,4-3.96,6.48-2.96,2.6-4.54,1.56-5.83,3.67-1.32,2.17-.02,3.88-1.77,7.93-.42,.98-.86,1.72-1.1,2.1-1.96,3.16-3.48,3.21-4.59,5.61-.57,1.24-.67,2.31-.83,4.12-.12,1.36-.23,2.79,.22,4.58,.16,.62,.51,1.97,1.5,3.39,1.39,2,2.41,1.82,3.13,3.11,1.58,2.82-1.11,7.63-1.59,7.52-.3-.07-.29-2.16,.3-2.36,.83-.28,1.72,3.68,4.94,6.39,3.8,3.2,9.49,3.52,13.58,2.21Z"/><path class="cls-20" d="M5.73,227.16c-.47-.37-1.23-.95-2.38-1.28-1.79-.52-3.15-.05-5.57,.49-3.31,.73-3.13,.36-5.61,.93-6.04,1.39-6.09,3.34-9.77,3.72-3.15,.33-2.9-1.13-9.7-2.25-6.64-1.09-8.58,0-9.46,.69-.26,.2-1.81,1.43-2.23,3.51-.77,3.82,2.73,8.22,6.15,8.69,3.02,.42,4.24-2.47,7.55-1.77,2.41,.51,3.85,2.48,4.27,3.07,1.45,1.98,2.18,4.87,1.42,5.38-.44,.29-1.4-.19-1.38-.43,.03-.37,2.44-.79,4.68-.22,2.35,.6,2.36,1.75,3.88,1.68,1.57-.08,2-1.32,4.68-1.82,.65-.12,1.18-.16,1.45-.17,2.29-.1,2.84,.65,4.45,.39,.83-.13,1.41-.45,2.4-.99,.74-.41,1.51-.84,2.27-1.68,.26-.29,.83-.93,1.23-1.92,.55-1.38,.11-1.84,.52-2.64,.91-1.76,4.29-2.06,4.4-1.77,.07,.18-1.01,.89-1.31,.66-.43-.32,1.3-2.13,1.59-4.68,.34-3.01-1.45-5.99-3.52-7.6Z"/><path class="cls-25" d="M41.88,227.8c-.51,0-.33-1.94-1.47-4.25-2.1-4.26-7.72-7.79-10.47-6.28-2.56,1.41-2.72,7.23-.78,11.14,1.71,3.45,4.53,4.35,4.1,5.48-.57,1.53-6.44,1.85-10.59-.94-3.09-2.07-4.32-5.25-4.73-6.3-1.49-3.83-.04-5.05-1.81-9.86-.77-2.09-1.38-2.79-1.28-4.39,.13-2.01,1.34-4.51,3.48-5.24,1.84-.63,3.6,.34,5.83,1.56,2.55,1.39,3.13,2.5,6.92,4.77,1.21,.72,2.21,1.24,3.49,1.19,1.36-.06,1.69-.7,2.79-.54,1.19,.17,1.96,1.08,3.12,2.47,.8,.95,1.58,1.87,2.11,3.16,1.5,3.66,.05,8.03-.71,8.03Z"/><path class="cls-31" d="M82.56,163.85c.45-.45,3.61,2.78,9.46,6.38,2.83,1.74,3.31,1.74,4.04,2.76,2.81,3.93,.08,10.1,.7,10.26,.34,.09,1.34-1.68,.93-2.08-.61-.6-3.73,2.55-9.52,5.04-2.59,1.11-6.36,2.73-7.64,1.38-1.12-1.17,.09-4.1,.38-4.81,.82-1.99,1.55-1.9,2.88-4.21,.73-1.26,2-3.54,1.85-6.41-.06-1.15-.33-2-.66-3.03-1.12-3.5-2.73-4.98-2.42-5.29Z"/></g><g><polygon class="cls-24" points="263.54 210.43 311.48 189.46 294.76 151.9 246.82 172.87 263.54 210.43"/><path class="cls-16" d="M240.24,219.54c-.66,1.37-1.72,3.59-4.07,4.88-1.65,.91-3.16,.93-3.25,1.64-.11,.86,2.08,1.1,3.94,3.13,1.67,1.82,2.1,4.02,2.47,5.92,.31,1.58,.57,2.91,.24,4.6-.61,3.11-2.74,5.07-4.17,6.39-1.05,.96-2.11,1.94-3.83,2.61-1.24,.48-1.86,.43-6.92,.55-3.3,.08-4.94,.11-5.97,.17-3.49,.19-3.54,.36-4.45,.17-3.08-.67-5.05-3.24-5.57-3.92-1.72-2.25-1.19-3.3-3.05-4.81-.64-.53-.89-.54-2.92-2.02-.98-.71-1.54-1.12-2.23-1.7-.4-.34-1.75-1.5-2.69-2.74-1.64-2.18-.81-3-2.06-4.96-1.7-2.68-3.72-1.89-6-5.08-.59-.82-1.48-2.1-1.47-3.81,0-1.05,.35-1.48,1.33-3.55,1.91-4.01,1.78-4.83,3.37-7.2,.82-1.22,1.23-1.83,1.96-2.36,1.91-1.4,3.47-.8,4.33-2.02,.86-1.22-.36-2.35,.32-3.74,.29-.59,1.23-1.86,6.27-2.17,5.23-.32,9.05,.72,9.05,.72,14.69,3.99,19.37,.51,23.51,5.3,3.28,3.81,3.78,10.02,1.86,14.01Z"/><path class="cls-16" d="M295.12,182.26h0c-.86-.5-2.98-1.59-5.34-.99-.42,.11-1.19,.35-2.76,1.56-2,1.54-4.09,3.14-5.44,6.13-1.39,3.07-1.16,5.74-1.1,6.29,.08,.77,.2,1.88,.84,3.09,.93,1.75,2.37,2.62,3.15,3.14,3.56,2.37,8.43,7.59,10.26,12.15,.25,.61,.7,1.87,1.75,2.19,.96,.29,1.65-.45,3.74-1.15,1.05-.35,.9-.17,3.38-.74,2.71-.61,4.06-.92,4.97-1.48,.71-.43,2.82-1.73,2.89-3.53,.09-2.14-2.77-3.38-2.28-4.58,.33-.8,1.62-.27,2.77-1.43,.67-.67,.91-1.68,1.38-3.71,.27-1.16,.22-1.24,.44-2.26,.62-2.81,1.26-3.01,1.4-4.4,.15-1.53-.55-2.05-1.78-5.11-1.15-2.88-1.25-4.21-1.62-5.1-.95-2.3-4.89-4.61-18.37-4.39"/><path class="cls-4" d="M259.75,143.86c-.21-.45-.8-1.68-.49-3.08,.28-1.26,1.15-2.07,1.34-2.24,1.51-1.36,2.9-.7,4.02-2.01,.61-.72,.2-.92,.87-2.06,.93-1.59,1.95-1.58,3.36-3.18,1.31-1.48,.69-1.78,1.67-2.65,1.73-1.54,3.4-.37,6.04-1.96,1.1-.66,1.82-1.47,2.19-1.9,1.15-1.32,1.28-2.16,1.95-3.32,2.02-3.48,5.87-4.6,6.48-4.77,.96-.26,2.37-.63,3.88-.03,.41,.16,1.26,.5,1.84,1.33,1,1.41-.04,2.42,.91,4.04,.62,1.06,1.32,1.05,1.63,2.17,.24,.88-.07,1.35,.3,1.75,.46,.49,1.29,.17,2.51,.11,0,0,2.14-.11,4.23,.89,1.6,.76,1.16,1.38,3.13,2.88,2.19,1.66,3.14,1.21,4.93,2.99,.65,.65,1.16,1.33,1.69,2.06,.96,1.31,1.44,1.96,1.57,2.63,.27,1.42-.69,1.61-.68,3.64,0,1.38,.46,3.01,.46,3.01h0s-1.02,1.36-1.34,2.61c-.36,1.39,.13,2.63,.3,3.06,.56,1.42,1.17,1.26,2.49,3.14,.52,.74,.99,1.79,1.94,3.9,.34,.76,.57,1.32,.61,2.08,.05,.9-.21,1.42-.36,2.05-.39,1.62,.31,2.39,.72,4.71,.33,1.9,.21,3.38,.11,4.5-.04,.52-.24,2.66-1.33,5.55-1.44,3.82-2.6,6.92-5.31,7.99-1.75,.69-2.4-.14-4.85,.88-1.65,.69-1.99,1.34-3.55,1.64-1.51,.28-2.77-.03-3.65-.24-.79-.19-1.22-.39-3.67-1.58-3.91-1.89-4.11-2.02-4.43-2.38-1.25-1.41-.5-2.11-1.91-3.98-1.17-1.56-1.98-1.45-2.86-2.95-.33-.57-.54-1.13-.91-3.38-.74-4.45-.56-5.95-1.25-6.16-.66-.21-1.26,1.05-3.01,2.49-1.72,1.42-3.9,2.47-5.13,2.65-6.26,.91-11.97-17.33-16.48-26.85Z"/><path class="cls-4" d="M305.42,244.46c.37,.42,1.37,1.58,1.35,3.28-.02,1.52-.86,2.77-1.05,3.03-1.47,2.1-3.29,1.89-4.31,3.78-.55,1.04-.01,1.11-.53,2.64-.71,2.13-1.94,2.52-3.23,4.85-1.19,2.16-.38,2.27-1.34,3.61-1.69,2.38-3.97,1.71-6.72,4.49-1.15,1.16-1.8,2.34-2.14,2.97-1.04,1.92-.99,2.91-1.51,4.47-1.55,4.67-5.87,7.39-6.56,7.81-1.08,.66-2.67,1.61-4.62,1.5-.52-.03-1.62-.09-2.53-.8-1.54-1.21-.55-2.74-2.08-4.19-1-.95-1.84-.68-2.48-1.82-.51-.9-.25-1.54-.79-1.85-.67-.38-1.58,.3-3.02,.83,0,0-2.53,.93-5.27,.6-2.1-.25-1.73-1.11-4.45-2.05-3.03-1.04-4.05-.17-6.63-1.49-.94-.48-1.71-1.06-2.52-1.67-1.47-1.1-2.21-1.66-2.52-2.36-.67-1.49,.42-2.07-.09-4.34-.35-1.54-1.3-3.21-1.3-3.21h0s.88-1.91,.95-3.44c.08-1.69-.81-2.9-1.12-3.32-1.02-1.38-1.71-.97-3.75-2.58-.8-.63-1.63-1.64-3.29-3.65-.6-.73-1.01-1.26-1.25-2.1-.28-1-.1-1.67-.08-2.43,.06-1.97-.96-2.56-2.02-5.02-.86-2.01-1.08-3.72-1.25-5.01-.08-.6-.37-3.08,.21-6.74,.77-4.84,1.39-8.76,4.36-10.99,1.92-1.44,2.9-.75,5.57-2.83,1.8-1.41,2.04-2.26,3.83-3.18,1.73-.89,3.31-1.02,4.42-1.11,.99-.08,1.55-.03,4.78,.38,5.14,.65,5.41,.71,5.88,1,1.84,1.12,1.12,2.18,3.27,3.75,1.79,1.3,2.72,.88,4.14,2.23,.54,.51,.92,1.06,1.93,3.46,1.98,4.72,2.14,6.47,3.01,6.45,.84-.02,1.25-1.66,2.97-3.94,1.7-2.25,4.05-4.25,5.47-4.92,7.24-3.39,18.58,14.94,26.31,23.92Z"/><path class="cls-19" d="M275.56,204.03h0l.08-.06s.7-.53,1.46-1c3.43-2.13,7.25-2.67,7.25-2.67,1.52-.21,1.49,0,5.36,.08,6.5,.13,7.33-.48,8.34,.44,2.09,1.88,1.23,6.8,.06,9.3-.32,.68-1.08,2.11-2.03,4.24-.66,1.5-.6,1.5-.95,2.13-.58,1.05-.95,1.38-.87,1.94,.1,.72,.79,.85,1.21,1.54,.82,1.33-.22,3.34-.4,3.69-1.61,3.12-5.16,2.97-5.51,5.26-.08,.56,.13,.53,.48,2.03,.51,2.23,.99,4.32,.15,6.01-1.3,2.64-5.24,3.24-6.38,3.41-1.03,.16-.83-.02-2.29,.16-2,.24-4.25,.51-6.27,1.89-1.42,.97-1.14,1.41-2.8,2.44-.83,.52-2.03,1.25-3.64,1.3-1.14,.04-1.96-.28-2.97-.68-.51-.2-1.26-.53-4.89-3.02-1.57-1.07-2.14-1.49-3.21-1.83-1.25-.39-1.48-.13-2.08-.51-1.86-1.17-1.5-4.76-1.41-5.65,.07-.69,.23-2.14,1.08-3.7,.62-1.13,1.36-1.86,1.24-1.99-.18-.18-1.58,1.67-3.99,2.15-.76,.15-1.53,.09-3.07-.04-1.93-.16-2.31-.44-2.5-.72-.28-.42-.05-.72-.11-1.74-.01-.19-.12-1.66-.75-2.57-.76-1.09-2.03-1.05-3.02-1.45-2.34-.95-3.12-4.36-3.59-6.93-2.51-13.82-3.77-20.73-.78-23.6,4.73-4.53,17.87-2.06,30.33,8.51"/><g><path class="cls-14" d="M278.07,208.59c-10.42,12.66-22.22,20.96-22.43,20.68"/><polygon class="cls-23" points="259.09 228.81 262.67 227.63 270.34 231.15 281.41 231.28 259.09 228.81"/><polygon class="cls-23" points="256.99 226.73 255.32 223.49 256.26 216.21 253.91 205.97 256.99 226.73"/><path class="cls-23" d="M258.32,224.06s-1.04-6.11,1.53-11.17c4.19-8.22,15.11-8.38,15.1-8.43-.02-.05-10.3-.06-14.65,7.69-2.96,5.27-1.93,11.92-1.98,11.91Z"/><path class="cls-23" d="M260.82,226.39c0,.05,5.48,1.42,10.16-1.2,7.61-4.26,8.23-16.33,8.28-16.3,.05,.02-.4,11.38-7.59,15.84-4.89,3.03-10.85,1.61-10.85,1.66Z"/><polyline class="cls-23" points="254.89 227.62 251.49 228.76 247.96 226.5 256.4 228.04"/><polyline class="cls-23" points="259.14 231.89 261.24 234.56 261.04 238.04 258.84 230.51"/></g><g><polygon class="cls-17" points="286.77 164.91 290.04 161.02 301.39 159.63 314.21 151.92 286.77 164.91"/><polygon class="cls-17" points="282.86 164.02 278.6 161.47 274.42 152.44 264.34 142.33 282.86 164.02"/><path class="cls-17" d="M282.46,160c-.06,.02-5.61-6.29-6.3-13.92-1.12-12.41,11.32-20.35,11.26-20.4-.06-.05-11.88,7.23-11.28,19.23,.41,8.15,6.38,15.07,6.32,15.09Z"/><path class="cls-17" d="M287.01,160.91c.04,.05,7.32-2.25,10.81-8.59,5.67-10.29-2.32-24.6-2.25-24.61,.07,0,7.76,13.36,2.71,23.59-3.43,6.96-11.31,9.55-11.26,9.6Z"/><polyline class="cls-17" points="281.09 166.53 278 170.25 272.32 170.15 283.13 165.93"/><polyline class="cls-17" points="289.06 168.42 293.4 169.99 295.68 174.14 287.72 167.04"/></g><polyline class="cls-17" points="275.05 231.32 278.79 228.25 284.35 229.41 272.93 231.52"/><path class="cls-5" d="M248.7,203.12c-.96-3.57-3.25-5.53-3.08-5.67,.21-.17,3.74,2.68,6.58,6.83,.46,.67,1.13,1.43,2.11,2.44,1.07,1.09,2.98,2.13,4.75,1.86,1.75-.27,2.11-1.62,3.65-1.47,.97,.1,1.17,.67,2.22,1.14,1.58,.71,3.16,.3,5.52-.35,3.28-.9,4.92-1.36,6.27-2.91,.23-.26,2.27-2.67,1.9-5.92-.11-.97-.71-1.32-.49-1.92,.45-1.22,2.64-.51,4.25-1.96,.74-.67,.6-1.12,1.86-4.68,.86-2.41,.85-1.99,1.27-3.32,.7-2.22,1.43-4.54,.91-7.27-.27-1.41-.81-2.59-1.07-3.17-.53-1.15-.92-1.63-1.64-2.84-.89-1.51-1.42-2.68-2.03-4.06-1.26-2.82-.99-3.05-2.11-5.7-.98-2.33-1.98-4.02-2.79-5.37-.81-1.37-1.79-3-3.36-4.97-.8-1-2.71-2.71-6.54-6.12-.87-.78-1.84-1.62-2.92-1.43-1.16,.2-1.76,1.47-2.23,1.26-.45-.2,.17-1.34-.41-2.49-.7-1.4-2.64-1.78-3.4-1.93-.92-.18-1.4-.27-1.91-.03-1.31,.62-.88,2.49-2.08,3.02-.8,.35-1.98-.03-2.42-.72-.5-.8,.3-1.5-.06-2.58-.13-.37-.47-1-2.64-2.01-1.99-.93-2.92-.96-4.26-1.47-2.22-.85-1.97-1.63-4.36-3-4.23-2.44-6.25-.68-8.93-3.12-.66-.6-1.49-1.57-2.87-1.74-.87-.11-1.59,.15-2.23,.42-4.16,1.75-7.32,5.1-7.68,5.49-.67,.72-1.19,1.36-2.22,2.17-1.59,1.25-1.88,.95-2.66,1.77-1.2,1.27-.65,2.16-2.06,4.72-.38,.69-.77,1.39-1.5,2.16-1.37,1.45-2.14,1.23-3.53,2.5-1.47,1.35-2.07,2.94-2.3,3.56-.22,.61-.1,.49-.62,3.94-.44,2.93-.58,3.36-.38,4.3,.27,1.27,.75,1.58,.52,2.25-.34,.98-1.59,1.01-3.04,1.88-1.4,.84-1.15,1.55-2.9,3.16-.59,.55-.71,.57-2.22,1.71-2.92,2.2-4.39,3.32-4.98,4.52-.57,1.16-.59,2.17-.63,3.49-.07,3.04,1.05,5.43,1.33,6,.93,1.89,1.58,2.03,1.76,3.44,.14,1.17-.28,1.36-.19,3.26,.08,1.79,.5,2.75,.61,3,.34,.74,.71,1.14,1.19,1.74,1.65,2.06,1.4,2.45,2.82,4.31,1.71,2.23,2.14,1.76,3.15,3.47,1.03,1.75,1.27,3.44,1.34,4.04,.24,2.15-.45,2.34-.13,3.75,.3,1.31,1.64,2.48,4.29,4.75,1.84,1.58,2.79,2.38,3.9,2.84,1.42,.6,1.9,.4,3.78,1.2,1.76,.75,1.67,1.06,3.1,1.58,2.02,.73,3.8,.68,4.15,.67,2.07-.08,2.28-.71,3.49-.41,1.16,.29,1.1,.9,3.12,2.18,1.29,.82,2.43,1.27,3.07,1.49,0,0,1.56,.55,3.02,.71,3.61,.4,7.23-2.26,8.41-3.13,1.11-.82,3.02-3.24,6.79-8.06,2.89-3.69,3.95-5.15,3.45-6.54-.45-1.24-1.72-1.24-2.83-3.28-.66-1.22-.48-1.8-.89-3.33Z"/><path class="cls-5" d="M290.08,220.68c2.49,1.23,4.73,.92,4.73,1.08,0,.21-3.37,.76-7.11,.29-.6-.08-1.37-.08-2.42-.03-1.14,.06-2.67,.61-3.39,1.72-.71,1.1-.12,1.98-.97,2.76-.53,.49-.96,.32-1.74,.67-1.18,.53-1.73,1.61-2.52,3.24-1.1,2.27-1.66,3.4-1.45,4.92,.04,.25,.4,2.58,2.41,3.98,.6,.42,1.1,.25,1.33,.67,.47,.85-1.01,1.72-.98,3.33,.01,.74,.34,.88,1.73,3.34,.94,1.66,.71,1.45,1.26,2.34,.91,1.49,1.86,3.04,3.66,4.09,.93,.55,1.87,.83,2.32,.97,.91,.27,1.38,.29,2.42,.49,1.3,.25,2.22,.54,3.3,.87,2.22,.69,2.21,.95,4.27,1.64,1.8,.6,3.25,.88,4.41,1.1,1.17,.22,2.58,.49,4.47,.58,.96,.05,2.87-.17,6.69-.62,.87-.1,1.82-.23,2.25-.91,.46-.74,.04-1.71,.39-1.86,.34-.15,.68,.76,1.61,1,1.14,.3,2.31-.59,2.76-.94,.56-.42,.84-.64,.96-1.05,.29-1.03-.97-1.72-.68-2.65,.19-.62,1-1.08,1.6-.99,.7,.11,.7,.91,1.49,1.23,.27,.11,.8,.24,2.44-.47,1.51-.65,1.98-1.15,2.93-1.64,1.58-.82,1.9-.29,3.85-.94,3.47-1.15,3.46-3.14,6.17-3.43,.66-.07,1.62-.05,2.4-.74,.49-.43,.7-.95,.86-1.44,1.06-3.18,.72-6.59,.68-6.98-.08-.73-.18-1.33-.14-2.3,.07-1.5,.39-1.51,.31-2.35-.13-1.29-.9-1.42-1.65-3.47-.2-.55-.41-1.12-.49-1.9-.15-1.48,.36-1.8,.33-3.2-.04-1.48-.64-2.6-.88-3.03-.23-.42-.22-.3-1.92-2.29-1.44-1.69-1.62-1.98-2.25-2.33-.85-.48-1.26-.36-1.53-.82-.39-.67,.21-1.38,.43-2.62,.21-1.19-.31-1.4-.36-3.17-.02-.6,.03-.68,.13-2.08,.2-2.71,.29-4.08-.1-5-.37-.89-.94-1.4-1.66-2.07-1.68-1.54-3.59-2.1-4.05-2.22-1.53-.41-1.93-.12-2.81-.72-.73-.5-.63-.82-1.75-1.72-1.05-.84-1.8-1.08-2-1.14-.59-.18-.99-.17-1.57-.2-1.98-.1-2.07-.43-3.83-.56-2.1-.15-2.06,.32-3.51,.04-1.5-.29-2.57-.99-2.95-1.25-1.34-.93-1.1-1.41-2.06-1.92-.89-.48-2.21-.31-4.81,.04-1.8,.25-2.72,.38-3.53,.77-1.04,.5-1.17,.86-2.54,1.51-1.29,.61-1.42,.4-2.42,.95-1.41,.77-2.26,1.78-2.42,1.98-.98,1.19-.72,1.62-1.49,2.14-.74,.5-1.05,.17-2.78,.66-1.1,.32-1.92,.73-2.36,.97,0,0-1.08,.6-1.89,1.33-2,1.81-2.29,5.13-2.38,6.22-.09,1.02,.35,3.28,1.22,7.75,.67,3.43,.97,4.74,2,5.15,.92,.36,1.55-.34,3.25,.05,1.02,.23,1.25,.62,2.33,1.15Z"/><path class="cls-16" d="M245.63,197.45c-.3,.23-4.06-3.67-7.25-7.92-9.47-12.63-12.25-26.16-11.73-26.35,.41-.15,2.65,7.94,9.96,20.21,4.89,8.2,9.37,13.8,9.02,14.06Z"/><path class="cls-16" d="M284.07,165.18c-.28-.02-.47-3.99-.17-7.88,.9-11.56,5.95-20.42,6.33-20.28,.3,.11-2.4,5.69-4.32,16.01-1.28,6.9-1.52,12.17-1.84,12.15Z"/><path class="cls-16" d="M320.07,221.24c-15.45,3.6-29.08,.75-29.06,.21"/><polygon class="cls-16" points="248.07 197.13 247.73 189.55 257.12 176.97 262.37 155.83 248.07 197.13"/><polygon class="cls-16" points="243.63 199.9 237.42 201.14 225.61 194.94 207.35 193.25 243.63 199.9"/><path class="cls-16" d="M239.75,195.72c-.04,.08-10.74-1.7-18.07-9.69-11.9-12.98-7.21-34.02-7.31-34.02-.1,0-4.78,19.7,6.26,32.72,7.51,8.85,19.15,10.9,19.11,10.99Z"/><path class="cls-16" d="M244.79,192.35c.09,.02,4.87-9.64,2.59-20.19-3.7-17.15-23.69-25.64-23.63-25.72,.06-.08,18.94,7.64,23.17,24.12,2.88,11.21-2.23,21.77-2.13,21.79Z"/><polyline class="cls-16" points="244.17 204.46 244.54 211.66 239.13 217.05 245.56 201.81"/><polyline class="cls-16" points="253.27 198.88 258.71 196.47 264.47 198.96 250.82 198.62"/><polygon class="cls-16" points="292.29 223.71 296.69 226.23 300.43 235.93 310.49 246.4 292.29 223.71"/><polygon class="cls-16" points="292.31 220.26 293.83 216.37 301.55 212.04 309.04 202.51 292.31 220.26"/><path class="cls-16" d="M296.06,219.6s4.8-5.35,11.93-6.56c11.59-1.96,21.79,8.16,21.82,8.11,.03-.05-9.41-9.69-20.71-8.22-7.68,1-13,6.72-13.03,6.67Z"/><path class="cls-16" d="M296.16,223.6s3.7,6.15,10.47,8.66c11.01,4.08,22.94-3.98,22.97-3.91,.02,.06-11.08,7.78-21.9,4.23-7.36-2.41-11.5-9.02-11.54-8.97Z"/><polyline class="cls-16" points="289.54 218.93 285.35 216.56 284.24 211.63 290.54 220.65"/><polyline class="cls-16" points="289.44 225.97 288.86 229.85 285.39 232.15 290.47 224.7"/><path class="cls-20" d="M257.21,204.74c-.94-.3-2.41-.79-3.91-2.02-2.34-1.92-2.93-4.18-4.42-7.92-2.03-5.11-2.36-4.53-3.84-8.38-3.6-9.37-.99-11.21-3.83-16.49-2.43-4.52-4.18-2.86-11.91-10.96-7.54-7.9-7.81-11.51-7.68-13.31,.04-.53,.31-3.73,2.77-6.19,4.52-4.52,13.7-3.82,17.47,.32,3.33,3.67,.5,7.94,4.47,11.73,2.89,2.76,6.89,2.89,8.08,2.93,4.02,.13,8.63-1.52,8.64-3.01,0-.86-1.53-1.7-1.84-1.46-.47,.38,1.14,4,3.96,6.48,2.96,2.6,4.54,1.56,5.83,3.67,1.32,2.17,.02,3.88,1.77,7.93,.42,.98,.86,1.72,1.1,2.1,1.96,3.16,3.48,3.21,4.59,5.61,.57,1.24,.67,2.31,.83,4.12,.12,1.36,.23,2.79-.22,4.58-.16,.62-.51,1.97-1.5,3.39-1.39,2-2.41,1.82-3.13,3.11-1.58,2.82,1.11,7.63,1.59,7.52,.3-.07,.29-2.16-.3-2.36-.83-.28-1.72,3.68-4.94,6.39-3.8,3.2-9.49,3.52-13.58,2.21Z"/><path class="cls-20" d="M287.64,228.12c.47-.37,1.23-.95,2.38-1.28,1.79-.52,3.15-.05,5.57,.49,3.31,.73,3.13,.36,5.61,.93,6.04,1.39,6.09,3.34,9.77,3.72,3.15,.33,2.9-1.13,9.7-2.25,6.64-1.09,8.58,0,9.46,.69,.26,.2,1.81,1.43,2.23,3.51,.77,3.82-2.73,8.22-6.15,8.69-3.02,.42-4.24-2.47-7.55-1.77-2.41,.51-3.85,2.48-4.27,3.07-1.45,1.98-2.18,4.87-1.42,5.38,.44,.29,1.4-.19,1.38-.43-.03-.37-2.44-.79-4.68-.22-2.35,.6-2.36,1.75-3.88,1.68-1.57-.08-2-1.32-4.68-1.82-.65-.12-1.18-.16-1.45-.17-2.29-.1-2.84,.65-4.45,.39-.83-.13-1.41-.45-2.4-.99-.74-.41-1.51-.84-2.27-1.68-.26-.29-.83-.93-1.23-1.92-.55-1.38-.11-1.84-.52-2.64-.91-1.76-4.29-2.06-4.4-1.77-.07,.18,1.01,.89,1.31,.66,.43-.32-1.3-2.13-1.59-4.68-.34-3.01,1.45-5.99,3.52-7.6Z"/><path class="cls-25" d="M251.49,228.76c.51,0,.33-1.94,1.47-4.25,2.1-4.26,7.72-7.79,10.47-6.28,2.56,1.41,2.72,7.23,.78,11.14-1.71,3.45-4.53,4.35-4.1,5.48,.57,1.53,6.44,1.85,10.59-.94,3.09-2.07,4.32-5.25,4.73-6.3,1.49-3.83,.04-5.05,1.81-9.86,.77-2.09,1.38-2.79,1.28-4.39-.13-2.01-1.34-4.51-3.48-5.24-1.84-.63-3.6,.34-5.83,1.56-2.55,1.39-3.13,2.5-6.92,4.77-1.21,.72-2.21,1.24-3.49,1.19-1.36-.06-1.69-.7-2.79-.54-1.19,.17-1.96,1.08-3.12,2.47-.8,.95-1.58,1.87-2.11,3.16-1.5,3.66-.05,8.03,.71,8.03Z"/><path class="cls-31" d="M210.82,164.81c-.45-.45-3.61,2.78-9.46,6.38-2.83,1.74-3.31,1.74-4.04,2.76-2.81,3.93-.08,10.1-.7,10.26-.34,.09-1.34-1.68-.93-2.08,.61-.6,3.73,2.55,9.52,5.04,2.59,1.11,6.36,2.73,7.64,1.38,1.12-1.17-.09-4.1-.38-4.81-.82-1.99-1.55-1.9-2.88-4.21-.73-1.26-2-3.54-1.85-6.41,.06-1.15,.33-2,.66-3.03,1.12-3.5,2.73-4.98,2.42-5.29Z"/></g></g><g><path class="cls-13" d="M274.57,30.69c-5.49,0-10.12-4.44-10.02-10.14,.09-5.37,4.54-9.86,10.25-9.75,5.41,.1,9.94,4.5,9.82,10.17-.11,5.39-4.55,9.73-10.05,9.72Zm4.54-7.97c.38-1.43,.45-2.87,.15-4.33-.33-1.6-1.06-3.01-2.1-4.28-.63-.77-1.34-1.47-2.19-2.02-.16-.1-.28-.1-.44,0-1.48,1.03-2.7,2.3-3.57,3.88-.9,1.63-1.22,3.38-.95,5.22,.19,1.28,.65,2.47,1.27,3.59,.14,.26,.29,.51,.44,.76l-.04,.03c-.27-.21-.56-.4-.82-.63-1.51-1.32-2.39-2.99-2.81-4.92-.05-.21-.06-.43-.12-.64-.03-.1-.12-.18-.19-.27-.08,.07-.17,.13-.24,.21-.04,.05-.05,.12-.08,.19-.53,1.6-.63,3.22-.22,4.86,.55,2.16,1.78,3.79,3.83,4.75,1.59,.74,3.28,.91,5.01,.65,2.51-.37,4.27-1.73,5.25-4.05,.62-1.46,.75-3,.52-4.57-.22-1.54-.78-2.94-1.67-4.22-.05-.07-.09-.14-.15-.19-.04-.03-.11-.06-.14-.05-.04,.02-.06,.09-.05,.14,0,.07,.03,.15,.04,.22,.06,.36,.13,.71,.17,1.07,.07,.61,.02,1.22-.07,1.82-.14,.96-.41,1.88-.83,2.76Z"/><g><path class="cls-13" d="M270.14,33.51c.31,0,.6,.03,.85,.08,.26,.05,.48,.14,.66,.25,.18,.12,.33,.27,.43,.47,.1,.2,.15,.44,.15,.72,0,.31-.08,.57-.23,.78-.15,.21-.37,.38-.67,.51,.4,.11,.71,.3,.9,.57,.2,.27,.3,.6,.3,.99,0,.31-.06,.58-.19,.81-.13,.23-.3,.41-.52,.56-.22,.14-.47,.25-.74,.32-.28,.07-.57,.1-.86,.1h-3.18v-6.15h3.09Zm-.18,2.49c.26,0,.47-.06,.63-.17,.17-.11,.25-.3,.25-.56,0-.14-.03-.26-.08-.35-.06-.09-.13-.16-.22-.22-.09-.05-.2-.09-.32-.11-.12-.02-.24-.03-.37-.03h-1.35v1.44h1.46Zm.08,2.61c.14,0,.28-.01,.4-.04s.24-.07,.34-.13,.18-.14,.23-.25,.09-.24,.09-.4c0-.32-.1-.54-.28-.68-.19-.13-.44-.2-.75-.2h-1.57v1.69h1.54Z"/><path class="cls-13" d="M274.97,33.51v6.15h-1.44v-6.15h1.44Z"/><path class="cls-13" d="M276.17,35.33c.15-.39,.36-.74,.63-1.03,.28-.29,.61-.52,1.02-.69,.4-.17,.85-.25,1.36-.25s.96,.08,1.36,.25c.4,.17,.74,.4,1.01,.69,.28,.29,.49,.64,.63,1.03,.15,.39,.22,.82,.22,1.28s-.07,.87-.22,1.25c-.15,.39-.36,.72-.63,1.01-.28,.29-.61,.51-1.01,.68-.4,.16-.85,.25-1.36,.25s-.95-.08-1.36-.25c-.4-.16-.74-.39-1.02-.68-.28-.29-.49-.62-.63-1.01-.15-.39-.22-.81-.22-1.25s.07-.89,.22-1.28Zm1.32,2.03c.06,.24,.17,.46,.31,.66,.14,.2,.32,.35,.55,.47,.23,.12,.5,.18,.83,.18s.6-.06,.83-.18c.23-.12,.41-.27,.55-.47,.14-.2,.24-.41,.31-.66s.1-.5,.1-.75-.03-.53-.1-.78c-.06-.25-.17-.48-.31-.68-.14-.2-.32-.36-.55-.47-.23-.12-.5-.18-.83-.18s-.6,.06-.83,.18c-.23,.12-.41,.28-.55,.47-.14,.2-.24,.42-.31,.68-.06,.25-.1,.51-.1,.78s.03,.51,.1,.75Z"/></g></g><text class="cls-30" transform="translate(107.64 32.63)"><tspan x="0" y="0">SEMENCE</tspan></text><text class="cls-30" transform="translate(107.49 55.75)"><tspan x="0" y="0">DE PAYS</tspan></text><path class="cls-12" d="M87.88,37.52c4.78-.42,9.57-.71,14.35-1.01,9.04,0,33.69,0,43.06,0,9.45,0,33.91,0,43.06,0,4.78,.34,9.57,.59,14.35,1-4.78,.41-9.57,.66-14.35,1-9.04,0-33.69,0-43.06,0-9.45,0-33.91,0-43.06,0-4.78-.29-9.57-.59-14.35-1.01h0Z"/><text class="cls-29" transform="translate(113.76 200.44)"><tspan x="0" y="0">Curcubitacées</tspan></text><text class="cls-2" transform="translate(98.52 214.58)"><tspan x="0" y="0">POTIMARRON FRANCAIS</tspan></text><text class="cls-2" transform="translate(106.37 224.35)"><tspan x="0" y="0">CUCURBI</tspan><tspan class="cls-28" x="34.07" y="0">T</tspan><tspan x="38.12" y="0">A MAXIMA</tspan></text></g></g></svg>