<svg xmlns="http://www.w3.org/2000/svg" viewBox="0 0 442.75 504.45"><defs><style>.cls-1{opacity:0.05;}.cls-2{fill:#31307b;}</style></defs><g id="Calque_2" data-name="Calque 2"><g id="Calque_1-2" data-name="Calque 1"><g class="cls-1"><path class="cls-2" d="M129.1,16.57l.39-.45c1.12-.66,1.18-1.93,1.66-3l1.31-1.22A26.56,26.56,0,0,1,138,6.54s0-.13.06-.2a.2.2,0,0,0,.17-.16,3.74,3.74,0,0,0,1.4-1.39h0a6.52,6.52,0,0,0,2.48-1.47A19.35,19.35,0,0,1,146,.94c2.31-1,4.7-.86,7.09-.94a11.71,11.71,0,0,1,5.15,2.25,4.55,4.55,0,0,0,2,.94,3.76,3.76,0,0,1,2.62,1.18.9.9,0,0,0,.52.33c2.43.11,4.31,2,6.75,2.06a5.83,5.83,0,0,1,2,.62,9.47,9.47,0,0,0,4,1c1.44,0,2.68,1.12,4.18,1.22a7.84,7.84,0,0,0,5.52-1.34c2.65-2.17,5.76-2.79,8.9-3.43a5.05,5.05,0,0,0,2.67-.95A3.9,3.9,0,0,1,200.21,3a9.18,9.18,0,0,0,2.91-.19,3.15,3.15,0,0,1,2,.33,1.27,1.27,0,0,1,.84,1.5c0,.34.27.45.57.46s.57,0,.54-.43a1.1,1.1,0,0,1,.55-1.06c.43-.27,1.11.11,1,.61s-.56.7.27,1.16c1.32.72,1.11,1.48-.31,2.14-.39.18-.82-.16-1.19.27.22.53.95,1.07.11,1.72-.34.26-.26.63.2.74s.61-.15.6-.58a1.32,1.32,0,0,1,.13-.38c.87,1.5.86,2.08,0,2.81s-1.37.81-2.38,0c-.43-.35-.8-.77-1.2-1.16s-.69-.52-.87.16c-.09.33-.34.49-.6.31a.47.47,0,0,1-.06-.73c.82-.86.1-2.13.83-3,.24-.3,0-.89-.46-1-.59-.18-1.44-.32-1.73.21s-1.11.59-1.34,1c-.52.86-.91.75-1.62.28a1.22,1.22,0,0,0-1.56.22,5.49,5.49,0,0,1-2.21,1.33c-.39.19-1.38.61-.21,1.28.49.29.44,1,.6,1.49l0,0c-.46-.23-1.35.37-1.36-.76,0-.78-.68-.8-1-.42-1.84,2.14-3.44.74-5.06-.33-1.12,1.19-.37,1.9.53,2.57.27.2.69.35.41.78s-.6.3-.91.07-.85-.7-1.2,0c-.26.49-1.06.84-.58,1.6a3,3,0,0,1,.32,2,1.91,1.91,0,0,1-1.41,1.88,2,2,0,0,1-2.19-.9c-1.08-1.33-1-3.15.45-4.75.52-.58.62-.83.07-1.3s-.88-.09-1.19.33A5.78,5.78,0,0,1,180.41,15c-1,.49-1,1.42-.47,2.47.13.25.31.47.43.72.39.81.13,1.42-.71,1.61a3.3,3.3,0,0,1-2.47-.11c-.68-.38-1.36-.84-1.33-1.73s.82-1,1.45-1.3,1.28-.07,1.66-.75c.27-.49.36-.94-.1-1.31s-.68-.08-.92.36c-.4.74-.95.29-1.42.06-.67-.34-1.29-.79-2.11-.38-.53.27-.92-.16-1.31-.44a5.27,5.27,0,0,1-1.65-1.8c-.51.8-.33,1.91-1.61,1.72-.63-.09-1.07,0-1.11-.79a.48.48,0,0,0-.53-.52c-.33,0-.46.16-.48.51-.06,1.3-.69.89-1.08.26-.77-1.24-1.52-2.2-3.27-2-.52.08-1.36-.5-2-.94a3.53,3.53,0,0,0-3.12-.79,1.9,1.9,0,0,1-1.76-.43c-.35-.24-.75-.49-1.12-.07s0,.72.28,1a1.69,1.69,0,0,1,.73,1.36c-1,.36-2.27-.11-3.33.64A5.75,5.75,0,0,1,149.9,14a.49.49,0,0,0-.33.23c-.79,1.63-2.33,2-3.87,2.55a6.42,6.42,0,0,0-3.15,2.69,4.4,4.4,0,0,1-2.09,2c-.77.29-.88,1-1.35,1.53a32.84,32.84,0,0,0-4.16,5.5,21.74,21.74,0,0,1-3.55,4.67c-1.13,1.06-1.36,2.8-2.71,3.69a.41.41,0,0,0-.49.32h0c-1.6,0-1.61,0-1.79-1.66,0-.34.07-.73-.38-.84a1,1,0,0,0-1,.33,3.38,3.38,0,0,0-.53.88,4.4,4.4,0,0,1-2.77,2.17c-.74.17-.77.74-.91,1.24s.38.71.69.93c.61.42.86-.2,1.15-.53a1,1,0,0,1,1.13-.32c.37.16.28.58.23.93s-.08.56.24.74V38.55c0-1.25.49-1.6,1.62-1.16a1.57,1.57,0,0,1,1.12,2,.84.84,0,0,0-.13.33.44.44,0,0,0-.39.47h0a.42.42,0,0,0-.44.41h0a.38.38,0,0,0-.43.42h0a.39.39,0,0,0-.39.44h0a.38.38,0,0,0-.37.44l0,0a2.8,2.8,0,0,0-.88,2.06h0a.38.38,0,0,0-.3.47.41.41,0,0,0-.18.28.43.43,0,0,0-.41.49,6.69,6.69,0,0,0-1.29,2.6c-.54,1.9-1.86,3.45-2.55,5.29a40.2,40.2,0,0,1-4.49,7.75,86.48,86.48,0,0,0-7.54,13.95,4.22,4.22,0,0,0-.47,1.16,10.14,10.14,0,0,1-1.42,3.9c-1.4,2.5-2.61,5.11-4,7.59-1.3,2.25-1.93,4.81-3.3,7s-2.12,4.93-3.36,7.32a25,25,0,0,0-1.61,5.63c-.45,1.89-.86,3.8-1.19,5.72a9,9,0,0,0,.29,4.53c1.29,3.9,3.73,7,6.36,10a38,38,0,0,0,18.37,11.55,40.46,40.46,0,0,0,9.11,1.2,3.38,3.38,0,0,0,1.62-.34,12.72,12.72,0,0,1,4.09-.86,8.6,8.6,0,0,0,5.06-1.72,9.27,9.27,0,0,1,4-1.87,14.47,14.47,0,0,0,5.34-2.79c.28-.2.55-.6.83-.6,1.27,0,1.72-1,2.34-1.82,1.55-2.07,1.18-4.24-1.22-5.1a46.52,46.52,0,0,1-6.81-3.5c-2.1-1.16-3.89-2.86-6.28-3.61-2.08-.66-3.39-2.62-4.83-4.2s-1.06-6.27,1.13-8.07a2.79,2.79,0,0,1,2-.45,4.9,4.9,0,0,1,2.88,1.13,24.23,24.23,0,0,0,7.15,3.88c.26.09.51.24.77.34.68.28,1.17,1.09,2.06.82a4.64,4.64,0,0,0,2.76-1.82,4.25,4.25,0,0,1,2.94-2.14c1-.17,1.34-1,1.54-1.8.77-3.15,2.35-6,3.58-8.93a11.42,11.42,0,0,0,1.22-3.11c.18-2.21.86-4.28,1.22-6.4.47-2.73.78-5.54,1.17-8.3a6.68,6.68,0,0,0-2.25-6.36,18.93,18.93,0,0,1-3.33-4.3c-.18-.3-.46-.64-.44-1a2.37,2.37,0,0,0-2.07-2.83c-.55-.11-.82-.75-.94-1.31-.55-2.56-2-4.72-3.1-7A29.36,29.36,0,0,1,146.35,52a2.88,2.88,0,0,0-.61-1.32c-1.45-1.35-1.72-3.09-2-4.92a23.92,23.92,0,0,0-1.55-5,35.73,35.73,0,0,1-1.45-4.83c-.44-1.73,0-2.59,1.61-3.37a13,13,0,0,0,1.82-1,4,4,0,0,1,2.57-.77,15.44,15.44,0,0,0,2.71-.25,1.89,1.89,0,0,1,2.4,1.52A69.45,69.45,0,0,0,156.5,43a3.22,3.22,0,0,1,.4,1.41,20.32,20.32,0,0,0,1.56,6.72,2.26,2.26,0,0,0,.81,1.15,12.86,12.86,0,0,1,4.73,6c.42,1.24,1.33,1.33,2.2.37a2.85,2.85,0,0,0,1-2.65c-.82-2.81.13-5.43.84-8a78.78,78.78,0,0,0,2.17-12.36,13,13,0,0,1,.29-2.08,2.12,2.12,0,0,1,2.33-1.72,5.76,5.76,0,0,0,3-.4,9.74,9.74,0,0,1,1.88-.18c2.19-.06,2.54.42,1.93,2.63-.25.24-.93.25-.47.87,0,.14.09.34,0,.42-.85,1.07-.41,2.27-.34,3.42.11,1.9-.16,3.79-.17,5.67,0,4.67-1.87,9.05-2,13.69a2.35,2.35,0,0,1-.23,1c-1.14,2.09-.29,4.25-.29,6.38a.83.83,0,0,0,.61.78c1.9.78,3.78,1.58,5.76.15a4.81,4.81,0,0,1,1.74-.69,6.32,6.32,0,0,0,4.14-3.28,8.41,8.41,0,0,1,3.42-3,31,31,0,0,0,5.91-4.31c1.69-1.58,3.3-3.24,5-4.82a8.31,8.31,0,0,1,1.88-1.33,54.78,54.78,0,0,0,5.47-3.13,7.48,7.48,0,0,1,1.51-.72c.83-.33,1.5-.22,1.87.72a5.33,5.33,0,0,0,1.18,1.73c1.79,1.84,1.89,3.31.42,5.39a21.27,21.27,0,0,1-3.51,3.89,13.08,13.08,0,0,0-2,2.13,4.32,4.32,0,0,1-2.1,1.69.72.72,0,0,0-.37.18c-1.74,2.36-4.74,3.16-6.62,5.35a1.07,1.07,0,0,1-.14.16c-2,1.8-4.57,2.9-6.45,4.89a.75.75,0,0,1-.57.23c-2.85-.49-5,2-7.81,1.79-.91,0-1.68.73-2.28,1.39a23.92,23.92,0,0,1-5.91,4.28,48,48,0,0,1-4.67,2.7,2.84,2.84,0,0,0-1.53,2.13c-1.51,6.12-3,12.25-4.17,18.45a3.41,3.41,0,0,0,0,2,2.77,2.77,0,0,1-.47,2.77,4.87,4.87,0,0,0-.94,3.93,7.06,7.06,0,0,1-.81,4.08,2.56,2.56,0,0,0,.24,2.76,15.54,15.54,0,0,1,.85,1.68,1.63,1.63,0,0,0,1.49,1c2.78.1,5.51.29,8.29-.56,2.09-.65,4.29-1.08,6.44-1.59a2,2,0,0,0,.79-.24,16.53,16.53,0,0,1,6.57-2.42,12.22,12.22,0,0,0,4.21-2.28c1.56-1,2.77-2.59,4.65-3.18a1.09,1.09,0,0,0,.63-.54c.62-1.52,1.92-2.3,3.19-3.19.79-.55,1.31-1.44,2.47-1.31a.83.83,0,0,0,.71-.35c.69-2,2.93-2,4.13-3.39a30.76,30.76,0,0,1,4.11-3.58,8.49,8.49,0,0,1,2.92-1.08c.84-.27,1.34.43.84,1.26-1.86,3-2.94,6.47-4.74,9.57-1.5,2.58-3.54,4.61-5.29,6.93a14.65,14.65,0,0,1-4.82,3.73c-1.92,1.11-3.69,2.51-6,2.82a.31.31,0,0,0-.19.09c-1.37,1.35-3.16,2-4.82,2.82a25.08,25.08,0,0,1-4.67,1.79,11.79,11.79,0,0,0-2.67,1.16c-1.26.73-2.4,1.54-4.07,1.3-.95-.14-2,.44-3,.71-3,.81-6,1.71-9.25,1.54-1.27-.07-2.55.76-3.86,0-.28-.17-.68.06-1,.28a3.64,3.64,0,0,0-.21,5,13,13,0,0,0,6.35,3.49,18.18,18.18,0,0,1,5.43,2.6c1.62.94,3.46,1,5.13,1.69.57.24,1.49.09,1.29-1-.09-.53,0-1,.59-1.16.79-.23,1.55-.91,2.39-.53s.34.87-.07,1.32c-.19.21-.83.09-.53.63.18.33.53.35.91.21a15.55,15.55,0,0,0,3.47-1.42,18.66,18.66,0,0,1,3.42-1.58,7.17,7.17,0,0,0,3.3-2.15c.12-.17.31-.39.47-.4,2-.07,3.07-1.81,4.78-2.39a2.45,2.45,0,0,0,1.71-1.94,2,2,0,0,0,2.29,0,9.29,9.29,0,0,0,1.22-.82c2.53-2,5.58-3.15,7.95-5.36,1.11-1,2.67-1.19,4-1.84,2-1,4.14-1.82,5.58-3.49a22.56,22.56,0,0,0,4.88-10.21,10.81,10.81,0,0,0,.37-4.76.3.3,0,0,1,0-.21c1-1.92.46-4,.41-5.94a7,7,0,0,1,.45-3.09,2.78,2.78,0,0,0,0-2.6,2.88,2.88,0,0,1-.28-2.26c.59-1.77.12-3.47,0-5.19a4.93,4.93,0,0,1,.23-2.89c.1-.17.21-.45.14-.59-1.18-2.16.35-4.78-1.16-6.89-.22-4.89-2.08-9.51-2.38-14.4a5,5,0,0,0-.73-2.39,4,4,0,0,1-.48-3.61,20.43,20.43,0,0,0,.45-2.48,3.67,3.67,0,0,0-.41-2.62,8.67,8.67,0,0,1-1.11-4.85,2.37,2.37,0,0,0-.07-1c-1.33-3.34-1.67-7-3-10.3a6.44,6.44,0,0,1-.42-1.62,87.6,87.6,0,0,0-2.14-9.84c-.55-2.37-.31-4.93-1.22-7.3a2.69,2.69,0,0,1,.28-2.24A2,2,0,0,1,219,13.2a4.51,4.51,0,0,1,.85.6c1.24,1.08,2.55,1.64,4.17.8.65-.34,1.18,0,1.7.43a6.54,6.54,0,0,1,1.94,3.2,7.28,7.28,0,0,0,.89,2.34c2.19,2.77,2.67,6.14,3.32,9.42.55,2.81,1.46,5.54,1.74,8.4a35.76,35.76,0,0,0,.72,5.81c.75,2.82,1.17,5.73,1.84,8.58.56,2.44,1.57,4.74,1.82,7.31.16,1.57,1,3.18,1.38,4.8A39.31,39.31,0,0,1,240.7,76.5a32.28,32.28,0,0,1-1.3,8.2,2.15,2.15,0,0,0-.05,1c.46,2.75-.21,5.4-.57,8.1-.43,3.15-1.39,6.24-.9,9.51.25,1.65-.74,3.25-.63,5s0,1.56,1.58,1.86a6.79,6.79,0,0,0,4.48-.72c4.67-2.4,9.3-4.88,13.22-8.47A7.61,7.61,0,0,1,259,99.82a4.44,4.44,0,0,0,2.39-1.95,6.77,6.77,0,0,1,2.78-2.37c1.67-1,3.57-1.76,4.62-3.73.6-1.13,2.09-1.58,3.29-2.16.43-.2,1-.17,1.3-.62,1.65-2.27,4.29-3.31,6.36-5.07,1.44-1.22,3-2.35,4.37-3.61s3.24-2.17,4.78-3.4c3.7-3,7.65-5.63,11.1-9a72.56,72.56,0,0,1,6.11-4.73A6.72,6.72,0,0,0,307.48,62c1.94-2.63,4.79-3.86,7.65-5,.87-.35,1.34-1.13,2.18-1.5,4.48-2,8.9-4.09,13.41-6a10.41,10.41,0,0,0,3.75-2.6,19.75,19.75,0,0,1,1.82-2A7.46,7.46,0,0,0,339.16,39c.08-3.82,2.09-6.79,4.25-9.65a28.71,28.71,0,0,1,13.86-9.84,26.49,26.49,0,0,0,6.54-2.83,2.36,2.36,0,0,1,.76-.34c4.48-1.1,8.58-3.46,13.19-4.13a24.25,24.25,0,0,0,4.43-1.31,7.67,7.67,0,0,1,4.73-.36,19.1,19.1,0,0,0,6.26.43,10.55,10.55,0,0,1,4.35.55c1.81.68,2.13,1.09,2.21,3a.78.78,0,0,0,1,.15c1.73-.7,3.05,0,4.45,1,3.81,2.61,5.88,6.47,7.9,10.42,1.37,2.68,2.25,5.59,4.05,8.06a11,11,0,0,1,1.06,2.28c.11.26.1.6.27.79,2,2.18,2.67,5.05,4.15,7.49a7.5,7.5,0,0,1,1.12,2.69,5.86,5.86,0,0,0,2.19,4.14c1,.74,1.2,2,1.58,3.16a37,37,0,0,0,2.2,4.52c1.6,3.21,1.31,4.84-1.31,7.27-.62.57-1.25,1.13-1.86,1.71a4.32,4.32,0,0,1-5.21.82,2.92,2.92,0,0,0-2.18-.44,1.55,1.55,0,0,1-1.23-.12c-2.25-1.39-4.9-1.08-7.31-1.8a31.91,31.91,0,0,1-7-2.79,26.19,26.19,0,0,0-11.51-3.59,1.76,1.76,0,0,0-1.65.67,9.74,9.74,0,0,1-2.24,1.91c-1.1.71-1.89.59-3.16-.68.57,1.64.92,2.88,1.44,4,.32.75.8.69,1.33-.09a1.5,1.5,0,0,1,.75-.7c.46-.16,1-.31,1.38.09a.82.82,0,0,1-.16,1.29c-1.12.7-.67,1.57-.56,2.53.33,2.75.68,5.52-.27,8.22-.11.33-.14.59.14.69,1,.34.89,1.17,1,1.91.12,1,.91,1.51,1.49,2.19s-.25,1.65.72,2.26c2.17,1.35,2.53,4.19,4.56,5.69.6.44.6,1.24.8,1.9a37.09,37.09,0,0,1,2,9.57,33.78,33.78,0,0,0,1.49,9.67,3.7,3.7,0,0,1,.19,1.24c-.06,5.94,1.47,11.64,2.66,17.38.81,3.9,1.59,7.8,2.44,11.68.81,3.68,1.26,7.45,2.9,10.91a22.07,22.07,0,0,1,1.1,4.05c1,4,2.45,7.88,3.09,12a16.11,16.11,0,0,0,1.35,3.3.73.73,0,0,0,.17.88l.33,1.62a2.71,2.71,0,0,0,1.07,3.1.41.41,0,0,0,.08.32,8.55,8.55,0,0,0,1.59,5.91l.24,2.46a2.84,2.84,0,0,0,.7,2.59l.45,2.51a3.25,3.25,0,0,0,.75,3l.55,1.22c.09.58-.16,1.21.3,1.73.32,1,.63,1.94,1,2.91a9.54,9.54,0,0,0,.51,3.28,18.66,18.66,0,0,1,.87,4.45c.07.9-.19,2.25,1.07,2.84.18.4.35.81.53,1.22a12.21,12.21,0,0,0,.31,5c.42,1.55.58,3.17.92,4.75a29.4,29.4,0,0,0,1.29,5.25,25.92,25.92,0,0,1,1.35,5c1,5.28,2.73,10.44,2.92,15.87a3.76,3.76,0,0,0,.32,1,30.87,30.87,0,0,1,1.24,6.79,16.48,16.48,0,0,0,1.3,4.81,6.09,6.09,0,0,0,.13,2,1.64,1.64,0,0,0,.33,1.75c.06.53.11,1.07.16,1.6-.5,1.16,0,2.11.63,3a8.38,8.38,0,0,0,.26,2.86c.25,2.66.71,5.31.76,8,0,.17.19.34.3.51a9.65,9.65,0,0,0,.09,2.46,10,10,0,0,0,.39,3.93c-.28,1,.4,1.91.36,2.89a6.16,6.16,0,0,0,.42,4.63c0,.26.06.52.1.77a3.13,3.13,0,0,0,.32,2.6c.06.25.11.51.17.76a2.16,2.16,0,0,0,.24,1.77l.09.78c.05,3.5.76,6.93,1,10.42.28,4.25,1.19,8.45,1.43,12.72a2.44,2.44,0,0,0,.46,1.78l.14.77c-.24.89-.57,1.79.19,2.61l.17.77a13.14,13.14,0,0,0-.1,3.91l0,.8a2.57,2.57,0,0,0,0,2.95l.08.79c-.94,2.2-.51,4.57-.86,6.84v1.18a12,12,0,0,0-.87,4c-.43,3.76-1.08,7.49-1.75,11.21-.38,2.06-.56,4.17-1.09,6.19a20.79,20.79,0,0,0-1,7.22A5,5,0,0,1,437,377c-.85,2.81-1.6,5.67-2.62,8.4s-1.6,5.62-3.43,8a3.49,3.49,0,0,0-.37,1,15.85,15.85,0,0,1-1.93,3.69,33.25,33.25,0,0,0-2.9,4.85c-1.24,2.81-2.69,5.52-4.09,8.24-.93,1.82-2.37,3.31-3.24,5.16a90.88,90.88,0,0,1-8.51,14.95c-1.4,1.93-3.05,3.63-4.35,5.64-1.86,2.87-3.85,5.67-5.63,8.6a3.24,3.24,0,0,1-1.1,1.24c-2.07,1.09-3.58,2.88-5.42,4.25-2.16,1.62-4.21,3.41-6.31,5.12-1.34,1.08-2.91,2-3.52,3.73h0c-.61,0-.81.49-1.07.86a20.38,20.38,0,0,1-5.67,5.7,6,6,0,0,0-2.22,2.1l-.07.05a4.79,4.79,0,0,0-2.84,2.58l.06.08-.08-.07c-2.05.27-2.86,1.68-3.22,3.51a.27.27,0,0,0-.12.26,6.92,6.92,0,0,1-2.1.93,5.7,5.7,0,0,0-3.05,1.67c-1.27,1.05-2.31,2.52-4.05,2.89a5.9,5.9,0,0,0-2.18,1.17c-2.34,1.63-4.39,3.74-7.24,4.58s-5.61,1.66-8.43,2.45c-1.41.39-2.86.66-4.28,1-3.45.91-6.89,1.89-10.4,2.49-1.63.28-3.39.44-4.67-1.08a1.34,1.34,0,0,0-.69-.42c-1.86-.58-3.82.21-5.68-.48-.35-.13-.6.25-.81.54a2.42,2.42,0,0,1-2.11,1.18c-3-.11-5.86.7-8.8.58-4-.15-7.91-.7-11.89-.46a2,2,0,0,1-.42-.05,22.07,22.07,0,0,0-8.14-.11,4.18,4.18,0,0,1-4-1.14,4.2,4.2,0,0,0-4.23-1c-2.22.48-4.5,1.14-6.83.33a14,14,0,0,0-5.83-.52,18.44,18.44,0,0,1-6.25-.57,42.32,42.32,0,0,0-7.42-.74c-3.88-.33-7.79.09-11.66-.47a12.72,12.72,0,0,0-5,.27,6.59,6.59,0,0,1-3.33,0,2.38,2.38,0,0,0-1.85,0c-1.49.81-3,.47-4.51.12a8.62,8.62,0,0,0-2.08-.29c-3.43,0-6.85.07-10.28.13a46.81,46.81,0,0,0-5.6.46,29.23,29.23,0,0,1-5.6.25c-2-.09-4.06-.35-5.93.77-.57.34-1.35.51-1.65-.21-.56-1.32-1.38-.78-2.24-.54s-1.51.91-2.18.45c-1.5-1-2.4-.11-3.53.66-1.78,1.21-3.15,3-5.43,3.51a2,2,0,0,0-1.25,1.58h0a.37.37,0,0,0-.39.44l-.44.4a5.9,5.9,0,0,0-4.24,3.36h0a.36.36,0,0,0-.32.47l0,.05a.32.32,0,0,0-.36.39l-.06,0a.33.33,0,0,0-.42.36h0c-.28,0-.44.07-.46.37h0c-.86.37-1.91.5-2.13,1.68l-.39.42c-1.43.67-3.1.13-4.51.83-2.19,1.09-4.36.85-6.66.33a7.58,7.58,0,0,1-4.53-3,26.24,26.24,0,0,1-1.61-3.17l-.13-1.19a10.73,10.73,0,0,0-.08-3.53,7.82,7.82,0,0,0,.12-3.23,1.32,1.32,0,0,0-.33-1.32v-1.69a25.52,25.52,0,0,0,.1-6.65c-.2-2.15-1.36-4-1.79-6a17.39,17.39,0,0,0-2.15-5.45,18.41,18.41,0,0,1-1.36-2.83c-1.45-3.71-2.71-7.54-6-10.14a3.23,3.23,0,0,1-.72-1c-1.78-3.18-3.58-6.34-6.33-8.83a3.67,3.67,0,0,1-.53-.65c-1.59-2.38-3.5-4.52-5.21-6.81s-3.25-4.88-5.63-6.67a2.37,2.37,0,0,1-.52-.65,31,31,0,0,0-3.77-4.77,32.93,32.93,0,0,1-3.64-4.82,65.69,65.69,0,0,0-6.53-8.17c-1.11-1.15-1.43-2.74-2.44-3.86-2.44-2.72-4-6-6-9-1.14-1.72-2.37-3.42-3.57-5-2.23-3-3.93-6.29-6.13-9.27-1.49-2-2.67-4.27-4-6.4-1.71-2.72-3.45-5.42-5.16-8.14-.29-.46-.38-1.1-.75-1.46a14.79,14.79,0,0,1-3.87-6.33,2.85,2.85,0,0,0-.56-.88,57.41,57.41,0,0,1-5.31-7.48c-1.46-2.67-3.32-5.11-4.62-7.9a10.66,10.66,0,0,1-1.36-3.49c-.19-2,0-4-1.37-5.88-.89-1.19-.19-2.24,1.15-2.59-1.68-.13-1.88-.36-2.4-1.74-.92-2.43-.7-5.21-2.28-7.43a1.24,1.24,0,0,1-.12-.61c0-.61.57-1,.61-1.52s-.92-.3-1-.93a1.54,1.54,0,0,1,.57-1.49c.28-.24.9-.15.77-.84a5,5,0,0,0-.56-.09c-1.54,0-1.65-.13-.93-1.4.38-.66.38-1.06-.33-1.27s-1.29-.84-1-1.56c.42-1,0-1.56-.64-2.19a2,2,0,0,1-.44-.94A22.88,22.88,0,0,1,53.8,303a25.72,25.72,0,0,0,.64-6.56c0-1.16.72-2.36-.11-3.48l.1-.78a9.53,9.53,0,0,0,.37-3.79l0-1.27,1.2-7.22.55-1.21c.7-.89.41-2,.75-3l1.13-1.59c.34-.06.87,0,1-.2.28-.45-.37-.29-.53-.54a1.47,1.47,0,0,1-.27-1.16c.44-2,1.21-3.88.93-6a1.55,1.55,0,0,1,.3-.77c1-2,.9-4.31,2-6.26.12-.21,0-.54,0-.82l.45-1a2.65,2.65,0,0,0,1-2.35.4.4,0,0,0,.19-.25c.49-.14,1-.37.72-1s0-1.21-.19-1.79l.17-.77a6.81,6.81,0,0,0,1.15-3l.9-2.06a.83.83,0,0,0,.44-.86l.52-.76a5,5,0,0,0,1.57-3.46c1.38-2,2.76-4.08,4.12-6.13a4.23,4.23,0,0,1,1.4-1.48c.38.14.83,0,1.16.32s.74.21.91-.23c.24-.62-.28-.62-.65-.73l-.59-.16c0-.21-.12-.46,0-.61.73-1.29,1.48-2.56,2.27-3.81.12-.2.46-.27.7-.4,1.42.44.28,1.64.59,2.41,1.83-.52,2.86-1.85,3.92-3.14a.44.44,0,0,0,0-.57c-.12-.14-.45-.32-.49-.28-.77.73-2.26.5-2.52,1.91a3.09,3.09,0,0,1-.7-1.85c.89-1.25,2-2.36,2.83-3.64,1.89-2.78,4.62-4.61,7.49-6.24.36-.2.79-.31,1.13-.54,1.25-.82,1.24-1.82-.06-2.58a7.16,7.16,0,0,0-3.52-1.2A17.7,17.7,0,0,1,80.37,211a8.35,8.35,0,0,0-3.28-.32c-1.9,0-3.86.34-5.75-.41a5.56,5.56,0,0,0-2.9-.17A46,46,0,0,1,57.57,210a4.07,4.07,0,0,0-.84-.09c-2.7.42-5.09-.78-7.58-1.47-.21,0-.53-.22-.59-.15-1.24,1.37-2.26.13-3.34-.25a5.8,5.8,0,0,0-.82-.21.75.75,0,0,0-1,.54c-.16.55.17.73.64.81.25,0,.57,0,.68.51a1.7,1.7,0,0,1-1.67.15c-3.73-1.09-7.66-.5-11.42-1.38a6,6,0,0,1-2.15-.74c-1.19-.79-2.45-1.34-3.92-.51a1.66,1.66,0,0,1-2-.33A14.08,14.08,0,0,0,21,205.06c.12-1.11,1.3-.32,1.62-1.11l-1.34-.88c-.5-.35-.86-.25-1.23.23-.74,1-1.52,1.11-1.95.21a2.31,2.31,0,0,0-1.89-1.35A2.33,2.33,0,0,1,14.51,201a4.93,4.93,0,0,0-2-2.35c-.52-.28-.49-.72-.11-1.23.6-.81.38-1.23-.67-1.08s-1.08-.57-1.29-1.2c.8-.53,1.21.4,1.91.28.48-.26.2-.82.32-1.25s.12-.73.63-.94c.78-.31.75-.4,1-1.64,1.4,0,2.54.44,3,1.94.11.36.1.69-.33.85-.83-.28-1.11-1.13-1.65-1.79-.65,1.57-.68,1.67.58,2.35.78.43,1.36.81,1.31,1.82,0,.41.27.79,1,.63,0-.69-.76-1.33-.36-2.09a1.37,1.37,0,0,1,1.33.85c.31.55.59,1.12.92,1.66.88,1.38.95,1.41,2.23.29a4.3,4.3,0,0,1,3.17-.86,83.76,83.76,0,0,1,11.06.93,18.46,18.46,0,0,0,6.06-.23,27.75,27.75,0,0,1,3.75-.41c5.24-.19,10.47-1.16,15.73-.39a4.88,4.88,0,0,0,1.26-.07,36.09,36.09,0,0,1,8.37.52c1.48.19,2.87.79,4.38.22a1,1,0,0,1,.62.05c3.12,1.31,6.48.71,9.71,1.2a33.18,33.18,0,0,0,5.65.31,6.26,6.26,0,0,1,3.13.93c1.55.85,2.31.34,2-1.36-.32-2-.31-4.06-2-5.61a4.77,4.77,0,0,1-.69-1.51,69.06,69.06,0,0,0-3.17-6.6,4.59,4.59,0,0,0-4.78-2.32,22.4,22.4,0,0,0-4.13.76,1.8,1.8,0,0,1-1,.13,17.55,17.55,0,0,0-4.79-.45A55.23,55.23,0,0,1,66.49,182a27.67,27.67,0,0,1-6.16-2c-1.36-.67-3-.84-4.36-1.46-2.43-1.08-5.12-1.34-7.5-2.55a8.08,8.08,0,0,0-2.07-.29c-1-.2-2.08-.19-2.73-1.28a2.65,2.65,0,0,0-1.85-.9c-1.71-.36-3.3-1.21-5.09-1.24a2.11,2.11,0,0,1-1.8-1,1.92,1.92,0,0,0-1.87-1,6,6,0,0,1-4.84-2.46,30.18,30.18,0,0,0-3.41-4.26c-.65-.58,0-4.67.7-5.21a1.43,1.43,0,0,1,1.4-.19,7.68,7.68,0,0,0,3.12.27,7.65,7.65,0,0,1,2.85.59c4.1,1.38,8.06,3.11,12.3,4.1a21.49,21.49,0,0,1,7.73,3c.79.57,1.8.22,2.6.73A21,21,0,0,0,61.4,169a79.67,79.67,0,0,0,9.74,2.43,16.54,16.54,0,0,0,7.59-1c.76-.27,1.11-1.06,1.46-1.75.83-1.59.43-2.34-1.31-2.55s-1.61-.2-1.46-2.05c.18-2.27.36-4.62-1.3-6.59a9.28,9.28,0,0,1-1-1.84c-.65-1.28-1-2.73-2.06-3.81a4.45,4.45,0,0,1-.85-2.35,25.84,25.84,0,0,0-1.64-5c-.93-2.09-1.51-4.36-2.48-6.4-1.84-3.85-2.35-8.15-4.44-11.93-1.18-2.15-1.53-4.78-2.08-7.24a7,7,0,0,0-.86-2.53,3.16,3.16,0,0,1-.35-2.82,3,3,0,0,0-2-4c-1.39-.43-2.94-.17-4.26-1-.45-.3-.92.55-1.34.37-1.73-.74-3.83.29-5.42-1.13a1.14,1.14,0,0,0-.78-.25c-2.27.17-4.43-.58-6.65-.82a68.67,68.67,0,0,1-8-1.47,14.79,14.79,0,0,0-3.49-.69,1.37,1.37,0,0,1-1.54-1.36,29.32,29.32,0,0,1,.14-10c.22-.94.89-1.29,1.95-.85a27.5,27.5,0,0,0,3.39,1.13,13.21,13.21,0,0,0,2.89.47,17.47,17.47,0,0,1,5.38,1.65,6.82,6.82,0,0,0,1.33.6c3,.36,5.56,1.83,8.35,2.71a11.68,11.68,0,0,0,4.55.58,4.12,4.12,0,0,1,4.39,2.54c.61,1.19.94,2.53,1.74,4a4.38,4.38,0,0,0,.13-2.92c-.25-1.87-.2-3.81-.52-5.62-.44-2.44,0-4.86-.41-7.27-.2-1.27.19-2.62-.58-3.84-.22-.35,0-.87.34-1.16A1.4,1.4,0,0,0,59.76,83c-1.54-1.29-1.42-2.95-1-4.61.22-.87.24-1.5-.65-1.93a1.29,1.29,0,0,1-.86-1.11C57.2,72.54,56,70,55.63,67.22A1.57,1.57,0,0,1,56,65.9c.76-1,.69-1.07-.57-1.64-1.54-.71-2-3.47-.68-4.57a21.62,21.62,0,0,1,2-1.49,2.46,2.46,0,0,1,3.87.89c.25.42.61.94.54,1.34C60.89,62.07,62,63,62.85,64A13.92,13.92,0,0,1,65,69c.1.41.06.88.37,1.18,1.39,1.37,2,3.19,2.89,4.85.5.93,1.14,1.77.85,2.93a1,1,0,0,0,.08.6,38.78,38.78,0,0,1,3.08,12.36c.08,1.17.62,2.26.79,3.46a1.74,1.74,0,0,0,2.8,1c1.35-1,3.14-1.13,4.25-2.47,1.49.13,2.41-.92,3.51-1.64a7.66,7.66,0,0,0,2.2-2.23,9.9,9.9,0,0,1,2.06-2.37A6.64,6.64,0,0,0,90,83.15c.52-1.86,1.67-3.35,2.46-5,.63-1.36,1.74-2.66,2.25-4,.75-1.91,2.52-3.4,2.39-5.67a3.7,3.7,0,0,1,.49-1.38,33.73,33.73,0,0,0,2.36-9.48A6.73,6.73,0,0,0,98.45,53a14.62,14.62,0,0,0-5.15-4.82c-1.42-.78-2.7-1.72-4.08-2.53-1.73-1-2.43-3-3.91-4.26-.08-.07.14-.35.37-.4a1.91,1.91,0,0,1,1.46.65c.56.7,1.4.59,2.14.61a1.47,1.47,0,0,0,1.29-2.06,4.07,4.07,0,0,0-3.8-2.07c.58,1,1,1.82,2.13,1.89a.61.61,0,0,1,.46.95.52.52,0,0,1-.88.12,3.14,3.14,0,0,0-2.32-1h0c.11-.43-.09-.67-.51-.76h0c-.27-.61-.69-1.08-1.4-.93-.51.1-.49.59-.43,1a1.79,1.79,0,0,0-.28.27l-.8,0h0a1.58,1.58,0,0,0-1.26-.41h0a.93.93,0,0,0-.78-.51c-.5-1-1.3-.44-1.83-.21a19.1,19.1,0,0,1-6.57,2c-1,.06-1.73.87-2.52,1.44s-1.39,1.35-2.68,1.36c-.93,0-1.73,1.28-2.62,1.92-3.23,2.33-5.37,5.95-9.17,7.58-1,.41-1.43,1.51-2.45,1.94-.83.34-1.59.64-2.36,0a2.64,2.64,0,0,0-2.76-.31,14.43,14.43,0,0,0-1.79.59,15.13,15.13,0,0,1-6.51,1.19A14.7,14.7,0,0,0,31,59c-.5.37-1.12.57-1.63.94a7.77,7.77,0,0,0-2.46,2.48,44.53,44.53,0,0,1-3.55,4.93c-.7.89-.64,2.61-2.45,2.41-.09,0-.29.31-.31.49-.33,2.52-1.78,4.71-2.15,7.21a.43.43,0,0,0-.23.59.37.37,0,0,0-.12.27,3.1,3.1,0,0,0-.6,2.3c-.09.35-.18.7-.26,1-.35.12-.52.33-.43.7l-.11.71-.15.46h0c-.5.3-.49.77-.45,1.25h0c-.79.85-.66,2-.84,3a.37.37,0,0,0-.1.28.42.42,0,0,0-.3.56h0c-.38.17-.58.43-.37.86l0,2.08c-.27.25-.5.52-.27.92-.1.77-.21,1.54-.31,2.31-.86,1.09-.59,2.36-.57,3.58l-.16.76c-.23.09-.35.24-.2.49l-.21,3.31a5.19,5.19,0,0,0-.67,1.78.73.73,0,0,0-.19.3,3.63,3.63,0,0,1-2.81-1.1c-.6,1.32-.41,3-2.24,3.37-1.22-1.93-.42-3.51.8-5.1-1.58-.43-2.87-1.57-4.58-1.35h0a.42.42,0,0,0-.42-.41h0c-.07-.88-.43-1.86.19-2.61a1.83,1.83,0,0,0,.28-2.06,5.27,5.27,0,0,1,0-1.64l.78-.92c.15.07.29,0,.3-.13s-.17-.15-.26-.22a3,3,0,0,1,.38-1.75c.06,0,.16,0,.17,0s0-.24-.18-.23l-.1-.43c.05-.45.09-.9.14-1.35l.82-.52a3,3,0,0,1,1.71.68c.33.3.82.38,1-.16s-.36-.5-.64-.64c-1.73-.87-2-1.34-1.52-3.26.06-.26.1-.53.14-.8v-.69a1.35,1.35,0,0,0,0-1L6,81.87a3,3,0,0,0,1-1.19.55.55,0,0,0,.3-.16c.58,0,1.17.29,1.88-.06a1.81,1.81,0,0,0-1.39-.72l-.13-1.25c.67-2.12,1.82-4.08,2.23-6.3.44-.4.67-1,1.25-1.27a2.38,2.38,0,0,1,2.07,1.78c.2.64.64.76,1.11.43a3.06,3.06,0,0,1,3.46,0c-.44-.42-.92-.7-1.33-1.05-.72-.6-1.38-1.31-2.13,0-.15.25-.71.18-.71,0,0-1.44-1.42-1.33-2.13-2v-.85a22,22,0,0,0,1.71-3.7,8.51,8.51,0,0,1,2.24-3.88,3.13,3.13,0,0,0,1.09-2.58l1.36-1.21a.58.58,0,0,0,.53-.53,6.61,6.61,0,0,1,3.18-4.65,4.66,4.66,0,0,0,2.15-2.43L25,48.59c1.13-.49,2.36-.85,3.06-2a.39.39,0,0,0,.28-.15c1.51-.07,2.2-1.47,3.38-2.09l2.05-.17a.6.6,0,0,0,.9-.25l.78-.2a1.81,1.81,0,0,0,1.75-.65,21.69,21.69,0,0,1,5.85-.57c1-.16,2.19.41,3-.66l1.23-.51a.66.66,0,0,0,.86-.37l.84-.43a1.4,1.4,0,0,0,1.26-.81h0a1.57,1.57,0,0,0,1.28-.82.82.82,0,0,0,.37-.13c1.36-.33,2.81-.45,3.88-1.52l2-1a1.8,1.8,0,0,0,1.74-.69,2.51,2.51,0,0,0,1.26-.87,1.24,1.24,0,0,0,1-.6l1-.34c1.62-.26,2.7-1.38,3.83-2.43l.81-.47a1.34,1.34,0,0,0,1.08-.5l1-.38a5.48,5.48,0,0,0,3-1.19l.82-.46c1.15-.25,2.35-.42,3-1.62a4.58,4.58,0,0,1,5.71,1.07,6.31,6.31,0,0,0,2.52,1.82c3.45,1.16,5.67,3.74,7.59,6.61A7.87,7.87,0,0,0,95,38.89a12.1,12.1,0,0,1,3.51,3.25,7.44,7.44,0,0,0,2.66,2.3A2.52,2.52,0,0,0,104,45c1.42-.58,2.93-.77,4.36-1.24.76-.25,1.66-.3,2.1-1.15h0a1.49,1.49,0,0,0,1-.61.43.43,0,0,0,.25-.19c1.19-.29,1.62-1.48,2.51-2.13l.8-.17a.82.82,0,0,1,.53.79c0,1.9.06,1.9,1.87,1.72.23,0,.56.17.64-.3a2.58,2.58,0,0,0-.29-.5,3.59,3.59,0,0,0-.62-.55c-1.47-1.1-1.5-1.11-.56-2.76a6.61,6.61,0,0,0,.89-4.59l.14-1.21a2.25,2.25,0,0,0,.83-1.68h0a7.33,7.33,0,0,0,2.13-2.5h0c.56-.28.92-.65.73-1.34l.1-.8,1.28-2.5.41-.42a1.89,1.89,0,0,0,1.28-.84l.79-.48c.45,0,.55-.32.63-.66a5.71,5.71,0,0,1,2.46-3.44C128.68,17.25,129.07,17.06,129.1,16.57Zm61.53,441.27c-.26,0-.37.16-.29.41l-1.4,2.94c-.53.38-.69.89-.22,1.35.23.22.64,0,.7-.41l.05,0c.3,0,.44-.19.32-.5,1-1.79,2.54-3.21,3.63-4.92,2.59-4.05,5.55-7.84,8.07-11.94,1.31-2.15,2.3-4.45,3.66-6.58s2.52-4.22,3.87-6.22,2.4-4.25,3.86-6.2c1.32-1.74,2-3.83,3.3-5.59a20.28,20.28,0,0,0,2.16-3.83q1.5-3.36,3.13-6.65c.93-1.88,2.33-3.49,2.93-5.54a31,31,0,0,1,1.89-4.2c1.2-2.55,2.92-4.82,3.94-7.43a30.23,30.23,0,0,1,3.44-6.23,3.18,3.18,0,0,0,.47-.7c1.44-4.05,4.26-7.4,5.8-11.41a26.43,26.43,0,0,1,1.87-3.52c1.93-3.41,4.11-6.71,5.78-10.25,2.21-4.68,4.76-9.18,7-13.82s4-9.25,6.62-13.58c1.77-2.93,3.08-6.13,4.61-9.21a29.49,29.49,0,0,0,1.41-2.81c.22-.61.4-1.58-.3-1.9s-.92.64-1.29,1.09c-1.39,1.72-1.92,3.88-3,5.78-1.66,3.07-3.27,6.18-5,9.2a21.17,21.17,0,0,1-5.05,6.39,3,3,0,0,0-1.53,2.52,1.94,1.94,0,0,1-1.38,1.91c-2.37.86-3.11,2-3.2,4.66.64-.05.9-.62,1.3-1a.82.82,0,0,1,1.13-.14.78.78,0,0,1,.19,1,13.36,13.36,0,0,1-.64,1.32c-1,2.06-2.19,4.07-3.12,6.18a80.35,80.35,0,0,1-7.06,13.11,52.08,52.08,0,0,0-3.12,5.42c-.86,1.66-1.64,3.4-2.47,5.08-1.39,2.82-3.2,5.43-4.59,8.26-1.24,2.51-2.82,4.81-4.09,7.31a39.54,39.54,0,0,0-2.93,6.95,4.8,4.8,0,0,1-.75,1.5c-3,4.07-4.65,8.93-7.48,13.12-.78,1.15-1.3,2.48-2.45,3.37a.83.83,0,0,0-.4.68,9.46,9.46,0,0,1-1,3.39c-1,2.75-1.95,5.53-3.88,7.88a64.46,64.46,0,0,0-3.76,5.56,5.23,5.23,0,0,1-2,2.09,1,1,0,0,0-.71.94c0,1.59-1,2.9-1.42,4.37a3.7,3.7,0,0,1-2.36,2.53,1.88,1.88,0,0,0-1.28,1.23,4.12,4.12,0,0,1-1.21,1.7,1.4,1.4,0,0,0-.57,1.29c.28,1.34-.38,2.44-.82,3.59a.37.37,0,0,0-.34.48ZM364.24,86.56c-.24.22-.49.43-.39.81a19.22,19.22,0,0,0-1.39,4.12A6.81,6.81,0,0,1,360.7,95c-.61.61-.56,1.38-.73,2.13-.73,3.25-.82,6.68-2.62,9.65a5.28,5.28,0,0,0-.63,1.77,20.2,20.2,0,0,1-2.53,7.27,12.75,12.75,0,0,0-.54,1.58c-.54,1.26-.25,2.63-.61,3.92a97.45,97.45,0,0,0-2.25,10.44,91.73,91.73,0,0,1-3.58,15.11c-1,3-1.21,6.14-2.43,9.06-.64,1.53-.84,3.22-1.45,4.81a53.19,53.19,0,0,0-2.05,7.26,7.08,7.08,0,0,1-.7,1.66c-1.19,2.41-2.78,4.66-2.95,7.48a2.21,2.21,0,0,1-.31.75,51.92,51.92,0,0,0-2.57,6.34c-.58,1.51-.59,3.31-1.31,4.61s-.91,3-1.79,4.23a3.38,3.38,0,0,0-.58,1.91,14,14,0,0,1-.43,2.48c-.27,1.25-1.28,2.18-1.57,3.25-.62,2.27-1.51,4.42-2.3,6.62a5.66,5.66,0,0,0-.51,2.18,3.94,3.94,0,0,1-.86,2.48c-.27.39-.68.82-.69,1.24a7.12,7.12,0,0,1-1.19,3.54c-.72,1.19-.66,2.57-1.26,3.84-1,2.19-1.23,4.76-2.51,6.93-.1.16,0,.42-.07.61-1.1,3.69-2.41,7.3-3.8,10.9-1.31,3.37-3.06,6.61-3.67,10.24a7.69,7.69,0,0,1-.77,1.95c-1.1,2.24-2.24,4.47-3.24,6.75-1.49,3.44-2.37,7.13-3.86,10.6-1.81,4.23-3,8.71-5,12.88a9.52,9.52,0,0,0-.45,1.4,69.35,69.35,0,0,1-5.41,12.74,77.7,77.7,0,0,0-3.78,7.45,43.45,43.45,0,0,1-5.41,10.84c-.3.39-.68.73-.63,1.27.12,1.45-.72,2.54-1.4,3.67a88,88,0,0,0-4.58,7.75c-1.64,3.56-3.38,7.07-4.94,10.67-1.47,3.4-3.33,6.63-5,9.93-.13.24-.31.46-.46.7-1.36,2.18-2,4.76-3.66,6.78a1.1,1.1,0,0,0-.14.61,16.2,16.2,0,0,1-2.61,7,84,84,0,0,0-4.77,9.54c-1.32,2.94-2.68,5.86-4.17,8.72-1.69,3.23-3.13,6.57-4.75,9.83a106.88,106.88,0,0,1-5.3,10.26c-4.67,7.32-9.1,14.8-14.18,21.86-2.21,3.05-4.1,6.34-6.38,9.34-1.09,1.42-1.5,3.18-2.55,4.57a41.71,41.71,0,0,0-4.52,7.06,6.84,6.84,0,0,1-1.33,1.88,31.5,31.5,0,0,0-4.21,5.76c-2.69,4.18-5.19,8.48-8.17,12.46-2.28,3-4.79,5.88-7.29,8.72-1.52,1.73-3.4,3.13-4.47,5.25-.22.43-.55.91-1.09.89-.7,0-.86.3-.77.88s-.29,1.54.41,2.28a8,8,0,0,0,1.87-.8c1.84-1.37,3.66-2.64,6.11-1.57,2.73-.65,5.58-.47,8.32-1.06,2.38-.51,4.64-1.64,7.17-1.14a2.25,2.25,0,0,0,.62-.08c2.77-.37,5.59-.38,8.27-1.31a4.3,4.3,0,0,1,1.25-.07,70.11,70.11,0,0,0,12.46-1.06c1.93-.4,3.94,0,5.78-.81a5.69,5.69,0,0,1,3.71-.14c.47.12,1.08.4,1.4,0,1-1.25,2.81-.59,3.82-1.74a.76.76,0,0,1,.58-.19c2.07.31,3.76-.61,5.38-1.69a5.72,5.72,0,0,1,2.14-.83,7.41,7.41,0,0,0,1.82-.49,37.69,37.69,0,0,0,6.16-3.08c1.22-.88,2.86-.8,4.12-1.52,3.63-2.09,7.92-3,11-6,.18-.18.5-.2.75-.33,2.47-1.27,5-2.47,6.32-5.17a1.69,1.69,0,0,1,1.66-1.05,3.61,3.61,0,0,0,2.56-.8c2.57-2.36,5.46-4.37,7.64-7.18a22.53,22.53,0,0,1,3.19-3,45.91,45.91,0,0,0,4.44-4.59,22.72,22.72,0,0,1,2.2-2.51,11,11,0,0,0,2.83-3.07,95.93,95.93,0,0,1,7-10.71,21.85,21.85,0,0,0,2.16-3.36c1.4-3,2.64-6.16,4.3-9.09,1.11-1.95,1.93-4,3.55-5.68a3.77,3.77,0,0,0,.79-1.22,43.78,43.78,0,0,1,3.6-6.63,61.88,61.88,0,0,1,3.75-5.81A6.79,6.79,0,0,0,337,386a116.87,116.87,0,0,1,5-13.13,86.71,86.71,0,0,0,3.4-9,36,36,0,0,0,2-8.1,6,6,0,0,1,.66-2.42c1.59-2.6,1.08-5.91,2.95-8.41.25-.33.12-1,.17-1.44a43.81,43.81,0,0,1,1.15-6.84c.76-2.89.77-5.94,1.82-8.78a2.58,2.58,0,0,0,.07-1,9.23,9.23,0,0,1,.48-3.73,7.86,7.86,0,0,0,.33-2.5,10.45,10.45,0,0,1,1.49-5.61,3.88,3.88,0,0,0,.67-1.75,41.33,41.33,0,0,1,1.33-7.62c1.2-5.31,1.56-10.83,3.67-15.94a2.43,2.43,0,0,0,.1-1.23,6.55,6.55,0,0,1,.32-2.49c.84-3.68,1.69-7.36,2.48-11.05.42-2,.36-2-1.63-2.38s-2.62-1.11-3-3a6.65,6.65,0,0,1,.87-4.43c.64-1.09,1.42-2.52,3.35-2.54.9,0,1.65-.26,2.33.68a12.86,12.86,0,0,0,1.24-3.51c.47-2.91.93-5.82,1.5-8.71a15.29,15.29,0,0,0,.36-5,4.05,4.05,0,0,1,.12-1.24c.38-2.42.23-4.87.64-7.31a36.58,36.58,0,0,0,0-5.64c.07-4.41.6-8.8.41-13.22a72,72,0,0,1,.42-13.21,6.23,6.23,0,0,0-.09-2.51,4.93,4.93,0,0,1,0-2.85,6.09,6.09,0,0,0-.28-4.42,4.88,4.88,0,0,1-.15-2.29c.18-2.31.24-4.62.47-6.92.16-1.63-.55-3.2-.25-4.81a13.09,13.09,0,0,0,0-4.19c-.15-1.12-.35-2.23-.4-3.34-.25-5.73-.28-11.47-1-17.16-.24-1.86-.15-3.78-.83-5.57a4,4,0,0,1,0-3.26,2.65,2.65,0,0,0-.13-2.61,5.34,5.34,0,0,1-.52-3.85c.3-1.56.57-3.17-.55-4.63a2.13,2.13,0,0,1-.26-1.42,31.78,31.78,0,0,1,.41-3.76,3,3,0,0,0,.1-2.27c-1.05-1.76-.71-3.51-.25-5.3.13-.54.38-1-.22-1.49a8.13,8.13,0,0,1-.54-3.86c1.18-2.07.81-4.34,1-6.55s-.2-4.22.18-6.27c.42-2.25-.25-4.32-.91-6.32a14.45,14.45,0,0,1-.53-8.64,3,3,0,0,0-.25-2.42,6,6,0,0,1-.83-4.23c.17-.5-.18-.48-.5-.5h0c0-.18-.12-.35-.34-.28s-.12.19-.18.29h0c-.68.09-1.47.37-1.35-.83.68-.78-.63-2.15.79-2.71a7.74,7.74,0,0,1-1.6-.1c-.59-.14-1-.17-1.43.41s.09,1.07.26,1.52a1.56,1.56,0,0,0,1.69.94c0,.06.07.13.06.2-.13.88-.91,1.14-1.51,1.57-.81.56.05,1.47-.48,2.12a1,1,0,0,1-1.3.29c-.87-.34,0-.76,0-1.15.39-.23.85-.38,1-.9-.78-.39-1.12,0-1.27.69-.45.15-.89.46-1.38.09s-.67-.07-1,.31c-1,1.19-1.29,1.26-2.58.53-.67-.38-1.24-1-1.91,0-.09.14-.45.07-.47-.17-.07-.69-.27-.78-.55-.12-.48,1.17,0,1.78,1.24,1.45s1.75-.16,1.68,1.17a.59.59,0,0,0,.43.64.63.63,0,0,0,.75-.55c.42-1.77,2-1.37,3.19-1.76.23-.08.35.33.27.63-1.05.34-1.33,1.06-1.09,2.37.61-.9,1.74-1.22,1.06-2.39.43-.5,1-.08,1.52-.25.67-.22,1-.46,1.13-1.23.21-1.66.33-1.71,2.27-1.68l.14.63a1,1,0,0,0-.33.91ZM231.84,97.07l-.24-.48.09-.75c0-1.36,1.54-1.67,1.89-2.79-1.81-1-2.61-.66-2.62,1.25,0,.48.2,1,0,1.42-.61.58-.6.62.45,1.37.14.38.29.84.8.6C232.34,97.63,232,97.27,231.84,97.07ZM128.75,29.49l-.32.06.35-.07c-.35.25-.22.58-.14.89s0,.76.53.5a.47.47,0,0,0,.25-.67A4.48,4.48,0,0,0,128.75,29.49ZM349.9,371.84a.92.92,0,0,0-.73,1.3l-.1,1.19a1.26,1.26,0,0,0-.21,1.36l-.2.75a6.57,6.57,0,0,0-1.13,3.87l-.28,1.07a9.51,9.51,0,0,0-1.75,4.85l-.16.75c-.76,1.38-1.4,2.83-2.14,4.23-2.38,4.47-4.52,9.07-7.35,13.29a2.28,2.28,0,0,0-.54,1.94c-.14.33-.28.65-.41,1a1.17,1.17,0,0,0-.55.61c-1.41,2.58-3.12,5-4.62,7.51s-3.42,4.42-4.54,7a4.25,4.25,0,0,1-1,1.35,19.29,19.29,0,0,0-4.28,6c-1.37,2.8-3.9,4.75-5.25,7.55a3.41,3.41,0,0,1-1,1,37.11,37.11,0,0,0-6.2,6.2,2.82,2.82,0,0,1-.95.81,4.06,4.06,0,0,0-2,2.1,3.66,3.66,0,0,1-2.25,2.09,7,7,0,0,0-2.72,1.89c-1.46,1.41-2.91,2.72-5.09,3.13a5,5,0,0,0-3.49,2.16,2.82,2.82,0,0,1-2.51,1.6,1.65,1.65,0,0,0-1.7,1.56c0,.36-.05.75.28.95s.64-.06.86-.33a8,8,0,0,0,1-1.34c.4-.87,1-.79,1.74-.58.71,1,1.52,1.46,2.63.56.26-.21.35.08.5.18,0,.33,0,.66,0,1a1.2,1.2,0,0,0,.74,1.12.43.43,0,0,0,.37-.06c.46-.48-.07-.87-.12-1.3-.08-.65-.6-.59-1-.73-.31-.48.05-.59.38-.6a2.72,2.72,0,0,0,1.84-.62l.41.35a2.37,2.37,0,0,0,1,1.56c.33.2.65.64,1.09.25a1,1,0,0,0,.18-1c-.13-.59-.84-1.11-.38-1.75.73-1,.57-2.89,2.54-2.8.16,0,.35-.23.49-.38,1.07-1.22,2.93-1.49,3.69-3.11.18-.4.67-.47,1.08-.58a1.79,1.79,0,0,0,1.07-.6c1.21-1.64,3.23-2.58,4-4.59a1,1,0,0,1,.42-.46,2.77,2.77,0,0,0,1.61-2.52,1.08,1.08,0,0,1,.77-.93c2.61-1,3.61-3.64,5.21-5.59,2.08-2.51,3.74-5.37,5.95-7.82a50,50,0,0,0,8.3-12.08,111.2,111.2,0,0,1,5.48-9.91c1.26-2.09,2.84-4,3.9-6.22.93-2,2.42-3.63,3.23-5.6A98.7,98.7,0,0,1,350.6,385c1.09-2,2.65-3.85,3.24-6.1,1-3.74,3.1-7,4.32-10.66a36.22,36.22,0,0,0,1.53-5,10.75,10.75,0,0,1,1.61-4.73,6.12,6.12,0,0,0,1.11-2.65A114.75,114.75,0,0,1,366,343.38a13.47,13.47,0,0,0,1-6.15,4,4,0,0,1,1.07-3.68,4.61,4.61,0,0,0,1.29-3,6.3,6.3,0,0,1,.59-2.22,8.51,8.51,0,0,0,.67-4.92,4.46,4.46,0,0,1,.09-2.29c.87-2,.83-4.23,1-6.39a24.47,24.47,0,0,1,1.68-8,4.39,4.39,0,0,0,.32-2,48.09,48.09,0,0,1,.27-6.9,21.41,21.41,0,0,0,.43-4.58,5.17,5.17,0,0,1,.38-2.47,8.75,8.75,0,0,0,.36-5.37,6,6,0,0,0,.07-1c0-.37.1-1-.53-.9a.67.67,0,0,0-.48,1.09c0,.83.07,1.67.11,2.51a2.94,2.94,0,0,0-.79,1.74l0,0a3,3,0,0,0-1.53,3l-.13.76c-.9,2.69-1.71,5.42-2.74,8.07a13.43,13.43,0,0,0-1,5.48l-.06,1.62a1.39,1.39,0,0,0-.36,1.75l-.07,1.2c-.54,1.2-.45,2.59-1.14,3.75a.88.88,0,0,0,.07,1v1.08a1,1,0,0,0-.11,1l-.11,1.19c-.9,1.45-.78,3.2-1.44,4.76-1.23,2.9-2.23,5.89-3.31,8.86a1.57,1.57,0,0,0-.1,1.22l-.19.75c-1.46,1.88-1.11,4.34-2,6.39l-.13,1.19a3,3,0,0,0-.71,2.18l-.12,1.19c-1.33,1.32-1.22,3.08-1.42,4.74l-.24,1.16a1.65,1.65,0,0,0-.7,1.78l-.12,1.18c-.78.87-.67,2-.76,3l-.09.77a19.37,19.37,0,0,0-1.72,3.4v0a2.34,2.34,0,0,0-.69,2.14l-.14.76c-.57,1.41-1.58,2.67-1.54,4.3l-.11.76a4.87,4.87,0,0,0-.89,2.55Zm-229.72-336c1.49-.47,1.67-1,1.1-3.19-1.51.73-1.08,2.05-1.07,3.23a4.6,4.6,0,0,1-.52.19c-.41.1-.85.19-.61.76.11.27.27.68.68.59s.49-.42.48-.79S120.2,36.14,120.18,35.88ZM156.86,400h0c-.41-.06-1,0-1.2-.22-.68-.87-1.16-.5-1.72.09-.17.18-.51.24-.4.64s.9.24,1.22.63.34,1,.8.32a1.71,1.71,0,0,1,1.09-.87l.2-.07c.18,1.1.83,2.3-.7,3a.46.46,0,0,0,0,.84c1.08.6.83,1.66.65,2.43-.52,2.2-.49,4.44-.79,6.66-.46,3.5-1.44,6.95-1.21,10.54a3,3,0,0,1,0,.42,37.18,37.18,0,0,0,.19,7.89,21.25,21.25,0,0,1,.17,3.57c0,1-.06,2-.14,2.91a19.51,19.51,0,0,0,.15,6.73.72.72,0,0,1,0,.41,8.13,8.13,0,0,0,.14,4.56,6.33,6.33,0,0,1,.11,2.08,6.17,6.17,0,0,0,1.27,4.73,4.29,4.29,0,0,1,.87,4,5,5,0,0,0,.3,3.69,13.83,13.83,0,0,1,1.7,4.94,2.81,2.81,0,0,0,2,2.51,5.5,5.5,0,0,1,3.25,2.77c.55.93,1.11.84,1.91.64a2.09,2.09,0,0,0,1.6-1.19,7.65,7.65,0,0,1,2.08-2.62,10.75,10.75,0,0,0,1.42-1.79c1.35-1.89,2.17-4.07,3.47-6s2.81-3.63,3.55-5.88a8.49,8.49,0,0,1,1.65-3.15,53,53,0,0,0,3.85-5.24q5.28-7.32,10.31-14.84c1-1.52,1.66-3.23,2.64-4.78q3-4.68,5.65-9.55c.94-1.71,1.51-3.61,2.91-5.07a2.39,2.39,0,0,0,.62-1.75,3.29,3.29,0,0,1,1.07-2.84,2.17,2.17,0,0,0,.62-1.32,3.25,3.25,0,0,1,1.57-2.36,2.18,2.18,0,0,0,1-2.72,4.07,4.07,0,0,1,0-3,32.27,32.27,0,0,1,4.24-9.3c2.6-4.34,4.5-9,6.89-13.43,1.93-3.57,3.77-7.2,6-10.58a80.65,80.65,0,0,0,6.54-11.22c.58-1.3,1.7-2.31,2.07-3.64a19.45,19.45,0,0,1,2.47-4.85,21.24,21.24,0,0,0,2.12-4.1,48.8,48.8,0,0,1,2.9-6.06c1.84-3.53,3.5-7.14,5.21-10.74,1.49-3.13,3.19-6.16,4.6-9.34a46.58,46.58,0,0,0,2.06-4.33,27.53,27.53,0,0,1,1.61-3.65,11,11,0,0,0,.91-2.33,27.83,27.83,0,0,1,3.25-7.73,10.06,10.06,0,0,0,1.1-2.49A34,34,0,0,1,267.4,288a11.56,11.56,0,0,0,1.54-3,18.21,18.21,0,0,1,2.07-4.11,65.21,65.21,0,0,0,4.5-8.76c.68-1.6,1.28-3.27,2.1-4.79,1.41-2.64,3.22-5.08,4.63-7.72,1.78-3.32,4.29-6.21,5.69-9.76.71-1.82,1.9-3.48,2.39-5.33a11.72,11.72,0,0,1,2-4.33,3.68,3.68,0,0,0,.63-1.08c.82-2.75,2.44-5.12,3.68-7.67,2.42-5,4.36-10.15,6.85-15.08,1.12-2.21,1.55-4.64,2.63-6.84,2.23-4.55,3.28-9.47,4.5-14.33a20.2,20.2,0,0,1,1.78-4.44c1.63-3.15,3.66-6.08,5-9.4A113.81,113.81,0,0,0,322.14,168a7,7,0,0,1,.4-1.2,78.37,78.37,0,0,0,3.69-10.68c1.78-6.1,4.34-11.93,6-18.07a45.18,45.18,0,0,1,2.87-7.89,16.26,16.26,0,0,0,1.19-4,38.56,38.56,0,0,1,2.79-9.21c.5-1.09.82-2.24,1.23-3.35,1.38-3.72,1.89-7.77,4.11-11.19a4.43,4.43,0,0,0,.36-1.41,42.81,42.81,0,0,1,2.8-8.53c.49-1.07,1.29-2,1.42-3.24a5.46,5.46,0,0,1,3.32-4.67c-1.42-1.31-1.42-1.31-.33-3.11.66-.62,1.34.29,2.25.09-.83-.73-1.67,0-2.28-.49a8.07,8.07,0,0,1-.09-4.36A1.38,1.38,0,0,0,350.21,75a4.19,4.19,0,0,0-1,.39,39.53,39.53,0,0,0-11,8,74.49,74.49,0,0,1-7.89,7.18,14.15,14.15,0,0,0-3.33,3.4,15,15,0,0,1-1.73,1.83c-1.38,1.39-3,2.46-4.31,4-1.75,2.09-3.34,4.32-5.1,6.38-2.41,2.81-4.48,5.92-7.26,8.42a15.93,15.93,0,0,0-2.94,3.26,41.08,41.08,0,0,1-7.2,8.12c-2.06,1.91-3.87,4-5.81,6a67.2,67.2,0,0,0-5.87,6.81c-.95,1.28-2.35,2.24-3.3,3.53a43.1,43.1,0,0,1-4.26,5.58c-1.88,1.82-2.85,4.48-5.17,5.95a1.37,1.37,0,0,0-.45.41c-2.16,3.74-5.52,6.54-8,10.07a40.6,40.6,0,0,0-3.28,4.75,30.58,30.58,0,0,1-4.41,6.57c-2.22,2.55-4,5.41-6,8.06a2.13,2.13,0,0,0-.62,1.47,3.43,3.43,0,0,1-1.25,2.48,3.6,3.6,0,0,0-.84.91c-1.11,2.29-3.23,3.75-4.62,5.84-1,1.52-2.18,2.93-3.14,4.52a34.55,34.55,0,0,1-2.3,4,39.37,39.37,0,0,0-5.16,7.46c-.66,1.38-1.83,2.45-2.45,3.8a46.19,46.19,0,0,0-3.32,8.39c-.76,3.18-2.41,5.91-3.68,8.79-1.59,3.6-3.91,6.87-5.9,10.29-1.61,2.78-3.32,5.5-4.75,8.36-1,2-2.17,3.94-3.05,6a23.93,23.93,0,0,1-2.58,5.22,37.05,37.05,0,0,0-3.38,6.53c-1.49,3.12-2.69,6.38-4.21,9.46-1.32,2.67-3,5.19-4.11,7.95-1,2.43-2.06,4.85-3.07,7.28-1.09,2.61-2.23,5.2-3.22,7.84-1.35,3.59-3.45,6.91-3.93,10.81a1.19,1.19,0,0,1-.2.59c-2.31,3-3.36,6.62-5.09,9.9-.25.48-.38,1.19-.6,1.71-1.49,3.48-1.36,7.48-3.48,10.75-.11.16-.27.37-.24.53a5.26,5.26,0,0,1-.83,3.35,13.83,13.83,0,0,0-1.45,4.21,9.06,9.06,0,0,1-.76,2.4,37.09,37.09,0,0,0-2.25,7.05,3.92,3.92,0,0,1-.42,1.41c-1.85,2.86-1.86,6.41-3.45,9.37-.47,4.51-2.14,8.7-3.49,13-.7,2.17-1.11,4.42-2,6.55-1.46,3.51-1.55,7.46-3.39,10.87-.11.22.05.56,0,.82-.55,2-.55,4.14-1.4,6.08C157.08,399.66,156.88,399.71,156.86,400ZM363,268.11c-.27-.07,0,.24-.18,0,0,0-.06-.1-.05-.11s.2-.06.26.09a1.7,1.7,0,0,0,1.58.09c.44-.1.57.28.55.67s-.07.72-.57.32a.32.32,0,0,0-.51,0c-.06.08,0,.29.07.39s.27.66.55.16c.39-.72,1,.18,1.44-.27,0-.65-.88-1.21-.18-1.92.16-.17.85-.06.32-.57-.18-.16-.66-.3-.72-.23-.33.42-1,.39-1.2,1S363.51,268.33,363,268.11ZM233.64,83.18c-.42,1.18-1.1,2-2.93,1.3,1.27,1.59.34,3.16,1.15,4.68.44-.87,1.45-1.22.9-2.28-.08-.15,0-.55.06-.58,1.77-.57,1.1-2,1.09-3.13,0-.55.07-1.11.09-1.66a.71.71,0,0,0-.32-.73A4.9,4.9,0,0,0,231,80.6c-.56.06-1,.81-.9,1.78a13.42,13.42,0,0,1,1.27-.91c1.18-.64,1.71-.43,2.2.88A2.84,2.84,0,0,1,233.64,83.18ZM326.72,440.9c-2,.42-2.29,1-1.33,2.55l.05,1.68c-1.05,1.29-2.44,2.27-3.31,3.74a1.79,1.79,0,0,1-1.73,1,1.19,1.19,0,0,0-1.37.72c-.4,1-1.13,1.14-2.12.75a6,6,0,0,1-1.4,3.79,2.16,2.16,0,0,1-1.86.78c-.79-.08-.86-.78-1.06-1.5-.77,1.24-.65,2.73-1.84,3.3-2.22,1.07-3.89,3-6.19,3.92-.88.34-1.69,1.06-2.77.71-.41-.14-.6.19-.83.47a7.85,7.85,0,0,1-4.28,2.87,1.74,1.74,0,0,0-.88.55A8.92,8.92,0,0,1,291,469a4.86,4.86,0,0,0-1.49.75,50.74,50.74,0,0,1-8.35,4.85,15.79,15.79,0,0,0-2.22,1.19c-1.24.73-1.3,1.85-.1,2.61a4.15,4.15,0,0,0,1.2.31.43.43,0,0,0,.26.25c.83,1.05,1.11,1.06,1.89,0a.42.42,0,0,0,.27-.2,1.12,1.12,0,0,0,1.3-.33l.79-.17,3,.13.61.31a4.56,4.56,0,0,0,4.19-.05h.47a.84.84,0,0,0,1.42.11c.67,0,1.37-.19,2,.25.41.88,1.18.64,1.81.49a4.56,4.56,0,0,1,2.79.34,5.28,5.28,0,0,0,4.37-.26l.88.07a3.87,3.87,0,0,0,3.21.1,15,15,0,0,1,5.57-.42,3.26,3.26,0,0,0,2.57-.5l.89-.12c.76.68,1.51.27,2.3,0,1.38-.43,2.65-1.21,4.2-1.16,3.64.1,6.78-1.8,10.18-2.71.12,0,.17-.34.25-.53a.43.43,0,0,0,.27-.2.81.81,0,0,0,1-.61,3.11,3.11,0,0,1,2.47,0c1.06.57,2.06.15,3.08,0s1.32-1.31,2.29-1.64c.57-.2.06-.87.07-1.33,0-.91.72-1.13,1.3-.78.82.49,1,.37,1.18-.52a1.35,1.35,0,0,1,1.62-1c.74.07.66.78.79,1.3.06.28.17.54.7.52.29-.59,1.26-1,.53-2a.63.63,0,0,1,0-.57c1.14-.84,1.82-2.48,3.56-2.24a1.59,1.59,0,0,0,1.61-.71c1.71-2.07,3.78-3.46,6.59-3.41a1.08,1.08,0,0,0,.88-.51,5.8,5.8,0,0,1,3.1-2,2.14,2.14,0,0,0,1-.73c1.18-1.66,2.35-3.31,4.33-4.14a1.92,1.92,0,0,0,.75-.72,9.83,9.83,0,0,1,4.45-3.91c.41-.17.7-.67,1-1.06.66-.85,1.27-1.72,2.58-1.21.33.13.67-.16,1-.36,1.09-.77,2.31-1.34,3.39-2.09s2.41-1.6,1.51-3.42a1,1,0,0,1,1-1.4c1,.08,1.13-.32,1.34-1.1a10.69,10.69,0,0,1,1.4-3.26c.37-.54.55-1.13,1.38-.49.49.37.78-.19.81-.59a5.72,5.72,0,0,1,2.43-4.63.62.62,0,0,0,.22-.35c.59-2.32,2.33-4,3.42-6a27.51,27.51,0,0,1,2.82-4.92,48,48,0,0,0,5.72-8.78c1.45-2.8,3.23-5.42,4.36-8.39a13.39,13.39,0,0,1,1.16-2.91A62.69,62.69,0,0,0,417.77,387c1-2.46,1.82-5,2.94-7.41A45.89,45.89,0,0,0,425,366a15.4,15.4,0,0,1,.64-2.44,26.76,26.76,0,0,0,.7-2.84c.52-2.89.66-5.85,1.51-8.68a47,47,0,0,0,1.23-7.44c.25-1.86,0-3.86.56-5.59a15.32,15.32,0,0,0,.43-7.65,7.58,7.58,0,0,1,.15-3.75,4.83,4.83,0,0,0,.24-1.64c-.07-2.18-.27-4.34-.29-6.51s-.63-4.35-.83-6.54a61.7,61.7,0,0,1-.31-8.15c.08-1.77.58-3.64-.65-5.3a1.34,1.34,0,0,1-.09-1.21c1.05-1.45.51-2.66-.35-3.91a2.84,2.84,0,0,1-.28-1.22c-.32-2.38-1.49-4.64-1-7.15a5.43,5.43,0,0,0-.28-1.64,9.77,9.77,0,0,1-.27-2.5c.45-3.75-.65-7.35-1-11-.19-2-.71-4-1.09-6-.57-2.9-.6-5.87-1.35-8.72a14.91,14.91,0,0,1-.48-2.89,27.35,27.35,0,0,0-1.9-8.78,5.71,5.71,0,0,1-.39-1.84,9.44,9.44,0,0,0-.38-2.49c-1.24-3.48-2.08-7.08-3-10.64-.54-2-1.3-4-1.92-5.94a22.92,22.92,0,0,0-2-5.49,4.7,4.7,0,0,1-.73-2.76c0-1.89,0-3.79-1.54-5.29a3.38,3.38,0,0,1-.68-1.93,36.76,36.76,0,0,0-1.3-6.34,6.84,6.84,0,0,1-.49-3.08,5.16,5.16,0,0,0-.12-1.66c-.68-2.91-2.19-5.63-2-8.74a3.63,3.63,0,0,0-.24-.8c-.57-2.35-1.67-4.51-2.22-6.92a28.25,28.25,0,0,0-3.39-9.2,2.9,2.9,0,0,1-.37-2.6,2.68,2.68,0,0,0-.73-2.9,3.89,3.89,0,0,1-1.21-2.39c-.27-3-1.83-5.89-1.37-9a4.31,4.31,0,0,0-.16-1c-.52-3.17-1.93-6.1-2.38-9.33-.48-3.51-1.73-6.9-1.74-10.51a5.45,5.45,0,0,0-.38-2.05c-1-2.28-1.23-4.76-2.08-7-1.23-3.27-1.34-6.72-1.93-10.07-.66-3.79-1.26-7.61-2.2-11.3a78.43,78.43,0,0,1-2.12-10.89c-.25-2.35-1.67-4.5-1.25-7a.57.57,0,0,0-.15-.38c-1.61-2-2.09-4.56-3-6.9A4.61,4.61,0,0,0,377.58,76,18.61,18.61,0,0,1,373,69.54c-.18-.41-.27-1-1-1a1.38,1.38,0,0,0-.15.56c.34,2.06.42,4.19,1.64,6a2.53,2.53,0,0,1,.5,1.78,5.6,5.6,0,0,0,.32,2.86,2.32,2.32,0,0,1-.05,1.64,4.06,4.06,0,0,0,.18,3.6c1.14,2.2.62,4.62,1.42,6.89.72,2,.17,4.44,1.29,6.57.92,1.76.2,3.77.31,5.66a44.6,44.6,0,0,0,.29,4.78c.17,1,.18,2.09.32,3.1.44,3.06-1.15,6.11,0,9.15a.89.89,0,0,1,0,.62c-.81,2,.1,4,.24,6a19,19,0,0,1-.39,7.24c-.48,1.53-1,3-1.5,4.58-.53.38-1,.5-1.27-.29-.08-.25,0-.56-.09-.8a.59.59,0,0,0-.51-.23.36.36,0,0,0-.26.47c.42.9.68,2,2.08,1.76.48,1.31.77,2.68,1.14,4a10.29,10.29,0,0,1,.66,3.9,10.45,10.45,0,0,0,.88,5.54,42.65,42.65,0,0,1,3.49,15.87c0,1.27.64,2.46.47,3.74a19.38,19.38,0,0,0,.41,6.44,20.57,20.57,0,0,1,.54,5.43,2.78,2.78,0,0,1-1.77,2.8c.49.21,1.06.33,1.06.47,0,1.5.94,2.75,1,4.3.08,2.15,0,4.31.16,6.45a55.72,55.72,0,0,1,.42,9.66.87.87,0,0,0,0,1.27l0,2.1a.56.56,0,0,0,0,.86v2.09a1.13,1.13,0,0,0-.13,1.3c0,.5,0,1,0,1.51a2.11,2.11,0,0,0-.26,2.26l.17,2.91-.07.49-.08.81a3.68,3.68,0,0,0-.19,2.2,7.22,7.22,0,0,0,.07,3.27l-.07.48,0,.71a1.86,1.86,0,0,0-.08,1.39c0,1.39-.1,2.78-.14,4.16a1.14,1.14,0,0,0-.3,1.31,2.82,2.82,0,0,0,.22,1.57,3.79,3.79,0,0,0-.21,1.83l-.12.78a19.58,19.58,0,0,0-.19,5.92l.21,3.35a7.56,7.56,0,0,0-.29,3l-.12.76c-.28.12-.33.26,0,.43l.24,1.18a.79.79,0,0,0,.17.92c0,1,0,2,0,2.94a1.92,1.92,0,0,0,.05,2.11l.11,1.24a3.34,3.34,0,0,0-.42,2.21l-.12,1.61c-.37,1-.9,1.88-.42,3l.09,1.63c-.1,1.14-.57,2.27-.11,3.43,0,.84,0,1.68,0,2.52a1.44,1.44,0,0,0-.41.92,62.85,62.85,0,0,0-.73,9.69c0,.39-.07.79-.1,1.19a8.11,8.11,0,0,0-.82,3.42c0,.81,0,1.62,0,2.44l-.84,1.68c-.74,1.5-1.81,2.93-1.11,4.78a.92.92,0,0,1-.06.61c-.9,2,0,4.09-.51,6.08l0,.8c-.58.36-.93.77-.64,1.55a4.54,4.54,0,0,1,.06,2.89,32.88,32.88,0,0,0-.8,5.4,6,6,0,0,1-.38,2.06,4.48,4.48,0,0,0-.27,2.66,6,6,0,0,1-1.1,5,2.41,2.41,0,0,0-.6,1.94,12.66,12.66,0,0,1-.67,5,3.06,3.06,0,0,0-.21,1.84l0,2.85c-.23.8-.48,1.6-.69,2.41-.69,2.62-1.51,5.22-2,7.89-.38,2.06-.86,4.08-1.38,6.11-.74,2.85-1.76,5.59-2.56,8.41-.45,1.61-.51,3.58-1.67,4.7-1.45,1.39-.58,3.25-1.56,4.61-.08.11-.12.25-.19.37-.59,1.2-.9,2.51-1.41,3.73a31,31,0,0,0-2.58,7.46,3,3,0,0,1-.26.58c-.47,1.09-.88,2.21-1.41,3.27-1.64,3.25-3.21,6.54-5,9.67a19.41,19.41,0,0,0-1.93,4.34,27.64,27.64,0,0,1-2.7,5.64,38.12,38.12,0,0,0-2.34,4.16c-.48,1.22-1,2.88-3,2.65-.72-.09-1,.55-.79,1.14a1.85,1.85,0,0,1-.64,2.39,1.44,1.44,0,0,0-.32,1.91c0,.4-.08.8-.11,1.2-.51.22-.52,1.17-1.46.84-.75-.26-.44-1.31-1.21-1.48a1.7,1.7,0,0,0-.66,1.52,1.12,1.12,0,0,0-.38.09c-.47.28-.66.65-.27,1.14.08.09.26.19.34.15.52-.21.2-.66.25-1,0-.13,0-.27,0-.4,1.31-.1,1.3.77,1.2,1.66-.24,2.2-1.45,4-2.27,6-.38.91-1.4,1.13-2.23,1.45s-1.08-.16-.87-.85.52-1.45,0-2.18c-.41.29-.18,1-.45,1.11a3.88,3.88,0,0,0-1.86,2.46.51.51,0,0,1-.71.24c-1.05-.57-1.09.11-1.25.89-.12.59-.54,1-1.23.53-.43-.3-1-.51-1.33-.09a1.23,1.23,0,0,0,0,1.84l.46,1.26-.42,1.69ZM149.78,49c-.34.47-.86.4-1.34.43s-.82.24-.77.77a1,1,0,0,0,.77.88c.85.27,1.32,0,1.6-1.13a.82.82,0,0,1,.53-.58c1.27,1.41,2.8.8,4.36.73-1.06-3.09-3.39-3.4-6-3.15,0,.07-.08.15-.06.2C149.17,47.74,149.48,48.35,149.78,49ZM137.85,18.33c-.67-.49-1.36-1-2-1.48-.3-.24-.66-.43-.93-.19-.8.73-1.56.26-2.34,0-.55-.18-1.14-.32-1.45.35a3,3,0,0,0-.37,2.14c.21.66,1,.3,1.5.43.34.08.45-.13.6-.39.46-.86,1-.5,1.48,0,1.94,1.75,1.94,1.74,4.46,1.15-.24-.64-2.48-.33-.92-1.77.89.06,1.48-.52,2.27-.92-1.77-.87-1.77-.87-2.1.59C138,18.29,137.92,18.31,137.85,18.33Zm-.74,356.89-.37-.36a7.15,7.15,0,0,1,.23-.79c.2-.52.24-1-.37-1.2s-.66.26-.84.67c-.43,1-.84.13-1.25-.05l0-1.68a1,1,0,0,0,.17-.93c.47-.95,1.81-1.59,1-3,0-.09,0-.28.1-.4a6.59,6.59,0,0,0,.55-2.87c.24-3.22,1.82-6.16,1.92-9.43a5.83,5.83,0,0,1,.92-2.33,6.27,6.27,0,0,0,.81-3.22,6.25,6.25,0,0,1,.51-2c.7-2.47,2.08-4.74,2.19-7.4a4.9,4.9,0,0,1,1.1-2.7,2.58,2.58,0,0,0,.64-1.06c.37-3.1,1.62-5.92,2.54-8.85,1.26-4,3-7.8,4.22-11.8a4,4,0,0,1,.36-.76,24.79,24.79,0,0,0,2.68-5.29,31.42,31.42,0,0,1,4-8.5,4.14,4.14,0,0,0,.51-.92c1.67-5.14,4.54-9.75,6.51-14.77.76-1.94,1.7-3.83,2.64-5.7a96.52,96.52,0,0,1,4.51-8.54,58.16,58.16,0,0,0,5.59-11c2.36-6.4,6.35-11.93,9.13-18.08,1.85-1.75,2.8-4.13,4.25-6.17.83-1.16,2-2.2,2.4-3.61a36.13,36.13,0,0,1,3.76-7.35c1-1.67,1.52-3.58,2.84-5a20.59,20.59,0,0,0,2.41-3.65c1-1.66,2.14-3.22,3.12-4.89,1.19-2,2.77-3.83,3.92-5.88a38.88,38.88,0,0,1,7.19-9.88A12.84,12.84,0,0,0,220,192c1.53-3.18,4.44-5.26,6.22-8.21.13-.21.46-.29.68-.46a25.38,25.38,0,0,0,4.71-4.55,19.34,19.34,0,0,1,2.16-2.54c2.92-2.67,5.73-5.47,8.7-8.07,1.07-.94,1.43-2.22,2.27-3.23,1.83-2.19,3.75-4.32,5.36-6.69,2.5-3.71,6.1-6.51,8.47-10.32,1.43-2.31,3.84-3.63,5.73-5.46a20.74,20.74,0,0,0,3.44-3.63,9.7,9.7,0,0,1,3.11-3.07,26.27,26.27,0,0,0,4.47-3.41c3.4-3.44,7-6.67,10.58-9.87a35.91,35.91,0,0,0,3.9-4.09,20.81,20.81,0,0,1,3.25-3.25,35.34,35.34,0,0,0,2.69-2.35c2.89-2.85,5.72-5.77,8.64-8.6,3.41-3.31,7-6.4,10.35-9.83,1.4-1.43,2.51-3.16,4.23-4.31a1.67,1.67,0,0,0,.4-2.2,1.45,1.45,0,0,0-1.24.43c-2.41,1.93-5,3.57-7.34,5.63a39.12,39.12,0,0,1-5.45,4.58,15.11,15.11,0,0,0-2.49,2.24,68.85,68.85,0,0,1-7.28,6.58,86.48,86.48,0,0,0-6.89,5.79,73.79,73.79,0,0,1-6,4.9c-1.4,1-2.86,2-4.19,3.1-3.1,2.51-6.24,4.94-9.52,7.19-2.19,1.51-4.38,3-6.46,4.65a59.4,59.4,0,0,1-8.48,6.07c-2.18,1.19-4.6,2-6.44,3.84a8,8,0,0,1-3.16,1.87c-.45.15-.58.46-.85.73-1.5,1.45-3,2.87-4.66,4.19s-3.32,2-4.93,3.12c-5,3.36-9.53,7.31-14.5,10.69-.82.55-1.75.87-2.53,1.46-4.16,3.18-8.21,6.49-12.24,9.84-1.23,1-2.22,2.29-3.52,3.27-1.8,1.35-3.87,2.29-5.62,3.61-2.23,1.69-4.3,3.55-7,4.52-.18.06-.3.29-.46.43-2.62,2.39-5.1,5-8.47,6.39a2.39,2.39,0,0,0-1,.74c-1.29,1.75-3.2,2.7-4.88,3.95-.51.38-1,.78-1.44,1.2a50.57,50.57,0,0,1-7.79,6,12.07,12.07,0,0,0-2.86,2.12,57.85,57.85,0,0,1-5.2,4.59c-2.61,2.23-4.93,4.79-7.63,6.93a26.5,26.5,0,0,0-3.74,3.67c-1.45,1.69-3.13,3.17-4.51,5-1.58,2-2.92,4.26-4.65,6.21a17.68,17.68,0,0,0-3.73,5.78c-1.26,3.94-3.7,7.2-5.52,10.8-2.68,5.28-5.76,10.36-8.66,15.54a35.7,35.7,0,0,0-3.66,8c-1.11,4.1-2.3,8.18-3.49,12.26-.32,1.07-.89,2.08-1.15,3.16a29.12,29.12,0,0,1-2.43,6.65A3.28,3.28,0,0,0,107,297a12.81,12.81,0,0,1-.71,3.5,26.86,26.86,0,0,0-1.24,7.21,11.13,11.13,0,0,1-.35,2c-.64,2.63-1.8,5.17-1.42,8a4.26,4.26,0,0,1-.47,2.24c-.14.32-.41.66-.21,1,.61,1-.11,1.68-.3,2.53s.58,1.65.08,2.52a1.32,1.32,0,0,1-.28.3c-1.06-.32-1.41.27-1.63,1.24l1.61-.56c.4.56.24,1.25.41,1.86a3.39,3.39,0,0,0-.06,1.76l0,1.18a1.38,1.38,0,0,0,.21,1.49l.17.95a.38.38,0,0,0-.13.56l-.11.81a2.22,2.22,0,0,0-.24,1.81l.06,3.65a1.15,1.15,0,0,0,.21,1.26l-.19,1.62c-.21.15-.3.32-.09.54v.72a.74.74,0,0,0,.18.92l0,1.67a2.55,2.55,0,0,0-.16,2.31c.21.63.34,1.29.51,1.94a.48.48,0,0,0-.08.31c-.85,1.06-.54,2.06.14,3a9.65,9.65,0,0,0,.17,2.46c-.26.37-.08.65.18.92l0,.84c-.24.28-.41.58-.11.94l0,1.09a.65.65,0,0,0,.15.93l.21.76a8.44,8.44,0,0,0,.75,3.43l.14.78c-.19,1.09.55,1.8,1,2.6a14.05,14.05,0,0,0,.83,4.21c-.1.43.18.64.48.84,0,.45,0,.92.36,1.27.07.56.08,1.14.72,1.4.6.85,1.37,1.63,1.19,2.8a1.89,1.89,0,0,0,.61,2.13l.22.76a.69.69,0,0,0,.52,1,.43.43,0,0,0,.17.28,20.66,20.66,0,0,0,.64,2.37c.29,1,.12,2.24,1.33,2.8l.56.72c0,.7.57,1,.88,1.52l.55,1.39a.69.69,0,0,0,.47,1.07.36.36,0,0,0,.19.24c.23.83.29,1.73,1.11,2.25l.64,1.52a2.19,2.19,0,0,0,1,1.88l.74,2.74a4.9,4.9,0,0,0,1.92,3c.8.66.84,1.66,1.16,2.54-.33,2.05,1,3.05,2.48,4l1.46,1.51c.18.72.17,1.56,1.09,1.85,1.53,1.61,3.25,3.08,4,5.31.1,1.08,1,1.94.78,3.13a.59.59,0,0,0,.61.69.7.7,0,0,0,.6-.73,7.2,7.2,0,0,0,0-2.27l.08-.8a2.81,2.81,0,0,0,.39-.94,26.4,26.4,0,0,0-.22-7.1,15,15,0,0,1-.17-4.59,13.87,13.87,0,0,0-.47-5.51c.15-.7.29-1.39.44-2.09.73-.75.36-1.61.13-2.37a11.84,11.84,0,0,1-.4-2.89c-.23-3.31.6-6.57.38-9.87a9.67,9.67,0,0,1,.09-3.35,14.71,14.71,0,0,0,.49-4.76l.18-.78a.76.76,0,0,0,.15-.93l.23-1.18c.25-.22.82-.52.8-.21a7.39,7.39,0,0,0,.86,3.87c.16.36-.15.8-.38,1.17s-.74.45-.73.95c.23.53,1.28-.24,1.18.74-.07.68,0,1.15.84.92.52-.13,1.48.27,1.53-.28.18-2,1.13-.67,1.83-.58.29,0,.73.06.86-.39-.21-.43-2.3-.27-.43-1.35-.06-1.44,1.7-1,2.16-2.13-.88-.44-1.59-.61-1.95.56-.16.5-.35,1.06-1,.7a5.85,5.85,0,0,0-2.51-.91,1.25,1.25,0,0,1-1-1.43c.07-.8.66-.51,1.11-.53s.7-.17.62-.62S137.47,375.21,137.11,375.22Zm8.79,30.43c-.07.77-.08,1.56-1,1.91s-1.06-.29-1.55-.69-.94.15-.9.63a2.77,2.77,0,0,0,.8,2,3.51,3.51,0,0,1,2.34-.61c.91.16,1.07-.37,1.34-1.13.57-1.61-.37-3.29.39-4.84,1.25-5.14,1-10.56,3.06-15.58.37-.94.75-1.33,1.7-1.39a2.68,2.68,0,0,1,.39-4.34c.59-.39.6-.43-.28-.8-.32-.13-.48-.3-.46-.58,0-.84.18-1.65,1.09-2,.46.62.08,1.3.36,1.93.14-.26.25-.5.39-.73.53-.87,1.34-1.68-.23-2.48-.44-.22-.6-1.05.51-1.25s1.05-.76.18-1.24a1.25,1.25,0,0,1-.71-1.33,8.37,8.37,0,0,1,.62-3.29,13.18,13.18,0,0,0,.6-2.14c.65-2.31.68-4.72,1.41-7,1.44-4.5,2.33-9.16,4.52-13.43a25.32,25.32,0,0,0,2-6.95c.74-3.82,2.87-7.25,3.71-11.08a2.06,2.06,0,0,1,.43-.72,18.25,18.25,0,0,0,2.74-6,20.19,20.19,0,0,1,2.1-4.69,11.51,11.51,0,0,0,1-2.22c1.36-3.53,2.77-7,4.42-10.46a71.65,71.65,0,0,0,3.31-6.69,62.16,62.16,0,0,1,4.47-9.83,109.92,109.92,0,0,0,5.18-11.12c1.73-4,3.47-8,5.29-11.91a26.73,26.73,0,0,0,1.65-3.3,47.85,47.85,0,0,1,2.29-6c.76-1.64,1.84-3.09,2.54-4.71.95-2.21,2.24-4.27,2.82-6.65a10,10,0,0,1,1.22-2.64c1.6-2.74,3.39-5.39,4.16-8.54a1.68,1.68,0,0,1,.52-.88,17.69,17.69,0,0,0,3.87-5.59c1.58-3.1,3.42-6.1,4.57-10-1.71,1-3.46,1-3.85,3a1.52,1.52,0,0,1-.74.93c-.77.64-1,1.65-1.52,2.41-.4.55.54.69.1,1.27-1.59,2.08-2.84,4.41-4.7,6.32a7.11,7.11,0,0,0-2.38,5.1,3.14,3.14,0,0,1-.75,1.89c-.76,1.11-2,1.79-2.61,3-1.19,2.39-2.88,4.49-4,6.91a31.41,31.41,0,0,1-2.28,4.57A16.14,16.14,0,0,0,193,260.1a2.3,2.3,0,0,1-.73,1.25c-2.57,2.37-3.17,5.86-4.95,8.7a40.17,40.17,0,0,0-4.11,8.95,33.17,33.17,0,0,1-1.92,4.42c-1.55,3.14-3.17,6.24-4.72,9.37-1.3,2.62-2.54,5.31-3.87,7.9-2.13,4.16-4.48,8.21-6.31,12.53a8,8,0,0,1-1.46,2.54,3.71,3.71,0,0,0-1,2.63,5.25,5.25,0,0,1-3,4.76c-.54.26.06.25.09.28a1.38,1.38,0,0,1,.17,1.74,3,3,0,0,0-.49,1.13,16.91,16.91,0,0,1-1.63,5.18c-1.31,3.3-2.61,6.61-3.82,10-1,2.66-2.48,5.17-2.45,8.15a4,4,0,0,1-.34,1c-1.26,4.09-3.3,8-3.51,12.35,0,.26-.15.69-.31.74-1.22.37-.75,1.12-.5,1.86.07.18,0,.41,0,.62-.08,1.66-.2,3.31-.43,5a68.82,68.82,0,0,0-.88,7.69c-.06,1.84-.61,3.56-.73,5.36-.17,2.52-.61,5-.93,7.48a24.51,24.51,0,0,0-.64,4.75c.14,1.86-.45,3.68,0,5.55.32,1.22-.55,2.37-.87,3.56-.16.15-.26.38-.08.5.37.24.6,0,.79-.33A2.32,2.32,0,0,1,145.9,405.65Zm-65-66.72a9.22,9.22,0,0,0,.32-3.87l.13-.77c.32-.41.81-.82,0-1.26-.38-1.45.16-2.82.37-4.22a33.07,33.07,0,0,0,.29-7.24l.11-1.19a30.38,30.38,0,0,0,.31-8.08l.16-1.18a1.23,1.23,0,0,0,.28-1.35,15.93,15.93,0,0,1,.47-3.5,1.61,1.61,0,0,0,.34-1.56l.57-2a.74.74,0,0,0,.28-.92l.15-1.18a.8.8,0,0,0,.22-.93l.21-.76a1.79,1.79,0,0,0,.18-1.77c.78-1.16.64-2.56,1-3.83A39.12,39.12,0,0,0,88,287.44a29.83,29.83,0,0,1,2.86-9.8c1.37-2.58,1.71-5.67,3.92-7.83.38-.37.18-.94.3-1.41a2.06,2.06,0,0,1,1.25-1.58c.86-.32,1,.63,1.45.93l.34.18c.33-.93-.1-1.43-.91-1.81s-.68-1-.23-1.56,1-.95,1.77-.35.88,0,1.15-.53c-.71-.31-1.6.16-1.89-.81s.23-1.46.72-2.07a.5.5,0,0,1,.14-.15,1.6,1.6,0,0,0,.87-1.68,1.18,1.18,0,0,1,.2-.81c1.17-1.42,1.22-3.39,2.5-4.81a9.75,9.75,0,0,0,1.67-3.33c.66-2,2.36-3.36,2.86-5.41.1-.41.65-.71,1-1.06s.51-.36.58-.59c.63-2.11,2.26-3.67,3.07-5.69s2.54-3.11,4.14-4.35a.66.66,0,0,1,.76,0c1,.47,1.19,0,.81-.82s.24-.93.77-1.11c0,.45-.14,1.08.42,1.21s.92-.34,1-.9l-1.47-.64a1.3,1.3,0,0,1,.48-.9,20.41,20.41,0,0,0,4.4-5c1.49-2.61,4.26-4,5.81-6.46,1.86-.75,2.8-2.49,4.13-3.81,3.13-3.08,6.19-6.24,9.44-9.18a99.52,99.52,0,0,1,9.1-7.45c4.75-3.35,9.69-6.4,14.56-9.58,2.26-1.48,4.61-2.83,7-4.15,1.74-1,3.13-2.34,4.75-3.42,4.11-2.78,8.12-5.71,12.27-8.44,1.93-1.27,3.56-3,5.7-3.9a15.27,15.27,0,0,0,4.21-2.69,20.23,20.23,0,0,1,2.56-2.18c4.27-2.61,7.82-6.13,11.78-9.12,1.23-.93,2.4-2,3.7-2.77,2.38-1.47,4.67-3.08,7.17-4.36,2.93-1.49,5.11-4.15,8.25-5.32.18-.07.31-.28.47-.42,1.52-1.48,3.54-2.19,5.21-3.47,1.42-1.09,3.06-1.9,4.54-2.94s2.38-2.17,3.72-3.05c3.39-2.23,6.57-4.74,10-7,5.86-3.83,11.74-7.63,17.27-11.93,2.08-1.63,4.14-3.31,6.23-4.92,3.88-3,7.46-6.33,11.41-9.21a1.84,1.84,0,0,0,.63-1.06c.45-2.33,2-3.7,3.94-4.81a11.78,11.78,0,0,0,1.89-1.66A74.71,74.71,0,0,1,305,85.75a51.93,51.93,0,0,0,6.44-5.93c3.29-3.37,7.34-5.55,11.2-8.06a6.69,6.69,0,0,0,2.24-1.82A4.13,4.13,0,0,1,328,68a6.13,6.13,0,0,0,2.82-1.27c2-1.47,3.9-3.22,6.57-3.57a3.63,3.63,0,0,0,1.47-.78A9.41,9.41,0,0,0,341,60c.6-.8,1.67-1.17,2.36-2.61-2.12.91-4,1.26-5.48,2.38C336,61.19,334.67,63.31,332,63c-2.63,1.49-5.44,2.69-7.67,4.81a3.49,3.49,0,0,1-1.22.8,4.71,4.71,0,0,0-2.49,1.85,2.55,2.55,0,0,1-1.17.87,15.76,15.76,0,0,0-3,1.84c-1.16.81-2.1,1.85-3.23,2.67-3.53,2.6-7.65,4.37-10.65,7.7a.65.65,0,0,1-.33.25c-1.79.29-2.8,1.81-4.12,2.76-3.63,2.6-7.12,5.39-11.06,7.51a1.74,1.74,0,0,0-.5.38c-2.2,2.69-5.42,4.09-8,6.35-1.39,1.25-3.32,1.9-4.64,3.07-4.24,3.76-9.49,6-13.86,9.58a83,83,0,0,1-8.27,5.71c-3.55,2.24-7.11,4.44-10.72,6.58-1.62,1-3.39,1.69-4.93,2.79-.69.49-1.67.29-2.32,1-1.82,2-4.26,3.09-6.52,4.45a21.12,21.12,0,0,0-4.2,3.06c-.34.35-.62.8-1.16.84a5.4,5.4,0,0,0-2.4,1.23c-3.86,2.37-7.24,5.47-11.45,7.3-2.94,1.28-5.29,3.57-8.28,4.85a10.51,10.51,0,0,0-4.24,2.52,2.18,2.18,0,0,1-1.37.47,2.94,2.94,0,0,0-1.51.65,4.22,4.22,0,0,1-3.26,1.16,1.64,1.64,0,0,0-1.34.51,49.49,49.49,0,0,1-8.38,5.48c-3.15,1.78-6,4.09-9.52,5.27a5,5,0,0,0-1.2.83,7.37,7.37,0,0,1-2,1.18c-4.4,1.51-8.27,4.07-12.21,6.43s-8.38,4.48-12.26,7.23a2.32,2.32,0,0,1-1,.38,4.43,4.43,0,0,0-2.67,1.58,13,13,0,0,1-3.36,2.44,51.19,51.19,0,0,1-5,3.08,27.71,27.71,0,0,0-4.61,2.76c-3,2.16-5.32,5.15-8.37,7.3a3.13,3.13,0,0,0-.53.65c-1.39,1.64-2.54,3.52-4.48,4.64a1.8,1.8,0,0,0-.63.82,9.74,9.74,0,0,1-2.33,3,43.9,43.9,0,0,0-4,4.25c-.52.67-.93,1.61-2.07,1.57-.4,0-.34.3-.15.57s.08.66-.23.89c-1.38,1-2,2.61-3,3.9-.84,1.09-1.28,2.49-2.68,3.13a1.59,1.59,0,0,0-.69,1,13.5,13.5,0,0,1-1.89,3.63c-1.66,2.8-3.38,5.57-5.08,8.35-1.35,2.2-2.34,4.65-4.29,6.46a2.72,2.72,0,0,0-.47.93,21.08,21.08,0,0,1-3.93,6.39,15.49,15.49,0,0,0-2.2,3.07c-.65,1.16-1.08,2.44-2.29,3.2a.91.91,0,0,0-.38.92c.17,1.17-.54,1.81-1.44,2.33-.29.17-.72.3-.64.72.54,2.55-1.42,4.39-1.9,6.65a1.24,1.24,0,0,1-1.66,1.07c-1-.19-1.89,1.56-1.47,2.58a4.17,4.17,0,0,1,.25,1.84c0,.85-1.16.36-1.31,1.09a1.92,1.92,0,0,1,1,1.71c-.15,5.34-1.42,10.49-2.61,15.66a2.36,2.36,0,0,0,0,2,1.37,1.37,0,0,1,0,1.41c-.93,1.76-.39,3.69-.62,5.52a24.74,24.74,0,0,0,.17,6.48c.23,1.65.29,3.32.45,5a51.73,51.73,0,0,1,.6,8.15,5.14,5.14,0,0,0,.46,2c.82,2.36,2,4.66,1.57,7.29a1.65,1.65,0,0,0,.17.8,48.45,48.45,0,0,1,2.33,6.4,11.5,11.5,0,0,0,.68,2.64,33.93,33.93,0,0,1,2.87,8.72c.1.5.25,1.12.81,1.07,2.06-.19,2.58,1,2.81,2.71a3.58,3.58,0,0,0,.74,1.5,10.5,10.5,0,0,1,1.52,3.66,13.09,13.09,0,0,0,3.59,5.95,1.34,1.34,0,0,1,.4.94c-.39.57-.74,1.15.35,1.32.4.07.84-.11,1.19.22s.45,1.12,1,.38c.42-.55-.36-.58-.56-.87s-.31-.46-.46-.7a2.6,2.6,0,0,0,.14-1.51c-.34-1.3-.07-2.79-1.15-3.87a2.22,2.22,0,0,0-.4-1.22A39.62,39.62,0,0,0,83.43,352l-.16-.76c.27-2.07-1-3.72-1.54-5.56l0-.78a11.61,11.61,0,0,0-.77-5.12ZM382,61.83c.48-1,1.74-.79,1.9-1.37.39-1.39,1.42-2.25,2.19-3.3,2.11-2.87,5.18-4.38,8.37-5.69a2.83,2.83,0,0,1,.83-.13c2.36-.2,4.73.42,7.09-.15.25-.06.54.12.82.14,2.57.21,5.15.4,7.72.59a1.9,1.9,0,0,0,.63,0c.7-.15,1-.47.45-1.14a4.2,4.2,0,0,1-.55-4.72c.58-1.27.53-1.48-.86-2a6.17,6.17,0,0,1-3.79-4.46,21.1,21.1,0,0,0-1.49-3.92,54.34,54.34,0,0,1-3.2-8,8.43,8.43,0,0,0-3.38-4.58c-1.09-.75-2.1-1.63-3.21-2.29-.85-.51-.47-.78-.28-1.25.28-.69,1.08-1.1,1.07-2.19-2.78.88-5.6,1.43-7.82,3.38a12.16,12.16,0,0,1-3.27,1.84c-3,1.32-6,2.62-8.95,4.05-1.94.94-3.7,2.33-5.71,3.08a32.94,32.94,0,0,0-5.25,3,10.19,10.19,0,0,1-2.93,1.6,1.47,1.47,0,0,0-1.08.93c-1.14,2.78-2.38,5.54-3.33,8.39a5.11,5.11,0,0,0,2.29,6c2.07,1.41,4.46,2.26,6.46,3.83,2.51,2,5.8,2.14,8.64,3.47C377.9,58.08,380.2,59.24,382,61.83ZM99.1,180.31c.16.84.1,2,.83,2.79a8.88,8.88,0,0,1,1.4,2.78c1,2.53,2.39,4.68,5.58,4.93a3.2,3.2,0,0,0,3.13-1.24,27.59,27.59,0,0,1,5.85-5.62,27,27,0,0,0,2.91-2.39c2.57-2.65,5.94-4.13,9-6.09,2.75-1.77,5.84-3,8.48-5,1.25-.95,2.37-2.24,4.15-2.25.3,0,.47-.29.59-.55.52-1.14,1.19-2.18,1.64-3.38.78-2.07.62-4.27,1.26-6.34a9.57,9.57,0,0,0,.52-2.68,37.2,37.2,0,0,1,1.12-8.09,3.55,3.55,0,0,0-1.09-3.72c-1.06-1.06-1.6-1.14-3-.39a6.08,6.08,0,0,1-1.83,1,25.23,25.23,0,0,0-6.59,1.94,2.24,2.24,0,0,1-2.41-.07c-.6-.47-1.06-1.22-1.91-1.18s-1.3,1-2,1.43a6.42,6.42,0,0,0-1.39,1.27,3.63,3.63,0,0,1-2.69,1.44,2.8,2.8,0,0,0-2.13,1.19,13.86,13.86,0,0,0-2,2.92c-.88,1.85-2.44,3.21-3.69,4.79-1.94,2.46-3.68,5.08-5.66,7.52a3.61,3.61,0,0,0-.48.91,31.25,31.25,0,0,1-3.73,6,37.42,37.42,0,0,1-4.69,5.08A4,4,0,0,0,99.1,180.31ZM82.84,116.93c.42-1.58-.89-4-1.26-6.52a1.7,1.7,0,0,0-1-1.25,5.58,5.58,0,0,0-7.41,1.2c-.81,1.1-1.74,2.57-.83,4.08a17.6,17.6,0,0,1,2.28,5.08,2.65,2.65,0,0,0,.42.72,7.22,7.22,0,0,1,1,2.51c.32,1.57.81,3.11,1.22,4.66.62,2.44,1.51,4.78,2.28,7.17a29.23,29.23,0,0,0,2.32,6c1.6,2.68,2.23,5.89,4.52,8.19a1.33,1.33,0,0,1,.26.79c.28,3.05,3,5.18,3.11,8.31,0,.18.23.34.34.52,1.22,2,2.47,4.06,3.65,6.12a3.46,3.46,0,0,0,5.71.48,27.62,27.62,0,0,1,2.88-3.54c3.11-2.8,4.56-6.52,6.1-10.23.35-.83.09-1.17-.58-1.67a31.07,31.07,0,0,0-5.58-3.31,4.76,4.76,0,0,1-1.74-1.13,12.92,12.92,0,0,0-3.34-2.53,18.58,18.58,0,0,1-5-4.1c-1.51-1.84-3-3.68-4.58-5.47a17.58,17.58,0,0,1-3.24-5A22.12,22.12,0,0,1,82.84,116.93Zm74.51,42.38c2.05-.09,3.46-.46,4.63-1.6a17.74,17.74,0,0,1,3.75-2.66,12.29,12.29,0,0,0,3.41-2.74c1.13-1.37,1.23-1.66,0-2.84a3.92,3.92,0,0,0-2.33-1.32,33.38,33.38,0,0,1-6.47-1.65c-1.53-.44-2.41.13-3.13,1.55-1.23,2.39-1.37,5.09-2.36,7.56A2.74,2.74,0,0,0,157.35,159.31ZM91.57,346c2-.54,2-.54,2-2.17,0-.88.21-1.78-.56-2.57-.57-.59-.34-1.47-.2-2.23a12.81,12.81,0,0,0,.32-2.06c0-3.08-.2-6.17.5-9.21a3.37,3.37,0,0,0,0-1.67,2.22,2.22,0,0,1,.14-1.64,8.64,8.64,0,0,0,.55-4.74,9.42,9.42,0,0,1,.54-5,7,7,0,0,0,.35-4.39,1.61,1.61,0,0,0-.94,1.24c-.2,2.59-2.31,4.71-1.79,7.46a24,24,0,0,0-1.64,6.67c-.21,1.28-.75,2.66-.58,3.8a15.55,15.55,0,0,1,0,4.15c-.14,1.39,1,2.88-.31,4.2-.19.19,0,.57.14.78a2.39,2.39,0,0,1,.35,2,2.68,2.68,0,0,0,.32,1.62A4.65,4.65,0,0,1,91.57,346ZM287.34,279.8A5.49,5.49,0,0,0,285,283c-.47,1.81-.76,3.69-2.26,5.05a1.67,1.67,0,0,0-.34.75,6.16,6.16,0,0,1-1.78,3c-.71.7-1.4,1.55-.91,2.7.72.06.94-.45,1.23-.8,1.75-2.13,2.64-4.71,3.8-7.16,1-2,.56-4.71,2.79-6.19A4.25,4.25,0,0,0,287.34,279.8Zm-113-247a3.51,3.51,0,0,0-1.21,1.61.79.79,0,0,0,.19,1c.61.62,4.14,1,4.87.48a.75.75,0,0,0,.06-1.11,2.33,2.33,0,0,0-1.11-.51A5.05,5.05,0,0,1,174.31,32.83ZM143,36c0,.33.05.83.56.88s1.23-.06,1.68.53c.1.14.36,0,.54-.1,1.59-1.14,1.58-2-.06-3-.3-.18-.61-.34-.92-.49s-.64-.2-.75.08C143.73,34.6,142.92,35,143,36Zm40.3,447.15c1.21-.22,2.39-.55,2.36-1.91a5.22,5.22,0,0,1,.26-2.62.64.64,0,0,0-.72-.92c-1.46.18-2.36,1.54-1.57,2.71S184,482.2,183.25,483.11ZM142.08,12.9c.52.43,1.19.71,1.2,1,.07,1.31.76,1.22,1.67,1,.43-.12.78.24,1.18.33a.68.68,0,0,0,.8-.5,1.33,1.33,0,0,0-1.22-1.92c-1,0-1.85-.24-2.16-1.48C143.52,12.22,142.85,12.48,142.08,12.9ZM135,412.08c.15-1.25-.13-2.45.39-3.79.4-1.05.89-2.51,0-3.77-.2-.3-.34-.65-.77-.44a.54.54,0,0,0-.27.85,4.08,4.08,0,0,1,.3,3.1C134.47,409.28,134.12,410.76,135,412.08ZM149,8.64a9.58,9.58,0,0,1-.91.41c-.95.3-1.57,1.41-2.76,1.14-.05,0-.21.17-.23.28s0,.44.23.5c1.36.32,2.72.88,4.11,0,.41-.26,1.09-.35,1-.9A1.89,1.89,0,0,0,149,8.64ZM360.29,81.58a1.52,1.52,0,0,0-1.73.44c-1,.9-1.66,2.64-3.58,1.69-.12-.06-.37.15-.56.21s-.76,0-.74.5.44.44.77.45c.83,0,1.66,0,2.49,0,1.32.06,2.17-.55,2.19-1.93C359.14,82.11,359.72,82,360.29,81.58Zm.12,288.69c.46.9.74,1.38,1.35,1.51.26.05.61.11.71-.22.42-1.24,1-2.47.42-3.85-.23-.49-.53-.66-.95-.38s-1.09.29-1.24,1,.35.95.9,1.12a.69.69,0,0,1,.49.62c0,.32.22.7-.16.93s-.53,0-.76-.17Zm-89-58.7a16.61,16.61,0,0,0-2.79,3.34,1.87,1.87,0,0,0-.26,1,.6.6,0,0,0,.46.62.65.65,0,0,0,.57-.13C270.42,315,271.68,313.76,271.42,311.57ZM142.3,425.79c-1.1,1.51-2,2.88-1.15,4.79.43,1,.3,1.09,1.72.9-.61-.32-1.31-.32-1.76-1C142.26,429.23,143.16,427.82,142.3,425.79Zm135.77-126.4c0-.49-.16-.82-.55-.91a.64.64,0,0,0-.8.5,15.79,15.79,0,0,1-1.38,3.69.58.58,0,0,0,.19.53c.12.08.49,0,.54-.07A21.2,21.2,0,0,0,278.07,299.39Zm-132-260.47c-.1.75.57,1.43-.06,1.77-.87.49-.75.89-.09,1.34.42.29,0,1,.75,1.13a6.49,6.49,0,0,1,1.81-4.28A4,4,0,0,1,146.06,38.92Zm24.41,437.87c-.05-.36-.2-.7-.59-.75s-1.08.08-1.14.66a13.82,13.82,0,0,1-.39,3.25.59.59,0,0,0,.74.72c.44-.12.34-.51.24-.86-.29-1-.64-1.94.78-2.33C170.41,477.4,170.46,477.08,170.47,476.79ZM96.89,303c-1.82,1.64-2.17,3-1.22,5.1C95.46,306.21,97.71,305.12,96.89,303ZM142.25,403.8c-.33-.44-.63-1.19-1.15-1.41s-1.16.19-1.73.41a.87.87,0,0,0-.52,1c.05.28.15.58.45.65s.59-.25.73-.56c.23-.52.61-.47,1-.3A2,2,0,0,0,142.25,403.8ZM97.23,302c.67-.75.61-1.68.86-2.51a.85.85,0,0,0-.66-1.11c-.71-.21-.77.4-.88.84C96.28,300.21,96.91,301,97.23,302ZM5.64,91.56c-.2-.06-.32.12-.37.32s-.09.69.14.77a3.15,3.15,0,0,1,1.53,1.23.74.74,0,0,0,1,.06c.36-.25.22-.63.14-1A3.12,3.12,0,0,0,5.64,91.56ZM300,458.71c2-1.1,2.18-1.58,1-3.28C300.46,456.44,299.34,457.2,300,458.71Zm71.17-318.9c-.47,1,0,1.74.37,2.53.76-.18,1.56-.11,2.26-1.11A2.33,2.33,0,0,1,371.14,139.81ZM323,85.19c.41-.56,1.41-.45,1.81-1.29.17-.36-.07-.66-.3-.9a.61.61,0,0,0-.9-.11,4,4,0,0,0-1.16,1.66C322.33,84.79,322.43,85.08,323,85.19ZM140.6,9.64a1.46,1.46,0,0,0,.59,1.74,1,1,0,0,0,1.42-.4c.43-.63,0-.86-.54-1S141.23,9.47,140.6,9.64Zm-71.12,255c.21.15.42.31.63.49.52.43,1,.65,1.59,0,.89-.82-.38-.72-.4-1.16,0-.26.21-.69-.45-.86C70.79,263.94,69.83,263.89,69.48,264.61Zm25.91,64.66c.75-.73.32-1.36.18-1.86-.19-.68,0-.91.62-.91a1.11,1.11,0,0,0,.61-.08.87.87,0,0,0,.29-.51c0-.1-.1-.34-.15-.33-.2,0-.47,0-.58.13A3.36,3.36,0,0,0,95.39,329.27ZM127,23.67l-.39,0c0,.67,0,1.34,0,2,0,.26,0,.59.29.71s.67-.11.94-.3.34-.54.1-.89S127.34,24.2,127,23.67ZM19.25,69.84a2.28,2.28,0,0,0-1.55.44,1,1,0,0,0-.43.9.73.73,0,0,0,.73.6c.4,0,.89.18,1-.39S19.54,70.56,19.25,69.84ZM129.1,23.58a2,2,0,0,0-1.4-2.19.88.88,0,0,0-1.12.24c-.34.5.12.67.5.84C127.76,22.76,128.11,23.61,129.1,23.58Zm100.37,24.8c.71.18,1.29.3,1.86.46.41.12.82.28,1-.23s-.08-.78-.3-1.13-.68-.39-1,0S230,47.64,229.47,48.38ZM226,42.27c1.41-.34.13-1.49.8-2.13.38-.36.27-.48-1.37-.74C225.75,40.38,226.45,41.24,226,42.27Zm-47.38,437.5c-.39.28-.88.15-1.32.25s-.63.5-.54,1a.59.59,0,0,0,.58.51c.42,0,.56-.36.49-.76C177.73,480.13,178,479.8,178.63,479.77Zm-59.08-437c.19.76.68,1.23.89,1,.6-.55,1.62-.46,2-1.34a.54.54,0,0,0-.08-.38c-.19-.31-.43-.22-.69-.08A3.52,3.52,0,0,1,119.55,42.78Zm22.9-27.33a14.28,14.28,0,0,0-4.14-.68c-.34,0-.53.15-.49.48s.29.44.6.4,1-.68,1.32-.15C140.71,16.89,141.47,15.61,142.45,15.45ZM351.72,92.13c1.09-.46,1.28-1.39,1.64-2.48C351.53,90.48,351.53,90.48,351.72,92.13Zm-213,25.73c.83.61,1.75.53,2.35,1.16.19.19-.09.14,0-.11s0,.13-.18,0C140,117,140,117,138.69,117.86Zm-53,102.81c-1.25,1.62-1.25,1.62-1.28,2.68C85.37,222.36,85.37,222.36,85.66,220.67ZM65.23,255.76a1.72,1.72,0,0,0-.9,1c-.17.47.23.62.55.69.58.14.67-.35.77-.74A.69.69,0,0,0,65.23,255.76Zm0,3.54c-1,.67-1,.84-.5,1,.67.17.33,1.56,1.14,1.07s-1-.83-.42-1.58C65.51,259.64,65.41,259.39,65.19,259.3ZM369.83,86.15c-.27.64.13,1.18.23,1.75s-.9.54-1.06,1.25C370.62,88.43,370.62,88.43,369.83,86.15ZM60.63,38.66c-.59-.31-1.18-.67-1.77.05a.53.53,0,0,0,0,.75c.76.6,1.21-.07,1.7-.51C60.62,38.92,60.61,38.83,60.63,38.66ZM236,87.44c.69-.73,1-1.37.63-2.16a.34.34,0,0,0-.52-.13c-.69.52-.43,1.24-.36,1.91C235.8,87.12,235.86,87.17,236,87.44ZM137.56,15.85c-.17-.66-.11-1.56-1.19-1.58a.61.61,0,0,0-.64.66,2,2,0,0,0,1.33,1.62C137.5,16.57,137.66,16.31,137.56,15.85Zm-77,46.71a2.75,2.75,0,0,0-2.69.16C59.62,63.94,59.62,63.94,60.6,62.56ZM388,57.22c.75.55.83,1.46,1.74,1.12.29-.11.36-.62.22-.92C389.6,56.68,389,56.92,388,57.22ZM8.34,97.53a.92.92,0,0,0,.95.7c.57,0,.47-.6.51-1s-.06-.6-.43-.54S8.42,97,8.34,97.53Zm64.81-.47a1.45,1.45,0,0,0-1.75.3A1.29,1.29,0,0,0,73.15,97.06Zm47-57.29c-.3-.48-.51-.76-.66-1.07-.31-.62-.81-.38-1.26-.29-.1,0-.26.19-.25.28,0,.5.41.64.84.73S119.45,39.59,120.12,39.77ZM331.66,431.53a.7.7,0,0,0-.88-.67c-.3.05-.55.31-.46.57.15.46.65.49,1.06.52C331.6,432,331.71,431.77,331.66,431.53Zm-187.9-56.2c-.07-.23-.19-.4-.43-.31s-.85.2-.82.75a.45.45,0,0,0,.57.43A.84.84,0,0,0,143.76,375.33Zm3,53a4,4,0,0,0,1.2-2.2C147,426.7,146.46,427.12,146.8,428.37Zm-5.54-44.86c.44.36.92.13,1.38.11.24,0,.56,0,.61-.39s-.21-.47-.39-.66-.47-.37-.69-.13S141.39,383,141.26,383.51ZM127.31,31.44c-.49.1-.93.29-.88.92,0,.17.2.48.3.48.62,0,.71-.57.92-1C127.77,31.65,127.57,31.49,127.31,31.44ZM147.88,1.81c-.21,0-.4.11-.39.35a.63.63,0,0,0,.66.61c.28,0,.59-.06.49-.41A.81.81,0,0,0,147.88,1.81Zm224.7,88.62c0-.94.25-1.61-.2-2.26C371.08,89,371.6,89.59,372.58,90.43ZM80.87,361.82c.46-.12,1.06-.08,1.06-.72,0-.13-.26-.37-.41-.38C80.74,360.65,81.11,361.44,80.87,361.82Zm12-12.64c0-.33,0-.71-.47-.8a.45.45,0,0,0-.56.44c0,.41,0,.87.53.93C92.66,349.78,92.77,349.46,92.85,349.18ZM140,383.55c0-.45-.12-.84-.64-.9a.31.31,0,0,0-.34.4c.09.4.13.86.67.92C139.94,384,140,383.76,140,383.55ZM130.12,20.24c-.33-.1-.46.07-.48.27-.06.43,0,.87.44,1a.41.41,0,0,0,.59-.37A1,1,0,0,0,130.12,20.24ZM152.19,10c.5.31.74,1.17,1.6.81C153.6,9.83,152.94,9.82,152.19,10Zm29.29,470a.54.54,0,0,0-.53-.49c-.4,0-.3.36-.28.6s.11.58.43.53S181.42,480.25,181.48,480Zm171.45-12.17c.05.35.33.63.53.59a1.07,1.07,0,0,0,.89-1,.37.37,0,0,0-.41-.37A1,1,0,0,0,352.93,467.82ZM91,37.47c-.24-.06-.42.05-.42.27,0,.38.16.66.6.65.19,0,.44,0,.46-.26C91.7,37.71,91.37,37.57,91,37.47ZM354.67,82.41a.76.76,0,0,0,.7.61c.3,0,.68.08.83-.36A1.75,1.75,0,0,0,354.67,82.41ZM237,92c-.33-.19-.25-.86-.89-.84-.22,0-.3.21-.35.42-.11.5.09.76.6.81C236.58,92.46,236.85,92.52,237,92Zm-93.08,29.69c.13-1.56-.57-1.74-1.63-1.86Zm230.23,7c.07-.36-.17-.38-.33-.46a.26.26,0,0,1-.14-.35c.05,0,.13,0,.15.1a.21.21,0,0,1,0,.19,5.52,5.52,0,0,0-.28.54c-.1.23,0,.45.25.36S374,128.78,374.11,128.68ZM141.48,425c.25-.35.12-.51-.07-.61s-.54-.24-.74,0,0,.5.2.65A.5.5,0,0,0,141.48,425ZM371.23,147.3c-.1-.6.68-1.2,0-1.77a.21.21,0,0,0-.2,0C370.35,146.2,371,146.72,371.23,147.3Zm-310,123.4a.65.65,0,0,0-.67.57c-.05.24.16.34.38.31a.69.69,0,0,0,.58-.48C61.57,270.86,61.41,270.76,61.19,270.7ZM355.6,92.12c-.22.13-.65.17-.58.47.11.5.57.69,1.05.76.21,0,.46-.1.41-.3C356.37,92.6,356.23,92.11,355.6,92.12ZM83.24,224.27c-.35.3-1,.47-.77,1.19C83,225.27,83.06,224.72,83.24,224.27Zm289.19-139c.36-.6.37-1-.09-1.43-.07.2-.14.39-.2.58A.71.71,0,0,0,372.43,85.25Zm-.92,58.4c-.24.46-.35.9.09,1.28,0,0,.27-.07.33-.17C372.3,144.21,372,143.88,371.51,143.65Zm-262,101.6a5,5,0,0,0,.17-.73c0-.6-.32-.94-.58-.59S109,244.78,109.55,245.25Zm260-160.13c.17-.52.51-1-.1-1.46a.46.46,0,0,0-.68.23C368.46,84.59,369,84.85,369.55,85.12ZM77.42,231.79c.35-.38,1.1-.35.89-1.13,0-.07-.23-.13-.34-.12C77.21,230.64,77.15,231.1,77.42,231.79Zm98.19,236.43c-.3.3-.67.51-.5,1,.06.18.18.21.33.1C175.84,469.06,175.91,468.71,175.61,468.22Zm-23-135.62a.36.36,0,0,0,.43-.33.46.46,0,0,0-.19-.55.32.32,0,0,0-.47.2C152.3,332.19,152.3,332.46,152.61,332.6Zm-10.5,24.5c-.07-.18-.14-.38-.39-.29a.39.39,0,0,0-.24.47c0,.1,0,.39.32.19C142,357.37,142.13,357.33,142.11,357.1Zm4.5-1.09a.87.87,0,0,0-.26-.15.71.71,0,0,0-.72.26c-.12.15-.12.3,0,.27A8.18,8.18,0,0,0,146.61,356ZM381.53,189.46a1.8,1.8,0,0,0,.07.55c.18.26.18.68.58.75a.4.4,0,0,0,.33-.17c.24-.48-.16-.72-.44-1C382,189.54,381.84,189.55,381.53,189.46Zm-173.11,225a.36.36,0,0,0-.31.43c0,.16.2.41.33.42s.23-.24.24-.42S208.68,414.53,208.42,414.49ZM150.14,37.14c0-.39-.28-.57-.59-.69a.53.53,0,0,0-.15.32c0,.32,0,.71.46.78C150.08,37.58,150.14,37.35,150.14,37.14Zm-5.61,334.73a.34.34,0,0,0-.39-.34.35.35,0,0,0-.33.39c0,.23.2.33.41.33S144.53,372.08,144.53,371.87ZM235,96.17c-.24.09-.58.08-.49.48s.28.49.58.39a.7.7,0,0,0,.38-.41C235.63,96.21,235.25,96.26,235,96.17Zm.78-.62c.28-.44,1-.69.48-1.35-.06-.08-.33-.12-.37-.07C235.54,94.56,235.77,95,235.8,95.55Zm140.12,96c-.23-.28-.49,0-.72,0-.06,0-.52-.12-.22.22a.65.65,0,0,0,.76.09C375.83,191.81,375.86,191.66,375.92,191.56Zm3.33.41c.14-.09.44-.19.43-.28a.65.65,0,0,0-.42-.62c-.29-.11-.53,0-.54.33S379,191.85,379.25,192ZM85.56,229.18c.32-.09.52-.26.45-.59s-.16-.42-.41-.25a1,1,0,0,0-.34.48A.27.27,0,0,0,85.56,229.18Zm48.83,172.88a.65.65,0,0,0,.49-.57.35.35,0,0,0-.29-.43c-.41-.05-.37.3-.41.54A.36.36,0,0,0,134.39,402.06ZM206.53,8.3c-.36.1-.34.39-.35.66s.25.47.54.4a.41.41,0,0,0,.26-.49C206.93,8.6,206.89,8.31,206.53,8.3ZM150,400.08c0-.28-.12-.43-.33-.43-.46,0-.45.41-.59.69s-.06.46.13.46C149.71,400.81,149.89,400.43,150,400.08ZM78.33,30.49c0-.25.58.14.4-.38a.66.66,0,0,0-.57-.48c-.31,0-.5.11-.45.46S77.94,30.53,78.33,30.49Zm93.28,451.33c-.16-.09-.3-.06-.31.12a2.82,2.82,0,0,0,.09.57,1.52,1.52,0,0,0,.33-.2C171.88,482.12,171.83,481.94,171.61,481.82ZM154.29,58c.22,0,.48-.15.45-.26a1,1,0,0,0-.86-.77c-.3,0-.38.18-.4.35C153.42,57.85,153.82,57.94,154.29,58ZM286.67,92.84c0-.12,0-.39-.16-.48s-.4,0-.39.23a.84.84,0,0,0,.26.5C286.48,93.19,286.61,93.09,286.67,92.84Zm-193,42.35c-.16,0-.23.07-.16.21a2.23,2.23,0,0,0,.2.33c.11.14.2.11.22-.09A.4.4,0,0,0,93.67,135.19Zm259.8-42.4c-.54.15-1-.23-1.71.57C352.54,93.2,353,93.52,353.47,92.79ZM98.24,222c-.16-.36-.33-.65-.72-.69a.38.38,0,0,0-.44.3c0,.41.28.6.66.58A1.47,1.47,0,0,0,98.24,222ZM225,38.7a1,1,0,0,0-.84-.6.37.37,0,0,0-.17.29.59.59,0,0,0,.74.5C224.78,38.88,224.86,38.76,225,38.7Zm128,62.12c-.19.07-.47.09-.27.36a1,1,0,0,0,.53.24.37.37,0,0,0,.28-.22C353.55,100.75,353.18,100.89,353,100.82Zm-90.42-.22c-.42.1-.8-.3-1.23.15ZM8.23,84c-.18,0-.42,0-.34.33a.39.39,0,0,0,.3.14c.2,0,.38-.13.38-.35C8.57,84.12,8.35,84.08,8.23,84ZM140.72,354.31c.08-.23.48-.25.41-.59,0-.17-.15-.15-.31-.1a.66.66,0,0,0-.45.58A1.58,1.58,0,0,0,140.72,354.31Zm28.27-3.1.28.2c0-.06.11-.12.09-.17a1.35,1.35,0,0,0-.14-.3ZM385.7,84.89a1,1,0,0,0-1.19.45c-.07.13-.05.28.11.32C385.17,85.78,385.47,85.47,385.7,84.89ZM371.39,102c-.12-.16-.17-.37-.46-.29a.5.5,0,0,0-.42.59.32.32,0,0,0,.43.3C371.27,102.49,371.36,102.26,371.39,102ZM151.91,424.36c.29,0,.43-.24.6-.43-.09-.05-.21-.17-.25-.15a2.56,2.56,0,0,0-.46.33C151.69,424.21,151.74,424.31,151.91,424.36Zm219.4-296.2c-.06-.1-.14-.29-.19-.28-.27,0-.52.16-.56.47,0,.08.12.27.18.27A.59.59,0,0,0,371.31,128.16Zm-278.18,101c.21-.5,0-.59-.2-.61a.41.41,0,0,0-.46.3c-.08.28.13.36.33.42S93.15,229.12,93.13,229.15ZM146.29,3.55l.28.21c0-.06.08-.13.07-.18a2,2,0,0,0-.14-.3ZM98.63,320.75c.05-.14,0-.25-.19-.27s-.43,0-.46.24a.39.39,0,0,0,.18.33A.39.39,0,0,0,98.63,320.75Zm-2.43,1.12c-.07.09-.2.18-.2.27,0,.24.18.33.37.32s.18-.16.18-.25S96.47,321.83,96.2,321.87ZM227.36,70c.17.12.31.23.47.33,0,0,.1-.09.11-.15a.29.29,0,0,0-.27-.39C227.59,69.77,227.5,69.89,227.36,70ZM56.49,62.44A1.63,1.63,0,0,0,56,64.17a.38.38,0,0,0,.34.17c.8-.33.15-1.1.45-1.59A3.36,3.36,0,0,0,56.49,62.44Zm95.78-4.21a.61.61,0,0,0-.51-.52c-.22,0-.31.23-.2.38a3.23,3.23,0,0,0,.57.45ZM152.06,326a.36.36,0,0,0-.34-.39c-.07,0-.2.13-.23.22s0,.38.28.36S152,326.07,152.06,326Zm64.36,68.44c.05.12.07.3.16.35s.24-.07.36-.12c-.06-.12-.08-.27-.17-.35S216.5,394.28,216.42,394.44Zm115.64,35.23-.08-.18a2.55,2.55,0,0,0-.13.29c0,.06,0,.13.08.19ZM19.8,202.35c-.07-.4-.3-.51-.59-.45a.31.31,0,0,0-.28.43.44.44,0,0,0,.57.39C19.7,202.67,19.87,202.55,19.8,202.35Zm-7.24-6.7c-.05,0-.14.11-.14.14a1.47,1.47,0,0,0,.14.28s.14-.1.13-.14A2.28,2.28,0,0,0,12.56,195.65Z"/><path class="cls-2" d="M1.82,151.79a6.54,6.54,0,0,0-.44-2,1.43,1.43,0,0,1-.24-1c.71-2.38-.64-4.48-.85-6.73-.15-1.52.13-3-.09-4.57-.27-1.88-.08-3.8-.17-5.7a35.18,35.18,0,0,1,.3-5.6c.06-.6.06-1.22.12-1.82.08-1,.08-1.9,1.48-1.7.69.09.79-.37.76-.93s-.1-1.14-.89-1.08a3,3,0,0,0-.41.09c-.61.1-1.25,0-1.27-.69s.52-1,1.2-.8.91-.16.9-.77c0-.37.25-.64.35-1,.65-2.07.94-2.17,2.49-.71.28.26.49.54.84.28a1.22,1.22,0,0,0-.1-1.6c-.17-.1-.41-.06-.6-.13a.71.71,0,0,1-.49-1,.6.6,0,0,1,.88-.28c.9.54,2.1,0,2.77,1,.2-.22.37-.31.37-.4-.05-.74,1-.9.91-1.47-.14-.91-1.09-.25-1.58-.57a1.68,1.68,0,0,1-.59-.56c-.37-.84-.73-.88-1.34-.19a1.57,1.57,0,0,1-1.95.15c-.61-.29-1-.3-1.4.27a.88.88,0,0,1-1.45,0c-.2-.2-.39-.45-.27-.74.28-.65.8-.69,1.4-.52a3.93,3.93,0,0,0,.6.07c.38-.46.3-1.51,1.39-1,.41.18.79.26.8-.43s-.29-1-.86-.75a1.61,1.61,0,0,1-1.74-.08h0a.36.36,0,0,0-.42-.41h0a.39.39,0,0,0-.39-.45h0a3,3,0,0,1,.56-1.93.5.5,0,0,0,.28-.14c1.17.27,2.6.07,2.93,1.75.06.31.29.37.61.38,1.36,0,2.78-.06,3.52-1.29.59-1,1.27-.85,2.09-.75a12.81,12.81,0,0,1-.09,1.86c-.13.76-.34,1.41-1.28.5-.7-.68-1.28.1-1.73.5a1.39,1.39,0,0,0-.28,1.87c.27.42.61.25,1,0,.72-.46,1.46-.54,1.69.59a.74.74,0,0,0-.06.9l0,.8c-.26.27-.49.54-.2.92l.25,2.92A6,6,0,0,1,10,119.18c-.24-.07-.41-.07-.5-.15a3.86,3.86,0,0,1-1.21-1.42.31.31,0,0,0-.5-.13.47.47,0,0,0-.12.57,1.14,1.14,0,0,0,.77.67,3.26,3.26,0,0,1,2.06,2.53l0,.91c-.94.82-.9,2-1.15,3.08h0c-.66.82-1.4,1.63-.63,2.77,1.1,1.29.89,2.91,1.1,4.43a1.42,1.42,0,0,0-.09,1.34c0,.21-.05.42-.07.63a.38.38,0,0,0-.12.6l-.05.8a4.25,4.25,0,0,0-.1,3l-.12.7c-.48.51-.64,1-.07,1.58l.07.53A1.23,1.23,0,0,0,9,143a6.11,6.11,0,0,0,.19,2.48l-.1.5-.15.72c-.25.13-.32.31-.14.55a1.8,1.8,0,0,0,.17,1.55A2.3,2.3,0,0,1,7.67,151c-1,.55-1,.67.06,1.66l0,.08,0-.05c0-1.5.09-1.61,1.26-1.33.58,3.64.51,7.33.9,11a3,3,0,0,1-.13.82c-.45.52-1.67-.24-1.63.68,0,.67,1,.16,1.58.32a5.17,5.17,0,0,1,.85,3.18,26.84,26.84,0,0,0,.84,7.63c.19,1,.39,2-.81,2.49-.26.07-.59.06-.75.22s.08.32.31.31c.1.26.21.53.31.8l-.29.39h0l-1.15,0c-.1-.42.43-.8.12-1.39-1.06.62-2.29.31-3.3.92l-.3,1L4.41,180h0a4.59,4.59,0,0,1-1-1.64l.07-.8a1.77,1.77,0,0,0,.06-2.15C2.42,173,3.43,170.23,1.93,168a1.06,1.06,0,0,1,0-.82c.48-1.32.07-2.62-.06-3.92l.8-.87c.53.18,1,.39,1.58.53a1,1,0,0,0,1.29-.74c.25-.85-.09-1.39-.94-1.76s-1,.1-1.11.7a1.06,1.06,0,0,1-.82.85h0a.4.4,0,0,0-.4-.44h0l-.06-1.26c.18-.34.78-.63.41-1-1.75-1.86-1.21-4-.76-6.09.47,0,1-.13,1.13.59,0,.31-.17.77.44.69a.79.79,0,0,0,.63-.5,7.27,7.27,0,0,0,.66-4.46c-.14-.64.4-1.87-.77-1.74-.64.06-.35,1.3-.57,2-.07.23.27.61.42.91.31.6,0,.91-.51,1.12A2.56,2.56,0,0,1,1.82,151.79Zm.22-26c.41-.11,1,0,1-.73,0-.51-.45-.63-.87-.65s-.63.37-.69.79S1.66,125.78,2,125.81ZM7.61,156c0,.94-.69.78-1,1.11-.13.15-.33.29-.16.5a.73.73,0,0,0,.47.32c.14,0,.32-.18.42-.33C7.67,157.14,7,156.56,7.61,156Zm-.08,4.48c-.41-1-1.06-.76-1.87-.45C6.26,160.76,6.81,161,7.53,160.48ZM5,121c-.24.06-.57,0-.53.44A.55.55,0,0,0,5,122c.24,0,.59,0,.54-.4S5.24,121.12,5,121Zm1.81,55.32c0,.07,0,.16.08.18a1.12,1.12,0,0,0,1.09.12s0-.29,0-.3a7.61,7.61,0,0,0-1-.09S6.84,176.32,6.78,176.35ZM4.16,157.92a2.5,2.5,0,0,0,.5.45c.07,0,.14-.18,0-.32a4,4,0,0,0-.4-.42C4.18,157.56,4.11,157.66,4.16,157.92Z"/><path class="cls-2" d="M6.44,183a1.7,1.7,0,0,0-.14-.35,2,2,0,0,0-.06-1.6,1.11,1.11,0,0,1,.3-1.3c1.63.84,3.58.8,5.15,2,.39.29,0-.18-.1-.14-.45.28-.5.8-.66,1.24-.42-.09-.68-.44-1-.62C8.54,181.49,7.48,182.24,6.44,183Z"/><path class="cls-2" d="M222.42,12.26c-.78.15-1.31.27-1.85.36-.82.15-1.53,0-1.78-.93a1.77,1.77,0,0,1,.85-2.13c.93-.39,1.46.24,1.89.86A12.71,12.71,0,0,1,222.42,12.26Z"/><path class="cls-2" d="M8.76,187.25c.71-.82-.11-1.06-.55-1.41-.28-.23-.66-.45-.38-.82s.7.17,1.07.17c.61.72,1.06,1.57,2.2,1.74.66.09.77,1,1.18,1.5s-.25.85-.37,1.29c-.74.09-.46,1.11-1.13,1.25l-.1-.8c0-.62.68-1.12.39-1.76-.39-.88-1.27-.09-1.84-.45l-.53-.33A2.32,2.32,0,0,1,8.76,187.25Z"/><path class="cls-2" d="M3.22,102.24a2.64,2.64,0,0,1,.62,0c.7.09,1.68-.4,2,.61s-1.09,2.33-2.16,2.32a2.51,2.51,0,0,1-.78-.3A2.41,2.41,0,0,1,3.22,102.24Z"/><path class="cls-2" d="M216.08,9.4c-.57-.06-1.4.22-1.38-.78,0-.67.59-.9,1.17-.95A1.52,1.52,0,0,1,217.4,8.8C217.41,9.26,217,9.43,216.08,9.4Z"/><path class="cls-2" d="M10.53,193.45c-.38.47-.79.85-1.32.2-.34-.42-1-.77-.7-1.4s1.16-.25,1.67-.59c.54.21,1.39,0,1.32,1h0a.44.44,0,0,0-.44.4h0C10.78,193.07,10.59,193.15,10.53,193.45Z"/><path class="cls-2" d="M192.36,16.93c.81,0,1.32.24,1.33.93,0,.86-.67.93-1.31,1s-1.15-.21-1.14-.9S191.86,17,192.36,16.93Z"/><path class="cls-2" d="M201.45,9.13c.52-.15.64.22.7.55.15,1-.62.91-1.2,1s-.81-.13-.83-.65C200.08,9.05,201.12,9.57,201.45,9.13Z"/><path class="cls-2" d="M213.7,3.55c.6,0,1.17.22,1.17.9a.9.9,0,0,1-1,.91.94.94,0,0,1-1-1.05C212.88,3.77,213.23,3.6,213.7,3.55Z"/><path class="cls-2" d="M217.52,4.82a1.48,1.48,0,0,1,1.74.71c.05.09,0,.35-.08.36C218.3,6.11,217.92,5.44,217.52,4.82Z"/><path class="cls-2" d="M73.14,368.19c-.42.64-.61,1.54-1.77,1.71C71.63,368.84,72,368.2,73.14,368.19Z"/><path class="cls-2" d="M200.06,16c-.5.1-.65-.12-.7-.41-.09-.55.12-1,.68-1.07a.79.79,0,0,1,.88.7C201,15.89,200.22,15.72,200.06,16Z"/><path class="cls-2" d="M195.62,12.32c.37.79,1.66,0,1.82,1.08-1.34.28-1.34.28-1.79-1.11Z"/><path class="cls-2" d="M214.9,11.55a.54.54,0,0,1,.42.62c-.08.42-.25.84-.82.69-.33-.09-.38-.38-.31-.67A.73.73,0,0,1,214.9,11.55Z"/><path class="cls-2" d="M14.88,187.6c.26.25.43.57.2.89s-.59.16-.89,0c-.49-.23-.53-.53-.16-.9Z"/><path class="cls-2" d="M9.74,184.17l-.39,0c-.32,0-.77.13-.81-.33,0-.61.43-.53.83-.48l.4,0Z"/><path class="cls-2" d="M14,185.46c0,.32-.21.46-.52.45a.46.46,0,0,1-.47-.53.48.48,0,0,1,.53-.48C13.89,184.92,14,185.14,14,185.46Z"/><path class="cls-2" d="M202.92,12.22c.33.42,1,.6.66,1.28a.39.39,0,0,1-.37.09C202.39,13.32,203,12.73,202.92,12.22Z"/><path class="cls-2" d="M10.83,179.38a2.26,2.26,0,0,1,.95-.08.52.52,0,0,1,.17.85c-.28.38-.57.21-.8-.12s0-.56-.36-.63Z"/><path class="cls-2" d="M4.46,181c.36,0,.83-.4,1,.23s-.24.71-.67.83A1,1,0,0,1,4.46,181Z"/><path class="cls-2" d="M12.39,191.72a1.23,1.23,0,0,1-.44-1c.46,0,1,0,1.11.49S12.71,191.66,12.39,191.72Z"/><path class="cls-2" d="M196.87,11.31c0,.17-.1.36-.37.3a.51.51,0,0,1-.39-.59.29.29,0,0,1,.38-.31C196.8,10.77,196.92,11,196.87,11.31Z"/><path class="cls-2" d="M300.59,218.84a1.69,1.69,0,0,1-1.34,1.63c-.82,0-1.06-.61-1.14-1.25a1.76,1.76,0,0,1,1.52-1.74C300.46,217.53,300.57,218.17,300.59,218.84Z"/><path class="cls-2" d="M182,341.65c0,.2,0,.28,0,.33-.17.37-.36.75-.82.83-.06,0-.21-.17-.22-.26,0-.51.3-.73.69-.9A1.84,1.84,0,0,1,182,341.65Z"/><path class="cls-2" d="M138,380.71a.76.76,0,0,1-.76,1,.88.88,0,0,1-.94-.88,1,1,0,0,1,.84-1.22C137.9,379.5,137.79,380.28,138,380.71Z"/><path class="cls-2" d="M137.11,375.22c-.1.32-.23.64-.6.72s-.34-.19-.36-.38c-.05-.41.32-.52.59-.7Z"/><path class="cls-2" d="M134.92,17.76c0-.23.08-.42.3-.39a.72.72,0,0,1,.46.32.33.33,0,0,1-.22.47A.4.4,0,0,1,134.92,17.76Z"/><path class="cls-2" d="M153,49.3c-.07.42-.31.65-.7.62-.71-.05-.86-.59-.89-1.17,0-.41.19-.67.62-.59A1.18,1.18,0,0,1,153,49.3Z"/></g></g></g></svg>