<svg xmlns="http://www.w3.org/2000/svg" viewBox="0 0 48.7 56.58"><defs><style>.cls-1{fill:#1d1d1b;}</style></defs><g id="Calque_2" data-name="Calque 2"><g id="header"><path class="cls-1" d="M3.4,47.79c-1.77-1.53-2-3.92-2.16-6.11C1,39.06.48,36.19.91,33.59a17.31,17.31,0,0,1,3-6.48,25.53,25.53,0,0,1,4.59-5.35c3.47-3,8.15-3.89,11.06-7.58a17.12,17.12,0,0,0,1.53-2.4,4.12,4.12,0,0,1,3.09-2.45c1.1-.2,2.23-.33,3.34-.48,1.69-.24,3.57-.92,4.66.83s1.93,3.91,3.15,5.75a36.79,36.79,0,0,0,4.14,5.17c1.65,1.72,3.89,3.11,5.2,5.11s1.59,4.61,2.11,6.86c.62,2.62,1.72,5.48.8,8.14a40.76,40.76,0,0,1-3.28,7,16.79,16.79,0,0,1-4.69,5.4A11.11,11.11,0,0,1,32.54,55c-2.93-.09-6,.45-8.88,0a28.53,28.53,0,0,0-4-.77,6.15,6.15,0,0,0-2.79.89c-5.13,2.55-11-3-13.29-7.2-.23-.42-.87,0-.64.38,2.09,3.85,6.13,7.67,10.67,8.2a5.73,5.73,0,0,0,2.95-.4c.47-.2.9-.47,1.36-.68a4.62,4.62,0,0,1,3.15-.24,21.42,21.42,0,0,0,3.71.68c1.53.08,3.05-.11,4.58-.17,2.76-.11,5.51.38,8.16-.66A13.54,13.54,0,0,0,42.92,51a29,29,0,0,0,3.94-6.71c1-2.23,2.14-4.39,1.77-6.91a87.41,87.41,0,0,0-2-8.59,10.9,10.9,0,0,0-3.74-6,38.7,38.7,0,0,1-9.7-12.71A4.42,4.42,0,0,0,31.66,8a4.57,4.57,0,0,0-3-.09c-1.36.19-2.72.37-4.08.58a5,5,0,0,0-3.09,1.28,13.84,13.84,0,0,0-1.63,2.62,12.67,12.67,0,0,1-2.81,3.25c-2.11,1.74-4.75,2.61-7,4.05a21.42,21.42,0,0,0-5.69,5.5,21.77,21.77,0,0,0-4,7.55c-.71,3,0,6.32.2,9.32.19,2.27.53,4.68,2.35,6.24.37.31.9-.22.53-.53Z"/><path class="cls-1" d="M23.74,8.68a1.53,1.53,0,0,1-.27-1.58A11.09,11.09,0,0,0,24,5.22c.13-1.25-.36-2.53-.08-3.77,0-.17.16-.75.37-.67s.11.75.1,1a1.8,1.8,0,0,0,.55,1.4c.79.78,1.9.79,2.87,1.18a1.84,1.84,0,0,1,1.15,1.48c.16.78.26,1.57.38,2.35.07.47.79.27.72-.2-.13-.8-.21-1.62-.39-2.41a2.5,2.5,0,0,0-1-1.63,5.8,5.8,0,0,0-1.8-.65,2.33,2.33,0,0,1-1.6-1,2.36,2.36,0,0,1-.05-1.09,1.29,1.29,0,0,0-.31-.9.83.83,0,0,0-1.36.14c-.8,1.28-.24,2.91-.24,4.29s-1.37,3.28,0,4.49c.36.33.89-.2.53-.53Z"/><path class="cls-1" d="M23.91,9.07c.08,1.18-.82,2-1.47,2.9a6.73,6.73,0,0,0-1.12,2.77,6.28,6.28,0,0,1-1.05,2.85,7.61,7.61,0,0,1-2.46,1.69.39.39,0,0,0,.09.69,3.8,3.8,0,0,0,2.94-.5c1-.69,1.39-1.79,2-2.8.34-.55.77-1,1.13-1.54a6,6,0,0,0,.79-1.66c.44-1.39.82-2.8,1.23-4.2a.37.37,0,0,0-.72-.2l-1.05,3.57a7.25,7.25,0,0,1-.61,1.65,11.49,11.49,0,0,1-1,1.4,26.49,26.49,0,0,1-1.7,2.76,3,3,0,0,1-2.81.79l.09.69a8.49,8.49,0,0,0,2.61-1.81A6,6,0,0,0,22,15.27a14.18,14.18,0,0,1,.38-1.56,5.57,5.57,0,0,1,1-1.65,4.44,4.44,0,0,0,1.35-3c0-.48-.78-.49-.75,0Z"/><path class="cls-1" d="M26.62,9.26c.61,1.33-.19,3-.61,4.23l-1.33,4L22,25.74c-.13.4.5.67.68.29.73-1.51,1.71-2.85,2.52-4.31a24.46,24.46,0,0,0,1.75-3.95,25,25,0,0,0,1.32-9c0-.48-.77-.48-.75,0a24.38,24.38,0,0,1-1.29,8.81,24.06,24.06,0,0,1-1.83,4c-.77,1.35-1.68,2.63-2.36,4l.68.29,3-9.19c.49-1.49,1-3,1.47-4.48a4.5,4.5,0,0,0,.07-3.38c-.2-.44-.85-.06-.65.37Z"/><path class="cls-1" d="M28.75,9.41c1.17,0,1.33,3.16,1.46,3.94.24,1.38.46,2.75.72,4.12a29.5,29.5,0,0,0,2.53,8,.38.38,0,0,0,.7-.19,52.67,52.67,0,0,0-1.7-9.37c-.55-2.56-.78-5.7-2.55-7.77-.31-.37-.84.16-.53.53a7.75,7.75,0,0,1,1.49,3.47c.33,1.43.63,2.87.94,4.3a50.31,50.31,0,0,1,1.6,8.84l.7-.19a32.93,32.93,0,0,1-2.77-9.53c-.27-1.57-.52-3.14-.84-4.7-.2-1-.59-2.14-1.75-2.15a.38.38,0,0,0,0,.75Z"/><path class="cls-1" d="M20.8,54c-.41-3.46-.72-6.93-.91-10.4s-.55-7,.4-10.25l-.72-.2a110.55,110.55,0,0,0-1.52,11c-.24,3.4-.43,7.22.82,10.45.18.45.9.25.73-.2-1.23-3.17-1-6.91-.8-10.25.26-3.64.88-7.23,1.49-10.82a.37.37,0,0,0-.72-.2c-.93,3.23-.62,6.71-.45,10q.28,5.41.93,10.82c.06.47.81.48.75,0Z"/><path class="cls-1" d="M1.87,43.94a34.17,34.17,0,0,1,.06-7.36,24.74,24.74,0,0,1,2.43-6.76c.21-.44-.44-.82-.65-.38a25.74,25.74,0,0,0-2.5,6.94,34.13,34.13,0,0,0-.09,7.56c0,.48.78.48.75,0Z"/><path class="cls-1" d="M43.17,46.12a8.23,8.23,0,0,1-1.3-3.9,9,9,0,0,1,.1-2,3.09,3.09,0,0,0,0-1.54,1.42,1.42,0,0,0-2.53-.1,3.85,3.85,0,0,0-.53,1.82,6.84,6.84,0,0,0,0,2c.07.44.29,1.65,1,1.44s.57-1.26.5-1.76l-.27.46c.35-.07.29,1.13.33,1.34A2.94,2.94,0,0,0,40.91,45a8.08,8.08,0,0,0,1.8,1.7c.39.28.76-.37.38-.65a4.57,4.57,0,0,1-1.89-2.17c-.14-.5,0-1.06-.23-1.53a.94.94,0,0,0-1.06-.5.39.39,0,0,0-.26.46,1.9,1.9,0,0,1,0,.63,2.5,2.5,0,0,1-.07.26l.33,0s-.18-.49-.19-.55a2.59,2.59,0,0,1-.09-.4,6.64,6.64,0,0,1,0-2c.08-.57.21-1.35.82-1.59s.84.33.83.84-.15,1.1-.19,1.66A9.67,9.67,0,0,0,41.2,43a9,9,0,0,0,1.33,3.49c.26.41.9,0,.64-.37Z"/><path class="cls-1" d="M21.68,34.3l-.45,2.49c-.1.55-.42,1.51.21,1.87a.67.67,0,0,0,.89-.32,4.28,4.28,0,0,0,.34-.79,1,1,0,0,1,.39-.54c.32-.17.62-.33.65-.74a1.59,1.59,0,0,0-.52-1.08l-.87-1.06a.37.37,0,0,0-.53,0,.38.38,0,0,0,0,.53l.63.76a3.66,3.66,0,0,1,.51.68.25.25,0,0,1,0,.11s0,0,0,0-.22.11-.29.15a1.39,1.39,0,0,0-.53.52,5.17,5.17,0,0,0-.28.64c0,.1-.07.19-.11.29l-.08.13c0,.09,0,0,0,.06l.14,0s0,0,0,0,0-.06,0-.07a.7.7,0,0,1,0-.2c0-.34.12-.68.18-1l.42-2.26a.39.39,0,0,0-.27-.46.38.38,0,0,0-.46.26Z"/><path class="cls-1" d="M29.34,33.72c-.36.18-.73.36-1.09.56a1,1,0,0,0-.43.39.67.67,0,0,0,.1.75,1,1,0,0,0,1,.25,1.4,1.4,0,0,0,.83-.62A1.33,1.33,0,0,0,30,33.94a.38.38,0,0,0-.73.2l0,.09c0,.08,0-.09,0,0v.09s0,.14,0,0l0,.15,0,.08c0-.1,0-.06,0,0l0,0-.09.15s.06-.08,0,0l0,0L29,34.8a.15.15,0,0,0-.06.05l0,0,0,0-.15.09c.07,0,.07,0,0,0l-.05,0-.08,0h0s-.05,0,0,0h-.18c.09,0,.07,0,0,0h0l0,0c-.07,0,.07,0,0,0l-.07,0c.06,0,.05.05,0,0h0c0,.06,0,0,0,0s0,.1,0,0,0,0,0,0,0,0,0,0,0,.1,0,0c0,.09,0,0,0,0s0,0,0,0,0,0,0,0l0,0s0,0,0,0l.17-.1,1-.55a.37.37,0,1,0-.38-.64Z"/><path class="cls-1" d="M9,38.45a2.23,2.23,0,0,0,.94-1.17,4.39,4.39,0,0,0,.36-1.67A2.3,2.3,0,0,0,8.61,33.3c-.21,0-.5.11-.47.36a7.13,7.13,0,0,1-.44,3.45,2.23,2.23,0,0,0-.26.83.78.78,0,0,0,.39.6,1.25,1.25,0,0,0,1.43-.37c.37-.32-.16-.84-.53-.53a.86.86,0,0,1-.43.27.17.17,0,0,1-.12,0s0,0,0,0a.49.49,0,0,1,0-.11,10.64,10.64,0,0,0,.47-1.34,7.65,7.65,0,0,0,.19-2.78L8.41,34A1.59,1.59,0,0,1,9.5,35.69,3.91,3.91,0,0,1,9.22,37a1.54,1.54,0,0,1-.65.85.38.38,0,0,0,.38.65Z"/><path class="cls-1" d="M11.49,28.73a3.69,3.69,0,0,0-.62,2.09.38.38,0,0,0,.64.27,3.07,3.07,0,0,0,.9-2.19.39.39,0,0,0-.38-.38.38.38,0,0,0-.37.38,2.18,2.18,0,0,1,0,.25v.06s0,.1,0,0,0,0,0,0v.06a2.75,2.75,0,0,1-.14.49l0,.05L11.4,30a2.39,2.39,0,0,1-.13.21.36.36,0,0,1-.07.1s0,.08,0,0l0,0-.18.19.64.27a2.17,2.17,0,0,1,0-.26.31.31,0,0,1,0-.1s0-.16,0-.07a4,4,0,0,1,.11-.47c0-.07.05-.15.08-.23s0-.11,0,0l.05-.12a3,3,0,0,1,.25-.43.39.39,0,0,0-.13-.52.4.4,0,0,0-.52.14Z"/><path class="cls-1" d="M23.66,8.24c.21-.45.89-.29,1.28-.33a1.6,1.6,0,0,0,1.13-.57,1.51,1.51,0,0,0,.26-1.27,1.9,1.9,0,0,1-.06-.71c0-.14.18-.49.31-.54l-.29,0c-.1-.07-.11-.07,0,0l.06.07a1.58,1.58,0,0,1,.15.24,4.9,4.9,0,0,1,.24.52c.18.41.34.81.52,1.22a2.18,2.18,0,0,0,.62.82c.27.22.59.37.84.61a.38.38,0,0,0,.53-.53c-.3-.29-.7-.46-1-.74a3.87,3.87,0,0,1-.65-1.26,5.89,5.89,0,0,0-.66-1.33.7.7,0,0,0-.53-.37c-.23,0-.36.18-.48.35a1.68,1.68,0,0,0-.39,1.29c.05.39.25.89-.11,1.2s-.91.18-1.36.24a1.27,1.27,0,0,0-1,.66c-.2.44.45.82.65.38Z"/></g></g></svg>