<?xml version="1.0" encoding="UTF-8"?><svg id="Calque_2" xmlns="http://www.w3.org/2000/svg" xmlns:xlink="http://www.w3.org/1999/xlink" viewBox="0 0 467.97 343.02"><defs><style>.cls-1{fill:none;}.cls-2{letter-spacing:0em;}.cls-3{clip-path:url(#clippath);}.cls-4{fill:#7ea07c;}.cls-5,.cls-6{fill:#648063;}.cls-7{fill:#8ab187;}.cls-8{fill:#9ca340;}.cls-9{fill:#b6d096;}.cls-10{fill:#c42828;}.cls-11{fill:#324014;}.cls-12{fill:#db8f42;}.cls-13{fill:#ca6820;}.cls-14{fill:#d5aa4b;}.cls-15{fill:#415238;}.cls-16{fill:#364416;}.cls-17{fill:#437340;}.cls-18{fill:#3e9947;}.cls-19{fill:#3d693b;}.cls-20{fill:#965444;}.cls-21{fill:#47571e;}.cls-22{fill:#26320b;}.cls-23{fill:#264526;}.cls-24,.cls-25{fill:#3c4e3c;}.cls-26{fill:#607429;}.cls-27{fill:#606629;}.cls-28{letter-spacing:-.07em;}.cls-29{fill:#e4aa41;font-family:Avenir-Light, Avenir;font-size:9.56px;}.cls-6{opacity:.34;}.cls-30{fill:#dcbd4e;font-size:22.72px;}.cls-30,.cls-31{font-family:GiovanettaScriptFont, 'Giovanetta Script Font';}.cls-31{fill:#dd963e;font-size:25.11px;}.cls-32{fill:#beca9a;opacity:.6;}.cls-25{opacity:.28;}</style><clipPath id="clippath"><rect class="cls-1" x="58.61" y=".05" width="355.84" height="276.46"/></clipPath></defs><g id="img"><g><rect class="cls-20" x="58.61" y="0" width="355.84" height="276.51"/><g><path class="cls-16" d="M224.71,129.58c-.47-.63-.38-1.17-.42-4.41-.08-6.54-.13-10.4-1.33-13.77-1.67-4.73-5.15-7.28-6.81-8.49-.16-.12-.32-.22-.64-.44-4.67-3.1-10.06-5.83-11.44-6.45-8.28-3.71-21.05,1.98-21.12,1.62-.08-.42,17.36-5.3,21.08-6.23l.07-.02c1.33-.33,2.92-.53,5.4-.35,5.69,.42,11.53,3.17,11.53,3.17,6.44,2.93,10.93,6.73,12.93,8.55,7.06,6.39,11.89,10.76,11.41,15.78-.85,8.83-17.66,15.08-20.67,11.04Z"/><path class="cls-16" d="M213.61,141.75c-.29-.37-.39-.86-.31-3.14,.12-3.5,.43-5.01,.54-6.71,.14-2.08,.52-7.87-2.26-11.26-.69-.84-1.52-1.47-1.57-2.63-.06-1.4,1.05-2.64,1.92-3.23,2.08-1.42,4.83-.44,6.46,.81,2.66,2.04,3.19,5.46,3.32,6.26,.48,3.07-.44,5.63-.72,6.38-1.04,2.82-2.32,3.14-2.25,4.74,.12,2.59,3.52,3.14,3.49,5.05-.04,2.71-6.96,5.8-8.62,3.73Z"/><path class="cls-21" d="M240.2,127.51c.57-2.47,1.19-6.55,.27-11.19-1.52-7.6-6.33-12.33-12.61-18.33-4.95-4.73-7.42-7.09-11.27-9.01-10.92-5.44-25.67-4.18-33.82,5.28-1.72,1.99-4.51,5.24-4.29,9.32,.38,7.11,9.7,12.96,16.64,14.91,4.83,1.36,6.31,.23,10.47,2.49,1.59,.87,8.18,4.46,8.59,10.56,.2,3.03-1.14,6.55-3.49,8.7-6.75,6.17-19.47-.98-26.3,3.11-.67,.4-2.45,1.47-3.49,3.73-.66,1.44-.79,2.84-.81,4.97-.03,3.41-.05,6.95,.67,9.45,.79,2.74,2.97,5.93,12.48,10.12,11.7,5.16,17.55,7.73,25.02,5.92,11.5-2.79,17.81-12.81,18.73-14.31,9.67-15.85,3.73-34.23,3.22-35.73Z"/><path class="cls-11" d="M251.65,92.53c-.03-1.41-.17-4.8-1.94-8.24-.79-1.53-2.52-4.88-4.83-4.97-3.22-.13-6.53,6.1-7.25,11.5-.48,3.6,.48,4.7,0,11.19-.3,4.08-.73,4.23-.54,5.9,.64,5.67,6.36,11.69,9.93,10.56,5.23-1.65,4.81-18.25,4.62-25.94Z"/><path class="cls-22" d="M239.51,110.97c-.27-.18,.72-1.71,.87-5.05,.08-1.61-.1-2.42-.52-5.86-.47-3.8-.7-5.7-.7-6.87,.01-2.49,.06-5.35,1.75-7.48,.37-.47,1.62-2.04,3.14-1.82,1.66,.24,2.56,2.46,2.87,3.22,.97,2.39,.7,4.78,.45,6.28-1.47,8.95-7.2,18.02-7.86,17.58Z"/><g><path class="cls-13" d="M248.38,86.3c-2.2,.54-3.18,4.49-4.71,11-1.56,6.62-.7,6.44-1.66,8.62-2.68,6.08-8.53,5.63-14.68,11.29-.34,.31-.68,.64-1.04,1.03-3.22,3.48-4.85,6.93-5.47,8.28-5.05,10.87-10.5,16.34-15.1,31.35-2.55,8.33-4.13,13.49-3.93,20.92,.1,3.86,.73,18.3,9.43,26.74,5.06,4.91,10.75,6.19,18.53,7.95,5.35,1.21,9.06,1.42,29.16,1.2,.5,0,11.62,.19,29.64-.89,15.52-.93,17.51-1.47,19.94-2.67,9.19-4.56,13.79-13.24,16.07-17.53,5.45-10.28,6.02-20.15,6.37-26.15,.73-12.31,1.29-21.8-3.84-27.91-2.29-2.73-6.74-6-13.91-14.87-.23-.29-.18-.26-.25-.31-11.42-7.89-16.07-4.12-23.54-12.18-2.67-2.89-6.77-8.43-10.25-14.26-3.48-5.83-4.63-9.08-7.76-9.81-4.67-1.08-9.37,4.49-10.8,2.97-.99-1.05,.75-4.3,0-4.75-.73-.45-2.12,2.79-4.71,3.27-3.28,.6-4.95-3.89-7.48-3.27Z"/><path class="cls-10" d="M331.37,155.76c-.48-.09-1.19,3.42-3.6,11.29-3.42,11.16-5.14,16.74-6.65,16.64-2.01-.14-1.62-9.6-5.26-23.77-3.51-13.64-8.77-23.93-9.14-23.77-.31,.13,2.64,7.34,5.54,18.72,2.05,8.06,8.69,36.32,.83,41.9-.65,.46-1.36,.74-4.99,2.97-3.58,2.21-5.58,3.75-6.92,4.46-4.13,2.18-7.55,3.98-12.19,5.35-6.26,1.85-8.2,.99-22.44,2.08-1.16,.09-2.92,.23-5.26,0-2.9-.28-3.48-.82-5.26-.89-4.2-.17-5.73,2.77-7.76,2.67-6.69-.32-10.6-33.4-11.36-33.28-.48,.07-2,13.72,.55,23.48,.31,1.19,1.28,4.61-.28,6.54-1.33,1.64-3.8,1.34-3.88,2.08-.11,1.1,4.71,2.38,4.71,2.38,10.35,2.74,20.63,2.63,24.1,2.67,5.05,.07,3.67-.2,14.4-.3,7.98-.07,11.36,.05,17.17-.59,6.31-.7,9.35-1.64,11.36-2.38,2.04-.75,5.26-1.96,8.59-4.46,4.89-3.66,7.36-8.09,9.42-11.89,4.37-8.03,5.67-15.21,6.92-22.29,1.7-9.62,2.19-19.47,1.38-19.61Z"/><path class="cls-8" d="M246.34,87.93c.19-1.57,3.24-.89,5.63-3.9,1.76-2.22,1.15-3.92,3.13-5.67,1.36-1.21,1.93-.64,4.06-1.77,.39-.21,3.58-1.96,5.63-5.67,1.94-3.52,1.06-5.56,2.81-6.73,1.62-1.08,4.25-.58,5.31,1.06,.67,1.04,.56,2.27,.31,4.6-.39,3.71-1.17,3.72-1.25,6.02-.09,2.77,1.02,3.14,1.56,7.79,.24,2.08,.36,3.14,0,4.25-.77,2.37-3.11,4.42-5.31,4.25-2.2-.17-2.76-2.43-4.38-2.13-1.83,.35-1.59,3.32-3.75,4.6-2.14,1.28-4.85-.18-8.44-2.13-2.33-1.26-5.51-2.98-5.31-4.6Z"/><path class="cls-12" d="M257.73,101.08c-2.96,2.04,.79,8.1-2.71,12.52-2.89,3.64-6.84,2.26-14.28,7.11-7.13,4.66-3.77,9.43-14.59,27.34-1.67,2.77-5.38,8.66-7.35,17.09-1.06,4.55-.99,7.14,.34,8.66,2.35,2.68,7.39,1.2,7.71,1.1,7.86-2.45,8.3-12.45,13.07-12.7,5.45-.28,10.68,12.48,11.1,12.18,.19-.13-1.11-2.63-.96-2.74,.1-.07,2.01,4.44,5.42,7.2,4.12,3.33,10.98,4.56,14.36,1.23,2.1-2.07,1.7-5.2,2.24-5.21,1.86-.05,4.5,36.46,5.9,36.41,1.16-.04-2.58-24.79,7.69-31.36,5.33-3.41,11.42,.7,16.39-5.19,1.03-1.22,4.83-5.72,3.92-10.46-.6-3.13-2.7-3.45-5.56-9.59-.49-1.06-1.41-3.05-2.17-5.8-1.15-4.17-1.4-7.57-1.47-8.43-.75-9.55-8.28-24.24-9.48-23.78-1.36,.52,6.51,20.02,2.46,22.62-2.59,1.67-10.25-3.46-11.5-9.87-.86-4.39,1.71-6.24,1.6-13.59-.04-2.56-.11-7.06-2.8-9.41-3.55-3.11-10.21-1.23-10.21-.96,0,.16,2.08,.52,2.21,.14,.29-.82-7.89-6.88-11.34-4.5Z"/><path class="cls-13" d="M261.07,86.54c-1.05,.84-1.88,1.55-2.46,2.04-1.48,1.27-1.82,1.64-2.68,2.07-.25,.13-1.11,.54-2.27,.75-.73,.13-1.3,.13-1.71,.13-.96,0-1.73,0-2.44-.28-1.67-.65-1.81-2.41-2.53-2.39-1.36,.03-2.36,6.22-2.86,9.7-.83,5.87-1.11,10.37-1.16,11.2,0,0-.54,9.12-.25,19.47,.09,3.34,.28,7.02,.28,7.02,.08,1.53,.15,2.94,.28,4.79,.57,8.06,1.34,11.66,1.59,12.75,.1,.46,.21,.91,.44,1.82,0,0,.8,3.25,2.08,7.87h0c-3.72-30.87-3.27-42.56-1.79-46.85,.27-.78,1.07-2.76,1.85-5.85,1.19-4.72,1.08-7.1,2.51-11.05,.7-1.93,1.46-3.4,1.95-4.26"/><path class="cls-27" d="M261.04,87.14l2.54-6.63c.06-.15,.12-.31,.23-.42,.17-.17,.42-.16,.65-.15l3.99,.21c.48,.03,1.05-.01,1.28-.5,.08-.17,.12-.39,.27-.47,.11-.06,.23-.02,.34,.03,.9,.41,1.55,1.35,1.91,2.38,.36,1.03,.46,2.16,.52,3.27,.01,.24,.02,.51-.11,.7-.09,.14-.24,.21-.38,.27-2.01,.82-4.54,.41-5.98,2.22-.56,.7-.85,1.62-1.33,2.38-.67,1.05-1.73,1.77-2.86,1.92-.39,.05-.81,.03-1.12-.24-.32-.28-.45-.77-.52-1.24-.15-1.12-.02-2.29,.37-3.33"/><g><path class="cls-7" d="M205.84,135.22c3.37,.99,4.97,4.09,5.25,4.65,2.09,4.25-1.24,5.84,.22,12.38,.55,2.49,1.7,5.22,.44,7.65-.19,.37-.46,.79-.96,1.77-1.12,2.26-1.68,3.41-1.37,4.43,.39,1.28,1.93,1.86,2.3,2.01,3.26,1.23,4.98-1.88,8.82-1.84,1.91,.02,4.88,2.15,10.76,6.4,4.17,3.02,3.59,2.83,4.93,3.66,5.63,3.49,8.83,2.49,14.06,4.48,1.75,.67,9.95,3.78,12.7,11.33,2.67,7.32-1.39,14.36-2.26,15.88-4.31,7.48-11.67,9.78-13.77,10.4-1.85,.55-8.05,2.13-14.91-.19-8.03-2.72-9.24-8.18-16.42-8.46-1.3-.05-4.61-.18-7.65,1.77-2.99,1.91-3,4.08-5.55,5.55-.94,.54-3.19,1.54-10-.24-10.07-2.63-9.69-6.02-15.45-6.24-3.33-.13-7.12,1.12-14.69,3.62-1.12,.37-2.47,.84-4.65,1.49-4.94,1.48-7.83,2-9.58,2.27-4.95,.75-6.28,.25-6.77,.04-1.92-.82-2.97-2.26-3.96-3.67-2.37-3.35-2.91-6.66-3.4-9.95-.81-5.36-1.27-8.38,.46-9.85,.29-.25,2.5-.92,6.9-2.25,.78-.24,1.67-.5,2.26-1.32,.84-1.15,.6-2.73,.49-3.53-.31-2.09-1.24-2.7-.86-3.76,.26-.72,.8-.74,1.88-1.6,2.28-1.81,2.03-3.44,3.4-3.97,1.89-.73,4.93,1.38,4.72,2.27-.35,1.51-10.07-.22-12.25-.61-2.17-.39-3.63-.77-4.58-2.02-.81-1.07-.86-2.42-.95-5.11-.09-2.61-.11-3.94,.77-4.68,.71-.59,1.25-.18,3.24-.43,1.23-.15,3.97-.5,5.47-2.27,1.23-1.45,.47-2.49,1.51-3.4,1.72-1.52,5.37-.02,7.74,.95,2.39,.98,5.29,2.17,7.92,4.92,1.18,1.23,1.75,2.19,3.21,2.65,1.38,.43,3.41,.36,4.72-.95,1.66-1.65,1.47-4.59,.38-6.24-.97-1.46-2.49-1.69-2.46-2.71,.02-.47,.36-.93,1.71-1.83,2.22-1.47,4.21-2.16,4.53-2.27,5.41-1.83,5.64-1.42,7.17-2.46,1.83-1.25,2.98-2.86,3.32-3.35,1.08-1.53,.87-1.91,1.58-2.89,1.95-2.69,4.68-1.54,7.36-3.78,2.45-2.05,1.1-3.78,3.58-6.24,1.97-1.95,5.41-3.43,8.69-2.47Z"/><path class="cls-17" d="M212.97,202.89c-.78,.46-.53,2.83,.89,3.86,1.44,1.05,3.09,.02,4.67,1.17,1.29,.94,.73,2.01,1.82,2.54,1.54,.75,4.04-.74,6.16-2,2.03-1.21,1.96-1.54,3.27-2.28,1.99-1.13,3.43-1.08,8.48-1.57,7.21-.7,8.44-1.21,9.44-.29,1.54,1.43-.27,3.67,1.44,5.28,1.46,1.38,4.45,1.31,6.42,.5,3.35-1.37,4.16-5,4.62-7.06,.29-1.28,.89-4.17-.64-7.42-.42-.89-1.81-3.85-5.12-5.42-3.07-1.46-6.73-1.23-12.65-2.14-.9-.14-1.92-.31-2.64-1.05-.79-.82-.68-1.77-1.37-1.95-.71-.18-1.2,.75-1.92,.57-.74-.18-.55-1.27-1.44-1.86-.81-.53-1.57-.03-2.82-.15-2.07-.19-3.48-1.87-4.54-3.14-.5-.6-1.67-2.13-2.23-4.43-.79-3.29,.43-5.03-.64-5.71-1.02-.64-3.34,.14-4.66,1.48-2.07,2.1-.4,4.29-2.55,6.38-.94,.91-2.55,1.74-4.16,1.57-1.3-.13-2.44-.89-3.28-1.46-1.38-.93-1.54-1.47-1.84-1.39-1.26,.3-1.4,10.27,3.36,12.28,.61,.26,2.38,.31,5.92,.43,3.86,.12,4.51-.04,5.76,.43,2.23,.83,4.61,3,4.16,4.57-.64,2.24-7.03,3.15-9.92,3.57-2.18,.31-3.84,.36-4,1-.19,.79,1.99,2.08,3.52,2.71,1.63,.67,2.36,.54,3.04,1.28,.87,.94,.99,2.6,.32,3-1.39,.82-5.56-4.06-6.88-3.28Z"/><path class="cls-17" d="M184.68,198.69c-.21,.15-.58,.42-1.13,.75-1.69,1.01-3.19,1.48-3.83,1.67-.36,.1-.71,.19-1.24,.3-4.54,.97-5.83,.4-6.66,1.39-.83,.98,.15,1.88-.57,4.14-.54,1.71-1.61,2.79-2.16,3.35-2.71,2.74-7.64,4.29-10.49,2.43-1.28-.84-.83-1.51-1.95-2.19-3.43-2.08-8.57,3.69-11.66,1.71-1.24-.8-1.81-2.64-2.08-3.53-.3-.97-.62-2.02-.32-3.21,.36-1.43,1.29-1.67,3.36-4.01,2.04-2.3,1.65-2.63,2.4-2.89,2.07-.7,5.4,1.7,8.8,4.17,.8,.58,1.27,.96,1.76,.8,1.33-.43,.3-4.07,2.31-8.15,.65-1.31,1.37-2.77,2.92-3.4,2.26-.91,5.35,.34,6.77,2.4,1.77,2.55,.34,5.44,1.44,5.94,1.63,.74,4.29-5.8,8.96-5.94,2.55-.07,5.07,1.78,4.96,2.73-.04,.38-.57,.77-1.63,1.54Z"/><path class="cls-17" d="M195.65,172.91c-.09,.46,1.41,1.08,4.61,2.44,2.96,1.26,3.46,1.5,4.26,1.31,1.36-.32,2.11-1.51,2.89-2.76,1.72-2.74,1.9-5.55,2.02-7.79,.11-2.09,.16-3.14-.26-4.24-.35-.91-1.86-2.29-4.86-5-.64-.58-1.25-1.12-1.71-.93-.53,.22-.36,1.25-.8,2.73-.04,.12-.54,1.76-1.44,2.73-1.9,2.04-4.94,.47-5.78,1.91-.98,1.68,1.87,6.08,2.09,6.43,.46,.71,1.12,1.6,.8,2.25-.37,.75-1.74,.51-1.83,.94Z"/><path class="cls-17" d="M204.9,135.02c-1.51,.07-2.95,1.03-3.74,2.3-1.1,1.77-.91,4.08,.06,5.54,.42,.63,1.97,1.57,5.06,3.44,.99,.6,1.53,.91,2.08,1.6,.72,.9,1.09,2,1.44,3.05,.44,1.29,.5,1.94,.64,1.92,.22-.02,.14-1.65,.5-4.64,.12-1,.19-1.53,.33-2.31,.31-1.71,.51-1.91,.51-2.8,0-1.1-.31-1.15-.35-2.45-.05-1.44,.31-1.59,.11-2.22-.55-1.7-3.78-2.19-3.81-2.11-.02,.06,1.4,.71,1.44,.64,.05-.09-1.95-2.09-4.26-1.98Z"/><path class="cls-26" d="M156.82,188.65c-1.38,.2-2.89-.99-3.36-2.41-.65-1.94,.64-4.32,2.24-4.65,.88-.18,1.68,.3,2.24,.64,.48,.29,1.97,1.19,2.03,2.67,.04,1.07-.69,1.87-1.23,2.46-.49,.54-1.07,1.16-1.92,1.28Z"/><path class="cls-17" d="M170.05,189.57c-2.14-.66-2.36-1.86-5.05-3.48-1.36-.82-1.92-.88-1.93-1.29-.02-.98,3.15-1.85,5.6-1.97,.99-.05,2.81-.13,3.28,.78,.25,.49-.12,.82-.24,1.83-.26,2.22,1.19,3.51,.64,4.17-.44,.53-1.71,.14-2.3-.04Z"/><path class="cls-17" d="M198.39,197.65c-1.59,1.41-.75,3.59-2.03,4.31-.92,.51-1.57-.48-2.56,0-1.44,.69-1.53,3.45-1.6,5.61-.05,1.4-.07,2.1,.16,2.73,1.17,3.21,6.31,4.51,7.04,3.53,.45-.61-.64-2.25-.64-2.25,0,0,.71,3.61,2.4,4.01,1.77,.42,2.63-3.14,7.36-5.61,1.35-.7,2.03-.81,2.4-1.6,.65-1.39-.59-2.84-1.92-6.42-.51-1.38-.77-2.37-1.28-4.33-.96-3.7-1.53-5.88-1.76-8.82-.11-1.37-.14-2.84-.48-2.89-.4-.05-.39,1.94-1.76,2.89-1.65,1.14-3.68-.32-4.56,.73-.51,.6-.27,1.6,.08,3.12,.52,2.23,1.39,2.98,.96,3.85-.33,.69-.95,.39-1.81,1.15Z"/><g><path class="cls-9" d="M160.31,179.12c.87-2.21,1.75-4.42,2.62-6.64,.61-1.54,1.22-3.21,.79-4.8-.6-2.22-2.93-3.42-5.03-4.35l-5.16-2.29c-.56-.25-1.14-.5-1.75-.48-.71,.03-1.35,.42-1.92,.83-1.78,1.27-3.34,2.88-5.3,3.83-1.96,.95-4.18,1.18-6.21,1.98-.39,.15-.79,.35-1.01,.7-.25,.41-.2,.93-.13,1.4,.53,3.64,1.72,7.19,3.48,10.41,.3,.55,.65,1.12,1.21,1.4,.6,.3,1.3,.2,1.95,.08,2.46-.46,4.86-1.21,7.15-2.24,.53-.24,1.15-.5,1.67-.24,1.14,.57,.24,2.39,.73,3.56,.6,1.4,2.6,1.1,4.11,1.29,1.81,.22,3.41,1.6,3.91,3.35,.8-2.59,.39-5.54-1.1-7.81Z"/><path class="cls-9" d="M176.3,179.04c-.17,.61-.38,1.23-.28,1.85,.19,1.07,1.23,1.72,2.13,2.31,3.03,1.93,5.67,4.45,7.75,7.38,.47,.66,1.3,1.43,1.95,.94,.49-.37,.35-1.13,.16-1.72l.25-.55c-1.8-2.63-3.31-5.48-4.48-8.45,1.68-1.13,1.84-3.56,1.41-5.54-.94-4.35-3.93-8.22-7.9-10.21-1.14,4.55,.25,9.47-.99,13.99Z"/><path class="cls-9" d="M182.16,154.43c-.13,.55,.35,1.08,.89,1.23,.53,.15,1.11,.04,1.66-.05,1.56-.24,3.25-.23,4.62,.56,2.24,1.29,2.91,4.17,3.36,6.72,2.72-4.03,5.62-7.94,8.66-11.73l.32-.4c.31-1.62,.35-3.29,.13-4.93l-.97,.13c.07,.41-.26,.92-.59,1.25-2.24,2.33-5,4.84-8.19,4.43-.91-.12-1.79-.48-2.7-.58-2.32-.26-4.48,1.13-6.4,2.46-.34,.23-.7,.5-.78,.9Z"/><path class="cls-9" d="M193.06,143.69c2.34,.57,4.67,1.14,7.01,1.7,.22,.05,.44,.11,.6,.27,.09,.09,.14,.2,.16,.31l.97-.13c-.24-1.79-.8-3.54-1.65-5.13-2.46,.73-4.85,1.72-7.09,2.97Z"/><path class="cls-9" d="M236.19,182.88c-.06,.24-.12,.48-.1,.72,.03,.55,.44,1.02,.93,1.27,.48,.26,1.04,.33,1.58,.41,1.19,.16,2.63,.22,3.35-.75,.46-.64,.42-1.5,.31-2.28-.16-1.09-.45-2.19-1.08-3.09-.63-.91-1.62-1.61-2.72-1.66l-.7-.28c-.23,.28-.32,.64-.41,.99-.38,1.56-.77,3.12-1.16,4.68Z"/></g></g></g></g><g class="cls-3"><g><polygon class="cls-24" points="94.28 250.42 36.97 225.36 56.96 180.45 114.27 205.52 94.28 250.42"/><path class="cls-17" d="M122.14,261.32c.79,1.64,2.06,4.29,4.87,5.84,1.98,1.09,3.77,1.11,3.88,1.96,.14,1.03-2.49,1.31-4.71,3.75-1.99,2.18-2.5,4.8-2.95,7.08-.37,1.89-.68,3.47-.28,5.5,.73,3.72,3.27,6.06,4.99,7.64,1.25,1.15,2.53,2.32,4.58,3.11,1.48,.58,2.23,.51,8.28,.65,3.94,.09,5.91,.14,7.14,.2,4.17,.22,4.23,.43,5.32,.2,3.69-.8,6.04-3.88,6.66-4.69,2.06-2.7,1.43-3.94,3.64-5.75,.77-.63,1.06-.65,3.49-2.41,1.17-.85,1.85-1.34,2.67-2.04,.48-.41,2.09-1.79,3.22-3.28,1.97-2.6,.97-3.58,2.47-5.93,2.04-3.21,4.44-2.26,7.17-6.07,.7-.98,1.77-2.52,1.75-4.55,0-1.25-.42-1.77-1.59-4.24-2.28-4.8-2.13-5.77-4.03-8.6-.98-1.46-1.48-2.19-2.34-2.83-2.28-1.68-4.15-.96-5.17-2.41-1.03-1.46,.43-2.81-.39-4.48-.35-.7-1.47-2.23-7.49-2.6-6.25-.38-10.82,.86-10.82,.86-17.56,4.78-23.16,.6-28.1,6.34-3.92,4.56-4.52,11.98-2.23,16.75Z"/><path class="cls-17" d="M56.53,216.75h0c1.03-.6,3.57-1.9,6.38-1.19,.5,.13,1.42,.42,3.3,1.87,2.39,1.84,4.89,3.76,6.51,7.33,1.66,3.67,1.39,6.86,1.32,7.52-.09,.92-.24,2.25-1,3.69-1.11,2.1-2.83,3.13-3.77,3.75-4.26,2.83-10.08,9.07-12.26,14.53-.29,.73-.84,2.24-2.09,2.61-1.15,.35-1.97-.54-4.47-1.38-1.25-.42-1.07-.21-4.04-.88-3.24-.73-4.85-1.1-5.94-1.77-.85-.52-3.37-2.07-3.46-4.22-.11-2.56,3.31-4.04,2.73-5.47-.39-.96-1.94-.32-3.32-1.71-.8-.8-1.08-2.01-1.66-4.43-.33-1.39-.26-1.49-.53-2.71-.75-3.36-1.51-3.6-1.67-5.26-.18-1.83,.66-2.44,2.13-6.11,1.38-3.44,1.49-5.03,1.93-6.1,1.13-2.75,5.85-5.51,21.97-5.25"/><path class="cls-4" d="M98.81,170.84c.25-.54,.96-2.01,.58-3.69-.34-1.51-1.38-2.48-1.61-2.68-1.81-1.63-3.47-.84-4.81-2.4-.73-.86-.24-1.1-1.04-2.46-1.11-1.9-2.34-1.89-4.02-3.8-1.56-1.77-.83-2.13-2-3.17-2.07-1.84-4.07-.45-7.22-2.35-1.32-.8-2.17-1.76-2.62-2.28-1.37-1.58-1.53-2.59-2.34-3.97-2.42-4.16-7.02-5.5-7.75-5.7-1.15-.32-2.83-.75-4.64-.04-.48,.19-1.5,.6-2.2,1.59-1.19,1.69,.05,2.89-1.08,4.82-.74,1.27-1.58,1.26-1.94,2.59-.29,1.06,.09,1.61-.36,2.09-.55,.59-1.54,.2-3,.13,0,0-2.56-.13-5.06,1.07-1.91,.91-1.39,1.65-3.75,3.44-2.62,1.99-3.75,1.45-5.9,3.57-.78,.78-1.38,1.59-2.02,2.46-1.15,1.56-1.72,2.34-1.87,3.14-.32,1.7,.83,1.93,.81,4.35,0,1.65-.55,3.6-.55,3.6h0s1.22,1.62,1.6,3.13c.43,1.66-.16,3.14-.36,3.66-.67,1.7-1.4,1.5-2.98,3.75-.62,.88-1.19,2.14-2.32,4.67-.41,.91-.69,1.57-.73,2.48-.06,1.08,.25,1.7,.43,2.45,.46,1.94-.37,2.86-.86,5.63-.39,2.27-.25,4.05-.14,5.38,.05,.62,.29,3.18,1.59,6.64,1.72,4.57,3.11,8.27,6.35,9.56,2.09,.83,2.87-.17,5.79,1.06,1.97,.83,2.38,1.61,4.24,1.96,1.8,.34,3.31-.03,4.37-.29,.95-.23,1.46-.46,4.39-1.88,4.68-2.26,4.92-2.42,5.3-2.85,1.49-1.69,.6-2.53,2.28-4.76,1.4-1.86,2.37-1.73,3.42-3.52,.4-.68,.64-1.35,1.09-4.05,.88-5.32,.67-7.11,1.49-7.37,.79-.25,1.51,1.26,3.59,2.98,2.06,1.7,4.67,2.95,6.13,3.17,7.48,1.09,14.31-20.72,19.7-32.1Z"/><path class="cls-4" d="M44.21,291.12c-.44,.51-1.64,1.89-1.61,3.92,.03,1.82,1.03,3.31,1.25,3.62,1.76,2.51,3.94,2.26,5.15,4.52,.66,1.24,.01,1.33,.63,3.16,.85,2.55,2.32,3.01,3.86,5.79,1.43,2.58,.46,2.71,1.6,4.32,2.02,2.85,4.74,2.04,8.04,5.37,1.38,1.39,2.16,2.8,2.56,3.55,1.25,2.29,1.19,3.48,1.81,5.35,1.86,5.58,7.02,8.83,7.84,9.34,1.29,.79,3.19,1.92,5.53,1.8,.63-.03,1.94-.1,3.03-.96,1.84-1.44,.65-3.27,2.49-5.01,1.2-1.14,2.2-.82,2.96-2.18,.6-1.08,.3-1.84,.95-2.21,.8-.45,1.89,.36,3.61,.99,0,0,3.02,1.11,6.31,.72,2.51-.3,2.07-1.33,5.32-2.45,3.62-1.24,4.84-.2,7.92-1.78,1.13-.58,2.05-1.27,3.02-2,1.76-1.32,2.64-1.98,3.01-2.82,.8-1.78-.51-2.48,.11-5.19,.42-1.85,1.55-3.84,1.55-3.84h0s-1.05-2.28-1.14-4.12c-.1-2.02,.96-3.47,1.34-3.97,1.22-1.65,2.04-1.15,4.48-3.09,.96-.76,1.95-1.96,3.93-4.36,.72-.87,1.21-1.51,1.49-2.51,.33-1.19,.12-2,.1-2.91-.07-2.36,1.15-3.07,2.41-6,1.03-2.4,1.3-4.45,1.49-5.99,.09-.71,.44-3.69-.25-8.06-.92-5.79-1.66-10.47-5.22-13.14-2.29-1.72-3.47-.89-6.65-3.38-2.15-1.68-2.44-2.71-4.58-3.81-2.07-1.06-3.96-1.22-5.28-1.33-1.19-.1-1.85-.03-5.71,.45-6.15,.77-6.47,.85-7.03,1.19-2.2,1.33-1.34,2.61-3.9,4.48-2.14,1.56-3.25,1.05-4.95,2.66-.65,.61-1.1,1.27-2.3,4.13-2.37,5.64-2.56,7.73-3.6,7.71-1-.02-1.49-1.99-3.55-4.71-2.04-2.68-4.84-5.08-6.54-5.88-8.66-4.06-22.21,17.86-31.46,28.59Z"/><path class="cls-5" d="M79.91,242.77h0l-.09-.07s-.84-.64-1.74-1.2c-4.1-2.55-8.67-3.19-8.67-3.19-1.82-.26-1.78,0-6.4,.1-7.77,.15-8.76-.57-9.97,.53-2.49,2.25-1.47,8.12-.08,11.12,.38,.82,1.3,2.52,2.43,5.07,.79,1.79,.71,1.8,1.13,2.55,.7,1.26,1.14,1.65,1.05,2.32-.12,.86-.94,1.02-1.44,1.84-.98,1.59,.26,3.99,.48,4.41,1.92,3.73,6.17,3.55,6.58,6.29,.1,.67-.16,.63-.57,2.43-.61,2.67-1.18,5.16-.18,7.19,1.55,3.15,6.26,3.87,7.63,4.08,1.23,.19,1-.02,2.74,.19,2.4,.29,5.08,.61,7.5,2.27,1.69,1.16,1.37,1.69,3.35,2.92,1,.62,2.43,1.49,4.35,1.55,1.36,.04,2.34-.33,3.55-.81,.61-.24,1.51-.64,5.85-3.61,1.87-1.28,2.55-1.79,3.84-2.19,1.5-.47,1.77-.16,2.49-.61,2.22-1.4,1.8-5.69,1.69-6.76-.08-.83-.27-2.56-1.3-4.43-.74-1.35-1.62-2.23-1.48-2.38,.22-.22,1.89,1.99,4.77,2.57,.9,.18,1.83,.11,3.68-.05,2.31-.19,2.77-.53,2.99-.87,.34-.51,.06-.86,.14-2.08,.01-.22,.14-1.98,.9-3.07,.9-1.3,2.43-1.26,3.61-1.74,2.8-1.13,3.73-5.22,4.29-8.28,3-16.53,4.5-24.79,.93-28.21-5.65-5.41-21.36-2.46-36.27,10.18"/><g><path class="cls-15" d="M76.91,248.22c12.45,15.14,26.56,25.06,26.82,24.72"/><polygon class="cls-23" points="99.61 272.4 95.32 270.99 86.15 275.2 72.92 275.36 99.61 272.4"/><polygon class="cls-23" points="102.12 269.92 104.11 266.04 102.99 257.33 105.79 245.09 102.12 269.92"/><path class="cls-23" d="M100.52,266.72c.06-.01,1.24-7.31-1.84-13.35-5.01-9.82-18.07-10.02-18.05-10.08,.02-.06,12.31-.07,17.51,9.2,3.54,6.3,2.31,14.25,2.37,14.24Z"/><path class="cls-23" d="M97.54,269.51c0,.06-6.55,1.7-12.14-1.44-9.1-5.1-9.84-19.52-9.9-19.49-.06,.03,.48,13.61,9.08,18.94,5.85,3.63,12.98,1.93,12.97,1.99Z"/><polyline class="cls-23" points="104.63 270.98 108.69 272.34 112.91 269.64 102.82 271.48"/><polyline class="cls-23" points="99.54 276.08 97.03 279.28 97.27 283.44 99.89 274.43"/></g><g><polygon class="cls-19" points="66.51 196.01 62.6 191.36 49.03 189.69 33.7 180.48 66.51 196.01"/><polygon class="cls-19" points="71.18 194.94 76.28 191.89 81.27 181.09 93.32 169.01 71.18 194.94"/><path class="cls-19" d="M71.66,190.13c.07,.03,6.71-7.52,7.53-16.65,1.34-14.84-13.54-24.32-13.47-24.38,.07-.06,14.2,8.65,13.49,22.99-.48,9.75-7.63,18.02-7.56,18.04Z"/><path class="cls-19" d="M66.22,191.22c-.05,.07-8.75-2.69-12.92-10.27-6.77-12.31,2.78-29.41,2.69-29.43-.08-.01-9.27,15.98-3.24,28.21,4.1,8.32,13.52,11.41,13.47,11.48Z"/><polyline class="cls-19" points="73.3 197.94 76.99 202.39 83.79 202.27 70.86 197.23"/><polyline class="cls-19" points="63.77 200.2 58.58 202.09 55.86 207.05 65.37 198.55"/></g><g><path class="cls-19" d="M81.18,290.16c-.06-.01-2.33,4.56-1.77,10.36,.98,10.2,9.39,17.23,16.75,20.88,.71,.35,1.13,.53,1.12,.54-.33,.4-15.44-8.06-17.63-20.05-1.12-6.13,1.6-11.72,1.53-11.74Z"/><path class="cls-19" d="M101.6,286.46s1.41,1.45,1.8,1.88c6.35,7.08,4.76,22.45,3.32,28.05-.22,.86-.37,1.35-.36,1.35,.34-.02,4.41-20.49-2.2-28.31-.48-.57-2.6-2.94-2.57-2.97Z"/><polyline class="cls-19" points="80.52 275.41 76.05 271.73 69.4 273.12 83.05 275.65"/></g><path class="cls-7" d="M112.02,241.69c1.15-4.27,3.89-6.61,3.68-6.78-.26-.21-4.48,3.21-7.86,8.17-.55,.8-1.35,1.71-2.53,2.92-1.27,1.3-3.56,2.54-5.68,2.22-2.09-.32-2.53-1.94-4.37-1.76-1.16,.11-1.4,.8-2.65,1.36-1.89,.85-3.78,.36-6.6-.42-3.92-1.08-5.88-1.62-7.5-3.48-.27-.31-2.71-3.2-2.28-7.08,.13-1.16,.85-1.58,.59-2.3-.53-1.46-3.16-.61-5.08-2.35-.89-.8-.71-1.34-2.23-5.6-1.02-2.88-1.01-2.38-1.52-3.97-.84-2.66-1.72-5.43-1.09-8.69,.32-1.68,.97-3.1,1.28-3.79,.64-1.38,1.1-1.95,1.96-3.4,1.07-1.81,1.69-3.21,2.43-4.86,1.51-3.37,1.18-3.65,2.52-6.82,1.18-2.78,2.37-4.8,3.33-6.42,.97-1.63,2.14-3.59,4.01-5.94,.96-1.19,3.24-3.23,7.82-7.31,1.04-.93,2.2-1.93,3.49-1.72,1.39,.24,2.11,1.76,2.67,1.5,.54-.24-.2-1.61,.49-2.98,.84-1.67,3.16-2.13,4.06-2.3,1.1-.22,1.67-.33,2.28-.04,1.56,.74,1.05,2.98,2.49,3.61,.96,.42,2.37-.04,2.89-.87,.6-.95-.36-1.8,.08-3.08,.15-.44,.56-1.2,3.16-2.41,2.38-1.11,3.49-1.15,5.09-1.76,2.66-1.01,2.36-1.95,5.21-3.59,5.06-2.92,7.47-.81,10.68-3.73,.79-.72,1.78-1.87,3.44-2.08,1.04-.13,1.9,.18,2.66,.5,4.97,2.09,8.75,6.1,9.18,6.56,.8,.86,1.42,1.62,2.65,2.6,1.9,1.5,2.25,1.13,3.18,2.11,1.43,1.51,.77,2.58,2.47,5.64,.46,.83,.92,1.67,1.79,2.58,1.64,1.74,2.56,1.47,4.23,2.99,1.76,1.61,2.48,3.52,2.75,4.25,.26,.72,.12,.58,.74,4.71,.53,3.51,.69,4.02,.45,5.14-.32,1.52-.89,1.89-.62,2.69,.4,1.17,1.9,1.21,3.63,2.25,1.67,1.01,1.37,1.85,3.47,3.78,.71,.65,.85,.68,2.65,2.04,3.49,2.63,5.25,3.97,5.95,5.4,.68,1.38,.71,2.59,.75,4.17,.09,3.63-1.26,6.49-1.59,7.18-1.11,2.26-1.89,2.42-2.1,4.11-.17,1.4,.33,1.63,.23,3.9-.09,2.14-.59,3.28-.73,3.59-.41,.89-.84,1.36-1.42,2.08-1.98,2.46-1.67,2.93-3.38,5.15-2.04,2.66-2.56,2.11-3.76,4.15-1.23,2.09-1.52,4.11-1.6,4.84-.28,2.57,.54,2.8,.15,4.48-.36,1.57-1.96,2.96-5.13,5.68-2.2,1.89-3.33,2.84-4.66,3.4-1.7,.71-2.27,.48-4.51,1.43-2.1,.89-1.99,1.27-3.71,1.89-2.42,.87-4.54,.81-4.96,.8-2.48-.09-2.72-.85-4.18-.49-1.39,.35-1.31,1.08-3.74,2.61-1.55,.98-2.91,1.52-3.67,1.79,0,0-1.87,.66-3.62,.85-4.31,.47-8.64-2.7-10.05-3.74-1.33-.98-3.61-3.88-8.11-9.64-3.45-4.42-4.73-6.16-4.12-7.82,.54-1.48,2.05-1.48,3.38-3.92,.79-1.46,.57-2.15,1.07-3.98Z"/><path class="cls-7" d="M62.56,262.69c-2.98,1.47-5.66,1.1-5.65,1.3,0,.25,4.02,.91,8.5,.34,.72-.09,1.63-.1,2.9-.03,1.36,.07,3.2,.72,4.06,2.06,.85,1.32,.15,2.36,1.16,3.29,.64,.59,1.14,.38,2.08,.8,1.42,.63,2.07,1.92,3.02,3.88,1.32,2.71,1.98,4.07,1.73,5.88-.04,.3-.47,3.08-2.88,4.76-.72,.5-1.31,.3-1.59,.8-.56,1.02,1.21,2.06,1.17,3.98-.02,.89-.41,1.06-2.07,4-1.13,1.99-.85,1.74-1.5,2.8-1.09,1.78-2.23,3.63-4.38,4.89-1.11,.65-2.23,.99-2.78,1.15-1.09,.33-1.65,.35-2.89,.59-1.55,.3-2.65,.64-3.95,1.04-2.65,.83-2.65,1.14-5.1,1.96-2.16,.72-3.89,1.05-5.28,1.31-1.4,.26-3.09,.58-5.34,.7-1.15,.06-3.43-.21-7.99-.74-1.04-.12-2.18-.27-2.69-1.09-.55-.89-.05-2.04-.47-2.22-.4-.18-.81,.9-1.93,1.2-1.36,.36-2.76-.71-3.31-1.12-.67-.51-1.01-.77-1.15-1.25-.35-1.23,1.17-2.05,.81-3.17-.23-.74-1.19-1.3-1.92-1.18-.84,.14-.84,1.09-1.78,1.48-.32,.13-.95,.28-2.92-.57-1.8-.78-2.37-1.37-3.51-1.97-1.88-.98-2.27-.35-4.6-1.12-4.15-1.37-4.14-3.75-7.38-4.1-.79-.08-1.94-.06-2.87-.89-.58-.52-.84-1.14-1.03-1.73-1.27-3.8-.87-7.87-.82-8.34,.09-.87,.22-1.59,.16-2.75-.09-1.79-.47-1.81-.37-2.81,.15-1.54,1.08-1.7,1.97-4.15,.24-.66,.49-1.33,.58-2.27,.17-1.77-.43-2.15-.39-3.82,.04-1.77,.77-3.11,1.05-3.63,.28-.5,.27-.36,2.3-2.74,1.72-2.02,1.94-2.37,2.69-2.79,1.02-.57,1.51-.44,1.83-.99,.46-.8-.25-1.65-.52-3.13-.26-1.43,.37-1.68,.43-3.79,.02-.72-.03-.81-.15-2.48-.23-3.24-.34-4.88,.12-5.97,.45-1.06,1.12-1.67,1.99-2.47,2.01-1.84,4.29-2.5,4.85-2.65,1.82-.5,2.31-.14,3.36-.86,.87-.6,.76-.98,2.09-2.05,1.26-1.01,2.15-1.29,2.39-1.36,.71-.21,1.19-.2,1.87-.24,2.37-.12,2.48-.52,4.58-.67,2.51-.18,2.46,.39,4.2,.05,1.79-.35,3.08-1.18,3.52-1.5,1.6-1.11,1.32-1.68,2.46-2.3,1.07-.57,2.64-.37,5.74,.05,2.15,.3,3.25,.45,4.22,.92,1.24,.59,1.39,1.03,3.04,1.8,1.54,.73,1.7,.48,2.9,1.13,1.68,.92,2.7,2.12,2.9,2.36,1.17,1.42,.86,1.93,1.78,2.56,.88,.6,1.26,.2,3.32,.79,1.32,.38,2.29,.87,2.82,1.16,0,0,1.29,.71,2.26,1.59,2.4,2.16,2.73,6.14,2.84,7.43,.1,1.22-.41,3.92-1.45,9.26-.8,4.1-1.15,5.67-2.39,6.15-1.1,.43-1.85-.41-3.89,.05-1.22,.28-1.5,.74-2.78,1.37Z"/><path class="cls-17" d="M115.7,234.92c.36,.28,4.85-4.38,8.67-9.47,11.32-15.1,14.65-31.27,14.02-31.5-.49-.18-3.17,9.5-11.91,24.16-5.84,9.8-11.21,16.49-10.79,16.81Z"/><path class="cls-17" d="M69.73,196.33c.34-.02,.56-4.77,.2-9.43-1.07-13.83-7.11-24.41-7.57-24.24-.36,.13,2.87,6.8,5.17,19.15,1.54,8.25,1.82,14.55,2.2,14.52Z"/><path class="cls-17" d="M26.7,263.35c18.48,4.3,34.77,.9,34.74,.25"/><polygon class="cls-17" points="112.77 234.52 113.19 225.47 101.96 210.43 95.68 185.16 112.77 234.52"/><polygon class="cls-17" points="118.08 237.84 125.51 239.32 139.62 231.91 161.46 229.88 118.08 237.84"/><path class="cls-17" d="M122.73,232.84c.04,.1,12.84-2.03,21.6-11.58,14.23-15.52,8.61-40.68,8.73-40.68,.12,0,5.72,23.56-7.49,39.12-8.98,10.58-22.89,13.03-22.84,13.14Z"/><path class="cls-17" d="M116.69,228.81c-.11,.02-5.83-11.53-3.1-24.14,4.43-20.51,28.32-30.65,28.25-30.75-.07-.09-22.64,9.13-27.7,28.84-3.44,13.4,2.66,26.03,2.55,26.05Z"/><polyline class="cls-17" points="117.44 243.29 116.99 251.9 123.46 258.34 115.78 240.12"/><polyline class="cls-17" points="106.55 236.62 100.05 233.73 93.16 236.72 109.49 236.3"/><polygon class="cls-17" points="59.91 266.31 54.65 269.32 50.17 280.92 38.15 293.43 59.91 266.31"/><polygon class="cls-17" points="59.88 262.18 58.06 257.53 48.83 252.35 39.89 240.96 59.88 262.18"/><path class="cls-17" d="M55.4,261.39c.04-.06-5.74-6.4-14.26-7.84-13.85-2.34-26.05,9.76-26.09,9.69-.04-.07,11.26-11.59,24.76-9.83,9.18,1.2,15.54,8.04,15.58,7.98Z"/><path class="cls-17" d="M55.28,266.18c.05,.05-4.43,7.35-12.52,10.35-13.16,4.87-27.43-4.75-27.46-4.68-.03,.07,13.25,9.3,26.18,5.06,8.79-2.88,13.75-10.78,13.8-10.73Z"/><polyline class="cls-17" points="63.19 260.59 68.21 257.76 69.54 251.87 61.99 262.64"/><polyline class="cls-17" points="63.32 269.01 64.01 273.65 68.16 276.4 62.09 267.49"/><path class="cls-6" d="M101.85,243.62c1.12-.36,2.89-.94,4.68-2.42,2.8-2.3,3.51-5,5.28-9.47,2.42-6.11,2.82-5.42,4.59-10.01,4.31-11.2,1.19-13.4,4.57-19.71,2.9-5.41,4.99-3.42,14.24-13.11,9.02-9.45,9.34-13.76,9.19-15.91-.04-.63-.37-4.46-3.31-7.4-5.4-5.4-16.38-4.57-20.88,.39-3.98,4.39-.6,9.49-5.34,14.02-3.45,3.3-8.24,3.46-9.66,3.51-4.81,.16-10.32-1.82-10.32-3.6,0-1.02,1.83-2.04,2.2-1.74,.56,.45-1.37,4.78-4.74,7.74-3.54,3.11-5.43,1.87-6.96,4.39-1.58,2.59-.03,4.64-2.12,9.48-.5,1.17-1.03,2.06-1.31,2.51-2.34,3.78-4.16,3.84-5.49,6.71-.69,1.48-.8,2.76-.99,4.92-.14,1.63-.28,3.33,.27,5.47,.19,.74,.62,2.36,1.8,4.06,1.66,2.39,2.88,2.18,3.75,3.72,1.89,3.38-1.32,9.12-1.9,8.99-.36-.09-.34-2.59,.35-2.82,.99-.33,2.05,4.4,5.9,7.64,4.55,3.83,11.35,4.21,16.23,2.64Z"/><path class="cls-6" d="M65.46,271.58c-.57-.44-1.47-1.13-2.84-1.53-2.14-.62-3.76-.06-6.66,.58-3.96,.87-3.75,.43-6.71,1.12-7.22,1.67-7.28,3.99-11.68,4.45-3.77,.39-3.47-1.35-11.6-2.68-7.94-1.31-10.26,0-11.31,.82-.31,.24-2.16,1.71-2.66,4.2-.92,4.57,3.27,9.82,7.35,10.39,3.61,.5,5.07-2.95,9.02-2.11,2.88,.61,4.6,2.97,5.11,3.67,1.73,2.37,2.6,5.82,1.69,6.43-.52,.35-1.67-.22-1.65-.51,.04-.44,2.92-.95,5.6-.26,2.81,.72,2.82,2.1,4.64,2.01,1.87-.09,2.39-1.58,5.59-2.18,.77-.15,1.41-.19,1.74-.2,2.74-.12,3.39,.78,5.32,.47,1-.16,1.69-.54,2.86-1.19,.88-.48,1.8-1,2.72-2.01,.31-.35,1-1.12,1.47-2.29,.66-1.65,.13-2.2,.63-3.16,1.08-2.11,5.13-2.46,5.26-2.12,.08,.21-1.21,1.06-1.57,.79-.51-.39,1.55-2.54,1.9-5.59,.41-3.6-1.73-7.16-4.21-9.08Z"/><path class="cls-25" d="M108.69,272.34c-.61,0-.39-2.32-1.75-5.08-2.51-5.09-9.23-9.32-12.52-7.5-3.06,1.69-3.26,8.64-.94,13.32,2.05,4.13,5.41,5.2,4.91,6.55-.68,1.83-7.69,2.21-12.66-1.12-3.69-2.48-5.17-6.27-5.65-7.53-1.78-4.58-.05-6.03-2.17-11.78-.92-2.49-1.65-3.34-1.53-5.25,.16-2.4,1.61-5.4,4.16-6.26,2.2-.75,4.31,.4,6.97,1.86,3.05,1.67,3.74,2.99,8.27,5.7,1.45,.86,2.64,1.48,4.17,1.42,1.62-.07,2.01-.84,3.34-.64,1.42,.21,2.34,1.3,3.74,2.95,.96,1.13,1.89,2.24,2.52,3.78,1.79,4.38,.06,9.6-.85,9.6Z"/><path class="cls-32" d="M157.32,195.89c.54-.53,4.31,3.32,11.31,7.62,3.38,2.08,3.96,2.08,4.83,3.3,3.36,4.7,.1,12.08,.84,12.27,.4,.1,1.6-2.01,1.11-2.49-.74-.72-4.45,3.05-11.39,6.03-3.1,1.33-7.6,3.27-9.14,1.65-1.34-1.4,.11-4.9,.46-5.75,.98-2.38,1.85-2.28,3.44-5.04,.87-1.51,2.39-4.23,2.21-7.66-.07-1.38-.4-2.39-.79-3.62-1.34-4.18-3.26-5.95-2.89-6.32Z"/><path class="cls-32" d="M19.5,257.66c-.59-.13,.4-4.25,.34-10.68-.03-3.11-.28-3.49,.18-4.58,1.74-4.2,8.06-5.17,7.88-5.74-.1-.31-2.03-.2-2.14,.32-.17,.79,3.93,1.65,8.86,4.96,2.2,1.48,5.4,3.63,4.97,5.33-.37,1.47-3.33,2-4.05,2.13-2.01,.36-2.31-.26-4.84-.14-1.38,.06-3.85,.21-6.08,1.78-.9,.63-1.44,1.27-2.09,2.05-2.24,2.65-2.61,4.67-3.02,4.58Z"/></g><g><polygon class="cls-24" points="373.69 251.58 431 226.51 411.01 181.61 353.7 206.67 373.69 251.58"/><path class="cls-17" d="M345.84,262.47c-.79,1.64-2.06,4.29-4.87,5.84-1.98,1.09-3.77,1.11-3.88,1.96-.14,1.03,2.49,1.31,4.71,3.75,1.99,2.18,2.5,4.8,2.95,7.08,.37,1.89,.68,3.47,.28,5.5-.73,3.72-3.27,6.06-4.99,7.64-1.25,1.15-2.53,2.32-4.58,3.11-1.48,.58-2.23,.51-8.28,.65-3.94,.09-5.91,.14-7.14,.2-4.17,.22-4.23,.43-5.32,.2-3.69-.8-6.04-3.88-6.66-4.69-2.06-2.7-1.43-3.94-3.64-5.75-.77-.63-1.06-.65-3.49-2.41-1.17-.85-1.85-1.34-2.67-2.04-.48-.41-2.09-1.79-3.22-3.28-1.97-2.6-.97-3.58-2.47-5.93-2.04-3.21-4.44-2.26-7.17-6.07-.7-.98-1.77-2.52-1.75-4.55,0-1.25,.42-1.77,1.59-4.24,2.28-4.8,2.13-5.77,4.03-8.6,.98-1.46,1.48-2.19,2.34-2.83,2.28-1.68,4.15-.96,5.17-2.41,1.03-1.46-.43-2.81,.39-4.48,.35-.7,1.47-2.23,7.49-2.6,6.25-.38,10.82,.86,10.82,.86,17.56,4.78,23.16,.6,28.1,6.34,3.92,4.56,4.52,11.98,2.23,16.75Z"/><path class="cls-17" d="M411.44,217.9h0c-1.03-.6-3.57-1.9-6.38-1.19-.5,.13-1.42,.42-3.3,1.87-2.39,1.84-4.89,3.76-6.51,7.33-1.66,3.67-1.39,6.86-1.32,7.52,.09,.92,.24,2.25,1,3.69,1.11,2.1,2.83,3.13,3.77,3.75,4.26,2.83,10.08,9.07,12.26,14.53,.29,.73,.84,2.24,2.09,2.61,1.15,.35,1.97-.54,4.47-1.38,1.25-.42,1.07-.21,4.04-.88,3.24-.73,4.85-1.1,5.94-1.77,.85-.52,3.37-2.07,3.46-4.22,.11-2.56-3.31-4.04-2.73-5.47,.39-.96,1.94-.32,3.32-1.71,.8-.8,1.08-2.01,1.66-4.43,.33-1.39,.26-1.49,.53-2.71,.75-3.36,1.51-3.6,1.67-5.26,.18-1.83-.66-2.44-2.13-6.11-1.38-3.44-1.49-5.03-1.93-6.1-1.13-2.75-5.85-5.51-21.97-5.25"/><path class="cls-4" d="M369.17,171.99c-.25-.54-.96-2.01-.58-3.69,.34-1.51,1.38-2.48,1.61-2.68,1.81-1.63,3.47-.84,4.81-2.4,.73-.86,.24-1.1,1.04-2.46,1.11-1.9,2.34-1.89,4.02-3.8,1.56-1.77,.83-2.13,2-3.17,2.07-1.84,4.07-.45,7.22-2.35,1.32-.8,2.17-1.76,2.62-2.28,1.37-1.58,1.53-2.59,2.34-3.97,2.42-4.16,7.02-5.5,7.75-5.7,1.15-.32,2.83-.75,4.64-.04,.48,.19,1.5,.6,2.2,1.59,1.19,1.69-.05,2.89,1.08,4.82,.74,1.27,1.58,1.26,1.94,2.59,.29,1.06-.09,1.61,.36,2.09,.55,.59,1.54,.2,3,.13,0,0,2.56-.13,5.06,1.07,1.91,.91,1.39,1.65,3.75,3.44,2.62,1.99,3.75,1.45,5.9,3.57,.78,.78,1.38,1.59,2.02,2.46,1.15,1.56,1.72,2.34,1.87,3.14,.32,1.7-.83,1.93-.81,4.35,0,1.65,.55,3.6,.55,3.6h0s-1.22,1.62-1.6,3.13c-.43,1.66,.16,3.14,.36,3.66,.67,1.7,1.4,1.5,2.98,3.75,.62,.88,1.19,2.14,2.32,4.67,.41,.91,.69,1.57,.73,2.48,.06,1.08-.25,1.7-.43,2.45-.46,1.94,.37,2.86,.86,5.63,.39,2.27,.25,4.05,.14,5.38-.05,.62-.29,3.18-1.59,6.64-1.72,4.57-3.11,8.27-6.35,9.56-2.09,.83-2.87-.17-5.79,1.06-1.97,.83-2.38,1.61-4.24,1.96-1.8,.34-3.31-.03-4.37-.29-.95-.23-1.46-.46-4.39-1.88-4.68-2.26-4.92-2.42-5.3-2.85-1.49-1.69-.6-2.53-2.28-4.76-1.4-1.86-2.37-1.73-3.42-3.52-.4-.68-.64-1.35-1.09-4.05-.88-5.32-.67-7.11-1.49-7.37-.79-.25-1.51,1.26-3.59,2.98-2.06,1.7-4.67,2.95-6.13,3.17-7.48,1.09-14.31-20.72-19.7-32.1Z"/><path class="cls-4" d="M423.77,292.27c.44,.51,1.64,1.89,1.61,3.92-.03,1.82-1.03,3.31-1.25,3.62-1.76,2.51-3.94,2.26-5.15,4.52-.66,1.24-.01,1.33-.63,3.16-.85,2.55-2.32,3.01-3.86,5.79-1.43,2.58-.46,2.71-1.6,4.32-2.02,2.85-4.74,2.04-8.04,5.37-1.38,1.39-2.16,2.8-2.56,3.55-1.25,2.29-1.19,3.48-1.81,5.35-1.86,5.58-7.02,8.83-7.84,9.34-1.29,.79-3.19,1.92-5.53,1.8-.63-.03-1.94-.1-3.03-.96-1.84-1.44-.65-3.27-2.49-5.01-1.2-1.14-2.2-.82-2.96-2.18-.6-1.08-.3-1.84-.95-2.21-.8-.45-1.89,.36-3.61,.99,0,0-3.02,1.11-6.31,.72-2.51-.3-2.07-1.33-5.32-2.45-3.62-1.24-4.84-.2-7.92-1.78-1.13-.58-2.05-1.27-3.02-2-1.76-1.32-2.64-1.98-3.01-2.82-.8-1.78,.51-2.48-.11-5.19-.42-1.85-1.55-3.84-1.55-3.84h0s1.05-2.28,1.14-4.12c.1-2.02-.96-3.47-1.34-3.97-1.22-1.65-2.04-1.15-4.48-3.09-.96-.76-1.95-1.96-3.93-4.36-.72-.87-1.21-1.51-1.49-2.51-.33-1.19-.12-2-.1-2.91,.07-2.36-1.15-3.07-2.41-6-1.03-2.4-1.3-4.45-1.49-5.99-.09-.71-.44-3.69,.25-8.06,.92-5.79,1.66-10.47,5.22-13.14,2.29-1.72,3.47-.89,6.65-3.38,2.15-1.68,2.44-2.71,4.58-3.81,2.07-1.06,3.96-1.22,5.28-1.33,1.19-.1,1.85-.03,5.71,.45,6.15,.77,6.47,.85,7.03,1.19,2.2,1.33,1.34,2.61,3.9,4.48,2.14,1.56,3.25,1.05,4.95,2.66,.65,.61,1.1,1.27,2.3,4.13,2.37,5.64,2.56,7.73,3.6,7.71,1-.02,1.49-1.99,3.55-4.71,2.04-2.68,4.84-5.08,6.54-5.88,8.66-4.06,22.21,17.86,31.46,28.59Z"/><path class="cls-5" d="M388.07,243.93h0l.09-.07s.84-.64,1.74-1.2c4.1-2.55,8.67-3.19,8.67-3.19,1.82-.26,1.78,0,6.4,.1,7.77,.15,8.76-.57,9.97,.53,2.49,2.25,1.47,8.12,.08,11.12-.38,.82-1.3,2.52-2.43,5.07-.79,1.79-.71,1.8-1.13,2.55-.7,1.26-1.14,1.65-1.05,2.32,.12,.86,.94,1.02,1.44,1.84,.98,1.59-.26,3.99-.48,4.41-1.92,3.73-6.17,3.55-6.58,6.29-.1,.67,.16,.63,.57,2.43,.61,2.67,1.18,5.16,.18,7.19-1.55,3.15-6.26,3.87-7.63,4.08-1.23,.19-1-.02-2.74,.19-2.4,.29-5.08,.61-7.5,2.27-1.69,1.16-1.37,1.69-3.35,2.92-1,.62-2.43,1.49-4.35,1.55-1.36,.04-2.34-.33-3.55-.81-.61-.24-1.51-.64-5.85-3.61-1.87-1.28-2.55-1.79-3.84-2.19-1.5-.47-1.77-.16-2.49-.61-2.22-1.4-1.8-5.69-1.69-6.76,.08-.83,.27-2.56,1.3-4.43,.74-1.35,1.62-2.23,1.48-2.38-.22-.22-1.89,1.99-4.77,2.57-.9,.18-1.83,.11-3.68-.05-2.31-.19-2.77-.53-2.99-.87-.34-.51-.06-.86-.14-2.08-.01-.22-.14-1.98-.9-3.07-.9-1.3-2.43-1.26-3.61-1.74-2.8-1.13-3.73-5.22-4.29-8.28-3-16.53-4.5-24.79-.93-28.21,5.65-5.41,21.36-2.46,36.27,10.18"/><g><path class="cls-15" d="M391.06,249.38c-12.45,15.14-26.56,25.06-26.82,24.72"/><polygon class="cls-23" points="368.37 273.55 372.65 272.15 381.82 276.35 395.06 276.51 368.37 273.55"/><polygon class="cls-23" points="365.86 271.07 363.86 267.19 364.98 258.49 362.18 246.25 365.86 271.07"/><path class="cls-23" d="M367.45,267.88c-.06-.01-1.24-7.31,1.84-13.35,5.01-9.82,18.07-10.02,18.05-10.08-.02-.06-12.31-.07-17.51,9.2-3.54,6.3-2.31,14.25-2.37,14.24Z"/><path class="cls-23" d="M370.44,270.66c0,.06,6.55,1.7,12.14-1.44,9.1-5.1,9.84-19.52,9.9-19.49,.06,.03-.48,13.61-9.08,18.94-5.85,3.63-12.98,1.93-12.97,1.99Z"/><polyline class="cls-23" points="363.35 272.14 359.28 273.5 355.07 270.79 365.16 272.64"/><polyline class="cls-23" points="368.43 277.24 370.94 280.43 370.7 284.59 368.08 275.58"/></g><g><polygon class="cls-19" points="401.47 197.16 405.37 192.51 418.95 190.84 434.27 181.63 401.47 197.16"/><polygon class="cls-19" points="396.79 196.09 391.7 193.05 386.7 182.25 374.65 170.17 396.79 196.09"/><path class="cls-19" d="M396.32,191.29c-.07,.03-6.71-7.52-7.53-16.65-1.34-14.84,13.54-24.32,13.47-24.38-.07-.06-14.2,8.65-13.49,22.99,.48,9.75,7.63,18.02,7.56,18.04Z"/><path class="cls-19" d="M401.75,192.37c.05,.07,8.75-2.69,12.92-10.27,6.77-12.31-2.78-29.41-2.69-29.43,.08-.01,9.27,15.98,3.24,28.21-4.1,8.32-13.52,11.41-13.47,11.48Z"/><polyline class="cls-19" points="394.67 199.1 390.99 203.54 384.19 203.42 397.11 198.38"/><polyline class="cls-19" points="404.2 201.35 409.39 203.24 412.12 208.2 402.6 199.7"/></g><g><path class="cls-19" d="M386.8,291.31c.06-.01,2.33,4.56,1.77,10.36-.98,10.2-9.39,17.23-16.75,20.88-.71,.35-1.13,.53-1.12,.54,.33,.4,15.44-8.06,17.63-20.05,1.12-6.13-1.6-11.72-1.53-11.74Z"/><path class="cls-19" d="M366.37,287.62s-1.41,1.45-1.8,1.88c-6.35,7.08-4.76,22.45-3.32,28.05,.22,.86,.37,1.35,.36,1.35-.34-.02-4.41-20.49,2.2-28.31,.48-.57,2.6-2.94,2.57-2.97Z"/><polyline class="cls-19" points="387.45 276.56 391.92 272.88 398.57 274.28 384.92 276.8"/></g><path class="cls-7" d="M355.96,242.85c-1.15-4.27-3.89-6.61-3.68-6.78,.26-.21,4.48,3.21,7.86,8.17,.55,.8,1.35,1.71,2.53,2.92,1.27,1.3,3.56,2.54,5.68,2.22,2.09-.32,2.53-1.94,4.37-1.76,1.16,.11,1.4,.8,2.65,1.36,1.89,.85,3.78,.36,6.6-.42,3.92-1.08,5.88-1.62,7.5-3.48,.27-.31,2.71-3.2,2.28-7.08-.13-1.16-.85-1.58-.59-2.3,.53-1.46,3.16-.61,5.08-2.35,.89-.8,.71-1.34,2.23-5.6,1.02-2.88,1.01-2.38,1.52-3.97,.84-2.66,1.72-5.43,1.09-8.69-.32-1.68-.97-3.1-1.28-3.79-.64-1.38-1.1-1.95-1.96-3.4-1.07-1.81-1.69-3.21-2.43-4.86-1.51-3.37-1.18-3.65-2.52-6.82-1.18-2.78-2.37-4.8-3.33-6.42-.97-1.63-2.14-3.59-4.01-5.94-.96-1.19-3.24-3.23-7.82-7.31-1.04-.93-2.2-1.93-3.49-1.72-1.39,.24-2.11,1.76-2.67,1.5-.54-.24,.2-1.61-.49-2.98-.84-1.67-3.16-2.13-4.06-2.3-1.1-.22-1.67-.33-2.28-.04-1.56,.74-1.05,2.98-2.49,3.61-.96,.42-2.37-.04-2.89-.87-.6-.95,.36-1.8-.08-3.08-.15-.44-.56-1.2-3.16-2.41-2.38-1.11-3.49-1.15-5.09-1.76-2.66-1.01-2.36-1.95-5.21-3.59-5.06-2.92-7.47-.81-10.68-3.73-.79-.72-1.78-1.87-3.44-2.08-1.04-.13-1.9,.18-2.66,.5-4.97,2.09-8.75,6.1-9.18,6.56-.8,.86-1.42,1.62-2.65,2.6-1.9,1.5-2.25,1.13-3.18,2.11-1.43,1.51-.77,2.58-2.47,5.64-.46,.83-.92,1.67-1.79,2.58-1.64,1.74-2.56,1.47-4.23,2.99-1.76,1.61-2.48,3.52-2.75,4.25-.26,.72-.12,.58-.74,4.71-.53,3.51-.69,4.02-.45,5.14,.32,1.52,.89,1.89,.62,2.69-.4,1.17-1.9,1.21-3.63,2.25-1.67,1.01-1.37,1.85-3.47,3.78-.71,.65-.85,.68-2.65,2.04-3.49,2.63-5.25,3.97-5.95,5.4-.68,1.38-.71,2.59-.75,4.17-.09,3.63,1.26,6.49,1.59,7.18,1.11,2.26,1.89,2.42,2.1,4.11,.17,1.4-.33,1.63-.23,3.9,.09,2.14,.59,3.28,.73,3.59,.41,.89,.84,1.36,1.42,2.08,1.98,2.46,1.67,2.93,3.38,5.15,2.04,2.66,2.56,2.11,3.76,4.15,1.23,2.09,1.52,4.11,1.6,4.84,.28,2.57-.54,2.8-.15,4.48,.36,1.57,1.96,2.96,5.13,5.68,2.2,1.89,3.33,2.84,4.66,3.4,1.7,.71,2.27,.48,4.51,1.43,2.1,.89,1.99,1.27,3.71,1.89,2.42,.87,4.54,.81,4.96,.8,2.48-.09,2.72-.85,4.18-.49,1.39,.35,1.31,1.08,3.74,2.61,1.55,.98,2.91,1.52,3.67,1.79,0,0,1.87,.66,3.62,.85,4.31,.47,8.64-2.7,10.05-3.74,1.33-.98,3.61-3.88,8.11-9.64,3.45-4.42,4.73-6.16,4.12-7.82-.54-1.48-2.05-1.48-3.38-3.92-.79-1.46-.57-2.15-1.07-3.98Z"/><path class="cls-7" d="M405.42,263.84c2.98,1.47,5.66,1.1,5.65,1.3,0,.25-4.02,.91-8.5,.34-.72-.09-1.63-.1-2.9-.03-1.36,.07-3.2,.72-4.06,2.06-.85,1.32-.15,2.36-1.16,3.29-.64,.59-1.14,.38-2.08,.8-1.42,.63-2.07,1.92-3.02,3.88-1.32,2.71-1.98,4.07-1.73,5.88,.04,.3,.47,3.08,2.88,4.76,.72,.5,1.31,.3,1.59,.8,.56,1.02-1.21,2.06-1.17,3.98,.02,.89,.41,1.06,2.07,4,1.13,1.99,.85,1.74,1.5,2.8,1.09,1.78,2.23,3.63,4.38,4.89,1.11,.65,2.23,.99,2.78,1.15,1.09,.33,1.65,.35,2.89,.59,1.55,.3,2.65,.64,3.95,1.04,2.65,.83,2.65,1.14,5.1,1.96,2.16,.72,3.89,1.05,5.28,1.31,1.4,.26,3.09,.58,5.34,.7,1.15,.06,3.43-.21,7.99-.74,1.04-.12,2.18-.27,2.69-1.09,.55-.89,.05-2.04,.47-2.22,.4-.18,.81,.9,1.93,1.2,1.36,.36,2.76-.71,3.31-1.12,.67-.51,1.01-.77,1.15-1.25,.35-1.23-1.17-2.05-.81-3.17,.23-.74,1.19-1.3,1.92-1.18,.84,.14,.84,1.09,1.78,1.48,.32,.13,.95,.28,2.92-.57,1.8-.78,2.37-1.37,3.51-1.97,1.88-.98,2.27-.35,4.6-1.12,4.15-1.37,4.14-3.75,7.38-4.1,.79-.08,1.94-.06,2.87-.89,.58-.52,.84-1.14,1.03-1.73,1.27-3.8,.87-7.87,.82-8.34-.09-.87-.22-1.59-.16-2.75,.09-1.79,.47-1.81,.37-2.81-.15-1.54-1.08-1.7-1.97-4.15-.24-.66-.49-1.33-.58-2.27-.17-1.77,.43-2.15,.39-3.82-.04-1.77-.77-3.11-1.05-3.63-.28-.5-.27-.36-2.3-2.74-1.72-2.02-1.94-2.37-2.69-2.79-1.02-.57-1.51-.44-1.83-.99-.46-.8,.25-1.65,.52-3.13,.26-1.43-.37-1.68-.43-3.79-.02-.72,.03-.81,.15-2.48,.23-3.24,.34-4.88-.12-5.97-.45-1.06-1.12-1.67-1.99-2.47-2.01-1.84-4.29-2.5-4.85-2.65-1.82-.5-2.31-.14-3.36-.86-.87-.6-.76-.98-2.09-2.05-1.26-1.01-2.15-1.29-2.39-1.36-.71-.21-1.19-.2-1.87-.24-2.37-.12-2.48-.52-4.58-.67-2.51-.18-2.46,.39-4.2,.05-1.79-.35-3.08-1.18-3.52-1.5-1.6-1.11-1.32-1.68-2.46-2.3-1.07-.57-2.64-.37-5.74,.05-2.15,.3-3.25,.45-4.22,.92-1.24,.59-1.39,1.03-3.04,1.8-1.54,.73-1.7,.48-2.9,1.13-1.68,.92-2.7,2.12-2.9,2.36-1.17,1.42-.86,1.93-1.78,2.56-.88,.6-1.26,.2-3.32,.79-1.32,.38-2.29,.87-2.82,1.16,0,0-1.29,.71-2.26,1.59-2.4,2.16-2.73,6.14-2.84,7.43-.1,1.22,.41,3.92,1.45,9.26,.8,4.1,1.15,5.67,2.39,6.15,1.1,.43,1.85-.41,3.89,.05,1.22,.28,1.5,.74,2.78,1.37Z"/><path class="cls-17" d="M352.28,236.07c-.36,.28-4.85-4.38-8.67-9.47-11.32-15.1-14.65-31.27-14.02-31.5,.49-.18,3.17,9.5,11.91,24.16,5.84,9.8,11.21,16.49,10.79,16.81Z"/><path class="cls-17" d="M398.24,197.49c-.34-.02-.56-4.77-.2-9.43,1.07-13.83,7.11-24.41,7.57-24.24,.36,.13-2.87,6.8-5.17,19.15-1.54,8.25-1.82,14.55-2.2,14.52Z"/><path class="cls-17" d="M441.27,264.51c-18.48,4.3-34.77,.9-34.74,.25"/><polygon class="cls-17" points="355.2 235.67 354.79 226.62 366.02 211.58 372.29 186.31 355.2 235.67"/><polygon class="cls-17" points="349.89 238.99 342.46 240.47 328.35 233.06 306.51 231.04 349.89 238.99"/><path class="cls-17" d="M345.24,234c-.04,.1-12.84-2.03-21.6-11.58-14.23-15.52-8.61-40.68-8.73-40.68-.12,0-5.72,23.56,7.49,39.12,8.98,10.58,22.89,13.03,22.84,13.14Z"/><path class="cls-17" d="M351.28,229.96c.11,.02,5.83-11.53,3.1-24.14-4.43-20.51-28.32-30.65-28.25-30.75,.07-.09,22.64,9.13,27.7,28.84,3.44,13.4-2.66,26.03-2.55,26.05Z"/><polyline class="cls-17" points="350.54 244.44 350.98 253.05 344.51 259.5 352.2 241.27"/><polyline class="cls-17" points="361.42 237.77 367.92 234.89 374.81 237.87 358.48 237.46"/><polygon class="cls-17" points="408.07 267.46 413.33 270.47 417.8 282.07 429.83 294.59 408.07 267.46"/><polygon class="cls-17" points="408.09 263.33 409.91 258.69 419.14 253.5 428.08 242.12 408.09 263.33"/><path class="cls-17" d="M412.57,262.54c-.04-.06,5.74-6.4,14.26-7.84,13.85-2.34,26.05,9.76,26.09,9.69,.04-.07-11.26-11.59-24.76-9.83-9.18,1.2-15.54,8.04-15.58,7.98Z"/><path class="cls-17" d="M412.69,267.33c-.05,.05,4.43,7.35,12.52,10.35,13.16,4.87,27.43-4.75,27.46-4.68,.03,.07-13.25,9.3-26.18,5.06-8.79-2.88-13.75-10.78-13.8-10.73Z"/><polyline class="cls-17" points="404.78 261.74 399.76 258.91 398.43 253.02 405.98 263.8"/><polyline class="cls-17" points="404.66 270.16 403.96 274.8 399.82 277.55 405.89 268.65"/><path class="cls-6" d="M366.12,244.77c-1.12-.36-2.89-.94-4.68-2.42-2.8-2.3-3.51-5-5.28-9.47-2.42-6.11-2.82-5.42-4.59-10.01-4.31-11.2-1.19-13.4-4.57-19.71-2.9-5.41-4.99-3.42-14.24-13.11-9.02-9.45-9.34-13.76-9.19-15.91,.04-.63,.37-4.46,3.31-7.4,5.4-5.4,16.38-4.57,20.88,.39,3.98,4.39,.6,9.49,5.34,14.02,3.45,3.3,8.24,3.46,9.66,3.51,4.81,.16,10.32-1.82,10.32-3.6,0-1.02-1.83-2.04-2.2-1.74-.56,.45,1.37,4.78,4.74,7.74,3.54,3.11,5.43,1.87,6.96,4.39,1.58,2.59,.03,4.64,2.12,9.48,.5,1.17,1.03,2.06,1.31,2.51,2.34,3.78,4.16,3.84,5.49,6.71,.69,1.48,.8,2.76,.99,4.92,.14,1.63,.28,3.33-.27,5.47-.19,.74-.62,2.36-1.8,4.06-1.66,2.39-2.88,2.18-3.75,3.72-1.89,3.38,1.32,9.12,1.9,8.99,.36-.09,.34-2.59-.35-2.82-.99-.33-2.05,4.4-5.9,7.64-4.55,3.83-11.35,4.21-16.23,2.64Z"/><path class="cls-6" d="M402.51,272.73c.57-.44,1.47-1.13,2.84-1.53,2.14-.62,3.76-.06,6.66,.58,3.96,.87,3.75,.43,6.71,1.12,7.22,1.67,7.28,3.99,11.68,4.45,3.77,.39,3.47-1.35,11.6-2.68,7.94-1.31,10.26,0,11.31,.82,.31,.24,2.16,1.71,2.66,4.2,.92,4.57-3.27,9.82-7.35,10.39-3.61,.5-5.07-2.95-9.02-2.11-2.88,.61-4.6,2.97-5.11,3.67-1.73,2.37-2.6,5.82-1.69,6.43,.52,.35,1.67-.22,1.65-.51-.04-.44-2.92-.95-5.6-.26-2.81,.72-2.82,2.1-4.64,2.01-1.87-.09-2.39-1.58-5.59-2.18-.77-.15-1.41-.19-1.74-.2-2.74-.12-3.39,.78-5.32,.47-1-.16-1.69-.54-2.86-1.19-.88-.48-1.8-1-2.72-2.01-.31-.35-1-1.12-1.47-2.29-.66-1.65-.13-2.2-.63-3.16-1.08-2.11-5.13-2.46-5.26-2.12-.08,.21,1.21,1.06,1.57,.79,.51-.39-1.55-2.54-1.9-5.59-.41-3.6,1.73-7.16,4.21-9.08Z"/><path class="cls-25" d="M359.28,273.5c.61,0,.39-2.32,1.75-5.08,2.51-5.09,9.23-9.32,12.52-7.5,3.06,1.69,3.26,8.64,.94,13.32-2.05,4.13-5.41,5.2-4.91,6.55,.68,1.83,7.69,2.21,12.66-1.12,3.69-2.48,5.17-6.27,5.65-7.53,1.78-4.58,.05-6.03,2.17-11.78,.92-2.49,1.65-3.34,1.53-5.25-.16-2.4-1.61-5.4-4.16-6.26-2.2-.75-4.31,.4-6.97,1.86-3.05,1.67-3.74,2.99-8.27,5.7-1.45,.86-2.64,1.48-4.17,1.42-1.62-.07-2.01-.84-3.34-.64-1.42,.21-2.34,1.3-3.74,2.95-.96,1.13-1.89,2.24-2.52,3.78-1.79,4.38-.06,9.6,.85,9.6Z"/><path class="cls-32" d="M310.66,197.04c-.54-.53-4.31,3.32-11.31,7.62-3.38,2.08-3.96,2.08-4.83,3.3-3.36,4.7-.1,12.08-.84,12.27-.4,.1-1.6-2.01-1.11-2.49,.74-.72,4.45,3.05,11.39,6.03,3.1,1.33,7.6,3.27,9.14,1.65,1.34-1.4-.11-4.9-.46-5.75-.98-2.38-1.85-2.28-3.44-5.04-.87-1.51-2.39-4.23-2.21-7.66,.07-1.38,.4-2.39,.79-3.62,1.34-4.18,3.26-5.95,2.89-6.32Z"/><path class="cls-32" d="M448.47,258.81c.59-.13-.4-4.25-.34-10.68,.03-3.11,.28-3.49-.18-4.58-1.74-4.2-8.06-5.17-7.88-5.74,.1-.31,2.03-.2,2.14,.32,.17,.79-3.93,1.65-8.86,4.96-2.2,1.48-5.4,3.63-4.97,5.33,.37,1.47,3.33,2,4.05,2.13,2.01,.36,2.31-.26,4.84-.14,1.38,.06,3.85,.21,6.08,1.78,.9,.63,1.44,1.27,2.09,2.05,2.24,2.65,2.61,4.67,3.02,4.58Z"/></g></g><g><path class="cls-18" d="M386.88,36.7c-6.57,0-12.1-5.31-11.98-12.13,.11-6.42,5.42-11.78,12.25-11.66,6.47,.12,11.88,5.38,11.74,12.16-.13,6.44-5.44,11.63-12.01,11.63Zm5.43-9.52c.45-1.71,.54-3.44,.17-5.17-.4-1.91-1.27-3.6-2.51-5.12-.76-.93-1.6-1.76-2.61-2.42-.19-.12-.34-.12-.53,.01-1.77,1.23-3.23,2.74-4.27,4.63-1.08,1.95-1.46,4.04-1.14,6.24,.23,1.53,.77,2.95,1.52,4.3,.17,.31,.35,.61,.53,.91l-.04,.04c-.33-.25-.67-.48-.98-.75-1.81-1.57-2.86-3.58-3.36-5.88-.06-.25-.08-.52-.15-.77-.03-.12-.15-.22-.23-.33-.1,.08-.2,.15-.28,.25-.05,.06-.07,.15-.09,.23-.64,1.91-.76,3.85-.26,5.81,.65,2.58,2.13,4.54,4.58,5.68,1.9,.89,3.92,1.08,5.99,.77,3-.45,5.1-2.07,6.27-4.84,.74-1.75,.89-3.58,.62-5.46-.27-1.84-.93-3.52-2-5.04-.06-.08-.11-.16-.18-.23-.04-.04-.13-.08-.17-.06-.04,.02-.07,.11-.06,.17,0,.09,.04,.17,.05,.26,.07,.42,.16,.85,.2,1.28,.08,.73,.02,1.46-.09,2.18-.17,1.15-.49,2.25-.99,3.3Z"/><g><path class="cls-18" d="M381.59,40.06c.37,0,.71,.03,1.02,.09,.31,.06,.57,.16,.79,.3,.22,.14,.39,.33,.51,.56,.12,.23,.18,.52,.18,.86,0,.37-.09,.68-.27,.93-.18,.25-.44,.45-.8,.61,.48,.13,.84,.36,1.08,.68,.24,.33,.36,.72,.36,1.18,0,.37-.08,.69-.23,.96-.15,.27-.36,.49-.62,.66-.26,.17-.56,.3-.89,.38-.33,.08-.68,.12-1.03,.12h-3.8v-7.35h3.69Zm-.22,2.98c.31,0,.56-.07,.76-.21,.2-.14,.3-.36,.3-.67,0-.17-.03-.31-.1-.42-.07-.11-.15-.2-.26-.26-.11-.06-.24-.1-.38-.13-.14-.02-.29-.04-.44-.04h-1.61v1.72h1.75Zm.1,3.12c.17,0,.33-.02,.48-.05s.29-.08,.41-.15,.21-.17,.28-.29,.1-.28,.1-.47c0-.38-.11-.65-.34-.81-.23-.16-.53-.24-.9-.24h-1.88v2.02h1.85Z"/><path class="cls-18" d="M387.35,40.06v7.35h-1.72v-7.35h1.72Z"/><path class="cls-18" d="M388.79,42.24c.18-.47,.43-.88,.76-1.23,.33-.35,.73-.62,1.21-.82,.48-.2,1.02-.3,1.62-.3s1.15,.1,1.63,.3c.48,.2,.88,.47,1.21,.82,.33,.35,.58,.76,.76,1.23,.18,.47,.26,.98,.26,1.53s-.09,1.03-.26,1.5c-.18,.46-.43,.87-.76,1.21-.33,.34-.73,.61-1.21,.81-.48,.2-1.02,.29-1.63,.29s-1.14-.1-1.62-.29c-.48-.2-.88-.46-1.21-.81-.33-.34-.58-.75-.76-1.21-.18-.46-.26-.96-.26-1.5s.09-1.06,.26-1.53Zm1.58,2.43c.08,.29,.2,.55,.37,.79,.17,.23,.39,.42,.66,.56,.27,.14,.6,.21,.99,.21s.72-.07,.99-.21c.27-.14,.49-.33,.66-.56,.17-.23,.29-.5,.37-.79s.12-.59,.12-.9-.04-.63-.12-.94c-.08-.3-.2-.57-.37-.81-.17-.24-.39-.43-.66-.57-.27-.14-.6-.21-.99-.21s-.72,.07-.99,.21c-.27,.14-.49,.33-.66,.57-.17,.24-.29,.51-.37,.81-.08,.3-.12,.61-.12,.94s.04,.61,.12,.9Z"/></g></g><text class="cls-31" transform="translate(187.31 39.01)"><tspan x="0" y="0">SEMENCE</tspan></text><text class="cls-31" transform="translate(187.12 66.66)"><tspan x="0" y="0">DE PAYS</tspan></text><path class="cls-14" d="M163.67,44.86c19.39-1.7,48.92-.79,68.64-1,19.8,.19,49.13-.66,68.64,1-19.4,1.66-48.92,.81-68.64,1-19.79-.21-49.14,.7-68.64-1h0Z"/><text class="cls-30" transform="translate(194.63 239.64)"><tspan x="0" y="0">Curcubitacées</tspan></text><text class="cls-29" transform="translate(176.4 256.55)"><tspan x="0" y="0">POTIMARRON FRANCAIS</tspan></text><text class="cls-29" transform="translate(185.79 268.23)"><tspan x="0" y="0">CUCURBI</tspan><tspan class="cls-28" x="40.73" y="0">T</tspan><tspan class="cls-2" x="45.57" y="0">A MAXIMA</tspan></text></g></g></svg>