<?xml version="1.0" encoding="UTF-8"?><svg id="Calque_2" xmlns="http://www.w3.org/2000/svg" viewBox="0 0 124.79 81.84"><defs><style>.cls-1{fill:none;stroke:#fff;stroke-linecap:round;stroke-linejoin:round;}</style></defs><g id="Calque_2-2"><g><path class="cls-1" d="M.5,44.94c16.49,0,32.97,0,49.46,0,1.81,0,1.82,0,2.01,1.76,.2,1.81,.39,3.62,1.8,5,1.31,1.28,2.66,1.68,3.8,1.05,1.54-.86,2.23-2.52,1.74-4.29-.31-1.1-.71-2.18-1.14-3.47,.75,0,1.47-.06,2.16,.04,.22,.03,.54,.48,.55,.73,.03,4.94,.05,9.88-.01,14.81-.02,1.65-.3,3.31-.42,4.96-.05,.78-.35,1.25-1.13,1.53-1.12,.41-2.22,.9-3.29,1.42-1.05,.51-1.72,1.34-1.62,2.59,.03,.34,.19,.72,.41,.96,.18,.19,.55,.21,.83,.3,.05-.26,.18-.53,.15-.78-.19-1.32,.13-1.83,1.43-2.25,.35,1.27,.76,2.53,1.04,3.81,.13,.62,.06,1.3,.03,1.94-.05,.92-.93,.75-1.46,1.04-.12,.06-.19,.21-.28,.31,.91,1,2.7,.67,2.98-.68,.21-1.04-.06-2.19-.22-3.28-.08-.56-.43-1.08-.56-1.64-.34-1.43,.05-2.01,1.67-2.42-.14,2.13,1.11,3.69,2.14,5.34,.74,1.17,1.24,2.39,.63,3.8-.06,.14,0,.34,.27,.71,.32-.31,.77-.57,.92-.94,.31-.77,.82-1.11,1.59-1.28,.35-.08,.64-.43,1.03-.71-.31-.21-.38-.3-.42-.29-1.56,.43-2.39-.23-2.93-1.69-.45-1.21-1.24-2.29-1.73-3.49-.38-.93-.29-1.91,.44-2.97,.72,1.42,1.98,2.29,2.03,4.03,.03,1.02,.74,2.05,1.27,3.02,.12,.22,.72,.17,1.1,.25-.06-.36,0-.81-.2-1.05-.73-.88-1.21-1.79-.95-3.07,1.06,.13,2,.33,2.37,1.51,.08,.24,.13,.51,.29,.7,.19,.24,.47,.41,.71,.62,.14-.3,.43-.62,.4-.91-.14-1.29-.87-2.22-2.04-2.75-.55-.25-1.19-.3-1.76-.52-.42-.16-.8-.44-1.19-.67l.11-.29c1.03-.11,2.06-.29,3.09-.3,.45,0,.89,.37,1.36,.51,.3,.09,.63,.07,.94,.09-.08-.32-.07-.76-.27-.94-.8-.68-1.73-1.03-2.82-.73-.9,.25-1.83,.37-2.57-.35-.39-.38-.8-.9-.85-1.4-.15-1.28-.09-2.59-.14-3.88-.05-1.34-.17-2.68-.18-4.01-.03-3.49,0-6.97-.05-10.46-.01-.97,.25-1.35,1.28-1.34,6.46,.04,12.93,.03,19.39,0,.85,0,1.28,.26,1.36,1.12,.09,1.04,.34,2.09,.33,3.13-.06,4.06-.2,8.12-.3,12.18-.01,.44-.12,.91,0,1.3,.6,1.84-.52,2.85-1.74,3.83-.25,.21-.52,.42-.82,.54-2.01,.84-2.5,2.65-2.94,4.52-.12,.52-.41,.99-.58,1.5-.07,.21-.04,.45-.06,.68,.24,0,.58,.12,.7,0,.32-.31,.63-.69,.8-1.1,.5-1.26,.93-2.54,1.61-3.77,.02,1.56,.65,3.08-.19,4.59-.51,.91-.89,1.91-1.19,2.91-.22,.75-.22,1.57,.9,2.18,.04-1.88,.24-3.57,1.71-5.24,.26,1.06,.48,1.85,.66,2.66,.12,.53,.12,1.09,.28,1.6,.06,.21,.4,.33,.61,.49,.12-.2,.36-.41,.35-.59-.19-1.9-.19-3.86-1.4-5.5-.59-.81-.74-3.22-.19-4.05,.14-.21,.44-.39,.69-.41,.12-.01,.33,.32,.43,.54,.44,1.03,.89,2.05,1.27,3.1,.12,.34,.09,.76,.06,1.14-.07,1.08-.21,2.16-.22,3.24,0,.24,.39,.49,.6,.74,.15-.26,.41-.5,.42-.77,.05-.95,.02-1.9,.18-2.86,1.19,.92,1.61,2.07,1.52,3.45-.05,.64-.2,1.41,.84,1.7,.6-1.72,0-3.27-.37-5,.42,.29,.95,.5,1.23,.89,.62,.88,1.1,1.85,1.67,2.77,.14,.23,.38,.41,.58,.62,.16-.29,.43-.59,.44-.88,0-.41-.19-.82-.32-1.31l1.9-.34v-.33c-.33-.08-.69-.12-1.02-.26-.81-.34-1.71-.58-2.36-1.13-.83-.7-1.56-1.37-2.74-1.32-.69,.03-.79-.38-.49-.94,.02-.03,.04-.06,.06-.09,.95-1.61,1.5-1.65,2.69-.14,.55,.69,1.02,1.44,1.56,2.21q.72-1.05-2.27-4.81c2.41-.07,4.03-.01,5.03,2.92,.06,.19,.39,.29,.6,.43,.11-.27,.38-.65,.29-.81-.53-.9-1.13-1.75-1.74-2.6-.16-.22-.42-.37-.77-.66l2.13-1.37c-1.1-.29-1.77,.06-2.31,.54-1.13,1.01-2.35,.67-3.48,.22-1.21-.48-2.06-1.41-1.93-2.85,.1-1.12,.43-2.22,.43-3.33,.01-3.12-.04-6.24-.17-9.35-.06-1.59-.33-3.17-.52-4.76-.1-.79,.18-1.12,1.01-1.12,6.94,.02,13.87,.01,20.81,0,.65,0,.96,.17,1.01,.92,.28,4.81,.62,9.63,.94,14.44,.08,1.19,.05,2.4,.18,3.59,.13,1.22-.34,2.1-1.27,2.82-1.29,.99-2.53,2.07-3.87,2.99-2.17,1.49-3.46,3.37-3.16,6.12,.08,.76,0,1.53,.12,2.28,.06,.37,.39,.69,.6,1.04l.38-.14v-3.66l.3-.02c1.07,1.86,1.68,3.82,1.04,6.02H.5V44.94Zm46.01,29.96c-.37-.64-.92-1.19-.98-1.79-.22-2.16-1.37-3.6-3.15-4.66-.3-.18-.69-.4-.78-.69-.73-2.16-1.36-4.3-1.09-6.68,.28-2.51,.23-5.07,.14-7.6-.06-1.61-.77-2.99-2.34-3.8-2.17-1.13-4.82-.69-5.47,1.22-.47,1.39-1.16,1.63-2.46,1.7-1.54,.09-2.88,.88-3.36,2.51-.46,1.53,.28,2.71,1.43,3.61,1.03,.8,1.48,1.77,1.63,3.05,.29,2.49,2.36,3.74,4.4,2.58,1.96-1.12,3.67-3.75,2.48-6.17-.57-1.15-1.39-2.18-2.15-3.23-.79-1.07-.77-2.4,.12-3,1.09-.74,2.53-.4,3.13,.85,.32,.67,.56,1.44,.57,2.17,.06,3.41,.04,6.82,.03,10.24,0,2.25-.52,2.84-2.79,3.22-1.49,.25-2.92,1.79-3.04,3.27-.08,1.04,.59,1.68,1.48,1.41-.5-2.28,.12-2.89,3.87-3.77,.27,.58,.47,1.21,.83,1.73,.64,.91,.66,1.79,.2,2.76-.17,.36-.3,.75-.36,1.14-.13,.92,.47,1.5,1.03,1.4,.23-.96,.5-1.76,.59-2.58,.11-.99,.13-1.99,.06-2.98-.04-.54-.34-1.07-.53-1.61,2.38,.69,4.14,1.83,4.48,4.48,.13,1,1.26,1.53,2.02,1.26Zm-29.58-13.78c-.45-2.45-.56-4.6-2.17-6.27-1.69-1.76-4.68-1.93-6.21-.32-1.94,2.04-1.87,5.25,.08,6.74,.64,.49,.95,1.48,1.27,2.3,.54,1.41,1.15,2.52,3.13,2.69,1.35,.12,2.23-.75,2.76-1.76,.59-1.12,.84-2.42,1.15-3.37Z"/><path class="cls-1" d="M106.41,81.34c.83-1.4,.49-2.82,.03-4.21-.27-.82-.7-1.59-1.09-2.37-.97-1.91-.78-2.57,1.32-3.92-.15,.78-.38,1.43-.38,2.08,0,.45,.3,.91,.47,1.36,.22-.41,.51-.8,.64-1.24,.29-1.03,.49-2.08,.76-3.11,.04-.15,.23-.26,.56-.63,.07,1.9,1.48,3.32,.39,5.2-.84,1.45-1.19,3.12-.76,4.84,.08,.31,.14,.68,.34,.9,.23,.27,.6,.41,.91,.61,.01-.35,.16-.77,.01-1.04-.75-1.4-.42-2.74,.08-4.09,.22-.6,.45-1.2,.77-2.07,.77,1.25,.88,2.36,.86,3.51,0,.34,.14,.69,.21,1.03,.23-.32,.59-.6,.67-.95,.36-1.6,.04-3.08-.9-4.45-.72-1.04-1.44-2.09-1.43-3.46,0-.75,.26-1.24,.87-1.38,.54,1.27,.74,2.84,1.64,3.64,1.38,1.22,1.23,2.54,1.33,4.05,.12,1.68,.61,3.33,.99,4.99,.04,.18,.35,.31,.54,.46,.16-.21,.48-.44,.45-.62-.14-1-.39-1.98-.54-2.98-.18-1.2-.28-2.4-.42-3.61l.47-.15c.23,.47,.55,.92,.66,1.41,.2,.92,.26,1.86,.4,2.79,.05,.35,.07,.75,.24,1.04,.13,.23,.49,.33,.74,.49,.06-.25,.17-.51,.16-.76-.08-1.01-.2-2.02-.3-3.03-.13-1.24-.55-2.3-1.66-3.03-.73-.48-.5-1.33,.53-2.18,2.02,1.43,1.97,3.55,1.9,5.67,0,.22-.13,.45-.08,.64,.06,.24,.25,.44,.39,.66,.2-.17,.54-.31,.58-.51,.13-.66,.15-1.34,.23-2.27,.95,1.34,1.61,2.53,1.73,3.98,.03,.32,.33,.62,.51,.93,.18-.34,.57-.75,.49-1.01-.44-1.4-1.01-2.76-1.5-4.15-.14-.41-.17-.86-.25-1.29l.29-.12-2.66-2.07c1.88-.13,2.71,.58,3.02,2.19,.06,.32,.37,.59,.57,.89,.17-.39,.53-.81,.47-1.16-.21-1.37-1.13-2.23-2.36-2.77-1-.44-2.01-.82-3.01-1.26-1.49-.65-2.4-1.76-2.38-3.44,.02-2.07,.14-4.14,.12-6.2,0-.93-.27-1.85-.41-2.78-.15-1-.36-1.99-.45-2.99-.19-2.28-.32-4.56-.45-6.84-.03-.5,.06-1,.1-1.59h11.48v36.39h-17.87Z"/><path class="cls-1" d="M110.78,36.43c.19-3.66,0-7.38,.65-10.95,.8-4.44-.06-8.81,.22-13.21,.11-1.8-.43-3.66-.79-5.47-.34-1.68-1.21-2.2-2.92-1.98-.25,.03-.5,.1-.75,.16-1.91,.41-3.68-.1-5.36-.93-.79-.39-1.05-1.03-.5-1.88,.65-1.01,1.43-1.65,2.73-1.66,2.67,0,4.91,.76,6.5,3.05,.64,.92,.98,.9,1.62-.05,1.38-2.06,3.28-3.03,5.74-2.82,.56,.05,1.15,.23,1.63,.52,1.35,.82,1.27,2.45-.18,3.08-.94,.41-2,.58-3.02,.78-.6,.12-1.24,.03-1.84,.15-1.6,.33-2.5,1.47-2.16,3.05,1.02,4.74,.85,9.53,.78,14.31-.04,2.89-.56,5.77-.65,8.66-.13,3.99-.06,7.98-.06,11.97,0,.61,.21,1.39-.83,1.13-.26-.07-.56-.61-.57-.94-.05-2.32-.03-4.65-.03-6.97h-.23Z"/><path class="cls-1" d="M83.13,33.33c.36-1.2,.61-2.6,1.21-3.83,.92-1.88,4.45-2.61,6-1.22,.57,.51,.86,1.59,.87,2.41,0,1.11-.98,1.64-1.97,1.89-.73,.19-1.5,.32-2.25,.31-1.05-.02-1.56,.58-1.52,1.43,.06,1.43,.35,2.84,.57,4.26,.24,1.6,.53,3.19,.76,4.79,.07,.51,.01,1.05-.74,1.06-.76,0-.67-.55-.78-1.05-.39-1.79-.85-3.57-1.23-5.36-.32-1.48-.57-2.96-.9-4.7Z"/><path class="cls-1" d="M57.42,44.34h-5.25c.57-1.04,.9-1.92,1.47-2.58,.66-.78,1.58-1.34,2.33-2.05,2.21-2.08,5.16-1.3,6.15,1.69,.25,.75,.41,1.55,.45,2.33,.02,.28-.43,.59-.67,.89-.21-.26-.52-.5-.62-.8-.21-.68-.23-1.43-.48-2.1-.55-1.45-2.25-2.06-3.48-1.33-.96,.58-1.16,1.39-.62,2.37,.25,.46,.44,.95,.73,1.57Z"/><path class="cls-1" d="M113.96,71.56c-1.72-1.39-1.98-2.71-.86-4.44,.61,.73,1.23,1.4,1.76,2.15,.12,.17-.03,.6-.15,.87-.21,.49-.49,.94-.75,1.42Z"/><path class="cls-1" d="M86.44,70.39c-.29-1.26-.59-2.27-.72-3.29-.03-.27,.41-.69,.73-.88,.11-.07,.59,.26,.76,.51,1.1,1.6,1.03,2.1-.76,3.67Z"/></g></g></svg>