<?xml version="1.0" encoding="UTF-8"?><svg id="Calque_2" xmlns="http://www.w3.org/2000/svg" xmlns:xlink="http://www.w3.org/1999/xlink" viewBox="0 0 243.44 535.38"><defs><style>.cls-1{fill:none;}.cls-2{clip-path:url(#clippath);}.cls-3{fill:#658460;}.cls-4{fill:#8fb171;}.cls-5{fill:#37161a;}.cls-6{fill:#555a4b;}.cls-7{fill:#47593a;}.cls-8{opacity:.5;}</style><clipPath id="clippath"><rect class="cls-1" y="0" width="243.44" height="535.38"/></clipPath></defs><g id="Calque_9"><g><rect class="cls-5" y="0" width="243.44" height="535.38"/><g class="cls-8"><g class="cls-2"><g><g><path class="cls-6" d="M108.39,451.7c-1.39-2.12-3.6-5.4-6.48-9.35-5.69-7.79-7.27-8.95-11.14-14.58-4.3-6.25-6.96-10.11-8.55-15.69-2.31-8.06-.96-14.67-1.36-14.68-.4-.02,.33,8.44-3.35,17.18-1.66,3.95-4.33,8.22-11.9,15.49-19.16,18.41-30.45,18.36-33.01,28.46-2.41,9.5,5.9,16.19,2.4,18.85-3.64,2.77-12.07-4.97-32.82-11.51-13.92-4.39-17.03-3.2-31.71-8.67-7.16-2.67-13.05-4.86-20.07-9.18-12.36-7.6-15.53-13.98-18.69-12.93-3.71,1.24,.25,10.18-.98,30.39-.52,8.67-1.71,14.55,.39,23.88,1.44,6.42,2.47,9.58,5.61,12.58,9.75,9.28,31.91,7.12,45.67,.33,4.28-2.11,8.34-4.97,8.53-4.75,.43,.49-24.27,10.2-28,27.23-1.42,6.49,.44,12.96-4.21,15.49-4.1,2.23-9.18-.83-9.95,.4-1.35,2.14,12.26,14.62,29.95,15.7,4.39,.27,7.6-.25,9.85-.59,36.23-5.42,52.9,2.75,63.26-6.84,7.92-7.33,5.03-18.99,9.26-19.27,3.54-.23,4.02,8.02,12.82,14.59,9.5,7.09,21.76,7.04,25.24,7.02,3.34-.01,14.5-.21,25.08-7.19,1.63-1.08,2.87-2.08,3.89-3.1,5.67-5.6,8.6-10.72,9.42-12.3,7.02-13.37,29.27-28.06,28.16-29.13-.43-.42-3.46,2.23-9.95,5.11-3.72,1.65-12.92,5.63-24.68,5.37-3.73-.08-7.89-.17-11.15-1.53-10.36-4.3-13.62-22.19-8.86-43.63"/><path class="cls-4" d="M72.17,508.25c8.66,1.9,9.29,6.76,17.92,10.01,1.81,.68,8.63,3.15,16.91,1.52,6.85-1.35,10.99-4.93,14.7-8.11,2.68-2.3,6-6.3,8.41-12.48,4.22-10.86,2-20.16,.19-31.16-4.64-28.15-3.2-47.39-5.88-47.44-.75-.01-.46,1.49-2.7,4.53-3.51,4.77-9.19,7.73-16.71,11.84-.23,.12-.39,.2-4.53,2.45-1.82,.99-4.46,2.43-8.42,4.56-16.97,9.16-16.62,8.82-17.91,9.76-3.91,2.88-9.91,7.31-13.34,15.04-1.16,2.61-5.39,12.15-.91,21.08,3.17,6.33,9.42,9.75,7.77,12.48-1.04,1.71-4.14,1.86-4.42,1.87-5.13,.16-8.93-5.36-11.33-8.84-2.1-3.05-3.95-5.78-4.29-9.54-.43-4.64,1.92-6.61,5.49-13.92,3.81-7.8,6.33-12.96,5.66-18.91-.84-7.44-6.29-12.57-7.89-14.07-5.48-5.17-11.81-7.48-25.94-10.85-17.82-4.25-32.69-6.61-51.63-8.77-21.07-2.4-26.44-2.16-27.16-.49-1.04,2.41,9.25,4.71,16.77,14.26,7.76,9.83,7.84,21.35,7.88,26.99,.09,11.64-3.73,12.46-2.08,20.56,.32,1.56,3.49,14.98,17.78,22.24,1.26,.64,12.39,6.12,24.14,3.15,3.42-.86,6.36-2.56,12.24-5.95,12.1-6.98,13.4-10.32,17.73-9.88,3.59,.36,6.61,3.79,12.66,10.63,2.71,3.07,4.96,5.65,4.16,6.56-.83,.94-4.77-1.79-12.49-3.67-2.06-.5-6.24-1.52-10.68-1.5-3.18,.01-8.15,.57-16.13,4.61-4.91,2.49-12.26,6.96-20.94,16.21-2.34,2.49-3.78,4.35-6.21,7.46-13.79,17.65-14.16,24.17-23.64,29-5.79,2.95-10.32,2.92-10.22,3.8,.14,1.33,18.7-.73,42.92,.67,14.28,.83,21.55,2.66,36.36,1.4,6.51-.55,12.55-1.1,20.11-3.54,7.79-2.51,14.45-4.67,18.75-10.58,4.05-5.56,4.86-12.88,2.6-18.7-.74-1.91-3.94-6.02-10.32-14.23-4.32-5.55-6.28-7.87-5.25-9.38,1.63-2.41,9.46-.75,9.87-.66Z"/><path class="cls-3" d="M122.38,425.05c.21,.22-1.71,1.88-4.03,3.94-14.44,12.8-12.15,12.26-17.05,15.72-7.21,5.08-10.81,5.87-16.49,11.7-.95,.98-1.82,2.11-2.69,3.56-5.39,9.03-2.78,18.57-2.41,19.86,.55,1.9,1.63,5.46,4.76,9.1,7.06,8.24,16.53,7.52,17.22,12.14,.56,3.7-5.01,7.59-9.15,9.13-.98,.36-5.23,1.87-10.21,.77-1.15-.25-6.88-1.52-9.54-5.44-.69-1.01-1.56-2.77-2.81-2.75-.58,.01-.74,.39-1.64,.82-1.99,.95-4.23,.57-4.25,.41-.02-.15,1.81-.05,2.95-1.18,.16-.16,.66-.67,.75-1.44,.03-.26,.02-.65-.23-1.23-.51-1.2-1.53-1.91-1.68-2.02-1.88-1.36-6.61-7.44-7.9-11.47-2.03-6.34-.47-11.78,.41-14.73,.47-1.56,2.24-6.98,7.43-12.65,2.46-2.68,5.2-4.9,15.02-10.51,8.85-5.06,18.19-9.54,24.41-13.19,9.99-5.87,16.74-10.92,17.13-10.53Z"/><path class="cls-3" d="M64.77,507.42c.78-1.15,.1-3.29-1.1-3.62-1.69-.46-3.15,3.07-6.56,3.14-1.15,.03-1.98-.36-2.77-.7,0,0-1.09-.47-10.75-3.37-5.07-1.52-9.67-1.07-12.62-.79-11.18,1.09-18.64,7.5-20.54,9.24C-.02,520.89,.59,532.86,.72,535.46c.25,4.97,.67,13.18,7.61,17.25,7.52,4.41,17.63,.97,18.39,.7,8.19-2.9,7.57-7.87,18.23-12.83,4.65-2.16,8.5-3.95,13.03-3.12,5.79,1.06,7.55,5.44,12.68,5.28,2.68-.08,6.36-1.41,7.75-3.84,4.79-8.35-18.62-27.92-15.7-30.4,.46-.39,1.48-.27,2.04-1.1Z"/><path class="cls-3" d="M50.84,477.28c1.5-2.11,8.79-12.39,8.44-21.97-.4-10.96-10.7-18.38-11.44-18.9-3.23-2.26-6.45-3.51-10.76-5.06-1.64-.59-4.73-1.65-15.4-4.04-11.7-2.63-19.84-4.02-21.76-4.34-3.64-.61-6.09-.97-10.87-1.68-15.48-2.27-22.47-2.89-27.7-3.22-8.92-.55-14.54-.87-15.17,.75-.71,1.82,5.36,5.07,9.56,7.37,21.02,11.55,36.38,20,45.93,31.83,3.36,4.16,12.37,15.33,8,23.42-2.62,4.86-8.31,5.34-11.76,12.53-.21,.44-4.3,9.17-.14,12.45,2.69,2.12,7.5,.92,11.78-.14,6.92-1.72,12.33-5.28,18.97-9.65,4.64-3.05,4.79-3.55,6.54-3.89,6.06-1.19,13.95,2.87,18.24,8.08,3.05,3.7,3.49,7.01,5.84,7.09,1.98,.07,4.27-2.2,3.85-3.44-.28-.82-1.66-1-2.86-1.37-3.34-1.03-5.05-3.41-7.76-7.2-2.33-3.26-5.33-7.46-4.57-12.39,.43-2.77,1.85-4.52,3.05-6.21Z"/></g><g><path class="cls-7" d="M75.4,503.78c.44,.41,8.18-4.05,15.62-10.82,22.25-20.26,26.3-47.15,25.79-47.3-.37-.1-2.54,13.53-14.66,30.39-12.3,17.1-27.37,27.14-26.75,27.73Z"/><path class="cls-7" d="M-5.3,557.92c.21,.53,9.36-.9,19.28-4.56,29.67-10.94,45.67-34.24,45.26-34.55-.29-.22-8.5,11.55-27.33,22.85-19.1,11.47-37.52,15.49-37.21,16.25Z"/><path class="cls-7" d="M36.28,479c.46-.33-8.66-12.41-22.83-24.46-22.42-19.07-46.01-28.31-46.36-27.82-.3,.42,16.63,7.91,37.96,24.32,19.59,15.07,30.74,28.32,31.23,27.96Z"/></g></g><g><g><path class="cls-6" d="M136.3,3.39c1.39-2.12,3.6-5.4,6.48-9.35,5.69-7.79,7.27-8.95,11.14-14.58,4.3-6.25,6.96-10.11,8.55-15.69,2.31-8.06,.96-14.67,1.36-14.68,.4-.02-.33,8.44,3.35,17.18,1.66,3.95,4.33,8.22,11.9,15.49C198.25,.18,209.54,.12,212.1,10.22c2.41,9.5-5.9,16.19-2.4,18.85,3.64,2.77,12.07-4.97,32.82-11.51,13.92-4.39,17.03-3.2,31.71-8.67,7.16-2.67,13.05-4.86,20.07-9.18,12.36-7.6,15.53-13.98,18.69-12.93,3.71,1.24-.25,10.18,.98,30.39,.52,8.67,1.71,14.55-.39,23.88-1.44,6.42-2.47,9.58-5.61,12.58-9.75,9.28-31.91,7.12-45.67,.33-4.28-2.11-8.34-4.97-8.53-4.75-.43,.49,24.27,10.2,28,27.23,1.42,6.49-.44,12.96,4.21,15.49,4.1,2.23,9.18-.83,9.95,.4,1.35,2.14-12.26,14.62-29.95,15.7-4.39,.27-7.6-.25-9.85-.59-36.23-5.42-52.9,2.75-63.26-6.84-7.92-7.33-5.03-18.99-9.26-19.27-3.54-.23-4.02,8.02-12.82,14.59-9.5,7.09-21.76,7.04-25.24,7.02-3.34-.01-14.5-.21-25.08-7.19-1.63-1.08-2.87-2.08-3.89-3.1-5.67-5.6-8.6-10.72-9.42-12.3-7.02-13.37-29.27-28.06-28.16-29.13,.43-.42,3.46,2.23,9.95,5.11,3.72,1.65,12.92,5.63,24.68,5.37,3.73-.08,7.89-.17,11.15-1.53,10.36-4.3,13.62-22.19,8.86-43.63"/><path class="cls-4" d="M172.52,59.94c-8.66,1.9-9.29,6.76-17.92,10.01-1.81,.68-8.63,3.15-16.91,1.52-6.85-1.35-10.99-4.93-14.7-8.11-2.68-2.3-6-6.3-8.41-12.48-4.22-10.86-2-20.16-.19-31.16,4.64-28.15,3.2-47.39,5.88-47.44,.75-.01,.46,1.49,2.7,4.53,3.51,4.77,9.19,7.73,16.71,11.84,.23,.12,.39,.2,4.53,2.45,1.82,.99,4.46,2.43,8.42,4.56,16.97,9.16,16.62,8.82,17.91,9.76,3.91,2.88,9.91,7.31,13.34,15.04,1.16,2.61,5.39,12.15,.91,21.08-3.17,6.33-9.42,9.75-7.77,12.48,1.04,1.71,4.14,1.86,4.42,1.87,5.13,.16,8.93-5.36,11.33-8.84,2.1-3.05,3.95-5.78,4.29-9.54,.43-4.64-1.92-6.61-5.49-13.92-3.81-7.8-6.33-12.96-5.66-18.91,.84-7.44,6.29-12.57,7.89-14.07,5.48-5.17,11.81-7.48,25.94-10.85,17.82-4.25,32.69-6.61,51.63-8.77,21.07-2.4,26.44-2.16,27.16-.49,1.04,2.41-9.25,4.71-16.77,14.26-7.76,9.83-7.84,21.35-7.88,26.99-.09,11.64,3.73,12.46,2.08,20.56-.32,1.56-3.49,14.98-17.78,22.24-1.26,.64-12.39,6.12-24.14,3.15-3.42-.86-6.36-2.56-12.24-5.95-12.1-6.98-13.4-10.32-17.73-9.88-3.59,.36-6.61,3.79-12.66,10.63-2.71,3.07-4.96,5.65-4.16,6.56,.83,.94,4.77-1.79,12.49-3.67,2.06-.5,6.24-1.52,10.68-1.5,3.18,.01,8.15,.57,16.13,4.61,4.91,2.49,12.26,6.96,20.94,16.21,2.34,2.49,3.78,4.35,6.21,7.46,13.79,17.65,14.16,24.17,23.64,29,5.79,2.95,10.32,2.92,10.22,3.8-.14,1.33-18.7-.73-42.92,.67-14.28,.83-21.55,2.66-36.36,1.4-6.51-.55-12.55-1.1-20.11-3.54-7.79-2.51-14.45-4.67-18.75-10.58-4.05-5.56-4.86-12.88-2.6-18.7,.74-1.91,3.94-6.02,10.32-14.23,4.32-5.55,6.28-7.87,5.25-9.38-1.63-2.41-9.46-.75-9.87-.66Z"/><path class="cls-3" d="M122.31-23.25c-.21,.22,1.71,1.88,4.03,3.94,14.44,12.8,12.15,12.26,17.05,15.72,7.21,5.08,10.81,5.87,16.49,11.7,.95,.98,1.82,2.11,2.69,3.56,5.39,9.03,2.78,18.57,2.41,19.86-.55,1.9-1.63,5.46-4.76,9.1-7.06,8.24-16.53,7.52-17.22,12.14-.56,3.7,5.01,7.59,9.15,9.13,.98,.36,5.23,1.87,10.21,.77,1.15-.25,6.88-1.52,9.54-5.44,.69-1.01,1.56-2.77,2.81-2.75,.58,.01,.74,.39,1.64,.82,1.99,.95,4.23,.57,4.25,.41,.02-.15-1.81-.05-2.95-1.18-.16-.16-.66-.67-.75-1.44-.03-.26-.02-.65,.23-1.23,.51-1.2,1.53-1.91,1.68-2.02,1.88-1.36,6.61-7.44,7.9-11.47,2.03-6.34,.47-11.78-.41-14.73-.47-1.56-2.24-6.98-7.43-12.65-2.46-2.68-5.2-4.9-15.02-10.51-8.85-5.06-18.19-9.54-24.41-13.19-9.99-5.87-16.74-10.92-17.13-10.53Z"/><path class="cls-3" d="M179.92,59.11c-.78-1.15-.1-3.29,1.1-3.62,1.69-.46,3.15,3.07,6.56,3.14,1.15,.03,1.98-.36,2.77-.7,0,0,1.09-.47,10.75-3.37,5.07-1.52,9.67-1.07,12.62-.79,11.18,1.09,18.64,7.5,20.54,9.24,10.45,9.56,9.84,21.53,9.71,24.13-.25,4.97-.67,13.18-7.61,17.25-7.52,4.41-17.63,.97-18.39,.7-8.19-2.9-7.57-7.87-18.23-12.83-4.65-2.16-8.5-3.95-13.03-3.12-5.79,1.06-7.55,5.44-12.68,5.28-2.68-.08-6.36-1.41-7.75-3.84-4.79-8.35,18.62-27.92,15.7-30.4-.46-.39-1.48-.27-2.04-1.1Z"/><path class="cls-3" d="M193.85,28.97c-1.5-2.11-8.79-12.39-8.44-21.97,.4-10.96,10.7-18.38,11.44-18.9,3.23-2.26,6.45-3.51,10.76-5.06,1.64-.59,4.73-1.65,15.4-4.04,11.7-2.63,19.84-4.02,21.76-4.34,3.64-.61,6.09-.97,10.87-1.68,15.48-2.27,22.47-2.89,27.7-3.22,8.92-.55,14.54-.87,15.17,.75,.71,1.82-5.36,5.07-9.56,7.37-21.02,11.55-36.38,20-45.93,31.83-3.36,4.16-12.37,15.33-8,23.42,2.62,4.86,8.31,5.34,11.76,12.53,.21,.44,4.3,9.17,.14,12.45-2.69,2.12-7.5,.92-11.78-.14-6.92-1.72-12.33-5.28-18.97-9.65-4.64-3.05-4.79-3.55-6.54-3.89-6.06-1.19-13.95,2.87-18.24,8.08-3.05,3.7-3.49,7.01-5.84,7.09-1.98,.07-4.27-2.2-3.85-3.44,.28-.82,1.66-1,2.86-1.37,3.34-1.03,5.05-3.41,7.76-7.2,2.33-3.26,5.33-7.46,4.57-12.39-.43-2.77-1.85-4.52-3.05-6.21Z"/></g><g><path class="cls-7" d="M169.29,55.48c-.44,.41-8.18-4.05-15.62-10.82C131.42,24.39,127.37-2.5,127.89-2.65c.37-.1,2.54,13.53,14.66,30.39,12.3,17.1,27.37,27.14,26.75,27.73Z"/><path class="cls-7" d="M249.99,109.61c-.21,.53-9.36-.9-19.28-4.56-29.67-10.94-45.67-34.24-45.26-34.55,.29-.22,8.5,11.55,27.33,22.85,19.1,11.47,37.52,15.49,37.21,16.25Z"/><path class="cls-7" d="M208.41,30.69c-.46-.33,8.66-12.41,22.83-24.46,22.42-19.07,46.01-28.31,46.36-27.82,.3,.42-16.63,7.91-37.96,24.32-19.59,15.07-30.74,28.32-31.23,27.96Z"/></g></g></g></g></g></g></svg>