<?xml version="1.0" encoding="UTF-8"?><svg id="Calque_2" xmlns="http://www.w3.org/2000/svg" viewBox="0 0 38.49 66.88"><defs><style>.cls-1{fill:#556b49;}</style></defs><g id="img"><g id="IHlP3O"><g><path class="cls-1" d="M19.28,.02c11.48-.45,21.95,11.04,18.57,24.04-2.24,8.64-6.69,16.13-12.13,23.1-1.11,1.42-2.3,2.79-3.53,4.11-2.93,3.11-3.03,3.12-5.9,.05-4.74-5.07-8.66-10.72-11.76-16.94-1.86-3.74-3.48-7.56-4.21-11.7C-2.03,9.35,8.89-.54,19.28,.02Zm.09,7.38c-7.16-.04-12.51,5.31-12.55,12.56-.03,6.61,5.54,12.2,12.26,12.29,6.82,.09,12.52-5.5,12.56-12.33,.04-6.98-5.35-12.47-12.27-12.52Z"/><path class="cls-1" d="M19.3,60.53c2.06,0,4.05,.31,5.85,1.37,1.73,1.02,1.74,2.47,.07,3.6-2.71,1.84-9.29,1.84-12.01,.01-1.65-1.11-1.62-2.57,.09-3.62,1.84-1.13,3.9-1.35,6.01-1.36Z"/></g></g></g></svg>