<?xml version="1.0" encoding="UTF-8"?><svg xmlns="http://www.w3.org/2000/svg" viewBox="0 0 116.05 29.15"><defs><style>.d{fill:#fff;}</style></defs><g id="a"/><g id="b"><g id="c"><g><path class="d" d="M.53,10.39c.27-.06,.54-.1,.84-.15,.31,.02,.65,.04,.98,.06,.23,.02,.48,.04,.65,.23,.1,.08,.15,.19,.21,.32,.06,.15,.15,.29,.23,.44,.13,.27,.25,.52,.46,.75,.21,.19,.44,.29,.71,.4,.29,.1,.59,.17,.92,.21,.31,.04,.65,0,.96,0,.17,0,.31,.02,.48,0,.13,0,.27-.06,.4-.11,.25-.08,.5-.23,.71-.42,.11-.1,.21-.19,.31-.31,.08-.1,.15-.21,.19-.34,.08-.23,.1-.5,.02-.75-.17-.71-.21-1.42-2.28-1.69-.59-.06-1.32-.17-1.99-.38-.61-.17-1.23-.4-1.82-.71-.5-.31-1-.69-1.34-1.21-.15-.25-.25-.5-.33-.8-.17-.56-.15-1.17-.15-1.69,.04-.34,.1-.63,.23-.94,.38-.96,1-1.84,1.86-2.45,.44-.29,.94-.59,1.44-.71C5.2-.05,6.05,0,6.24,.04c.63,.08,1.28,.12,1.86,.4,.15,.06,.29,.17,.46,.23,.15,.06,.29,.1,.42,.17,.25,.15,.5,.31,.71,.52,.23,.21,.46,.46,.65,.69,.21,.23,.65,1.25,.71,1.57,.02,.12,.02,.29,.02,.44,0,.08-.04,.19-.13,.23-.1,.08-.25,.1-.42,.12-.15,.04-.31,.06-.48,.08-.36,.04-.69,.1-1.05,.15-.23,.02-.46-.04-.59-.27-.04-.04-.08-.1-.13-.19-.19-.19-.75-1.01-1.03-1.15-.25-.15-.65-.25-.92-.29-.52-.1-1.09-.08-1.59,.12-.48,.21-.88,.52-1.13,.98-.25,.46-.17,1.8,.77,2.09,1.78,.67,3.6,.65,4.83,1.32,.54,.25,1,.63,1.34,1.11,.19,.25,.38,.52,.46,.81,.1,.29,.15,.77,.17,1.09,.06,.63,0,1.21-.21,1.8-.08,.29-.23,.54-.38,.8-.12,.27-.27,.54-.44,.75-.19,.21-.4,.4-.61,.56-.23,.15-.52,.29-.77,.42-.29,.12-.61,.27-.92,.4-.15,.04-.31,.1-.46,.15-.17,.06-.33,.08-.48,.08-.19,.02-.36,.04-.52,.06-.17,.02-.34,.04-.5,.02-.08-.02-.17-.04-.25-.04h-.25c-.15-.02-.33-.02-.5-.04-.15-.02-.29-.06-.46-.1-.17-.04-.31-.1-.46-.15-.29-.08-.61-.19-.9-.29-.25-.08-.52-.21-.75-.38-.12-.06-.23-.15-.36-.27-.1-.08-.19-.21-.31-.27-.12-.1-.23-.17-.33-.25-.1-.1-.21-.23-.29-.33-.08-.08-.17-.19-.27-.31-.08-.08-.17-.19-.25-.34-.06-.1-.1-.23-.17-.4-.04-.15-.15-.27-.21-.42-.1-.29-.1-.59-.12-.88,0-.06-.02-.15,0-.19,.02-.04,.04-.06,.08-.08,.13-.06,.27-.1,.44-.17Z"/><path class="d" d="M18.76,2.98h-1.42c-.1,0-.19,.02-.27,.06-.19,.08-.21,.31-.23,.5-.02,.29-.08,.46-.08,.77,.02,.15,.04,.29,.06,.44,.02,.15,.02,.29,.02,.46v.46c.02,.12,.02,.23,.11,.31,.08,.06,.21,.08,.31,.08h.46c.31,0,1.02,.02,1.34,.04,.31,.02,.63-.06,.94-.04,.31,.02,1.04,.02,1.36,.02,.15,0,.31,0,.46,.02,.06,0,.17,.02,.19,.08,.04,.04,.04,.1,.04,.15,.02,.08,.02,.17,.04,.23,.02,.17,.02,.4,0,.56,0,.31,0,.65-.02,.96,0,.15-.02,.31-.02,.46-.02,.06-.02,.12-.02,.17v.02h-.1c-.08,0-.17,.02-.23,.02h-.44c-.29,0-.92-.02-1.21,0-.31,.02-.63,.02-.96,0-.31,0-1.02-.04-1.34-.02-.17,.02-.31,.02-.46,.04-.13,0-.25,0-.36,.06-.08,.08-.08,.19-.1,.27-.02,.17-.02,2.7,0,2.84,.02,.08,.04,.19,.08,.25,.04,.08,.1,.1,.19,.12,3.72,.04,4.71-.02,5.96,0h.98c.08,0,.23,0,.31,.02t.02,.04s.04,.08,.06,.12c.06,.29-.06,2.22-.06,2.28v.06l-.02,.02v.04s0,.02-.02,.02c-.02,0,.02,0-.02,0,0,0-.02,0-.04,.02h-.1c-.27,.04-.67,.02-.94,0-.33,0-1.61,.04-1.92,.04-.31-.02-.63-.04-.94-.06-.65,0-1.3,.06-1.95,.04-.31,0-.63,.02-.94,0-.15,0-.31,0-.46-.02s-.29-.04-.46-.04c-.15,0-.31,.02-.46,.04h-.48c-.31,0-.71-.04-1.03-.04-.12,0-.25,.02-.31-.08-.08-.1-.11-.23-.11-.36,0-.29,.02-.61,0-.98-.06-.65,0-1.13,.04-1.76,.04-.67,.04-1.3,.02-1.94-.02-.31-.04-.82-.06-1.13-.02-.33-.02-.65-.02-.98-.02-.63-.02-1.28-.02-1.9,.02-.34,.08-.65,.08-.98,0-.32,0-.63,.02-.98,.02-.31,.08-.63,.08-.96,.02-.31,0-.63,0-.96s0-.65-.02-.96c-.02-.15-.06-.35,.04-.48,.15-.15,.4-.17,.61-.19,.29-.04,.61-.08,.92-.06,.15,0,.29,.04,.46,.06,.06,.02,.15,.02,.23,.02s.17,0,.25,.02c.31,0,.63,.04,.94,.04,.31,.02,.63,.02,.96,0,.31-.02,1.55,0,1.86,0,.31,.02,.65,.02,.96,.02,.65,.02,1.28,0,1.9,0,.29,0,.61-.02,.88,.1,.1,.06,.1,.15,.12,.25,.04,.15,.08,.29,.13,.44,.02,.17,.02,.31,.02,.48v1.11c0,.13-.06,.13-.17,.15-.31,.04-.61,.06-.92,.08-.31,0-.63,.02-.94,0-.31,0-3.14-.04-3.79-.02Z"/><path class="d" d="M44.05,4.51c.02,.44,.04,.9,.06,1.34,.02,.77-.1,1.57-.15,2.34v1.17c0,.4-.02,.79-.02,1.19,0,.77,.04,1.57,.02,2.36-.02,.38-.04,.77-.06,1.17,0,.19,0,.38-.02,.56,0,.08,0,.19-.02,.27,0,.06-.06,.04-.13,.04-.38-.02-.56,.02-.94,.02-.4,0-.82,.02-1.19-.06-.02,0-.04-.02-.08-.02h-.02s0-.02-.02-.02v-.63c0-.19-.02-.38-.04-.56-.04-.38-.1-.75-.1-1.13s.04-.77,.08-1.15c.02-.38-.1-3.58-.1-3.95,0-.29,.02-.59-.02-.88,0-.06-.02-.12-.08-.17-.06-.04-.12-.02-.17,.02-.04,.02-3.26,6.04-3.62,6.69-.13,.21-.23,.42-.36,.63-.04,.08-.06,.15-.11,.21-.02,.02-.02,.04-.04,.08v.02s-.06,.04-.12,.04h-.8c-.06,0-.12,0-.17,.02h-.02c-.08-.02-.15-.02-.21-.02h-.67c-.08,0-.17,.04-.21-.04-.04-.04-.06-.1-.1-.17-.1-.23-.23-.46-.36-.69-.42-.73-.84-1.48-1.28-2.22-.46-.81-2.09-3.81-2.41-4.29-.02-.04-.04-.08-.08-.12-.06-.06-.19-.06-.23,.02-.04,.06-.04,.15-.04,.23-.02,.4,0,.79-.02,1.21,0,.21-.02,.44-.04,.65-.02,.23,.04,.82,0,1.05-.04,.44,.04,3.6,.02,4.04-.02,.23-.04,.46-.04,.67v.5h-.04c-.08,.02-.15,.04-.21,.04-.23,.02-.48,.02-.71,.02-.46,0-.86-.04-1.32-.04h-.1s-.1,.02-.13,0c-.04-.02-.04-.17-.04-.21-.02-.23-.02-.46-.02-.67-.02-.48-.04-.94-.06-1.4-.02-.94-.02-1.86-.04-2.8v-1.38c-.02-.46-.04-.9-.08-1.36-.02-.23-.04-.46-.06-.69-.02-.23,0-.46,0-.67,.02-.46,.04-.92,.06-1.38,0-.23,.02-.46,.02-.69v-.71c-.02-.46,0-.9,.02-1.36,.02-.23-.02-.46,.02-.69,0-.12,.02-.25,.06-.38,.04-.06,.06-.1,.15-.15,.08-.06,.23-.08,.33-.1,.44-.06,.88-.04,1.32,0l.69,.06c.17,.02,.31,.04,.4,.19,.1,.15,.19,.32,.27,.48,.42,.69,4.48,8.16,4.56,8.3,.08,.15,.36,.69,.44,.82,.19,.27,.38-.19,.52-.46,.08-.12,4-7.53,4.43-8.3,.12-.23,.25-.46,.4-.69,.04-.08,.08-.17,.15-.23,.13-.12,.36-.1,.52-.12,.21-.02,.56-.04,.8-.06,.23,0,.44-.02,.67,0,.21,0,.15,.02,.33,.04,.1,.04,.21,.06,.29,.12,.04,.02,.08,.1,.1,.19,.04,.15,.06,.29,.06,.46,.04,.23,.04,.44,.06,.67,.02,.46,.02,.92,.02,1.38,0,.23-.02,.46,0,.67,0,.23,.02,.44,.02,.67Z"/><path class="d" d="M51.96,2.98h-1.42c-.1,0-.19,.02-.27,.06-.19,.08-.21,.31-.23,.5-.02,.29-.08,.46-.08,.77,.02,.15,.04,.29,.06,.44,.02,.15,.02,.29,.02,.46v.46c.02,.12,.02,.23,.11,.31,.08,.06,.21,.08,.31,.08h.46c.31,0,1.02,.02,1.34,.04,.31,.02,.63-.06,.94-.04,.31,.02,1.04,.02,1.36,.02,.15,0,.31,0,.46,.02,.06,0,.17,.02,.19,.08,.04,.04,.04,.1,.04,.15,.02,.08,.02,.17,.04,.23,.02,.17,.02,.4,0,.56,0,.31,0,.65-.02,.96,0,.15-.02,.31-.02,.46-.02,.06-.02,.12-.02,.17v.02h-.1c-.08,0-.17,.02-.23,.02h-.44c-.29,0-.92-.02-1.21,0-.31,.02-.63,.02-.96,0-.31,0-1.02-.04-1.34-.02-.17,.02-.31,.02-.46,.04-.13,0-.25,0-.36,.06-.08,.08-.08,.19-.1,.27-.02,.17-.02,2.7,0,2.84,.02,.08,.04,.19,.08,.25,.04,.08,.1,.1,.19,.12,3.72,.04,4.71-.02,5.96,0h.98c.08,0,.23,0,.31,.02t.02,.04s.04,.08,.06,.12c.06,.29-.06,2.22-.06,2.28v.06l-.02,.02v.04s0,.02-.02,.02c-.02,0,.02,0-.02,0,0,0-.02,0-.04,.02h-.1c-.27,.04-.67,.02-.94,0-.33,0-1.61,.04-1.92,.04-.31-.02-.63-.04-.94-.06-.65,0-1.3,.06-1.95,.04-.31,0-.63,.02-.94,0-.15,0-.31,0-.46-.02s-.29-.04-.46-.04c-.15,0-.31,.02-.46,.04h-.48c-.31,0-.71-.04-1.03-.04-.12,0-.25,.02-.31-.08-.08-.1-.11-.23-.11-.36,0-.29,.02-.61,0-.98-.06-.65,0-1.13,.04-1.76,.04-.67,.04-1.3,.02-1.94-.02-.31-.04-.82-.06-1.13-.02-.33-.02-.65-.02-.98-.02-.63-.02-1.28-.02-1.9,.02-.34,.08-.65,.08-.98,0-.32,0-.63,.02-.98,.02-.31,.08-.63,.08-.96,.02-.31,0-.63,0-.96s0-.65-.02-.96c-.02-.15-.06-.35,.04-.48,.15-.15,.4-.17,.61-.19,.29-.04,.61-.08,.92-.06,.15,0,.29,.04,.46,.06,.06,.02,.15,.02,.23,.02s.17,0,.25,.02c.31,0,.63,.04,.94,.04,.31,.02,.63,.02,.96,0,.31-.02,1.55,0,1.86,0,.31,.02,.65,.02,.96,.02,.65,.02,1.28,0,1.9,0,.29,0,.61-.02,.88,.1,.1,.06,.1,.15,.12,.25,.04,.15,.08,.29,.13,.44,.02,.17,.02,.31,.02,.48v1.11c0,.13-.06,.13-.17,.15-.31,.04-.61,.06-.92,.08-.31,0-.63,.02-.94,0-.31,0-3.14-.04-3.79-.02Z"/><path class="d" d="M70.95,5.58v-1.97c0-.65-.02-1.3-.04-1.94-.02-.32-.02-.65-.02-.96,0-.1,0-.19,.1-.25,.04-.02,.1-.04,.15-.04,.08-.02,.17-.04,.25-.06,.15-.04,.32-.02,.46-.02h.5c.32,.02,.75,.02,1.09,.04,.06,0,.12,0,.21,.02h.04s0,0,0,0c.02,.08,.02,.23,.02,.34,.02,.33,0,.65,0,.98v1.94c-.02,.65-.17,1.3-.19,1.95-.02,.65,.04,1.3,.06,1.94s.04,1.28,.06,1.92,.1,1.28,.1,1.92c-.02,.65-.04,1.3-.02,1.97,0,.31,.02,.63,.02,.94-.02,.17-.02,.31-.04,.46,0,.08-.02,.12-.11,.15-.1,.06-.25,.04-.37,.06-.17,.02-.46,.02-.63,.02-.15,0-.31,0-.48-.02-.15-.02-.31-.04-.46-.04-.1,0-.21-.02-.31-.06-.1-.06-.17-.15-.25-.25-.19-.23-.38-.48-.59-.73-.79-.98-1.59-1.96-2.3-3.01-1.8-1.88-1.57-1.76-4.46-5.35-.08-.1-.25-.25-.38-.12-.1,.08-.08,.27-.1,.4,0,.17-.02,.31,0,.48,.02,.31,.06,.84,.08,1.17,.02,.31,.04,.82,.04,1.15,.04,.63,.04,1.28,.02,1.92,0,.65-.02,1.65-.02,2.3,.02,.65,.02,1.3,0,1.95,0,.06,0,.1-.02,.15-.02,.02-.02,.04-.04,.04-.11,.06-.25,.04-.36,.04h-.96c-.31-.02-.65-.02-.96-.02-.08,.02-.17,.02-.19-.06v-.21c0-.08-.02-.17-.02-.25-.06-1.3-.1-2.59-.12-3.89l-.1-.94c0-.34,.02-.65,0-.96-.02-.65-.1-1.3-.13-1.95-.04-.65-.02-1.3,0-1.94,0-.65,.1-1.3,.15-1.92,.02-.31,.08-.65,.06-.96V.93c.02-.12,0-.25,.04-.38,.02-.04,.04-.08,.1-.08,.13-.04,.25-.04,.38-.04,.15,0,.31,0,.48-.02,.33-.02,.65-.02,.96-.04,.17,0,.33-.02,.5-.02,.08,0,.19,.04,.27,.1,.1,.08,.19,.21,.27,.31,.08,.13,.17,.38,.27,.5,.17,.25,.96,1.13,1.11,1.4,.08,.12,.17,.25,.25,.38,.08,.12,.19,.23,.27,.36,.19,.25,.38,.5,.56,.75,.36,.5,2.49,3.03,3.26,4.08,.17,.23,.36,.46,.54,.67,.1,.1,.21,.21,.31,.32s.21,.17,.33,.25c.04,.02,.1,0,.15-.02,.08-.08,.1-.17,.1-.27,.02-.12,.02-.23,.02-.33,.04-.25,.04-.52,.04-.77v-2.49Z"/><path class="d" d="M83.52,.08c.31-.04,.61-.04,.9-.06,1.09,0,2.22,.27,3.16,.77,.44,.23,.82,.54,1.15,.88,.17,.17,.34,.35,.48,.54,.08,.1,.17,.21,.19,.34,0,.12-.1,.25-.21,.36-.19,.23-.38,.46-.59,.69-.1,.1-.19,.21-.29,.31s-.19,.21-.29,.34c-.08,.06-.15,.15-.27,.19,0,.02-.02,.02-.02,.02h-.02s-.04,0-.08-.02c-.08-.02-.17-.11-.27-.15-.1-.08-.19-.19-.29-.27-.21-.17-.44-.31-.69-.46-.23-.15-.46-.29-.69-.42-.23-.12-.5-.21-.77-.27-.27-.04-.54-.04-.81-.04-.63,0-1.11,.06-1.69,.23-.15,.02-.27,.04-.4,.1-.12,.06-.25,.1-.36,.17-.23,.12-.46,.25-.67,.4-.23,.17-.44,.34-.61,.54-.08,.08-.19,.17-.25,.27-.08,.12-.17,.25-.23,.38-.29,.48-.59,.98-.8,1.5-.12,.27-.06,.56-.1,.84-.04,.27,0,.56,.02,.84,.02,.54-.06,1.05,.17,1.51,.23,.52,.59,.98,.92,1.4,.33,.44,.69,.54,1.15,.84,.86,.56,1.82,1,2.82,.88,.54-.06,.69-.12,1.21-.31,.25-.1,.9-.31,1.17-.42,.23-.12,.46-.35,.67-.54,.21-.17,.4-.38,.56-.59,.08-.1,.19-.25,.29-.34,.08-.08,.17-.06,.25,0,.1,.08,.21,.34,.29,.44,.08,.08,.19,.19,.27,.31,.17,.23,.36,.44,.5,.69,.13,.19,.25,.4,.29,.61,.02,.19-.02,.31-.1,.44-.15,.21-.36,.36-.54,.5-.23,.17-.48,.29-.73,.44-.56,.29-1.09,.56-1.63,.79-.27,.13-.54,.23-.82,.29-.27,.08-.56,.13-.88,.19-.29,.06-.59,.11-.88,.11s-.63-.04-.92-.06c-.59-.04-1.19-.12-1.78-.27-.27-.06-.56-.15-.82-.25-.12-.06-.23-.15-.36-.21-.1-.08-.23-.12-.33-.19-.5-.25-.9-.61-1.3-.96-.38-.36-.77-.71-1.07-1.17-.31-.44-.52-.96-.71-1.49-.21-.56-.32-1.13-.38-1.72-.08-.61-.15-1.23-.12-1.84,.02-.61,.08-1.19,.25-1.78,.1-.27,.21-.54,.29-.84,.08-.25,.21-.5,.38-.71,.31-.46,.69-.86,1.13-1.25,.23-.19,.46-.38,.67-.56,.23-.19,.46-.4,.69-.59,.38-.35,.84-.63,1.34-.79,.25-.1,.52-.17,.82-.23,.27-.08,.59-.15,.88-.21,.29-.04,.59-.1,.86-.12Z"/><path class="d" d="M96.84,2.98h-1.42c-.1,0-.19,.02-.27,.06-.19,.08-.21,.31-.23,.5-.02,.29-.08,.46-.08,.77,.02,.15,.04,.29,.06,.44,.02,.15,.02,.29,.02,.46v.46c.02,.12,.02,.23,.1,.31,.08,.06,.21,.08,.31,.08h.46c.31,0,1.03,.02,1.34,.04s.63-.06,.94-.04,1.05,.02,1.36,.02c.15,0,.32,0,.46,.02,.06,0,.17,.02,.19,.08,.04,.04,.04,.1,.04,.15,.02,.08,.02,.17,.04,.23,.02,.17,.02,.4,0,.56,0,.31,0,.65-.02,.96,0,.15-.02,.31-.02,.46-.02,.06-.02,.12-.02,.17v.02h-.1c-.08,0-.17,.02-.23,.02h-.44c-.29,0-.92-.02-1.21,0-.31,.02-.63,.02-.96,0-.31,0-1.02-.04-1.34-.02-.17,.02-.31,.02-.46,.04-.13,0-.25,0-.36,.06-.08,.08-.08,.19-.1,.27-.02,.17-.02,2.7,0,2.84,.02,.08,.04,.19,.08,.25,.04,.08,.1,.1,.19,.12,3.72,.04,4.71-.02,5.96,0h.98c.08,0,.23,0,.32,.02t.02,.04s.04,.08,.06,.12c.06,.29-.06,2.22-.06,2.28v.06l-.02,.02v.04s0,.02-.02,.02c-.02,0,.02,0-.02,0,0,0-.02,0-.04,.02h-.1c-.27,.04-.67,.02-.94,0-.34,0-1.61,.04-1.92,.04-.32-.02-.63-.04-.94-.06-.65,0-1.3,.06-1.95,.04-.31,0-.63,.02-.94,0-.15,0-.32,0-.46-.02-.15-.02-.29-.04-.46-.04-.15,0-.31,.02-.46,.04h-.48c-.31,0-.71-.04-1.03-.04-.12,0-.25,.02-.31-.08-.08-.1-.1-.23-.1-.36,0-.29,.02-.61,0-.98-.06-.65,0-1.13,.04-1.76,.04-.67,.04-1.3,.02-1.94-.02-.31-.04-.82-.06-1.13-.02-.33-.02-.65-.02-.98-.02-.63-.02-1.28-.02-1.9,.02-.34,.08-.65,.08-.98,0-.32,0-.63,.02-.98,.02-.31,.08-.63,.08-.96,.02-.31,0-.63,0-.96s0-.65-.02-.96c-.02-.15-.06-.35,.04-.48,.15-.15,.4-.17,.61-.19,.29-.04,.61-.08,.92-.06,.15,0,.29,.04,.46,.06,.06,.02,.15,.02,.23,.02s.17,0,.25,.02c.31,0,.63,.04,.94,.04,.32,.02,.63,.02,.96,0,.32-.02,1.55,0,1.86,0,.31,.02,.65,.02,.96,.02,.65,.02,1.28,0,1.9,0,.29,0,.61-.02,.88,.1,.1,.06,.1,.15,.12,.25,.04,.15,.08,.29,.13,.44,.02,.17,.02,.31,.02,.48v1.11c0,.13-.06,.13-.17,.15-.31,.04-.61,.06-.92,.08-.32,0-.63,.02-.94,0-.32,0-3.14-.04-3.79-.02Z"/><path class="d" d="M105.36,10.39c.27-.06,.54-.1,.83-.15,.32,.02,.65,.04,.98,.06,.23,.02,.48,.04,.65,.23,.1,.08,.15,.19,.21,.32,.06,.15,.15,.29,.23,.44,.12,.27,.25,.52,.46,.75,.21,.19,.44,.29,.71,.4,.29,.1,.59,.17,.92,.21,.31,.04,.65,0,.96,0,.17,0,.31,.02,.48,0,.12,0,.27-.06,.4-.11,.25-.08,.5-.23,.71-.42,.1-.1,.21-.19,.31-.31,.08-.1,.15-.21,.19-.34,.08-.23,.1-.5,.02-.75-.17-.71-.21-1.42-2.28-1.69-.59-.06-1.32-.17-1.99-.38-.61-.17-1.23-.4-1.82-.71-.5-.31-1-.69-1.34-1.21-.15-.25-.25-.5-.33-.8-.17-.56-.15-1.17-.15-1.69,.04-.34,.1-.63,.23-.94,.38-.96,1-1.84,1.86-2.45,.44-.29,.94-.59,1.44-.71,.96-.19,1.82-.15,2.01-.1,.63,.08,1.28,.12,1.86,.4,.15,.06,.29,.17,.46,.23,.15,.06,.29,.1,.42,.17,.25,.15,.5,.31,.71,.52,.23,.21,.46,.46,.65,.69,.21,.23,.65,1.25,.71,1.57,.02,.12,.02,.29,.02,.44,0,.08-.04,.19-.13,.23-.1,.08-.25,.1-.42,.12-.15,.04-.31,.06-.48,.08-.36,.04-.69,.1-1.05,.15-.23,.02-.46-.04-.59-.27-.04-.04-.08-.1-.12-.19-.19-.19-.75-1.01-1.03-1.15-.25-.15-.65-.25-.92-.29-.52-.1-1.09-.08-1.59,.12-.48,.21-.88,.52-1.13,.98-.25,.46-.17,1.8,.77,2.09,1.78,.67,3.6,.65,4.83,1.32,.54,.25,1,.63,1.34,1.11,.19,.25,.37,.52,.46,.81,.1,.29,.15,.77,.17,1.09,.06,.63,0,1.21-.21,1.8-.08,.29-.23,.54-.38,.8-.12,.27-.27,.54-.44,.75-.19,.21-.4,.4-.61,.56-.23,.15-.52,.29-.77,.42-.29,.12-.61,.27-.92,.4-.15,.04-.31,.1-.46,.15-.17,.06-.34,.08-.48,.08-.19,.02-.35,.04-.52,.06s-.33,.04-.5,.02c-.08-.02-.17-.04-.25-.04h-.25c-.15-.02-.34-.02-.5-.04-.15-.02-.29-.06-.46-.1-.17-.04-.31-.1-.46-.15-.29-.08-.61-.19-.9-.29-.25-.08-.52-.21-.75-.38-.12-.06-.23-.15-.35-.27-.1-.08-.19-.21-.32-.27-.12-.1-.23-.17-.33-.25-.1-.1-.21-.23-.29-.33-.08-.08-.17-.19-.27-.31-.08-.08-.17-.19-.25-.34-.06-.1-.1-.23-.17-.4-.04-.15-.15-.27-.21-.42-.1-.29-.1-.59-.12-.88,0-.06-.02-.15,0-.19,.02-.04,.04-.06,.08-.08,.12-.06,.27-.1,.44-.17Z"/><path class="d" d="M28.45,27.16h0c-.01-.31,0-.59-.01-.88s-.04-.59-.04-.88c0-.28-.01-.57-.04-.86-.03-.29,.01-.59,.03-.88,.03-.28,.04-.57,.07-.85,.03-.29-.11-.57-.12-.88-.03-.57,.12-1.15,.12-1.73v-.45c0-.1,.01-.21,.04-.31,.01-.05,.04-.11,.1-.15,.07-.06,.15-.07,.24-.1,1.42-.17,2.1-.11,3.29,.1,.14,.04,.27,.05,.4,.08,.14,.01,.28,.05,.41,.08,.28,.07,.54,.14,.81,.21,.52,.14,1.02,.32,1.49,.56,.22,.13,.46,.27,.64,.43,.1,.1,.18,.2,.26,.31,.1,.11,.18,.21,.28,.31,.17,.18,.33,.38,.47,.59,.13,.2,.22,.42,.31,.64,.04,.11,.07,.25,.1,.36,.04,.14,.08,.27,.11,.42,.08,.27,.14,.54,.17,.82,.03,.28,.01,.56-.06,.82-.06,.25-.14,.5-.25,.72-.2,.46-.45,.92-.77,1.3-.15,.21-.35,.39-.53,.57-.08,.08-.17,.2-.25,.28-.1,.08-.18,.15-.29,.21-.22,.12-.47,.22-.71,.31-.27,.08-.52,.18-.78,.26-.27,.08-.53,.2-.81,.24-.26,.05-.53,.08-.79,.12-.57,.06-1.13,.04-1.7,.04-.12,0-.26,.03-.4,.03-.14,.01-.26,0-.4,0-.29-.01-.57,0-.86,0-.06,0-.12,.01-.2,.01-.04,0-.11,0-.15-.01l-.03-.03c-.01-.06-.03-.13-.04-.18-.03-.07-.06-.13-.07-.18-.01-.07-.01-.12-.01-.2v-1.27Zm1.7-1.17c.01,.15,.01,.29,.03,.45,.01,.2,.01,.39,.06,.59,0,.04,.01,.11,.06,.15,.04,.04,.1,.04,.15,.04h.56c.32-.01,.64-.03,.96-.06,.25-.03,.5-.05,.75-.1,.17-.03,.35-.07,.52-.1,.12-.03,.24-.07,.35-.1,.12-.03,.24-.07,.35-.11,.15-.05,.29-.12,.43-.24,.14-.1,.42-.22,.52-.36,.21-.28,.39-.57,.5-.91,.06-.17,.08-.33,.11-.53,.01-.08,.01-.18,.03-.27,.01-.1,.04-.2,.06-.29,.04-.21,.03-.42,0-.63-.01-.17-.06-.35-.11-.52-.04-.15-.1-.29-.2-.43-.06-.07-.11-.14-.17-.2-.07-.06-.12-.11-.17-.18-.1-.14-.38-.26-.5-.38-.06-.04-.13-.1-.2-.12-.08-.04-.15-.07-.24-.11-.08-.03-.17-.08-.25-.12-.08-.04-.18-.07-.26-.11-.18-.06-.36-.13-.54-.17-.36-.1-.72-.17-1.1-.2-.2-.03-.39-.04-.59-.04-.1-.02-.2-.02-.29-.02h-.29c-.08,.02-.18,.03-.25,.07-.07,.03-.13,.07-.15,.12-.03,.08-.01,.17-.01,.25v.32c0,.42,0,.82-.01,1.24,0,.42,0,.85-.01,1.25,0,.21,.08,.42,.08,.61,0,.21-.1,.42-.11,.63-.01,.17-.03,.33-.04,.5h0v.04Z"/><path class="d" d="M42.43,20.93h-.95c-.07,0-.13,.01-.18,.04-.12,.05-.14,.21-.15,.33-.01,.2-.06,.31-.06,.52,.01,.1,.03,.2,.04,.29s.01,.2,.01,.31v.31c.01,.08,.01,.15,.07,.21,.06,.04,.14,.05,.21,.05h.31c.21,0,.68,.01,.89,.03,.21,.02,.42-.04,.63-.03,.21,.01,.7,.01,.91,.01,.1,0,.21,0,.31,.01,.04,0,.11,.02,.13,.06,.03,.03,.03,.07,.03,.1,.01,.05,.01,.11,.03,.15,.01,.11,.01,.27,0,.38,0,.21,0,.43-.01,.64,0,.1-.01,.21-.01,.31-.01,.04-.01,.08-.01,.11h-.07c-.06,.01-.11,.03-.15,.03h-.29c-.2,0-.61-.01-.81,0-.21,.01-.42,.01-.64,0-.21,0-.68-.03-.89-.01-.11,.01-.21,.01-.31,.03-.08,0-.17,0-.24,.04-.06,.05-.06,.12-.07,.18-.01,.11-.01,1.8,0,1.89,.01,.05,.03,.12,.06,.17,.03,.06,.07,.07,.13,.08,2.48,.03,3.13-.01,3.97,0h.65c.06,0,.15,0,.21,.01t.01,.03s.03,.05,.04,.08c.04,.2-.04,1.47-.04,1.52v.03h0v.04h-.01s0,.03-.01,.03,.01,0-.01,0c0,0-.01,0-.03,.01h-.07c-.18,.03-.45,.01-.63,0-.22,0-1.07,.03-1.28,.03l-.63-.04c-.43,0-.86,.04-1.3,.03-.21,0-.42,.01-.63,0-.1,0-.21,0-.31-.01-.1-.01-.19-.03-.31-.03-.1,0-.21,.01-.31,.03h-.32c-.21,0-.47-.03-.68-.03-.08,0-.17,.01-.21-.06-.06-.07-.07-.15-.07-.24,0-.2,.01-.4,0-.66-.04-.43,0-.75,.03-1.17,.03-.44,.03-.86,.01-1.3-.01-.21-.03-.54-.04-.75-.01-.22-.01-.43-.01-.66-.01-.42-.01-.85-.01-1.27,.01-.22,.06-.43,.06-.65,0-.21,0-.42,.01-.66,.01-.21,.06-.42,.06-.64,.01-.21,0-.42,0-.64s0-.43-.01-.64c-.01-.1-.04-.24,.03-.32,.1-.1,.27-.11,.41-.12,.2-.03,.4-.05,.61-.04,.1,0,.2,.03,.31,.04,.04,.01,.1,.01,.15,.01s.11,0,.17,.01c.21,0,.42,.03,.63,.03,.21,.01,.42,.01,.64,0,.21-.01,1.03,0,1.24,0,.21,.01,.43,.01,.64,.01,.43,.01,.85,0,1.27,0,.2,0,.4-.01,.59,.07,.07,.04,.07,.1,.08,.17,.03,.1,.06,.2,.08,.29,.01,.11,.01,.21,.01,.32v.74c0,.08-.04,.08-.11,.1-.21,.03-.4,.04-.61,.05-.21,0-.42,.02-.63,0-.21,0-2.09-.03-2.52-.01Z"/><path class="d" d="M52.19,25.98c0-.29,.07-.57,.07-.85,0-.31-.01-.59,.01-.86,.01-.14,.03-.28,.01-.42,0-.14-.01-.28-.03-.43-.03-.28-.07-.57-.08-.86,0-.28,.01-.56,.04-.84,.01-.28,.01-.57,.03-.85,0-.29,.01-.59,.01-.86,0-.12,0-.27-.01-.4,0-.07-.01-.12,0-.17v-.04s.01-.06,0-.04c.01-.03,.03-.03,.06-.04,.03-.03,.08-.04,.13-.06,.11-.04,.24-.07,.36-.11,.27-.07,.52-.12,.78-.12,.29,0,.57,0,.86,.01,.28,.01,.56,.04,.83,.04s.56,0,.84,.02c.28,.03,.57,.04,.84,.11,.27,.07,.53,.17,.79,.25,.24,.07,.47,.15,.68,.27,.39,.18,.72,.46,.96,.81,.14,.21,.25,.43,.32,.66,.08,.24,.11,.47,.11,.72,.01,.27,.03,.54,.01,.82-.01,.14-.03,.29-.07,.42-.03,.12-.07,.25-.1,.39-.01,.11-.03,.22-.07,.34-.04,.1-.1,.2-.17,.26-.15,.2-.35,.36-.53,.53-.1,.08-.18,.17-.28,.25-.08,.07-.18,.14-.29,.21-.2,.11-.4,.2-.63,.24-.28,.05-.56,.11-.82,.15-.14,.03-.28,.06-.42,.07-.14,.01-.28,.03-.4,.04-.28,.03-.57,.05-.85,.07-.14,.01-.28,.01-.42,.01-.11,0-.22-.01-.33,0-.13,.02-.27,.04-.33,.15-.03,.04-.06,.1-.06,.14-.03,.1-.04,.2-.04,.31-.07,.57-.03,1.14-.04,1.7v.64c-.01,.06,0,.1-.01,.15-.01,.01-.03,.04-.03,.04-.03,.03-.07,.03-.11,.04-.12,.02-.26,0-.39,.02-.14,0-.26,.01-.4,.04-.07,.01-.12,.03-.2,.03-.18,0-.25,0-.31-.01-.08,0-.2,0-.24-.08-.03-.04-.03-.08-.04-.12,0-.08-.01-.15-.01-.22-.06-.57-.07-1.13-.07-1.7,0-.28,.03-.56,.03-.84Zm1.84-4.78c.03,.08,.06,.18,.07,.27v.14c.01,.06,0,.11,0,.15,0,.12-.01,.24-.01,.33-.01,.21-.01,.43-.03,.66,0,.22-.01,.44,0,.65,0,.06,0,.1,.01,.15,.01,.04,.04,.08,.08,.11,.08,.05,.18,.03,.28,.03,.21-.01,1.09,.04,1.3,.01,.21-.03,.42-.05,.64-.07,.1-.02,.85-.13,.95-.15s.18-.04,.25-.1c.17-.1,.25-.27,.31-.43,.03-.11,.04-.21,.07-.31,.01-.11,.03-.21,.03-.31,.01-.19-.03-.36-.13-.52-.06-.1-.11-.17-.18-.25-.06-.07-.13-.15-.2-.22-.14-.14-.28-.28-.45-.36-.08-.06-.17-.1-.25-.12-.1-.03-.2-.03-.29-.04-.21-.01-.42-.01-.63,.01-.03,0-.06,.01-.08,.01h-.07c-.06,.02-.11,.02-.17,.02-.11,.01-.21,0-.32,0-.1,0-.2,.01-.31,.01h-.61c-.07,0-.14,0-.21,.04-.04,.01-.07,.07-.08,.12,0,.06,.01,.11,.03,.15Z"/><path class="d" d="M70,28.88v.02s-.03,0-.04,.01c-.04,.01-.1,.03-.15,.03h-1.72s-.04-.04-.05-.07c-.03-.04-.04-.07-.07-.11-.04-.08-.08-.17-.11-.25-.03-.08-.06-.18-.1-.28-.03-.08-.07-.18-.11-.27-.15-.38-.28-.77-.43-1.14-.03-.07-.06-.15-.08-.22-.29-.04-.59-.05-.89-.05-.15,0-.31,.01-.45,.01-.15,.01-.31,.06-.45,.06-.15,0-.31-.02-.46-.03s-.31-.03-.46-.03c-.31-.01-.61-.01-.91,.01-.13,0-.24,.01-.35,.01-.07,.2-.14,.38-.21,.57-.07,.2-.14,.38-.21,.57-.07,.18-.15,.36-.22,.56-.03,.08-.06,.18-.1,.27-.03,.08-.07,.17-.11,.25-.03,.04-.04,.12-.1,.12h-1.81s-.06-.01-.08-.03c0,0-.01,0-.01-.02h-.01v-.03s.01-.05,.03-.08c.08-.18,.15-.35,.22-.53,.17-.39,.45-.77,.57-1.16,.14-.37,.18-.75,.35-1.13,.17-.38,.33-.74,.5-1.1,.08-.2,.14-.39,.21-.57,.07-.2,.28-.38,.36-.57,.15-.36,.2-.72,.36-1.1,.07-.18,.14-.36,.21-.56,.03-.08,.07-.18,.1-.28,.03-.1,.04-.2,.08-.28,.17-.38,.33-.77,.5-1.14,.08-.18,.15-.35,.24-.52,.08-.18,.17-.35,.22-.53,.01-.06,.01-.12,.08-.14,.04-.01,.08,0,.12,0h1.42c.06,0,.11-.01,.14,.06,.01,.04,.03,.08,.03,.12,.01,.04,.04,.08,.06,.14,.07,.17,.15,.33,.24,.5,.08,.18,.15,.36,.24,.54,.08,.2,.17,.39,.25,.57,.08,.2,.18,.38,.24,.57,.11,.39,.75,1.85,.91,2.23,.08,.18,.15,.38,.21,.57,.07,.18,.15,.38,.24,.54,.17,.38,.38,.74,.54,1.12,.07,.2,.1,.38,.18,.57,.07,.18,.12,.37,.2,.57s.15,.38,.24,.57c.08,.2,.17,.39,.25,.57,.04,.1,.07,.18,.11,.28,.01,.03,.03,.05,.04,.1,.01,.03,.01,.05,.01,.07h0Zm-3.69-4.33c-.08-.2-.15-.39-.24-.57-.08-.18-.19-.35-.25-.53-.15-.39-.28-.79-.45-1.18-.03-.07-.06-.14-.12-.18-.07-.03-.15-.03-.21,.01-.07,.05-.1,.14-.13,.22-.04,.1-.08,.2-.11,.28-.07,.21-.15,.4-.22,.6-.03,.1-.07,.2-.1,.29-.04,.1-.08,.17-.12,.25-.18,.38-.32,.75-.49,1.13h2.56c-.04-.11-.08-.21-.13-.32Z"/><path class="d" d="M79.05,19.3s-.28,1.31-.42,1.7c-.31,.95-.31,.92-.78,1.63-.24,.35-.42,.54-.79,.88-.11,.11-.25,.18-.38,.27-.1,.08-.21,.17-.31,.24-.05,.03-.12,.06-.18,.1-.14,.06-.26,.13-.39,.2-.07,.04-.12,.07-.18,.11,.01,.88,.03,1.57,.03,1.69,0,.14-.11,1.77-.1,1.96,0,.17,.01,.34,.01,.52,0,.07,.01,.15,.01,.24,0,.03,0,.05-.01,.07-.01,.03-.03,.03-.06,.03-.33,.03-.71,.05-1.04,.03h-.49s-.11,.01-.14-.01c-.02-.03-.02-.07-.02-.08-.01-.04-.01-.08-.03-.12-.04-.33-.07-.68-.04-.96-.03-.32-.06-.65-.06-.99s.04-.67,.03-1c-.01-.33,.02-.67,.04-.99,.01-.1,.01-.18,.03-.27-.1-.05-.77-.46-.77-.46-.1-.07-.18-.15-.28-.22-.15-.1-.32-.2-.46-.32-.38-.33-.56-.53-.78-.88-.47-.71-.47-.68-.79-1.63-.12-.39-.42-1.69-.42-1.7-.03-.21,.11-.17,.17-.17h.43c.2,0,.96,.03,1.16,.03,.17,0,.21-.05,.32,.45,.03,.1,.04,.36,.11,.64,.05,.27,.18,.53,.21,.63,.07,.22,.15,.42,.25,.6,.07,.12,.21,.24,.28,.35,.13,.15,.18,.32,.32,.45,.07,.07,.14,.12,.21,.18,.01,0,.03,.01,.04,.03,.03,.03,.07,.04,.1,.07,.07,.04,.46,.29,.72,.5,.06,.05,.14,.05,.2,.01,.22-.17,.56-.42,.78-.6h.01c.1-.08,.18-.15,.22-.2,.14-.12,.21-.29,.32-.45,.08-.11,.21-.22,.28-.35,.1-.18,.18-.38,.25-.6,.04-.1,.15-.36,.22-.63,.06-.28,.08-.54,.1-.64,.13-.5,.17-.45,.32-.45,.21,0,.93-.03,1.13-.03h.43c.06,0,.21-.04,.17,.17Z"/><path class="d" d="M80.61,25.87c.18-.04,.36-.07,.56-.1,.21,.01,.43,.03,.65,.04,.15,.02,.32,.03,.43,.15,.07,.06,.1,.12,.14,.21,.04,.1,.1,.2,.15,.29,.08,.18,.17,.35,.31,.5,.14,.12,.29,.2,.47,.27,.2,.07,.39,.11,.61,.14,.21,.03,.43,0,.64,0,.11,0,.21,.01,.32,0,.08,0,.18-.04,.27-.07,.17-.06,.33-.15,.47-.28,.07-.07,.14-.13,.21-.21,.06-.07,.1-.14,.12-.22,.06-.15,.07-.33,.01-.5-.11-.47-.14-.95-1.52-1.13-.39-.04-.88-.11-1.32-.25-.4-.11-.82-.26-1.21-.47-.33-.21-.67-.46-.89-.81-.1-.17-.17-.33-.22-.53-.11-.38-.1-.78-.1-1.13,.03-.22,.07-.42,.15-.63,.25-.64,.67-1.23,1.24-1.63,.29-.2,.63-.39,.96-.47,.64-.12,1.21-.1,1.34-.07,.42,.06,.85,.08,1.24,.27,.1,.04,.2,.11,.31,.15,.1,.04,.2,.07,.28,.11,.17,.1,.33,.21,.47,.35,.15,.14,.31,.31,.43,.46,.14,.15,.43,.83,.47,1.05,.01,.08,.01,.19,.01,.29,0,.06-.03,.13-.08,.15-.07,.06-.17,.07-.28,.08-.1,.03-.21,.04-.32,.05-.24,.03-.46,.07-.7,.1-.15,.02-.31-.03-.39-.18-.03-.03-.05-.07-.08-.13-.12-.12-.5-.67-.68-.76-.17-.1-.43-.17-.61-.2-.35-.07-.72-.06-1.06,.08-.32,.14-.59,.35-.75,.66s-.11,1.2,.52,1.39c1.18,.45,2.4,.43,3.22,.88,.36,.17,.67,.42,.89,.74,.12,.17,.25,.35,.31,.54,.07,.2,.1,.52,.11,.72,.04,.42,0,.81-.14,1.2-.05,.2-.15,.36-.25,.53-.08,.18-.18,.36-.29,.5-.12,.14-.27,.26-.4,.38-.15,.1-.35,.19-.52,.28-.2,.08-.4,.18-.61,.27-.1,.03-.21,.07-.31,.1-.11,.04-.22,.06-.32,.06-.12,.01-.24,.03-.35,.04s-.22,.03-.34,.01c-.05-.01-.11-.03-.17-.03h-.17c-.1-.01-.22-.01-.33-.03-.1-.02-.2-.04-.31-.07-.11-.03-.21-.07-.31-.1-.2-.06-.4-.12-.6-.2-.17-.06-.35-.14-.5-.25-.08-.04-.15-.1-.24-.18-.07-.06-.12-.14-.21-.18-.08-.07-.15-.11-.22-.17-.07-.07-.14-.15-.2-.22-.05-.06-.11-.13-.18-.21-.06-.06-.11-.13-.17-.22-.04-.07-.07-.15-.11-.26-.03-.1-.1-.18-.14-.28-.07-.2-.07-.39-.08-.59,0-.04-.02-.1,0-.12,.01-.03,.03-.04,.05-.06,.08-.04,.18-.07,.29-.11Z"/></g></g></g></svg>