<svg xmlns="http://www.w3.org/2000/svg" viewBox="0 0 375 525"><defs><style>.cls-1{fill:#fefefe;}.cls-2{fill:#afd157;}.cls-3{fill:#84aa48;}.cls-4{fill:#bbd789;}.cls-5{fill:#426efc;}.cls-6{fill:#92b260;}.cls-7{font-size:5.67px;font-family:NewYork;}.cls-8{letter-spacing:-0.02em;}.cls-9{letter-spacing:-0.01em;}.cls-10{letter-spacing:-0.04em;}.cls-11{letter-spacing:-0.08em;}.cls-12{letter-spacing:5.59em;}.cls-13{letter-spacing:-0.07em;}.cls-14{letter-spacing:-0.01em;}.cls-15{letter-spacing:-0.02em;}.cls-16{letter-spacing:-0.04em;}.cls-17{letter-spacing:6.12em;}.cls-18{letter-spacing:-0.01em;}.cls-19{letter-spacing:-0.02em;}.cls-20{letter-spacing:0.02em;}.cls-21{letter-spacing:2.89em;}.cls-22{letter-spacing:0.01em;}.cls-23{letter-spacing:-0.03em;}.cls-24{letter-spacing:-0.07em;}.cls-25{letter-spacing:0.02em;}.cls-26{letter-spacing:0.01em;}.cls-27{letter-spacing:0em;}.cls-28{letter-spacing:-0.05em;}.cls-29{letter-spacing:0em;}.cls-30{letter-spacing:-0.03em;}.cls-31{letter-spacing:-0.04em;}</style></defs><g id="Calque_2" data-name="Calque 2"><g id="Header"><path class="cls-1" d="M.07,525q0-261-.07-522.1C0,.28.69,0,3,0Q187.5.1,372,0c2.38,0,3,.4,3,2.9q-.12,259.52,0,519c0,3.41-1.44,3-3.69,3Q185.72,524.93.07,525ZM293.66,251.15c.22-1.69-.84-2.4-2.19-2.91a1.65,1.65,0,0,0-.32-.65,1.71,1.71,0,0,0-1.46-2,10.08,10.08,0,0,0-2.86-4.24c.22-2.91-2.1-4.09-3.85-5.67l-1-3a1.26,1.26,0,0,0-.59-1.84c0-1.51,0-3,0-4.51,1.08-1.59,2.4-3.12,1.19-5.24.08-.48.15-1,.22-1.44.89-.5,1.56-1.09.9-2.22l.27-1.69c2-2.1,2-5.08,3.35-7.48,1.48-2.62.63-4.78-1.73-6.33-1.78-1.17-3.51-2.63-5.89-2.42l-1.62-.27a6,6,0,0,0-1.42-.94c-12-3.51-13.52-6.53-9.31-17.84.1-.27.1-.58.19-.86.79-2.29.32-4.51-.05-6.85-.74-4.61-7.43,1.69-7.22-4.16a4.61,4.61,0,0,0-1.6.48c-1.79,1.42-4.24,2.07-5.25,4.41l-1.7.29-1.79-.17c-2.62-1.35-5.45-.81-8.19-.74-3.58.08-4.05-1.38-2.68-4.3a57.63,57.63,0,0,0,3.61-8.43c.76-2.65,3.31-5.55,1.32-8.13-2.9-3.76-5.85-7.93-10.54-9.61-3.66-1.31-7.5-3.33-11.62-1.18a1.67,1.67,0,0,0-1.92.14c-1.21-1.73-2-1-2.56.48a11.2,11.2,0,0,0-6.93,1.48c-1.47-1.79-1.62-3.71.52-4.82a54.24,54.24,0,0,1,10.29-4.43c11.84-3.28,22-9.15,30.14-18.41,2.82-3.2,6.54-5.75,10.58-5.44,10.74.82,20.46-1.79,29.93-6.5a14.21,14.21,0,0,1,12.32-.22c6.3,2.67,12.7,5.09,18.83,8.16.85.43,1.78,1.44,2.74.41.74-.79-.14-1.57-.38-2.37-.85-2.92-2.53-5.48-3.53-8.27-3-8.33-8.77-13.84-16.33-18-6.51-3.56-14.22-4.28-20.25-9.09-5.81-4.63-12.57-8.2-17.86-13.33-4.6-4.46-8.8-8.95-14.76-11.83-5.38-2.59-9.9-2.48-14.52,1.12a5.59,5.59,0,0,1-5.31,1.27c-7.41-2.36-13.36-.58-17.74,6-.71,1.08-1.92,1.82-2.73,2.85-3.86,4.93-8.36,9.56-8.11,16.51.23,6.48,4.65,11.3,10.78,13.17,3.84,1.17,7.23-.66,10.84-.29,1.3.13,2.85-.17,3.46,1.3.49,1.18-.3,2.32-1.1,3.17-3.68,3.85-7.13,8-11.9,10.63a17.5,17.5,0,0,0-4.89,4.26c-3.7,4.3-6.54,9.32-11.05,13a110.93,110.93,0,0,0-17.77,17.49c-2.62,1.53-5.29,3-7.86,4.61-8.43,5.35-16.86,10.68-19.36,21.47-.57,2.5-2.64,3.55-5.21,4a64.84,64.84,0,0,0-10.62,2.61c-19.25,6.91-24,15.38-18.35,33.89a7.1,7.1,0,0,1-1.48,7.27,9.89,9.89,0,0,0-2.24,8.47c.67,4.14.18,8-4.5,10.74-6.76,4-14,7.33-19.73,12.92a19.93,19.93,0,0,0-7,5.34c-8.35,4.41-15,11.12-22.09,17.08-3.8,3.17-5.7,7.84-3.89,13a15.62,15.62,0,0,1,.55,7.75c-5.71,8.3-5.74,11.51,0,20,3.63,5.39,7.36,10.74,11,16.1a1.22,1.22,0,0,0,.59,1.7l0,4.62c-2.84,4.07-7.58,7-7.7,12.71-1.6,3.88-4.72,5.37-8.66,6.1A23.83,23.83,0,0,0,48.85,353c-3.85,2.19-7.19,5-7.39,10q-3.12,8.34-6.22,16.67c-.46,2.94,1.79,3.79,6.06,2.28l9,.09c4.85,2.38,9.94.48,14.91.84l1.68.12a6.39,6.39,0,0,0,6.15-1.58l1.77-.19a16.06,16.06,0,0,0,12.31-3.35l1.71-.56a1.28,1.28,0,0,0,1.8-.37l1.74-.36c1.06.45,1.65-.17,2.16-1,3.22-.55,5.38-2.74,7.55-4.93,1.11,0,2.55-.56,2.16-1.51-1.4-3.43.64-5.7,2-8.34.58-1.09,1.55-2.63.16-4l1-1.78c1.65-.79,2.09-2.05,1.14-3.57-1.11-1.78-2.56-3.34-4.89-3-2.88.38-5.72,1-8.58,1.55H92.46l-.5-2.16L96.75,344c2.53-.58,4.85-1.48,6.18-3.94l.16-.13.82-.59a18.74,18.74,0,0,1,9.86-1.44c13.25,1.53,25-2.76,35.93-9.68a42.08,42.08,0,0,1,19.7-1.73c2.3,1.33,4.84.88,7.31,1,1.29,0,2.65-.16,3,1.76a44.6,44.6,0,0,0,7.2,17.26,8.57,8.57,0,0,1,.76,8.32c-2.06,5.62-3.87,11.34-5.83,17a3.53,3.53,0,0,0,0,2.95,20.25,20.25,0,0,0,12.67,11.13l3.75,2.46c.89,2.87.56,5.7.14,8.64-1,7,.48,8.59,7.42,9,5.63.32,8.15,2.45,9,7.65.42,2.73.45,5.56,1.2,8.19,1.82,6.36,2,13.54,8.19,17.88,1.84,2.88,3.19,6.14,6.35,8,.64,2.37,3.14,2.93,4.51,4.61,3.09,3.79,4.61,4.06,8.57,1.09,2.84-2.14,5.38-2,7.88.29,2,1.82,4.77,2.48,6.44,1.2,3.16-2.42,7.35-3.82,9.09-7.91,2.22-1.12,4.13-2.86,6.67-3.35,6.8,4.22,13.92,5.58,21.59,2.59a3.65,3.65,0,0,1,2.11-.17,3.88,3.88,0,0,0,4.24-1.6c3.17-4,6.7-7.72,8.44-12.64a5.52,5.52,0,0,1,3.31-1.11,21.69,21.69,0,0,0,9.08.42c6.9-.8,10.38-5.67,13.8-10.77,4.75-4.92,9.24-10.08,13.76-15.23s5.26-10.85,4.22-16.94c-.81-4.73-3.3-9.23-3.78-14-.85-8.26-4.29-15.48-7.71-22.72-4.12-8.68-10.53-16.23-12.76-25.86-.26-1.1-1.4-1.4-2.45-1.58l0,0c-.49-1.88-2.1-1.93-3.59-2.19-.36-2.7-1.9-2.16-3.55-1.3L315,320c-.69-1.11-1.67-1-2.72-.67l-2.55-.26c-.5-.85-1.07-.85-1.71-.15l-5.36-.6c-3.86-2-6.89-.47-9.6,2.33l-3.54,1.78-1.1.64L286,324.23l-3.49-.17a1.44,1.44,0,0,0-1.46-.95c-.65-1.68-2.19-1.71-3.62-2a9.67,9.67,0,0,0-7.42-2.83c-3.46.14-3.67,4.8-6.6,6.47-1.74-3.74-1.58-7.4-.87-11.15.33-1.75,1.69-3.45.46-5.34l.66-4.41c.34-.44.89-.84,1-1.33,1.26-6.9,2.53-13.76,9.1-17.95l5.16-3.74c1.66-.08,2.55-.89,2.5-2.6.69-1.13,1.89-2,1.91-3.45l.24.16a9.32,9.32,0,0,0,3.8-7.31l.56-1.48c1-.33,1.58-.91,1.16-2.05l1.58-4.12c2.05-2,3.54-4.19,3.15-7.23Z"/><path class="cls-2" d="M102.1,370.63c-2.17,2.19-4.33,4.38-7.55,4.93a1.53,1.53,0,0,0-2.16,1l-1.74.36c-.82-1-1.35-.48-1.8.37l-1.71.56a21.76,21.76,0,0,0-12.31,3.35l-1.77.19c-2.52-1.31-4.52-.6-6.15,1.58l-1.68-.12c-4.83-2.78-9.9-1.21-14.91-.84l-9-.09c-1.82-1.28-4.82.56-6.06-2.28q3.1-8.33,6.22-16.67a3.68,3.68,0,0,0,3.09-2.1c2.7-4.29,10.46-9.05,15.36-9.41A5.34,5.34,0,0,0,64.78,344c.12-5.73,4.86-8.64,7.7-12.71,3.75.28,6.28-2.53,4.42-5.29-3.72-5.54-6.45-11.73-11.07-16.65-1.94-2.06-3.6-4.38-5.44-6.48-2.44-2.79-.92-6.76,1.17-9.94,1-1.51,2.06-3.16-.72-4.05a15.62,15.62,0,0,0-.55-7.75c-1.81-5.2.09-9.87,3.89-13,7.13-6,13.74-12.67,22.09-17.08,5,1.36,8-.93,7-5.34,5.73-5.59,13-9,19.73-12.92,4.68-2.74,5.17-6.6,4.5-10.74a9.89,9.89,0,0,1,2.24-8.47,7.1,7.1,0,0,0,1.48-7.27c-5.62-18.51-.9-27,18.35-33.89a64.84,64.84,0,0,1,10.62-2.61c2.57-.46,4.64-1.51,5.21-4,2.5-10.79,10.93-16.12,19.36-21.47,2.57-1.63,5.24-3.08,7.86-4.61,1.24.93,2.89-1.24,4,.52a11.75,11.75,0,0,1-.77,4.25c-1.74,5.27-1.1,6.12,4.45,6.17a7.5,7.5,0,0,0,2.6-.06c4.77-1.85,11-.42,14.06-6.12,1.23-.14,2.71.47,3.44-1.15a11.2,11.2,0,0,1,6.93-1.48c.9.07,1.82.31,2.56-.48a1.67,1.67,0,0,1,1.92-.14c3.76,1.2,8,.7,11.37,3.28l-3.48,1.7c3.61,1.25,6.51,2.73,8.75,5.22-.6,3.78,2.92,7,.28,11.48s-5.13,8.34-9.83,10.56a23.45,23.45,0,0,0-8,1.84c-9.5,3.66-17.26,9.87-24.32,17-2.37,2.4-5.76,4.08-6.49,7.87l-.37.07-3.13-.1c-4.59-1.93-9-4.3-12.06-8.31-1.72-2.24-3.32-2.44-6-1.92-4.45.88-8.5,3.62-12.53,4.2-8.35,1.2-13.38,7.43-20.22,10.72a1.64,1.64,0,0,0-.88,2.22c.49,1,1.43.79,2.26.41s1.84-.9,2.77-1.34c6.26-3,12.46-6.08,18.8-8.9,4.34-1.93,8.47-2.73,13.21.28,2.73,1.74,5.76,3.92,9.33,4.33-.09,3.47-2.12,5.56-4.94,7.18-4.64,2.66-9.52,4.94-13.38,8.81-2,2-2.75,3.42,1,4.3,6.8,1.59,12.81-1.33,18.54-3.77,10.33-4.39,17.88-13.35,27.92-18.43a3.07,3.07,0,0,1,1.7,2.65c.67,3-1.85,3.86-3.56,5.26-1.79.41-3.08-2.85-4.61-1.13-1.24,1.4,1,3.05,1.24,4.75a8.18,8.18,0,0,0,1.33,2.74c2,3.34,1.59,6.19-1.26,9-2.69,2.61-5.84,4.66-8.66,7.1-8.39,7.27-14.13,15.15-12.81,27.05.71,6.31.7,12.64,3.7,18.44.05,1.77,1.3,1.75,2.56,1.72l0,.05c0,1.44,0,2.87,0,4.31l-.94.05c-1.5-.76-3.33-1.59-3.91.69-.43,1.7,1.38,1.87,2.72,2,2.13.15,3.23,1.83,4.54,3.13s2.59,2.76,4.64,3a52.7,52.7,0,0,1,6.42,1.22c5.31,1.68,10.27,3.9,10.28,10.7a3,3,0,0,0,3,3.15c3.08,0,6.11.91,9.28,0a95.53,95.53,0,0,0,21.77-9.48c2-1.15,3.44-3.87,6.43-2.94-.62,2.35-3,3.57-3.73,6a19.74,19.74,0,0,0,7.65-4.6c.68-.66,1.61-1.58,2.65-.74.75.6.46,1.63.19,2.47-.65,2.08-1.09,4.22-1.59,6.33-1.25,5.23-.24,10.53-1.15,15.87a122.83,122.83,0,0,0-1.83,16.56c-.18,5.29.3,11-5.4,14.75-4.54,3-10,4.54-13.7,8.93a1.9,1.9,0,0,1-1.63.41,31.32,31.32,0,0,0-7.51-1.28c-1.75-.05-4.71-1.45-1.27-4,.81-.6.63-1.16-.12-1.69-4.09-2.9-6.72-7.25-10.38-10.57a10.22,10.22,0,0,0-2.38-6.47c-5.32-6.5-10.52-12.92-11.1-21.82,0-.59-.73-1.28-1.29-1.69C197,308.15,194,301.67,186.67,302a1.88,1.88,0,0,1-.79-.34c-6.5-3.36-12.9-6.94-19.55-10-2.78-1.28-5.87-3-9-2.44-4.25.78-8.58.68-12.85,2-3.32,1.06-5.82,4.09-8.66,4.33-5.51.46-8.34,6-14.26,5.88-3.3-.06-7.1,2.8-10.71,3-10,.52-15.14,7.63-20.05,14.56-4.75,6.68-10.21,12.74-15.1,19.27-1-.36-2.27-1.47-2.53.63-.18,1.41-.46,3.12.13,4.26,1.29,2.48-.84,7,4.1,7.37.82,3.28,1.77,4.88,5.06,1.58a8.48,8.48,0,0,1,7.19-2.45c.86.95,1.65,2.81,2.79.23h2.63c1.81,1.8,5.8.21,6,1.46.62,3.33,2.09,2.41,4,2,1.08-.25,1.79.68,2.25,1.63l-1,1.78C102.56,360.61,101.79,365.45,102.1,370.63Z"/><path class="cls-3" d="M216.55,341.72c3.66,3.32,6.29,7.67,10.38,10.57.75.53.93,1.09.12,1.69-3.44,2.58-.48,4,1.27,4a31.32,31.32,0,0,1,7.51,1.28,1.9,1.9,0,0,0,1.63-.41c3.65-4.39,9.16-5.93,13.7-8.93,5.7-3.75,5.22-9.46,5.4-14.75a122.83,122.83,0,0,1,1.83-16.56c.91-5.34-.1-10.64,1.15-15.87.5-2.11.94-4.25,1.59-6.33.27-.84.56-1.87-.19-2.47-1-.84-2,.08-2.65.74a19.74,19.74,0,0,1-7.65,4.6c.74-2.42,3.11-3.64,3.73-6l0,0,.84-.07c3.4-1.65,5.59-6.25,10.47-4.35a30.86,30.86,0,0,0-.93,4.59c-.21,3.48-1.77,6.81-1,10.37L263,308.3c-.4.17-1.09.28-1.14.53-1.59,7.14-2.18,14.31-.51,21.53.5,1.17-2,1.74-.68,3,.94.9,2.18.63,3.27.09,1.72-.83,3.46-1.68,3.6-4h0c3.13.21,5.47-1.43,7.66-3.34,1.55-1.37,1.55-2.43-.75-2.84,1-.7,2-1.41,3-2.12,1.43.25,3,.28,3.62,2-1.12.73-1.81,1.73-.31,2.52,1.23.65,1.67-.48,1.77-1.57l3.49.17V326l-.89.84,0,0a5.18,5.18,0,0,1-.78.09l-5.89,1.47c-1.22.3-2.25.77-2.06,2.31a2.44,2.44,0,0,0,2.68,2.3,4.79,4.79,0,0,0,3.61-1c4.54-3.82,10.71-4.9,15.88-6.18,7.53-1.88,16-.33,24,1.23.75-1.16.28-2.5.35-3.78.28,0,.55,0,.82,0l3.73.88,0,0c.09,3.91.28,7.55,3.53,10.7a11.38,11.38,0,0,1,3.17,7.48c0,3.85,1.77,6,4.15,8.47,1.47,1.52,6.1,2.82,1.73,6.22-.1.08,0,.63.18.8.76.76-.43,4.82,2.7,1.64.27,2.9,3.94,4.07,3.77,7.08-.19,3.26.88,6.35.93,9.55,0,1.31,1.36,2.54.49,3.77-1.15,1.63-2.32-1.84-3.59-.3a29.24,29.24,0,0,0,.54,4.84c.43,1.54.83,4.2,3.2,1.18.34-.44,1.62-.79,1.81-.58a2.39,2.39,0,0,1,.57,2.8c-1.28,2.7-1.82,5.42.39,8.06-6,.16-7.06,5.11-9.61,8.44L338.78,406c-2.45,0-4,1-4.34,3.58l-1.75,1.73c-1.48.77-2.68,1.73-2.6,3.62-1.24,1.42-2.48,2.83-3.71,4.25a12.73,12.73,0,0,1-7.65-.33c-2.34-.82-4.34,0-6.65.64-2.52.72-4.19,5.64-7.8,2a5.5,5.5,0,0,0-1,.74c-3.15,2.84-5.9,3.4-8.44-.92-1.25-2.11-3.11-1.5-4.78,0s-1.43,2.13.36,3.59c1.58,1.28,1.33,4,1.61,6.08a.89.89,0,0,1-1.44.88c-1.43-1.14-3.24-2.07-3.43-4.25-.27-3.11-2.31-4.22-5.18-2.56-4.93,2.84-8.28,7.36-11.87,11.6a3.26,3.26,0,0,0-2.6,1.91c-5.72.09-6.52,1-5.09,5.64.11.35-.15.82-.24,1.24-1.44.41-2.75,1.33-4.34,1.11-1.39-1.8-2.9-3.18-5.31-1.63h-1.64c-.46-.75-1.08-1.08-1.72-.33-1.25,1.47-2.57.46-3.53-.1-1.74-1,.25-1.87.43-2.84.35-1.84.9-3.56-1-5.12A20.72,20.72,0,0,1,238.28,426c-1.18-4-1.68-8.44-6.91-9.68a2,2,0,0,1-1.05-2.89c.43-.75,1.37-1.49-.08-1.92-.75-.23-2.17-.17-2.44.27a51.28,51.28,0,0,0-3.25,6.56c-.29.67.28,1.73,1.08,1.43,2.32-.88,2.13,1.19,2.94,2.17,3.39,4.13,2.09,11.19,8.46,13.49.7.25.65,1.28.26,2-.61,1.07-1.33.69-2.17.17a7.39,7.39,0,0,0-2-.56l-.84-1.69c-1.65-4.73-6.26-7.66-7.63-12.61a2.76,2.76,0,0,0-2.85-1.66c-.94-3.78-1.29-7.71-2.86-11.32,1.22-2.76,3.2-5.74-2.08-6.41-.9-.11-2-.76-1.6-1.62.83-1.74,2.33-3.75-.68-4.17-1.78-.24-2.93-2.76-5-1.26h-1.77a1.59,1.59,0,0,0-1.83-1.65L206,392c1-1.13,2.68-1.73,2.79-3.62.05-.92,1-2.05-.61-2.4-1.08-.22-2.82-.42-2.81,1,0,2.32-2.4,3.64-2,6,0,.27,0,.55,0,.82-1.07.63-.86,1.69-.89,2.68-2.62-.21-1.68-2.27-1.8-3.67-.16-1.88.2-3.94-2.46-4.37l-3.75-2.46c-.94-2.74-5-2.83-5.52-6.37,5,.92,7,6.68,12.84,7l-3.09-5c1.09-.37,2.66.62,3.32-1.17a18.91,18.91,0,0,1-3.48-1.64c-1-.78-2.13-2.2-.49-3.17,4.57-2.7.39-5.29-.44-7.2-1-2.43-2.72.63-4.21.92-1.12.22-2.23.54-3.34.81a8.43,8.43,0,0,1-.11-.86c1.17-.48,1.48-1.52,2-2.58,2-3.86,1.32-7.8.86-11.77,2.71-.59,1.12-2.9,1.71-4.33,1-2.42,1.41-4.13-2.53-3.68-3,.34-7.76-5.08-6.68-7.23,1.72-3.44,1.16-6.09-1.54-8.6-1.51-1.41-.34-2.74.54-3.82a30.36,30.36,0,0,1,3.16-2.93c2.17-1.46,5.09-.89,7.15-2.88s7.58-.62,8.56,2.16C205.8,331,212.28,335.51,216.55,341.72Zm59.23,8.66c2.17.1,3.7.28,4.18,2.63.26,1.3,1.25,2.26,2.53,1.77,2.22-.85,3.51.2,5,1.58a3.84,3.84,0,0,0,4.85.72c4.23-2.56,9.88-1.36,13.63-5.19.24-.25,1.07-.37,1.19-.22,2.94,3.8,5.07,2.82,6.93-1,.22-.45,1.56-.28,1.94-.75,1.63-2.05,7.65-2.93,2.07-7.14-.37-.28-.4-1.49-.13-2,1.27-2.64-1.26-4-1.94-5.91-1.31-3.73-3.34-1.08-5.14-.33a1.82,1.82,0,0,1-1.28,0c-5.69-2.43-10.57-1.56-15.57,2.38a14.18,14.18,0,0,1-8.91,2.73c-2.47-.06-7,0-4.92,5.24.37.93-.46,1.19-.94,1.7C278.05,347.78,276.93,349.09,275.78,350.38Zm-19.15,3.8c.67.09,1.8-.65,3.17-1.77,1.8-1.47,2.25-3.67,3.81-5.18,2.79-2.68,1-5.46-.25-8a1.31,1.31,0,0,0-2.51.56c0,5.2-3.58,7.94-6.9,11-.68.61-1.43,1.71-.8,2.74C253.65,354.37,254.73,354,256.63,354.18Zm80.79,46.12a3.23,3.23,0,0,0-1.18.08c-6.66,3.24-11.25,9.07-16.94,13.53a1.78,1.78,0,0,0-.08,2.73c.88,1.06,1.89.6,2.73,0C328.28,412.38,331.94,405.54,337.42,400.3Zm-15.18-71.57c-2.19.55-2.73,2.56-3.8,4-1.26,1.73.08,3.12,1.13,4.16,1.6,1.59,3.94,2.55,3.57,5.45-.07.59.54,1,1.2,1,1-.08.8-.79.86-1.55a45.32,45.32,0,0,1,1-8.08C327.23,329.88,324.22,329.87,322.24,328.73Zm15.64,48.47c-1.4-1.71-.14-5.67-3.35-6.05-4-.47-2.12,3.65-2.8,5.5-.58,1.58,1.67,3.46,3.73,3.73C337.24,380.61,337.93,379.2,337.88,377.2ZM226.69,408.38c.78-.66,2.47-.08,2.63-1.59.09-1-.83-1.45-1.74-1.46a1.93,1.93,0,0,0-2.08,1.72C225.35,407.89,225.72,408.39,226.69,408.38Z"/><path class="cls-4" d="M210.45,143.33c-.73,1.62-2.21,1-3.44,1.15-1.16-3-3.14-1.94-4.94-.88a17.58,17.58,0,0,1-9.11,2.69c-3,0-4.91-.63-3.92-4.31.54-2,.1-3.46-2.37-1.74-1.13-1.76-2.78.41-4-.52a110.93,110.93,0,0,1,17.77-17.49c4.51-3.66,7.35-8.68,11.05-13a17.5,17.5,0,0,1,4.89-4.26c4.77-2.6,8.22-6.78,11.9-10.63.8-.85,1.59-2,1.1-3.17-.61-1.47-2.16-1.17-3.46-1.3-3.61-.37-7,1.46-10.84.29-6.13-1.87-10.55-6.69-10.78-13.17-.25-7,4.25-11.58,8.11-16.51.81-1,2-1.77,2.73-2.85,4.38-6.62,10.33-8.4,17.74-6a5.59,5.59,0,0,0,5.31-1.27c4.62-3.6,9.14-3.71,14.52-1.12,6,2.88,10.16,7.37,14.76,11.83,5.29,5.13,12.05,8.7,17.86,13.33,6,4.81,13.74,5.53,20.25,9.09,7.56,4.13,13.35,9.64,16.33,18,1,2.79,2.68,5.35,3.53,8.27.24.8,1.12,1.58.38,2.37-1,1-1.89,0-2.74-.41-6.13-3.07-12.53-5.49-18.83-8.16a14.21,14.21,0,0,0-12.32.22c-9.47,4.71-19.19,7.32-29.93,6.5-4-.31-7.76,2.24-10.58,5.44-8.14,9.26-18.3,15.13-30.14,18.41A54.24,54.24,0,0,0,211,138.51C208.83,139.62,209,141.54,210.45,143.33Z"/><path class="cls-5" d="M169.4,326.49a42.08,42.08,0,0,0-19.7,1.73c-1.47-2.12-3-.29-4.12.24a71.08,71.08,0,0,1-34.79,6.73c-7.53-.4-13.89,3.77-19.72,8.17a69.11,69.11,0,0,1-8.62,5.8c-2.16,1.18-3.34.29-3.88-1.81-.61-2.32-.09-4.68,1.77-6A14,14,0,0,0,84.69,336c1.43-2.67,2.86-5.18,6-6.44,2.31-.93,2.93-3.38,3.49-5.73,2.33-9.76,7.73-16.16,17.8-16.92,8.51-.65,16-3.54,23.3-7.41,3.59-1.89,6.67-5,10.89-5.37,6.5-.56,13-2.38,19.36,1.59a86.42,86.42,0,0,0,14.89,7.31c4.33,1.64,9.1,2.19,13,5a21.13,21.13,0,0,1,7.65,8.9c-2.16-.38-3.56-.66-5-.87-8.59-1.27-9.35-.66-9.76,7.78-3.84,1.73-7.93,1.48-12,1.56C172.63,325.45,170.75,324.85,169.4,326.49Z"/><path class="cls-6" d="M186.3,323.85c.41-8.44,1.17-9.05,9.76-7.78,1.42.21,2.82.49,5,.87a21.13,21.13,0,0,0-7.65-8.9c-3.89-2.79-8.66-3.34-13-5a86.42,86.42,0,0,1-14.89-7.31c-6.39-4-12.86-2.15-19.36-1.59-4.22.36-7.3,3.48-10.89,5.37-7.31,3.87-14.79,6.76-23.3,7.41-10.07.76-15.47,7.16-17.8,16.92-.56,2.35-1.18,4.8-3.49,5.73-3.12,1.26-4.55,3.77-6,6.44a14,14,0,0,1-4.35,5.35c-1.86,1.29-2.38,3.65-1.77,6,.54,2.1,1.72,3,3.88,1.81a69.11,69.11,0,0,0,8.62-5.8c5.83-4.4,12.19-8.57,19.72-8.17a71.08,71.08,0,0,0,34.79-6.73c1.11-.53,2.65-2.36,4.12-.24-11,6.92-22.68,11.21-35.93,9.68a18.74,18.74,0,0,0-9.86,1.44l-.82.59-.16.13c-2.53.56-5.23.88-6.18,3.94L92,347.77a2.14,2.14,0,0,0-2.29,1.93,8.48,8.48,0,0,0-7.19,2.45c-3.29,3.3-4.24,1.7-5.06-1.58q-.86-6.13-1.7-12.26c4.89-6.53,10.35-12.59,15.1-19.27,4.91-6.93,10-14,20.05-14.56,3.61-.18,7.41-3,10.71-3,5.92.11,8.75-5.42,14.26-5.88,2.84-.24,5.34-3.27,8.66-4.33,4.27-1.36,8.6-1.26,12.85-2,3.11-.57,6.2,1.16,9,2.44,6.65,3.05,13,6.63,19.55,10a1.88,1.88,0,0,0,.79.34c7.34-.35,10.3,6.13,15.11,9.72.56.41,1.25,1.1,1.29,1.69.58,8.9,5.78,15.32,11.1,21.82a10.22,10.22,0,0,1,2.38,6.47c-4.27-6.21-10.75-10.77-13.37-18.22-1-2.78-6.45-4.2-8.56-2.16s-5,1.42-7.15,2.88Z"/><path class="cls-4" d="M232.24,435.32c.28.56.56,1.12.85,1.68,1.1,3.08,4.37,3.88,6.33,6.05,1.56,1.72,4,3.22,2.37,6.09-.54.93-2.16,1.48-.88,2.77s1.69-.43,2.49-.85c.63-.33,1.31-.88,1.94-.84,3.76.22,4.86-2.26,5.58-5.21h1.64c1.79.47,2.9,3.17,5.31,1.63,1.59.22,2.9-.7,4.34-1.11l4.73,1.43c-1.74,4.09-5.93,5.49-9.09,7.91-1.67,1.28-4.49.62-6.44-1.2-2.5-2.32-5-2.43-7.88-.29-4,3-5.48,2.7-8.57-1.09-1.37-1.68-3.87-2.24-4.51-4.61.5-2.95-2.73-7-6.35-8-6.24-4.34-6.37-11.52-8.19-17.88-.75-2.63-.78-5.46-1.2-8.19-.81-5.2-3.33-7.33-9-7.65-6.94-.39-8.41-2-7.42-9,.42-2.94.75-5.77-.14-8.64,2.66.43,2.3,2.49,2.46,4.37.12,1.4-.82,3.46,1.8,3.67,1.92-.36,2.4-1.19.89-2.68,0-.27,0-.55,0-.82l2.63-1c0,.89,0,1.78-.05,2.68,0,1.2.58,1.8,1.82,1.65h1.77c-.07,1-2,1.78-1,2.46,4,2.64,5.2,7.06,7.37,10.81,1.28,2.22,2-.14,3,.19,1.57,3.61,1.92,7.54,2.86,11.32,1,3.63,3.93,6.5,4.23,10.29C226.35,435.74,228.75,436.21,232.24,435.32Zm-13.4-13.83c0,2.07-.22,4.24,1.65,6.57A5.9,5.9,0,0,0,218.84,421.49Z"/><path class="cls-6" d="M270.14,436.74c3.59-4.24,6.94-8.76,11.87-11.6,2.87-1.66,4.91-.55,5.18,2.56.19,2.18,2,3.11,3.43,4.25a.89.89,0,0,0,1.44-.88c-.28-2.12,0-4.8-1.61-6.08-1.79-1.46-2-2.11-.36-3.59s3.53-2.13,4.78,0c2.54,4.32,5.29,3.76,8.44.92a5.5,5.5,0,0,1,1-.74c3.61,3.61,5.28-1.31,7.8-2,2.31-.66,4.31-1.46,6.65-.64a12.73,12.73,0,0,0,7.65.33c-1.27,5.38-6.07,4.5-9.75,5.27-2,.42-3.8.24-5.17,2.29-1.78,2.68,2.88,1.86,1.84,3.9a5.52,5.52,0,0,0-3.31,1.11c-3.75,2.48-6.54,6.56-11.54,7l-.23-.22c.46-2.49,3.06-3.68,3.65-6.08l0,.05a2,2,0,0,0,.93-1.86c.65-1.11,1.3-2.22,2-3.32.48-.76.91-1.6.1-2.3s-1.51-.21-2.12.54c-1.88,2.31-4.39,4.31-3.46,7.85l0,0c-2.44.15-4.81.42-5.33,3.5-4,1.33-7.75,4.07-12.23,1.66-.16-.68-.28-1.42-1.26-1.3a.41.41,0,0,0-.28.29c-.09,1,.68,1.05,1.36,1.2l-.18,1.69a6.47,6.47,0,0,0-5.55.46c-.92.49-1.75-.92-1.66-1.56C274.77,435.3,271.77,437.12,270.14,436.74Zm11.9-5.3c1.62-.3,2-1.86,2.75-3.05.3-.52-.36-1.12-1-1a3.42,3.42,0,0,0-2.83,2.44C280.68,430.61,281.09,431.2,282,431.44Z"/><path class="cls-6" d="M265.65,288.93c-4.88-1.9-7.07,2.7-10.47,4.35l-.81-.8c-1.13-2.23,2.6-2.22,1.95-4-1.31-3.72-.41-5.82,3.4-7.35,1.7-.68,3.84-.62,4.73-2.7,1.46-3.4,4.46-4.84,7.62-6.12,3.6-1.46,8.79-9.4,8.39-12.87-.43-3.8.23-6.86,4.6-7.8,1-.22,1.08-1.38.59-1.62-3.7-1.84-2.37-7.23-6.37-8.85a1.15,1.15,0,0,1-.32-2.08c1.48.13,2.07,1.5,3.09,2.26,1.39,1,2.63,1.58,3.1-.83l1.68.91a10.08,10.08,0,0,1,2.86,4.24,1.48,1.48,0,0,0,1.46,2,1.65,1.65,0,0,1,.32.65l-.15,2.83c-1.74.11-3.2,1.41-2.44,2.7,1.2,2,.4,4.43,1.79,6.25-.53,1.38-1.06,2.75-1.58,4.12a1.59,1.59,0,0,0-1.16,2.05c-.18.49-.37,1-.55,1.48-2.4,1.85-3.34,4.45-3.81,7.31l-.24-.16c-1.77-.94-3.43-1.87-4.76.77-.57,1.12-1.88,1.57-3.22,2-3.35,1-5.44,3.2-5.17,7a1.39,1.39,0,0,1-.61,0l-1.12.88,0,0-.91,1A2.62,2.62,0,0,1,265.65,288.93Z"/><path class="cls-6" d="M341.42,404.2c2.55-3.33,3.64-8.28,9.61-8.44-2.21-2.64-1.67-5.36-.39-8.06a2.39,2.39,0,0,0-.57-2.8c-.19-.21-1.47.14-1.81.58-2.37,3-2.77.36-3.2-1.18a29.24,29.24,0,0,1-.54-4.84c1.27-1.54,2.44,1.93,3.59.3.87-1.23-.48-2.46-.49-3.77-.05-3.2-1.12-6.29-.93-9.55.17-3-3.5-4.18-3.77-7.08-3.13,3.18-1.94-.88-2.7-1.64-.17-.17-.28-.72-.18-.8,4.37-3.4-.26-4.7-1.73-6.22-2.38-2.46-4.19-4.62-4.15-8.47a11.38,11.38,0,0,0-3.17-7.48c-3.25-3.15-3.44-6.79-3.53-10.7,1.05.18,2.19.48,2.45,1.58,2.23,9.63,8.64,17.18,12.76,25.86,3.42,7.24,6.86,14.46,7.71,22.72.48,4.72,3,9.22,3.78,14,1,6.09.27,11.81-4.22,16.94s-9,10.31-13.76,15.23c.08-3.76,1.83-7,3.29-10.32a3.37,3.37,0,0,1,3.74-2.21c0,.6,0,1.19,0,1.79l-.36.2.16.16.2-.36c1.19-1.95,4.36-2.42,4.31-5.63l-3.4,1.24C343.5,404.14,342.39,404.35,341.42,404.2Zm8.35-5.44c-.39,1.11-1.22,2-.77,3.22a1.24,1.24,0,0,0,1.08,0C351.55,400.88,350.81,399.84,349.77,398.76Z"/><path class="cls-6" d="M190.14,200.17c.73-3.79,4.12-5.47,6.49-7.87,7.06-7.12,14.82-13.33,24.32-17a23.45,23.45,0,0,1,8-1.84c.67,1.9,3.54,3.23,1.11,5.64,2,.69,1.95-1.9,3.62-1.42,5.89,1.7,10.06-5.25,16-3.24l.25-.83,1.79.17c-1.34,3.53.11,4.64,3.54,4.2a28.67,28.67,0,0,1,3.47,0c.1.9.31,2,1.22,2.17,5.25,1.06,2.11,2.86.4,4.45a12.85,12.85,0,0,1-2.24,1.36c-1.26-.14-3.13.07-2.79-1.84,1.1-6.07-2.2-2.62-4.06-1.92a27.44,27.44,0,0,1-4.15,1.14c-2.58.55-5-.49-7.36-.36-4.33.26-8.8,1.36-11.88,5.14-.59.73-1.47,1.71-2.47.44a2.27,2.27,0,0,1-.11-3.14c.93-1.2,2.79-1.6,3.06-3.4-1.44-.88-2.93-.34-4.35-.51-1-2.54-2.87-2-4.74-1.44-2.2.61-3.43,2.72-5.26,3.67a87.54,87.54,0,0,0-21.59,15.34A7.9,7.9,0,0,1,190.14,200.17Z"/><path class="cls-4" d="M186.3,323.85l1.17.37a30.36,30.36,0,0,0-3.16,2.93c-.88,1.08-2.05,2.41-.54,3.82,2.7,2.51,3.26,5.16,1.54,8.6-1.08,2.15,3.66,7.57,6.68,7.23,3.94-.45,3.52,1.26,2.53,3.68-.59,1.43,1,3.74-1.71,4.33.12-1.88.09-3.69-2.12-5-1.13,2.28,0,4.89-1.6,6.75a103.21,103.21,0,0,0-3.73,10c-1.43,4.16.74,3.19,3,2.5l1.57.11a8.43,8.43,0,0,0,.11.86c0,1-.14,2,.91,2.59.18,1.42-.67,3.37,1.86,3.57,2.19,1.5,2.75,4.82,5.87,5.29l3.09,5c-5.82-.28-7.89-6-12.84-7,.55,3.54,4.58,3.63,5.52,6.37a20.25,20.25,0,0,1-12.67-11.13,3.53,3.53,0,0,1,0-2.95c2-5.67,3.77-11.39,5.83-17a8.57,8.57,0,0,0-.76-8.32,44.6,44.6,0,0,1-7.2-17.26c-.31-1.92-1.67-1.71-3-1.76-2.47-.11-5,.34-7.31-1,1.35-1.64,3.23-1,4.91-1.08C178.37,325.33,182.46,325.58,186.3,323.85Z"/><path class="cls-6" d="M278.11,199.26l1.62.27c.66,2.07,2.15,4,.71,6.37-1,1.64.45,2.24,1.58,2.17,3.13-.21,2.74,1.35,2.39,3.56-.21,1.32-1.46,2.67-.41,4.13l-.27,1.69a1.5,1.5,0,0,0-.9,2.22c-.07.48-.14,1-.22,1.44a5.59,5.59,0,0,0-1.19,5.24c0,1.5,0,3,0,4.51-1,1-.31,1.46.59,1.84l1,3-.51,1.28c-2.34-3-7.08-4.14-7-9.09a75.47,75.47,0,0,0-.48-9.6c-.66-5.5-1.79-6.91-7-6.62-.58-1.55,2.38-2.62.63-4.26-.69-.64-1.63-.37-2.49-.07s-1.86,2.2-2.81.36c-.62-1.19-1.62-2.63-.56-4.12.79-1.11,1.66-1.87,3.31-1.34,3.36,1.06,7-.18,10.41,1.05,2.12.76,2.58-.58,1.6-2.41Z"/><path class="cls-4" d="M301.87,432.46c-.59,2.4-3.19,3.59-3.64,6.08l-.89.88c-.1.18-.2.36-.31.54l.54-.31.88-.89c5-.41,7.79-4.49,11.54-7-1.74,4.92-5.27,8.67-8.44,12.64a3.88,3.88,0,0,1-4.24,1.6,3.65,3.65,0,0,0-2.11.17c-7.67,3-14.79,1.63-21.59-2.58-.55-4.69-3.62-.37-5.18-1.45h0c.3-1.32,3.84-3.47-.89-3.52a3.26,3.26,0,0,1,2.6-1.91c1.63.38,4.63-1.44,4,2.6-.09.64.74,2.05,1.66,1.56a6.47,6.47,0,0,1,5.55-.46l.18-1.69.19-.19c4.47,2.41,8.25-.33,12.22-1.66,2.64.15,4.09-1.51,5.33-3.5l0,0Z"/><path class="cls-4" d="M341.42,404.2c1,.15,2.08-.06,2.71,1-1,.62-.85,1.65-.92,2.6a3.37,3.37,0,0,0-3.74,2.21c-1.46,3.33-3.21,6.56-3.29,10.32-3.42,5.1-6.9,10-13.8,10.77a21.69,21.69,0,0,1-9.08-.42c1-2-3.62-1.22-1.84-3.9,1.37-2,3.19-1.87,5.17-2.29,3.68-.77,8.48.11,9.75-5.27,1.23-1.42,2.47-2.83,3.71-4.25,2.18-.26,2.71-1.71,2.6-3.62l1.75-1.73c2.24-.23,3.32-1.87,4.34-3.58Z"/><path class="cls-6" d="M286,326v-1.74l2.42-1.18,1.1-.64,3.54-1.78,9.6-2.33,5.36.6c.51.78,1.06,1,1.71.15l2.55.26c.59,1.5,1.5,1.71,2.72.67l5.33.61a4.78,4.78,0,0,0,2.59,2.58c-.07,1.28.4,2.62-.35,3.78-8-1.56-16.46-3.11-24-1.23-5.17,1.28-11.34,2.36-15.88,6.18a4.79,4.79,0,0,1-3.61,1,2.44,2.44,0,0,1-2.68-2.3c-.19-1.54.84-2,2.06-2.31l5.89-1.47c.33.56.57.33.78-.09l0,0Zm1.59.39c5.91,1.47,9.47-3.88,14.5-5.18C296.74,321.26,292,323.24,287.6,326.36Z"/><path class="cls-4" d="M250,173.62l-.25.83c-6-2-10.14,4.94-16,3.24-1.67-.48-1.65,2.11-3.62,1.42,2.43-2.41-.44-3.74-1.11-5.64,4.7-2.22,7.2-6.16,9.83-10.56s-.88-7.7-.28-11.48c.73-4.21-3.2-4.85-5.27-6.92-3.36-2.58-7.61-2.08-11.37-3.28,4.12-2.15,8-.13,11.62,1.18,4.69,1.68,7.64,5.85,10.54,9.61,2,2.58-.56,5.48-1.32,8.13a57.63,57.63,0,0,1-3.61,8.43c-1.37,2.92-.9,4.38,2.68,4.3C244.51,172.81,247.34,172.27,250,173.62Z"/><path class="cls-4" d="M278.11,199.26v1.64a38.26,38.26,0,0,1-14-5.44c-.16-3.41,1.08-7.78-5-7.14-.32,0-.69-.47-1-.73,0-.54.05-1.09.07-1.64a12.85,12.85,0,0,0,2.24-1.36c1.71-1.59,4.85-3.39-.4-4.45-.91-.18-1.12-1.27-1.22-2.17h0c1.49-.09,2.65-.69,2.49-2.36-.14-1.42-1.48-1.1-2.43-1.26-1.38-2.89-3.56-.73-5.37-.84,1-2.34,3.46-3,5.25-4.41a4.61,4.61,0,0,1,1.6-.48c-.21,5.85,6.48-.45,7.22,4.16.37,2.34.84,4.56.05,6.85-.09.28-.09.59-.19.86-4.21,11.31-2.73,14.33,9.31,17.84A6,6,0,0,1,278.11,199.26Z"/><path class="cls-6" d="M60.84,288.92c2.78.89,1.71,2.54.72,4.05-2.09,3.18-3.61,7.15-1.17,9.94,1.84,2.1,3.5,4.42,5.44,6.48,4.62,4.92,7.35,11.11,11.07,16.65,1.86,2.76-.67,5.57-4.42,5.29l0-4.62c1-1,.35-1.39-.59-1.7-3.68-5.36-7.41-10.71-11-16.1C55.1,300.43,55.13,297.22,60.84,288.92Z"/><path class="cls-4" d="M277.45,321.15c-1,.71-2,1.42-3,2.12-1.7,2.73-6.55,1.94-6.91,6.18h0c-2.42-2.14-4,1.42-6.19.9-1.67-7.22-1.08-14.39.51-21.53.05-.25.74-.36,1.14-.53,1.23,1.89-.13,3.59-.46,5.34-.71,3.75-.87,7.41.87,11.15,2.93-1.67,3.14-6.33,6.6-6.47A9.67,9.67,0,0,1,277.45,321.15Z"/><path class="cls-4" d="M64.78,344a5.34,5.34,0,0,1-4.87,7.38c-4.9.36-12.66,5.12-15.36,9.41a3.68,3.68,0,0,1-3.09,2.1c.2-5,3.54-7.78,7.39-10a23.83,23.83,0,0,1,7.27-2.82C60.06,349.41,63.18,347.92,64.78,344Z"/><path class="cls-4" d="M284,215.76c-1.05-1.46.2-2.81.41-4.13.35-2.21.74-3.77-2.39-3.56-1.13.07-2.57-.53-1.58-2.17,1.44-2.38-.05-4.3-.71-6.37,2.38-.21,4.11,1.25,5.89,2.42,2.36,1.55,3.21,3.71,1.73,6.33C286,210.68,286,213.66,284,215.76Z"/><path class="cls-3" d="M270.18,284.56c-.27-3.8,1.82-6,5.17-7,1.34-.4,2.65-.85,3.22-2,1.33-2.64,3-1.71,4.76-.77,0,1.49-1.22,2.32-1.91,3.45a2.64,2.64,0,0,0-2.5,2.6l-5.16,3.74Z"/><path class="cls-6" d="M267.54,438.65c4.73.05,1.19,2.2.89,3.52-1.41.15-2.69.46-3.13,2.26,1.86,0,2.48-1.12,3.13-2.26,1.56,1.08,4.63-3.24,5.18,1.45-2.54.48-4.45,2.22-6.67,3.34l-4.73-1.43c.09-.42.35-.89.24-1.24C261,439.63,261.82,438.74,267.54,438.65Z"/><path class="cls-4" d="M270.18,284.56l3.58.05c-6.57,4.19-7.84,11.05-9.1,17.95-.09.49-.64.89-1,1.33-.73-3.56.83-6.89,1-10.37a30.86,30.86,0,0,1,.93-4.59,2.62,2.62,0,0,0,1.92-2.49c.3-.34.6-.68.91-1l0,0,1.12-.88A1.39,1.39,0,0,0,270.18,284.56Z"/><path class="cls-4" d="M107.42,355c-.46-.95-1.17-1.88-2.25-1.63-2,.45-3.43,1.37-4-2-.23-1.25-4.22.34-6-1.46,2.86-.53,5.7-1.17,8.58-1.55,2.33-.31,3.78,1.25,4.89,3C109.51,352.94,109.07,354.2,107.42,355Z"/><path class="cls-3" d="M253.45,173.5c1.81.11,4-2.05,5.37.85l-.06,3.61h0a28.67,28.67,0,0,0-3.47,0c-3.43.44-4.88-.67-3.54-4.2Z"/><path class="cls-4" d="M102.1,370.63c-.31-5.18.46-10,4.37-13.86,1.39,1.38.42,2.92-.16,4-1.41,2.64-3.45,4.91-2,8.34C104.65,370.07,103.21,370.65,102.1,370.63Z"/><path class="cls-4" d="M290.67,260c-1.39-1.82-.59-4.22-1.79-6.25-.76-1.29.7-2.59,2.44-2.7l0,0c.05,1.72,1.23,1.82,2.52,1.74C294.21,255.83,292.72,258.05,290.67,260Z"/><path class="cls-4" d="M50.32,382c5-.37,10.08-1.94,14.91.84C60.26,382.45,55.17,384.35,50.32,382Z"/><path class="cls-4" d="M74.83,381.16a21.76,21.76,0,0,1,12.31-3.35A16.06,16.06,0,0,1,74.83,381.16Z"/><path class="cls-4" d="M93.3,245.71c.94,4.41-2.08,6.7-7,5.34A19.93,19.93,0,0,1,93.3,245.71Z"/><path class="cls-6" d="M224.1,439.71c3.62,1,6.85,5,6.35,8C227.29,445.85,225.94,442.59,224.1,439.71Z"/><path class="cls-4" d="M302.68,318.3l-9.6,2.33C295.79,317.83,298.82,316.33,302.68,318.3Z"/><path class="cls-4" d="M96.75,344c1-3.06,3.65-3.38,6.18-3.94C101.6,342.52,99.28,343.42,96.75,344Z"/><path class="cls-4" d="M283.57,275c.47-2.86,1.41-5.46,3.81-7.31A9.36,9.36,0,0,1,283.57,275Z"/><path class="cls-4" d="M66.91,382.93c1.63-2.18,3.63-2.89,6.15-1.58A6.39,6.39,0,0,1,66.91,382.93Z"/><path class="cls-4" d="M35.24,379.6c1.24,2.84,4.24,1,6.06,2.28C37,383.39,34.78,382.54,35.24,379.6Z"/><path class="cls-4" d="M282.47,237l.51-1.28c1.75,1.58,4.07,2.76,3.85,5.67l-1.68-.91Z"/><path class="cls-4" d="M322.94,323.17a4.78,4.78,0,0,1-2.59-2.58c1.65-.86,3.19-1.4,3.55,1.3,0,.44-.09.88-.14,1.31C323.49,323.18,323.22,323.17,322.94,323.17Z"/><path class="cls-4" d="M281.42,226.35a5.59,5.59,0,0,1,1.19-5.24C283.82,223.23,282.5,224.76,281.42,226.35Z"/><path class="cls-4" d="M89.67,349.7A2.14,2.14,0,0,1,92,347.77c.16.72.33,1.44.5,2.16C91.32,352.51,90.53,350.65,89.67,349.7Z"/><path class="cls-6" d="M282.53,324.06c-.1,1.09-.54,2.22-1.77,1.57-1.5-.79-.81-1.79.31-2.52A1.44,1.44,0,0,1,282.53,324.06Z"/><path class="cls-4" d="M291.32,251.07l.15-2.83c1.35.51,2.41,1.22,2.19,2.91l-2.36-.1Z"/><path class="cls-4" d="M278.92,280.87a2.64,2.64,0,0,1,2.5-2.6C281.47,280,280.58,280.79,278.92,280.87Z"/><path class="cls-4" d="M219.94,141.37c-.74.79-1.66.55-2.56.48C218,140.34,218.73,139.64,219.94,141.37Z"/><path class="cls-6" d="M323.76,323.2c.05-.43.1-.87.14-1.31,1.49.26,3.1.31,3.59,2.19Z"/><path class="cls-4" d="M315,320c-1.22,1-2.13.83-2.72-.67C313.35,319,314.33,318.87,315,320Z"/><path class="cls-6" d="M291.3,251.05l2.36.1c0,.55.11,1.09.16,1.64C292.53,252.87,291.35,252.77,291.3,251.05Z"/><path class="cls-4" d="M88.85,377.25c.45-.85,1-1.36,1.8-.37A1.28,1.28,0,0,1,88.85,377.25Z"/><path class="cls-4" d="M92.39,376.52a1.53,1.53,0,0,1,2.16-1C94,376.35,93.45,377,92.39,376.52Z"/><path class="cls-2" d="M71.86,325c.94.31,1.57.73.59,1.7A1.22,1.22,0,0,1,71.86,325Z"/><path class="cls-4" d="M309.75,319.05c-.65.8-1.2.63-1.71-.15C308.68,318.2,309.25,318.2,309.75,319.05Z"/><path class="cls-4" d="M287.93,266.19a1.59,1.59,0,0,1,1.16-2.05C289.51,265.28,288.94,265.86,287.93,266.19Z"/><path class="cls-4" d="M291.15,247.59a1.48,1.48,0,0,1-1.46-2A1.71,1.71,0,0,1,291.15,247.59Z"/><path class="cls-4" d="M282,232.7c-.9-.38-1.61-.83-.59-1.84A1.26,1.26,0,0,1,282,232.7Z"/><path class="cls-4" d="M282.83,219.67a1.5,1.5,0,0,1,.9-2.22C284.39,218.58,283.72,219.17,282.83,219.67Z"/><path class="cls-4" d="M103.09,339.93l.82-.59Z"/><path class="cls-4" d="M289.54,322.41l-1.1.64Z"/><path class="cls-3" d="M282.47,237l2.68,3.48c-.47,2.41-1.71,1.87-3.1.83-1-.76-1.61-2.13-3.09-2.26a1.15,1.15,0,0,0,.32,2.08c4,1.62,2.67,7,6.37,8.85.49.24.43,1.4-.59,1.62-4.37.94-5,4-4.6,7.8.4,3.47-4.79,11.41-8.39,12.87-3.16,1.28-6.16,2.72-7.62,6.12-.89,2.08-3,2-4.73,2.7-3.81,1.53-4.71,3.63-3.4,7.35.65,1.82-3.08,1.81-1.95,4q0,.43,0,.87l0,0c-3-.93-4.42,1.79-6.43,2.94a95.53,95.53,0,0,1-21.77,9.48c-3.17.88-6.2-.07-9.28,0a3,3,0,0,1-3-3.15c0-6.8-5-9-10.28-10.7a52.7,52.7,0,0,0-6.42-1.22c-.67-1.42,2.86-3.05.26-4-2.76-1-3.9-5.35-7.8-3.61l-.45-1.2.94-.05c1.31,0,2.36-.51,2.48-1.91.14-1.66-1-2.29-2.46-2.4l0-.05a2.54,2.54,0,0,0-2.56-1.72c-3-5.8-3-12.13-3.7-18.44-1.32-11.9,4.42-19.78,12.81-27.05,2.82-2.44,6-4.49,8.66-7.1,2.85-2.77,3.29-5.62,1.26-9a8.18,8.18,0,0,1-1.33-2.74c-.23-1.7-2.48-3.35-1.24-4.75,1.53-1.72,2.82,1.54,4.61,1.13,1.43,1.58,3.58,4.66,4.85,3.45,2.52-2.42,2.7-.45,3.42.92a12.46,12.46,0,0,0,2.92,3.76c1,.86,1.9.46,2.76-.16,1.35-1,0-1.56-.27-2.42-1-3-2.37-5.43-5.67-6.45-.77-.24-1.29-1.53-1.77-2.42a3.19,3.19,0,0,0-2.68-1.94,3.07,3.07,0,0,0-1.7-2.65c-.82-2.1-1.36-4.22-.18-6.39,5.93-2.46,9.63-7.49,13.75-12,1.42.17,2.91-.37,4.35.51-.27,1.8-2.13,2.2-3.06,3.4a2.27,2.27,0,0,0,.11,3.14c1,1.27,1.88.29,2.47-.44,3.08-3.78,7.55-4.88,11.88-5.14,2.31-.13,4.78.91,7.36.36a27.44,27.44,0,0,0,4.15-1.14c1.86-.7,5.16-4.15,4.06,1.92-.34,1.91,1.53,1.7,2.79,1.84,0,.55-.05,1.1-.07,1.64-2.08,2.5,0,4.82.68,7,.15.47,3,4.16,5.32.87a38.26,38.26,0,0,0,14,5.44c1,1.83.52,3.17-1.6,2.41-3.45-1.23-7.05,0-10.41-1.05-1.65-.53-2.52.23-3.31,1.34-1.06,1.49-.06,2.93.56,4.12.95,1.84,1.89-.05,2.81-.36s1.8-.57,2.49.07c1.75,1.64-1.21,2.71-.63,4.26,5.16-.29,6.29,1.12,7,6.62a75.47,75.47,0,0,1,.48,9.6C275.39,232.86,280.13,234,282.47,237Zm-91.26,35.77c-.23,4.7,4.91,7.51,10.13,5.5,1.49-.57,3.8-.71,3.3-3.25a4.55,4.55,0,0,0-3.42-3.9c-3.75-1.26-8.37-1.72-10-6.52-.42-1.24,0-3.7-1.92-3.25s-.68,2.76-.92,4.23c-.27,1.63.94,2.7,1.76,3.88S192.26,271.27,191.21,272.77Z"/><path class="cls-5" d="M224,181.5c-4.12,4.54-7.82,9.57-13.75,12-2.09-1.08-2.41-1.06-2.33.72.1,2.4-1.36,3.47-2.69,5.08-4,4.8-9.9,6.95-14.33,11.13-3,2.83-6.87,4.75-10.41,7-2.53,1.6-5.55,1.64-7.16-.71-1.74-2.52,1.71-2.93,3-4.19,4.29-4.31,10.25-6.78,13.45-12.29l.37-.07a7.9,7.9,0,0,0,2.3-1.1A87.54,87.54,0,0,1,214,183.73c1.83-.95,3.06-3.06,5.26-3.67C221.16,179.53,223.07,179,224,181.5Z"/><path class="cls-6" d="M189.77,200.24c-3.2,5.51-9.16,8-13.45,12.29-1.25,1.26-4.7,1.67-3,4.19,1.61,2.35,4.63,2.31,7.16.71,3.54-2.22,7.41-4.14,10.41-7,4.43-4.18,10.35-6.33,14.33-11.13,1.33-1.61,2.79-2.68,2.69-5.08-.08-1.78.24-1.8,2.33-.72-1.18,2.17-.64,4.29.18,6.39-10,5.08-17.59,14-27.92,18.43-5.73,2.44-11.74,5.36-18.54,3.77-3.73-.88-3-2.28-1-4.3,3.86-3.87,8.74-6.15,13.38-8.81,2.82-1.62,4.85-3.71,4.94-7.18,1.76-.59,4.26,1.15,5.3-1.69Z"/><path class="cls-3" d="M186.64,200.14c-1,2.84-3.54,1.1-5.3,1.69-3.57-.41-6.6-2.59-9.33-4.33-4.74-3-8.87-2.21-13.21-.28-6.34,2.82-12.54,5.91-18.8,8.9-.93.44-1.83.92-2.77,1.34s-1.77.63-2.26-.41a1.64,1.64,0,0,1,.88-2.22c6.84-3.29,11.87-9.52,20.22-10.72,4-.58,8.08-3.32,12.53-4.2,2.66-.52,4.26-.32,6,1.92C177.67,195.84,182.05,198.21,186.64,200.14Z"/><path class="cls-3" d="M186.67,140.24c2.47-1.72,2.91-.26,2.37,1.74-1,3.68.9,4.32,3.92,4.31a17.58,17.58,0,0,0,9.11-2.69c1.8-1.06,3.78-2.11,4.94.88-3.08,5.7-9.29,4.27-14.06,6.12a7.5,7.5,0,0,1-2.6.06c-5.55,0-6.19-.9-4.45-6.17A11.75,11.75,0,0,0,186.67,140.24Z"/><path class="cls-6" d="M212.16,202.57a3.19,3.19,0,0,1,2.68,1.94c.48.89,1,2.18,1.77,2.42,3.3,1,4.71,3.4,5.67,6.45.28.86,1.62,1.44.27,2.42-.86.62-1.76,1-2.76.16a12.46,12.46,0,0,1-2.92-3.76c-.72-1.37-.9-3.34-3.42-.92-1.27,1.21-3.42-1.87-4.85-3.45C210.31,206.43,212.83,205.58,212.16,202.57Z"/><path class="cls-6" d="M189.18,281.87l.45,1.2c3.9-1.74,5,2.65,7.8,3.61,2.6.91-.93,2.54-.26,4-2-.22-3.29-1.64-4.64-3s-2.41-3-4.54-3.13c-1.34-.1-3.15-.27-2.72-2C185.85,280.28,187.68,281.11,189.18,281.87Z"/><path class="cls-3" d="M75.72,338.31q.86,6.13,1.7,12.26c-4.94-.41-2.81-4.89-4.1-7.37-.59-1.14-.31-2.85-.13-4.26C73.45,336.84,74.73,338,75.72,338.31Z"/><path class="cls-3" d="M233.23,144.51c2.07,2.07,6,2.71,5.27,6.92-2.24-2.49-5.14-4-8.75-5.22Z"/><path class="cls-6" d="M190.14,277.51c1.5.11,2.6.74,2.46,2.4-.12,1.4-1.17,1.9-2.48,1.91C190.13,280.38,190.14,279,190.14,277.51Z"/><path class="cls-6" d="M187.53,275.74a2.54,2.54,0,0,1,2.56,1.72C188.83,277.49,187.58,277.51,187.53,275.74Z"/><path class="cls-6" d="M275.78,350.38c1.15-1.29,2.27-2.6,3.46-3.84.48-.51,1.31-.77.94-1.7-2.08-5.19,2.45-5.3,4.92-5.24a14.18,14.18,0,0,0,8.91-2.73c5-3.94,9.88-4.81,15.57-2.38a1.82,1.82,0,0,0,1.28,0c1.8-.75,3.83-3.4,5.14.33.68,1.93,3.21,3.27,1.94,5.91-.27.56-.24,1.77.13,2,5.58,4.21-.44,5.09-2.07,7.14-.38.47-1.72.3-1.94.75-1.86,3.83-4,4.81-6.93,1-.12-.15-.95,0-1.19.22-3.75,3.83-9.4,2.63-13.63,5.19a3.84,3.84,0,0,1-4.85-.72c-1.46-1.38-2.75-2.43-5-1.58-1.28.49-2.27-.47-2.53-1.77C279.48,350.66,278,350.48,275.78,350.38Z"/><path class="cls-6" d="M250.92,445c-.72,2.95-1.82,5.43-5.58,5.21-.63,0-1.31.51-1.94.84-.8.42-1.35,2-2.49.85s.34-1.84.88-2.77c1.65-2.87-.81-4.37-2.37-6.09-2-2.17-5.23-3-6.33-6.05a7.8,7.8,0,0,1,2,.57c.84.52,1.56.9,2.17-.17.39-.68.44-1.71-.26-2-6.37-2.3-5.07-9.36-8.46-13.49-.81-1-.62-3.05-2.94-2.17-.8.3-1.37-.76-1.08-1.43a51.28,51.28,0,0,1,3.25-6.56c.27-.44,1.69-.5,2.44-.27,1.45.43.51,1.17.08,1.92a2,2,0,0,0,1.05,2.89c5.23,1.24,5.73,5.66,6.91,9.68a20.72,20.72,0,0,0,6.78,10.61c1.94,1.56,1.39,3.28,1,5.12-.18,1-2.17,1.82-.43,2.84,1,.56,2.28,1.57,3.53.1C249.84,443.93,250.46,444.26,250.92,445Z"/><path class="cls-6" d="M256.63,354.18c-1.9-.14-3,.19-3.48-.64-.63-1,.12-2.13.8-2.74,3.32-3,6.87-5.77,6.9-11a1.31,1.31,0,0,1,2.51-.56c1.22,2.5,3,5.28.25,8-1.56,1.51-2,3.71-3.81,5.18C258.43,353.53,257.3,354.27,256.63,354.18Z"/><path class="cls-6" d="M337.42,400.3c-5.48,5.24-9.14,12.08-15.47,16.37-.84.57-1.85,1-2.73,0a1.78,1.78,0,0,1,.08-2.73c5.69-4.46,10.28-10.29,16.94-13.53A3.23,3.23,0,0,1,337.42,400.3Z"/><path class="cls-6" d="M198.67,381.47c-3.12-.47-3.68-3.79-5.87-5.29-.22-1.4.6-3.34-1.86-3.57-1.05-.6-.9-1.63-.91-2.59,1.11-.27,2.22-.59,3.34-.81,1.49-.29,3.17-3.35,4.21-.92.83,1.91,5,4.5.44,7.2-1.64,1-.56,2.39.49,3.17A18.91,18.91,0,0,0,202,380.3C201.33,382.09,199.76,381.1,198.67,381.47Z"/><path class="cls-6" d="M322.24,328.73c2,1.14,5,1.15,4,5a45.32,45.32,0,0,0-1,8.08c-.06.76.18,1.47-.86,1.55-.66.05-1.27-.37-1.2-1,.37-2.9-2-3.86-3.57-5.45-1.05-1-2.39-2.43-1.13-4.16C319.51,331.29,320.05,329.28,322.24,328.73Z"/><path class="cls-6" d="M218.9,409.73c-1-.33-1.71,2-3-.19-2.17-3.75-3.41-8.17-7.37-10.81-1-.68.92-1.5,1-2.46,2.08-1.5,3.23,1,5,1.26,3,.42,1.51,2.43.68,4.17-.41.86.7,1.51,1.6,1.62C222.1,404,220.12,407,218.9,409.73Z"/><path class="cls-6" d="M189.92,369.16l-1.57-.11c0-1.47-.11-3,.87-4.2,2.4-2.86,1.67-5.56-.13-8.29,1.6-1.86.47-4.47,1.6-6.75,2.21,1.31,2.24,3.12,2.12,5,.46,4,1.17,7.91-.86,11.77C191.4,367.64,191.09,368.68,189.92,369.16Z"/><path class="cls-6" d="M337.88,377.2c.05,2-.64,3.41-2.42,3.18-2.06-.27-4.31-2.15-3.73-3.73.68-1.85-1.18-6,2.8-5.5C337.74,371.53,336.48,375.49,337.88,377.2Z"/><path class="cls-6" d="M232.24,435.32c-3.49.89-5.89.42-6.25-4-.3-3.79-3.27-6.66-4.23-10.29a2.76,2.76,0,0,1,2.85,1.66C226,427.66,230.59,430.59,232.24,435.32Z"/><path class="cls-6" d="M267.56,329.45c.36-4.24,5.21-3.45,6.91-6.18,2.3.41,2.3,1.47.75,2.84C273,328,270.69,329.66,267.56,329.45Z"/><path class="cls-6" d="M206,392l-2.63,1c-.4-2.31,2-3.63,2-6,0-1.45,1.73-1.25,2.81-1,1.64.35.66,1.48.61,2.4C208.67,390.22,207,390.82,206,392Z"/><path class="cls-6" d="M261.37,330.36c2.18.52,3.77-3,6.19-.9-.14,2.27-1.88,3.12-3.6,4-1.09.54-2.33.81-3.27-.09C259.41,332.1,261.87,331.53,261.37,330.36Z"/><path class="cls-6" d="M226.69,408.38c-1,0-1.34-.49-1.19-1.33a1.93,1.93,0,0,1,2.08-1.72c.91,0,1.83.5,1.74,1.46C229.16,408.3,227.47,407.72,226.69,408.38Z"/><path class="cls-6" d="M257.87,446.64c-2.41,1.54-3.52-1.16-5.31-1.63C255,443.46,256.48,444.84,257.87,446.64Z"/><path class="cls-6" d="M338.78,406c-1,1.71-2.1,3.35-4.34,3.58C334.73,407,336.33,406,338.78,406Z"/><path class="cls-6" d="M332.69,411.35c.11,1.91-.42,3.36-2.6,3.62C330,413.08,331.21,412.12,332.69,411.35Z"/><path class="cls-6" d="M203.34,393.73c1.51,1.49,1,2.32-.89,2.68C202.48,395.42,202.27,394.36,203.34,393.73Z"/><path class="cls-6" d="M207.76,396.28c-1.24.15-1.8-.45-1.82-1.65A1.58,1.58,0,0,1,207.76,396.28Z"/><path class="cls-4" d="M286,326l-.89.84Z"/><path class="cls-2" d="M254.34,293.35q0-.44,0-.87l.81.8Z"/><path class="cls-4" d="M285.16,326.77c-.21.42-.45.65-.78.09A5.18,5.18,0,0,0,285.16,326.77Z"/><path class="cls-6" d="M218.84,421.49a5.9,5.9,0,0,1,1.65,6.57C218.62,425.73,218.81,423.56,218.84,421.49Z"/><path class="cls-3" d="M301.87,432.46l-2.61,1c-.93-3.54,1.58-5.54,3.46-7.85.61-.75,1.29-1.27,2.12-.54s.38,1.54-.1,2.3c-.68,1.1-1.33,2.21-2,3.32a2.08,2.08,0,0,0-.93,1.86Z"/><path class="cls-4" d="M282,431.44c-1-.24-1.36-.83-1.09-1.63a3.42,3.42,0,0,1,2.83-2.44c.65-.1,1.31.5,1,1C284.08,429.58,283.66,431.14,282,431.44Z"/><path class="cls-3" d="M299.28,433.4c-1.24,2-2.69,3.65-5.33,3.5C294.47,433.82,296.84,433.55,299.28,433.4Z"/><path class="cls-4" d="M281.54,438.75c-.68-.15-1.45-.2-1.36-1.2a.41.41,0,0,1,.28-.29c1-.12,1.1.62,1.26,1.3Z"/><path class="cls-4" d="M301.83,432.51a2.08,2.08,0,0,1,.93-1.86A2,2,0,0,1,301.83,432.51Z"/><path class="cls-3" d="M268.48,285.43c-.31.33-.61.67-.91,1C267.87,286.1,268.17,285.76,268.48,285.43Z"/><path class="cls-3" d="M269.57,284.57l-1.12.88Z"/><path class="cls-3" d="M343.21,407.8c.07-.95-.09-2,.92-2.6l3.4-1.24c.05,3.21-3.12,3.68-4.31,5.63C343.22,409,343.21,408.4,343.21,407.8Z"/><path class="cls-3" d="M349.77,398.76c1,1.08,1.78,2.12.31,3.27a1.24,1.24,0,0,1-1.08,0C348.55,400.79,349.38,399.87,349.77,398.76Z"/><polygon class="cls-3" points="343.22 409.59 343.02 409.95 342.86 409.79 343.22 409.59"/><path class="cls-3" d="M189.09,356.56c1.8,2.73,2.53,5.43.13,8.29-1,1.17-.91,2.73-.87,4.2-2.25.69-4.42,1.66-3-2.5A103.21,103.21,0,0,1,189.09,356.56Z"/><path class="cls-3" d="M190.94,372.61c2.46.23,1.64,2.17,1.86,3.57C190.27,376,191.12,374,190.94,372.61Z"/><path class="cls-6" d="M298.45,438.76l-.88.89-.23-.23.89-.88Z"/><path class="cls-6" d="M297.57,439.65,297,440c.11-.18.21-.36.31-.54Z"/><path class="cls-4" d="M287.6,326.36c4.44-3.12,9.14-5.1,14.5-5.18C297.07,322.48,293.51,327.83,287.6,326.36Z"/><path class="cls-6" d="M264.07,195.46c-2.36,3.29-5.17-.4-5.32-.87-.67-2.18-2.76-4.5-.68-7,.35.26.72.77,1,.73C265.15,187.68,263.91,192.05,264.07,195.46Z"/><path class="cls-6" d="M258.76,178l.06-3.61c.95.15,2.29-.17,2.43,1.25C261.41,177.27,260.25,177.87,258.76,178Z"/><path class="cls-4" d="M268.43,442.17c-.65,1.14-1.27,2.3-3.13,2.26.44-1.8,1.72-2.11,3.13-2.26Z"/><path class="cls-6" d="M191.21,272.77c1-1.5-.34-2.27-1.05-3.31s-2-2.25-1.76-3.88c.24-1.47-1-3.81.92-4.23s1.5,2,1.92,3.25c1.61,4.8,6.23,5.26,10,6.52a4.55,4.55,0,0,1,3.42,3.9c.5,2.54-1.81,2.68-3.3,3.25C196.12,280.28,191,277.47,191.21,272.77Z"/><text/><text class="cls-7" transform="translate(204.15 391.74) scale(0.99 1)"><tspan class="cls-8">N</tspan><tspan x="3.88" y="0">o</tspan><tspan class="cls-9" x="7.23" y="0">u</tspan><tspan class="cls-10" x="10.22" y="0">v</tspan><tspan x="12.89" y="0">elle </tspan><tspan class="cls-11" x="22.71" y="0">T</tspan><tspan x="25.73" y="0">er</tspan><tspan class="cls-8" x="31.19" y="0">r</tspan><tspan x="33.37" y="0">e :</tspan><tspan class="cls-12" x="0" y="6.8">	</tspan><tspan class="cls-9" x="33.01" y="6.8">R</tspan><tspan x="36.26" y="6.8">ue du </tspan><tspan class="cls-9" x="51.32" y="6.8">G</tspan><tspan class="cls-13" x="55.59" y="6.8">r</tspan><tspan x="57.49" y="6.8">a</tspan><tspan class="cls-14" x="60.42" y="6.8">n</tspan><tspan x="63.5" y="6.8">d</tspan><tspan class="cls-9" x="66.72" y="6.8">-</tspan><tspan class="cls-11" x="69.29" y="6.8">V</tspan><tspan x="72.36" y="6.8">e</tspan><tspan class="cls-15" x="75.53" y="6.8">r</tspan><tspan class="cls-10" x="77.71" y="6.8">g</tspan><tspan x="81.12" y="6.8">er 12</tspan><tspan class="cls-12" x="0" y="13.61">	</tspan><tspan x="33.01" y="13.61">1</tspan><tspan class="cls-9" x="34.23" y="13.61">9</tspan><tspan x="37.37" y="13.61">20 Mar</tspan><tspan class="cls-9" x="54.96" y="13.61">t</tspan><tspan x="57.05" y="13.61">ig</tspan><tspan class="cls-16" x="61.78" y="13.61">n</tspan><tspan x="64.7" y="13.61">y</tspan></text><text class="cls-7" transform="translate(38.55 350.34) scale(0.99 1)"><tspan class="cls-9">Che</tspan><tspan x="10.41" y="0">z Ma</tspan><tspan class="cls-9" x="21.98" y="0">m</tspan><tspan x="26.57" y="0">ie :</tspan><tspan class="cls-17" x="0" y="6.8">	</tspan><tspan class="cls-9" x="36" y="6.8">R</tspan><tspan x="39.25" y="6.8">ue d</tspan><tspan class="cls-18" x="49.98" y="6.8">e</tspan><tspan x="53.08" y="6.8">s </tspan><tspan class="cls-10" x="56.98" y="6.8">R</tspan><tspan class="cls-19" x="60.07" y="6.8">o</tspan><tspan class="cls-9" x="63.3" y="6.8">i</tspan><tspan x="64.35" y="6.8">s </tspan><tspan class="cls-20" x="68.25" y="6.8">1</tspan><tspan x="69.58" y="6.8">7</tspan><tspan class="cls-17" x="0" y="13.61">	</tspan><tspan x="36" y="13.61">12</tspan><tspan class="cls-19" x="40.19" y="13.61">0</tspan><tspan x="43.51" y="13.61">4 </tspan><tspan class="cls-9" x="48.19" y="13.61">G</tspan><tspan x="52.46" y="13.61">e</tspan><tspan class="cls-18" x="55.62" y="13.61">n</tspan><tspan x="58.71" y="13.61">è</tspan><tspan class="cls-10" x="61.87" y="13.61">v</tspan><tspan x="64.55" y="13.61">e</tspan></text><text class="cls-7" transform="translate(138.59 276.45) scale(0.99 1)"><tspan class="cls-18">L</tspan><tspan x="2.77" y="0">e </tspan><tspan class="cls-11" x="7.24" y="0">T</tspan><tspan x="10.26" y="0">o</tspan><tspan class="cls-18" x="13.61" y="0">p</tspan><tspan x="16.76" y="0">inambour :</tspan><tspan class="cls-21" x="0" y="6.8">	</tspan><tspan class="cls-11" x="17.67" y="6.8">A</tspan><tspan class="cls-10" x="20.74" y="6.8">v</tspan><tspan x="23.42" y="6.8">enue William</tspan><tspan class="cls-22" x="54.94" y="6.8">-</tspan><tspan class="cls-23" x="57.63" y="6.8">F</tspan><tspan class="cls-24" x="60.12" y="6.8">r</tspan><tspan x="62.02" y="6.8">a</tspan><tspan class="cls-9" x="64.94" y="6.8">iss</tspan><tspan x="71.07" y="6.8">e 9</tspan><tspan class="cls-21" x="0" y="13.61">	</tspan><tspan class="cls-22" x="17.67" y="13.61">1</tspan><tspan class="cls-25" x="18.95" y="13.61">0</tspan><tspan class="cls-26" x="22.5" y="13.61">0</tspan><tspan x="25.99" y="13.61">6 La</tspan><tspan class="cls-18" x="36.25" y="13.61">u</tspan><tspan x="39.23" y="13.61">san</tspan><tspan class="cls-9" x="47.89" y="13.61">n</tspan><tspan class="cls-27" x="50.98" y="13.61">e</tspan></text><text/><text class="cls-7" transform="translate(99.08 231.79) scale(0.99 1)"><tspan class="cls-28">F</tspan><tspan class="cls-27" x="2.38" y="0">er</tspan><tspan class="cls-9" x="7.83" y="0">m</tspan><tspan x="12.42" y="0">e du </tspan><tspan class="cls-9" x="24.45" y="0">J</tspan><tspan class="cls-27" x="25.78" y="0">o</tspan><tspan class="cls-13" x="29.13" y="0">r</tspan><tspan class="cls-29" x="31.03" y="0">an :</tspan><tspan class="cls-12" x="0" y="6.8">	</tspan><tspan class="cls-9" x="33.01" y="6.8">Ch</tspan><tspan x="40.31" y="6.8">e</tspan><tspan class="cls-9" x="43.48" y="6.8">m</tspan><tspan x="48.06" y="6.8">in d</tspan><tspan class="cls-18" x="56.82" y="6.8">e</tspan><tspan x="59.93" y="6.8">s P</tspan><tspan class="cls-9" x="66.94" y="6.8">h</tspan><tspan x="70.03" y="6.8">il</tspan><tspan class="cls-30" x="72.22" y="6.8">o</tspan><tspan class="cls-9" x="75.4" y="6.8">s</tspan><tspan x="77.94" y="6.8">op</tspan><tspan class="cls-18" x="84.51" y="6.8">he</tspan><tspan x="90.7" y="6.8">s </tspan><tspan class="cls-22" x="94.6" y="6.8">1</tspan><tspan class="cls-29" x="95.88" y="6.8">5</tspan><tspan class="cls-12" x="0" y="13.61">	</tspan><tspan class="cls-22" x="33.01" y="13.61">1</tspan><tspan x="34.29" y="13.61">350 Orbe</tspan></text><text class="cls-7" transform="translate(184.25 343.45) scale(0.99 1)"><tspan class="cls-18">L</tspan><tspan class="cls-27" x="2.77" y="0">e </tspan><tspan class="cls-14" x="7.24" y="0">G</tspan><tspan class="cls-13" x="11.51" y="0">r</tspan><tspan x="13.41" y="0">ai</tspan><tspan class="cls-9" x="17.43" y="0">n</tspan><tspan x="20.52" y="0">ier :</tspan><tspan class="cls-21" x="0" y="6.8">	</tspan><tspan class="cls-31" x="17.67" y="6.8">R</tspan><tspan class="cls-27" x="20.76" y="6.8">o</tspan><tspan class="cls-9" x="24.11" y="6.8">u</tspan><tspan class="cls-30" x="27.09" y="6.8">t</tspan><tspan x="29.07" y="6.8">e d</tspan><tspan class="cls-9" x="36.75" y="6.8">e</tspan><tspan x="39.86" y="6.8">s Mi</tspan><tspan class="cls-14" x="49.52" y="6.8">ne</tspan><tspan x="55.71" y="6.8">s de Sel</tspan><tspan class="cls-21" x="0" y="13.61">	</tspan><tspan class="cls-22" x="17.67" y="13.61">1</tspan><tspan x="18.95" y="13.61">880 B</tspan><tspan class="cls-30" x="33.67" y="13.61">e</tspan><tspan x="36.66" y="13.61">x</tspan></text></g></g></svg>