<svg xmlns="http://www.w3.org/2000/svg" width="29.348" height="30.111" viewBox="0 0 29.348 30.111">
  <path id="Icon_awesome-arrow-down" data-name="Icon awesome-arrow-down" d="M27.78,15.052l1.492,1.492a1.606,1.606,0,0,1,0,2.278L16.214,31.887a1.606,1.606,0,0,1-2.278,0L.871,18.823a1.606,1.606,0,0,1,0-2.278l1.492-1.492a1.615,1.615,0,0,1,2.305.027l7.715,8.1V3.863A1.609,1.609,0,0,1,14,2.25h2.151a1.609,1.609,0,0,1,1.613,1.613V23.177l7.715-8.1a1.6,1.6,0,0,1,2.305-.027Z" transform="translate(29.745 32.361) rotate(180)" fill="#acdc8f"/>
</svg>
